<svg xmlns="http://www.w3.org/2000/svg" version="1.1" xmlns:xlink="http://www.w3.org/1999/xlink" xmlns:svgjs="http://svgjs.dev/svgjs" viewBox="1058.9592 742.83509 122.2222999999999 111.01877999999999"><path class="circo" id="id-001-01" d="M 1106.8898,782.70722 1105.6424,781.72072 1105.8355,780.53349 1103.8114,780.54789 1103.8079,780.93339 1102.7814,781.36118 1102.7076,781.61735 1102.2977,782.04225 1102.0201,782.53955 1101.407,782.52614 1101.1171,781.81394 1100.1312,781.49153 1099.7289,781.0232 1099.315,781.50022 1099.4556,783.02784 1098.4448,783.45305 1097.7957,783.08874 1096.3839,781.57838 1095.6644,782.03758 1095.1298,783.20208 1093.9347,782.91733 1092.3912,781.02015 1091.3058,781.48442 1090.1418,781.21213 1089.4946,782.54341 1087.6509,780.86072 1086.815,779.41473 1086.7548,779.01248 1087.4641,778.08578 1089.8493,777.96622 1089.9875,777.58465 1089.6392,775.72986 1087.5583,775.44455 1085.9144,775.71708 1084.8151,775.07403 1084.1661,773.99518 1083.7813,773.27979 1084.0057,772.4968 1084.9748,771.35186 1085.073,770.11002 1082.8252,769.14899 1082.5446,767.97136 1084.0689,767.30308 1084.8327,765.66189 1083.4019,763.85602 1082.2811,762.75136 1080.4094,762.33457 1079.8234,763.17403 1078.3517,762.45614 1077.3652,761.10905 1076.1486,761.33313 1075.943,760.68896 1073.044,759.2512 1073.183,757.51399 1072.3578,756.98779 1072.3981,755.20438 1072.6403,753.96178 1072.6629,752.6014 1072.7555,752.1059 1072.8879,751.76024 1074.5883,749.68879 1074.5952,747.47339 1074.5945,747.31773 1074.6594,746.47085 1075.6546,745.11056 1075.8776,744.51422 1076.2155,743.48012 1076.3861,743.26075 1077.3849,743.32325 1077.3371,744.13965 1077.9257,744.51027 1078.6955,744.18461 1079.3505,743.2631 1080.1787,743.14044 1082.4018,743.81977 1082.7609,743.65093 1083.0702,744.9625 1086.5143,746.95887 1087.9337,746.76924 1089.955,745.32579 1091.4628,745.8655 1093.2532,744.83938 1093.4519,744.05382 1093.8493,743.95785 1095.8147,744.4321 1095.9571,742.83509 1096.9208,743.60598 1098.9646,744.05221 1099.1639,744.42494 1098.89,744.70095 1099.6668,745.99292 1099.4291,746.7248 1099.9685,747.29711 1100.1413,748.92416 1100.9602,748.92502 1101.943,750.22902 1102.9413,750.03295 1103.644,750.95772 1105.1236,751.36375 1108.2588,751.58741 1109.2079,753.78543 1108.1832,754.44395 1108.0261,755.24026 1108.4094,755.38033 1107.2596,755.44111 1107.3576,755.84045 1108.1385,756.09097 1110.259,757.3895 1111.4511,757.42722 1113.0652,758.74904 1113.9812,759.53375 1112.8926,760.67307 1112.7564,761.04967 1113.7693,761.68729 1113.801,762.4772 1113.6055,763.24017 1114.4475,764.14638 1115.946,764.83307 1116.0046,765.63345 1116.2048,767.74208 1116.2059,767.85297 1116.7317,768.54974 1117.3006,764.39314 1117.8618,763.79482 1119.0188,767.80866 1120.4919,767.45533 1121.4018,766.77296 1122.2624,767.77691 1121.5166,770.50148 1120.8765,770.83498 1120.7636,772.51796 1121.9227,773.70316 1122.2673,773.94772 1124.3271,773.58081 1124.5833,773.33414 1125.328,774.05359 1125.37,774.8536 1124.6062,776.38305 1123.8606,776.78459 1121.7334,780.44358 1121.347,780.62734 1121.018,780.35366 1120.4662,779.89815 1120.1457,780.09729 1120.2215,780.89094 1121.31,781.42842 1121.4864,783.05817 1121.0076,783.67037 1120.5061,784.23317 1121.1035,784.73515 1119.8105,787.83511 1118.4191,789.40578 1118.7938,791.08377 1118.5635,791.44899 1117.7052,791.46113 1116.9472,791.2876 1116.6588,791.93622 1116.3091,791.99177 1115.7116,794.44989 1116.0284,795.65772 1115.8473,796.03973 1114.6872,796.48141 1114.4309,797.28281 1113.849,799.2564 1114.0376,799.97161 1113.7267,800.58572 1113.0628,801.04889 1111.8487,800.97725 1111.7499,802.15465 1110.6792,801.62849 1110.3215,801.82196 1109.4652,801.36423 1108.3676,803.36808 1108.2411,805.06586 1107.8692,806.25002 1107.2814,806.85792 1106.5718,807.26928 1106.2531,808.07015 1105.3055,806.71672 1105.1256,804.63773 1103.7028,803.85017 1104.2402,802.31273 1104.0764,801.92751 1103.8469,801.1476 1103.4903,800.53832 1102.6985,801.35529 1100.9437,802.24636 1099.7451,802.09674 1099.0275,800.30929 1097.8381,800.0102 1096.8649,798.64254 1097.0078,796.52834 1097.4085,796.56155 1097.7116,795.78506 1098.3735,795.29002 1101.8773,794.17407 1102.2531,792.64289 1101.8825,790.6372 1102.1703,789.84421 1101.7885,788.66086 1102.7828,788.21168 1103.0249,787.52552 1103.8435,787.33115 1105.4336,787.86775 1106.5506,787.49669 1108.0017,787.68946 1108.3996,786.74161 1108.0193,786.10244 1108.2654,785.82211 1107.7212,785.36059 1107.4355,784.30388 1106.8898,782.70722 z">
      <title id="t1">Première circonscription de l'Ain</title>
      <desc id="d1">Cantons de : Bourg-en-Bresse Est, Bourg-en-Bresse Nord-Centre, Ceyzériat, Coligny, Montrevel-en-Bresse, Pont-d'Ain, Pont-de-Vaux, Saint-Trivier-de-Courtes, Treffort-Cuisiat, Viriat</desc>
    </path><path class="circo" id="id-001-02" d="M 1108.2004,813.46673 1108.131,812.41844 1107.4689,812.83961 1106.6615,812.81932 1104.2071,815.12128 1103.1898,814.73643 1103.4393,813.9883 1102.9865,812.07672 1102.6284,811.42551 1101.89,811.25126 1101.14,812.03527 1100.8747,812.80306 1099.698,813.19278 1098.8614,812.29496 1097.6517,812.29203 1097.1137,811.17679 1095.9283,810.96231 1095.2298,809.47565 1094.4985,809.30796 1093.7214,810.10651 1092.5298,810.23186 1088.0242,810.56879 1087.6017,811.5314 1087.7852,812.23896 1087.0156,812.02818 1086.7251,812.30804 1085.3582,815.21343 1085.1049,814.90851 1082.8445,814.47281 1081.9661,815.31792 1079.5106,813.99527 1078.6141,812.75073 1078.2655,812.50855 1077.0049,812.66234 1075.9781,813.3561 1075.1223,812.84841 1075.6963,811.76445 1075.4631,810.56928 1075.7173,808.9218 1074.9675,808.63239 1072.9844,808.93697 1071.74,808.203 1070.7648,808.94113 1067.9805,809.76137 1067.9768,807.6953 1067.5791,806.08139 1066.7629,805.93344 1065.5936,805.56043 1065.0048,805.60314 1064.1793,805.52139 1061.641,805.72858 1060.5238,806.02008 1060.4815,806.13927 1060.573,806.92388 1061.0017,809.6837 1060.6242,810.82303 1060.4791,811.07762 1058.9592,812.50647 1059.0262,813.65644 1060.1384,814.13229 1061.5551,814.42917 1062.623,813.92804 1062.9893,814.08169 1063.9244,815.82786 1065.5195,816.16365 1065.7673,817.51409 1065.2083,818.94158 1065.3,819.15374 1069.0349,817.13341 1069.3735,817.84784 1070.9104,818.29909 1070.9875,819.49461 1071.7195,819.05114 1071.9854,821.14855 1074.1266,821.86659 1073.4085,823.88233 1074.3089,824.66708 1075.1551,826.9155 1074.9082,829.73525 1075.3831,830.42129 1076.9188,829.80976 1077.7391,829.84001 1078.7736,829.58233 1079.3422,830.00841 1080.1892,830.19668 1081.2583,829.9578 1081.9629,829.67477 1083.2792,830.22461 1084.3262,829.74074 1085.0745,829.89086 1086.0939,829.42184 1086.8039,829.69855 1089.728,829.46587 1090.4513,829.27757 1091.1307,831.1136 1091.5184,830.98022 1091.4129,829.76355 1092.167,829.49172 1094.1179,830.35191 1095.2783,830.51652 1096.1358,831.42535 1096.9128,831.71477 1097.783,833.22252 1098.0971,834.32805 1098.8777,834.39263 1100.9293,834.70716 1102.2782,833.66739 1103.5893,832.822 1104.5471,832.20496 1106.5644,829.17903 1107.5728,825.0377 1108.5612,823.80129 1109.9534,823.00546 1110.3825,821.8755 1110.8389,821.08506 1112.0301,820.80825 1113.993,822.41047 1116.2334,823.97082 1117.2483,825.04856 1117.3835,825.8937 1118.7223,826.9693 1118.8903,827.27783 1120.1462,827.36639 1120.9431,826.3976 1122.5395,826.2202 1121.742,823.82912 1122.0672,823.06625 1121.8872,822.68343 1122.4862,822.63619 1121.6751,821.75061 1120.6395,821.13634 1120.3248,821.38616 1119.8543,820.74988 1117.0665,819.18293 1115.8476,818.25536 1115.0772,818.01288 1114.4015,816.51653 1113.3999,815.34028 1113.025,814.26209 1112.6376,814.18656 1110.9478,813.2077 1110.5909,812.98778 1109.8715,813.41465 1108.2004,813.46673 z">
      <title id="t2">Deuxième circonscription de l'Ain</title>
      <desc id="d2">Cantons de : Lagnieu, Méximieux, Miribel, Montluel, Reyrieux, Trévoux</desc>
    </path><path class="circo" id="id-001-03" d="M 1153.1103,793.91957 1152.3829,793.53768 1151.6245,793.87274 1151.7062,795.47057 1150.8329,796.87599 1150.5486,799.02855 1151.0195,799.83235 1150.457,801.11441 1150.6561,802.44667 1150.9077,803.56653 1150.3274,804.554 1150.7595,805.48247 1150.7284,807.28861 1150.9068,808.11297 1152.7546,809.9019 1152.649,811.16322 1152.8202,812.30193 1152.544,813.42333 1152.0048,813.95249 1152.5166,814.00603 1151.7464,815.00812 1152.3614,816.9967 1152.0993,818.25426 1151.1504,821.48957 1150.5019,823.51129 1149.9565,825.32288 1149.5095,827.27478 1148.7516,828.0767 1148.5525,831.24735 1148.2798,833.24446 1148.4212,834.26529 1148.1127,835.51039 1148.4676,837.58665 1148.1985,837.86473 1147.2849,838.12111 1147.8533,839.69162 1146.7436,840.84296 1146.2014,841.96904 1145.522,842.42562 1144.0244,841.85473 1143.7201,841.96258 1141.4129,841.87969 1141.6788,843.3157 1142.144,844.92479 1140.1414,847.10424 1140.0161,847.9329 1140.3287,848.73032 1140.3336,849.90713 1139.3506,850.62505 1137.3515,850.79282 1136.9698,851.92017 1136.1269,852.45253 1135.9535,853.13653 1135.6001,853.85387 1134.8804,853.6383 1134.1293,852.16241 1133.2391,850.85373 1133.0264,848.85509 1131.0636,847.39227 1132.5783,846.76487 1133.4138,847.53555 1134.5334,847.03905 1134.3539,846.22087 1133.3121,842.12314 1132.5648,841.04445 1132.2034,839.79512 1131.2169,838.35715 1131.2754,838.14072 1130.3818,836.59033 1131.5266,835.46872 1132.0668,835.78173 1132.2358,831.01496 1133.2719,831.74013 1134.1169,831.78024 1136.1256,833.29809 1136.8227,834.35254 1137.4365,832.7886 1136.4815,829.97963 1137.5181,830.02438 1138.4255,830.59444 1138.2547,829.06146 1140.0254,829.87976 1141.5017,829.49416 1141.861,830.67771 1141.5379,831.38621 1142.4454,832.02917 1144.2493,831.43803 1144.0818,830.8984 1146.1168,829.75086 1146.1687,828.91975 1147.0274,827.95094 1146.7307,827.85043 1146.8081,826.70005 1147.2609,822.8685 1146.2241,820.97077 1146.3044,820.64902 1146.4498,820.06213 1147.0814,815.76627 1147.0229,814.33262 1146.8468,813.71414 1146.4782,811.66003 1145.4647,811.02626 1145.4121,810.60792 1145.3034,808.54884 1145.1506,807.28568 1143.4349,803.87722 1143.1329,803.35707 1143.1387,803.21946 1143.5986,798.16266 1143.1268,796.97047 1142.624,795.10568 1143.1058,793.48215 1143.5426,791.12179 1144.9511,789.15932 1145.1464,786.76591 1144.5445,786.16221 1142.5399,785.63591 1142.4184,785.12859 1141.4304,784.58354 1142.2554,781.44991 1143.8835,782.05735 1145.0948,782.24218 1146.7094,781.83727 1147.0284,781.10368 1146.4645,779.62063 1147.4604,777.3938 1148.1417,776.91401 1149.6879,777.57789 1151.6885,776.90958 1152.0528,776.72547 1152.3599,775.57584 1152.0946,774.37879 1154.1684,774.38052 1155.36,773.25052 1155.7433,773.97686 1156.726,773.13198 1157.9058,771.3168 1159.1444,771.64509 1159.7159,770.5545 1159.9719,768.52624 1160.5647,767.97616 1161.8927,768.53018 1164.7495,763.47945 1165.5126,761.9568 1168.0004,760.31332 1169.4995,758.82187 1171.3515,755.94894 1172.0118,755.19686 1172.3036,755.35493 1175.1527,756.3342 1175.9157,757.37521 1177.0971,757.85393 1179.3686,759.8413 1180.5468,760.24494 1181.0306,760.96048 1181.1815,761.36516 1181.0357,761.77339 1180.255,763.28598 1179.5459,764.36839 1178.7871,764.75969 1178.5671,765.59405 1177.4352,767.54579 1176.9864,768.72128 1177.0179,770.25039 1175.5641,771.53427 1176.7263,773.89424 1177.0722,774.14396 1177.2785,775.40853 1176.7131,776.50387 1175.6574,777.21302 1174.3552,776.1827 1172.8537,776.83387 1172.129,776.44782 1170.8533,778.03847 1170.4669,777.89617 1169.7965,777.38753 1168.2809,778.05346 1167.112,779.18904 1166.3373,779.45183 1166.2438,779.85344 1164.6877,780.15085 1164.4305,781.68302 1163.8197,782.20435 1163.7751,782.3344 1166.2877,783.82593 1166.0354,785.04647 1165.3471,785.37433 1164.5973,787.3433 1163.8622,788.7552 1164.015,789.53042 1163.128,790.29732 1162.2069,790.80094 1161.5039,790.71938 1160.7363,790.7991 1160.0968,790.42611 1158.9404,791.46861 1158.093,791.80856 1157.7697,791.91279 1157.1918,793.05278 1157.7882,794.57039 1157.5119,795.80724 1155.4947,796.00505 1154.6213,795.86619 1153.1103,793.91957 z">
      <title id="t3">Troisième circonscription de l'Ain</title>
      <desc id="d3">Cantons de : Bellegarde-sur-Valserine, Belley, Collonges, Ferney-Voltaire, Gex, Seyssel</desc>
    </path><path class="circo" id="id-001-04" d="M 1069.1994,763.22736 1069.3354,764.40299 1069.231,766.46081 1068.3634,768.21749 1067.6587,769.73946 1067.1115,772.58191 1066.2614,773.92571 1065.7794,775.26003 1065.5568,777.27533 1064.9229,778.319 1064.6769,778.94749 1064.4782,779.48857 1064.2424,781.03993 1064.2077,781.84342 1063.2546,783.1855 1063.178,784.826 1063.357,785.44479 1064.1579,786.43026 1065.0767,787.31017 1064.5151,789.43019 1063.7962,790.44464 1062.4857,792.07098 1062.0645,793.432 1061.4749,794.15311 1060.4417,795.29162 1060.5771,796.38741 1061.142,796.80958 1061.609,798.22269 1061.3819,798.98665 1059.7272,800.66655 1060.2406,802.16592 1060.3073,803.0761 1060.1231,804.35437 1060.5238,806.02008 1061.641,805.72858 1064.1793,805.52139 1065.0048,805.60314 1065.5936,805.56043 1066.7629,805.93344 1067.5791,806.08139 1067.9768,807.6953 1067.9805,809.76137 1070.7648,808.94113 1071.74,808.203 1072.9844,808.93697 1074.9675,808.63239 1075.7173,808.9218 1075.4631,810.56928 1075.6963,811.76445 1075.1223,812.84841 1075.9781,813.3561 1077.0049,812.66234 1078.2655,812.50855 1078.6141,812.75073 1079.5106,813.99527 1081.9661,815.31792 1082.8445,814.47281 1085.1049,814.90851 1085.3582,815.21343 1086.7251,812.30804 1087.0156,812.02818 1087.7852,812.23896 1087.6017,811.5314 1088.0242,810.56879 1092.5298,810.23186 1093.7214,810.10651 1094.4985,809.30796 1095.2298,809.47565 1095.9283,810.96231 1097.1137,811.17679 1097.6517,812.29203 1098.8614,812.29496 1099.698,813.19278 1100.8747,812.80306 1101.14,812.03527 1101.89,811.25126 1102.6284,811.42551 1102.9865,812.07672 1103.7785,811.90885 1104.0556,810.74036 1105.5343,809.38049 1105.7714,809.04241 1106.2531,808.07015 1105.3055,806.71672 1105.1256,804.63773 1103.7028,803.85017 1104.2402,802.31273 1104.0764,801.92751 1103.8469,801.1476 1103.4903,800.53832 1102.6985,801.35529 1100.9437,802.24636 1099.7451,802.09674 1099.0275,800.30929 1097.8381,800.0102 1096.8649,798.64254 1097.0078,796.52834 1097.4085,796.56155 1097.7116,795.78506 1098.3735,795.29002 1101.8773,794.17407 1102.2531,792.64289 1101.8825,790.6372 1102.1703,789.84421 1101.7885,788.66086 1102.7828,788.21168 1103.0249,787.52552 1103.8435,787.33115 1105.4336,787.86775 1106.5506,787.49669 1108.0017,787.68946 1108.3996,786.74161 1108.0193,786.10244 1108.2654,785.82211 1107.7212,785.36059 1107.4355,784.30388 1106.8898,782.70722 1105.6424,781.72072 1105.8355,780.53349 1103.8114,780.54789 1103.8079,780.93339 1102.7814,781.36118 1102.7076,781.61735 1102.2977,782.04225 1102.0201,782.53955 1101.407,782.52614 1101.1171,781.81394 1100.1312,781.49153 1099.7289,781.0232 1099.315,781.50022 1099.4556,783.02784 1098.4448,783.45305 1097.7957,783.08874 1096.3839,781.57838 1095.6644,782.03758 1095.1298,783.20208 1093.9347,782.91733 1092.3912,781.02015 1091.3058,781.48442 1090.1418,781.21213 1089.4946,782.54341 1087.6509,780.86072 1086.815,779.41473 1086.7548,779.01248 1087.4641,778.08578 1089.8493,777.96622 1089.9875,777.58465 1089.6392,775.72986 1087.5583,775.44455 1085.9144,775.71708 1084.8151,775.07403 1084.1661,773.99518 1083.7813,773.27979 1084.0057,772.4968 1084.9748,771.35186 1085.073,770.11002 1082.8252,769.14899 1082.5446,767.97136 1084.0689,767.30308 1084.8327,765.66189 1083.4019,763.85602 1082.2811,762.75136 1080.4094,762.33457 1079.8234,763.17403 1078.3517,762.45614 1077.3652,761.10905 1076.1486,761.33313 1075.943,760.68896 1073.044,759.2512 1073.183,757.51399 1072.3578,756.98779 1071.1432,759.20561 1070.4438,760.34215 1069.8351,761.29642 1069.1994,763.22736 z">
      <title id="t4">Quatrième circonscription de l'Ain</title>
      <desc id="d4">Cantons de : Bâgé-le-Châtel, Bourg-en-Bresse Sud, Chalamont, Châtillon-sur-Chalaronne, Péronnas, Pont-de-Veyle, Saint-Trivier-sur-Moignans, Thoissey, Villars-les-Dombes</desc>
    </path><path class="circo" id="id-001-05" d="M 1107.2814,806.85792 1106.5718,807.26928 1106.2531,808.07015 1105.7714,809.04241 1105.5343,809.38049 1104.0556,810.74036 1103.7785,811.90885 1102.9865,812.07672 1103.4393,813.9883 1103.1898,814.73643 1104.2071,815.12128 1106.6615,812.81932 1107.4689,812.83961 1108.131,812.41844 1108.2004,813.46673 1109.8715,813.41465 1110.5909,812.98778 1110.9478,813.2077 1112.6376,814.18656 1113.025,814.26209 1113.3999,815.34028 1114.4015,816.51653 1115.0772,818.01288 1115.8476,818.25536 1117.0665,819.18293 1119.8543,820.74988 1120.3248,821.38616 1120.6395,821.13634 1121.6751,821.75061 1122.4862,822.63619 1121.8872,822.68343 1122.0672,823.06625 1121.742,823.82912 1122.5395,826.2202 1120.9431,826.3976 1120.1462,827.36639 1118.8903,827.27783 1118.9324,827.69136 1117.7931,828.01656 1117.6259,828.39602 1117.775,830.03987 1119.1893,831.51166 1119.8631,832.59235 1120.9957,833.55343 1123.0014,836.60239 1124.2045,837.68641 1125.8499,839.29367 1126.68,841.2082 1128.2327,841.43597 1128.8362,841.90951 1129.1572,843.03857 1130.3241,843.48656 1130.7527,844.18704 1130.3693,844.89145 1129.9518,844.92601 1129.1709,843.49399 1128.3931,843.34709 1128.2114,844.58227 1128.6385,845.29881 1129.0604,846.54555 1130.0854,846.36636 1131.1094,846.9927 1131.0636,847.39227 1132.5783,846.76487 1133.4138,847.53555 1134.5334,847.03905 1134.3539,846.22087 1133.3121,842.12314 1132.5648,841.04445 1132.2034,839.79512 1131.2169,838.35715 1131.2754,838.14072 1130.3818,836.59033 1131.5266,835.46872 1132.0668,835.78173 1132.2358,831.01496 1133.2719,831.74013 1134.1169,831.78024 1136.1256,833.29809 1136.8227,834.35254 1137.4365,832.7886 1136.4815,829.97963 1137.5181,830.02438 1138.4255,830.59444 1138.2547,829.06146 1140.0254,829.87976 1141.5017,829.49416 1141.861,830.67771 1141.5379,831.38621 1142.4454,832.02917 1144.2493,831.43803 1144.0818,830.8984 1146.1168,829.75086 1146.1687,828.91975 1147.0274,827.95094 1146.7307,827.85043 1146.8081,826.70005 1147.2609,822.8685 1146.2241,820.97077 1146.3044,820.64902 1146.4498,820.06213 1147.0814,815.76627 1147.0229,814.33262 1146.8468,813.71414 1146.4782,811.66003 1145.4647,811.02626 1145.4121,810.60792 1145.3034,808.54884 1145.1506,807.28568 1143.4349,803.87722 1143.1329,803.35707 1143.1387,803.21946 1143.5986,798.16266 1143.1268,796.97047 1142.624,795.10568 1143.1058,793.48215 1143.5426,791.12179 1144.9511,789.15932 1145.1464,786.76591 1144.5445,786.16221 1142.5399,785.63591 1142.4184,785.12859 1141.4304,784.58354 1142.2554,781.44991 1143.8835,782.05735 1145.0948,782.24218 1146.7094,781.83727 1147.0284,781.10368 1146.4645,779.62063 1147.4604,777.3938 1148.1417,776.91401 1149.6879,777.57789 1151.6885,776.90958 1152.0528,776.72547 1152.3599,775.57584 1152.0946,774.37879 1151.4161,774.23703 1146.976,773.56544 1144.2245,774.12625 1143.5025,774.50445 1142.7187,772.08418 1142.9752,770.37292 1142.5991,768.6771 1140.0515,768.32467 1139.9439,767.71673 1138.6828,766.72902 1136.7111,766.61923 1137.0947,765.46196 1136.7797,764.4009 1136.0458,765.18495 1135.5457,765.89246 1133.9259,766.40197 1133.344,767.99167 1133.2563,768.50876 1132.6825,769.92868 1131.7781,770.59165 1129.859,770.55991 1129.5958,771.32148 1127.7022,773.49498 1125.328,774.05359 1125.37,774.8536 1124.6062,776.38305 1123.8606,776.78459 1121.7334,780.44358 1121.347,780.62734 1121.018,780.35366 1120.4662,779.89815 1120.1457,780.09729 1120.2215,780.89094 1121.31,781.42842 1121.4864,783.05817 1121.0076,783.67037 1120.5061,784.23317 1121.1035,784.73515 1119.8105,787.83511 1118.4191,789.40578 1118.7938,791.08377 1118.5635,791.44899 1117.7052,791.46113 1116.9472,791.2876 1116.6588,791.93622 1116.3091,791.99177 1115.7116,794.44989 1116.0284,795.65772 1115.8473,796.03973 1114.6872,796.48141 1114.4309,797.28281 1113.849,799.2564 1114.0376,799.97161 1113.7267,800.58572 1113.0628,801.04889 1111.8487,800.97725 1111.7499,802.15465 1110.6792,801.62849 1110.3215,801.82196 1109.4652,801.36423 1108.3676,803.36808 1108.2411,805.06586 1107.8692,806.25002 1107.2814,806.85792 z">
      <title id="t5">Cinquième circonscription de l'Ain</title>
      <desc id="d5">Cantons de : Ambérieu-en-Bugey, Brénod, Champagne-en-Valromey, Hauteville-Lompnes, Izernore, Lhuis, Nantua, Oyonnax Nord, Oyonnax Sud, Poncin, Saint-Rambert-en-Bugey, Virieu-le-Grand</desc>
    </path></svg>