<svg xmlns="http://www.w3.org/2000/svg" version="1.1" xmlns:xlink="http://www.w3.org/1999/xlink" xmlns:svgjs="http://svgjs.dev/svgjs" viewBox="0 0 122.2222999999999 111.01877999999999"><path class="circo" id="id-001-01" d="M47.93059999999991 39.87212999999997L46.68319999999994 38.88562999999999L46.8762999999999 37.69839999999999L44.85220000000004 37.712800000000016L44.84870000000001 38.098299999999995L43.822200000000066 38.526089999999954L43.74839999999995 38.78225999999995L43.33850000000007 39.20715999999993L43.06089999999995 39.704459999999926L42.447799999999916 39.69105000000002L42.15789999999993 38.978849999999966L41.172000000000025 38.656439999999975L40.76970000000006 38.18810999999994L40.355800000000045 38.66512999999998L40.496399999999994 40.19274999999993L39.48559999999998 40.617959999999925L38.83649999999989 40.25364999999999L37.42470000000003 38.74329L36.70519999999988 39.20249000000001L36.17059999999992 40.36698999999999L34.97550000000001 40.082239999999956L33.432000000000016 38.18505999999991L32.34660000000008 38.64932999999996L31.182600000000093 38.377039999999965L30.53539999999998 39.70831999999996L28.691700000000083 38.02562999999998L27.855800000000045 36.57963999999993L27.795599999999922 36.177389999999946L28.504899999999907 35.25068999999996L30.890100000000075 35.131129999999985L31.028299999999945 34.749559999999974L30.680000000000064 32.894769999999994L28.599099999999908 32.60946000000001L26.955199999999877 32.88198999999997L25.85590000000002 32.23893999999996L25.206899999999905 31.16008999999997L24.82210000000009 30.44470000000001L25.046499999999924 29.66170999999997L26.01559999999995 28.51676999999995L26.113800000000083 27.274929999999927L23.865999999999985 26.31389999999999L23.585399999999936 25.136269999999968L25.109699999999975 24.467989999999986L25.873499999999922 22.826799999999935L24.44270000000006 21.020929999999908L23.321899999999914 19.91626999999994L21.450199999999995 19.49947999999995L20.864199999999983 20.33893999999998L19.392499999999927 19.62104999999997L18.40599999999995 18.273959999999988L17.189399999999978 18.498039999999946L16.983799999999974 17.853869999999915L14.084800000000087 16.416110000000003L14.223799999999983 14.678899999999999L13.398599999999988 14.152699999999982L13.438900000000103 12.369289999999978L13.681100000000015 11.12668999999994L13.703700000000026 9.766309999999976L13.796299999999974 9.270809999999983L13.928699999999935 8.925149999999917L15.62909999999988 6.8537000000000035L15.635999999999967 4.638299999999958L15.635299999999916 4.482639999999947L15.700199999999995 3.6357600000000048L16.695400000000063 2.2754699999999275L16.91840000000002 1.6791299999999865L17.25630000000001 0.6450300000000198L17.426899999999932 0.4256599999999935L18.425700000000006 0.4881599999999935L18.377899999999954 1.304559999999924L18.966499999999996 1.6751799999999548L19.73630000000003 1.349519999999984L20.3913 0.428009999999972L21.219499999999925 0.3053499999999758L23.442600000000084 0.9846799999999121L23.801699999999983 0.8158399999999801L24.111000000000104 2.1274099999999407L27.55510000000004 4.123780000000011L28.974500000000035 3.9341499999999314L30.995799999999917 2.490699999999947L32.503600000000006 3.0304099999999607L34.294000000000096 2.004289999999969L34.49270000000001 1.2187299999999368L34.890100000000075 1.1227599999999711L36.85549999999989 1.5970099999999547L36.99790000000007 0L37.96160000000009 0.7708900000000085L40.00540000000001 1.217119999999909L40.2047 1.5898499999999558L39.93080000000009 1.8658599999999979L40.70759999999996 3.15782999999999L40.46990000000005 3.8897099999999227L41.00929999999994 4.462019999999939L41.18209999999999 6.089069999999992L42.000999999999976 6.089929999999981L42.983799999999974 7.393929999999955L43.982099999999946 7.1978599999999915L44.684799999999996 8.122629999999958L46.16439999999989 8.528659999999945L49.299600000000055 8.75231999999994L50.2487000000001 10.950339999999983L49.22399999999993 11.608859999999936L49.06690000000003 12.405169999999998L49.450199999999995 12.545239999999922L48.30040000000008 12.606019999999944L48.39840000000004 13.005359999999996L49.17930000000001 13.255879999999934L51.299800000000005 14.554409999999962L52.49189999999999 14.592129999999997L54.105999999999995 15.91395L55.021999999999935 16.698660000000018L53.93339999999989 17.837980000000016L53.797199999999975 18.214579999999955L54.81009999999992 18.852199999999925L54.84179999999992 19.642110000000002L54.64629999999988 20.405079999999998L55.48829999999998 21.311289999999985L56.9867999999999 21.997979999999984L57.04539999999997 22.798360000000002L57.24559999999997 24.90698999999995L57.24669999999992 25.01787999999999L57.772500000000036 25.714650000000006L58.34140000000002 21.55804999999998L58.90259999999989 20.959729999999922L60.059600000000046 24.973569999999995L61.53269999999998 24.620239999999967L62.442600000000084 23.937869999999975L63.30320000000006 24.941820000000007L62.557399999999916 27.66638999999998L61.91730000000007 27.999889999999937L61.80439999999999 29.68286999999998L62.96350000000007 30.86806999999999L63.30809999999997 31.112629999999967L65.36789999999996 30.745720000000006L65.6241 30.49905000000001L66.36879999999996 31.21849999999995L66.41079999999988 32.01850999999999L65.64699999999993 33.54795999999999L64.90139999999997 33.949499999999944L62.774200000000064 37.60848999999996L62.38779999999997 37.79224999999997L62.05880000000002 37.518569999999954L61.50700000000006 37.06305999999995L61.186500000000024 37.26220000000001L61.262300000000096 38.055849999999964L62.350799999999936 38.59332999999992L62.52719999999999 40.22307999999998L62.0483999999999 40.83528000000001L61.54690000000005 41.398079999999936L62.14429999999993 41.90005999999994L60.85130000000004 45.00001999999995L59.45990000000006 46.57069000000001L59.83459999999991 48.24867999999992L59.60429999999997 48.613899999999944L58.746000000000095 48.62603999999999L57.988000000000056 48.45250999999996L57.69959999999992 49.10113000000001L57.349899999999934 49.15667999999994L56.75240000000008 51.614799999999946L57.06919999999991 52.822630000000004L56.888099999999895 53.20463999999993L55.728000000000065 53.646319999999946L55.471700000000055 54.447720000000004L54.88979999999992 56.42130999999995L55.0784000000001 57.13652000000002L54.76749999999993 57.75063L54.103599999999915 58.21379999999999L52.8895 58.14215999999999L52.790700000000015 59.31955999999991L51.72000000000003 58.79340000000002L51.362300000000005 58.98686999999995L50.506000000000085 58.529139999999984L49.40840000000003 60.53298999999993L49.28189999999995 62.23077000000001L48.91000000000008 63.41492999999991L48.322200000000066 64.02283L47.61259999999993 64.43418999999994L47.293899999999894 65.23505999999998L46.34629999999993 63.88162999999997L46.16640000000007 61.80264L44.743600000000015 61.01508000000001L45.28099999999995 59.47763999999995L45.11719999999991 59.09241999999995L44.887699999999995 58.312509999999975L44.531099999999924 57.70322999999996L43.73929999999996 58.52019999999993L41.984500000000025 59.411269999999945L40.78590000000008 59.26164999999992L40.06829999999991 57.474199999999996L38.87889999999993 57.17511000000002L37.905700000000024 55.80745000000002L38.04860000000008 53.69324999999992L38.449299999999994 53.726459999999975L38.75240000000008 52.94997000000001L39.41429999999991 52.45492999999999L42.918100000000095 51.33897999999999L43.293899999999894 49.80779999999993L42.92329999999993 47.80210999999997L43.21109999999999 47.00911999999994L42.8293000000001 45.82576999999992L43.82359999999994 45.376589999999965L44.06569999999988 44.69042999999999L44.88429999999994 44.49605999999994L46.47440000000006 45.032659999999964L47.59140000000002 44.66159999999991L49.04250000000002 44.85437000000002L49.440399999999954 43.90652L49.06009999999992 43.267349999999965L49.30619999999999 42.987019999999916L48.761999999999944 42.525499999999965L48.47630000000004 41.46879000000001L47.93059999999991 39.87212999999997z">
      <title id="t1">Première circonscription de l'Ain</title>
      <desc id="d1">Cantons de : Bourg-en-Bresse Est, Bourg-en-Bresse Nord-Centre, Ceyzériat, Coligny, Montrevel-en-Bresse, Pont-d'Ain, Pont-de-Vaux, Saint-Trivier-de-Courtes, Treffort-Cuisiat, Viriat</desc>
    </path><path class="circo" id="id-001-02" d="M49.241199999999935 70.63163999999995L49.171800000000076 69.58335L48.509700000000066 70.00451999999996L47.70229999999992 69.98422999999991L45.24790000000007 72.28618999999992L44.230600000000095 71.90134L44.48009999999999 71.15320999999994L44.02729999999997 69.24162999999999L43.669200000000046 68.59042L42.93080000000009 68.41616999999997L42.18080000000009 69.20017999999993L41.915500000000065 69.96796999999992L40.73880000000008 70.35768999999993L39.90219999999999 69.45986999999991L38.69249999999988 69.45693999999992L38.1545000000001 68.34169999999995L36.969100000000026 68.12721999999997L36.27060000000006 66.64055999999994L35.53929999999991 66.47286999999994L34.76219999999989 67.27141999999992L33.57060000000001 67.39676999999995L29.065000000000055 67.7337L28.642499999999927 68.69630999999993L28.826000000000022 69.40386999999998L28.05639999999994 69.19308999999998L27.7659000000001 69.47294999999997L26.398999999999887 72.37833999999998L26.145700000000033 72.07341999999994L23.885299999999916 71.63771999999994L23.006900000000087 72.48282999999992L20.551400000000058 71.16017999999997L19.654899999999998 69.91563999999994L19.306299999999965 69.67345999999998L18.045699999999897 69.82724999999994L17.01890000000003 70.52100999999993L16.163099999999986 70.01331999999991L16.737100000000055 68.92935999999997L16.50389999999993 67.73419000000001L16.758100000000013 66.08670999999993L16.008299999999963 65.79729999999995L14.02520000000004 66.10187999999994L12.7808 65.36790999999994L11.805599999999913 66.10604000000001L9.021299999999883 66.92628000000002L9.017599999999902 64.86020999999994L8.619899999999916 63.24630000000002L7.803699999999935 63.09834999999998L6.634399999999914 62.72533999999996L6.045599999999922 62.76805000000002L5.220100000000002 62.68629999999996L2.6818000000000666 62.89348999999993L1.5645999999999276 63.18498999999997L1.5223000000000866 63.304179999999974L1.613800000000083 64.08879000000002L2.042500000000018 66.84861000000001L1.6649999999999636 67.98793999999998L1.519900000000007 68.24252999999999L0 69.67138L0.06700000000000728 70.82134999999994L1.179200000000037 71.29719999999998L2.5959000000000287 71.59407999999996L3.6638000000000375 71.09294999999997L4.030099999999948 71.24659999999994L4.965200000000095 72.99276999999995L6.5603000000000975 73.32855999999992L6.808099999999968 74.67899999999997L6.2490999999999985 76.10649000000001L6.340799999999945 76.31864999999993L10.075700000000097 74.29831999999999L10.414299999999912 75.01274999999998L11.951199999999972 75.46399999999994L12.028299999999945 76.65951999999993L12.760299999999916 76.21605L13.026200000000017 78.31345999999996L15.167400000000043 79.03149999999994L14.449299999999994 81.04723999999999L15.349699999999984 81.83199000000002L16.195899999999938 84.08040999999992L15.94900000000007 86.90015999999991L16.423900000000003 87.58619999999996L17.95959999999991 86.97466999999995L18.779899999999998 87.00491999999997L19.814399999999978 86.74723999999992L20.383000000000038 87.17331999999999L21.230000000000018 87.36158999999998L22.299099999999953 87.12270999999998L23.00369999999998 86.83967999999993L24.319999999999936 87.38951999999995L25.366999999999962 86.90564999999992L26.115299999999934 87.05576999999994L27.134700000000066 86.58674999999994L27.844700000000103 86.86345999999992L30.768800000000056 86.63077999999996L31.492099999999937 86.44247999999993L32.171499999999924 88.27850999999998L32.55919999999992 88.14513L32.453700000000026 86.92845999999997L33.20779999999991 86.65662999999995L35.15869999999995 87.51681999999994L36.319099999999935 87.68142999999998L37.17660000000001 88.59025999999994L37.95360000000005 88.87968000000001L38.82379999999989 90.38743L39.137899999999945 91.49295999999993L39.918499999999995 91.55754000000002L41.9701 91.87207000000001L43.31899999999996 90.83229999999992L44.630100000000084 89.98690999999997L45.58789999999999 89.36986999999999L47.60519999999997 86.34393999999998L48.613599999999906 82.20260999999994L49.60200000000009 80.96619999999996L50.99420000000009 80.17036999999993L51.42329999999993 79.04040999999995L51.87969999999996 78.24996999999996L53.07089999999994 77.97316000000001L55.03379999999993 79.57538L57.274200000000064 81.13572999999997L58.28909999999996 82.21346999999992L58.4242999999999 83.05860999999993L59.763099999999895 84.13420999999994L59.931100000000015 84.44273999999996L61.1869999999999 84.53129999999999L61.98389999999995 83.56250999999997L63.58030000000008 83.38510999999994L62.78279999999995 80.99402999999995L63.10799999999995 80.23115999999993L62.927999999999884 79.84834000000001L63.527000000000044 79.80110000000002L62.71589999999992 78.91552000000001L61.68029999999999 78.30124999999998L61.365600000000086 78.55106999999998L60.89509999999996 77.91478999999993L58.107299999999896 76.34784000000002L56.88840000000005 75.42026999999996L56.11799999999994 75.17778999999996L55.44229999999993 73.68143999999995L54.44069999999988 72.50518999999997L54.06580000000008 71.42699999999991L53.67840000000001 71.35146999999995L51.988599999999906 70.37261000000001L51.63169999999991 70.15269L50.91229999999996 70.57956000000001L49.241199999999935 70.63163999999995z">
      <title id="t2">Deuxième circonscription de l'Ain</title>
      <desc id="d2">Cantons de : Lagnieu, Méximieux, Miribel, Montluel, Reyrieux, Trévoux</desc>
    </path><path class="circo" id="id-001-03" d="M94.15110000000004 51.084479999999985L93.42370000000005 50.70258999999999L92.66529999999989 51.037649999999985L92.74700000000007 52.635479999999916L91.8737000000001 54.040899999999965L91.58940000000007 56.19345999999996L92.0603000000001 56.99725999999998L91.4978000000001 58.279319999999984L91.69689999999991 59.611580000000004L91.94849999999997 60.73143999999991L91.36819999999989 61.71890999999994L91.80029999999988 62.64738L91.76919999999996 64.45351999999991L91.94759999999997 65.27787999999998L93.79539999999997 67.06680999999992L93.68979999999988 68.32812999999999L93.8610000000001 69.46683999999993L93.58480000000009 70.58823999999993L93.04559999999992 71.11739999999998L93.55739999999992 71.17093999999997L92.78719999999998 72.17302999999993L93.4022 74.16161L93.14010000000007 75.41917000000001L92.19119999999998 78.65447999999992L91.54269999999997 80.6762L90.9973 82.48779000000002L90.55029999999988 84.43968999999993L89.79240000000004 85.24160999999992L89.5933 88.41225999999995L89.32060000000001 90.40936999999997L89.46199999999999 91.43020000000001L89.1534999999999 92.6753L89.50839999999994 94.75155999999993L89.23929999999996 95.02963999999997L88.3257000000001 95.28602000000001L88.89409999999998 96.8565299999999L87.7844 98.00786999999991L87.24219999999991 99.13394999999991L86.56279999999992 99.59052999999994L85.0652 99.01963999999998L84.76089999999999 99.12748999999997L82.45370000000003 99.04459999999995L82.7195999999999 100.48060999999996L83.1848 102.0897L81.18219999999997 104.26914999999997L81.05690000000004 105.09780999999998L81.36950000000002 105.89522999999997L81.37439999999992 107.07204000000002L80.39139999999998 107.78995999999995L78.39229999999998 107.95772999999997L78.01060000000007 109.08507999999995L77.16769999999997 109.61743999999999L76.99430000000007 110.30143999999996L76.6409000000001 111.01877999999999L75.9212 110.80320999999992L75.17010000000005 109.32731999999999L74.2799 108.01864L74.06719999999996 106.01999999999998L72.10439999999994 104.55718000000002L73.61909999999989 103.92977999999994L74.45460000000003 104.70045999999991L75.57420000000002 104.20395999999994L75.39470000000006 103.38577999999995L74.35290000000009 99.28805L73.6056000000001 98.20935999999995L73.24420000000009 96.96002999999996L72.25769999999989 95.52206000000001L72.31619999999998 95.30562999999995L71.4226000000001 93.75523999999996L72.5673999999999 92.63362999999993L73.10760000000005 92.94664L73.27659999999992 88.17986999999994L74.31269999999995 88.90503999999999L75.15769999999998 88.94515000000001L77.16640000000007 90.46299999999997L77.86349999999993 91.51744999999994L78.47730000000001 89.95350999999994L77.52230000000009 87.14454L78.5589 87.18928999999991L79.46630000000005 87.75934999999993L79.29549999999995 86.22636999999997L81.06619999999998 87.04467L82.54250000000002 86.65906999999993L82.9018000000001 87.84262000000001L82.57870000000003 88.55111999999997L83.48620000000005 89.19407999999999L85.29009999999994 88.60293999999999L85.12259999999992 88.06331L87.1576 86.91576999999995L87.20949999999993 86.08465999999999L88.06819999999993 85.11584999999991L87.77150000000006 85.01533999999992L87.84889999999996 83.86496L88.30169999999998 80.03341L87.2648999999999 78.13567999999998L87.34519999999998 77.81392999999991L87.49060000000009 77.22703999999999L88.12220000000002 72.93117999999993L88.06369999999993 71.49752999999998L87.88760000000002 70.87905L87.519 68.82493999999997L86.50549999999998 68.19116999999994L86.4529 67.77283L86.3442 65.71375L86.19139999999993 64.45058999999992L84.47569999999996 61.04212999999993L84.17370000000005 60.521979999999985L84.17949999999996 60.38436999999999L84.63940000000002 55.32756999999992L84.1676 54.13537999999994L83.66480000000001 52.27058999999997L84.14660000000003 50.64706000000001L84.58339999999998 48.286699999999996L85.99189999999999 46.32422999999994L86.18720000000008 43.930819999999926L85.58529999999996 43.32711999999992L83.58069999999998 42.80081999999993L83.45920000000001 42.293499999999995L82.47119999999995 41.748449999999934L83.2962 38.61482000000001L84.9242999999999 39.222260000000006L86.13560000000007 39.407089999999926L87.75019999999995 39.00217999999995L88.06919999999991 38.26859000000002L87.50530000000003 36.78553999999997L88.50119999999993 34.55871000000002L89.18249999999989 34.078919999999925L90.72869999999989 34.74279999999999L92.72929999999997 34.07448999999997L93.09359999999992 33.890379999999936L93.40069999999992 32.740749999999935L93.13539999999989 31.543699999999944L95.20920000000001 31.54543000000001L96.40079999999989 30.415430000000015L96.78410000000008 31.14176999999995L97.7668000000001 30.296889999999962L98.94659999999999 28.481709999999907L100.1851999999999 28.809999999999945L100.75669999999991 27.719409999999925L101.0127 25.691149999999993L101.60549999999989 25.141070000000013L102.9335000000001 25.695089999999936L105.79029999999989 20.644360000000006L106.55340000000001 19.121710000000007L109.04119999999989 17.47822999999994L110.54029999999989 15.986779999999953L112.39229999999998 13.113849999999957L113.05259999999998 12.361769999999979L113.34439999999995 12.519839999999931L116.19350000000009 13.499109999999973L116.9565 14.540120000000002L118.13789999999995 15.018839999999955L120.4094 17.00621000000001L121.58760000000007 17.409850000000006L122.07140000000004 18.125389999999925L122.2222999999999 18.53006999999991L122.0764999999999 18.938299999999913L121.2958000000001 20.45088999999996L120.58670000000006 21.53329999999994L119.8279 21.92459999999994L119.60789999999997 22.758960000000002L118.47599999999989 24.710699999999974L118.0272 25.886189999999942L118.05870000000004 27.415300000000002L116.60490000000004 28.699179999999956L117.76710000000003 31.05914999999993L118.11300000000006 31.308869999999956L118.31929999999988 32.573440000000005L117.75389999999993 33.66877999999997L116.69820000000004 34.37792999999999L115.39599999999996 33.34760999999992L113.89449999999988 33.99878000000001L113.1697999999999 33.61272999999994L111.89409999999998 35.203379999999925L111.50769999999989 35.06107999999995L110.83729999999991 34.55243999999993L109.32169999999996 35.218369999999936L108.15280000000007 36.35394999999994L107.3780999999999 36.616739999999936L107.28459999999995 37.01834999999994L105.72849999999994 37.315759999999955L105.47129999999993 38.84793000000002L104.8605 39.36925999999994L104.81590000000006 39.49930999999992L107.32850000000008 40.990839999999935L107.07619999999997 42.21137999999996L106.38789999999995 42.53923999999995L105.6380999999999 44.50820999999996L104.90300000000002 45.92010999999991L105.05580000000009 46.69533000000001L104.16879999999992 47.46222999999998L103.2476999999999 47.96584999999993L102.54469999999992 47.884289999999964L101.77710000000002 47.96400999999992L101.13760000000002 47.59101999999996L99.98119999999994 48.633519999999976L99.13380000000006 48.97347000000002L98.81050000000005 49.077699999999936L98.23260000000005 50.21768999999995L98.82899999999995 51.73529999999994L98.55269999999996 52.97214999999994L96.53549999999996 53.169959999999946L95.66210000000001 53.031099999999924L94.15110000000004 51.084479999999985z">
      <title id="t3">Troisième circonscription de l'Ain</title>
      <desc id="d3">Cantons de : Bellegarde-sur-Valserine, Belley, Collonges, Ferney-Voltaire, Gex, Seyssel</desc>
    </path><path class="circo" id="id-001-04" d="M10.240199999999959 20.39226999999994L10.376199999999926 21.56790000000001L10.271799999999985 23.62572L9.404199999999946 25.38239999999996L8.699499999999944 26.90436999999997L8.152299999999968 29.746819999999957L7.302200000000084 31.090619999999944L6.820199999999886 32.42493999999999L6.597600000000057 34.44024000000002L5.963700000000017 35.48390999999992L5.7176999999999225 36.11239999999998L5.5190000000000055 36.653479999999945L5.283200000000079 38.20483999999999L5.248499999999922 39.00833L4.295399999999972 40.35041000000001L4.218800000000101 41.990909999999985L4.397799999999961 42.609699999999975L5.198699999999917 43.59516999999994L6.117500000000064 44.475079999999934L5.555900000000065 46.5951L4.836999999999989 47.60955000000001L3.526499999999942 49.23588999999993L3.105299999999943 50.59690999999998L2.5156999999999243 51.31801999999993L1.4825000000000728 52.45652999999993L1.6178999999999633 53.55232000000001L2.182800000000043 53.974489999999946L2.649799999999914 55.38759999999991L2.422700000000077 56.15156000000002L0.7680000000000291 57.83145999999999L1.281400000000076 59.33082999999999L1.3480999999999312 60.24100999999996L1.1639000000000124 61.51927999999998L1.5645999999999276 63.18498999999997L2.6818000000000666 62.89348999999993L5.220100000000002 62.68629999999996L6.045599999999922 62.76805000000002L6.634399999999914 62.72533999999996L7.803699999999935 63.09834999999998L8.619899999999916 63.24630000000002L9.017599999999902 64.86020999999994L9.021299999999883 66.92628000000002L11.805599999999913 66.10604000000001L12.7808 65.36790999999994L14.02520000000004 66.10187999999994L16.008299999999963 65.79729999999995L16.758100000000013 66.08670999999993L16.50389999999993 67.73419000000001L16.737100000000055 68.92935999999997L16.163099999999986 70.01331999999991L17.01890000000003 70.52100999999993L18.045699999999897 69.82724999999994L19.306299999999965 69.67345999999998L19.654899999999998 69.91563999999994L20.551400000000058 71.16017999999997L23.006900000000087 72.48282999999992L23.885299999999916 71.63771999999994L26.145700000000033 72.07341999999994L26.398999999999887 72.37833999999998L27.7659000000001 69.47294999999997L28.05639999999994 69.19308999999998L28.826000000000022 69.40386999999998L28.642499999999927 68.69630999999993L29.065000000000055 67.7337L33.57060000000001 67.39676999999995L34.76219999999989 67.27141999999992L35.53929999999991 66.47286999999994L36.27060000000006 66.64055999999994L36.969100000000026 68.12721999999997L38.1545000000001 68.34169999999995L38.69249999999988 69.45693999999992L39.90219999999999 69.45986999999991L40.73880000000008 70.35768999999993L41.915500000000065 69.96796999999992L42.18080000000009 69.20017999999993L42.93080000000009 68.41616999999997L43.669200000000046 68.59042L44.02729999999997 69.24162999999999L44.819299999999885 69.07376L45.0963999999999 67.90526999999997L46.57510000000002 66.54539999999997L46.812200000000075 66.20731999999998L47.293899999999894 65.23505999999998L46.34629999999993 63.88162999999997L46.16640000000007 61.80264L44.743600000000015 61.01508000000001L45.28099999999995 59.47763999999995L45.11719999999991 59.09241999999995L44.887699999999995 58.312509999999975L44.531099999999924 57.70322999999996L43.73929999999996 58.52019999999993L41.984500000000025 59.411269999999945L40.78590000000008 59.26164999999992L40.06829999999991 57.474199999999996L38.87889999999993 57.17511000000002L37.905700000000024 55.80745000000002L38.04860000000008 53.69324999999992L38.449299999999994 53.726459999999975L38.75240000000008 52.94997000000001L39.41429999999991 52.45492999999999L42.918100000000095 51.33897999999999L43.293899999999894 49.80779999999993L42.92329999999993 47.80210999999997L43.21109999999999 47.00911999999994L42.8293000000001 45.82576999999992L43.82359999999994 45.376589999999965L44.06569999999988 44.69042999999999L44.88429999999994 44.49605999999994L46.47440000000006 45.032659999999964L47.59140000000002 44.66159999999991L49.04250000000002 44.85437000000002L49.440399999999954 43.90652L49.06009999999992 43.267349999999965L49.30619999999999 42.987019999999916L48.761999999999944 42.525499999999965L48.47630000000004 41.46879000000001L47.93059999999991 39.87212999999997L46.68319999999994 38.88562999999999L46.8762999999999 37.69839999999999L44.85220000000004 37.712800000000016L44.84870000000001 38.098299999999995L43.822200000000066 38.526089999999954L43.74839999999995 38.78225999999995L43.33850000000007 39.20715999999993L43.06089999999995 39.704459999999926L42.447799999999916 39.69105000000002L42.15789999999993 38.978849999999966L41.172000000000025 38.656439999999975L40.76970000000006 38.18810999999994L40.355800000000045 38.66512999999998L40.496399999999994 40.19274999999993L39.48559999999998 40.617959999999925L38.83649999999989 40.25364999999999L37.42470000000003 38.74329L36.70519999999988 39.20249000000001L36.17059999999992 40.36698999999999L34.97550000000001 40.082239999999956L33.432000000000016 38.18505999999991L32.34660000000008 38.64932999999996L31.182600000000093 38.377039999999965L30.53539999999998 39.70831999999996L28.691700000000083 38.02562999999998L27.855800000000045 36.57963999999993L27.795599999999922 36.177389999999946L28.504899999999907 35.25068999999996L30.890100000000075 35.131129999999985L31.028299999999945 34.749559999999974L30.680000000000064 32.894769999999994L28.599099999999908 32.60946000000001L26.955199999999877 32.88198999999997L25.85590000000002 32.23893999999996L25.206899999999905 31.16008999999997L24.82210000000009 30.44470000000001L25.046499999999924 29.66170999999997L26.01559999999995 28.51676999999995L26.113800000000083 27.274929999999927L23.865999999999985 26.31389999999999L23.585399999999936 25.136269999999968L25.109699999999975 24.467989999999986L25.873499999999922 22.826799999999935L24.44270000000006 21.020929999999908L23.321899999999914 19.91626999999994L21.450199999999995 19.49947999999995L20.864199999999983 20.33893999999998L19.392499999999927 19.62104999999997L18.40599999999995 18.273959999999988L17.189399999999978 18.498039999999946L16.983799999999974 17.853869999999915L14.084800000000087 16.416110000000003L14.223799999999983 14.678899999999999L13.398599999999988 14.152699999999982L12.183999999999969 16.370519999999942L11.4846 17.50705999999991L10.875900000000001 18.461329999999975L10.240199999999959 20.39226999999994z">
      <title id="t4">Quatrième circonscription de l'Ain</title>
      <desc id="d4">Cantons de : Bâgé-le-Châtel, Bourg-en-Bresse Sud, Chalamont, Châtillon-sur-Chalaronne, Péronnas, Pont-de-Veyle, Saint-Trivier-sur-Moignans, Thoissey, Villars-les-Dombes</desc>
    </path><path class="circo" id="id-001-05" d="M48.322200000000066 64.02283L47.61259999999993 64.43418999999994L47.293899999999894 65.23505999999998L46.812200000000075 66.20731999999998L46.57510000000002 66.54539999999997L45.0963999999999 67.90526999999997L44.819299999999885 69.07376L44.02729999999997 69.24162999999999L44.48009999999999 71.15320999999994L44.230600000000095 71.90134L45.24790000000007 72.28618999999992L47.70229999999992 69.98422999999991L48.509700000000066 70.00451999999996L49.171800000000076 69.58335L49.241199999999935 70.63163999999995L50.91229999999996 70.57956000000001L51.63169999999991 70.15269L51.988599999999906 70.37261000000001L53.67840000000001 71.35146999999995L54.06580000000008 71.42699999999991L54.44069999999988 72.50518999999997L55.44229999999993 73.68143999999995L56.11799999999994 75.17778999999996L56.88840000000005 75.42026999999996L58.107299999999896 76.34784000000002L60.89509999999996 77.91478999999993L61.365600000000086 78.55106999999998L61.68029999999999 78.30124999999998L62.71589999999992 78.91552000000001L63.527000000000044 79.80110000000002L62.927999999999884 79.84834000000001L63.10799999999995 80.23115999999993L62.78279999999995 80.99402999999995L63.58030000000008 83.38510999999994L61.98389999999995 83.56250999999997L61.1869999999999 84.53129999999999L59.931100000000015 84.44273999999996L59.973199999999906 84.85627L58.833900000000085 85.18146999999999L58.66669999999999 85.56092999999998L58.81580000000008 87.20477999999991L60.23009999999999 88.67656999999997L60.90390000000002 89.75725999999997L62.03649999999993 90.71834000000001L64.0422000000001 93.76729999999998L65.24530000000004 94.85131999999999L66.89069999999992 96.45857999999998L67.72080000000005 98.37311L69.27350000000001 98.60087999999996L69.87699999999995 99.07441999999992L70.19800000000009 100.20348000000001L71.36490000000003 100.65147000000002L71.7935 101.35194999999999L71.41010000000006 102.05635999999993L70.99260000000004 102.09091999999998L70.21170000000006 100.65890000000002L69.4339 100.51199999999994L69.2521999999999 101.74717999999996L69.67930000000001 102.46371999999997L70.10120000000006 103.71046000000001L71.12619999999993 103.53126999999995L72.15020000000004 104.15760999999998L72.10439999999994 104.55718000000002L73.61909999999989 103.92977999999994L74.45460000000003 104.70045999999991L75.57420000000002 104.20395999999994L75.39470000000006 103.38577999999995L74.35290000000009 99.28805L73.6056000000001 98.20935999999995L73.24420000000009 96.96002999999996L72.25769999999989 95.52206000000001L72.31619999999998 95.30562999999995L71.4226000000001 93.75523999999996L72.5673999999999 92.63362999999993L73.10760000000005 92.94664L73.27659999999992 88.17986999999994L74.31269999999995 88.90503999999999L75.15769999999998 88.94515000000001L77.16640000000007 90.46299999999997L77.86349999999993 91.51744999999994L78.47730000000001 89.95350999999994L77.52230000000009 87.14454L78.5589 87.18928999999991L79.46630000000005 87.75934999999993L79.29549999999995 86.22636999999997L81.06619999999998 87.04467L82.54250000000002 86.65906999999993L82.9018000000001 87.84262000000001L82.57870000000003 88.55111999999997L83.48620000000005 89.19407999999999L85.29009999999994 88.60293999999999L85.12259999999992 88.06331L87.1576 86.91576999999995L87.20949999999993 86.08465999999999L88.06819999999993 85.11584999999991L87.77150000000006 85.01533999999992L87.84889999999996 83.86496L88.30169999999998 80.03341L87.2648999999999 78.13567999999998L87.34519999999998 77.81392999999991L87.49060000000009 77.22703999999999L88.12220000000002 72.93117999999993L88.06369999999993 71.49752999999998L87.88760000000002 70.87905L87.519 68.82493999999997L86.50549999999998 68.19116999999994L86.4529 67.77283L86.3442 65.71375L86.19139999999993 64.45058999999992L84.47569999999996 61.04212999999993L84.17370000000005 60.521979999999985L84.17949999999996 60.38436999999999L84.63940000000002 55.32756999999992L84.1676 54.13537999999994L83.66480000000001 52.27058999999997L84.14660000000003 50.64706000000001L84.58339999999998 48.286699999999996L85.99189999999999 46.32422999999994L86.18720000000008 43.930819999999926L85.58529999999996 43.32711999999992L83.58069999999998 42.80081999999993L83.45920000000001 42.293499999999995L82.47119999999995 41.748449999999934L83.2962 38.61482000000001L84.9242999999999 39.222260000000006L86.13560000000007 39.407089999999926L87.75019999999995 39.00217999999995L88.06919999999991 38.26859000000002L87.50530000000003 36.78553999999997L88.50119999999993 34.55871000000002L89.18249999999989 34.078919999999925L90.72869999999989 34.74279999999999L92.72929999999997 34.07448999999997L93.09359999999992 33.890379999999936L93.40069999999992 32.740749999999935L93.13539999999989 31.543699999999944L92.4568999999999 31.401939999999968L88.0168000000001 30.73034999999993L85.26530000000002 31.29115999999999L84.54330000000004 31.669359999999983L83.75949999999989 29.24908999999991L84.01600000000008 27.537829999999985L83.6398999999999 25.84200999999996L81.09230000000002 25.489579999999933L80.98469999999998 24.881639999999948L79.72360000000003 23.893929999999955L77.75189999999998 23.78413999999998L78.13550000000009 22.62686999999994L77.82050000000004 21.565809999999942L77.08660000000009 22.34985999999992L76.58649999999989 23.05736999999999L74.96669999999995 23.56687999999997L74.38480000000004 25.156579999999963L74.2971 25.673670000000016L73.72329999999988 27.09358999999995L72.81889999999999 27.756559999999922L70.89979999999991 27.72481999999991L70.63660000000004 28.486389999999915L68.74299999999994 30.65989000000002L66.36879999999996 31.21849999999995L66.41079999999988 32.01850999999999L65.64699999999993 33.54795999999999L64.90139999999997 33.949499999999944L62.774200000000064 37.60848999999996L62.38779999999997 37.79224999999997L62.05880000000002 37.518569999999954L61.50700000000006 37.06305999999995L61.186500000000024 37.26220000000001L61.262300000000096 38.055849999999964L62.350799999999936 38.59332999999992L62.52719999999999 40.22307999999998L62.0483999999999 40.83528000000001L61.54690000000005 41.398079999999936L62.14429999999993 41.90005999999994L60.85130000000004 45.00001999999995L59.45990000000006 46.57069000000001L59.83459999999991 48.24867999999992L59.60429999999997 48.613899999999944L58.746000000000095 48.62603999999999L57.988000000000056 48.45250999999996L57.69959999999992 49.10113000000001L57.349899999999934 49.15667999999994L56.75240000000008 51.614799999999946L57.06919999999991 52.822630000000004L56.888099999999895 53.20463999999993L55.728000000000065 53.646319999999946L55.471700000000055 54.447720000000004L54.88979999999992 56.42130999999995L55.0784000000001 57.13652000000002L54.76749999999993 57.75063L54.103599999999915 58.21379999999999L52.8895 58.14215999999999L52.790700000000015 59.31955999999991L51.72000000000003 58.79340000000002L51.362300000000005 58.98686999999995L50.506000000000085 58.529139999999984L49.40840000000003 60.53298999999993L49.28189999999995 62.23077000000001L48.91000000000008 63.41492999999991L48.322200000000066 64.02283z">
      <title id="t5">Cinquième circonscription de l'Ain</title>
      <desc id="d5">Cantons de : Ambérieu-en-Bugey, Brénod, Champagne-en-Valromey, Hauteville-Lompnes, Izernore, Lhuis, Nantua, Oyonnax Nord, Oyonnax Sud, Poncin, Saint-Rambert-en-Bugey, Virieu-le-Grand</desc>
    </path></svg>