<svg xmlns="http://www.w3.org/2000/svg" version="1.1" xmlns:xlink="http://www.w3.org/1999/xlink" xmlns:svgjs="http://svgjs.dev/svgjs" viewBox="850.51933 707.38799 146.7273 107.53494"><path class="circo" id="id-003-01" d="M 910.04433,752.51752 908.80313,752.42686 906.87043,751.50833 906.07673,751.69893 905.74853,752.45893 905.33783,752.51148 903.98493,751.61875 904.09143,750.75884 903.75933,749.96039 901.54323,748.62105 901.48333,748.59784 900.51713,747.1812 898.00303,745.5583 896.62733,743.47851 897.46583,743.65909 900.31673,742.77259 901.38343,742.05226 902.61123,742.26413 903.10483,741.56586 902.87483,740.38017 901.68603,738.30978 905.23753,736.01544 905.38583,734.41061 906.14263,734.00901 903.99943,730.74492 902.92333,730.14335 902.85993,728.40701 902.48763,728.32506 902.32483,728.6697 901.62103,727.67313 898.69863,726.0694 898.45813,725.26479 898.66543,724.44572 897.64333,723.69827 898.71623,723.11502 898.21973,721.19135 898.42503,720.41428 899.59153,720.75127 900.63623,718.15893 898.74213,716.97554 898.64923,715.02269 901.25983,712.75485 901.69123,711.58986 903.26763,710.88926 904.28403,710.1851 904.14593,709.37486 904.80623,708.85094 906.00153,708.46196 906.74623,708.71512 907.81833,708.77806 908.44833,707.38799 910.14703,707.44437 911.56703,708.2469 913.22763,707.89041 914.20043,708.69227 914.58153,708.50131 915.04713,711.24211 916.07983,713.10636 918.95153,715.59189 920.75313,716.16128 922.82573,716.86679 924.35003,719.00952 924.54203,719.25658 926.08623,721.39458 929.23233,722.90824 930.23473,722.3642 931.14573,721.51441 931.36613,720.71384 931.76463,720.60118 933.93703,719.32563 934.68253,718.30126 935.90953,718.41941 935.94303,718.39722 937.19083,718.30684 937.73883,719.92297 938.89083,721.70748 941.44373,722.15567 942.19423,721.71045 943.00193,721.43077 943.91643,719.98878 944.21723,718.74683 945.01103,718.42921 947.09843,718.89869 948.76493,718.76034 948.39223,719.97267 948.55023,720.7882 950.04173,721.41701 950.40123,722.13981 950.40303,723.39488 949.80703,723.98381 949.81683,724.80703 949.43343,724.98327 950.19823,725.38245 950.55713,726.1728 952.92193,726.26506 953.22373,725.9982 953.23773,725.16187 956.09703,722.10487 957.27793,721.82148 957.99623,722.82053 958.42213,722.8235 958.96923,722.18355 959.44453,721.5164 958.51343,719.58693 958.41333,717.49646 960.21273,718.303 960.90013,717.43496 961.22873,718.16203 962.50633,717.10872 960.99003,714.12222 962.23513,712.45233 963.04883,713.83155 964.73113,713.59446 965.35823,714.14232 964.79533,715.20453 966.06003,717.27612 966.05673,719.34806 967.20393,719.7503 967.57203,721.79335 969.04113,722.47398 968.82163,723.69815 971.01253,725.05672 971.30323,725.86445 971.32443,726.23262 971.74943,727.06373 972.12783,728.2545 972.73493,728.82517 973.37073,729.40718 973.33223,729.84038 972.50013,731.33159 973.02283,731.98478 974.29473,732.19041 974.67383,734.65451 974.79453,735.63557 974.84293,737.57772 974.27033,738.3015 974.13513,739.11938 974.91443,740.13278 976.09843,740.55243 977.32863,740.20606 977.96673,740.73086 978.21413,741.51434 979.38403,741.64061 980.09413,742.59013 980.85603,742.4755 983.00383,741.11402 983.79243,742.05263 983.26833,742.73886 983.68593,743.40193 983.75233,743.42033 984.54483,743.12636 985.28313,743.45257 984.99293,745.56571 985.40503,746.29628 987.72563,747.37834 988.25503,746.81961 988.60853,746.03984 989.75963,745.4994 991.26953,746.13762 993.29943,746.17985 992.80093,747.6367 993.89553,747.73459 992.69283,749.44038 992.80833,750.70072 991.71093,751.90741 992.06713,752.6759 991.35483,752.89632 990.53433,753.74843 989.37283,754.06475 988.72313,751.63244 987.28683,750.14844 986.62643,750.66889 986.30413,751.87731 985.50893,751.68524 985.02693,752.83736 985.53863,753.92811 985.46663,754.74791 984.55833,755.92823 982.34133,757.02354 981.91613,757.05571 981.55453,756.28045 980.70593,754.96813 979.21933,755.53481 978.71483,754.07745 977.94623,753.77766 977.02293,754.58379 975.48483,753.9471 974.07393,754.72892 973.59523,753.57959 972.03493,754.01505 971.30253,753.59538 971.68753,751.99611 971.01023,751.57347 971.12683,751.16462 970.70193,751.24753 970.28673,752.00931 969.01353,752.24048 967.10973,753.25523 966.75773,754.04527 967.07733,754.7685 966.75323,755.01684 965.06223,753.87718 964.68163,753.99298 964.46183,754.77516 963.22683,754.60241 962.38993,753.14793 961.18473,753.38214 959.97983,751.74063 958.42883,752.98253 958.12293,754.14429 957.39563,754.3358 958.10583,756.32816 957.69303,758.76592 956.95093,759.07942 955.69803,758.85687 954.92473,759.22027 953.01343,758.32485 953.03563,758.67904 951.86433,759.39439 951.32703,760.48063 951.45613,761.28238 952.00543,761.87464 952.34073,761.65711 954.31543,764.11917 955.42483,764.83923 956.49733,765.43167 956.45453,767.55403 957.07333,768.67969 958.58543,770.91912 958.97453,771.00609 959.38153,771.06759 958.90313,772.21615 959.16023,772.54686 958.24933,773.856 957.12583,774.3499 956.95203,775.5842 955.79753,775.80349 955.78733,777.87626 956.56603,777.69452 957.22283,778.13051 957.90993,780.391 957.59153,780.67303 955.86293,781.65809 955.04483,781.68032 953.97033,782.32605 953.05493,783.11981 951.50483,783.19778 950.54303,782.56073 950.17523,782.69138 948.70273,784.09616 948.12983,784.67893 946.97203,785.04966 946.90683,784.23796 947.43933,783.15173 947.29893,781.12824 947.67423,780.42687 944.93423,780.68261 944.25463,780.28327 943.05853,775.7231 940.46803,774.36416 940.05543,774.34252 939.42973,775.15357 938.19323,775.02129 938.00603,774.64092 937.10253,776.03004 937.42263,777.16792 936.91943,777.81888 935.04183,778.18052 934.01653,777.71233 934.65743,780.62967 934.10693,781.75266 932.60173,782.99186 932.16513,784.46986 931.52283,785.18542 929.99563,785.63983 928.09393,784.75615 927.35823,785.07494 926.17363,786.71805 924.68713,785.26496 923.86633,785.20261 923.85733,784.1104 923.25293,783.8042 921.87853,783.07229 921.41573,782.28982 921.05163,782.50387 919.80413,781.44942 920.37373,779.0631 919.25183,777.37647 917.81403,776.71109 918.01693,775.57891 917.39763,774.57219 916.67963,775.52581 916.26803,775.55322 915.39023,774.72796 914.41863,772.95822 914.08993,772.73772 912.97603,773.0962 912.29163,772.713 912.16373,771.858 912.73583,769.76677 914.35103,768.02095 914.85203,766.52937 914.04353,765.61904 914.34773,764.88183 913.58103,763.90368 912.87703,763.42563 912.83183,762.57056 912.50803,762.2922 910.81533,762.26338 909.67313,761.71685 909.97443,759.68999 910.38673,758.98527 910.24273,758.17967 910.18843,757.4361 909.23623,755.67364 909.83753,753.33725 910.62693,753.14706 910.04433,752.51752 z">
      <title id="t11">Première circonscription de l'Allier</title>
      <desc id="d11">Cantons de : Bourbon-l'Archambault, Chevagnes, Chantelle, Dompierre-sur-Besbre, Le Montet, Lurcy-Lévis, Moulins Ouest, Moulins Sud, Neuilly-le-Réal, Saint-Pourçain-sur-Sioule, Souvigny, Varennes-sur-Allier, Yzeure</desc>
    </path><path class="circo" id="id-003-02" d="M 884.33863,718.93613 885.38403,717.65703 886.61773,717.51829 886.76583,715.43523 888.95963,714.32393 889.28993,714.544 890.07783,716.48794 891.03983,717.31109 891.32943,718.08616 892.01693,717.65641 892.70893,717.92572 893.38873,717.49064 894.29553,716.11477 897.19153,715.89451 897.97033,716.78953 898.74213,716.97554 900.63623,718.15893 899.59153,720.75127 898.42503,720.41428 898.21973,721.19135 898.71623,723.11502 897.64333,723.69827 898.66543,724.44572 898.45813,725.26479 898.69863,726.0694 901.62103,727.67313 902.32483,728.6697 902.48763,728.32506 902.85993,728.40701 902.92333,730.14335 903.99943,730.74492 906.14263,734.00901 905.38583,734.41061 905.23753,736.01544 901.68603,738.30978 902.87483,740.38017 903.10483,741.56586 902.61123,742.26413 901.38343,742.05226 900.31673,742.77259 897.46583,743.65909 896.62733,743.47851 898.00303,745.5583 900.51713,747.1812 901.48333,748.59784 901.54323,748.62105 903.75933,749.96039 904.09143,750.75884 903.98493,751.61875 905.33783,752.51148 905.74853,752.45893 906.07673,751.69893 906.87043,751.50833 908.80313,752.42686 910.04433,752.51752 910.62693,753.14706 909.83753,753.33725 909.23623,755.67364 910.18843,757.4361 910.24273,758.17967 910.38673,758.98527 909.97443,759.68999 909.67313,761.71685 910.81533,762.26338 912.50803,762.2922 912.83183,762.57056 912.87703,763.42563 913.58103,763.90368 914.34773,764.88183 914.04353,765.61904 914.85203,766.52937 914.35103,768.02095 912.73583,769.76677 912.16373,771.858 912.29163,772.713 912.97603,773.0962 914.08993,772.73772 914.41863,772.95822 915.39023,774.72796 916.26803,775.55322 916.67963,775.52581 917.39763,774.57219 918.01693,775.57891 917.81403,776.71109 919.25183,777.37647 920.37373,779.0631 919.80413,781.44942 921.05163,782.50387 921.41573,782.28982 921.87853,783.07229 923.25293,783.8042 923.85733,784.1104 923.86633,785.20261 923.47963,785.17425 921.72233,786.66687 922.25893,787.29974 921.33163,788.73042 921.89803,790.73164 921.41153,791.43219 921.60183,791.55507 921.43013,792.23947 922.16513,792.46583 921.70733,793.14977 922.07873,794.27631 921.12823,794.91079 921.46593,796.50604 920.42773,796.402 920.30873,794.76946 919.58703,792.79358 919.17003,792.71474 917.75723,793.66506 916.13593,794.14073 915.18023,793.31443 914.07513,793.87262 913.29383,793.93085 912.61733,792.45246 911.36803,791.38792 910.16593,791.22579 909.45383,791.57273 908.82923,790.66848 908.05843,788.32039 907.78573,785.48272 907.05003,785.81032 904.68953,785.13816 904.27023,784.58268 904.97493,784.12194 905.04793,783.25512 904.43503,781.21987 904.69993,780.39112 905.38413,779.86167 906.44563,779.39507 906.67033,779.04197 906.10143,777.97801 907.26313,776.84174 906.47873,776.66304 905.55683,775.89458 903.84013,775.97718 902.19103,775.43361 900.46573,775.68881 899.93493,775.00888 896.48413,776.82785 896.35783,778.01783 896.83653,779.51043 896.46863,779.70036 896.32683,781.34552 895.73963,782.42736 893.73163,782.12846 892.27663,780.64269 891.44123,780.73371 890.30063,779.52051 889.12583,779.08632 888.24083,780.49541 888.91333,782.41852 888.27643,783.42481 888.31893,784.2317 886.58463,784.29443 885.08423,784.9447 884.36313,785.37544 884.24433,787.04252 883.72393,787.68897 883.30433,789.27071 883.11643,789.60181 882.47673,791.1354 881.83513,791.68825 881.01703,791.8554 879.87023,791.43673 878.01483,790.44304 877.12233,790.94788 875.69133,789.33512 874.91183,788.95383 874.38283,785.10441 872.91053,784.87301 871.77703,783.81169 871.76033,782.67628 871.20393,781.62247 870.64683,777.22716 870.74093,777.11692 868.41263,775.81788 867.46513,773.5058 867.61873,772.69751 867.67993,772.27408 866.82273,771.34952 864.51213,770.28533 863.70073,770.48832 863.06483,771.57302 862.67113,771.47511 862.18153,769.92449 862.61013,768.42336 859.84813,765.78524 859.67103,765.73563 858.35603,768.10464 857.98203,768.29501 857.27843,766.7945 855.26573,766.57294 853.59383,765.40668 853.34173,764.62721 852.53343,764.45581 853.01953,763.80295 853.17023,762.7037 854.33133,761.57224 855.51123,761.57667 855.45353,761.17003 855.02363,760.0154 853.41473,760.30555 852.43413,759.5908 851.24353,759.41275 851.06103,759.0427 850.51933,756.28846 850.82683,756.02143 850.54513,755.22238 850.74303,754.83977 850.52073,754.00001 851.05063,751.02176 852.81853,748.05107 853.79873,748.90614 854.67973,748.29287 854.87263,747.26193 854.47413,746.53159 855.26203,745.07289 856.71283,743.57275 858.15973,742.74121 859.50263,742.75838 862.09823,742.44498 863.21803,741.80925 864.07913,741.89536 864.77693,742.41892 866.83713,741.74278 867.90343,740.97922 869.05923,741.16975 869.06223,742.00408 869.37443,742.28241 870.18413,742.12156 870.68123,741.45108 871.49143,741.37707 872.47003,742.58383 875.86163,740.25956 878.79423,738.65415 878.98433,738.27702 878.33763,737.20165 878.56363,736.00369 877.72393,733.23825 876.48513,733.32707 875.93203,731.82504 875.16723,731.49604 876.89053,730.5609 876.54563,729.39592 877.54233,728.11337 877.26823,726.89286 875.04923,726.16215 875.35153,725.32189 878.37793,724.07931 878.45313,724.90425 879.88753,725.64884 880.53743,724.14137 880.56103,723.71958 879.69403,722.84357 879.85043,721.59992 880.25363,721.47637 881.94173,721.64378 882.63013,720.60304 884.46753,719.70357 884.33863,718.93613 z">
      <title id="t12">Deuxième circonscription de l'Allier</title>
      <desc id="d12">Cantons de : Cérilly, Commentry, Domérat-Montluçon Nord-Ouest, Ebreuil, Hérisson, Huriel, Marcillat-en-Combraille, Montluçon Est, Montluçon Nord-Est, Montluçon Ouest, Montluçon Sud, Montmarault</desc>
    </path><path class="circo" id="id-003-03" d="M 953.05493,783.11981 951.50483,783.19778 950.54303,782.56073 950.17523,782.69138 948.70273,784.09616 948.12983,784.67893 946.97203,785.04966 946.90683,784.23796 947.43933,783.15173 947.29893,781.12824 947.67423,780.42687 944.93423,780.68261 944.25463,780.28327 943.05853,775.7231 940.46803,774.36416 940.05543,774.34252 939.42973,775.15357 938.19323,775.02129 938.00603,774.64092 937.10253,776.03004 937.42263,777.16792 936.91943,777.81888 935.04183,778.18052 934.01653,777.71233 934.65743,780.62967 934.10693,781.75266 932.60173,782.99186 932.16513,784.46986 931.52283,785.18542 929.99563,785.63983 928.09393,784.75615 927.35823,785.07494 926.17363,786.71805 924.68713,785.26496 923.86633,785.20261 923.47963,785.17425 921.72233,786.66687 922.25893,787.29974 921.33163,788.73042 921.89803,790.73164 921.41153,791.43219 921.60183,791.55507 921.43013,792.23947 922.16513,792.46583 921.70733,793.14977 922.07873,794.27631 921.12823,794.91079 921.46593,796.50604 921.91303,796.85749 922.72233,797.72612 925.46163,798.34557 927.10013,798.32818 927.10973,797.48523 929.37173,797.5846 930.08963,797.30291 930.71503,798.22821 930.88533,797.89324 931.62083,797.94286 931.66833,798.6358 932.46183,798.78269 933.66483,798.42361 935.29653,798.77436 936.02793,798.40413 936.78663,798.74446 937.55973,798.42643 937.49673,798.80008 938.80233,799.24096 940.14423,799.92372 940.08103,801.08159 943.23293,799.80957 944.40323,798.57418 946.08483,798.30024 947.53473,797.37214 947.86813,798.16499 948.82783,799.03296 949.66313,799.09825 950.41213,798.669 950.72793,799.20813 951.00413,800.29949 951.95753,801.55685 951.22243,801.89433 951.58583,803.06741 951.30913,805.47966 952.07663,805.16573 953.22403,804.72744 956.09373,804.71386 956.11713,803.98653 957.24273,803.75811 957.61563,803.86877 957.83493,804.57347 958.49653,804.54066 958.86303,804.61263 958.99533,804.2289 960.96813,804.29598 961.86603,803.51989 962.95523,804.64923 964.00433,806.78647 965.05633,808.47385 965.57663,811.24246 966.18583,810.70893 968.52153,811.23145 969.48863,811.8674 969.87183,813.75215 970.83813,814.92293 970.86093,812.81956 971.74023,811.91692 971.51093,810.67273 972.17433,809.64346 974.93343,810.55436 975.66183,810.14613 976.04983,808.9492 976.45923,808.84413 978.30313,809.80833 979.06603,809.48996 979.87283,808.53098 980.68383,808.35641 981.83133,807.92872 981.93873,807.1123 982.55523,806.54798 982.58413,806.52082 982.18173,806.45376 981.95803,805.67229 981.21263,804.13795 981.02253,801.99266 980.33413,799.98386 981.66763,795.42865 980.09823,792.98927 979.30383,792.73608 979.96393,790.37938 979.29613,788.89347 979.14583,787.292 980.52573,786.67718 979.05043,783.71961 978.89423,782.02505 979.35513,780.91698 978.57723,779.42689 977.59253,778.62275 977.24653,776.99586 978.00753,776.6725 980.08703,777.23121 980.51103,774.93204 984.15473,774.33281 985.71403,774.13941 986.45983,772.67488 987.24883,772.89415 988.31823,772.63282 987.73113,771.53292 988.52553,770.51181 991.04663,770.1345 992.42583,769.21814 992.42543,768.97981 992.52413,767.28991 994.23313,767.12338 995.47413,767.45693 997.24663,766.28884 996.37833,766.26669 995.63853,766.1399 995.78613,763.42305 996.13923,761.00052 995.31693,759.18392 994.95133,757.61778 995.83713,756.41223 995.55183,755.32398 995.50803,754.93151 996.45943,754.26046 995.94763,752.79468 997.08683,752.36149 997.22363,751.96552 996.64823,750.87395 996.98903,750.10933 996.74943,749.35067 995.08053,748.23054 994.67693,747.54079 993.89553,747.73459 992.69283,749.44038 992.80833,750.70072 991.71093,751.90741 992.06713,752.6759 991.35483,752.89632 990.53433,753.74843 989.37283,754.06475 988.72313,751.63244 987.28683,750.14844 986.62643,750.66889 986.30413,751.87731 985.50893,751.68524 985.02693,752.83736 985.53863,753.92811 985.46663,754.74791 984.55833,755.92823 982.34133,757.02354 981.91613,757.05571 981.55453,756.28045 980.70593,754.96813 979.21933,755.53481 978.71483,754.07745 977.94623,753.77766 977.02293,754.58379 975.48483,753.9471 974.07393,754.72892 973.59523,753.57959 972.03493,754.01505 971.30253,753.59538 971.68753,751.99611 971.01023,751.57347 971.12683,751.16462 970.70193,751.24753 970.28673,752.00931 969.01353,752.24048 967.10973,753.25523 966.75773,754.04527 967.07733,754.7685 966.75323,755.01684 965.06223,753.87718 964.68163,753.99298 964.46183,754.77516 963.22683,754.60241 962.38993,753.14793 961.18473,753.38214 959.97983,751.74063 958.42883,752.98253 958.12293,754.14429 957.39563,754.3358 958.10583,756.32816 957.69303,758.76592 956.95093,759.07942 955.69803,758.85687 954.92473,759.22027 953.01343,758.32485 953.03563,758.67904 951.86433,759.39439 951.32703,760.48063 951.45613,761.28238 952.00543,761.87464 952.34073,761.65711 954.31543,764.11917 955.42483,764.83923 956.49733,765.43167 956.45453,767.55403 957.07333,768.67969 958.58543,770.91912 958.97453,771.00609 959.38153,771.06759 958.90313,772.21615 959.16023,772.54686 958.24933,773.856 957.12583,774.3499 956.95203,775.5842 955.79753,775.80349 955.78733,777.87626 956.56603,777.69452 957.22283,778.13051 957.90993,780.391 957.59153,780.67303 955.86293,781.65809 955.04483,781.68032 953.97033,782.32605 953.05493,783.11981 z">
      <title id="t13">Troisième circonscription de l'Allier</title>
      <desc id="d13">Cantons de : Cusset Nord, Cusset Sud, Le Donjon, Escurolles, Gannat, Jaligny-sur-Besbre, Lapalisse, Le Mayet-de-Montagne, Vichy Nord, Vichy Sud</desc>
    </path></svg>