<svg xmlns="http://www.w3.org/2000/svg" version="1.1" xmlns:xlink="http://www.w3.org/1999/xlink" xmlns:svgjs="http://svgjs.dev/svgjs" viewBox="0 0 146.7273 107.53494"><path class="circo" id="id-003-01" d="M59.52499999999998 45.129530000000045L58.28380000000004 45.03887000000009L56.35110000000009 44.120340000000056L55.55740000000003 44.31094000000007L55.22919999999999 45.070940000000064L54.818500000000085 45.12349000000006L53.465599999999995 44.23076000000003L53.57209999999998 43.37085000000002L53.24000000000001 42.572400000000016L51.023900000000026 41.23306000000002L50.964000000000055 41.209850000000074L49.997799999999984 39.793210000000045L47.4837 38.170310000000086L46.10800000000006 36.09052000000008L46.946500000000015 36.27110000000005L49.79740000000004 35.38460000000009L50.86410000000001 34.6642700000001L52.09190000000001 34.87614000000008L52.585500000000025 34.1778700000001L52.355500000000006 32.992180000000076L51.16669999999999 30.9217900000001L54.718200000000024 28.627450000000067L54.86650000000009 27.022620000000074L55.623300000000086 26.621020000000044L53.48009999999999 23.356930000000034L52.403999999999996 22.75536000000011L52.340599999999995 21.01902000000007L51.9683 20.937070000000062L51.80550000000005 21.28171000000009L51.10170000000005 20.28514000000007L48.17930000000001 18.681410000000028L47.938800000000015 17.876800000000003L48.14610000000005 17.057730000000106L47.124000000000024 16.310280000000034L48.19690000000003 15.727030000000013L47.70040000000006 13.803360000000112L47.905700000000024 13.026290000000017L49.072200000000066 13.363280000000032L50.11689999999999 10.77094000000011L48.22280000000001 9.587550000000078L48.12990000000002 7.634700000000066L50.7405 5.366860000000088L51.17190000000005 4.201870000000099L52.748300000000086 3.5012700000000905L53.76470000000006 2.797110000000089L53.62660000000005 1.9868700000000672L54.28690000000006 1.4629500000000917L55.482200000000034 1.0739700000000312L56.2269 1.327130000000011L57.29899999999998 1.390070000000037L57.92900000000009 0L59.627700000000004 0.05638000000010379L61.04770000000008 0.8589100000000371L62.70830000000001 0.5024200000000292L63.681100000000015 1.3042800000000625L64.06220000000008 1.1133200000000443L64.52780000000007 3.85412000000008L65.56050000000005 5.71837000000005L68.43220000000008 8.20390000000009L70.23380000000009 8.773290000000088L72.30640000000005 9.478800000000092L73.83069999999998 11.621530000000007L74.02269999999999 11.86859000000004L75.56690000000003 14.006590000000074L78.71300000000008 15.520250000000033L79.71540000000005 14.976210000000037L80.62639999999999 14.126420000000053L80.84680000000003 13.32585000000006L81.24530000000004 13.213190000000054L83.41770000000008 11.937640000000101L84.16320000000007 10.913270000000011L85.39020000000005 11.031420000000026L85.42370000000005 11.009230000000002L86.67150000000004 10.91885000000002L87.21950000000004 12.534980000000019L88.37150000000008 14.319490000000087L90.92439999999999 14.767680000000041L91.67489999999998 14.322460000000092L92.48260000000005 14.042780000000107L93.39710000000002 12.600790000000075L93.6979 11.3588400000001L94.49170000000004 11.041220000000067L96.57910000000004 11.510700000000043L98.24560000000008 11.372350000000097L97.87290000000007 12.584680000000048L98.03090000000009 13.400210000000015L99.52240000000006 14.02902000000006L99.88190000000009 14.751820000000066L99.88369999999998 16.00689L99.28770000000009 16.595820000000003L99.29750000000001 17.41904000000011L98.91410000000008 17.595280000000002L99.6789 17.994460000000004L100.03780000000006 18.784810000000107L102.4026 18.877070000000003L102.70440000000008 18.610210000000052L102.71840000000009 17.773880000000077L105.57770000000005 14.71688000000006L106.7586 14.433490000000006L107.4769 15.432540000000017L107.90280000000007 15.435510000000022L108.44990000000007 14.795560000000023L108.92520000000002 14.12841000000003L107.9941 12.198940000000107L107.894 10.108470000000011L109.6934 10.915010000000052L110.38080000000002 10.046970000000101L110.70940000000007 10.774040000000014L111.98700000000008 9.720730000000003L110.47070000000008 6.734230000000025L111.71580000000006 5.064340000000016L112.52949999999998 6.443560000000048L114.21180000000004 6.206470000000081L114.83890000000008 6.754330000000095L114.27600000000007 7.816540000000032L115.54070000000002 9.888130000000046L115.53740000000005 11.960070000000087L116.68460000000005 12.362310000000093L117.05270000000007 14.405360000000087L118.52179999999998 15.085990000000038L118.30230000000006 16.31016000000011L120.4932 17.668730000000096L120.78390000000002 18.47646000000009L120.80510000000004 18.844630000000052L121.2301 19.67574000000002L121.60850000000005 20.866510000000062L122.2156 21.437180000000012L122.85140000000001 22.019190000000094L122.81290000000001 22.452390000000037L121.98080000000004 23.94360000000006L122.50350000000003 24.596790000000055L123.77539999999999 24.802420000000097L124.15449999999998 27.266520000000014L124.27520000000004 28.247580000000085L124.32360000000006 30.189730000000054L123.75099999999998 30.913510000000088L123.61580000000004 31.731390000000033L124.39510000000007 32.74479000000008L125.57910000000004 33.16444000000001L126.80930000000001 32.818070000000034L127.44740000000002 33.34287000000006L127.69479999999999 34.12635L128.86470000000008 34.25262000000009L129.57479999999998 35.2021400000001L130.33670000000006 35.087510000000066L132.48450000000003 33.72603000000004L133.2731 34.66464000000008L132.74900000000002 35.3508700000001L133.16660000000002 36.01394000000005L133.23300000000006 36.03234000000009L134.02550000000008 35.73837000000003L134.76380000000006 36.06458000000009L134.47360000000003 38.17772000000002L134.88570000000004 38.90829000000008L137.20630000000006 39.990350000000035L137.73570000000007 39.431620000000066L138.0892 38.65185000000008L139.24030000000005 38.11141000000009L140.75020000000006 38.749630000000025L142.78010000000006 38.79186000000004L142.28160000000003 40.248710000000074L143.37620000000004 40.34660000000008L142.1735 42.05239000000006L142.289 43.3127300000001L141.1916 44.51942000000008L141.54780000000005 45.28791000000001L140.83550000000002 45.50833L140.015 46.36044000000004L138.85350000000005 46.67676000000006L138.2038 44.24445000000003L136.76750000000004 42.760450000000105L136.10710000000006 43.28090000000009L135.78480000000002 44.48932000000002L134.9896 44.297250000000076L134.50760000000002 45.449370000000044L135.01930000000004 46.54012L134.94730000000004 47.3599200000001L134.039 48.54024000000004L131.822 49.63555000000008L131.39679999999998 49.66772000000003L131.03520000000003 48.89246000000003L130.1866 47.58014000000003L128.70000000000005 48.14682000000005L128.19550000000004 46.689460000000054L127.42690000000005 46.389670000000024L126.5036 47.19580000000008L124.96550000000002 46.55911000000003L123.55460000000005 47.34093000000007L123.07590000000005 46.19160000000011L121.51560000000006 46.62706000000003L120.78320000000008 46.20739000000003L121.16820000000007 44.6081200000001L120.49090000000001 44.1854800000001L120.60750000000007 43.77663000000007L120.18259999999998 43.85954000000004L119.76740000000007 44.62132000000008L118.49419999999998 44.8524900000001L116.59040000000005 45.86724000000004L116.23840000000007 46.657280000000014L116.55799999999999 47.38051000000007L116.23390000000006 47.62885000000006L114.54290000000003 46.48919000000001L114.16230000000007 46.60499000000004L113.9425 47.38717000000008L112.70749999999998 47.21442000000002L111.87060000000008 45.75994000000003L110.66539999999998 45.994150000000104L109.46050000000002 44.352640000000065L107.90949999999998 45.59454000000005L107.60360000000003 46.75630000000001L106.87630000000001 46.947810000000004L107.5865 48.94017000000008L107.17370000000005 51.377930000000106L106.4316 51.69143000000008L105.17870000000005 51.46888000000001L104.40539999999999 51.83228000000008L102.4941 50.936860000000024L102.5163 51.29105000000004L101.34500000000003 52.0064000000001L100.80770000000007 53.092640000000074L100.93680000000006 53.894390000000044L101.48610000000008 54.486650000000054L101.82140000000004 54.26912000000004L103.79610000000002 56.73118000000011L104.90550000000007 57.4512400000001L105.97800000000007 58.04368000000011L105.93520000000001 60.166040000000066L106.55400000000009 61.291700000000105L108.0661 63.531130000000076L108.45519999999999 63.61810000000003L108.86220000000003 63.67960000000005L108.38380000000006 64.82816000000003L108.64089999999999 65.15887000000009L107.73000000000002 66.46801000000005L106.60649999999998 66.9619100000001L106.43270000000007 68.19621000000006L105.27820000000008 68.41550000000007L105.26800000000003 70.48827000000006L106.04669999999999 70.30653000000007L106.70350000000008 70.74252000000001L107.39060000000006 73.00301000000002L107.07220000000007 73.2850400000001L105.34360000000004 74.27010000000007L104.52550000000008 74.2923300000001L103.45100000000002 74.93806000000006L102.53560000000004 75.73182000000008L100.9855 75.80979000000002L100.02370000000008 75.17274000000009L99.65590000000009 75.30339000000004L98.1834 76.70817000000011L97.6105 77.29094000000009L96.45270000000005 77.66167000000007L96.38750000000005 76.8499700000001L96.92000000000007 75.7637400000001L96.77960000000007 73.74025000000006L97.1549 73.03888000000006L94.41489999999999 73.29462000000001L93.73530000000005 72.89528000000007L92.53920000000005 68.3351100000001L89.94870000000003 66.97617000000002L89.53610000000003 66.95453000000009L88.91039999999998 67.76558L87.6739 67.63330000000008L87.48670000000004 67.2529300000001L86.58320000000003 68.64205000000004L86.90330000000006 69.77993000000004L86.40010000000007 70.43089000000009L84.52250000000004 70.79253000000006L83.49720000000002 70.32434L84.13810000000001 73.24168000000009L83.58760000000007 74.36467000000005L82.0824 75.60387000000003L81.64580000000001 77.0818700000001L81.00350000000003 77.79743000000008L79.47630000000004 78.25184000000002L77.57460000000003 77.3681600000001L76.83890000000008 77.68695000000002L75.65430000000003 79.33006L74.16780000000006 77.87697000000003L73.34699999999998 77.8146200000001L73.33800000000008 76.72241000000008L72.73360000000002 76.41621000000009L71.35919999999999 75.68430000000001L70.89640000000009 74.90183000000002L70.53230000000008 75.11588000000006L69.28480000000002 74.06143000000009L69.85440000000006 71.67511000000002L68.73250000000007 69.9884800000001L67.29470000000003 69.32310000000007L67.49760000000003 68.19092L66.87830000000008 67.18420000000003L66.1603 68.13782000000003L65.74869999999999 68.16523000000007L64.8709 67.33997000000011L63.89930000000004 65.57023000000004L63.57060000000001 65.34973000000002L62.45670000000007 65.70821000000001L61.77230000000009 65.32501000000002L61.64440000000002 64.47001L62.216499999999996 62.378780000000006L63.83170000000007 60.632960000000026L64.33270000000005 59.14138000000003L63.524200000000064 58.231050000000096L63.82839999999999 57.49384000000009L63.06170000000009 56.51569000000006L62.35770000000002 56.03764000000001L62.3125 55.182570000000055L61.988699999999994 54.904210000000035L60.29600000000005 54.87539000000004L59.15380000000005 54.32886000000008L59.455100000000016 52.30200000000002L59.867399999999975 51.59728000000007L59.72340000000008 50.79168000000004L59.66910000000007 50.048110000000065L58.71690000000001 48.28565000000003L59.31820000000005 45.949260000000095L60.10760000000005 45.759070000000065L59.52499999999998 45.129530000000045z">
      <title id="t11">Première circonscription de l'Allier</title>
      <desc id="d11">Cantons de : Bourbon-l'Archambault, Chevagnes, Chantelle, Dompierre-sur-Besbre, Le Montet, Lurcy-Lévis, Moulins Ouest, Moulins Sud, Neuilly-le-Réal, Saint-Pourçain-sur-Sioule, Souvigny, Varennes-sur-Allier, Yzeure</desc>
    </path><path class="circo" id="id-003-02" d="M33.8193 11.548140000000103L34.864700000000084 10.269040000000018L36.09840000000008 10.130300000000034L36.24650000000008 8.047240000000102L38.44029999999998 6.935940000000073L38.77060000000006 7.1560100000000375L39.55849999999998 9.099950000000035L40.520500000000084 9.92310000000009L40.810100000000034 10.698170000000005L41.497600000000034 10.268420000000106L42.18960000000004 10.53773000000001L42.86940000000004 10.10265000000004L43.77620000000002 8.726780000000076L46.672199999999975 8.506520000000023L47.45100000000002 9.401540000000068L48.22280000000001 9.587550000000078L50.11689999999999 10.77094000000011L49.072200000000066 13.363280000000032L47.905700000000024 13.026290000000017L47.70040000000006 13.803360000000112L48.19690000000003 15.727030000000013L47.124000000000024 16.310280000000034L48.14610000000005 17.057730000000106L47.938800000000015 17.876800000000003L48.17930000000001 18.681410000000028L51.10170000000005 20.28514000000007L51.80550000000005 21.28171000000009L51.9683 20.937070000000062L52.340599999999995 21.01902000000007L52.403999999999996 22.75536000000011L53.48009999999999 23.356930000000034L55.623300000000086 26.621020000000044L54.86650000000009 27.022620000000074L54.718200000000024 28.627450000000067L51.16669999999999 30.9217900000001L52.355500000000006 32.992180000000076L52.585500000000025 34.1778700000001L52.09190000000001 34.87614000000008L50.86410000000001 34.6642700000001L49.79740000000004 35.38460000000009L46.946500000000015 36.27110000000005L46.10800000000006 36.09052000000008L47.4837 38.170310000000086L49.997799999999984 39.793210000000045L50.964000000000055 41.209850000000074L51.023900000000026 41.23306000000002L53.24000000000001 42.572400000000016L53.57209999999998 43.37085000000002L53.465599999999995 44.23076000000003L54.818500000000085 45.12349000000006L55.22919999999999 45.070940000000064L55.55740000000003 44.31094000000007L56.35110000000009 44.120340000000056L58.28380000000004 45.03887000000009L59.52499999999998 45.129530000000045L60.10760000000005 45.759070000000065L59.31820000000005 45.949260000000095L58.71690000000001 48.28565000000003L59.66910000000007 50.048110000000065L59.72340000000008 50.79168000000004L59.867399999999975 51.59728000000007L59.455100000000016 52.30200000000002L59.15380000000005 54.32886000000008L60.29600000000005 54.87539000000004L61.988699999999994 54.904210000000035L62.3125 55.182570000000055L62.35770000000002 56.03764000000001L63.06170000000009 56.51569000000006L63.82839999999999 57.49384000000009L63.524200000000064 58.231050000000096L64.33270000000005 59.14138000000003L63.83170000000007 60.632960000000026L62.216499999999996 62.378780000000006L61.64440000000002 64.47001L61.77230000000009 65.32501000000002L62.45670000000007 65.70821000000001L63.57060000000001 65.34973000000002L63.89930000000004 65.57023000000004L64.8709 67.33997000000011L65.74869999999999 68.16523000000007L66.1603 68.13782000000003L66.87830000000008 67.18420000000003L67.49760000000003 68.19092L67.29470000000003 69.32310000000007L68.73250000000007 69.9884800000001L69.85440000000006 71.67511000000002L69.28480000000002 74.06143000000009L70.53230000000008 75.11588000000006L70.89640000000009 74.90183000000002L71.35919999999999 75.68430000000001L72.73360000000002 76.41621000000009L73.33800000000008 76.72241000000008L73.34699999999998 77.8146200000001L72.96030000000007 77.78626000000008L71.20300000000009 79.27888000000007L71.7396 79.9117500000001L70.81230000000005 81.34243000000004L71.37869999999998 83.34365000000003L70.8922 84.04420000000005L71.08249999999998 84.16708000000006L70.9108 84.85148000000004L71.64580000000001 85.07784000000004L71.18799999999999 85.76178000000004L71.55939999999998 86.88832000000002L70.60890000000006 87.52280000000007L70.94659999999999 89.11805000000004L69.90840000000003 89.0140100000001L69.7894 87.38147000000004L69.06770000000006 85.40559000000007L68.65070000000003 85.32675000000006L67.23790000000008 86.2770700000001L65.61660000000006 86.75274000000002L64.66090000000008 85.92644000000007L63.55579999999998 86.48463000000004L62.77449999999999 86.54286000000002L62.09800000000007 85.06447000000003L60.84870000000001 83.99993000000006L59.646600000000035 83.83780000000002L58.93450000000007 84.18474000000003L58.309900000000084 83.2804900000001L57.539100000000076 80.93240000000003L57.266399999999976 78.09473000000003L56.530700000000024 78.4223300000001L54.17020000000002 77.75017000000003L53.7509 77.19469000000004L54.455600000000004 76.73395000000005L54.52859999999998 75.86713000000009L53.915700000000015 73.83188000000007L54.18060000000003 73.00313000000006L54.86480000000006 72.47368000000006L55.92630000000008 72.00708000000009L56.15100000000007 71.65398000000005L55.58210000000008 70.5900200000001L56.74380000000008 69.45375000000001L55.95940000000007 69.27505000000008L55.03750000000002 68.50659000000007L53.32080000000008 68.58919000000003L51.67169999999999 68.0456200000001L49.94640000000004 68.30082000000004L49.41560000000004 67.62089000000003L45.96480000000008 69.43986000000007L45.83850000000007 70.62984000000006L46.31720000000007 72.1224400000001L45.949299999999994 72.3123700000001L45.807500000000005 73.95753000000002L45.220300000000066 75.03937000000008L43.21230000000003 74.74047000000007L41.75729999999999 73.25470000000007L40.92190000000005 73.34572000000003L39.78129999999999 72.13252L38.60649999999998 71.69833000000006L37.72149999999999 73.10742000000005L38.394000000000005 75.03053L37.75710000000004 76.03682000000003L37.799600000000055 76.8437100000001L36.06529999999998 76.90644000000009L34.56490000000008 77.55671000000007L33.84379999999999 77.98745000000008L33.72500000000002 79.65453000000002L33.20460000000003 80.3009800000001L32.78500000000008 81.88272000000006L32.59710000000007 82.21382000000006L31.957400000000007 83.74741000000006L31.31580000000008 84.3002600000001L30.49770000000001 84.46741000000009L29.350900000000024 84.04874000000007L27.495499999999993 83.05505000000005L26.603000000000065 83.55989000000011L25.172000000000025 81.94713000000002L24.39250000000004 81.5658400000001L23.863500000000045 77.71642000000008L22.391200000000026 77.48502000000008L21.2577 76.42370000000005L21.240999999999985 75.28829000000007L20.684600000000046 74.23448000000008L20.127500000000055 69.83917000000008L20.22160000000008 69.7289300000001L17.893300000000067 68.42989L16.945800000000077 66.11781000000008L17.09940000000006 65.30952000000002L17.160600000000045 64.88609000000008L16.30340000000001 63.96153000000004L13.992799999999988 62.8973400000001L13.181400000000053 63.1003300000001L12.545500000000061 64.1850300000001L12.15179999999998 64.08712000000003L11.662199999999984 62.536500000000046L12.090800000000058 61.03537000000006L9.328800000000001 58.3972500000001L9.151700000000005 58.34764000000007L7.836700000000064 60.71665000000007L7.462700000000041 60.9070200000001L6.7590999999999894 59.406510000000026L4.746399999999994 59.18495000000007L3.0745000000000573 58.018690000000106L2.822400000000016 57.239220000000046L2.014099999999985 57.0678200000001L2.5002000000000635 56.414960000000065L2.6508999999999787 55.31571000000008L3.812000000000012 54.18425000000002L4.991899999999987 54.18868000000009L4.934200000000033 53.78204000000005L4.5043000000000575 52.627410000000054L2.895399999999995 52.917560000000094L1.9148000000000138 52.20281L0.7241999999999962 52.024760000000015L0.5416999999999916 51.65471000000002L0 48.90047000000004L0.30750000000000455 48.633440000000064L0.02580000000000382 47.8343900000001L0.223700000000008 47.4517800000001L0.0013999999999896318 46.61202000000003L0.5312999999999874 43.63377000000003L2.2992000000000417 40.663080000000036L3.2794000000000096 41.518150000000105L4.1603999999999814 40.90488000000005L4.35329999999999 39.87394000000006L3.9547999999999774 39.143600000000106L4.7427000000000135 37.684900000000084L6.1935000000000855 36.1847600000001L7.6404 35.35322000000008L8.983299999999986 35.37039000000004L11.578899999999976 35.05699000000004L12.69870000000003 34.421260000000075L13.559799999999996 34.50737000000004L14.257600000000025 35.03093000000001L16.317800000000034 34.354790000000094L17.38409999999999 33.59123000000011L18.53989999999999 33.78176000000008L18.54290000000003 34.6160900000001L18.855099999999993 34.89442000000008L19.664800000000014 34.7335700000001L20.16190000000006 34.0630900000001L20.97210000000007 33.98908000000006L21.950699999999983 35.19584000000009L25.342300000000023 32.87157000000002L28.274900000000002 31.266160000000013L28.465000000000032 30.889030000000048L27.818300000000022 29.813660000000027L28.04430000000002 28.61570000000006L27.204600000000028 25.85026000000005L25.96580000000006 25.939080000000104L25.412700000000086 24.43705L24.64790000000005 24.10805000000005L26.371200000000044 23.17291L26.026299999999992 22.0079300000001L27.023000000000025 20.725380000000087L26.74890000000005 19.504870000000096L24.529899999999998 18.77416000000005L24.832200000000057 17.933900000000108L27.858600000000024 16.69132000000002L27.93380000000002 17.516260000000102L29.3682 18.260850000000005L30.018100000000004 16.753380000000107L30.04169999999999 16.331590000000006L29.17470000000003 15.455580000000054L29.331099999999992 14.211930000000052L29.734300000000076 14.08838000000003L31.42240000000004 14.255790000000047L32.11080000000004 13.21505000000002L33.94820000000004 12.315580000000068L33.8193 11.548140000000103z">
      <title id="t12">Deuxième circonscription de l'Allier</title>
      <desc id="d12">Cantons de : Cérilly, Commentry, Domérat-Montluçon Nord-Ouest, Ebreuil, Hérisson, Huriel, Marcillat-en-Combraille, Montluçon Est, Montluçon Nord-Est, Montluçon Ouest, Montluçon Sud, Montmarault</desc>
    </path><path class="circo" id="id-003-03" d="M102.53560000000004 75.73182000000008L100.9855 75.80979000000002L100.02370000000008 75.17274000000009L99.65590000000009 75.30339000000004L98.1834 76.70817000000011L97.6105 77.29094000000009L96.45270000000005 77.66167000000007L96.38750000000005 76.8499700000001L96.92000000000007 75.7637400000001L96.77960000000007 73.74025000000006L97.1549 73.03888000000006L94.41489999999999 73.29462000000001L93.73530000000005 72.89528000000007L92.53920000000005 68.3351100000001L89.94870000000003 66.97617000000002L89.53610000000003 66.95453000000009L88.91039999999998 67.76558L87.6739 67.63330000000008L87.48670000000004 67.2529300000001L86.58320000000003 68.64205000000004L86.90330000000006 69.77993000000004L86.40010000000007 70.43089000000009L84.52250000000004 70.79253000000006L83.49720000000002 70.32434L84.13810000000001 73.24168000000009L83.58760000000007 74.36467000000005L82.0824 75.60387000000003L81.64580000000001 77.0818700000001L81.00350000000003 77.79743000000008L79.47630000000004 78.25184000000002L77.57460000000003 77.3681600000001L76.83890000000008 77.68695000000002L75.65430000000003 79.33006L74.16780000000006 77.87697000000003L73.34699999999998 77.8146200000001L72.96030000000007 77.78626000000008L71.20300000000009 79.27888000000007L71.7396 79.9117500000001L70.81230000000005 81.34243000000004L71.37869999999998 83.34365000000003L70.8922 84.04420000000005L71.08249999999998 84.16708000000006L70.9108 84.85148000000004L71.64580000000001 85.07784000000004L71.18799999999999 85.76178000000004L71.55939999999998 86.88832000000002L70.60890000000006 87.52280000000007L70.94659999999999 89.11805000000004L71.39370000000008 89.46950000000004L72.20300000000009 90.33813000000009L74.94230000000005 90.95758000000001L76.58080000000007 90.94019000000003L76.59040000000005 90.09724000000006L78.85239999999999 90.19661000000008L79.57030000000009 89.91492000000005L80.19569999999999 90.84022000000004L80.36599999999999 90.50525000000005L81.10149999999999 90.55487000000005L81.149 91.24781000000007L81.9425 91.39470000000006L83.14550000000008 91.03562000000011L84.7772 91.38637000000006L85.5086 91.01614000000006L86.26729999999998 91.35647000000006L87.04039999999998 91.03844000000004L86.97739999999999 91.41209000000003L88.28300000000002 91.85297000000003L89.62490000000003 92.53573000000006L89.56170000000009 93.69360000000006L92.71360000000004 92.42158000000006L93.88390000000004 91.18619000000001L95.56550000000004 90.91225000000009L97.0154 89.98415L97.34879999999998 90.77700000000004L98.30849999999998 91.64497000000006L99.14380000000006 91.71026000000006L99.89280000000008 91.28101000000004L100.20860000000005 91.82014000000004L100.48480000000006 92.91150000000005L101.43820000000005 94.16886000000011L100.70310000000006 94.50634000000002L101.06650000000002 95.67942000000005L100.78980000000001 98.09167000000002L101.55730000000005 97.77774000000011L102.7047 97.33945000000006L105.57440000000008 97.32587000000001L105.5978 96.59854000000007L106.72340000000008 96.37012000000004L107.09630000000004 96.4807800000001L107.31560000000002 97.1854800000001L107.97720000000004 97.15267000000006L108.34370000000001 97.22464000000002L108.476 96.84091000000001L110.4488 96.90799000000004L111.34670000000006 96.13190000000009L112.43590000000006 97.26124000000004L113.48500000000001 99.39848000000006L114.53700000000003 101.08586000000003L115.05730000000005 103.8544700000001L115.66650000000004 103.32094000000006L118.00220000000002 103.84346000000005L118.96929999999998 104.47941000000003L119.35250000000008 106.36416000000008L120.31880000000001 107.53494L120.34160000000008 105.43157000000008L121.22090000000003 104.52893000000006L120.99160000000006 103.28474000000006L121.65500000000009 102.25547000000006L124.41410000000008 103.16637000000003L125.14250000000004 102.75814000000003L125.53050000000007 101.56121000000007L125.93990000000008 101.45614L127.78380000000004 102.42034000000001L128.5467 102.10197000000005L129.35350000000005 101.14299000000005L130.16449999999998 100.96842000000004L131.312 100.54073000000005L131.4194 99.72431000000006L132.03590000000008 99.1599900000001L132.0648 99.13283000000001L131.66240000000005 99.06577000000004L131.43870000000004 98.28430000000003L130.69330000000002 96.7499600000001L130.5032 94.60467000000006L129.8148 92.5958700000001L131.14830000000006 88.04066L129.57889999999998 85.60128000000009L128.78449999999998 85.34809000000007L129.44460000000004 82.99139000000002L128.77679999999998 81.50548000000003L128.62650000000008 79.90401000000008L130.00639999999999 79.28919000000008L128.53110000000004 76.33162000000004L128.37490000000003 74.63706000000002L128.83580000000006 73.52899000000002L128.05790000000002 72.03890000000001L127.07320000000004 71.23476000000005L126.72720000000004 69.60787000000005L127.4882 69.28451000000007L129.56770000000006 69.84322000000009L129.99170000000004 67.54405000000008L133.6354 66.94482000000005L135.1947 66.75142000000005L135.94050000000004 65.28689000000008L136.72950000000003 65.50616000000002L137.7989 65.24483000000009L137.21180000000004 64.14493000000004L138.00620000000004 63.12382000000002L140.52730000000008 62.74651000000006L141.90650000000005 61.83015L141.90610000000004 61.5918200000001L142.00480000000005 59.90192000000002L143.7138 59.73539000000005L144.95479999999998 60.06894000000011L146.7273 58.900850000000105L145.85900000000004 58.878700000000094L145.11919999999998 58.751910000000066L145.2668 56.035060000000044L145.61990000000003 53.612530000000106L144.7976 51.79593L144.43200000000002 50.229790000000094L145.31780000000003 49.02424000000008L145.03250000000003 47.93599000000006L144.9887 47.54352000000006L145.94010000000003 46.87247000000002L145.42830000000004 45.406690000000026L146.5675 44.97350000000006L146.7043 44.577530000000024L146.12890000000004 43.48596000000009L146.4697 42.721340000000055L146.2301 41.96268000000009L144.56119999999999 40.842550000000074L144.1576 40.15280000000007L143.37620000000004 40.34660000000008L142.1735 42.05239000000006L142.289 43.3127300000001L141.1916 44.51942000000008L141.54780000000005 45.28791000000001L140.83550000000002 45.50833L140.015 46.36044000000004L138.85350000000005 46.67676000000006L138.2038 44.24445000000003L136.76750000000004 42.760450000000105L136.10710000000006 43.28090000000009L135.78480000000002 44.48932000000002L134.9896 44.297250000000076L134.50760000000002 45.449370000000044L135.01930000000004 46.54012L134.94730000000004 47.3599200000001L134.039 48.54024000000004L131.822 49.63555000000008L131.39679999999998 49.66772000000003L131.03520000000003 48.89246000000003L130.1866 47.58014000000003L128.70000000000005 48.14682000000005L128.19550000000004 46.689460000000054L127.42690000000005 46.389670000000024L126.5036 47.19580000000008L124.96550000000002 46.55911000000003L123.55460000000005 47.34093000000007L123.07590000000005 46.19160000000011L121.51560000000006 46.62706000000003L120.78320000000008 46.20739000000003L121.16820000000007 44.6081200000001L120.49090000000001 44.1854800000001L120.60750000000007 43.77663000000007L120.18259999999998 43.85954000000004L119.76740000000007 44.62132000000008L118.49419999999998 44.8524900000001L116.59040000000005 45.86724000000004L116.23840000000007 46.657280000000014L116.55799999999999 47.38051000000007L116.23390000000006 47.62885000000006L114.54290000000003 46.48919000000001L114.16230000000007 46.60499000000004L113.9425 47.38717000000008L112.70749999999998 47.21442000000002L111.87060000000008 45.75994000000003L110.66539999999998 45.994150000000104L109.46050000000002 44.352640000000065L107.90949999999998 45.59454000000005L107.60360000000003 46.75630000000001L106.87630000000001 46.947810000000004L107.5865 48.94017000000008L107.17370000000005 51.377930000000106L106.4316 51.69143000000008L105.17870000000005 51.46888000000001L104.40539999999999 51.83228000000008L102.4941 50.936860000000024L102.5163 51.29105000000004L101.34500000000003 52.0064000000001L100.80770000000007 53.092640000000074L100.93680000000006 53.894390000000044L101.48610000000008 54.486650000000054L101.82140000000004 54.26912000000004L103.79610000000002 56.73118000000011L104.90550000000007 57.4512400000001L105.97800000000007 58.04368000000011L105.93520000000001 60.166040000000066L106.55400000000009 61.291700000000105L108.0661 63.531130000000076L108.45519999999999 63.61810000000003L108.86220000000003 63.67960000000005L108.38380000000006 64.82816000000003L108.64089999999999 65.15887000000009L107.73000000000002 66.46801000000005L106.60649999999998 66.9619100000001L106.43270000000007 68.19621000000006L105.27820000000008 68.41550000000007L105.26800000000003 70.48827000000006L106.04669999999999 70.30653000000007L106.70350000000008 70.74252000000001L107.39060000000006 73.00301000000002L107.07220000000007 73.2850400000001L105.34360000000004 74.27010000000007L104.52550000000008 74.2923300000001L103.45100000000002 74.93806000000006L102.53560000000004 75.73182000000008z">
      <title id="t13">Troisième circonscription de l'Allier</title>
      <desc id="d13">Cantons de : Cusset Nord, Cusset Sud, Le Donjon, Escurolles, Gannat, Jaligny-sur-Besbre, Lapalisse, Le Mayet-de-Montagne, Vichy Nord, Vichy Sud</desc>
    </path></svg>