<svg xmlns="http://www.w3.org/2000/svg" version="1.1" xmlns:xlink="http://www.w3.org/1999/xlink" xmlns:svgjs="http://svgjs.dev/svgjs" viewBox="0 0 124.86950000000002 117.4932"><path class="circo" id="id-004-01" d="M99.6697999999999 91.65729999999996L100.30700000000002 92.66559999999993L101.8143 93.17189999999994L102.0456999999999 95.19780000000003L102.39899999999989 95.40449999999998L100.46630000000005 95.84360000000004L99.43069999999989 98.39219999999989L102.18589999999995 99.07959999999991L103.07210000000009 99.94189999999992L102.99440000000004 100.74249999999995L101.16200000000003 101.55619999999988L97.23849999999993 102.56479999999999L96.72199999999998 103.15499999999986L96.7523000000001 103.29959999999994L96.03469999999993 102.97379999999987L95.6572000000001 101.4742L92.54600000000005 101.37189999999998L92.05860000000007 102.21639999999991L89.75450000000001 103.94909999999993L89.0757000000001 104.87389999999994L88.68869999999993 104.8555L88.97499999999991 104.07830000000001L88.6672000000001 102.87969999999984L88.42560000000003 102.53779999999995L86.89100000000008 101.17679999999984L84.07339999999999 102.90659999999991L82.6056000000001 102.29329999999993L81.48919999999998 102.8075L79.9568999999999 102.26400000000001L79.6436000000001 102.95459999999991L78.00549999999998 103.17060000000004L77.7451000000001 106.44219999999984L75.25900000000001 109.71559999999988L74.86560000000009 109.13499999999988L74.2315000000001 108.75169999999991L72.79130000000009 109.47120000000007L70.64100000000008 108.32859999999994L69.24659999999994 106.8483L65.41969999999992 104.52449999999988L64.51240000000007 102.28110000000004L63.8762999999999 101.81249999999989L61.71370000000002 102.01729999999986L60.565000000000055 102.27359999999987L58.67049999999995 104.80730000000005L58.3110999999999 106.04679999999996L57.0320999999999 107.67729999999995L54.608999999999924 109.34219999999993L53.590599999999995 109.43829999999991L52.081100000000106 108.38459999999998L50.757699999999886 110.28290000000004L50.33249999999998 110.35829999999999L50.462600000000066 110.73199999999986L49.96569999999997 111.8066L48.6416999999999 113.18439999999998L47.940700000000106 113.2767L47.464300000000094 113.75580000000002L47.03989999999999 114.03470000000004L45.599500000000035 114.62260000000003L45.953899999999976 116.16469999999993L44.50469999999996 117.4932L43.608400000000074 116.66309999999987L43.01119999999992 115.14260000000002L41.61770000000001 114.30409999999995L41.34249999999997 112.06159999999988L40.55179999999996 112.01359999999988L39.73540000000003 111.10379999999998L38.56529999999998 111.23339999999996L37.90100000000007 110.76369999999986L37.52060000000006 110.06419999999991L37.7043000000001 109.26809999999989L37.408500000000004 108.07769999999994L36.3601000000001 107.59149999999988L36.338199999999915 107.18269999999995L36.08310000000006 106.99729999999988L34.58210000000008 107.55740000000003L34.42419999999993 109.58900000000006L33.18990000000008 110.6653L32.0304000000001 111.06239999999991L30.395500000000084 111.03869999999995L29.825399999999945 111.62810000000002L29.315399999999954 109.66610000000003L28.361400000000003 108.36049999999989L24.070799999999963 107.21879999999999L24.249700000000075 106.96649999999988L26.310699999999997 104.9772999999999L27.70959999999991 101.47019999999986L27.891900000000078 100.68449999999996L30.094700000000103 97.89530000000002L30.77260000000001 96.45749999999987L32.35770000000002 93.20629999999994L33.048 91.36879999999985L33.27410000000009 89.02920000000006L32.01970000000006 87.59109999999998L31.220199999999977 85.86039999999991L31.10089999999991 84.8247L30.17139999999995 82.09630000000004L28.99240000000009 80.92510000000004L29.99129999999991 79.73989999999992L31.18640000000005 80.78969999999993L31.716499999999996 79.35469999999998L33.11460000000011 78.64289999999994L33.225400000000036 76.21600000000001L33.62110000000007 75.51940000000002L32.9061999999999 73.6191L32.9233999999999 73.52819999999986L33.24369999999999 72.7731L34.67689999999993 72.01519999999994L36.27279999999996 71.85919999999999L36.70700000000011 71.17019999999991L36.62869999999998 70.35969999999986L37.141599999999926 69.72670000000005L36.36689999999999 68.76639999999986L33.41360000000009 67.33450000000005L32.465999999999894 65.08749999999998L34.45270000000005 64.60399999999993L35.12650000000008 64.25349999999992L35.702600000000075 63.733100000000036L36.04240000000004 62.617200000000025L35.76420000000007 61.888900000000035L36.11670000000004 60.776500000000055L37.33570000000009 59.302299999999946L38.88259999999991 59.31759999999997L38.763099999999895 59.75599999999997L41.6567 57.39330000000007L44.70859999999993 58.600900000000024L45.30009999999993 57.56799999999987L46.097299999999905 57.64459999999997L47.56529999999998 57.010799999999904L50.130499999999984 58.07709999999986L50.79860000000008 57.09879999999987L51.03690000000006 54.54099999999994L51.403299999999945 53.91139999999996L51.28269999999998 53.1588999999999L52.835399999999936 52.1176999999999L55.19160000000011 50.67399999999998L56.720600000000104 51.93539999999996L56.97129999999993 50.75279999999998L58.930900000000065 50.99129999999991L59.359899999999925 51.65739999999994L61.281999999999925 49.953199999999924L62.55709999999999 50.837099999999964L64.50620000000004 50.6031999999999L66.45679999999993 50.95479999999998L67.72460000000001 49.972099999999955L68.37069999999994 48.96119999999996L69.15609999999992 49.15989999999999L69.21370000000002 49.18369999999993L71.45939999999996 50.119899999999916L72.25810000000001 49.947599999999966L73.57249999999999 48.94749999999999L76.1902 48.69970000000001L77.11200000000008 48.052099999999996L79.48289999999997 44.9316L82.3551 42.73479999999995L83.10480000000007 43.051399999999944L83.7333000000001 44.08719999999994L84.80230000000006 44.673799999999915L87.9257 44.2817L89.00749999999994 40.09739999999999L92.32680000000005 41.86329999999998L93.19370000000004 43.748899999999935L93.87310000000002 44.21449999999993L95.7469000000001 43.37069999999994L96.91399999999999 43.82589999999993L100.2170000000001 43.565399999999954L102.25819999999999 44.06779999999992L102.9199000000001 45.079099999999926L102.6244999999999 46.7201L104.09339999999997 47.37889999999993L104.56310000000008 48.496299999999906L104.26749999999993 48.754999999999995L104.02590000000009 50.67439999999999L104.27260000000001 51.363899999999944L103.35519999999997 52.569999999999936L103.63519999999994 53.70639999999992L102.02929999999992 55.89880000000005L102.38460000000009 56.607599999999934L102.26379999999995 57.39440000000002L101.07400000000007 58.488699999999994L102.5791999999999 61.273199999999974L102.83510000000001 63.69060000000002L103.78160000000003 64.4117L104.25530000000003 65.28010000000006L105.63110000000006 66.76089999999988L106.39370000000008 68.16330000000005L106.96000000000004 68.99310000000003L106.21199999999999 70.89980000000003L106.04230000000007 73.34170000000006L108.2056 75.27210000000002L109.72270000000003 75.88939999999991L110.28179999999998 77.44569999999987L113.95090000000005 79.62119999999993L113.60969999999998 80.3794999999999L114.52549999999997 81.04799999999989L114.74499999999989 82.51239999999996L114.8161 83.71179999999993L116.8442 83.90829999999994L117.63000000000011 85.7426999999999L118.45579999999995 86.64499999999987L119.13079999999991 87.05589999999995L119.91499999999996 86.79820000000007L120.26340000000005 87.01859999999999L121.69200000000001 89.02300000000002L122.68920000000003 89.74159999999995L122.75250000000005 90.53460000000007L122.35410000000002 90.64430000000004L120.74700000000007 90.96999999999991L118.52970000000005 91.39330000000007L117.75299999999993 91.29219999999998L117.05279999999993 90.30010000000004L114.89889999999991 88.54759999999999L113.71460000000002 88.39089999999999L113.40339999999992 88.03329999999994L110.77649999999994 88.99030000000005L109.0969 92.15089999999998L106.24579999999992 93.53039999999999L103.56259999999997 92.62009999999998L99.6697999999999 91.65729999999996z">
      <title id="t14">Première circonscription des Alpes-de-Haute-Provence</title>
      <desc id="d14">Cantons de : Allos-Colmars, Annot, Barrême, Castellane, Digne Est, Digne Ouest, Entrevaux, La Javie, Les Mées, Mézel, Moustiers-Sainte-Marie, Peyruis, Riez, Saint-André-les-Alpes, Valensole, Volonne</desc>
    </path><path class="circo" id="id-004-02" d="M11.302799999999934 60.58859999999993L11.953899999999976 58.7281999999999L11.186999999999898 57.802699999999845L10.097400000000107 57.26580000000001L9.44900000000007 55.83299999999997L8.830699999999979 55.73879999999997L8.168300000000045 56.21339999999998L6.93100000000004 56.11620000000005L6.600500000000011 56.36800000000005L5.627899999999954 58.18060000000003L7.02150000000006 59.63900000000001L7.057099999999991 60.04669999999999L6.142100000000028 60.821199999999976L4.519399999999905 60.698999999999955L4.517900000000054 60.74699999999996L3.738499999999931 62.63959999999986L1.098600000000033 63.7417999999999L0.8033000000000357 64.4754999999999L0.05289999999990869 64.71719999999993L0 69.76200000000006L0.38010000000008404 70.90330000000006L1.6124999999999545 70.90530000000001L3.946899999999914 70.14089999999999L3.7998000000000047 75.51499999999999L1.819400000000087 79.11229999999989L1.2753999999999905 81.5521L0.8335999999999331 83.38939999999991L1.2333000000000993 84.8531999999999L2.6720000000000255 84.78039999999999L3.980399999999918 85.60270000000003L5.904899999999998 85.17949999999985L7.24369999999999 88.33399999999995L9.213799999999992 88.31399999999996L7.830799999999954 91.71739999999988L6.338799999999992 94.51509999999996L5.3689999999999145 95.22749999999985L4.29119999999989 96.34720000000004L3.962500000000091 99.92359999999996L4.4849999999999 99.94690000000003L5.578899999999976 99.55599999999993L6.2521999999999025 98.54799999999989L8.603599999999915 98.8024999999999L11.009199999999964 98.36990000000003L11.323000000000093 98.63289999999995L12.64429999999993 98.92349999999999L13.284200000000055 99.04049999999995L13.73960000000011 100.14739999999995L14.98739999999998 101.13160000000005L15.821699999999964 103.2405L16.731500000000096 103.85779999999988L17.61110000000008 104.39479999999992L18.308899999999994 104.22159999999997L18.539800000000014 107.06889999999987L21.238000000000056 108.88639999999998L22.029899999999998 110.30709999999988L24.070799999999963 107.21879999999999L24.249700000000075 106.96649999999988L26.310699999999997 104.9772999999999L27.70959999999991 101.47019999999986L27.891900000000078 100.68449999999996L30.094700000000103 97.89530000000002L30.77260000000001 96.45749999999987L32.35770000000002 93.20629999999994L33.048 91.36879999999985L33.27410000000009 89.02920000000006L32.01970000000006 87.59109999999998L31.220199999999977 85.86039999999991L31.10089999999991 84.8247L30.17139999999995 82.09630000000004L28.99240000000009 80.92510000000004L29.99129999999991 79.73989999999992L31.18640000000005 80.78969999999993L31.716499999999996 79.35469999999998L33.11460000000011 78.64289999999994L33.225400000000036 76.21600000000001L33.62110000000007 75.51940000000002L32.9061999999999 73.6191L32.9233999999999 73.52819999999986L33.24369999999999 72.7731L34.67689999999993 72.01519999999994L36.27279999999996 71.85919999999999L36.70700000000011 71.17019999999991L36.62869999999998 70.35969999999986L37.141599999999926 69.72670000000005L36.36689999999999 68.76639999999986L33.41360000000009 67.33450000000005L32.465999999999894 65.08749999999998L34.45270000000005 64.60399999999993L35.12650000000008 64.25349999999992L35.702600000000075 63.733100000000036L36.04240000000004 62.617200000000025L35.76420000000007 61.888900000000035L36.11670000000004 60.776500000000055L37.33570000000009 59.302299999999946L38.88259999999991 59.31759999999997L38.763099999999895 59.75599999999997L41.6567 57.39330000000007L44.70859999999993 58.600900000000024L45.30009999999993 57.56799999999987L46.097299999999905 57.64459999999997L47.56529999999998 57.010799999999904L50.130499999999984 58.07709999999986L50.79860000000008 57.09879999999987L51.03690000000006 54.54099999999994L51.403299999999945 53.91139999999996L51.28269999999998 53.1588999999999L52.835399999999936 52.1176999999999L55.19160000000011 50.67399999999998L56.720600000000104 51.93539999999996L56.97129999999993 50.75279999999998L58.930900000000065 50.99129999999991L59.359899999999925 51.65739999999994L61.281999999999925 49.953199999999924L62.55709999999999 50.837099999999964L64.50620000000004 50.6031999999999L66.45679999999993 50.95479999999998L67.72460000000001 49.972099999999955L68.37069999999994 48.96119999999996L69.15609999999992 49.15989999999999L69.21370000000002 49.18369999999993L71.45939999999996 50.119899999999916L72.25810000000001 49.947599999999966L73.57249999999999 48.94749999999999L76.1902 48.69970000000001L77.11200000000008 48.052099999999996L79.48289999999997 44.9316L82.3551 42.73479999999995L83.10480000000007 43.051399999999944L83.7333000000001 44.08719999999994L84.80230000000006 44.673799999999915L87.9257 44.2817L89.00749999999994 40.09739999999999L92.32680000000005 41.86329999999998L93.19370000000004 43.748899999999935L93.87310000000002 44.21449999999993L95.7469000000001 43.37069999999994L96.91399999999999 43.82589999999993L100.2170000000001 43.565399999999954L102.25819999999999 44.06779999999992L102.9199000000001 45.079099999999926L102.6244999999999 46.7201L104.09339999999997 47.37889999999993L104.56310000000008 48.496299999999906L105.35140000000001 48.41179999999997L105.85159999999996 47.77249999999992L106.9973 47.346900000000005L107.52129999999988 45.426099999999906L109.83780000000002 46.14829999999995L109.50669999999991 44.19889999999998L110.32249999999999 42.84259999999995L110.3898999999999 40.880499999999984L111.04510000000005 40.39080000000001L111.50350000000003 39.2672L112.64969999999994 38.84739999999999L114.13449999999989 37.43629999999996L115.2967000000001 37.66339999999991L116.01099999999997 37.33109999999999L116.74009999999998 36.59029999999996L118.09089999999992 35.608999999999924L118.05809999999997 35.188499999999976L118.81439999999998 34.22919999999999L118.7675999999999 28.774900000000002L120.25749999999994 28.04329999999993L121.51250000000005 28.002839999999992L122.6697999999999 27.497569999999996L122.74540000000002 27.11510999999996L122.25790000000006 26.42762999999991L120.57040000000006 25.17581999999993L120.29860000000008 24.853129999999965L119.52009999999996 22.89738L117.41319999999996 21.530449999999973L117.0748000000001 20.355089999999905L116.69640000000004 20.168969999999945L115.8728000000001 18.775170000000003L115.35239999999999 15.458639999999946L116.60480000000007 14.377669999999966L117.39139999999998 12.884529999999927L119.8255999999999 12.236319999999978L120.70820000000003 10.857509999999934L121.75839999999994 10.171049999999923L122.44219999999996 6.896009999999933L123.74970000000008 4.8090799999999945L124.86950000000002 4.406859999999938L123.731 2.6258399999999256L123.26790000000005 0.5951000000000022L122.55420000000004 0.9158099999999649L120.45700000000011 0L119.80559999999991 0.4070099999999002L119.28430000000003 1.5109599999999546L117.65249999999992 3.4007199999999784L115.65190000000007 3.8104099999999335L115.10940000000005 5.3671099999999115L114.49340000000007 5.9267699999999195L112.44440000000009 6.179899999999975L111.42290000000003 6.902929999999969L110.65409999999997 6.634429999999952L110.15660000000003 7.774630000000002L108.97890000000007 7.962040000000002L108.0426 8.801369999999906L108.03649999999993 10.033699999999953L106.9025999999999 10.573170000000005L105.4360999999999 12.601109999999949L102.58940000000007 14.340929999999958L100.50980000000004 14.12399999999991L100.71550000000002 15.296479999999974L99.481 19.034269999999992L98.21720000000005 19.72294999999997L97.2005999999999 20.79248999999993L96.40409999999997 25.393599999999992L93.92139999999995 25.27297999999996L92.71199999999999 25.5556499999999L92.43640000000005 25.503379999999993L91.64859999999999 25.26035999999999L90.0444 25.503019999999992L88.1425999999999 24.80251999999996L87.00929999999994 25.254889999999932L86.21630000000005 25.028410000000008L85.06700000000001 25.09627999999998L83.59840000000008 24.547219999999925L82.44450000000006 24.745129999999904L81.6717000000001 23.319369999999935L80.49440000000004 22.99396999999999L79.92910000000006 22.391849999999977L78.00980000000004 22.747179999999958L77.45029999999997 22.17766999999992L77.36950000000002 21.39594999999997L76.55680000000007 19.766449999999963L75.5021999999999 19.230189999999993L74.14689999999996 17.83393000000001L73.42799999999988 16.438949999999977L73.0347999999999 16.371710000000007L72.20730000000003 17.231249999999932L71.11770000000001 17.71115999999995L70.91159999999991 17.877559999999903L72.0978 19.060839999999985L71.5779 21.46515999999997L71.35899999999992 22.54741999999999L70.66390000000001 22.77445L70.46229999999991 23.423819999999978L69.2826 23.068179999999984L67.98929999999996 22.073679999999968L67.6047000000001 21.342689999999948L65.7831000000001 22.32382999999993L64.94209999999998 23.160369999999944L62.50729999999999 23.389159999999947L62.44309999999996 23.492779999999925L63.07950000000005 25.294649999999933L63.60140000000001 25.838539999999966L64.96980000000008 29.518789999999967L63.45620000000008 32.43169999999998L61.97340000000008 33.149799999999914L60.59809999999993 30.567429999999945L59.647500000000036 29.189750000000004L58.3737000000001 28.105549999999994L57.44290000000001 26.266189999999938L56.45740000000001 26.880719999999997L55.93920000000003 25.965460000000007L55.884900000000016 23.600919999999974L53.85760000000005 22.86532999999997L53.17750000000001 22.728829999999903L52.459499999999935 21.979209999999966L51.9833000000001 21.98505L51.35660000000007 22.39280999999994L50.4239 21.767999999999915L49.684999999999945 21.76263999999992L49.19080000000008 22.728359999999952L49.62059999999997 23.334259999999972L48.96730000000002 25.619589999999903L48.71090000000004 25.917359999999917L47.43769999999995 25.092229999999972L45.41840000000002 26.595129999999926L44.76119999999992 27.098439999999982L44.29729999999995 28.698609999999917L41.98900000000003 29.588159999999903L40.7521999999999 30.122189999999932L40.23630000000003 30.576349999999934L38.70820000000003 31.57009999999991L37.67280000000005 34.2290999999999L37.3411000000001 35.74619999999993L36.36959999999999 36.9683L35.62580000000003 38.30039999999997L35.256399999999985 38.424800000000005L34.472299999999905 38.452499999999986L34.47689999999989 39.66429999999991L33.909000000000106 40.6964999999999L34.83680000000004 41.45309999999995L35.9387999999999 41.06689999999992L36.29379999999992 41.27279999999996L36.1572000000001 42.57409999999993L36.237300000000005 42.946199999999976L36.34590000000003 43.70119999999997L35.30410000000006 44.259399999999914L35.533300000000054 45.0412L35.345600000000104 46.608299999999986L36.134900000000016 46.78839999999991L36.26119999999992 47.17689999999993L35.91039999999998 47.90569999999991L36.01209999999992 48.98910000000001L35.196699999999964 48.858499999999935L32.46849999999995 46.29059999999993L32.038099999999986 45.581899999999905L32.07330000000002 43.93729999999994L29.82510000000002 42.785699999999906L28.727499999999964 43.15689999999995L28.70900000000006 43.94449999999995L27.612800000000107 45.65899999999999L27.930699999999888 47.23149999999998L28.310500000000047 47.6952L30.698000000000093 49.34529999999995L30.910699999999906 50.562799999999925L31.558199999999943 51.09069999999997L31.834800000000087 51.8605L32.47389999999996 53.315399999999954L35.18689999999992 54.164999999999964L34.9996000000001 55.7269L34.183500000000095 55.81309999999996L30.676699999999983 55.303499999999985L28.269600000000082 54.68029999999999L26.581500000000005 53.455799999999954L24.969299999999976 53.32459999999992L23.638200000000097 54.06989999999996L21.792200000000093 53.566100000000006L20.472299999999905 54.522899999999936L18.426500000000033 54.90789999999993L16.981500000000096 55.68569999999988L16.50960000000009 56.35919999999999L15.119500000000016 55.74699999999996L14.877999999999929 56.030200000000036L13.041699999999992 55.966999999999985L12.387500000000045 58.2251L12.551899999999932 58.59019999999998L15.688300000000027 59.05939999999998L15.337800000000016 61.11939999999993L12.496499999999969 60.82169999999985L11.302799999999934 60.58859999999993z">
      <title id="t15">Deuxième circonscription des Alpes-de-Haute-Provence</title>
      <desc id="d15">Cantons de : Banon, Barcelonnette, Forcalquier, Le Lauzet-Ubaye, Manosque Nord, Manosque Sud-Est, Manosque Sud-Ouest, La Motte, Noyers-sur-Jabron, Reillanne, Saint-Etienne, Seyne, Sisteron, Turriers</desc>
    </path></svg>