<svg xmlns="http://www.w3.org/2000/svg" version="1.1" xmlns:xlink="http://www.w3.org/1999/xlink" xmlns:svgjs="http://svgjs.dev/svgjs" viewBox="1124.2056 968.5347 124.86950000000002 117.4932"><path class="circo" id="004-01" d="M 1223.8754,1060.192 1224.5126,1061.2003 1226.0199,1061.7066 1226.2513,1063.7325 1226.6046,1063.9392 1224.6719,1064.3783 1223.6363,1066.9269 1226.3915,1067.6143 1227.2777,1068.4766 1227.2,1069.2772 1225.3676,1070.0909 1221.4441,1071.0995 1220.9276,1071.6897 1220.9579,1071.8343 1220.2403,1071.5085 1219.8628,1070.0089 1216.7516,1069.9066 1216.2642,1070.7511 1213.9601,1072.4838 1213.2813,1073.4086 1212.8943,1073.3902 1213.1806,1072.613 1212.8728,1071.4144 1212.6312,1071.0725 1211.0966,1069.7115 1208.279,1071.4413 1206.8112,1070.828 1205.6948,1071.3422 1204.1625,1070.7987 1203.8492,1071.4893 1202.2111,1071.7053 1201.9507,1074.9769 1199.4646,1078.2503 1199.0712,1077.6697 1198.4371,1077.2864 1196.9969,1078.0059 1194.8466,1076.8633 1193.4522,1075.383 1189.6253,1073.0592 1188.718,1070.8158 1188.0819,1070.3472 1185.9193,1070.552 1184.7706,1070.8083 1182.8761,1073.342 1182.5167,1074.5815 1181.2377,1076.212 1178.8146,1077.8769 1177.7962,1077.973 1176.2867,1076.9193 1174.9633,1078.8176 1174.5381,1078.893 1174.6682,1079.2667 1174.1713,1080.3413 1172.8473,1081.7191 1172.1463,1081.8114 1171.6699,1082.2905 1171.2455,1082.5694 1169.8051,1083.1573 1170.1595,1084.6994 1168.7103,1086.0279 1167.814,1085.1978 1167.2168,1083.6773 1165.8233,1082.8388 1165.5481,1080.5963 1164.7574,1080.5483 1163.941,1079.6385 1162.7709,1079.7681 1162.1066,1079.2984 1161.7262,1078.5989 1161.9099,1077.8028 1161.6141,1076.6124 1160.5657,1076.1262 1160.5438,1075.7174 1160.2887,1075.532 1158.7877,1076.0921 1158.6298,1078.1237 1157.3955,1079.2 1156.236,1079.5971 1154.6011,1079.5734 1154.031,1080.1628 1153.521,1078.2008 1152.567,1076.8952 1148.2764,1075.7535 1148.4553,1075.5012 1150.5163,1073.512 1151.9152,1070.0049 1152.0975,1069.2192 1154.3003,1066.43 1154.9782,1064.9922 1156.5633,1061.741 1157.2536,1059.9035 1157.4797,1057.5639 1156.2253,1056.1258 1155.4258,1054.3951 1155.3065,1053.3594 1154.377,1050.631 1153.198,1049.4598 1154.1969,1048.2746 1155.392,1049.3244 1155.9221,1047.8894 1157.3202,1047.1776 1157.431,1044.7507 1157.8267,1044.0541 1157.1118,1042.1538 1157.129,1042.0629 1157.4493,1041.3078 1158.8825,1040.5499 1160.4784,1040.3939 1160.9126,1039.7049 1160.8343,1038.8944 1161.3472,1038.2614 1160.5725,1037.3011 1157.6192,1035.8692 1156.6716,1033.6222 1158.6583,1033.1387 1159.3321,1032.7882 1159.9082,1032.2678 1160.248,1031.1519 1159.9698,1030.4236 1160.3223,1029.3112 1161.5413,1027.837 1163.0882,1027.8523 1162.9687,1028.2907 1165.8623,1025.928 1168.9142,1027.1356 1169.5057,1026.1027 1170.3029,1026.1793 1171.7709,1025.5455 1174.3361,1026.6118 1175.0042,1025.6335 1175.2425,1023.0757 1175.6089,1022.4461 1175.4883,1021.6936 1177.041,1020.6524 1179.3972,1019.2087 1180.9262,1020.4701 1181.1769,1019.2875 1183.1365,1019.526 1183.5655,1020.1921 1185.4876,1018.4879 1186.7627,1019.3718 1188.7118,1019.1379 1190.6624,1019.4895 1191.9302,1018.5068 1192.5763,1017.4959 1193.3617,1017.6946 1193.4193,1017.7184 1195.665,1018.6546 1196.4637,1018.4823 1197.7781,1017.4822 1200.3958,1017.2344 1201.3176,1016.5868 1203.6885,1013.4663 1206.5607,1011.2695 1207.3104,1011.5861 1207.9389,1012.6219 1209.0079,1013.2085 1212.1313,1012.8164 1213.2131,1008.6321 1216.5324,1010.398 1217.3993,1012.2836 1218.0787,1012.7492 1219.9525,1011.9054 1221.1196,1012.3606 1224.4226,1012.1001 1226.4638,1012.6025 1227.1255,1013.6138 1226.8301,1015.2548 1228.299,1015.9136 1228.7687,1017.031 1228.4731,1017.2897 1228.2315,1019.2091 1228.4782,1019.8986 1227.5608,1021.1047 1227.8408,1022.2411 1226.2349,1024.4335 1226.5902,1025.1423 1226.4694,1025.9291 1225.2796,1027.0234 1226.7848,1029.8079 1227.0407,1032.2253 1227.9872,1032.9464 1228.4609,1033.8148 1229.8367,1035.2956 1230.5993,1036.698 1231.1656,1037.5278 1230.4176,1039.4345 1230.2479,1041.8764 1232.4112,1043.8068 1233.9283,1044.4241 1234.4874,1045.9804 1238.1565,1048.1559 1237.8153,1048.9142 1238.7311,1049.5827 1238.9506,1051.0471 1239.0217,1052.2465 1241.0498,1052.443 1241.8356,1054.2774 1242.6614,1055.1797 1243.3364,1055.5906 1244.1206,1055.3329 1244.469,1055.5533 1245.8976,1057.5577 1246.8948,1058.2763 1246.9581,1059.0693 1246.5597,1059.179 1244.9526,1059.5047 1242.7353,1059.928 1241.9586,1059.8269 1241.2584,1058.8348 1239.1045,1057.0823 1237.9202,1056.9256 1237.609,1056.568 1234.9821,1057.525 1233.3025,1060.6856 1230.4514,1062.0651 1227.7682,1061.1548 1223.8754,1060.192 z">
      <title id="t14">Première circonscription des Alpes-de-Haute-Provence</title>
      <desc id="d14">Cantons de : Allos-Colmars, Annot, Barrême, Castellane, Digne Est, Digne Ouest, Entrevaux, La Javie, Les Mées, Mézel, Moustiers-Sainte-Marie, Peyruis, Riez, Saint-André-les-Alpes, Valensole, Volonne</desc>
    </path><path class="circo" id="004-02" d="M 1135.5084,1029.1233 1136.1595,1027.2629 1135.3926,1026.3374 1134.303,1025.8005 1133.6546,1024.3677 1133.0363,1024.2735 1132.3739,1024.7481 1131.1366,1024.6509 1130.8061,1024.9027 1129.8335,1026.7153 1131.2271,1028.1737 1131.2627,1028.5814 1130.3477,1029.3559 1128.725,1029.2337 1128.7235,1029.2817 1127.9441,1031.1743 1125.3042,1032.2765 1125.0089,1033.0102 1124.2585,1033.2519 1124.2056,1038.2967 1124.5857,1039.438 1125.8181,1039.44 1128.1525,1038.6756 1128.0054,1044.0497 1126.025,1047.647 1125.481,1050.0868 1125.0392,1051.9241 1125.4389,1053.3879 1126.8776,1053.3151 1128.186,1054.1374 1130.1105,1053.7142 1131.4493,1056.8687 1133.4194,1056.8487 1132.0364,1060.2521 1130.5444,1063.0498 1129.5746,1063.7622 1128.4968,1064.8819 1128.1681,1068.4583 1128.6906,1068.4816 1129.7845,1068.0907 1130.4578,1067.0827 1132.8092,1067.3372 1135.2148,1066.9046 1135.5286,1067.1676 1136.8499,1067.4582 1137.4898,1067.5752 1137.9452,1068.6821 1139.193,1069.6663 1140.0273,1071.7752 1140.9371,1072.3925 1141.8167,1072.9295 1142.5145,1072.7563 1142.7454,1075.6036 1145.4436,1077.4211 1146.2355,1078.8418 1148.2764,1075.7535 1148.4553,1075.5012 1150.5163,1073.512 1151.9152,1070.0049 1152.0975,1069.2192 1154.3003,1066.43 1154.9782,1064.9922 1156.5633,1061.741 1157.2536,1059.9035 1157.4797,1057.5639 1156.2253,1056.1258 1155.4258,1054.3951 1155.3065,1053.3594 1154.377,1050.631 1153.198,1049.4598 1154.1969,1048.2746 1155.392,1049.3244 1155.9221,1047.8894 1157.3202,1047.1776 1157.431,1044.7507 1157.8267,1044.0541 1157.1118,1042.1538 1157.129,1042.0629 1157.4493,1041.3078 1158.8825,1040.5499 1160.4784,1040.3939 1160.9126,1039.7049 1160.8343,1038.8944 1161.3472,1038.2614 1160.5725,1037.3011 1157.6192,1035.8692 1156.6716,1033.6222 1158.6583,1033.1387 1159.3321,1032.7882 1159.9082,1032.2678 1160.248,1031.1519 1159.9698,1030.4236 1160.3223,1029.3112 1161.5413,1027.837 1163.0882,1027.8523 1162.9687,1028.2907 1165.8623,1025.928 1168.9142,1027.1356 1169.5057,1026.1027 1170.3029,1026.1793 1171.7709,1025.5455 1174.3361,1026.6118 1175.0042,1025.6335 1175.2425,1023.0757 1175.6089,1022.4461 1175.4883,1021.6936 1177.041,1020.6524 1179.3972,1019.2087 1180.9262,1020.4701 1181.1769,1019.2875 1183.1365,1019.526 1183.5655,1020.1921 1185.4876,1018.4879 1186.7627,1019.3718 1188.7118,1019.1379 1190.6624,1019.4895 1191.9302,1018.5068 1192.5763,1017.4959 1193.3617,1017.6946 1193.4193,1017.7184 1195.665,1018.6546 1196.4637,1018.4823 1197.7781,1017.4822 1200.3958,1017.2344 1201.3176,1016.5868 1203.6885,1013.4663 1206.5607,1011.2695 1207.3104,1011.5861 1207.9389,1012.6219 1209.0079,1013.2085 1212.1313,1012.8164 1213.2131,1008.6321 1216.5324,1010.398 1217.3993,1012.2836 1218.0787,1012.7492 1219.9525,1011.9054 1221.1196,1012.3606 1224.4226,1012.1001 1226.4638,1012.6025 1227.1255,1013.6138 1226.8301,1015.2548 1228.299,1015.9136 1228.7687,1017.031 1229.557,1016.9465 1230.0572,1016.3072 1231.2029,1015.8816 1231.7269,1013.9608 1234.0434,1014.683 1233.7123,1012.7336 1234.5281,1011.3773 1234.5955,1009.4152 1235.2507,1008.9255 1235.7091,1007.8019 1236.8553,1007.3821 1238.3401,1005.971 1239.5023,1006.1981 1240.2166,1005.8658 1240.9457,1005.125 1242.2965,1004.1437 1242.2637,1003.7232 1243.02,1002.7639 1242.9732,997.3096 1244.4631,996.578 1245.7181,996.53754 1246.8754,996.03227 1246.951,995.64981 1246.4635,994.96233 1244.776,993.71052 1244.5042,993.38783 1243.7257,991.43208 1241.6188,990.06515 1241.2804,988.88979 1240.902,988.70367 1240.0784,987.30987 1239.558,983.99334 1240.8104,982.91237 1241.597,981.41923 1244.0312,980.77102 1244.9138,979.39221 1245.964,978.70575 1246.6478,975.43071 1247.9553,973.34378 1249.0751,972.94156 1247.9366,971.16054 1247.4735,969.1298 1246.7598,969.45051 1244.6626,968.5347 1244.0112,968.94171 1243.4899,970.04566 1241.8581,971.93542 1239.8575,972.34511 1239.315,973.90181 1238.699,974.46147 1236.65,974.7146 1235.6285,975.43763 1234.8597,975.16913 1234.3622,976.30933 1233.1845,976.49674 1232.2482,977.33607 1232.2421,978.5684 1231.1082,979.10787 1229.6417,981.13581 1226.795,982.87563 1224.7154,982.6587 1224.9211,983.83118 1223.6866,987.56897 1222.4228,988.25765 1221.4062,989.32719 1220.6097,993.9283 1218.127,993.80768 1216.9176,994.09035 1216.642,994.03808 1215.8542,993.79506 1214.25,994.03772 1212.3482,993.33722 1211.2149,993.78959 1210.4219,993.56311 1209.2726,993.63098 1207.804,993.08192 1206.6501,993.27983 1205.8773,991.85407 1204.7,991.52867 1204.1347,990.92655 1202.2154,991.28188 1201.6559,990.71237 1201.5751,989.93065 1200.7624,988.30115 1199.7078,987.76489 1198.3525,986.36863 1197.6336,984.97365 1197.2404,984.90641 1196.4129,985.76595 1195.3233,986.24586 1195.1172,986.41226 1196.3034,987.59554 1195.7835,989.99986 1195.5646,991.08212 1194.8695,991.30915 1194.6679,991.95852 1193.4882,991.60288 1192.1949,990.60838 1191.8103,989.87739 1189.9887,990.85853 1189.1477,991.69507 1186.7129,991.92386 1186.6487,992.02748 1187.2851,993.82935 1187.807,994.37324 1189.1754,998.05349 1187.6618,1000.9664 1186.179,1001.6845 1184.8037,999.10213 1183.8531,997.72445 1182.5793,996.64025 1181.6485,994.80089 1180.663,995.41542 1180.1448,994.50016 1180.0905,992.13562 1178.0632,991.40003 1177.3831,991.26353 1176.6651,990.51391 1176.1889,990.51975 1175.5622,990.92751 1174.6295,990.3027 1173.8906,990.29734 1173.3964,991.26306 1173.8262,991.86896 1173.1729,994.15429 1172.9165,994.45206 1171.6433,993.62693 1169.624,995.12983 1168.9668,995.63314 1168.5029,997.23331 1166.1946,998.12286 1164.9578,998.65689 1164.4419,999.11105 1162.9138,1000.1048 1161.8784,1002.7638 1161.5467,1004.2809 1160.5752,1005.503 1159.8314,1006.8351 1159.462,1006.9595 1158.6779,1006.9872 1158.6825,1008.199 1158.1146,1009.2312 1159.0424,1009.9878 1160.1444,1009.6016 1160.4994,1009.8075 1160.3628,1011.1088 1160.4429,1011.4809 1160.5515,1012.2359 1159.5097,1012.7941 1159.7389,1013.5759 1159.5512,1015.143 1160.3405,1015.3231 1160.4668,1015.7116 1160.116,1016.4404 1160.2177,1017.5238 1159.4023,1017.3932 1156.6741,1014.8253 1156.2437,1014.1166 1156.2789,1012.472 1154.0307,1011.3204 1152.9331,1011.6916 1152.9146,1012.4792 1151.8184,1014.1937 1152.1363,1015.7662 1152.5161,1016.2299 1154.9036,1017.88 1155.1163,1019.0975 1155.7638,1019.6254 1156.0404,1020.3952 1156.6795,1021.8501 1159.3925,1022.6997 1159.2052,1024.2616 1158.3891,1024.3478 1154.8823,1023.8382 1152.4752,1023.215 1150.7871,1021.9905 1149.1749,1021.8593 1147.8438,1022.6046 1145.9978,1022.1008 1144.6779,1023.0576 1142.6321,1023.4426 1141.1871,1024.2204 1140.7152,1024.8939 1139.3251,1024.2817 1139.0836,1024.5649 1137.2473,1024.5017 1136.5931,1026.7598 1136.7575,1027.1249 1139.8939,1027.5941 1139.5434,1029.6541 1136.7021,1029.3564 1135.5084,1029.1233 z">
      <title id="t15">Deuxième circonscription des Alpes-de-Haute-Provence</title>
      <desc id="d15">Cantons de : Banon, Barcelonnette, Forcalquier, Le Lauzet-Ubaye, Manosque Nord, Manosque Sud-Est, Manosque Sud-Ouest, La Motte, Noyers-sur-Jabron, Reillanne, Saint-Etienne, Seyne, Sisteron, Turriers</desc>
    </path></svg>