<svg xmlns="http://www.w3.org/2000/svg" version="1.1" xmlns:xlink="http://www.w3.org/1999/xlink" xmlns:svgjs="http://svgjs.dev/svgjs" viewBox="0 0 140.9004 112.40044"><path class="circo" id="id-005-01" d="M17.78729999999996 71.01551999999992L16.710600000000113 71.20404999999994L15.2029 69.95211999999992L15.988400000000183 67.16302999999994L16.04430000000002 66.96068000000002L16.61810000000014 66.54664000000002L17.003400000000056 65.09754999999996L17.673900000000003 64.78018999999995L17.772300000000087 63.78363999999999L18.584299999999985 62.08263999999997L19.35460000000012 61.99882000000002L19.64110000000005 60.869429999999966L19.0784000000001 60.286749999999984L18.82770000000005 59.09055000000001L18.982600000000048 57.08227999999997L19.818700000000035 56.58841999999993L20.477800000000116 57.08645999999999L22.534000000000106 57.214309999999955L26.104900000000043 58.396139999999946L28.11519999999996 57.08310999999992L28.50739999999996 55.95363999999995L29.982300000000123 56.70087000000001L31.63980000000015 56.817609999999945L32.52359999999999 54.24461999999994L33.565700000000106 53.63783000000001L34.9837 52.28205000000003L34.60120000000006 51.117830000000026L33.51459999999997 50.63610999999992L32.5621000000001 50.42430000000002L33.39930000000004 49.55773999999997L34.040300000000116 47.56859999999995L34.93290000000002 46.15825999999993L34.740099999999984 44.092840000000024L35.92430000000013 44.49027000000001L36.51610000000005 45.07033000000001L39.7011 45.57781L40.35419999999999 44.58602999999994L41.124700000000075 44.29622999999992L42.60110000000009 44.919149999999945L44.14110000000005 43.64571000000001L45.282900000000154 44.101459999999975L45.32339999999999 47.11032L46.511799999999994 49.40019999999993L48.74220000000014 50.94479000000001L47.44440000000009 52.988669999999956L48.5467000000001 55.58064999999999L49.524000000000115 55.55973999999992L50.54210000000012 56.158469999999966L51.49279999999999 55.56511999999998L52.26580000000013 55.66705999999999L53.412500000000136 57.74168999999995L53.21569999999997 59.316190000000006L54.202999999999975 60.02494999999999L56.55840000000012 59.71118999999999L57.21620000000007 59.233409999999935L57.14670000000001 60.492880000000014L57.62090000000012 61.16999999999996L58.40470000000005 61.47091999999998L59.62260000000015 61.20069000000001L60.8279 61.49815000000001L61.302400000000034 61.67093L62.706100000000106 61.45061999999996L63.72360000000003 62.12191999999993L64.16540000000009 63.26818000000003L63.84850000000006 63.52638999999999L65.72950000000014 64.35420999999997L71.04460000000017 63.38576999999998L72.1522 62.80675999999994L72.30510000000004 63.59609999999998L70.87120000000004 66.85091L70.92060000000015 67.65589999999997L70.72019999999998 68.85897L71.66270000000009 69.61482999999998L71.60310000000004 70.02069999999992L69.88750000000005 72.71623999999997L68.45950000000016 72.69084999999995L68.07310000000007 74.08519999999999L66.54079999999999 74.15789999999993L65.85980000000018 73.79518999999993L65.30359999999996 74.26661000000001L64.37130000000002 76.43101000000001L63.71100000000001 76.75760000000002L63.115800000000036 77.03521L62.70950000000016 77.03187000000003L60.63810000000012 78.90656999999999L59.958000000000084 78.77006999999992L59.24000000000001 78.02044999999998L58.763800000000174 78.02629000000002L58.137100000000146 78.43404999999996L57.20440000000008 77.80923999999993L56.46550000000002 77.80387999999994L55.971300000000156 78.76959999999997L56.40110000000004 79.37549999999999L55.7478000000001 81.66082999999992L55.49140000000011 81.95859999999993L54.218200000000024 81.13346999999999L52.198900000000094 82.63636999999994L51.54169999999999 83.13968L51.077800000000025 84.73984999999993L48.76950000000011 85.62939999999992L47.53269999999998 86.16342999999995L47.0168000000001 86.61758999999995L45.48870000000011 87.61133999999993L44.45330000000013 90.27033999999992L44.12160000000017 91.78743999999995L43.150100000000066 93.00954000000002L42.4063000000001 94.34163999999998L42.03690000000006 94.46604000000002L41.25279999999998 94.49374L41.25739999999996 95.70553999999993L40.68950000000018 96.73773999999992L41.617300000000114 97.49433999999997L42.719299999999976 97.10813999999993L43.074299999999994 97.31403999999998L42.93770000000018 98.61533999999995L43.01780000000008 98.98743999999999L43.1264000000001 99.74243999999999L42.08460000000014 100.30063999999993L42.31380000000013 101.08244000000002L42.12610000000018 102.64954L42.91540000000009 102.82963999999993L43.04169999999999 103.21813999999995L42.690900000000056 103.94693999999993L42.79259999999999 105.03034000000002L41.97720000000004 104.89973999999995L39.249000000000024 102.33183999999994L38.81860000000006 101.62313999999992L38.85380000000009 99.97853999999995L36.605600000000095 98.82693999999992L35.50800000000004 99.19813999999997L35.489500000000135 99.98573999999996L34.39330000000018 101.70024000000001L34.71119999999996 103.27274L35.09100000000012 103.73644000000002L37.47850000000017 105.38653999999997L37.69119999999998 106.60403999999994L38.33870000000002 107.13193999999999L38.61530000000016 107.90174000000002L39.25440000000003 109.35663999999997L41.9674 110.20623999999998L41.780100000000175 111.76814000000002L40.96400000000017 111.85433999999998L37.45720000000006 111.34474L35.05010000000016 110.72154L33.36200000000008 109.49703999999997L31.74980000000005 109.36583999999993L30.41870000000017 110.11113999999998L28.572700000000168 109.60734000000002L27.25279999999998 110.56413999999995L25.207000000000107 110.94913999999994L23.76200000000017 111.7269399999999L23.290100000000166 112.40044L21.90000000000009 111.78823999999997L22.681500000000142 111.52123999999992L22.74030000000016 111.10683999999992L21.95830000000001 109.18254000000002L22.333200000000033 107.13243999999997L21.61160000000018 105.35543999999993L21.748299999999972 104.14603999999997L22.802400000000034 102.93453999999997L21.863700000000108 101.76914L19.41319999999996 102.81323999999995L19.3134 102.00583999999992L18.20880000000011 100.84173999999996L18.240800000000036 100.03963999999996L18.85480000000007 99.65383999999995L18.30970000000002 98.80124L17.58960000000002 98.59424000000001L16.801600000000008 97.79133999999999L16.14370000000008 98.17913999999996L16.560100000000148 97.03224L18.004500000000007 95.59723999999994L18.090400000000045 95.19664L17.459800000000087 94.72173999999995L16.775700000000143 95.05643999999995L14.432600000000093 95.08283999999992L14.325400000000172 95.09953999999993L12.997700000000123 94.92863999999997L12.229600000000119 94.79984000000002L11.112600000000157 95.27184L10.334700000000112 95.05403999999999L10.073900000000094 93.90573999999992L8.72160000000008 93.05624L7.2146999999999935 93.64603999999997L6.336700000000064 94.49383999999998L5.114900000000034 92.84093999999993L4.289099999999962 92.80423999999994L3.772799999999961 90.91543999999999L2.169700000000148 90.85473999999999L1.4074000000000524 90.69193999999993L1.0992000000001099 89.95294000000001L2.0592000000001462 89.24694L1.9809999999999945 88.00833999999998L1.227600000000166 85.63094999999998L0 84.07109000000003L1.715800000000172 83.02527999999995L4.617799999999988 84.52765L5.364299999999957 84.29710999999998L5.750200000000177 83.57177999999999L6.393700000000081 83.66068999999993L6.753600000000006 82.68363L6.553100000000086 82.40064999999993L4.260400000000118 81.49627999999996L3.8623999999999796 80.82315999999992L3.554800000000114 78.85392999999999L4.1163000000001375 78.26643999999999L3.566300000000183 76.76307999999995L3.4436000000000604 76.47915L3.3530000000000655 75.33112999999992L4.458399999999983 75.11137999999994L4.805000000000064 75.7953L5.502799999999979 76.15755000000001L7.874000000000024 76.12334999999996L11.16229999999996 77.50604999999996L12.073200000000043 78.17304999999999L12.435000000000173 78.06035999999995L12.810100000000148 77.90203999999994L15.74590000000012 79.22161999999992L16.945000000000164 78.13373999999999L17.67470000000003 75.37641999999994L18.25780000000009 74.86133999999993L19.792599999999993 75.19205999999997L20.919700000000148 74.88553999999999L19.374500000000126 72.71826999999996L17.78729999999996 71.01551999999992z">
      <title id="t16">Première circonscription des Hautes-Alpes</title>
      <desc id="d16">Cantons de : Aspres-sur-Buëch, Barcillonnette, La Bâtie-Neuve, Gap Campagne, Gap Centre, Gap Nord-Est, Gap Nord-Ouest, Gap Sud-Est, Gap Sud-Ouest, Laragne-Monteglin, Orpierre, Ribiers, Rosans, Saint-Etienne-en-Dévoluy, Serres, Tallard, Veynes</desc>
    </path><path class="circo" id="id-005-02" d="M124.52710000000002 33.499810000000025L122.94900000000007 33.196230000000014L122.00510000000008 32.382549999999924L120.8157000000001 31.98705999999993L118.05780000000004 30.102610000000027L117.38049999999998 28.611080000000015L116.14620000000014 28.523489999999924L115.25240000000008 27.10577999999998L113.27590000000009 26.615299999999934L113.21479999999997 24.53514999999993L113.85630000000015 23.063660000000027L113.10400000000004 22.73115999999993L114.27020000000016 20.526470000000018L114.39890000000014 19.293819999999982L112.88550000000009 16.926510000000007L112.15679999999998 16.560299999999984L112.11519999999996 16.135779999999954L113.21690000000012 15.53922L113.07400000000007 14.701329999999984L112.62070000000017 13.50815L112.29539999999997 13.23470999999995L111.11460000000011 12.755869999999959L106.87689999999998 12.749500000000012L106.58210000000008 12.442959999999971L106.048 11.285229999999956L106.23750000000018 10.040689999999927L105.6835000000001 8.909760000000006L105.74469999999997 7.212999999999965L105.5824 6.818109999999933L104.46360000000004 6.224839999999972L104.20029999999997 4.990819999999985L102.73450000000003 2.9206199999999853L102.98800000000006 2.110580000000027L101.58910000000014 0.709699999999998L99.58400000000006 0.9218399999999747L98.44410000000016 0.4519000000000233L97.37120000000004 1.5692900000000236L96.8949 2.680970000000002L94.93029999999999 3.3576399999999467L94.13280000000009 3.169899999999984L92.8248000000001 2.149599999999964L90.38540000000012 4.383420000000001L90.98080000000004 6.823769999999968L90.84080000000017 8.48138999999992L87.9543000000001 8.966789999999946L86.40260000000012 7.688490000000002L85.16859999999997 7.9025799999999435L83.96080000000006 7.537820000000011L83.17410000000018 7.8096799999999575L80.45310000000018 6.8249700000000075L81.27960000000007 5.365589999999997L80.47210000000018 2.9946800000000167L77.84820000000013 0.470929999999953L77.73289999999997 0.8710099999999557L76.38599999999997 1.796579999999949L74.37239999999997 2.193809999999985L72.97379999999998 1.4353499999999713L71.58640000000014 0L68.92550000000006 2.4140899999999874L70.11740000000009 6.85181L68.14499999999998 7.403029999999944L67.25099999999998 10.179160000000024L67.17640000000006 11.858349999999973L66.68669999999997 12.508140000000026L66.70490000000018 13.769069999999942L67.6599000000001 14.582670000000007L71.21299999999997 15.720010000000002L74.8411000000001 14.819389999999999L76.48530000000005 14.800749999999994L76.86630000000014 15.551359999999931L76.3157000000001 16.682770000000005L76.29770000000008 17.526790000000005L77.33660000000009 19.309669999999983L76.96760000000017 20.90267999999992L77.4951000000001 21.542010000000005L79.88310000000001 22.285279999999943L79.54280000000017 24.35915L79.86380000000008 26.401070000000004L79.58460000000014 27.624180000000024L79.91520000000014 28.797399999999925L79.35820000000012 29.43204000000003L79.22839999999997 30.259869999999978L79.64440000000013 32.69526999999994L78.02560000000017 33.46924000000001L76.58979999999997 32.65750000000003L75.30840000000012 30.540430000000015L74.47620000000006 30.397449999999935L72.1413 30.984209999999962L70.59180000000015 32.96673999999996L68.91150000000016 33.033649999999966L66.13059999999996 32.19727999999998L65.47400000000016 32.72488999999996L63.859100000000126 32.986999999999966L62.86000000000013 32.28013999999996L60.52610000000004 31.773000000000025L59.055700000000115 33.80961000000002L57.710199999999986 34.684259999999995L54.240400000000136 37.37130000000002L52.00559999999996 34.70079999999996L50.815200000000004 35.037399999999934L49.728000000000065 36.82714999999996L47.668100000000095 37.03818000000001L45.146600000000035 38.723299999999995L46.12260000000015 39.69351999999992L47.54910000000018 40.345249999999965L47.76080000000002 41.51965999999993L45.45659999999998 42.70154000000002L45.282900000000154 44.101459999999975L45.32339999999999 47.11032L46.511799999999994 49.40019999999993L48.74220000000014 50.94479000000001L47.44440000000009 52.988669999999956L48.5467000000001 55.58064999999999L49.524000000000115 55.55973999999992L50.54210000000012 56.158469999999966L51.49279999999999 55.56511999999998L52.26580000000013 55.66705999999999L53.412500000000136 57.74168999999995L53.21569999999997 59.316190000000006L54.202999999999975 60.02494999999999L56.55840000000012 59.71118999999999L57.21620000000007 59.233409999999935L57.14670000000001 60.492880000000014L57.62090000000012 61.16999999999996L58.40470000000005 61.47091999999998L59.62260000000015 61.20069000000001L60.8279 61.49815000000001L61.302400000000034 61.67093L62.706100000000106 61.45061999999996L63.72360000000003 62.12191999999993L64.16540000000009 63.26818000000003L63.84850000000006 63.52638999999999L65.72950000000014 64.35420999999997L71.04460000000017 63.38576999999998L72.1522 62.80675999999994L72.30510000000004 63.59609999999998L70.87120000000004 66.85091L70.92060000000015 67.65589999999997L70.72019999999998 68.85897L71.66270000000009 69.61482999999998L71.60310000000004 70.02069999999992L69.88750000000005 72.71623999999997L68.45950000000016 72.69084999999995L68.07310000000007 74.08519999999999L66.54079999999999 74.15789999999993L65.85980000000018 73.79518999999993L65.30359999999996 74.26661000000001L64.37130000000002 76.43101000000001L63.71100000000001 76.75760000000002L63.115800000000036 77.03521L62.70950000000016 77.03187000000003L60.63810000000012 78.90656999999999L62.66540000000009 79.64215999999999L62.7197000000001 82.00670000000002L63.23790000000008 82.92196000000001L64.22340000000008 82.30742999999995L65.15420000000017 84.14679000000001L66.42800000000011 85.23099000000002L67.3786 86.60866999999996L68.75390000000016 89.19103999999993L70.23670000000016 88.47294L71.75030000000015 85.56002999999998L70.38190000000009 81.87977999999998L69.86000000000013 81.33588999999995L69.22360000000003 79.53401999999994L69.28780000000006 79.43039999999996L71.72260000000006 79.20160999999996L72.56360000000018 78.36506999999995L74.38520000000017 77.38392999999996L74.76980000000003 78.11491999999998L76.06310000000008 79.10942L77.24279999999999 79.46506L77.44440000000009 78.81569000000002L78.1395 78.58866L78.35840000000007 77.50639999999999L78.87830000000008 75.10208L77.69209999999998 73.91879999999992L77.89820000000009 73.75239999999997L78.9878000000001 73.27248999999995L79.81529999999998 72.41295000000002L80.20849999999996 72.48019L80.92740000000003 73.87517000000003L82.28269999999998 75.27143000000001L83.33730000000014 75.80768999999998L84.15000000000009 77.43718999999999L84.23080000000004 78.21890999999994L84.79030000000012 78.78841999999997L86.70960000000014 78.43308999999999L87.27490000000012 79.03521L88.45220000000018 79.36060999999995L89.22500000000014 80.78636999999992L90.37890000000016 80.58845999999994L91.84750000000008 81.13752L92.99680000000012 81.06965000000002L93.78980000000001 81.29612999999995L94.92309999999998 80.84375999999997L96.82490000000007 81.54426000000001L98.42910000000006 81.30160000000001L99.21690000000012 81.54462000000001L99.49250000000006 81.59688999999992L100.70190000000002 81.31421999999998L103.18460000000005 81.43484000000001L103.98109999999997 76.83372999999995L104.99770000000012 75.76418999999999L106.26150000000007 75.07551000000001L107.4960000000001 71.33771999999999L107.29030000000012 70.16523999999993L109.36990000000014 70.38216999999997L112.21659999999997 68.64234999999996L113.68309999999997 66.61441000000002L114.81700000000001 66.07493999999997L114.82310000000007 64.84260999999992L115.75940000000014 64.00328000000002L116.9371000000001 63.81587000000002L117.43460000000005 62.67566999999997L118.2034000000001 62.944169999999986L119.22490000000016 62.22113999999999L121.27390000000014 61.968009999999936L121.88990000000013 61.40834999999993L122.43240000000014 59.85164999999995L124.43299999999999 59.441959999999995L126.0648000000001 57.55219999999997L126.58609999999999 56.448249999999916L127.23750000000018 56.041240000000016L129.3347000000001 56.95704999999998L130.04840000000013 56.63634000000002L130.83300000000008 55.735419999999976L130.8927000000001 54.541420000000016L131.31060000000002 53.85240999999996L132.10390000000007 53.79323999999997L133.26970000000006 52.63022999999998L134.0503000000001 52.40149999999994L134.82709999999997 52.716909999999984L136.88610000000017 52.29603999999995L139.52890000000002 53.56908999999996L139.94880000000012 53.61343999999997L140.76800000000003 53.47046999999998L140.9004 53.06781999999998L140.76530000000002 52.23087999999996L139.94650000000001 49.828539999999975L138.06140000000005 48.92792999999995L137.05660000000012 47.57457999999997L136.34390000000008 45.163689999999974L136.4308000000001 43.07342999999992L135.4112 41.22086999999999L134.38880000000017 40.502629999999954L136.07860000000005 37.59190000000001L136.21450000000004 36.75943999999993L136.09519999999998 36.35365999999999L135.3415 35.99207999999999L134.72350000000006 34.43588L131.9145000000001 33.57917999999995L128.98130000000015 31.933459999999968L128.5603000000001 31.928659999999923L126.94520000000011 33.82938999999999L124.52710000000002 33.499810000000025z">
      <title id="t17">Deuxième circonscription des Hautes-Alpes</title>
      <desc id="d17">Cantons de : Aiguilles, L'Argentière-la-Bessée, Briançon Nord, Briançon Sud, Chorges, Embrun, La Grave, Guillestre, Le Monêtier-les-Bains, Orcières, Saint-Bonnet, Saint-Firmin, Savines-le-Lac</desc>
    </path></svg>