<svg xmlns="http://www.w3.org/2000/svg" version="1.1" xmlns:xlink="http://www.w3.org/1999/xlink" xmlns:svgjs="http://svgjs.dev/svgjs" viewBox="1117.4251 912.49346 140.9004 112.40044"><path class="circo" id="id-005-01" d="M 1135.2124,983.50898 1134.1357,983.69751 1132.628,982.44558 1133.4135,979.65649 1133.4694,979.45414 1134.0432,979.0401 1134.4285,977.59101 1135.099,977.27365 1135.1974,976.2771 1136.0094,974.5761 1136.7797,974.49228 1137.0662,973.36289 1136.5035,972.78021 1136.2528,971.58401 1136.4077,969.57574 1137.2438,969.08188 1137.9029,969.57992 1139.9591,969.70777 1143.53,970.8896 1145.5403,969.57657 1145.9325,968.4471 1147.4074,969.19433 1149.0649,969.31107 1149.9487,966.73808 1150.9908,966.13129 1152.4088,964.77551 1152.0263,963.61129 1150.9397,963.12957 1149.9872,962.91776 1150.8244,962.0512 1151.4654,960.06206 1152.358,958.65172 1152.1652,956.5863 1153.3494,956.98373 1153.9412,957.56379 1157.1262,958.07127 1157.7793,957.07949 1158.5498,956.78969 1160.0262,957.41261 1161.5662,956.13917 1162.708,956.59492 1162.7485,959.60378 1163.9369,961.89366 1166.1673,963.43825 1164.8695,965.48213 1165.9718,968.07411 1166.9491,968.0532 1167.9672,968.65193 1168.9179,968.05858 1169.6909,968.16052 1170.8376,970.23515 1170.6408,971.80965 1171.6281,972.51841 1173.9835,972.20465 1174.6413,971.72687 1174.5718,972.98634 1175.046,973.66346 1175.8298,973.96438 1177.0477,973.69415 1178.253,973.99161 1178.7275,974.16439 1180.1312,973.94408 1181.1487,974.61538 1181.5905,975.76164 1181.2736,976.01985 1183.1546,976.84767 1188.4697,975.87923 1189.5773,975.30022 1189.7302,976.08956 1188.2963,979.34437 1188.3457,980.14936 1188.1453,981.35243 1189.0878,982.10829 1189.0282,982.51416 1187.3126,985.2097 1185.8846,985.18431 1185.4982,986.57866 1183.9659,986.65136 1183.2849,986.28865 1182.7287,986.76007 1181.7964,988.92447 1181.1361,989.25106 1180.5409,989.52867 1180.1346,989.52533 1178.0632,991.40003 1177.3831,991.26353 1176.6651,990.51391 1176.1889,990.51975 1175.5622,990.92751 1174.6295,990.3027 1173.8906,990.29734 1173.3964,991.26306 1173.8262,991.86896 1173.1729,994.15429 1172.9165,994.45206 1171.6433,993.62693 1169.624,995.12983 1168.9668,995.63314 1168.5029,997.23331 1166.1946,998.12286 1164.9578,998.65689 1164.4419,999.11105 1162.9138,1000.1048 1161.8784,1002.7638 1161.5467,1004.2809 1160.5752,1005.503 1159.8314,1006.8351 1159.462,1006.9595 1158.6779,1006.9872 1158.6825,1008.199 1158.1146,1009.2312 1159.0424,1009.9878 1160.1444,1009.6016 1160.4994,1009.8075 1160.3628,1011.1088 1160.4429,1011.4809 1160.5515,1012.2359 1159.5097,1012.7941 1159.7389,1013.5759 1159.5512,1015.143 1160.3405,1015.3231 1160.4668,1015.7116 1160.116,1016.4404 1160.2177,1017.5238 1159.4023,1017.3932 1156.6741,1014.8253 1156.2437,1014.1166 1156.2789,1012.472 1154.0307,1011.3204 1152.9331,1011.6916 1152.9146,1012.4792 1151.8184,1014.1937 1152.1363,1015.7662 1152.5161,1016.2299 1154.9036,1017.88 1155.1163,1019.0975 1155.7638,1019.6254 1156.0404,1020.3952 1156.6795,1021.8501 1159.3925,1022.6997 1159.2052,1024.2616 1158.3891,1024.3478 1154.8823,1023.8382 1152.4752,1023.215 1150.7871,1021.9905 1149.1749,1021.8593 1147.8438,1022.6046 1145.9978,1022.1008 1144.6779,1023.0576 1142.6321,1023.4426 1141.1871,1024.2204 1140.7152,1024.8939 1139.3251,1024.2817 1140.1066,1024.0147 1140.1654,1023.6003 1139.3834,1021.676 1139.7583,1019.6259 1139.0367,1017.8489 1139.1734,1016.6395 1140.2275,1015.428 1139.2888,1014.2626 1136.8383,1015.3067 1136.7385,1014.4993 1135.6339,1013.3352 1135.6659,1012.5331 1136.2799,1012.1473 1135.7348,1011.2947 1135.0147,1011.0877 1134.2267,1010.2848 1133.5688,1010.6726 1133.9852,1009.5257 1135.4296,1008.0907 1135.5155,1007.6901 1134.8849,1007.2152 1134.2008,1007.5499 1131.8577,1007.5763 1131.7505,1007.593 1130.4228,1007.4221 1129.6547,1007.2933 1128.5377,1007.7653 1127.7598,1007.5475 1127.499,1006.3992 1126.1467,1005.5497 1124.6398,1006.1395 1123.7618,1006.9873 1122.54,1005.3344 1121.7142,1005.2977 1121.1979,1003.4089 1119.5948,1003.3482 1118.8325,1003.1854 1118.5243,1002.4464 1119.4843,1001.7404 1119.4061,1000.5018 1118.6527,998.12441 1117.4251,996.56455 1119.1409,995.51874 1122.0429,997.02111 1122.7894,996.79057 1123.1753,996.06524 1123.8188,996.15415 1124.1787,995.17709 1123.9782,994.89411 1121.6855,993.98974 1121.2875,993.31662 1120.9799,991.34739 1121.5414,990.7599 1120.9914,989.25654 1120.8687,988.97261 1120.7781,987.82459 1121.8835,987.60484 1122.2301,988.28876 1122.9279,988.65101 1125.2991,988.61681 1128.5874,989.99951 1129.4983,990.66651 1129.8601,990.55382 1130.2352,990.3955 1133.171,991.71508 1134.3701,990.6272 1135.0998,987.86988 1135.6829,987.3548 1137.2177,987.68552 1138.3448,987.379 1136.7996,985.21173 1135.2124,983.50898 z">
      <title id="t16">Première circonscription des Hautes-Alpes</title>
      <desc id="d16">Cantons de : Aspres-sur-Buëch, Barcillonnette, La Bâtie-Neuve, Gap Campagne, Gap Centre, Gap Nord-Est, Gap Nord-Ouest, Gap Sud-Est, Gap Sud-Ouest, Laragne-Monteglin, Orpierre, Ribiers, Rosans, Saint-Etienne-en-Dévoluy, Serres, Tallard, Veynes</desc>
    </path><path class="circo" id="id-005-02" d="M 1241.9522,945.99327 1240.3741,945.68969 1239.4302,944.87601 1238.2408,944.48052 1235.4829,942.59607 1234.8056,941.10454 1233.5713,941.01695 1232.6775,939.59924 1230.701,939.10876 1230.6399,937.02861 1231.2814,935.55712 1230.5291,935.22462 1231.6953,933.01993 1231.824,931.78728 1230.3106,929.41997 1229.5819,929.05376 1229.5403,928.62924 1230.642,928.03268 1230.4991,927.19479 1230.0458,926.00161 1229.7205,925.72817 1228.5397,925.24933 1224.302,925.24296 1224.0072,924.93642 1223.4731,923.77869 1223.6626,922.53415 1223.1086,921.40322 1223.1698,919.70646 1223.0075,919.31157 1221.8887,918.7183 1221.6254,917.48428 1220.1596,915.41408 1220.4131,914.60404 1219.0142,913.20316 1217.0091,913.4153 1215.8692,912.94536 1214.7963,914.06275 1214.32,915.17443 1212.3554,915.8511 1211.5579,915.66336 1210.2499,914.64306 1207.8105,916.87688 1208.4059,919.31723 1208.2659,920.97485 1205.3794,921.46025 1203.8277,920.18195 1202.5937,920.39604 1201.3859,920.03128 1200.5992,920.30314 1197.8782,919.31843 1198.7047,917.85905 1197.8972,915.48814 1195.2733,912.96439 1195.158,913.36447 1193.8111,914.29004 1191.7975,914.68727 1190.3989,913.92881 1189.0115,912.49346 1186.3506,914.90755 1187.5425,919.34527 1185.5701,919.89649 1184.6761,922.67262 1184.6015,924.35181 1184.1118,925.0016 1184.13,926.26253 1185.085,927.07613 1188.6381,928.21347 1192.2662,927.31285 1193.9104,927.29421 1194.2914,928.04482 1193.7408,929.17623 1193.7228,930.02025 1194.7617,931.80313 1194.3927,933.39614 1194.9202,934.03547 1197.3082,934.77874 1196.9679,936.85261 1197.2889,938.89453 1197.0097,940.11764 1197.3403,941.29086 1196.7833,941.9255 1196.6535,942.75333 1197.0695,945.18873 1195.4507,945.9627 1194.0149,945.15096 1192.7335,943.03389 1191.9013,942.89091 1189.5664,943.47767 1188.0169,945.4602 1186.3366,945.52711 1183.5557,944.69074 1182.8991,945.21835 1181.2842,945.48046 1180.2851,944.7736 1177.9512,944.26646 1176.4808,946.30307 1175.1353,947.17772 1171.6655,949.86476 1169.4307,947.19426 1168.2403,947.53086 1167.1531,949.32061 1165.0932,949.53164 1162.5717,951.21676 1163.5477,952.18698 1164.9742,952.83871 1165.1859,954.01312 1162.8817,955.195 1162.708,956.59492 1162.7485,959.60378 1163.9369,961.89366 1166.1673,963.43825 1164.8695,965.48213 1165.9718,968.07411 1166.9491,968.0532 1167.9672,968.65193 1168.9179,968.05858 1169.6909,968.16052 1170.8376,970.23515 1170.6408,971.80965 1171.6281,972.51841 1173.9835,972.20465 1174.6413,971.72687 1174.5718,972.98634 1175.046,973.66346 1175.8298,973.96438 1177.0477,973.69415 1178.253,973.99161 1178.7275,974.16439 1180.1312,973.94408 1181.1487,974.61538 1181.5905,975.76164 1181.2736,976.01985 1183.1546,976.84767 1188.4697,975.87923 1189.5773,975.30022 1189.7302,976.08956 1188.2963,979.34437 1188.3457,980.14936 1188.1453,981.35243 1189.0878,982.10829 1189.0282,982.51416 1187.3126,985.2097 1185.8846,985.18431 1185.4982,986.57866 1183.9659,986.65136 1183.2849,986.28865 1182.7287,986.76007 1181.7964,988.92447 1181.1361,989.25106 1180.5409,989.52867 1180.1346,989.52533 1178.0632,991.40003 1180.0905,992.13562 1180.1448,994.50016 1180.663,995.41542 1181.6485,994.80089 1182.5793,996.64025 1183.8531,997.72445 1184.8037,999.10213 1186.179,1001.6845 1187.6618,1000.9664 1189.1754,998.05349 1187.807,994.37324 1187.2851,993.82935 1186.6487,992.02748 1186.7129,991.92386 1189.1477,991.69507 1189.9887,990.85853 1191.8103,989.87739 1192.1949,990.60838 1193.4882,991.60288 1194.6679,991.95852 1194.8695,991.30915 1195.5646,991.08212 1195.7835,989.99986 1196.3034,987.59554 1195.1172,986.41226 1195.3233,986.24586 1196.4129,985.76595 1197.2404,984.90641 1197.6336,984.97365 1198.3525,986.36863 1199.7078,987.76489 1200.7624,988.30115 1201.5751,989.93065 1201.6559,990.71237 1202.2154,991.28188 1204.1347,990.92655 1204.7,991.52867 1205.8773,991.85407 1206.6501,993.27983 1207.804,993.08192 1209.2726,993.63098 1210.4219,993.56311 1211.2149,993.78959 1212.3482,993.33722 1214.25,994.03772 1215.8542,993.79506 1216.642,994.03808 1216.9176,994.09035 1218.127,993.80768 1220.6097,993.9283 1221.4062,989.32719 1222.4228,988.25765 1223.6866,987.56897 1224.9211,983.83118 1224.7154,982.6587 1226.795,982.87563 1229.6417,981.13581 1231.1082,979.10787 1232.2421,978.5684 1232.2482,977.33607 1233.1845,976.49674 1234.3622,976.30933 1234.8597,975.16913 1235.6285,975.43763 1236.65,974.7146 1238.699,974.46147 1239.315,973.90181 1239.8575,972.34511 1241.8581,971.93542 1243.4899,970.04566 1244.0112,968.94171 1244.6626,968.5347 1246.7598,969.45051 1247.4735,969.1298 1248.2581,968.22888 1248.3178,967.03488 1248.7357,966.34587 1249.529,966.2867 1250.6948,965.12369 1251.4754,964.89496 1252.2522,965.21037 1254.3112,964.7895 1256.954,966.06255 1257.3739,966.1069 1258.1931,965.96393 1258.3255,965.56128 1258.1904,964.72434 1257.3716,962.322 1255.4865,961.42139 1254.4817,960.06804 1253.769,957.65715 1253.8559,955.56689 1252.8363,953.71433 1251.8139,952.99609 1253.5037,950.08536 1253.6396,949.2529 1253.5203,948.84712 1252.7666,948.48554 1252.1486,946.92934 1249.3396,946.07264 1246.4064,944.42692 1245.9854,944.42212 1244.3703,946.32285 1241.9522,945.99327 z">
      <title id="t17">Deuxième circonscription des Hautes-Alpes</title>
      <desc id="d17">Cantons de : Aiguilles, L'Argentière-la-Bessée, Briançon Nord, Briançon Sud, Chorges, Embrun, La Grave, Guillestre, Le Monêtier-les-Bains, Orcières, Saint-Bonnet, Saint-Firmin, Savines-le-Lac</desc>
    </path></svg>