<svg xmlns="http://www.w3.org/2000/svg" version="1.1" xmlns:xlink="http://www.w3.org/1999/xlink" xmlns:svgjs="http://svgjs.dev/svgjs" viewBox="0 0 92.65129999999999 113.17052000000001"><path class="circo" id="id-006-01" d="M67.58809999999994 109.79315000000008L61.799999999999955 109.98076000000003L58.47869999999989 111.0444L58.27520000000004 103.56457L60.18859999999995 104.77971000000002L60.6896999999999 106.81696L63.990099999999984 104.77857000000006L65.15699999999993 103.74796000000003L67.24360000000001 104.15704000000005L66.60030000000006 102.71114L66.87789999999995 101.95982000000004L68.09220000000005 101.32191999999998L68.29759999999987 100.04613000000006L66.81449999999995 98.48229000000003L67.51049999999987 96.59117000000003L70.39329999999995 95.15147000000002L69.75769999999989 97.3628L71.74549999999999 100.0498L76.0030999999999 100.17534999999998L76.61940000000004 100.34717L74.62519999999995 101.23023L71.48710000000005 105.57023000000004L71.30289999999991 107.75729999999999L73.09950000000003 110.48606000000007L72.4559999999999 113.17052000000001L69.55140000000006 112.80263000000002L67.58809999999994 109.79315000000008z">
      <title id="t18">Première circonscription des Alpes-Maritimes</title>
      <desc id="d18">Cantons de : Nice I, Nice II, Nice III, Nice IV, Nice VIII, Nice XII</desc>
    </path><path class="circo" id="id-006-03" d="M52.21769999999992 93.29618000000005L52.54690000000005 97.71546000000001L53.90219999999999 97.55324000000007L54.38969999999995 98.58724000000007L55.744500000000016 101.73214000000007L58.27520000000004 103.56457L60.18859999999995 104.77971000000002L60.6896999999999 106.81696L63.990099999999984 104.77857000000006L65.15699999999993 103.74796000000003L67.24360000000001 104.15704000000005L66.60030000000006 102.71114L66.87789999999995 101.95982000000004L68.09220000000005 101.32191999999998L68.29759999999987 100.04613000000006L66.81449999999995 98.48229000000003L67.51049999999987 96.59117000000003L70.39329999999995 95.15147000000002L69.75769999999989 97.3628L71.74549999999999 100.0498L76.0030999999999 100.17534999999998L82.02039999999988 95.43781999999999L87.60429999999997 94.77510000000007L89.16110000000003 93.25837000000001L91.58210000000008 91.47842000000003L92.65129999999999 88.86308000000008L91.452 87.47049000000004L86.88799999999992 87.98536000000001L85.16249999999991 89.53849000000002L83.30610000000001 90.76407000000006L76.60889999999995 91.80963000000008L75.50260000000003 91.59606000000008L75.33310000000006 88.31067000000007L73.44699999999989 88.38966000000005L72.72430000000008 90.21702000000005L70.57639999999992 89.52805999999998L70.09989999999993 88.47261000000003L70.17689999999993 89.68887000000007L66.2476999999999 89.79467L63.67630000000008 86.33321999999998L62.61809999999991 86.59927000000005L61.9864 85.70887000000005L60.320199999999886 87.24365L60.55040000000008 89.50633000000005L58.68399999999997 90.83825999999999L57.203199999999924 90.93194000000005L52.21769999999992 93.29618000000005z">
      <title id="t20">Troisième circonscription des Alpes-Maritimes</title>
      <desc id="d20">Cantons de : Nice V, Nice VI, Nice VII, Nice XI, Nice XIII</desc>
    </path><path class="circo" id="id-006-02" d="M18.847099999999955 70.55900000000008L19.71609999999987 72.28219999999999L20.052400000000034 74.13260000000002L19.55320000000006 75.20479999999998L21.144199999999955 76.52520000000004L22.370499999999993 76.64210000000003L23.245499999999993 78.38040000000001L25.295599999999922 78.71360000000004L27.551500000000033 79.76210000000003L28.33030000000008 80.60410000000002L27.5942 81.5675L27.873299999999972 82.75560000000007L28.1404 83.27160000000003L27.699699999999893 83.7876L26.759199999999964 83.76010000000008L25.88449999999989 83.38229999999999L24.81490000000008 83.61500000000001L25.161599999999908 84.06420000000003L24.83719999999994 84.23620000000005L24.356399999999894 83.97829999999999L23.761799999999994 84.42849999999999L23.36760000000004 85.0598L21.890300000000025 84.46720000000005L22.018499999999904 86.68970000000002L22.649099999999862 87.15570000000002L21.967200000000048 88.61009999999999L21.052799999999934 89.1413L19.442199999999957 89.29880000000003L18.767100000000028 88.923L18.455600000000004 89.1531L17.223600000000033 88.28480000000002L16.970000000000027 87.6463L16.02909999999997 87.1816L15.09199999999987 86.41669999999999L13.925799999999981 86.5761L13.065699999999879 84.81209999999999L11.81639999999993 82.90530000000001L11.048399999999901 82.79870000000005L10.633299999999963 82.16590000000008L10.833499999999958 80.15240000000006L11.142299999999977 79.38240000000008L11.786800000000085 78.87959999999998L11.063599999999951 75.80150000000003L10.304899999999861 74.88060000000007L10.040700000000015 73.70429999999999L6.495200000000068 73.41190000000006L6.424399999999878 72.62520000000006L5.836599999999862 72.07080000000008L4.346000000000004 71.46000000000004L3.9459999999999127 71.38290000000006L1.817700000000059 72.42640000000006L1.4954000000000178 70.78090000000009L0.4938999999999396 70.1354L0.764699999999948 69.07159999999999L0.14979999999991378 68.63170000000002L0.03029999999989741 67.69060000000002L0 67.54600000000005L0.5164999999999509 66.95580000000007L4.440000000000055 65.94720000000007L6.2724000000000615 65.13350000000003L6.350099999999884 64.3329L5.463899999999967 63.47059999999999L2.708699999999908 62.78320000000008L3.7443000000000666 60.2346L5.676999999999907 59.79550000000006L5.323699999999917 59.58879999999999L5.092300000000023 57.56290000000001L3.5850000000000364 57.0566L2.9477999999999156 56.04830000000004L6.840599999999995 57.011100000000056L9.523799999999937 57.92140000000006L12.374900000000025 56.541900000000055L14.054499999999962 53.38130000000001L16.68139999999994 52.42430000000002L16.99260000000004 52.781900000000064L18.176899999999932 52.938600000000065L20.330799999999954 54.691100000000006L21.03099999999995 55.683200000000056L21.807700000000068 55.78430000000003L24.024999999999864 55.36099999999999L25.632100000000037 55.03530000000001L26.030500000000075 54.92560000000003L25.967200000000048 54.132600000000025L24.970000000000027 53.41399999999999L23.541400000000067 51.40960000000007L23.192999999999984 51.18920000000003L22.40879999999993 51.44690000000003L21.733799999999974 51.03600000000006L20.9079999999999 50.133699999999976L20.12220000000002 48.29930000000002L18.094100000000026 48.1028L18.02299999999991 46.90340000000003L17.803499999999985 45.43900000000008L16.887699999999995 44.770500000000084L17.228900000000067 44.01220000000001L13.559799999999996 41.836700000000064L13.000700000000052 40.280399999999986L11.483600000000024 39.663099999999986L9.320299999999861 37.73270000000002L9.490000000000009 35.29079999999999L10.238000000000056 33.38409999999999L9.671699999999873 32.55430000000001L8.90910000000008 31.15190000000007L7.533300000000054 29.671100000000024L7.059600000000046 28.802700000000073L6.113100000000031 28.08159999999998L5.857199999999921 25.66420000000005L4.351999999999862 22.87970000000007L5.5417999999999665 21.78539999999998L5.662599999999884 20.99860000000001L5.307299999999941 20.289800000000014L6.913199999999961 18.097399999999993L6.633199999999988 16.961000000000013L7.550600000000031 15.75490000000002L7.303899999999885 15.065400000000068L7.545499999999947 13.146000000000072L7.841099999999869 12.887299999999982L8.629400000000032 12.802800000000047L9.129599999999982 12.163499999999999L10.275300000000016 11.737900000000081L10.799299999999903 9.817099999999982L13.115800000000036 10.539300000000026L13.96699999999987 12.306800000000067L13.772400000000061 13.475900000000024L14.562099999999873 14.337400000000002L14.399200000000064 15.133500000000026L14.747000000000071 16.296300000000087L15.149099999999862 16.994500000000016L15.884399999999914 17.29430000000002L16.312999999999874 18.40840000000003L17.394199999999955 19.633199999999988L19.97589999999991 20.87620000000004L20.529600000000073 22.419200000000046L20.56140000000005 22.42070000000001L21.758399999999938 20.84559999999999L22.823899999999867 20.286299999999983L23.623000000000047 20.383800000000065L24.869500000000016 20.536699999999996L26.72980000000007 19.590400000000045L27.70659999999998 21.902199999999993L27.743999999999915 23.578700000000026L28.826099999999997 24.069000000000074L29.216699999999946 23.941400000000044L30.29230000000007 25.16930000000002L30.564799999999877 27.191100000000006L31.2349999999999 27.671300000000087L31.6259 28.835199999999986L33.22530000000006 30.109800000000064L32.73109999999997 31.654700000000048L32.760099999999966 33.69960000000003L33.286800000000085 34.81410000000005L34.98849999999993 35.63170000000002L35.52639999999997 36.22550000000001L35.34860000000003 37.35250000000008L35.93830000000003 38.34310000000005L35.41470000000004 40.17100000000005L36.89799999999991 42.45670000000007L37.71810000000005 43.51080000000002L38.850099999999884 43.78269999999998L39.41249999999991 42.28710000000001L42.074100000000044 41.170600000000036L42.104499999999916 41.19780000000003L42.516399999999976 42.294200000000046L42.50450000000001 44.656400000000076L42.9982 46.08770000000004L43.33899999999994 46.14390000000003L43.81169999999997 47.060800000000086L45.73090000000002 46.48649999999998L46.549600000000055 44.583000000000084L47.627899999999954 43.997400000000084L48.45959999999991 42.582899999999995L50.07199999999989 42.318899999999985L50.46090000000004 43.04600000000005L51.20609999999988 47.938499999999976L49.927400000000034 48.92640000000006L49.16640000000007 50.77080000000001L46.877899999999954 51.67070000000001L46.97270000000003 52.64460000000008L46.64969999999994 53.220800000000054L47.47000000000003 53.9588L46.915700000000015 55.28480000000002L47.08590000000004 57.15070000000003L47.710000000000036 58.183899999999994L47.612100000000055 59.37200000000007L47.58479999999986 60.56560000000002L47.500499999999874 61.177099999999996L47.09739999999988 62.45440000000008L46.627500000000055 63.51679999999999L46.600200000000086 64.65340000000003L47.37909999999988 65.94529999999997L48.039800000000014 66.4094L48.43859999999995 66.90500000000009L49.256200000000035 68.17330000000004L48.96100000000001 69.62800000000004L48.26060000000007 70.53560000000004L47.90969999999993 71.0344L46.67669999999998 72.66539999999998L46.47070000000008 73.30540000000008L46.61020000000008 75.96080000000006L45.442800000000034 76.25060000000008L44.87580000000003 78.9805L44.16129999999998 78.83680000000004L43.731399999999894 78.2378L43.001199999999926 78.14949999999999L43.11189999999988 79.14160000000004L42.397199999999884 78.79989999999998L41.993999999999915 77.68540000000007L41.17409999999995 76.82659999999998L40.39190000000008 76.76010000000008L39.06939999999986 77.6277L38.37130000000002 77.87850000000003L37.70159999999987 77.53750000000002L37.56169999999997 75.19170000000008L36.49829999999997 73.54240000000004L35.75479999999993 73.29190000000006L35.35500000000002 72.6617L35.65910000000008 72.12819999999999L34.25070000000005 70.69839999999999L32.48530000000005 69.70960000000002L30.589999999999918 70.19630000000006L29.90910000000008 69.78309999999999L29.54410000000007 69.87390000000005L30.124499999999898 71.58950000000004L29.751700000000028 71.75290000000007L29.079400000000078 73.14800000000002L27.48569999999995 72.92870000000005L27.22239999999988 72.61760000000004L18.847099999999955 70.55900000000008z">
      <title id="t19">Deuxième circonscription des Alpes-Maritimes</title>
      <desc id="d19">Cantons de : Carros, Coursegoules, Guillaumes, Grasse-Nord, Puget-Théniers, Roquesteron, Saint-Auban, Saint-Vallier-de-Thiey, Vence, Villars-sur-Var</desc>
    </path><path class="circo" id="id-006-04" d="M66.0761 74.08900000000006L66.02880000000005 74.4257L65.74829999999997 74.64420000000007L66.2663 75.13020000000006L65.36210000000005 76.03980000000001L64.12789999999995 75.84030000000007L63.51610000000005 75.50099999999998L62.44180000000006 75.96159999999998L61.346700000000055 75.6517L60.543699999999944 76.5018L60.069299999999885 76.56240000000003L58.9366 77.98350000000005L59.36400000000003 79.22130000000004L60.58909999999992 79.80910000000006L59.470800000000054 79.96980000000008L59.41669999999999 80.95710000000008L58.59609999999998 81.08450000000005L58.19489999999996 79.4049L58.60979999999995 78.63200000000006L58.192999999999984 77.9692L57.7675999999999 77.44450000000006L57.50729999999999 77.70680000000004L57.13189999999986 78.33680000000004L57.18159999999989 79.05360000000007L56.544799999999896 78.08640000000003L56.610099999999875 77.31119999999999L57.72239999999988 75.77290000000005L58.42920000000004 75.45990000000006L58.21080000000006 75.399L60.343599999999924 73.71980000000008L62.322799999999916 73.48490000000004L62.87459999999987 72.94730000000004L63.73270000000002 72.31640000000004L64.11169999999993 71.38940000000002L63.6866 70.89580000000001L62.068899999999985 71.07830000000001L61.45730000000003 71.62880000000007L60.7992999999999 72.06320000000005L58.425500000000056 72.43380000000002L58.03340000000003 72.35810000000004L57.97329999999988 71.19360000000006L57.30479999999989 71.22160000000008L57.04860000000008 71.86930000000007L56.28729999999996 71.62509999999997L56.118400000000065 71.25099999999998L56.24160000000006 69.66250000000002L55.77209999999991 69.02150000000006L54.0945999999999 64.50869999999998L53.667199999999866 63.78269999999998L54.374700000000075 63.476L54.07359999999994 60.79920000000004L54.114900000000034 57.97440000000006L55.031400000000076 57.22180000000003L55.343399999999974 56.48739999999998L56.83919999999989 56.15250000000003L57.2829999999999 55.12220000000002L57.66789999999992 55.019000000000005L57.12570000000005 54.468200000000024L57.365299999999934 52.598100000000045L57.018499999999904 52.42700000000002L55.847999999999956 50.440900000000056L55.8454999999999 49.70550000000003L57.74350000000004 49.781799999999976L58.60590000000002 48.9588L59.4052999999999 48.884700000000066L62.372100000000046 49.92790000000002L62.32050000000004 49.17380000000003L62.91429999999991 48.19479999999999L63.23880000000008 46.681100000000015L64.19190000000003 45.94659999999999L64.29469999999992 45.14420000000007L65.0438999999999 44.189500000000066L65.94209999999998 43.420799999999986L67.09789999999998 43.13639999999998L67.78369999999995 42.67870000000005L66.92049999999995 40.97239999999999L65.9819 40.30810000000008L66.8605 38.94870000000003L66.62509999999997 37.76400000000001L66.89750000000004 36.994800000000055L67.23329999999987 36.74720000000002L67.49970000000008 32.63080000000002L67.22919999999999 29.444400000000087L67.18830000000003 28.615999999999985L67.72550000000001 27.494500000000016L70.21900000000005 27.726200000000063L73.52549999999997 25.969299999999976L75.10339999999997 26.40269999999998L76.43180000000007 25.48599999999999L78.09390000000008 25.398500000000013L79.1413 24.713799999999992L83.30240000000003 25.075300000000084L83.9351999999999 24.55709999999999L84.30379999999991 23.36959999999999L84.76070000000004 22.256399999999985L85.4233999999999 21.796500000000037L88.73260000000005 21.971300000000042L88.9867999999999 22.677900000000022L88.01420000000007 24.47040000000004L88.57040000000006 25.578100000000063L88.45409999999993 25.979000000000042L87.6887999999999 27.351800000000026L88.27269999999999 28.851300000000037L89.54469999999992 29.93590000000006L90.32410000000004 31.42750000000001L91.55489999999986 32.54690000000005L91.80999999999995 33.33249999999998L91.53859999999986 35.40820000000008L90.57809999999995 37.70940000000007L87.31690000000003 39.41470000000004L87.28070000000002 41.07310000000007L87.79119999999989 43.077600000000075L86.42239999999993 45.62940000000003L82.95479999999998 47.93560000000002L81.29209999999989 48.03520000000003L79.52980000000002 49.033000000000015L79.44260000000008 50.947700000000054L78.42769999999996 52.66120000000001L78.65319999999997 54.65340000000003L74.65879999999993 56.50049999999999L74.20789999999988 57.10820000000001L73.34519999999998 57.86120000000005L73.15339999999992 60.396400000000085L74.08659999999986 61.69069999999999L75.0302999999999 66.09350000000006L75.97409999999991 68.27160000000003L74.48749999999995 68.7115L74.09359999999992 69.4253L72.44200000000001 70.50740000000008L72.05060000000003 71.22230000000002L72.2684999999999 72.00260000000003L71.97370000000001 72.28179999999998L69.88349999999991 71.18820000000005L68.27389999999991 72.38990000000001L68.11349999999993 72.0829L66.0761 74.08900000000006z">
      <title id="t21">Quatrième circonscription des Alpes-Maritimes</title>
      <desc id="d21">Cantons de : Beausoleil, Breil-sur-Roya, Contes, L'Escarène, Menton Est, Menton Ouest, Sospel, Tende, Villefranche-sur-Mer</desc>
    </path><path class="circo" id="id-006-05" d="M52.652000000000044 70.81540000000007L52.733600000000024 71.61739999999998L52.072099999999864 72.08950000000004L51.547199999999975 72.12270000000001L49.78009999999995 72.96070000000009L49.896799999999985 74.52710000000002L50.3771999999999 74.46960000000001L51.03019999999992 75.95080000000007L51.927200000000084 76.60030000000006L51.99929999999995 79.25150000000008L50.78309999999988 80.34040000000005L50.14740000000006 82.71960000000001L49.0021999999999 84.37310000000002L47.91039999999998 84.51260000000002L48.11850000000004 83.8315L47.87429999999995 83.46480000000008L47.91210000000001 82.67180000000008L46.90460000000007 79.18050000000005L46.61020000000008 75.96080000000006L46.47070000000008 73.30540000000008L46.67669999999998 72.66539999999998L47.90969999999993 71.0344L48.26060000000007 70.53560000000004L48.96100000000001 69.62800000000004L49.256200000000035 68.17330000000004L48.43859999999995 66.90500000000009L48.039800000000014 66.4094L47.37909999999988 65.94529999999997L46.600200000000086 64.65340000000003L46.627500000000055 63.51679999999999L47.09739999999988 62.45440000000008L47.500499999999874 61.177099999999996L47.58479999999986 60.56560000000002L47.612100000000055 59.37200000000007L47.710000000000036 58.183899999999994L47.08590000000004 57.15070000000003L46.915700000000015 55.28480000000002L47.47000000000003 53.9588L46.64969999999994 53.220800000000054L46.97270000000003 52.64460000000008L46.877899999999954 51.67070000000001L49.16640000000007 50.77080000000001L49.927400000000034 48.92640000000006L51.20609999999988 47.938499999999976L50.46090000000004 43.04600000000005L50.07199999999989 42.318899999999985L48.45959999999991 42.582899999999995L47.627899999999954 43.997400000000084L46.549600000000055 44.583000000000084L45.73090000000002 46.48649999999998L43.81169999999997 47.060800000000086L43.33899999999994 46.14390000000003L42.9982 46.08770000000004L42.50450000000001 44.656400000000076L42.516399999999976 42.294200000000046L42.104499999999916 41.19780000000003L42.074100000000044 41.170600000000036L39.41249999999991 42.28710000000001L38.850099999999884 43.78269999999998L37.71810000000005 43.51080000000002L36.89799999999991 42.45670000000007L35.41470000000004 40.17100000000005L35.93830000000003 38.34310000000005L35.34860000000003 37.35250000000008L35.52639999999997 36.22550000000001L34.98849999999993 35.63170000000002L33.286800000000085 34.81410000000005L32.760099999999966 33.69960000000003L32.73109999999997 31.654700000000048L33.22530000000006 30.109800000000064L31.6259 28.835199999999986L31.2349999999999 27.671300000000087L30.564799999999877 27.191100000000006L30.29230000000007 25.16930000000002L29.216699999999946 23.941400000000044L28.826099999999997 24.069000000000074L27.743999999999915 23.578700000000026L27.70659999999998 21.902199999999993L26.72980000000007 19.590400000000045L24.869500000000016 20.536699999999996L23.623000000000047 20.383800000000065L22.823899999999867 20.286299999999983L21.758399999999938 20.84559999999999L20.56140000000005 22.42070000000001L20.529600000000073 22.419200000000046L19.97589999999991 20.87620000000004L17.394199999999955 19.633199999999988L16.312999999999874 18.40840000000003L15.884399999999914 17.29430000000002L15.149099999999862 16.994500000000016L14.747000000000071 16.296300000000087L14.399200000000064 15.133500000000026L14.562099999999873 14.337400000000002L13.772400000000061 13.475900000000024L13.96699999999987 12.306800000000067L13.115800000000036 10.539300000000026L12.78469999999993 8.589900000000057L13.600500000000011 7.233600000000024L13.667899999999918 5.27150000000006L14.323100000000068 4.781799999999976L14.781500000000051 3.658200000000079L15.927699999999959 3.2384000000000697L17.41249999999991 1.8273000000000366L18.574699999999893 2.054399999999987L19.288999999999987 1.7221000000000686L20.018100000000004 0.9813000000000329L21.36889999999994 0L22.985400000000027 0.41449999999997544L24.035900000000083 1.0871000000000777L24.91619999999989 3.400800000000004L27.30029999999988 5.73599999999999L27.61239999999998 7.749300000000062L28.70159999999987 8.915200000000027L30.24369999999999 9.466300000000047L30.588199999999915 10.225400000000036L30.916600000000017 13.540100000000052L31.53359999999998 14.635499999999979L32.57490000000007 15.30340000000001L32.96710000000007 15.15560000000005L34.24289999999996 16.171500000000037L37.43529999999987 15.355800000000045L39.072599999999966 16.601L41.006000000000085 17.383000000000038L42.999000000000024 18.912300000000073L44.561500000000024 18.443399999999997L46.01019999999994 19.227700000000027L46.835399999999936 19.091000000000008L47.39490000000001 20.652199999999993L48.162599999999884 20.932500000000005L49.74329999999986 22.779899999999998L51.23419999999987 22.290700000000015L52.18049999999994 24.09570000000008L53.274599999999964 25.281600000000026L55.106199999999944 25.98440000000005L55.840599999999995 25.647500000000036L59.91820000000007 25.626899999999978L61.45170000000007 28.949600000000032L62.279199999999946 28.94760000000008L63.73919999999998 28.166500000000042L64.51029999999992 28.149700000000053L67.22919999999999 29.444400000000087L67.49970000000008 32.63080000000002L67.23329999999987 36.74720000000002L66.89750000000004 36.994800000000055L66.62509999999997 37.76400000000001L66.8605 38.94870000000003L65.9819 40.30810000000008L66.92049999999995 40.97239999999999L67.78369999999995 42.67870000000005L67.09789999999998 43.13639999999998L65.94209999999998 43.420799999999986L65.0438999999999 44.189500000000066L64.29469999999992 45.14420000000007L64.19190000000003 45.94659999999999L63.23880000000008 46.681100000000015L62.91429999999991 48.19479999999999L62.32050000000004 49.17380000000003L62.372100000000046 49.92790000000002L59.4052999999999 48.884700000000066L58.60590000000002 48.9588L57.74350000000004 49.781799999999976L55.8454999999999 49.70550000000003L55.847999999999956 50.440900000000056L57.018499999999904 52.42700000000002L57.365299999999934 52.598100000000045L57.12570000000005 54.468200000000024L57.66789999999992 55.019000000000005L57.2829999999999 55.12220000000002L56.83919999999989 56.15250000000003L55.343399999999974 56.48739999999998L55.031400000000076 57.22180000000003L54.114900000000034 57.97440000000006L54.07359999999994 60.79920000000004L54.374700000000075 63.476L53.667199999999866 63.78269999999998L54.0945999999999 64.50869999999998L55.77209999999991 69.02150000000006L56.24160000000006 69.66250000000002L56.118400000000065 71.25099999999998L56.14570000000003 71.68209999999999L54.75299999999993 71.71960000000001L53.84159999999997 70.49270000000001L53.466499999999996 70.58699999999999L53.24260000000004 70.27140000000009L52.652000000000044 70.81540000000007z">
      <title id="t22">Cinquième circonscription des Alpes-Maritimes</title>
      <desc id="d22">Cantons de : Lantosque, Levens, Nice IX, Nice X, Nice XIV, Roquebillière, Saint-Etienne-de-Tinée, Saint-Martin-Vésubie, Saint-Sauveur-sur-Tinée</desc>
    </path><path class="circo" id="id-006-06" d="M43.001199999999926 78.14949999999999L43.731399999999894 78.2378L44.16129999999998 78.83680000000004L44.87580000000003 78.9805L45.442800000000034 76.25060000000008L46.61020000000008 75.96080000000006L46.90460000000007 79.18050000000005L47.91210000000001 82.67180000000008L47.87429999999995 83.46480000000008L47.60509999999999 83.19000000000005L46.08850000000007 83.32209999999998L44.559799999999996 83.46540000000005L43.30479999999989 84.99000000000001L41.99520000000007 87.81500000000005L40.96789999999987 87.25750000000005L40.35549999999989 85.81299999999999L39.345800000000054 84.54110000000003L37.417199999999866 85.02390000000003L35.385299999999916 85.0607L35.32199999999989 84.6902L35.56950000000006 84.36750000000006L37.109500000000025 84.0978L38.265100000000075 81.18180000000007L39.02019999999993 81.04860000000008L38.47479999999996 80.47160000000008L37.36799999999994 80.16110000000003L37.115999999999985 79.45950000000005L37.70159999999987 77.53750000000002L38.37130000000002 77.87850000000003L39.06939999999986 77.6277L40.39190000000008 76.76010000000008L41.17409999999995 76.82659999999998L41.993999999999915 77.68540000000007L42.397199999999884 78.79989999999998L43.11189999999988 79.14160000000004L43.001199999999926 78.14949999999999z">
      <title id="t23">Sixième circonscription des Alpes-Maritimes</title>
      <desc id="d23">Cantons de : Cagnes-sur-Mer Centre, Cagnes-sur-Mer Ouest, Saint-Laurent-du-Var-Cagnes-sur-Mer Est</desc>
    </path><path class="circo" id="id-006-07" d="M41.63850000000002 90.4099L41.99520000000007 87.81500000000005L40.96789999999987 87.25750000000005L40.35549999999989 85.81299999999999L39.345800000000054 84.54110000000003L37.417199999999866 85.02390000000003L35.385299999999916 85.0607L35.32199999999989 84.6902L35.56950000000006 84.36750000000006L37.109500000000025 84.0978L38.265100000000075 81.18180000000007L39.02019999999993 81.04860000000008L38.47479999999996 80.47160000000008L37.36799999999994 80.16110000000003L37.115999999999985 79.45950000000005L37.70159999999987 77.53750000000002L37.56169999999997 75.19170000000008L36.49829999999997 73.54240000000004L35.75479999999993 73.29190000000006L35.35500000000002 72.6617L35.65910000000008 72.12819999999999L34.25070000000005 70.69839999999999L32.48530000000005 69.70960000000002L30.589999999999918 70.19630000000006L29.90910000000008 69.78309999999999L29.54410000000007 69.87390000000005L30.124499999999898 71.58950000000004L29.751700000000028 71.75290000000007L29.079400000000078 73.14800000000002L27.48569999999995 72.92870000000005L27.22239999999988 72.61760000000004L18.847099999999955 70.55900000000008L19.71609999999987 72.28219999999999L20.052400000000034 74.13260000000002L19.55320000000006 75.20479999999998L21.144199999999955 76.52520000000004L22.370499999999993 76.64210000000003L23.245499999999993 78.38040000000001L25.295599999999922 78.71360000000004L27.551500000000033 79.76210000000003L28.33030000000008 80.60410000000002L27.5942 81.5675L27.873299999999972 82.75560000000007L28.60259999999994 84.2002L29.96440000000007 85.07350000000008L30.13689999999997 86.25470000000007L31.1866 87.84730000000002L32.71659999999997 88.47969999999998L34.343799999999874 88.69000000000005L35.559299999999894 89.77530000000002L36.68319999999994 89.13110000000006L36.557599999999866 91.04079999999999L37.233799999999974 91.81569999999999L36.591499999999996 92.78800000000001L36.16020000000003 93.53090000000009L35.00630000000001 94.7355L35.14580000000001 95.40530000000001L35.850400000000036 95.73210000000006L36.674999999999955 94.43700000000001L38.289999999999964 93.44580000000008L39.693500000000085 93.27269999999999L40.932599999999866 94.05410000000006L41.27340000000004 96.49080000000004L43.04150000000004 95.5969L42.83310000000006 93.4615L41.73939999999993 93.20640000000003L41.9049 91.93060000000003L41.387899999999945 91.45940000000007L42.100799999999936 91.00300000000004L41.63850000000002 90.4099z">
      <title id="t24">Septième circonscription des Alpes-Maritimes</title>
      <desc id="d24">Cantons de : Antibes-Biot, Antibes Centre, Le Bar-sur-Loup, Vallauris-Antibes Ouest (partie de la commune d'Antibes comprise dans ce canton et partie de la commune de Vallauris située au sud d'une ligne définie, à partir de la limite de la commune de Cannes, par l'axe des voies ci-après : le boulevard de la Batterie, le boulevard Grandjean, le boulevard des Glaïeuls, le boulevard des Horizons, l'avenue Georges-Clemenceau, la montée des Mauruches, le chemin Lintier, le chemin des Clos, le chemin de Notre-Dame, le chemin du Devens puis une ligne continuant l'axe du chemin du Devens jusqu'à la limite de la commune d'Antibes)</desc>
    </path><path class="circo" id="id-006-08" d="M36.69589999999994 89.11710000000005L35.57089999999994 89.77330000000006L34.13329999999996 92.11710000000005L33.75829999999996 92.80460000000005L33.914600000000064 93.55460000000005L32.414600000000064 94.02330000000006L31.195899999999938 93.74210000000005L29.977100000000064 93.86710000000005L28.445899999999938 94.39830000000006L28.039600000000064 94.24210000000005L28.008299999999963 93.83580000000006L28.383299999999963 93.67960000000005L27.820899999999938 92.99210000000005L26.227100000000064 93.30460000000005L25.977100000000064 93.33580000000006L24.820899999999938 93.27330000000006L23.695899999999938 94.30460000000005L23.008299999999963 94.11710000000005L22.602100000000064 94.08580000000006L21.352100000000064 95.55460000000005L20.664600000000064 97.83580000000006L21.977100000000064 98.64830000000006L22.039600000000064 99.05460000000005L21.102100000000064 101.33580000000006L22.758299999999963 102.21080000000006L23.477100000000064 102.49200000000008L23.758299999999963 103.61700000000008L25.289600000000064 103.96080000000006L25.320899999999938 103.58580000000006L26.414600000000064 103.17960000000005L27.102100000000064 101.71080000000006L26.820899999999938 101.02330000000006L25.758299999999963 100.49200000000008L25.695899999999938 99.71080000000006L26.820899999999938 97.64830000000006L28.039600000000064 96.55460000000005L29.602100000000064 96.02330000000006L33.414600000000064 95.92960000000005L34.19589999999994 97.36710000000005L35.852100000000064 95.74210000000005L35.13329999999996 95.39830000000006L35.00829999999996 94.74210000000005L36.164600000000064 93.52330000000006L36.602100000000064 92.77330000000006L37.227100000000064 91.80460000000005L36.57089999999994 91.05460000000005L36.69589999999994 89.11710000000005zM35.039600000000064 98.89830000000006L33.852100000000064 99.02330000000006L33.69589999999994 99.17960000000005L33.914600000000064 99.52330000000006L34.477100000000064 99.74200000000008L36.32089999999994 99.80460000000005L36.63329999999996 100.02330000000006L36.852100000000064 99.71080000000006L36.75829999999996 99.52330000000006L35.039600000000064 98.89830000000006z">
      <title id="t25">Huitième circonscription des Alpes-Maritimes</title>
      <desc id="d25">Cantons de : Cannes Centre, Cannes Est, Mandelieu-Cannes Ouest, Vallauris-Antibes Ouest (partie non comprise dans la 7e circonscription)</desc>
    </path><path class="circo" id="id-006-09" d="M21.967200000000048 88.61009999999999L22.649099999999862 87.15570000000002L22.018499999999904 86.68970000000002L21.890300000000025 84.46720000000005L23.36760000000004 85.0598L23.761799999999994 84.42849999999999L24.356399999999894 83.97829999999999L24.83719999999994 84.23620000000005L25.161599999999908 84.06420000000003L24.81490000000008 83.61500000000001L25.88449999999989 83.38229999999999L26.759199999999964 83.76010000000008L27.699699999999893 83.7876L28.1404 83.27160000000003L28.60259999999994 84.2002L29.96440000000007 85.07350000000008L30.13689999999997 86.25470000000007L31.1866 87.84730000000002L32.71659999999997 88.47969999999998L34.343799999999874 88.69000000000005L35.559299999999894 89.77530000000002L34.12889999999993 92.11670000000004L33.75409999999988 92.79730000000006L33.926099999999906 93.55450000000008L32.4061999999999 94.01460000000009L31.207499999999982 93.7473L29.985099999999875 93.86800000000005L28.441499999999905 94.38600000000008L28.05230000000006 94.25110000000006L28.01279999999997 93.84120000000007L28.385899999999992 93.66770000000008L27.807999999999993 92.9896L26.22460000000001 93.29140000000007L25.9858999999999 93.32600000000002L24.829500000000053 93.28399999999999L23.69509999999991 94.30849999999998L23.001399999999876 94.11120000000005L23.102899999999863 93.31420000000003L22.463600000000042 91.88190000000009L23.456500000000005 90.1001L21.967200000000048 88.61009999999999z">
      <title id="t26">Neuvième circonscription des Alpes-Maritimes</title>
      <desc id="d26">Cantons de : Le Cannet, Grasse Sud, Mougins</desc>
    </path></svg>