<svg xmlns="http://www.w3.org/2000/svg" version="1.1" xmlns:xlink="http://www.w3.org/1999/xlink" xmlns:svgjs="http://svgjs.dev/svgjs" viewBox="985.17253 883.65873 87.04766999999993 131.96437000000003"><path class="circo" id="id-007-01" d="M 1042.0072,1008.5366 1041.4134,1007.9816 1040.6114,1007.9405 1040.3804,1007.1935 1039.8775,1006.6168 1037.9065,1006.8607 1036.3638,1006.4477 1036.0112,1005.3261 1036.3006,1004.2098 1035.5916,1004.0757 1034.9959,1004.5624 1034.7877,1003.8747 1035.2017,1002.3556 1035.6908,1001.7521 1035.4098,1001.0155 1036.3451,1000.2436 1037.132,1000.0613 1037.3793,999.32997 1039.0216,998.17831 1039.4668,997.50108 1038.9676,995.94644 1036.977,995.35899 1036.6149,994.66731 1036.9991,994.51373 1037.5851,992.13503 1038.5592,991.36942 1039.7682,991.18337 1039.6351,989.9752 1041.0726,989.26703 1039.8875,988.28506 1040.7857,986.15825 1041.9637,985.86548 1043.5955,987.03611 1044.3,985.14497 1044.1118,983.51268 1044.3833,983.20132 1044.8131,982.56556 1043.876,981.4054 1044.1511,981.29053 1044.0812,980.70803 1044.4672,979.53193 1046.4232,979.16372 1046.8373,976.77796 1047.3534,976.1446 1046.9423,975.5483 1047.2446,973.13634 1046.9706,972.85115 1046.246,973.01728 1045.8887,972.2885 1045.9343,971.55904 1046.6634,971.33172 1047.3537,971.65651 1048.0509,970.78865 1047.9825,970.77539 1046.8933,969.86477 1047.8661,968.78804 1047.5392,967.66119 1046.5954,966.3742 1044.6285,966.18198 1043.6913,966.70485 1042.4888,966.70604 1042.2403,967.02627 1041.8924,966.82032 1040.3037,964.00999 1040.2848,963.9343 1039.0814,962.53383 1038.7422,961.56135 1037.6429,961.16455 1036.4948,961.30571 1035.3673,962.37272 1034.2224,962.47235 1033.4948,962.16818 1033.829,961.96854 1033.2883,960.16627 1034.3092,957.34223 1032.1933,956.18813 1030.7631,954.74479 1029.9851,954.62002 1029.6862,954.32149 1029.0601,953.99336 1028.3476,954.17934 1028.7314,952.61592 1027.5351,951.54885 1029.2374,947.94655 1028.6944,947.25372 1027.8972,947.19235 1027.8111,948.38247 1027.0764,948.70007 1025.1177,947.49442 1025.02,947.10424 1023.3198,949.39934 1022.1493,949.30215 1021.4593,950.19823 1019.5745,949.85482 1019.2476,950.05888 1018.5894,949.6577 1017.8399,949.79143 1017.4332,949.46453 1016.5235,948.83849 1016.2652,948.15342 1016.0588,946.96722 1014.3773,945.90922 1013.3315,943.76948 1012.6656,943.74213 1012.7191,942.975 1012.0028,942.14228 1012.1142,941.3878 1012.5257,938.77055 1013.1519,938.31314 1013.0124,938.06672 1014.2714,936.45366 1015.2671,935.73915 1015.8861,932.21989 1016.8539,931.62809 1018.6685,932.58064 1020.6094,931.7606 1021.8678,931.74871 1022.4563,931.23905 1023.5798,930.98396 1023.4836,930.21313 1022.9807,929.45578 1023.364,929.30098 1023.5583,927.66869 1024.6575,927.16101 1025.1295,928.28727 1026.311,928.33547 1027.1129,929.25844 1028.7829,929.05797 1029.959,929.46936 1031.442,930.08442 1033.5065,930.36622 1034.5961,932.59974 1035.0047,932.59758 1036.5791,933.86192 1036.9483,934.58912 1038.0468,935.03369 1038.6569,936.06166 1039.3494,936.47924 1042.6601,936.33984 1043.5371,936.34189 1043.7292,935.83965 1045.1699,935.24215 1047.1039,935.10478 1047.9269,934.38064 1048.8626,934.42891 1050.2539,934.96476 1050.6337,934.6882 1052.1683,933.29909 1053.2509,934.52139 1054.4853,934.71414 1055.7361,933.73065 1056.8523,934.85908 1057.9178,935.3776 1058.6263,937.29067 1059.5374,938.04583 1060.0536,939.1144 1059.493,941.44683 1060.1549,941.02175 1061.807,942.03095 1063.3401,942.0817 1063.4132,942.4712 1065.1379,941.8137 1066.2352,942.04211 1067.4798,941.62691 1069.1087,943.99291 1068.5954,945.09221 1068.6101,946.3105 1068.0175,946.80838 1066.8418,947.02716 1066.5838,948.14168 1066.6862,949.67663 1065.5724,949.98866 1064.8839,950.28259 1064.9441,951.04256 1064.6246,951.28229 1064.4804,952.47326 1063.4699,953.6669 1062.0154,954.30269 1061.6104,954.92129 1061.5482,955.20662 1062.2521,956.59923 1061.4179,957.92896 1061.8134,959.89598 1061.8021,960.25673 1061.8185,961.93122 1062.4771,963.01129 1063.295,966.25777 1063.3477,967.0136 1062.8827,968.0428 1063.0811,969.14378 1062.5565,970.58556 1061.2974,972.00625 1060.816,973.41627 1059.7942,975.39131 1060.1169,975.57039 1059.8591,977.01692 1059.1532,977.36138 1057.2838,977.82552 1056.904,978.50396 1056.7609,980.03077 1055.9975,980.0841 1055.7176,982.05879 1056.6124,983.30125 1056.9197,983.54308 1056.6256,984.6769 1055.7732,985.61384 1055.3296,987.25505 1055.4599,988.51647 1056.3203,989.97794 1056.3945,991.25174 1055.9592,994.06142 1055.449,994.69041 1054.3177,995.14423 1053.5636,995.95251 1053.2191,998.67653 1053.3313,999.63775 1052.03,1002.715 1051.8407,1005.6622 1052.0747,1007.3322 1052.1618,1007.8583 1052.3799,1012.0159 1052.3105,1012.4357 1052.0436,1014.9186 1050.6372,1013.1812 1049.2726,1014.0125 1048.324,1012.4633 1047.7727,1012.3783 1045.6727,1011.3106 1045.3092,1011.4765 1044.2186,1010.9041 1043.2379,1009.0581 1043.418,1008.6819 1043.5337,1008.4873 1042.0072,1008.5366 z">
      <title id="t27">Première circonscription de l'Ardèche</title>
      <desc id="d27">Cantons de : Bourg-Saint-Andéol, Le Cheylard, Chomérac, Privas, Rochemaure, Saint-Martin-de-Valamas, Saint-Pierreville, Vernoux-en-Vivarais, Viviers, La Voulte-sur-Rhône</desc>
    </path><path class="circo" id="id-007-02" d="M 1046.5676,898.35558 1044.5465,897.97601 1042.9762,898.58436 1042.4414,899.23164 1040.899,898.63627 1039.8344,899.68888 1038.5758,899.78774 1037.9256,899.27655 1038.4172,900.84886 1038.1747,901.64846 1037.772,901.75393 1037.3984,902.38692 1037.7063,904.22233 1037.0283,906.09946 1035.9911,906.64596 1035.8024,907.42861 1034.9485,908.26192 1034.5621,910.64604 1034.8036,911.81272 1035.6054,912.67273 1035.7284,913.4518 1034.1682,913.27556 1034.0263,913.64285 1034.4302,914.31955 1033.9552,914.5885 1033.2257,913.61852 1033.3661,912.06635 1031.8075,910.80884 1030.6743,910.97093 1028.8664,910.38332 1028.5273,912.34587 1030.8309,913.92267 1030.6156,915.09675 1029.5486,915.59845 1028.4337,915.19936 1027.3936,915.77885 1027.6993,917.23061 1027.3412,917.38267 1027.0288,918.46251 1026.3005,918.73178 1026.4165,919.91081 1027.5195,921.09699 1028.3296,921.02323 1029.051,921.40105 1029.2987,922.61235 1029.0797,923.40894 1027.1478,923.75127 1026.74,924.43311 1023.8961,924.15961 1022.3319,925.34975 1021.6031,928.08016 1022.255,929.11049 1022.9807,929.45578 1023.364,929.30098 1023.5583,927.66869 1024.6575,927.16101 1025.1295,928.28727 1026.311,928.33547 1027.1129,929.25844 1028.7829,929.05797 1029.959,929.46936 1031.442,930.08442 1033.5065,930.36622 1034.5961,932.59974 1035.0047,932.59758 1036.5791,933.86192 1036.9483,934.58912 1038.0468,935.03369 1038.6569,936.06166 1039.3494,936.47924 1042.6601,936.33984 1043.5371,936.34189 1043.7292,935.83965 1045.1699,935.24215 1047.1039,935.10478 1047.9269,934.38064 1048.8626,934.42891 1050.2539,934.96476 1050.6337,934.6882 1052.1683,933.29909 1053.2509,934.52139 1054.4853,934.71414 1055.7361,933.73065 1056.8523,934.85908 1057.9178,935.3776 1058.6263,937.29067 1059.5374,938.04583 1060.0536,939.1144 1059.493,941.44683 1060.1549,941.02175 1061.807,942.03095 1063.3401,942.0817 1063.4132,942.4712 1065.1379,941.8137 1066.2352,942.04211 1067.4798,941.62691 1069.1087,943.99291 1069.685,943.42214 1070.0689,942.38231 1069.4776,940.18688 1069.754,939.42283 1070.694,938.61704 1070.9023,937.82209 1072.2202,935.36992 1071.7762,934.4151 1071.1736,933.00216 1070.0017,931.89889 1069.3721,930.41453 1069.3281,930.21865 1069.2688,928.51361 1068.4719,927.52058 1067.9802,926.85612 1068.7197,925.35961 1068.6094,924.94869 1068.2513,924.28927 1068.4256,923.20036 1069.4587,922.19646 1070.0235,921.09254 1069.4152,920.08435 1067.9056,919.54711 1067.3381,918.99622 1067.2243,918.30951 1067.4492,917.65114 1067.3757,915.96754 1066.987,915.24705 1066.1168,914.34725 1065.2031,913.02114 1065.1857,912.21997 1065.2111,911.96117 1067.2888,909.19252 1067.3006,908.96482 1066.908,908.34666 1065.8661,907.86432 1065.7304,906.69817 1065.8532,905.63336 1065.3578,904.66935 1065.3597,903.96757 1065.8976,903.07704 1065.1326,900.62511 1064.9988,898.12366 1065.6118,896.57173 1065.7088,895.65053 1065.677,895.28542 1065.6665,893.08842 1064.9019,891.79867 1063.2908,890.40691 1061.648,888.75422 1061.5307,887.19859 1061.549,886.96049 1061.7442,886.23839 1062.1153,886.29789 1062.6284,885.77892 1062.5267,885.03589 1061.1195,883.65873 1058.5549,884.12717 1058.3242,884.99912 1056.641,885.6085 1056.1916,886.16208 1054.6707,886.00739 1051.1365,888.43444 1051.5296,889.31588 1050.7363,889.79469 1049.2024,890.36074 1049.3042,891.58949 1049.8073,892.23659 1049.695,892.6369 1048.87,892.56441 1047.7402,892.87106 1047.124,894.8768 1047.7313,895.34931 1048.3104,895.98977 1048.3112,897.22959 1046.5676,898.35558 z">
      <title id="t28">Deuxième circonscription de l'Ardèche</title>
      <desc id="d28">Cantons de : Annonay Nord, Annonay Sud, Lamastre, Saint-Agrève, Saint-Félicien, Saint-Péray, Satillieu, Serrières, Tournon</desc>
    </path><path class="circo" id="id-007-03" d="M 1028.3476,954.17934 1028.7314,952.61592 1027.5351,951.54885 1029.2374,947.94655 1028.6944,947.25372 1027.8972,947.19235 1027.8111,948.38247 1027.0764,948.70007 1025.1177,947.49442 1025.02,947.10424 1023.3198,949.39934 1022.1493,949.30215 1021.4593,950.19823 1019.5745,949.85482 1019.2476,950.05888 1018.5894,949.6577 1017.8399,949.79143 1017.4332,949.46453 1016.5235,948.83849 1016.2652,948.15342 1016.0588,946.96722 1014.3773,945.90922 1013.3315,943.76948 1012.6656,943.74213 1012.7191,942.975 1012.0028,942.14228 1012.1142,941.3878 1010.982,941.93594 1010.1725,942.89175 1008.4945,942.8824 1006.8835,942.39599 1006.0748,942.41698 1004.3302,943.32907 1003.4511,943.39144 1002.7491,943.64534 1001.6906,943.12133 1000.1655,943.03725 999.30063,943.82836 999.00043,945.64701 998.56213,946.26315 999.28803,947.61105 998.66513,948.12094 997.63043,947.61009 996.73933,948.93472 995.97343,948.00456 995.57703,947.96177 995.28133,948.64877 995.76613,949.79646 995.31823,950.36047 994.08013,949.3417 993.72853,948.19358 992.22903,948.84232 992.13833,949.24152 991.48743,951.98789 989.89033,954.29191 989.84723,954.6666 990.42623,955.23512 990.47593,955.39735 989.51873,955.76671 988.37193,956.1825 988.20183,957.35324 987.84293,957.55601 986.35913,956.93261 985.99393,957.12474 985.17253,958.47998 986.28683,959.00618 986.41453,959.39976 985.22823,961.44627 985.22363,962.27236 985.80093,962.86131 985.77783,964.09167 986.95773,964.12096 987.04563,964.51282 985.94773,966.19919 987.11443,968.81421 987.91393,969.70968 987.99793,970.62606 987.85973,973.85154 988.92413,974.36798 989.04493,974.75746 988.91373,976.58734 989.92743,977.18473 989.78763,977.97935 990.36103,979.03246 992.50373,978.9129 993.53493,981.18866 993.94183,983.11247 995.10003,985.22973 994.89043,985.57807 995.25383,985.7725 995.74113,987.34646 995.77193,990.62708 996.70193,992.39418 998.14003,993.14705 998.88753,994.00141 1000.0119,994.04296 1000.7187,995.52601 1000.0722,997.02301 1001.5157,997.75254 1002.6756,998.91009 1001.9117,1000.2365 1000.7963,1000.0042 1000.4615,1000.2171 1000.5768,1001.3495 1001.3614,1002.0462 1001.2845,1002.7796 1001.7107,1003.7766 1001.4207,1004.4128 1001.2152,1007.0371 999.89315,1007.8529 1000.9431,1009.1483 1001.2316,1009.3413 1001.9704,1009.0037 1003.1348,1007.9509 1005.6864,1007.371 1006.159,1007.735 1006.8707,1007.8424 1007.6322,1006.9161 1008.8999,1008.553 1009.0021,1009.8133 1010.603,1009.9555 1011.9877,1009.2917 1012.7177,1011.4307 1015.2512,1012.7009 1016.753,1014.3608 1017.6953,1015.1899 1018.8652,1015.6231 1020.1294,1014.7534 1021.4234,1012.3319 1021.3706,1009.6152 1022.5383,1009.6387 1023.8971,1008.8152 1024.8456,1007.5529 1024.5493,1006.846 1028.3234,1006.6303 1029.7582,1005.808 1030.4851,1006.1333 1031.0585,1007.2402 1030.9822,1008.053 1030.1444,1010.8339 1030.2905,1012.0405 1031.1624,1012.8033 1033.5776,1012.6244 1033.8857,1013.3795 1034.2949,1013.3678 1035.3821,1011.6525 1035.0034,1011.7899 1035.1999,1007.3485 1035.5631,1006.6148 1036.3638,1006.4477 1036.0112,1005.3261 1036.3006,1004.2098 1035.5916,1004.0757 1034.9959,1004.5624 1034.7877,1003.8747 1035.2017,1002.3556 1035.6908,1001.7521 1035.4098,1001.0155 1036.3451,1000.2436 1037.132,1000.0613 1037.3793,999.32997 1039.0216,998.17831 1039.4668,997.50108 1038.9676,995.94644 1036.977,995.35899 1036.6149,994.66731 1036.9991,994.51373 1037.5851,992.13503 1038.5592,991.36942 1039.7682,991.18337 1039.6351,989.9752 1041.0726,989.26703 1039.8875,988.28506 1040.7857,986.15825 1041.9637,985.86548 1043.5955,987.03611 1044.3,985.14497 1044.1118,983.51268 1044.3833,983.20132 1044.8131,982.56556 1043.876,981.4054 1044.1511,981.29053 1044.0812,980.70803 1044.4672,979.53193 1046.4232,979.16372 1046.8373,976.77796 1047.3534,976.1446 1046.9423,975.5483 1047.2446,973.13634 1046.9706,972.85115 1046.246,973.01728 1045.8887,972.2885 1045.9343,971.55904 1046.6634,971.33172 1047.3537,971.65651 1048.0509,970.78865 1047.9825,970.77539 1046.8933,969.86477 1047.8661,968.78804 1047.5392,967.66119 1046.5954,966.3742 1044.6285,966.18198 1043.6913,966.70485 1042.4888,966.70604 1042.2403,967.02627 1041.8924,966.82032 1040.3037,964.00999 1040.2848,963.9343 1039.0814,962.53383 1038.7422,961.56135 1037.6429,961.16455 1036.4948,961.30571 1035.3673,962.37272 1034.2224,962.47235 1033.4948,962.16818 1033.829,961.96854 1033.2883,960.16627 1034.3092,957.34223 1032.1933,956.18813 1030.7631,954.74479 1029.9851,954.62002 1029.6862,954.32149 1029.0601,953.99336 1028.3476,954.17934 z">
      <title id="t29">Troisième circonscription de l'Ardèche</title>
      <desc id="d29">Cantons de : Antraigues, Aubenas, Burzet, Coucouron, Joyeuse, Largentière, Montpezat-sous-Bauzon, Saint-Etienne-de-Lugdarès, Thueyts, Valgorge, Vallon-Pont-d'Arc, Vals-les-Bains, Les Vans, Villeneuve-de-Berg</desc>
    </path></svg>