<svg xmlns="http://www.w3.org/2000/svg" version="1.1" xmlns:xlink="http://www.w3.org/1999/xlink" xmlns:svgjs="http://svgjs.dev/svgjs" viewBox="0 0 87.04766999999993 131.96437000000003"><path class="circo" id="id-007-01" d="M56.83466999999996 124.87787000000003L56.24086999999986 124.32286999999997L55.43886999999995 124.28177000000005L55.20786999999996 123.53476999999998L54.70497 122.95807000000002L52.73397 123.20196999999996L51.19127000000003 122.78897000000006L50.838669999999865 121.66737L51.12806999999998 120.55106999999998L50.41906999999992 120.41696999999999L49.82336999999984 120.90367000000003L49.615170000000035 120.21596999999997L50.02917000000002 118.69686999999999L50.51827000000003 118.09337000000005L50.23726999999985 117.35676999999998L51.17256999999995 116.58487000000002L51.95947000000001 116.40256999999997L52.206770000000006 115.67124000000001L53.84906999999998 114.51958000000002L54.29426999999987 113.84235000000001L53.795069999999896 112.28771000000006L51.80447000000004 111.70025999999996L51.44236999999998 111.00858000000005L51.82656999999995 110.85500000000002L52.41256999999996 108.47630000000004L53.38666999999987 107.71069L54.59566999999993 107.52463999999998L54.462569999999914 106.31646999999998L55.900069999999914 105.60829999999999L54.714969999999994 104.62633000000005L55.613169999999855 102.49951999999996L56.791169999999966 102.20675000000006L58.42296999999985 103.37738000000002L59.1274699999999 101.48623999999995L58.93926999999985 99.85395000000005L59.21076999999991 99.54259000000002L59.640570000000025 98.90683000000001L58.703469999999925 97.74667L58.97856999999999 97.6318L58.90867000000003 97.04930000000002L59.294669999999996 95.8732L61.2506699999999 95.50499000000002L61.66476999999986 93.11923000000002L62.18086999999991 92.48586999999998L61.76976999999988 91.88957000000005L62.07206999999994 89.47761000000003L61.79807000000005 89.19241999999997L61.07347000000004 89.35855000000004L60.71616999999992 88.62977000000001L60.76176999999984 87.90030999999999L61.49086999999986 87.67299000000003L62.18116999999984 87.99778000000003L62.878369999999904 87.12991999999997L62.80997000000002 87.11666000000002L61.7207699999999 86.20604000000003L62.69356999999991 85.12931000000003L62.366669999999885 84.00246000000004L61.422869999999875 82.71546999999998L59.45596999999998 82.52324999999996L58.518769999999904 83.04611999999997L57.31627000000003 83.04731000000004L57.06776999999988 83.36753999999996L56.7198699999999 83.16159000000005L55.131169999999884 80.35126000000002L55.11226999999985 80.27557000000002L53.90886999999998 78.87509999999997L53.56966999999986 77.90261999999996L52.47037 77.50581999999997L51.32226999999989 77.64697999999999L50.194769999999835 78.71398999999997L49.049870000000055 78.81362000000001L48.32226999999989 78.50945000000002L48.6564699999999 78.30980999999997L48.115769999999884 76.50754000000006L49.13666999999987 73.68349999999998L47.02076999999986 72.52940000000001L45.59056999999984 71.08605999999997L44.81257000000005 70.96128999999996L44.51367000000005 70.66276000000005L43.88756999999987 70.33463000000006L43.175070000000005 70.52061000000003L43.55886999999984 68.95718999999997L42.362570000000005 67.89012000000002L44.06486999999993 64.28782000000001L43.521870000000035 63.59499000000005L42.72467000000006 63.53362000000004L42.638569999999845 64.72374000000002L41.90386999999987 65.04133999999999L39.94516999999996 63.83569L39.84746999999993 63.44551000000001L38.147269999999935 65.74061000000006L36.97676999999999 65.64341999999999L36.28676999999993 66.53949999999998L34.40196999999989 66.19609000000003L34.07506999999998 66.40015000000005L33.4168699999999 65.99896999999999L32.66736999999989 66.1327L32.260670000000005 65.80579999999998L31.35096999999996 65.17975999999999L31.09267 64.49468999999999L30.886269999999968 63.308490000000006L29.20476999999994 62.25049000000001L28.158969999999954 60.11075000000005L27.49306999999999 60.08339999999998L27.546569999999974 59.31627000000003L26.830269999999928 58.48355000000004L26.94166999999993 57.72906999999998L27.353169999999977 55.111819999999966L27.979369999999903 54.654409999999984L27.839869999999905 54.40799000000004L29.09886999999992 52.79493000000002L30.094569999999976 52.080420000000004L30.713570000000004 48.56115999999997L31.6813699999999 47.96936000000005L33.49596999999994 48.921910000000025L35.43687 48.10186999999996L36.69526999999994 48.08997999999997L37.283770000000004 47.58032000000003L38.407269999999926 47.32523000000003L38.31106999999997 46.55439999999999L37.808169999999905 45.79705000000001L38.19146999999998 45.64224999999999L38.38576999999998 44.00995999999998L39.484969999999976 43.50228000000004L39.956969999999956 44.628540000000044L41.13846999999987 44.676739999999995L41.94037000000003 45.59970999999996L43.610369999999875 45.39923999999996L44.78647000000001 45.81063000000006L46.269469999999956 46.42569000000003L48.33396999999991 46.70749000000001L49.42356999999993 48.941010000000006L49.832169999999905 48.93885L51.406569999999874 50.20319000000006L51.775769999999966 50.93038999999999L52.874270000000024 51.37495999999999L53.4843699999999 52.40292999999997L54.17687000000001 52.82051000000001L57.487570000000005 52.68110999999999L58.36456999999996 52.68316000000004L58.55666999999994 52.180920000000015L59.997370000000046 51.58342000000005L61.931370000000015 51.446050000000014L62.75436999999988 50.72190999999998L63.69006999999988 50.77017999999998L65.08136999999988 51.306029999999964L65.46117000000004 51.02947000000006L66.99577 49.64035999999999L68.07836999999995 50.862660000000005L69.31277 51.05541000000005L70.56357000000003 50.07191999999998L71.67976999999996 51.20034999999996L72.74526999999989 51.71887000000004L73.45376999999985 53.631939999999986L74.36486999999988 54.38710000000003L74.88106999999991 55.455670000000055L74.32046999999989 57.788099999999986L74.98236999999995 57.363020000000006L76.63446999999996 58.37221999999997L78.16756999999984 58.422969999999964L78.24066999999991 58.81246999999996L79.9653699999999 58.15497000000005L81.06267000000003 58.38337999999999L82.30727000000002 57.96817999999996L83.93616999999995 60.33418000000006L83.42286999999988 61.43348000000003L83.43757000000005 62.651770000000056L82.84496999999988 63.149650000000065L81.66926999999987 63.36842999999999L81.41127000000006 64.48294999999996L81.51367000000005 66.01790000000005L80.39986999999996 66.32992999999999L79.71136999999999 66.62386000000004L79.77156999999988 67.38382999999999L79.45207000000005 67.62356L79.30786999999987 68.81452999999999L78.29737 70.00817000000006L76.84286999999995 70.64395999999999L76.43786999999998 71.26256000000001L76.3756699999999 71.54789000000005L77.07956999999988 72.94050000000004L76.24536999999987 74.27022999999997L76.64086999999995 76.23725000000002L76.62957000000006 76.59799999999996L76.64597000000003 78.27249000000006L77.30457000000001 79.35256000000004L78.12247000000002 82.59904000000006L78.17516999999998 83.35487L77.71017000000006 84.38407000000007L77.90857000000005 85.48505L77.38396999999986 86.92683L76.12486999999987 88.34752000000003L75.64346999999998 89.75754000000006L74.62167 91.73257999999998L74.94436999999994 91.91165999999998L74.68656999999985 93.35819000000004L73.98066999999992 93.70265000000006L72.11126999999988 94.16678999999999L71.73146999999994 94.84523000000002L71.58836999999994 96.37203999999997L70.8249699999999 96.42537000000004L70.5450699999999 98.40006000000005L71.43986999999993 99.64251999999999L71.74716999999987 99.88435000000004L71.45307000000003 101.01817000000005L70.60067000000004 101.95510999999999L70.15706999999998 103.59631999999999L70.28737000000001 104.85774000000004L71.14777000000004 106.31921L71.22197000000006 107.59301000000005L70.78666999999996 110.40269L70.27647000000002 111.03168000000005L69.14517000000001 111.4855L68.3910699999999 112.29377999999997L68.04656999999997 115.01779999999997L68.15877 115.97901999999999L66.85746999999992 119.05627000000004L66.66816999999992 122.00347L66.90216999999984 123.67346999999995L66.98927000000003 124.19957L67.20736999999986 128.35717L67.13797 128.77697L66.87106999999992 131.25986999999998L65.46466999999984 129.52247L64.10006999999996 130.35377000000005L63.15147000000002 128.80457L62.600169999999935 128.71956999999998L60.500170000000026 127.65187000000003L60.13666999999987 127.81777L59.04606999999987 127.24536999999998L58.06537000000003 125.39936999999998L58.24546999999984 125.02317000000005L58.3611699999999 124.82857000000001L56.83466999999996 124.87787000000003z">
      <title id="t27">Première circonscription de l'Ardèche</title>
      <desc id="d27">Cantons de : Bourg-Saint-Andéol, Le Cheylard, Chomérac, Privas, Rochemaure, Saint-Martin-de-Valamas, Saint-Pierreville, Vernoux-en-Vivarais, Viviers, La Voulte-sur-Rhône</desc>
    </path><path class="circo" id="id-007-02" d="M61.39507000000003 14.69685000000004L59.37396999999987 14.317279999999982L57.80367000000001 14.925629999999956L57.26886999999988 15.572909999999979L55.726469999999836 14.977539999999976L54.66186999999991 16.03015000000005L53.40327000000002 16.129009999999994L52.75306999999998 15.617820000000052L53.24467000000004 17.190129999999954L53.00216999999998 17.98973000000001L52.59946999999988 18.095199999999977L52.225869999999986 18.72819000000004L52.533770000000004 20.563600000000065L51.85576999999989 22.44073000000003L50.81856999999991 22.987229999999954L50.62986999999998 23.769880000000057L49.775969999999916 24.60319000000004L49.38957000000005 26.98730999999998L49.63106999999991 28.15399000000002L50.432869999999866 29.01400000000001L50.55586999999991 29.793070000000057L48.99567000000002 29.61683000000005L48.85376999999994 29.98411999999996L49.25766999999996 30.660820000000058L48.78267000000005 30.929769999999962L48.05316999999991 29.959789999999998L48.19356999999991 28.407620000000065L46.63496999999984 27.15011000000004L45.50176999999985 27.31219999999996L43.69387000000006 26.724590000000035L43.35476999999992 28.68714L45.65836999999988 30.263940000000048L45.443070000000034 31.43802000000005L44.37607000000003 31.939719999999966L43.26116999999999 31.540629999999965L42.221070000000054 32.12012000000004L42.52676999999994 33.571879999999965L42.16867000000002 33.72393999999997L41.856269999999995 34.80377999999996L41.127970000000005 35.07304999999997L41.24396999999999 36.25207999999998L42.346970000000056 37.438260000000014L43.157069999999976 37.36450000000002L43.87846999999988 37.74232000000006L44.12617 38.95362L43.90716999999995 39.75021000000004L41.97526999999991 40.092539999999985L41.56746999999996 40.774380000000065L38.723569999999995 40.50088000000005L37.15936999999997 41.69101999999998L36.43056999999999 44.42142999999999L37.082469999999944 45.451760000000036L37.808169999999905 45.79705000000001L38.19146999999998 45.64224999999999L38.38576999999998 44.00995999999998L39.484969999999976 43.50228000000004L39.956969999999956 44.628540000000044L41.13846999999987 44.676739999999995L41.94037000000003 45.59970999999996L43.610369999999875 45.39923999999996L44.78647000000001 45.81063000000006L46.269469999999956 46.42569000000003L48.33396999999991 46.70749000000001L49.42356999999993 48.941010000000006L49.832169999999905 48.93885L51.406569999999874 50.20319000000006L51.775769999999966 50.93038999999999L52.874270000000024 51.37495999999999L53.4843699999999 52.40292999999997L54.17687000000001 52.82051000000001L57.487570000000005 52.68110999999999L58.36456999999996 52.68316000000004L58.55666999999994 52.180920000000015L59.997370000000046 51.58342000000005L61.931370000000015 51.446050000000014L62.75436999999988 50.72190999999998L63.69006999999988 50.77017999999998L65.08136999999988 51.306029999999964L65.46117000000004 51.02947000000006L66.99577 49.64035999999999L68.07836999999995 50.862660000000005L69.31277 51.05541000000005L70.56357000000003 50.07191999999998L71.67976999999996 51.20034999999996L72.74526999999989 51.71887000000004L73.45376999999985 53.631939999999986L74.36486999999988 54.38710000000003L74.88106999999991 55.455670000000055L74.32046999999989 57.788099999999986L74.98236999999995 57.363020000000006L76.63446999999996 58.37221999999997L78.16756999999984 58.422969999999964L78.24066999999991 58.81246999999996L79.9653699999999 58.15497000000005L81.06267000000003 58.38337999999999L82.30727000000002 57.96817999999996L83.93616999999995 60.33418000000006L84.5124699999999 59.76341000000002L84.89636999999993 58.72357999999997L84.30506999999989 56.52814999999998L84.58146999999985 55.764099999999985L85.52146999999991 54.95830999999998L85.72976999999992 54.16336000000001L87.04766999999993 51.71118999999999L86.60366999999997 50.75637000000006L86.00107000000003 49.34343000000001L84.82916999999998 48.24016000000006L84.19957 46.75580000000002L84.1555699999999 46.559920000000034L84.09627 44.85487999999998L83.29936999999995 43.861850000000004L82.80766999999992 43.19739000000004L83.54717000000005 41.700879999999984L83.43687 41.289960000000065L83.07876999999985 40.630539999999996L83.25306999999998 39.541630000000055L84.28616999999986 38.53773000000001L84.85096999999996 37.433809999999994L84.24266999999986 36.42561999999998L82.73307 35.888379999999984L82.16556999999989 35.33749L82.05177000000003 34.650780000000054L82.27666999999997 33.99241000000006L82.20317 32.308809999999994L81.81447000000003 31.588319999999953L80.94426999999996 30.68852000000004L80.0305699999999 29.362409999999954L80.01316999999995 28.561239999999998L80.03856999999994 28.302440000000047L82.11626999999999 25.533789999999954L82.12806999999998 25.30609000000004L81.73546999999985 24.68793000000005L80.69356999999991 24.20559000000003L80.55786999999987 23.039440000000013L80.68066999999996 21.974630000000047L80.18526999999995 21.010620000000017L80.18716999999992 20.308840000000032L80.72506999999996 19.41831000000002L79.96006999999986 16.96637999999996L79.82627000000002 14.464929999999981L80.43926999999985 12.913000000000011L80.53627000000006 11.991800000000012L80.50446999999986 11.626690000000053L80.49396999999999 9.42969000000005L79.72937000000002 8.139940000000024L78.11826999999994 6.748180000000048L76.47546999999986 5.095490000000041L76.35816999999997 3.539859999999976L76.37646999999993 3.3017600000000584L76.57167000000004 2.57965999999999L76.94276999999988 2.639160000000061L77.45587 2.1201899999999796L77.35416999999984 1.3771600000000035L75.94696999999996 0L73.38237000000004 0.46843999999998687L73.15166999999997 1.3403899999999567L71.46847000000002 1.9497700000000577L71.01907000000006 2.503349999999955L69.49816999999985 2.3486599999999953L65.96397000000002 4.775710000000004L66.35707000000002 5.6571500000000015L65.56376999999998 6.135959999999955L64.02986999999985 6.702009999999973L64.13166999999999 7.930759999999964L64.63476999999989 8.577859999999987L64.52246999999988 8.978169999999977L63.69746999999984 8.905679999999961L62.56766999999991 9.212330000000065L61.95146999999997 11.218070000000012L62.55876999999987 11.690579999999954L63.13787000000002 12.33104000000003L63.13867000000005 13.570860000000039L61.39507000000003 14.69685000000004z">
      <title id="t28">Deuxième circonscription de l'Ardèche</title>
      <desc id="d28">Cantons de : Annonay Nord, Annonay Sud, Lamastre, Saint-Agrève, Saint-Félicien, Saint-Péray, Satillieu, Serrières, Tournon</desc>
    </path><path class="circo" id="id-007-03" d="M43.175070000000005 70.52061000000003L43.55886999999984 68.95718999999997L42.362570000000005 67.89012000000002L44.06486999999993 64.28782000000001L43.521870000000035 63.59499000000005L42.72467000000006 63.53362000000004L42.638569999999845 64.72374000000002L41.90386999999987 65.04133999999999L39.94516999999996 63.83569L39.84746999999993 63.44551000000001L38.147269999999935 65.74061000000006L36.97676999999999 65.64341999999999L36.28676999999993 66.53949999999998L34.40196999999989 66.19609000000003L34.07506999999998 66.40015000000005L33.4168699999999 65.99896999999999L32.66736999999989 66.1327L32.260670000000005 65.80579999999998L31.35096999999996 65.17975999999999L31.09267 64.49468999999999L30.886269999999968 63.308490000000006L29.20476999999994 62.25049000000001L28.158969999999954 60.11075000000005L27.49306999999999 60.08339999999998L27.546569999999974 59.31627000000003L26.830269999999928 58.48355000000004L26.94166999999993 57.72906999999998L25.80946999999992 58.27720999999997L24.999969999999962 59.23302000000001L23.321969999999965 59.22366999999997L21.710969999999975 58.73725999999999L20.90226999999993 58.758249999999975L19.15766999999994 59.67034000000001L18.278569999999945 59.73271L17.576569999999947 59.98661000000004L16.518069999999966 59.46259999999995L14.9929699999999 59.37851999999998L14.128099999999904 60.169629999999984L13.8279 61.98828000000003L13.389599999999973 62.604420000000005L14.115499999999997 63.952319999999986L13.492599999999925 64.46221000000003L12.457899999999995 63.95136000000002L11.566799999999944 65.27598999999998L10.800899999999956 64.34582999999998L10.404499999999985 64.30304000000001L10.108799999999974 64.99004000000002L10.593599999999924 66.13773000000003L10.14569999999992 66.70173999999997L8.907600000000002 65.68296999999995L8.555999999999926 64.53485L7.0564999999999145 65.18358999999998L6.965799999999945 65.58279000000005L6.314899999999966 68.32916L4.717799999999897 70.63318000000004L4.674699999999916 71.00787000000003L5.253699999999981 71.57639000000006L5.303399999999897 71.73861999999997L4.346199999999953 72.10798L3.1993999999999687 72.52377000000001L3.029299999999921 73.69451000000004L2.6703999999999724 73.89728000000002L1.1865999999999985 73.27387999999996L0.821399999999926 73.46600999999998L0 74.82124999999996L1.1142999999999574 75.34744999999998L1.2419999999999618 75.74103000000002L0.05570000000000164 77.78754000000004L0.051099999999905776 78.61363000000006L0.6283999999999423 79.20258000000001L0.6052999999999429 80.43294000000003L1.785199999999918 80.46222999999998L1.8730999999999085 80.85409000000004L0.7751999999999271 82.54046000000005L1.9418999999999187 85.15548000000001L2.7413999999999987 86.05095000000006L2.825399999999945 86.96733000000006L2.6871999999999616 90.19281000000001L3.7515999999999394 90.70925L3.8723999999999705 91.09873000000005L3.7411999999999352 92.92861000000005L4.754899999999907 93.52599999999995L4.615099999999984 94.32061999999996L5.188499999999976 95.37373000000002L7.331199999999967 95.25417000000004L8.36239999999998 97.52993000000004L8.76929999999993 99.45374000000004L9.927499999999895 101.57100000000003L9.717899999999986 101.91934000000003L10.081299999999942 102.11377000000005L10.568599999999947 103.68772999999999L10.599399999999946 106.96834999999999L11.529399999999896 108.73545000000001L12.967499999999973 109.48832000000004L13.714999999999918 110.34267999999997L14.839369999999917 110.38423L15.546169999999961 111.86728000000005L14.899669999999901 113.36428000000001L16.343169999999986 114.09380999999996L17.50306999999998 115.25135999999998L16.739169999999945 116.57776999999999L15.623769999999922 116.34546999999998L15.28896999999995 116.55836999999997L15.404269999999997 117.69077000000004L16.18886999999995 118.38747000000001L16.11196999999993 119.12086999999997L16.538169999999923 120.11787000000004L16.24816999999996 120.75406999999996L16.04266999999993 123.37837000000002L14.72061999999994 124.19416999999999L15.770569999999907 125.48956999999996L16.059069999999906 125.68257000000006L16.79786999999999 125.34496999999999L17.96226999999999 124.29217000000006L20.513869999999997 123.71226999999999L20.98646999999994 124.07627000000002L21.698170000000005 124.18367L22.45966999999996 123.25737000000004L23.72736999999995 124.89427L23.82956999999999 126.15457000000004L25.4304699999999 126.29677000000004L26.815169999999966 125.63297L27.545169999999985 127.77197000000001L30.07866999999999 129.04217000000006L31.58046999999999 130.70207000000005L32.52276999999992 131.53116999999997L33.69266999999991 131.96437000000003L34.95686999999998 131.09467000000006L36.25086999999996 128.67317000000003L36.198069999999916 125.95646999999997L37.36577 125.97996999999998L38.72456999999997 125.15647000000001L39.67307000000005 123.89417000000003L39.37676999999985 123.18727000000001L43.15086999999994 122.97157000000004L44.585669999999936 122.14927L45.31257000000005 122.47456999999997L45.88597000000004 123.58146999999997L45.80966999999987 124.39427L44.97186999999985 127.17516999999998L45.117970000000014 128.38176999999996L45.98986999999988 129.14457000000004L48.40507000000002 128.96567000000005L48.71316999999999 129.72077000000002L49.122370000000046 129.70907L50.209569999999985 127.99377000000004L49.830870000000004 128.13117L50.02737000000002 123.68976999999995L50.390570000000025 122.95606999999995L51.19127000000003 122.78897000000006L50.838669999999865 121.66737L51.12806999999998 120.55106999999998L50.41906999999992 120.41696999999999L49.82336999999984 120.90367000000003L49.615170000000035 120.21596999999997L50.02917000000002 118.69686999999999L50.51827000000003 118.09337000000005L50.23726999999985 117.35676999999998L51.17256999999995 116.58487000000002L51.95947000000001 116.40256999999997L52.206770000000006 115.67124000000001L53.84906999999998 114.51958000000002L54.29426999999987 113.84235000000001L53.795069999999896 112.28771000000006L51.80447000000004 111.70025999999996L51.44236999999998 111.00858000000005L51.82656999999995 110.85500000000002L52.41256999999996 108.47630000000004L53.38666999999987 107.71069L54.59566999999993 107.52463999999998L54.462569999999914 106.31646999999998L55.900069999999914 105.60829999999999L54.714969999999994 104.62633000000005L55.613169999999855 102.49951999999996L56.791169999999966 102.20675000000006L58.42296999999985 103.37738000000002L59.1274699999999 101.48623999999995L58.93926999999985 99.85395000000005L59.21076999999991 99.54259000000002L59.640570000000025 98.90683000000001L58.703469999999925 97.74667L58.97856999999999 97.6318L58.90867000000003 97.04930000000002L59.294669999999996 95.8732L61.2506699999999 95.50499000000002L61.66476999999986 93.11923000000002L62.18086999999991 92.48586999999998L61.76976999999988 91.88957000000005L62.07206999999994 89.47761000000003L61.79807000000005 89.19241999999997L61.07347000000004 89.35855000000004L60.71616999999992 88.62977000000001L60.76176999999984 87.90030999999999L61.49086999999986 87.67299000000003L62.18116999999984 87.99778000000003L62.878369999999904 87.12991999999997L62.80997000000002 87.11666000000002L61.7207699999999 86.20604000000003L62.69356999999991 85.12931000000003L62.366669999999885 84.00246000000004L61.422869999999875 82.71546999999998L59.45596999999998 82.52324999999996L58.518769999999904 83.04611999999997L57.31627000000003 83.04731000000004L57.06776999999988 83.36753999999996L56.7198699999999 83.16159000000005L55.131169999999884 80.35126000000002L55.11226999999985 80.27557000000002L53.90886999999998 78.87509999999997L53.56966999999986 77.90261999999996L52.47037 77.50581999999997L51.32226999999989 77.64697999999999L50.194769999999835 78.71398999999997L49.049870000000055 78.81362000000001L48.32226999999989 78.50945000000002L48.6564699999999 78.30980999999997L48.115769999999884 76.50754000000006L49.13666999999987 73.68349999999998L47.02076999999986 72.52940000000001L45.59056999999984 71.08605999999997L44.81257000000005 70.96128999999996L44.51367000000005 70.66276000000005L43.88756999999987 70.33463000000006L43.175070000000005 70.52061000000003z">
      <title id="t29">Troisième circonscription de l'Ardèche</title>
      <desc id="d29">Cantons de : Antraigues, Aubenas, Burzet, Coucouron, Joyeuse, Largentière, Montpezat-sous-Bauzon, Saint-Etienne-de-Lugdarès, Thueyts, Valgorge, Vallon-Pont-d'Arc, Vals-les-Bains, Les Vans, Villeneuve-de-Berg</desc>
    </path></svg>