<svg xmlns="http://www.w3.org/2000/svg" version="1.1" xmlns:xlink="http://www.w3.org/1999/xlink" xmlns:svgjs="http://svgjs.dev/svgjs" viewBox="0 0 116.22046999999986 123.6746"><path class="circo" id="id-008-01" d="M0.9607699999999113 96.08619999999996L1.4436699999999973 97.84778999999997L1.497569999999996 98.73884999999996L2.005869999999959 99.43969999999996L1.8442699999999377 100.32544999999999L3.663569999999936 100.4391L4.474069999999983 100.85526999999996L5.018370000000004 100.86153999999999L6.801169999999956 100.81007L7.544669999999996 100.80993999999998L9.936269999999922 100.51434L11.991469999999936 100.81687L14.038869999999974 100.9262L13.831669999999917 101.23196999999999L14.878169999999955 103.17899999999997L15.92906999999991 102.64687999999995L16.62527 103.12493999999998L18.235770000000002 103.35201L18.416470000000004 103.62593999999996L18.843369999999936 103.56939999999997L19.746869999999944 105.63866999999999L21.024869999999964 106.92863999999997L22.761469999999917 107.24208999999996L22.24626999999998 107.70636999999999L22.44407000000001 107.99237999999997L23.972170000000006 110.64218999999997L26.12426999999991 110.66775999999999L26.861170000000016 111.13164999999998L26.96697000000006 111.99401L27.83276999999987 111.95371999999998L28.59567000000004 111.43354999999997L29.6949699999999 111.00710999999995L31.360970000000066 110.41381999999999L31.861369999999965 109.68626L33.394570000000044 110.52873L35.86306999999999 110.06817999999998L35.55106999999987 108.77596999999997L34.42476999999997 107.35365999999999L33.806670000000054 105.68579L34.53986999999995 105.57941999999997L34.597669999999994 104.84465L35.46807000000001 104.79242999999997L35.864369999999894 104.04856000000001L36.288670000000025 104.14673999999997L37.33326999999997 102.77628999999996L37.497870000000034 101.92000999999999L36.49986999999999 101.18638999999996L36.90616999999986 100.42132999999995L37.03436999999997 99.69785999999999L36.59176999999988 99.05543999999998L37.54986999999994 97.72467999999998L37.63377000000003 95.41021999999998L38.338370000000054 94.89459L38.697970000000055 93.64954L41.130269999999996 90.63984999999997L40.53597000000002 90.25088L40.99096999999995 89.58330999999998L40.61956999999995 88.01513L41.032170000000065 88.0324L41.70866999999987 87.01705999999996L42.11686999999995 86.96024999999997L42.02317000000005 86.15355999999997L42.65226999999993 85.12063999999998L45.03426999999999 84.61282L45.59816999999987 83.04066999999998L45.47507000000007 81.78177999999997L46.580569999999966 81.22783999999996L47.365069999999946 81.45909L46.91557 79.97553999999997L47.41396999999995 78.42570999999998L48.595269999999914 77.41278L48.2429699999999 76.69849999999997L49.39666999999997 75.96303999999998L50.74347 75.68412000000001L51.514569999999935 76.13389999999998L52.06957 77.31680999999998L53.235070000000064 78.05998999999997L55.127669999999966 77.90084999999999L54.62596999999994 80.24404999999996L55.69826999999998 81.84977999999995L56.57456999999988 80.29739000000001L57.89747 80.01263L59.16007000000002 80.34521999999998L59.76396999999986 79.74239999999998L59.50816999999995 78.92510999999996L59.779570000000035 78.59532999999999L59.81736999999987 79.01907999999997L61.82366999999988 79.56298999999996L62.004769999999894 79.81671L62.85536999999988 79.60492999999997L63.45456999999999 78.97149999999999L65.94146999999987 79.80674999999997L67.68236999999988 79.65368000000001L69.12446999999986 78.00939L68.67737 76.86410000000001L67.95676999999989 76.46551L68.45026999999993 75.81106L68.37467000000004 73.59162999999995L68.8036699999999 73.49784L70.05346999999995 72.99527L68.7873699999999 70.13964999999996L69.46466999999996 68.99215999999996L67.84117000000003 68.93190999999996L68.5880699999999 67.87664000000001L69.04296999999985 65.51707999999996L69.50106999999991 64.74865999999997L69.59366999999986 62.99961999999999L69.21506999999986 62.11210999999997L69.55356999999992 61.88725999999997L69.95126999999991 61.80563999999998L70.18386999999996 61.024429999999995L69.64447000000007 59.506550000000004L69.54217000000006 59.39663999999999L69.07866999999999 57.639160000000004L69.55646999999988 55.392499999999984L70.06217000000004 54.68905000000001L69.83497 54.31959999999998L69.35046999999997 53.19887L69.42167000000006 52.36908999999997L69.36176999999986 50.93984999999998L68.9748699999999 50.27184999999997L68.59657000000004 50.35888L67.42987000000005 48.29996L65.07567000000006 48.17496999999997L64.15966999999989 47.65814999999998L63.02616999999998 47.04078999999996L62.602669999999875 47.185159999999996L62.248469999999884 47.98689999999999L62.520470000000046 49.28762999999998L62.21826999999996 49.616949999999974L62.14396999999997 48.76326L60.639769999999885 47.23982000000001L60.172969999999964 47.8544L60.07027000000005 48.07237999999995L59.78836999999987 50.656409999999994L59.18187 50.62356999999997L58.667170000000056 50.91891999999996L58.63806999999986 51.307709999999986L58.85217 51.92937999999998L58.774369999999976 52.36134999999996L58.263669999999934 52.16436999999996L58.13966999999991 51.71567999999996L57.110970000000066 51.55881999999997L56.84536999999989 52.15584999999999L57.39277000000004 52.558389999999974L57.39796999999987 52.94209999999998L58.707469999999944 53.19200000000001L59.26597000000004 53.18304999999998L59.413869999999974 53.45581999999996L58.87596999999994 53.64103L59.051669999999945 54.454849999999965L57.25096999999994 54.52117999999996L57.136769999999956 56.84258L56.80066999999997 57.40508L55.14576999999997 59.80273999999997L53.84096999999986 60.222879999999975L53.98746999999992 59.813649999999996L53.285169999999994 59.31209999999999L52.53566999999987 59.08715000000001L52.01526999999999 58.04944999999998L51.05616999999995 58.72913L49.37166999999988 58.816299999999956L47.79196999999988 60.912049999999965L46.57896999999991 61.37430999999998L46.00797 60.9436L46.176270000000045 60.41532000000001L46.91206999999997 57.95463999999998L46.23517000000004 56.851519999999994L47.40377000000001 55.23055999999997L46.101170000000025 55.10991999999999L45.1007699999999 53.701949999999954L43.03147000000001 53.20610999999997L43.138669999999934 52.53992999999997L42.067769999999996 52.231809999999996L41.78526999999997 50.60335999999995L42.511969999999906 49.136059999999986L41.873770000000036 48.75574999999998L41.579270000000065 48.302719999999965L40.830370000000016 46.22534999999999L40.00206999999989 46.14564999999999L39.01256999999998 45.40231L38.36896999999988 45.918259999999975L37.36866999999995 46.76718999999997L36.96916999999996 49.86395999999996L35.792969999999855 49.66593L35.229870000000005 49.35386L35.673169999999914 48.083969999999965L34.858769999999936 46.529139999999984L35.29656999999986 43.35931999999997L34.15557000000001 41.00978999999995L33.64206999999999 40.98868999999996L32.780869999999936 40.65693999999996L32.40447000000006 39.300509999999974L34.83186999999987 34.33598999999998L36.135869999999954 32.80381999999997L33.86207000000002 34.34087999999997L31.74626999999998 35.15677999999997L30.367169999999874 35.244929999999954L30.771569999999997 35.0446L30.882569999999873 32.830089999999984L30.16467 30.721259999999972L30.123969999999986 30.272099999999966L30.394069999999942 29.919579999999996L31.70366999999999 29.735070000000007L31.97036999999989 29.373149999999953L31.69717000000003 29.027719999999988L30.788169999999923 28.96655999999996L30.137869999999907 28.32490999999999L27.463069999999902 28.521759999999972L26.25797 27.132749999999987L24.903869999999984 26.91510999999997L24.169469999999933 26.36273L22.45876999999996 26.945899999999995L19.714269999999942 26.96796999999998L17.577769999999987 27.78282999999999L17.498269999999934 28.029639999999972L16.484469999999988 30.98406L16.27776999999992 33.272609999999986L16.649069999999938 34.04204999999996L17.62666999999999 34.215089999999975L17.906569999999988 34.91908999999998L19.50446999999997 34.89335999999997L19.024670000000015 40.26677000000001L18.93236999999999 41.09574999999995L17.62896999999998 42.18630999999999L17.331469999999968 43.846829999999954L16.76676999999995 44.402829999999994L16.022769999999923 47.795789999999954L16.426469999999995 47.94277999999997L17.06556999999998 49.49804999999998L16.70426999999995 50.28040999999996L15.612070000000017 50.964999999999975L15.305169999999976 51.284490000000005L15.979370000000017 52.395939999999996L16.84976999999992 52.163369999999986L18.340370000000007 53.14702L18.751769999999965 54.42696000000001L17.36286999999993 55.57311999999996L17.114569999999958 57.67190999999997L16.92656999999997 58.171220000000005L15.206469999999968 58.77211999999997L14.034369999999967 59.70058999999998L13.439269999999965 61.59562999999997L13.514769999999999 61.905129999999986L11.777469999999994 62.55930000000001L10.606769999999983 62.98608999999999L10.032870000000003 63.51020999999997L10.23626999999999 64.66668999999996L8.563670000000002 64.65789000000001L8.193869999999947 66.90812999999997L8.378370000000018 68.25358L7.732169999999996 69.43703L7.600369999999998 70.52157999999997L5.925269999999955 71.05832999999996L3.8426699999999983 70.16983999999997L2.063769999999977 70.30266L1.8052699999999504 69.92532L1.3659699999999475 69.87937999999997L1.0415699999999788 71.56525999999997L0 72.27209999999997L0.44619999999997617 73.03488999999996L1.8090700000000197 74.79993999999999L2.9180699999999433 75.36165L3.2443700000000035 75.65722999999997L2.8903699999999617 76.46668999999997L3.10636999999997 78.23118999999997L4.292069999999967 78.72443999999996L2.839969999999994 80.85075L2.053869999999961 81.23111999999998L2.178769999999986 82.08533L3.5079700000000003 82.33867999999995L4.196770000000015 82.88610999999997L4.149869999999964 85.12665999999996L4.099469999999997 85.55444L2.924570000000017 85.22185999999999L2.5136699999999337 86.81912999999997L1.2270699999999124 86.87018999999998L1.2316700000000083 88.57383999999996L1.2963699999999108 90.07542000000001L1.2871699999999464 90.50574999999998L1.3460699999999406 91.81759999999997L3.3897699999999986 95.12338999999997L2.9864699999999402 94.95578L1.7767699999999422 95.15933999999999L0.9607699999999113 96.08619999999996z">
      <title id="t30">Première circonscription des Ardennes</title>
      <desc id="d30">Cantons de : Asfeld, Charleville Centre, Château-Porcien, Chaumont-Porcien, Flize, Juniville, Mézières Est, Novion-Porcien, Omont, Rethel, Rumigny, Signy-l'Abbaye, Signy-le-Petit, Villers-Semeuse</desc>
    </path><path class="circo" id="id-008-02" d="M56.13187000000005 18.53294999999997L56.29417000000001 20.70429999999999L56.090069999999855 21.55435L56.809069999999906 22.671130000000005L54.54947000000004 22.69056999999998L51.593169999999986 23.86519999999996L48.42547000000002 24.06389999999999L46.73086999999998 24.704250000000002L46.233969999999886 25.694259999999986L45.498269999999934 26.196079999999995L43.73826999999994 26.407269999999983L42.321869999999876 28.64223999999996L41.22977000000003 29.238279999999975L38.548869999999965 29.19574L35.660870000000045 30.511409999999955L33.40036999999995 29.286099999999976L31.69717000000003 29.027719999999988L31.97036999999989 29.373149999999953L31.70366999999999 29.735070000000007L30.394069999999942 29.919579999999996L30.123969999999986 30.272099999999966L30.16467 30.721259999999972L30.882569999999873 32.830089999999984L30.771569999999997 35.0446L30.367169999999874 35.244929999999954L31.74626999999998 35.15677999999997L33.86207000000002 34.34087999999997L36.135869999999954 32.80381999999997L34.83186999999987 34.33598999999998L32.40447000000006 39.300509999999974L32.780869999999936 40.65693999999996L33.64206999999999 40.98868999999996L34.15557000000001 41.00978999999995L35.29656999999986 43.35931999999997L34.858769999999936 46.529139999999984L35.673169999999914 48.083969999999965L35.229870000000005 49.35386L35.792969999999855 49.66593L36.96916999999996 49.86395999999996L37.36866999999995 46.76718999999997L38.36896999999988 45.918259999999975L39.01256999999998 45.40231L40.00206999999989 46.14564999999999L40.830370000000016 46.22534999999999L41.579270000000065 48.302719999999965L41.873770000000036 48.75574999999998L42.511969999999906 49.136059999999986L41.78526999999997 50.60335999999995L42.067769999999996 52.231809999999996L43.138669999999934 52.53992999999997L43.03147000000001 53.20610999999997L45.1007699999999 53.701949999999954L46.101170000000025 55.10991999999999L47.40377000000001 55.23055999999997L46.23517000000004 56.851519999999994L46.91206999999997 57.95463999999998L46.176270000000045 60.41532000000001L46.00797 60.9436L46.57896999999991 61.37430999999998L47.79196999999988 60.912049999999965L49.37166999999988 58.816299999999956L51.05616999999995 58.72913L52.01526999999999 58.04944999999998L52.53566999999987 59.08715000000001L53.285169999999994 59.31209999999999L53.98746999999992 59.813649999999996L53.84096999999986 60.222879999999975L55.14576999999997 59.80273999999997L56.80066999999997 57.40508L57.136769999999956 56.84258L57.25096999999994 54.52117999999996L59.051669999999945 54.454849999999965L58.87596999999994 53.64103L59.413869999999974 53.45581999999996L59.26597000000004 53.18304999999998L58.707469999999944 53.19200000000001L57.39796999999987 52.94209999999998L57.39277000000004 52.558389999999974L56.84536999999989 52.15584999999999L57.110970000000066 51.55881999999997L58.13966999999991 51.71567999999996L58.263669999999934 52.16436999999996L58.774369999999976 52.36134999999996L58.85217 51.92937999999998L58.63806999999986 51.307709999999986L58.667170000000056 50.91891999999996L59.18187 50.62356999999997L59.78836999999987 50.656409999999994L60.07027000000005 48.07237999999995L60.172969999999964 47.8544L60.639769999999885 47.23982000000001L62.14396999999997 48.76326L62.21826999999996 49.616949999999974L62.520470000000046 49.28762999999998L62.248469999999884 47.98689999999999L62.602669999999875 47.185159999999996L63.02616999999998 47.04078999999996L64.15966999999989 47.65814999999998L65.07567000000006 48.17496999999997L67.42987000000005 48.29996L68.59657000000004 50.35888L68.9748699999999 50.27184999999997L69.36176999999986 50.93984999999998L70.60837000000004 50.75619999999998L71.01636999999994 50.01326999999998L70.45216999999991 49.31606999999997L72.02806999999996 46.101909999999975L71.48726999999997 43.451840000000004L70.75157000000002 42.99500999999998L70.45257000000004 42.14214999999996L70.14987000000008 40.33770999999996L71.03317000000004 39.40469999999999L72.81307000000004 35.622749999999996L73.00867000000005 33.812899999999956L72.45736999999997 32.52458999999999L70.73476999999991 30.968609999999956L69.61017000000004 28.957839999999976L66.94537000000003 28.25264999999996L64.99626999999998 27.706989999999962L64.91876999999988 26.31977999999998L65.39326999999992 24.558839999999975L66.27446999999995 24.297489999999982L67.10187000000008 23.183239999999955L67.51967000000002 19.079000000000008L69.19136999999989 16.92086999999998L68.93357000000003 16.076549999999997L68.15706999999986 15.601859999999988L68.1487699999999 14.675149999999974L67.40336999999988 14.180889999999977L67.53476999999987 13.571259999999995L69.09667000000002 12.983019999999954L69.20936999999992 11.24964L69.61937 11.118760000000009L69.18836999999996 9.906669999999963L70.02976999999998 8.946660000000008L70.85127 9.199359999999956L71.16557 10.069770000000005L71.56736999999987 10.297120000000007L71.92557 10.008029999999962L71.64386999999999 6.347479999999962L72.38486999999998 5.202629999999999L73.89936999999998 4.160879999999963L73.87356999999986 3.69802999999996L72.96087 3.5104900000000043L72.13297 1.8916699999999764L68.46257000000003 1.6634799999999927L67.70707000000004 0L65.98437000000001 2.199709999999982L64.0409699999999 3.490070000000003L62.807969999999955 4.012609999999995L62.02507000000003 6.102219999999988L61.60477000000003 6.14994999999999L61.632670000000076 7.414049999999975L58.561669999999935 8.964419999999961L58.40817000000004 9.366989999999987L57.504569999999944 9.54613999999998L55.72826999999995 13.258739999999989L56.14987000000008 14.57266999999996L57.01546999999994 14.36282L56.96496999999988 16.501299999999958L56.47196999999994 17.710549999999955L56.13187000000005 18.53294999999997z">
      <title id="t31">Deuxième circonscription des Ardennes</title>
      <desc id="d31">Cantons de : Charleville-la-Houillère, Fumay, Givet, Mézières Centre Ouest, Monthermé, Nouzonville, Renwez, Revin, Rocroi</desc>
    </path><path class="circo" id="id-008-03" d="M42.02317000000005 86.15355999999997L42.65226999999993 85.12063999999998L45.03426999999999 84.61282L45.59816999999987 83.04066999999998L45.47507000000007 81.78177999999997L46.580569999999966 81.22783999999996L47.365069999999946 81.45909L46.91557 79.97553999999997L47.41396999999995 78.42570999999998L48.595269999999914 77.41278L48.2429699999999 76.69849999999997L49.39666999999997 75.96303999999998L50.74347 75.68412000000001L51.514569999999935 76.13389999999998L52.06957 77.31680999999998L53.235070000000064 78.05998999999997L55.127669999999966 77.90084999999999L54.62596999999994 80.24404999999996L55.69826999999998 81.84977999999995L56.57456999999988 80.29739000000001L57.89747 80.01263L59.16007000000002 80.34521999999998L59.76396999999986 79.74239999999998L59.50816999999995 78.92510999999996L59.779570000000035 78.59532999999999L59.81736999999987 79.01907999999997L61.82366999999988 79.56298999999996L62.004769999999894 79.81671L62.85536999999988 79.60492999999997L63.45456999999999 78.97149999999999L65.94146999999987 79.80674999999997L67.68236999999988 79.65368000000001L69.12446999999986 78.00939L68.67737 76.86410000000001L67.95676999999989 76.46551L68.45026999999993 75.81106L68.37467000000004 73.59162999999995L68.8036699999999 73.49784L70.05346999999995 72.99527L68.7873699999999 70.13964999999996L69.46466999999996 68.99215999999996L67.84117000000003 68.93190999999996L68.5880699999999 67.87664000000001L69.04296999999985 65.51707999999996L69.50106999999991 64.74865999999997L69.59366999999986 62.99961999999999L69.21506999999986 62.11210999999997L69.55356999999992 61.88725999999997L69.95126999999991 61.80563999999998L70.18386999999996 61.024429999999995L69.64447000000007 59.506550000000004L69.54217000000006 59.39663999999999L69.07866999999999 57.639160000000004L69.55646999999988 55.392499999999984L70.06217000000004 54.68905000000001L69.83497 54.31959999999998L69.35046999999997 53.19887L69.42167000000006 52.36908999999997L69.36176999999986 50.93984999999998L70.60837000000004 50.75619999999998L71.01636999999994 50.01326999999998L72.14007000000004 49.49685999999997L73.18596999999988 50.17507999999998L74.06777 50.06013999999999L74.80057 50.49671999999998L76.08176999999989 50.113729999999975L76.94087000000002 50.35123999999996L77.29566999999986 49.7423L77.92246999999986 49.8288L78.23597000000007 48.97737999999998L79.00106999999991 48.530029999999954L82.04397000000006 48.57203999999996L82.92036999999993 49.43444999999997L84.03636999999992 51.29935999999998L86.74986999999999 52.532159999999976L88.63626999999985 53.65195L90.39496999999994 53.235979999999984L90.9802699999999 53.89499000000001L93.38346999999987 58.21447999999998L93.23036999999988 59.48195999999996L94.97887000000003 60.53362999999996L95.66377 59.43449999999996L96.44206999999994 59.76079999999996L96.83006999999986 60.52639999999997L96.8969699999999 62.687809999999956L98.96276999999998 62.47913999999997L99.74047000000007 62.76664999999997L100.50556999999992 62.48807999999997L101.10107000000005 63.17923999999999L102.41627000000005 63.023799999999994L103.69916999999998 63.47249999999997L105.58217000000002 62.288599999999974L106.61297000000002 63.18422999999996L106.66936999999996 63.63712999999996L106.75726999999995 63.65262999999999L107.12696999999991 64.14517000000001L109.89756999999997 66.52992L111.04246999999998 67.86455999999998L110.01926999999989 68.68405999999999L108.68717000000004 70.94232L109.54266999999993 73.30775999999997L110.13666999999998 73.02452L111.67846999999995 72.50747999999999L112.25247000000002 70.83891L116.22046999999986 72.64405999999997L115.21326999999985 74.13730999999996L114.83487000000002 75.85327999999998L113.49836999999991 75.92737L112.74247000000003 76.36100999999996L111.66807000000006 75.64752999999996L108.96406999999988 79.75641999999999L109.27006999999992 80.22255999999999L106.93907000000002 81.12288999999998L106.31716999999992 82.20506L105.09976999999992 82.51146999999997L104.16997000000003 80.56011999999998L102.71726999999998 79.83662999999996L102.68866999999989 78.93795L100.97096999999997 78.42400999999995L99.88267000000008 79.06272999999999L98.65817000000004 78.85891999999996L97.87236999999993 79.19182999999998L97.10307 79.65013999999996L96.35966999999994 79.25263999999999L95.76526999999999 77.95078999999998L95.14596999999992 76.30266L92.94486999999992 75.84580999999997L92.22347000000002 76.40283L91.78116999999986 77.70158999999995L92.40406999999993 79.85458L91.98206999999991 80.74565999999999L90.93586999999991 80.41964999999999L90.39156999999989 82.57015999999999L91.07516999999996 83.58213999999998L90.40836999999999 85.22683L90.03957000000003 85.32529999999997L89.34927000000005 86.84427L88.08686999999998 87.01234999999997L87.85806999999988 87.37115L89.10467000000006 89.73012999999997L89.56117000000006 89.77159999999998L89.95396999999991 90.53125999999997L89.82037000000003 91.86507999999998L90.91287 93.16868L91.32616999999993 93.05516999999998L91.51356999999996 93.19772L92.10716999999988 93.71099999999996L91.34446999999989 95.72658999999999L91.79217000000006 97.44382999999999L92.54656999999986 98.37349999999998L92.06246999999996 99.04080999999996L91.21106999999995 99.25416999999999L89.94916999999998 100.46339L90.3045699999999 101.24332999999996L91.62187000000006 102.39745999999997L91.1686699999999 104.02911L90.30196999999987 105.02843999999999L87.88676999999996 104.78172999999998L87.36506999999995 105.48751999999996L87.51337000000001 106.35872999999998L85.07236999999998 109.46671999999995L85.19136999999989 109.89209L85.26726999999994 110.71614L86.01186999999993 111.99831L85.34837000000005 112.61426999999998L85.38637000000006 113.04555999999997L86.31696999999997 114.54194999999999L87.58317 114.97570999999999L87.81857000000002 115.44725L86.99427000000003 116.27879999999999L87.11937 117.49237L85.82956999999999 117.86079999999998L84.96296999999993 117.62395999999995L83.70636999999999 118.11313999999999L82.65526999999986 118.84652L82.76036999999985 119.26384999999999L80.05156999999997 120.78249L79.39026999999999 121.93219999999997L78.60277000000008 122.33526999999998L78.56466999999986 121.89535000000001L76.29757000000006 120.54678999999999L77.13837000000001 119.10819999999995L75.40547000000004 118.70857999999998L73.39406999999994 119.50336999999996L72.2420699999999 118.92884999999995L72.7592699999999 119.62865999999997L71.0246699999999 122.07684L71.50597000000005 122.80352999999997L71.41766999999993 123.6746L68.07456999999988 122.53808999999995L68.30567000000008 121.52715L67.48787000000004 121.65461999999997L66.79757000000006 120.70319L64.89306999999997 121.68872999999996L63.18717000000004 121.33758L61.02796999999998 121.73546999999996L59.74337000000003 120.42268999999999L58.817969999999946 120.50433999999996L57.617470000000026 120.40328999999997L57.62166999999988 119.99241L56.426270000000045 119.65040999999997L55.661469999999895 120.14582999999999L54.760869999999954 121.76580999999999L53.44936999999993 122.06941999999998L52.36387000000002 122.85442L50.65336999999988 122.37288999999998L49.75636999999995 119.41571999999996L49.361170000000016 118.17201999999997L48.24716999999998 117.52141999999998L48.01896999999997 116.67217999999997L48.75996999999995 115.61158L46.853970000000004 114.69430999999997L45.120469999999955 114.72312L43.77986999999996 115.87313L41.60946999999999 116.46134999999998L39.6487699999999 116.60899L38.89406999999994 116.61588999999998L36.403670000000034 117.23713999999995L35.78096999999991 117.68948999999998L35.72237000000007 117.57014999999996L35.22527000000002 116.84287L33.920870000000036 116.62124L33.332970000000046 115.98611999999997L32.50427000000002 115.81657999999999L32.48576999999989 115.66748999999999L30.986870000000067 114.26743999999997L29.6949699999999 111.00710999999995L31.360970000000066 110.41381999999999L31.861369999999965 109.68626L33.394570000000044 110.52873L35.86306999999999 110.06817999999998L35.55106999999987 108.77596999999997L34.42476999999997 107.35365999999999L33.806670000000054 105.68579L34.53986999999995 105.57941999999997L34.597669999999994 104.84465L35.46807000000001 104.79242999999997L35.864369999999894 104.04856000000001L36.288670000000025 104.14673999999997L37.33326999999997 102.77628999999996L37.497870000000034 101.92000999999999L36.49986999999999 101.18638999999996L36.90616999999986 100.42132999999995L37.03436999999997 99.69785999999999L36.59176999999988 99.05543999999998L37.54986999999994 97.72467999999998L37.63377000000003 95.41021999999998L38.338370000000054 94.89459L38.697970000000055 93.64954L41.130269999999996 90.63984999999997L40.53597000000002 90.25088L40.99096999999995 89.58330999999998L40.61956999999995 88.01513L41.032170000000065 88.0324L41.70866999999987 87.01705999999996L42.11686999999995 86.96024999999997L42.02317000000005 86.15355999999997z">
      <title id="t32">Troisième circonscription des Ardennes</title>
      <desc id="d32">Cantons de : Attigny, Buzancy, Carignan, Le Chesne, Grandpré, Machault, Monthois, Mouzon, Raucourt-et-Flaba, Sedan Est, Sedan Nord, Sedan Ouest, Tourteron, Vouziers</desc>
    </path></svg>