<svg xmlns="http://www.w3.org/2000/svg" version="1.1" xmlns:xlink="http://www.w3.org/1999/xlink" xmlns:svgjs="http://svgjs.dev/svgjs" viewBox="999.09153 275.77755 116.22046999999986 123.6746"><path class="circo" id="008-01" d="M 1000.0523,371.86375 1000.5352,373.62534 1000.5891,374.5164 1001.0974,375.21725 1000.9358,376.103 1002.7551,376.21665 1003.5656,376.63282 1004.1099,376.63909 1005.8927,376.58762 1006.6362,376.58749 1009.0278,376.29189 1011.083,376.59442 1013.1304,376.70375 1012.9232,377.00952 1013.9697,378.95655 1015.0206,378.42443 1015.7168,378.90249 1017.3273,379.12956 1017.508,379.40349 1017.9349,379.34695 1018.8384,381.41622 1020.1164,382.70619 1021.853,383.01964 1021.3378,383.48392 1021.5356,383.76993 1023.0637,386.41974 1025.2158,386.44531 1025.9527,386.9092 1026.0585,387.77156 1026.9243,387.73127 1027.6872,387.2111 1028.7865,386.78466 1030.4525,386.19137 1030.9529,385.46381 1032.4861,386.30628 1034.9546,385.84573 1034.6426,384.55352 1033.5163,383.13121 1032.8982,381.46334 1033.6314,381.35697 1033.6892,380.6222 1034.5596,380.56998 1034.9559,379.82611 1035.3802,379.92429 1036.4248,378.55384 1036.5894,377.69756 1035.5914,376.96394 1035.9977,376.19888 1036.1259,375.47541 1035.6833,374.83299 1036.6414,373.50223 1036.7253,371.18777 1037.4299,370.67214 1037.7895,369.42709 1040.2218,366.4174 1039.6275,366.02843 1040.0825,365.36086 1039.7111,363.79268 1040.1237,363.80995 1040.8002,362.79461 1041.2084,362.7378 1041.1147,361.93111 1041.7438,360.89819 1044.1258,360.39037 1044.6897,358.81822 1044.5666,357.55933 1045.6721,357.00539 1046.4566,357.23664 1046.0071,355.75309 1046.5055,354.20326 1047.6868,353.19033 1047.3345,352.47605 1048.4882,351.74059 1049.835,351.46167 1050.6061,351.91145 1051.1611,353.09436 1052.3266,353.83754 1054.2192,353.6784 1053.7175,356.0216 1054.7898,357.62733 1055.6661,356.07494 1056.989,355.79018 1058.2516,356.12277 1058.8555,355.51995 1058.5997,354.70266 1058.8711,354.37288 1058.9089,354.79663 1060.9152,355.34054 1061.0963,355.59426 1061.9469,355.38248 1062.5461,354.74905 1065.033,355.5843 1066.7739,355.43123 1068.216,353.78694 1067.7689,352.64165 1067.0483,352.24306 1067.5418,351.58861 1067.4662,349.36918 1067.8952,349.27539 1069.145,348.77282 1067.8789,345.9172 1068.5562,344.76971 1066.9327,344.70946 1067.6796,343.65419 1068.1345,341.29463 1068.5926,340.52621 1068.6852,338.77717 1068.3066,337.88966 1068.6451,337.66481 1069.0428,337.58319 1069.2754,336.80198 1068.736,335.2841 1068.6337,335.17419 1068.1702,333.41671 1068.648,331.17005 1069.1537,330.4666 1068.9265,330.09715 1068.442,328.97642 1068.5132,328.14664 1068.4533,326.7174 1068.0664,326.0494 1067.6881,326.13643 1066.5214,324.07751 1064.1672,323.95252 1063.2512,323.4357 1062.1177,322.81834 1061.6942,322.96271 1061.34,323.76445 1061.612,325.06518 1061.3098,325.3945 1061.2355,324.54081 1059.7313,323.01737 1059.2645,323.63195 1059.1618,323.84993 1058.8799,326.43396 1058.2734,326.40112 1057.7587,326.69647 1057.7296,327.08526 1057.9437,327.70693 1057.8659,328.1389 1057.3552,327.94192 1057.2312,327.49323 1056.2025,327.33637 1055.9369,327.9334 1056.4843,328.33594 1056.4895,328.71965 1057.799,328.96955 1058.3575,328.9606 1058.5054,329.23337 1057.9675,329.41858 1058.1432,330.2324 1056.3425,330.29873 1056.2283,332.62013 1055.8922,333.18263 1054.2373,335.58029 1052.9325,336.00043 1053.079,335.5912 1052.3767,335.08965 1051.6272,334.8647 1051.1068,333.827 1050.1477,334.50668 1048.4632,334.59385 1046.8835,336.6896 1045.6705,337.15186 1045.0995,336.72115 1045.2678,336.19287 1046.0036,333.73219 1045.3267,332.62907 1046.4953,331.00811 1045.1927,330.88747 1044.1923,329.4795 1042.123,328.98366 1042.2302,328.31748 1041.1593,328.00936 1040.8768,326.38091 1041.6035,324.91361 1040.9653,324.5333 1040.6708,324.08027 1039.9219,322.0029 1039.0936,321.9232 1038.1041,321.17986 1037.4605,321.69581 1036.4602,322.54474 1036.0607,325.64151 1034.8845,325.44348 1034.3214,325.13141 1034.7647,323.86152 1033.9503,322.30669 1034.3881,319.13687 1033.2471,316.78734 1032.7336,316.76624 1031.8724,316.43449 1031.496,315.07806 1033.9234,310.11354 1035.2274,308.58137 1032.9536,310.11843 1030.8378,310.93433 1029.4587,311.02248 1029.8631,310.82215 1029.9741,308.60764 1029.2562,306.49881 1029.2155,306.04965 1029.4856,305.69713 1030.7952,305.51262 1031.0619,305.1507 1030.7887,304.80527 1029.8797,304.74411 1029.2294,304.10246 1026.5546,304.29931 1025.3495,302.9103 1023.9954,302.69266 1023.261,302.14028 1021.5503,302.72345 1018.8058,302.74552 1016.6693,303.56038 1016.5898,303.80719 1015.576,306.76161 1015.3693,309.05016 1015.7406,309.8196 1016.7182,309.99264 1016.9981,310.69664 1018.596,310.67091 1018.1162,316.04432 1018.0239,316.8733 1016.7205,317.96386 1016.423,319.62438 1015.8583,320.18038 1015.1143,323.57334 1015.518,323.72033 1016.1571,325.2756 1015.7958,326.05796 1014.7036,326.74255 1014.3967,327.06204 1015.0709,328.17349 1015.9413,327.94092 1017.4319,328.92457 1017.8433,330.20451 1016.4544,331.35067 1016.2061,333.44946 1016.0181,333.94877 1014.298,334.54967 1013.1259,335.47814 1012.5308,337.37318 1012.6063,337.68268 1010.869,338.33685 1009.6983,338.76364 1009.1244,339.28776 1009.3278,340.44424 1007.6552,340.43544 1007.2854,342.68568 1007.4699,344.03113 1006.8237,345.21458 1006.6919,346.29913 1005.0168,346.83588 1002.9342,345.94739 1001.1553,346.08021 1000.8968,345.70287 1000.4575,345.65693 1000.1331,347.34281 999.09153,348.04965 999.53773,348.81244 1000.9006,350.57749 1002.0096,351.1392 1002.3359,351.43478 1001.9819,352.24424 1002.1979,354.00874 1003.3836,354.50199 1001.9315,356.6283 1001.1454,357.00867 1001.2703,357.86288 1002.5995,358.11623 1003.2883,358.66366 1003.2414,360.90421 1003.191,361.33199 1002.0161,360.99941 1001.6052,362.59668 1000.3186,362.64774 1000.3232,364.35139 1000.3879,365.85297 1000.3787,366.2833 1000.4376,367.59515 1002.4813,370.90094 1002.078,370.73333 1000.8683,370.93689 1000.0523,371.86375 z">
      <title id="t30">Première circonscription des Ardennes</title>
      <desc id="d30">Cantons de : Asfeld, Charleville Centre, Château-Porcien, Chaumont-Porcien, Flize, Juniville, Mézières Est, Novion-Porcien, Omont, Rethel, Rumigny, Signy-l'Abbaye, Signy-le-Petit, Villers-Semeuse</desc>
    </path><path class="circo" id="008-02" d="M 1055.2234,294.3105 1055.3857,296.48185 1055.1816,297.3319 1055.9006,298.44868 1053.641,298.46812 1050.6847,299.64275 1047.517,299.84145 1045.8224,300.4818 1045.3255,301.47181 1044.5898,301.97363 1042.8298,302.18482 1041.4134,304.41979 1040.3213,305.01583 1037.6404,304.97329 1034.7524,306.28896 1032.4919,305.06365 1030.7887,304.80527 1031.0619,305.1507 1030.7952,305.51262 1029.4856,305.69713 1029.2155,306.04965 1029.2562,306.49881 1029.9741,308.60764 1029.8631,310.82215 1029.4587,311.02248 1030.8378,310.93433 1032.9536,310.11843 1035.2274,308.58137 1033.9234,310.11354 1031.496,315.07806 1031.8724,316.43449 1032.7336,316.76624 1033.2471,316.78734 1034.3881,319.13687 1033.9503,322.30669 1034.7647,323.86152 1034.3214,325.13141 1034.8845,325.44348 1036.0607,325.64151 1036.4602,322.54474 1037.4605,321.69581 1038.1041,321.17986 1039.0936,321.9232 1039.9219,322.0029 1040.6708,324.08027 1040.9653,324.5333 1041.6035,324.91361 1040.8768,326.38091 1041.1593,328.00936 1042.2302,328.31748 1042.123,328.98366 1044.1923,329.4795 1045.1927,330.88747 1046.4953,331.00811 1045.3267,332.62907 1046.0036,333.73219 1045.2678,336.19287 1045.0995,336.72115 1045.6705,337.15186 1046.8835,336.6896 1048.4632,334.59385 1050.1477,334.50668 1051.1068,333.827 1051.6272,334.8647 1052.3767,335.08965 1053.079,335.5912 1052.9325,336.00043 1054.2373,335.58029 1055.8922,333.18263 1056.2283,332.62013 1056.3425,330.29873 1058.1432,330.2324 1057.9675,329.41858 1058.5054,329.23337 1058.3575,328.9606 1057.799,328.96955 1056.4895,328.71965 1056.4843,328.33594 1055.9369,327.9334 1056.2025,327.33637 1057.2312,327.49323 1057.3552,327.94192 1057.8659,328.1389 1057.9437,327.70693 1057.7296,327.08526 1057.7587,326.69647 1058.2734,326.40112 1058.8799,326.43396 1059.1618,323.84993 1059.2645,323.63195 1059.7313,323.01737 1061.2355,324.54081 1061.3098,325.3945 1061.612,325.06518 1061.34,323.76445 1061.6942,322.96271 1062.1177,322.81834 1063.2512,323.4357 1064.1672,323.95252 1066.5214,324.07751 1067.6881,326.13643 1068.0664,326.0494 1068.4533,326.7174 1069.6999,326.53375 1070.1079,325.79082 1069.5437,325.09362 1071.1196,321.87946 1070.5788,319.22939 1069.8431,318.77256 1069.5441,317.9197 1069.2414,316.11526 1070.1247,315.18225 1071.9046,311.4003 1072.1002,309.59045 1071.5489,308.30214 1069.8263,306.74616 1068.7017,304.73539 1066.0369,304.0302 1064.0878,303.48454 1064.0103,302.09733 1064.4848,300.33639 1065.366,300.07504 1066.1934,298.96079 1066.6112,294.85655 1068.2829,292.69842 1068.0251,291.8541 1067.2486,291.37941 1067.2403,290.4527 1066.4949,289.95844 1066.6263,289.34881 1068.1882,288.76057 1068.3009,287.02719 1068.7109,286.89631 1068.2799,285.68422 1069.1213,284.72421 1069.9428,284.97691 1070.2571,285.84732 1070.6589,286.07467 1071.0171,285.78558 1070.7354,282.12503 1071.4764,280.98018 1072.9909,279.93843 1072.9651,279.47558 1072.0524,279.28804 1071.2245,277.66922 1067.5541,277.44103 1066.7986,275.77755 1065.0759,277.97726 1063.1325,279.26762 1061.8995,279.79016 1061.1166,281.87977 1060.6963,281.9275 1060.7242,283.1916 1057.6532,284.74197 1057.4997,285.14454 1056.5961,285.32369 1054.8198,289.03629 1055.2414,290.35022 1056.107,290.14037 1056.0565,292.27885 1055.5635,293.4881 1055.2234,294.3105 z">
      <title id="t31">Deuxième circonscription des Ardennes</title>
      <desc id="d31">Cantons de : Charleville-la-Houillère, Fumay, Givet, Mézières Centre Ouest, Monthermé, Nouzonville, Renwez, Revin, Rocroi</desc>
    </path><path class="circo" id="008-03" d="M 1041.1147,361.93111 1041.7438,360.89819 1044.1258,360.39037 1044.6897,358.81822 1044.5666,357.55933 1045.6721,357.00539 1046.4566,357.23664 1046.0071,355.75309 1046.5055,354.20326 1047.6868,353.19033 1047.3345,352.47605 1048.4882,351.74059 1049.835,351.46167 1050.6061,351.91145 1051.1611,353.09436 1052.3266,353.83754 1054.2192,353.6784 1053.7175,356.0216 1054.7898,357.62733 1055.6661,356.07494 1056.989,355.79018 1058.2516,356.12277 1058.8555,355.51995 1058.5997,354.70266 1058.8711,354.37288 1058.9089,354.79663 1060.9152,355.34054 1061.0963,355.59426 1061.9469,355.38248 1062.5461,354.74905 1065.033,355.5843 1066.7739,355.43123 1068.216,353.78694 1067.7689,352.64165 1067.0483,352.24306 1067.5418,351.58861 1067.4662,349.36918 1067.8952,349.27539 1069.145,348.77282 1067.8789,345.9172 1068.5562,344.76971 1066.9327,344.70946 1067.6796,343.65419 1068.1345,341.29463 1068.5926,340.52621 1068.6852,338.77717 1068.3066,337.88966 1068.6451,337.66481 1069.0428,337.58319 1069.2754,336.80198 1068.736,335.2841 1068.6337,335.17419 1068.1702,333.41671 1068.648,331.17005 1069.1537,330.4666 1068.9265,330.09715 1068.442,328.97642 1068.5132,328.14664 1068.4533,326.7174 1069.6999,326.53375 1070.1079,325.79082 1071.2316,325.27441 1072.2775,325.95263 1073.1593,325.83769 1073.8921,326.27427 1075.1733,325.89128 1076.0324,326.12879 1076.3872,325.51985 1077.014,325.60635 1077.3275,324.75493 1078.0926,324.30758 1081.1355,324.34959 1082.0119,325.212 1083.1279,327.07691 1085.8414,328.30971 1087.7278,329.4295 1089.4865,329.01353 1090.0718,329.67254 1092.475,333.99203 1092.3219,335.25951 1094.0704,336.31118 1094.7553,335.21205 1095.5336,335.53835 1095.9216,336.30395 1095.9885,338.46536 1098.0543,338.25669 1098.832,338.5442 1099.5971,338.26563 1100.1926,338.95679 1101.5078,338.80135 1102.7907,339.25005 1104.6737,338.06615 1105.7045,338.96178 1105.7609,339.41468 1105.8488,339.43018 1106.2185,339.92272 1108.9891,342.30747 1110.134,343.64211 1109.1108,344.46161 1107.7787,346.71987 1108.6342,349.08531 1109.2282,348.80207 1110.77,348.28503 1111.344,346.61646 1115.312,348.42161 1114.3048,349.91486 1113.9264,351.63083 1112.5899,351.70492 1111.834,352.13856 1110.7596,351.42508 1108.0556,355.53397 1108.3616,356.00011 1106.0306,356.90044 1105.4087,357.98261 1104.1913,358.28902 1103.2615,356.33767 1101.8088,355.61418 1101.7802,354.7155 1100.0625,354.20156 1098.9742,354.84028 1097.7497,354.63647 1096.9639,354.96938 1096.1946,355.42769 1095.4512,355.03019 1094.8568,353.72834 1094.2375,352.08021 1092.0364,351.62336 1091.315,352.18038 1090.8727,353.47914 1091.4956,355.63213 1091.0736,356.52321 1090.0274,356.1972 1089.4831,358.34771 1090.1667,359.35969 1089.4999,361.00438 1089.1311,361.10285 1088.4408,362.62182 1087.1784,362.7899 1086.9496,363.1487 1088.1962,365.50768 1088.6527,365.54915 1089.0455,366.30881 1088.9119,367.64263 1090.0044,368.94623 1090.4177,368.83272 1090.6051,368.97527 1091.1987,369.48855 1090.436,371.50414 1090.8837,373.22138 1091.6381,374.15105 1091.154,374.81836 1090.3026,375.03172 1089.0407,376.24094 1089.3961,377.02088 1090.7134,378.17501 1090.2602,379.80666 1089.3935,380.80599 1086.9783,380.55928 1086.4566,381.26507 1086.6049,382.13628 1084.1639,385.24427 1084.2829,385.66964 1084.3588,386.49369 1085.1034,387.77586 1084.4399,388.39182 1084.4779,388.82311 1085.4085,390.3195 1086.6747,390.75326 1086.9101,391.2248 1086.0858,392.05635 1086.2109,393.26992 1084.9211,393.63835 1084.0545,393.40151 1082.7979,393.89069 1081.7468,394.62407 1081.8519,395.0414 1079.1431,396.56004 1078.4818,397.70975 1077.6943,398.11282 1077.6562,397.6729 1075.3891,396.32434 1076.2299,394.88575 1074.497,394.48613 1072.4856,395.28092 1071.3336,394.7064 1071.8508,395.40621 1070.1162,397.85439 1070.5975,398.58108 1070.5092,399.45215 1067.1661,398.31564 1067.3972,397.3047 1066.5794,397.43217 1065.8891,396.48074 1063.9846,397.46628 1062.2787,397.11513 1060.1195,397.51302 1058.8349,396.20024 1057.9095,396.28189 1056.709,396.18084 1056.7132,395.76996 1055.5178,395.42796 1054.753,395.92338 1053.8524,397.54336 1052.5409,397.84697 1051.4554,398.63197 1049.7449,398.15044 1048.8479,395.19327 1048.4527,393.94957 1047.3387,393.29897 1047.1105,392.44973 1047.8515,391.38913 1045.9455,390.47186 1044.212,390.50067 1042.8714,391.65068 1040.701,392.2389 1038.7403,392.38654 1037.9856,392.39344 1035.4952,393.01469 1034.8725,393.46704 1034.8139,393.3477 1034.3168,392.62042 1033.0124,392.39879 1032.4245,391.76367 1031.5958,391.59413 1031.5773,391.44504 1030.0784,390.04499 1028.7865,386.78466 1030.4525,386.19137 1030.9529,385.46381 1032.4861,386.30628 1034.9546,385.84573 1034.6426,384.55352 1033.5163,383.13121 1032.8982,381.46334 1033.6314,381.35697 1033.6892,380.6222 1034.5596,380.56998 1034.9559,379.82611 1035.3802,379.92429 1036.4248,378.55384 1036.5894,377.69756 1035.5914,376.96394 1035.9977,376.19888 1036.1259,375.47541 1035.6833,374.83299 1036.6414,373.50223 1036.7253,371.18777 1037.4299,370.67214 1037.7895,369.42709 1040.2218,366.4174 1039.6275,366.02843 1040.0825,365.36086 1039.7111,363.79268 1040.1237,363.80995 1040.8002,362.79461 1041.2084,362.7378 1041.1147,361.93111 z">
      <title id="t32">Troisième circonscription des Ardennes</title>
      <desc id="d32">Cantons de : Attigny, Buzancy, Carignan, Le Chesne, Grandpré, Machault, Monthois, Mouzon, Raucourt-et-Flaba, Sedan Est, Sedan Nord, Sedan Ouest, Tourteron, Vouziers</desc>
    </path></svg>