<svg xmlns="http://www.w3.org/2000/svg" version="1.1" xmlns:xlink="http://www.w3.org/1999/xlink" xmlns:svgjs="http://svgjs.dev/svgjs" viewBox="0 0 114.65449999999998 86.29860000000008"><path class="circo" id="id-009-01" d="M93.91680000000008 65.65239999999994L93.76909999999998 65.15779999999995L92.33940000000007 64.68290000000002L91.9991 63.99530000000004L92.04380000000003 63.62609999999995L93.13100000000009 63.393499999999904L93.6961 62.912000000000035L91.35919999999999 59.89650000000006L91.0974 59.65740000000005L90.85800000000006 58.93560000000002L88.65520000000004 58.23329999999987L87.7817 57.55919999999992L87.84960000000001 56.79209999999989L89.15800000000002 55.39319999999998L89.11099999999999 54.64629999999988L89.1857 53.905899999999974L90.30310000000009 53.86199999999985L95.24040000000002 53.39989999999989L96.35540000000003 52.85629999999992L98.46320000000003 51.756599999999935L98.19810000000007 51.02150000000006L98.82760000000007 47.1588999999999L98.08350000000007 44.942800000000034L94.10180000000003 43.83240000000001L91.80590000000007 42.88740000000007L91.44560000000001 42.94990000000007L91.18130000000008 43.626199999999926L91.12570000000005 44.723399999999856L90.77769999999998 44.61239999999998L90.09080000000006 42.66079999999988L87.95780000000002 41.753299999999854L85.97120000000007 41.712299999999914L85.05040000000008 41.8753999999999L85.01520000000005 41.11649999999986L85.24710000000005 40.81529999999998L86.0009 40.89390000000003L86.43900000000008 39.885499999999865L84.73470000000009 38.90859999999998L83.77430000000004 38.475799999999936L83.08000000000004 37.52780000000007L81.01490000000001 36.5945999999999L80.30110000000002 37.452600000000075L79.01440000000002 38.22019999999998L77.9357 36.52610000000004L78.37 35.40460000000007L78.0195 34.71699999999987L78.53380000000004 34.156600000000026L78.54730000000006 32.63560000000007L79.66309999999999 32.6733999999999L80.32130000000006 30.41899999999987L79.2627 29.735500000000002L78.54520000000002 29.39949999999999L77.55240000000003 31.359500000000025L76.99900000000002 31.95530000000008L75.08630000000005 30.808299999999917L74.83730000000003 30.239000000000033L75.15140000000008 28.980000000000018L75.14300000000003 28.204600000000028L74.05340000000001 28.029999999999973L73.62959999999998 27.38390000000004L73.3714 26.655299999999897L73.66630000000009 25.93730000000005L72.47480000000007 26.18450000000007L69.71340000000009 25.833499999999958L68.93140000000005 26.043899999999894L68.22969999999998 28.124700000000075L67.90960000000007 28.735300000000052L67.5462 28.701999999999998L66.03390000000002 28.58089999999993L65.34400000000005 28.2029L65.70710000000008 26.791500000000042L63.299800000000005 26.1259L62.694900000000075 26.427999999999884L62.555900000000065 27.50579999999991L61.51780000000008 27.951999999999998L60.23580000000004 29.807399999999916L59.63290000000006 29.293300000000045L59.37250000000006 28.52669999999989L60.01940000000002 27.24369999999999L59.68119999999999 26.562200000000075L59.80250000000001 25.055200000000013L57.13639999999998 25.72129999999993L56.70429999999999 26.369300000000067L54.52080000000001 27.136099999999942L53.540500000000065 28.115299999999934L53.34860000000003 28.80880000000002L53.56820000000005 28.947799999999916L53.33960000000002 30.008399999999938L51.94659999999999 30.280700000000024L51.87549999999999 30.63689999999997L49.685100000000034 31.48759999999993L49.35850000000005 31.262899999999945L49.49509999999998 30.48479999999995L48.733400000000074 30.508599999999888L47.560299999999984 31.428300000000036L45.38070000000005 30.69489999999996L43.1934 32.24530000000004L42.8288 32.2029L41.64060000000006 32.36310000000003L41.41870000000006 33.05099999999993L39.56310000000008 33.47810000000004L39.530700000000024 35.06860000000006L41.4624 35.44830000000002L41.886300000000006 36.128299999999854L43.20080000000007 36.26459999999997L46.47110000000009 35.047000000000025L46.218900000000076 36.05809999999997L46.552400000000034 36.67329999999993L46.96840000000009 37.04539999999997L47.05770000000007 38.20589999999993L48.829900000000066 39.01109999999994L48.51920000000007 39.0936999999999L47.16640000000007 39.90930000000003L46.87200000000007 42.25790000000006L47.766500000000065 44.0163L47.74860000000001 44.82490000000007L47.25819999999999 45.46980000000008L46.496399999999994 45.71309999999994L45.99310000000003 45.1232L42.925500000000056 44.46069999999986L41.02800000000002 44.53369999999995L39.225200000000086 45.03409999999985L37.92920000000004 44.103799999999865L36.00570000000005 44.41579999999999L34.19900000000007 43.658300000000054L32.24560000000008 45.04150000000004L31.941700000000083 46.55199999999991L31.03150000000005 46.643800000000056L30.325000000000045 47.45249999999987L29.24380000000008 47.43159999999989L28.9914 47.71720000000005L28.208399999999983 48.440000000000055L28.24599999999998 48.808700000000044L27.836700000000064 49.89840000000004L26.15510000000006 50.85739999999987L25.98180000000002 52.01749999999993L24.473500000000058 51.92930000000001L23.495900000000006 51.29770000000008L22.88130000000001 49.81729999999993L22.24630000000002 49.05410000000006L21.73090000000002 48.47070000000008L22.166600000000017 46.57479999999987L21.988000000000056 45.4221L19.179200000000037 40.28039999999987L19.068200000000047 40.1262999999999L18.032800000000066 39.90229999999997L17.177099999999996 39.037399999999934L14.315699999999993 37.82809999999995L12.956000000000017 39.733999999999924L11.732799999999997 40.15539999999987L9.470900000000029 40.75450000000001L8.583700000000022 40.63359999999989L7.306500000000028 41.48039999999992L4.0996000000000095 41.668699999999944L4.989400000000046 44.22939999999994L4.360300000000052 45.14650000000006L3.2420000000000755 45.19249999999988L2.5909000000000333 45.59140000000002L1.4499000000000706 45.4532999999999L1.1945000000000618 45.74440000000004L0 46.57719999999995L0.6417999999999893 48.284200000000055L1.2240000000000464 48.81099999999992L1.3771000000000413 49.58439999999996L0.7290000000000418 51.43989999999985L1.0850000000000364 52.143800000000056L1.830000000000041 52.39779999999996L2.072400000000016 53.86079999999993L2.8221000000000913 55.531999999999925L2.6881000000000768 56.99019999999996L3.4399000000000797 57.90480000000002L4.955400000000054 58.455999999999904L7.063300000000027 60.33490000000006L8.427500000000009 61.16669999999999L8.824200000000019 61.249000000000024L10.24860000000001 59.853000000000065L11.312600000000089 59.31680000000006L13.352700000000027 61.46789999999987L15.207200000000057 61.03620000000001L16.321500000000015 61.4695999999999L17.921600000000012 61.531600000000026L18.922700000000077 62.09739999999988L20.932900000000018 61.95820000000003L21.422900000000027 61.317999999999984L22.356499999999983 62.58179999999993L23.793999999999983 63.23969999999986L25.672500000000014 65.22530000000006L26.25 68.38439999999991L28.759300000000053 70.44399999999996L29.545400000000086 70.50579999999991L30.884700000000066 69.59359999999992L33.25120000000004 69.07439999999997L34.22289999999998 68.33860000000004L35.34590000000003 68.76299999999992L36.52240000000006 69.78469999999993L37.6173 69.46080000000006L38.718200000000024 69.79150000000004L39.83019999999999 69.34069999999997L41.02640000000008 69.47509999999988L42.43150000000003 68.75720000000001L43.230999999999995 68.76520000000005L43.63980000000004 69.36950000000002L45.11040000000003 69.29909999999995L44.639099999999985 71.21180000000004L45.594100000000026 71.93859999999995L46.77940000000001 72.22720000000004L47.706300000000056 73.0139999999999L47.84490000000005 75.04179999999997L49.84120000000007 77.02099999999996L50.589200000000005 80.20830000000001L52.04399999999998 82.60230000000001L53.65000000000009 82.66519999999991L55.02210000000002 81.81489999999985L54.728200000000015 79.0824L55.51150000000007 77.22810000000004L56.70230000000004 76.95569999999998L57.39700000000005 77.8777L58.92910000000006 77.75729999999999L59.11650000000009 77.4212L60.13190000000009 77.35019999999986L61.416900000000055 76.66859999999997L61.721900000000005 76.86979999999994L63.599199999999996 77.55469999999991L64.27750000000003 79.00959999999986L65.95940000000007 80.05160000000001L68.72340000000008 79.72260000000006L69.9049 79.99509999999987L70.85310000000004 80.73929999999996L72.80439999999999 80.27420000000006L75.40370000000007 81.32600000000002L77.34250000000009 81.04320000000007L77.46109999999999 81.79629999999997L76.57510000000002 83.13149999999996L76.6354 84.30669999999986L79.69730000000004 85.31780000000003L80.89780000000007 85.17229999999995L81.55490000000009 86.14819999999986L82.70910000000003 86.29860000000008L84.83630000000005 85.26909999999998L85.97739999999999 84.94910000000004L88.28740000000005 85.42489999999998L89.06569999999999 85.24880000000007L88.98220000000003 84.46519999999987L90.09910000000002 84.16599999999994L90.60170000000005 83.56919999999991L90.68370000000004 82.40419999999995L91.26030000000003 81.38139999999999L92.14970000000005 82.17180000000008L93.35630000000003 82.11680000000001L94.0924 82.45879999999988L94.81310000000008 82.11889999999994L95.52440000000001 81.14570000000003L97.10480000000007 81.1694L97.72540000000004 80.66899999999987L97.70460000000003 79.9339L98.95030000000008 77.71530000000007L99.56100000000004 76.06659999999988L99.91290000000004 76.0465999999999L101.30079999999998 76.90419999999995L102.03430000000003 77.02399999999989L103.41280000000006 76.46039999999994L103.73149999999998 75.75599999999986L104.92280000000005 75.95799999999986L106.0154 75.52089999999998L108.79180000000008 75.6114L110.60530000000006 74.77929999999992L111.9008 75.72550000000001L112.68080000000009 75.93110000000001L113.84980000000007 75.71810000000005L113.90870000000007 74.92329999999993L114.65449999999998 73.54109999999991L114.21900000000005 72.41439999999989L113.46220000000005 71.4855L112.28110000000004 71.40249999999992L111.68670000000009 70.8723L111.58960000000002 70.13689999999997L109.40860000000009 68.71199999999999L108.28050000000007 67.8768L107.34710000000007 67.30489999999986L107.07560000000001 65.52099999999996L106.95580000000007 65.56809999999996L104.67500000000007 65.12549999999987L103.46760000000006 66.06029999999987L102.70410000000004 66.12789999999995L102.35070000000007 66.74630000000002L101.43299999999999 66.91589999999997L100.05610000000001 67.66679999999997L99.6078 67.38740000000007L99.00700000000006 67.51999999999998L95.50630000000001 67.18900000000008L94.9425 66.19949999999994L93.91680000000008 65.65239999999994z">
      <title id="t33">Première circonscription d'Ariège</title>
      <desc id="d33">Cantons de : Ax-les-Thermes, La Bastide-de-Sérou, Les Cabannes, Castillon-en-Couserans, Foix-Rural, Foix-Ville, Lavelanet, Massat, Oust, Quérigut, Tarascon-sur-Ariège, Varilhes, Vicdessos</desc>
    </path><path class="circo" id="id-009-02" d="M53.158300000000054 12.05399999999986L52.28629999999998 11.628400000000056L51.414300000000026 11.364599999999882L50.190200000000004 10.392100000000028L50.947400000000016 6.971199999999953L48.96810000000005 4.548199999999952L48.89850000000001 4.4224999999999L46.97390000000007 3.1107999999999265L45.816599999999994 1.108699999999999L46.44029999999998 0.6238000000000739L44.10000000000002 0L42.89319999999998 0.1937000000000353L42.270500000000084 0.7113999999999123L41.6499 2.1140000000000327L40.86940000000004 2.191699999999855L40.365600000000086 3.261799999999994L39.59820000000002 3.1680999999998676L40.33840000000009 4.975799999999936L39.73260000000005 5.904800000000023L42.824100000000044 6.404600000000073L42.77920000000006 6.804599999999937L41.79900000000009 7.512199999999893L43.35329999999999 7.835199999999986L44.33910000000003 8.448599999999942L44.702600000000075 8.275100000000066L45.778099999999995 8.577999999999975L46.442800000000034 8.24409999999989L46.6001 8.972499999999854L47.225400000000036 9.837299999999914L47.030200000000036 10.874099999999999L46.20060000000001 12.235500000000002L45.05010000000004 11.962399999999889L42.598100000000045 12.947999999999865L42.75049999999999 13.826999999999998L42.136100000000056 14.530299999999897L41.47480000000007 14.646199999999908L40.719400000000064 14.07289999999989L39.91719999999998 14.729100000000017L38.24680000000001 13.998599999999897L37.37290000000007 14.473199999999906L37.525100000000066 14.554799999999886L36.25960000000009 15.369300000000067L35.93060000000003 15.42599999999993L35.495700000000056 14.758100000000013L34.31050000000005 14.950399999999945L34.090400000000045 16.510600000000068L33.171800000000076 17.75929999999994L33.192600000000084 18.54099999999994L33.75070000000005 19.06619999999998L34.92590000000007 19.31009999999992L36.44040000000007 19.54690000000005L38.01229999999998 19.495400000000018L38.25300000000004 20.240499999999884L40.464200000000005 22.5L39.3972 22.401499999999942L38.68130000000008 23.61779999999999L38.44190000000003 23.93619999999987L36.89570000000003 24.200599999999895L36.990600000000086 26.102499999999964L35.601600000000076 26.518800000000056L33.73650000000009 26.769000000000005L32.62340000000006 24.32680000000005L32.85530000000006 24.055399999999963L32.646799999999985 23.373000000000047L31.596499999999992 22.1712L29.606499999999983 20.3590999999999L28.97180000000003 21.4070999999999L28.563600000000065 21.41249999999991L27.130800000000022 20.64339999999993L25.279700000000048 18.50279999999998L24.2586 19.492700000000013L23.95270000000005 19.980000000000018L22.506900000000087 20.224699999999984L22.210700000000088 21.191900000000032L20.082300000000032 20.62760000000003L19.283800000000042 19.83719999999994L19.140899999999988 20.016900000000078L18.84730000000002 20.68859999999995L19.179700000000025 21.295599999999922L19.054399999999987 22.823399999999992L17.98210000000006 25.094900000000052L16.899700000000053 24.880999999999858L15.540000000000077 23.560799999999972L14.807999999999993 23.468399999999974L15.052800000000047 24.48350000000005L14.418099999999981 25.345000000000027L14.060500000000047 25.361499999999978L14.024400000000014 26.158300000000054L15.15440000000001 27.271999999999935L14.700900000000047 27.86559999999986L14.083500000000072 28.368199999999888L12.886600000000044 28.272199999999884L13.507200000000012 29.498800000000074L13.352600000000052 30.593399999999974L13.79340000000002 31.198499999999967L14.159800000000018 31.132699999999886L14.253900000000044 32.12959999999998L14.15039999999999 32.16370000000006L13.411100000000033 31.545299999999997L13.801000000000045 34.04309999999987L14.461099999999988 33.975099999999884L15.40809999999999 34.581699999999955L15.878600000000006 35.59789999999998L16.635600000000068 35.577800000000025L15.202400000000011 36.05529999999999L14.315699999999993 37.82809999999995L17.177099999999996 39.037399999999934L18.032800000000066 39.90229999999997L19.068200000000047 40.1262999999999L19.179200000000037 40.28039999999987L21.988000000000056 45.4221L22.166600000000017 46.57479999999987L21.73090000000002 48.47070000000008L22.24630000000002 49.05410000000006L22.88130000000001 49.81729999999993L23.495900000000006 51.29770000000008L24.473500000000058 51.92930000000001L25.98180000000002 52.01749999999993L26.15510000000006 50.85739999999987L27.836700000000064 49.89840000000004L28.24599999999998 48.808700000000044L28.208399999999983 48.440000000000055L28.9914 47.71720000000005L29.24380000000008 47.43159999999989L30.325000000000045 47.45249999999987L31.03150000000005 46.643800000000056L31.941700000000083 46.55199999999991L32.24560000000008 45.04150000000004L34.19900000000007 43.658300000000054L36.00570000000005 44.41579999999999L37.92920000000004 44.103799999999865L39.225200000000086 45.03409999999985L41.02800000000002 44.53369999999995L42.925500000000056 44.46069999999986L45.99310000000003 45.1232L46.496399999999994 45.71309999999994L47.25819999999999 45.46980000000008L47.74860000000001 44.82490000000007L47.766500000000065 44.0163L46.87200000000007 42.25790000000006L47.16640000000007 39.90930000000003L48.51920000000007 39.0936999999999L48.829900000000066 39.01109999999994L47.05770000000007 38.20589999999993L46.96840000000009 37.04539999999997L46.552400000000034 36.67329999999993L46.218900000000076 36.05809999999997L46.47110000000009 35.047000000000025L43.20080000000007 36.26459999999997L41.886300000000006 36.128299999999854L41.4624 35.44830000000002L39.530700000000024 35.06860000000006L39.56310000000008 33.47810000000004L41.41870000000006 33.05099999999993L41.64060000000006 32.36310000000003L42.8288 32.2029L43.1934 32.24530000000004L45.38070000000005 30.69489999999996L47.560299999999984 31.428300000000036L48.733400000000074 30.508599999999888L49.49509999999998 30.48479999999995L49.35850000000005 31.262899999999945L49.685100000000034 31.48759999999993L51.87549999999999 30.63689999999997L51.94659999999999 30.280700000000024L53.33960000000002 30.008399999999938L53.56820000000005 28.947799999999916L53.34860000000003 28.80880000000002L53.540500000000065 28.115299999999934L54.52080000000001 27.136099999999942L56.70429999999999 26.369300000000067L57.13639999999998 25.72129999999993L59.80250000000001 25.055200000000013L59.68119999999999 26.562200000000075L60.01940000000002 27.24369999999999L59.37250000000006 28.52669999999989L59.63290000000006 29.293300000000045L60.23580000000004 29.807399999999916L61.51780000000008 27.951999999999998L62.555900000000065 27.50579999999991L62.694900000000075 26.427999999999884L63.299800000000005 26.1259L65.70710000000008 26.791500000000042L65.34400000000005 28.2029L66.03390000000002 28.58089999999993L67.5462 28.701999999999998L67.90960000000007 28.735300000000052L68.22969999999998 28.124700000000075L68.93140000000005 26.043899999999894L69.71340000000009 25.833499999999958L72.47480000000007 26.18450000000007L73.66630000000009 25.93730000000005L73.3714 26.655299999999897L73.62959999999998 27.38390000000004L74.05340000000001 28.029999999999973L75.14300000000003 28.204600000000028L75.15140000000008 28.980000000000018L74.83730000000003 30.239000000000033L75.08630000000005 30.808299999999917L76.99900000000002 31.95530000000008L77.55240000000003 31.359500000000025L78.54520000000002 29.39949999999999L79.2627 29.735500000000002L80.32130000000006 30.41899999999987L79.66309999999999 32.6733999999999L78.54730000000006 32.63560000000007L78.53380000000004 34.156600000000026L78.0195 34.71699999999987L78.37 35.40460000000007L77.9357 36.52610000000004L79.01440000000002 38.22019999999998L80.30110000000002 37.452600000000075L81.01490000000001 36.5945999999999L83.08000000000004 37.52780000000007L83.77430000000004 38.475799999999936L84.73470000000009 38.90859999999998L86.43900000000008 39.885499999999865L86.0009 40.89390000000003L85.24710000000005 40.81529999999998L85.01520000000005 41.11649999999986L85.05040000000008 41.8753999999999L85.97120000000007 41.712299999999914L87.95780000000002 41.753299999999854L90.09080000000006 42.66079999999988L90.77769999999998 44.61239999999998L91.12570000000005 44.723399999999856L91.18130000000008 43.626199999999926L91.44560000000001 42.94990000000007L91.80590000000007 42.88740000000007L94.10180000000003 43.83240000000001L94.30640000000005 42.332999999999856L95.66500000000008 41.887500000000045L95.59550000000002 41.51559999999995L96.47580000000005 41.17689999999993L97.98220000000003 41.35149999999999L98.76510000000007 42.17910000000006L99.4905 42.09889999999996L100.15200000000004 41.228599999999915L99.02390000000003 41.006799999999885L98.53870000000006 40.42699999999991L98.32670000000007 38.108799999999974L98.64060000000006 37.40129999999999L98.47199999999998 36.3581999999999L97.12150000000008 35.839500000000044L98.49950000000001 34.03340000000003L98.52430000000004 33.28019999999992L97.9882 32.356199999999944L97.68870000000004 31.844299999999976L96.42669999999998 30.999900000000025L95.83159999999998 31.323699999999917L95.13330000000008 31.019199999999955L94.66809999999998 29.601300000000037L94.99350000000004 28.977499999999964L96.43510000000003 29.00630000000001L96.59649999999999 28.670399999999972L96.07159999999999 27.694500000000062L95.46609999999998 27.26189999999997L95.97559999999999 26.824699999999893L95.5385 24.852699999999913L95.6114 23.8137999999999L95.0652 22.527599999999893L93.61440000000005 22.314699999999903L93.56440000000009 21.696099999999888L92.61750000000006 21.237699999999904L91.6105 21.501899999999978L90.61130000000003 23.136600000000044L90.39330000000007 22.39799999999991L89.58519999999999 21.573499999999967L89.58960000000002 19.593900000000076L89.0661 20.164199999999937L87.56640000000004 19.933299999999917L87.15100000000007 18.071500000000015L86.62530000000004 18.546699999999873L86.84550000000002 19.616800000000012L84.96040000000005 19.81029999999987L84.55670000000009 19.424299999999903L82.83609999999999 18.49019999999996L81.33699999999999 18.803499999999985L80.98880000000008 18.100400000000036L78.89600000000007 16.868799999999965L77.60090000000002 15.310199999999895L76.43450000000007 14.915899999999965L75.23540000000003 15.013999999999896L75.05280000000005 14.644700000000057L75.08730000000003 13.491399999999885L76.32730000000004 12.02229999999986L76.00530000000003 10.917300000000068L76.2663 10.629799999999932L75.60110000000009 10.170399999999972L74.25800000000004 8.170799999999872L74.32210000000009 6.5948000000000775L73.24970000000008 4.897600000000011L71.99110000000007 3.9881000000000313L70.03560000000004 6.5L70.476 7.532999999999902L70.43299999999999 8.33479999999986L69.50780000000009 9.098099999999931L68.71590000000003 9.15280000000007L68.89120000000003 7.179200000000037L66.26200000000006 6.40930000000003L65.81299999999999 5.753500000000031L64.25340000000006 5.44439999999986L63.93470000000002 4.714899999999943L63.204900000000066 4.933999999999969L63.406400000000076 6.063599999999951L63.11080000000004 6.787199999999984L62.794700000000034 7.017800000000079L62.08320000000003 6.091899999999896L61.35080000000005 4.787299999999959L61.091499999999996 4.5190000000000055L60.77600000000007 4.718000000000075L60.78010000000006 4.602399999999989L58.732000000000085 5.1206999999999425L58.582700000000045 3.629799999999932L58.540500000000065 2.887899999999945L58.22270000000003 2.6900000000000546L57.794500000000085 3.304300000000012L56.91230000000007 2.6539999999999964L56.81140000000005 4.508100000000013L56.27089999999998 5.475300000000061L56.60820000000001 6.152499999999918L56.464200000000005 6.8378999999999905L57.03640000000007 7.10310000000004L57.61800000000005 7.702099999999973L56.591600000000085 9.182999999999993L57.564500000000066 9.803699999999935L57.56350000000009 10.579400000000078L57.57320000000004 11.036799999999857L56.130300000000034 10.388599999999997L55.41870000000006 10.747499999999945L55.150800000000004 11.49779999999987L54.57680000000005 12.364100000000008L53.158300000000054 12.05399999999986z">
      <title id="t34">Deuxième circonscription d'Ariège</title>
      <desc id="d34">Cantons de : Le Fossat, Le Mas-d'Azil, Mirepoix, Pamiers Est, Pamiers Ouest, Sainte-Croix-Volvestre, Saint-Girons, Saint-Lizier, Saverdun</desc>
    </path></svg>