<svg xmlns="http://www.w3.org/2000/svg" version="1.1" xmlns:xlink="http://www.w3.org/1999/xlink" xmlns:svgjs="http://svgjs.dev/svgjs" viewBox="727.11853 1127.3649 114.65449999999998 86.29860000000008"><path class="circo" id="id-009-01" d="M 821.03533,1193.0173 820.88763,1192.5227 819.45793,1192.0478 819.11763,1191.3602 819.16233,1190.991 820.24953,1190.7584 820.81463,1190.2769 818.47773,1187.2614 818.21593,1187.0223 817.97653,1186.3005 815.77373,1185.5982 814.90023,1184.9241 814.96813,1184.157 816.27653,1182.7581 816.22953,1182.0112 816.30423,1181.2708 817.42163,1181.2269 822.35893,1180.7648 823.47393,1180.2212 825.58173,1179.1215 825.31663,1178.3864 825.94613,1174.5238 825.20203,1172.3077 821.22033,1171.1973 818.92443,1170.2523 818.56413,1170.3148 818.29983,1170.9911 818.24423,1172.0883 817.89623,1171.9773 817.20933,1170.0257 815.07633,1169.1182 813.08973,1169.0772 812.16893,1169.2403 812.13373,1168.4814 812.36563,1168.1802 813.11943,1168.2588 813.55753,1167.2504 811.85323,1166.2735 810.89283,1165.8407 810.19853,1164.8927 808.13343,1163.9595 807.41963,1164.8175 806.13293,1165.5851 805.05423,1163.891 805.48853,1162.7695 805.13803,1162.0819 805.65233,1161.5215 805.66583,1160.0005 806.78163,1160.0383 807.43983,1157.7839 806.38123,1157.1004 805.66373,1156.7644 804.67093,1158.7244 804.11753,1159.3202 802.20483,1158.1732 801.95583,1157.6039 802.26993,1156.3449 802.26153,1155.5695 801.17193,1155.3949 800.74813,1154.7488 800.48993,1154.0202 800.78483,1153.3022 799.59333,1153.5494 796.83193,1153.1984 796.04993,1153.4088 795.34823,1155.4896 795.02813,1156.1002 794.66473,1156.0669 793.15243,1155.9458 792.46253,1155.5678 792.82563,1154.1564 790.41833,1153.4908 789.81343,1153.7929 789.67443,1154.8707 788.63633,1155.3169 787.35433,1157.1723 786.75143,1156.6582 786.49103,1155.8916 787.13793,1154.6086 786.79973,1153.9271 786.92103,1152.4201 784.25493,1153.0862 783.82283,1153.7342 781.63933,1154.501 780.65903,1155.4802 780.46713,1156.1737 780.68673,1156.3127 780.45813,1157.3733 779.06513,1157.6456 778.99403,1158.0018 776.80363,1158.8525 776.47703,1158.6278 776.61363,1157.8497 775.85193,1157.8735 774.67883,1158.7932 772.49923,1158.0598 770.31193,1159.6102 769.94733,1159.5678 768.75913,1159.728 768.53723,1160.4159 766.68163,1160.843 766.64923,1162.4335 768.58093,1162.8132 769.00483,1163.4932 770.31933,1163.6295 773.58963,1162.4119 773.33743,1163.423 773.67093,1164.0382 774.08693,1164.4103 774.17623,1165.5708 775.94843,1166.376 775.63773,1166.4586 774.28493,1167.2742 773.99053,1169.6228 774.88503,1171.3812 774.86713,1172.1898 774.37673,1172.8347 773.61493,1173.078 773.11163,1172.4881 770.04403,1171.8256 768.14653,1171.8986 766.34373,1172.399 765.04773,1171.4687 763.12423,1171.7807 761.31753,1171.0232 759.36413,1172.4064 759.06023,1173.9169 758.15003,1174.0087 757.44353,1174.8174 756.36233,1174.7965 756.10993,1175.0821 755.32693,1175.8049 755.36453,1176.1736 754.95523,1177.2633 753.27363,1178.2223 753.10033,1179.3824 751.59203,1179.2942 750.61443,1178.6626 749.99983,1177.1822 749.36483,1176.419 748.84943,1175.8356 749.28513,1173.9397 749.10653,1172.787 746.29773,1167.6453 746.18673,1167.4912 745.15133,1167.2672 744.29563,1166.4023 741.43423,1165.193 740.07453,1167.0989 738.85133,1167.5203 736.58943,1168.1194 735.70223,1167.9985 734.42503,1168.8453 731.21813,1169.0336 732.10793,1171.5943 731.47883,1172.5114 730.36053,1172.5574 729.70943,1172.9563 728.56843,1172.8182 728.31303,1173.1093 727.11853,1173.9421 727.76033,1175.6491 728.34253,1176.1759 728.49563,1176.9493 727.84753,1178.8048 728.20353,1179.5087 728.94853,1179.7627 729.19093,1181.2257 729.94063,1182.8969 729.80663,1184.3551 730.55843,1185.2697 732.07393,1185.8209 734.18183,1187.6998 735.54603,1188.5316 735.94273,1188.6139 737.36713,1187.2179 738.43113,1186.6817 740.47123,1188.8328 742.32573,1188.4011 743.44003,1188.8345 745.04013,1188.8965 746.04123,1189.4623 748.05143,1189.3231 748.54143,1188.6829 749.47503,1189.9467 750.91253,1190.6046 752.79103,1192.5902 753.36853,1195.7493 755.87783,1197.8089 756.66393,1197.8707 758.00323,1196.9585 760.36973,1196.4393 761.34143,1195.7035 762.46443,1196.1279 763.64093,1197.1496 764.73583,1196.8257 765.83673,1197.1564 766.94873,1196.7056 768.14493,1196.84 769.55003,1196.1221 770.34953,1196.1301 770.75833,1196.7344 772.22893,1196.664 771.75763,1198.5767 772.71263,1199.3035 773.89793,1199.5921 774.82483,1200.3789 774.96343,1202.4067 776.95973,1204.3859 777.70773,1207.5732 779.16253,1209.9672 780.76853,1210.0301 782.14063,1209.1798 781.84673,1206.4473 782.63003,1204.593 783.82083,1204.3206 784.51553,1205.2426 786.04763,1205.1222 786.23503,1204.7861 787.25043,1204.7151 788.53543,1204.0335 788.84043,1204.2347 790.71773,1204.9196 791.39603,1206.3745 793.07793,1207.4165 795.84193,1207.0875 797.02343,1207.36 797.97163,1208.1042 799.92293,1207.6391 802.52223,1208.6909 804.46103,1208.4081 804.57963,1209.1612 803.69363,1210.4964 803.75393,1211.6716 806.81583,1212.6827 808.01633,1212.5372 808.67343,1213.5131 809.82763,1213.6635 811.95483,1212.634 813.09593,1212.314 815.40593,1212.7898 816.18423,1212.6137 816.10073,1211.8301 817.21763,1211.5309 817.72023,1210.9341 817.80223,1209.7691 818.37883,1208.7463 819.26823,1209.5367 820.47483,1209.4817 821.21093,1209.8237 821.93163,1209.4838 822.64293,1208.5106 824.22333,1208.5343 824.84393,1208.0339 824.82313,1207.2988 826.06883,1205.0802 826.67953,1203.4315 827.03143,1203.4115 828.41933,1204.2691 829.15283,1204.3889 830.53133,1203.8253 830.85003,1203.1209 832.04133,1203.3229 833.13393,1202.8858 835.91033,1202.9763 837.72383,1202.1442 839.01933,1203.0904 839.79933,1203.296 840.96833,1203.083 841.02723,1202.2882 841.77303,1200.906 841.33753,1199.7793 840.58073,1198.8504 839.39963,1198.7674 838.80523,1198.2372 838.70813,1197.5018 836.52713,1196.0769 835.39903,1195.2417 834.46563,1194.6698 834.19413,1192.8859 834.07433,1192.933 831.79353,1192.4904 830.58613,1193.4252 829.82263,1193.4928 829.46923,1194.1112 828.55153,1194.2808 827.17463,1195.0317 826.72633,1194.7523 826.12553,1194.8849 822.62483,1194.5539 822.06103,1193.5644 821.03533,1193.0173 z">
      <title id="t33">Première circonscription d'Ariège</title>
      <desc id="d33">Cantons de : Ax-les-Thermes, La Bastide-de-Sérou, Les Cabannes, Castillon-en-Couserans, Foix-Rural, Foix-Ville, Lavelanet, Massat, Oust, Quérigut, Tarascon-sur-Ariège, Varilhes, Vicdessos</desc>
    </path><path class="circo" id="id-009-02" d="M 780.27683,1139.4189 779.40483,1138.9933 778.53283,1138.7295 777.30873,1137.757 778.06593,1134.3361 776.08663,1131.9131 776.01703,1131.7874 774.09243,1130.4757 772.93513,1128.4736 773.55883,1127.9887 771.21853,1127.3649 770.01173,1127.5586 769.38903,1128.0763 768.76843,1129.4789 767.98793,1129.5566 767.48413,1130.6267 766.71673,1130.533 767.45693,1132.3407 766.85113,1133.2697 769.94263,1133.7695 769.89773,1134.1695 768.91753,1134.8771 770.47183,1135.2001 771.45763,1135.8135 771.82113,1135.64 772.89663,1135.9429 773.56133,1135.609 773.71863,1136.3374 774.34393,1137.2022 774.14873,1138.239 773.31913,1139.6004 772.16863,1139.3273 769.71663,1140.3129 769.86903,1141.1919 769.25463,1141.8952 768.59333,1142.0111 767.83793,1141.4378 767.03573,1142.094 765.36533,1141.3635 764.49143,1141.8381 764.64363,1141.9197 763.37813,1142.7342 763.04913,1142.7909 762.61423,1142.123 761.42903,1142.3153 761.20893,1143.8755 760.29033,1145.1242 760.31113,1145.9059 760.86923,1146.4311 762.04443,1146.675 763.55893,1146.9118 765.13083,1146.8603 765.37153,1147.6054 767.58273,1149.8649 766.51573,1149.7664 765.79983,1150.9827 765.56043,1151.3011 764.01423,1151.5655 764.10913,1153.4674 762.72013,1153.8837 760.85503,1154.1339 759.74193,1151.6917 759.97383,1151.4203 759.76533,1150.7379 758.71503,1149.5361 756.72503,1147.724 756.09033,1148.772 755.68213,1148.7774 754.24933,1148.0083 752.39823,1145.8677 751.37713,1146.8576 751.07123,1147.3449 749.62543,1147.5896 749.32923,1148.5568 747.20083,1147.9925 746.40233,1147.2021 746.25943,1147.3818 745.96583,1148.0535 746.29823,1148.6605 746.17293,1150.1883 745.10063,1152.4598 744.01823,1152.2459 742.65853,1150.9257 741.92653,1150.8333 742.17133,1151.8484 741.53663,1152.7099 741.17903,1152.7264 741.14293,1153.5232 742.27293,1154.6369 741.81943,1155.2305 741.20203,1155.7331 740.00513,1155.6371 740.62573,1156.8637 740.47113,1157.9583 740.91193,1158.5634 741.27833,1158.4976 741.37243,1159.4945 741.26893,1159.5286 740.52963,1158.9102 740.91953,1161.408 741.57963,1161.34 742.52663,1161.9466 742.99713,1162.9628 743.75413,1162.9427 742.32093,1163.4202 741.43423,1165.193 744.29563,1166.4023 745.15133,1167.2672 746.18673,1167.4912 746.29773,1167.6453 749.10653,1172.787 749.28513,1173.9397 748.84943,1175.8356 749.36483,1176.419 749.99983,1177.1822 750.61443,1178.6626 751.59203,1179.2942 753.10033,1179.3824 753.27363,1178.2223 754.95523,1177.2633 755.36453,1176.1736 755.32693,1175.8049 756.10993,1175.0821 756.36233,1174.7965 757.44353,1174.8174 758.15003,1174.0087 759.06023,1173.9169 759.36413,1172.4064 761.31753,1171.0232 763.12423,1171.7807 765.04773,1171.4687 766.34373,1172.399 768.14653,1171.8986 770.04403,1171.8256 773.11163,1172.4881 773.61493,1173.078 774.37673,1172.8347 774.86713,1172.1898 774.88503,1171.3812 773.99053,1169.6228 774.28493,1167.2742 775.63773,1166.4586 775.94843,1166.376 774.17623,1165.5708 774.08693,1164.4103 773.67093,1164.0382 773.33743,1163.423 773.58963,1162.4119 770.31933,1163.6295 769.00483,1163.4932 768.58093,1162.8132 766.64923,1162.4335 766.68163,1160.843 768.53723,1160.4159 768.75913,1159.728 769.94733,1159.5678 770.31193,1159.6102 772.49923,1158.0598 774.67883,1158.7932 775.85193,1157.8735 776.61363,1157.8497 776.47703,1158.6278 776.80363,1158.8525 778.99403,1158.0018 779.06513,1157.6456 780.45813,1157.3733 780.68673,1156.3127 780.46713,1156.1737 780.65903,1155.4802 781.63933,1154.501 783.82283,1153.7342 784.25493,1153.0862 786.92103,1152.4201 786.79973,1153.9271 787.13793,1154.6086 786.49103,1155.8916 786.75143,1156.6582 787.35433,1157.1723 788.63633,1155.3169 789.67443,1154.8707 789.81343,1153.7929 790.41833,1153.4908 792.82563,1154.1564 792.46253,1155.5678 793.15243,1155.9458 794.66473,1156.0669 795.02813,1156.1002 795.34823,1155.4896 796.04993,1153.4088 796.83193,1153.1984 799.59333,1153.5494 800.78483,1153.3022 800.48993,1154.0202 800.74813,1154.7488 801.17193,1155.3949 802.26153,1155.5695 802.26993,1156.3449 801.95583,1157.6039 802.20483,1158.1732 804.11753,1159.3202 804.67093,1158.7244 805.66373,1156.7644 806.38123,1157.1004 807.43983,1157.7839 806.78163,1160.0383 805.66583,1160.0005 805.65233,1161.5215 805.13803,1162.0819 805.48853,1162.7695 805.05423,1163.891 806.13293,1165.5851 807.41963,1164.8175 808.13343,1163.9595 810.19853,1164.8927 810.89283,1165.8407 811.85323,1166.2735 813.55753,1167.2504 813.11943,1168.2588 812.36563,1168.1802 812.13373,1168.4814 812.16893,1169.2403 813.08973,1169.0772 815.07633,1169.1182 817.20933,1170.0257 817.89623,1171.9773 818.24423,1172.0883 818.29983,1170.9911 818.56413,1170.3148 818.92443,1170.2523 821.22033,1171.1973 821.42493,1169.6979 822.78353,1169.2524 822.71403,1168.8805 823.59433,1168.5418 825.10073,1168.7164 825.88363,1169.544 826.60903,1169.4638 827.27053,1168.5935 826.14243,1168.3717 825.65723,1167.7919 825.44523,1165.4737 825.75913,1164.7662 825.59053,1163.7231 824.24003,1163.2044 825.61803,1161.3983 825.64283,1160.6451 825.10673,1159.7211 824.80723,1159.2092 823.54523,1158.3648 822.95013,1158.6886 822.25183,1158.3841 821.78663,1156.9662 822.11203,1156.3424 823.55363,1156.3712 823.71503,1156.0353 823.19013,1155.0594 822.58463,1154.6268 823.09413,1154.1896 822.65703,1152.2176 822.72993,1151.1787 822.18373,1149.8925 820.73293,1149.6796 820.68293,1149.061 819.73603,1148.6026 818.72903,1148.8668 817.72983,1150.5015 817.51183,1149.7629 816.70373,1148.9384 816.70813,1146.9588 816.18463,1147.5291 814.68493,1147.2982 814.26953,1145.4364 813.74383,1145.9116 813.96403,1146.9817 812.07893,1147.1752 811.67523,1146.7892 809.95463,1145.8551 808.45553,1146.1684 808.10733,1145.4653 806.01453,1144.2337 804.71943,1142.6751 803.55303,1142.2808 802.35393,1142.3789 802.17133,1142.0096 802.20583,1140.8563 803.44583,1139.3872 803.12383,1138.2822 803.38483,1137.9947 802.71963,1137.5353 801.37653,1135.5357 801.44063,1133.9597 800.36823,1132.2625 799.10963,1131.353 797.15413,1133.8649 797.59453,1134.8979 797.55153,1135.6997 796.62633,1136.463 795.83443,1136.5177 796.00973,1134.5441 793.38053,1133.7742 792.93153,1133.1184 791.37193,1132.8093 791.05323,1132.0798 790.32343,1132.2989 790.52493,1133.4285 790.22933,1134.1521 789.91323,1134.3827 789.20173,1133.4568 788.46933,1132.1522 788.21003,1131.8839 787.89453,1132.0829 787.89863,1131.9673 785.85053,1132.4856 785.70123,1130.9947 785.65903,1130.2528 785.34123,1130.0549 784.91303,1130.6692 784.03083,1130.0189 783.92993,1131.873 783.38943,1132.8402 783.72673,1133.5174 783.58273,1134.2028 784.15493,1134.468 784.73653,1135.067 783.71013,1136.5479 784.68303,1137.1686 784.68203,1137.9443 784.69173,1138.4017 783.24883,1137.7535 782.53723,1138.1124 782.26933,1138.8627 781.69533,1139.729 780.27683,1139.4189 z">
      <title id="t34">Deuxième circonscription d'Ariège</title>
      <desc id="d34">Cantons de : Le Fossat, Le Mas-d'Azil, Mirepoix, Pamiers Est, Pamiers Ouest, Sainte-Croix-Volvestre, Saint-Girons, Saint-Lizier, Saverdun</desc>
    </path></svg>