<svg xmlns="http://www.w3.org/2000/svg" version="1.1" xmlns:xlink="http://www.w3.org/1999/xlink" xmlns:svgjs="http://svgjs.dev/svgjs" viewBox="944.50453 465.48111 125.66246999999987 101.35808000000003"><path class="circo" id="010-01" d="M 1004.3489,467.77368 1003.6402,467.48365 1002.4621,469.27351 1002.6028,470.4845 1002.1999,471.25711 1000.6229,472.6555 999.42373,472.82369 997.00223,472.27855 995.51593,473.81554 994.92473,476.36911 995.20323,476.70569 994.65413,477.0784 994.02033,476.64833 993.29283,477.66557 992.54333,480.05399 989.97373,479.72748 989.32653,480.25773 989.07383,480.26981 988.22873,483.62423 987.04193,483.3033 986.96343,483.32437 984.52093,483.16569 984.54303,483.99115 985.28363,484.34352 984.86683,486.01675 984.95853,487.74707 985.45613,487.74784 984.29263,490.12575 982.79073,491.07018 982.05883,491.38919 980.47673,496.07082 980.87823,497.19029 981.56193,497.68296 982.07413,497.09439 982.76923,497.36695 983.35903,497.92922 983.69613,497.69514 984.36403,498.13946 984.37713,501.51324 985.05763,502.02443 983.54573,503.38751 984.11503,504.73482 985.47263,505.58264 985.77503,506.7148 986.95153,506.97212 987.96123,506.23715 990.30113,508.76099 994.65463,505.86394 995.88073,507.65529 996.64523,508.67371 998.23903,510.26341 999.57583,511.79453 999.99115,512.67813 1001.4616,514.61581 1002.7326,515.28527 1003.2068,516.51904 1003.5311,516.84318 1003.4854,517.46434 1003.4407,517.72385 1003.6081,518.07248 1003.6368,518.45029 1003.2504,518.70373 1003.4919,519.12095 1003.2512,519.30204 1004.9252,521.04188 1006.18,520.63528 1007.2745,521.77148 1007.8424,521.15429 1010.0721,522.20611 1011.2924,522.28503 1011.7601,521.1829 1009.9174,519.77051 1010.1535,519.45327 1011.0552,519.25152 1010.4854,518.15654 1010.7457,516.43761 1011.9512,514.72884 1013.4862,515.47551 1014.1914,516.61478 1015.7045,515.76955 1016.6963,517.1837 1019.007,518.32778 1019.8431,519.3117 1021.0758,520.48939 1023.154,520.05695 1023.835,520.59593 1024.1501,521.70008 1025.3315,521.29812 1025.8087,522.08209 1026.7489,522.45106 1028.0704,524.0263 1028.9518,523.93361 1029.2112,524.29659 1028.6611,525.96419 1028.7061,527.72106 1029.4035,529.08708 1029.9604,528.79836 1030.7196,528.71989 1031.6226,529.56727 1032.3586,529.37732 1033.1166,529.93173 1032.5715,530.52564 1032.2898,531.68219 1032.5185,532.01452 1032.0323,533.22218 1030.8614,533.70832 1030.2756,535.3442 1030.7536,536.06149 1030.3841,537.2958 1031.4276,537.57242 1031.3771,538.2273 1033.2587,538.80466 1033.4359,539.05205 1035.2599,542.05983 1036.9359,542.42678 1037.9807,543.68038 1037.7896,544.00091 1036.4609,545.566 1035.0053,546.2949 1034.0567,550.43453 1035.506,550.61688 1037.302,551.22595 1038.7123,552.00889 1038.7408,552.00953 1038.6898,554.17083 1038.9918,554.48652 1040.095,554.58539 1040.9169,554.89979 1041.9585,556.29 1042.4001,556.32951 1043.6373,556.37893 1044.0105,555.60402 1046.0386,553.56254 1047.7186,553.28761 1048.5276,553.5558 1049.2881,553.17664 1049.7249,554.06992 1051.9042,554.02594 1054.0612,555.25534 1055.9984,554.25712 1056.72,554.59187 1057.1164,554.39679 1057.0432,553.08982 1058.3279,551.34763 1057.2187,550.66533 1055.6081,548.01706 1053.0226,547.35515 1052.7507,547.08937 1055.5844,546.23586 1056.7803,545.90196 1056.9487,545.08545 1056.6901,544.73851 1058.432,543.57231 1059.069,541.97172 1059.8354,542.4539 1061.6322,542.52494 1063.7451,543.26806 1066.1332,543.99416 1067.7828,543.79062 1067.6946,542.21874 1067.2911,540.74568 1069.118,539.15358 1068.1227,537.80699 1067.9695,536.52461 1068.1618,535.678 1069.0097,534.68151 1068.8616,534.26721 1069.6277,532.66843 1069.6453,532.65274 1070.1586,531.93954 1070.167,530.60932 1068.2044,529.709 1067.8833,528.89545 1069.239,527.95573 1068.5387,526.50702 1068.7499,525.70315 1068.6493,525.44696 1068.8126,524.58564 1069.9086,523.28189 1068.51,521.04788 1069.1819,519.42056 1067.889,518.5624 1067.0934,518.65543 1067.009,517.39523 1066.0685,516.00106 1068.385,513.89743 1067.7918,513.25635 1066.4704,513.18307 1064.2555,511.77061 1062.7042,511.59727 1060.9991,510.43307 1061.4758,507.73747 1060.3233,507.137 1057.7643,506.87559 1057.0111,507.29125 1056.6641,507.03023 1056.526,506.40051 1057.0699,505.99991 1055.8686,504.27316 1054.687,503.96784 1055.3453,502.89847 1054.3997,501.58371 1054.1398,500.49896 1050.901,498.89956 1050.14,497.42926 1052.4044,497.11195 1052.2358,496.26265 1052.8645,494.20458 1052.7613,492.91654 1053.4937,491.97161 1053.7761,491.95095 1054.3489,490.83046 1053.8252,489.24421 1053.4324,488.53702 1052.1933,488.58722 1052.1076,488.2239 1050.8357,487.62779 1051.3733,486.42013 1047.2588,486.61866 1047.0782,487.00787 1046.2486,487.13666 1045.3794,487.10777 1044.2848,487.88535 1043.1023,489.75983 1042.6609,489.83312 1041.8047,489.57397 1041.1282,487.56835 1040.2979,487.19779 1038.9581,488.36654 1036.2484,487.23207 1033.2286,486.51233 1032.8404,486.38635 1030.2162,484.68123 1026.5796,480.7603 1024.9796,480.26133 1023.6268,478.40995 1025.0182,476.66106 1024.8511,475.82863 1024.4741,475.12333 1024.3454,474.81213 1023.9223,474.09899 1024.75,473.25749 1024.4431,472.49399 1025.2099,470.96582 1024.3559,469.62308 1024.6494,467.96236 1023.2876,466.2815 1022.0871,465.93252 1019.1411,466.70156 1017.9671,466.13014 1017.5232,465.48111 1016.6671,467.33089 1013.6125,467.11219 1011.9475,466.58885 1010.2688,467.06917 1008.0011,469.41218 1004.3489,467.77368 z">
      <title id="t35">Première circonscription de l'Aube</title>
      <desc id="d35">Cantons de : Arcis-sur-Aube, Bar-sur-Aube, Brienne-le-Château, Chavanges, Essoyes, Méry-sur-Seine, Piney, Ramerupt, Soulaines-Dhuys, Troyes I, Troyes II, Vendeuvre-sur-Barse</desc>
    </path><path class="circo" id="010-02" d="M 972.58133,535.40117 973.13303,536.60464 973.10113,537.46769 971.84423,538.69218 971.40693,538.63791 970.88263,537.43749 970.59873,538.66517 968.62623,539.45509 967.92663,536.86052 967.16293,535.76365 966.30053,533.66892 964.85873,532.72695 962.34423,534.42375 960.74783,533.14313 963.66203,530.36276 964.69333,528.43996 963.91183,527.66466 963.25523,527.89499 962.85323,527.16161 963.00173,526.7619 964.94833,524.56151 964.87713,524.14172 966.69203,524.48721 970.18243,524.8245 970.09683,524.26084 969.67613,523.76213 971.44483,522.46319 972.75463,522.31288 975.47603,520.93496 975.31623,519.65297 976.07603,519.30838 976.00483,520.52056 976.54883,521.15212 977.74633,520.21562 978.99973,519.33828 980.77633,520.69098 981.16223,521.49367 983.17613,521.1138 983.27283,520.8665 983.89723,519.695 985.77163,518.51282 986.64633,518.7215 988.27923,521.39647 988.65053,521.19389 990.01703,522.13944 991.22813,521.94684 991.92093,521.68616 992.47273,523.45555 993.68053,524.55474 994.75903,523.84436 995.56523,523.95084 996.73933,523.41073 998.67823,522.74734 999.42093,522.36741 999.48833,521.59139 1000.2223,521.19299 1000.2012,520.35602 1002.2725,520.24909 1002.729,520.00603 1002.7165,519.66563 1003.2512,519.30204 1004.9252,521.04188 1006.18,520.63528 1007.2745,521.77148 1007.8424,521.15429 1010.0721,522.20611 1011.2924,522.28503 1011.7601,521.1829 1009.9174,519.77051 1010.1535,519.45327 1011.0552,519.25152 1010.4854,518.15654 1010.7457,516.43761 1011.9512,514.72884 1013.4862,515.47551 1014.1914,516.61478 1015.7045,515.76955 1016.6963,517.1837 1019.007,518.32778 1019.8431,519.3117 1021.0758,520.48939 1023.154,520.05695 1023.835,520.59593 1024.1501,521.70008 1025.3315,521.29812 1025.8087,522.08209 1026.7489,522.45106 1028.0704,524.0263 1028.9518,523.93361 1029.2112,524.29659 1028.6611,525.96419 1028.7061,527.72106 1029.4035,529.08708 1029.9604,528.79836 1030.7196,528.71989 1031.6226,529.56727 1032.3586,529.37732 1033.1166,529.93173 1032.5715,530.52564 1032.2898,531.68219 1032.5185,532.01452 1032.0323,533.22218 1030.8614,533.70832 1030.2756,535.3442 1030.7536,536.06149 1030.3841,537.2958 1031.4276,537.57242 1031.3771,538.2273 1033.2587,538.80466 1033.4359,539.05205 1035.2599,542.05983 1036.9359,542.42678 1037.9807,543.68038 1037.7896,544.00091 1036.4609,545.566 1035.0053,546.2949 1034.0567,550.43453 1035.506,550.61688 1037.302,551.22595 1038.7123,552.00889 1038.7408,552.00953 1038.6898,554.17083 1038.9918,554.48652 1040.095,554.58539 1040.9169,554.89979 1041.9585,556.29 1042.4001,556.32951 1043.0112,558.37889 1044.0718,559.09824 1044.4567,560.79292 1043.8119,561.25441 1042.0318,560.98641 1040.7574,561.4371 1038.9752,561.22128 1034.8508,562.72553 1034.0985,562.32214 1032.2538,561.20211 1026.8253,562.67082 1023.4469,561.92584 1022.8394,562.98395 1022.2983,563.68896 1022.5364,564.99826 1021.7997,566.59856 1019.748,566.83919 1017.7864,565.99827 1015.89,563.70279 1016.0648,560.72702 1014.0244,560.6464 1013.4614,561.25835 1013.4651,561.69595 1014.2471,562.10546 1014.3733,563.84721 1013.8923,564.54908 1012.6219,564.7606 1012.5203,563.02291 1011.0821,562.24179 1008.9101,564.28311 1008.9147,565.14772 1008.1301,565.07934 1007.2381,565.83956 1006.5226,566.28383 1004.902,566.26112 1004.7391,564.61912 1004.4911,564.27765 1002.0379,564.05685 1001.5241,566.04039 1000.7674,566.44354 999.69395,565.75913 999.00143,566.2251 998.16643,566.0088 997.32863,564.48043 995.63613,565.98457 995.25883,566.02897 993.72223,565.35796 992.55813,565.78919 990.60613,565.47024 989.92943,566.30146 989.55163,566.09836 988.79793,566.49619 987.99173,566.23347 987.85043,566.13934 988.56123,564.99762 988.83853,562.3521 989.56193,560.26384 988.67373,558.2261 987.99493,557.18489 987.15203,557.12848 986.83533,557.42218 986.69573,559.52036 985.11073,560.1554 985.34063,559.34537 984.11003,559.23946 983.24163,556.66949 985.19873,556.36712 985.87673,556.79984 985.82833,555.09104 983.93743,553.42908 983.54643,552.66868 982.59053,552.55898 981.72593,551.58196 982.29263,551.05468 982.09753,549.09 979.73923,546.20799 979.85753,545.00451 980.33783,544.38175 979.99863,543.59128 977.21683,540.26478 975.85893,541.14327 974.81273,540.37584 974.74073,539.5212 975.99343,537.81476 975.22323,535.84649 972.76343,534.99903 972.58133,535.40117 z">
      <title id="t36">Deuxième circonscription de l'Aube</title>
      <desc id="d36">Cantons de : Aix-en-Othe, Bar-sur-Seine, Bouilly, Chource, Evry-le-Châtel, Estissac, Lusigny-sur-Barse, Mussy-sur-Seine, Les Riceys, Troyes V, Troyes VI, Troyes VII</desc>
    </path><path class="circo" id="010-03" d="M 958.08883,516.41294 958.19123,514.52605 957.11133,513.74896 954.73173,510.56844 953.99343,510.07456 952.22113,510.08543 951.87503,509.42261 951.84763,509.39369 950.11653,509.62645 948.54133,511.16245 948.11613,511.05422 947.04733,509.15477 947.11403,507.39685 947.63083,504.99682 947.61443,504.17301 946.27503,504.17173 946.86243,503.4212 945.25423,502.92204 945.57863,501.68364 946.21043,501.07826 946.34233,499.32534 945.58543,498.27802 945.62763,497.42131 944.50453,496.15391 946.17513,495.13315 947.60023,494.52228 948.80083,494.58641 948.82393,493.7396 947.96703,491.74873 946.31543,489.74045 947.06753,489.04114 948.95913,489.67255 950.16683,489.6574 952.03483,488.1972 952.80513,488.01592 952.85773,486.94316 951.42563,484.28764 951.72373,483.95774 953.10763,483.00573 953.69053,481.93098 955.65053,481.65327 954.82683,480.1369 955.08053,479.78699 959.09043,478.31532 959.08423,477.88726 959.72413,478.875 959.91993,480.04088 961.14783,479.87055 961.37733,482.36378 962.21793,482.16538 963.21793,484.03495 963.51113,483.81425 964.15383,483.25872 964.88153,483.18689 965.52613,484.14903 965.32853,485.37343 965.62473,487.51532 966.56653,488.68247 967.83013,488.76219 968.35013,488.67888 970.39453,488.34998 971.89353,488.89788 974.05713,488.51815 976.04273,489.06579 977.01423,489.81425 977.68843,489.51249 978.69213,489.64944 979.54303,489.74802 982.05883,491.38919 980.47673,496.07082 980.87823,497.19029 981.56193,497.68296 982.07413,497.09439 982.76923,497.36695 983.35903,497.92922 983.69613,497.69514 984.36403,498.13946 984.37713,501.51324 985.05763,502.02443 983.54573,503.38751 984.11503,504.73482 985.47263,505.58264 985.77503,506.7148 986.95153,506.97212 987.96123,506.23715 990.30113,508.76099 994.65463,505.86394 995.88073,507.65529 996.64523,508.67371 998.23903,510.26341 999.57583,511.79453 999.99115,512.67813 1001.4616,514.61581 1002.7326,515.28527 1003.2068,516.51904 1003.5311,516.84318 1003.4854,517.46434 1003.4407,517.72385 1003.6081,518.07248 1003.6368,518.45029 1003.2504,518.70373 1003.4919,519.12095 1002.7165,519.66563 1002.729,520.00603 1002.2725,520.24909 1000.2012,520.35602 1000.2223,521.19299 999.48833,521.59139 999.42093,522.36741 998.67823,522.74734 996.73933,523.41073 995.56523,523.95084 994.75903,523.84436 993.68053,524.55474 992.47273,523.45555 991.92093,521.68616 991.22813,521.94684 990.01703,522.13944 988.65053,521.19389 988.27923,521.39647 986.64633,518.7215 985.77163,518.51282 983.89723,519.695 983.27283,520.8665 983.17613,521.1138 981.16223,521.49367 980.77633,520.69098 978.99973,519.33828 977.74633,520.21562 976.54883,521.15212 976.00483,520.52056 976.07603,519.30838 975.31623,519.65297 975.47603,520.93496 972.75463,522.31288 971.44483,522.46319 969.67613,523.76213 970.09683,524.26084 970.18243,524.8245 966.69203,524.48721 964.87713,524.14172 964.14803,522.45042 961.37033,521.13411 961.14513,520.74744 961.79763,519.13601 959.72733,517.55946 959.80313,516.24778 958.08883,516.41294 z">
      <title id="t37">Troisième circonscription de l'Aube</title>
      <desc id="d37">Cantons de : La Chapelle-Saint-Luc, Marcilly-le-Hayer, Nogent-sur-Seine, Romilly-sur-Seine I, Romilly-sur-Seine II, Sainte-Savine, Troyes III, Troyes IV, Villenauxe-la-Grande</desc>
    </path></svg>