<svg xmlns="http://www.w3.org/2000/svg" version="1.1" xmlns:xlink="http://www.w3.org/1999/xlink" xmlns:svgjs="http://svgjs.dev/svgjs" viewBox="0 0 125.66246999999987 101.35808000000003"><path class="circo" id="id-010-01" d="M59.84436999999991 2.292570000000012L59.135670000000005 2.0025400000000104L57.95756999999992 3.7923999999999864L58.09826999999996 5.003390000000024L57.69536999999991 5.7760000000000105L56.11836999999991 7.174390000000017L54.91919999999993 7.342579999999998L52.49770000000001 6.797439999999995L51.01139999999998 8.334429999999998L50.42019999999991 10.887999999999977L50.69869999999992 11.224580000000003L50.149599999999964 11.597289999999987L49.5157999999999 11.167219999999986L48.788299999999936 12.184460000000001L48.038799999999924 14.572879999999998L45.4692 14.246370000000013L44.822 14.77661999999998L44.5693 14.788700000000006L43.724199999999996 18.14312000000001L42.537399999999934 17.822189999999978L42.45889999999997 17.843259999999987L40.016399999999976 17.684579999999983L40.0385 18.510040000000004L40.77909999999997 18.86241000000001L40.362300000000005 20.53564L40.45399999999995 22.265960000000007L40.951599999999985 22.266729999999995L39.788099999999986 24.64463999999998L38.28620000000001 25.589069999999992L37.5542999999999 25.908079999999984L35.97219999999993 30.589710000000025L36.373699999999985 31.709180000000003L37.057399999999916 32.20184999999998L37.56959999999992 31.613279999999975L38.26469999999995 31.885839999999973L38.854499999999916 32.448109999999986L39.191599999999994 32.21402999999998L39.85949999999991 32.658349999999984L39.87259999999992 36.032129999999995L40.55309999999997 36.543319999999994L39.0412 37.90640000000002L39.6105 39.25371000000001L40.968099999999936 40.101530000000025L41.27049999999997 41.233690000000024L42.447 41.49101000000002L43.456699999999955 40.756039999999985L45.7965999999999 43.27987999999999L50.15009999999995 40.38283000000001L51.376199999999926 42.17417999999998L52.140699999999924 43.19260000000003L53.73449999999991 44.78230000000002L55.07129999999995 46.31342000000001L55.4866199999999 47.19702000000001L56.95706999999993 49.13470000000001L58.22807 49.80415999999997L58.70227 51.03793000000002L59.02656999999999 51.36206999999996L58.98086999999998 51.98322999999999L58.93616999999995 52.24273999999997L59.10356999999999 52.59137000000004L59.13226999999995 52.969179999999994L58.74586999999997 53.22261999999995L58.98736999999994 53.63983999999999L58.746669999999995 53.82093000000003L60.42066999999997 55.56076999999999L61.675469999999905 55.154169999999965L62.769969999999944 56.290369999999996L63.33786999999995 55.673179999999945L65.56756999999993 56.724999999999966L66.78787 56.803920000000005L67.25556999999992 55.70179000000002L65.41287 54.289399999999944L65.64896999999996 53.972159999999974L66.55066999999997 53.77041000000003L65.98086999999998 52.67542999999995L66.24117000000001 50.95649999999995L67.44666999999993 49.24772999999999L68.98167000000001 49.994399999999985L69.68687 51.133669999999995L71.19997000000001 50.28843999999998L72.1917699999999 51.70259000000004L74.5024699999999 52.84666999999996L75.33857 53.83058999999997L76.57126999999991 55.00827999999996L78.64946999999995 54.57584000000003L79.33046999999999 55.11481999999995L79.64557000000002 56.218969999999956L80.82696999999996 55.81701000000004L81.30417 56.60097999999999L82.24437 56.96994999999998L83.56587000000002 58.54518999999999L84.44727 58.45250000000004L84.70666999999992 58.815480000000036L84.15656999999999 60.48308000000003L84.20157000000006 62.239949999999965L84.89896999999985 63.60597000000001L85.45586999999989 63.31725L86.21506999999986 63.23877999999996L87.11806999999988 64.08616L87.85406999999998 63.89621000000005L88.61207000000002 64.45062000000001L88.06696999999997 65.04452999999995L87.78526999999997 66.20107999999999L88.01396999999986 66.53340999999995L87.52777000000003 67.74106999999998L86.35686999999996 68.22720999999996L85.7710699999999 69.86309L86.24906999999996 70.58038000000005L85.87956999999994 71.81468999999998L86.92306999999994 72.09130999999996L86.87256999999988 72.74619000000001L88.75417000000004 73.32355000000001L88.9313699999999 73.57094000000001L90.75536999999997 76.57872000000003L92.4313699999999 76.94567L93.47617000000002 78.19927000000001L93.28507000000002 78.51979999999998L91.95636999999999 80.08489000000003L90.50076999999999 80.81378999999998L89.55217000000005 84.95342L91.00147000000004 85.13577000000004L92.79746999999986 85.74484000000001L94.20776999999987 86.52777999999995L94.23626999999999 86.52842000000004L94.18527000000006 88.68972000000002L94.48726999999997 89.00541000000004L95.59046999999998 89.10427999999996L96.4123699999999 89.41868000000005L97.45396999999991 90.80888999999996L97.89557000000002 90.84840000000003L99.13277000000005 90.89781999999997L99.50597000000005 90.12290999999999L101.53407000000004 88.08143000000001L103.21406999999988 87.80649999999997L104.02306999999985 88.07468999999998L104.78356999999994 87.69553000000002L105.22036999999989 88.58881000000002L107.3996699999999 88.54482999999999L109.55667000000005 89.77423000000005L111.4938699999999 88.77600999999999L112.21546999999998 89.11075999999997L112.61187000000007 88.91568000000001L112.53867000000002 87.60871000000003L113.82336999999995 85.86651999999998L112.71416999999985 85.18422000000004L111.10356999999988 82.53595000000001L108.51806999999997 81.87403999999998L108.24617 81.60826000000003L111.07986999999991 80.75475L112.27576999999985 80.42085000000003L112.44416999999987 79.60434000000004L112.18556999999998 79.25740000000002L113.92746999999997 78.09120000000001L114.56446999999991 76.49061L115.33086999999989 76.97278999999997L117.12766999999997 77.04383000000001L119.24057000000005 77.78694999999999L121.62866999999994 78.51304999999996L123.2782699999999 78.30950999999999L123.19006999999999 76.73763000000002L122.78656999999987 75.26456999999999L124.6134699999999 73.67247000000003L123.61816999999985 72.32588000000004L123.46496999999988 71.04350000000005L123.65727000000004 70.19689L124.50517000000002 69.2004L124.35706999999991 68.78609999999998L125.12316999999996 67.18731999999994L125.14076999999986 67.17163L125.65406999999993 66.45842999999996L125.66246999999987 65.12821000000002L123.69987000000003 64.22788999999995L123.37876999999992 63.41433999999998L124.73446999999999 62.474620000000016L124.03417000000002 61.02591000000001L124.24536999999998 60.22204000000005L124.14477 59.96584999999999L124.30806999999993 59.10453000000001L125.40406999999993 57.800779999999975L124.00546999999995 55.56676999999996L124.67737 53.93945000000002L123.38446999999985 53.081290000000024L122.58886999999993 53.17432000000002L122.50446999999997 51.91411999999997L121.56397000000004 50.51995000000005L123.88046999999995 48.416319999999985L123.28726999999992 47.77524L121.96586999999988 47.70196000000004L119.75096999999994 46.289499999999975L118.19966999999986 46.11615999999998L116.49456999999995 44.951959999999985L116.97126999999989 42.25635999999997L115.81876999999997 41.65589L113.25977 41.39447999999999L112.5065699999999 41.81013999999999L112.15956999999992 41.549120000000016L112.02147000000002 40.919399999999996L112.56536999999992 40.5188L111.36406999999997 38.79205000000002L110.18246999999985 38.48673000000002L110.8407699999999 37.417359999999974L109.8951699999999 36.102599999999995L109.63526999999988 35.01785000000001L106.39647000000002 33.41845000000001L105.63547000000005 31.94815L107.89986999999985 31.630839999999978L107.73126999999988 30.781540000000007L108.35996999999986 28.72347000000002L108.25676999999985 27.435429999999997L108.98916999999994 26.490499999999997L109.27157 26.469839999999976L109.84436999999991 25.349350000000015L109.32066999999995 23.76310000000001L108.92786999999987 23.055909999999983L107.68876999999986 23.10611L107.60307 22.742790000000014L106.33117000000004 22.146680000000003L106.86876999999993 20.93901999999997L102.75427000000002 21.137549999999976L102.57366999999988 21.526760000000024L101.74406999999985 21.655550000000005L100.87486999999999 21.626660000000015L99.78026999999986 22.404240000000016L98.59776999999997 24.27872000000002L98.15637000000004 24.352010000000007L97.30016999999987 24.092859999999973L96.62367000000006 22.08724000000001L95.79336999999998 21.716679999999997L94.45357000000001 22.885429999999985L91.7438699999999 21.75096000000002L88.72406999999987 21.03122000000002L88.33587 20.905239999999992L85.71167000000003 19.200120000000027L82.07506999999998 15.279189999999971L80.47506999999985 14.780219999999986L79.12226999999996 12.92883999999998L80.51366999999993 11.17995000000002L80.34657000000004 10.347519999999975L79.96956999999986 9.642220000000009L79.84086999999988 9.331020000000024L79.4177699999999 8.617880000000014L80.24546999999995 7.776380000000017L79.93856999999991 7.012879999999996L80.70537000000002 5.484710000000007L79.85136999999997 4.141970000000015L80.14486999999997 2.4812499999999886L78.78306999999995 0.800389999999993L77.58256999999992 0.45141000000000986L74.63657 1.2204499999999712L73.46256999999991 0.649029999999982L73.01866999999993 0L72.16256999999996 1.8497800000000097L69.10796999999991 1.6310799999999972L67.44296999999995 1.1077399999999784L65.76427000000001 1.5880599999999845L63.496569999999906 3.931069999999977L59.84436999999991 2.292570000000012z">
      <title id="t35">Première circonscription de l'Aube</title>
      <desc id="d35">Cantons de : Arcis-sur-Aube, Bar-sur-Aube, Brienne-le-Château, Chavanges, Essoyes, Méry-sur-Seine, Piney, Ramerupt, Soulaines-Dhuys, Troyes I, Troyes II, Vendeuvre-sur-Barse</desc>
    </path><path class="circo" id="id-010-02" d="M28.076799999999935 69.92005999999998L28.628499999999917 71.12353000000002L28.596599999999967 71.98657999999995L27.339699999999993 73.21107L26.902399999999943 73.15680000000003L26.378099999999904 71.95638000000002L26.0942 73.18405999999999L24.12169999999992 73.97398000000004L23.4221 71.37940999999995L22.658399999999915 70.28253999999998L21.795999999999935 68.18780999999996L20.35419999999999 67.24583999999999L17.839699999999993 68.94264000000004L16.243299999999977 67.66202000000004L19.157499999999914 64.88164999999998L20.1887999999999 62.95885000000004L19.407299999999964 62.183550000000025L18.750699999999938 62.413880000000006L18.348700000000008 61.680499999999995L18.497199999999907 61.28078999999997L20.44380000000001 59.0804L20.37259999999992 58.66060999999996L22.1875 59.0061L25.67789999999991 59.34338999999994L25.59229999999991 58.77973000000003L25.1715999999999 58.281019999999955L26.94029999999998 56.98208000000005L28.250099999999975 56.83176999999995L30.971499999999992 55.453850000000045L30.811699999999973 54.17185999999998L31.5714999999999 53.827270000000055L31.500299999999925 55.039450000000045L32.04429999999991 55.67100999999997L33.2417999999999 54.73450999999994L34.495199999999954 53.85717000000005L36.271799999999985 55.20986999999997L36.65769999999998 56.01255999999995L38.6715999999999 55.63268999999997L38.768299999999954 55.38538999999997L39.39269999999999 54.21389000000005L41.267099999999914 53.03171000000003L42.14179999999999 53.24038999999999L43.77469999999994 55.91536000000002L44.14599999999996 55.71278000000001L45.51249999999993 56.658330000000035L46.72359999999992 56.46572999999995L47.41639999999995 56.20504999999997L47.96819999999991 57.974440000000016L49.17599999999993 59.07363000000004L50.25450000000001 58.36325000000005L51.0607 58.46972999999997L52.23479999999995 57.92961999999994L54.17369999999994 57.26623000000001L54.91639999999995 56.88629999999995L54.983799999999974 56.110280000000046L55.71776999999997 55.71188000000001L55.696669999999926 54.87490999999994L57.76796999999999 54.76798000000002L58.22447 54.52492000000001L58.21196999999995 54.184519999999964L58.746669999999995 53.82093000000003L60.42066999999997 55.56076999999999L61.675469999999905 55.154169999999965L62.769969999999944 56.290369999999996L63.33786999999995 55.673179999999945L65.56756999999993 56.724999999999966L66.78787 56.803920000000005L67.25556999999992 55.70179000000002L65.41287 54.289399999999944L65.64896999999996 53.972159999999974L66.55066999999997 53.77041000000003L65.98086999999998 52.67542999999995L66.24117000000001 50.95649999999995L67.44666999999993 49.24772999999999L68.98167000000001 49.994399999999985L69.68687 51.133669999999995L71.19997000000001 50.28843999999998L72.1917699999999 51.70259000000004L74.5024699999999 52.84666999999996L75.33857 53.83058999999997L76.57126999999991 55.00827999999996L78.64946999999995 54.57584000000003L79.33046999999999 55.11481999999995L79.64557000000002 56.218969999999956L80.82696999999996 55.81701000000004L81.30417 56.60097999999999L82.24437 56.96994999999998L83.56587000000002 58.54518999999999L84.44727 58.45250000000004L84.70666999999992 58.815480000000036L84.15656999999999 60.48308000000003L84.20157000000006 62.239949999999965L84.89896999999985 63.60597000000001L85.45586999999989 63.31725L86.21506999999986 63.23877999999996L87.11806999999988 64.08616L87.85406999999998 63.89621000000005L88.61207000000002 64.45062000000001L88.06696999999997 65.04452999999995L87.78526999999997 66.20107999999999L88.01396999999986 66.53340999999995L87.52777000000003 67.74106999999998L86.35686999999996 68.22720999999996L85.7710699999999 69.86309L86.24906999999996 70.58038000000005L85.87956999999994 71.81468999999998L86.92306999999994 72.09130999999996L86.87256999999988 72.74619000000001L88.75417000000004 73.32355000000001L88.9313699999999 73.57094000000001L90.75536999999997 76.57872000000003L92.4313699999999 76.94567L93.47617000000002 78.19927000000001L93.28507000000002 78.51979999999998L91.95636999999999 80.08489000000003L90.50076999999999 80.81378999999998L89.55217000000005 84.95342L91.00147000000004 85.13577000000004L92.79746999999986 85.74484000000001L94.20776999999987 86.52777999999995L94.23626999999999 86.52842000000004L94.18527000000006 88.68972000000002L94.48726999999997 89.00541000000004L95.59046999999998 89.10427999999996L96.4123699999999 89.41868000000005L97.45396999999991 90.80888999999996L97.89557000000002 90.84840000000003L98.50666999999987 92.89777999999995L99.5672699999999 93.61713000000003L99.95216999999991 95.31180999999998L99.30736999999988 95.7733L97.52726999999993 95.50529999999998L96.25286999999992 95.95598999999999L94.47067000000004 95.74016999999998L90.34626999999989 97.24442000000005L89.59397000000001 96.84102999999999L87.74926999999991 95.72099999999995L82.32076999999992 97.18971000000005L78.94236999999998 96.44472999999999L78.33486999999991 97.50284000000005L77.79377 98.20784999999995L78.03186999999991 99.51714999999996L77.29516999999998 101.11745000000002L75.24347 101.35808000000003L73.28186999999991 100.51716000000005L71.38546999999994 98.22168000000005L71.56026999999995 95.24591000000004L69.51986999999997 95.16528999999997L68.95686999999998 95.77723999999995L68.96056999999996 96.21484000000004L69.74257 96.62434999999999L69.86876999999993 98.36610000000002L69.38776999999993 99.06797L68.11736999999994 99.27948999999995L68.01576999999997 97.54180000000002L66.57756999999992 96.76068000000004L64.40557000000001 98.80199999999996L64.41017 99.66661000000005L63.625569999999925 99.59823L62.733569999999986 100.35845L62.018069999999966 100.80271999999997L60.39747 100.78001L60.23456999999996 99.13800999999995L59.986569999999915 98.79654L57.53336999999999 98.57574000000005L57.01956999999993 100.55928L56.26286999999991 100.96242999999998L55.18941999999993 100.27802000000003L54.49689999999998 100.74399L53.661899999999946 100.52768999999995L52.82409999999993 98.99931999999995L51.131599999999935 100.50345999999996L50.754299999999944 100.54785999999996L49.21769999999992 99.87685000000005L48.05359999999996 100.30807999999996L46.10159999999996 99.98912999999999L45.42489999999998 100.82035000000002L45.0471 100.61724999999996L44.293399999999906 101.01507999999995L43.487199999999916 100.75236000000001L43.345899999999915 100.65822999999995L44.05669999999998 99.51650999999998L44.333999999999946 96.87098999999995L45.057399999999916 94.78272999999996L44.16919999999993 92.74498999999997L43.49039999999991 91.70378L42.64749999999992 91.64736999999997L42.330799999999954 91.94107000000002L42.19119999999998 94.03924999999998L40.606199999999944 94.67428999999998L40.83609999999999 93.86426L39.605500000000006 93.75835000000001L38.73709999999994 91.18838L40.69419999999991 90.88601L41.37219999999991 91.31873000000002L41.323800000000006 89.60993000000002L39.432899999999904 87.94797L39.04189999999994 87.18757L38.0859999999999 87.07787000000002L37.2213999999999 86.10084999999998L37.788099999999986 85.57356999999996L37.59299999999996 83.60889000000003L35.234699999999975 80.72688L35.35299999999995 79.52339999999998L35.83330000000001 78.90064000000001L35.4941 78.11016999999998L32.712299999999914 74.78366999999997L31.35439999999994 75.66216000000003L30.308199999999943 74.89473000000004L30.23619999999994 74.04009000000002L31.488899999999944 72.33364999999998L30.7186999999999 70.36538000000002L28.258899999999926 69.51791999999995L28.076799999999935 69.92005999999998z">
      <title id="t36">Deuxième circonscription de l'Aube</title>
      <desc id="d36">Cantons de : Aix-en-Othe, Bar-sur-Seine, Bouilly, Chource, Evry-le-Châtel, Estissac, Lusigny-sur-Barse, Mussy-sur-Seine, Les Riceys, Troyes V, Troyes VI, Troyes VII</desc>
    </path><path class="circo" id="id-010-03" d="M13.584299999999985 50.93183000000005L13.686699999999973 49.044940000000054L12.606799999999907 48.26785000000001L10.227199999999925 45.08733000000001L9.488899999999944 44.59345000000002L7.716599999999971 44.60431999999997L7.370499999999993 43.94150000000002L7.343099999999936 43.91257999999999L5.611999999999966 44.145339999999976L4.036799999999971 45.68133999999998L3.611599999999953 45.573109999999986L2.542799999999943 43.673659999999984L2.609499999999912 41.91573999999997L3.126299999999901 39.51571000000001L3.109899999999925 38.691899999999976L1.77049999999997 38.690620000000024L2.3578999999999724 37.94009L0.7496999999999616 37.44092999999998L1.0740999999999303 36.202530000000024L1.7058999999999287 35.59715L1.837799999999902 33.84422999999998L1.0808999999999287 32.796910000000025L1.1230999999999085 31.940200000000004L0 30.672799999999995L1.6705999999999221 29.65204L3.0956999999999653 29.041170000000022L4.296299999999974 29.1053L4.319399999999973 28.258489999999995L3.4624999999999773 26.267620000000022L1.8108999999999469 24.25934000000001L2.562999999999988 23.560029999999983L4.454599999999914 24.19144L5.662299999999959 24.176289999999995L7.530300000000011 22.71609000000001L8.300599999999918 22.534809999999993L8.353199999999902 21.462049999999977L6.92109999999991 18.80653000000001L7.219200000000001 18.47663L8.603099999999927 17.524620000000027L9.185999999999922 16.449869999999976L11.145999999999958 16.17216000000002L10.322299999999927 14.655790000000025L10.575999999999908 14.305880000000002L14.585899999999924 12.834209999999985L14.579700000000003 12.406150000000025L15.2195999999999 13.393889999999999L15.415399999999977 14.559770000000015L16.643299999999954 14.38943999999998L16.872799999999984 16.88267000000002L17.71339999999998 16.684270000000026L18.71339999999998 18.55383999999998L19.006599999999935 18.333140000000014L19.649299999999926 17.77760999999998L20.376999999999953 17.705780000000004L21.02159999999992 18.66791999999998L20.823999999999955 19.892319999999984L21.120199999999954 22.034209999999973L22.061999999999898 23.201360000000022L23.32560000000001 23.281079999999974L23.84559999999999 23.19776999999999L25.889999999999986 22.868870000000015L27.38900000000001 23.416769999999985L29.552599999999984 23.03703999999999L31.53819999999996 23.58467999999999L32.50969999999995 24.333140000000014L33.183899999999994 24.031380000000013L34.187599999999975 24.168330000000026L35.0385 24.266909999999996L37.5542999999999 25.908079999999984L35.97219999999993 30.589710000000025L36.373699999999985 31.709180000000003L37.057399999999916 32.20184999999998L37.56959999999992 31.613279999999975L38.26469999999995 31.885839999999973L38.854499999999916 32.448109999999986L39.191599999999994 32.21402999999998L39.85949999999991 32.658349999999984L39.87259999999992 36.032129999999995L40.55309999999997 36.543319999999994L39.0412 37.90640000000002L39.6105 39.25371000000001L40.968099999999936 40.101530000000025L41.27049999999997 41.233690000000024L42.447 41.49101000000002L43.456699999999955 40.756039999999985L45.7965999999999 43.27987999999999L50.15009999999995 40.38283000000001L51.376199999999926 42.17417999999998L52.140699999999924 43.19260000000003L53.73449999999991 44.78230000000002L55.07129999999995 46.31342000000001L55.4866199999999 47.19702000000001L56.95706999999993 49.13470000000001L58.22807 49.80415999999997L58.70227 51.03793000000002L59.02656999999999 51.36206999999996L58.98086999999998 51.98322999999999L58.93616999999995 52.24273999999997L59.10356999999999 52.59137000000004L59.13226999999995 52.969179999999994L58.74586999999997 53.22261999999995L58.98736999999994 53.63983999999999L58.21196999999995 54.184519999999964L58.22447 54.52492000000001L57.76796999999999 54.76798000000002L55.696669999999926 54.87490999999994L55.71776999999997 55.71188000000001L54.983799999999974 56.110280000000046L54.91639999999995 56.88629999999995L54.17369999999994 57.26623000000001L52.23479999999995 57.92961999999994L51.0607 58.46972999999997L50.25450000000001 58.36325000000005L49.17599999999993 59.07363000000004L47.96819999999991 57.974440000000016L47.41639999999995 56.20504999999997L46.72359999999992 56.46572999999995L45.51249999999993 56.658330000000035L44.14599999999996 55.71278000000001L43.77469999999994 55.91536000000002L42.14179999999999 53.24038999999999L41.267099999999914 53.03171000000003L39.39269999999999 54.21389000000005L38.768299999999954 55.38538999999997L38.6715999999999 55.63268999999997L36.65769999999998 56.01255999999995L36.271799999999985 55.20986999999997L34.495199999999954 53.85717000000005L33.2417999999999 54.73450999999994L32.04429999999991 55.67100999999997L31.500299999999925 55.039450000000045L31.5714999999999 53.827270000000055L30.811699999999973 54.17185999999998L30.971499999999992 55.453850000000045L28.250099999999975 56.83176999999995L26.94029999999998 56.98208000000005L25.1715999999999 58.281019999999955L25.59229999999991 58.77973000000003L25.67789999999991 59.34338999999994L22.1875 59.0061L20.37259999999992 58.66060999999996L19.643499999999904 56.96931000000001L16.865799999999922 55.65299999999996L16.64059999999995 55.26632999999998L17.29309999999998 53.654900000000055L15.222800000000007 52.07834999999994L15.298599999999965 50.76667000000003L13.584299999999985 50.93183000000005z">
      <title id="t37">Troisième circonscription de l'Aube</title>
      <desc id="d37">Cantons de : La Chapelle-Saint-Luc, Marcilly-le-Hayer, Nogent-sur-Seine, Romilly-sur-Seine I, Romilly-sur-Seine II, Sainte-Savine, Troyes III, Troyes IV, Villenauxe-la-Grande</desc>
    </path></svg>