<svg xmlns="http://www.w3.org/2000/svg" version="1.1" xmlns:xlink="http://www.w3.org/1999/xlink" xmlns:svgjs="http://svgjs.dev/svgjs" viewBox="0 0 131.9357 94.36990000000014"><path class="circo" id="id-011-01" d="M69.78959999999995 34.59220000000005L69.34559999999999 35.23230000000012L68.56259999999997 35.11990000000014L67.6943 38.11110000000008L66.62309999999991 37.62050000000022L65.85579999999993 37.7818000000002L64.36259999999993 37.30910000000017L63.71690000000001 39.437400000000025L63.8682 40.464800000000196L62.525699999999915 40.13200000000006L61.156099999999924 38.82230000000004L61.610000000000014 37.38980000000015L61.46899999999994 36.67730000000006L61.38109999999995 36.65080000000012L57.41019999999992 36.024700000000166L57.40530000000001 36.06140000000005L57.668499999999995 36.33170000000018L57.58579999999995 37.08270000000016L56.65289999999993 38.05520000000001L57.37289999999996 38.912700000000086L56.46889999999996 39.42190000000005L54.42660000000001 38.480400000000145L53.32009999999991 38.60420000000022L52.7672 39.605200000000195L52.264999999999986 39.4693000000002L52.447400000000016 38.833900000000085L52.196699999999964 38.227400000000216L52.48449999999991 37.477800000000116L51.39490000000001 35.7637000000002L49.849699999999984 35.57540000000017L50.363200000000006 35.08120000000008L50.386799999999994 34.3451L51.4434 34.05670000000009L51.67689999999993 32.94120000000021L52.486999999999966 33.22860000000014L52.829599999999914 32.50640000000021L53.91909999999996 32.18690000000015L53.9289 31.69230000000016L54.83839999999998 31.11460000000011L54.43959999999993 30.572000000000116L55.488200000000006 29.47960000000012L55.06200000000001 28.49010000000021L53.86379999999997 27.157700000000204L52.988200000000006 27.066900000000032L52.589599999999905 27.033600000000206L49.94029999999998 25.257500000000164L50.29639999999995 24.501500000000078L50.81200000000001 23.90780000000018L51.58019999999999 24.06470000000013L51.83179999999993 23.76220000000012L51.89670000000001 21.41150000000016L53.36019999999996 21.935200000000123L54.83969999999999 21.546600000000126L54.82269999999994 20.508000000000038L56.23149999999998 20.638000000000147L55.29329999999993 19.341000000000122L54.91269999999997 17.395100000000184L54.293499999999995 16.86960000000022L52.30799999999999 16.753400000000056L51.34929999999997 16.00720000000001L50.74649999999997 15.479800000000068L50.81099999999992 15.079700000000003L50.164800000000014 14.061500000000024L50.1309 12.868400000000065L50.92679999999996 13.740300000000161L52.10730000000001 13.601400000000012L52.315200000000004 11.608699999999999L52.05409999999995 10.878900000000158L51.73419999999999 10.157000000000153L51.79059999999993 8.599300000000085L50.273399999999924 6.7628000000001975L49.93430000000001 5.695400000000063L51.233499999999935 4.810699999999997L51.13589999999999 3.6385999999999967L50.456699999999955 2.2114000000001397L51.96010000000001 1.5574000000001433L52.33579999999995 1.4266000000000076L53.15649999999994 2.2589000000000397L56.09879999999998 3.200800000000072L57.70909999999992 4.323900000000094L58.37549999999999 4.3448000000000775L60.37849999999992 5.041000000000167L61.067999999999984 4.783100000000104L60.8963 4.410600000000159L61.14569999999992 4.085500000000138L62.83119999999997 2.999900000000025L64.83010000000002 3.2647000000001754L66.39749999999992 2.8990000000001146L66.75029999999992 2.7630000000001473L68.50879999999995 2.7135000000000673L68.90459999999996 3.39650000000006L70.05219999999997 3.68320000000017L70.60029999999995 4.261000000000195L73.07049999999992 4.151600000000144L74.21249999999998 4.5832000000000335L74.55739999999992 4.354900000000043L74.57830000000001 4.349500000000035L76.11129999999991 5.554100000000062L76.8954 5.6658000000002176L76.37199999999996 7.076900000000023L75.23209999999995 7.095600000000104L74.85410000000002 7.007200000000012L74.62289999999996 7.319900000000189L73.83619999999996 8.231500000000096L73.44029999999998 9.794200000000046L73.68169999999998 10.970000000000027L72.39319999999998 13.440400000000182L73.36439999999993 14.537800000000061L73.707 14.347600000000057L76.08729999999991 14.763599999999997L76.80719999999997 16.6246000000001L77.46199999999999 17.108900000000176L77.58639999999991 18.929200000000037L79.00249999999994 20.164000000000215L78.928 20.54260000000022L79.57929999999999 20.1717000000001L80.13799999999992 19.200500000000147L81.21899999999994 19.366700000000037L82.5231 19.54690000000005L82.56549999999993 19.153800000000047L83.84960000000001 18.29210000000012L84.04999999999995 17.135400000000118L84.75869999999998 16.788800000000037L84.94740000000002 16.038700000000063L85.74519999999995 16.768100000000004L85.91429999999991 17.75220000000013L86.45539999999994 19.628800000000183L86.01249999999993 20.732400000000098L86.23910000000001 21.432000000000016L86.74489999999992 21.80190000000016L87.49439999999993 21.579700000000003L89.45249999999999 22.861500000000206L90.4511 24.02690000000007L92.14879999999994 23.626000000000204L92.78679999999997 22.784200000000055L93.38869999999997 21.757500000000164L93.37919999999997 21.710400000000163L93.40229999999997 20.163200000000188L94.64209999999991 18.689100000000053L95.30999999999995 18.21460000000002L95.89829999999995 17.715200000000095L95.00630000000001 16.48140000000012L96.03030000000001 15.926000000000158L97.66559999999993 16.105400000000145L98.3949 15.7329000000002L100.31290000000001 15.213200000000143L100.75519999999995 14.095000000000027L100.40099999999995 12.129200000000083L99.21529999999996 10.138000000000147L100.36749999999995 8.950300000000198L100.48539999999991 9.257300000000214L100.63159999999993 10.201900000000023L101.94299999999998 10.94250000000011L102.1289999999999 12.024600000000191L102.09429999999998 12.67670000000021L102.2373 13.841499999999996L101.7222999999999 14.841000000000122L102.55619999999999 15.657700000000204L103.92070000000001 16.38330000000019L104.7933999999999 15.67820000000006L106.904 17.32860000000005L107.87789999999995 17.268200000000206L110.69889999999998 16.48010000000022L111.86339999999996 16.423300000000154L112.0213 18.70990000000006L111.97519999999997 20.332000000000107L112.51619999999991 20.95180000000005L111.06679999999994 22.23610000000008L110.69740000000002 22.349500000000035L110.09989999999993 21.88020000000006L108.84229999999991 22.736500000000206L108.43619999999999 24.57190000000014L108.00549999999998 25.129500000000007L107.32339999999999 24.956600000000208L105.9251999999999 25.234900000000152L105.4094 26.177900000000136L104.46029999999996 26.656200000000126L103.81110000000001 25.935000000000173L104.02099999999996 26.566500000000133L103.0107999999999 26.506800000000112L102.35389999999995 25.617700000000013L101.60879999999997 25.357400000000098L100.88869999999997 26.302000000000135L100.49029999999993 26.305900000000065L99.7224 26.175000000000182L99.02449999999999 25.400600000000168L98.44869999999992 25.631500000000187L97.73799999999994 25.901600000000144L96.41579999999999 25.277900000000045L95.86500000000001 25.892100000000028L95.08109999999999 26.14280000000008L94.24529999999993 27.691700000000083L95.06779999999992 28.372700000000123L98.08439999999996 29.70880000000011L98.6135999999999 30.38420000000019L98.53779999999995 30.661200000000008L99.83609999999999 31.419200000000046L99.37049999999999 32.8724000000002L98.0412 33.67910000000006L97.62559999999996 34.79740000000015L97.63609999999994 36.33180000000016L97.16649999999993 37.96530000000007L97.63139999999999 38.624300000000176L99.20049999999992 38.74070000000006L99.29109999999991 40.33680000000004L100.3173999999999 42.48490000000015L101.51490000000001 42.388800000000174L102.19219999999996 42.55110000000013L102.07589999999993 44.45750000000021L100.66779999999994 45.077200000000175L100.23439999999994 46.53470000000016L99.49459999999999 47.42530000000011L100.60769999999991 47.81880000000001L100.26549999999997 48.95440000000008L100.77789999999993 50.02570000000014L102.82719999999995 51.230600000000095L101.6760999999999 54.99440000000004L103.21019999999999 58.47680000000014L101.41309999999999 60.06770000000006L100.57349999999997 62.74400000000014L100.03539999999998 63.16350000000011L97.71029999999996 63.86310000000003L95.3481999999999 65.47540000000004L94.12540000000001 63.808700000000044L91.45159999999998 62.74220000000014L90.8087999999999 61.705400000000054L88.9357 60.923100000000204L88.30529999999999 59.43500000000017L87.17849999999999 61.5014000000001L85.31290000000001 60.9050000000002L84.92739999999992 60.21530000000007L84.5199 59.5621000000001L84.57729999999992 58.03480000000013L83.13749999999993 55.721300000000156L84.92999999999995 56.65440000000012L85.3338 56.64540000000011L86.14979999999991 55.745800000000145L85.19409999999993 54.97400000000016L84.88849999999991 53.805700000000115L85.24419999999998 52.6251000000002L86.56889999999999 50.53720000000021L85.80859999999996 48.72660000000019L85.95989999999995 47.94130000000018L85.63649999999996 46.78970000000004L83.53199999999993 45.89610000000016L84.34309999999994 44.07160000000022L83.92250000000001 42.96050000000014L84.78499999999997 42.13630000000012L83.4615 41.24530000000004L83.12159999999994 40.54500000000007L81.02959999999996 39.4692L81.05700000000002 39.07940000000008L79.47559999999999 37.9846L79.8943999999999 37.324600000000146L79.79789999999991 36.57170000000019L78.85129999999992 36.66740000000004L73.58499999999992 34.7175000000002L73.53269999999998 34.70620000000008L72.17949999999996 34.77590000000009L71.91660000000002 35.527900000000045L69.78959999999995 34.59220000000005z">
      <title id="t38">Première circonscription de l'Aude</title>
      <desc id="d38">Cantons de : Capendu, Carcassonne I, Carcassonne II Nord, Carcassonne III, Conques-sur-Orbiel, Durban-Corbières, Ginestas, Lézignan-Corbières, Mas-Cabardès, Peyriac-Minervois</desc>
    </path><path class="circo" id="id-011-02" d="M116.10709999999995 21.056200000000217L113.769 20.92580000000021L112.76519999999994 21.549400000000105L112.4325 21.339300000000094L112.51619999999991 20.95180000000005L111.06679999999994 22.23610000000008L110.69740000000002 22.349500000000035L110.09989999999993 21.88020000000006L108.84229999999991 22.736500000000206L108.43619999999999 24.57190000000014L108.00549999999998 25.129500000000007L107.32339999999999 24.956600000000208L105.9251999999999 25.234900000000152L105.4094 26.177900000000136L104.46029999999996 26.656200000000126L103.81110000000001 25.935000000000173L104.02099999999996 26.566500000000133L103.0107999999999 26.506800000000112L102.35389999999995 25.617700000000013L101.60879999999997 25.357400000000098L100.88869999999997 26.302000000000135L100.49029999999993 26.305900000000065L99.7224 26.175000000000182L99.02449999999999 25.400600000000168L98.44869999999992 25.631500000000187L97.73799999999994 25.901600000000144L96.41579999999999 25.277900000000045L95.86500000000001 25.892100000000028L95.08109999999999 26.14280000000008L94.24529999999993 27.691700000000083L95.06779999999992 28.372700000000123L98.08439999999996 29.70880000000011L98.6135999999999 30.38420000000019L98.53779999999995 30.661200000000008L99.83609999999999 31.419200000000046L99.37049999999999 32.8724000000002L98.0412 33.67910000000006L97.62559999999996 34.79740000000015L97.63609999999994 36.33180000000016L97.16649999999993 37.96530000000007L97.63139999999999 38.624300000000176L99.20049999999992 38.74070000000006L99.29109999999991 40.33680000000004L100.3173999999999 42.48490000000015L101.51490000000001 42.388800000000174L102.19219999999996 42.55110000000013L102.07589999999993 44.45750000000021L100.66779999999994 45.077200000000175L100.23439999999994 46.53470000000016L99.49459999999999 47.42530000000011L100.60769999999991 47.81880000000001L100.26549999999997 48.95440000000008L100.77789999999993 50.02570000000014L102.82719999999995 51.230600000000095L101.6760999999999 54.99440000000004L103.21019999999999 58.47680000000014L101.41309999999999 60.06770000000006L100.57349999999997 62.74400000000014L100.03539999999998 63.16350000000011L101.64549999999997 65.37660000000005L103.582 65.7935L104.44200000000001 67.04870000000005L109.49849999999992 68.75490000000013L110.54390000000001 69.39810000000011L112.55639999999994 70.81730000000016L115.18599999999992 72.46540000000005L116.58159999999998 63.20460000000003L116.1671 62.495600000000195L114.8664 61.57400000000007L115.12919999999997 58.30750000000012L116.23140000000001 53.902900000000045L117.2088 52.141200000000026L116.99899999999991 51.37570000000005L118.6683999999999 47.14850000000001L121.48910000000001 41.79100000000017L122.6375999999999 40.71100000000001L124.13059999999996 37.46630000000005L127.08839999999998 33.8882000000001L131.9357 28.902000000000044L130.95209999999997 28.161600000000135L128.61759999999992 24.824100000000044L127.91239999999993 24.515800000000127L127.12979999999993 24.54860000000008L126.20359999999994 25.282300000000077L125.01839999999993 25.353300000000218L123.94099999999992 24.86830000000009L123.98419999999999 24.0779L123.52609999999993 23.4534000000001L121.59399999999994 23.310600000000022L121.23419999999999 24.009300000000167L120.85219999999993 24.107400000000098L119.77109999999993 23.637699999999995L118.81459999999993 22.950000000000045L118.0308 23.054100000000062L116.10709999999995 21.056200000000217z">
      <title id="t39">Deuxième circonscription de l'Aude</title>
      <desc id="d39">Cantons de : Coursan, Narbonne Est, Narbonne Ouest, Narbonne Sud, Sigean</desc>
    </path><path class="circo" id="id-011-03" d="M22.288799999999924 41.768800000000056L22.72589999999991 43.740800000000036L22.216399999999908 44.17800000000011L22.821899999999914 44.610600000000204L23.346799999999917 45.586500000000115L23.18539999999996 45.92240000000015L21.743799999999965 45.893600000000106L21.418399999999906 46.51740000000018L21.8836 47.9353000000001L22.581899999999905 48.23980000000006L23.176999999999907 47.91600000000017L24.438999999999965 48.76040000000012L24.73849999999993 49.27230000000009L25.274599999999964 50.196300000000065L25.249799999999937 50.94950000000017L23.871800000000007 52.755600000000186L25.222299999999905 53.27430000000004L25.390899999999988 54.317400000000134L25.076999999999998 55.024900000000116L25.288999999999987 57.34310000000005L25.77419999999995 57.92290000000003L26.90229999999997 58.14470000000006L26.240799999999922 59.0150000000001L25.5154 59.095200000000204L24.73249999999996 58.26760000000013L23.226099999999974 58.093000000000075L22.34579999999994 58.43170000000009L22.415300000000002 58.80360000000019L21.056699999999978 59.2491L20.85209999999995 60.74850000000015L24.833799999999997 61.858900000000176L25.5779 64.07500000000005L24.948399999999992 67.9376000000002L25.213499999999954 68.67270000000008L23.105699999999956 69.77240000000006L21.990699999999947 70.31600000000003L17.05340000000001 70.7781L15.935999999999922 70.82200000000012L15.861299999999915 71.56240000000003L15.90829999999994 72.30930000000012L14.599899999999934 73.70820000000003L14.531999999999925 74.47530000000006L15.405499999999961 75.14940000000001L17.608299999999986 75.85170000000016L17.847699999999918 76.5735000000002L18.109499999999912 76.8126000000002L20.446399999999926 79.82810000000018L19.88130000000001 80.30960000000005L18.794099999999958 80.5422000000001L18.749399999999923 80.91140000000019L19.089699999999993 81.59900000000016L20.519399999999905 82.0739000000001L20.667100000000005 82.56850000000009L21.69279999999992 83.11560000000009L22.256599999999935 84.10510000000022L25.757299999999987 84.43610000000012L26.358099999999922 84.30350000000021L26.80639999999994 84.58290000000011L28.183299999999917 83.83200000000011L29.101 83.66240000000016L29.454399999999964 83.0440000000001L30.217899999999986 82.97640000000001L31.425299999999993 82.04160000000002L33.70609999999999 82.4842000000001L33.82589999999993 82.4371000000001L34.09739999999999 84.221L35.0308 84.79290000000015L36.15890000000002 85.62810000000013L38.33989999999994 87.05300000000011L38.43700000000001 87.78840000000014L39.03139999999996 88.31860000000006L40.21249999999998 88.40160000000014L40.969299999999976 89.33050000000003L41.40479999999991 90.45720000000006L40.65899999999999 91.83940000000007L40.6001 92.63420000000019L41.452999999999975 93.89510000000018L41.45769999999993 93.94290000000001L41.46409999999992 94.36990000000014L42.83669999999995 94.03880000000004L42.81979999999999 93.19610000000011L45.07229999999993 91.65060000000017L47.26400000000001 90.7945000000002L48.303699999999935 88.66240000000016L48.96569999999997 88.21730000000002L48.986299999999915 87.41730000000007L49.89339999999993 88.12340000000017L51.01589999999999 88.38470000000007L53.89749999999992 87.52410000000009L55.631599999999935 85.81270000000018L56.69029999999998 85.21720000000005L56.84229999999991 84.01710000000003L56.53929999999991 82.84260000000017L56.44599999999991 82.71220000000017L56.27999999999997 81.83200000000011L56.43709999999999 81.1259L55.668499999999995 79.88490000000002L55.745399999999904 79.13760000000002L55.71939999999995 76.74430000000007L54.95429999999999 76.61640000000011L54.678699999999935 74.70150000000012L53.84949999999992 73.89990000000012L54.11429999999996 72.80740000000014L55.053999999999974 72.16880000000015L58.00810000000001 71.51480000000015L58.97019999999998 71.26950000000011L60.601 71.80210000000011L65.31589999999994 72.5435L65.77299999999991 72.41830000000004L69.02469999999994 71.04160000000002L69.73259999999993 71.11330000000021L70.28099999999995 71.61870000000022L70.56209999999999 71.8869000000002L73.96759999999995 71.61260000000016L75.14069999999992 71.8605L77.4932 72.64570000000003L80.75149999999996 72.93630000000007L82.95619999999997 72.6273000000001L83.02369999999996 72.6386L84.45759999999996 73.32680000000005L88.3184 72.89950000000022L89.73799999999994 72.23700000000008L90.60629999999992 70.8936000000001L91.2491 68.38670000000002L93.39589999999998 65.94060000000013L95.3481999999999 65.47540000000004L94.12540000000001 63.808700000000044L91.45159999999998 62.74220000000014L90.8087999999999 61.705400000000054L88.9357 60.923100000000204L88.30529999999999 59.43500000000017L87.17849999999999 61.5014000000001L85.31290000000001 60.9050000000002L84.92739999999992 60.21530000000007L84.5199 59.5621000000001L84.57729999999992 58.03480000000013L83.13749999999993 55.721300000000156L84.92999999999995 56.65440000000012L85.3338 56.64540000000011L86.14979999999991 55.745800000000145L85.19409999999993 54.97400000000016L84.88849999999991 53.805700000000115L85.24419999999998 52.6251000000002L86.56889999999999 50.53720000000021L85.80859999999996 48.72660000000019L85.95989999999995 47.94130000000018L85.63649999999996 46.78970000000004L83.53199999999993 45.89610000000016L84.34309999999994 44.07160000000022L83.92250000000001 42.96050000000014L84.78499999999997 42.13630000000012L83.4615 41.24530000000004L83.12159999999994 40.54500000000007L81.02959999999996 39.4692L81.05700000000002 39.07940000000008L79.47559999999999 37.9846L79.8943999999999 37.324600000000146L79.79789999999991 36.57170000000019L78.85129999999992 36.66740000000004L73.58499999999992 34.7175000000002L73.53269999999998 34.70620000000008L72.17949999999996 34.77590000000009L71.91660000000002 35.527900000000045L69.78959999999995 34.59220000000005L69.34559999999999 35.23230000000012L68.56259999999997 35.11990000000014L67.6943 38.11110000000008L66.62309999999991 37.62050000000022L65.85579999999993 37.7818000000002L64.36259999999993 37.30910000000017L63.71690000000001 39.437400000000025L63.8682 40.464800000000196L62.525699999999915 40.13200000000006L61.156099999999924 38.82230000000004L61.610000000000014 37.38980000000015L61.46899999999994 36.67730000000006L61.38109999999995 36.65080000000012L57.41019999999992 36.024700000000166L57.40530000000001 36.06140000000005L57.668499999999995 36.33170000000018L57.58579999999995 37.08270000000016L56.65289999999993 38.05520000000001L57.37289999999996 38.912700000000086L56.46889999999996 39.42190000000005L54.42660000000001 38.480400000000145L53.32009999999991 38.60420000000022L52.7672 39.605200000000195L52.264999999999986 39.4693000000002L52.447400000000016 38.833900000000085L52.196699999999964 38.227400000000216L52.48449999999991 37.477800000000116L51.39490000000001 35.7637000000002L49.849699999999984 35.57540000000017L50.363200000000006 35.08120000000008L50.386799999999994 34.3451L51.4434 34.05670000000009L51.67689999999993 32.94120000000021L52.486999999999966 33.22860000000014L52.829599999999914 32.50640000000021L53.91909999999996 32.18690000000015L53.9289 31.69230000000016L54.83839999999998 31.11460000000011L54.43959999999993 30.572000000000116L55.488200000000006 29.47960000000012L55.06200000000001 28.49010000000021L53.86379999999997 27.157700000000204L52.988200000000006 27.066900000000032L52.589599999999905 27.033600000000206L49.94029999999998 25.257500000000164L50.29639999999995 24.501500000000078L50.81200000000001 23.90780000000018L51.58019999999999 24.06470000000013L51.83179999999993 23.76220000000012L51.89670000000001 21.41150000000016L53.36019999999996 21.935200000000123L54.83969999999999 21.546600000000126L54.82269999999994 20.508000000000038L56.23149999999998 20.638000000000147L55.29329999999993 19.341000000000122L54.91269999999997 17.395100000000184L54.293499999999995 16.86960000000022L52.30799999999999 16.753400000000056L51.34929999999997 16.00720000000001L50.74649999999997 15.479800000000068L50.81099999999992 15.079700000000003L50.164800000000014 14.061500000000024L50.1309 12.868400000000065L50.92679999999996 13.740300000000161L52.10730000000001 13.601400000000012L52.315200000000004 11.608699999999999L52.05409999999995 10.878900000000158L51.73419999999999 10.157000000000153L51.79059999999993 8.599300000000085L50.273399999999924 6.7628000000001975L49.93430000000001 5.695400000000063L51.233499999999935 4.810699999999997L51.13589999999999 3.6385999999999967L50.456699999999955 2.2114000000001397L49.045999999999935 0.8423999999999978L48.44079999999997 0L48.30409999999995 0.7577000000001135L46.99989999999991 2.041700000000219L46.83109999999999 2.3846000000000913L45.39799999999991 3.7266000000001895L45.471000000000004 4.9568000000001575L45.97899999999993 6.06880000000001L44.76259999999991 9.069700000000012L42.363699999999994 7.642900000000054L40.97039999999993 5.185900000000174L39.776700000000005 5.2954000000002L38.242399999999975 6.602600000000166L37.83769999999993 6.6197000000001935L37.284400000000005 7.132100000000037L36.15949999999998 7.185800000000199L35.925899999999956 7.482100000000173L35.732099999999946 7.684200000000146L34.56979999999999 7.480600000000095L34.27819999999997 7.751300000000128L33.769199999999955 7.260500000000093L32.67329999999993 7.539600000000064L32.204599999999914 6.476700000000164L32.43059999999991 6.158400000000029L31.703599999999938 5.26480000000015L30.99619999999993 3.4895000000001346L28.9615 2.7181000000000495L29.750099999999975 4.054300000000012L29.655099999999948 4.440900000000056L28.932699999999954 4.740400000000136L28.263399999999933 4.322200000000066L27.556499999999915 5.27760000000012L25.708099999999945 5.937900000000127L24.16369999999995 4.789300000000139L23.588499999999954 5.2590000000000146L23.403899999999908 4.373900000000049L22.929399999999987 4.039000000000215L22.025699999999915 4.6491000000000895L20.919599999999946 4.2490999999999985L19.787799999999947 4.581400000000031L19.71010000000001 5.349100000000135L18.941599999999994 6.6788000000001375L19.228399999999965 6.948500000000195L18.895099999999957 7.340400000000045L18.29009999999994 7.735100000000102L17.609499999999912 7.436200000000099L18.16459999999995 6.018000000000029L17.78309999999999 5.3663000000001375L15.773699999999963 3.495200000000068L15.68489999999997 2.710800000000063L14.28329999999994 1.9505000000001473L13.135699999999929 3.227000000000089L13.464799999999968 3.769800000000032L13.268199999999979 4.390800000000127L12.917299999999955 5.07730000000015L11.759399999999914 4.959700000000112L10.952299999999923 5.789800000000014L10.887099999999919 6.5508000000002085L11.322299999999927 7.178000000000111L11.703899999999976 7.6607000000001335L9.869699999999966 8.017700000000104L10.240399999999909 9.096000000000004L9.83039999999994 9.790500000000065L9.913099999999986 11.798600000000079L10.817199999999957 13.09960000000001L10.630799999999908 13.876400000000103L9.227300000000014 13.986000000000104L8.203800000000001 13.44970000000012L7.489599999999996 13.753100000000131L7.127799999999979 14.4054000000001L5.168399999999906 12.946100000000115L4.941699999999969 13.644900000000007L3.9957999999999174 14.320400000000063L2.9313999999999396 13.872900000000072L3.3736000000000104 14.534400000000005L3.226699999999937 14.905900000000202L3.0594999999999573 15.259800000000041L4.040399999999977 16.85440000000017L3.3222999999999274 17.140300000000025L1.3256999999999834 18.396200000000135L2.2192000000000007 19.064600000000155L1.5493000000000166 20.356300000000147L1.092800000000011 20.862800000000107L0.7078999999999951 21.522500000000036L0 21.813700000000154L1.072400000000016 23.51090000000022L1.008299999999963 25.086900000000014L2.3514000000000124 27.086500000000115L3.016599999999926 27.545900000000074L2.7555999999999585 27.83340000000021L3.0775999999999613 28.9384L1.8375999999999522 30.407500000000027L1.8030999999999722 31.5608000000002L1.9856999999999516 31.93010000000004L3.1847999999999956 31.832000000000107L4.351199999999949 32.22630000000004L5.6462999999999965 33.78490000000011L7.739100000000008 35.01650000000018L8.087299999999914 35.71960000000013L9.586399999999912 35.4063000000001L11.307000000000016 36.340400000000045L11.710699999999974 36.72640000000001L13.59579999999994 36.532900000000154L13.375599999999963 35.462800000000016L13.901299999999992 34.98760000000016L14.316699999999969 36.84940000000006L15.81639999999993 37.08030000000008L16.339899999999943 36.51000000000022L16.33549999999991 38.48960000000011L17.143599999999992 39.31410000000005L17.361599999999953 40.052700000000186L18.360799999999927 38.41800000000012L19.36779999999999 38.15380000000005L20.314700000000016 38.61220000000003L20.36469999999997 39.230800000000045L21.81549999999993 39.443700000000035L22.361699999999928 40.72990000000004L22.288799999999924 41.768800000000056z">
      <title id="t40">Troisième circonscription de l'Aude</title>
      <desc id="d40">Cantons de : Alaigne, Alzonne, Axat, Belcaire, Belpech, Carcassonne II Sud, Castelnaudary Nord, Castelnaudary Sud, Chalabre, Couiza, Fanjeaux, Lagrasse, Limoux, Montréal, Mouthoumet, Quillan, Saint-Hilaire, Saissac, Salles-sur-l'Hers, Tuchan</desc>
    </path></svg>