<svg xmlns="http://www.w3.org/2000/svg" version="1.1" xmlns:xlink="http://www.w3.org/1999/xlink" xmlns:svgjs="http://svgjs.dev/svgjs" viewBox="800.36823 1110.4488 131.9357 94.36990000000014"><path class="circo" id="id-011-01" d="M 870.15783,1145.041 869.71383,1145.6811 868.93083,1145.5687 868.06253,1148.5599 866.99133,1148.0693 866.22403,1148.2306 864.73083,1147.7579 864.08513,1149.8862 864.23643,1150.9136 862.89393,1150.5808 861.52433,1149.2711 861.97823,1147.8386 861.83723,1147.1261 861.74933,1147.0996 857.77843,1146.4735 857.77353,1146.5102 858.03673,1146.7805 857.95403,1147.5315 857.02113,1148.504 857.74113,1149.3615 856.83713,1149.8707 854.79483,1148.9292 853.68833,1149.053 853.13543,1150.054 852.63323,1149.9181 852.81563,1149.2827 852.56493,1148.6762 852.85273,1147.9266 851.76313,1146.2125 850.21793,1146.0242 850.73143,1145.53 850.75503,1144.7939 851.81163,1144.5055 852.04513,1143.39 852.85523,1143.6774 853.19783,1142.9552 854.28733,1142.6357 854.29713,1142.1411 855.20663,1141.5634 854.80783,1141.0208 855.85643,1139.9284 855.43023,1138.9389 854.23203,1137.6065 853.35643,1137.5157 852.95783,1137.4824 850.30853,1135.7063 850.66463,1134.9503 851.18023,1134.3566 851.94843,1134.5135 852.20003,1134.211 852.26493,1131.8603 853.72843,1132.384 855.20793,1131.9954 855.19093,1130.9568 856.59973,1131.0868 855.66153,1129.7898 855.28093,1127.8439 854.66173,1127.3184 852.67623,1127.2022 851.71753,1126.456 851.11473,1125.9286 851.17923,1125.5285 850.53303,1124.5103 850.49913,1123.3172 851.29503,1124.1891 852.47553,1124.0502 852.68343,1122.0575 852.42233,1121.3277 852.10243,1120.6058 852.15883,1119.0481 850.64163,1117.2116 850.30253,1116.1442 851.60173,1115.2595 851.50413,1114.0874 850.82493,1112.6602 852.32833,1112.0062 852.70403,1111.8754 853.52473,1112.7077 856.46703,1113.6496 858.07733,1114.7727 858.74373,1114.7936 860.74673,1115.4898 861.43623,1115.2319 861.26453,1114.8594 861.51393,1114.5343 863.19943,1113.4487 865.19833,1113.7135 866.76573,1113.3478 867.11853,1113.2118 868.87703,1113.1623 869.27283,1113.8453 870.42043,1114.132 870.96853,1114.7098 873.43873,1114.6004 874.58073,1115.032 874.92563,1114.8037 874.94653,1114.7983 876.47953,1116.0029 877.26363,1116.1146 876.74023,1117.5257 875.60033,1117.5444 875.22233,1117.456 874.99113,1117.7687 874.20443,1118.6803 873.80853,1120.243 874.04993,1121.4188 872.76143,1123.8892 873.73263,1124.9866 874.07523,1124.7964 876.45553,1125.2124 877.17543,1127.0734 877.83023,1127.5577 877.95463,1129.378 879.37073,1130.6128 879.29623,1130.9914 879.94753,1130.6205 880.50623,1129.6493 881.58723,1129.8155 882.89133,1129.9957 882.93373,1129.6026 884.21783,1128.7409 884.41823,1127.5842 885.12693,1127.2376 885.31563,1126.4875 886.11343,1127.2169 886.28253,1128.201 886.82363,1130.0776 886.38073,1131.1812 886.60733,1131.8808 887.11313,1132.2507 887.86263,1132.0285 889.82073,1133.3103 890.81933,1134.4757 892.51703,1134.0748 893.15503,1133.233 893.75693,1132.2063 893.74743,1132.1592 893.77053,1130.612 895.01033,1129.1379 895.67823,1128.6634 896.26653,1128.164 895.37453,1126.9302 896.39853,1126.3748 898.03383,1126.5542 898.76313,1126.1817 900.68113,1125.662 901.12343,1124.5438 900.76923,1122.578 899.58353,1120.5868 900.73573,1119.3991 900.85363,1119.7061 900.99983,1120.6507 902.31123,1121.3913 902.49723,1122.4734 902.46253,1123.1255 902.60553,1124.2903 902.09053,1125.2898 902.92443,1126.1065 904.28893,1126.8321 905.16163,1126.127 907.27223,1127.7774 908.24613,1127.717 911.06713,1126.9289 912.23163,1126.8721 912.38953,1129.1587 912.34343,1130.7808 912.88443,1131.4006 911.43503,1132.6849 911.06563,1132.7983 910.46813,1132.329 909.21053,1133.1853 908.80443,1135.0207 908.37373,1135.5783 907.69163,1135.4054 906.29343,1135.6837 905.77763,1136.6267 904.82853,1137.105 904.17933,1136.3838 904.38923,1137.0153 903.37903,1136.9556 902.72213,1136.0665 901.97703,1135.8062 901.25693,1136.7508 900.85853,1136.7547 900.09063,1136.6238 899.39273,1135.8494 898.81693,1136.0803 898.10623,1136.3504 896.78403,1135.7267 896.23323,1136.3409 895.44933,1136.5916 894.61353,1138.1405 895.43603,1138.8215 898.45263,1140.1576 898.98183,1140.833 898.90603,1141.11 900.20433,1141.868 899.73873,1143.3212 898.40943,1144.1279 897.99383,1145.2462 898.00433,1146.7806 897.53473,1148.4141 897.99963,1149.0731 899.56873,1149.1895 899.65933,1150.7856 900.68563,1152.9337 901.88313,1152.8376 902.56043,1152.9999 902.44413,1154.9063 901.03603,1155.526 900.60263,1156.9835 899.86283,1157.8741 900.97593,1158.2676 900.63373,1159.4032 901.14613,1160.4745 903.19543,1161.6794 902.04433,1165.4432 903.57843,1168.9256 901.78133,1170.5165 900.94173,1173.1928 900.40363,1173.6123 898.07853,1174.3119 895.71643,1175.9242 894.49363,1174.2575 891.81983,1173.191 891.17703,1172.1542 889.30393,1171.3719 888.67353,1169.8838 887.54673,1171.9502 885.68113,1171.3538 885.29563,1170.6641 884.88813,1170.0109 884.94553,1168.4836 883.50573,1166.1701 885.29823,1167.1032 885.70203,1167.0942 886.51803,1166.1946 885.56233,1165.4228 885.25673,1164.2545 885.61243,1163.0739 886.93713,1160.986 886.17683,1159.1754 886.32813,1158.3901 886.00473,1157.2385 883.90023,1156.3449 884.71133,1154.5204 884.29073,1153.4093 885.15323,1152.5851 883.82973,1151.6941 883.48983,1150.9938 881.39783,1149.918 881.42523,1149.5282 879.84383,1148.4334 880.26263,1147.7734 880.16613,1147.0205 879.21953,1147.1162 873.95323,1145.1663 873.90093,1145.155 872.54773,1145.2247 872.28483,1145.9767 870.15783,1145.041 z">
      <title id="t38">Première circonscription de l'Aude</title>
      <desc id="d38">Cantons de : Capendu, Carcassonne I, Carcassonne II Nord, Carcassonne III, Conques-sur-Orbiel, Durban-Corbières, Ginestas, Lézignan-Corbières, Mas-Cabardès, Peyriac-Minervois</desc>
    </path><path class="circo" id="id-011-02" d="M 916.47533,1131.505 914.13723,1131.3746 913.13343,1131.9982 912.80073,1131.7881 912.88443,1131.4006 911.43503,1132.6849 911.06563,1132.7983 910.46813,1132.329 909.21053,1133.1853 908.80443,1135.0207 908.37373,1135.5783 907.69163,1135.4054 906.29343,1135.6837 905.77763,1136.6267 904.82853,1137.105 904.17933,1136.3838 904.38923,1137.0153 903.37903,1136.9556 902.72213,1136.0665 901.97703,1135.8062 901.25693,1136.7508 900.85853,1136.7547 900.09063,1136.6238 899.39273,1135.8494 898.81693,1136.0803 898.10623,1136.3504 896.78403,1135.7267 896.23323,1136.3409 895.44933,1136.5916 894.61353,1138.1405 895.43603,1138.8215 898.45263,1140.1576 898.98183,1140.833 898.90603,1141.11 900.20433,1141.868 899.73873,1143.3212 898.40943,1144.1279 897.99383,1145.2462 898.00433,1146.7806 897.53473,1148.4141 897.99963,1149.0731 899.56873,1149.1895 899.65933,1150.7856 900.68563,1152.9337 901.88313,1152.8376 902.56043,1152.9999 902.44413,1154.9063 901.03603,1155.526 900.60263,1156.9835 899.86283,1157.8741 900.97593,1158.2676 900.63373,1159.4032 901.14613,1160.4745 903.19543,1161.6794 902.04433,1165.4432 903.57843,1168.9256 901.78133,1170.5165 900.94173,1173.1928 900.40363,1173.6123 902.01373,1175.8254 903.95023,1176.2423 904.81023,1177.4975 909.86673,1179.2037 910.91213,1179.8469 912.92463,1181.2661 915.55423,1182.9142 916.94983,1173.6534 916.53533,1172.9444 915.23463,1172.0228 915.49743,1168.7563 916.59963,1164.3517 917.57703,1162.59 917.36723,1161.8245 919.03663,1157.5973 921.85733,1152.2398 923.00583,1151.1598 924.49883,1147.9151 927.45663,1144.337 932.30393,1139.3508 931.32033,1138.6104 928.98583,1135.2729 928.28063,1134.9646 927.49803,1134.9974 926.57183,1135.7311 925.38663,1135.8021 924.30923,1135.3171 924.35243,1134.5267 923.89433,1133.9022 921.96223,1133.7594 921.60243,1134.4581 921.22043,1134.5562 920.13933,1134.0865 919.18283,1133.3988 918.39903,1133.5029 916.47533,1131.505 z">
      <title id="t39">Deuxième circonscription de l'Aude</title>
      <desc id="d39">Cantons de : Coursan, Narbonne Est, Narbonne Ouest, Narbonne Sud, Sigean</desc>
    </path><path class="circo" id="id-011-03" d="M 822.65703,1152.2176 823.09413,1154.1896 822.58463,1154.6268 823.19013,1155.0594 823.71503,1156.0353 823.55363,1156.3712 822.11203,1156.3424 821.78663,1156.9662 822.25183,1158.3841 822.95013,1158.6886 823.54523,1158.3648 824.80723,1159.2092 825.10673,1159.7211 825.64283,1160.6451 825.61803,1161.3983 824.24003,1163.2044 825.59053,1163.7231 825.75913,1164.7662 825.44523,1165.4737 825.65723,1167.7919 826.14243,1168.3717 827.27053,1168.5935 826.60903,1169.4638 825.88363,1169.544 825.10073,1168.7164 823.59433,1168.5418 822.71403,1168.8805 822.78353,1169.2524 821.42493,1169.6979 821.22033,1171.1973 825.20203,1172.3077 825.94613,1174.5238 825.31663,1178.3864 825.58173,1179.1215 823.47393,1180.2212 822.35893,1180.7648 817.42163,1181.2269 816.30423,1181.2708 816.22953,1182.0112 816.27653,1182.7581 814.96813,1184.157 814.90023,1184.9241 815.77373,1185.5982 817.97653,1186.3005 818.21593,1187.0223 818.47773,1187.2614 820.81463,1190.2769 820.24953,1190.7584 819.16233,1190.991 819.11763,1191.3602 819.45793,1192.0478 820.88763,1192.5227 821.03533,1193.0173 822.06103,1193.5644 822.62483,1194.5539 826.12553,1194.8849 826.72633,1194.7523 827.17463,1195.0317 828.55153,1194.2808 829.46923,1194.1112 829.82263,1193.4928 830.58613,1193.4252 831.79353,1192.4904 834.07433,1192.933 834.19413,1192.8859 834.46563,1194.6698 835.39903,1195.2417 836.52713,1196.0769 838.70813,1197.5018 838.80523,1198.2372 839.39963,1198.7674 840.58073,1198.8504 841.33753,1199.7793 841.77303,1200.906 841.02723,1202.2882 840.96833,1203.083 841.82123,1204.3439 841.82593,1204.3917 841.83233,1204.8187 843.20493,1204.4876 843.18803,1203.6449 845.44053,1202.0994 847.63223,1201.2433 848.67193,1199.1112 849.33393,1198.6661 849.35453,1197.8661 850.26163,1198.5722 851.38413,1198.8335 854.26573,1197.9729 855.99983,1196.2615 857.05853,1195.666 857.21053,1194.4659 856.90753,1193.2914 856.81423,1193.161 856.64823,1192.2808 856.80533,1191.5747 856.03673,1190.3337 856.11363,1189.5864 856.08763,1187.1931 855.32253,1187.0652 855.04693,1185.1503 854.21773,1184.3487 854.48253,1183.2562 855.42223,1182.6176 858.37633,1181.9636 859.33843,1181.7183 860.96923,1182.2509 865.68413,1182.9923 866.14123,1182.8671 869.39293,1181.4904 870.10083,1181.5621 870.64923,1182.0675 870.93033,1182.3357 874.33583,1182.0614 875.50893,1182.3093 877.86143,1183.0945 881.11973,1183.3851 883.32443,1183.0761 883.39193,1183.0874 884.82583,1183.7756 888.68663,1183.3483 890.10623,1182.6858 890.97453,1181.3424 891.61733,1178.8355 893.76413,1176.3894 895.71643,1175.9242 894.49363,1174.2575 891.81983,1173.191 891.17703,1172.1542 889.30393,1171.3719 888.67353,1169.8838 887.54673,1171.9502 885.68113,1171.3538 885.29563,1170.6641 884.88813,1170.0109 884.94553,1168.4836 883.50573,1166.1701 885.29823,1167.1032 885.70203,1167.0942 886.51803,1166.1946 885.56233,1165.4228 885.25673,1164.2545 885.61243,1163.0739 886.93713,1160.986 886.17683,1159.1754 886.32813,1158.3901 886.00473,1157.2385 883.90023,1156.3449 884.71133,1154.5204 884.29073,1153.4093 885.15323,1152.5851 883.82973,1151.6941 883.48983,1150.9938 881.39783,1149.918 881.42523,1149.5282 879.84383,1148.4334 880.26263,1147.7734 880.16613,1147.0205 879.21953,1147.1162 873.95323,1145.1663 873.90093,1145.155 872.54773,1145.2247 872.28483,1145.9767 870.15783,1145.041 869.71383,1145.6811 868.93083,1145.5687 868.06253,1148.5599 866.99133,1148.0693 866.22403,1148.2306 864.73083,1147.7579 864.08513,1149.8862 864.23643,1150.9136 862.89393,1150.5808 861.52433,1149.2711 861.97823,1147.8386 861.83723,1147.1261 861.74933,1147.0996 857.77843,1146.4735 857.77353,1146.5102 858.03673,1146.7805 857.95403,1147.5315 857.02113,1148.504 857.74113,1149.3615 856.83713,1149.8707 854.79483,1148.9292 853.68833,1149.053 853.13543,1150.054 852.63323,1149.9181 852.81563,1149.2827 852.56493,1148.6762 852.85273,1147.9266 851.76313,1146.2125 850.21793,1146.0242 850.73143,1145.53 850.75503,1144.7939 851.81163,1144.5055 852.04513,1143.39 852.85523,1143.6774 853.19783,1142.9552 854.28733,1142.6357 854.29713,1142.1411 855.20663,1141.5634 854.80783,1141.0208 855.85643,1139.9284 855.43023,1138.9389 854.23203,1137.6065 853.35643,1137.5157 852.95783,1137.4824 850.30853,1135.7063 850.66463,1134.9503 851.18023,1134.3566 851.94843,1134.5135 852.20003,1134.211 852.26493,1131.8603 853.72843,1132.384 855.20793,1131.9954 855.19093,1130.9568 856.59973,1131.0868 855.66153,1129.7898 855.28093,1127.8439 854.66173,1127.3184 852.67623,1127.2022 851.71753,1126.456 851.11473,1125.9286 851.17923,1125.5285 850.53303,1124.5103 850.49913,1123.3172 851.29503,1124.1891 852.47553,1124.0502 852.68343,1122.0575 852.42233,1121.3277 852.10243,1120.6058 852.15883,1119.0481 850.64163,1117.2116 850.30253,1116.1442 851.60173,1115.2595 851.50413,1114.0874 850.82493,1112.6602 849.41423,1111.2912 848.80903,1110.4488 848.67233,1111.2065 847.36813,1112.4905 847.19933,1112.8334 845.76623,1114.1754 845.83923,1115.4056 846.34723,1116.5176 845.13083,1119.5185 842.73193,1118.0917 841.33863,1115.6347 840.14493,1115.7442 838.61063,1117.0514 838.20593,1117.0685 837.65263,1117.5809 836.52773,1117.6346 836.29413,1117.9309 836.10033,1118.133 834.93803,1117.9294 834.64643,1118.2001 834.13743,1117.7093 833.04153,1117.9884 832.57283,1116.9255 832.79883,1116.6072 832.07183,1115.7136 831.36443,1113.9383 829.32973,1113.1669 830.11833,1114.5031 830.02333,1114.8897 829.30093,1115.1892 828.63163,1114.771 827.92473,1115.7264 826.07633,1116.3867 824.53193,1115.2381 823.95673,1115.7078 823.77213,1114.8227 823.29763,1114.4878 822.39393,1115.0979 821.28783,1114.6979 820.15603,1115.0302 820.07833,1115.7979 819.30983,1117.1276 819.59663,1117.3973 819.26333,1117.7892 818.65833,1118.1839 817.97773,1117.885 818.53283,1116.4668 818.15133,1115.8151 816.14193,1113.944 816.05313,1113.1596 814.65153,1112.3993 813.50393,1113.6758 813.83303,1114.2186 813.63643,1114.8396 813.28553,1115.5261 812.12763,1115.4085 811.32053,1116.2386 811.25533,1116.9996 811.69053,1117.6268 812.07213,1118.1095 810.23793,1118.4665 810.60863,1119.5448 810.19863,1120.2393 810.28133,1122.2474 811.18543,1123.5484 810.99903,1124.3252 809.59553,1124.4348 808.57203,1123.8985 807.85783,1124.2019 807.49603,1124.8542 805.53663,1123.3949 805.30993,1124.0937 804.36403,1124.7692 803.29963,1124.3217 803.74183,1124.9832 803.59493,1125.3547 803.42773,1125.7086 804.40863,1127.3032 803.69053,1127.5891 801.69393,1128.845 802.58743,1129.5134 801.91753,1130.8051 801.46103,1131.3116 801.07613,1131.9713 800.36823,1132.2625 801.44063,1133.9597 801.37653,1135.5357 802.71963,1137.5353 803.38483,1137.9947 803.12383,1138.2822 803.44583,1139.3872 802.20583,1140.8563 802.17133,1142.0096 802.35393,1142.3789 803.55303,1142.2808 804.71943,1142.6751 806.01453,1144.2337 808.10733,1145.4653 808.45553,1146.1684 809.95463,1145.8551 811.67523,1146.7892 812.07893,1147.1752 813.96403,1146.9817 813.74383,1145.9116 814.26953,1145.4364 814.68493,1147.2982 816.18463,1147.5291 816.70813,1146.9588 816.70373,1148.9384 817.51183,1149.7629 817.72983,1150.5015 818.72903,1148.8668 819.73603,1148.6026 820.68293,1149.061 820.73293,1149.6796 822.18373,1149.8925 822.72993,1151.1787 822.65703,1152.2176 z">
      <title id="t40">Troisième circonscription de l'Aude</title>
      <desc id="d40">Cantons de : Alaigne, Alzonne, Axat, Belcaire, Belpech, Carcassonne II Sud, Castelnaudary Nord, Castelnaudary Sud, Chalabre, Couiza, Fanjeaux, Lagrasse, Limoux, Montréal, Mouthoumet, Quillan, Saint-Hilaire, Saissac, Salles-sur-l'Hers, Tuchan</desc>
    </path></svg>