<svg xmlns="http://www.w3.org/2000/svg" version="1.1" xmlns:xlink="http://www.w3.org/1999/xlink" xmlns:svgjs="http://svgjs.dev/svgjs" viewBox="0 0 136.96519999999998 148.46137"><path class="circo" id="id-012-01" d="M70.92849999999999 68.92417L70.13030000000003 69.84786999999994L68.99880000000007 69.59267L68.61450000000002 70.74257L69.85379999999998 71.51826999999992L70.85950000000003 73.14747L70.61760000000004 73.67057L70.07240000000002 74.30066999999997L68.8469 74.56047000000001L69.81700000000001 75.14006999999992L69.73700000000008 76.35406999999998L69.44299999999998 76.61086999999998L67.92840000000001 76.00927000000001L67.11180000000002 76.14136999999994L66.91600000000005 76.42457000000002L67.5172 77.42336999999998L65.97120000000007 77.8081699999999L65.20060000000001 76.41796999999997L66.62080000000003 75.73196999999993L65.84019999999998 74.75106999999991L65.53500000000008 73.56116999999995L63.91520000000003 74.67526999999995L62.80340000000001 74.61797000000001L62.5693 74.30057L61.88700000000006 74.65186999999992L61.66930000000002 75.36416999999994L62.35509999999999 75.69506999999999L62.16129999999998 76.88496999999995L62.76350000000002 77.93146999999999L61.414300000000026 79.73866999999996L61.138900000000035 79.4408699999999L60.3818 79.45796999999993L60.266500000000065 78.65506999999991L59.7029 78.07246999999995L58.1105 78.25506999999993L57.01960000000008 77.72096999999997L55.77909999999997 75.78626999999994L56.776700000000005 74.62617L55.78370000000007 72.99506999999994L54.52190000000007 72.55496999999991L54.456300000000056 72.14676999999995L52.95990000000006 71.57706999999994L52.692800000000034 70.40287000000001L51.870900000000006 70.44817L50.60890000000006 69.48757L49.85400000000004 69.82156999999995L48.433400000000006 68.37437L47.81529999999998 69.16896999999994L47.3048 68.65596999999991L46.95670000000007 68.75806999999998L46.85270000000003 67.57497000000001L47.5317 64.83398999999997L46.03679999999997 64.32941999999991L45.07069999999999 62.56319999999994L44.42010000000005 63.039699999999925L44.15240000000006 62.687329999999974L48.177400000000034 61.12365L49.05529999999999 59.83427999999992L48.703899999999976 58.826169999999934L46.81020000000001 58.15872999999999L45.92650000000003 57.319849999999974L45.126100000000065 57.44728999999995L45.82770000000005 56.44239999999991L45.71659999999997 55.625119999999924L43.38600000000008 53.33034999999995L43.33710000000008 52.58515999999997L43.644300000000044 52.35620999999992L44.507799999999975 53.099039999999945L45.40600000000006 52.42985999999996L46.746399999999994 52.78954999999996L47.30510000000004 51.88292000000001L47.133800000000065 50.72951999999998L47.90350000000001 49.831809999999905L48.55510000000004 47.985810000000015L51.756500000000074 48.45435999999995L52.94100000000003 46.438260000000014L53.224500000000035 46.417029999999954L57.90740000000005 47.06125999999995L58.29430000000002 47.16728999999998L58.293499999999995 47.56994999999995L58.67160000000001 47.63864000000001L59.835699999999974 46.69220999999993L60.975599999999986 46.52999L59.386300000000006 44.49208999999996L58.72950000000003 43.67518999999993L58.87530000000004 43.34665999999993L58.37920000000008 42.75340999999992L58.21180000000004 41.6164L57.37340000000006 42.341519999999946L56.68380000000002 41.99872999999991L56.09490000000005 40.49997999999994L56.692800000000034 38.98061999999993L56.1105 37.875839999999926L55.131399999999985 37.09398999999996L54.78390000000002 35.89703999999995L53.412900000000036 35.73300999999992L53.74650000000008 34.64229L54.53489999999999 34.87792000000002L54.827800000000025 34.57477999999992L55.23910000000001 33.84274999999991L55.20950000000005 32.58296999999993L56.17169999999999 30.245649999999955L57.734800000000064 29.023719999999912L57.99030000000005 28.31585999999993L59.22370000000001 27.47718999999995L60.90930000000003 26.248309999999947L60.95230000000004 25.871099999999956L60.32839999999999 25.480459999999994L60.56060000000002 25.144129999999905L60.740099999999984 24.22406000000001L60.692300000000046 22.03690999999992L61.28710000000001 21.603560000000016L61.61099999999999 19.562270000000012L62.41020000000003 18.72768999999994L63.48770000000002 18.855590000000007L64.64030000000002 17.696929999999952L64.4959 14.449749999999995L65.59339999999997 13.271409999999946L64.98360000000002 11.774220000000014L66.16330000000005 10.589669999999956L67.10140000000001 8.276689999999917L69.13909999999998 8.575109999999995L69.40890000000002 8.257619999999974L69.61189999999999 6.6517299999999295L71.58879999999999 4.066679999999906L72.23450000000003 4.4963299999999435L73.67169999999999 4.097519999999918L74.55520000000001 1.4873799999999164L75.21730000000002 1.6633899999999358L75.46350000000007 0.9058899999999994L76.33360000000005 0.102800000000002L76.38170000000002 0L76.70749999999998 1.110369999999989L77.88290000000006 1.0892399999999043L79.5983 3.7917099999999664L79.27100000000007 4.945510000000013L79.81040000000007 6.448859999999968L79.202 7.526399999999967L78.98710000000005 9.157749999999965L79.23260000000005 9.949469999999906L80.04200000000003 10.02382L80.69360000000006 9.012509999999907L82.03640000000007 8.093409999999949L82.73910000000001 8.491269999999986L85.99970000000008 8.31362999999999L86.29950000000008 8.030199999999923L86.70310000000006 8.012089999999944L86.35300000000007 10.798419999999965L87.03700000000003 11.263619999999946L86.84530000000007 12.393989999999917L87.56650000000002 13.391019999999912L88.38340000000005 16.56682999999998L89.25009999999997 18.33641L89.94910000000004 18.72145999999998L90.71850000000006 18.680619999999976L91.84680000000003 17.619429999999966L93.00139999999999 19.25630000000001L93.0231 20.872189999999932L92.75049999999999 21.187180000000012L91.52480000000003 21.13882000000001L91.36300000000006 21.52155999999991L91.51170000000002 21.911569999999983L92.61419999999998 22.466639999999984L92.96490000000006 23.213039999999978L92.7953 24.435039999999958L92.10800000000006 25.480579999999918L92.7559 27.348610000000008L93.03769999999997 29.35866999999996L93.65110000000004 30.43455999999992L93.47500000000002 31.58845999999994L94.64690000000007 32.633640000000014L94.82850000000008 33.427709999999934L95.45820000000003 33.94372999999996L95.38980000000004 34.35048999999992L96.1019 35.09238999999991L97.07330000000002 35.52010999999993L99.78790000000004 38.40310999999997L100.20979999999997 39.533000000000015L101.24099999999999 40.76729L101.78700000000003 41.38864000000001L103.06299999999999 42.14481999999998L103.69950000000006 43.04890999999998L105.10760000000005 44.13198L105.14250000000004 44.49614999999994L105.72590000000002 45.59116999999992L104.99829999999997 48.81484999999998L105.11120000000005 50.463559999999916L104.49009999999998 52.46109000000001L107.09360000000004 55.11546999999996L106.05970000000002 57.34462999999994L105.67809999999997 57.50933999999995L104.30270000000007 56.626789999999914L102.6594 56.416439999999966L100.52640000000008 56.53233L99.81360000000006 56.911809999999946L99.40330000000006 57.597939999999994L98.28460000000007 57.76085999999998L98.00689999999997 59.31838999999991L98.84649999999999 60.17786000000001L97.71460000000002 61.50882999999999L96.05060000000003 60.57594999999992L96.0661 59.027279999999905L95.43020000000001 58.634219999999914L94.94080000000008 60.09416999999996L94.01210000000003 60.76879999999994L93.49170000000004 61.80531999999994L95.144 62.80169000000001L95.97320000000002 64.56867999999997L94.59120000000007 66.63496999999995L91.81870000000004 67.16616999999997L92.18100000000004 67.91936999999996L94.15269999999998 68.44976999999994L94.59210000000007 70.03877L93.4393 70.05886999999996L92.53700000000003 72.30007L91.41570000000002 72.49586999999997L90.51060000000007 73.27986999999996L88.88790000000006 71.60046999999997L87.70350000000008 71.71236999999996L85.22149999999999 72.25826999999992L85.11500000000001 72.33767L83.12440000000004 72.68216999999993L80.87490000000003 71.79456999999991L80.53989999999999 71.71836999999994L78.32590000000005 71.86276999999995L77.77070000000003 72.32336999999995L75.81770000000006 72.32876999999996L75.28420000000006 71.86726999999996L76.03700000000003 70.93386999999996L76.02890000000002 70.12387000000001L74.8392 68.44026999999994L73.40449999999998 67.59987000000001L70.92849999999999 68.92417z">
      <title id="t41">Première circonscription de l'Aveyron</title>
      <desc id="d41">Cantons de : Bozouls, Entraygues-sur-Truyère, Espalion, Estaing, Laguiole, Laissac, Marcillac-Vallon, Mur-de-Barrez, Rodez Est, Rodez Nord, Rodez Ouest, Saint-Amans-des-Cots, Saint-Chély-d'Aubrac, Sainte-Geneviève-sur-Argence, Saint-Geniez-d'Olt</desc>
    </path><path class="circo" id="id-012-02" d="M21.733600000000024 43.48043999999993L20.82770000000005 42.63775999999996L20.42190000000005 42.635009999999966L19.448100000000068 44.427779999999984L19.12880000000007 44.67643999999996L18.84699999999998 44.47574999999995L19.023700000000076 43.305849999999964L18.290300000000002 43.220039999999926L16.637699999999995 44.419669999999996L16.594100000000026 45.23338000000001L16.081300000000056 45.840139999999906L16.01100000000008 45.86781999999994L15.230000000000018 46.15888999999993L13.986300000000028 45.99199999999996L12.288700000000063 47.14880999999991L11.890499999999975 47.89266999999995L11.227300000000014 48.90296999999998L10.051300000000083 50.51362999999992L9.224100000000021 50.721059999999966L8.429100000000062 50.864709999999945L7.5312999999999874 52.17861999999991L6.73580000000004 52.26252999999997L6.086000000000013 52.44201999999996L6.898199999999974 53.74622999999997L6.52679999999998 54.41324999999995L5.818100000000072 54.190200000000004L5.264599999999973 52.35262999999998L4.1001999999999725 52.21127999999999L3.796600000000012 52.904429999999934L3.866200000000049 54.431119999999964L3.211200000000076 54.67846999999995L1.86200000000008 54.294579999999996L0.09239999999999782 55.22781999999995L0 55.634649999999965L0.6787000000000489 56.65418L1.0260000000000673 57.39547999999991L0.946700000000078 60.24809999999991L2.8489000000000715 61.81840999999997L2.860300000000052 61.871849999999995L2.65300000000002 62.23377999999991L2.941100000000006 63.874079999999935L2.4825000000000728 65.02256L2.9523000000000366 65.70976999999993L4.399600000000078 67.17327L4.819000000000074 68.32686999999999L5.828500000000076 69.04176999999993L6.04849999999999 69.83606999999995L5.630400000000009 70.53526999999997L4.416299999999978 70.42716999999993L4.094699999999989 70.68746999999996L3.6052000000000817 71.81687L3.906400000000076 72.38816999999995L3.088100000000054 72.42656999999997L1.7690999999999804 73.97196999999994L3.4422000000000708 76.20876999999996L2.474299999999971 77.52377000000001L5.246399999999994 79.05796999999995L8.551300000000083 78.65026999999998L8.818399999999997 78.95126999999991L10.017400000000066 78.92676999999992L11.132100000000037 79.38666999999998L10.586000000000013 80.78616999999997L10.400100000000066 83.42306999999994L9.297199999999975 83.32656999999995L8.788800000000037 82.8004699999999L7.862100000000055 83.38646999999992L5.8378999999999905 86.96807000000001L4.672400000000039 86.92566999999997L4.3075999999999794 87.54777000000001L5.612300000000005 88.27557000000002L5.461000000000013 89.02586999999994L6.232300000000009 89.81876999999986L6.071300000000065 90.16886999999997L7.500400000000013 89.69677000000001L7.967899999999986 90.30087000000003L8.054700000000025 91.45516999999995L8.588600000000042 92.02827000000002L9.079400000000078 90.48107000000005L10.278999999999996 90.33286999999996L11.416600000000017 90.65076999999997L11.934500000000071 91.23937000000001L11.386300000000006 91.84067000000005L11.566500000000019 92.62137000000007L13.378000000000043 93.39687000000004L12.792900000000031 94.43556999999987L13.950800000000072 94.23326999999995L16.199700000000007 93.47356999999988L15.93100000000004 92.36437000000001L16.272800000000075 92.14886999999999L18.601200000000063 91.73127L17.978700000000003 90.00297L19.370400000000018 89.61597000000006L20.047300000000064 90.57366999999999L21.53480000000002 90.20207000000005L21.83540000000005 90.92626999999993L22.192499999999995 91.01087000000007L22.791500000000042 90.47586999999999L22.394999999999982 89.45387000000005L23.324100000000044 88.94286999999997L26.311800000000062 88.38046999999995L26.60419999999999 89.45847000000003L27.124500000000012 89.98956999999996L26.7808 90.66227000000003L27.071500000000015 90.90666999999985L28.24369999999999 90.75226999999995L28.99599999999998 91.0196699999999L29.100000000000023 91.82196999999996L29.866600000000062 92.77616999999987L30.61480000000006 92.56157000000007L31.108100000000036 91.92947000000004L32.656799999999976 92.35347000000002L33.8261 93.34877000000006L31.191100000000006 94.90517L30.07680000000005 94.62957000000006L29.15809999999999 95.39826999999991L29.255600000000072 95.78647000000001L29.64740000000006 95.86556999999993L29.944200000000023 95.58517000000006L32.74180000000001 95.71596999999997L33.80920000000003 96.22996999999987L35.88310000000001 95.00117L37.843900000000076 94.92336999999998L38.92270000000008 96.04167000000007L38.33339999999998 97.50086999999985L39.74919999999997 98.09686999999985L41.11220000000003 97.39656999999988L41.886799999999994 97.56576999999993L42.55790000000002 98.94336999999996L43.548200000000065 99.53717000000006L44.037000000000035 100.1075699999999L46.712600000000066 100.93417L47.41000000000008 100.51866999999993L47.593200000000024 99.74806999999987L46.70810000000006 98.01046999999994L48.30579999999998 98.20387000000005L49.834299999999985 99.41176999999993L50.63200000000006 99.30786999999987L51.22140000000002 98.70696999999996L52.04079999999999 96.95976999999993L51.76480000000004 96.22086999999988L52.507600000000025 95.33087L51.77359999999999 94.44246999999996L52.75290000000007 93.90566999999987L53.918300000000045 93.84866999999986L54.62390000000005 94.17667000000006L54.70609999999999 94.56007L55.57299999999998 92.69456999999989L54.53989999999999 91.38826999999992L55.10500000000002 90.51616999999987L54.621200000000044 89.84826999999996L54.40890000000002 88.61176999999998L54.010200000000054 87.51076999999998L53.23210000000006 87.58866999999998L52.679700000000025 88.16237000000001L52.35270000000003 87.93086999999991L53.48840000000007 85.02896999999996L53.872400000000084 84.37396999999999L55.03370000000007 84.09717L56.87970000000007 81.44386999999995L56.72480000000007 80.67557L55.87810000000002 79.79936999999995L55.95519999999999 78.19156999999996L55.799800000000005 77.03276999999991L55.330100000000016 76.38896999999997L55.77909999999997 75.78626999999994L56.776700000000005 74.62617L55.78370000000007 72.99506999999994L54.52190000000007 72.55496999999991L54.456300000000056 72.14676999999995L52.95990000000006 71.57706999999994L52.692800000000034 70.40287000000001L51.870900000000006 70.44817L50.60890000000006 69.48757L49.85400000000004 69.82156999999995L48.433400000000006 68.37437L47.81529999999998 69.16896999999994L47.3048 68.65596999999991L46.95670000000007 68.75806999999998L46.85270000000003 67.57497000000001L47.5317 64.83398999999997L46.03679999999997 64.32941999999991L45.07069999999999 62.56319999999994L44.42010000000005 63.039699999999925L44.15240000000006 62.687329999999974L48.177400000000034 61.12365L49.05529999999999 59.83427999999992L48.703899999999976 58.826169999999934L46.81020000000001 58.15872999999999L45.92650000000003 57.319849999999974L45.126100000000065 57.44728999999995L45.82770000000005 56.44239999999991L45.71659999999997 55.625119999999924L43.38600000000008 53.33034999999995L43.33710000000008 52.58515999999997L43.644300000000044 52.35620999999992L44.507799999999975 53.099039999999945L45.40600000000006 52.42985999999996L46.746399999999994 52.78954999999996L47.30510000000004 51.88292000000001L47.133800000000065 50.72951999999998L47.90350000000001 49.831809999999905L48.55510000000004 47.985810000000015L51.756500000000074 48.45435999999995L52.94100000000003 46.438260000000014L53.224500000000035 46.417029999999954L57.90740000000005 47.06125999999995L58.29430000000002 47.16728999999998L58.293499999999995 47.56994999999995L58.67160000000001 47.63864000000001L59.835699999999974 46.69220999999993L60.975599999999986 46.52999L59.386300000000006 44.49208999999996L58.72950000000003 43.67518999999993L58.87530000000004 43.34665999999993L58.37920000000008 42.75340999999992L58.21180000000004 41.6164L57.37340000000006 42.341519999999946L56.68380000000002 41.99872999999991L56.09490000000005 40.49997999999994L56.692800000000034 38.98061999999993L56.1105 37.875839999999926L55.131399999999985 37.09398999999996L54.78390000000002 35.89703999999995L53.412900000000036 35.73300999999992L51.8886 35.11316999999997L50.65970000000004 36.10933L48.03449999999998 35.22082999999998L47.38570000000004 35.33981999999992L47.00630000000001 35.48904999999991L46.003900000000044 34.923439999999914L44.6789 35.85796999999991L43.46289999999999 35.93143999999995L42.1078 35.02308999999991L42.24160000000006 33.83641L41.86800000000005 33.14015999999992L41.18020000000001 32.595159999999964L39.80920000000003 33.282859999999914L37.95950000000005 32.919539999999984L36.95820000000003 33.54410999999993L36.58360000000005 33.619629999999916L36.17259999999999 33.589039999999954L34.92470000000003 34.63369L32.9357 34.393629999999916L31.344100000000026 35.619629999999916L31.85030000000006 37.584769999999935L32.37740000000008 38.22469000000001L31.26430000000005 39.00126999999998L31.51940000000002 39.76523999999995L31.256899999999973 40.519199999999955L30.46950000000004 40.50141999999994L30.493100000000027 41.67046999999991L30.041600000000017 42.34462999999994L29.422900000000027 41.964110000000005L28.063100000000077 41.880559999999946L28.040700000000015 41.891539999999964L26.596499999999992 44.24700999999993L25.046800000000076 44.39175L24.41980000000001 43.45107999999993L24.023700000000076 43.45763999999997L23.513300000000072 44.06610999999998L22.47059999999999 44.260490000000004L21.733600000000024 43.48043999999993z">
      <title id="t42">Deuxième circonscription de l'Aveyron</title>
      <desc id="d42">Cantons de : Aubin, Baraqueville-Sauveterre, Capdenac-Gare, Conques, Decazeville, Montbazens, Najac, Naucelle, Rieupeyroux, Rignac, La Salvetat-Peyralès, Villefranche-de-Rouergue, Villeneuve</desc>
    </path><path class="circo" id="id-012-03" d="M74.30500000000006 142.54336999999987L72.73890000000006 142.40317000000005L71.577 142.3611699999999L69.72429999999997 140.84836999999993L69.45400000000006 140.10186999999996L67.11300000000006 138.03737L66.69270000000006 136.9109699999999L65.79430000000002 136.0685699999999L65.40730000000008 134.90996999999993L64.54240000000004 134.10556999999994L64.60800000000006 133.69916999999987L64.30160000000001 133.4961699999999L63.821300000000065 133.55907000000002L61.38290000000006 130.29557L61.60260000000005 129.70667000000003L61.53660000000002 128.26316999999995L61.58310000000006 127.89366999999993L62.927200000000084 126.73406999999997L62.61279999999999 126.07656999999995L60.55029999999999 124.91947000000005L60.46530000000007 123.73827000000006L60.620900000000006 123.00586999999996L60.706300000000056 121.43696999999997L60.13160000000005 120.87736999999993L59.33590000000004 120.73536999999988L59.29410000000007 119.93366999999989L56.851999999999975 118.58226999999988L56.05169999999998 118.60327000000007L56.45640000000003 117.4508699999999L57.50660000000005 117.05756999999994L57.90440000000001 116.47586999999999L58.09210000000007 115.28116999999997L58.10630000000003 114.46346999999992L56.28240000000005 113.69767000000002L55.703500000000076 112.64857000000006L55.42930000000001 111.7017699999999L55.73840000000007 110.79347000000007L54.84500000000003 109.20037000000002L53.57350000000008 108.5341699999999L53.03870000000006 108.00886999999989L52.803499999999985 106.16926999999987L48.49720000000002 105.51457000000005L48.55860000000007 103.92466999999988L47.60419999999999 102.18217000000004L46.71249999999998 101.34427000000005L46.712600000000066 100.93417L47.41000000000008 100.51866999999993L47.593200000000024 99.74806999999987L46.70810000000006 98.01046999999994L48.30579999999998 98.20387000000005L49.834299999999985 99.41176999999993L50.63200000000006 99.30786999999987L51.22140000000002 98.70696999999996L52.04079999999999 96.95976999999993L51.76480000000004 96.22086999999988L52.507600000000025 95.33087L51.77359999999999 94.44246999999996L52.75290000000007 93.90566999999987L53.918300000000045 93.84866999999986L54.62390000000005 94.17667000000006L54.70609999999999 94.56007L55.57299999999998 92.69456999999989L54.53989999999999 91.38826999999992L55.10500000000002 90.51616999999987L54.621200000000044 89.84826999999996L54.40890000000002 88.61176999999998L54.010200000000054 87.51076999999998L53.23210000000006 87.58866999999998L52.679700000000025 88.16237000000001L52.35270000000003 87.93086999999991L53.48840000000007 85.02896999999996L53.872400000000084 84.37396999999999L55.03370000000007 84.09717L56.87970000000007 81.44386999999995L56.72480000000007 80.67557L55.87810000000002 79.79936999999995L55.95519999999999 78.19156999999996L55.799800000000005 77.03276999999991L55.330100000000016 76.38896999999997L55.77909999999997 75.78626999999994L57.01960000000008 77.72096999999997L58.1105 78.25506999999993L59.7029 78.07246999999995L60.266500000000065 78.65506999999991L60.3818 79.45796999999993L61.138900000000035 79.4408699999999L61.414300000000026 79.73866999999996L62.76350000000002 77.93146999999999L62.16129999999998 76.88496999999995L62.35509999999999 75.69506999999999L61.66930000000002 75.36416999999994L61.88700000000006 74.65186999999992L62.5693 74.30057L62.80340000000001 74.61797000000001L63.91520000000003 74.67526999999995L65.53500000000008 73.56116999999995L65.84019999999998 74.75106999999991L66.62080000000003 75.73196999999993L65.20060000000001 76.41796999999997L65.97120000000007 77.8081699999999L67.5172 77.42336999999998L66.91600000000005 76.42457000000002L67.11180000000002 76.14136999999994L67.92840000000001 76.00927000000001L69.44299999999998 76.61086999999998L69.73700000000008 76.35406999999998L69.81700000000001 75.14006999999992L68.8469 74.56047000000001L70.07240000000002 74.30066999999997L70.61760000000004 73.67057L70.85950000000003 73.14747L69.85379999999998 71.51826999999992L68.61450000000002 70.74257L68.99880000000007 69.59267L70.13030000000003 69.84786999999994L70.92849999999999 68.92417L73.40449999999998 67.59987000000001L74.8392 68.44026999999994L76.02890000000002 70.12387000000001L76.03700000000003 70.93386999999996L75.28420000000006 71.86726999999996L75.81770000000006 72.32876999999996L77.77070000000003 72.32336999999995L78.32590000000005 71.86276999999995L80.53989999999999 71.71836999999994L80.87490000000003 71.79456999999991L83.12440000000004 72.68216999999993L85.11500000000001 72.33767L85.22149999999999 72.25826999999992L87.70350000000008 71.71236999999996L88.88790000000006 71.60046999999997L90.51060000000007 73.27986999999996L91.41570000000002 72.49586999999997L92.53700000000003 72.30007L93.4393 70.05886999999996L94.59210000000007 70.03877L94.15269999999998 68.44976999999994L92.18100000000004 67.91936999999996L91.81870000000004 67.16616999999997L94.59120000000007 66.63496999999995L95.97320000000002 64.56867999999997L95.144 62.80169000000001L93.49170000000004 61.80531999999994L94.01210000000003 60.76879999999994L94.94080000000008 60.09416999999996L95.43020000000001 58.634219999999914L96.0661 59.027279999999905L96.05060000000003 60.57594999999992L97.71460000000002 61.50882999999999L98.84649999999999 60.17786000000001L98.00689999999997 59.31838999999991L98.28460000000007 57.76085999999998L99.40330000000006 57.597939999999994L99.81360000000006 56.911809999999946L100.52640000000008 56.53233L102.6594 56.416439999999966L104.30270000000007 56.626789999999914L105.67809999999997 57.50933999999995L106.05970000000002 57.34462999999994L107.09360000000004 55.11546999999996L108.6037 55.90684999999996L109.24470000000008 57.393929999999955L110.14740000000006 58.08263999999997L110.22230000000002 59.288749999999936L110.11260000000004 59.690459999999916L110.71289999999999 60.25952999999993L110.61990000000003 61.50227999999993L109.67579999999998 62.271029999999996L109.40230000000008 63.03017999999997L110.29680000000008 63.70749999999998L110.28060000000005 65.68777L108.80920000000003 66.31706999999994L109.11959999999999 67.04456999999991L109.043 68.25726999999995L108.84980000000007 69.05436999999995L109.84900000000005 69.78377L109.61829999999998 71.32846999999992L110.29070000000002 72.79406999999992L111.46080000000006 73.02206999999999L111.04759999999999 74.54316999999992L111.74369999999999 75.48236999999995L109.28210000000001 78.30976999999996L108.9896 80.79917L109.62990000000002 81.2157699999999L110.38639999999998 80.85596999999996L111.05550000000005 79.42426999999998L111.74390000000005 79.77936999999997L112.27629999999999 82.95546999999999L113.45640000000003 83.07656999999995L114.59640000000002 82.64337L115.26459999999997 83.62226999999996L118.22720000000004 84.84667000000002L117.26420000000007 87.9109699999999L116.67759999999998 88.90926999999999L115.9941 89.21487000000002L115.89850000000001 89.59546999999998L117.86790000000008 89.56026999999995L118.96850000000006 89.55187000000001L121.0874 88.41467L123.0824 88.46756999999991L123.41470000000004 87.74196999999992L124.2201 87.67777000000001L125.6893 88.40186999999992L126.85540000000003 88.02776999999992L129.26660000000004 88.26787000000002L129.08960000000002 89.06426999999996L130.24530000000004 90.71916999999985L130.39170000000001 91.91037000000006L127.24950000000001 93.40756999999985L126.70069999999998 95.29886999999985L125.86160000000007 96.03526999999985L126.13670000000002 97.09386999999992L126.15870000000007 99.23596999999995L125.03250000000003 99.67886999999996L123.40370000000007 99.70256999999992L121.01190000000008 101.1727699999999L121.9959 101.77696999999989L123.78710000000001 103.90687000000003L124.59559999999999 103.93986999999993L126.0915 102.67656999999986L126.29740000000004 102.94677000000001L126.58890000000008 102.77336999999989L126.94090000000006 103.37337000000002L127.33210000000008 105.20096999999987L128.20090000000005 105.92336999999998L128.52870000000007 106.17706999999996L129.8813 105.23586999999998L130.32580000000007 105.90436999999997L131.4973 105.62047000000007L132.61990000000003 106.82136999999989L134.16000000000008 107.40726999999993L136.43759999999997 109.19677000000001L136.85860000000002 109.36726999999996L136.96519999999998 109.45416999999998L136.33370000000002 111.84186999999997L134.20670000000007 113.02866999999992L133.10900000000004 115.6999699999999L130.71990000000005 116.02817000000005L130.5797 117.2379699999999L129.15820000000008 118.00287000000003L128.51620000000003 119.48636999999985L129.09210000000007 122.29296999999997L127.68270000000007 123.50666999999999L127.74980000000005 124.61006999999995L125.71730000000002 124.96996999999988L123.71879999999999 124.51737000000003L122.92680000000007 124.71397000000002L122.21410000000003 124.30596999999989L121.27870000000007 124.38546999999994L120.95310000000006 124.98636999999985L120.62220000000002 126.19407000000001L119.21320000000003 126.99187000000006L118.67270000000008 128.11176999999998L118.76420000000007 129.34067000000005L119.99570000000006 130.99387000000002L119.79950000000008 132.22747000000004L118.7124 132.50946999999996L117.5598 133.61816999999996L116.0824 134.18556999999987L114.13350000000003 134.20096999999987L112.20670000000007 133.67206999999985L111.50570000000005 133.96947L111.44100000000003 134.09026999999992L109.48649999999998 133.66166999999996L107.9914 132.34787000000006L106.1336 131.5767699999999L104.14800000000002 131.52187000000004L103.61329999999998 132.98896999999988L103.93860000000006 134.50946999999996L102.75909999999999 135.53557L103.36040000000003 136.57466999999997L103.48000000000002 137.7370699999999L104.94690000000003 139.52537000000007L104.19940000000008 140.92376999999988L103.41430000000003 141.01526999999987L103.14650000000006 142.20736999999986L103.48990000000003 142.9444699999999L103.19400000000007 143.70326999999997L103.5204 144.44767000000002L103.30770000000007 145.60636999999997L104.50990000000002 146.67397000000005L103.93180000000007 147.19716999999991L103.7885 148.3249699999999L102.73149999999998 147.83537L101.29129999999998 148.36676999999986L100.21730000000002 147.94966999999997L99.76409999999998 147.30946999999992L98.29129999999998 146.71577000000002L97.10820000000001 146.5350699999999L96.41770000000008 146.93526999999995L95.04950000000008 147.52087000000006L93.75450000000001 148.43477000000007L93.34760000000006 148.46137L93.14499999999998 148.10617000000002L92.3152 146.82786999999985L91.75740000000008 143.66086999999993L91.96379999999999 143.3113699999999L90.3519 142.50737000000004L87.61890000000005 142.87347L86.60840000000007 141.69896999999992L86.58400000000006 141.68836999999985L84.66950000000008 141.46757000000002L83.65809999999999 140.27946999999995L82.86430000000007 140.23477000000003L80.7079 141.29817000000003L80.05759999999998 143.13257L77.28060000000005 143.65857000000005L76.57630000000006 144.07376999999997L74.30500000000006 142.54336999999987z">
      <title id="t43">Troisième circonscription de l'Aveyron</title>
      <desc id="d43">Cantons de : Belmont-sur-Rance, Camarès, Campagnac, Cassagnes-Bégonhès, Cornus, Millau Est, Millau Ouest, Nant, Peyreleau, Pont-de-Salars, Réquista, Saint-Affrique, Saint-Beauzély, Saint-Rome-de-Tarn, Saint-Sernin-sur-Rance, Salles-Curan, Sévérac-le-Château, Vézins-de-Lévézou</desc>
    </path></svg>