<svg xmlns="http://www.w3.org/2000/svg" version="1.1" xmlns:xlink="http://www.w3.org/1999/xlink" xmlns:svgjs="http://svgjs.dev/svgjs" viewBox="813.22493 934.82113 136.96519999999998 148.46137"><path class="circo" id="id-012-01" d="M 884.15343,1003.7453 883.35523,1004.669 882.22373,1004.4138 881.83943,1005.5637 883.07873,1006.3394 884.08443,1007.9686 883.84253,1008.4917 883.29733,1009.1218 882.07183,1009.3816 883.04193,1009.9612 882.96193,1011.1752 882.66793,1011.432 881.15333,1010.8304 880.33673,1010.9625 880.14093,1011.2457 880.74213,1012.2445 879.19613,1012.6293 878.42553,1011.2391 879.84573,1010.5531 879.06513,1009.5722 878.75993,1008.3823 877.14013,1009.4964 876.02833,1009.4391 875.79423,1009.1217 875.11193,1009.473 874.89423,1010.1853 875.58003,1010.5162 875.38623,1011.7061 875.98843,1012.7526 874.63923,1014.5598 874.36383,1014.262 873.60673,1014.2791 873.49143,1013.4762 872.92783,1012.8936 871.33543,1013.0762 870.24453,1012.5421 869.00403,1010.6074 870.00163,1009.4473 869.00863,1007.8162 867.74683,1007.3761 867.68123,1006.9679 866.18483,1006.3982 865.91773,1005.224 865.09583,1005.2693 863.83383,1004.3087 863.07893,1004.6427 861.65833,1003.1955 861.04023,1003.9901 860.52973,1003.4771 860.18163,1003.5792 860.07763,1002.3961 860.75663,999.65512 859.26173,999.15055 858.29563,997.38433 857.64503,997.86083 857.37733,997.50846 861.40233,995.94478 862.28023,994.65541 861.92883,993.6473 860.03513,992.97986 859.15143,992.14098 858.35103,992.26842 859.05263,991.26353 858.94153,990.44625 856.61093,988.15148 856.56203,987.40629 856.86923,987.17734 857.73273,987.92017 858.63093,987.25099 859.97133,987.61068 860.53003,986.70405 860.35873,985.55065 861.12843,984.65294 861.78003,982.80694 864.98143,983.27549 866.16593,981.25939 866.44943,981.23816 871.13233,981.88239 871.51923,981.98842 871.51843,982.39108 871.89653,982.45977 873.06063,981.51334 874.20053,981.35112 872.61123,979.31322 871.95443,978.49632 872.10023,978.16779 871.60413,977.57454 871.43673,976.43753 870.59833,977.16265 869.90873,976.81986 869.31983,975.32111 869.91773,973.80175 869.33543,972.69697 868.35633,971.91512 868.00883,970.71817 866.63783,970.55414 866.97143,969.46342 867.75983,969.69905 868.05273,969.39591 868.46403,968.66388 868.43443,967.4041 869.39663,965.06678 870.95973,963.84485 871.21523,963.13699 872.44863,962.29832 874.13423,961.06944 874.17723,960.69223 873.55333,960.30159 873.78553,959.96526 873.96503,959.04519 873.91723,956.85804 874.51203,956.42469 874.83593,954.3834 875.63513,953.54882 876.71263,953.67672 877.86523,952.51806 877.72083,949.27088 878.81833,948.09254 878.20853,946.59535 879.38823,945.4108 880.32633,943.09782 882.36403,943.39624 882.63383,943.07875 882.83683,941.47286 884.81373,938.88781 885.45943,939.31746 886.89663,938.91865 887.78013,936.30851 888.44223,936.48452 888.68843,935.72702 889.55853,934.92393 889.60663,934.82113 889.93243,935.9315 891.10783,935.91037 892.82323,938.61284 892.49593,939.76664 893.03533,941.26999 892.42693,942.34753 892.21203,943.97888 892.45753,944.7706 893.26693,944.84495 893.91853,943.83364 895.26133,942.91454 895.96403,943.3124 899.22463,943.13476 899.52443,942.85133 899.92803,942.83322 899.57793,945.61955 900.26193,946.08475 900.07023,947.21512 900.79143,948.21215 901.60833,951.38796 902.47503,953.15754 903.17403,953.54259 903.94343,953.50175 905.07173,952.44056 906.22633,954.07743 906.24803,955.69332 905.97543,956.00831 904.74973,955.95995 904.58793,956.34269 904.73663,956.7327 905.83913,957.28777 906.18983,958.03417 906.02023,959.25617 905.33293,960.30171 905.98083,962.16974 906.26263,964.1798 906.87603,965.25569 906.69993,966.40959 907.87183,967.45477 908.05343,968.24884 908.68313,968.76486 908.61473,969.17162 909.32683,969.91352 910.29823,970.34124 913.01283,973.22424 913.43473,974.35413 914.46593,975.58842 915.01193,976.20977 916.28793,976.96595 916.92443,977.87004 918.33253,978.95311 918.36743,979.31728 918.95083,980.4123 918.22323,983.63598 918.33613,985.28469 917.71503,987.28222 920.31853,989.9366 919.28463,992.16576 918.90303,992.33047 917.52763,991.44792 915.88433,991.23757 913.75133,991.35346 913.03853,991.73294 912.62823,992.41907 911.50953,992.58199 911.23183,994.13952 912.07143,994.99899 910.93953,996.32996 909.27553,995.39708 909.29103,993.84841 908.65513,993.45535 908.16573,994.9153 907.23703,995.58993 906.71663,996.62645 908.36893,997.62282 909.19813,999.38981 907.81613,1001.4561 905.04363,1001.9873 905.40593,1002.7405 907.37763,1003.2709 907.81703,1004.8599 906.66423,1004.88 905.76193,1007.1212 904.64063,1007.317 903.73553,1008.101 902.11283,1006.4216 900.92843,1006.5335 898.44643,1007.0794 898.33993,1007.1588 896.34933,1007.5033 894.09983,1006.6157 893.76483,1006.5395 891.55083,1006.6839 890.99563,1007.1445 889.04263,1007.1499 888.50913,1006.6884 889.26193,1005.755 889.25383,1004.945 888.06413,1003.2614 886.62943,1002.421 884.15343,1003.7453 z">
      <title id="t41">Première circonscription de l'Aveyron</title>
      <desc id="d41">Cantons de : Bozouls, Entraygues-sur-Truyère, Espalion, Estaing, Laguiole, Laissac, Marcillac-Vallon, Mur-de-Barrez, Rodez Est, Rodez Nord, Rodez Ouest, Saint-Amans-des-Cots, Saint-Chély-d'Aubrac, Sainte-Geneviève-sur-Argence, Saint-Geniez-d'Olt</desc>
    </path><path class="circo" id="id-012-02" d="M 834.95853,978.30157 834.05263,977.45889 833.64683,977.45614 832.67303,979.24891 832.35373,979.49757 832.07193,979.29688 832.24863,978.12698 831.51523,978.04117 829.86263,979.2408 829.81903,980.05451 829.30623,980.66127 829.23593,980.68895 828.45493,980.98002 827.21123,980.81313 825.51363,981.96994 825.11543,982.7138 824.45223,983.7241 823.27623,985.33476 822.44903,985.54219 821.65403,985.68584 820.75623,986.99975 819.96073,987.08366 819.31093,987.26315 820.12313,988.56736 819.75173,989.23438 819.04303,989.01133 818.48953,987.17376 817.32513,987.03241 817.02153,987.72556 817.09113,989.25225 816.43613,989.4996 815.08693,989.11571 813.31733,990.04895 813.22493,990.45578 813.90363,991.47531 814.25093,992.21661 814.17163,995.06923 816.07383,996.63954 816.08523,996.69298 815.87793,997.05491 816.16603,998.69521 815.70743,999.84369 816.17723,1000.5309 817.62453,1001.9944 818.04393,1003.148 819.05343,1003.8629 819.27343,1004.6572 818.85533,1005.3564 817.64123,1005.2483 817.31963,1005.5086 816.83013,1006.638 817.13133,1007.2093 816.31303,1007.2477 814.99403,1008.7931 816.66713,1011.0299 815.69923,1012.3449 818.47133,1013.8791 821.77623,1013.4714 822.04333,1013.7724 823.24233,1013.7479 824.35703,1014.2078 823.81093,1015.6073 823.62503,1018.2442 822.52213,1018.1477 822.01373,1017.6216 821.08703,1018.2076 819.06283,1021.7892 817.89733,1021.7468 817.53253,1022.3689 818.83723,1023.0967 818.68593,1023.847 819.45723,1024.6399 819.29623,1024.99 820.72533,1024.5179 821.19283,1025.122 821.27963,1026.2763 821.81353,1026.8494 822.30433,1025.3022 823.50393,1025.154 824.64153,1025.4719 825.15943,1026.0605 824.61123,1026.6618 824.79143,1027.4425 826.60293,1028.218 826.01783,1029.2567 827.17573,1029.0544 829.42463,1028.2947 829.15593,1027.1855 829.49773,1026.97 831.82613,1026.5524 831.20363,1024.8241 832.59533,1024.4371 833.27223,1025.3948 834.75973,1025.0232 835.06033,1025.7474 835.41743,1025.832 836.01643,1025.297 835.61993,1024.275 836.54903,1023.764 839.53673,1023.2016 839.82913,1024.2796 840.34943,1024.8107 840.00573,1025.4834 840.29643,1025.7278 841.46863,1025.5734 842.22093,1025.8408 842.32493,1026.6431 843.09153,1027.5973 843.83973,1027.3827 844.33303,1026.7506 845.88173,1027.1746 847.05103,1028.1699 844.41603,1029.7263 843.30173,1029.4507 842.38303,1030.2194 842.48053,1030.6076 842.87233,1030.6867 843.16913,1030.4063 845.96673,1030.5371 847.03413,1031.0511 849.10803,1029.8223 851.06883,1029.7445 852.14763,1030.8628 851.55833,1032.322 852.97413,1032.918 854.33713,1032.2177 855.11173,1032.3869 855.78283,1033.7645 856.77313,1034.3583 857.26193,1034.9287 859.93753,1035.7553 860.63493,1035.3398 860.81813,1034.5692 859.93303,1032.8316 861.53073,1033.025 863.05923,1034.2329 863.85693,1034.129 864.44633,1033.5281 865.26573,1031.7809 864.98973,1031.042 865.73253,1030.152 864.99853,1029.2636 865.97783,1028.7268 867.14323,1028.6698 867.84883,1028.9978 867.93103,1029.3812 868.79793,1027.5157 867.76483,1026.2094 868.32993,1025.3373 867.84613,1024.6694 867.63383,1023.4329 867.23513,1022.3319 866.45703,1022.4098 865.90463,1022.9835 865.57763,1022.752 866.71333,1019.8501 867.09733,1019.1951 868.25863,1018.9183 870.10463,1016.265 869.94973,1015.4967 869.10303,1014.6205 869.18013,1013.0127 869.02473,1011.8539 868.55503,1011.2101 869.00403,1010.6074 870.00163,1009.4473 869.00863,1007.8162 867.74683,1007.3761 867.68123,1006.9679 866.18483,1006.3982 865.91773,1005.224 865.09583,1005.2693 863.83383,1004.3087 863.07893,1004.6427 861.65833,1003.1955 861.04023,1003.9901 860.52973,1003.4771 860.18163,1003.5792 860.07763,1002.3961 860.75663,999.65512 859.26173,999.15055 858.29563,997.38433 857.64503,997.86083 857.37733,997.50846 861.40233,995.94478 862.28023,994.65541 861.92883,993.6473 860.03513,992.97986 859.15143,992.14098 858.35103,992.26842 859.05263,991.26353 858.94153,990.44625 856.61093,988.15148 856.56203,987.40629 856.86923,987.17734 857.73273,987.92017 858.63093,987.25099 859.97133,987.61068 860.53003,986.70405 860.35873,985.55065 861.12843,984.65294 861.78003,982.80694 864.98143,983.27549 866.16593,981.25939 866.44943,981.23816 871.13233,981.88239 871.51923,981.98842 871.51843,982.39108 871.89653,982.45977 873.06063,981.51334 874.20053,981.35112 872.61123,979.31322 871.95443,978.49632 872.10023,978.16779 871.60413,977.57454 871.43673,976.43753 870.59833,977.16265 869.90873,976.81986 869.31983,975.32111 869.91773,973.80175 869.33543,972.69697 868.35633,971.91512 868.00883,970.71817 866.63783,970.55414 865.11353,969.9343 863.88463,970.93046 861.25943,970.04196 860.61063,970.16095 860.23123,970.31018 859.22883,969.74457 857.90383,970.6791 856.68783,970.75257 855.33273,969.84422 855.46653,968.65754 855.09293,967.96129 854.40513,967.41629 853.03413,968.10399 851.18443,967.74067 850.18313,968.36524 849.80853,968.44076 849.39753,968.41017 848.14963,969.45482 846.16063,969.21476 844.56903,970.44076 845.07523,972.4059 845.60233,973.04582 844.48923,973.8224 844.74433,974.58637 844.48183,975.34033 843.69443,975.32255 843.71803,976.4916 843.26653,977.16576 842.64783,976.78524 841.28803,976.70169 841.26563,976.71267 839.82143,979.06814 838.27173,979.21288 837.64473,978.27221 837.24863,978.27877 836.73823,978.88724 835.69553,979.08162 834.95853,978.30157 z">
      <title id="t42">Deuxième circonscription de l'Aveyron</title>
      <desc id="d42">Cantons de : Aubin, Baraqueville-Sauveterre, Capdenac-Gare, Conques, Decazeville, Montbazens, Najac, Naucelle, Rieupeyroux, Rignac, La Salvetat-Peyralès, Villefranche-de-Rouergue, Villeneuve</desc>
    </path><path class="circo" id="id-012-03" d="M 887.52993,1077.3645 885.96383,1077.2243 884.80193,1077.1823 882.94923,1075.6695 882.67893,1074.923 880.33793,1072.8585 879.91763,1071.7321 879.01923,1070.8897 878.63223,1069.7311 877.76733,1068.9267 877.83293,1068.5203 877.52653,1068.3173 877.04623,1068.3802 874.60783,1065.1167 874.82753,1064.5278 874.76153,1063.0843 874.80803,1062.7148 876.15213,1061.5552 875.83773,1060.8977 873.77523,1059.7406 873.69023,1058.5594 873.84583,1057.827 873.93123,1056.2581 873.35653,1055.6985 872.56083,1055.5565 872.51903,1054.7548 870.07693,1053.4034 869.27663,1053.4244 869.68133,1052.272 870.73153,1051.8787 871.12933,1051.297 871.31703,1050.1023 871.33123,1049.2846 869.50733,1048.5188 868.92843,1047.4697 868.65423,1046.5229 868.96333,1045.6146 868.06993,1044.0215 866.79843,1043.3553 866.26363,1042.83 866.02843,1040.9904 861.72213,1040.3357 861.78353,1038.7458 860.82913,1037.0033 859.93743,1036.1654 859.93753,1035.7553 860.63493,1035.3398 860.81813,1034.5692 859.93303,1032.8316 861.53073,1033.025 863.05923,1034.2329 863.85693,1034.129 864.44633,1033.5281 865.26573,1031.7809 864.98973,1031.042 865.73253,1030.152 864.99853,1029.2636 865.97783,1028.7268 867.14323,1028.6698 867.84883,1028.9978 867.93103,1029.3812 868.79793,1027.5157 867.76483,1026.2094 868.32993,1025.3373 867.84613,1024.6694 867.63383,1023.4329 867.23513,1022.3319 866.45703,1022.4098 865.90463,1022.9835 865.57763,1022.752 866.71333,1019.8501 867.09733,1019.1951 868.25863,1018.9183 870.10463,1016.265 869.94973,1015.4967 869.10303,1014.6205 869.18013,1013.0127 869.02473,1011.8539 868.55503,1011.2101 869.00403,1010.6074 870.24453,1012.5421 871.33543,1013.0762 872.92783,1012.8936 873.49143,1013.4762 873.60673,1014.2791 874.36383,1014.262 874.63923,1014.5598 875.98843,1012.7526 875.38623,1011.7061 875.58003,1010.5162 874.89423,1010.1853 875.11193,1009.473 875.79423,1009.1217 876.02833,1009.4391 877.14013,1009.4964 878.75993,1008.3823 879.06513,1009.5722 879.84573,1010.5531 878.42553,1011.2391 879.19613,1012.6293 880.74213,1012.2445 880.14093,1011.2457 880.33673,1010.9625 881.15333,1010.8304 882.66793,1011.432 882.96193,1011.1752 883.04193,1009.9612 882.07183,1009.3816 883.29733,1009.1218 883.84253,1008.4917 884.08443,1007.9686 883.07873,1006.3394 881.83943,1005.5637 882.22373,1004.4138 883.35523,1004.669 884.15343,1003.7453 886.62943,1002.421 888.06413,1003.2614 889.25383,1004.945 889.26193,1005.755 888.50913,1006.6884 889.04263,1007.1499 890.99563,1007.1445 891.55083,1006.6839 893.76483,1006.5395 894.09983,1006.6157 896.34933,1007.5033 898.33993,1007.1588 898.44643,1007.0794 900.92843,1006.5335 902.11283,1006.4216 903.73553,1008.101 904.64063,1007.317 905.76193,1007.1212 906.66423,1004.88 907.81703,1004.8599 907.37763,1003.2709 905.40593,1002.7405 905.04363,1001.9873 907.81613,1001.4561 909.19813,999.38981 908.36893,997.62282 906.71663,996.62645 907.23703,995.58993 908.16573,994.9153 908.65513,993.45535 909.29103,993.84841 909.27553,995.39708 910.93953,996.32996 912.07143,994.99899 911.23183,994.13952 911.50953,992.58199 912.62823,992.41907 913.03853,991.73294 913.75133,991.35346 915.88433,991.23757 917.52763,991.44792 918.90303,992.33047 919.28463,992.16576 920.31853,989.9366 921.82863,990.72798 922.46963,992.21506 923.37233,992.90377 923.44723,994.10988 923.33753,994.51159 923.93783,995.08066 923.84483,996.32341 922.90073,997.09216 922.62723,997.85131 923.52173,998.52863 923.50553,1000.5089 922.03413,1001.1382 922.34453,1001.8657 922.26793,1003.0784 922.07473,1003.8755 923.07393,1004.6049 922.84323,1006.1496 923.51563,1007.6152 924.68573,1007.8432 924.27253,1009.3643 924.96863,1010.3035 922.50703,1013.1309 922.21453,1015.6203 922.85483,1016.0369 923.61133,1015.6771 924.28043,1014.2454 924.96883,1014.6005 925.50123,1017.7766 926.68133,1017.8977 927.82133,1017.4645 928.48953,1018.4434 931.45213,1019.6678 930.48913,1022.7321 929.90253,1023.7304 929.21903,1024.036 929.12343,1024.4166 931.09283,1024.3814 932.19343,1024.373 934.31233,1023.2358 936.30733,1023.2887 936.63963,1022.5631 937.44503,1022.4989 938.91423,1023.223 940.08033,1022.8489 942.49153,1023.089 942.31453,1023.8854 943.47023,1025.5403 943.61663,1026.7315 940.47443,1028.2287 939.92563,1030.12 939.08653,1030.8564 939.36163,1031.915 939.38363,1034.0571 938.25743,1034.5 936.62863,1034.5237 934.23683,1035.9939 935.22083,1036.5981 937.01203,1038.728 937.82053,1038.761 939.31643,1037.4977 939.52233,1037.7679 939.81383,1037.5945 940.16583,1038.1945 940.55703,1040.0221 941.42583,1040.7445 941.75363,1040.9982 943.10623,1040.057 943.55073,1040.7255 944.72223,1040.4416 945.84483,1041.6425 947.38493,1042.2284 949.66253,1044.0179 950.08353,1044.1884 950.19013,1044.2753 949.55863,1046.663 947.43163,1047.8498 946.33393,1050.5211 943.94483,1050.8493 943.80463,1052.0591 942.38313,1052.824 941.74113,1054.3075 942.31703,1057.1141 940.90763,1058.3278 940.97473,1059.4312 938.94223,1059.7911 936.94373,1059.3385 936.15173,1059.5351 935.43903,1059.1271 934.50363,1059.2066 934.17803,1059.8075 933.84713,1061.0152 932.43813,1061.813 931.89763,1062.9329 931.98913,1064.1618 933.22063,1065.815 933.02443,1067.0486 931.93733,1067.3306 930.78473,1068.4393 929.30733,1069.0067 927.35843,1069.0221 925.43163,1068.4932 924.73063,1068.7906 924.66593,1068.9114 922.71143,1068.4828 921.21633,1067.169 919.35853,1066.3979 917.37293,1066.343 916.83823,1067.8101 917.16353,1069.3306 915.98403,1070.3567 916.58533,1071.3958 916.70493,1072.5582 918.17183,1074.3465 917.42433,1075.7449 916.63923,1075.8364 916.37143,1077.0285 916.71483,1077.7656 916.41893,1078.5244 916.74533,1079.2688 916.53263,1080.4275 917.73483,1081.4951 917.15673,1082.0183 917.01343,1083.1461 915.95643,1082.6565 914.51623,1083.1879 913.44223,1082.7708 912.98903,1082.1306 911.51623,1081.5369 910.33313,1081.3562 909.64263,1081.7564 908.27443,1082.342 906.97943,1083.2559 906.57253,1083.2825 906.36993,1082.9273 905.54013,1081.649 904.98233,1078.482 905.18873,1078.1325 903.57683,1077.3285 900.84383,1077.6946 899.83333,1076.5201 899.80893,1076.5095 897.89443,1076.2887 896.88303,1075.1006 896.08923,1075.0559 893.93283,1076.1193 893.28253,1077.9537 890.50553,1078.4797 889.80123,1078.8949 887.52993,1077.3645 z">
      <title id="t43">Troisième circonscription de l'Aveyron</title>
      <desc id="d43">Cantons de : Belmont-sur-Rance, Camarès, Campagnac, Cassagnes-Bégonhès, Cornus, Millau Est, Millau Ouest, Nant, Peyreleau, Pont-de-Salars, Réquista, Saint-Affrique, Saint-Beauzély, Saint-Rome-de-Tarn, Saint-Sernin-sur-Rance, Salles-Curan, Sévérac-le-Château, Vézins-de-Lévézou</desc>
    </path></svg>