<svg xmlns="http://www.w3.org/2000/svg" version="1.1" xmlns:xlink="http://www.w3.org/1999/xlink" xmlns:svgjs="http://svgjs.dev/svgjs" viewBox="1639.3221 363.53765 134.55579999999986 145.12487"><path class="circo" id="013-01" d="M 1724.3587,487.69194 1729.031,488.9985 1732.5323,488.15761 1732.8243,485.89374 1734.4963,484.26636 1739.9581,485.58467 1740.3155,484.08677 1738.1842,481.55154 1738.0827,479.26497 1740.2047,476.7222 1741.3362,476.92656 1744.3801,473.16988 1742.4623,465.38128 1740.1377,465.08792 1736.0489,467.29025 1730.2232,467.50903 1728.0532,464.59113 1726.2614,466.17596 1722.277,465.26629 1718.2062,468.3967 1713.6566,467.41973 1713.257,474.21959 1712.4815,476.04586 1712.9507,477.85011 1717.6391,477.38377 1719.6694,480.05995 1721.7655,478.92667 1722.7192,480.98927 1725.1118,481.47004 1724.8177,482.65558 1724.9423,484.64178 1725.8597,486.05548 1724.3587,487.69194 z">
      <title id="t44-8">Première circonscription des Bouches-du-Rhône</title>
      <desc id="d44-4">Partie du 10e arrondissement municipal située au nord d'une ligne définie par l'axe des voies ci-après, à partir de la limite du 5e arrondissement municipal de Marseille : boulevard Jean-Moulin, avenue de la Timone, voie de chemin de fer, autoroute Est A50, rue d'André-Bardon, avenue Florian, lit de l'Huveaune vers l'amont, traverse de la Roue, place Guy-Duran, rue Pierre-Doize, chemin des Prud'hommes, boulevard du Général-Mangin, résidence Lycée Est incluse, chemin de la Valbarelle à Saint-Marcel jusqu'en limite du 11e arrondissement municipal</desc>
    </path><path class="circo" id="013-02" d="M 1697.5801,478.9698 1699.993,474.86788 1703.5175,474.96142 1703.8094,475.88677 1704.238,480.03551 1708.0658,478.64174 1710.9141,481.64598 1709.8432,485.07611 1709.8728,491.10032 1708.2608,495.7419 1705.9575,498.53034 1706.2185,504.55124 1701.3768,505.17812 1695.6982,502.85112 1698.164,497.19665 1704.1136,490.94157 1704.2114,487.25763 1702.7425,483.86854 1697.5801,478.9698 z">
      <title id="t45-5">Deuxième circonscription des Bouches-du-Rhône</title>
      <desc id="d45-3">7e arrondissement municipal</desc>
    </path><path class="circo" id="013-03" d="M 1706.6543,464.91286 1706.4777,466.28458 1709.2067,466.91598 1709.3248,466.89727 1713.6566,467.41973 1718.2062,468.3967 1722.277,465.26629 1726.2614,466.17596 1728.0532,464.59113 1725.055,460.10437 1724.3484,456.66612 1727.2942,451.16915 1723.143,442.02092 1721.171,440.86992 1717.26,443.27827 1714.8471,444.95423 1708.8098,447.27939 1709.9241,447.79277 1709.5342,448.9629 1705.9185,452.17181 1705.2768,455.95894 1707.6077,457.56639 1707.7915,458.53461 1709.3585,459.30484 1710.6709,460.17437 1711.9874,461.20388 1712.1612,461.8727 1709.6718,463.26403 1708.8566,464.95056 1707.4472,464.38137 1706.6543,464.91286 z">
      <title id="t46-4">Troisième circonscription des Bouches-du-Rhône</title>
      <desc id="d46-6">Partie du 12e arrondissement municipal non comprise dans la 1re circonscription</desc>
    </path><path class="circo" id="013-04" d="M 1708.1534,472.59221 1709.172,471.21141 1708.5189,469.38937 1709.2067,466.91598 1703.6645,465.62152 1703.0377,466.80524 1699.3537,460.42638 1696.9779,459.91423 1700.7394,466.04739 1701.4972,469.6942 1700.9035,473.3727 1701.0477,474.4046 1704.1866,474.46738 1705.1615,474.13443 1705.2747,475.34441 1706.2468,474.98982 1708.6722,475.89043 1708.1534,472.59221 z">
      <title id="t47-3">Quatrième circonscription des Bouches-du-Rhône</title>
      <desc id="d47-6">1er arrondissement municipal</desc>
    </path><path class="circo" id="013-05" d="M 1708.1534,472.59221 1709.172,471.21141 1708.5189,469.38937 1709.2067,466.91598 1709.3248,466.89727 1713.6566,467.41973 1713.257,474.21959 1712.4815,476.04586 1712.5858,476.46417 1708.8889,478.07375 1708.0658,478.64174 1704.238,480.03551 1703.8094,475.88677 1703.5175,474.96142 1704.1866,474.46738 1705.1615,474.13443 1705.2747,475.34441 1706.2468,474.98982 1707.5914,475.48479 1708.6722,475.89043 1708.1534,472.59221 z">
      <title id="t48-3">Cinquième circonscription des Bouches-du-Rhône</title>
      <desc id="d48-6">4e arrondissement municipal</desc>
    </path><path class="circo" id="013-06" d="M 1725.9836,504.33904 1723.7242,504.93361 1723.4315,506.12823 1718.7429,505.06098 1716.925,506.08476 1710.1082,503.57337 1706.2185,504.55124 1705.9575,498.53034 1708.2608,495.7419 1709.8728,491.10032 1709.8432,485.07611 1710.9141,481.64598 1708.0658,478.64174 1708.8889,478.07375 1712.5858,476.46417 1712.9507,477.85011 1717.6391,477.38377 1719.6694,480.05995 1721.7655,478.92667 1722.7192,480.98927 1725.1118,481.47004 1724.8177,482.65558 1724.9423,484.64178 1725.8597,486.05548 1724.3587,487.69194 1729.031,488.9985 1732.5323,488.15761 1732.8243,485.89374 1734.4963,484.26636 1739.9581,485.58467 1741.6493,492.31814 1742.7923,494.31674 1742.3084,495.42319 1739.9172,495.73976 1738.4944,497.49725 1740.9738,502.94077 1739.2235,508.66252 1738.9237,507.47159 1735.2753,507.57056 1725.9836,504.33904 z">
      <title id="t49-5">Sixième circonscription des Bouches-du-Rhône</title>
      <desc id="d49-4">9e arrondissement municipal</desc>
    </path><path class="circo" id="013-07" d="M 1694.0218,458.01975 1694.4759,456.03955 1688.7622,451.69794 1686.319,451.38196 1680.7472,453.77897 1679.8735,449.39331 1681.0179,446.25352 1679.8611,444.31711 1685.3354,441.98861 1690.2233,447.29783 1693.5818,447.50216 1694.8944,445.70813 1699.1092,445.64629 1698.2237,443.59937 1703.6383,441.44566 1705.0849,443.14789 1705.3055,447.8148 1708.8098,447.27939 1709.9241,447.79277 1709.5342,448.9629 1705.9185,452.17181 1705.2768,455.95894 1707.6077,457.56639 1707.7915,458.53461 1709.3585,459.30484 1710.6709,460.17437 1711.9874,461.20388 1712.1612,461.8727 1709.6718,463.26403 1708.8566,464.95056 1707.4472,464.38137 1706.6543,464.91286 1706.4777,466.28458 1703.6645,465.62152 1703.0377,466.80524 1699.3537,460.42638 1696.9779,459.91423 1694.9771,458.78153 1694.0218,458.01975 z">
      <title id="t50-0">Septième circonscription des Bouches-du-Rhône</title>
      <desc id="d50-5">Partie du 14e arrondissement municipal non comprise dans la 3e circonscription</desc>
    </path><path class="circo" id="013-08" d="M 1718.7459,416.86595 1718.0509,418.28145 1717.2945,418.32815 1715.3483,415.24035 1714.4151,412.53335 1714.7863,411.85875 1714.6725,411.04015 1713.6498,410.39865 1709.9349,410.20845 1708.7796,410.64575 1707.7602,409.36155 1707.5018,408.15805 1706.6198,406.82325 1707.389,406.69305 1708.2094,405.35135 1709.3143,406.35985 1710.0731,406.55395 1709.6282,405.01235 1708.7942,404.13735 1708.4627,402.58665 1708.0516,402.60975 1706.1353,401.05915 1705.3215,400.93165 1703.7809,399.56105 1700.9886,397.06635 1702.0976,394.83015 1704.7529,396.01175 1709.7207,392.97345 1710.9343,391.83415 1713.7628,391.84685 1714.3687,391.34145 1714.5926,391.68505 1715.4639,391.04195 1716.4986,390.67845 1717.5114,391.09015 1717.9019,392.59165 1719.7252,393.41505 1720.2523,394.48425 1720.1467,394.91295 1720.2798,396.81365 1720.6435,396.99605 1722.9802,396.47365 1724.6331,398.23515 1725.2756,400.58495 1726.0654,400.76815 1726.7686,400.37085 1726.3584,402.60865 1726.1343,403.27295 1726.4975,403.85905 1727.292,404.67495 1728.4236,404.62635 1730.639,405.67195 1732.5794,407.10275 1733.7842,407.30855 1734.0648,408.88125 1734.3734,409.15115 1733.1651,411.14655 1730.827,411.64415 1729.7543,411.11165 1729.5537,411.90555 1727.6641,413.93925 1727.8415,415.08555 1726.7025,415.37745 1726.0034,416.31785 1723.7409,415.85295 1723.3172,414.88885 1721.9878,414.44125 1718.7459,416.86595 z">
      <title id="t51">Huitième circonscription des Bouches-du-Rhône</title>
      <desc id="d51">Cantons de : Berre-l'Etang, Pélissanne, Salon-de-Provence</desc>
    </path><path class="circo" id="013-09" d="M 1748.3603,441.07405 1748.4787,440.57775 1747.7725,439.73775 1747.7389,438.98015 1748.442,438.13765 1748.8169,438.20535 1749.8254,436.96065 1749.19,434.38005 1751.3706,432.62035 1752.8943,432.69625 1756.5705,434.02145 1757.7104,434.12135 1758.7198,433.57985 1759.7326,434.09975 1760.9452,434.81585 1761.6304,434.53825 1762.6978,434.58195 1763.4899,435.29145 1766.5127,434.77735 1767.3965,436.58385 1768.6202,438.17925 1769.5892,438.86595 1769.4306,440.61845 1767.503,441.23085 1764.3552,442.97505 1764.6347,443.61685 1762.7569,444.34025 1762.414,446.52505 1762.2077,449.56685 1761.8608,450.89285 1759.6653,449.86915 1757.6724,450.15915 1756.8439,451.03165 1756.6471,452.21365 1756.1575,452.86235 1753.2369,451.44045 1751.9729,449.83095 1751.4537,449.19915 1751.2786,447.59205 1750.5765,447.17795 1748.7137,447.70785 1748.1169,448.72045 1748.6968,446.82465 1747.8753,445.02105 1748.3467,444.43875 1749.139,444.33385 1749.2993,443.96725 1748.9206,443.30505 1748.3603,441.07405 z">
      <title id="t52">Neuvième circonscription des Bouches-du-Rhône</title>
      <desc id="d52">Cantons de : Aubagne Est, Aubagne Ouest, La Ciotat</desc>
    </path><path class="circo" id="013-10" d="M 1744.6285,414.69505 1743.6312,415.87865 1742.3027,416.74395 1741.6064,416.49995 1739.3366,416.86125 1737.6915,417.87055 1738.0458,420.95645 1736.615,422.77255 1736.9907,423.40315 1738.1318,423.18615 1738.5886,425.04725 1739.551,426.21065 1740.8397,427.05665 1742.1355,426.25865 1742.7889,426.64005 1744.1643,429.67115 1743.1883,431.49245 1743.4224,432.63165 1744.4158,434.11825 1745.1348,435.08505 1747.065,435.01255 1748.4198,434.28285 1749.19,434.38005 1751.3706,432.62035 1752.8943,432.69625 1756.5705,434.02145 1757.7104,434.12135 1758.7198,433.57985 1759.7326,434.09975 1760.9452,434.81585 1761.6304,434.53825 1762.8032,434.25315 1763.3973,433.20595 1763.2438,432.01525 1764.5599,430.49475 1763.7564,429.14845 1763.3399,426.31095 1762.7885,425.21385 1762.5062,424.93565 1761.7362,425.11375 1759.7421,425.06115 1759.0721,424.63635 1758.144,423.98175 1756.6402,423.72415 1756.1409,421.41535 1754.6862,420.11755 1752.622,421.24385 1752.2422,421.13765 1751.3585,420.34615 1749.7569,420.41775 1746.9231,417.71235 1750.0305,415.40875 1750.3905,412.89115 1749.9447,412.76495 1747.6585,412.32785 1746.5137,412.55945 1745.5093,411.93575 1744.8235,412.01445 1744.2575,413.00525 1744.2976,413.74595 1744.7761,414.34215 1744.6285,414.69505 z">
      <title id="t53">Dixième circonscription des Bouches-du-Rhône</title>
      <desc id="d53">Cantons de : Allauch, Gardanne, Roquevaire, Commune de Meyreuil</desc>
    </path><path class="circo" id="013-11" d="M 1726.1343,403.27295 1726.4975,403.85905 1727.292,404.67495 1728.4236,404.62635 1730.639,405.67195 1732.5794,407.10275 1733.7842,407.30855 1734.0648,408.88125 1734.3734,409.15115 1733.1651,411.14655 1730.827,411.64415 1729.7543,411.11165 1729.5537,411.90555 1727.6641,413.93925 1727.8415,415.08555 1729.3415,416.55455 1729.3933,417.34135 1730.1216,418.19635 1730.3358,419.71915 1731.1702,421.42425 1730.007,421.42805 1729.6695,422.56755 1728.12,422.90705 1727.884,424.47555 1727.2827,424.99005 1727.8119,426.14875 1728.4483,427.40085 1730.2621,426.62935 1731.8816,428.38845 1732.9944,428.45615 1733.4293,427.86175 1734.8258,427.84125 1734.5324,427.16305 1736.3264,426.44945 1736.8057,427.01345 1736.8788,428.55975 1738.0399,428.38235 1740.0402,427.61195 1740.8397,427.05665 1739.551,426.21065 1738.5886,425.04725 1738.1318,423.18615 1736.9907,423.40315 1736.615,422.77255 1738.0458,420.95645 1737.6915,417.87055 1739.3366,416.86125 1741.6064,416.49995 1742.3027,416.74395 1743.6312,415.87865 1744.6285,414.69505 1744.7761,414.34215 1744.2976,413.74595 1744.2575,413.00525 1744.4843,412.61215 1743.8018,412.53175 1743.4501,412.28655 1743.4595,412.15445 1743.3835,411.71505 1743.0492,411.50025 1742.8037,410.98315 1742.6411,410.78785 1742.354,410.67805 1742.067,410.66315 1741.6886,411.65425 1740.7639,412.00215 1741.0304,411.59625 1741.0105,410.47765 1741.8077,409.50495 1742.0624,409.83355 1742.6422,409.51625 1742.5381,407.78175 1743.398,408.38095 1743.397,407.88575 1744.7529,404.69075 1744.2836,404.45825 1744.3105,403.51315 1743.8951,403.41625 1742.992,404.07945 1741.4778,404.29685 1740.4337,404.90685 1738.9293,404.78445 1738.6052,405.70675 1738.0156,404.86675 1736.3144,404.64335 1735.9015,403.94795 1736.0723,403.36935 1734.3069,401.63365 1733.6998,401.93865 1733.1835,402.52445 1732.1035,402.12595 1731.1065,402.73885 1728.7297,402.95165 1726.3584,402.60865 1726.1343,403.27295 z">
      <title id="t54">Onzième circonscription des Bouches-du-Rhône</title>
      <desc id="d54">Cantons de : Aix-en-Provence Nord-Est (partie comprenant la portion de territoire de la commune d'Aix-en-Provence délimitée, au nord, par la voie ferrée entre le passage à niveau de la Calade et la limite de la commune de Venelles, à l'est, par la limite de la commune de Venelles, l'autoroute A 51, la route de Sisteron, l'ancienne route des Alpes jusqu'à la limite du canton d'Aix-en-Provence Centre, au sud, par la limite du canton d'Aix-en-Provence Centre, à l'ouest, par la limite du canton d'Aix-en-Provence Sud-Ouest), Aix-en-Provence Sud-Ouest (moins la commune de Meyreuil), Les Pennes-Mirabeau</desc>
    </path><path class="circo" id="013-12" d="M 1709.3534,419.18985 1709.3758,420.06735 1709.9654,422.50245 1709.8612,424.57585 1710.9435,425.14715 1712.9588,424.98845 1713.5242,426.49105 1713.2576,427.25345 1713.5204,429.55885 1713.444,431.49035 1712.2858,433.04145 1712.9998,433.42105 1716.2574,433.42885 1717.3564,433.74685 1718.8644,433.58315 1719.7768,432.94375 1720.472,433.04705 1723.8178,433.53845 1724.9263,433.13655 1726.6849,432.35905 1728.7581,430.57275 1728.4686,429.11965 1728.8478,428.07935 1728.4645,427.43775 1727.8281,426.18565 1727.2989,425.02695 1727.9002,424.51245 1728.1362,422.94395 1729.6857,422.60445 1730.0232,421.46495 1731.1864,421.46115 1730.352,419.75605 1730.1378,418.23325 1729.4095,417.37825 1729.3577,416.59145 1727.8577,415.12245 1726.7187,415.41435 1726.0196,416.35475 1723.7571,415.88985 1723.3411,414.94375 1722.0032,414.48995 1718.7914,416.91215 1718.0649,418.33085 1717.2622,418.32455 1715.4049,415.37395 1714.4098,412.54505 1714.8012,411.90865 1714.6606,411.07815 1713.6936,410.44935 1709.9691,410.26055 1708.7881,410.68045 1707.7934,409.46455 1707.5301,408.27275 1706.6352,406.87205 1705.971,406.91165 1706.1159,410.18955 1705.0265,411.86425 1704.6852,413.05395 1705.0586,415.48445 1704.8476,416.33145 1705.2505,416.94845 1708.1628,416.94995 1708.8502,417.35915 1709.3101,418.05775 1709.327,418.64125 z">
      <title id="t55">Douzième circonscription des Bouches-du-Rhône</title>
      <desc id="d55">Cantons de : Châteauneuf-Côte-Bleue, Marignane, Vitrolles</desc>
    </path><path class="circo" id="013-13" d="M 1709.39,433.69005 1707.8538,433.20635 1706.1564,431.76275 1706.9019,430.35655 1706.1017,430.04045 1704.6877,427.45355 1703.6341,425.89645 1704.8278,425.18875 1704.3678,424.70855 1703.4202,424.63615 1703.3231,425.37065 1702.6772,424.93745 1702.3881,422.55775 1701.8108,422.01045 1698.9452,421.20315 1697.0368,421.99285 1696.9902,422.92705 1695.3489,423.89615 1695.0634,423.54505 1695.7781,422.35635 1696.601,421.78635 1695.1991,421.94845 1694.8831,422.87625 1693.9162,421.25425 1693.5456,421.34335 1692.9636,420.02545 1692.9971,418.59855 1692.1512,419.12015 1694.373,423.67595 1693.3721,424.56285 1690.2547,421.58625 1689.7462,422.33705 1692.7741,424.96675 1692.3321,425.29525 1691.2446,424.69485 1690.8749,425.43695 1692.2856,425.93945 1692.0516,427.55695 1690.5501,427.86595 1693.3494,428.64415 1694.7601,430.12855 1697.4128,427.75895 1697.3656,426.67585 1697.7795,427.81625 1692.9191,432.37045 1692.6017,433.65945 1691.7696,433.66835 1690.7626,431.86765 1690.4895,428.99145 1683.8666,424.01775 1682.2117,421.63785 1683.4768,418.15135 1684.7184,416.48425 1685.4254,416.05635 1687.832,416.00565 1689.1078,416.94365 1689.8417,416.58955 1690.9913,417.79245 1692.4855,417.21945 1694.2431,414.04885 1697.4938,412.41125 1698.6867,412.15885 1701.0201,415.09125 1701.7301,414.62915 1702.2358,412.03655 1703.7148,411.62935 1703.0913,409.92075 1703.6575,409.13565 1704.465,409.94905 1704.7327,407.59445 1704.1258,407.30135 1703.3355,406.12405 1704.2305,404.51365 1705.1085,405.72885 1705.1035,407.29955 1705.5808,406.81465 1705.9784,406.89545 1706.07,410.16215 1704.9944,411.86285 1704.6521,413.05655 1705.036,415.49695 1704.8038,416.29025 1705.2606,416.96075 1708.1356,416.91025 1708.8421,417.33445 1709.2705,418.03065 1709.3601,420.08365 1709.949,422.50615 1709.8457,424.54125 1710.8887,425.10035 1712.9426,424.95155 1713.508,426.45415 1713.2414,427.21655 1713.5042,429.52195 1713.4278,431.45345 1712.2696,433.00455 1711.6762,433.57445 1710.5092,433.20185 1709.39,433.69005 z">
      <title id="t56">Treizième circonscription des Bouches-du-Rhône</title>
      <desc id="d56">Cantons de : Istres Sud, Martigues Est, Martigues Ouest, Port-Saint-Louis-du-Rhône</desc>
    </path><path class="circo" id="013-14" d="M 1742.8037,410.98315 1742.6411,410.78785 1742.354,410.67805 1742.067,410.66315 1741.6886,411.65425 1740.7639,412.00215 1741.0304,411.59625 1741.0105,410.47765 1741.8077,409.50495 1742.0624,409.83355 1742.6422,409.51625 1742.5381,407.78175 1743.398,408.38095 1743.397,407.88575 1744.7529,404.69075 1744.2836,404.45825 1744.3105,403.51315 1743.8951,403.41625 1742.992,404.07945 1741.4778,404.29685 1740.4337,404.90685 1738.9293,404.78445 1738.6052,405.70675 1738.0156,404.86675 1736.3144,404.64335 1735.9015,403.94795 1736.0723,403.36935 1734.3069,401.63365 1735.0831,401.30275 1735.8882,399.52185 1735.8045,398.76145 1739.7078,399.01745 1738.2037,395.84515 1738.5995,394.70855 1738.4388,392.73925 1739.1227,392.47125 1739.8315,390.76495 1742.6008,392.27165 1746.2379,393.73455 1749.8443,394.72355 1751.4864,394.66225 1753.5092,394.40015 1756.3416,394.78755 1757.7788,393.91075 1759.2723,393.22435 1760.6095,391.64305 1761.9661,390.69525 1762.7913,390.77515 1765.2738,391.03175 1767.4716,387.98495 1768.812,387.03625 1770.4103,387.32325 1771.3983,388.00725 1771.329,389.19925 1771.7855,390.31735 1773.8779,391.21865 1773.1413,392.21575 1772.6843,394.64145 1770.2092,394.57925 1765.8643,395.82705 1765.0968,396.78845 1764.3025,396.68595 1762.6266,400.40195 1763.3681,403.16105 1763.1955,403.53225 1760.5896,404.58035 1761.6432,405.82855 1763.545,405.98105 1764.8204,406.81475 1765.685,407.40515 1766.3829,407.39655 1765.7675,409.29245 1765.4652,413.26455 1764.5251,413.95275 1764.1498,415.49555 1765.1238,415.86855 1766.5648,417.26385 1768.6354,421.10525 1770.5417,422.59255 1771.72,422.72795 1771.7614,422.74525 1771.5757,423.48875 1770.9595,423.93775 1768.5012,424.93935 1766.1722,424.12525 1764.5289,424.18135 1762.7885,425.21385 1762.5062,424.93565 1761.7362,425.11375 1759.7421,425.06115 1759.0721,424.63635 1758.144,423.98175 1756.6402,423.72415 1756.1409,421.41535 1754.6862,420.11755 1752.622,421.24385 1752.2422,421.13765 1751.3585,420.34615 1749.7569,420.41775 1746.9231,417.71235 1750.0305,415.40875 1750.3905,412.89115 1749.9447,412.76495 1747.6585,412.32785 1746.5137,412.55945 1745.5093,411.93575 1744.8235,412.01445 1744.4843,412.61215 1743.8018,412.53175 1743.4501,412.28655 1743.4595,412.15445 1743.0492,411.50025 1742.8037,410.98315 z">
      <title id="t57">Quatorzième circonscription des Bouches-du-Rhône</title>
      <desc id="d57">Cantons de : Aix-en-Provence Centre, Aix-en-Provence Nord-Est (partie non comprise dans la 11e circonscription), Peyrolles-en-Provence, Trets</desc>
    </path><path class="circo" id="013-15" d="M 1681.6882,370.39455 1681.6973,368.81635 1680.7297,368.06805 1680.0418,366.61125 1679.6433,366.68865 1679.7121,366.44475 1681.169,365.67155 1682.2673,364.42965 1682.5694,363.53765 1685.505,364.06005 1688.6822,364.69325 1692.408,365.10395 1694.6631,366.19305 1696.5,367.83205 1698.1204,367.93935 1698.8425,368.22145 1702.1703,369.94615 1704.0274,372.18865 1704.5502,372.87985 1707.1062,374.79745 1707.7551,375.79205 1708.373,377.39875 1708.8418,379.37425 1712.4565,381.44805 1715.2718,383.02055 1716.5472,383.72145 1720.5826,385.75585 1724.8426,384.34825 1725.6225,384.38745 1727.1993,384.72925 1729.0937,385.21085 1731.5511,385.63125 1732.4535,386.49335 1733.9651,387.72415 1736.2462,388.85125 1737.7415,389.67445 1739.8315,390.76495 1739.1227,392.47125 1738.4388,392.73925 1738.5995,394.70855 1738.2037,395.84515 1739.7078,399.01745 1735.8045,398.76145 1735.8882,399.52185 1735.0831,401.30275 1733.6998,401.93865 1733.1835,402.52445 1732.1035,402.12595 1731.1065,402.73885 1728.7297,402.95165 1726.3584,402.60865 1726.7686,400.37085 1726.0654,400.76815 1725.2756,400.58495 1724.6331,398.23515 1722.9802,396.47365 1720.6435,396.99605 1720.2798,396.81365 1720.1467,394.91295 1720.2523,394.48425 1719.7252,393.41505 1717.9019,392.59165 1717.5114,391.09015 1716.4986,390.67845 1715.4639,391.04195 1714.5926,391.68505 1714.3687,391.34145 1713.7628,391.84685 1710.9343,391.83415 1709.7207,392.97345 1704.7529,396.01175 1702.0976,394.83015 1703.2541,392.24455 1703.1431,388.20875 1701.7473,387.53545 1701.6952,394.48165 1699.4326,393.57845 1698.8747,391.64785 1698.4935,391.49675 1698.9523,393.08955 1697.3661,393.42955 1696.1429,393.28045 1694.2447,392.47435 1689.7445,392.29435 1687.8029,392.42525 1687.0819,392.14755 1685.835,391.80715 1684.31,390.79215 1684.2329,390.42005 1683.6551,388.03115 1684.9295,386.50985 1685.4945,384.50525 1685.2265,382.84905 1685.4421,380.24005 1684.9907,378.60825 1684.7324,378.34485 1683.5132,376.10705 1683.2502,376.34185 1681.9724,375.82485 1682.6408,374.40255 1682.7786,373.23235 1682.1789,371.36465 1681.6882,370.39455 z">
      <title id="t58">Quinzième circonscription des Bouches-du-Rhône</title>
      <desc id="d58">Cantons de : Châteaurenard, Eyguières, Lambesc, Orgon, Saint-Rémy-de-Provence</desc>
    </path><path class="circo" id="013-16" d="M 1688.8678,432.23375 1685.3111,431.06325 1681.5626,430.94515 1676.1736,431.37905 1670.0711,430.12525 1667.9786,428.76605 1667.1657,427.34305 1667.5097,426.60275 1670.5141,424.42505 1669.6654,422.06605 1668.6122,420.77665 1666.8432,419.67655 1664.0558,418.80345 1658.2215,418.62775 1655.8808,419.40675 1653.8055,419.57385 1651.8247,418.96265 1639.3221,418.07165 1639.4355,415.64215 1640.0934,414.14175 1639.9724,413.74965 1640.5079,413.23615 1644.6756,411.72465 1647.0243,410.16875 1646.0291,407.98185 1646.8225,406.68735 1647.1261,407.34155 1646.5886,407.91505 1646.7222,408.28985 1648.0042,409.22005 1649.3693,408.45285 1649.8086,407.85155 1651.3828,407.60965 1652.8463,406.25485 1654.4415,406.22095 1654.9856,405.20665 1654.3366,404.72415 1655.9079,403.46635 1657.9045,403.62315 1658.9224,402.91645 1660.055,401.21175 1660.0067,400.41005 1659.3698,399.89315 1657.8294,400.47415 1657.0232,400.34635 1656.1733,399.42745 1656.0368,398.64615 1658.1289,394.12405 1660.3487,393.12895 1660.2486,391.49065 1661.0944,390.06665 1662.273,389.69005 1664.3472,389.63155 1665.4615,389.10395 1667.3136,390.00285 1668.9454,390.28835 1670.5976,391.49615 1672.6332,391.45205 1673.029,391.32695 1673.0397,390.91025 1671.9656,388.67125 1671.7924,387.02055 1673.139,383.14305 1675.1519,380.00645 1675.3755,377.08565 1674.4015,374.38135 1676.4165,372.60125 1675.9832,371.98635 1674.4396,372.03665 1674.7474,371.31205 1674.3114,370.21305 1675.5803,369.41185 1675.9592,369.44855 1676.0551,369.81785 1676.5195,369.16205 1678.7058,368.12075 1680.0418,366.61125 1680.7297,368.06805 1681.6973,368.81635 1681.6882,370.39455 1682.1789,371.36465 1682.7786,373.23235 1682.6408,374.40255 1681.9724,375.82485 1683.2502,376.34185 1683.5132,376.10705 1684.7324,378.34485 1684.9907,378.60825 1685.4421,380.24005 1685.2265,382.84905 1685.4945,384.50525 1684.9295,386.50985 1683.6551,388.03115 1684.2329,390.42005 1684.31,390.79215 1685.835,391.80715 1687.0819,392.14755 1687.8029,392.42525 1689.7445,392.29435 1694.2447,392.47435 1696.1429,393.28045 1697.3661,393.42955 1698.9523,393.08955 1698.4935,391.49675 1698.8747,391.64785 1699.4326,393.57845 1701.6952,394.48165 1701.7473,387.53545 1703.1431,388.20875 1703.2541,392.24455 1702.0976,394.83015 1700.9886,397.06635 1703.7809,399.56105 1705.3215,400.93165 1706.1353,401.05915 1708.0516,402.60975 1708.4627,402.58665 1708.7942,404.13735 1709.6282,405.01235 1710.0731,406.55395 1709.3143,406.35985 1708.2094,405.35135 1707.389,406.69305 1706.6198,406.82325 1705.9784,406.89545 1705.5808,406.81465 1705.1035,407.29955 1705.1085,405.72885 1704.2305,404.51365 1703.3355,406.12405 1704.1258,407.30135 1704.7327,407.59445 1704.465,409.94905 1703.6575,409.13565 1703.0913,409.92075 1703.433,410.93045 1703.7148,411.62935 1702.2358,412.03655 1701.7301,414.62915 1701.0201,415.09125 1698.6867,412.15885 1697.4938,412.41125 1694.2431,414.04885 1692.4855,417.21945 1690.9913,417.79245 1689.8417,416.58955 1689.1078,416.94365 1687.832,416.00565 1685.4254,416.05635 1684.7184,416.48425 1683.4768,418.15135 1682.2117,421.63785 1683.8666,424.01775 1690.4895,428.99145 1690.7626,431.86765 1691.7696,433.66835 1690.9379,433.61525 1688.8678,432.23375 z">
      <title id="t59">Seizième circonscription des Bouches-du-Rhône</title>
      <desc id="d59">Cantons de : Arles Est, Arles Ouest, Istres Nord, Saintes-Maries-de-la-Mer, Tarascon</desc>
    </path><path class="vide" d="M 1742.1092,426.27645 1740.7967,427.05775 1740.0154,427.62025 1738.0154,428.40145 1736.8592,428.55775 1736.7654,427.02645 1736.2967,426.46405 1734.5154,427.18275 1734.7967,427.83905 1733.3904,427.87025 1732.953,428.46405 1731.8592,428.40145 1730.2342,426.62025 1728.4217,427.40145 1728.7967,428.05775 1728.4217,429.08905 1728.703,430.52645 1730.5467,429.74525 1731.3592,429.83905 1733.2654,431.27645 1733.1092,431.93275 1733.4217,432.21405 1734.078,432.58905 1735.328,434.62025 1735.578,435.80775 1735.3904,437.02645 1735.453,437.37025 1736.4842,437.40145 1736.2654,437.55775 1735.078,437.52645 1734.2967,438.90145 1736.0154,440.52645 1736.4842,441.62025 1736.453,442.87025 1734.4842,444.93275 1733.6717,446.80775 1735.5467,447.55775 1737.1404,447.37025 1738.453,447.02645 1740.703,447.87025 1741.2967,447.52645 1742.8592,447.90145 1742.953,447.49525 1743.703,447.30775 1746.7654,448.37025 1747.9842,448.33905 1748.078,448.71405 1748.6717,446.83905 1747.8592,445.02645 1748.328,444.43275 1749.1092,444.33905 1749.2654,443.96405 1748.8904,443.30775 1748.328,441.08905 1748.453,440.58905 1747.7342,439.74525 1747.703,438.99525 1748.4217,438.15145 1748.7967,438.21405 1749.7967,436.96405 1749.1717,434.37025 1748.3904,434.27645 1747.0467,435.02645 1745.1092,435.08905 1744.3904,434.12025 1743.3904,432.65145 1743.1717,431.49525 1744.1404,429.68275 1742.7654,426.65145 1742.1092,426.27645 z" id="013-00"></path></svg>