<svg xmlns="http://www.w3.org/2000/svg" version="1.1" xmlns:xlink="http://www.w3.org/1999/xlink" xmlns:svgjs="http://svgjs.dev/svgjs" viewBox="0 0 134.55579999999986 145.12487"><path class="circo" id="id-013-01" d="M85.03659999999991 124.15429L89.70889999999986 125.46085L93.21019999999999 124.61995999999999L93.5021999999999 122.35609L95.17419999999993 120.72871000000004L100.63599999999997 122.04702000000003L100.99339999999984 120.54912000000002L98.86209999999983 118.01389L98.76059999999984 115.72732000000002L100.88259999999991 113.18455L102.01409999999987 113.38891000000001L105.05799999999999 109.63222999999999L103.14019999999982 101.84363000000002L100.8155999999999 101.55027000000001L96.72679999999991 103.75260000000003L90.90109999999981 103.97138000000001L88.73109999999997 101.05348000000004L86.9393 102.63830999999999L82.95489999999995 101.72864000000004L78.88409999999999 104.85905000000002L74.33449999999993 103.88208000000003L73.93489999999997 110.68194L73.1594 112.50821000000002L73.6286 114.31245999999999L78.31700000000001 113.84612000000004L80.3472999999999 116.52230000000003L82.44339999999988 115.38902000000002L83.39709999999991 117.45161999999999L85.78969999999981 117.93239L85.49559999999997 119.11793L85.62019999999984 121.10413L86.53759999999988 122.51783L85.03659999999991 124.15429z">
      <title id="t44-8">Première circonscription des Bouches-du-Rhône</title>
      <desc id="d44-4">Partie du 10e arrondissement municipal située au nord d'une ligne définie par l'axe des voies ci-après, à partir de la limite du 5e arrondissement municipal de Marseille : boulevard Jean-Moulin, avenue de la Timone, voie de chemin de fer, autoroute Est A50, rue d'André-Bardon, avenue Florian, lit de l'Huveaune vers l'amont, traverse de la Roue, place Guy-Duran, rue Pierre-Doize, chemin des Prud'hommes, boulevard du Général-Mangin, résidence Lycée Est incluse, chemin de la Valbarelle à Saint-Marcel jusqu'en limite du 11e arrondissement municipal</desc>
    </path><path class="circo" id="id-013-02" d="M58.25799999999981 115.43215000000004L60.67089999999985 111.33023000000003L64.19539999999984 111.42376999999999L64.4873 112.34912000000003L64.91589999999997 116.49786L68.74369999999999 115.10409000000004L71.59199999999987 118.10833000000002L70.52109999999993 121.53846000000004L70.5507 127.56267000000003L68.93869999999993 132.20425L66.63539999999989 134.99269000000004L66.89639999999986 141.01359000000002L62.05469999999991 141.64047L56.37609999999995 139.31347L58.841899999999896 133.659L64.79149999999981 127.40392000000003L64.88929999999982 123.71998000000002L63.42039999999997 120.33089000000001L58.25799999999981 115.43215000000004z">
      <title id="t45-5">Deuxième circonscription des Bouches-du-Rhône</title>
      <desc id="d45-3">7e arrondissement municipal</desc>
    </path><path class="circo" id="id-013-03" d="M67.33219999999983 101.37521000000004L67.15559999999982 102.74693000000002L69.88459999999986 103.37833L70.0027 103.35962L74.33449999999993 103.88208000000003L78.88409999999999 104.85905000000002L82.95489999999995 101.72864000000004L86.9393 102.63830999999999L88.73109999999997 101.05348000000004L85.73289999999997 96.56672000000003L85.02629999999999 93.12847L87.97209999999995 87.63150000000002L83.82089999999994 78.48327L81.84889999999996 77.33227L77.9378999999999 79.74062000000004L75.52499999999986 81.41658000000001L69.4876999999999 83.74174L70.60199999999986 84.25512000000003L70.21209999999996 85.42525L66.5963999999999 88.63416000000001L65.9547 92.42129L68.28559999999993 94.02874000000003L68.46939999999995 94.99696L70.03639999999996 95.76719000000003L71.34879999999998 96.63672000000003L72.66529999999989 97.66623000000004L72.83909999999992 98.33505000000002L70.34969999999998 99.72638L69.53449999999998 101.41291000000001L68.12509999999997 100.84372000000002L67.33219999999983 101.37521000000004z">
      <title id="t46-4">Troisième circonscription des Bouches-du-Rhône</title>
      <desc id="d46-6">Partie du 12e arrondissement municipal non comprise dans la 1re circonscription</desc>
    </path><path class="circo" id="id-013-04" d="M68.83129999999983 109.05456000000004L69.84989999999993 107.67376000000002L69.19679999999994 105.85172L69.88459999999986 103.37833L64.3424 102.08386999999999L63.715599999999995 103.26759000000004L60.0315999999998 96.88873000000001L57.6558 96.37657999999999L61.41729999999984 102.50974000000002L62.17509999999993 106.15655000000004L61.5813999999998 109.83505000000002L61.725599999999986 110.86695000000003L64.86449999999991 110.92973L65.83939999999984 110.59678000000002L65.95259999999985 111.80676L66.9246999999998 111.45217000000002L69.35009999999988 112.35278L68.83129999999983 109.05456000000004z">
      <title id="t47-3">Quatrième circonscription des Bouches-du-Rhône</title>
      <desc id="d47-6">1er arrondissement municipal</desc>
    </path><path class="circo" id="id-013-05" d="M68.83129999999983 109.05456000000004L69.84989999999993 107.67376000000002L69.19679999999994 105.85172L69.88459999999986 103.37833L70.0027 103.35962L74.33449999999993 103.88208000000003L73.93489999999997 110.68194L73.1594 112.50821000000002L73.26369999999997 112.92652000000004L69.56679999999983 114.53610000000003L68.74369999999999 115.10409000000004L64.91589999999997 116.49786L64.4873 112.34912000000003L64.19539999999984 111.42376999999999L64.86449999999991 110.92973L65.83939999999984 110.59678000000002L65.95259999999985 111.80676L66.9246999999998 111.45217000000002L68.26929999999993 111.94713999999999L69.35009999999988 112.35278L68.83129999999983 109.05456000000004z">
      <title id="t48-3">Cinquième circonscription des Bouches-du-Rhône</title>
      <desc id="d48-6">4e arrondissement municipal</desc>
    </path><path class="circo" id="id-013-06" d="M86.66149999999993 140.80139000000003L84.40210000000002 141.39596L84.10939999999982 142.59058L79.42079999999987 141.52333L77.60289999999986 142.54711000000003L70.7860999999998 140.03572000000003L66.89639999999986 141.01359000000002L66.63539999999989 134.99269000000004L68.93869999999993 132.20425L70.5507 127.56267000000003L70.52109999999993 121.53846000000004L71.59199999999987 118.10833000000002L68.74369999999999 115.10409000000004L69.56679999999983 114.53610000000003L73.26369999999997 112.92652000000004L73.6286 114.31245999999999L78.31700000000001 113.84612000000004L80.3472999999999 116.52230000000003L82.44339999999988 115.38902000000002L83.39709999999991 117.45161999999999L85.78969999999981 117.93239L85.49559999999997 119.11793L85.62019999999984 121.10413L86.53759999999988 122.51783L85.03659999999991 124.15429L89.70889999999986 125.46085L93.21019999999999 124.61995999999999L93.5021999999999 122.35609L95.17419999999993 120.72871000000004L100.63599999999997 122.04702000000003L102.32719999999995 128.78049000000004L103.47019999999998 130.77909L102.9862999999998 131.88554L100.5951 132.20211L99.17229999999995 133.95960000000002L101.65169999999989 139.40312L99.90139999999997 145.12487L99.60159999999996 143.93394L95.95319999999992 144.03291000000002L86.66149999999993 140.80139000000003z">
      <title id="t49-5">Sixième circonscription des Bouches-du-Rhône</title>
      <desc id="d49-4">9e arrondissement municipal</desc>
    </path><path class="circo" id="id-013-07" d="M54.69969999999989 94.4821L55.15379999999982 92.50190000000003L49.4400999999998 88.16029000000003L46.99689999999987 87.84431000000001L41.42509999999993 90.24132000000003L40.55139999999983 85.85566L41.69579999999996 82.71587L40.53899999999999 80.77946000000003L46.013299999999845 78.45096000000001L50.90120000000002 83.76017999999999L54.25969999999984 83.96451000000002L55.572299999999814 82.17048L59.78710000000001 82.10864000000004L58.90159999999992 80.06172000000004L64.31619999999998 77.90800999999999L65.76279999999997 79.61024000000003L65.98339999999985 84.27715L69.4876999999999 83.74174L70.60199999999986 84.25512000000003L70.21209999999996 85.42525L66.5963999999999 88.63416000000001L65.9547 92.42129L68.28559999999993 94.02874000000003L68.46939999999995 94.99696L70.03639999999996 95.76719000000003L71.34879999999998 96.63672000000003L72.66529999999989 97.66623000000004L72.83909999999992 98.33505000000002L70.34969999999998 99.72638L69.53449999999998 101.41291000000001L68.12509999999997 100.84372000000002L67.33219999999983 101.37521000000004L67.15559999999982 102.74693000000002L64.3424 102.08386999999999L63.715599999999995 103.26759000000004L60.0315999999998 96.88873000000001L57.6558 96.37657999999999L55.65499999999997 95.24387999999999L54.69969999999989 94.4821z">
      <title id="t50-0">Septième circonscription des Bouches-du-Rhône</title>
      <desc id="d50-5">Partie du 14e arrondissement municipal non comprise dans la 3e circonscription</desc>
    </path><path class="circo" id="id-013-08" d="M79.4237999999998 53.32830000000001L78.72879999999986 54.74380000000002L77.97239999999988 54.79050000000001L76.02620000000002 51.70269999999999L75.09299999999985 48.9957L75.46419999999989 48.3211L75.35039999999981 47.5025L74.32769999999982 46.86099999999999L70.61279999999988 46.67080000000004L69.45749999999998 47.108100000000036L68.43809999999985 45.82390000000004L68.17969999999991 44.62040000000002L67.29769999999985 43.28559999999999L68.0668999999998 43.15540000000004L68.88729999999987 41.81370000000004L69.99219999999991 42.82220000000001L70.75099999999998 43.0163L70.30610000000001 41.47470000000004L69.47209999999995 40.59970000000004L69.14059999999995 39.049000000000035L68.72949999999992 39.072100000000034L66.81319999999982 37.5215L65.99939999999992 37.394000000000005L64.45879999999988 36.02340000000004L61.666499999999814 33.528700000000015L62.775499999999965 31.292500000000018L65.43079999999986 32.47410000000002L70.39859999999999 29.43580000000003L71.6121999999998 28.296500000000037L74.44069999999988 28.309200000000033L75.0465999999999 27.803800000000024L75.27049999999986 28.147400000000005L76.14179999999988 27.5043L77.1764999999998 27.140800000000013L78.1893 27.55250000000001L78.57979999999998 29.05400000000003L80.4031 29.877400000000023L80.93020000000001 30.94659999999999L80.82459999999992 31.37530000000004L80.95769999999993 33.27600000000001L81.32139999999981 33.45840000000004L83.65809999999988 32.936000000000035L85.31099999999992 34.69749999999999L85.95349999999985 37.04730000000001L86.74329999999986 37.230500000000006L87.44650000000001 36.83320000000003L87.03629999999998 39.071000000000026L86.81219999999985 39.735299999999995L87.17539999999985 40.32140000000004L87.96989999999983 41.13730000000004L89.10149999999999 41.08870000000002L91.3168999999998 42.134299999999996L93.25729999999999 43.56510000000003L94.46209999999996 43.77090000000004L94.74270000000001 45.34360000000004L95.05129999999986 45.61349999999999L93.84299999999985 47.608900000000006L91.5048999999999 48.10650000000004L90.43219999999997 47.57400000000001L90.23159999999984 48.36790000000002L88.34199999999987 50.40160000000003L88.5193999999999 51.54790000000003L87.38040000000001 51.839800000000025L86.68129999999996 52.780200000000036L84.41879999999992 52.315300000000036L83.99509999999987 51.351200000000006L82.66570000000002 50.90360000000004L79.4237999999998 53.32830000000001z">
      <title id="t51">Huitième circonscription des Bouches-du-Rhône</title>
      <desc id="d51">Cantons de : Berre-l'Etang, Pélissanne, Salon-de-Provence</desc>
    </path><path class="circo" id="id-013-09" d="M109.03819999999996 77.53640000000001L109.1565999999998 77.0401L108.45039999999995 76.20010000000002L108.41679999999997 75.4425L109.11989999999992 74.60000000000002L109.49479999999994 74.66770000000002L110.50329999999985 73.423L109.86789999999996 70.8424L112.04849999999988 69.08269999999999L113.57219999999984 69.15860000000004L117.24839999999995 70.48380000000003L118.38829999999984 70.58370000000002L119.39769999999999 70.04220000000004L120.41049999999996 70.56209999999999L121.62310000000002 71.27820000000003L122.30829999999992 71.00060000000002L123.37569999999982 71.04430000000002L124.16779999999994 71.75380000000001L127.1905999999999 71.23970000000003L128.07439999999997 73.0462L129.29809999999998 74.64160000000004L130.2670999999998 75.32830000000001L130.10849999999982 77.08080000000001L128.18089999999984 77.69319999999999L125.03309999999988 79.43740000000003L125.31259999999997 80.07920000000001L123.4348 80.80260000000004L123.0918999999999 82.98740000000004L122.88559999999984 86.0292L122.53869999999984 87.35520000000002L120.3431999999998 86.3315L118.35029999999983 86.62150000000003L117.52179999999998 87.49400000000003L117.32499999999982 88.67599999999999L116.83539999999994 89.3247L113.91480000000001 87.90280000000001L112.65079999999989 86.29329999999999L112.13159999999993 85.66149999999999L111.9565 84.05439999999999L111.2543999999998 83.64030000000002L109.39159999999993 84.17020000000002L108.7947999999999 85.18280000000004L109.37469999999985 83.28700000000003L108.55319999999983 81.48340000000002L109.02459999999996 80.90110000000004L109.8168999999998 80.7962L109.97719999999981 80.4296L109.59849999999983 79.76740000000001L109.03819999999996 77.53640000000001z">
      <title id="t52">Neuvième circonscription des Bouches-du-Rhône</title>
      <desc id="d52">Cantons de : Aubagne Est, Aubagne Ouest, La Ciotat</desc>
    </path><path class="circo" id="id-013-10" d="M105.30639999999994 51.157399999999996L104.30909999999994 52.34100000000001L102.98059999999987 53.2063L102.2842999999998 52.96230000000003L100.0145 53.3236L98.36939999999981 54.332899999999995L98.72370000000001 57.41880000000003L97.29289999999992 59.23490000000004L97.66859999999997 59.8655L98.80970000000002 59.64850000000001L99.26649999999995 61.509600000000034L100.22889999999984 62.673L101.5175999999999 63.519000000000005L102.8134 62.721000000000004L103.46679999999992 63.10239999999999L104.84219999999982 66.13350000000003L103.86619999999994 67.95480000000003L104.10029999999983 69.094L105.0936999999999 70.5806L105.81269999999995 71.54740000000004L107.74289999999996 71.47489999999999L109.0976999999998 70.74520000000001L109.86789999999996 70.8424L112.04849999999988 69.08269999999999L113.57219999999984 69.15860000000004L117.24839999999995 70.48380000000003L118.38829999999984 70.58370000000002L119.39769999999999 70.04220000000004L120.41049999999996 70.56209999999999L121.62310000000002 71.27820000000003L122.30829999999992 71.00060000000002L123.48109999999997 70.71550000000002L124.0752 69.66829999999999L123.92169999999987 68.4776L125.23779999999988 66.95710000000003L124.4342999999999 65.61080000000004L124.01779999999985 62.773300000000006L123.46640000000002 61.676199999999994L123.18409999999994 61.398000000000025L122.41409999999996 61.5761L120.41999999999985 61.52350000000001L119.75 61.09870000000001L118.82189999999991 60.44409999999999L117.31809999999996 60.186500000000024L116.81880000000001 57.877700000000004L115.36410000000001 56.57990000000001L113.29989999999998 57.706200000000024L112.92009999999982 57.60000000000002L112.03639999999996 56.80850000000004L110.4348 56.88010000000003L107.60099999999989 54.17470000000003L110.70839999999998 51.87110000000001L111.06839999999988 49.3535L110.62259999999992 49.227300000000014L108.33639999999991 48.79020000000003L107.19159999999988 49.02180000000004L106.18719999999985 48.3981L105.50139999999988 48.476800000000026L104.93539999999985 49.467600000000004L104.97550000000001 50.20830000000001L105.45399999999995 50.80450000000002L105.30639999999994 51.157399999999996z">
      <title id="t53">Dixième circonscription des Bouches-du-Rhône</title>
      <desc id="d53">Cantons de : Allauch, Gardanne, Roquevaire, Commune de Meyreuil</desc>
    </path><path class="circo" id="id-013-11" d="M86.81219999999985 39.735299999999995L87.17539999999985 40.32140000000004L87.96989999999983 41.13730000000004L89.10149999999999 41.08870000000002L91.3168999999998 42.134299999999996L93.25729999999999 43.56510000000003L94.46209999999996 43.77090000000004L94.74270000000001 45.34360000000004L95.05129999999986 45.61349999999999L93.84299999999985 47.608900000000006L91.5048999999999 48.10650000000004L90.43219999999997 47.57400000000001L90.23159999999984 48.36790000000002L88.34199999999987 50.40160000000003L88.5193999999999 51.54790000000003L90.0193999999999 53.01690000000002L90.07119999999986 53.80369999999999L90.79949999999985 54.65870000000001L91.01369999999997 56.18150000000003L91.84809999999993 57.88659999999999L90.68489999999997 57.8904L90.34739999999988 59.0299L88.7978999999998 59.36940000000004L88.56189999999992 60.93790000000001L87.96059999999989 61.45240000000001L88.48979999999983 62.61110000000002L89.12619999999993 63.863200000000006L90.93999999999983 63.0917L92.55949999999984 64.85079999999999L93.67229999999995 64.9185L94.10719999999992 64.32409999999999L95.50369999999998 64.30360000000002L95.21029999999996 63.62540000000001L97.00429999999983 62.91180000000003L97.4835999999998 63.47579999999999L97.55669999999986 65.02210000000002L98.7177999999999 64.84469999999999L100.71809999999982 64.0743L101.5175999999999 63.519000000000005L100.22889999999984 62.673L99.26649999999995 61.509600000000034L98.80970000000002 59.64850000000001L97.66859999999997 59.8655L97.29289999999992 59.23490000000004L98.72370000000001 57.41880000000003L98.36939999999981 54.332899999999995L100.0145 53.3236L102.2842999999998 52.96230000000003L102.98059999999987 53.2063L104.30909999999994 52.34100000000001L105.30639999999994 51.157399999999996L105.45399999999995 50.80450000000002L104.97550000000001 50.20830000000001L104.93539999999985 49.467600000000004L105.16219999999998 49.0745L104.47969999999987 48.9941L104.12799999999993 48.74889999999999L104.13739999999984 48.61680000000001L104.06139999999982 48.177400000000034L103.72709999999984 47.96260000000001L103.48159999999984 47.44550000000004L103.31899999999996 47.25020000000001L103.03189999999995 47.1404L102.74489999999992 47.12549999999999L102.36649999999986 48.116600000000005L101.44179999999983 48.46449999999999L101.70830000000001 48.05860000000001L101.6884 46.94L102.48559999999998 45.96730000000002L102.74029999999993 46.29590000000002L103.32009999999991 45.97860000000003L103.2159999999999 44.2441L104.07589999999982 44.8433L104.07489999999984 44.34809999999999L105.43079999999986 41.153099999999995L104.96149999999989 40.920600000000036L104.98839999999996 39.97550000000001L104.57299999999987 39.878600000000006L103.66989999999987 40.54180000000002L102.1556999999998 40.75920000000002L101.11159999999995 41.369200000000035L99.60719999999992 41.24680000000001L99.28309999999988 42.169100000000014L98.69349999999986 41.32910000000004L96.99229999999989 41.10570000000001L96.57939999999985 40.41030000000001L96.75019999999995 39.83170000000001L94.98479999999995 38.096000000000004L94.3777 38.40100000000001L93.8614 38.98680000000002L92.78139999999985 38.588300000000004L91.7844 39.20120000000003L89.4076 39.41399999999999L87.03629999999998 39.071000000000026L86.81219999999985 39.735299999999995z">
      <title id="t54">Onzième circonscription des Bouches-du-Rhône</title>
      <desc id="d54">Cantons de : Aix-en-Provence Nord-Est (partie comprenant la portion de territoire de la commune d'Aix-en-Provence délimitée, au nord, par la voie ferrée entre le passage à niveau de la Calade et la limite de la commune de Venelles, à l'est, par la limite de la commune de Venelles, l'autoroute A 51, la route de Sisteron, l'ancienne route des Alpes jusqu'à la limite du canton d'Aix-en-Provence Centre, au sud, par la limite du canton d'Aix-en-Provence Centre, à l'ouest, par la limite du canton d'Aix-en-Provence Sud-Ouest), Aix-en-Provence Sud-Ouest (moins la commune de Meyreuil), Les Pennes-Mirabeau</desc>
    </path><path class="circo" id="id-013-12" d="M70.03129999999987 55.65219999999999L70.05369999999994 56.52969999999999L70.64329999999995 58.964800000000025L70.53909999999996 61.03820000000002L71.6214 61.609500000000025L73.63670000000002 61.450800000000015L74.20209999999997 62.95339999999999L73.93549999999982 63.7158L74.19830000000002 66.02120000000002L74.12189999999987 67.9527L72.96370000000002 69.50380000000001L73.67769999999996 69.8834L76.93529999999987 69.89120000000003L78.0342999999998 70.20920000000001L79.54229999999984 70.0455L80.4547 69.40610000000004L81.14989999999989 69.50940000000003L84.49569999999994 70.00080000000003L85.60419999999999 69.59890000000001L87.36279999999988 68.82140000000004L89.43599999999992 67.0351L89.14649999999983 65.582L89.52569999999992 64.54169999999999L89.14239999999995 63.90010000000001L88.50599999999986 62.648000000000025L87.97679999999991 61.489300000000014L88.57809999999995 60.974800000000016L88.81409999999983 59.40629999999999L90.3635999999999 59.0668L90.7011 57.9273L91.86429999999996 57.92349999999999L91.0299 56.21840000000003L90.81569999999988 54.69560000000001L90.08739999999989 53.840599999999995L90.03559999999993 53.053800000000024L88.53559999999993 51.58480000000003L87.39659999999981 51.87670000000003L86.69749999999999 52.81710000000004L84.43499999999995 52.35220000000004L84.019 51.40610000000004L82.68110000000001 50.95230000000004L79.46929999999998 53.37450000000001L78.74279999999999 54.79320000000001L77.9400999999998 54.7869L76.0827999999999 51.836299999999994L75.08769999999981 49.00740000000002L75.47910000000002 48.37100000000004L75.33849999999984 47.54050000000001L74.37149999999997 46.911699999999996L70.64699999999993 46.72290000000004L69.4659999999999 47.14280000000002L68.47129999999993 45.92689999999999L68.20799999999986 44.73509999999999L67.31309999999985 43.33440000000002L66.64889999999991 43.374000000000024L66.79379999999992 46.65190000000001L65.70439999999985 48.32660000000004L65.3630999999998 49.5163L65.73649999999998 51.946799999999996L65.52549999999997 52.79380000000003L65.92840000000001 53.410799999999995L68.84069999999997 53.412300000000016L69.5281 53.821500000000015L69.98799999999983 54.52010000000001L70.0048999999999 55.10360000000003z">
      <title id="t55">Douzième circonscription des Bouches-du-Rhône</title>
      <desc id="d55">Cantons de : Châteauneuf-Côte-Bleue, Marignane, Vitrolles</desc>
    </path><path class="circo" id="id-013-13" d="M70.06790000000001 70.1524L68.5317 69.6687L66.83429999999998 68.2251L67.57979999999998 66.81890000000004L66.77959999999985 66.50280000000004L65.36559999999986 63.91590000000002L64.3119999999999 62.35880000000003L65.50569999999993 61.65110000000004L65.0456999999999 61.17090000000002L64.09809999999993 61.0985L64.00099999999998 61.83300000000003L63.35509999999999 61.39980000000003L63.0659999999998 59.02010000000001L62.48869999999988 58.47280000000001L59.62310000000002 57.66550000000001L57.71469999999999 58.45519999999999L57.66809999999987 59.38940000000002L56.02679999999987 60.35849999999999L55.74129999999991 60.00740000000002L56.455999999999904 58.818700000000035L57.27890000000002 58.24870000000004L55.87699999999995 58.410799999999995L55.56099999999992 59.33860000000004L54.5940999999998 57.71660000000003L54.22349999999983 57.8057L53.64149999999995 56.48779999999999L53.674999999999955 55.060900000000004L52.829099999999926 55.58250000000004L55.050899999999956 60.138300000000015L54.049999999999955 61.02520000000004L50.932599999999866 58.04860000000002L50.42409999999995 58.79939999999999L53.452 61.429100000000005L53.00999999999999 61.757600000000025L51.9224999999999 61.15719999999999L51.552799999999934 61.89930000000004L52.96349999999984 62.40180000000004L52.729499999999916 64.01929999999999L51.22799999999984 64.32830000000001L54.02729999999997 65.10650000000004L55.437999999999874 66.59090000000003L58.09069999999997 64.22130000000004L58.043499999999995 63.13820000000004L58.45740000000001 64.27860000000004L53.59699999999998 68.83280000000002L53.279599999999846 70.12180000000001L52.44749999999999 70.13069999999999L51.44049999999993 68.33000000000004L51.167399999999816 65.4538L44.54449999999997 60.48009999999999L42.88959999999997 58.10020000000003L44.15469999999982 54.613699999999994L45.39629999999988 52.94659999999999L46.10329999999999 52.518700000000024L48.509900000000016 52.46800000000002L49.785699999999906 53.406000000000006L50.519599999999855 53.05189999999999L51.66919999999982 54.25479999999999L53.16339999999991 53.68180000000001L54.92099999999982 50.51120000000003L58.17169999999987 48.87360000000001L59.36459999999988 48.62119999999999L61.697999999999865 51.55360000000002L62.4079999999999 51.091499999999996L62.913699999999835 48.49889999999999L64.39269999999988 48.0917L63.769199999999955 46.38310000000001L64.33539999999994 45.59800000000001L65.14289999999983 46.411400000000015L65.41059999999993 44.05680000000001L64.80369999999994 43.76370000000003L64.01339999999982 42.586400000000026L64.9083999999998 40.976L65.78639999999996 42.19120000000004L65.78139999999985 43.761900000000026L66.25869999999986 43.27699999999999L66.65629999999987 43.3578L66.74789999999985 46.62450000000001L65.67229999999995 48.325199999999995L65.32999999999993 49.51890000000003L65.71389999999997 51.95930000000004L65.48169999999982 52.75260000000003L65.93849999999998 53.423100000000034L68.81349999999998 53.372600000000034L69.51999999999998 53.79680000000002L69.94839999999999 54.492999999999995L70.03800000000001 56.54599999999999L70.62689999999998 58.968500000000006L70.52359999999999 61.003600000000006L71.56659999999988 61.56270000000001L73.62049999999999 61.41390000000001L74.18589999999995 62.91650000000004L73.91930000000002 63.6789L74.18209999999999 65.98430000000002L74.10569999999984 67.91579999999999L72.94749999999999 69.46690000000001L72.35410000000002 70.03680000000003L71.18709999999987 69.6642L70.06790000000001 70.1524z">
      <title id="t56">Treizième circonscription des Bouches-du-Rhône</title>
      <desc id="d56">Cantons de : Istres Sud, Martigues Est, Martigues Ouest, Port-Saint-Louis-du-Rhône</desc>
    </path><path class="circo" id="id-013-14" d="M103.48159999999984 47.44550000000004L103.31899999999996 47.25020000000001L103.03189999999995 47.1404L102.74489999999992 47.12549999999999L102.36649999999986 48.116600000000005L101.44179999999983 48.46449999999999L101.70830000000001 48.05860000000001L101.6884 46.94L102.48559999999998 45.96730000000002L102.74029999999993 46.29590000000002L103.32009999999991 45.97860000000003L103.2159999999999 44.2441L104.07589999999982 44.8433L104.07489999999984 44.34809999999999L105.43079999999986 41.153099999999995L104.96149999999989 40.920600000000036L104.98839999999996 39.97550000000001L104.57299999999987 39.878600000000006L103.66989999999987 40.54180000000002L102.1556999999998 40.75920000000002L101.11159999999995 41.369200000000035L99.60719999999992 41.24680000000001L99.28309999999988 42.169100000000014L98.69349999999986 41.32910000000004L96.99229999999989 41.10570000000001L96.57939999999985 40.41030000000001L96.75019999999995 39.83170000000001L94.98479999999995 38.096000000000004L95.76099999999997 37.76510000000002L96.5661 35.98419999999999L96.48239999999987 35.22380000000004L100.38569999999982 35.47980000000001L98.88159999999993 32.307500000000005L99.27739999999994 31.170900000000017L99.11669999999981 29.20160000000004L99.8005999999998 28.933600000000013L100.50939999999991 27.227300000000014L103.27869999999984 28.734000000000037L106.91579999999999 30.196900000000028L110.52219999999988 31.185900000000004L112.16429999999991 31.124599999999987L114.18709999999987 30.86250000000001L117.01949999999988 31.249900000000025L118.45669999999996 30.373100000000022L119.9502 29.68670000000003L121.28739999999993 28.10540000000003L122.644 27.157600000000002L123.4692 27.23750000000001L125.95169999999985 27.494100000000003L128.1495 24.44730000000004L129.4898999999998 23.49860000000001L131.08819999999992 23.785599999999988L132.07619999999997 24.469600000000014L132.00689999999986 25.66160000000002L132.46339999999987 26.77969999999999L134.55579999999986 27.68100000000004L133.8191999999999 28.67810000000003L133.3621999999998 31.103800000000035L130.88709999999992 31.041600000000017L126.54219999999987 32.2894L125.77469999999994 33.25080000000003L124.98039999999992 33.148300000000006L123.30449999999996 36.864300000000014L124.04599999999982 39.623400000000004L123.87339999999995 39.99459999999999L121.26749999999993 41.042700000000025L122.32109999999989 42.29090000000002L124.22289999999998 42.4434L125.49829999999997 43.27710000000002L126.36289999999985 43.86750000000001L127.06079999999997 43.858900000000006L126.44539999999984 45.75479999999999L126.1431 49.7269L125.20299999999997 50.415099999999995L124.82769999999982 51.957899999999995L125.80169999999998 52.33090000000004L127.24270000000001 53.726200000000006L129.3132999999998 57.56760000000003L131.2195999999999 59.05490000000003L132.39789999999994 59.190300000000036L132.4393 59.20760000000001L132.2536 59.9511L131.63739999999984 60.40010000000001L129.17909999999983 61.401700000000005L126.85009999999988 60.58760000000001L125.20679999999993 60.643700000000024L123.46640000000002 61.676199999999994L123.18409999999994 61.398000000000025L122.41409999999996 61.5761L120.41999999999985 61.52350000000001L119.75 61.09870000000001L118.82189999999991 60.44409999999999L117.31809999999996 60.186500000000024L116.81880000000001 57.877700000000004L115.36410000000001 56.57990000000001L113.29989999999998 57.706200000000024L112.92009999999982 57.60000000000002L112.03639999999996 56.80850000000004L110.4348 56.88010000000003L107.60099999999989 54.17470000000003L110.70839999999998 51.87110000000001L111.06839999999988 49.3535L110.62259999999992 49.227300000000014L108.33639999999991 48.79020000000003L107.19159999999988 49.02180000000004L106.18719999999985 48.3981L105.50139999999988 48.476800000000026L105.16219999999998 49.0745L104.47969999999987 48.9941L104.12799999999993 48.74889999999999L104.13739999999984 48.61680000000001L103.72709999999984 47.96260000000001L103.48159999999984 47.44550000000004z">
      <title id="t57">Quatorzième circonscription des Bouches-du-Rhône</title>
      <desc id="d57">Cantons de : Aix-en-Provence Centre, Aix-en-Provence Nord-Est (partie non comprise dans la 11e circonscription), Peyrolles-en-Provence, Trets</desc>
    </path><path class="circo" id="id-013-15" d="M42.36609999999996 6.856899999999996L42.37519999999995 5.278700000000015L41.4076 4.530400000000043L40.719699999999875 3.073599999999999L40.32119999999986 3.1510000000000105L40.38999999999987 2.907100000000014L41.846900000000005 2.1339000000000397L42.945199999999886 0.8919999999999959L43.247299999999996 0L46.18290000000002 0.5224000000000046L49.360099999999875 1.1555999999999926L53.08589999999981 1.5663000000000125L55.340999999999894 2.655400000000043L57.17789999999991 4.294399999999996L58.79829999999993 4.401700000000005L59.52039999999988 4.683800000000019L62.848199999999906 6.408500000000004L64.70529999999985 8.65100000000001L65.22809999999981 9.342199999999991L67.78409999999985 11.259800000000041L68.43299999999999 12.254400000000032L69.05089999999996 13.861100000000022L69.51969999999983 15.836600000000033L73.13439999999991 17.91040000000004L75.9496999999999 19.48290000000003L77.22509999999988 20.18380000000002L81.26049999999987 22.218200000000024L85.52049999999986 20.810600000000022L86.30039999999985 20.849800000000016L87.8771999999999 21.191599999999994L89.77159999999981 21.67320000000001L92.22899999999981 22.093600000000038L93.13139999999999 22.955700000000036L94.6429999999998 24.186500000000024L96.92409999999995 25.313600000000008L98.4194 26.136799999999994L100.50939999999991 27.227300000000014L99.8005999999998 28.933600000000013L99.11669999999981 29.20160000000004L99.27739999999994 31.170900000000017L98.88159999999993 32.307500000000005L100.38569999999982 35.47980000000001L96.48239999999987 35.22380000000004L96.5661 35.98419999999999L95.76099999999997 37.76510000000002L94.3777 38.40100000000001L93.8614 38.98680000000002L92.78139999999985 38.588300000000004L91.7844 39.20120000000003L89.4076 39.41399999999999L87.03629999999998 39.071000000000026L87.44650000000001 36.83320000000003L86.74329999999986 37.230500000000006L85.95349999999985 37.04730000000001L85.31099999999992 34.69749999999999L83.65809999999988 32.936000000000035L81.32139999999981 33.45840000000004L80.95769999999993 33.27600000000001L80.82459999999992 31.37530000000004L80.93020000000001 30.94659999999999L80.4031 29.877400000000023L78.57979999999998 29.05400000000003L78.1893 27.55250000000001L77.1764999999998 27.140800000000013L76.14179999999988 27.5043L75.27049999999986 28.147400000000005L75.0465999999999 27.803800000000024L74.44069999999988 28.309200000000033L71.6121999999998 28.296500000000037L70.39859999999999 29.43580000000003L65.43079999999986 32.47410000000002L62.775499999999965 31.292500000000018L63.932000000000016 28.70690000000002L63.82099999999991 24.671100000000024L62.425199999999904 23.99780000000004L62.37310000000002 30.944000000000017L60.1105 30.04079999999999L59.552599999999984 28.11020000000002L59.17139999999995 27.959100000000035L59.63019999999983 29.55189999999999L58.04399999999987 29.89190000000002L56.82079999999996 29.74279999999999L54.922599999999875 28.93670000000003L50.422399999999925 28.756700000000023L48.48079999999982 28.88760000000002L47.759799999999814 28.60990000000004L46.512899999999945 28.269499999999994L44.987899999999854 27.254500000000007L44.91079999999988 26.88240000000002L44.332999999999856 24.49350000000004L45.60739999999987 22.972199999999987L46.172399999999925 20.967600000000004L45.904399999999896 19.311399999999992L46.11999999999989 16.70240000000001L45.66859999999997 15.070600000000013L45.41030000000001 14.807200000000023L44.191100000000006 12.56940000000003L43.92809999999986 12.804200000000037L42.650300000000016 12.287200000000041L43.31869999999981 10.864900000000034L43.456500000000005 9.694700000000012L42.85680000000002 7.826999999999998L42.36609999999996 6.856899999999996z">
      <title id="t58">Quinzième circonscription des Bouches-du-Rhône</title>
      <desc id="d58">Cantons de : Châteaurenard, Eyguières, Lambesc, Orgon, Saint-Rémy-de-Provence</desc>
    </path><path class="circo" id="id-013-16" d="M49.5456999999999 68.6961L45.988999999999805 67.5256L42.240499999999884 67.40750000000003L36.85149999999999 67.84140000000002L30.748999999999796 66.58760000000001L28.656499999999824 65.22840000000002L27.843599999999924 63.80540000000002L28.187599999999975 63.06510000000003L31.192000000000007 60.887400000000014L30.3433 58.52840000000003L29.29009999999994 57.23900000000003L27.521099999999933 56.138900000000035L24.7337 55.26580000000001L18.899400000000014 55.09010000000001L16.558699999999817 55.8691L14.483399999999847 56.03620000000001L12.502599999999802 55.42500000000001L0 54.53399999999999L0.11339999999995598 52.10450000000003L0.7712999999998829 50.60410000000002L0.6503000000000156 50.21199999999999L1.185799999999972 49.698500000000024L5.35349999999994 48.18700000000001L7.702199999999948 46.6311L6.70699999999988 44.44420000000002L7.5003999999999 43.149699999999996L7.80399999999986 43.8039L7.266499999999951 44.37740000000002L7.4000999999998385 44.752200000000016L8.682099999999991 45.68240000000003L10.047199999999975 44.91520000000003L10.486499999999978 44.31389999999999L12.060699999999997 44.072L13.524199999999837 42.71719999999999L15.119399999999814 42.68330000000003L15.663499999999885 41.66900000000004L15.014499999999998 41.186500000000024L16.585799999999836 39.92869999999999L18.582400000000007 40.085500000000025L19.600299999999834 39.37880000000001L20.732899999999972 37.67410000000001L20.68459999999982 36.87240000000003L20.04769999999985 36.355500000000006L18.507299999999987 36.936500000000024L17.701099999999997 36.80869999999999L16.851199999999835 35.88980000000004L16.714699999999993 35.10849999999999L18.80679999999984 30.586400000000026L21.026599999999917 29.59129999999999L20.926499999999805 27.95300000000003L21.77229999999986 26.528999999999996L22.95089999999982 26.1524L25.02509999999984 26.09390000000002L26.139399999999796 25.566300000000012L27.99149999999986 26.46520000000004L29.623299999999972 26.750699999999995L31.275499999999965 27.958500000000015L33.3110999999999 27.9144L33.706899999999905 27.789300000000026L33.71759999999995 27.372600000000034L32.643499999999904 25.1336L32.47029999999995 23.48290000000003L33.816899999999805 19.60540000000003L35.82979999999998 16.468799999999987L36.05340000000001 13.548000000000002L35.07939999999985 10.843700000000013L37.09439999999995 9.063600000000008L36.661099999999806 8.44870000000003L35.117499999999836 8.499000000000024L35.42529999999988 7.774400000000014L34.98929999999996 6.675400000000025L36.25819999999999 5.87420000000003L36.63709999999992 5.9109000000000265L36.73299999999995 6.280200000000036L37.197400000000016 5.624400000000037L39.38369999999986 4.583100000000002L40.719699999999875 3.073599999999999L41.4076 4.530400000000043L42.37519999999995 5.278700000000015L42.36609999999996 6.856899999999996L42.85680000000002 7.826999999999998L43.456500000000005 9.694700000000012L43.31869999999981 10.864900000000034L42.650300000000016 12.287200000000041L43.92809999999986 12.804200000000037L44.191100000000006 12.56940000000003L45.41030000000001 14.807200000000023L45.66859999999997 15.070600000000013L46.11999999999989 16.70240000000001L45.904399999999896 19.311399999999992L46.172399999999925 20.967600000000004L45.60739999999987 22.972199999999987L44.332999999999856 24.49350000000004L44.91079999999988 26.88240000000002L44.987899999999854 27.254500000000007L46.512899999999945 28.269499999999994L47.759799999999814 28.60990000000004L48.48079999999982 28.88760000000002L50.422399999999925 28.756700000000023L54.922599999999875 28.93670000000003L56.82079999999996 29.74279999999999L58.04399999999987 29.89190000000002L59.63019999999983 29.55189999999999L59.17139999999995 27.959100000000035L59.552599999999984 28.11020000000002L60.1105 30.04079999999999L62.37310000000002 30.944000000000017L62.425199999999904 23.99780000000004L63.82099999999991 24.671100000000024L63.932000000000016 28.70690000000002L62.775499999999965 31.292500000000018L61.666499999999814 33.528700000000015L64.45879999999988 36.02340000000004L65.99939999999992 37.394000000000005L66.81319999999982 37.5215L68.72949999999992 39.072100000000034L69.14059999999995 39.049000000000035L69.47209999999995 40.59970000000004L70.30610000000001 41.47470000000004L70.75099999999998 43.0163L69.99219999999991 42.82220000000001L68.88729999999987 41.81370000000004L68.0668999999998 43.15540000000004L67.29769999999985 43.28559999999999L66.65629999999987 43.3578L66.25869999999986 43.27699999999999L65.78139999999985 43.761900000000026L65.78639999999996 42.19120000000004L64.9083999999998 40.976L64.01339999999982 42.586400000000026L64.80369999999994 43.76370000000003L65.41059999999993 44.05680000000001L65.14289999999983 46.411400000000015L64.33539999999994 45.59800000000001L63.769199999999955 46.38310000000001L64.1108999999999 47.39280000000002L64.39269999999988 48.0917L62.913699999999835 48.49889999999999L62.4079999999999 51.091499999999996L61.697999999999865 51.55360000000002L59.36459999999988 48.62119999999999L58.17169999999987 48.87360000000001L54.92099999999982 50.51120000000003L53.16339999999991 53.68180000000001L51.66919999999982 54.25479999999999L50.519599999999855 53.05189999999999L49.785699999999906 53.406000000000006L48.509900000000016 52.46800000000002L46.10329999999999 52.518700000000024L45.39629999999988 52.94659999999999L44.15469999999982 54.613699999999994L42.88959999999997 58.10020000000003L44.54449999999997 60.48009999999999L51.167399999999816 65.4538L51.44049999999993 68.33000000000004L52.44749999999999 70.13069999999999L51.61579999999981 70.07760000000002L49.5456999999999 68.6961z">
      <title id="t59">Seizième circonscription des Bouches-du-Rhône</title>
      <desc id="d59">Cantons de : Arles Est, Arles Ouest, Istres Nord, Saintes-Maries-de-la-Mer, Tarascon</desc>
    </path></svg>