<svg xmlns="http://www.w3.org/2000/svg" version="1.1" xmlns:xlink="http://www.w3.org/1999/xlink" xmlns:svgjs="http://svgjs.dev/svgjs" viewBox="0 0 136.346 87.96036999999995"><path class="circo" id="id-014-01" d="M60.3060999999999 32.93642999999997L58.524099999999976 32.87439999999998L57.40639999999996 33.38006999999999L57.34249999999997 33.78546L56.17509999999993 34.13790999999998L55.86889999999994 35.17863999999997L57.67629999999997 35.32655999999997L58.37219999999991 36.93797999999998L58.3673 36.96162999999996L57.36809999999991 37.62548999999996L57.03800000000001 38.362689999999986L56.40499999999997 37.89041999999995L55.690099999999916 36.48963999999995L55.24309999999991 37.74333999999999L55.321699999999964 39.54380999999995L55.20819999999992 39.77098999999998L54.90159999999992 39.82333999999997L53.9837 40.04426999999998L51.63879999999995 37.79037999999997L51.52170000000001 37.85884999999996L49.06709999999998 37.36314999999996L48.45479999999998 38.74983999999995L46.36839999999995 38.12376999999998L44.98289999999997 39.64213999999998L43.47359999999992 39.82761999999997L43.14379999999994 39.601999999999975L43.96629999999993 38.272009999999966L45.59179999999992 36.312899999999956L45.542499999999905 36.12795999999997L44.815099999999916 35.60119999999995L42.61869999999999 35.32513L43.72519999999997 33.717719999999986L43.589599999999905 33.33195999999998L44.43799999999999 33.33364999999998L45.41319999999996 32.513949999999966L45.22389999999996 31.259749999999997L44.87339999999995 31.048789999999997L44.65359999999998 29.51603L45.32349999999997 28.41257999999999L44.98079999999993 27.612029999999947L44.99649999999997 27.546969999999988L45.33699999999999 26.77103999999997L45.088300000000004 26.008299999999963L44.96659999999997 25.74912999999998L45.15279999999996 25.376169999999945L44.3916999999999 24.47278L44.587999999999965 23.252039999999965L45.612499999999955 23.75559999999996L48.17039999999997 25.07257999999996L48.53559999999993 25.293759999999963L48.85050000000001 25.463389999999947L49.399299999999926 24.734209999999962L51.569099999999935 24.115759999999966L52.36869999999999 25.040419999999983L53.18209999999999 26.302989999999966L56.41509999999994 26.860199999999963L56.448800000000006 26.513199999999983L58.54559999999992 27.453399999999988L60.73039999999992 28.286099999999976L61.50189999999998 28.33320999999995L61.95729999999992 27.689209999999946L62.04039999999998 27.88114999999999L63.0847 26.43041999999997L64.90859999999998 26.122979999999984L66.45819999999992 27.514429999999948L66.74839999999995 27.966909999999984L67.83579999999995 28.30795999999998L66.88909999999998 28.688439999999957L66.73029999999994 29.88603999999998L67.1132 31.05553999999995L67.7038 31.935389999999984L68.3306 32.148379999999975L68.59190000000001 31.90313999999995L69.9334 31.990589999999997L70.3012 33.13272999999998L69.49209999999994 32.94467999999995L69.0584 33.12788999999998L69.85039999999992 34.27414999999996L69.48419999999999 34.49553999999995L69.57839999999999 35.76066999999995L69.2776 36.06700999999998L68.69719999999995 34.946609999999964L68.35289999999998 33.90760999999998L67.1816 34.32926999999995L67.3003 35.01083L67.92109999999991 35.290809999999965L67.36410000000001 38.97587999999996L66.38349999999991 39.05291999999997L65.55219999999997 39.158789999999954L65.60889999999995 38.73788999999999L64.46899999999994 37.68447999999995L64.4076 38.10102999999998L63.073299999999904 37.466579999999965L63.76279999999997 36.39242999999999L62.5231 35.177209999999945L61.730500000000006 35.21749999999997L61.54789999999991 34.314189999999996L60.3060999999999 32.93642999999997z">
      <title id="t60">Première circonscription du Calvados</title>
      <desc id="d60">Cantons de : Caen I, Caen II, Caen III, Caen VIII, Caen IX, Tilly-sur-Seulles</desc>
    </path><path class="circo" id="id-014-02" d="M82.31009999999992 40.29130999999995L82.17199999999991 40.65106999999995L81.04099999999994 40.492489999999975L81.81110000000001 38.03216999999995L80.50939999999991 37.84195999999997L79.34280000000001 38.19367L79.60629999999992 37.507119999999986L78.5041 37.01218L77.03319999999997 37.92978999999997L75.83519999999999 37.40654999999998L75.54519999999991 37.75178999999997L74.97899999999993 36.746429999999975L74.17959999999994 36.477949999999964L71.84699999999998 35.65890999999999L71.57979999999998 37.18343999999996L71.80709999999999 37.35158999999999L71.67419999999993 38.353339999999946L70.55509999999992 39.51691999999997L68.50059999999996 39.500159999999994L67.36410000000001 38.97587999999996L67.92109999999991 35.290809999999965L67.3003 35.01083L67.1816 34.32926999999995L68.35289999999998 33.90760999999998L68.69719999999995 34.946609999999964L69.2776 36.06700999999998L69.57839999999999 35.76066999999995L69.48419999999999 34.49553999999995L69.85039999999992 34.27414999999996L69.0584 33.12788999999998L69.49209999999994 32.94467999999995L70.3012 33.13272999999998L69.9334 31.990589999999997L68.59190000000001 31.90313999999995L68.3306 32.148379999999975L67.7038 31.935389999999984L67.1132 31.05553999999995L66.73029999999994 29.88603999999998L66.88909999999998 28.688439999999957L67.83579999999995 28.30795999999998L66.74839999999995 27.966909999999984L66.45819999999992 27.514429999999948L66.68899999999996 26.709349999999972L67.08479999999997 26.571769999999958L68.57819999999992 26.869959999999992L69.40059999999994 27.154589999999985L70.68179999999995 26.935289999999952L71.11739999999998 26.85472999999996L72.51490000000001 28.55115999999998L71.88549999999998 29.134969999999953L71.6176999999999 31.79611L72.26099999999997 32.47584999999998L72.5675 32.27103999999997L73.33069999999998 31.237379999999973L75.01499999999999 31.330899999999986L75.63329999999996 29.800029999999992L76.35539999999992 30.583519999999965L77.45299999999997 30.99584999999996L78.84249999999997 28.95931999999999L79.20029999999997 27.769109999999955L80.02229999999997 28.114859999999965L80.62979999999993 29.306439999999952L81.3786 28.80176L83.1952 28.77729999999997L84.87979999999993 28.285709999999995L83.98929999999996 30.12537999999995L84.87109999999996 32.45256999999998L86.61059999999998 32.306929999999966L88.64249999999993 32.73747999999995L90.11829999999998 34.70768999999996L91.7536 34.682079999999985L92.76699999999994 35.49513999999999L92.8768 35.82995L92.56459999999993 35.507619999999974L92.1422 35.64928999999995L91.745 37.40121999999997L90.36329999999998 39.628499999999974L88.5385 40.13752999999997L88.41379999999992 39.13033999999999L87.8193 39.511589999999956L87.15049999999997 38.98536999999999L85.37479999999994 40.287019999999984L83.6209 40.57482999999996L82.31009999999992 40.29130999999995z">
      <title id="t61">Deuxième circonscription du Calvados</title>
      <desc id="d61">Cantons de : Caen IV, Caen V, Caen VI, Caen VII, Caen X, Troarn</desc>
    </path><path class="circo" id="id-014-03" d="M64.13 47.63299999999998L63.73439999999994 47.449299999999994L63.26869999999997 45.77509999999995L62.31779999999992 44.87392L62.227499999999964 45.262099999999975L61.062799999999925 47.85976999999997L60.65260000000001 47.87779999999998L60.05589999999995 47.46252999999996L59.5163 47.66374999999999L59.438699999999926 49.429929999999956L58.824199999999905 51.131839999999954L58.79019999999991 51.79151999999999L58.90339999999992 52.35481999999996L58.87329999999997 52.59995999999995L60.043399999999906 53.127279999999985L61.101299999999924 54.47377999999998L62.33089999999993 54.455119999999965L62.75789999999995 54.35143999999997L64.20389999999998 54.98150999999996L65.08069999999998 56.365189999999984L66.1597999999999 56.17538999999999L66.9636999999999 57.11682999999999L66.8229 57.957629999999995L68.27429999999993 58.71620999999999L71.54879999999991 58.17289999999997L72.52549999999997 61.32619999999997L72.68949999999995 62.19428999999997L72.22039999999993 63.42202999999995L69.93139999999994 63.03752999999995L69.34299999999996 63.65432999999996L69.17070000000001 65.32234L68.81999999999994 65.56775999999996L67.97579999999994 63.86849999999998L65.30279999999993 65.07211999999998L63.67399999999998 66.13231999999999L63.483999999999924 66.33152999999999L64.30809999999997 68.72767999999996L64.0356999999999 69.95107999999999L63.16419999999994 70.13659999999999L62.77609999999993 69.96258999999998L61.494699999999966 70.99586999999997L60.685299999999984 70.79266999999999L60.558400000000006 70.38403999999997L59.67689999999993 71.26860999999997L56.58119999999997 70.99690999999996L56.42199999999991 71.77774L58.034599999999955 71.94124L58.924499999999966 72.63149999999996L61.37289999999996 72.73461999999995L62.0788 72.42820999999998L62.28449999999998 73.21610999999996L63.50720000000001 72.76396L64.3211 74.18840999999998L65.8089 75.73254999999995L67.33539999999994 75.50894999999997L67.54189999999994 75.45585999999997L67.89179999999999 76.16175999999996L67.0743 76.40134999999998L67.00450000000001 77.21238999999997L68.92199999999991 78.89252999999997L69.06939999999997 78.98044999999996L70.40869999999995 77.21277999999995L70.3714 76.43660999999997L69.89089999999999 75.81869999999998L70.50559999999996 74.36127999999997L72.29759999999999 74.34731999999997L73.05329999999992 75.45159999999998L74.3483 75.03357999999997L75.64839999999992 74.93177999999995L76.86439999999993 75.40573999999998L77.83939999999996 75.43648999999999L79.08139999999992 76.21316999999999L80.15999999999997 76.53979999999996L81.0326 75.79157999999995L81.51919999999996 76.50182999999998L83.09079999999994 77.10546L83.62919999999997 78.21920999999998L85.52979999999991 79.18520999999998L85.81709999999998 78.89252999999997L87.70589999999993 79.65962999999999L86.11939999999993 77.6078L86.34069999999997 77.22478999999998L87.57179999999994 76.91303999999997L87.8243 75.67544999999996L88.66899999999998 76.54755L89.35809999999992 76.68419L91.3463999999999 76.07470999999998L92.05329999999992 76.55039L92.51499999999999 76.29065999999995L92.9248 76.12584999999996L93.41489999999999 74.89185999999995L95.81189999999992 72.79328999999996L95.7897999999999 72.27648999999997L97.29829999999993 71.90337L97.86500000000001 72.50045L97.90549999999996 72.47098999999997L97.59229999999991 70.97544999999997L100.45429999999999 69.50541999999996L102.69219999999996 68.97439999999995L103.2287 68.55051999999995L103.36129999999991 67.87172999999996L103.84859999999992 66.71169999999995L104.02069999999992 65.49932999999999L105.29219999999998 63.96749L107.05430000000001 64.20972999999998L109.08269999999993 62.42221999999998L109.27749999999992 62.125159999999994L110.0154 62.36034999999998L110.84309999999994 63.64047999999997L111.25469999999996 65.36619999999999L111.62389999999994 65.62752999999998L112.94799999999998 65.38896999999997L113.6588999999999 65.01298999999995L114.35289999999998 63.56761999999998L116.7050999999999 62.87147999999996L117.52389999999991 63.66933999999998L118.73759999999993 63.38320999999996L119.20519999999999 61.30535999999995L120.6712 60.53905999999995L121.91009999999994 60.42149999999998L122.07679999999993 62.396979999999985L122.46179999999993 62.55372999999997L124.67269999999996 61.86523999999997L126.75599999999997 63.34657999999996L128.74439999999993 62.46092999999996L130.5143999999999 59.49192999999997L132.80279999999993 60.762779999999964L132.44459999999992 62.05577999999997L133.5208 62.33135999999996L135.16859999999997 59.5761L134.70619999999997 57.787559999999985L135.29919999999993 55.50577999999996L136.346 53.47335999999996L134.51799999999992 51.78594999999996L133.2423 51.68196999999998L131.1529999999999 51.13986999999997L130.61709999999994 49.49983999999995L130.31229999999994 49.18453999999997L129.95169999999996 49.43342999999999L129.62349999999992 49.15029999999996L130.764 47.99662999999998L130.66059999999993 47.19241999999997L130.66769999999997 46.741679999999974L131.77639999999997 45.98220999999995L133.12119999999993 45.99505999999997L133.90009999999995 46.42586L133.8302 44.60576999999995L132.61709999999994 44.465859999999964L133.4011999999999 43.62849L133.29049999999995 43.27123999999998L132.51299999999992 43.245529999999974L132.4131 42.86215999999996L130.70219999999995 42.50667999999996L128.5272 42.73129L128.21399999999994 42.42293999999998L126.6674999999999 43.15258L124.44439999999997 41.47855999999996L123.68700000000001 42.322179999999946L121.69839999999999 43.765439999999955L120.98469999999998 43.400139999999965L120.4307 42.93706999999995L119.70209999999997 42.64832999999999L119.44089999999994 40.79768999999999L118.14459999999997 41.040539999999964L117.78839999999991 40.78210999999999L118.03009999999995 39.93230999999997L119.8406 38.11570999999998L121.51019999999994 38.304359999999974L122.14679999999998 37.93862999999999L122.024 36.84051999999997L121.45569999999998 36.31783999999999L120.65509999999995 36.39229999999998L120.31880000000001 35.70140999999995L119.4556 35.89050999999995L118.63699999999994 35.58481999999998L118.38810000000001 34.36800999999997L116.9011999999999 33.83680999999996L116.00339999999994 34.798419999999965L115.58109999999999 34.82857999999999L115.18959999999993 34.07889L114.38189999999997 33.92755999999997L114.04949999999997 32.713689999999986L113.16139999999996 33.90935999999999L112.3694999999999 33.71446999999995L111.16289999999992 34.21292L109.71029999999996 35.19318999999996L109.1647999999999 36.388149999999996L108.0800999999999 35.190729999999974L106.60849999999994 34.74435L106.23230000000001 33.837849999999946L107.0596999999999 33.689119999999946L107.7992999999999 32.641909999999996L108.5883 32.46206999999998L108.88599999999997 31.66501999999997L108.94909999999993 31.63457999999997L109.80049999999994 31.56252999999998L111.6502999999999 30.57571999999999L111.32799999999997 28.978189999999984L110.7378 28.76193999999998L109.98949999999991 27.887789999999995L109.0116999999999 27.190639999999973L108.4665 26.902619999999956L109.31189999999992 24.81545L108.65339999999992 24.305469999999957L107.88339999999994 24.745929999999987L106.1665999999999 24.42733999999996L105.8569 23.595429999999965L105.57319999999993 23.281469999999956L105.14279999999997 23.70975999999996L103.8886 25.450109999999995L104.0492999999999 26.22632999999996L102.83499999999992 26.071429999999964L102.09259999999995 26.420139999999947L101.76439999999991 26.137419999999963L100.60439999999994 26.432889999999986L99.44979999999998 26.06791999999996L99.46579999999994 26.954939999999965L98.82439999999997 28.11615999999998L96.82039999999995 29.012149999999963L95.42109999999991 28.65277999999995L94.95229999999992 28.784449999999993L94.00919999999996 29.600469999999973L92.4026 30.066839999999956L91.30349999999999 29.653279999999995L89.54489999999998 29.631169999999997L87.13149999999996 31.64148L86.52729999999997 31.96984999999995L86.61059999999998 32.306929999999966L88.64249999999993 32.73747999999995L90.11829999999998 34.70768999999996L91.7536 34.682079999999985L92.76699999999994 35.49513999999999L92.8768 35.82995L92.56459999999993 35.507619999999974L92.1422 35.64928999999995L91.745 37.40121999999997L90.36329999999998 39.628499999999974L88.5385 40.13752999999997L87.68329999999992 42.82385999999997L88.87239999999997 42.84917999999999L89.12289999999996 42.58340999999996L90.18679999999995 42.79970999999995L90.93939999999998 44.474289999999996L90.16329999999994 44.78981999999996L90.08219999999994 46.46634999999998L89.69380000000001 47.189179999999965L88.29779999999994 46.680439999999976L87.89319999999998 46.81550999999996L86.84259999999995 46.155579999999986L86.29789999999991 46.77515999999997L83.52979999999991 45.59484999999995L82.95429999999999 46.16465999999997L80.88419999999996 45.70684L78.81129999999996 46.53071L77.44979999999998 47.05618999999996L77.23669999999993 46.77190999999999L76.81819999999993 46.30687999999998L75.54019999999991 45.92199999999997L74.53459999999995 46.803439999999966L72.38619999999992 46.239529999999945L72.12279999999998 45.70515999999998L69.04549999999995 46.484639999999956L66.9574 45.65700999999996L66.2992999999999 45.84517999999997L66.58349999999996 46.6096L66.23029999999994 46.791769999999985L65.17999999999995 45.621189999999956L65.06549999999993 46.834839999999986L64.13 47.63299999999998z">
      <title id="t62">Troisième circonscription du Calvados</title>
      <desc id="d62">Cantons de : Bretteville-sur-Laize, Cambremer, Falaise Nord, Falaise Sud, Lisieux II, Lisieux III, Livarot, Mézidon-Canon, Morteaux-Couliboeuf, Orbec, Saint-Pierre-sur-Dives Commune de Lisieux (partie comprise dans le canton de Lisieux I)</desc>
    </path><path class="circo" id="id-014-04" d="M124.6961 19.13758999999999L125.83859999999993 17.42824999999999L125.29309999999998 15.475819999999999L123.7743999999999 15.071619999999996L124.53139999999996 14.499049999999954L125.94259999999997 11.718669999999975L124.61559999999997 9.374559999999974L124.077 7.648649999999975L124.70209999999997 5.614499999999964L123.74509999999998 2.6929699999999457L123.69529999999997 0L122.70749999999998 0.10925999999994929L121.85239999999999 0.15643999999997504L117.37099999999998 0.3424199999999473L114.12929999999994 1.8949599999999691L111.07799999999997 2.9354299999999967L109.67949999999996 3.435099999999977L107.38900000000001 5.223519999999951L104.84019999999998 8.360449999999958L104.5492999999999 8.090649999999982L103.38569999999993 9.636739999999975L102.96109999999999 10.05523999999997L101.10179999999991 11.503019999999992L99.64679999999998 12.703299999999956L97.28319999999997 14.203679999999963L94.95399999999995 15.114389999999958L92.80719999999997 16.03395999999998L91.02099999999996 17.222569999999962L90.57169999999996 17.18384999999995L86.59489999999994 18.305129999999963L84.00879999999995 18.74300999999997L80.89799999999991 18.744699999999966L79.24599999999998 19.318719999999985L76.85259999999994 18.254179999999963L74.70249999999999 17.888469999999984L73.99249999999995 17.66011999999995L70.05629999999996 21.427209999999945L69.45079999999996 21.173979999999972L68.41449999999998 23.777349999999956L66.96399999999994 25.628199999999993L66.77479999999991 26.34035L67.08479999999997 26.571769999999958L68.57819999999992 26.869959999999992L69.40059999999994 27.154589999999985L70.68179999999995 26.935289999999952L71.11739999999998 26.85472999999996L72.51490000000001 28.55115999999998L71.88549999999998 29.134969999999953L71.6176999999999 31.79611L72.26099999999997 32.47584999999998L72.5675 32.27103999999997L73.33069999999998 31.237379999999973L75.01499999999999 31.330899999999986L75.63329999999996 29.800029999999992L76.35539999999992 30.583519999999965L77.45299999999997 30.99584999999996L78.84249999999997 28.95931999999999L79.20029999999997 27.769109999999955L80.02229999999997 28.114859999999965L80.62979999999993 29.306439999999952L81.3786 28.80176L83.1952 28.77729999999997L84.87979999999993 28.285709999999995L83.98929999999996 30.12537999999995L84.87109999999996 32.45256999999998L86.61059999999998 32.306929999999966L86.52729999999997 31.96984999999995L87.13149999999996 31.64148L89.54489999999998 29.631169999999997L91.30349999999999 29.653279999999995L92.4026 30.066839999999956L94.00919999999996 29.600469999999973L94.95229999999992 28.784449999999993L95.42109999999991 28.65277999999995L96.82039999999995 29.012149999999963L98.82439999999997 28.11615999999998L99.46579999999994 26.954939999999965L99.44979999999998 26.06791999999996L100.60439999999994 26.432889999999986L101.76439999999991 26.137419999999963L102.09259999999995 26.420139999999947L102.83499999999992 26.071429999999964L104.0492999999999 26.22632999999996L103.8886 25.450109999999995L105.14279999999997 23.70975999999996L105.57319999999993 23.281469999999956L105.8569 23.595429999999965L106.1665999999999 24.42733999999996L107.88339999999994 24.745929999999987L108.65339999999992 24.305469999999957L109.31189999999992 24.81545L108.4665 26.902619999999956L109.0116999999999 27.190639999999973L109.98949999999991 27.887789999999995L110.7378 28.76193999999998L111.32799999999997 28.978189999999984L111.6502999999999 30.57571999999999L109.80049999999994 31.56252999999998L108.94909999999993 31.63457999999997L108.88599999999997 31.66501999999997L108.5883 32.46206999999998L107.7992999999999 32.641909999999996L107.0596999999999 33.689119999999946L106.23230000000001 33.837849999999946L106.60849999999994 34.74435L108.0800999999999 35.190729999999974L109.1647999999999 36.388149999999996L109.71029999999996 35.19318999999996L111.16289999999992 34.21292L112.3694999999999 33.71446999999995L113.16139999999996 33.90935999999999L114.04949999999997 32.713689999999986L114.38189999999997 33.92755999999997L115.18959999999993 34.07889L115.58109999999999 34.82857999999999L116.00339999999994 34.798419999999965L116.9011999999999 33.83680999999996L118.38810000000001 34.36800999999997L118.63699999999994 35.58481999999998L119.4556 35.89050999999995L120.31880000000001 35.70140999999995L120.65509999999995 36.39229999999998L121.45569999999998 36.31783999999999L122.024 36.84051999999997L122.14679999999998 37.93862999999999L121.51019999999994 38.304359999999974L119.8406 38.11570999999998L118.03009999999995 39.93230999999997L117.78839999999991 40.78210999999999L118.14459999999997 41.040539999999964L119.44089999999994 40.79768999999999L119.70209999999997 42.64832999999999L120.4307 42.93706999999995L120.98469999999998 43.400139999999965L121.69839999999999 43.765439999999955L123.68700000000001 42.322179999999946L124.44439999999997 41.47855999999996L126.6674999999999 43.15258L128.21399999999994 42.42293999999998L128.5272 42.73129L130.70219999999995 42.50667999999996L132.4131 42.86215999999996L133.23039999999992 40.25948999999997L133.25639999999999 40.08920999999998L133.13469999999995 39.25659999999999L134.3626999999999 38.966139999999996L135.18279999999993 37.48658999999998L134.7036999999999 36.874559999999974L133.17809999999997 36.877809999999954L132.98969999999997 36.53681999999998L131.35719999999992 36.06011999999998L131.22629999999992 35.94639999999998L131.58679999999993 35.209569999999985L131.7441 32.763619999999946L131.4216 31.29798999999997L131.8732 29.069129999999973L131.865 28.60827999999998L131.4455999999999 28.41856999999999L131.38379999999995 27.994489999999985L130.9706 27.88648999999998L129.63049999999998 27.812959999999975L127.1191 25.915489999999977L125.78139999999996 23.647909999999968L125.76059999999995 23.20594L126.18649999999991 23.08834999999999L127.45729999999992 22.985469999999964L128.93989999999997 22.119119999999953L130.96839999999997 21.639009999999985L131.03359999999998 18.805559999999957L129.5122 17.585699999999974L127.8732 17.548029999999983L125.82489999999996 19.717959999999948L124.6961 19.13758999999999z">
      <title id="t63">Quatrième circonscription du Calvados</title>
      <desc id="d63">Cantons de : Blangy-le-Château, Cabourg, Dozulé, Honfleur, Lisieux I (moins la commune de Lisieux), Ouistreham, Pont-l'Evêque, Trouville-sur-Mer</desc>
    </path><path class="circo" id="id-014-05" d="M21.44509999999991 38.700729999999965L21.609199999999987 38.291499999999985L18.731199999999944 36.46508L18.624799999999937 36.041019999999946L19.26509999999996 35.45094999999998L16.932199999999966 34.99340999999998L17.471499999999992 34.29819999999995L18.720199999999977 34.81479999999999L19.553499999999985 34.489949999999965L20.876499999999965 32.15231L21.03839999999991 30.891539999999964L23.00509999999997 29.74149L21.79449999999997 29.344689999999957L20.149799999999914 27.163569999999993L19.85839999999996 26.30534L20.16879999999992 25.96885999999995L19.778999999999996 25.859379999999987L19.289999999999964 26.50590999999997L19.161899999999946 27.665129999999976L18.328199999999924 27.952849999999955L16.889999999999986 30.113149999999962L15.78959999999995 30.824419999999975L14.506399999999985 30.707749999999976L14.384199999999964 30.274849999999958L12.747999999999934 29.552329999999984L11.425199999999904 29.53438L11.381199999999922 29.472319999999968L10.296499999999924 27.18751999999995L9.430899999999951 27.16525999999999L8.855699999999956 26.539889999999957L8.465100000000007 26.69243L7.09190000000001 25.73115999999999L5.975399999999922 24.04518999999999L5.555700000000002 24.24635999999998L5.329299999999989 23.122209999999995L5.017999999999915 22.86877999999996L4.886699999999905 23.244879999999966L4.516099999999938 23.08717999999999L3.824299999999994 21.965039999999988L2.0925999999999476 20.663959999999975L2.0919000000000096 20.224139999999977L2.900099999999952 20.093719999999962L3.130999999999972 19.720429999999965L2.619799999999941 19.069309999999973L1.9762999999999238 18.63848999999999L1.7976999999999634 17.86305999999996L1.5743999999999687 15.698109999999986L3.796699999999987 13.46996999999999L3.259999999999991 9.702649999999949L3.6189999999999145 10.232319999999959L3.491800000000012 8.978589999999997L5.791999999999916 6.36660999999998L7.1503999999999905 5.2782399999999825L10.5942 5.286599999999964L11.7743999999999 4.7794999999999845L13.046999999999912 4.381939999999986L14.70169999999996 4.443719999999985L16.69749999999999 4.367579999999975L19.773799999999937 4.879799999999989L20.841699999999946 5.879579999999976L23.488099999999918 7.610789999999952L25.24529999999993 8.42779999999999L28.108999999999924 9.393089999999972L31.365599999999972 9.974209999999971L34.24249999999995 10.734549999999956L35.04219999999998 10.537919999999986L37.301199999999994 10.821709999999996L41.68719999999996 10.95518999999996L43.59139999999991 11.042859999999962L45.291099999999915 11.652269999999987L46.45729999999992 11.711369999999988L47.98199999999997 11.622649999999965L49.75439999999992 11.288409999999999L51.403299999999945 10.937829999999963L55.43029999999999 11.230349999999987L58.767999999999915 12.067379999999957L61.57179999999994 12.380979999999965L64.6407999999999 12.637419999999963L66.4837 13.398359999999968L67.87029999999993 14.058279999999968L69.55499999999995 15.195099999999968L72.1454 16.856799999999964L73.99249999999995 17.66011999999995L70.05629999999996 21.427209999999945L69.45079999999996 21.173979999999972L68.41449999999998 23.777349999999956L66.96399999999994 25.628199999999993L66.77479999999991 26.34035L67.08479999999997 26.571769999999958L66.68899999999996 26.709349999999972L66.45819999999992 27.514429999999948L64.90859999999998 26.122979999999984L63.0847 26.43041999999997L62.04039999999998 27.88114999999999L61.95729999999992 27.689209999999946L61.50189999999998 28.33320999999995L60.73039999999992 28.286099999999976L58.54559999999992 27.453399999999988L56.448800000000006 26.513199999999983L56.41509999999994 26.860199999999963L53.18209999999999 26.302989999999966L52.36869999999999 25.040419999999983L51.569099999999935 24.115759999999966L49.399299999999926 24.734209999999962L48.85050000000001 25.463389999999947L48.53559999999993 25.293759999999963L48.17039999999997 25.07257999999996L45.612499999999955 23.75559999999996L44.587999999999965 23.252039999999965L44.3916999999999 24.47278L45.15279999999996 25.376169999999945L44.96659999999997 25.74912999999998L45.088300000000004 26.008299999999963L45.33699999999999 26.77103999999997L44.99649999999997 27.546969999999988L44.98079999999993 27.612029999999947L45.32349999999997 28.41257999999999L44.65359999999998 29.51603L44.87339999999995 31.048789999999997L45.22389999999996 31.259749999999997L45.41319999999996 32.513949999999966L44.43799999999999 33.33364999999998L43.589599999999905 33.33195999999998L43.72519999999997 33.717719999999986L42.61869999999999 35.32513L44.815099999999916 35.60119999999995L45.542499999999905 36.12795999999997L45.59179999999992 36.312899999999956L43.96629999999993 38.272009999999966L43.14379999999994 39.601999999999975L42.42679999999996 41.365459999999985L40.44859999999994 42.35645999999997L39.03409999999997 45.07638999999995L37.81329999999991 44.60576999999995L36.792299999999955 43.282399999999996L35.55340000000001 43.57137L31.512599999999907 45.15152999999998L30.106699999999933 45.10597999999999L30.22359999999992 46.01270999999997L29.451999999999998 47.66763999999995L27.895899999999983 48.357519999999965L26.552299999999946 50.03661999999997L26.120199999999954 49.985389999999995L23.96359999999993 48.82797999999997L24.411399999999958 47.55995999999999L24.504099999999994 47.00169999999997L24.448800000000006 46.39588999999995L24.346199999999953 45.51192999999995L23.623899999999935 44.39317L23.804199999999923 42.60341L23.8759 42.23752999999999L23.759799999999927 40.74703999999997L22.507999999999925 40.72703999999999L19.820499999999925 42.78685999999999L20.70709999999997 41.20209L21.5548 40.92391999999995L22.890499999999975 39.70954999999998L23.05849999999998 39.285049999999956L22.311899999999923 38.78049999999996L21.44509999999991 38.700729999999965z">
      <title id="t64">Cinquième circonscription du Calvados</title>
      <desc id="d64">Cantons de : Balleroy, Bayeux, Caumont-l'Eventé, Creully, Douvres-la-Délivrande, Isigny-sur-Mer, Ryes, Trévières</desc>
    </path><path class="circo" id="id-014-06" d="M29.451999999999998 47.66763999999995L27.895899999999983 48.357519999999965L26.552299999999946 50.03661999999997L26.120199999999954 49.985389999999995L23.96359999999993 48.82797999999997L22.659099999999967 50.028449999999964L23.194499999999948 50.73738999999995L24.456299999999942 51.02317999999997L25.078499999999963 51.656679999999994L25.11099999999999 52.51414L23.15949999999998 53.03381999999999L22.34489999999994 54.498789999999985L21.493799999999965 54.46055999999999L21.123299999999972 56.12031999999999L20.646299999999997 57.291709999999966L18.166099999999915 60.212909999999965L17.273399999999924 60.35209999999995L14.237899999999968 62.302749999999946L13.637399999999957 62.37639999999999L12.920399999999972 61.917539999999974L11.657899999999927 61.979539999999986L11.12779999999998 60.81081999999998L8.622199999999907 61.29616999999996L8.556699999999978 62.806629999999984L7.3881000000000085 63.040639999999996L7.9728000000000065 63.497479999999996L7.857300000000009 64.75369999999998L6.999500000000012 65.69054L7.009799999999927 66.11640999999997L7.763899999999921 66.37201999999996L9.001099999999951 65.83413999999999L11.624399999999923 65.48159999999996L12.274900000000002 66.07630999999998L11.567299999999932 68.21804999999995L9.246599999999944 69.65281999999996L8.944299999999998 70.52753999999999L8.398899999999912 71.82090999999997L7.50630000000001 72.60719999999998L6.6875 72.77184L5.668299999999931 71.48512L5.010599999999954 72.02679999999998L4.758399999999938 73.22941999999995L3.1973999999999023 74.51281999999998L3.129599999999982 75.57275999999996L2.2607999999999038 75.48104999999998L1.2898999999999887 76.94183999999996L0.07599999999990814 77.10365999999999L0.0906999999999698 77.29477999999995L0 78.52521999999999L2.2754999999999654 79.22742999999997L2.496099999999956 79.59017999999998L2.662499999999909 79.55816999999996L3.6889999999999645 79.52641L3.8480999999999312 79.86462999999998L4.732599999999934 79.95678999999996L5.357300000000009 81.58988999999997L5.622199999999907 81.96193999999997L5.068599999999947 83.10748999999998L5.269499999999994 83.51995999999997L6.278799999999933 84.46774999999997L8.435699999999997 85.23663999999997L9.476400000000012 84.11893999999995L10.249599999999987 84.01767999999998L11.981699999999933 85.30087999999995L13.917899999999918 84.74688999999995L15.5471 85.08599999999996L16.228599999999915 83.59375999999997L17.776700000000005 83.46706999999998L18.499799999999937 84.56347L20.03069999999991 85.49394999999998L22.585399999999936 86.25085999999999L23.230099999999993 87.33027999999996L24.497499999999945 87.41872999999998L25.849199999999996 86.45835L27.60559999999998 86.29237999999998L28.558400000000006 85.37967999999995L28.6961 85.59481L26.948999999999955 87.96036999999995L28.276199999999903 87.92697999999996L29.729099999999903 86.94397999999995L30.794299999999907 85.56991999999997L31.002399999999966 84.72018999999995L31.7118999999999 84.22613999999999L32.075399999999945 83.52098999999998L35.19369999999992 82.84092999999996L36.770599999999945 81.91444999999999L37.68119999999999 81.81559999999996L38.20889999999997 81.06217999999996L40.4443 78.98031999999995L39.709299999999985 78.65096999999997L38.46139999999991 77.04942L39.67279999999994 75.82968L40.37469999999996 76.33753999999999L42.93089999999995 76.83348999999998L43.736999999999966 76.51241999999996L43.56819999999993 78.28505999999999L45.34649999999999 78.31682999999998L46.884399999999914 77.42301999999995L47.44049999999993 77.29064999999997L49.10489999999993 77.07977L49.99439999999993 77.85895999999997L50.7559 77.36877999999996L51.708999999999946 75.82463999999999L53.88869999999997 75.30342999999999L54.59679999999992 75.32060999999999L55.08109999999999 75.86300999999997L56.308799999999906 75.46644999999995L56.177599999999984 74.59653999999995L57.832899999999995 74.13362999999998L58.53289999999993 73.01283999999998L58.924499999999966 72.63149999999996L58.034599999999955 71.94124L56.42199999999991 71.77774L56.58119999999997 70.99690999999996L59.67689999999993 71.26860999999997L60.558400000000006 70.38403999999997L60.685299999999984 70.79266999999999L61.494699999999966 70.99586999999997L62.77609999999993 69.96258999999998L63.16419999999994 70.13659999999999L64.0356999999999 69.95107999999999L64.30809999999997 68.72767999999996L63.483999999999924 66.33152999999999L63.67399999999998 66.13231999999999L65.30279999999993 65.07211999999998L67.97579999999994 63.86849999999998L68.81999999999994 65.56775999999996L69.17070000000001 65.32234L69.34299999999996 63.65432999999996L69.93139999999994 63.03752999999995L72.22039999999993 63.42202999999995L72.68949999999995 62.19428999999997L72.52549999999997 61.32619999999997L71.54879999999991 58.17289999999997L68.27429999999993 58.71620999999999L66.8229 57.957629999999995L66.9636999999999 57.11682999999999L66.1597999999999 56.17538999999999L65.08069999999998 56.365189999999984L64.20389999999998 54.98150999999996L62.75789999999995 54.35143999999997L62.33089999999993 54.455119999999965L61.101299999999924 54.47377999999998L60.043399999999906 53.127279999999985L58.87329999999997 52.59995999999995L58.90339999999992 52.35481999999996L58.79019999999991 51.79151999999999L58.824199999999905 51.131839999999954L59.438699999999926 49.429929999999956L59.5163 47.66374999999999L60.05589999999995 47.46252999999996L60.65260000000001 47.87779999999998L61.062799999999925 47.85976999999997L62.227499999999964 45.262099999999975L62.31779999999992 44.87392L63.26869999999997 45.77509999999995L63.73439999999994 47.449299999999994L64.13 47.63299999999998L65.06549999999993 46.834839999999986L65.17999999999995 45.621189999999956L66.23029999999994 46.791769999999985L66.58349999999996 46.6096L66.2992999999999 45.84517999999997L66.9574 45.65700999999996L69.04549999999995 46.484639999999956L72.12279999999998 45.70515999999998L72.38619999999992 46.239529999999945L74.53459999999995 46.803439999999966L75.54019999999991 45.92199999999997L76.81819999999993 46.30687999999998L77.23669999999993 46.77190999999999L77.44979999999998 47.05618999999996L78.81129999999996 46.53071L80.88419999999996 45.70684L82.95429999999999 46.16465999999997L83.52979999999991 45.59484999999995L86.29789999999991 46.77515999999997L86.84259999999995 46.155579999999986L87.89319999999998 46.81550999999996L88.29779999999994 46.680439999999976L89.69380000000001 47.189179999999965L90.08219999999994 46.46634999999998L90.16329999999994 44.78981999999996L90.93939999999998 44.474289999999996L90.18679999999995 42.79970999999995L89.12289999999996 42.58340999999996L88.87239999999997 42.84917999999999L87.68329999999992 42.82385999999997L88.5385 40.13752999999997L88.41379999999992 39.13033999999999L87.8193 39.511589999999956L87.15049999999997 38.98536999999999L85.37479999999994 40.287019999999984L83.6209 40.57482999999996L82.31009999999992 40.29130999999995L82.17199999999991 40.65106999999995L81.04099999999994 40.492489999999975L81.81110000000001 38.03216999999995L80.50939999999991 37.84195999999997L79.34280000000001 38.19367L79.60629999999992 37.507119999999986L78.5041 37.01218L77.03319999999997 37.92978999999997L75.83519999999999 37.40654999999998L75.54519999999991 37.75178999999997L74.97899999999993 36.746429999999975L74.17959999999994 36.477949999999964L71.84699999999998 35.65890999999999L71.57979999999998 37.18343999999996L71.80709999999999 37.35158999999999L71.67419999999993 38.353339999999946L70.55509999999992 39.51691999999997L68.50059999999996 39.500159999999994L67.36410000000001 38.97587999999996L66.38349999999991 39.05291999999997L65.55219999999997 39.158789999999954L65.60889999999995 38.73788999999999L64.46899999999994 37.68447999999995L64.4076 38.10102999999998L63.073299999999904 37.466579999999965L63.76279999999997 36.39242999999999L62.5231 35.177209999999945L61.730500000000006 35.21749999999997L61.54789999999991 34.314189999999996L60.3060999999999 32.93642999999997L58.524099999999976 32.87439999999998L57.40639999999996 33.38006999999999L57.34249999999997 33.78546L56.17509999999993 34.13790999999998L55.86889999999994 35.17863999999997L57.67629999999997 35.32655999999997L58.37219999999991 36.93797999999998L58.3673 36.96162999999996L57.36809999999991 37.62548999999996L57.03800000000001 38.362689999999986L56.40499999999997 37.89041999999995L55.690099999999916 36.48963999999995L55.24309999999991 37.74333999999999L55.321699999999964 39.54380999999995L55.20819999999992 39.77098999999998L54.90159999999992 39.82333999999997L53.9837 40.04426999999998L51.63879999999995 37.79037999999997L51.52170000000001 37.85884999999996L49.06709999999998 37.36314999999996L48.45479999999998 38.74983999999995L46.36839999999995 38.12376999999998L44.98289999999997 39.64213999999998L43.47359999999992 39.82761999999997L43.14379999999994 39.601999999999975L42.42679999999996 41.365459999999985L40.44859999999994 42.35645999999997L39.03409999999997 45.07638999999995L37.81329999999991 44.60576999999995L36.792299999999955 43.282399999999996L35.55340000000001 43.57137L31.512599999999907 45.15152999999998L30.106699999999933 45.10597999999999L30.22359999999992 46.01270999999997L29.451999999999998 47.66763999999995z">
      <title id="t65">Sixième circonscription du Calvados</title>
      <desc id="d65">Cantons de : Aunay-sur-Odon, Le Bény-Bocage, Bourguébus, Condé-sur-Noireau, Evrecy, Saint-Sever-Calvados, Thury-Harcourt, Vassy, Villers-Bocage, Vire</desc>
    </path></svg>