<svg xmlns="http://www.w3.org/2000/svg" version="1.1" xmlns:xlink="http://www.w3.org/1999/xlink" xmlns:svgjs="http://svgjs.dev/svgjs" viewBox="0 0 111.23000000000002 104.29844000000003"><path class="circo" id="id-015-01" d="M9.34949999999992 48.479060000000004L9.338599999999929 48.457520000000045L8.338599999999929 47.99113999999997L6.841799999999921 47.85112000000004L6.391099999999938 48.43705L5.984399999999937 48.39382999999998L3.3319000000000187 50.75811999999996L3.170099999999934 50.774L3.0837000000000216 51.431640000000016L2.7409000000000106 51.495180000000005L4.024699999999939 53.59195L4.592199999999934 55.59344999999996L6.628699999999981 57.584749999999985L5.982399999999984 59.94804999999997L3.680099999999925 60.45748000000003L2.6044999999999163 59.95249000000001L2.2276999999999134 60.105120000000056L0 61.058670000000006L1.5120999999999185 64.05343000000005L1.1422000000000025 66.07014000000004L3.3508999999999105 67.85530000000006L3.841799999999921 68.97378000000003L2.059199999999919 69.99703L1.9150999999999385 70.39196000000004L1.9245999999999412 72.05028000000004L2.6007999999999356 73.55994999999996L4.615599999999972 76.45240000000001L5.268299999999954 76.71280999999999L5.504699999999957 77.36642000000006L6.535599999999931 79.38080000000002L8.787199999999984 80.78942000000006L8.767099999999914 82.35264000000006L9.241399999999999 83.40242L8.975599999999986 84.39935000000003L8.648899999999912 85.51765999999998L7.485399999999913 85.82550000000003L7.329999999999927 85.86381000000006L7.699399999999969 87.85059000000001L7.2398999999999205 91.47143000000005L5.981199999999944 93.08558000000005L5.707899999999995 94.28812000000005L6.407199999999989 95.05557999999996L7.799199999999928 94.28035L9.880499999999984 97.25941999999998L8.763399999999933 98.83254999999997L9.420099999999934 99.79285000000004L9.063599999999951 100.45599000000004L9.053199999999947 101.61675000000002L9.659800000000018 101.91682000000003L10.940799999999967 102.78544L12.288099999999986 104.29844000000003L13.401200000000017 103.52186000000006L12.874099999999999 102.88193999999999L12.367899999999963 100.91679999999997L13.959499999999935 99.69079999999997L15.948499999999967 99.93086000000005L17.196399999999926 98.88621L17.607399999999984 98.91679999999997L17.98199999999997 98.84127999999998L18.983299999999986 98.21671000000003L20.83299999999997 98.58002999999997L22.20399999999995 97.89233000000002L22.89179999999999 98.43732999999997L23.2654 99.13358000000005L23.131599999999935 100.32025999999996L24.486699999999928 101.22861L25.702699999999936 101.15513999999996L27.02769999999998 100.22060999999997L28.030099999999948 100.78621999999996L28.40949999999998 100.63698999999997L29.058299999999917 100.51800000000003L31.68349999999998 101.40650000000005L32.912399999999934 100.41034000000002L34.43669999999997 101.03017999999997L34.77030000000002 99.93946000000005L35.55869999999993 100.17509000000007L35.85159999999996 99.87194999999997L36.262899999999945 99.13991999999996L36.233299999999986 97.88013999999998L37.195499999999925 95.54282L38.7586 94.32088999999996L39.014099999999985 93.61302999999998L40.247499999999945 92.77436L41.93309999999997 91.54548L41.976099999999974 91.16827L41.352199999999925 90.77763000000004L41.58439999999996 90.44129999999996L41.76389999999992 89.52123000000006L41.71609999999998 87.33407999999997L42.31089999999995 86.90073000000007L42.63479999999993 84.85944000000006L43.43399999999997 84.02485999999999L44.511499999999955 84.15276000000006L45.66409999999996 82.9941L45.51969999999994 79.74692000000005L46.61719999999991 78.56858L46.00739999999996 77.07139000000006L47.18709999999999 75.88684L48.12519999999995 73.57385999999997L50.16289999999992 73.87228000000005L50.432699999999954 73.55479000000003L50.63569999999993 71.94889999999998L52.61259999999993 69.36384999999996L53.25829999999996 69.7935L54.695499999999925 69.39468999999997L55.57899999999995 66.78454999999997L55.20119999999997 64.81500000000005L55.31759999999997 62.743619999999964L56.29079999999999 62.04021L56.32849999999996 60.80573000000004L55.81700000000001 58.844569999999976L57.454099999999926 56.48246000000006L57.31329999999991 55.67197999999996L57.71199999999999 54.500099999999975L57.54219999999998 54.066370000000006L59.3356 51.378580000000056L59.750099999999975 50.25590999999997L58.17319999999995 48.51048000000003L56.769499999999994 47.77371000000005L55.575199999999995 47.60767999999996L55.84109999999998 46.136510000000044L55.08960000000002 45.12428L53.59439999999995 45.861940000000004L52.173400000000015 45.084659999999985L52.12469999999996 45.08490000000006L51.46759999999995 45.604940000000056L50.22659999999996 45.77620000000002L49.31009999999992 46.962080000000014L49.232099999999946 48.12561000000005L47.03030000000001 49.01509999999996L45.57830000000001 49.40053L44.87849999999992 50.24833000000001L43.4914 50.20042999999998L40.704099999999926 50.05142999999998L40.01649999999995 50.48348999999996L39.298599999999965 50.15939000000003L38.2989 50.75607000000002L35.95399999999995 50.70600999999999L36.169899999999984 49.52882999999997L36.44579999999996 48.413940000000025L36.17809999999997 48.10346000000004L33.313499999999976 48.66251999999997L30.002399999999966 48.36651000000006L29.668999999999983 47.69365000000005L29.820499999999925 46.263559999999984L28.767499999999927 45.62950999999998L25.965599999999995 45.979960000000005L25.48529999999994 44.446050000000014L24.32319999999993 44.96096L23.601799999999912 46.85167000000001L24.107599999999934 47.52389000000005L23.02819999999997 48.42187999999999L21.626899999999978 49.283649999999966L16.83699999999999 49.70842000000005L16.44539999999995 49.65364999999997L16.026399999999967 48.51409000000001L16.636199999999917 47.99234000000001L16.528599999999983 47.58469000000002L15.704899999999952 47.54038000000003L15.094499999999925 48.56200999999999L13.969600000000014 49.08239000000003L13.147600000000011 48.98536999999999L12.560499999999934 48.38865999999996L11.790199999999913 48.71176000000003L10.596900000000005 48.33267999999998L9.34949999999992 48.479060000000004z">
      <title id="t66">Première circonscription du Cantal</title>
      <desc id="d66">Cantons de : Arpajon-sur-Cère, Aurillac I, Aurillac II, Aurillac III, Aurillac IV, Jussac, Laroquebrou, Maurs, Montsalvy, Saint-Cernin, Saint-Mamet-la-Salvetat, Vic-sur-Cère</desc>
    </path><path class="circo" id="id-015-02" d="M75.2876 20.973719999999958L73.88069999999993 18.459259999999972L73.23860000000002 16.464920000000006L73.25119999999993 16.02067999999997L72.8872 14.558080000000018L73.08619999999996 13.841130000000021L72.30790000000002 14.036889999999971L71.59079999999994 13.666290000000004L70.5566 12.494120000000066L69.50669999999991 12.02697999999998L68.90429999999992 12.961829999999964L67.83789999999999 12.362089999999966L67.10640000000001 10.908520000000067L65.04059999999993 11.10024999999996L63.95920000000001 9.933080000000018L61.78069999999991 11.128810000000044L61.391599999999926 11.84811000000002L61.001300000000015 11.720550000000003L59.43139999999994 11.61609999999996L58.40629999999999 11.036209999999983L57.66269999999997 10.833709999999996L56.55809999999997 11.218979999999988L55.38850000000002 12.224609999999984L54.542299999999955 11.31230000000005L54.11429999999996 10.16841999999997L52.602199999999925 8.879170000000045L52.44889999999998 7.233259999999973L53.306499999999915 6.1239400000000614L53.17329999999993 5.416640000000029L51.95749999999998 5.364789999999971L50.79049999999995 5.767820000000029L50.01979999999992 4.804730000000063L48.90260000000001 4.438850000000002L47.73899999999992 4.664679999999976L47.368799999999965 1.8271499999999605L46.14350000000002 3.4930200000000013L45.38040000000001 3.7794700000000603L44.18209999999999 3.601350000000025L42.75490000000002 2.1249500000000126L41.2106 2.3901200000000244L40.19399999999996 3.017029999999977L40.89029999999991 0.4131600000000617L38.95979999999997 0L37.8682 0.47062000000005355L37.94449999999995 1.2114100000000008L37.46749999999997 2.5098600000000033L37.12799999999993 2.6614700000000084L37.288099999999986 3.7419099999999617L36.88799999999992 4.2692200000000184L36.49709999999993 7.072909999999979L36.09409999999991 7.781129999999962L38.63939999999991 9.732960000000048L39.043199999999956 9.666259999999966L39.4701 11.100369999999998L39.139999999999986 12.21505000000002L38.50369999999998 11.888649999999984L37.87029999999993 12.38629000000003L36.30419999999992 12.396219999999971L35.660999999999945 12.855940000000032L35.470699999999965 13.649350000000027L34.46640000000002 12.061839999999961L32.18520000000001 11.854280000000017L31.870599999999968 11.455490000000054L30.61869999999999 10.349519999999984L29.003299999999967 10.220829999999978L28.35089999999991 9.718920000000026L28.108099999999922 8.950000000000045L27.03729999999996 8.34227999999996L25.3981 8.16682000000003L24.83949999999993 8.161489999999958L24.424300000000017 8.818020000000047L26.000999999999976 11.675399999999968L25.549300000000017 12.365599999999972L25.645899999999983 13.045929999999998L25.629799999999932 15.094240000000013L24.531299999999987 16.315439999999967L25.13029999999992 17.363609999999994L24.693300000000022 18.47569999999996L23.541600000000017 18.956660000000056L21.519699999999943 19.41364999999996L20.675299999999993 20.866629999999986L19.330799999999954 23.46950000000004L18.124199999999973 23.504410000000007L17.57689999999991 23.29840999999999L16.900199999999927 24.10329999999999L16.528500000000008 25.742740000000026L15.364500000000021 26.229100000000017L15.142600000000016 26.593340000000012L14.982699999999909 26.989689999999996L15.041499999999928 28.26129000000003L13.9058 28.803980000000024L13.202299999999923 29.867500000000064L11.872899999999959 30.93182999999999L11.912899999999922 31.35627999999997L11.185799999999972 31.635420000000067L10.901499999999942 31.368830000000003L11.266399999999976 32.11268000000007L10.914899999999989 33.74381000000005L11.515199999999936 34.32756000000006L11.861800000000017 36.39184L13.490399999999909 37.68291999999997L14.307500000000005 37.700879999999984L14.458499999999958 38.09236999999996L14.238699999999994 38.74266L12.618600000000015 38.918300000000045L12.538299999999936 40.52215000000001L11.437599999999975 41.729060000000004L9.849999999999909 41.83015999999998L10.626899999999978 44.19032000000004L9.85590000000002 45.62986999999998L9.899099999999976 46.88068999999996L9.338599999999929 48.457520000000045L9.34949999999992 48.479060000000004L10.596900000000005 48.33267999999998L11.790199999999913 48.71176000000003L12.560499999999934 48.38865999999996L13.147600000000011 48.98536999999999L13.969600000000014 49.08239000000003L15.094499999999925 48.56200999999999L15.704899999999952 47.54038000000003L16.528599999999983 47.58469000000002L16.636199999999917 47.99234000000001L16.026399999999967 48.51409000000001L16.44539999999995 49.65364999999997L16.83699999999999 49.70842000000005L21.626899999999978 49.283649999999966L23.02819999999997 48.42187999999999L24.107599999999934 47.52389000000005L23.601799999999912 46.85167000000001L24.32319999999993 44.96096L25.48529999999994 44.446050000000014L25.965599999999995 45.979960000000005L28.767499999999927 45.62950999999998L29.820499999999925 46.263559999999984L29.668999999999983 47.69365000000005L30.002399999999966 48.36651000000006L33.313499999999976 48.66251999999997L36.17809999999997 48.10346000000004L36.44579999999996 48.413940000000025L36.169899999999984 49.52882999999997L35.95399999999995 50.70600999999999L38.2989 50.75607000000002L39.298599999999965 50.15939000000003L40.01649999999995 50.48348999999996L40.704099999999926 50.05142999999998L43.4914 50.20042999999998L44.87849999999992 50.24833000000001L45.57830000000001 49.40053L47.03030000000001 49.01509999999996L49.232099999999946 48.12561000000005L49.31009999999992 46.962080000000014L50.22659999999996 45.77620000000002L51.46759999999995 45.604940000000056L52.12469999999996 45.08490000000006L52.173400000000015 45.084659999999985L53.59439999999995 45.861940000000004L55.08960000000002 45.12428L55.84109999999998 46.136510000000044L55.575199999999995 47.60767999999996L56.769499999999994 47.77371000000005L58.17319999999995 48.51048000000003L59.750099999999975 50.25590999999997L59.3356 51.378580000000056L57.54219999999998 54.066370000000006L57.71199999999999 54.500099999999975L57.31329999999991 55.67197999999996L57.454099999999926 56.48246000000006L55.81700000000001 58.844569999999976L56.32849999999996 60.80573000000004L56.29079999999999 62.04021L55.31759999999997 62.743619999999964L55.20119999999997 64.81500000000005L55.57899999999995 66.78454999999997L56.24109999999996 66.96055999999999L56.487300000000005 66.20306000000005L57.357399999999984 65.39997000000005L57.40549999999996 65.29717000000005L57.73129999999992 66.40754000000004L58.9067 66.38640999999996L60.62209999999993 69.08888000000002L60.29480000000001 70.24268000000006L60.83420000000001 71.74603000000002L60.225799999999936 72.82357000000002L60.01089999999999 74.45492000000002L60.256399999999985 75.24663999999996L61.06579999999997 75.32099000000005L61.7174 74.30967999999996L63.06020000000001 73.39058L63.762899999999945 73.78844000000004L67.02350000000001 73.61080000000004L67.32330000000002 73.32736999999997L67.7269 73.30926L67.3768 76.09559000000002L68.06079999999997 76.56079L67.8691 77.69115999999997L68.59029999999996 78.68818999999996L69.40719999999999 81.86400000000003L70.27389999999991 83.63358000000005L70.97289999999998 84.01863000000003L71.7423 83.97779000000003L72.87059999999997 82.91660000000002L74.02519999999993 84.55347000000006L74.04689999999994 86.16935999999998L73.77429999999993 86.48435000000006L72.54859999999996 86.43599000000006L72.3868 86.81872999999996L72.53549999999996 87.20874000000003L73.63799999999992 87.76381000000003L73.9887 88.51021000000003L73.81909999999993 89.73221000000001L73.1318 90.77774999999997L73.77969999999993 92.64578000000006L74.06149999999991 94.65584000000001L74.67489999999998 95.73172999999997L74.49879999999996 96.88562999999999L75.67070000000001 97.93081000000006L75.85230000000001 98.72487999999998L76.48199999999997 99.24090000000001L76.41359999999997 99.64765999999997L77.12569999999994 100.38955999999996L78.09709999999995 100.81727999999998L78.37459999999999 100.13745000000006L78.18369999999993 99.75891000000001L79.57949999999994 97.15710000000001L81.02389999999991 92.76288L82.15739999999994 92.22472000000005L82.98059999999998 92.41037000000006L82.62059999999997 90.96918000000005L81.97550000000001 90.58966999999996L82.09809999999993 90.23429999999996L82.31889999999999 88.26592000000005L83.24529999999993 87.09920999999997L83.75479999999993 86.50782000000004L83.39869999999996 85.40594999999996L83.9022 84.40580999999997L83.5616 82.50011000000006L83.7577 81.72478999999998L85.1105 79.80228L86.19799999999998 79.32639000000006L85.78959999999995 77.88967000000002L87.63169999999991 78.26616999999999L88.08330000000001 78.29158000000007L88.16999999999996 76.97165000000007L87.71659999999997 75.58610999999996L88.57799999999997 74.29277000000002L88.42049999999995 72.08938999999998L89.81369999999993 71.26071000000002L90.5675 69.81629999999996L91.79699999999991 69.97183000000007L92.53049999999996 70.97370000000001L93.27869999999996 72.10942L93.65210000000002 73.22373000000005L94.39519999999993 73.52120000000002L95.09259999999995 74.48166000000003L95.82909999999993 74.74142000000006L96.31299999999999 73.59377000000006L97.92070000000001 73.25228000000004L98.83690000000001 72.39410999999996L99.62950000000001 71.59280999999999L99.03159999999991 70.58204L98.90149999999994 69.04844000000003L100.87900000000002 68.29681000000005L100.44319999999993 66.43852000000004L100.92219999999998 65.85400000000004L100.77030000000002 65.50324L101.42949999999996 65.25130000000001L102.24429999999995 65.24854000000005L101.96789999999999 66.02391L102.37079999999992 66.70207000000005L103.9348 67.08806000000004L105.23899999999992 65.51453000000004L106.37379999999996 65.47033999999996L106.73339999999996 64.74185999999997L108.3809 63.533210000000054L109.7903 63.663779999999974L110.36959999999999 61.67075L109.2405 61.22641999999996L109.05599999999993 60.00621000000001L110.52969999999993 59.41777999999999L111.23000000000002 57.97185999999999L110.97039999999993 57.65881000000002L109.8125 57.968489999999974L108.99929999999995 56.69191999999998L107.45499999999993 57.02305000000001L108.31509999999992 55.18721000000005L107.56079999999997 54.91974000000005L106.12479999999994 55.617740000000026L105.78789999999992 55.39441999999997L105.02279999999996 53.93826999999999L105.43739999999991 52.78956000000005L105.13689999999997 51.17088000000001L106.17759999999998 48.507960000000026L105.91649999999993 47.87495999999999L104.13369999999998 47.311019999999985L104.01850000000002 46.592899999999986L103.78999999999996 45.86771999999996L105.23989999999992 45.37864999999999L105.7183 46.03764000000001L107.58459999999991 46.82470000000001L110.37869999999998 45.69852000000003L109.56309999999996 45.621080000000006L109.36129999999991 44.82739000000004L107.73439999999994 44.85726L106.34339999999997 44.01867000000004L106.18349999999998 43.97675000000004L105.22629999999992 43.26804000000004L104.13799999999992 43.74341000000004L103.12040000000002 41.06651999999997L103.59140000000002 39.98519999999996L103.39769999999999 39.70882000000006L102.43290000000002 39.69025999999997L101.85979999999995 37.316490000000044L101.99809999999991 36.08239000000003L102.68229999999994 35.075789999999984L102.7944 33.00918999999999L100.64419999999996 32.26869999999997L99.88599999999997 31.93493000000001L99.44269999999995 29.500419999999963L98.59039999999993 28.64679000000001L99.08359999999993 26.285499999999956L98.9375 25.466139999999996L98.52999999999997 25.44222000000002L98.45420000000001 25.039510000000064L97.44560000000001 24.34612000000004L95.43189999999993 24.54448000000002L95.38220000000001 24.93696L93.65549999999996 25.869550000000004L94.03379999999993 24.338989999999967L93.36899999999991 23.395430000000033L93.31200000000001 22.63045999999997L91.99809999999991 23.546220000000062L90.84089999999992 23.75414999999998L89.19150000000002 23.91906000000006L88.24689999999998 23.149800000000027L87.01069999999993 23.281010000000038L86.91279999999995 22.47578999999996L87.96969999999999 21.97103000000004L88.7595 21.808850000000007L89.29909999999995 20.697419999999966L88.21389999999997 20.126640000000066L87.44599999999991 19.14381000000003L88.08229999999992 18.680880000000002L89.2953 18.80227000000002L89.11799999999994 15.990440000000035L88.45209999999997 15.502740000000017L87.85359999999991 15.785179999999968L87.16809999999998 17.27412000000004L85.60809999999992 17.69614999999999L85.0249 18.28466000000003L85.24270000000001 19.93190000000004L84.49019999999996 20.88910999999996L84.70359999999994 21.250620000000026L82.77679999999998 22.29417000000001L81.6825 22.61584000000005L81.21049999999991 23.639490000000023L79.58619999999996 23.196429999999964L79.45830000000001 22.789600000000064L76.93309999999997 21.244940000000042L75.2876 20.973719999999958z">
      <title id="t67">Deuxième circonscription du Cantal</title>
      <desc id="d67">Cantons de : Allanche, Champs-sur-Tarentaine-Marchal, Chaudes-Aigues, Condat, Massiac, Mauriac, Murat, Pierrefort, Pleaux, Riom-ès-Montagnes, Ruynes-en-Margeride, Saignes, Saint-Flour Nord, Saint-Flour Sud, Salers</desc>
    </path></svg>