<svg xmlns="http://www.w3.org/2000/svg" version="1.1" xmlns:xlink="http://www.w3.org/1999/xlink" xmlns:svgjs="http://svgjs.dev/svgjs" viewBox="832.20113 869.52396 111.23000000000002 104.29844000000003"><path class="circo" id="015-01" d="M 841.55063,918.00302 841.53973,917.98148 840.53973,917.5151 839.04293,917.37508 838.59223,917.96101 838.18553,917.91779 835.53303,920.28208 835.37123,920.29796 835.28483,920.9556 834.94203,921.01914 836.22583,923.11591 836.79333,925.11741 838.82983,927.10871 838.18353,929.47201 835.88123,929.98144 834.80563,929.47645 834.42883,929.62908 832.20113,930.58263 833.71323,933.57739 833.34333,935.5941 835.55203,937.37926 836.04293,938.49774 834.26033,939.52099 834.11623,939.91592 834.12573,941.57424 834.80193,943.08391 836.81673,945.97636 837.46943,946.23677 837.70583,946.89038 838.73673,948.90476 840.98833,950.31338 840.96823,951.8766 841.44253,952.92638 841.17673,953.92331 840.85003,955.04162 839.68653,955.34946 839.53113,955.38777 839.90053,957.37455 839.44103,960.99539 838.18233,962.60954 837.90903,963.81208 838.60833,964.57954 840.00033,963.80431 842.08163,966.78338 840.96453,968.35651 841.62123,969.31681 841.26473,969.97995 841.25433,971.14071 841.86093,971.44078 843.14193,972.3094 844.48923,973.8224 845.60233,973.04582 845.07523,972.4059 844.56903,970.44076 846.16063,969.21476 848.14963,969.45482 849.39753,968.41017 849.80853,968.44076 850.18313,968.36524 851.18443,967.74067 853.03413,968.10399 854.40513,967.41629 855.09293,967.96129 855.46653,968.65754 855.33273,969.84422 856.68783,970.75257 857.90383,970.6791 859.22883,969.74457 860.23123,970.31018 860.61063,970.16095 861.25943,970.04196 863.88463,970.93046 865.11353,969.9343 866.63783,970.55414 866.97143,969.46342 867.75983,969.69905 868.05273,969.39591 868.46403,968.66388 868.43443,967.4041 869.39663,965.06678 870.95973,963.84485 871.21523,963.13699 872.44863,962.29832 874.13423,961.06944 874.17723,960.69223 873.55333,960.30159 873.78553,959.96526 873.96503,959.04519 873.91723,956.85804 874.51203,956.42469 874.83593,954.3834 875.63513,953.54882 876.71263,953.67672 877.86523,952.51806 877.72083,949.27088 878.81833,948.09254 878.20853,946.59535 879.38823,945.4108 880.32633,943.09782 882.36403,943.39624 882.63383,943.07875 882.83683,941.47286 884.81373,938.88781 885.45943,939.31746 886.89663,938.91865 887.78013,936.30851 887.40233,934.33896 887.51873,932.26758 888.49193,931.56417 888.52963,930.32969 888.01813,928.36853 889.65523,926.00642 889.51443,925.19594 889.91313,924.02406 889.74333,923.59033 891.53673,920.90254 891.95123,919.77987 890.37433,918.03444 888.97063,917.29767 887.77633,917.13164 888.04223,915.66047 887.29073,914.64824 885.79553,915.3859 884.37453,914.60862 884.32583,914.60886 883.66873,915.1289 882.42773,915.30016 881.51123,916.48604 881.43323,917.64957 879.23143,918.53906 877.77943,918.92449 877.07963,919.77229 875.69253,919.72439 872.90523,919.57539 872.21763,920.00745 871.49973,919.68335 870.50003,920.28003 868.15513,920.22997 868.37103,919.05279 868.64693,917.9379 868.37923,917.62742 865.51463,918.18648 862.20353,917.89047 861.87013,917.21761 862.02163,915.78752 860.96863,915.15347 858.16673,915.50392 857.68643,913.97001 856.52433,914.48492 855.80293,916.37563 856.30873,917.04785 855.22933,917.94584 853.82803,918.80761 849.03813,919.23238 848.64653,919.17761 848.22753,918.03805 848.83733,917.5163 848.72973,917.10865 847.90603,917.06434 847.29563,918.08597 846.17073,918.60635 845.34873,918.50933 844.76163,917.91262 843.99133,918.23572 842.79803,917.85664 841.55063,918.00302 z">
      <title id="t66">Première circonscription du Cantal</title>
      <desc id="d66">Cantons de : Arpajon-sur-Cère, Aurillac I, Aurillac II, Aurillac III, Aurillac IV, Jussac, Laroquebrou, Maurs, Montsalvy, Saint-Cernin, Saint-Mamet-la-Salvetat, Vic-sur-Cère</desc>
    </path><path class="circo" id="015-02" d="M 907.48873,890.49768 906.08183,887.98322 905.43973,885.98888 905.45233,885.54464 905.08833,884.08204 905.28733,883.36509 904.50903,883.56085 903.79193,883.19025 902.75773,882.01808 901.70783,881.55094 901.10543,882.48579 900.03903,881.88605 899.30753,880.43248 897.24173,880.62421 896.16033,879.45704 893.98183,880.65277 893.59273,881.37207 893.20243,881.24451 891.63253,881.14006 890.60743,880.56017 889.86383,880.35767 888.75923,880.74294 887.58963,881.74857 886.74343,880.83626 886.31543,879.69238 884.80333,878.40313 884.65003,876.75722 885.50763,875.6479 885.37443,874.9406 884.15863,874.88875 882.99163,875.29178 882.22093,874.32869 881.10373,873.96281 879.94013,874.18864 879.56993,871.35111 878.34463,873.01698 877.58153,873.30343 876.38323,873.12531 874.95603,871.64891 873.41173,871.91408 872.39513,872.54099 873.09143,869.93712 871.16093,869.52396 870.06933,869.99458 870.14563,870.73537 869.66863,872.03382 869.32913,872.18543 869.48923,873.26587 869.08913,873.79318 868.69823,876.59687 868.29523,877.30509 870.84053,879.25692 871.24433,879.19022 871.67123,880.62433 871.34113,881.73901 870.70483,881.41261 870.07143,881.91025 868.50533,881.92018 867.86213,882.3799 867.67183,883.17331 866.66753,881.5858 864.38633,881.37824 864.07173,880.97945 862.81983,879.87348 861.20443,879.74479 860.55203,879.24288 860.30923,878.47396 859.23843,877.86624 857.59923,877.69078 857.04063,877.68545 856.62543,878.34198 858.20213,881.19936 857.75043,881.88956 857.84703,882.56989 857.83093,884.6182 856.73243,885.8394 857.33143,886.88757 856.89443,887.99966 855.74273,888.48062 853.72083,888.93761 852.87643,890.39059 851.53193,892.99346 850.32533,893.02837 849.77803,892.82237 849.10133,893.62726 848.72963,895.2667 847.56563,895.75306 847.34373,896.1173 847.18383,896.51365 847.24263,897.78525 846.10693,898.32794 845.40343,899.39146 844.07403,900.45579 844.11403,900.88024 843.38693,901.15938 843.10263,900.89279 843.46753,901.63664 843.11603,903.26777 843.71633,903.85152 844.06293,905.9158 845.69153,907.20688 846.50863,907.22484 846.65963,907.61633 846.43983,908.26662 844.81973,908.44226 844.73943,910.04611 843.63873,911.25302 842.05113,911.35412 842.82803,913.71428 842.05703,915.15383 842.10023,916.40465 841.53973,917.98148 841.55063,918.00302 842.79803,917.85664 843.99133,918.23572 844.76163,917.91262 845.34873,918.50933 846.17073,918.60635 847.29563,918.08597 847.90603,917.06434 848.72973,917.10865 848.83733,917.5163 848.22753,918.03805 848.64653,919.17761 849.03813,919.23238 853.82803,918.80761 855.22933,917.94584 856.30873,917.04785 855.80293,916.37563 856.52433,914.48492 857.68643,913.97001 858.16673,915.50392 860.96863,915.15347 862.02163,915.78752 861.87013,917.21761 862.20353,917.89047 865.51463,918.18648 868.37923,917.62742 868.64693,917.9379 868.37103,919.05279 868.15513,920.22997 870.50003,920.28003 871.49973,919.68335 872.21763,920.00745 872.90523,919.57539 875.69253,919.72439 877.07963,919.77229 877.77943,918.92449 879.23143,918.53906 881.43323,917.64957 881.51123,916.48604 882.42773,915.30016 883.66873,915.1289 884.32583,914.60886 884.37453,914.60862 885.79553,915.3859 887.29073,914.64824 888.04223,915.66047 887.77633,917.13164 888.97063,917.29767 890.37433,918.03444 891.95123,919.77987 891.53673,920.90254 889.74333,923.59033 889.91313,924.02406 889.51443,925.19594 889.65523,926.00642 888.01813,928.36853 888.52963,930.32969 888.49193,931.56417 887.51873,932.26758 887.40233,934.33896 887.78013,936.30851 888.44223,936.48452 888.68843,935.72702 889.55853,934.92393 889.60663,934.82113 889.93243,935.9315 891.10783,935.91037 892.82323,938.61284 892.49593,939.76664 893.03533,941.26999 892.42693,942.34753 892.21203,943.97888 892.45753,944.7706 893.26693,944.84495 893.91853,943.83364 895.26133,942.91454 895.96403,943.3124 899.22463,943.13476 899.52443,942.85133 899.92803,942.83322 899.57793,945.61955 900.26193,946.08475 900.07023,947.21512 900.79143,948.21215 901.60833,951.38796 902.47503,953.15754 903.17403,953.54259 903.94343,953.50175 905.07173,952.44056 906.22633,954.07743 906.24803,955.69332 905.97543,956.00831 904.74973,955.95995 904.58793,956.34269 904.73663,956.7327 905.83913,957.28777 906.18983,958.03417 906.02023,959.25617 905.33293,960.30171 905.98083,962.16974 906.26263,964.1798 906.87603,965.25569 906.69993,966.40959 907.87183,967.45477 908.05343,968.24884 908.68313,968.76486 908.61473,969.17162 909.32683,969.91352 910.29823,970.34124 910.57573,969.66141 910.38483,969.28287 911.78063,966.68106 913.22503,962.28684 914.35853,961.74868 915.18173,961.93433 914.82173,960.49314 914.17663,960.11363 914.29923,959.75826 914.52003,957.78988 915.44643,956.62317 915.95593,956.03178 915.59983,954.92991 916.10333,953.92977 915.76273,952.02407 915.95883,951.24875 917.31163,949.32624 918.39913,948.85035 917.99073,947.41363 919.83283,947.79013 920.28443,947.81554 920.37113,946.49561 919.91773,945.11007 920.77913,943.81673 920.62163,941.61335 922.01483,940.78467 922.76863,939.34026 923.99813,939.49579 924.73163,940.49766 925.47983,941.63338 925.85323,942.74769 926.59633,943.04516 927.29373,944.00562 928.03023,944.26538 928.51413,943.11773 930.12183,942.77624 931.03803,941.91807 931.83063,941.11677 931.23273,940.106 931.10263,938.5724 933.08013,937.82077 932.64433,935.96248 933.12333,935.37796 932.97143,935.0272 933.63063,934.77526 934.44543,934.7725 934.16903,935.54787 934.57193,936.22603 936.13593,936.61202 937.44013,935.03849 938.57493,934.9943 938.93453,934.26582 940.58203,933.05717 941.99143,933.18774 942.57073,931.19471 941.44163,930.75038 941.25713,929.53017 942.73083,928.94174 943.43113,927.49582 943.17153,927.18277 942.01363,927.49245 941.20043,926.21588 939.65613,926.54701 940.51623,924.71117 939.76193,924.4437 938.32593,925.1417 937.98903,924.91838 937.22393,923.46223 937.63853,922.31352 937.33803,920.69484 938.37873,918.03192 938.11763,917.39892 936.33483,916.83498 936.21963,916.11686 935.99113,915.39168 937.44103,914.90261 937.91943,915.5616 939.78573,916.34866 942.57983,915.22248 941.76423,915.14504 941.56243,914.35135 939.93553,914.38122 938.54453,913.54263 938.38463,913.50071 937.42743,912.792 936.33913,913.26737 935.32153,910.59048 935.79253,909.50916 935.59883,909.23278 934.63403,909.21422 934.06093,906.84045 934.19923,905.60635 934.88343,904.59975 934.99553,902.53315 932.84533,901.79266 932.08713,901.45889 931.64383,899.02438 930.79153,898.17075 931.28473,895.80946 931.13863,894.9901 930.73113,894.96618 930.65533,894.56347 929.64673,893.87008 927.63303,894.06844 927.58333,894.46092 925.85663,895.39351 926.23493,893.86295 925.57013,892.91939 925.51313,892.15442 924.19923,893.07018 923.04203,893.27811 921.39263,893.44302 920.44803,892.67376 919.21183,892.80497 919.11393,891.99975 920.17083,891.49499 920.96063,891.33281 921.50023,890.22138 920.41503,889.6506 919.64713,888.66777 920.28343,888.20484 921.49643,888.32623 921.31913,885.5144 920.65323,885.0267 920.05473,885.30914 919.36923,886.79808 917.80923,887.22011 917.22603,887.80862 917.44383,889.45586 916.69133,890.41307 916.90473,890.77458 914.97793,891.81813 913.88363,892.1398 913.41163,893.16345 911.78733,892.72039 911.65943,892.31356 909.13423,890.7689 907.48873,890.49768 z">
      <title id="t67">Deuxième circonscription du Cantal</title>
      <desc id="d67">Cantons de : Allanche, Champs-sur-Tarentaine-Marchal, Chaudes-Aigues, Condat, Massiac, Mauriac, Murat, Pierrefort, Pleaux, Riom-ès-Montagnes, Ruynes-en-Margeride, Saignes, Saint-Flour Nord, Saint-Flour Sud, Salers</desc>
    </path></svg>