<svg xmlns="http://www.w3.org/2000/svg" version="1.1" xmlns:xlink="http://www.w3.org/1999/xlink" xmlns:svgjs="http://svgjs.dev/svgjs" viewBox="617.47943 789.45387 119.55439999999999 115.22994999999992"><path class="circo" id="id-016-01" d="M 667.02473,857.61482 664.62563,857.47989 664.59553,857.87824 663.95633,858.29247 663.26473,860.5621 662.23373,859.92778 661.48683,858.92949 660.66283,858.79617 659.31483,859.75513 658.45313,862.09576 656.66063,861.30755 654.38433,860.22315 654.96343,858.28288 656.19243,857.15998 655.93883,855.16538 656.72233,854.79166 658.70493,854.78644 660.01413,853.9924 660.52043,852.90684 660.49243,852.09848 660.61883,851.27337 662.54263,850.42032 664.75513,849.83199 664.50123,848.23937 663.78493,847.95248 662.77633,846.67035 661.99663,846.44628 661.76233,846.08011 663.29613,844.62291 663.56553,842.94936 664.06603,842.26288 664.81843,842.80537 665.46613,842.75949 667.10073,841.05638 668.80763,840.02976 668.91373,838.90775 669.52283,838.62886 669.78473,837.88409 671.39953,836.78646 672.49323,836.37725 672.84783,836.56328 673.42453,837.09259 674.27473,836.35106 675.65503,836.89817 675.12083,838.50854 676.10913,839.30317 676.56543,840.43583 679.57523,842.83142 679.64743,842.89581 681.20733,842.39105 681.66363,841.70086 683.07773,840.84503 684.31563,841.43792 683.53863,844.98989 682.97553,845.55832 683.25173,847.51512 684.75303,848.07872 683.36963,848.96076 682.95863,848.88281 683.51333,850.00768 686.87193,851.67585 686.96863,852.90246 689.59973,852.83088 690.62633,853.58191 688.73753,855.72786 688.30393,857.81509 687.63563,858.34396 685.94113,858.18658 685.23123,855.98479 685.40033,854.84828 684.79843,854.31039 683.62583,854.58244 682.09493,854.35571 682.39223,855.7784 682.12833,856.03921 681.63073,857.78655 681.35813,857.472 680.40143,858.26005 679.57783,858.15622 678.39753,858.55841 677.28013,858.12914 673.96973,855.52754 672.85563,854.93891 672.44763,855.06308 672.11743,854.92154 671.90303,855.21179 671.92333,856.24098 671.00083,857.92997 671.35673,859.40522 670.94033,859.46836 669.46153,856.98326 668.76493,856.50943 667.02473,857.61482 z">
      <title id="t68">Première circonscription de Charente</title>
      <desc id="d68">Cantons de : Angoulême Est, Angoulême Nord, Angoulême Ouest, Le Gond-Pontouvre, La Couronne, Ruelle-sur-Touvre, Soyaux</desc>
    </path><path class="circo" id="id-016-02" d="M 671.71223,896.2592 672.44393,896.43093 674.22443,895.9975 674.74973,894.7176 675.62663,892.78177 676.73443,892.53589 677.83293,892.82829 678.32193,892.88085 679.51103,891.87263 679.85313,889.83543 679.36613,887.42653 679.33923,887.40017 678.69133,885.18467 678.05083,883.91219 678.39303,881.81247 679.19363,879.88485 679.59723,878.53898 679.87233,877.21366 680.48723,876.18411 681.48463,875.51781 682.64923,875.60333 683.70853,875.14472 682.62263,873.98776 682.57193,872.37255 683.26573,872.38818 684.82753,874.20281 685.27023,872.25984 685.29613,872.22082 687.16953,871.48383 687.71573,870.40178 688.92933,870.13521 689.01213,869.31325 691.55983,868.38546 692.79783,869.35532 693.54733,869.13527 693.63443,867.18891 694.76853,865.61333 695.17553,865.12687 695.04053,864.48752 692.00223,863.29235 691.12013,862.47624 690.75123,862.6601 690.63073,861.84622 689.76293,860.98042 685.78093,858.74238 685.94113,858.18658 685.23123,855.98479 685.40033,854.84828 684.79843,854.31039 683.62583,854.58244 682.09493,854.35571 682.39223,855.7784 682.12833,856.03921 681.63073,857.78655 681.35813,857.472 680.40143,858.26005 679.57783,858.15622 678.39753,858.55841 677.28013,858.12914 673.96973,855.52754 672.85563,854.93891 672.44763,855.06308 672.11743,854.92154 671.90303,855.21179 671.92333,856.24098 671.00083,857.92997 671.35673,859.40522 670.94033,859.46836 669.46153,856.98326 668.76493,856.50943 667.02473,857.61482 664.62563,857.47989 664.59553,857.87824 663.95633,858.29247 663.26473,860.5621 662.23373,859.92778 661.48683,858.92949 660.66283,858.79617 659.31483,859.75513 658.45313,862.09576 656.66063,861.30755 654.38433,860.22315 654.96343,858.28288 656.19243,857.15998 655.93883,855.16538 656.72233,854.79166 657.11793,854.17333 656.68693,851.92722 655.73233,851.5453 655.60843,848.8625 655.21353,848.791 653.86883,849.61203 652.69613,849.59051 651.80743,848.72108 650.73543,847.0191 649.96963,846.7684 650.19983,846.42171 650.59203,846.50613 650.97863,845.85079 651.76643,845.96479 652.46803,845.00132 654.45413,844.72609 654.77033,844.19081 653.54113,844.00134 653.68003,842.75012 652.51053,841.56355 650.90493,841.15755 650.15143,840.22811 648.65883,840.18135 647.91403,839.93089 647.69613,839.16909 646.19313,838.69633 646.21223,838.43327 645.79233,837.80236 645.54943,835.94901 643.03873,836.21973 640.64723,836.45571 639.93513,834.91882 638.05603,833.93015 638.02353,833.91394 637.20353,832.57005 637.01553,831.82742 636.35473,831.54921 636.47263,830.4708 635.76543,830.24058 633.47003,830.14669 633.17973,830.41044 632.04573,830.21827 631.41323,830.65467 631.53463,831.46497 630.31293,832.5798 629.66273,832.76654 628.02343,832.50629 625.75053,833.36781 625.40623,833.253 622.67803,832.55188 622.45293,834.52254 621.30713,834.68425 620.65793,835.18921 618.65413,835.05273 617.47943,836.77684 617.74663,838.30868 621.50133,838.01722 622.55453,838.6928 622.48063,839.10978 621.21433,840.18878 621.11773,841.87847 621.53933,843.38726 620.89943,844.84424 621.95163,845.11326 624.36863,848.0865 624.34523,848.51167 623.20203,848.858 622.08853,848.42058 620.13403,852.2763 621.56163,853.17262 622.35933,852.90914 623.92133,852.00805 624.50233,852.90538 624.86133,854.10467 626.35503,855.52887 627.46263,855.8638 627.87403,856.87103 628.66003,856.77641 628.89603,857.09695 629.66323,857.69947 631.63913,859.56221 630.26763,862.05086 629.52853,862.28874 629.51003,863.14698 629.65543,863.1562 631.07813,863.94383 632.28483,863.81776 632.96323,864.27604 632.71803,865.03637 634.22503,864.34823 635.19713,865.03613 634.28433,866.28751 635.24193,867.05344 636.06043,867.0076 636.06743,867.81819 636.40393,868.05357 636.23603,868.58286 635.48193,868.41395 634.14343,870.84592 632.97113,870.51342 632.52093,872.67744 633.29273,872.38866 634.03863,872.73767 634.24783,873.53377 635.21103,874.30083 635.22683,874.60588 635.74213,875.2581 635.40673,876.01975 635.49333,877.22771 636.72883,877.25096 636.95273,878.3909 635.70143,878.42831 635.47913,879.23949 633.48053,879.60933 633.17643,880.38018 632.50863,880.87378 631.27863,880.86313 631.14343,881.16886 630.48303,881.10169 630.44343,882.34021 630.98343,882.90966 631.75223,883.02243 632.15523,883.59109 632.89153,883.84057 633.08533,884.97723 633.80563,884.60925 635.86953,884.61965 635.91763,885.8452 635.54173,886.53312 634.40713,886.81126 633.22043,885.80009 632.81943,886.89797 632.91603,886.97464 633.11553,887.28118 632.14653,888.37653 632.67473,888.93411 632.77833,890.59546 634.95893,891.74635 635.01793,890.54264 636.44033,889.83252 637.26643,889.80073 637.40453,888.98234 639.71353,890.25619 640.17173,890.90196 641.69433,890.59413 643.10163,890.79548 644.01693,891.40024 644.30243,891.67529 644.49973,893.03393 645.78543,892.26184 647.59923,892.84859 647.27233,897.14676 647.04063,897.8729 648.34783,898.02696 650.30743,898.17087 652.62043,897.78271 653.08273,897.87894 653.44643,898.05968 654.07183,899.52472 655.54913,900.20209 657.16373,900.24687 657.34723,901.03049 656.69863,903.01888 656.67113,904.29278 657.21673,904.68382 657.74573,903.31699 658.98073,903.05387 659.95913,902.30487 661.57323,900.39689 662.49553,901.18665 663.31423,901.22913 664.66933,900.35453 665.35193,900.52832 666.56193,901.91043 666.69563,902.03713 668.09603,902.58926 668.45543,901.95109 669.21523,901.92672 669.44673,900.71141 670.26433,900.48282 671.70173,898.94326 671.31483,898.24693 671.49393,897.43329 671.86813,896.92047 671.71223,896.2592 z">
      <title id="t69">Deuxième circonscription de Charente</title>
      <desc id="d69">Cantons de : Aubeterre-sur-Dronne, Baignes-Sainte-Radegonde, Barbezieux-Saint-Hilaire, Blanzac-Porcheresse, Brossac, Chalais, Châteauneuf-sur-Charente, Cognac Nord, Cognac Sud, Jarnac, Montmoreau-Saint-Cybard, Segonzac, Villebois-Lavalette</desc>
    </path><path class="circo" id="id-016-03" d="M 647.93663,815.41226 647.18283,815.14242 645.98613,815.44428 644.90783,814.854 644.00173,815.45307 644.42433,816.83139 645.45813,817.33072 644.96883,818.33109 644.31463,818.60166 644.36933,818.95502 644.59923,819.71738 645.71723,819.80262 645.80753,821.39361 646.29233,822.00589 647.09573,822.07866 647.25513,822.45076 646.97493,822.7424 646.36503,823.84682 646.49973,824.67733 646.21253,824.98462 645.07453,825.34106 644.45033,826.37552 644.85993,826.39651 645.27983,828.39163 643.94873,831.00655 644.24083,832.2386 643.58333,833.40632 643.04763,832.93243 643.44633,832.25067 643.11353,832.03442 641.56023,832.29261 641.26483,832.02661 640.51903,832.32491 639.56393,833.58963 638.05603,833.93015 639.93513,834.91882 640.64723,836.45571 643.03873,836.21973 645.54943,835.94901 645.79233,837.80236 646.21223,838.43327 646.19313,838.69633 647.69613,839.16909 647.91403,839.93089 648.65883,840.18135 650.15143,840.22811 650.90493,841.15755 652.51053,841.56355 653.68003,842.75012 653.54113,844.00134 654.77033,844.19081 654.45413,844.72609 652.46803,845.00132 651.76643,845.96479 650.97863,845.85079 650.59203,846.50613 650.19983,846.42171 649.96963,846.7684 650.73543,847.0191 651.80743,848.72108 652.69613,849.59051 653.86883,849.61203 655.21353,848.791 655.60843,848.8625 655.73233,851.5453 656.68693,851.92722 657.11793,854.17333 656.72233,854.79166 658.70493,854.78644 660.01413,853.9924 660.52043,852.90684 660.49243,852.09848 660.61883,851.27337 662.54263,850.42032 664.75513,849.83199 664.50123,848.23937 663.78493,847.95248 662.77633,846.67035 661.99663,846.44628 661.76233,846.08011 663.29613,844.62291 663.56553,842.94936 664.06603,842.26288 664.81843,842.80537 665.46613,842.75949 667.10073,841.05638 668.80763,840.02976 668.91373,838.90775 669.52283,838.62886 669.78473,837.88409 671.39953,836.78646 672.49323,836.37725 672.84783,836.56328 673.42453,837.09259 674.27473,836.35106 675.65503,836.89817 675.12083,838.50854 676.10913,839.30317 676.56543,840.43583 679.57523,842.83142 679.64743,842.89581 681.20733,842.39105 681.66363,841.70086 683.07773,840.84503 684.31563,841.43792 683.53863,844.98989 682.97553,845.55832 683.25173,847.51512 684.75303,848.07872 683.36963,848.96076 682.95863,848.88281 683.51333,850.00768 686.87193,851.67585 686.96863,852.90246 689.59973,852.83088 690.62633,853.58191 688.73753,855.72786 688.30393,857.81509 687.63563,858.34396 685.94113,858.18658 685.78093,858.74238 689.76293,860.98042 690.63073,861.84622 690.75123,862.6601 691.12013,862.47624 692.00223,863.29235 695.04053,864.48752 695.76093,864.28817 696.43733,862.5817 697.11553,862.72928 697.92543,862.67054 699.26053,861.81127 699.90643,860.79554 699.85663,860.00973 699.22873,859.52761 700.73733,856.70086 700.38583,855.9973 700.72193,855.34203 700.48133,854.59106 699.47223,853.38493 699.38403,852.87317 699.79443,852.9783 700.06563,852.65003 700.42563,851.42751 701.54563,850.17206 702.36043,850.04136 702.61793,851.75826 703.63793,851.10658 704.83543,851.06939 705.76293,850.27625 705.04763,848.77677 706.74613,847.82392 706.82333,847.02384 707.88303,846.52998 707.56053,845.9053 708.03073,845.30891 708.27553,843.79422 708.61743,844.04259 709.80133,842.85759 710.37813,841.31703 710.69763,840.59557 711.38183,840.99295 711.72013,840.78757 712.13553,839.67932 711.89743,839.36064 712.34383,838.29625 713.39903,838.29345 713.48013,837.2222 715.95743,835.52599 717.34323,835.43619 717.60533,834.66122 716.98693,833.5605 717.24403,830.64053 717.94153,830.22814 719.97133,830.37508 720.80343,831.26173 721.62063,831.28136 722.31973,832.31357 723.08953,832.36648 723.47163,831.70441 722.91473,830.65918 723.37253,830.00365 723.33043,828.42066 724.50953,827.26453 726.63383,822.73995 725.48803,822.36591 727.17723,820.81228 726.00143,819.08571 726.20903,816.59289 725.61693,816.04916 725.87993,814.8848 726.71513,814.84948 728.08003,815.84558 728.92163,815.7675 730.04383,816.28841 732.03953,815.79634 733.88483,814.08682 735.13343,814.0724 735.26463,813.0912 735.61233,812.87274 735.35483,812.55464 735.61993,812.24043 736.87773,811.30091 737.03383,809.70168 736.29473,809.36521 736.29813,807.43335 734.92203,806.65065 735.43403,805.2284 734.19613,804.33282 732.84513,803.70168 732.77253,802.99677 732.17703,802.5958 730.50463,804.46269 730.08233,804.41239 729.63313,802.84214 728.69483,802.01188 726.37283,800.61756 726.26423,799.43218 727.06943,798.5139 726.48003,797.00258 727.15633,795.94512 727.15753,795.669 727.59203,794.97918 727.59663,793.70025 726.92923,792.60316 725.90293,791.84289 725.86143,791.41539 726.84233,790.72637 725.55343,789.71798 723.59163,790.42378 720.42043,789.48392 718.83383,789.93179 717.39913,789.45387 717.36133,789.52024 716.96083,790.6767 715.12583,791.69046 714.34823,792.69549 715.28373,794.56867 713.60703,794.59944 711.25873,795.25031 709.59793,795.06842 709.00743,795.63394 708.61233,795.4903 708.47503,796.95515 707.48283,797.58264 707.07253,796.54084 705.64903,796.91251 704.72503,795.56653 703.88513,795.45451 702.74753,796.00235 702.51343,794.77068 701.11163,792.71511 699.70913,791.85467 700.08803,790.3156 698.94383,789.90542 698.18093,790.78843 696.99543,790.53687 696.20133,792.83956 695.58463,793.38639 695.19593,793.25092 694.52663,794.03922 694.99703,794.69873 694.73463,795.0265 694.88133,795.82011 696.53613,795.76986 697.28443,796.1113 697.22543,797.77917 697.70503,798.46919 696.89223,798.30429 696.46823,799.01544 694.78943,800.20751 691.97893,800.47035 691.08553,798.75059 689.98683,798.26153 689.30113,798.71923 686.85953,798.5139 686.17623,798.675 685.00243,798.51709 684.26393,798.83904 683.57293,798.51047 682.87633,798.99021 681.61243,799.18927 680.38733,798.98102 680.17123,798.23127 679.07863,797.65983 678.68243,796.92942 677.22193,796.29489 676.11693,795.44801 675.53653,794.93739 673.62403,794.77657 671.93963,796.29011 671.25913,796.43606 671.08843,796.12528 668.39323,793.73556 666.97513,794.52516 665.83163,794.47882 665.06963,793.57348 664.75503,793.8215 665.31133,795.27225 665.08643,795.59423 664.13483,795.07271 663.05143,794.98041 661.33213,796.67797 662.07853,797.62945 661.31583,797.92522 660.06183,798.08707 658.47583,800.01044 657.26443,799.19208 656.63073,799.68757 654.62093,799.58137 653.49083,799.97823 653.72403,801.18103 654.92043,802.81435 654.19723,803.80414 652.97933,803.95605 652.99263,804.75963 652.45613,806.245 653.26493,806.95141 652.56953,807.8185 651.84533,808.18624 651.57753,808.96058 650.34973,809.00621 648.09873,810.19138 648.01093,811.36963 648.79383,811.33771 649.11253,812.46673 649.50293,812.50867 648.63463,814.17531 648.70593,814.93149 647.93663,815.41226 z">
      <title id="t70">Troisième circonscription de Charente</title>
      <desc id="d70">Cantons de : Aigre, Chabanais, Champagne-Mouton, Confolens Nord, Confolens Sud, Hiersac, La Rochefoucauld, Mansle, Montbron, Montembœuf, Rouillac, Ruffec, Saint-Amand-de-Boixe, Saint-Claud, Villefagnan</desc>
    </path></svg>