<svg xmlns="http://www.w3.org/2000/svg" version="1.1" xmlns:xlink="http://www.w3.org/1999/xlink" xmlns:svgjs="http://svgjs.dev/svgjs" viewBox="0 0 133.34875 156.07367"><path class="circo" id="id-017-01" d="M38.875 13.40625L38.375 13.5L36.03125 14.40625L35.375 15.96875L33.3125 18.0625L30.875 19.46875L30.3125 20.5625L30.65625 20.78125L30.75 22.125L30.28125 22.875L29.5 23.1875L29 24.8125L27.84375 25.28125L27.5 25.53125L27.40625 25.96875L27.59375 26.34375L28.25 26.90625L28.625 27.09375L29.875 27.46875L30.28125 27.53125L32.28125 26.8125L33.5625 26.625L33.96875 26.71875L34.0625 27.125L33.375 27.65625L33.28125 28.46875L34.5 28.71875L35.15625 29.21875L35.40625 28.4375L36.21875 28.34375L36.8125 27.28125L38.40625 27.28125L39.1875 27.3125L41.03125 28.875L41.5 26.84375L43.53125 26.40625L44.625 25.78125L44.65625 25.75L44.5625 25.6875L45.03125 24.71875L44.65625 24.125L43.28125 22.125L44 19.3125L43.96875 19.25L43.25 17.625L42.0625 17.9375L41.03125 18.625L39 17.25L38.90625 17.09375L40.25 15.46875L40.03125 14.625L38.875 13.40625zM4.34375 13.90625L3.34375 14.71875L1.9375 15.59375L0.3125 15.46875L0 15.75L0.375 16.9375L1.625 18.59375L2.4375 20.5625L4.75 21.65625L7.5 20.6875L8.75 20.8125L12.84375 22.96875L15.03125 24.09375L16.9375 25.65625L17.8125 26.59375L20.4375 27.71875L21.65625 28L23.75 27.75L24.15625 27.875L25.9375 25.59375L24.34375 25.71875L23.71875 24.25L22.71875 22.46875L21.90625 22.21875L20.71875 22.59375L18.78125 21L16.8125 20.125L13.8125 20.59375L11.75 20.375L10.0625 19.28125L12.0625 18.625L12.4375 17.46875L8.9375 17.5L8.5625 17.65625L8.09375 18.71875L6.71875 19.6875L6.4375 20.40625L5.6875 20.03125L4.375 18.5L4.0625 17.25L4.0625 16.71875L4.71875 17.84375L5.125 17.9375L5.625 16.40625L6 16.40625L6.15625 17.21875L6.53125 17.375L7.25 16.96875L7.25 16.53125L6.78125 15.3125L5.625 14.0625L4.34375 13.90625z">
      <title id="t71">Première circonscription de Charente-Maritime</title>
      <desc id="d71">Cantons de : Ars-en-Ré, La Rochelle I, La Rochelle II, La Rochelle III, La Rochelle IV, La Rochelle V, La Rochelle VI, La Rochelle VII, La Rochelle VIII, La Rochelle IX, Saint-Martin-de-Ré</desc>
    </path><path class="circo" id="id-017-02" d="M54.03125 0L51.96875 1.1875L50.875 0.65625L50.09375 2.25L49.6875 2.40625L46.34375 2.1875L43.53125 3.40625L43.28125 2.625L41.625 5.40625L41.03125 5.96875L41.21875 6.34375L39.75 6.96875L38.15625 6.625L37.875 5.875L37.5 5.875L37.3125 6.90625L36.84375 7.46875L37.5 8.96875L38.375 13.5L38.875 13.40625L40.03125 14.625L40.25 15.46875L38.90625 17.09375L39 17.25L41.03125 18.625L42.0625 17.9375L43.25 17.625L43.96875 19.25L44 19.3125L43.28125 22.125L44.65625 24.125L45.03125 24.71875L44.5625 25.6875L44.65625 25.75L44.625 25.78125L43.53125 26.40625L41.5 26.84375L41.03125 28.875L39.1875 27.3125L38.40625 27.28125L36.8125 27.28125L36.21875 28.34375L35.40625 28.4375L35.15625 29.21875L35.53125 29.96875L36.8125 30.0625L37.125 30.375L37.3125 31.65625L35.875 32.3125L36.125 32.65625L38.125 33.09375L39.0625 33.90625L39.78125 35.90625L40.28125 38.84375L40.65625 39.03125L41.5 39.125L42.5 39.84375L43.0625 41.46875L42.71875 42.65625L43.34375 44.21875L43.34375 45.0625L42.59375 46.09375L40.0625 46.375L38.15625 45L37.625 45.3125L40.59375 48.09375L41.09375 50.15625L42.375 51.25L42.46875 51.25L43.0625 51.125L46.25 50.25L46.84375 49.15625L47.59375 48.84375L48.5 49.65625L48.21875 50.90625L47.15625 52.9375L47.09375 53.71875L49.6875 55.96875L51.625 55.71875L52.25 54.75L51.78125 53.59375L51.84375 52.3125L52.4375 51.78125L52.84375 51.9375L52.875 51.28125L54.28125 49.25L55.90625 46.90625L55.6875 44.8125L57.125 43.59375L58.1875 42.25L58.46875 40.96875L59.1875 39.875L60.78125 39.625L61.6875 38.8125L63.09375 40.8125L63.84375 40.59375L65.4375 38.34375L67.28125 40.65625L68.03125 41.03125L69.28125 40.9375L70.4375 41.5L71.125 40.03125L71.375 39L75.375 39.84375L76.46875 39.34375L76.34375 38.125L77.46875 37.6875L75.96875 36.3125L76.3125 35.125L77.46875 34.75L76.78125 33.28125L77.90625 33.5L79.09375 33.125L79.65625 32.53125L82.09375 31.875L84 32.65625L84.5 32L84.65625 31.59375L83.34375 30.5625L83.28125 28.4375L81.65625 28.0625L80.5 28.5625L79.4375 27.9375L79.09375 27.34375L79.3125 27L81.625 26.46875L80.75 25.75L79.90625 25.8125L78.90625 25.21875L78.15625 25.3125L77.125 24.6875L75.96875 23.0625L74.3125 23.1875L74.03125 22.0625L73.65625 21.90625L73.78125 21.5L74.5625 21.59375L74.84375 21.3125L74.5 19.34375L74.125 18.625L73.09375 18L68.96875 15.46875L68.75 14.65625L70.28125 12.6875L69.5 11.21875L68.6875 8.84375L69.0625 8.1875L68.25 7.21875L67.40625 7.125L66.90625 6.4375L64.59375 5.625L64.25 4.875L65.03125 4L64.9375 3.59375L62.6875 4.25L62.1875 3.5625L61.375 3.84375L60.71875 4.90625L61.03125 5.6875L60.6875 6.46875L59.5 6.375L59.6875 5.59375L59.34375 5.34375L58.875 5.96875L57.46875 5.4375L56.75 6.65625L55.3125 7.15625L55.0625 6.8125L53.46875 7.15625L51.375 5.84375L52.8125 3.78125L53.4375 1.3125L54.03125 0zM33.71875 42.46875L33.09375 42.59375L32.6875 44L32.75 44.4375L32.90625 44.5625L33.375 43.84375L33.375 43.21875L34.59375 43.25L34.46875 42.875L33.71875 42.46875z">
      <title id="t72">Deuxième circonscription de Charente-Maritime</title>
      <desc id="d72">Cantons de : Aigrefeuille-d'Aunis, Aytré, Courçon, La Jarrie, Marans, Rochefort Centre, Rochefort Nord, Rochefort Sud, Surgères</desc>
    </path><path class="circo" id="id-017-03" d="M123.18435 54.19412999999997L121.98765000000003 54.495990000000006L120.90935000000002 53.90571L120.00324999999998 54.50477999999998L120.42585000000008 55.88310000000001L121.45965000000001 56.38243L120.97035000000005 57.382799999999975L120.31615 57.653369999999995L120.37085000000002 58.00672999999995L120.60075000000006 58.769090000000006L121.71875 58.854330000000004L121.80905000000007 60.445319999999924L122.29385000000002 61.05759999999998L123.09725000000003 61.13036999999997L123.25665000000004 61.5024699999999L122.97645 61.79410999999993L122.36655000000007 62.89852999999994L122.50125000000003 63.72903999999994L122.21405000000004 64.03632999999991L121.07605000000001 64.39276999999993L120.45185000000004 65.42723000000001L120.86144999999999 65.44821999999999L121.28134999999997 67.44333999999992L119.95024999999998 70.0582599999999L120.24234999999999 71.29030999999998L119.58485000000007 72.45803000000001L119.04915000000005 71.98413999999991L119.44785000000002 71.30237999999997L119.11505 71.08612999999991L117.56175000000007 71.34431999999993L117.26634999999999 71.07831999999996L116.52055000000007 71.37662L115.56545000000006 72.64134000000001L114.05754999999999 72.98185999999998L114.02505000000008 72.96564999999998L113.20505000000003 71.62176L113.01705000000004 70.87912999999992L112.35625000000005 70.60091999999997L112.47415000000001 69.52251000000001L111.76695000000007 69.29228999999998L109.47154999999998 69.19839999999999L109.18124999999998 69.46214999999995L108.04725000000008 69.26997999999992L107.41475000000003 69.70637999999997L107.53615000000002 70.51667999999995L106.31445000000008 71.63150999999993L105.66425000000004 71.81824999999992L104.02494999999999 71.55799999999999L101.75205000000005 72.41951999999992L101.40775000000008 72.30471L98.67955000000006 71.60358999999994L98.45445000000007 73.57425L97.30865000000006 73.73595999999998L96.65944999999999 74.24091999999996L94.65565000000004 74.10443999999995L93.48095 75.82854999999995L93.74815000000001 77.36038999999994L97.50285000000008 77.06892999999991L98.55605000000003 77.74450999999999L98.48215000000005 78.16148999999996L97.21585000000005 79.24048999999991L97.11925000000008 80.93017999999995L97.54084999999998 82.43896999999993L96.90095000000008 83.89594999999997L95.21235000000001 84.30525999999998L94.41005000000007 84.23066999999992L93.35115000000008 84.7608899999999L93.16065000000003 83.65611999999999L92.78785000000005 83.53224999999998L92.11225000000002 83.10793000000001L91.54165 82.6132399999999L90.81835000000001 82.82085999999993L90.44145000000003 82.18715999999995L89.31785000000002 82.19664999999998L88.94455000000005 81.54525000000001L88.22485000000006 81.29766999999993L86.41915000000006 81.34258999999997L87.15944999999999 81.68448999999998L87.52765 82.38650999999993L87.49075000000005 83.20211999999992L86.76225 84.61136999999997L86.53605000000005 85.15006999999991L86.13385000000005 85.10019L85.90025000000003 84.32776999999999L84.36815000000001 83.02943999999991L83.91275000000007 81.92561L83.20335 81.54865999999993L83.47025000000008 82.32322999999997L83.17405000000008 83.48515999999995L80.95725000000004 84.09330999999997L81.71945000000005 85.56306999999993L78.59384999999997 88.23280999999997L78.22145 88.97136L77.36095 88.00723999999991L75.85874999999999 88.69425999999999L74.04135000000008 87.11084999999991L74.56025 85.55808999999999L73.22635000000002 84.00739999999996L72.82015000000001 83.29264999999998L72.89085 82.49178999999992L72.55795 82.24752999999998L71.34805000000006 82.33210999999994L71.03805 82.6210299999999L70.97765000000004 83.87124999999992L70.28875000000005 84.35464999999999L69.03705000000002 84.40112999999997L67.62225000000001 83.64054999999996L66.96055000000001 83.0163L66.63725 81.99388999999996L68.79665 80.96876999999995L69.90985 79.82808L69.49885000000006 79.37248L70.59465 78.87471999999991L69.11374999999998 76.97002999999995L67.51735000000008 77.18585999999993L66.98305000000005 77.7779999999999L66.22575000000006 76.72411L66.69865000000004 73.88083999999992L67.89525000000003 73.53013999999996L68.62284999999997 72.50324999999998L69.89965000000007 72.75443999999993L69.66785000000004 71.92928999999992L70.26695000000007 70.32819999999992L73.09375 68.69842999999992L73.47685000000001 68.8771999999999L74.84225000000004 70.38707999999997L75.96465 69.90377999999998L76.29084999999998 70.08642999999995L76.79645000000005 70.66955999999993L76.90715 71.49961999999994L77.81335000000001 71.29494999999997L78.56605000000002 68.89158999999995L78.13285000000008 68.28829999999994L78.51105000000007 67.24392L77.40314999999998 65.55886999999996L76.28904999999997 65.07607999999993L75.28494999999998 65.55301999999995L75.00695000000007 65.25482999999997L74.76094999999998 64.70429999999999L74.58645000000001 63.616769999999974L73.09654999999998 63.24991L72.99335000000008 62.87081999999998L71.31315000000006 62.19534999999996L69.82254999999998 61.56838999999991L69.62655000000007 59.97523000000001L69.31375000000003 59.81062999999995L66.93595000000005 59.74054000000001L66.21114999999998 60.04946999999993L64.23035000000004 59.97436999999991L63.404949999999985 59.058889999999906L62.61995000000002 56.735000000000014L63.02735000000007 56.35065999999995L62.64165000000003 55.95738999999992L62.909850000000006 55.34843000000001L64.29174999999998 54.65459999999996L65.69385 55.06273999999996L67.59665000000007 52.20133999999996L67.60275000000001 50.06598999999994L67.86325 49.721630000000005L67.70685000000003 48.698350000000005L68.00035000000003 48.46816000000001L67.53875000000005 47.98402999999996L67.01565000000005 46.971379999999954L67.55534999999998 45.42225999999994L68.89184999999998 44.52756999999997L69.08015 43.71978999999999L71.56664999999998 43.855410000000006L72.02735000000007 42.77541999999994L70.42475000000002 41.49275L71.11115000000007 40.04279999999994L71.36545000000001 38.99171999999999L75.37485000000004 39.84317999999996L76.46465 39.350709999999935L76.33235000000002 38.13452999999993L77.45875000000001 37.68787999999995L75.96345000000008 36.32497000000001L76.30785000000003 35.131399999999985L77.48225000000002 34.738719999999944L76.78335000000004 33.29270999999994L77.91965000000005 33.49743000000001L79.09885000000008 33.12794999999994L79.64935000000003 32.521229999999946L82.10005000000001 31.859389999999962L83.99315000000001 32.64725999999996L84.50535000000002 31.987519999999904L84.64695000000006 31.586450000000013L83.33855000000005 30.54828999999995L83.28685000000007 28.432219999999916L83.60565000000008 27.364859999999908L84.71455000000003 27.973639999999932L86.36604999999997 27.90456999999992L87.51975000000004 28.41319999999996L88.07145000000003 28.923639999999978L88.21974999999998 29.704239999999913L89.40885000000003 29.830209999999965L88.79105000000004 30.30876999999998L89.50225 31.214419999999905L88.95555000000002 31.756149999999934L90.04025000000001 32.39285999999993L92.57574999999997 32.712479999999914L94.57005000000004 33.031349999999975L95.41145000000006 33.942519999999945L95.50585000000001 32.843419999999924L97.04494999999997 31.653519999999958L97.02835000000005 34.10075999999992L98.72585000000004 35.21460999999999L100.00175000000002 33.66708999999992L101.10345000000007 34.01202000000001L102.08985000000007 35.22465999999997L102.01695000000007 36.28035999999997L104.66835000000003 35.43311999999992L105.03875000000005 35.57637L107.08845000000008 35.88652999999999L107.92045000000007 34.92721999999992L109.04745000000003 36.11493999999993L109.64205000000004 38.51376999999991L113.04034999999999 39.59859999999992L113.37535000000003 39.665469999999914L114.94344999999998 39.96992999999998L116.36835000000008 39.26730999999995L116.23835000000008 40.055169999999976L116.61685 40.193179999999984L116.77345000000003 42.33201999999994L118.86644999999999 41.153959999999984L118.58005000000003 42.65508999999997L118.99784999999997 43.20312999999999L118.89325000000008 43.969600000000014L119.37625000000003 44.915269999999964L120.54214999999999 44.96006L121.21965 46.85503999999992L121.57895000000008 47.047969999999964L121.32285000000002 48.15724L122.87615000000005 48.28517999999997L124.10025000000007 49.24308999999994L124.01245000000006 50.42133999999999L124.79534999999998 50.38941999999997L125.11405000000002 51.51843999999994L125.50445000000002 51.56038000000001L124.63615000000004 53.227019999999925L124.70745 53.98320000000001L123.93815000000006 54.463969999999904L123.18435 54.19412999999997z">
      <title id="t73">Troisième circonscription de Charente-Maritime</title>
      <desc id="d73">Cantons de : Aulnay, Burie, Loulay, Matha, Saint-Hilaire-de-Villefranche, Saint-Jean-d'Angély, Saint-Savinien, Saintes Est (moins les communes de Colombiers et La Jard), Saintes Nord, Saintes Ouest, Tonnay-Boutonne</desc>
    </path><path class="circo" id="id-017-04" d="M105.51155000000006 102.19868999999994L105.53005000000007 101.34044999999992L106.26915000000008 101.1025699999999L107.64065000000005 98.61392000000001L105.66475000000003 96.75117999999998L104.89755000000002 96.14865999999995L104.66155000000003 95.82812000000001L103.87554999999998 95.92273999999998L103.46415000000002 94.91550999999993L102.35655000000008 94.58057999999994L100.86284999999998 93.15638000000001L100.50385000000006 91.95709L99.92285000000004 91.05975999999998L98.36085000000003 91.96084999999994L97.56315000000006 92.22433000000001L96.13555000000008 91.32800999999995L98.09005000000002 87.47228999999993L99.20355000000006 87.9097099999999L100.34675000000004 87.56337999999994L100.37015000000008 87.13820999999996L97.95315000000005 84.16496999999993L96.90095000000008 83.89594999999997L95.21235000000001 84.30525999999998L94.41005000000007 84.23066999999992L93.35115000000008 84.7608899999999L93.16065000000003 83.65611999999999L92.78785000000005 83.53224999999998L92.11225000000002 83.10793000000001L91.54165 82.6132399999999L90.81835000000001 82.82085999999993L90.44145000000003 82.18715999999995L89.31785000000002 82.19664999999998L88.94455000000005 81.54525000000001L88.22485000000006 81.29766999999993L86.41915000000006 81.34258999999997L87.15944999999999 81.68448999999998L87.52765 82.38650999999993L87.49075000000005 83.20211999999992L86.76225 84.61136999999997L86.53605000000005 85.15006999999991L86.13385000000005 85.10019L85.90025000000003 84.32776999999999L84.36815000000001 83.02943999999991L83.91275000000007 81.92561L83.20335 81.54865999999993L83.47025000000008 82.32322999999997L83.17405000000008 83.48515999999995L80.95725000000004 84.09330999999997L81.71945000000005 85.56306999999993L78.59384999999997 88.23280999999997L78.22145 88.97136L77.36095 88.00723999999991L75.85874999999999 88.69425999999999L74.04135000000008 87.11084999999991L74.56025 85.55808999999999L73.22635000000002 84.00739999999996L72.82015000000001 83.29264999999998L72.89085 82.49178999999992L72.55795 82.24752999999998L71.34805000000006 82.33210999999994L71.03805 82.6210299999999L70.97765000000004 83.87124999999992L70.28875000000005 84.35464999999999L69.03705000000002 84.40112999999997L67.62225000000001 83.64054999999996L67.87684999999999 84.85578999999996L67.18945000000008 86.71678999999995L67.15145000000007 87.13528999999994L65.52525000000003 87.40855999999997L63.88684999999998 86.12930999999992L63.46505000000002 85.40626999999995L61.96815000000004 84.76612L59.67145000000005 85.68787999999995L58.66705000000002 86.9644199999999L58.557950000000005 87.37110999999993L59.69875000000002 87.81814999999995L61.03965000000005 89.4144L62.65944999999999 90.53986999999995L62.65145000000007 91.36653999999999L61.884750000000054 91.61641999999995L61.47485000000006 92.32774999999992L59.09895000000006 92.5592499999999L58.47035000000005 93.61446000000001L57.73255000000006 93.68808999999999L57.51405 93.37351999999998L57.20035000000007 91.50022999999999L56.70925 92.17426L56.29345000000001 92.20147999999995L54.64715000000001 90.95521999999994L54.25774999999999 91.69468999999992L52.301649999999995 92.37113L51.42145000000005 91.50034999999991L50.24085000000002 91.73856999999998L50.22675000000004 91.32836999999995L49.11215000000004 90.84217999999998L49.10055 90.02517999999998L48.05995000000007 89.40722999999991L48.34555 88.22514999999999L48.00615000000005 87.99677999999994L46.46794999999997 87.53235999999993L44.07185000000004 87.41841L44.24485000000004 88.60026999999991L43.84615000000008 89.13367999999991L45.06595000000004 90.31964999999991L45.42475000000002 91.30133999999998L45.109950000000026 91.96606999999995L45.899650000000065 91.61836999999991L46.99504999999999 92.84335999999996L46.90255000000002 94.35886999999991L48.133050000000026 94.40247999999997L48.40345000000002 94.72052999999994L48.66815000000008 95.51109999999994L48.630750000000035 96.73951999999997L48.77175 97.13202999999999L49.188150000000064 97.12291999999991L50.25605000000007 98.74394999999993L51.543750000000045 99.79662999999994L52.33395000000007 100.04693999999995L53.00655000000006 99.55347999999992L53.81574999999998 99.61586999999997L54.66695000000004 100.19502999999997L55.680150000000026 101.73789999999997L55.38755000000003 102.10694000000001L56.562650000000076 102.98498999999993L56.978650000000016 102.66464999999994L57.46064999999999 102.84217000000001L58.28985 104.03287999999998L60.08974999999998 104.79629L63.23585000000003 107.40248999999994L62.54955000000007 107.94629999999995L63.43475000000001 108.79413999999997L64.15835000000004 109.72731999999996L64.88335000000006 109.42342999999994L65.64925000000005 111.1576399999999L66.46285 112.32242999999994L67.14295000000004 112.70373999999993L67.72585000000004 113.76576999999997L68.82855000000006 115.83363999999995L69.64885000000004 118.17739999999992L71.06875000000002 123.35852999999997L71.48005 123.39022L71.14265 123.61232999999993L71.89015000000006 127.17130999999995L72.68435 127.28967999999998L72.64935000000003 127.33066999999994L77.55325000000005 127.93382999999994L78.27674999999999 128.8329799999999L78.99315000000001 128.42282999999998L81.19965000000002 127.75031000000001L82.31785000000002 128.09679999999992L82.35815000000002 126.83300999999994L83.08474999999999 125.46025999999995L84.48655000000008 126.84182999999996L84.07005000000004 129.35708999999997L84.59744999999998 130.9639699999999L85.63615000000004 131.05521L86.20895000000007 131.48357L87.38425000000007 131.57430999999997L89.20735000000002 132.29743999999994L91.53724999999997 131.42822L92.64515000000006 131.4217L93.94844999999998 132.05905999999993L96.00475000000006 133.00006999999994L97.26655000000005 133.84769999999992L97.47865000000002 134.59172999999998L97.22395000000006 135.3245599999999L96.80675000000008 136.86520999999993L98.00725 136.93705L98.34355000000005 137.64825999999994L97.72825 139.92567999999994L97.21945000000005 141.47253L97.36715000000004 142.25770999999997L98.62945000000002 143.9685599999999L98.89415000000008 145.2135199999999L100.26055000000008 149.55806999999993L100.68355000000008 147.92901999999992L102.01985000000002 146.30066999999997L104.06725000000006 146.80233999999996L105.37365 147.8953899999999L106.19085000000007 150.24388L106.70755000000008 148.80481999999995L109.44394999999997 149.79053999999996L109.54955000000007 150.61694L109.93085000000008 150.78238L110.99784999999997 153.01797999999997L111.96744999999999 153.7898L114.04444999999998 153.84447999999998L115.02335000000005 154.75072L116.57704999999999 155.41131999999993L119.08605 155.68320999999992L119.82065 156.07367L120.64915000000008 155.94170999999994L123.41235000000006 152.92679999999996L124.32915000000003 152.33268999999996L125.40615000000003 152.17958L127.27245000000005 154.69399999999996L127.99745000000007 154.90233L128.28295000000003 154.64824L128.93195000000003 155.04622999999992L129.43304999999998 154.4919299999999L129.32135000000005 153.24599999999998L130.33315000000005 151.41914999999995L129.72625000000005 149.87043999999992L133.09915 148.48782999999992L132.88465000000008 147.73903999999993L131.65565000000004 147.56002999999998L131.22985000000006 146.92784999999992L132.99265000000003 144.7298199999999L133.21825 143.73552999999993L132.67264999999998 143.34448999999995L132.70015 142.07058999999992L133.34875 140.08219999999994L133.16525000000001 139.2985799999999L131.55065000000002 139.25379999999996L130.07335 138.57642999999996L129.44795 137.11138999999991L129.08425 136.9306499999999L128.62195000000008 136.8344199999999L126.30894999999998 137.22258L124.34935000000007 137.07867L123.04214999999999 136.92460999999992L123.27385000000004 136.19846999999993L123.60075000000006 131.9002999999999L121.78695000000005 131.31354999999996L120.50125000000003 132.08564L120.30394999999999 130.72699999999998L120.01845000000003 130.45195L119.10315000000003 129.84718999999996L117.69585000000006 129.6458399999999L116.17325000000005 129.95367L115.71505000000002 129.3078999999999L113.40605000000005 128.03404999999998L113.26795000000004 128.85244L112.44185000000004 128.88423L111.01945 129.59434999999996L110.96045000000004 130.79805999999996L108.77985000000001 129.64716999999996L108.67624999999998 127.98581999999999L108.14805000000001 127.42823999999996L109.11705000000006 126.3328899999999L108.91755 126.02634999999998L108.82095000000004 125.94967999999994L109.22194999999999 124.85179999999991L110.40865000000008 125.8629699999999L111.54325000000006 125.58483000000001L111.91915000000006 124.89690999999993L111.87105000000008 123.67135999999994L109.80714999999998 123.66095999999993L109.08685000000003 124.02893999999992L108.89305000000002 122.89227999999991L108.15674999999999 122.64279999999997L107.75375000000008 122.07413999999994L106.98495000000003 121.96136999999999L106.44495000000006 121.39191999999991L106.48455000000001 120.15339999999992L107.14495 120.22056999999995L107.28015000000005 119.91483999999991L108.51015000000007 119.92548999999997L109.17795000000001 119.43188999999995L109.48205000000007 118.66103999999996L111.48065000000008 118.2912L111.70294999999999 117.48001999999997L112.95425 117.44260999999995L112.73035000000004 116.30266999999992L111.49485000000004 116.27941999999996L111.40825000000007 115.07146L111.74365 114.30980999999997L111.22834999999998 113.65758999999991L111.21255000000008 113.35253999999998L110.24935000000005 112.58547999999996L110.04015000000004 111.78937999999994L109.29425000000003 111.44036999999992L108.52245000000005 111.72915L108.97265000000004 109.56512999999995L110.14495 109.89762999999994L111.48345000000006 107.46565999999996L112.23755000000006 107.63456999999994L112.40544999999997 107.10528L112.06894999999997 106.86989999999992L112.06195000000002 106.05930999999998L111.24345000000005 106.10514999999998L110.28584999999998 105.33921999999995L111.19865000000004 104.08783999999991L110.22654999999997 103.3999399999999L108.71955000000003 104.08807999999999L108.96474999999998 103.32774999999992L108.28635000000008 102.86946999999998L107.07965000000002 102.99554L105.65695000000005 102.20790999999997L105.51155000000006 102.19868999999994z">
      <title id="t74">Quatrième circonscription de Charente-Maritime</title>
      <desc id="d74">Cantons de : Archiac, Cozes, Gémozac, Jonzac, Mirambeau, Montendre, Montguyon, Montlieu-la-Garde, Pons, Royan Est, Saint-Genis-de-Saintonge</desc>
    </path><path class="circo" id="id-017-05" d="M65.4375 38.34375L63.84375 40.59375L63.09375 40.8125L61.6875 38.8125L60.78125 39.625L59.1875 39.875L58.46875 40.96875L58.1875 42.25L57.125 43.59375L55.6875 44.8125L55.90625 46.90625L54.28125 49.25L52.875 51.28125L52.84375 51.9375L52.4375 51.78125L51.84375 52.3125L51.78125 53.59375L52.25 54.75L51.625 55.71875L49.6875 55.96875L47.09375 53.71875L47.15625 52.9375L48.21875 50.90625L48.5 49.65625L47.59375 48.84375L46.84375 49.15625L46.25 50.25L43.0625 51.125L42.46875 51.25L42.375 51.25L42.21875 51.65625L40.125 51.78125L39.5 52.25L41.25 53.3125L41.53125 54.53125L41.53125 56.28125L40.9375 57.90625L39.46875 59.9375L39.5 60.34375L38.84375 61.78125L37.59375 62.90625L34.71875 62.3125L34.96875 63.78125L33.21875 63.1875L33.71875 64.6875L34.78125 64.53125L35.125 66.25L36 67.1875L36.5625 69.09375L36.03125 70.0625L35.65625 70.3125L34.5 69.75L31.84375 71.15625L30.1875 70.8125L28.0625 71.25L27.375 71.71875L27.25 74.3125L27.8125 83L28.3125 84.65625L29.1875 85.8125L30.65625 85.5625L29.125 85.21875L28.8125 84.375L28.3125 82.96875L29.1875 82.6875L30.03125 82.6875L35.3125 86.25L38.21875 88.625L40.84375 89.75L41.21875 89.5625L42.90625 91.1875L43.25 90.96875L43.65625 91.6875L44.40625 92.0625L45.125 91.96875L45.4375 91.3125L45.0625 90.3125L43.84375 89.125L44.25 88.59375L44.0625 87.40625L46.46875 87.53125L48 88L48.34375 88.21875L48.0625 89.40625L49.09375 90.03125L49.125 90.84375L50.21875 91.34375L50.25 91.75L51.40625 91.5L52.3125 92.375L54.25 91.6875L54.65625 90.96875L56.28125 92.1875L56.71875 92.1875L57.1875 91.5L57.5 93.375L57.71875 93.6875L58.46875 93.625L59.09375 92.5625L61.46875 92.3125L61.875 91.625L62.65625 91.375L62.65625 90.53125L61.03125 89.40625L59.6875 87.8125L58.5625 87.375L58.65625 86.96875L59.65625 85.6875L61.96875 84.78125L63.46875 85.40625L63.875 86.125L65.53125 87.40625L67.15625 87.125L67.1875 86.71875L67.875 84.84375L67.625 83.625L66.96875 83.03125L66.625 82L68.78125 80.96875L69.90625 79.8125L69.5 79.375L70.59375 78.875L69.125 76.96875L67.53125 77.1875L66.96875 77.78125L66.21875 76.71875L66.6875 73.875L67.90625 73.53125L68.625 72.5L69.90625 72.75L69.65625 71.9375L70.28125 70.34375L73.09375 68.6875L73.46875 68.875L74.84375 70.375L75.96875 69.90625L76.28125 70.09375L76.78125 70.65625L76.90625 71.5L77.8125 71.28125L78.5625 68.90625L78.125 68.28125L78.5 67.25L77.40625 65.5625L76.28125 65.0625L75.28125 65.5625L75 65.25L74.75 64.71875L74.59375 63.625L73.09375 63.25L73 62.875L71.3125 62.1875L69.8125 61.5625L69.625 59.96875L69.3125 59.8125L66.9375 59.75L66.21875 60.0625L64.21875 59.96875L63.40625 59.0625L62.625 56.75L63.03125 56.34375L62.65625 55.96875L62.90625 55.34375L64.28125 54.65625L65.6875 55.0625L67.59375 52.1875L67.59375 50.0625L67.875 49.71875L67.71875 48.6875L68 48.46875L67.53125 47.96875L67.03125 46.96875L67.5625 45.4375L68.90625 44.53125L69.09375 43.71875L71.5625 43.84375L72.03125 42.78125L70.4375 41.5L69.28125 40.9375L68.03125 41.03125L67.28125 40.65625L65.4375 38.34375zM12.9375 39.84375L13.6875 43.15625L14.9375 45.875L14.3125 48.375L14.96875 49.96875L15 51.25L15.875 52.1875L18.78125 55.34375L22.25 57.75L23.03125 57.90625L24.96875 60.1875L25.71875 61.71875L26.34375 64.4375L26.96875 68.71875L27.34375 69.5L28.09375 69.875L31.0625 66.25L30.1875 63.8125L31.78125 59.46875L30.53125 57.71875L29.53125 56.9375L28 54.4375L28.375 53.6875L28.34375 52.46875L27.4375 51.125L27.46875 50.3125L28.03125 49.71875L27.84375 49.34375L27.6875 47.71875L26.84375 46.8125L22.65625 46.84375L21.0625 46.25L20.375 45.25L17.53125 42.625L16.46875 41.90625L16.15625 40.71875L12.9375 39.84375z">
      <title id="t75">Cinquième circonscription de Charente-Maritime</title>
      <desc id="d75">Cantons de : Le Château-d'Oléron, Marennes, Royan Ouest, Saint-Agnant, Saint-Pierre-d'Oléron, Saint-Porchaire, Saujon, Tonnay-Charente, La Tremblade</desc>
    </path></svg>