<svg xmlns="http://www.w3.org/2000/svg" version="1.1" xmlns:xlink="http://www.w3.org/1999/xlink" xmlns:svgjs="http://svgjs.dev/svgjs" viewBox="0 0 110.9183999999999 150.72174000000007"><path class="circo" id="id-018-01" d="M75.3246999999999 57.20979999999997L73.64269999999999 58.51850999999999L74.67769999999996 59.90370000000007L77.25819999999999 60.27654000000007L77.60699999999997 60.54300999999998L77.45339999999999 61.40206999999998L77.5249 62.17692999999997L76.68259999999998 62.15894000000003L76.39009999999996 62.46731L75.38189999999997 64.80974000000003L73.95729999999992 66.86005L73.44859999999994 67.37047000000007L72.41139999999996 66.98865999999998L70.44749999999999 65.98082999999997L68.13259999999991 64.02507000000003L66.92009999999993 64.31398999999999L65.79219999999998 65.48978999999997L64.23529999999994 63.609710000000064L63.83149999999989 63.76287000000002L63.26559999999995 64.92802000000006L62.97159999999997 65.24463000000003L62.19599999999991 65.62392L61.96519999999998 65.98845000000006L62.237199999999916 67.19079999999997L61.29589999999996 68.07472000000007L59.0628999999999 67.76112L59.28909999999996 70.74437999999998L58.36319999999989 71.63931000000002L57.57379999999989 72.62095L58.50599999999997 74.52592000000004L58.164499999999975 74.76786000000004L55.34009999999989 71.46492999999998L53.77049999999997 69.41971999999998L53.09529999999995 68.98736000000008L52.55009999999993 69.17272000000003L52.33339999999998 69.99227000000008L51.865099999999984 69.48072000000002L51.14119999999991 69.31371999999999L47.562599999999975 69.71641L46.71399999999994 69.64951000000008L47.85019999999997 68.61601000000007L47.1232 67.83653000000004L49.17459999999994 68.21167000000003L52.4310999999999 67.11451L52.33319999999992 66.1757L53.287399999999934 65.50931000000003L54.28539999999998 66.55014000000006L56.13969999999995 65.12486000000001L57.75979999999993 63.69766000000004L57.21709999999996 63.21443999999997L55.49739999999997 63.4212L53.48619999999994 62.71519999999998L52.00689999999997 63.259790000000066L51.43579999999997 62.20792000000006L47.43049999999994 61.61751000000004L47.297399999999925 60.734230000000025L46.44189999999992 59.722080000000005L43.474399999999946 57.84612000000004L42.60269999999991 57.987030000000004L42.53529999999989 56.75374999999997L44.16859999999997 56.16021999999998L44.31099999999992 54.88083000000006L43.30499999999995 54.12288000000001L42.76789999999994 52.97546999999997L41.53149999999994 52.86297999999999L40.909799999999905 52.30114000000003L40.99599999999998 49.16536000000008L41.91279999999995 47.700289999999995L43.07529999999997 47.123609999999985L43.63749999999993 44.13797999999997L44.7192 43.502230000000054L46.18809999999996 44.30036000000007L46.913799999999924 42.245450000000005L46.511499999999955 39.65784000000008L46.981899999999996 38.47645L46.31759999999997 35.95297000000005L46.6407999999999 34.24581999999998L42.423799999999915 33.55138999999997L42.09349999999995 33.27317000000005L42.17479999999989 32.43178999999998L40.99649999999997 31.962480000000028L40.65389999999991 30.74644999999998L39.107599999999934 30.12372000000005L39.1558 29.27893000000006L38.47929999999997 28.202440000000024L38.75569999999993 27.882040000000075L39.88659999999993 26.965360000000032L40.1422 23.50048000000004L39.45729999999992 22.42304999999999L39.99719999999991 21.295280000000048L39.42089999999996 20.164420000000064L40.23109999999997 17.29782L39.14729999999997 16.71596999999997L37.825199999999995 16.83084000000008L35.83859999999993 17.77949000000001L37.404399999999896 13.687009999999987L35.96529999999996 10.452160000000049L35.643499999999904 10.143750000000068L30.339999999999918 9.875999999999976L29.813299999999913 9.163009999999986L30.02729999999997 7.452830000000063L29.336299999999937 5.812400000000025L30.910499999999956 5.073510000000056L32.45719999999994 3.531820000000039L35.93909999999994 2.7248500000000604L38.61869999999999 1.1373399999999947L39.5059 1.0186700000000428L43.7915999999999 0L44.12939999999992 0.8109600000000228L45.28509999999994 1.4794600000000173L46.669399999999996 2.5842700000000605L48.35839999999996 3.0987800000000334L49.78629999999998 4.7913200000000415L50.85159999999996 5.49860000000001L51.4437999999999 4.849550000000022L52.6878999999999 4.556249999999977L53.20279999999991 3.8431900000000496L56.40989999999999 2.4315900000000283L57.20479999999998 2.834540000000061L57.96819999999991 4.440540000000055L60.84889999999996 7.220880000000079L60.9387999999999 7.6591900000000805L62.229999999999905 7.6848999999999705L63.40259999999989 7.145790000000034L65.92909999999995 6.851840000000038L67.41789999999992 7.635130000000004L67.95639999999992 8.75138000000004L69.57719999999995 8.938940000000002L70.7752999999999 10.070080000000075L71.5954999999999 11.403490000000033L71.1952 12.936540000000036L74.92279999999994 14.949479999999994L75.07049999999992 17.508530000000064L76.07119999999998 18.18477000000007L77.51459999999997 18.372439999999983L79.91269999999997 17.610419999999976L81.00349999999992 16.397029999999972L80.5234999999999 15.702110000000062L80.81149999999991 15.390800000000013L80.68009999999992 13.31582000000003L80.98169999999993 11.698750000000018L81.37859999999989 11.462800000000016L82.30309999999997 12.92043000000001L83.9914 13.116809999999987L85.46819999999991 14.030370000000062L86.96339999999998 16.591920000000073L87.72519999999997 16.95476000000008L89.40639999999996 16.500080000000025L90.67759999999998 14.771150000000034L93.51739999999995 13.687520000000063L94.78809999999999 15.28069000000005L95.02789999999993 16.38584000000003L95.43319999999994 18.125780000000077L96.6991999999999 19.66960000000006L97.30559999999991 21.210540000000037L97.3599999999999 21.448150000000055L98.35709999999995 23.718150000000037L98.35659999999996 24.546320000000037L97.4704999999999 25.88522999999998L97.35489999999993 27.512519999999995L94.87149999999997 33.09658999999999L93.95569999999998 34.53490999999997L93.14519999999993 36.06424000000004L93.43829999999991 37.724770000000035L94.17989999999998 39.114310000000046L95.62779999999998 39.776070000000004L96.77609999999993 40.33107000000007L97.65789999999993 41.267960000000016L99.20729999999992 43.23419999999999L101.92599999999993 45.14011000000005L98.0388999999999 45.819169999999986L96.92269999999996 46.99174000000005L95.74499999999989 47.052850000000035L95.3504999999999 48.77136000000007L95.62009999999998 50.50895000000003L94.8454999999999 52.56505000000004L95.57449999999994 53.54975999999999L95.23199999999997 54.33967000000007L94.15819999999997 54.81641000000002L92.56719999999996 53.39987000000008L92.14749999999992 53.503220000000056L91.82709999999997 52.72759000000008L90.76149999999996 52.21042L90.26289999999995 50.61484000000007L89.05829999999992 49.44654000000003L87.71639999999991 51.58845000000008L84.88559999999995 54.23422000000005L83.62569999999994 54.543210000000045L83.60809999999992 54.66154000000006L81.77269999999999 57.07249999999999L77.9008 57.64381000000003L75.3246999999999 57.20979999999997z">
      <title id="t76">Première circonscription du Cher</title>
      <desc id="d76">Cantons de : Les Aix-d'Angillon, Argent-sur-Sauldre, Aubigny-sur-Nère, Bourges II, Bourges IV, Bourges V, La Chapelle-d'Angillon, Henrichemont, Léré, Saint-Martin-d'Auxigny, Sancerre, Vailly-sur-Sauldre</desc>
    </path><path class="circo" id="id-018-02" d="M26.571199999999976 82.29447000000005L26.893699999999967 83.02094L26.360799999999927 84.02407000000005L26.088699999999903 84.27178000000004L25.139599999999973 84.54862000000003L25.180599999999913 87.08856000000003L28.54959999999994 89.68429000000003L31.381999999999948 89.16760999999997L32.3445999999999 89.86994000000004L31.078499999999963 92.58548000000008L29.899799999999914 93.82694000000004L30.833699999999908 95.22507000000007L31.105199999999968 98.13790000000006L32.49329999999998 99.00903000000005L34.566999999999894 96.33041000000003L35.747699999999895 92.83959000000004L37.40829999999994 94.11619000000007L39.89409999999998 94.60687000000007L40.80589999999995 93.76513L40.95679999999993 92.94966L40.4070999999999 91.61201000000005L40.715599999999995 91.41185000000007L40.51469999999995 91.18754000000001L41.399 89.73505999999998L43.41779999999994 89.06320000000005L43.64829999999995 87.35545000000002L45.421299999999974 86.06747000000007L44.43299999999999 84.25434000000007L43.10089999999991 83.29633999999999L43.01099999999997 82.88666999999998L40.98049999999989 82.97847000000002L41.05069999999989 82.24090999999999L43.288599999999974 80.32542999999998L44.10069999999996 80.20817L45.310299999999984 80.52841999999998L46.40859999999998 79.87034000000006L46.704099999999926 79.63666999999998L46.747999999999934 78.61842999999999L47.49219999999991 78.51335000000006L47.06719999999996 77.33735999999999L48.057399999999916 75.05345999999997L47.11149999999998 72.53462000000002L47.092199999999934 72.10906L48.206899999999905 71.48846000000003L48.38379999999995 70.67362000000003L47.562599999999975 69.71641L46.71399999999994 69.64951000000008L47.85019999999997 68.61601000000007L47.1232 67.83653000000004L49.17459999999994 68.21167000000003L52.4310999999999 67.11451L52.33319999999992 66.1757L53.287399999999934 65.50931000000003L54.28539999999998 66.55014000000006L56.13969999999995 65.12486000000001L57.75979999999993 63.69766000000004L57.21709999999996 63.21443999999997L55.49739999999997 63.4212L53.48619999999994 62.71519999999998L52.00689999999997 63.259790000000066L51.43579999999997 62.20792000000006L47.43049999999994 61.61751000000004L47.297399999999925 60.734230000000025L46.44189999999992 59.722080000000005L43.474399999999946 57.84612000000004L42.60269999999991 57.987030000000004L42.53529999999989 56.75374999999997L44.16859999999997 56.16021999999998L44.31099999999992 54.88083000000006L43.30499999999995 54.12288000000001L42.76789999999994 52.97546999999997L41.53149999999994 52.86297999999999L40.909799999999905 52.30114000000003L40.99599999999998 49.16536000000008L41.91279999999995 47.700289999999995L43.07529999999997 47.123609999999985L43.63749999999993 44.13797999999997L44.7192 43.502230000000054L46.18809999999996 44.30036000000007L46.913799999999924 42.245450000000005L46.511499999999955 39.65784000000008L46.981899999999996 38.47645L46.31759999999997 35.95297000000005L46.6407999999999 34.24581999999998L42.423799999999915 33.55138999999997L42.09349999999995 33.27317000000005L42.17479999999989 32.43178999999998L40.99649999999997 31.962480000000028L40.65389999999991 30.74644999999998L39.107599999999934 30.12372000000005L39.1558 29.27893000000006L38.47929999999997 28.202440000000024L38.75569999999993 27.882040000000075L36.583099999999945 28.064160000000015L35.17319999999995 24.342989999999986L30.79129999999998 28.03363999999999L28.947399999999902 26.129459999999995L29.11119999999994 27.471070000000054L27.905199999999923 29.880390000000034L27.42459999999994 32.99481000000003L28.639499999999998 32.65331000000003L28.918999999999983 32.968830000000025L29.942299999999932 35.67861000000005L29.320699999999988 37.18184000000008L30.09719999999993 37.472440000000006L30.64919999999995 38.64849000000004L31.751499999999965 39.322700000000054L32.530399999999986 41.34704999999997L31.06479999999999 42.19670000000008L30.468599999999924 43.73090000000002L28.884599999999978 43.983119999999985L28.39569999999992 43.31289000000004L27.179899999999975 43.205010000000016L25.405099999999948 43.295600000000036L21.456899999999905 45.34541999999999L21.257199999999898 45.74476000000004L20.494399999999928 45.34041000000002L18.883899999999926 45.66521999999998L17.128499999999917 44.40998000000002L17.116999999999962 44.39319999999998L14.188799999999901 42.61904000000004L12.62749999999994 44.683220000000006L12.600199999999973 45.90283999999997L10.288799999999924 47.03656999999998L10.025199999999927 47.794579999999996L11.48129999999992 48.41565000000003L12.001299999999901 49.61805000000004L11.379299999999944 51.28219999999999L10.907299999999964 51.99968000000001L8.575199999999995 53.01049999999998L6.684299999999894 51.327510000000075L5.493499999999926 51.48019999999997L5.354499999999916 54.10048000000006L5.761999999999944 56.70047999999997L4.175899999999956 57.15178000000003L3.35469999999998 58.077170000000024L3.1105999999999767 58.48950000000002L2.824799999999982 59.77920000000006L0 62.55352000000005L0.5563999999999396 62.77992000000006L1.816699999999969 63.79547000000002L2.9771999999999252 63.64506000000006L4.589899999999943 63.73451L6.13919999999996 65.02407000000005L9.232699999999909 66.33111000000008L9.643299999999954 65.80012999999997L10.054199999999923 65.92475999999999L11.214699999999993 65.38238999999999L12.394199999999955 65.89116999999999L13.834199999999896 65.03044L14.693499999999972 64.31262000000004L16.038999999999987 63.37473L17.036399999999958 63.76774L18.88829999999996 63.02292L19.19259999999997 64.65661L19.98709999999994 64.98734999999999L19.551599999999894 66.19375000000002L19.730899999999906 66.99302999999998L21.400999999999954 66.83508000000006L21.440999999999917 65.98009000000002L21.824199999999905 65.78314999999998L23.10699999999997 65.63815999999997L23.728099999999927 66.20636000000002L23.291200000000003 66.88614000000007L23.902799999999957 69.30102999999997L23.703199999999924 70.12265000000002L22.95959999999991 70.52150000000006L22.444799999999987 71.65703000000008L21.669599999999946 73.19304999999997L21.842399999999998 73.58960000000002L23.097699999999918 73.60693000000003L23.7183 74.10473999999999L24.66489999999999 75.38705000000004L25.441499999999905 75.65528000000006L26.23079999999993 76.54755L27.4079999999999 77.32302000000004L28.425199999999904 79.22054000000003L27.23249999999996 80.18225000000007L27.212699999999927 81.29208000000006L26.571199999999976 82.29447000000005z">
      <title id="t77">Deuxième circonscription du Cher</title>
      <desc id="d77">Cantons de : Bourges I, Chârost, Graçay, Lury-sur-Arnon, Mehun-sur-Yèvre, Saint-Doulchard, Vierzon I, Vierzon II</desc>
    </path><path class="circo" id="id-018-03" d="M70.44749999999999 65.98082999999997L68.13259999999991 64.02507000000003L66.92009999999993 64.31398999999999L65.79219999999998 65.48978999999997L64.23529999999994 63.609710000000064L63.83149999999989 63.76287000000002L63.26559999999995 64.92802000000006L62.97159999999997 65.24463000000003L62.19599999999991 65.62392L61.96519999999998 65.98845000000006L62.237199999999916 67.19079999999997L61.29589999999996 68.07472000000007L59.0628999999999 67.76112L59.28909999999996 70.74437999999998L58.36319999999989 71.63931000000002L57.57379999999989 72.62095L58.50599999999997 74.52592000000004L58.164499999999975 74.76786000000004L55.34009999999989 71.46492999999998L53.77049999999997 69.41971999999998L53.09529999999995 68.98736000000008L52.55009999999993 69.17272000000003L52.33339999999998 69.99227000000008L51.865099999999984 69.48072000000002L51.14119999999991 69.31371999999999L49.283199999999965 69.51364000000001L47.562599999999975 69.71641L48.38379999999995 70.67362000000003L48.206899999999905 71.48846000000003L47.092199999999934 72.10906L47.11149999999998 72.53462000000002L48.057399999999916 75.05345999999997L47.06719999999996 77.33735999999999L47.49219999999991 78.51335000000006L46.747999999999934 78.61842999999999L46.704099999999926 79.63666999999998L46.40859999999998 79.87034000000006L45.310299999999984 80.52841999999998L44.10069999999996 80.20817L43.288599999999974 80.32542999999998L41.05069999999989 82.24090999999999L40.98049999999989 82.97847000000002L43.01099999999997 82.88666999999998L43.10089999999991 83.29633999999999L44.43299999999999 84.25434000000007L45.421299999999974 86.06747000000007L43.64829999999995 87.35545000000002L43.41779999999994 89.06320000000005L41.399 89.73505999999998L40.51469999999995 91.18754000000001L40.715599999999995 91.41185000000007L40.4070999999999 91.61201000000005L40.95679999999993 92.94966L40.80589999999995 93.76513L39.89409999999998 94.60687000000007L37.40829999999994 94.11619000000007L35.747699999999895 92.83959000000004L34.566999999999894 96.33041000000003L32.49329999999998 99.00903000000005L31.105199999999968 98.13790000000006L30.833699999999908 95.22507000000007L29.899799999999914 93.82694000000004L29.022699999999986 93.84460000000001L28.089999999999918 94.78107L26.845199999999977 95.23190999999997L26.64919999999995 95.56560999999999L27.027199999999993 97.18761000000006L25.78679999999997 99.03053L25.36229999999989 99.07365000000004L24.673000000000002 99.45437000000004L23.10489999999993 99.35906999999997L23.252199999999903 99.73541999999998L25.25559999999996 102.52805999999998L28.029899999999998 104.55214000000001L28.93089999999995 105.99967000000004L28.863099999999918 106.80845999999997L27.188199999999938 109.21663000000001L25.132299999999987 109.68523000000005L24.761199999999917 110.88815999999997L25.48219999999992 111.88711L26.82459999999992 112.64980000000003L27.004699999999957 113.02516000000003L26.575599999999895 114.61318000000006L27.744100000000003 115.10433999999998L28.529199999999946 114.77508999999998L29.35489999999993 114.96897000000001L30.116899999999987 115.36007000000006L31.17089999999996 116.71008000000006L32.385599999999954 117.12883L30.840599999999995 119.58780000000002L31.04869999999994 120.41984000000002L32.066599999999994 121.19853L33.34619999999995 122.68245999999999L34.12779999999998 122.49462000000005L34.47109999999998 123.23035000000004L35.27559999999994 123.32457L34.580799999999954 125.34819000000005L35.09749999999997 126.55425000000002L34.864799999999946 128.22244999999998L34.535699999999906 128.50329L33.61059999999998 129.13234999999997L33.37989999999991 129.90223000000003L33.934999999999945 132.76267000000007L32.662099999999896 133.81484999999998L34.59609999999998 137.56693000000007L34.706699999999955 139.25784L34.960699999999974 140.02261L35.72219999999993 140.1282L35.9701 141.61460999999997L36.49459999999999 142.19738000000007L36.1866 143.29339000000004L36.18709999999999 143.34893999999997L35.59409999999991 144.52425000000005L32.04169999999999 146.12185L32.37009999999998 148.97217999999998L33.43439999999998 150.26907000000006L34.88889999999992 150.38277000000005L35.98829999999998 149.74842L37.92789999999991 150.32974000000002L40.7337 150.07484999999997L41.0145 150.38536L43.06189999999992 150.72174000000007L42.839599999999905 149.88198L43.3694999999999 146.90373L45.13739999999996 143.93304L46.117599999999925 144.78811000000007L46.9985999999999 144.17484000000002L47.191499999999905 143.14390000000003L46.79299999999989 142.41356000000007L47.58089999999993 140.95486000000005L49.0317 139.45472000000007L50.478599999999915 138.62318000000005L51.8214999999999 138.64035L54.41709999999989 138.32695L55.536899999999946 137.69122000000004L56.39799999999991 137.77733L57.09579999999994 138.30088999999998L59.15599999999995 137.62475000000006L60.222299999999905 136.86119000000008L61.378099999999904 137.05172000000005L61.38109999999995 137.88605000000007L61.69329999999991 138.16438000000005L62.50299999999993 138.00353000000007L63.000099999999975 137.33305000000007L63.810299999999984 137.25904000000003L64.7888999999999 138.46580000000006L68.18049999999994 136.14153L71.11309999999992 134.53611999999998L71.30319999999995 134.15899000000002L70.65649999999994 133.08362L70.88249999999994 131.88566000000003L70.04279999999994 129.12022000000002L68.80399999999997 129.20904000000007L68.2509 127.70700999999997L67.48609999999996 127.37801000000002L69.20939999999996 126.44286999999997L68.86449999999991 125.27789000000007L69.86119999999994 123.99534000000006L69.58709999999996 122.77483000000007L67.36809999999991 122.04412000000002L67.67039999999997 121.20386000000008L70.69679999999994 119.96127999999999L70.77199999999993 120.78622000000007L72.20639999999992 121.53080999999997L72.85629999999992 120.02334000000008L72.8798999999999 119.60154999999997L72.01289999999995 118.72554000000002L72.16929999999991 117.48189000000002L72.57249999999999 117.35834L74.26059999999995 117.52575000000002L74.94899999999996 116.48500999999999L76.78639999999996 115.58554000000004L76.65749999999991 114.81810000000007L77.7029 113.53899999999999L78.9366 113.40026L79.0847 111.31720000000007L81.2784999999999 110.20590000000004L81.60879999999997 110.42597L82.3966999999999 112.36991L83.3587 113.19306000000006L83.64829999999995 113.96812999999997L84.33579999999995 113.53838000000007L85.02779999999996 113.80768999999998L85.70759999999996 113.37261000000001L86.61439999999993 111.99674000000005L89.51039999999989 111.77647999999999L90.28919999999994 112.67150000000004L91.06099999999992 112.85751000000005L90.96809999999994 110.90466000000004L93.57869999999991 108.63682000000006L94.01009999999997 107.47183000000007L95.5865 106.77123000000006L96.60289999999998 106.06707000000006L96.46479999999997 105.25683000000004L97.12509999999997 104.73291000000006L98.32039999999995 104.34393L99.06509999999992 104.59708999999998L100.1371999999999 104.66003L100.7672 103.26995999999997L102.46589999999992 103.32634000000007L103.88589999999999 104.12887L105.54649999999992 103.77238L106.51929999999993 104.57424000000003L106.90039999999999 104.38328000000001L107.49529999999993 102.55662000000007L109.07399999999996 100.62945000000002L109.14599999999996 99.82736999999997L108.8143 98.93547000000001L110.07389999999998 97.25920000000008L109.58109999999999 92.57254999999998L109.37199999999996 91.64832999999999L108.44399999999996 90.18363L109.6617 86.87557000000004L109.78719999999998 86.54043999999999L110.82809999999995 84.67264999999998L110.9183999999999 83.82393000000002L110.25939999999991 83.29633999999999L109.61219999999992 81.74346000000003L109.72719999999993 79.22266000000002L110.43709999999999 77.32788000000005L110.53089999999997 75.13103000000001L109.58219999999994 73.11334L108.7618 72.85336000000007L106.06509999999992 70.93231000000003L105.76959999999997 70.12215000000003L106.08909999999992 68.87153L106.84039999999993 67.28357000000005L106.74589999999989 65.51402000000007L106.7245999999999 65.35666000000003L106.57869999999991 62.84314000000006L106.2962 62.50891999999999L105.63479999999993 61.42543999999998L105.81369999999993 59.362960000000044L105.5299 59.011690000000044L103.98249999999996 53.78971999999999L103.65129999999999 53.060929999999985L102.3916999999999 50.25909999999999L102.62799999999993 47.19662000000005L102.7627 46.43103000000008L101.92599999999993 45.14011000000005L98.0388999999999 45.819169999999986L96.92269999999996 46.99174000000005L95.74499999999989 47.052850000000035L95.3504999999999 48.77136000000007L95.62009999999998 50.50895000000003L94.8454999999999 52.56505000000004L95.57449999999994 53.54975999999999L95.23199999999997 54.33967000000007L94.15819999999997 54.81641000000002L92.56719999999996 53.39987000000008L92.14749999999992 53.503220000000056L91.82709999999997 52.72759000000008L90.76149999999996 52.21042L90.26289999999995 50.61484000000007L89.05829999999992 49.44654000000003L87.71639999999991 51.58845000000008L84.88559999999995 54.23422000000005L83.62569999999994 54.543210000000045L83.60809999999992 54.66154000000006L81.77269999999999 57.07249999999999L77.9008 57.64381000000003L75.3246999999999 57.20979999999997L73.64269999999999 58.51850999999999L74.67769999999996 59.90370000000007L77.25819999999999 60.27654000000007L77.60699999999997 60.54300999999998L77.45339999999999 61.40206999999998L77.5249 62.17692999999997L76.68259999999998 62.15894000000003L76.39009999999996 62.46731L75.38189999999997 64.80974000000003L73.95729999999992 66.86005L73.44859999999994 67.37047000000007L72.41139999999996 66.98865999999998L70.44749999999999 65.98082999999997z">
      <title id="t78">Troisième circonscription du Cher</title>
      <desc id="d78">Cantons de : Baugy, Bourges III, Charenton-du-Cher, Châteaumeillant, Châteauneuf-sur-Cher, Le Châtelet, Dun-sur-Auron, La Guerche-sur-l'Aubois, Levet, Lignières, Nérondes, Saint-Amand-Montrond, Sancergues, Sancoins, Saulzais-le-Potier</desc>
    </path></svg>