<svg xmlns="http://www.w3.org/2000/svg" version="1.1" xmlns:xlink="http://www.w3.org/1999/xlink" xmlns:svgjs="http://svgjs.dev/svgjs" viewBox="807.68113 604.11803 110.9183999999999 150.72174000000007"><path class="circo" id="id-018-01" d="M 883.00583,661.32783 881.32383,662.63654 882.35883,664.02173 884.93933,664.39457 885.28813,664.66104 885.13453,665.5201 885.20603,666.29496 884.36373,666.27697 884.07123,666.58534 883.06303,668.92777 881.63843,670.97808 881.12973,671.4885 880.09253,671.10669 878.12863,670.09886 875.81373,668.1431 874.60123,668.43202 873.47333,669.60782 871.91643,667.72774 871.51263,667.8809 870.94673,669.04605 870.65273,669.36266 869.87713,669.74195 869.64633,670.10648 869.91833,671.30883 868.97703,672.19275 866.74403,671.87915 866.97023,674.86241 866.04433,675.75734 865.25493,676.73898 866.18713,678.64395 865.84563,678.88589 863.02123,675.58296 861.45163,673.53775 860.77643,673.10539 860.23123,673.29075 860.01453,674.1103 859.54623,673.59875 858.82233,673.43175 855.24373,673.83444 854.39513,673.76754 855.53133,672.73404 854.80433,671.95456 856.85573,672.3297 860.11223,671.23254 860.01433,670.29373 860.96853,669.62734 861.96653,670.66817 863.82083,669.24289 865.44093,667.81569 864.89823,667.33247 863.17853,667.53923 861.16733,666.83323 859.68803,667.37782 859.11693,666.32595 855.11163,665.73554 854.97853,664.85226 854.12303,663.84011 851.15553,661.96415 850.28383,662.10506 850.21643,660.87178 851.84973,660.27825 851.99213,658.99886 850.98613,658.24091 850.44903,657.0935 849.21263,656.98101 848.59093,656.41917 848.67713,653.28339 849.59393,651.81832 850.75643,651.24164 851.31863,648.25601 852.40033,647.62026 853.86923,648.41839 854.59493,646.36348 854.19263,643.77587 854.66303,642.59448 853.99873,640.071 854.32193,638.36385 850.10493,637.66942 849.77463,637.3912 849.85593,636.54982 848.67763,636.08051 848.33503,634.86448 846.78873,634.24175 846.83693,633.39696 846.16043,632.32047 846.43683,632.00007 847.56773,631.08339 847.82333,627.61851 847.13843,626.54108 847.67833,625.41331 847.10203,624.28245 847.91223,621.41585 846.82843,620.834 845.50633,620.94887 843.51973,621.89752 845.08553,617.80504 843.64643,614.57019 843.32463,614.26178 838.02113,613.99403 837.49443,613.28104 837.70843,611.57086 837.01743,609.93043 838.59163,609.19154 840.13833,607.64985 843.62023,606.84288 846.29983,605.25537 847.18703,605.1367 851.47273,604.11803 851.81053,604.92899 852.96623,605.59749 854.35053,606.7023 856.03953,607.21681 857.46743,608.90935 858.53273,609.61663 859.12493,608.96758 860.36903,608.67428 860.88393,607.96122 864.09103,606.54962 864.88593,606.95257 865.64933,608.55857 868.53003,611.33891 868.61993,611.77722 869.91113,611.80293 871.08373,611.26382 873.61023,610.96987 875.09903,611.75316 875.63753,612.86941 877.25833,613.05697 878.45643,614.18811 879.27663,615.52152 878.87633,617.05457 882.60393,619.06751 882.75163,621.62656 883.75233,622.3028 885.19573,622.49047 887.59383,621.72845 888.68463,620.51506 888.20463,619.82014 888.49263,619.50883 888.36123,617.43385 888.66283,615.81678 889.05973,615.58083 889.98423,617.03846 891.67253,617.23484 893.14933,618.1484 894.64453,620.70995 895.40633,621.07279 897.08753,620.61811 898.35873,618.88918 901.19853,617.80555 902.46923,619.39872 902.70903,620.50387 903.11433,622.24381 904.38033,623.78763 904.98673,625.32857 905.04113,625.56618 906.03823,627.83618 906.03773,628.66435 905.15163,630.00326 905.03603,631.63055 902.55263,637.21462 901.63683,638.65294 900.82633,640.18227 901.11943,641.8428 901.86103,643.23234 903.30893,643.8941 904.45723,644.4491 905.33903,645.38599 906.88843,647.35223 909.60713,649.25814 905.72003,649.9372 904.60383,651.10977 903.42613,651.17088 903.03163,652.88939 903.30123,654.62698 902.52663,656.68308 903.25563,657.66779 902.91313,658.4577 901.83933,658.93444 900.24833,657.5179 899.82863,657.62125 899.50823,656.84562 898.44263,656.32845 897.94403,654.73287 896.73943,653.56457 895.39753,655.70648 892.56673,658.35225 891.30683,658.66124 891.28923,658.77957 889.45383,661.19053 885.58193,661.76184 883.00583,661.32783 z">
      <title id="t76">Première circonscription du Cher</title>
      <desc id="d76">Cantons de : Les Aix-d'Angillon, Argent-sur-Sauldre, Aubigny-sur-Nère, Bourges II, Bourges IV, Bourges V, La Chapelle-d'Angillon, Henrichemont, Léré, Saint-Martin-d'Auxigny, Sancerre, Vailly-sur-Sauldre</desc>
    </path><path class="circo" id="id-018-02" d="M 834.25233,686.4125 834.57483,687.13897 834.04193,688.1421 833.76983,688.38981 832.82073,688.66665 832.86173,691.20659 836.23073,693.80232 839.06313,693.28564 840.02573,693.98797 838.75963,696.70351 837.58093,697.94497 838.51483,699.3431 838.78633,702.25593 840.17443,703.12706 842.24813,700.44844 843.42883,696.95762 845.08943,698.23422 847.57523,698.7249 848.48703,697.88316 848.63793,697.06769 848.08823,695.73004 848.39673,695.52988 848.19583,695.30557 849.08013,693.85309 851.09893,693.18123 851.32943,691.47348 853.10243,690.1855 852.11413,688.37237 850.78203,687.41437 850.69213,687.0047 848.66163,687.0965 848.73183,686.35894 850.96973,684.44346 851.78183,684.3262 852.99143,684.64645 854.08973,683.98837 854.38523,683.7547 854.42913,682.73646 855.17333,682.63138 854.74833,681.45539 855.73853,679.17149 854.79263,676.65265 854.77333,676.22709 855.88803,675.60649 856.06493,674.79165 855.24373,673.83444 854.39513,673.76754 855.53133,672.73404 854.80433,671.95456 856.85573,672.3297 860.11223,671.23254 860.01433,670.29373 860.96853,669.62734 861.96653,670.66817 863.82083,669.24289 865.44093,667.81569 864.89823,667.33247 863.17853,667.53923 861.16733,666.83323 859.68803,667.37782 859.11693,666.32595 855.11163,665.73554 854.97853,664.85226 854.12303,663.84011 851.15553,661.96415 850.28383,662.10506 850.21643,660.87178 851.84973,660.27825 851.99213,658.99886 850.98613,658.24091 850.44903,657.0935 849.21263,656.98101 848.59093,656.41917 848.67713,653.28339 849.59393,651.81832 850.75643,651.24164 851.31863,648.25601 852.40033,647.62026 853.86923,648.41839 854.59493,646.36348 854.19263,643.77587 854.66303,642.59448 853.99873,640.071 854.32193,638.36385 850.10493,637.66942 849.77463,637.3912 849.85593,636.54982 848.67763,636.08051 848.33503,634.86448 846.78873,634.24175 846.83693,633.39696 846.16043,632.32047 846.43683,632.00007 844.26423,632.18219 842.85433,628.46102 838.47243,632.15167 836.62853,630.24749 836.79233,631.5891 835.58633,633.99842 835.10573,637.11284 836.32063,636.77134 836.60013,637.08686 837.62343,639.79664 837.00183,641.29987 837.77833,641.59047 838.33033,642.76652 839.43263,643.44073 840.21153,645.46508 838.74593,646.31473 838.14973,647.84893 836.56573,648.10115 836.07683,647.43092 834.86103,647.32304 833.08623,647.41363 829.13803,649.46345 828.93833,649.86279 828.17553,649.45844 826.56503,649.78325 824.80963,648.52801 824.79813,648.51123 821.86993,646.73707 820.30863,648.80125 820.28133,650.02087 817.96993,651.1546 817.70633,651.91261 819.16243,652.53368 819.68243,653.73608 819.06043,655.40023 818.58843,656.11771 816.25633,657.12853 814.36543,655.44554 813.17463,655.59823 813.03563,658.21851 813.44313,660.81851 811.85703,661.26981 811.03583,662.1952 810.79173,662.60753 810.50593,663.89723 807.68113,666.67155 808.23753,666.89795 809.49783,667.9135 810.65833,667.76309 812.27103,667.85254 813.82033,669.1421 816.91383,670.44914 817.32443,669.91816 817.73533,670.04279 818.89583,669.50042 820.07533,670.0092 821.51533,669.14847 822.37463,668.43065 823.72013,667.49276 824.71753,667.88577 826.56943,667.14095 826.87373,668.77464 827.66823,669.10538 827.23273,670.31178 827.41203,671.11106 829.08213,670.95311 829.12213,670.09812 829.50533,669.90118 830.78813,669.75619 831.40923,670.32439 830.97233,671.00417 831.58393,673.41906 831.38433,674.24068 830.64073,674.63953 830.12593,675.77506 829.35073,677.31108 829.52353,677.70763 830.77883,677.72496 831.39943,678.22277 832.34603,679.50508 833.12263,679.77331 833.91193,680.66558 835.08913,681.44105 836.10633,683.33857 834.91363,684.30028 834.89383,685.41011 834.25233,686.4125 z">
      <title id="t77">Deuxième circonscription du Cher</title>
      <desc id="d77">Cantons de : Bourges I, Chârost, Graçay, Lury-sur-Arnon, Mehun-sur-Yèvre, Saint-Doulchard, Vierzon I, Vierzon II</desc>
    </path><path class="circo" id="id-018-03" d="M 878.12863,670.09886 875.81373,668.1431 874.60123,668.43202 873.47333,669.60782 871.91643,667.72774 871.51263,667.8809 870.94673,669.04605 870.65273,669.36266 869.87713,669.74195 869.64633,670.10648 869.91833,671.30883 868.97703,672.19275 866.74403,671.87915 866.97023,674.86241 866.04433,675.75734 865.25493,676.73898 866.18713,678.64395 865.84563,678.88589 863.02123,675.58296 861.45163,673.53775 860.77643,673.10539 860.23123,673.29075 860.01453,674.1103 859.54623,673.59875 858.82233,673.43175 856.96433,673.63167 855.24373,673.83444 856.06493,674.79165 855.88803,675.60649 854.77333,676.22709 854.79263,676.65265 855.73853,679.17149 854.74833,681.45539 855.17333,682.63138 854.42913,682.73646 854.38523,683.7547 854.08973,683.98837 852.99143,684.64645 851.78183,684.3262 850.96973,684.44346 848.73183,686.35894 848.66163,687.0965 850.69213,687.0047 850.78203,687.41437 852.11413,688.37237 853.10243,690.1855 851.32943,691.47348 851.09893,693.18123 849.08013,693.85309 848.19583,695.30557 848.39673,695.52988 848.08823,695.73004 848.63793,697.06769 848.48703,697.88316 847.57523,698.7249 845.08943,698.23422 843.42883,696.95762 842.24813,700.44844 840.17443,703.12706 838.78633,702.25593 838.51483,699.3431 837.58093,697.94497 836.70383,697.96263 835.77113,698.8991 834.52633,699.34994 834.33033,699.68364 834.70833,701.30564 833.46793,703.14856 833.04343,703.19168 832.35413,703.5724 830.78603,703.4771 830.93333,703.85345 832.93673,706.64609 835.71103,708.67017 836.61203,710.1177 836.54423,710.92649 834.86933,713.33466 832.81343,713.80326 832.44233,715.00619 833.16333,716.00514 834.50573,716.76783 834.68583,717.14319 834.25673,718.73121 835.42523,719.22237 836.21033,718.89312 837.03603,719.087 837.79803,719.4781 838.85203,720.82811 840.06673,721.24686 838.52173,723.70583 838.72983,724.53787 839.74773,725.31656 841.02733,726.80049 841.80893,726.61265 842.15223,727.34838 842.95673,727.4426 842.26193,729.46622 842.77863,730.67228 842.54593,732.34048 842.21683,732.62132 841.29173,733.25038 841.06103,734.02026 841.61613,736.8807 840.34323,737.93288 842.27723,741.68496 842.38783,743.37587 842.64183,744.14064 843.40333,744.24623 843.65123,745.73264 844.17573,746.31541 843.86773,747.41142 843.86823,747.46697 843.27523,748.64228 839.72283,750.23988 840.05123,753.09021 841.11553,754.3871 842.57003,754.5008 843.66943,753.86645 845.60903,754.44777 848.41483,754.19288 848.69563,754.50339 850.74303,754.83977 850.52073,754.00001 851.05063,751.02176 852.81853,748.05107 853.79873,748.90614 854.67973,748.29287 854.87263,747.26193 854.47413,746.53159 855.26203,745.07289 856.71283,743.57275 858.15973,742.74121 859.50263,742.75838 862.09823,742.44498 863.21803,741.80925 864.07913,741.89536 864.77693,742.41892 866.83713,741.74278 867.90343,740.97922 869.05923,741.16975 869.06223,742.00408 869.37443,742.28241 870.18413,742.12156 870.68123,741.45108 871.49143,741.37707 872.47003,742.58383 875.86163,740.25956 878.79423,738.65415 878.98433,738.27702 878.33763,737.20165 878.56363,736.00369 877.72393,733.23825 876.48513,733.32707 875.93203,731.82504 875.16723,731.49604 876.89053,730.5609 876.54563,729.39592 877.54233,728.11337 877.26823,726.89286 875.04923,726.16215 875.35153,725.32189 878.37793,724.07931 878.45313,724.90425 879.88753,725.64884 880.53743,724.14137 880.56103,723.71958 879.69403,722.84357 879.85043,721.59992 880.25363,721.47637 881.94173,721.64378 882.63013,720.60304 884.46753,719.70357 884.33863,718.93613 885.38403,717.65703 886.61773,717.51829 886.76583,715.43523 888.95963,714.32393 889.28993,714.544 890.07783,716.48794 891.03983,717.31109 891.32943,718.08616 892.01693,717.65641 892.70893,717.92572 893.38873,717.49064 894.29553,716.11477 897.19153,715.89451 897.97033,716.78953 898.74213,716.97554 898.64923,715.02269 901.25983,712.75485 901.69123,711.58986 903.26763,710.88926 904.28403,710.1851 904.14593,709.37486 904.80623,708.85094 906.00153,708.46196 906.74623,708.71512 907.81833,708.77806 908.44833,707.38799 910.14703,707.44437 911.56703,708.2469 913.22763,707.89041 914.20043,708.69227 914.58153,708.50131 915.17643,706.67465 916.75513,704.74748 916.82713,703.9454 916.49543,703.0535 917.75503,701.37723 917.26223,696.69058 917.05313,695.76636 916.12513,694.30166 917.34283,690.9936 917.46833,690.65847 918.50923,688.79068 918.59953,687.94196 917.94053,687.41437 917.29333,685.86149 917.40833,683.34069 918.11823,681.44591 918.21203,679.24906 917.26333,677.23137 916.44293,676.97139 913.74623,675.05034 913.45073,674.24018 913.77023,672.98956 914.52153,671.4016 914.42703,669.63205 914.40573,669.47469 914.25983,666.96117 913.97733,666.62695 913.31593,665.54347 913.49483,663.48099 913.21103,663.12972 911.66363,657.90775 911.33243,657.17896 910.07283,654.37713 910.30913,651.31465 910.44383,650.54906 909.60713,649.25814 905.72003,649.9372 904.60383,651.10977 903.42613,651.17088 903.03163,652.88939 903.30123,654.62698 902.52663,656.68308 903.25563,657.66779 902.91313,658.4577 901.83933,658.93444 900.24833,657.5179 899.82863,657.62125 899.50823,656.84562 898.44263,656.32845 897.94403,654.73287 896.73943,653.56457 895.39753,655.70648 892.56673,658.35225 891.30683,658.66124 891.28923,658.77957 889.45383,661.19053 885.58193,661.76184 883.00583,661.32783 881.32383,662.63654 882.35883,664.02173 884.93933,664.39457 885.28813,664.66104 885.13453,665.5201 885.20603,666.29496 884.36373,666.27697 884.07123,666.58534 883.06303,668.92777 881.63843,670.97808 881.12973,671.4885 880.09253,671.10669 878.12863,670.09886 z">
      <title id="t78">Troisième circonscription du Cher</title>
      <desc id="d78">Cantons de : Baugy, Bourges III, Charenton-du-Cher, Châteaumeillant, Châteauneuf-sur-Cher, Le Châtelet, Dun-sur-Auron, La Guerche-sur-l'Aubois, Levet, Lignières, Nérondes, Saint-Amand-Montrond, Sancergues, Sancoins, Saulzais-le-Potier</desc>
    </path></svg>