<svg xmlns="http://www.w3.org/2000/svg" version="1.1" xmlns:xlink="http://www.w3.org/1999/xlink" xmlns:svgjs="http://svgjs.dev/svgjs" viewBox="761.15163 835.33676 110.64110000000005 101.99784999999997"><path class="circo" id="019-01" d="M 807.50653,912.39515 807.77543,912.09033 807.57553,910.49732 806.08753,909.14009 806.12333,908.73459 805.40073,908.12075 802.75823,908.90588 802.57583,907.73532 803.51223,905.94583 803.17903,905.21921 801.73713,904.49011 800.50203,904.36937 799.60313,903.04603 798.81193,902.81161 797.25743,904.42847 797.90593,905.77615 797.37123,906.40539 795.84023,905.93546 795.36253,906.59857 794.95013,906.59929 794.30123,905.38348 795.24923,904.67936 795.68783,903.5637 794.13353,903.47032 793.06403,903.85526 792.67613,904.51399 792.42153,904.80528 791.35303,904.3824 789.84773,904.48022 789.11563,902.08829 788.64373,902.75756 787.23053,903.4585 785.67193,902.97702 784.57353,901.74934 783.78573,901.90235 782.64933,902.45014 783.14723,904.87524 781.48163,906.69081 781.35713,905.51493 779.65753,903.19647 778.82183,901.34292 777.72253,901.19099 776.38643,900.89183 776.20133,900.57817 777.56583,899.68212 776.87773,898.65341 778.86783,897.31315 778.29843,895.48639 780.42643,896.2557 780.58243,895.03443 781.86403,892.05751 781.91253,890.92033 781.24183,889.56175 780.25183,888.93447 779.70493,889.98386 778.17863,889.45465 778.19893,888.66705 778.86373,887.65748 779.20133,887.43947 779.63343,885.89636 779.88803,883.98478 780.38843,883.36363 779.73833,882.28128 777.53453,881.08922 776.57023,878.79081 777.32333,878.46149 779.00533,876.67087 779.62203,877.12877 779.69583,877.9573 780.77323,878.58281 782.75433,877.94664 783.13113,879.12472 784.24433,878.62797 783.92303,876.58924 784.57363,873.79815 782.79723,870.14612 782.12713,869.70278 781.93833,869.39302 782.20543,868.96528 782.44023,866.11988 784.34043,864.69146 784.13983,863.52934 783.33733,863.37414 783.71253,861.39628 785.31663,861.06284 785.79473,860.4055 785.83063,859.58916 788.33193,860.78024 789.34883,861.20753 790.40493,860.67997 791.56803,860.58456 792.24863,858.28373 792.88663,857.74732 794.99333,857.83926 797.04553,856.39817 797.86213,855.62266 797.94093,854.47904 798.35753,853.82957 801.03833,851.16092 802.26493,850.22652 803.40703,850.52755 805.62013,849.69496 805.89723,848.50887 806.77553,848.61661 806.88413,848.2305 807.67883,848.15996 807.89743,847.82368 808.64873,845.20026 809.41113,845.49092 809.86663,846.1469 810.99693,845.64215 811.84313,846.50808 812.10003,847.34337 813.68393,847.54674 814.44523,846.67023 816.21243,847.38959 816.57073,847.18075 816.81833,845.53934 818.45533,845.69385 819.15563,845.31049 818.97283,844.09553 818.24113,843.7156 818.24523,843.30012 819.26273,842.61964 819.96363,841.62332 820.75863,841.74724 821.34253,842.34662 822.12563,842.24401 822.43843,840.62284 823.14613,840.1693 824.80533,840.17819 825.36543,840.72901 826.07883,840.28789 826.69923,839.21512 826.98253,837.14947 828.05203,836.45693 830.15073,836.29709 830.98453,835.33676 831.40523,835.40086 831.99393,836.52722 833.88663,837.45485 834.03283,838.66187 834.05213,839.67603 835.08253,838.96998 836.47733,839.85552 837.83983,838.92577 839.35013,840.30518 840.16263,840.45652 840.53123,838.72763 841.66523,839.19052 842.54313,840.58826 844.14293,841.00488 843.33183,842.92051 843.67733,843.15699 844.78233,842.77872 844.93163,841.53421 845.77883,843.35513 846.57583,843.30791 847.07363,843.95071 847.81913,843.7857 848.75973,844.49782 849.89523,844.10697 849.94343,847.44141 851.20233,847.33681 852.18233,846.55686 852.93683,846.18315 854.06243,846.6751 855.86543,845.01093 856.50513,843.92297 856.39883,843.08555 856.19663,842.27834 856.48033,841.96904 858.11763,841.49306 858.64793,841.54249 859.30513,842.04049 861.75543,841.99435 863.90213,843.17878 864.63783,842.16952 865.44383,841.9655 866.53033,840.73461 866.92903,840.71878 867.03603,839.55365 868.68523,838.50427 871.18263,841.70999 871.04923,843.3034 871.63813,843.70866 871.44533,844.50865 871.79273,845.25708 870.90613,845.8267 870.59013,846.48047 870.59273,847.25483 871.58703,848.48747 870.96463,849.52825 871.13333,850.17315 870.54253,850.45704 868.18883,850.28914 867.82663,850.9714 867.52113,854.28852 866.41983,855.12298 866.24953,855.89648 867.16823,857.79894 868.35323,859.01364 869.03943,860.4929 870.70433,860.85077 870.89713,862.10219 870.62783,862.41532 870.87693,863.61913 870.61903,864.3691 870.91533,865.09485 870.16773,866.56321 870.11923,867.36076 870.53523,868.25692 870.06933,869.99458 870.14563,870.73537 869.66863,872.03382 869.32913,872.18543 869.48923,873.26587 869.08913,873.79318 868.69823,876.59687 868.29523,877.30509 870.84053,879.25692 871.24433,879.19022 871.67123,880.62433 871.34113,881.73901 870.70483,881.41261 870.07143,881.91025 868.50533,881.92018 867.86213,882.3799 867.67183,883.17331 866.66753,881.5858 864.38633,881.37824 864.07173,880.97945 862.81983,879.87348 861.20443,879.74479 860.55203,879.24288 860.30923,878.47396 859.23843,877.86624 857.59923,877.69078 857.04063,877.68545 856.62543,878.34198 858.20213,881.19936 857.75043,881.88956 857.84703,882.56989 857.83093,884.6182 856.73243,885.8394 857.33143,886.88757 856.89443,887.99966 855.74273,888.48062 853.72083,888.93761 852.87643,890.39059 851.53193,892.99346 850.32533,893.02837 849.77803,892.82237 849.10133,893.62726 848.72963,895.2667 847.56563,895.75306 847.34373,896.1173 847.18383,896.51365 847.24263,897.78525 846.10693,898.32794 845.40343,899.39146 844.07403,900.45579 844.11403,900.88024 843.38693,901.15938 843.10263,900.89279 842.89903,900.58191 841.97173,901.08926 841.23363,900.83945 841.13143,899.65484 840.81023,899.40933 839.85553,900.69222 838.73393,900.54353 838.15133,900.05762 837.44993,900.30118 836.76363,899.95672 836.38893,899.96203 836.21323,901.48001 834.69593,901.76467 833.94133,900.94867 833.21063,900.79745 832.47063,900.95724 832.34443,901.73679 830.31773,902.59348 829.50163,903.24232 829.21813,903.52823 829.55463,905.09909 829.02523,905.70826 827.64753,907.71362 827.89573,908.86441 826.33833,912.56828 825.43553,913.49878 823.42063,914.66173 823.05423,916.55564 823.66193,917.98725 823.31803,918.70181 822.12493,918.82831 822.08603,920.04368 821.06213,920.59833 821.07123,921.75647 819.48783,922.90696 819.01063,922.35779 818.34813,922.62594 817.64583,922.19922 816.00623,922.38714 815.32963,921.96029 814.17903,920.8686 812.38833,919.10359 811.60863,918.76079 810.81043,916.81933 810.09653,916.6339 809.44583,916.97777 809.05603,916.42752 807.87593,915.5209 807.85933,915.14589 807.93653,913.06969 807.50653,912.39515 z">
      <title id="t79">Première circonscription de Corrèze</title>
      <desc id="d79">Cantons de : Argentat, Bort-les-Orgues, Bugeat, Corrèze, Donzenac, Egletons, Eygurande, Lapleau, Meymac, Neuvic, La Roche-Canillac, Seilhac, Sornac, Treignac, Tulle Campagne Nord, Tulle Campagne Sud, Tulle Urbain Nord, Tulle Urbain Sud, Ussel Est, Ussel Ouest, Uzerche, Vigeois</desc>
    </path><path class="circo" id="019-02" d="M 765.78123,906.78282 764.65043,907.8859 763.53123,907.92255 763.47863,908.67829 765.66903,909.79168 766.54183,910.68219 768.09573,911.26833 769.13643,910.61338 770.21943,911.18181 771.77033,910.71075 771.77103,911.62777 772.99403,911.82899 774.19703,911.42546 775.71493,912.14418 776.00373,912.30322 776.96493,912.72646 777.00153,913.52962 776.60993,914.21994 775.20993,915.01955 774.00303,914.9933 774.15663,915.63121 774.43113,915.36519 775.27943,916.0463 775.14653,917.22122 775.95573,918.60647 776.36213,919.31253 775.81483,920.39989 776.62283,920.61434 776.83573,921.43041 778.79643,924.13965 779.95433,925.43693 780.98243,926.07941 781.36713,925.94089 782.42193,925.34325 782.40823,924.52259 782.64613,924.54183 784.84513,923.00921 785.99643,922.91382 786.62673,922.43394 787.77903,922.3875 788.08733,924.00133 788.77563,924.33521 790.79263,922.92705 793.53823,923.72721 793.61393,924.28482 793.66503,923.87444 794.06473,923.77424 795.60473,923.87191 797.26323,924.71839 797.37443,925.47998 798.92243,927.24119 800.02413,927.43919 800.69583,928.65124 801.63963,929.37261 802.09783,931.4081 802.29003,931.68948 802.49603,931.62977 803.25653,931.58712 804.81513,932.49559 805.50033,932.94654 805.94123,934.86569 805.64983,935.11366 807.04863,935.80303 807.64523,936.82512 807.69443,936.94433 808.53923,936.10632 808.63743,935.33942 809.97763,936.60001 809.86703,937.33461 809.92063,937.32404 810.34303,936.61394 811.93123,936.39651 812.34863,935.69292 812.53653,934.55694 812.90353,934.44873 813.12773,935.18619 813.48853,935.31816 814.19243,934.21778 817.25583,933.00576 817.36433,932.2146 819.01433,930.37391 820.40463,930.55055 820.66333,930.30686 821.76593,931.14341 821.90003,933.19158 822.68733,933.38761 823.16423,932.68467 825.52183,930.91752 827.55613,930.61568 830.68873,929.7221 831.47513,930.55884 832.20113,930.58263 834.42883,929.62908 834.80563,929.47645 835.88123,929.98144 838.18353,929.47201 838.82983,927.10871 836.79333,925.11741 836.22583,923.11591 834.94203,921.01914 835.28483,920.9556 835.37123,920.29796 835.53303,920.28208 838.18553,917.91779 838.59223,917.96101 839.04293,917.37508 840.53973,917.5151 841.53973,917.98148 842.10023,916.40465 842.05703,915.15383 842.82803,913.71428 842.05113,911.35412 843.63873,911.25302 844.73943,910.04611 844.81973,908.44226 846.43983,908.26662 846.65963,907.61633 846.50863,907.22484 845.69153,907.20688 844.06293,905.9158 843.71633,903.85152 843.11603,903.26777 843.46753,901.63664 843.10263,900.89279 842.89903,900.58191 841.97173,901.08926 841.23363,900.83945 841.13143,899.65484 840.81023,899.40933 839.85553,900.69222 838.73393,900.54353 838.15133,900.05762 837.44993,900.30118 836.76363,899.95672 836.38893,899.96203 836.21323,901.48001 834.69593,901.76467 833.94133,900.94867 833.21063,900.79745 832.47063,900.95724 832.34443,901.73679 830.31773,902.59348 829.50163,903.24232 829.21813,903.52823 829.55463,905.09909 829.02523,905.70826 827.64753,907.71362 827.89573,908.86441 826.33833,912.56828 825.43553,913.49878 823.42063,914.66173 823.05423,916.55564 823.66193,917.98725 823.31803,918.70181 822.12493,918.82831 822.08603,920.04368 821.06213,920.59833 821.07123,921.75647 819.48783,922.90696 819.01063,922.35779 818.34813,922.62594 817.64583,922.19922 816.00623,922.38714 815.32963,921.96029 814.17903,920.8686 812.38833,919.10359 811.60863,918.76079 810.81043,916.81933 810.09653,916.6339 809.44583,916.97777 809.05603,916.42752 807.87593,915.5209 807.85933,915.14589 807.93653,913.06969 807.50653,912.39515 807.77543,912.09033 807.57553,910.49732 806.08753,909.14009 806.12333,908.73459 805.40073,908.12075 802.75823,908.90588 802.57583,907.73532 803.51223,905.94583 803.17903,905.21921 801.73713,904.49011 800.50203,904.36937 799.60313,903.04603 798.81193,902.81161 797.25743,904.42847 797.90593,905.77615 797.37123,906.40539 795.84023,905.93546 795.36253,906.59857 794.95013,906.59929 794.30123,905.38348 795.24923,904.67936 795.68783,903.5637 794.13353,903.47032 793.06403,903.85526 792.67613,904.51399 792.42153,904.80528 791.35303,904.3824 789.84773,904.48022 789.11563,902.08829 788.64373,902.75756 787.23053,903.4585 785.67193,902.97702 784.57353,901.74934 783.78573,901.90235 782.64933,902.45014 783.14723,904.87524 781.48163,906.69081 781.35713,905.51493 779.65753,903.19647 778.82183,901.34292 777.72253,901.19099 776.38643,900.89183 776.20133,900.57817 777.56583,899.68212 776.87773,898.65341 778.86783,897.31315 778.29843,895.48639 780.42643,896.2557 780.58243,895.03443 781.86403,892.05751 781.91253,890.92033 781.24183,889.56175 780.25183,888.93447 779.70493,889.98386 778.17863,889.45465 778.19893,888.66705 778.86373,887.65748 779.20133,887.43947 779.63343,885.89636 779.88803,883.98478 780.38843,883.36363 779.73833,882.28128 777.53453,881.08922 776.57023,878.79081 777.32333,878.46149 779.00533,876.67087 779.62203,877.12877 779.69583,877.9573 780.77323,878.58281 782.75433,877.94664 783.13113,879.12472 784.24433,878.62797 783.92303,876.58924 784.57363,873.79815 782.79723,870.14612 782.12713,869.70278 781.93833,869.39302 782.20543,868.96528 782.44023,866.11988 784.34043,864.69146 784.13983,863.52934 783.33733,863.37414 783.71253,861.39628 783.69153,860.00378 782.68893,859.38664 782.06863,860.90649 780.39233,861.05288 780.33063,863.13642 779.21303,864.91251 778.11453,863.77493 777.32633,863.79944 776.61213,864.19414 775.49663,866.33652 775.12553,866.50463 774.96783,867.85469 773.47353,868.34629 771.60843,871.40202 766.10353,868.56722 766.19603,869.72279 765.55383,870.16697 764.72973,870.25498 764.28043,871.35221 764.23553,872.97748 763.56733,873.40582 763.36943,874.15011 764.12153,874.2262 765.00503,874.98797 766.35463,875.44513 766.43293,877.41021 765.64073,877.67286 764.43143,877.35038 763.84313,877.83561 763.97043,879.47508 764.30093,879.72833 765.47283,879.59795 765.14293,880.36832 765.79463,881.3101 767.32103,880.1945 769.32633,881.54901 769.04123,883.47434 768.70813,884.20387 768.00833,884.59147 767.17033,884.65534 766.08983,885.30745 765.81503,886.50724 765.14933,887.9889 763.94303,889.10432 761.89473,888.93653 762.31693,890.94221 762.11553,891.29824 762.38773,891.44242 762.16183,892.60114 761.57793,893.07018 761.15163,895.0023 762.41223,895.6713 762.19923,896.37876 763.73033,897.03857 765.33583,896.95211 765.45503,898.59583 763.68113,900.31772 761.70823,900.99658 761.50983,901.91719 761.26343,903.14846 761.69523,903.86455 764.98413,903.53619 766.46713,905.01599 766.62063,905.40591 765.78123,906.78282 z">
      <title id="t80">Deuxième circonscription de Corrèze</title>
      <desc id="d80">Cantons de : Ayen, Beaulieu-sur-Dordogne, Beynat, Brive-la-Gaillarde Centre, Brive-la-Gaillarde Nord-Est, Brive-la-Gaillarde Nord-Ouest, Brive-la-Gaillarde Sud-Est, Brive-la-Gaillarde Sud-Ouest, Juillac, Larche, Lubersac, Malemort-sur-Corrèze, Meyssac, Mercoeur, Saint-Privat</desc>
    </path></svg>