<svg xmlns="http://www.w3.org/2000/svg" version="1.1" xmlns:xlink="http://www.w3.org/1999/xlink" xmlns:svgjs="http://svgjs.dev/svgjs" viewBox="0 0 110.64110000000005 101.99784999999997"><path class="circo" id="id-019-01" d="M46.35490000000004 77.05838999999992L46.623800000000074 76.75356999999997L46.4239 75.16055999999992L44.93590000000006 73.80332999999996L44.971700000000055 73.39783L44.2491 72.78399000000002L41.60660000000007 73.56912L41.42420000000004 72.39855999999997L42.36060000000009 70.60906999999997L42.02740000000006 69.88244999999995L40.585500000000025 69.15334999999993L39.350400000000036 69.03260999999998L38.45150000000001 67.70926999999995L37.66030000000001 67.47484999999995L36.105800000000045 69.09170999999992L36.75430000000006 70.43939L36.219600000000014 71.06862999999998L34.688600000000065 70.59870000000001L34.21090000000004 71.26180999999997L33.79849999999999 71.26252999999997L33.14960000000008 70.04671999999994L34.09760000000006 69.34259999999995L34.53620000000001 68.22694000000001L32.981899999999996 68.13355999999999L31.912400000000048 68.51850000000002L31.52449999999999 69.17723000000001L31.269900000000007 69.46852000000001L30.201400000000035 69.04563999999993L28.6961 69.14346L27.964000000000055 66.75153L27.49210000000005 67.42079999999999L26.07890000000009 68.12173999999993L24.52030000000002 67.64026000000001L23.42190000000005 66.41257999999993L22.63409999999999 66.56558999999993L21.49770000000001 67.11338L21.99560000000008 69.53847999999994L20.33000000000004 71.35405000000003L20.20550000000003 70.17817000000002L18.505899999999997 67.85970999999995L17.670200000000023 66.00616000000002L16.57090000000005 65.85423000000003L15.234800000000064 65.55507L15.04970000000003 65.24140999999997L16.41420000000005 64.34536000000003L15.726100000000088 63.31664999999998L17.71620000000007 61.976389999999924L17.1468000000001 60.14963L19.274800000000027 60.91894000000002L19.43080000000009 59.697670000000016L20.712400000000002 56.72074999999995L20.760899999999992 55.58357000000001L20.090200000000095 54.224989999999934L19.100200000000086 53.597710000000006L18.553300000000036 54.64710000000002L17.027000000000044 54.11788999999999L17.047300000000064 53.33028999999999L17.712100000000078 52.32071999999994L18.04970000000003 52.10271L18.48180000000002 50.55959999999993L18.736400000000003 48.648019999999974L19.236800000000017 48.02686999999992L18.586700000000064 46.94452000000001L16.382900000000063 45.75245999999993L15.418600000000083 43.45404999999994L16.1717000000001 43.12473L17.853700000000003 41.33411000000001L18.47040000000004 41.792010000000005L18.544200000000046 42.620540000000005L19.621600000000058 43.24604999999997L21.602700000000027 42.609879999999976L21.97950000000003 43.78796L23.092700000000036 43.29120999999998L22.771400000000085 41.25247999999999L23.422000000000025 38.46138999999994L21.64560000000006 34.80935999999997L20.97550000000001 34.366019999999935L20.786699999999996 34.05625999999995L21.053800000000024 33.62851999999998L21.288600000000088 30.78311999999994L23.188800000000015 29.35469999999998L22.988200000000006 28.19258000000002L22.185699999999997 28.037379999999985L22.56090000000006 26.05952000000002L24.165000000000077 25.726080000000024L24.643100000000004 25.068739999999934L24.679000000000087 24.252399999999966L27.180300000000102 25.443480000000022L28.197200000000066 25.870769999999993L29.25330000000008 25.34321L30.416400000000067 25.247799999999984L31.097000000000094 22.946969999999965L31.735000000000014 22.41055999999992L33.84170000000006 22.50249999999994L35.89390000000003 21.061410000000024L36.710500000000025 20.28589999999997L36.789300000000026 19.142280000000028L37.20590000000004 18.492809999999963L39.88670000000002 15.824160000000006L41.113300000000095 14.889760000000024L42.25540000000001 15.190789999999993L44.46850000000006 14.35820000000001L44.74560000000008 13.172109999999975L45.62390000000005 13.27985000000001L45.73250000000007 12.89373999999998L46.52719999999999 12.823199999999929L46.74580000000003 12.486919999999941L47.497100000000046 9.86349999999993L48.2595 10.154159999999933L48.71500000000003 10.810139999999933L49.845300000000066 10.305389999999989L50.69150000000002 11.171319999999923L50.94839999999999 12.006610000000023L52.53230000000008 12.209979999999973L53.29360000000008 11.33346999999992L55.060800000000086 12.052829999999972L55.41910000000007 11.843989999999962L55.66669999999999 10.202580000000012L57.30370000000005 10.357089999999971L58.00400000000002 9.973729999999932L57.82120000000009 8.758770000000027L57.089500000000044 8.378839999999968L57.09360000000004 7.963359999999966L58.11110000000008 7.282879999999977L58.81200000000001 6.286560000000009L59.607000000000085 6.410480000000007L60.190900000000056 7.009860000000003L60.974000000000046 6.907249999999976L61.286800000000085 5.28607999999997L61.994500000000016 4.8325399999999945L63.65370000000007 4.841429999999946L64.21379999999999 5.39224999999999L64.92720000000008 4.951129999999921L65.54759999999999 3.8783599999999296L65.83090000000004 1.8127099999999245L66.90039999999999 1.12017000000003L68.9991 0.960329999999999L69.8329 0L70.2536 0.06409999999993943L70.84230000000002 1.19046000000003L72.73500000000001 2.1180899999999383L72.88120000000004 3.325109999999995L72.90050000000008 4.339269999999942L73.93090000000007 3.6332199999999375L75.3257000000001 4.518759999999929L76.68820000000005 3.5890100000000302L78.19850000000008 4.968419999999924L79.01100000000008 5.119759999999928L79.3796000000001 3.39086999999995L80.5136 3.8537599999999657L81.39150000000006 5.2514999999999645L82.99130000000002 5.668119999999931L82.18020000000001 7.583750000000009L82.52570000000003 7.820229999999924L83.63070000000005 7.441959999999995L83.78000000000009 6.1974500000000035L84.62720000000002 8.018370000000004L85.42420000000004 7.971149999999966L85.92200000000003 8.613949999999932L86.66750000000002 8.448939999999993L87.60810000000004 9.16106000000002L88.74360000000001 8.77021000000002L88.79180000000008 12.104649999999992L90.0507 12.000049999999987L91.03070000000002 11.220100000000002L91.78520000000003 10.846389999999928L92.9108 11.338340000000017L94.71379999999999 9.674170000000004L95.35350000000005 8.586209999999937L95.24720000000002 7.748789999999985L95.04500000000007 6.941579999999931L95.32870000000003 6.632279999999923L96.96600000000001 6.1562999999999874L97.49630000000002 6.205730000000017L98.15350000000001 6.7037299999999505L100.60380000000009 6.657590000000027L102.7505000000001 7.842019999999934L103.48620000000005 6.8327600000000075L104.2922000000001 6.628739999999993L105.3787000000001 5.3978499999999485L105.77740000000006 5.382020000000011L105.88440000000003 4.216889999999921L107.53360000000009 3.167509999999993L110.03100000000006 6.373229999999921L109.89760000000001 7.966639999999984L110.48650000000009 8.371899999999982L110.29370000000006 9.171889999999962L110.64110000000005 9.920319999999947L109.75450000000001 10.489939999999933L109.43850000000009 11.143709999999942L109.4411 11.918069999999943L110.43540000000007 13.150710000000004L109.8130000000001 14.19148999999993L109.98170000000005 14.836389999999938L109.3909000000001 15.12027999999998L107.0372000000001 14.952379999999948L106.67500000000007 15.63463999999999L106.36950000000002 18.951759999999922L105.26820000000009 19.786219999999958L105.0979000000001 20.55971999999997L106.01660000000004 22.46217999999999L107.2016000000001 23.676879999999983L107.88780000000008 25.156139999999937L109.55270000000007 25.514009999999985L109.74549999999999 26.765429999999924L109.47620000000006 27.078559999999925L109.72530000000006 28.282370000000014L109.4674 29.032339999999976L109.76370000000009 29.758089999999925L109.01610000000005 31.22645L108.96760000000006 32.024L109.3836 32.92016000000001L108.91770000000008 34.657820000000015L108.99400000000003 35.39860999999996L108.51700000000005 36.697059999999965L108.17750000000001 36.84866999999997L108.33760000000007 37.92910999999992L107.9375 38.45641999999998L107.54660000000001 41.26010999999994L107.14359999999999 41.96832999999992L109.68889999999999 43.92016000000001L110.09270000000004 43.85345999999993L110.51960000000008 45.28756999999996L110.18950000000007 46.40224999999998L109.55320000000006 46.075849999999946L108.91980000000001 46.57348999999999L107.3537 46.58341999999993L106.71050000000002 47.043139999999994L106.52020000000005 47.83654999999999L105.5159000000001 46.24903999999992L103.23470000000009 46.04147999999998L102.92010000000005 45.642690000000016L101.66820000000007 44.536719999999946L100.05280000000005 44.40802999999994L99.40039999999999 43.90611999999999L99.1576 43.13720000000001L98.08680000000004 42.52947999999992L96.44760000000008 42.35401999999999L95.88900000000001 42.34868999999992L95.4738000000001 43.00522000000001L97.05050000000006 45.86259999999993L96.5988000000001 46.552799999999934L96.69540000000006 47.23312999999996L96.67930000000001 49.281439999999975L95.58080000000007 50.50263999999993L96.1798 51.550809999999956L95.7428000000001 52.66289999999992L94.5911000000001 53.14386000000002L92.56920000000002 53.60084999999992L91.72480000000007 55.05382999999995L90.38030000000003 57.6567L89.17370000000005 57.69160999999997L88.62639999999999 57.48560999999995L87.9497 58.29049999999995L87.57800000000009 59.92993999999999L86.4140000000001 60.41629999999998L86.1921000000001 60.780539999999974L86.03219999999999 61.17688999999996L86.09100000000001 62.44848999999999L84.95530000000008 62.991179999999986L84.2518 64.05470000000003L82.92240000000004 65.11902999999995L82.9624 65.54347999999993L82.23530000000005 65.82262000000003L81.95100000000002 65.55602999999996L81.74740000000008 65.24514999999997L80.82010000000002 65.75249999999994L80.082 65.50269000000003L79.97980000000007 64.31808000000001L79.65860000000009 64.07256999999993L78.70390000000009 65.35546L77.58230000000003 65.20677L76.99970000000008 64.72086000000002L76.29830000000004 64.96442000000002L75.61200000000008 64.61995999999999L75.2373 64.62527L75.0616 66.14324999999997L73.54430000000002 66.42791L72.78970000000004 65.61190999999997L72.05900000000008 65.46069L71.31900000000007 65.62047999999993L71.19280000000003 66.40003000000002L69.16610000000003 67.25671999999997L68.35000000000002 67.90555999999992L68.06650000000002 68.19146999999998L68.40300000000002 69.76233000000002L67.87360000000001 70.37149999999997L66.4959 72.37685999999997L66.7441 73.52765L65.18670000000009 77.23151999999993L64.28390000000002 78.16201999999998L62.269000000000005 79.32497000000001L61.90260000000001 81.21888000000001L62.51030000000003 82.65048999999999L62.16640000000007 83.36505L60.973299999999995 83.49154999999996L60.934400000000096 84.70691999999997L59.91050000000007 85.26157L59.91960000000006 86.41971000000001L58.336200000000076 87.5702L57.85900000000004 87.02103L57.196500000000015 87.28917999999999L56.49420000000009 86.86245999999994L54.854600000000005 87.05038000000002L54.178 86.62352999999996L53.02740000000006 85.53183999999999L51.23670000000004 83.76683000000003L50.456999999999994 83.42403000000002L49.65880000000004 81.48257000000001L48.944900000000075 81.29714000000001L48.294200000000046 81.64100999999994L47.90440000000001 81.09075999999993L46.724300000000085 80.18413999999996L46.707700000000045 79.80912999999998L46.78489999999999 77.73293000000001L46.35490000000004 77.05838999999992z">
      <title id="t79">Première circonscription de Corrèze</title>
      <desc id="d79">Cantons de : Argentat, Bort-les-Orgues, Bugeat, Corrèze, Donzenac, Egletons, Eygurande, Lapleau, Meymac, Neuvic, La Roche-Canillac, Seilhac, Sornac, Treignac, Tulle Campagne Nord, Tulle Campagne Sud, Tulle Urbain Nord, Tulle Urbain Sud, Ussel Est, Ussel Ouest, Uzerche, Vigeois</desc>
    </path><path class="circo" id="id-019-02" d="M4.629600000000096 71.44605999999999L3.498800000000074 72.54913999999997L2.379600000000096 72.58578999999997L2.326999999999998 73.34152999999992L4.517400000000066 74.45492000000002L5.39020000000005 75.34542999999996L6.944100000000049 75.93156999999997L7.984800000000064 75.27661999999998L9.067800000000034 75.84505000000001L10.61869999999999 75.37398999999994L10.619400000000041 76.29101000000003L11.842399999999998 76.49222999999995L13.045400000000086 76.08870000000002L14.563300000000027 76.80741999999998L14.852100000000064 76.96645999999998L15.813300000000027 77.38969999999995L15.849900000000048 78.19286L15.458300000000008 78.88317999999992L14.058300000000031 79.68278999999995L12.851400000000012 79.65653999999995L13.004999999999995 80.29444999999998L13.279500000000098 80.02842999999996L14.127800000000093 80.70953999999995L13.99490000000003 81.88445999999999L14.804100000000062 83.26970999999992L15.210500000000025 83.97577000000001L14.663200000000074 85.06313L15.471200000000067 85.27757999999994L15.684100000000058 86.09365000000003L17.644800000000032 88.80288999999993L18.802700000000073 90.10016999999993L19.830800000000067 90.74265000000003L20.21550000000002 90.60412999999994L21.27030000000002 90.00648999999999L21.25660000000005 89.18583000000001L21.494500000000016 89.20506999999998L23.693500000000085 87.67245000000003L24.844800000000077 87.57705999999996L25.475099999999998 87.09717999999998L26.62740000000008 87.05074000000002L26.935699999999997 88.66457000000003L27.624000000000024 88.99844999999993L29.641000000000076 87.59028999999998L32.386600000000044 88.39044999999999L32.46230000000003 88.94805999999994L32.51340000000005 88.53768000000002L32.9131000000001 88.43747999999994L34.45310000000006 88.53514999999993L36.11160000000007 89.38162999999997L36.22280000000001 90.14321999999993L37.77080000000001 91.90442999999993L38.87250000000006 92.10243000000003L39.544200000000046 93.31448L40.488000000000056 94.03584999999998L40.94620000000009 96.07133999999996L41.13840000000005 96.35271999999998L41.344400000000064 96.29300999999998L42.10490000000004 96.25036L43.6635 97.15882999999997L44.34870000000001 97.60978L44.789600000000064 99.52892999999995L44.4982 99.77689999999996L45.89700000000005 100.46627000000001L46.493600000000015 101.48835999999994L46.54280000000006 101.60757000000001L47.38760000000002 100.76955999999996L47.48580000000004 100.00265999999999L48.82600000000002 101.26324999999997L48.715400000000045 101.99784999999997L48.769000000000005 101.98727999999994L49.191400000000044 101.27717999999993L50.77960000000007 101.05975000000001L51.197 100.35615999999993L51.384900000000016 99.22018000000003L51.75190000000009 99.11196999999993L51.97610000000009 99.84942999999998L52.336900000000014 99.98140000000001L53.04079999999999 98.88101999999992L56.10419999999999 97.66899999999998L56.21270000000004 96.87783999999999L57.86270000000002 95.03715L59.25300000000004 95.21379000000002L59.51170000000002 94.9701L60.61430000000007 95.80664999999999L60.74840000000006 97.85482000000002L61.53570000000002 98.05084999999997L62.01260000000002 97.34790999999996L64.37020000000007 95.58075999999994L66.4045000000001 95.27891999999997L69.53710000000001 94.38533999999993L70.32350000000008 95.22208L71.04950000000008 95.24586999999997L73.2772 94.29232000000002L73.654 94.13968999999997L74.7296 94.64468L77.03190000000006 94.13524999999993L77.67820000000006 91.77194999999995L75.64170000000001 89.78064999999992L75.07420000000002 87.77914999999996L73.79040000000009 85.68237999999997L74.1332000000001 85.61883999999998L74.21960000000001 84.96119999999996L74.3814000000001 84.94531999999992L77.03390000000002 82.58102999999994L77.44060000000002 82.62424999999996L77.8913 82.03832L79.38810000000001 82.17833999999993L80.38810000000001 82.64472L80.94860000000006 81.06788999999992L80.9054000000001 79.81706999999994L81.67640000000006 78.37752L80.89949999999999 76.01735999999994L82.48710000000005 75.91625999999997L83.58780000000002 74.70934999999997L83.6681000000001 73.1055L85.28820000000007 72.92985999999996L85.50800000000004 72.27956999999992L85.35700000000008 71.88807999999995L84.53989999999999 71.87011999999993L82.9113000000001 70.57903999999996L82.56470000000002 68.51476000000002L81.96440000000007 67.93101000000001L82.31590000000006 66.29988000000003L81.95100000000002 65.55602999999996L81.74740000000008 65.24514999999997L80.82010000000002 65.75249999999994L80.082 65.50269000000003L79.97980000000007 64.31808000000001L79.65860000000009 64.07256999999993L78.70390000000009 65.35546L77.58230000000003 65.20677L76.99970000000008 64.72086000000002L76.29830000000004 64.96442000000002L75.61200000000008 64.61995999999999L75.2373 64.62527L75.0616 66.14324999999997L73.54430000000002 66.42791L72.78970000000004 65.61190999999997L72.05900000000008 65.46069L71.31900000000007 65.62047999999993L71.19280000000003 66.40003000000002L69.16610000000003 67.25671999999997L68.35000000000002 67.90555999999992L68.06650000000002 68.19146999999998L68.40300000000002 69.76233000000002L67.87360000000001 70.37149999999997L66.4959 72.37685999999997L66.7441 73.52765L65.18670000000009 77.23151999999993L64.28390000000002 78.16201999999998L62.269000000000005 79.32497000000001L61.90260000000001 81.21888000000001L62.51030000000003 82.65048999999999L62.16640000000007 83.36505L60.973299999999995 83.49154999999996L60.934400000000096 84.70691999999997L59.91050000000007 85.26157L59.91960000000006 86.41971000000001L58.336200000000076 87.5702L57.85900000000004 87.02103L57.196500000000015 87.28917999999999L56.49420000000009 86.86245999999994L54.854600000000005 87.05038000000002L54.178 86.62352999999996L53.02740000000006 85.53183999999999L51.23670000000004 83.76683000000003L50.456999999999994 83.42403000000002L49.65880000000004 81.48257000000001L48.944900000000075 81.29714000000001L48.294200000000046 81.64100999999994L47.90440000000001 81.09075999999993L46.724300000000085 80.18413999999996L46.707700000000045 79.80912999999998L46.78489999999999 77.73293000000001L46.35490000000004 77.05838999999992L46.623800000000074 76.75356999999997L46.4239 75.16055999999992L44.93590000000006 73.80332999999996L44.971700000000055 73.39783L44.2491 72.78399000000002L41.60660000000007 73.56912L41.42420000000004 72.39855999999997L42.36060000000009 70.60906999999997L42.02740000000006 69.88244999999995L40.585500000000025 69.15334999999993L39.350400000000036 69.03260999999998L38.45150000000001 67.70926999999995L37.66030000000001 67.47484999999995L36.105800000000045 69.09170999999992L36.75430000000006 70.43939L36.219600000000014 71.06862999999998L34.688600000000065 70.59870000000001L34.21090000000004 71.26180999999997L33.79849999999999 71.26252999999997L33.14960000000008 70.04671999999994L34.09760000000006 69.34259999999995L34.53620000000001 68.22694000000001L32.981899999999996 68.13355999999999L31.912400000000048 68.51850000000002L31.52449999999999 69.17723000000001L31.269900000000007 69.46852000000001L30.201400000000035 69.04563999999993L28.6961 69.14346L27.964000000000055 66.75153L27.49210000000005 67.42079999999999L26.07890000000009 68.12173999999993L24.52030000000002 67.64026000000001L23.42190000000005 66.41257999999993L22.63409999999999 66.56558999999993L21.49770000000001 67.11338L21.99560000000008 69.53847999999994L20.33000000000004 71.35405000000003L20.20550000000003 70.17817000000002L18.505899999999997 67.85970999999995L17.670200000000023 66.00616000000002L16.57090000000005 65.85423000000003L15.234800000000064 65.55507L15.04970000000003 65.24140999999997L16.41420000000005 64.34536000000003L15.726100000000088 63.31664999999998L17.71620000000007 61.976389999999924L17.1468000000001 60.14963L19.274800000000027 60.91894000000002L19.43080000000009 59.697670000000016L20.712400000000002 56.72074999999995L20.760899999999992 55.58357000000001L20.090200000000095 54.224989999999934L19.100200000000086 53.597710000000006L18.553300000000036 54.64710000000002L17.027000000000044 54.11788999999999L17.047300000000064 53.33028999999999L17.712100000000078 52.32071999999994L18.04970000000003 52.10271L18.48180000000002 50.55959999999993L18.736400000000003 48.648019999999974L19.236800000000017 48.02686999999992L18.586700000000064 46.94452000000001L16.382900000000063 45.75245999999993L15.418600000000083 43.45404999999994L16.1717000000001 43.12473L17.853700000000003 41.33411000000001L18.47040000000004 41.792010000000005L18.544200000000046 42.620540000000005L19.621600000000058 43.24604999999997L21.602700000000027 42.609879999999976L21.97950000000003 43.78796L23.092700000000036 43.29120999999998L22.771400000000085 41.25247999999999L23.422000000000025 38.46138999999994L21.64560000000006 34.80935999999997L20.97550000000001 34.366019999999935L20.786699999999996 34.05625999999995L21.053800000000024 33.62851999999998L21.288600000000088 30.78311999999994L23.188800000000015 29.35469999999998L22.988200000000006 28.19258000000002L22.185699999999997 28.037379999999985L22.56090000000006 26.05952000000002L22.53989999999999 24.66701999999998L21.537300000000073 24.04988000000003L20.91700000000003 25.569729999999936L19.24070000000006 25.716119999999933L19.179000000000087 27.799660000000017L18.06140000000005 29.57574999999997L16.96289999999999 28.438170000000014L16.17470000000003 28.462679999999978L15.460500000000025 28.85737999999992L14.345000000000027 30.999759999999924L13.973900000000071 31.167869999999994L13.816200000000094 32.51792999999998L12.321900000000028 33.00952999999993L10.456800000000044 36.06525999999997L4.951900000000023 33.230459999999994L5.044399999999996 34.386030000000005L4.4021999999999935 34.830209999999965L3.578100000000063 34.91822000000002L3.1288000000000693 36.01544999999999L3.083900000000085 37.64071999999999L2.4157000000000153 38.06905999999992L2.217800000000011 38.813350000000014L2.9699000000000524 38.88943999999992L3.8534000000000788 39.65120999999999L5.203000000000088 40.10836999999992L5.281300000000101 42.07344999999998L4.489100000000008 42.33609999999999L3.279800000000023 42.013619999999946L2.691500000000019 42.49884999999995L2.81880000000001 44.13832000000002L3.1493000000000393 44.39157L4.32120000000009 44.26118999999994L3.991300000000024 45.03156000000001L4.643000000000029 45.97334000000001L6.169399999999996 44.85773999999992L8.17470000000003 46.212249999999926L7.889600000000087 48.13757999999996L7.556500000000028 48.867110000000025L6.856700000000046 49.25470999999993L6.018700000000081 49.31858L4.938200000000052 49.97068999999999L4.663400000000024 51.17048L3.997700000000009 52.65213999999992L2.791400000000067 53.76756L0.7431000000000267 53.59976999999992L1.165300000000002 55.60545000000002L0.9639000000000806 55.96147999999994L1.2361000000000786 56.10565999999994L1.0102000000000544 57.26437999999996L0.42630000000008295 57.733420000000024L0 59.665539999999964L1.2606000000000677 60.33453999999995L1.0475999999999885 61.04200000000003L2.578700000000026 61.70181000000002L4.184200000000033 61.61534999999992L4.3034000000000106 63.25906999999995L2.5295000000000982 64.98095999999998L0.5566000000000031 65.65981999999997L0.35820000000001073 66.58042999999998L0.11180000000001655 67.81169999999997L0.5436000000000831 68.52778999999998L3.8325000000000955 68.19943L5.315500000000043 69.67922999999996L5.469000000000051 70.06914999999992L4.629600000000096 71.44605999999999z">
      <title id="t80">Deuxième circonscription de Corrèze</title>
      <desc id="d80">Cantons de : Ayen, Beaulieu-sur-Dordogne, Beynat, Brive-la-Gaillarde Centre, Brive-la-Gaillarde Nord-Est, Brive-la-Gaillarde Nord-Ouest, Brive-la-Gaillarde Sud-Est, Brive-la-Gaillarde Sud-Ouest, Juillac, Larche, Lubersac, Malemort-sur-Corrèze, Meyssac, Mercoeur, Saint-Privat</desc>
    </path></svg>