<svg xmlns="http://www.w3.org/2000/svg" version="1.1" xmlns:xlink="http://www.w3.org/1999/xlink" xmlns:svgjs="http://svgjs.dev/svgjs" viewBox="0 0 123.53740000000005 142.14665000000002"><path class="circo" id="id-021-01" d="M74.23940000000005 95.02411999999993L74.18259999999998 95.05093L73.52480000000003 96.51829999999995L71.53280000000007 96.39755000000002L70.9615 96.96235000000001L70.65179999999998 95.43079999999998L68.89749999999992 96.18295999999998L68.40230000000008 95.58127000000002L67.75599999999997 95.99568L67.38209999999992 95.82443L67.17340000000002 95.03877999999997L65.99149999999997 94.92976999999996L65.48539999999991 93.86180999999999L64.6930000000001 93.87947999999994L63.90320000000008 93.05098999999996L64.38240000000008 92.41653999999994L63.84839999999997 91.41423999999995L64.04959999999994 91.08479L64.7999000000001 91.44195000000002L65.8646 89.20641L65.63160000000005 87.89658999999995L64.57880000000011 86.48388999999997L64.63549999999998 85.19398000000001L63.52609999999993 84.10838999999999L63.92430000000002 82.90374999999995L65.05740000000003 81.80196000000001L66.0354000000001 79.92534L67.54640000000006 79.18062999999995L68.57880000000011 79.72077000000002L69.3053000000001 79.50853999999993L70.05779999999993 79.11154999999997L70.62060000000008 79.56831999999997L70.75130000000001 78.82055000000003L71.8555 77.82258999999999L74.69850000000008 76.02324999999996L75.88549999999998 75.77999L75.64749999999992 73.26625999999999L76.38189999999997 72.82049999999992L77.21979999999996 73.65869999999995L78.07090000000005 72.24698000000001L80.13950000000011 74.34596999999997L80.19490000000008 73.05255999999997L81.58180000000004 74.06945999999994L83.26869999999997 74.06430999999998L83.83180000000004 74.71622000000002L85.42410000000007 75.26377000000002L85.54309999999998 76.70952999999997L87.87849999999992 77.62209999999993L87.84630000000004 77.72874999999999L85.98709999999994 81.28030999999999L86.1916 81.38965999999994L84.93459999999993 83.60498999999993L84.18459999999993 83.24063999999998L83.42590000000007 85.44998999999996L83.16729999999995 87.03520000000003L84.3039 87.80799999999999L83.84659999999997 89.52311999999995L82.55489999999998 89.48664999999994L81.54820000000007 90.29543999999999L79.92250000000001 90.82147999999995L77.59100000000001 91.83589999999992L76.95200000000011 92.64603999999997L75.82600000000014 93.13595999999995L74.23940000000005 95.02411999999993z">
      <title id="t81">Première circonscription de Côte-d'Or</title>
      <desc id="d81">Canton de : Dijon V, Dijon VI, Dijon VII, Fontaine-lès-Dijon</desc>
    </path><path class="circo" id="id-021-02" d="M117.40440000000001 105.10717999999997L117.928 105.61131L118.46930000000009 107.09723999999994L117.90440000000001 109.05632000000003L117.59589999999992 109.88220000000001L116.71670000000006 110.83784000000003L116.77509999999995 111.96655999999996L115.91940000000011 112.71897000000001L114.69950000000006 113.24414999999999L114.23410000000001 114.19767999999999L114.4910000000001 114.85603000000003L114.34479999999996 115.60874000000001L113.5113 116.39208999999994L112.82240000000013 115.84804999999994L112.47809999999993 114.17345L111.05290000000002 112.58402000000001L110.62360000000001 113.65608999999995L109.17790000000002 114.09773999999993L107.94320000000005 114.50437999999997L106.87170000000003 115.89251999999999L106.09630000000004 116.29142999999999L104.54740000000004 112.74121000000002L104.42179999999996 110.25659999999993L103.62240000000008 109.29648999999995L102.43889999999999 108.87603000000001L101.49149999999997 108.00976000000003L101.1028 107.81732L101.6816 107.32709999999997L103.70220000000006 104.62189000000001L102.90030000000013 103.67912000000001L104.17410000000007 102.67475999999999L105.39029999999991 102.58290999999997L105.64580000000012 102.26126L106.36970000000008 102.63872000000003L107.3234000000001 101.23516999999993L106.88610000000006 100.31808000000001L105.98120000000006 99.85722999999996L107.07219999999995 98.53386L106.7075000000001 96.40130999999997L107.26350000000014 95.23874L107.47809999999993 94.75085000000001L104.11070000000007 94.41153999999995L103.97619999999995 94.00591999999995L102.24709999999993 92.86110999999994L102.67989999999998 91.97495000000004L100.83010000000002 91.52329999999995L100.24750000000006 90.95339999999999L100.24360000000013 90.13807999999995L99.4769 89.90286000000003L99.45339999999999 88.70390999999995L100.24540000000013 87.29539999999997L99.45459999999991 85.90577999999994L96.74030000000005 84.63821999999993L94.38340000000005 85.78620999999998L93.08579999999995 85.66124000000002L92.8039 86.45904999999993L92.59579999999994 86.61499000000003L91.33600000000013 86.63932L90.62199999999996 87.68412000000001L89.5689000000001 87.77656000000002L88.76609999999994 89.16791999999998L87.77200000000005 89.93069000000003L86.94549999999992 89.98096999999996L86.56520000000012 90.61777999999993L86.25319999999999 91.04557L85.65940000000012 91.21569L84.4162 90.63288999999997L83.58890000000008 90.75779L83.41449999999998 91.59402999999998L82.9629000000001 92.48862999999994L81.90050000000008 92.74015999999995L80.83229999999992 92.13589999999999L81.54820000000007 90.29543999999999L82.55489999999998 89.48664999999994L83.84659999999997 89.52311999999995L84.3039 87.80799999999999L83.16729999999995 87.03520000000003L83.42590000000007 85.44998999999996L84.18459999999993 83.24063999999998L84.93459999999993 83.60498999999993L86.1916 81.38965999999994L85.98709999999994 81.28030999999999L87.84630000000004 77.72874999999999L87.87849999999992 77.62209999999993L88.77810000000011 75.94119999999998L90.20940000000007 76.40975000000003L91.43979999999999 76.92047000000002L93.16359999999997 76.57282999999995L93.21480000000008 76.55724999999995L94.29859999999996 76.52143999999998L94.87720000000002 76.11423000000002L97.06160000000011 74.96543999999994L98.04100000000005 72.66687999999999L99.05329999999992 71.34258999999997L99.46300000000008 71.26474999999994L99.92500000000007 69.62437L101.19110000000012 68.49847999999997L100.14909999999998 66.13348999999994L101.25470000000007 65.47380999999996L102.63639999999998 62.40759000000003L103.81859999999995 62.8057L104.98509999999999 62.37598000000003L105.50540000000012 63.027289999999994L106.63029999999992 62.67035999999996L106.93140000000005 62.96156999999994L106.73339999999996 62.15966000000003L105.73719999999992 61.430819999999926L106.01319999999998 59.06380999999999L106.65289999999993 61.01084000000003L108.04679999999996 60.09595999999999L108.97640000000013 59.21623999999997L108.65179999999998 57.11545000000001L108.94259999999997 56.80633999999998L109.77159999999992 56.93097L109.69770000000005 55.65203999999994L110.55309999999997 54.25310000000002L111.25799999999992 54.032479999999964L112.23560000000009 54.52868000000001L112.53660000000002 55.20533999999998L113.44470000000013 54.962819999999965L115.63700000000006 50.560589999999934L116.87600000000009 50.851080000000024L119.50090000000012 53.56877999999995L120.13939999999991 53.926079999999956L120.81329999999991 57.30030999999997L120.4638000000001 58.959499999999935L121.22140000000002 59.219389999999976L121.67600000000004 61.26648L120.80589999999995 63.804919999999925L119.56000000000006 63.74311L118.05720000000008 66.35408999999993L117.4955000000001 67.67710999999997L116.55820000000006 68.40476000000001L115.82280000000003 67.63659999999993L113.39469999999994 67.32307000000003L112.7084000000001 68.68893000000003L112.38160000000005 69.56475L114.11090000000002 70.06832999999995L111.72169999999994 71.45763999999997L110.96249999999998 71.66459999999995L111.88649999999996 72.32089999999994L111.72490000000005 73.41647999999998L113.85500000000013 72.10000000000002L114.64790000000005 72.23415L115.00509999999997 73.39874999999995L116.16600000000005 73.70507999999995L116.48989999999992 73.45015999999998L116.94830000000013 73.91950999999995L116.7305 74.21160999999995L116.12590000000012 75.34281999999996L116.04750000000001 77.08642999999995L117.07039999999995 78.88409999999999L116.28820000000007 80.70802000000003L117.82990000000007 81.78136999999992L120.09080000000006 80.49304999999993L121.6997 81.20660999999996L121.27249999999992 83.17273L121.01159999999993 85.3098L121.11710000000005 85.49964L121.53699999999992 87.11965999999995L121.28440000000012 88.34421999999995L121.02740000000006 88.67493999999999L120.21339999999998 88.59731L119.72850000000005 89.26648L119.77660000000003 90.39737000000002L121.83360000000005 90.53239999999994L122.73580000000004 91.30066L123.53740000000005 91.79030999999998L122.4176000000001 94.31142L121.3705000000001 93.79628000000002L120.98000000000013 93.80079L120.98899999999992 94.19276000000002L120.94189999999992 94.79958999999997L120.90400000000011 96.50564999999995L120.52779999999996 97.27559999999994L120.63 100.07483000000002L120.2709000000001 100.20101999999997L119.8628 100.91997000000003L120.18809999999996 102.52095999999995L119.76900000000012 103.20098999999993L118.82560000000001 104.01783L117.64870000000008 104.43521999999996L117.40440000000001 105.10717999999997z">
      <title id="t82">Deuxième circonscription de Côte-d'Or</title>
      <desc id="d82">Cantons de : Auxonne, Dijon I, Dijon III, Dijon VIII, Fontaine-Française, Mirebeau (le canton de Mirebeau est devenu le canton de Mirebeau-sur-Bèze par suite de changement de nom de sa commune chef-lieu par décret du 26 mars 1993), Pontailler-sur-Saône</desc>
    </path><path class="circo" id="id-021-03" d="M90.62199999999996 87.68412000000001L89.5689000000001 87.77656000000002L88.76609999999994 89.16791999999998L87.77200000000005 89.93069000000003L86.94549999999992 89.98096999999996L86.56520000000012 90.61777999999993L86.25319999999999 91.04557L85.65940000000012 91.21569L84.4162 90.63288999999997L83.58890000000008 90.75779L83.41449999999998 91.59402999999998L82.9629000000001 92.48862999999994L81.90050000000008 92.74015999999995L80.83229999999992 92.13589999999999L81.54820000000007 90.29543999999999L79.92250000000001 90.82147999999995L77.6345 91.85612000000003L76.95200000000011 92.64603999999997L75.82600000000014 93.13595999999995L74.23940000000005 95.02411999999993L75.06700000000012 94.89895000000001L75.49989999999991 95.54155000000003L76.9955000000001 96.27941999999996L79.41899999999998 96.94630999999993L81.50889999999993 99.47285999999997L81.29450000000008 99.81691999999998L81.4008 100.14093000000003L81.82959999999991 100.16333999999995L82.68349999999998 99.21455000000003L82.32929999999999 98.43066999999996L82.50139999999999 96.71847000000002L82.52879999999993 95.91939000000002L83.5716000000001 96.29958999999997L86.31380000000001 100.43588L86.74529999999993 100.86451999999997L88.67050000000006 102.17490999999995L89.25540000000012 103.28945999999996L89.26540000000011 104.42558999999994L89.32910000000004 105.49209999999994L88.16060000000004 105.50585999999998L87.94169999999997 105.84361000000001L88.71460000000013 106.25513000000001L88.84640000000002 107.12262999999996L87.92930000000013 108.59483L87.69909999999993 110.50609999999995L87.5408000000001 111.35741999999993L88.20780000000002 112.43880999999999L89.35880000000009 112.90403000000003L89.52390000000003 112.52252999999996L89.84780000000012 112.32183999999995L90.68279999999993 113.98068L91.10990000000004 114.03277000000003L94.21660000000008 112.04378999999994L94.13690000000008 110.94083L94.40680000000009 110.67809999999997L95.42520000000002 110.21208999999999L95.9638000000001 108.71485999999993L96.84379999999999 109.56603999999993L97.19580000000008 108.81801999999993L98.34540000000004 108.33462999999995L98.58890000000008 108.65909999999997L99.39279999999997 107.78205000000003L99.83550000000002 108.04578000000004L100.30730000000005 107.75967000000003L101.1028 107.81732L101.6816 107.32709999999997L103.70220000000006 104.62189000000001L102.90030000000013 103.67912000000001L104.17410000000007 102.67475999999999L105.39029999999991 102.58290999999997L105.64580000000012 102.26126L106.36970000000008 102.63872000000003L107.3234000000001 101.23516999999993L106.88610000000006 100.31808000000001L105.98120000000006 99.85722999999996L107.07219999999995 98.53386L106.7075000000001 96.40130999999997L107.26350000000014 95.23874L107.47809999999993 94.75085000000001L104.11070000000007 94.41153999999995L103.97619999999995 94.00591999999995L102.24709999999993 92.86110999999994L102.67989999999998 91.97495000000004L100.83010000000002 91.52329999999995L100.24750000000006 90.95339999999999L100.24360000000013 90.13807999999995L99.4769 89.90286000000003L99.45339999999999 88.70390999999995L100.24540000000013 87.29539999999997L99.45459999999991 85.90577999999994L96.74030000000005 84.63821999999993L94.38340000000005 85.78620999999998L93.08579999999995 85.66124000000002L92.8039 86.45904999999993L92.59579999999994 86.61499000000003L91.33600000000013 86.63932L90.62199999999996 87.68412000000001z">
      <title id="t83">Troisième circonscription de Côte-d'Or</title>
      <desc id="d83">Cantons de : Chenôve, Dijon II, Dijon IV, Genlis</desc>
    </path><path class="circo" id="id-021-04" d="M41.411899999999946 8.077769999999987L39.6318 7.809769999999958L38.357399999999984 8.260459999999966L36.57520000000011 8.044639999999958L32.45079999999996 9.548890000000029L31.69850000000008 9.14549999999997L29.85379999999998 8.025469999999927L24.425299999999993 9.494180000000028L21.04690000000005 8.749199999999973L20.439399999999978 9.80731000000003L19.898300000000063 10.512319999999931L20.13639999999998 11.821619999999939L19.399700000000053 13.42192L20.437099999999987 14.090900000000033L20.535600000000045 15.361949999999979L21.039800000000014 16.04720999999995L19.96440000000007 16.539440000000013L18.36940000000004 16.667370000000005L17.738200000000006 17.145599999999945L17.148599999999988 18.304509999999937L15.484100000000012 19.700469999999996L16.936000000000035 20.290489999999977L16.787199999999984 23.77293999999995L17.529899999999998 24.237359999999967L19.514800000000037 23.43642L22.072099999999978 23.36954000000003L22.402600000000007 24.06714999999997L21.797300000000064 25.06111999999996L22.07520000000011 26.719460000000026L21.65680000000009 27.898590000000013L23.384100000000103 29.39955999999995L22.273399999999924 31.15865999999994L22.97280000000012 32.63941L22.551900000000046 32.765379999999936L22.46969999999999 33.19893000000002L22.596599999999967 34.89936L21.489000000000033 35.588660000000004L20.766500000000065 35.37056999999993L19.366899999999987 37.83710999999994L17.867000000000075 36.95478000000003L16.59019999999998 36.85455000000002L16.245300000000043 38.57601L14.976600000000076 38.91985L14.803800000000024 39.74290999999994L16.00999999999999 40.185100000000034L16.34069999999997 40.99436000000003L17.05950000000007 41.48799999999994L16.71460000000002 42.71487000000002L18.604000000000042 44.17647999999997L17.794700000000034 44.40323999999998L16.152500000000032 44.071050000000014L15.775700000000029 44.75383999999997L13.720700000000079 44.73856000000001L13.645200000000045 45.58627000000001L15.522000000000048 47.19161999999994L13.767000000000053 49.42336999999998L13.469100000000026 50.52818000000002L12.763199999999983 50.721540000000005L12.527600000000007 51.09375L12.802500000000009 54.499939999999924L11.546500000000037 54.35698000000002L11.233400000000074 54.64390000000003L10.279999999999973 56.96334999999999L10.367000000000075 58.32580999999993L9.127299999999991 60.802029999999945L8.413400000000024 60.45580999999993L7.716099999999983 60.837800000000016L7.501100000000065 61.62941000000001L6.861300000000028 62.10753L7.2683000000000675 63.10861999999997L6.495200000000068 63.985810000000015L6.164499999999975 64.74823000000004L4.201900000000023 65.34216000000004L4.421699999999987 66.10102999999992L4.01260000000002 66.75900999999999L4.329000000000065 67.46800999999994L4.7806000000000495 68.10649000000001L4.315400000000068 69.15409L4.4950000000000045 69.86546999999996L4.70659999999998 69.98960999999997L5.1340999999999894 70.08291999999994L5.408999999999992 70.91442999999992L4.6096 74.29732999999999L4.283500000000004 74.53814L3.6475000000000364 74.03930000000003L3.2840999999999667 74.21752000000004L3.5521999999999707 74.97586999999999L2.84170000000006 75.94107999999994L1.7165999999999713 74.75681999999995L1.3098999999999705 74.80557999999996L1.532000000000039 75.55643999999995L1.6014999999999873 77.23040000000003L0.6612999999999829 78.05435L0.4171999999999798 78.85394999999994L0 78.85622000000001L0.21850000000006276 79.70481999999993L1.7627999999999702 80.51854000000003L1.0927000000000362 82.06007L1.4618000000000393 82.83821999999998L2.717800000000011 83.09177L3.5348000000000184 82.74834999999996L3.4402000000000044 84.03521999999998L2.801400000000058 85.10527000000002L3.560799999999972 86.12797L3.475599999999986 87.39285999999993L3.5575999999999794 87.80615999999998L3.969600000000014 87.88769000000002L4.877900000000068 87.02418999999998L5.586400000000026 85.50842L6.346400000000017 85.20413999999994L6.6404999999999745 85.50666000000001L5.086999999999989 87.84253000000001L4.979400000000055 88.60771999999997L5.5429000000000315 89.73583999999994L4.265100000000075 91.37010999999995L4.986700000000042 91.81375000000003L5.724299999999971 91.37626L4.198200000000043 93.24135999999999L5.1136000000000195 98.64117999999996L5.946000000000026 100.16146000000003L9.564899999999966 98.23618999999997L10.331800000000044 99.18799999999999L10.819000000000074 98.17945999999995L11.692499999999995 97.42940999999996L13.80320000000006 97.89843999999994L15.28430000000003 97.14359000000002L16.83299999999997 98.58456999999999L17.509000000000015 98.48263999999995L19.17629999999997 98.18396999999993L20.057900000000018 99.12076000000002L20.376600000000053 100.31306999999993L20.754099999999994 100.51774999999998L21.561199999999985 100.23244999999997L22.66770000000008 100.85412999999994L22.76100000000008 100.45440999999994L23.532800000000066 100.19926999999996L25.88990000000001 100.41910999999993L26.33240000000012 97.91496999999993L27.039800000000128 96.34731999999997L25.039499999999975 93.99427000000003L24.86340000000007 93.17318L25.714700000000107 93.31880999999998L26.097200000000043 92.54350999999997L28.740699999999947 91.10145999999997L28.740100000000098 90.24014L28.867700000000127 90.09105999999997L30.337300000000027 90.85686999999996L31.478099999999927 91.86865999999998L32.257600000000025 91.81750999999997L33.39700000000005 89.63614999999993L33.80759999999998 89.58498999999995L34.54900000000009 90.46019000000001L35.05890000000011 91.96091000000001L37.60119999999995 90.50783000000001L37.89659999999992 91.01244999999994L40.51529999999991 89.97043999999994L43.84070000000008 91.79520000000002L44.196399999999926 92.12625000000003L47.099000000000046 92.08600999999999L47.995199999999954 92.9882L47.63440000000003 94.18022999999994L48.5693 94.49749999999995L49.423000000000116 96.82218L51.942499999999995 97.90055999999993L52.64510000000007 97.31894L53.60949999999991 97.01482999999996L53.89790000000005 97.51395000000002L54.56849999999997 99.47248000000002L55.261300000000006 101.52568999999994L56.84399999999994 102.98937999999998L57.55319999999995 103.99092999999993L57.438800000000015 105.21075999999994L59.39549999999997 105.39627999999993L60.54740000000004 105.50560999999993L61.058200000000056 104.46500000000003L62.03120000000001 102.62108L63.48840000000007 103.05457000000001L63.91739999999993 101.89116999999999L65.14839999999992 100.21091000000001L64.6345 97.68327L64.35630000000003 97.07119L65.24540000000013 95.18887999999993L65.99149999999997 94.92976999999996L65.48539999999991 93.86180999999999L64.6930000000001 93.87947999999994L63.90320000000008 93.05098999999996L64.38240000000008 92.41653999999994L63.84839999999997 91.41423999999995L64.04959999999994 91.08479L64.7999000000001 91.44195000000002L65.8646 89.20641L65.63160000000005 87.89658999999995L64.57880000000011 86.48388999999997L64.63549999999998 85.19398000000001L63.52609999999993 84.10838999999999L63.92430000000002 82.90374999999995L65.05740000000003 81.80196000000001L66.0354000000001 79.92534L67.54640000000006 79.18062999999995L68.57880000000011 79.72077000000002L69.3053000000001 79.50853999999993L70.05779999999993 79.11154999999997L70.62060000000008 79.56831999999997L70.75130000000001 78.82055000000003L71.8555 77.82258999999999L74.69850000000008 76.02324999999996L75.88549999999998 75.77999L75.64749999999992 73.26625999999999L76.38189999999997 72.82049999999992L77.21979999999996 73.65869999999995L78.07090000000005 72.24698000000001L80.13950000000011 74.34596999999997L80.19490000000008 73.05255999999997L81.58180000000004 74.06945999999994L83.26869999999997 74.06430999999998L83.83180000000004 74.71622000000002L85.42410000000007 75.26377000000002L85.54309999999998 76.70952999999997L87.87849999999992 77.62209999999993L88.77810000000011 75.94119999999998L90.20940000000007 76.40975000000003L91.43979999999999 76.92047000000002L93.16359999999997 76.57282999999995L93.21480000000008 76.55724999999995L94.29859999999996 76.52143999999998L94.87720000000002 76.11423000000002L97.06160000000011 74.96543999999994L98.04100000000005 72.66687999999999L99.05329999999992 71.34258999999997L99.46300000000008 71.26474999999994L99.92500000000007 69.62437L101.19110000000012 68.49847999999997L100.14909999999998 66.13348999999994L101.25470000000007 65.47380999999996L102.63639999999998 62.40759000000003L103.81859999999995 62.8057L104.98509999999999 62.37598000000003L105.50540000000012 63.027289999999994L106.63029999999992 62.67035999999996L106.93140000000005 62.96156999999994L106.73339999999996 62.15966000000003L105.73719999999992 61.430819999999926L106.01319999999998 59.06380999999999L106.65289999999993 61.01084000000003L108.04679999999996 60.09595999999999L108.97640000000013 59.21623999999997L108.65179999999998 57.11545000000001L108.94259999999997 56.80633999999998L109.77159999999992 56.93097L109.69770000000005 55.65203999999994L108.55869999999993 55.02219000000002L108.68050000000005 54.15842999999995L108.17570000000012 53.46677999999997L107.7912 53.264670000000024L106.9416 53.09305999999992L106.3229 53.694729999999936L105.50139999999999 53.687670000000026L103.30980000000011 55.70219999999995L103.08260000000007 56.954279999999926L102.29550000000006 56.946219999999926L101.2405 57.56038000000001L99.8202 54.90508999999997L101.4421000000001 51.80318L100.10530000000006 52.310010000000034L99.601 52.489829999999984L98.92960000000005 50.96599000000003L97.42909999999995 49.351710000000026L95.4738000000001 48.348409999999944L94.20060000000001 47.85288000000003L94.61980000000005 44.39238L93.07779999999991 44.74550999999997L92.91120000000012 45.579830000000015L91.66449999999998 47.38684999999998L90.30370000000005 48.491750000000025L89.43729999999994 48.36392999999998L89.39369999999997 48.04455999999993L88.58949999999993 48.13099999999997L88.1622000000001 47.37297000000001L86.88810000000001 47.274279999999976L85.97050000000002 46.40912000000003L84.73259999999993 46.131059999999934L83.9289 45.79530999999997L83.43880000000001 45.07209999999998L84.24069999999995 42.64199999999994L82.11530000000005 42.727750000000015L82.27390000000003 41.01242000000002L81.93850000000009 40.733119999999985L79.8012 41.939539999999965L79.63880000000006 42.80300999999997L78.94400000000007 43.340209999999956L76.78879999999992 43.58732999999995L77.02679999999998 43.22037999999998L75.59399999999994 41.62225999999998L75.79800000000012 40.843779999999924L76.41829999999993 40.29160000000002L76.43970000000002 39.10572000000002L77.0408000000001 38.06042000000002L76.43780000000004 37.58673999999996L76.1024000000001 37.84127999999998L76.49159999999995 36.65268000000003L75.97429999999997 34.16750000000002L74.89970000000005 33.65129999999999L74.2849 34.14499000000001L73.06610000000012 34.32569000000001L73.10320000000013 33.916740000000004L72.38819999999998 33.54178999999999L72.92410000000007 32.740839999999935L72.48660000000007 32.24275L74.62279999999998 31.151700000000005L75.66639999999995 30.645639999999958L78.27910000000008 28.88945000000001L78.96100000000013 26.845299999999952L78.17860000000007 26.14621999999997L78.12420000000009 26.230279999999993L77.9135 25.568489999999997L77.18709999999999 25.395149999999944L76.77229999999997 25.260549999999967L76.18799999999999 24.20848000000001L76.25689999999997 22.48388L75.55830000000003 20.890229999999974L74.35180000000003 20.838660000000004L73.29399999999998 20.284539999999993L73.35180000000003 18.330370000000016L72.62130000000013 17.399530000000027L71.46680000000003 14.589609999999993L70.50650000000007 13.811719999999923L68.7999000000001 14.202509999999961L67.28660000000002 17.231679999999983L65.35199999999998 15.816559999999981L64.96529999999996 15.120360000000005L65.25259999999992 14.359919999999988L66.35790000000009 13.773669999999925L68.00290000000007 11.406189999999924L67.23030000000006 9.919880000000035L66.28779999999995 9.012219999999957L64.13379999999995 8.753010000000017L63.39140000000009 9.083309999999983L62.59949999999992 8.744000000000028L61.42130000000009 8.399469999999951L61.24540000000013 7.611449999999991L62.076599999999985 6.075899999999933L63.16649999999993 5.412709999999947L61.90989999999999 4.225720000000024L61.560600000000136 2.9873199999999542L58.169899999999984 3.439359999999965L55.65490000000011 2.856840000000034L54.32000000000005 1.4152299999999514L53.59839999999997 1.080479999999966L51.66120000000012 2.078700000000026L49.50419999999997 0.8492999999999711L47.32489999999996 0.8932800000000043L46.88810000000001 0L46.127599999999916 0.3791599999999562L45.31859999999995 0.11096999999995205L43.63860000000011 0.38589999999999236L41.610500000000116 2.427379999999971L41.23730000000012 3.202289999999948L40.00010000000009 3.152870000000007L40.61119999999994 5.202249999999935L41.67179999999996 5.921600000000012L42.05669999999998 7.616279999999961L41.411899999999946 8.077769999999987z">
      <title id="t84">Quatrième circonscription de Côte-d'Or</title>
      <desc id="d84">Cantons de : Aignay-le-Duc, Baigneux-les-Juifs, Châtillon-sur-Seine, Grancey-le-Château-Neuvelle, Is-sur-Tille, Laignes, Montbard, Montigny-sur-Aube, Précy-sous-Thil, Recey-sur-Ource, Saint-Seine-l'Abbaye, Saulieu, Selongey, Semur-en-Auxois, Sombernon, Venarey-les-Laumes, Vitteaux</desc>
    </path><path class="circo" id="id-021-05" d="M33.81720000000007 89.58415000000002L33.41089999999997 89.64665000000002L32.25470000000007 91.80290000000002L31.473499999999945 91.86540000000002L30.348499999999945 90.86540000000002L28.87970000000007 90.08415000000002L28.75470000000007 90.24040000000002L28.75470000000007 91.11540000000002L26.098499999999945 92.55290000000002L25.723499999999945 93.33415000000002L24.848499999999945 93.17790000000002L25.03589999999997 93.99040000000002L27.03589999999997 96.33415000000002L26.31720000000007 97.92790000000002L25.87970000000007 100.42790000000002L23.53589999999997 100.20915000000002L22.75470000000007 100.45915000000002L22.66089999999997 100.86540000000002L21.56720000000007 100.24040000000002L20.75470000000007 100.52165000000002L20.37970000000007 100.30290000000002L20.06720000000007 99.11540000000002L19.16089999999997 98.17790000000002L17.50470000000007 98.49040000000002L16.848500000000058 98.58415000000002L15.28589999999997 97.14665000000002L13.81720000000007 97.89665000000002L11.69220000000007 97.42790000000002L10.81720000000007 98.17790000000002L10.31720000000007 99.17790000000002L10.81720000000007 100.39665000000002L13.098500000000058 102.39665000000002L13.91089999999997 104.36540000000002L14.098500000000058 105.20915000000002L12.50470000000007 107.20915000000002L12.25470000000007 108.83415000000002L12.28589999999997 110.42790000000002L12.66089999999997 110.58415000000002L12.75470000000007 111.39665000000002L13.098500000000058 111.64665000000002L14.31720000000007 111.74040000000002L15.00470000000007 111.30290000000002L15.098500000000058 113.20915000000002L15.848500000000058 113.39665000000002L16.53589999999997 115.58415000000002L17.973500000000058 116.33415000000002L19.848500000000058 115.83415000000002L20.12970000000007 116.42790000000002L20.78589999999997 116.86540000000002L23.62970000000007 117.08415000000002L24.16089999999997 117.70915000000002L23.723499999999945 120.77165000000002L24.848499999999945 121.95915000000002L25.25470000000007 121.83415000000002L25.94220000000007 120.24040000000002L26.56720000000007 119.64665000000002L28.69220000000007 119.55290000000002L29.81720000000007 120.17790000000002L29.03589999999997 121.14665000000002L28.723499999999945 122.77165000000002L29.00470000000007 123.58415000000002L30.78589999999997 124.77165000000002L33.348499999999945 124.80290000000002L34.53589999999997 126.02165000000002L36.06720000000007 125.83415000000002L36.848499999999945 126.61540000000002L36.848499999999945 127.33415000000002L37.41089999999997 127.80290000000002L38.00470000000007 128.30290000000002L39.25470000000007 128.30290000000002L41.62970000000007 127.30290000000002L41.78589999999997 128.92790000000002L41.00470000000007 130.39665000000002L41.598499999999945 130.99040000000002L42.41089999999997 130.77165000000002L42.75470000000007 130.95915000000002L42.723499999999945 131.99040000000002L43.223499999999945 133.11540000000002L44.78589999999997 133.86540000000002L44.56720000000007 135.11540000000002L45.098499999999945 135.77165000000002L46.56720000000007 136.14665000000002L46.94220000000007 136.80290000000002L46.69220000000007 137.08415000000002L47.973499999999945 137.36540000000002L49.69220000000007 137.11540000000002L49.91089999999997 137.42790000000002L52.12970000000007 138.49040000000002L52.19220000000007 138.89665000000002L51.41089999999997 139.67790000000002L51.098499999999945 140.74040000000002L52.69220000000007 142.14665000000002L55.06720000000007 141.45915000000002L55.69220000000007 140.58415000000002L55.53589999999997 139.80290000000002L56.12970000000007 139.58415000000002L56.348499999999945 139.86540000000002L57.723499999999945 139.20915000000002L58.69220000000007 140.11540000000002L59.973499999999945 140.05290000000002L60.69220000000007 139.92790000000002L61.69220000000007 139.08415000000002L61.50470000000007 138.24040000000002L63.00470000000007 138.14665000000002L63.19220000000007 138.45915000000002L63.848499999999945 138.14665000000002L63.87970000000007 137.80290000000002L68.47349999999994 136.27165000000002L70.37970000000007 135.86540000000002L70.19220000000007 135.11540000000002L70.66089999999997 134.02165000000002L72.22349999999994 133.83415000000002L75.37970000000007 134.17790000000002L75.66089999999997 134.39665000000002L79.84849999999994 135.02165000000002L79.94220000000007 134.89665000000002L79.22349999999994 134.64665000000002L79.75470000000007 133.27165000000002L81.03589999999997 133.27165000000002L81.91089999999997 132.33415000000002L83.66089999999997 132.11540000000002L84.31720000000007 132.86540000000002L85.06720000000007 133.92790000000002L85.47349999999994 133.89665000000002L85.81720000000007 134.64665000000002L87.84849999999994 135.14665000000002L88.06720000000007 135.49040000000002L87.75470000000007 136.67790000000002L88.22349999999994 136.17790000000002L88.47349999999994 135.14665000000002L89.66089999999997 134.39665000000002L91.62970000000007 134.45915000000002L92.25470000000007 133.99040000000002L93.44220000000007 134.27165000000002L94.91089999999997 132.95915000000002L95.84849999999994 133.39665000000002L96.59849999999994 131.89665000000002L96.94220000000007 131.77165000000002L97.50470000000007 132.27165000000002L98.34849999999994 131.20915000000002L101.16089999999997 132.30290000000002L102.56720000000007 131.14665000000002L102.84849999999994 130.05290000000002L103.19220000000007 129.92790000000002L104.81720000000007 129.58415000000002L105.31720000000007 128.52165000000002L106.50470000000007 128.27165000000002L106.41089999999997 127.83415000000002L102.84849999999994 126.45915000000002L102.84849999999994 126.42790000000002L103.56720000000007 124.02165000000002L104.87970000000007 122.49040000000002L105.12970000000007 122.20915000000002L105.84849999999994 122.27165000000002L107.00470000000007 120.61540000000002L107.72349999999994 120.27165000000002L108.84849999999994 120.24040000000002L110.03589999999997 119.67790000000002L110.34849999999994 120.05290000000002L111.56720000000007 119.92790000000002L112.25470000000007 119.61540000000002L112.72349999999994 118.61540000000002L113.28589999999997 117.99040000000002L113.50470000000007 116.39665000000002L112.81720000000007 115.83415000000002L112.47349999999994 114.17790000000002L111.06720000000007 112.58415000000002L110.62970000000007 113.64665000000002L109.19220000000007 114.08415000000002L107.94220000000007 114.49040000000002L106.87970000000007 115.89665000000002L106.09849999999994 116.30290000000002L104.53589999999997 112.74040000000002L104.41089999999997 110.27165000000002L103.62970000000007 109.30290000000002L102.44220000000007 108.86540000000002L101.50470000000007 108.02165000000002L101.09849999999994 107.80290000000002L100.31720000000007 107.77165000000002L99.84849999999994 108.05290000000002L99.37970000000007 107.77165000000002L98.59849999999994 108.64665000000002L98.34849999999994 108.33415000000002L97.19220000000007 108.80290000000002L96.84849999999994 109.55290000000002L95.97349999999994 108.70915000000002L95.41089999999997 110.20915000000002L94.41089999999997 110.67790000000002L94.12970000000007 110.92790000000002L94.22349999999994 112.05290000000002L91.09849999999994 114.02165000000002L90.69220000000007 113.99040000000002L89.84849999999994 112.33415000000002L89.53589999999997 112.52165000000002L89.34849999999994 112.89665000000002L88.19220000000007 112.42790000000002L87.53589999999997 111.36540000000002L87.69220000000007 110.52165000000002L87.94220000000007 108.58415000000002L88.84849999999994 107.11540000000002L88.72349999999994 106.24040000000002L87.94220000000007 105.83415000000002L88.16089999999997 105.49040000000002L89.31720000000007 105.49040000000002L89.25470000000007 104.42790000000002L89.25470000000007 103.30290000000002L88.66089999999997 102.17790000000002L86.75470000000007 100.86540000000002L86.31720000000007 100.42790000000002L83.56720000000007 96.30290000000002L82.53589999999997 95.92790000000002L82.50470000000007 96.70915000000002L82.31720000000007 98.42790000000002L82.69220000000007 99.20915000000002L81.81720000000007 100.17790000000002L81.41089999999997 100.14665000000002L81.28589999999997 99.80290000000002L81.50470000000007 99.45915000000002L79.41089999999997 96.95915000000002L77.00470000000007 96.27165000000002L75.50470000000007 95.55290000000002L75.06720000000007 94.89665000000002L74.25470000000007 95.02165000000002L74.19220000000007 95.05290000000002L73.53589999999997 96.52165000000002L71.53589999999997 96.39665000000002L70.97349999999994 96.95915000000002L70.66089999999997 95.42790000000002L68.91089999999997 96.17790000000002L68.41089999999997 95.58415000000002L67.75470000000007 95.99040000000002L67.37970000000007 95.83415000000002L67.16089999999997 95.05290000000002L66.00470000000007 94.92790000000002L65.25470000000007 95.17790000000002L64.34849999999994 97.08415000000002L64.62970000000007 97.67790000000002L65.16089999999997 100.20915000000002L63.91089999999997 101.89665000000002L63.473499999999945 103.05290000000002L62.03589999999997 102.61540000000002L61.06720000000007 104.45915000000002L60.53589999999997 105.49040000000002L59.41089999999997 105.39665000000002L57.44220000000007 105.20915000000002L57.56720000000007 103.99040000000002L56.848499999999945 102.99040000000002L55.25470000000007 101.52165000000002L54.56720000000007 99.45915000000002L53.91089999999997 97.52165000000002L53.598499999999945 97.02165000000002L52.62970000000007 97.33415000000002L51.94220000000007 97.89665000000002L49.41089999999997 96.83415000000002L48.56720000000007 94.49040000000002L47.62970000000007 94.17790000000002L48.00470000000007 92.99040000000002L47.098499999999945 92.08415000000002L44.19220000000007 92.11540000000002L43.848499999999945 91.80290000000002L40.50470000000007 89.95915000000002L37.91089999999997 91.02165000000002L37.598499999999945 90.52165000000002L35.06720000000007 91.95915000000002L34.53589999999997 90.45915000000002L33.81720000000007 89.58415000000002zM9.91089999999997 111.02165000000002L6.723500000000058 111.95915000000002L4.223500000000058 111.58415000000002L3.973500000000058 111.86540000000002L4.379700000000071 112.99040000000002L3.723500000000058 113.45915000000002L3.723500000000058 113.86540000000002L4.317200000000071 114.42790000000002L5.192200000000071 113.55290000000002L6.16089999999997 114.86540000000002L7.223500000000058 115.58415000000002L8.06720000000007 114.64665000000002L8.69220000000007 115.17790000000002L9.37970000000007 115.30290000000002L9.28589999999997 114.45915000000002L10.31720000000007 113.02165000000002L10.473500000000058 111.70915000000002L9.91089999999997 111.02165000000002z">
      <title id="t85">Cinquième circonscription de Côte-d'Or</title>
      <desc id="d85">Cantons de : Arnay-le-Duc, Beaune Nord, Beaune Sud, Bligny-sur-Ouche, Gevrey-Chambertin, Liernais, Nolay, Nuits-Saint-Georges, Pouilly-en-Auxois, Saint-Jean-de-Losne, Seurre</desc>
    </path></svg>