<svg xmlns="http://www.w3.org/2000/svg" version="1.1" xmlns:xlink="http://www.w3.org/1999/xlink" xmlns:svgjs="http://svgjs.dev/svgjs" viewBox="1002.4 553.17664 123.53740000000005 142.14665000000002"><path class="circo" id="id-021-01" d="M 1076.6394,648.20076 1076.5826,648.22757 1075.9248,649.69494 1073.9328,649.57419 1073.3615,650.13899 1073.0518,648.60744 1071.2975,649.3596 1070.8023,648.75791 1070.156,649.17232 1069.7821,649.00107 1069.5734,648.21542 1068.3915,648.10641 1067.8854,647.03845 1067.093,647.05612 1066.3032,646.22763 1066.7824,645.59318 1066.2484,644.59088 1066.4496,644.26143 1067.1999,644.61859 1068.2646,642.38305 1068.0316,641.07323 1066.9788,639.66053 1067.0355,638.37062 1065.9261,637.28503 1066.3243,636.08039 1067.4574,634.9786 1068.4354,633.10198 1069.9464,632.35727 1070.9788,632.89741 1071.7053,632.68518 1072.4578,632.28819 1073.0206,632.74496 1073.1513,631.99719 1074.2555,630.99923 1077.0985,629.19989 1078.2855,628.95663 1078.0475,626.4429 1078.7819,625.99714 1079.6198,626.83534 1080.4709,625.42362 1082.5395,627.52261 1082.5949,626.2292 1083.9818,627.2461 1085.6687,627.24095 1086.2318,627.89286 1087.8241,628.44041 1087.9431,629.88617 1090.2785,630.79874 1090.2463,630.90539 1088.3871,634.45695 1088.5916,634.5663 1087.3346,636.78163 1086.5846,636.41728 1085.8259,638.62663 1085.5673,640.21184 1086.7039,640.98464 1086.2466,642.69976 1084.9549,642.66329 1083.9482,643.47208 1082.3225,643.99812 1079.991,645.01254 1079.352,645.82268 1078.226,646.3126 1076.6394,648.20076 z">
      <title id="t81">Première circonscription de Côte-d'Or</title>
      <desc id="d81">Canton de : Dijon V, Dijon VI, Dijon VII, Fontaine-lès-Dijon</desc>
    </path><path class="circo" id="id-021-02" d="M 1119.8044,658.28382 1120.328,658.78795 1120.8693,660.27388 1120.3044,662.23296 1119.9959,663.05884 1119.1167,664.01448 1119.1751,665.1432 1118.3194,665.89561 1117.0995,666.42079 1116.6341,667.37432 1116.891,668.03267 1116.7448,668.78538 1115.9113,669.56873 1115.2224,669.02469 1114.8781,667.35009 1113.4529,665.76066 1113.0236,666.83273 1111.5779,667.27438 1110.3432,667.68102 1109.2717,669.06916 1108.4963,669.46807 1106.9474,665.91785 1106.8218,663.43324 1106.0224,662.47313 1104.8389,662.05267 1103.8915,661.1864 1103.5028,660.99396 1104.0816,660.50374 1106.1022,657.79853 1105.3003,656.85576 1106.5741,655.8514 1107.7903,655.75955 1108.0458,655.4379 1108.7697,655.81536 1109.7234,654.41181 1109.2861,653.49472 1108.3812,653.03387 1109.4722,651.7105 1109.1075,649.57795 1109.6635,648.41538 1109.8781,647.92749 1106.5107,647.58818 1106.3762,647.18256 1104.6471,646.03775 1105.0799,645.15159 1103.2301,644.69994 1102.6475,644.13004 1102.6436,643.31472 1101.8769,643.0795 1101.8534,641.88055 1102.6454,640.47204 1101.8546,639.08242 1099.1403,637.81486 1096.7834,638.96285 1095.4858,638.83788 1095.2039,639.63569 1094.9958,639.79163 1093.736,639.81596 1093.022,640.86076 1091.9689,640.9532 1091.1661,642.34456 1090.172,643.10733 1089.3455,643.15761 1088.9652,643.79442 1088.6532,644.22221 1088.0594,644.39233 1086.8162,643.80953 1085.9889,643.93443 1085.8145,644.77067 1085.3629,645.66527 1084.3005,645.9168 1083.2323,645.31254 1083.9482,643.47208 1084.9549,642.66329 1086.2466,642.69976 1086.7039,640.98464 1085.5673,640.21184 1085.8259,638.62663 1086.5846,636.41728 1087.3346,636.78163 1088.5916,634.5663 1088.3871,634.45695 1090.2463,630.90539 1090.2785,630.79874 1091.1781,629.11784 1092.6094,629.58639 1093.8398,630.09711 1095.5636,629.74947 1095.6148,629.73389 1096.6986,629.69808 1097.2772,629.29087 1099.4616,628.14208 1100.441,625.84352 1101.4533,624.51923 1101.863,624.44139 1102.325,622.80101 1103.5911,621.67512 1102.5491,619.31013 1103.6547,618.65045 1105.0364,615.58423 1106.2186,615.98234 1107.3851,615.55262 1107.9054,616.20393 1109.0303,615.847 1109.3314,616.13821 1109.1334,615.3363 1108.1372,614.60746 1108.4132,612.24045 1109.0529,614.18748 1110.4468,613.2726 1111.3764,612.39288 1111.0518,610.29209 1111.3426,609.98298 1112.1716,610.10761 1112.0977,608.82868 1112.9531,607.42974 1113.658,607.20912 1114.6356,607.70532 1114.9366,608.38198 1115.8447,608.13946 1118.037,603.73723 1119.276,604.02772 1121.9009,606.74542 1122.5394,607.10272 1123.2133,610.47695 1122.8638,612.13614 1123.6214,612.39603 1124.076,614.44312 1123.2059,616.98156 1121.96,616.91975 1120.4572,619.53073 1119.8955,620.85375 1118.9582,621.5814 1118.2228,620.81324 1115.7947,620.49971 1115.1084,621.86557 1114.7816,622.74139 1116.5109,623.24497 1114.1217,624.63428 1113.3625,624.84124 1114.2865,625.49754 1114.1249,626.59312 1116.255,625.27664 1117.0479,625.41079 1117.4051,626.57539 1118.566,626.88172 1118.8899,626.6268 1119.3483,627.09615 1119.1305,627.38825 1118.5259,628.51946 1118.4475,630.26307 1119.4704,632.06074 1118.6882,633.88466 1120.2299,634.95801 1122.4908,633.66969 1124.0997,634.38325 1123.6725,636.34937 1123.4116,638.48644 1123.5171,638.67628 1123.937,640.2963 1123.6844,641.52086 1123.4274,641.85158 1122.6134,641.77395 1122.1285,642.44312 1122.1766,643.57401 1124.2336,643.70904 1125.1358,644.4773 1125.9374,644.96695 1124.8176,647.48806 1123.7705,646.97292 1123.38,646.97743 1123.389,647.3694 1123.3419,647.97623 1123.304,649.68229 1122.9278,650.45224 1123.03,653.25147 1122.6709,653.37766 1122.2628,654.09661 1122.5881,655.6976 1122.169,656.37763 1121.2256,657.19447 1120.0487,657.61186 1119.8044,658.28382 z">
      <title id="t82">Deuxième circonscription de Côte-d'Or</title>
      <desc id="d82">Cantons de : Auxonne, Dijon I, Dijon III, Dijon VIII, Fontaine-Française, Mirebeau (le canton de Mirebeau est devenu le canton de Mirebeau-sur-Bèze par suite de changement de nom de sa commune chef-lieu par décret du 26 mars 1993), Pontailler-sur-Saône</desc>
    </path><path class="circo" id="id-021-03" d="M 1093.022,640.86076 1091.9689,640.9532 1091.1661,642.34456 1090.172,643.10733 1089.3455,643.15761 1088.9652,643.79442 1088.6532,644.22221 1088.0594,644.39233 1086.8162,643.80953 1085.9889,643.93443 1085.8145,644.77067 1085.3629,645.66527 1084.3005,645.9168 1083.2323,645.31254 1083.9482,643.47208 1082.3225,643.99812 1080.0345,645.03276 1079.352,645.82268 1078.226,646.3126 1076.6394,648.20076 1077.467,648.07559 1077.8999,648.71819 1079.3955,649.45606 1081.819,650.12295 1083.9089,652.6495 1083.6945,652.99356 1083.8008,653.31757 1084.2296,653.33998 1085.0835,652.39119 1084.7293,651.60731 1084.9014,649.89511 1084.9288,649.09603 1085.9716,649.47623 1088.7138,653.61252 1089.1453,654.04116 1091.0705,655.35155 1091.6554,656.4661 1091.6654,657.60223 1091.7291,658.66874 1090.5606,658.6825 1090.3417,659.02025 1091.1146,659.43177 1091.2464,660.29927 1090.3293,661.77147 1090.0991,663.68274 1089.9408,664.53406 1090.6078,665.61545 1091.7588,666.08067 1091.9239,665.69917 1092.2478,665.49848 1093.0828,667.15732 1093.5099,667.20941 1096.6166,665.22043 1096.5369,664.11747 1096.8068,663.85474 1097.8252,663.38873 1098.3638,661.8915 1099.2438,662.74268 1099.5958,661.99466 1100.7454,661.51127 1100.9889,661.83574 1101.7928,660.95869 1102.2355,661.22242 1102.7073,660.93631 1103.5028,660.99396 1104.0816,660.50374 1106.1022,657.79853 1105.3003,656.85576 1106.5741,655.8514 1107.7903,655.75955 1108.0458,655.4379 1108.7697,655.81536 1109.7234,654.41181 1109.2861,653.49472 1108.3812,653.03387 1109.4722,651.7105 1109.1075,649.57795 1109.6635,648.41538 1109.8781,647.92749 1106.5107,647.58818 1106.3762,647.18256 1104.6471,646.03775 1105.0799,645.15159 1103.2301,644.69994 1102.6475,644.13004 1102.6436,643.31472 1101.8769,643.0795 1101.8534,641.88055 1102.6454,640.47204 1101.8546,639.08242 1099.1403,637.81486 1096.7834,638.96285 1095.4858,638.83788 1095.2039,639.63569 1094.9958,639.79163 1093.736,639.81596 1093.022,640.86076 z">
      <title id="t83">Troisième circonscription de Côte-d'Or</title>
      <desc id="d83">Cantons de : Chenôve, Dijon II, Dijon IV, Genlis</desc>
    </path><path class="circo" id="id-021-04" d="M 1043.8119,561.25441 1042.0318,560.98641 1040.7574,561.4371 1038.9752,561.22128 1034.8508,562.72553 1034.0985,562.32214 1032.2538,561.20211 1026.8253,562.67082 1023.4469,561.92584 1022.8394,562.98395 1022.2983,563.68896 1022.5364,564.99826 1021.7997,566.59856 1022.8371,567.26754 1022.9356,568.53859 1023.4398,569.22385 1022.3644,569.71608 1020.7694,569.84401 1020.1382,570.32224 1019.5486,571.48115 1017.8841,572.87711 1019.336,573.46713 1019.1872,576.94958 1019.9299,577.414 1021.9148,576.61306 1024.4721,576.54618 1024.8026,577.24379 1024.1973,578.23776 1024.4752,579.8961 1024.0568,581.07523 1025.7841,582.5762 1024.6734,584.3353 1025.3728,585.81605 1024.9519,585.94202 1024.8697,586.37557 1024.9966,588.076 1023.889,588.7653 1023.1665,588.54721 1021.7669,591.01375 1020.267,590.13142 1018.9902,590.03119 1018.6453,591.75265 1017.3766,592.09649 1017.2038,592.91955 1018.41,593.36174 1018.7407,594.171 1019.4595,594.66464 1019.1146,595.89151 1021.004,597.35312 1020.1947,597.57988 1018.5525,597.24769 1018.1757,597.93048 1016.1207,597.9152 1016.0452,598.76291 1017.922,600.36826 1016.167,602.60001 1015.8691,603.70482 1015.1632,603.89818 1014.9276,604.27039 1015.2025,607.67658 1013.9465,607.53362 1013.6334,607.82054 1012.68,610.13999 1012.767,611.50245 1011.5273,613.97867 1010.8134,613.63245 1010.1161,614.01444 1009.9011,614.80605 1009.2613,615.28417 1009.6683,616.28526 1008.8952,617.16245 1008.5645,617.92487 1006.6019,618.5188 1006.8217,619.27767 1006.4126,619.93565 1006.729,620.64465 1007.1806,621.28313 1006.7154,622.33073 1006.895,623.04211 1007.1066,623.16625 1007.5341,623.25956 1007.809,624.09107 1007.0096,627.47397 1006.6835,627.71478 1006.0475,627.21594 1005.6841,627.39416 1005.9522,628.15251 1005.2417,629.11772 1004.1166,627.93346 1003.7099,627.98222 1003.932,628.73308 1004.0015,630.40704 1003.0613,631.23099 1002.8172,632.03059 1002.4,632.03286 1002.6185,632.88146 1004.1628,633.69518 1003.4927,635.23671 1003.8618,636.01486 1005.1178,636.26841 1005.9348,635.92499 1005.8402,637.21186 1005.2014,638.28191 1005.9608,639.30461 1005.8756,640.5695 1005.9576,640.9828 1006.3696,641.06433 1007.2779,640.20083 1007.9864,638.68506 1008.7464,638.38078 1009.0405,638.6833 1007.487,641.01917 1007.3794,641.78436 1007.9429,642.91248 1006.6651,644.54675 1007.3867,644.99039 1008.1243,644.5529 1006.5982,646.418 1007.5136,651.81782 1008.346,653.3381 1011.9649,651.41283 1012.7318,652.36464 1013.219,651.3561 1014.0925,650.60605 1016.2032,651.07508 1017.6843,650.32023 1019.233,651.76121 1019.909,651.65928 1021.5763,651.36061 1022.4579,652.2974 1022.7766,653.48971 1023.1541,653.69439 1023.9612,653.40909 1025.0677,654.03077 1025.161,653.63105 1025.9328,653.37591 1028.2899,653.59575 1028.7324,651.09161 1029.4398,649.52396 1027.4395,647.17091 1027.2634,646.34982 1028.1147,646.49545 1028.4972,645.72015 1031.1407,644.2781 1031.1401,643.41678 1031.2677,643.2677 1032.7373,644.03351 1033.8781,645.0453 1034.6576,644.99415 1035.797,642.81279 1036.2076,642.76163 1036.949,643.63683 1037.4589,645.13755 1040.0012,643.68447 1040.2966,644.18909 1042.9153,643.14708 1046.2407,644.97184 1046.5964,645.30289 1049.499,645.26265 1050.3952,646.16484 1050.0344,647.35687 1050.9693,647.67414 1051.823,649.99882 1054.3425,651.0772 1055.0451,650.49558 1056.0095,650.19147 1056.2979,650.69059 1056.9685,652.64912 1057.6613,654.70233 1059.244,656.16602 1059.9532,657.16757 1059.8388,658.3874 1061.7955,658.57292 1062.9474,658.68225 1063.4582,657.64164 1064.4312,655.79772 1065.8884,656.23121 1066.3174,655.06781 1067.5484,653.38755 1067.0345,650.85991 1066.7563,650.24783 1067.6454,648.36552 1068.3915,648.10641 1067.8854,647.03845 1067.093,647.05612 1066.3032,646.22763 1066.7824,645.59318 1066.2484,644.59088 1066.4496,644.26143 1067.1999,644.61859 1068.2646,642.38305 1068.0316,641.07323 1066.9788,639.66053 1067.0355,638.37062 1065.9261,637.28503 1066.3243,636.08039 1067.4574,634.9786 1068.4354,633.10198 1069.9464,632.35727 1070.9788,632.89741 1071.7053,632.68518 1072.4578,632.28819 1073.0206,632.74496 1073.1513,631.99719 1074.2555,630.99923 1077.0985,629.19989 1078.2855,628.95663 1078.0475,626.4429 1078.7819,625.99714 1079.6198,626.83534 1080.4709,625.42362 1082.5395,627.52261 1082.5949,626.2292 1083.9818,627.2461 1085.6687,627.24095 1086.2318,627.89286 1087.8241,628.44041 1087.9431,629.88617 1090.2785,630.79874 1091.1781,629.11784 1092.6094,629.58639 1093.8398,630.09711 1095.5636,629.74947 1095.6148,629.73389 1096.6986,629.69808 1097.2772,629.29087 1099.4616,628.14208 1100.441,625.84352 1101.4533,624.51923 1101.863,624.44139 1102.325,622.80101 1103.5911,621.67512 1102.5491,619.31013 1103.6547,618.65045 1105.0364,615.58423 1106.2186,615.98234 1107.3851,615.55262 1107.9054,616.20393 1109.0303,615.847 1109.3314,616.13821 1109.1334,615.3363 1108.1372,614.60746 1108.4132,612.24045 1109.0529,614.18748 1110.4468,613.2726 1111.3764,612.39288 1111.0518,610.29209 1111.3426,609.98298 1112.1716,610.10761 1112.0977,608.82868 1110.9587,608.19883 1111.0805,607.33507 1110.5757,606.64342 1110.1912,606.44131 1109.3416,606.2697 1108.7229,606.87137 1107.9014,606.86431 1105.7098,608.87884 1105.4826,610.13092 1104.6955,610.12286 1103.6405,610.73702 1102.2202,608.08173 1103.8421,604.97982 1102.5053,605.48665 1102.001,605.66647 1101.3296,604.14263 1099.8291,602.52835 1097.8738,601.52505 1096.6006,601.02952 1097.0198,597.56902 1095.4778,597.92215 1095.3112,598.75647 1094.0645,600.56349 1092.7037,601.66839 1091.8373,601.54057 1091.7937,601.2212 1090.9895,601.30764 1090.5622,600.54961 1089.2881,600.45092 1088.3705,599.58576 1087.1326,599.3077 1086.3289,598.97195 1085.8388,598.24874 1086.6407,595.81864 1084.5153,595.90439 1084.6739,594.18906 1084.3385,593.90976 1082.2012,595.11618 1082.0388,595.97965 1081.344,596.51685 1079.1888,596.76397 1079.4268,596.39702 1077.994,594.7989 1078.198,594.02042 1078.8183,593.46824 1078.8397,592.28236 1079.4408,591.23706 1078.8378,590.76338 1078.5024,591.01792 1078.8916,589.82932 1078.3743,587.34414 1077.2997,586.82794 1076.6849,587.32163 1075.4661,587.50233 1075.5032,587.09338 1074.7882,586.71843 1075.3241,585.91748 1074.8866,585.41939 1077.0228,584.32834 1078.0664,583.82228 1080.6791,582.06609 1081.361,580.02194 1080.5786,579.32286 1080.5242,579.40692 1080.3135,578.74513 1079.5871,578.57179 1079.1723,578.43719 1078.588,577.38512 1078.6569,575.66052 1077.9583,574.06687 1076.7518,574.0153 1075.694,573.46118 1075.7518,571.50701 1075.0213,570.57617 1073.8668,567.76625 1072.9065,566.98836 1071.1999,567.37915 1069.6866,570.40832 1067.752,568.9932 1067.3653,568.297 1067.6526,567.53656 1068.7579,566.95031 1070.4029,564.58283 1069.6303,563.09652 1068.6878,562.18886 1066.5338,561.92965 1065.7914,562.25995 1064.9995,561.92064 1063.8213,561.57611 1063.6454,560.78809 1064.4766,559.25254 1065.5665,558.58935 1064.3099,557.40236 1063.9606,556.16396 1060.5699,556.616 1058.0549,556.03348 1056.72,554.59187 1055.9984,554.25712 1054.0612,555.25534 1051.9042,554.02594 1049.7249,554.06992 1049.2881,553.17664 1048.5276,553.5558 1047.7186,553.28761 1046.0386,553.56254 1044.0105,555.60402 1043.6373,556.37893 1042.4001,556.32951 1043.0112,558.37889 1044.0718,559.09824 1044.4567,560.79292 1043.8119,561.25441 z">
      <title id="t84">Quatrième circonscription de Côte-d'Or</title>
      <desc id="d84">Cantons de : Aignay-le-Duc, Baigneux-les-Juifs, Châtillon-sur-Seine, Grancey-le-Château-Neuvelle, Is-sur-Tille, Laignes, Montbard, Montigny-sur-Aube, Précy-sous-Thil, Recey-sur-Ource, Saint-Seine-l'Abbaye, Saulieu, Selongey, Semur-en-Auxois, Sombernon, Venarey-les-Laumes, Vitteaux</desc>
    </path><path class="circo" id="id-021-05" d="M 1036.2172,642.76079 1035.8109,642.82329 1034.6547,644.97954 1033.8735,645.04204 1032.7485,644.04204 1031.2797,643.26079 1031.1547,643.41704 1031.1547,644.29204 1028.4985,645.72954 1028.1235,646.51079 1027.2485,646.35454 1027.4359,647.16704 1029.4359,649.51079 1028.7172,651.10454 1028.2797,653.60454 1025.9359,653.38579 1025.1547,653.63579 1025.0609,654.04204 1023.9672,653.41704 1023.1547,653.69829 1022.7797,653.47954 1022.4672,652.29204 1021.5609,651.35454 1019.9047,651.66704 1019.2485,651.76079 1017.6859,650.32329 1016.2172,651.07329 1014.0922,650.60454 1013.2172,651.35454 1012.7172,652.35454 1013.2172,653.57329 1015.4985,655.57329 1016.3109,657.54204 1016.4985,658.38579 1014.9047,660.38579 1014.6547,662.01079 1014.6859,663.60454 1015.0609,663.76079 1015.1547,664.57329 1015.4985,664.82329 1016.7172,664.91704 1017.4047,664.47954 1017.4985,666.38579 1018.2485,666.57329 1018.9359,668.76079 1020.3735,669.51079 1022.2485,669.01079 1022.5297,669.60454 1023.1859,670.04204 1026.0297,670.26079 1026.5609,670.88579 1026.1235,673.94829 1027.2485,675.13579 1027.6547,675.01079 1028.3422,673.41704 1028.9672,672.82329 1031.0922,672.72954 1032.2172,673.35454 1031.4359,674.32329 1031.1235,675.94829 1031.4047,676.76079 1033.1859,677.94829 1035.7485,677.97954 1036.9359,679.19829 1038.4672,679.01079 1039.2485,679.79204 1039.2485,680.51079 1039.8109,680.97954 1040.4047,681.47954 1041.6547,681.47954 1044.0297,680.47954 1044.1859,682.10454 1043.4047,683.57329 1043.9985,684.16704 1044.8109,683.94829 1045.1547,684.13579 1045.1235,685.16704 1045.6235,686.29204 1047.1859,687.04204 1046.9672,688.29204 1047.4985,688.94829 1048.9672,689.32329 1049.3422,689.97954 1049.0922,690.26079 1050.3735,690.54204 1052.0922,690.29204 1052.3109,690.60454 1054.5297,691.66704 1054.5922,692.07329 1053.8109,692.85454 1053.4985,693.91704 1055.0922,695.32329 1057.4672,694.63579 1058.0922,693.76079 1057.9359,692.97954 1058.5297,692.76079 1058.7485,693.04204 1060.1235,692.38579 1061.0922,693.29204 1062.3735,693.22954 1063.0922,693.10454 1064.0922,692.26079 1063.9047,691.41704 1065.4047,691.32329 1065.5922,691.63579 1066.2485,691.32329 1066.2797,690.97954 1070.8735,689.44829 1072.7797,689.04204 1072.5922,688.29204 1073.0609,687.19829 1074.6235,687.01079 1077.7797,687.35454 1078.0609,687.57329 1082.2485,688.19829 1082.3422,688.07329 1081.6235,687.82329 1082.1547,686.44829 1083.4359,686.44829 1084.3109,685.51079 1086.0609,685.29204 1086.7172,686.04204 1087.4672,687.10454 1087.8735,687.07329 1088.2172,687.82329 1090.2485,688.32329 1090.4672,688.66704 1090.1547,689.85454 1090.6235,689.35454 1090.8735,688.32329 1092.0609,687.57329 1094.0297,687.63579 1094.6547,687.16704 1095.8422,687.44829 1097.3109,686.13579 1098.2485,686.57329 1098.9985,685.07329 1099.3422,684.94829 1099.9047,685.44829 1100.7485,684.38579 1103.5609,685.47954 1104.9672,684.32329 1105.2485,683.22954 1105.5922,683.10454 1107.2172,682.76079 1107.7172,681.69829 1108.9047,681.44829 1108.8109,681.01079 1105.2485,679.63579 1105.2485,679.60454 1105.9672,677.19829 1107.2797,675.66704 1107.5297,675.38579 1108.2485,675.44829 1109.4047,673.79204 1110.1235,673.44829 1111.2485,673.41704 1112.4359,672.85454 1112.7485,673.22954 1113.9672,673.10454 1114.6547,672.79204 1115.1235,671.79204 1115.6859,671.16704 1115.9047,669.57329 1115.2172,669.01079 1114.8735,667.35454 1113.4672,665.76079 1113.0297,666.82329 1111.5922,667.26079 1110.3422,667.66704 1109.2797,669.07329 1108.4985,669.47954 1106.9359,665.91704 1106.8109,663.44829 1106.0297,662.47954 1104.8422,662.04204 1103.9047,661.19829 1103.4985,660.97954 1102.7172,660.94829 1102.2485,661.22954 1101.7797,660.94829 1100.9985,661.82329 1100.7485,661.51079 1099.5922,661.97954 1099.2485,662.72954 1098.3735,661.88579 1097.8109,663.38579 1096.8109,663.85454 1096.5297,664.10454 1096.6235,665.22954 1093.4985,667.19829 1093.0922,667.16704 1092.2485,665.51079 1091.9359,665.69829 1091.7485,666.07329 1090.5922,665.60454 1089.9359,664.54204 1090.0922,663.69829 1090.3422,661.76079 1091.2485,660.29204 1091.1235,659.41704 1090.3422,659.01079 1090.5609,658.66704 1091.7172,658.66704 1091.6547,657.60454 1091.6547,656.47954 1091.0609,655.35454 1089.1547,654.04204 1088.7172,653.60454 1085.9672,649.47954 1084.9359,649.10454 1084.9047,649.88579 1084.7172,651.60454 1085.0922,652.38579 1084.2172,653.35454 1083.8109,653.32329 1083.6859,652.97954 1083.9047,652.63579 1081.8109,650.13579 1079.4047,649.44829 1077.9047,648.72954 1077.4672,648.07329 1076.6547,648.19829 1076.5922,648.22954 1075.9359,649.69829 1073.9359,649.57329 1073.3735,650.13579 1073.0609,648.60454 1071.3109,649.35454 1070.8109,648.76079 1070.1547,649.16704 1069.7797,649.01079 1069.5609,648.22954 1068.4047,648.10454 1067.6547,648.35454 1066.7485,650.26079 1067.0297,650.85454 1067.5609,653.38579 1066.3109,655.07329 1065.8735,656.22954 1064.4359,655.79204 1063.4672,657.63579 1062.9359,658.66704 1061.8109,658.57329 1059.8422,658.38579 1059.9672,657.16704 1059.2485,656.16704 1057.6547,654.69829 1056.9672,652.63579 1056.3109,650.69829 1055.9985,650.19829 1055.0297,650.51079 1054.3422,651.07329 1051.8109,650.01079 1050.9672,647.66704 1050.0297,647.35454 1050.4047,646.16704 1049.4985,645.26079 1046.5922,645.29204 1046.2485,644.97954 1042.9047,643.13579 1040.3109,644.19829 1039.9985,643.69829 1037.4672,645.13579 1036.9359,643.63579 1036.2172,642.76079 z M 1012.3109,664.19829 1009.1235,665.13579 1006.6235,664.76079 1006.3735,665.04204 1006.7797,666.16704 1006.1235,666.63579 1006.1235,667.04204 1006.7172,667.60454 1007.5922,666.72954 1008.5609,668.04204 1009.6235,668.76079 1010.4672,667.82329 1011.0922,668.35454 1011.7797,668.47954 1011.6859,667.63579 1012.7172,666.19829 1012.8735,664.88579 1012.3109,664.19829 z">
      <title id="t85">Cinquième circonscription de Côte-d'Or</title>
      <desc id="d85">Cantons de : Arnay-le-Duc, Beaune Nord, Beaune Sud, Bligny-sur-Ouche, Gevrey-Chambertin, Liernais, Nolay, Nuits-Saint-Georges, Pouilly-en-Auxois, Saint-Jean-de-Losne, Seurre</desc>
    </path></svg>