<svg xmlns="http://www.w3.org/2000/svg" version="1.1" xmlns:xlink="http://www.w3.org/1999/xlink" xmlns:svgjs="http://svgjs.dev/svgjs" viewBox="0 0 149.14010000000002 109.11164000000002"><path class="circo" id="id-022-01" d="M57.003600000000006 58.06921L56.16020000000003 56.62959000000001L54.53910000000002 56.12470000000002L54.48670000000004 55.059169999999995L54.5129 52.95093000000003L56.614599999999996 50.93216000000001L57.51750000000004 49.57075000000003L59.16239999999999 49.21297000000004L60.73230000000001 46.76609000000002L60.21360000000004 45.611620000000016L58.96360000000004 44.50098000000003L58.76780000000002 44.82859000000002L58.46300000000002 44.60034000000002L58.7072 43.888059999999996L58.454499999999996 42.655010000000004L59.59720000000004 42.075950000000034L59.856100000000026 41.26604000000003L58.88870000000003 39.91532000000001L58.269000000000005 38.81026000000003L58.27230000000003 37.96728999999999L58.84500000000003 37.118060000000014L59.218800000000044 37.19980000000004L60.04730000000001 37.27253999999999L61.83770000000004 38.37747999999999L62.68270000000001 38.31720999999999L64.16900000000004 37.52945L65.17970000000003 38.882720000000006L68.01030000000003 37.89327000000003L68.4726 37.300040000000024L68.50819999999999 36.485810000000015L69.73320000000001 36.24621000000002L70.07410000000004 36.526940000000025L70.2724 37.834929999999986L70.66220000000004 38.04247000000004L71.52610000000004 38.20786000000004L72.65540000000004 37.595770000000016L74.09190000000001 38.542219999999986L74.95620000000002 38.47745000000003L75.75569999999999 40.38974000000002L80.55520000000001 42.43002000000001L79.92060000000004 43.55333999999999L80.3637 44.79367000000002L80.1225 45.16311999999999L81.11520000000002 45.25888000000003L80.37610000000001 46.00373999999999L81.04470000000003 46.80703L82.91130000000004 49.92351000000002L83.6248 50.47928999999999L83.97579999999999 50.56497000000002L83.17009999999999 49.673370000000034L84.0197 48.17133000000001L83.4246 45.09149000000002L84.46520000000004 44.776729999999986L85.49119999999999 46.14402000000001L86.91210000000001 46.34282999999999L87.83940000000001 46.04135000000002L88.60640000000001 47.00851L89.26460000000003 48.94830999999999L89.75970000000001 50.65987999999999L89.44319999999999 51.49671000000001L88.3449 52.83579000000003L86.6103 52.666420000000016L86.24170000000004 54.80077L84.98570000000001 55.98117000000002L83.25530000000003 55.766250000000014L82.04020000000003 56.28770000000003L81.33070000000004 57.92252000000002L81.49200000000002 59.23159000000004L81.05770000000001 60.01289000000003L80.6386 60.36444L79.56620000000004 59.77595000000002L76.62800000000004 59.62110000000001L75.48290000000003 60.70791000000003L75.08550000000002 60.550009999999986L74.5616 58.50657000000001L75.048 57.34393L73.89010000000002 56.82705000000004L73.02820000000003 56.84435000000002L71.90809999999999 57.45654999999999L71.2579 56.904830000000004L70.1934 57.56635L69.98450000000003 56.81334000000004L70.96610000000004 55.48033000000004L70.67020000000002 54.70336000000003L69.82510000000002 52.97131000000002L68.99610000000001 53.90732000000003L67.0453 54.87049999999999L66.64240000000001 56.11919L66.03620000000001 56.74029999999999L63.64140000000003 57.52816999999999L62.45250000000004 56.36689999999999L61.2971 58.538340000000005L59.12790000000001 57.6463L57.838400000000036 58.16516999999999L57.003600000000006 58.06921z">
      <title id="t86">Première circonscription des Côtes-d'Armor</title>
      <desc id="d86">Cantons de : Châtelaudren, Langueux, Plérin, Ploufragan, Saint-Brieuc Nord, Saint-Brieuc Ouest, Saint-Brieuc Sud</desc>
    </path><path class="circo" id="id-022-02" d="M110.49200000000002 80.36575999999997L109.0949 79.52153000000004L108.9692 78.68714000000006L109.34989999999999 76.77087L108.01190000000003 75.82907000000006L107.88760000000002 75.03446000000002L106.83250000000004 73.73559000000006L106.86700000000002 72.89636999999999L108.09840000000003 72.93625000000003L108.42840000000001 71.79076000000003L109.08010000000002 71.26659000000001L109.88470000000001 68.79446999999999L112.41660000000002 66.37247000000002L114.1524 67.58492999999999L115.69920000000002 65.07943L115.88030000000003 65.10297000000003L114.73060000000004 62.46145000000001L116.00280000000004 62.24278000000004L118.06960000000004 60.68369999999999L117.9341 59.77480000000003L117.10300000000001 59.79593L116.67680000000001 57.38288L115.09090000000003 57.472440000000006L113.26750000000004 56.497090000000014L114.13130000000001 54.55839000000003L114.79290000000003 54.01206000000002L115.05180000000001 52.30790999999999L112.93440000000004 52.78886L111.9214 51.98952000000003L111.7133 51.60584L112.77289999999999 50.27561000000003L113.29090000000002 49.08160000000004L113.084 48.69775000000004L112.32900000000001 48.65413000000001L111.7421 48.145669999999996L110.02610000000004 48.15042L107.98400000000004 48.85479000000004L107.6214 48.61243000000002L106.33359999999999 45.907730000000015L105.91570000000002 45.78734000000003L104.47380000000004 47.40735000000001L103.33890000000002 47.96501000000001L102.91890000000001 48.71494000000001L101.61290000000002 48.77896000000004L100.61070000000001 46.88416000000001L98.73000000000002 45.75743L98.18860000000001 46.39956000000001L97.07480000000004 48.511979999999994L95.00850000000003 49.23132000000004L93.53270000000003 48.30823000000004L91.3553 48.66055L91.05930000000001 46.98746L90.25670000000002 45.480819999999994L88.0179 44.300189999999986L90.05560000000003 42.70830000000001L92.49870000000004 39.675850000000025L94.762 36.94891000000001L96.54590000000002 36.76177000000001L99.0043 35.622749999999996L101.4026 33.48453000000001L101.7199 32.00355999999999L100.19820000000004 31.68855000000002L99.93060000000003 30.86511999999999L104.15160000000003 29.84910000000002L105.5856 30.63856000000004L105.95080000000002 32.32293000000004L106.58090000000004 31.831970000000013L106.04860000000002 31.267780000000016L107.68600000000004 31.079830000000015L108.3786 30.00929000000002L111.65800000000002 28.700490000000002L113.28500000000003 27.231310000000008L113.55810000000002 25.96172999999999L114.46690000000001 25.193330000000003L114.99850000000004 26.18110999999999L114.7656 27.17518000000001L115.83070000000004 27.840000000000032L117.2047 27.747590000000002L115.03620000000001 30.978200000000015L115.35150000000004 31.43822L113.7767 33.037120000000016L112.71860000000004 34.042100000000005L113.85920000000004 34.19202999999999L114.17680000000001 34.825530000000015L114.93280000000004 35.01543000000004L115.85720000000003 33.60027000000002L116.6936 33.33291000000003L117.05260000000004 33.13602000000003L116.9973 32.68871999999999L119.19980000000004 30.780590000000018L120.61610000000002 30.881970000000024L119.6225 31.956099999999992L120.6497 33.42833000000002L120.5344 34.617369999999994L121.92270000000002 35.215599999999995L122.37010000000004 37.4409L123.33950000000004 37.601290000000006L123.26830000000001 39.936649999999986L123.93150000000003 39.734050000000025L123.91610000000003 39.30646999999999L125.01150000000001 37.52071000000001L124.96629999999999 35.69063L125.6429 35.94618000000003L125.53090000000003 38.97729000000004L126.06890000000004 39.53838000000002L127.19980000000004 39.50792999999999L128.08410000000003 38.15838000000002L126.9801 36.94262000000003L128.6318 34.45510999999999L129.0525 34.331410000000005L129.7742 35.40728999999999L130.88910000000004 36.01123000000001L130.69920000000002 36.896090000000015L130.78770000000003 37.424450000000036L133.38690000000003 40.20784000000003L134.55720000000002 40.68441999999999L136.2985 40.42044000000004L137.37740000000002 41.188199999999995L136.92110000000002 42.75607000000002L137.46590000000003 43.75120000000004L138.1078 44.02827000000002L138.51690000000002 42.85970000000003L139.76440000000002 41.87714L140.8184 40.93234000000001L141.2172 40.556100000000015L141.58390000000003 41.62810999999999L142.20070000000004 42.38533000000001L141.75890000000004 42.84505999999999L142.50120000000004 42.959990000000005L142.36400000000003 43.673519999999996L143.6345 43.638210000000015L143.7788 44.97955999999999L142.7686 46.04892000000001L141.5371 46.45679999999999L142.72040000000004 46.47194000000002L142.5555 47.18790999999999L143.29000000000002 47.44096999999999L142.6922 47.928830000000005L142.70730000000003 49.53996000000001L142.03270000000003 49.39193L142.13100000000003 49.63309000000004L141.8764 49.746489999999994L141.81040000000002 50.25355000000002L141.31810000000002 50.14272L141.2874 50.49609000000004L141.94030000000004 50.46620999999999L142.0845 49.90208999999999L142.63660000000004 49.88208000000003L143.0254 49.6481L143.4142 49.61655000000002L143.08320000000003 49.320730000000026L143.0774 47.87429000000003L144.22860000000003 47.861590000000035L143.9194 46.50120000000004L144.60310000000004 45.96292L145.41520000000003 47.216530000000034L146.51870000000002 46.93780000000004L145.90590000000003 46.93126000000001L145.2013 46.43536L145.82150000000001 44.438710000000015L147.0709 42.86393000000004L147.24110000000002 42.929550000000006L147.79650000000004 43.62152000000003L147.73830000000004 44.50123000000002L148.3154 45.17313999999999L148.9377 47.299810000000036L148.92670000000004 48.18172000000004L147.96710000000002 49.04774000000003L147.95210000000003 49.491600000000005L149.14010000000002 51.78486000000004L147.61510000000004 52.39113000000003L147.2912 53.22158000000002L147.73020000000002 53.99718999999999L147.70530000000002 54.87575000000004L146.59890000000001 56.212350000000015L145.77070000000003 56.28411L145.48130000000003 58.41356999999999L146.66880000000003 59.69321000000002L146.4033 60.879380000000026L146.6601 61.23139000000003L146.4391 62.05905000000001L147.34910000000002 62.95983000000001L146.60090000000002 63.23058000000003L146.51160000000004 64.01050000000004L146.0186 65.12473L145.95500000000004 66.44259L147.18310000000002 68.04570000000001L147.3277 68.87146999999999L147.0301 69.16793000000001L145.84320000000002 69.58038000000005L144.21840000000003 69.55135000000001L145.1913 72.62271000000004L144.416 74.84112999999996L144.9708 75.90393999999998L144.1606 76.05865999999997L143.40570000000002 74.99484999999999L142.1325 75.25641000000002L141.74170000000004 75.45292L141.2353 76.16123999999996L141.04040000000003 77.43588000000005L140.20590000000004 77.63986000000006L137.4289 76.33078000000006L136.79000000000002 75.20952000000005L134.80700000000002 76.07795000000004L134.87630000000001 76.96044L134.18780000000004 78.05752000000001L132.0152 78.21103L132.08860000000004 79.02722L132.9017 79.33484000000004L132.17310000000003 80.79818000000006L132.34480000000002 81.19904000000002L130.86020000000002 80.23196000000002L128.65020000000004 80.29350000000005L128.41660000000002 79.91505999999998L126.30850000000004 81.28992999999997L125.49450000000002 82.17696000000007L125.231 84.70179999999999L125.7688 85.85358000000002L125.74810000000002 86.27236999999997L125.08960000000002 86.74151L124.2536 86.75758000000002L123.22410000000002 86.04824000000002L122.0258 86.39814000000007L121.27539999999999 86.23640000000006L120.28730000000002 87.12593999999996L119.68420000000003 86.50592L118.11110000000002 85.92577999999997L117.2849 85.98816000000005L114.9015 84.92928999999998L113.65530000000001 85.17922000000004L113.56010000000003 82.77951000000002L112.74790000000002 81.33819L111.6979 82.07025000000004L110.49200000000002 80.36575999999997z">
      <title id="t87">Deuxième circonscription des Côtes-d'Armor</title>
      <desc id="d87">Cantons de : Broons, Caulnes, Dinan Est, Dinan Ouest, Evran, Matignon, Plancoët, Plélan-le-Petit, Pléneuf-Val-André, Ploubalay</desc>
    </path><path class="circo" id="id-022-03" d="M85.23910000000001 108.53769000000005L85.32370000000003 107.54642000000007L84.56620000000004 107.30153999999999L84.70800000000003 106.03971000000007L84.3401 105.25042000000002L85.66919999999999 102.06254000000007L85.93600000000004 100.78265000000005L85.65800000000002 99.95288999999997L85.99900000000002 99.18081000000001L85.6089 98.62649000000005L85.98360000000002 97.98847000000006L84.7484 96.39893999999998L83.92360000000002 96.47917999999999L81.707 98.14686999999998L81.56440000000003 98.94873000000001L79.4839 98.43041999999997L77.80870000000004 98.76514000000003L77.53340000000003 98.42927000000003L76.63420000000002 100.89439999999996L75.50650000000002 102.1805L75.26310000000001 99.75711000000007L74.80720000000002 99.08304000000004L74.98790000000002 98.32767000000007L74.6807 97.65180000000004L72.51850000000002 94.60277000000002L69.16980000000001 95.28341000000006L66.77680000000004 94.04692000000006L65.62890000000004 92.28630000000004L64.39260000000002 92.40442999999999L61.17330000000004 91.39821999999998L59.49770000000001 91.70004L58.14730000000003 92.72148999999996L56.42320000000001 92.79897L56.572400000000016 91.56264000000004L55.43119999999999 91.07715000000002L54.83969999999999 88.92620000000005L55.029600000000016 88.04622L53.778099999999995 88.18369000000001L53.30940000000004 87.45549999999997L52.45269999999999 87.43152000000003L51.72700000000003 86.96139999999997L50.44380000000001 87.12376999999998L49.85980000000001 86.52774000000005L50.630300000000034 85.02230000000003L51.44630000000001 84.72093999999998L51.80799999999999 83.92742000000004L51.56510000000003 82.21052000000003L50.73130000000003 82.21026999999998L50.37180000000001 81.43291000000005L48.709100000000035 81.28852999999998L48.93280000000004 80.62838000000005L48.6001 80.08269999999999L49.02879999999999 79.32462000000004L48.563800000000015 78.10681000000005L48.581200000000024 76.78109L47.6284 75.35160000000002L48.234500000000025 74.74529000000001L49.05560000000003 74.59744000000006L50.431100000000015 73.19585000000001L49.366300000000024 71.83639999999997L49.358000000000004 70.99707000000006L50.370100000000036 69.57002000000006L53.33520000000004 67.10122999999999L53.48689999999999 66.33000000000004L52.781000000000006 66.17517000000004L52.650800000000004 64.93826999999999L51.87100000000004 65.12985000000003L51.64210000000003 64.26175L52.434799999999996 62.14471000000003L52.535799999999995 61.47840000000002L53.4427 60.86337000000003L53.46469999999999 59.79284999999999L54.032100000000014 59.15064000000001L53.58930000000004 58.421760000000006L54.021600000000035 56.79104000000001L54.53910000000002 56.12470000000002L56.16020000000003 56.62959000000001L57.003600000000006 58.06921L57.838400000000036 58.16516999999999L59.12790000000001 57.6463L61.2971 58.538340000000005L62.45250000000004 56.36689999999999L63.64140000000003 57.52816999999999L66.03620000000001 56.74029999999999L66.64240000000001 56.11919L67.0453 54.87049999999999L68.99610000000001 53.90732000000003L69.82510000000002 52.97131000000002L70.67020000000002 54.70336000000003L70.96610000000004 55.48033000000004L69.98450000000003 56.81334000000004L70.1934 57.56635L71.2579 56.904830000000004L71.90809999999999 57.45654999999999L73.02820000000003 56.84435000000002L73.89010000000002 56.82705000000004L75.048 57.34393L74.5616 58.50657000000001L75.08550000000002 60.550009999999986L75.48290000000003 60.70791000000003L76.62800000000004 59.62110000000001L79.56620000000004 59.77595000000002L80.6386 60.36444L81.05770000000001 60.01289000000003L81.49200000000002 59.23159000000004L81.33070000000004 57.92252000000002L82.04020000000003 56.28770000000003L83.25530000000003 55.766250000000014L84.98570000000001 55.98117000000002L86.24170000000004 54.80077L86.6103 52.666420000000016L88.3449 52.83579000000003L89.44319999999999 51.49671000000001L89.75970000000001 50.65987999999999L89.26460000000003 48.94830999999999L88.60640000000001 47.00851L87.83940000000001 46.04135000000002L87.71410000000003 44.57312999999999L88.0179 44.300189999999986L90.25670000000002 45.480819999999994L91.05930000000001 46.98746L91.3553 48.66055L93.53270000000003 48.30823000000004L95.00850000000003 49.23132000000004L97.07480000000004 48.511979999999994L98.18860000000001 46.39956000000001L98.73000000000002 45.75743L100.61070000000001 46.88416000000001L101.61290000000002 48.77896000000004L102.91890000000001 48.71494000000001L103.33890000000002 47.96501000000001L104.47380000000004 47.40735000000001L105.91570000000002 45.78734000000003L106.33359999999999 45.907730000000015L107.6214 48.61243000000002L107.98400000000004 48.85479000000004L110.02610000000004 48.15042L111.7421 48.145669999999996L112.32900000000001 48.65413000000001L113.084 48.69775000000004L113.29090000000002 49.08160000000004L112.77289999999999 50.27561000000003L111.7133 51.60584L111.9214 51.98952000000003L112.93440000000004 52.78886L115.05180000000001 52.30790999999999L114.79290000000003 54.01206000000002L114.13130000000001 54.55839000000003L113.26750000000004 56.497090000000014L115.09090000000003 57.472440000000006L116.67680000000001 57.38288L117.10300000000001 59.79593L117.9341 59.77480000000003L118.06960000000004 60.68369999999999L116.00280000000004 62.24278000000004L114.73060000000004 62.46145000000001L115.88030000000003 65.10297000000003L115.69920000000002 65.07943L114.1524 67.58492999999999L112.41660000000002 66.37247000000002L109.88470000000001 68.79446999999999L109.08010000000002 71.26659000000001L108.42840000000001 71.79076000000003L108.09840000000003 72.93625000000003L106.86700000000002 72.89636999999999L106.83250000000004 73.73559000000006L107.88760000000002 75.03446000000002L108.01190000000003 75.82907000000006L109.34989999999999 76.77087L108.9692 78.68714000000006L109.0949 79.52153000000004L110.49200000000002 80.36575999999997L111.6979 82.07025000000004L112.74790000000002 81.33819L113.56010000000003 82.77951000000002L113.65530000000001 85.17922000000004L114.9015 84.92928999999998L117.2849 85.98816000000005L118.11110000000002 85.92577999999997L119.68420000000003 86.50592L120.28730000000002 87.12593999999996L121.27539999999999 86.23640000000006L122.0258 86.39814000000007L122.80760000000004 87.3675L122.30130000000003 91.53792000000004L121.8501 92.28744L120.3825 93.13793000000004L120.35079999999999 93.57435000000004L121.18400000000003 94.54825L120.83100000000002 94.80507000000006L119.96520000000004 94.75488000000001L118.90230000000003 94.03316000000001L117.32780000000002 94.76265000000006L116.98520000000002 96.23426L114.46480000000003 96.18725999999998L113.99650000000003 97.39623L113.34370000000001 97.93881000000005L111.90970000000004 97.16918000000004L111.01390000000004 99.09055000000006L110.6243 98.79785999999996L109.65840000000003 97.42259000000007L109.5668 96.59609000000006L109.46870000000001 95.25412L107.42599999999999 93.52121000000005L106.7937 91.86483000000004L105.62630000000001 91.20142000000004L103.40559999999999 91.29409000000004L102.2183 92.47542000000004L100.1311 92.30694L99.8897 93.15474999999998L95.9839 93.27924000000002L97.59230000000002 95.70249000000007L97.63440000000003 96.55419L97.1266 97.71215999999998L95.95030000000003 99.55788999999999L94.93740000000003 100.39508000000006L94.5018 101.07232000000005L94.76550000000003 103.52386000000007L93.94850000000002 103.76748000000003L93.41810000000004 104.44196000000005L92.16910000000001 104.38128L92.0274 104.78960000000001L91.06210000000004 106.24763999999999L88.4205 108.55714000000006L86.72700000000003 108.50871000000001L86.46840000000003 108.15224000000006L85.66329999999999 109.11164000000002L85.23910000000001 108.53769000000005z">
      <title id="t88">Troisième circonscription des Côtes-d'Armor</title>
      <desc id="d88">Cantons de : La Chèze, Collinée, Corlay, Jugon-les-Lacs, Lamballe, Loudéac, Merdrignac, Moncontour, Mûr-de-Bretagne, Ploeuc-sur-Lié, Plouguenast, Quintin, Uzel</desc>
    </path><path class="circo" id="id-022-04" d="M28.448800000000006 29.645410000000027L27.573399999999992 29.70087000000001L25.989800000000002 29.64425L25.338099999999997 28.669219999999996L24.493899999999996 27.218560000000025L24.290300000000002 25.94448L23.3399 25.107190000000003L23.34340000000003 24.27609000000001L22.84559999999999 22.44884000000002L20.94980000000004 23.18110999999999L20.353700000000003 24.31653L21.21460000000002 26.814110000000028L20.242500000000007 28.83330000000001L20.345200000000034 30.124310000000037L18.481899999999996 30.105140000000006L17.218000000000018 30.024339999999995L15.723600000000033 29.26594L15.333900000000028 29.42705000000001L17.21270000000004 27.12691000000001L17.07850000000002 26.703399999999988L15.826000000000022 26.418510000000026L14.976600000000019 24.904899999999998L15.274800000000027 23.638990000000035L16.531300000000044 22.42410000000001L15.235000000000014 22.617070000000012L13.725999999999999 23.449659999999994L12.880400000000009 23.33026000000001L12.088400000000036 20.909040000000005L10.263599999999997 19.762980000000027L9.3399 19.951639999999998L9.171600000000012 20.17380000000003L8.331600000000037 20.00085999999999L6.915700000000015 21.031190000000038L6.88960000000003 24.61412999999999L7.377100000000041 25.30432000000002L7.822300000000041 25.363550000000032L8.161000000000001 25.967399999999998L7.676300000000026 26.965360000000032L7.108699999999999 27.481150000000014L4.602399999999989 27.707809999999995L4.119100000000003 25.698829999999987L2.205500000000029 25.99624L2.348700000000008 27.355259999999987L1.0055000000000405 28.176440000000014L0.37340000000000373 28.96302000000003L0 29.659179999999992L0.7952000000000226 34.35455999999999L1.2373000000000047 35.08318000000003L2.0108999999999924 35.40652L1.9494000000000256 37.085019999999986L2.277300000000025 37.43549999999999L2.9103000000000065 38.073440000000005L4.233600000000024 37.96305000000001L5.4375 38.556610000000035L5.861199999999997 38.40960999999999L6.6148000000000025 40.01308L5.449299999999994 41.89537999999999L6.954299999999989 42.49243000000001L7.72180000000003 42.13258999999999L9.325800000000015 44.12083000000001L10.562100000000044 44.51035000000002L8.85020000000003 45.94970000000001L6.69640000000004 48.82656000000003L5.59820000000002 49.59974L5.046500000000037 50.182230000000004L5.2479000000000156 51.417970000000025L4.9839000000000055 52.208920000000035L5.564799999999991 52.76668000000001L5.435300000000041 53.16414000000003L5.830399999999997 53.21081000000004L6.066900000000032 53.97091L7.211999999999989 54.19780000000003L7.195600000000013 54.610040000000026L8.040900000000022 55.45328000000001L9.267300000000034 55.3578L9.608699999999999 56.107910000000004L8.264299999999992 57.25206000000003L6.672300000000007 58.00758999999999L5.5055000000000405 59.33483000000001L5.383100000000013 61.940620000000024L5.1340999999999894 62.188109999999995L5.210100000000011 63.02896000000004L4.747800000000041 63.72891000000004L9.21270000000004 65.18961000000002L9.316000000000031 66.06130000000002L8.561599999999999 69.01394999999997L9.120100000000036 69.63920999999999L9.807299999999998 73.12426999999997L10.622099999999989 73.15572000000003L11.585900000000038 72.21927L12.341800000000035 72.65044000000006L11.547500000000014 72.95184999999998L10.287900000000036 75.16338999999999L9.454000000000008 75.06563999999997L9.393500000000017 75.91735L11.342000000000041 76.74237999999997L11.949600000000032 77.36077000000006L12.379600000000039 77.29166000000004L11.703700000000026 78.75457L11.647400000000005 79.99397000000005L12.015899999999988 80.74021999999997L10.44010000000003 81.00155000000001L10.118899999999996 82.22916000000004L9.327400000000011 82.57747L9.137200000000007 84.31365999999997L10.394000000000005 86.61854999999997L11.982000000000028 87.28676000000002L12.09110000000004 88.15053000000006L12.228499999999997 88.98065000000003L11.832699999999988 89.12178999999998L10.237300000000005 88.60971999999998L8.234000000000037 89.06135999999998L8.389499999999998 89.60782L9.369799999999998 90.38471999999996L11.132600000000025 90.55324000000002L14.180900000000008 89.97231000000005L15.562400000000025 89.59354000000002L16.43780000000004 90.45827000000003L18.09970000000004 90.51946000000004L18.46690000000001 90.29485000000005L18.567200000000014 89.45674000000002L20.52460000000002 91.18855000000002L19.17689999999999 92.8544L19.540400000000034 93.64150000000001L20.905500000000018 94.71908000000002L22.064999999999998 93.50414000000006L23.262100000000032 93.70112999999998L24.57560000000001 92.53951999999998L26.704000000000008 92.12100000000004L27.762400000000014 91.41542999999996L28.827200000000005 93.08174000000002L28.70690000000002 93.88511L29.35020000000003 94.31638000000004L29.58770000000004 93.50019000000003L30.837400000000002 93.52402000000001L31.604600000000005 93.84217000000007L32.20250000000004 94.95806999999996L33.36439999999999 95.37002999999999L33.4862 94.96826000000004L34.91239999999999 94.27267999999998L36.1422 94.12196L38.41900000000004 95.12482000000006L38.14089999999999 93.92104L39.27860000000004 92.69715000000002L40.06260000000003 92.38455000000005L41.25229999999999 92.74290000000002L41.61650000000003 92.97188999999997L42.705700000000036 92.29406999999998L43.831800000000044 92.74991000000006L44.77550000000002 91.89286999999996L45.332899999999995 90.73922999999996L44.78880000000004 90.05454000000003L44.83269999999999 89.17203L45.35820000000001 87.95936999999998L46.17869999999999 87.66298999999998L46.59800000000001 86.92708999999996L48.10849999999999 87.07900000000001L48.344600000000014 87.40257000000003L48.745600000000024 87.45319999999998L49.456999999999994 86.51294000000001L49.85980000000001 86.52774000000005L50.630300000000034 85.02230000000003L51.44630000000001 84.72093999999998L51.80799999999999 83.92742000000004L51.56510000000003 82.21052000000003L50.73130000000003 82.21026999999998L50.37180000000001 81.43291000000005L48.709100000000035 81.28852999999998L48.93280000000004 80.62838000000005L48.6001 80.08269999999999L49.02879999999999 79.32462000000004L48.563800000000015 78.10681000000005L48.581200000000024 76.78109L47.6284 75.35160000000002L48.234500000000025 74.74529000000001L49.05560000000003 74.59744000000006L50.431100000000015 73.19585000000001L49.366300000000024 71.83639999999997L49.358000000000004 70.99707000000006L50.370100000000036 69.57002000000006L53.33520000000004 67.10122999999999L53.48689999999999 66.33000000000004L52.781000000000006 66.17517000000004L52.650800000000004 64.93826999999999L51.87100000000004 65.12985000000003L51.64210000000003 64.26175L52.434799999999996 62.14471000000003L52.535799999999995 61.47840000000002L53.4427 60.86337000000003L53.46469999999999 59.79284999999999L54.032100000000014 59.15064000000001L53.58930000000004 58.421760000000006L54.021600000000035 56.79104000000001L54.53910000000002 56.12470000000002L54.48670000000004 55.059169999999995L54.5129 52.95093000000003L56.614599999999996 50.93216000000001L57.51750000000004 49.57075000000003L59.16239999999999 49.21297000000004L60.73230000000001 46.76609000000002L60.21360000000004 45.611620000000016L58.96360000000004 44.50098000000003L58.76780000000002 44.82859000000002L58.46300000000002 44.60034000000002L58.7072 43.888059999999996L58.454499999999996 42.655010000000004L59.59720000000004 42.075950000000034L59.856100000000026 41.26604000000003L58.88870000000003 39.91532000000001L58.269000000000005 38.81026000000003L58.27230000000003 37.96728999999999L58.84500000000003 37.118060000000014L59.218800000000044 37.19980000000004L60.04730000000001 37.27253999999999L61.83770000000004 38.37747999999999L62.68270000000001 38.31720999999999L62.53320000000002 37.89609999999999L63.05459999999999 36.67887000000002L62.04509999999999 35.28926999999999L62.10900000000004 34.846100000000035L62.88240000000002 34.72049000000004L63.1542 32.512260000000026L63.10050000000001 30.405700000000024L60.50909999999999 29.491899999999987L59.63640000000004 30.318340000000035L59.2201 30.35217L58.11560000000003 29.15360000000004L57.6567 29.847810000000038L56.85419999999999 28.972280000000012L55.041300000000035 28.06948L54.581200000000024 26.483780000000024L54.15840000000003 26.44992000000002L53.52510000000001 25.359170000000006L53.129200000000026 25.51393999999999L52.5548 25.57316000000003L51.52950000000004 25.206079999999986L51.46350000000001 24.542020000000036L48.24670000000003 25.84559999999999L47.83730000000003 26.603240000000028L47.88190000000003 27.464930000000038L48.13010000000003 27.816190000000006L49.72410000000002 28.18956000000003L50.69490000000002 26.93137999999999L51.8073 27.501610000000028L51.41040000000004 28.622500000000002L49.91720000000004 29.300810000000013L49.87190000000004 30.035660000000007L49.374900000000025 30.736850000000004L48.5086 30.74239L47.44010000000003 31.488139999999987L46.233100000000036 30.918119999999988L46.156600000000026 30.079020000000014L45.491600000000005 29.728150000000028L44.86850000000004 30.721540000000005L44.14019999999999 31.06053000000003L43.09989999999999 29.159260000000017L42.593999999999994 29.81191000000001L40.95859999999999 29.680409999999995L40.03470000000004 30.44622000000004L39.67490000000004 29.72453999999999L38.1866 29.214080000000024L38.46530000000001 30.948480000000018L37.254700000000014 33.28417000000002L36.29000000000002 32.56808000000001L35.5779 31.170389999999998L35.85759999999999 29.642449999999997L34.996200000000044 29.551860000000033L34.01510000000002 28.71271999999999L32.75970000000001 28.40192000000002L32.04740000000004 27.321920000000034L30.203300000000013 29.217430000000036L28.448800000000006 29.645410000000027z">
      <title id="t89">Quatrième circonscription des Côtes-d'Armor</title>
      <desc id="d89">Cantons de : Bégard, Belle-Isle-en-Terre, Bourbriac, Callac, Gouarec, Guingamp, Lanvollon, Maël-Carhaix, Plestin-les-Grèves, Plouagat, Plouaret, Rostrenen, Saint-Nicolas-du-Pélem</desc>
    </path><path class="circo" id="id-022-05" d="M50.21539999999999 0L47.96539999999999 2.03125L45.71539999999999 2.46875L43.43414999999999 4L42.09039999999999 4.15625L41.65289999999999 5.40625L41.21539999999999 5.25L40.27789999999999 6.0625L39.46539999999999 7.65625L39.68414999999999 8.4375L37.49664999999999 11.15625L37.65289999999999 12.875L37.05914999999999 11.84375L36.30914999999999 12.125L38.62164999999999 9.40625L39.24664999999999 7.46875L38.80914999999999 5.90625L37.80914999999999 6.4375L38.52789999999999 4.375L37.68414999999999 2.28125L36.84039999999999 2.15625L35.62164999999999 3.34375L33.93414999999999 6.40625L33.49664999999999 6.4375L32.62164999999999 5.46875L31.30914999999999 6.5625L29.18414999999999 6.03125L27.90289999999999 7.15625L27.46539999999999 7.09375L26.27789999999999 8.1875L25.49664999999999 8.03125L25.27789999999999 8.40625L23.40289999999999 9.09375L23.34039999999999 10.375L18.96539999999999 11.03125L18.84039999999999 10.59375L19.96539999999999 8.21875L17.52789999999999 8.78125L15.652899999999988 5.96875L14.809149999999988 6.5L14.777899999999988 7.5L14.309149999999988 6.875L13.215399999999988 7.59375L13.090399999999988 6.5625L13.840399999999988 5.96875L13.590399999999988 5.8125L11.777899999999988 6.9375L12.090399999999988 8.375L10.996649999999988 7.6875L10.559149999999988 7.71875L9.871649999999988 9.375L11.152899999999988 10.1875L9.246649999999988 11.90625L8.090399999999988 11.375L7.215399999999988 12.34375L6.652899999999988 14.5L7.027899999999988 16.21875L8.340399999999988 16.0625L9.715399999999988 17.8125L9.340399999999988 19.9375L10.277899999999988 19.75L12.090399999999988 20.90625L12.871649999999988 23.34375L13.715399999999988 23.4375L15.246649999999988 22.625L16.52789999999999 22.4375L15.277899999999988 23.625L14.965399999999988 24.90625L15.840399999999988 26.40625L17.09039999999999 26.71875L17.21539999999999 27.125L15.340399999999988 29.4375L15.715399999999988 29.28125L17.21539999999999 30.03125L18.49664999999999 30.09375L20.34039999999999 30.125L20.24664999999999 28.84375L21.21539999999999 26.8125L20.34039999999999 24.3125L20.96539999999999 23.1875L22.84039999999999 22.4375L23.34039999999999 24.28125L23.34039999999999 25.09375L24.27789999999999 25.9375L24.49664999999999 27.21875L25.34039999999999 28.65625L25.99664999999999 29.65625L27.55914999999999 29.6875L28.43414999999999 29.65625L30.21539999999999 29.21875L32.05914999999999 27.3125L32.74664999999999 28.40625L34.02789999999999 28.71875L34.99664999999999 29.5625L35.87164999999999 29.65625L35.59039999999999 31.15625L36.27789999999999 32.5625L37.24664999999999 33.28125L38.46539999999999 30.9375L38.18414999999999 29.21875L39.68414999999999 29.71875L40.02789999999999 30.4375L40.96539999999999 29.6875L42.59039999999999 29.8125L43.09039999999999 29.15625L44.15289999999999 31.0625L44.87164999999999 30.71875L45.49664999999999 29.71875L46.15289999999999 30.09375L46.24664999999999 30.90625L47.43414999999999 31.5L48.49664999999999 30.75L49.37164999999999 30.75L49.87164999999999 30.03125L49.90289999999999 29.3125L51.40289999999999 28.625L51.80914999999999 27.5L50.68414999999999 26.9375L49.71539999999999 28.1875L48.12164999999999 27.8125L47.87164999999999 27.46875L47.84039999999999 26.59375L48.24664999999999 25.84375L51.46539999999999 24.53125L51.52789999999999 25.21875L52.55914999999999 25.5625L53.12164999999999 25.5L53.52789999999999 25.34375L54.15289999999999 26.4375L54.59039999999999 26.46875L55.02789999999999 28.0625L56.84039999999999 28.96875L57.65289999999999 29.84375L58.12164999999999 29.15625L59.21539999999999 30.34375L59.62164999999999 30.3125L60.49664999999999 29.5L63.09039999999999 30.40625L63.15289999999999 32.5L62.87164999999999 34.71875L62.12164999999999 34.84375L62.05914999999999 35.28125L63.05914999999999 36.6875L62.52789999999999 37.90625L62.68414999999999 38.3125L64.18414999999999 37.53125L65.18414999999999 38.875L67.99664999999999 37.90625L68.46539999999999 37.3125L68.49664999999999 36.5L69.74664999999999 36.25L70.05914999999999 36.53125L70.27789999999999 37.84375L70.65289999999999 38.03125L71.52789999999999 38.21875L72.65289999999999 37.59375L71.80914999999999 37.4375L71.34039999999999 36.6875L72.05914999999999 35.09375L71.84039999999999 34.28125L71.21539999999999 31L70.90289999999999 29.40625L70.49664999999999 29.46875L69.12164999999999 27.9375L68.46539999999999 26.9375L67.71539999999999 27.28125L66.52789999999999 27.03125L65.71539999999999 24.0625L62.93414999999999 22.75L62.30914999999999 21.5625L61.12164999999999 21.03125L60.84039999999999 20.21875L62.02789999999999 19L61.27789999999999 18.34375L62.37164999999999 16.46875L61.18414999999999 16.28125L60.55914999999999 15.1875L60.59039999999999 14.34375L59.90289999999999 15.5625L57.21539999999999 15.59375L54.99664999999999 15L54.02789999999999 13.78125L55.52789999999999 13.21875L52.71539999999999 12.96875L52.52789999999999 12.4375L55.65289999999999 10.8125L55.84039999999999 10.40625L55.30914999999999 9.6875L55.34039999999999 8.40625L54.52789999999999 8.09375L52.40289999999999 8.625L50.77789999999999 8.0625L49.12164999999999 9.46875L48.37164999999999 12.9375L47.68414999999999 13.5L47.93414999999999 14.8125L47.68414999999999 15.1875L46.55914999999999 15.40625L46.12164999999999 16.0625L45.74664999999999 14.40625L46.52789999999999 13.96875L47.80914999999999 12.71875L47.99664999999999 9.96875L50.34039999999999 6.689020000000028L47.93414999999999 6.84375L49.27789999999999 4.625L48.80914999999999 3.40625L48.40289999999999 3.1875L49.15289999999999 2.78125L49.99664999999999 3.46875L49.18414999999999 2.125L48.09039999999999 2.21875L50.21539999999999 0zM56.80914999999999 2.46875L56.34039999999999 3.09375L55.40289999999999 3.125L55.30914999999999 3.5625L56.43414999999999 3.9375L56.37164999999999 4.4375L55.15289999999999 4.125L55.46539999999999 6L55.77789999999999 6.125L56.02789999999999 5.59375L56.21539999999999 6.125L56.71539999999999 5.875L56.62164999999999 4.9375L56.90289999999999 4.5625L56.77789999999999 4.09375L56.90289999999999 3.03125L57.55914999999999 3.15625L57.65289999999999 2.46875L56.80914999999999 2.46875zM7.902899999999988 9.9375L7.527899999999988 10.1875L6.652899999999988 10.28125L6.590399999999988 11.1875L6.777899999999988 11.59375L7.121649999999988 11.03125L7.777899999999988 11.1875L8.309149999999988 10.8125L8.496649999999988 10.40625L8.340399999999988 10L7.902899999999988 9.9375z">
      <title id="t90">Cinquième circonscription des Côtes-d'Armor</title>
      <desc id="d90">Cantons de : Etables-sur-Mer, Lannion, Lézardrieux, Paimpol, Perros-Guirec, Plouha, Pontrieux, La Roche-Derrien, Tréguier.</desc>
    </path></svg>