<svg xmlns="http://www.w3.org/2000/svg" version="1.1" xmlns:xlink="http://www.w3.org/1999/xlink" xmlns:svgjs="http://svgjs.dev/svgjs" viewBox="345.43933 443.91704 149.14010000000002 109.11164000000002"><path class="circo" id="022-01" d="M 402.44293,501.98625 401.59953,500.54663 399.97843,500.04174 399.92603,498.97621 399.95223,496.86797 402.05393,494.8492 402.95683,493.48779 404.60173,493.13001 406.17163,490.68313 405.65293,489.52866 404.40293,488.41802 404.20713,488.74563 403.90233,488.51738 404.14653,487.8051 403.89383,486.57205 405.03653,485.99299 405.29543,485.18308 404.32803,483.83236 403.70833,482.7273 403.71163,481.88433 404.28433,481.0351 404.65813,481.11684 405.48663,481.18958 407.27703,482.29452 408.12203,482.23425 409.60833,481.44649 410.61903,482.79976 413.44963,481.81031 413.91193,481.21708 413.94753,480.40285 415.17253,480.16325 415.51343,480.44398 415.71173,481.75197 416.10153,481.95951 416.96543,482.1249 418.09473,481.51281 419.53123,482.45926 420.39553,482.39449 421.19503,484.30678 425.99453,486.34706 425.35993,487.47038 425.80303,488.71071 425.56183,489.08016 426.55453,489.17592 425.81543,489.92078 426.48403,490.72407 428.35063,493.84055 429.06413,494.39633 429.41513,494.48201 428.60943,493.59041 429.45903,492.08837 428.86393,489.00853 429.90453,488.69377 430.93053,490.06106 432.35143,490.25987 433.27873,489.95839 434.04573,490.92555 434.70393,492.86535 435.19903,494.57692 434.88253,495.41375 433.78423,496.75283 432.04963,496.58346 431.68103,498.71781 430.42503,499.89821 428.69463,499.68329 427.47953,500.20474 426.77003,501.83956 426.93133,503.14863 426.49703,503.92993 426.07793,504.28148 425.00553,503.69299 422.06733,503.53814 420.92223,504.62495 420.52483,504.46705 420.00093,502.42361 420.48733,501.26097 419.32943,500.74409 418.46753,500.76139 417.34743,501.37359 416.69723,500.82187 415.63273,501.48339 415.42383,500.73038 416.40543,499.39737 416.10953,498.6204 415.26443,496.88835 414.43543,497.82436 412.48463,498.78754 412.08173,500.03623 411.47553,500.65734 409.08073,501.44521 407.89183,500.28394 406.73643,502.45538 404.56723,501.56334 403.27773,502.08221 402.44293,501.98625 z">
      <title id="t86">Première circonscription des Côtes-d'Armor</title>
      <desc id="d86">Cantons de : Châtelaudren, Langueux, Plérin, Ploufragan, Saint-Brieuc Nord, Saint-Brieuc Ouest, Saint-Brieuc Sud</desc>
    </path><path class="circo" id="022-02" d="M 455.93133,524.2828 454.53423,523.43857 454.40853,522.60418 454.78923,520.68791 453.45123,519.74611 453.32693,518.9515 452.27183,517.65263 452.30633,516.81341 453.53773,516.85329 453.86773,515.7078 454.51943,515.18363 455.32403,512.71151 457.85593,510.28951 459.59173,511.50197 461.13853,508.99647 461.31963,509.02001 460.16993,506.37849 461.44213,506.15982 463.50893,504.60074 463.37343,503.69184 462.54233,503.71297 462.11613,501.29992 460.53023,501.38948 458.70683,500.41413 459.57063,498.47543 460.23223,497.9291 460.49113,496.22495 458.37373,496.7059 457.36073,495.90656 457.15263,495.52288 458.21223,494.19265 458.73023,492.99864 458.52333,492.61479 457.76833,492.57117 457.18143,492.06271 455.46543,492.06746 453.42333,492.77183 453.06073,492.52947 451.77293,489.82477 451.35503,489.70438 449.91313,491.32439 448.77823,491.88205 448.35823,492.63198 447.05223,492.696 446.05003,490.8012 444.16933,489.67447 443.62793,490.3166 442.51413,492.42902 440.44783,493.14836 438.97203,492.22527 436.79463,492.57759 436.49863,490.9045 435.69603,489.39786 433.45723,488.21723 435.49493,486.62534 437.93803,483.59289 440.20133,480.86595 441.98523,480.67881 444.44363,479.53979 446.84193,477.40157 447.15923,475.9206 445.63753,475.60559 445.36993,474.78216 449.59093,473.76614 451.02493,474.5556 451.39013,476.23997 452.02023,475.74901 451.48793,475.18482 453.12533,474.99687 453.81793,473.92633 457.09733,472.61753 458.72433,471.14835 458.99743,469.87877 459.90623,469.11037 460.43783,470.09815 460.20493,471.09222 461.27003,471.75704 462.64403,471.66463 460.47553,474.89524 460.79083,475.35526 459.21603,476.95416 458.15793,477.95914 459.29853,478.10907 459.61613,478.74257 460.37213,478.93247 461.29653,477.51731 462.13293,477.24995 462.49193,477.05306 462.43663,476.60576 464.63913,474.69763 466.05543,474.79901 465.06183,475.87314 466.08903,477.34537 465.97373,478.53441 467.36203,479.13264 467.80943,481.35794 468.77883,481.51833 468.70763,483.85369 469.37083,483.65109 469.35543,483.22351 470.45083,481.43775 470.40563,479.60767 471.08223,479.86322 470.97023,482.89433 471.50823,483.45542 472.63913,483.42497 473.52343,482.07542 472.41943,480.85966 474.07113,478.37215 474.49183,478.24845 475.21353,479.32433 476.32843,479.92827 476.13853,480.81313 476.22703,481.34149 478.82623,484.12488 479.99653,484.60146 481.73783,484.33748 482.81673,485.10524 482.36043,486.67311 482.90523,487.66824 483.54713,487.94531 483.95623,486.77674 485.20373,485.79418 486.25773,484.84938 486.65653,484.47314 487.02323,485.54515 487.64003,486.30237 487.19823,486.7621 487.94053,486.87703 487.80333,487.59056 489.07383,487.55525 489.21813,488.8966 488.20793,489.96596 486.97643,490.37384 488.15973,490.38898 487.99483,491.10495 488.72933,491.35801 488.13153,491.84587 488.14663,493.457 487.47203,493.30897 487.57033,493.55013 487.31573,493.66353 487.24973,494.17059 486.75743,494.05976 486.72673,494.41313 487.37963,494.38325 487.52383,493.81913 488.07593,493.79912 488.46473,493.56514 488.85353,493.53359 488.52253,493.23777 488.51673,491.79133 489.66793,491.77863 489.35873,490.41824 490.04243,489.87996 490.85453,491.13357 491.95803,490.85484 491.34523,490.8483 490.64063,490.3524 491.26083,488.35575 492.51023,486.78097 492.68043,486.84659 493.23583,487.53856 493.17763,488.41827 493.75473,489.09018 494.37703,491.21685 494.36603,492.09876 493.40643,492.96478 493.39143,493.40864 494.57943,495.7019 493.05443,496.30817 492.73053,497.13862 493.16953,497.91423 493.14463,498.79279 492.03823,500.12939 491.21003,500.20115 490.92063,502.33061 492.10813,503.61025 491.84263,504.79642 492.09943,505.14843 491.87843,505.97609 492.78843,506.87687 492.04023,507.14762 491.95093,507.92754 491.45793,509.04177 491.39433,510.35963 492.62243,511.96274 492.76703,512.78851 492.46943,513.08497 491.28253,513.49742 489.65773,513.46839 490.63063,516.53975 489.85533,518.75817 490.41013,519.82098 489.59993,519.9757 488.84503,518.91189 487.57183,519.17345 487.18103,519.36996 486.67463,520.07828 486.47973,521.35292 485.64523,521.5569 482.86823,520.24782 482.22933,519.12656 480.24633,519.99499 480.31563,520.87748 479.62713,521.97456 477.45453,522.12807 477.52793,522.94426 478.34103,523.25188 477.61243,524.71522 477.78413,525.11608 476.29953,524.149 474.08953,524.21054 473.85593,523.8321 471.74783,525.20697 470.93383,526.094 470.67033,528.61884 471.20813,529.77062 471.18743,530.18941 470.52893,530.65855 469.69293,530.67462 468.66343,529.96528 467.46513,530.31518 466.71473,530.15344 465.72663,531.04298 465.12353,530.42296 463.55043,529.84282 462.72423,529.9052 460.34083,528.84633 459.09463,529.09626 458.99943,526.69655 458.18723,525.25523 457.13723,525.98729 455.93133,524.2828 z">
      <title id="t87">Deuxième circonscription des Côtes-d'Armor</title>
      <desc id="d87">Cantons de : Broons, Caulnes, Dinan Est, Dinan Ouest, Evran, Matignon, Plancoët, Plélan-le-Petit, Pléneuf-Val-André, Ploubalay</desc>
    </path><path class="circo" id="022-03" d="M 430.67843,552.45473 430.76303,551.46346 430.00553,551.21858 430.14733,549.95675 429.77943,549.16746 431.10853,545.97958 431.37533,544.69969 431.09733,543.86993 431.43833,543.09785 431.04823,542.54353 431.42293,541.90551 430.18773,540.31598 429.36293,540.39622 427.14633,542.06391 427.00373,542.86577 424.92323,542.34746 423.24803,542.68218 422.97273,542.34631 422.07353,544.81144 420.94583,546.09754 420.70243,543.67415 420.24653,543.00008 420.42723,542.24471 420.12003,541.56884 417.95783,538.51981 414.60913,539.20045 412.21613,537.96396 411.06823,536.20334 409.83193,536.32147 406.61263,535.31526 404.93703,535.61708 403.58663,536.63853 401.86253,536.71601 402.01173,535.47968 400.87053,534.99419 400.27903,532.84324 400.46893,531.96326 399.21743,532.10073 398.74873,531.37254 397.89203,531.34856 397.16633,530.87844 395.88313,531.04081 395.29913,530.44478 396.06963,528.93934 396.88563,528.63798 397.24733,527.84446 397.00443,526.12756 396.17063,526.12731 395.81113,525.34995 394.14843,525.20557 394.37213,524.54542 394.03943,523.99974 394.46813,523.24166 394.00313,522.02385 394.02053,520.69813 393.06773,519.26864 393.67383,518.66233 394.49493,518.51448 395.87043,517.11289 394.80563,515.75344 394.79733,514.91411 395.80943,513.48706 398.77453,511.01827 398.92623,510.24704 398.22033,510.09221 398.09013,508.85531 397.31033,509.04689 397.08143,508.17879 397.87413,506.06175 397.97513,505.39544 398.88203,504.78041 398.90403,503.70989 399.47143,503.06768 399.02863,502.3388 399.46093,500.70808 399.97843,500.04174 401.59953,500.54663 402.44293,501.98625 403.27773,502.08221 404.56723,501.56334 406.73643,502.45538 407.89183,500.28394 409.08073,501.44521 411.47553,500.65734 412.08173,500.03623 412.48463,498.78754 414.43543,497.82436 415.26443,496.88835 416.10953,498.6204 416.40543,499.39737 415.42383,500.73038 415.63273,501.48339 416.69723,500.82187 417.34743,501.37359 418.46753,500.76139 419.32943,500.74409 420.48733,501.26097 420.00093,502.42361 420.52483,504.46705 420.92223,504.62495 422.06733,503.53814 425.00553,503.69299 426.07793,504.28148 426.49703,503.92993 426.93133,503.14863 426.77003,501.83956 427.47953,500.20474 428.69463,499.68329 430.42503,499.89821 431.68103,498.71781 432.04963,496.58346 433.78423,496.75283 434.88253,495.41375 435.19903,494.57692 434.70393,492.86535 434.04573,490.92555 433.27873,489.95839 433.15343,488.49017 433.45723,488.21723 435.69603,489.39786 436.49863,490.9045 436.79463,492.57759 438.97203,492.22527 440.44783,493.14836 442.51413,492.42902 443.62793,490.3166 444.16933,489.67447 446.05003,490.8012 447.05223,492.696 448.35823,492.63198 448.77823,491.88205 449.91313,491.32439 451.35503,489.70438 451.77293,489.82477 453.06073,492.52947 453.42333,492.77183 455.46543,492.06746 457.18143,492.06271 457.76833,492.57117 458.52333,492.61479 458.73023,492.99864 458.21223,494.19265 457.15263,495.52288 457.36073,495.90656 458.37373,496.7059 460.49113,496.22495 460.23223,497.9291 459.57063,498.47543 458.70683,500.41413 460.53023,501.38948 462.11613,501.29992 462.54233,503.71297 463.37343,503.69184 463.50893,504.60074 461.44213,506.15982 460.16993,506.37849 461.31963,509.02001 461.13853,508.99647 459.59173,511.50197 457.85593,510.28951 455.32403,512.71151 454.51943,515.18363 453.86773,515.7078 453.53773,516.85329 452.30633,516.81341 452.27183,517.65263 453.32693,518.9515 453.45123,519.74611 454.78923,520.68791 454.40853,522.60418 454.53423,523.43857 455.93133,524.2828 457.13723,525.98729 458.18723,525.25523 458.99943,526.69655 459.09463,529.09626 460.34083,528.84633 462.72423,529.9052 463.55043,529.84282 465.12353,530.42296 465.72663,531.04298 466.71473,530.15344 467.46513,530.31518 468.24693,531.28454 467.74063,535.45496 467.28943,536.20448 465.82183,537.05497 465.79013,537.49139 466.62333,538.46529 466.27033,538.72211 465.40453,538.67192 464.34163,537.9502 462.76713,538.67969 462.42453,540.1513 459.90413,540.1043 459.43583,541.31327 458.78303,541.85585 457.34903,541.08622 456.45323,543.00759 456.06363,542.7149 455.09773,541.33963 455.00613,540.51313 454.90803,539.17116 452.86533,537.43825 452.23303,535.78187 451.06563,535.11846 448.84493,535.21113 447.65763,536.39246 445.57043,536.22398 445.32903,537.07179 441.42323,537.19628 443.03163,539.61953 443.07373,540.47123 442.56593,541.6292 441.38963,543.47493 440.37673,544.31212 439.94113,544.98936 440.20483,547.4409 439.38783,547.68452 438.85743,548.359 437.60843,548.29832 437.46673,548.70664 436.50143,550.16468 433.85983,552.47418 432.16633,552.42575 431.90773,552.06928 431.10263,553.02868 430.67843,552.45473 z">
      <title id="t88">Troisième circonscription des Côtes-d'Armor</title>
      <desc id="d88">Cantons de : La Chèze, Collinée, Corlay, Jugon-les-Lacs, Lamballe, Loudéac, Merdrignac, Moncontour, Mûr-de-Bretagne, Ploeuc-sur-Lié, Plouguenast, Quintin, Uzel</desc>
    </path><path class="circo" id="022-04" d="M 373.88813,473.56245 373.01273,473.61791 371.42913,473.56129 370.77743,472.58626 369.93323,471.1356 369.72963,469.86152 368.77923,469.02423 368.78273,468.19313 368.28493,466.36588 366.38913,467.09815 365.79303,468.23357 366.65393,470.73115 365.68183,472.75034 365.78453,474.04135 363.92123,474.02218 362.65733,473.94138 361.16293,473.18298 360.77323,473.34409 362.65203,471.04395 362.51783,470.62044 361.26533,470.33555 360.41593,468.82194 360.71413,467.55603 361.97063,466.34114 360.67433,466.53411 359.16533,467.3667 358.31973,467.2473 357.52773,464.82608 355.70293,463.68002 354.77923,463.86868 354.61093,464.09084 353.77093,463.9179 352.35503,464.94823 352.32893,468.53117 352.81643,469.22136 353.26163,469.28059 353.60033,469.88444 353.11563,470.8824 352.54803,471.39819 350.04173,471.62485 349.55843,469.61587 347.64483,469.91328 347.78803,471.2723 346.44483,472.09348 345.81273,472.88006 345.43933,473.57622 346.23453,478.2716 346.67663,479.00022 347.45023,479.32356 347.38873,481.00206 347.71663,481.35254 348.34963,481.99048 349.67293,481.88009 350.87683,482.47365 351.30053,482.32665 352.05413,483.93012 350.88863,485.81242 352.39363,486.40947 353.16113,486.04963 354.76513,488.03787 356.00143,488.42739 354.28953,489.86674 352.13573,492.7436 351.03753,493.51678 350.48583,494.09927 350.68723,495.33501 350.42323,496.12596 351.00413,496.68372 350.87463,497.08118 351.26973,497.12785 351.50623,497.88795 352.65133,498.11484 352.63493,498.52708 353.48023,499.37032 354.70663,499.27484 355.04803,500.02495 353.70363,501.1691 352.11163,501.92463 350.94483,503.25187 350.82243,505.85766 350.57343,506.10515 350.64943,506.946 350.18713,507.64595 354.65203,509.10665 354.75533,509.97834 354.00093,512.93099 354.55943,513.55625 355.24663,517.04131 356.06143,517.07276 357.02523,516.13631 357.78113,516.56748 356.98683,516.86889 355.72723,519.08043 354.89333,518.98268 354.83283,519.83439 356.78133,520.65942 357.38893,521.27781 357.81893,521.2087 357.14303,522.67161 357.08673,523.91101 357.45523,524.65726 355.87943,524.91859 355.55823,526.1462 354.76673,526.49451 354.57653,528.2307 355.83333,530.53559 357.42133,531.2038 357.53043,532.06757 357.66783,532.89769 357.27203,533.03883 355.67663,532.52676 353.67333,532.9784 353.82883,533.52486 354.80913,534.30176 356.57193,534.47028 359.62023,533.88935 361.00173,533.51058 361.87713,534.37531 363.53903,534.4365 363.90623,534.21189 364.00653,533.37378 365.96393,535.10559 364.61623,536.77144 364.97973,537.55854 366.34483,538.63612 367.50433,537.42118 368.70143,537.61817 370.01493,536.45656 372.14333,536.03804 373.20173,535.33247 374.26653,536.99878 374.14623,537.80215 374.78953,538.23342 375.02703,537.41723 376.27673,537.44106 377.04393,537.75921 377.64183,538.87511 378.80373,539.28707 378.92553,538.8853 380.35173,538.18972 381.58153,538.039 383.85833,539.04186 383.58023,537.83808 384.71793,536.61419 385.50193,536.30159 386.69163,536.65994 387.05583,536.88893 388.14503,536.21111 389.27113,536.66695 390.21483,535.80991 390.77223,534.65627 390.22813,533.97158 390.27203,533.08907 390.79753,531.87641 391.61803,531.58003 392.03733,530.84413 393.54783,530.99604 393.78393,531.31961 394.18493,531.37024 394.89633,530.42998 395.29913,530.44478 396.06963,528.93934 396.88563,528.63798 397.24733,527.84446 397.00443,526.12756 396.17063,526.12731 395.81113,525.34995 394.14843,525.20557 394.37213,524.54542 394.03943,523.99974 394.46813,523.24166 394.00313,522.02385 394.02053,520.69813 393.06773,519.26864 393.67383,518.66233 394.49493,518.51448 395.87043,517.11289 394.80563,515.75344 394.79733,514.91411 395.80943,513.48706 398.77453,511.01827 398.92623,510.24704 398.22033,510.09221 398.09013,508.85531 397.31033,509.04689 397.08143,508.17879 397.87413,506.06175 397.97513,505.39544 398.88203,504.78041 398.90403,503.70989 399.47143,503.06768 399.02863,502.3388 399.46093,500.70808 399.97843,500.04174 399.92603,498.97621 399.95223,496.86797 402.05393,494.8492 402.95683,493.48779 404.60173,493.13001 406.17163,490.68313 405.65293,489.52866 404.40293,488.41802 404.20713,488.74563 403.90233,488.51738 404.14653,487.8051 403.89383,486.57205 405.03653,485.99299 405.29543,485.18308 404.32803,483.83236 403.70833,482.7273 403.71163,481.88433 404.28433,481.0351 404.65813,481.11684 405.48663,481.18958 407.27703,482.29452 408.12203,482.23425 407.97253,481.81314 408.49393,480.59591 407.48443,479.20631 407.54833,478.76314 408.32173,478.63753 408.59353,476.4293 408.53983,474.32274 405.94843,473.40894 405.07573,474.23538 404.65943,474.26921 403.55493,473.07064 403.09603,473.76485 402.29353,472.88932 400.48063,471.98652 400.02053,470.40082 399.59773,470.36696 398.96443,469.27621 398.56853,469.43098 397.99413,469.4902 396.96883,469.12312 396.90283,468.45906 393.68603,469.76264 393.27663,470.52028 393.32123,471.38197 393.56943,471.73323 395.16343,472.1066 396.13423,470.84842 397.24663,471.41865 396.84973,472.53954 395.35653,473.21785 395.31123,473.9527 394.81423,474.65389 393.94793,474.65943 392.87943,475.40518 391.67243,474.83516 391.59593,473.99606 390.93093,473.64519 390.30783,474.63858 389.57953,474.97757 388.53923,473.0763 388.03333,473.72895 386.39793,473.59745 385.47403,474.36326 385.11423,473.64158 383.62593,473.13112 383.90463,474.86552 382.69403,477.20121 381.72933,476.48512 381.01723,475.08743 381.29693,473.55949 380.43553,473.4689 379.45443,472.62976 378.19903,472.31896 377.48673,471.23896 375.64263,473.13447 373.88813,473.56245 z">
      <title id="t89">Quatrième circonscription des Côtes-d'Armor</title>
      <desc id="d89">Cantons de : Bégard, Belle-Isle-en-Terre, Bourbriac, Callac, Gouarec, Guingamp, Lanvollon, Maël-Carhaix, Plestin-les-Grèves, Plouagat, Plouaret, Rostrenen, Saint-Nicolas-du-Pélem</desc>
    </path><path class="circo" id="022-05" d="M 395.65473,443.91704 393.40473,445.94829 391.15473,446.38579 388.87348,447.91704 387.52973,448.07329 387.09223,449.32329 386.65473,449.16704 385.71723,449.97954 384.90473,451.57329 385.12348,452.35454 382.93598,455.07329 383.09223,456.79204 382.49848,455.76079 381.74848,456.04204 384.06098,453.32329 384.68598,451.38579 384.24848,449.82329 383.24848,450.35454 383.96723,448.29204 383.12348,446.19829 382.27973,446.07329 381.06098,447.26079 379.37348,450.32329 378.93598,450.35454 378.06098,449.38579 376.74848,450.47954 374.62348,449.94829 373.34223,451.07329 372.90473,451.01079 371.71723,452.10454 370.93598,451.94829 370.71723,452.32329 368.84223,453.01079 368.77973,454.29204 364.40473,454.94829 364.27973,454.51079 365.40473,452.13579 362.96723,452.69829 361.09223,449.88579 360.24848,450.41704 360.21723,451.41704 359.74848,450.79204 358.65473,451.51079 358.52973,450.47954 359.27973,449.88579 359.02973,449.72954 357.21723,450.85454 357.52973,452.29204 356.43598,451.60454 355.99848,451.63579 355.31098,453.29204 356.59223,454.10454 354.68598,455.82329 353.52973,455.29204 352.65473,456.26079 352.09223,458.41704 352.46723,460.13579 353.77973,459.97954 355.15473,461.72954 354.77973,463.85454 355.71723,463.66704 357.52973,464.82329 358.31098,467.26079 359.15473,467.35454 360.68598,466.54204 361.96723,466.35454 360.71723,467.54204 360.40473,468.82329 361.27973,470.32329 362.52973,470.63579 362.65473,471.04204 360.77973,473.35454 361.15473,473.19829 362.65473,473.94829 363.93598,474.01079 365.77973,474.04204 365.68598,472.76079 366.65473,470.72954 365.77973,468.22954 366.40473,467.10454 368.27973,466.35454 368.77973,468.19829 368.77973,469.01079 369.71723,469.85454 369.93598,471.13579 370.77973,472.57329 371.43598,473.57329 372.99848,473.60454 373.87348,473.57329 375.65473,473.13579 377.49848,471.22954 378.18598,472.32329 379.46723,472.63579 380.43598,473.47954 381.31098,473.57329 381.02973,475.07329 381.71723,476.47954 382.68598,477.19829 383.90473,474.85454 383.62348,473.13579 385.12348,473.63579 385.46723,474.35454 386.40473,473.60454 388.02973,473.72954 388.52973,473.07329 389.59223,474.97954 390.31098,474.63579 390.93598,473.63579 391.59223,474.01079 391.68598,474.82329 392.87348,475.41704 393.93598,474.66704 394.81098,474.66704 395.31098,473.94829 395.34223,473.22954 396.84223,472.54204 397.24848,471.41704 396.12348,470.85454 395.15473,472.10454 393.56098,471.72954 393.31098,471.38579 393.27973,470.51079 393.68598,469.76079 396.90473,468.44829 396.96723,469.13579 397.99848,469.47954 398.56098,469.41704 398.96723,469.26079 399.59223,470.35454 400.02973,470.38579 400.46723,471.97954 402.27973,472.88579 403.09223,473.76079 403.56098,473.07329 404.65473,474.26079 405.06098,474.22954 405.93598,473.41704 408.52973,474.32329 408.59223,476.41704 408.31098,478.63579 407.56098,478.76079 407.49848,479.19829 408.49848,480.60454 407.96723,481.82329 408.12348,482.22954 409.62348,481.44829 410.62348,482.79204 413.43598,481.82329 413.90473,481.22954 413.93598,480.41704 415.18598,480.16704 415.49848,480.44829 415.71723,481.76079 416.09223,481.94829 416.96723,482.13579 418.09223,481.51079 417.24848,481.35454 416.77973,480.60454 417.49848,479.01079 417.27973,478.19829 416.65473,474.91704 416.34223,473.32329 415.93598,473.38579 414.56098,471.85454 413.90473,470.85454 413.15473,471.19829 411.96723,470.94829 411.15473,467.97954 408.37348,466.66704 407.74848,465.47954 406.56098,464.94829 406.27973,464.13579 407.46723,462.91704 406.71723,462.26079 407.81098,460.38579 406.62348,460.19829 405.99848,459.10454 406.02973,458.26079 405.34223,459.47954 402.65473,459.51079 400.43598,458.91704 399.46723,457.69829 400.96723,457.13579 398.15473,456.88579 397.96723,456.35454 401.09223,454.72954 401.27973,454.32329 400.74848,453.60454 400.77973,452.32329 399.96723,452.01079 397.84223,452.54204 396.21723,451.97954 394.56098,453.38579 393.81098,456.85454 393.12348,457.41704 393.37348,458.72954 393.12348,459.10454 391.99848,459.32329 391.56098,459.97954 391.18598,458.32329 391.96723,457.88579 393.24848,456.63579 393.43598,453.88579 395.77973,450.60606 393.37348,450.76079 394.71723,448.54204 394.24848,447.32329 393.84223,447.10454 394.59223,446.69829 395.43598,447.38579 394.62348,446.04204 393.52973,446.13579 395.65473,443.91704 z M 402.24848,446.38579 401.77973,447.01079 400.84223,447.04204 400.74848,447.47954 401.87348,447.85454 401.81098,448.35454 400.59223,448.04204 400.90473,449.91704 401.21723,450.04204 401.46723,449.51079 401.65473,450.04204 402.15473,449.79204 402.06098,448.85454 402.34223,448.47954 402.21723,448.01079 402.34223,446.94829 402.99848,447.07329 403.09223,446.38579 402.24848,446.38579 z M 353.34223,453.85454 352.96723,454.10454 352.09223,454.19829 352.02973,455.10454 352.21723,455.51079 352.56098,454.94829 353.21723,455.10454 353.74848,454.72954 353.93598,454.32329 353.77973,453.91704 353.34223,453.85454 z">
      <title id="t90">Cinquième circonscription des Côtes-d'Armor</title>
      <desc id="d90">Cantons de : Etables-sur-Mer, Lannion, Lézardrieux, Paimpol, Perros-Guirec, Plouha, Pontrieux, La Roche-Derrien, Tréguier.</desc>
    </path></svg>