<svg xmlns="http://www.w3.org/2000/svg" version="1.1" xmlns:xlink="http://www.w3.org/1999/xlink" xmlns:svgjs="http://svgjs.dev/svgjs" viewBox="773.68613 750.58425 104.96729999999991 96.85716000000002"><path class="circo" id="023-01" d="M 873.68673,794.28023 873.64903,791.90777 874.14013,791.34512 874.38733,789.48257 874.68363,789.50417 874.91183,788.95383 874.38283,785.10441 872.91053,784.87301 871.77703,783.81169 871.76033,782.67628 871.20393,781.62247 870.64683,777.22716 870.74093,777.11692 868.41263,775.81788 867.46513,773.5058 867.61873,772.69751 867.67993,772.27408 866.82273,771.34952 864.51213,770.28533 863.70073,770.48832 863.06483,771.57302 862.67113,771.47511 862.18153,769.92449 862.61013,768.42336 859.84813,765.78524 859.67103,765.73563 858.35603,768.10464 857.98203,768.29501 857.27843,766.7945 855.26573,766.57294 853.59383,765.40668 853.34173,764.62721 852.53343,764.45581 853.01953,763.80295 853.17023,762.7037 854.33133,761.57224 855.51123,761.57667 855.45353,761.17003 855.02363,760.0154 853.41473,760.30555 852.43413,759.5908 851.24353,759.41275 851.06103,759.0427 850.51933,756.28846 850.82683,756.02143 850.54513,755.22238 850.74303,754.83977 848.69563,754.50339 848.41483,754.19288 845.60903,754.44777 843.66943,753.86645 842.57003,754.5008 841.11553,754.3871 839.53613,754.40844 838.80493,754.75395 836.71123,754.70056 835.64593,756.02834 834.38653,756.1139 834.39723,756.08049 833.65083,755.85377 833.01193,754.8764 832.24753,754.72337 830.97543,754.79415 829.35363,754.3231 828.72953,753.79665 826.26523,753.54346 826.06923,753.01164 825.04723,752.23505 820.57323,753.42099 820.01383,752.42785 819.33533,752.04175 818.33873,752.59992 817.31613,752.31992 816.98933,753.32972 814.42143,753.22896 813.47143,754.05032 811.42153,753.48105 811.28343,752.61336 810.02613,751.40372 809.70353,750.58425 805.39783,751.18695 805.82863,751.74445 806.30793,752.4334 806.05073,752.76742 806.43043,753.96647 805.49793,755.83688 805.64943,756.66593 804.03463,757.96621 803.71913,758.71601 802.15033,758.1655 799.95883,755.11437 798.09143,756.8125 797.54533,757.95733 796.34513,759.13118 795.17643,758.65871 794.07763,756.93959 794.65753,754.96308 793.62203,754.49932 792.91803,754.93719 792.17563,756.3861 790.94023,756.24951 790.67263,756.56855 789.04173,757.8628 788.27813,757.85689 788.06453,755.32176 787.30713,754.34962 786.50703,754.06919 785.25213,754.9812 785.09963,755.76031 784.36103,756.67703 784.09323,758.01649 783.37893,757.69604 782.61983,758.09808 781.26583,760.28067 779.69273,760.83199 778.99193,761.9143 778.96583,762.77562 777.14313,763.85812 776.67533,764.51184 778.07123,765.33318 779.27463,765.31914 779.73913,765.89985 779.13563,766.84755 779.45473,769.24964 778.01313,769.91108 777.32273,772.18171 778.46723,772.43027 778.97643,773.05475 777.92923,773.69246 777.13423,773.46375 776.40173,774.4774 776.50603,775.27368 777.50573,775.97755 777.38733,776.78914 775.47433,777.18537 774.07013,779.57813 773.68613,779.73095 774.72193,782.01191 775.41353,782.46334 775.72403,783.69567 776.42613,784.02421 777.43043,784.69734 778.64163,784.52265 779.27843,784.90702 780.32083,784.27712 781.02903,784.70888 780.85433,785.4729 781.38143,786.56808 780.21723,787.77351 781.80973,788.14898 782.80203,789.46246 783.98063,789.29942 783.86973,790.13014 784.53513,790.61022 784.76453,791.38792 783.79863,792.06571 783.37393,793.23228 784.34923,793.93355 784.41223,794.76149 785.01913,795.55035 785.41513,795.02184 786.55553,795.56776 786.56713,796.43288 787.85333,797.21346 787.15743,799.25787 787.47233,799.98888 787.37083,800.27096 787.58513,801.09543 788.40873,802.06612 787.46973,803.47618 787.18783,805.58699 787.57393,806.80543 789.81243,806.79393 790.16523,806.86686 790.61593,808.16777 790.92273,809.16583 790.71143,809.44398 789.98273,810.9222 789.14873,810.87683 787.44763,812.09433 785.93793,812.53446 785.87653,813.65094 785.11303,813.77978 785.52703,814.90912 787.11063,815.05443 788.36973,816.64885 789.11263,816.36233 790.58983,816.77226 790.92433,816.5274 791.25593,814.95202 793.27173,814.66604 794.36333,815.03427 795.04013,814.71859 795.23323,815.4758 796.00863,815.53165 795.06183,816.78838 796.38593,819.16717 796.37853,819.6336 795.61503,819.92511 794.75103,819.16143 794.40823,820.31357 793.86363,819.88982 793.02963,819.96614 792.09013,820.77259 793.16593,821.23402 793.44673,822.79806 793.05623,823.89881 795.27283,825.10287 797.34283,825.34302 797.94573,826.78655 798.57753,826.19897 799.38673,826.31708 800.91753,825.56632 802.61283,825.88455 803.87453,825.60366 804.72893,824.64036 806.09893,824.1185 806.19703,822.83627 807.36873,822.56722 808.13003,824.53845 807.59003,825.67553 807.97173,826.85182 809.55993,827.22622 811.17883,829.15257 811.92783,829.53782 812.30933,829.35087 812.32853,828.50385 812.76603,827.80529 813.51573,829.20452 814.56883,829.65818 814.63933,830.0645 815.05603,830.04316 816.97643,831.55397 817.75343,834.76248 818.53573,834.621 818.04313,835.77564 816.81033,835.83583 816.15793,836.32791 817.19813,837.58787 816.09793,839.71597 816.26603,840.08748 817.04643,839.8571 817.71303,840.86634 816.71983,841.57657 816.75293,841.98389 817.16793,842.05144 818.24523,843.30012 819.26273,842.61964 819.96363,841.62332 820.75863,841.74724 821.34253,842.34662 822.12563,842.24401 822.43843,840.62284 823.14613,840.1693 824.80533,840.17819 825.36543,840.72901 826.07883,840.28789 826.69923,839.21512 826.98253,837.14947 828.05203,836.45693 830.15073,836.29709 830.98453,835.33676 831.40523,835.40086 831.99393,836.52722 833.88663,837.45485 834.03283,838.66187 834.05213,839.67603 835.08253,838.96998 836.47733,839.85552 837.83983,838.92577 839.35013,840.30518 840.16263,840.45652 840.53123,838.72763 841.66523,839.19052 842.54313,840.58826 844.14293,841.00488 843.33183,842.92051 843.67733,843.15699 844.78233,842.77872 844.93163,841.53421 845.77883,843.35513 846.57583,843.30791 847.07363,843.95071 847.81913,843.7857 848.75973,844.49782 849.89523,844.10697 849.94343,847.44141 851.20233,847.33681 852.18233,846.55686 852.93683,846.18315 854.06243,846.6751 855.86543,845.01093 856.50513,843.92297 856.39883,843.08555 856.19663,842.27834 856.48033,841.96904 858.11763,841.49306 858.64793,841.54249 859.30513,842.04049 861.75543,841.99435 863.90213,843.17878 864.63783,842.16952 865.44383,841.9655 866.53033,840.73461 866.92903,840.71878 867.03603,839.55365 868.68523,838.50427 868.09963,837.38384 866.91123,837.0681 866.54963,836.3016 865.50853,835.64271 864.73613,835.91697 863.75443,834.5831 863.47773,832.29663 859.83593,827.57023 861.03363,826.38113 863.09163,826.72506 863.63283,826.152 863.81373,825.40903 864.91933,825.31995 865.07603,824.53858 864.54383,823.95544 864.54543,822.76608 866.05393,822.73251 866.40213,822.20355 867.16823,822.22699 867.90223,823.0411 868.69363,823.0975 869.48993,821.65782 869.52243,820.39527 870.36363,820.2988 873.87633,817.31361 874.27103,817.12217 873.08523,816.67121 872.94033,816.27264 873.10753,815.01508 873.75603,814.47317 873.74373,813.66304 875.16203,812.79218 874.95563,811.97084 875.19523,811.63264 878.43533,810.58713 878.65343,809.40875 877.58193,808.11321 877.27183,806.96132 877.70913,804.61288 878.08393,802.45586 875.58873,800.73538 874.00873,797.15452 873.65623,795.89303 873.82743,795.04108 873.68673,794.28023 z">
      <title id="t91">Première circonscription de la Creuse</title>
      <desc id="d91">Circonscription unique : Tous les cantons du département</desc>
    </path></svg>