<svg xmlns="http://www.w3.org/2000/svg" version="1.1" xmlns:xlink="http://www.w3.org/1999/xlink" xmlns:svgjs="http://svgjs.dev/svgjs" viewBox="0 0 126.6345 137.84799999999996"><path class="circo" id="id-024-01" d="M19.44119999999998 71.99105999999995L19.57280000000003 69.54061999999999L18.87149999999997 68.59709999999995L20.00419999999997 67.45323999999994L19.9932 66.71618999999998L21.373699999999985 65.83281999999997L23.003399999999942 65.59057999999993L23.186899999999923 66.41081999999994L21.6721 67.85125999999991L21.665300000000002 68.27167999999995L22.53359999999998 69.17486999999994L23.36239999999998 69.14353999999992L24.293699999999944 69.93815999999993L25.949799999999982 69.89333999999997L26.519199999999955 70.49448999999993L26.938699999999926 70.4887L29.76069999999993 66.99394999999993L30.352899999999977 67.5732999999999L30.764999999999986 67.53423999999995L31.778299999999945 65.83474999999999L32.73569999999995 66.55620999999996L34.703199999999924 66.37923L36.50739999999996 65.34906000000001L37.51749999999993 64.65508999999997L38.260400000000004 63.20178999999996L39.347099999999955 62.8128999999999L39.3963 62.82761999999991L40.45539999999994 63.25811999999996L41.87169999999992 62.98273999999992L42.25299999999993 62.95186000000001L41.91829999999993 62.275980000000004L42.312599999999975 61.19693999999993L44.59659999999997 60.73215999999991L44.98529999999994 60.85776999999996L45.47149999999999 61.981379999999945L45.879999999999995 61.98680999999999L46.59519999999998 61.61631999999997L47.18439999999998 60.54440999999997L47.59809999999993 60.50313999999992L48.61270000000002 58.71537000000001L48.84649999999999 57.07150999999999L49.97109999999998 56.562149999999974L51.684099999999944 56.78296999999998L52.83479999999997 57.36848999999995L53.03430000000003 56.6967699999999L53.5711 57.059799999999996L53.91459999999995 57.305959999999914L55.45659999999998 56.64666L56.279499999999985 56.79576999999995L57.67750000000001 55.25687999999991L57.9923 54.98093999999992L59.07579999999996 55.53919999999994L59.39850000000001 55.27184999999997L59.82060000000001 54.10498999999993L58.7278 52.9461399999999L59.47889999999995 51.939930000000004L60.712099999999964 51.89897999999994L61.06939999999997 50.283939999999916L61.96879999999999 50.24441999999999L61.91269999999997 50.66410999999994L63.71079999999995 51.576869999999985L65.0009 55.13671999999997L66.12959999999998 56.350619999999935L65.86860000000001 57.155419999999935L67.20409999999993 57.31380999999999L67.64249999999993 59.85308999999995L69.45849999999996 59.05246999999997L70.77969999999993 57.46808999999996L71.57209999999998 57.63394999999991L72.71069999999997 58.75265999999999L73.1046 59.91462999999999L72.55009999999993 60.51049999999998L72.53719999999998 61.73032999999998L71.84410000000003 62.087549999999965L71.61759999999992 63.24894999999992L71.24839999999995 63.405869999999936L69.22209999999995 63.55097000000001L67.41790000000003 64.49746999999991L66.40530000000001 63.87793999999997L66.74339999999995 64.8013699999999L65.71019999999999 65.12875999999994L65.34539999999993 65.01540999999997L64.7776 65.52715999999998L64.21609999999998 66.62626L64.41989999999998 68.66278999999997L63.95569999999998 69.33840999999995L61.16120000000001 69.08267999999998L61.19859999999994 70.28217999999993L61.68179999999995 70.89956999999993L61.16949999999997 71.5029199999999L60.96320000000003 72.69067999999993L60.20259999999996 72.75222999999994L59.76139999999998 73.37516999999991L58.371099999999956 74.03936999999996L57.191599999999994 74.43917999999996L56.408500000000004 74.24806999999998L55.57339999999999 76.02614999999992L56.23879999999997 77.88187999999991L55.978200000000015 78.5955899999999L54.407100000000014 78.73446999999999L53.45259999999996 79.39344999999992L52.65779999999995 79.44061999999997L53.066799999999944 80.91082999999992L50.654499999999985 81.35379L48.73910000000001 79.88331999999991L48.38919999999996 80.23249999999996L48.20859999999993 79.88042999999993L46.851299999999924 80.45110999999997L46.48689999999999 80.3012L46.488399999999956 79.90545999999995L45.66599999999994 80.03239999999994L44.33579999999995 81.0741999999999L43.79379999999992 82.22939999999994L42.68029999999999 81.89258999999993L41.94029999999998 82.18849999999998L41.14760000000001 81.28436999999997L40.75969999999995 81.41296999999997L39.28890000000001 83.34638999999993L38.54769999999996 85.11599000000001L38.32510000000002 85.96479999999997L37.44989999999996 86.75941L36.72669999999994 86.39781999999991L35.233299999999986 84.06457999999998L34.176399999999944 84.32745L34.343099999999936 86.38410999999996L33.54340000000002 88.29185999999993L33.15689999999995 88.15761999999995L32.19229999999993 86.39384999999993L29.819799999999987 86.13766999999996L29.722099999999955 88.62726999999995L28.491699999999923 90.29206999999997L28.460500000000025 91.11572999999999L28.28699999999992 91.2764699999999L27.120699999999943 90.95090999999991L26.34730000000002 91.17255999999998L26.081699999999955 91.44475999999997L24.65809999999999 91.0127799999999L23.529899999999998 91.13783999999998L23.115999999999985 90.31466L20.821500000000015 90.46843999999999L19.660499999999956 89.42625999999996L18.45429999999999 89.18581999999992L16.07370000000003 89.77506999999991L15.685499999999934 89.87034999999992L14.937099999999987 88.95569999999998L12.930999999999926 87.61930999999993L11.722300000000018 87.64970999999991L10.624500000000012 88.1429599999999L10.43369999999993 87.3866099999999L9.43279999999993 86.82274999999993L9.635800000000017 84.54593999999997L9.278099999999995 84.39562999999998L8.294199999999933 84.99791999999991L7.267799999999966 84.46116999999992L6.987599999999929 83.78041999999994L7.337400000000002 82.15686999999991L8.282899999999927 81.38229999999999L9.75909999999999 78.00633999999991L9.678299999999922 77.4562699999999L10.454200000000014 76.04661999999996L12.70679999999993 75.14337L13.292100000000005 74.55984000000001L14.558899999999994 71.97960999999998L16.08280000000002 72.12176L16.251300000000015 72.89592999999991L17.105299999999943 73.63555999999994L17.879999999999995 73.37540999999999L19.07299999999998 73.61905999999999L19.797199999999975 72.72501L19.44119999999998 71.99105999999995z">
      <title id="t92">Première circonscription de la Dordogne</title>
      <desc id="d92">Cantons de : Montpon-Ménestérol, Mussidan, Neuvic, Périgueux Centre, Périgueux Nord-Est, Périgueux Ouest, Saint-Astier</desc>
    </path><path class="circo" id="id-024-02" d="M73.96259999999995 123.63484999999991L73.04700000000003 122.81050999999991L71.48450000000003 122.31769999999995L70.54559999999992 122.98163L70.42649999999992 124.17382999999995L69.71190000000001 124.2897999999999L68.39749999999992 123.61631L68.13499999999999 124.76631999999995L66.95179999999993 124.5933399999999L65.50689999999997 125.28190999999993L62.695299999999975 125.16021999999998L61.78189999999995 125.33342999999991L59.412199999999984 125.05908999999997L59.25879999999995 123.60997999999995L58.618799999999965 122.15134999999998L57.11079999999993 121.62572999999998L56.376499999999965 122.48272999999995L56.531799999999976 123.2222099999999L56.23180000000002 123.45214999999996L55.25819999999999 122.91836999999998L53.79849999999999 122.77761999999996L53.46679999999992 122.5670399999999L52.5299 123.24097999999992L51.739599999999996 125.81729999999993L51.33870000000002 125.72322999999994L49.987499999999955 126.57792999999992L49.58190000000002 126.50777999999991L48.95449999999994 125.44758999999999L47.87099999999998 124.9722999999999L47.03589999999997 125.06972999999994L45.65809999999999 126.02108999999996L45.0136 126.36781999999994L43.5249 126.04845999999998L41.94889999999998 127.72051999999996L38.97079999999994 128.96052999999995L36.75400000000002 127.85410999999999L35.54059999999993 127.91386L34.687599999999975 127.03708999999992L33.74950000000001 127.79519999999991L33.24540000000002 127.09206999999992L33.32319999999993 125.40873999999997L34.090599999999995 123.44986999999992L32.55529999999999 122.12826999999993L32.72569999999996 121.31882999999993L33.09859999999992 121.16823999999997L32.85629999999992 119.60969L32.14580000000001 118.15607999999997L29.62519999999995 115.46033L28.802099999999996 114.9579L27.34859999999992 113.5088199999999L26.821500000000015 112.40413000000001L26.849199999999996 110.95943L26.137299999999982 108.93356999999992L25.945499999999925 107.27661L27.495900000000006 107.58461999999997L28.307699999999954 106.81373999999994L29.093399999999974 106.94437999999991L29.109100000000012 105.82736999999997L30.309300000000007 105.00437999999997L28.013399999999933 102.86979999999994L26.93679999999995 102.34091000000001L25.327299999999923 102.34929999999997L23.84629999999993 101.81436999999994L24.248199999999997 103.30534999999998L24.078300000000013 103.62240999999995L22.40689999999995 105.11239999999998L21.356599999999958 105.48439999999994L19.920999999999935 107.94988999999998L19.175700000000006 107.62896L19.015699999999924 107.45542L16.179499999999962 106.95624999999995L14.090100000000007 107.08844999999997L13.28729999999996 108.0625399999999L13.221299999999928 108.11250999999993L12.818199999999933 108.03449999999998L12.488899999999944 106.5013899999999L11.668000000000006 106.50905999999998L10.555600000000027 106.72623999999996L9.963200000000029 108.10974999999996L9.554700000000025 108.14869999999996L8.656299999999987 107.36709999999994L7.850799999999936 107.52672999999993L7.593200000000024 107.51702999999998L6.869599999999991 107.13063L6.846699999999942 105.94040999999993L5.419800000000009 104.5199L4.283699999999953 104.93891999999994L0.6208000000000311 104.19664999999998L0.7613000000000056 103.81630999999993L2.675700000000006 103.27596999999992L3.1201999999999543 102.22060999999997L3.6322999999999865 101.32570999999996L3.621699999999919 101.29908L3.9213999999999487 100.596L4.585100000000011 100.22805999999991L4.884400000000028 99.13574999999992L4.9898999999999205 99.0787499999999L6.41089999999997 96.65689999999995L5.403799999999933 95.41444999999999L5.076799999999935 95.0882499999999L3.9646000000000186 92.90171999999995L4.313300000000027 90.91546999999991L4.7631999999999834 89.79861999999991L4.69380000000001 88.9892299999999L5.034099999999967 88.76955999999996L5.736400000000003 89.22582999999997L6.142600000000016 89.12164999999993L6.937900000000013 87.21724999999992L6.558300000000031 84.71753000000001L6.855799999999931 83.51884999999993L6.987599999999929 83.78041999999994L7.267799999999966 84.46116999999992L8.294199999999933 84.99791999999991L9.278099999999995 84.39562999999998L9.635800000000017 84.54593999999997L9.43279999999993 86.82274999999993L10.43369999999993 87.3866099999999L10.624500000000012 88.1429599999999L11.722300000000018 87.64970999999991L12.930999999999926 87.61930999999993L14.937099999999987 88.95569999999998L15.685499999999934 89.87034999999992L16.07370000000003 89.77506999999991L18.45429999999999 89.18581999999992L19.660499999999956 89.42625999999996L20.821500000000015 90.46843999999999L23.115999999999985 90.31466L23.529899999999998 91.13783999999998L24.65809999999999 91.0127799999999L26.081699999999955 91.44475999999997L26.34730000000002 91.17255999999998L27.120699999999943 90.95090999999991L28.28699999999992 91.2764699999999L28.460500000000025 91.11572999999999L28.491699999999923 90.29206999999997L29.722099999999955 88.62726999999995L29.819799999999987 86.13766999999996L32.19229999999993 86.39384999999993L33.15689999999995 88.15761999999995L33.54340000000002 88.29185999999993L34.343099999999936 86.38410999999996L34.176399999999944 84.32745L35.233299999999986 84.06457999999998L36.72669999999994 86.39781999999991L37.44989999999996 86.75941L38.32510000000002 85.96479999999997L38.54769999999996 85.11599000000001L39.28890000000001 83.34638999999993L40.75969999999995 81.41296999999997L41.14760000000001 81.28436999999997L41.94029999999998 82.18849999999998L42.68029999999999 81.89258999999993L43.79379999999992 82.22939999999994L44.33579999999995 81.0741999999999L45.66599999999994 80.03239999999994L46.488399999999956 79.90545999999995L46.48689999999999 80.3012L46.851299999999924 80.45110999999997L48.20859999999993 79.88042999999993L48.38919999999996 80.23249999999996L48.73910000000001 79.88331999999991L50.654499999999985 81.35379L53.066799999999944 80.91082999999992L54.68279999999993 82.80854999999997L56.14659999999992 82.90163999999993L56.176199999999994 83.31247999999994L57.29520000000002 84.37387000000001L57.054700000000025 85.10253L58.224399999999946 85.16048L59.2287 86.78188L59.91520000000003 87.08202999999992L59.627899999999954 87.36124999999993L59.72770000000003 88.14848999999992L59.20010000000002 88.73037999999997L58.876300000000015 90.32679999999993L59.912199999999984 90.96364999999992L59.95769999999993 92.10480999999993L61.07389999999998 91.8543699999999L62.5462 92.01664999999991L63.06970000000001 93.4811699999999L63.414800000000014 93.67234999999994L64.08679999999993 93.46231L64.88729999999998 94.0437599999999L65.22539999999992 94.25569999999993L65.32399999999996 96.22753L65.97860000000003 96.46916999999996L66.99059999999997 96.5904099999999L67.02859999999998 97.2812899999999L69.9108 97.13342L69.97500000000002 98.65564999999992L71.04319999999996 98.99212L71.91949999999997 100.37345999999991L72.73839999999996 100.19074L73.42219999999998 100.62131L73.49569999999994 103.17955999999992L74.3012 104.13477999999998L76.07309999999995 104.26438999999993L77.02890000000002 103.11191999999994L76.89179999999999 101.62065999999993L77.56219999999996 100.60523999999998L79.18719999999996 100.76346999999998L79.04089999999997 102.38792000000001L79.23019999999997 103.63571999999999L81.64569999999992 103.7226599999999L82.38569999999993 103.99149L83.35239999999999 105.15603999999996L82.9751 105.21345999999994L82.92359999999996 105.59264999999994L84.11579999999992 106.54501999999991L84.2065 107.30477999999994L85.10439999999994 108.62837999999999L84.957 109.41989999999998L86.05769999999995 110.6170699999999L86.20589999999993 110.8625199999999L84.1676 112.24005L83.61410000000001 113.31998999999996L83.51109999999994 114.11204999999995L82.84410000000003 115.07628999999997L83.01159999999993 115.8513999999999L83.73829999999998 116.1578199999999L84.10439999999994 116.02328999999997L84.36849999999993 117.55237L83.49360000000001 118.85438999999997L83.84770000000003 119.54878999999994L83.5122 120.27076L84.31729999999993 121.13630999999998L86.55409999999995 121.95736999999997L87.65879999999993 122.8972L87.98129999999992 123.64058L86.827 128.86901L85.28329999999994 129.30149999999992L83.36259999999993 128.50483999999994L83.78620000000001 129.54054999999994L82.33439999999996 130.15206L81.35439999999994 131.37204999999994L80.6644 131.74956999999995L79.65319999999997 132.45832999999993L78.01639999999998 132.69272999999998L77.4805 134.68025999999998L76.43759999999997 134.5859499999999L74.5181 134.09660999999994L74.75529999999992 132.57822L74.0204 132.82538999999997L73.65750000000003 131.82659999999998L72.976 131.13461999999993L74.56150000000002 129.95579999999995L74.51109999999994 127.99464L75.19089999999994 127.63698999999997L75.31859999999995 126.49581999999998L75.98849999999993 126.12016999999992L74.54309999999998 125.94769999999994L73.7269 125.29302999999993L74.17200000000003 124.42381999999998L73.96259999999995 123.63484999999991z">
      <title id="t93">Deuxième circonscription de la Dordogne</title>
      <desc id="d93">Cantons de : Beaumont, Bergerac I, Bergerac II, Le Buisson-de-Cadouin, Eymet, La Force, Issigeac, Lalinde, Monpazier, Sigoulès, Vélines, Villambard, Villefranche-de-Lonchat</desc>
    </path><path class="circo" id="id-024-03" d="M65.86860000000001 57.155419999999935L66.12959999999998 56.350619999999935L65.0009 55.13671999999997L63.71079999999995 51.576869999999985L61.91269999999997 50.66410999999994L61.96879999999999 50.24441999999999L61.06939999999997 50.283939999999916L60.712099999999964 51.89897999999994L59.47889999999995 51.939930000000004L58.7278 52.9461399999999L59.82060000000001 54.10498999999993L59.39850000000001 55.27184999999997L59.07579999999996 55.53919999999994L57.9923 54.98093999999992L57.67750000000001 55.25687999999991L56.279499999999985 56.79576999999995L55.45659999999998 56.64666L53.91459999999995 57.305959999999914L53.5711 57.059799999999996L53.03430000000003 56.6967699999999L52.83479999999997 57.36848999999995L51.684099999999944 56.78296999999998L49.97109999999998 56.562149999999974L48.84649999999999 57.07150999999999L48.61270000000002 58.71537000000001L47.59809999999993 60.50313999999992L47.18439999999998 60.54440999999997L46.59519999999998 61.61631999999997L45.879999999999995 61.98680999999999L45.47149999999999 61.981379999999945L44.98529999999994 60.85776999999996L44.59659999999997 60.73215999999991L42.312599999999975 61.19693999999993L41.91829999999993 62.275980000000004L42.25299999999993 62.95186000000001L41.87169999999992 62.98273999999992L40.45539999999994 63.25811999999996L39.3963 62.82761999999991L39.347099999999955 62.8128999999999L38.260400000000004 63.20178999999996L37.51749999999993 64.65508999999997L36.50739999999996 65.34906000000001L34.703199999999924 66.37923L32.73569999999995 66.55620999999996L31.778299999999945 65.83474999999999L30.764999999999986 67.53423999999995L30.352899999999977 67.5732999999999L29.76069999999993 66.99394999999993L26.938699999999926 70.4887L26.519199999999955 70.49448999999993L25.949799999999982 69.89333999999997L24.293699999999944 69.93815999999993L23.36239999999998 69.14353999999992L22.53359999999998 69.17486999999994L21.665300000000002 68.27167999999995L21.6721 67.85125999999991L23.186899999999923 66.41081999999994L23.003399999999942 65.59057999999993L21.373699999999985 65.83281999999997L19.9932 66.71618999999998L20.00419999999997 67.45323999999994L18.87149999999997 68.59709999999995L19.57280000000003 69.54061999999999L19.44119999999998 71.99105999999995L19.797199999999975 72.72501L19.07299999999998 73.61905999999999L17.879999999999995 73.37540999999999L17.105299999999943 73.63555999999994L16.251300000000015 72.89592999999991L16.08280000000002 72.12176L14.558899999999994 71.97960999999998L13.292100000000005 74.55984000000001L12.70679999999993 75.14337L10.454200000000014 76.04661999999996L9.678299999999922 77.4562699999999L9.532600000000002 77.28702999999996L9.045200000000023 76.59160999999995L8.7894 74.9109699999999L7.421299999999974 72.78872999999999L6.235500000000002 72.34822999999994L4.121999999999957 72.26871999999992L3.3380999999999403 72.07826999999997L1.3958999999999833 72.63671999999997L0.11169999999992797 74.12318999999991L0 72.87725999999998L1.0117999999999938 71.05040999999994L0.4048999999999978 69.50169999999991L3.7777999999999565 68.11908999999991L3.5633000000000266 67.37029999999993L2.3342999999999847 67.19128999999998L1.9085000000000036 66.55910999999992L3.671299999999974 64.3610799999999L3.8968999999999596 63.366789999999924L4.425899999999956 61.99995999999999L5.66089999999997 61.736839999999916L6.639299999999935 60.987840000000006L8.253399999999942 59.07985999999994L9.175700000000006 59.86961999999994L9.994399999999928 59.91210000000001L11.34949999999992 59.03749999999991L12.032100000000014 59.21128999999996L13.242099999999937 60.593399999999974L13.375800000000027 60.7201L14.776200000000017 61.27222999999992L15.135599999999954 60.63405999999998L15.895399999999995 60.60969L16.126899999999978 59.394379999999956L16.944499999999948 59.1657899999999L18.381899999999973 57.626229999999964L17.995000000000005 56.929899999999975L18.174099999999953 56.11626000000001L18.548299999999927 55.60343999999998L18.392399999999952 54.94216999999992L19.1241 55.113899999999944L20.90459999999996 54.6804699999999L21.429899999999975 53.4005699999999L22.306799999999953 51.464740000000006L23.41459999999995 51.21885999999995L24.51310000000001 51.51125999999999L25.002099999999928 51.563819999999964L26.19119999999998 50.55559999999991L26.53329999999994 48.51839999999993L26.046299999999974 46.10949999999991L26.01940000000002 46.08313999999996L25.37149999999997 43.86763999999994L24.730999999999995 42.595159999999964L25.07319999999993 40.49543999999992L25.87379999999996 38.56781999999998L26.277399999999943 37.22194999999999L26.55250000000001 35.89662999999996L27.16739999999993 34.86707999999999L28.164800000000014 34.20078000000001L29.329399999999964 34.28629999999998L30.38869999999997 33.82768999999996L29.302799999999934 32.670729999999935L29.252099999999928 31.05552L29.945899999999938 31.07114999999999L31.5077 32.885779999999954L31.950399999999945 30.94281000000001L31.976299999999924 30.903789999999958L33.849699999999984 30.166799999999967L34.39589999999998 29.084749999999985L35.609500000000025 28.818179999999984L35.69229999999993 27.996219999999994L38.24000000000001 27.06842999999992L39.47799999999995 28.03828999999996L40.227499999999964 27.818239999999946L40.31459999999993 25.87187999999992L41.44870000000003 24.296299999999974L41.855699999999956 23.80984000000001L41.720699999999965 23.170489999999972L42.441100000000006 22.97113999999999L43.11749999999995 21.26466999999991L43.79570000000001 21.412249999999972L44.60559999999998 21.353509999999915L45.94069999999999 20.49423999999999L46.586599999999976 19.478509999999915L46.53679999999997 18.692699999999945L45.90890000000002 18.210579999999936L47.41750000000002 15.383829999999989L47.06600000000003 14.68026999999995L47.40210000000002 14.024999999999977L47.16149999999993 13.274029999999925L46.15239999999994 12.067900000000009L46.06420000000003 11.556139999999914L46.47460000000001 11.661269999999945L46.74580000000003 11.33299999999997L47.10579999999993 10.110479999999939L48.225799999999936 8.855029999999942L49.04059999999993 8.724330000000009L49.29809999999998 10.441229999999905L50.31809999999996 9.789549999999963L51.51559999999995 9.752359999999953L52.44309999999996 8.95921999999996L51.7278 7.459740000000011L53.42629999999997 6.5068899999999985L53.50350000000003 5.706809999999905L54.56319999999994 5.212949999999978L54.24069999999995 4.588269999999966L54.710899999999924 3.9918799999999237L54.95569999999998 2.4771899999999505L55.29759999999999 2.725559999999973L56.48149999999998 1.540559999999914L57.05830000000003 0L57.7414 1.5322799999999006L58.80529999999999 2.0673099999999067L59.086799999999926 2.8646499999999833L59.80759999999998 3.296999999999912L61.44119999999998 3.3013799999999947L62.52120000000002 2.869519999999966L63.20749999999998 3.2484399999999596L64.13710000000003 2.5208699999999453L64.90480000000002 2.4294799999998986L66.78219999999999 3.2019599999999855L68.1703 5.308319999999981L69.31799999999998 5.689899999999966L69.46019999999999 5.697929999999928L68.48199999999997 10.116069999999922L67.33259999999996 11.883179999999925L68.76339999999993 13.400029999999902L69.59159999999997 14.884719999999902L71.649 14.427479999999946L72.02850000000001 14.544949999999972L72.50819999999999 16.864199999999983L74.93039999999996 16.204399999999964L75.73500000000001 14.752309999999966L76.60529999999994 12.330619999999954L77.42579999999998 11.074489999999969L78.0729 11.52234999999996L78.43470000000002 12.646689999999921L79.49879999999996 13.807770000000005L79.91099999999994 13.885400000000004L80.40570000000002 13.205749999999966L81.6132 13.28532999999993L83.95330000000001 12.408399999999915L85.12540000000001 12.84523999999999L85.9556 12.71875L86.4647 13.387509999999907L87.1241 13.493099999999913L87.64599999999996 13.039769999999976L88.17610000000002 12.389319999999998L90.53620000000001 13.056299999999965L91.76839999999993 15.24037999999996L91.481 16.40393999999992L91.75929999999994 17.64172999999994L92.58989999999994 19.0548399999999L93.7491 19.48323999999991L93.77570000000003 19.411499999999933L94.83839999999998 20.537809999999922L95.72559999999999 22.25744999999995L95.84339999999997 21.85676000000001L97.39949999999999 21.32935999999995L97.85730000000001 20.65262999999993L98.67290000000003 20.495329999999967L99.78239999999994 21.058119999999917L102.58749999999998 22.868859999999927L102.50009999999997 23.283919999999966L101.07179999999994 24.195979999999963L99.96489999999994 25.475289999999973L99.49199999999996 26.65746999999999L98.59849999999994 27.53839999999991L98.69939999999997 28.76446999999996L100.06129999999996 29.567309999999907L102.3392 28.69706999999994L103.43579999999997 29.85505999999998L103.57920000000001 31.07538999999997L104.26699999999994 31.51466999999991L106.56209999999999 30.63364999999999L108.41840000000002 31.526059999999916L108.43979999999999 33.167949999999905L108.71439999999996 33.483769999999936L109.10379999999998 33.63434999999993L110.04959999999994 32.833079999999995L110.80169999999998 32.909169999999904L111.68520000000001 33.67093999999997L113.03480000000002 34.128099999999904L113.11310000000003 36.09317999999996L112.32089999999994 36.35582999999997L111.11159999999995 36.03334999999993L110.52329999999995 36.51857999999993L110.65059999999994 38.15805L110.98109999999997 38.41129999999998L112.15300000000002 38.280919999999924L111.82309999999995 39.051289999999995L112.47479999999996 39.99306999999999L114.00119999999993 38.8774699999999L116.00649999999996 40.23197999999991L115.72140000000002 42.15730999999994L115.38829999999996 42.88684000000001L114.68849999999998 43.27443999999991L113.85050000000001 43.33830999999998L112.76999999999998 43.99041999999997L112.49519999999995 45.19020999999998L111.82949999999994 46.6718699999999L110.6232 47.787289999999985L108.57489999999996 47.6194999999999L108.99709999999993 49.62518L108.79570000000001 49.98120999999992L109.06790000000001 50.125389999999925L108.84199999999998 51.28410999999994L108.25810000000001 51.753150000000005L107.83179999999993 53.685269999999946L107.44189999999992 53.704959999999915L105.99429999999995 52.40614999999991L103.12059999999997 50.299049999999966L102.76159999999993 49.64668999999992L102.3768 49.66432999999995L101.25569999999993 50.576619999999934L100.90480000000002 50.738309999999956L99.8655 49.628799999999956L99.88029999999992 50.02785999999992L98.93349999999998 50.631599999999935L96.39269999999999 48.72786999999994L96.09820000000002 48.984359999999924L96.5335 51.244359999999915L95.88209999999992 51.447349999999915L94.32650000000001 50.9935099999999L92.5874 49.972999999999956L91.71489999999994 50.965599999999995L91.07650000000001 51.3831899999999L89.83699999999999 52.86375999999996L88.5122 53.61001999999996L88.22129999999993 54.4126L89.01189999999997 55.80002999999999L88.97029999999995 56.60150999999996L89.86829999999998 58.831719999999905L90.38670000000002 59.456770000000006L89.65449999999998 60.02733999999998L88.59190000000001 59.47390999999993L87.78959999999995 59.49321999999995L87.52469999999994 57.89312999999993L86.3673 56.745180000000005L85.98109999999997 55.16726999999992L85.44119999999998 55.589200000000005L84.78629999999998 55.583279999999945L84.56889999999999 55.89673999999991L85.60809999999992 57.14865999999995L85.83879999999999 57.94407000000001L85.71159999999998 58.73129999999992L84.82150000000001 59.59241999999995L85.3569 60.65131999999994L85.5154 61.719949999999926L84.88999999999999 62.2500399999999L82.55250000000001 62.768629999999916L82.50329999999997 62.751379999999926L81.20939999999996 63.740569999999934L79.21079999999995 64.15568999999994L78.50329999999997 63.732489999999984L76.98720000000003 64.32538L76.12479999999994 63.90121999999997L76.73429999999996 62.81989999999996L76.58910000000003 62.00996999999995L74.93449999999996 62.93534L73.71299999999997 62.74088999999992L72.95190000000002 61.763259999999946L72.53719999999998 61.73032999999998L72.55009999999993 60.51049999999998L73.1046 59.91462999999999L72.71069999999997 58.75265999999999L71.57209999999998 57.63394999999991L70.77969999999993 57.46808999999996L69.45849999999996 59.05246999999997L67.64249999999993 59.85308999999995L67.20409999999993 57.31380999999999L65.86860000000001 57.155419999999935z">
      <title id="t94">Troisième circonscription de la Dordogne</title>
      <desc id="d94">Cantons de : Brantôme, Bussière-Badil, Champagnac-de-Belair, Champagnac-de-Belair, Excideuil, Jumilhac-le-Grand, Lanouaille, Mareuil, Montagrier, Nontron, Ribérac, Saint-Aulaye, Saint-Pardoux-la-Rivière, Savignac-les-Eglises, Thiviers, Verteillac</desc>
    </path><path class="circo" id="id-024-04" d="M84.31729999999993 121.13630999999998L83.5122 120.27076L83.84770000000003 119.54878999999994L83.49360000000001 118.85438999999997L84.36849999999993 117.55237L84.10439999999994 116.02328999999997L83.73829999999998 116.1578199999999L83.01159999999993 115.8513999999999L82.84410000000003 115.07628999999997L83.51109999999994 114.11204999999995L83.61410000000001 113.31998999999996L84.1676 112.24005L86.20589999999993 110.8625199999999L86.05769999999995 110.6170699999999L84.957 109.41989999999998L85.10439999999994 108.62837999999999L84.2065 107.30477999999994L84.11579999999992 106.54501999999991L82.92359999999996 105.59264999999994L82.9751 105.21345999999994L83.35239999999999 105.15603999999996L82.38569999999993 103.99149L81.64569999999992 103.7226599999999L79.23019999999997 103.63571999999999L79.04089999999997 102.38792000000001L79.18719999999996 100.76346999999998L77.56219999999996 100.60523999999998L76.89179999999999 101.62065999999993L77.02890000000002 103.11191999999994L76.07309999999995 104.26438999999993L74.3012 104.13477999999998L73.49569999999994 103.17955999999992L73.42219999999998 100.62131L72.73839999999996 100.19074L71.91949999999997 100.37345999999991L71.04319999999996 98.99212L69.97500000000002 98.65564999999992L69.9108 97.13342L67.02859999999998 97.2812899999999L66.99059999999997 96.5904099999999L65.97860000000003 96.46916999999996L65.32399999999996 96.22753L65.22539999999992 94.25569999999993L64.88729999999998 94.0437599999999L64.08679999999993 93.46231L63.414800000000014 93.67234999999994L63.06970000000001 93.4811699999999L62.5462 92.01664999999991L61.07389999999998 91.8543699999999L59.95769999999993 92.10480999999993L59.912199999999984 90.96364999999992L58.876300000000015 90.32679999999993L59.20010000000002 88.73037999999997L59.72770000000003 88.14848999999992L59.627899999999954 87.36124999999993L59.91520000000003 87.08202999999992L59.2287 86.78188L58.224399999999946 85.16048L57.054700000000025 85.10253L57.29520000000002 84.37387000000001L56.176199999999994 83.31247999999994L56.14659999999992 82.90163999999993L54.68279999999993 82.80854999999997L53.066799999999944 80.91082999999992L52.65779999999995 79.44061999999997L53.45259999999996 79.39344999999992L54.407100000000014 78.73446999999999L55.978200000000015 78.5955899999999L56.23879999999997 77.88187999999991L55.57339999999999 76.02614999999992L56.408500000000004 74.24806999999998L57.191599999999994 74.43917999999996L58.371099999999956 74.03936999999996L59.76139999999998 73.37516999999991L60.20259999999996 72.75222999999994L60.96320000000003 72.69067999999993L61.16949999999997 71.5029199999999L61.68179999999995 70.89956999999993L61.19859999999994 70.28217999999993L61.16120000000001 69.08267999999998L63.95569999999998 69.33840999999995L64.41989999999998 68.66278999999997L64.21609999999998 66.62626L64.7776 65.52715999999998L65.34539999999993 65.01540999999997L65.71019999999999 65.12875999999994L66.74339999999995 64.8013699999999L66.40530000000001 63.87793999999997L67.41790000000003 64.49746999999991L69.22209999999995 63.55097000000001L71.24839999999995 63.405869999999936L71.61759999999992 63.24894999999992L71.84410000000003 62.087549999999965L72.53719999999998 61.73032999999998L72.95190000000002 61.763259999999946L73.71299999999997 62.74088999999992L74.93449999999996 62.93534L76.58910000000003 62.00996999999995L76.73429999999996 62.81989999999996L76.12479999999994 63.90121999999997L76.98720000000003 64.32538L78.50329999999997 63.732489999999984L79.21079999999995 64.15568999999994L81.20939999999996 63.740569999999934L82.50329999999997 62.751379999999926L82.55250000000001 62.768629999999916L84.88999999999999 62.2500399999999L85.5154 61.719949999999926L85.3569 60.65131999999994L84.82150000000001 59.59241999999995L85.71159999999998 58.73129999999992L85.83879999999999 57.94407000000001L85.60809999999992 57.14865999999995L84.56889999999999 55.89673999999991L84.78629999999998 55.583279999999945L85.44119999999998 55.589200000000005L85.98109999999997 55.16726999999992L86.3673 56.745180000000005L87.52469999999994 57.89312999999993L87.78959999999995 59.49321999999995L88.59190000000001 59.47390999999993L89.65449999999998 60.02733999999998L90.38670000000002 59.456770000000006L89.86829999999998 58.831719999999905L88.97029999999995 56.60150999999996L89.01189999999997 55.80002999999999L88.22129999999993 54.4126L88.5122 53.61001999999996L89.83699999999999 52.86375999999996L91.07650000000001 51.3831899999999L91.71489999999994 50.965599999999995L92.5874 49.972999999999956L94.32650000000001 50.9935099999999L95.88209999999992 51.447349999999915L96.5335 51.244359999999915L96.09820000000002 48.984359999999924L96.39269999999999 48.72786999999994L98.93349999999998 50.631599999999935L99.88029999999992 50.02785999999992L99.8655 49.628799999999956L100.90480000000002 50.738309999999956L101.25569999999993 50.576619999999934L102.3768 49.66432999999995L102.76159999999993 49.64668999999992L103.12059999999997 50.299049999999966L105.99429999999995 52.40614999999991L107.44189999999992 53.704959999999915L107.83179999999993 53.685269999999946L109.0924 54.35426999999993L108.87939999999992 55.06173000000001L110.41049999999996 55.721540000000005L112.01599999999996 55.6350799999999L112.13519999999994 57.27879999999993L110.36130000000003 59.00068999999996L108.38839999999993 59.67954999999995L108.18999999999994 60.60015999999996L107.94359999999995 61.831429999999955L108.37540000000001 62.54751999999996L111.66430000000003 62.21915999999999L113.14729999999997 63.69895999999994L113.30079999999998 64.0888799999999L112.46140000000003 65.46578999999997L111.3306 66.56886999999995L110.21140000000003 66.60551999999996L110.15879999999993 67.3612599999999L112.3492 68.47465L113.22199999999998 69.36515999999995L114.77589999999998 69.95129999999995L115.8166 69.29634999999996L116.89959999999996 69.86478L118.45049999999992 69.39371999999992L118.45119999999997 70.31074000000001L119.67419999999993 70.51195999999993L120.87720000000002 70.10843L122.39509999999996 70.82714999999996L122.6839 70.98618999999997L123.64509999999996 71.40942999999993L123.68169999999998 72.21258999999998L123.29009999999994 72.9029099999999L121.89009999999996 73.70251999999994L120.68319999999994 73.67626999999993L120.83679999999993 74.31417999999996L121.11130000000003 74.04815999999994L121.95960000000002 74.72926999999993L121.82669999999996 75.90418999999997L122.63589999999999 77.2894399999999L123.04229999999995 77.99549999999999L122.495 79.08285999999998L123.303 79.29730999999992L123.51589999999999 80.11338L125.47659999999996 82.82261999999992L126.6345 84.11989999999992L125.3519 85.14364999999998L123.30809999999997 85.63297999999998L123.80599999999993 87.21533L123.74429999999995 89.57705999999996L124.19539999999995 90.23992999999996L124.1463 91.45472999999993L124.96410000000003 92.89319L125.37639999999999 92.92500999999993L125.57330000000002 93.67162999999994L125.34559999999999 93.98539999999991L126.06489999999997 96.19835999999998L124.54059999999993 96.26005999999995L123.42679999999996 97.39794999999992L124.08499999999992 97.55877999999996L124.38819999999998 98.88292999999999L125.91999999999996 99.77838999999994L126.1173 101.05040999999994L125.59809999999993 101.69371000000001L123.95819999999992 101.94354999999996L123.505 101.72692999999992L123.32190000000003 102.68439000000001L123.00619999999992 102.88406999999995L122.77530000000002 104.35299999999995L122.74519999999995 104.56413999999995L121.56240000000003 104.45107999999993L120.69100000000003 105.24750999999992L119.596 105.05318L119.17319999999995 106.19860999999992L119.48069999999996 109.05649999999991L118.83879999999999 109.2144199999999L117.36119999999994 109.77094L116.19999999999993 109.72217999999998L114.1309 110.71267L113.4633 111.65797999999995L114.25450000000001 111.76481999999999L114.35540000000003 112.15634L113.78989999999999 113.20060000000001L114.72320000000002 113.92777999999998L115.86239999999998 115.10118999999997L115.39620000000002 117.5814499999999L114.048 117.11363999999992L113.90609999999992 119.01112999999998L112.92859999999996 120.68165999999997L111.48519999999996 119.76951999999994L110.76279999999997 121.19443999999999L109.32589999999993 121.8435199999999L109.18099999999993 123.05288999999993L108.08179999999993 123.46935999999994L107.63170000000002 124.12014999999997L107.61839999999995 124.29278L103.87919999999997 124.48155999999994L102.72429999999997 124.9712199999999L102.22169999999994 125.6438599999999L101.00379999999996 125.90287999999998L101.26659999999993 127.78755999999998L100.98529999999994 128.0481699999999L101.54629999999997 129.62190999999996L101.35739999999998 130.43635999999992L99.351 132.3573L97.65999999999997 133.88695999999993L96.70429999999999 135.18066L97.3261 136.63164999999992L96.98919999999998 136.74191999999994L97.30419999999992 137.7326099999999L96.13229999999999 137.84799999999996L95.01760000000002 137.45076999999992L94.91829999999993 137.06628L95.15710000000001 135.87725L94.57740000000001 134.81002L93.37109999999996 134.63549L92.50979999999993 133.76983999999993L91.37029999999993 133.36068L89.59379999999999 132.46979L88.18459999999993 130.44053999999994L86.60119999999995 129.22551999999996L85.69669999999996 130.03751L83.78620000000001 129.54054999999994L83.36259999999993 128.50483999999994L85.28329999999994 129.30149999999992L86.827 128.86901L87.98129999999992 123.64058L87.65879999999993 122.8972L86.55409999999995 121.95736999999997L84.31729999999993 121.13630999999998z">
      <title id="t95">Quatrième circonscription de la Dordogne</title>
      <desc id="d95">Cantons de : Belvès, Le Bugue, Carlux, Domme, Hautefort, Montignac, Saint-Cyprien, Sainte-Alvère, Saint-Pierre-de-Chignac, Salignac-Eyvignes, Sarlat-la-Canéda, Terrasson-la-Villedieu, Thenon, Vergt, Villefranche-du-Périgord</desc>
    </path></svg>