<svg xmlns="http://www.w3.org/2000/svg" version="1.1" xmlns:xlink="http://www.w3.org/1999/xlink" xmlns:svgjs="http://svgjs.dev/svgjs" viewBox="653.31983 841.31703 126.6345 137.84799999999996"><path class="circo" id="id-024-01" d="M 672.76103,913.30809 672.89263,910.85765 672.19133,909.91413 673.32403,908.77027 673.31303,908.03322 674.69353,907.14985 676.32323,906.90761 676.50673,907.72785 674.99193,909.16829 674.98513,909.58871 675.85343,910.4919 676.68223,910.46057 677.61353,911.25519 679.26963,911.21037 679.83903,911.81152 680.25853,911.80573 683.08053,908.31098 683.67273,908.89033 684.08483,908.85127 685.09813,907.15178 686.05553,907.87324 688.02303,907.69626 689.82723,906.66609 690.83733,905.97212 691.58023,904.51882 692.66693,904.12993 692.71613,904.14465 693.77523,904.57515 695.19153,904.29977 695.57283,904.26889 695.23813,903.59301 695.63243,902.51397 697.91643,902.04919 698.30513,902.1748 698.79133,903.29841 699.19983,903.30384 699.91503,902.93335 700.50423,901.86144 700.91793,901.82017 701.93253,900.0324 702.16633,898.38854 703.29093,897.87918 705.00393,898.1 706.15463,898.68552 706.35413,898.0138 706.89093,898.37683 707.23443,898.62299 708.77643,897.96369 709.59933,898.1128 710.99733,896.57391 711.31213,896.29797 712.39563,896.85623 712.71833,896.58888 713.14043,895.42202 712.04763,894.26317 712.79873,893.25696 714.03193,893.21601 714.38923,891.60097 715.28863,891.56145 715.23253,891.98114 717.03063,892.8939 718.32073,896.45375 719.44943,897.66765 719.18843,898.47245 720.52393,898.63084 720.96233,901.17012 722.77833,900.3695 724.09953,898.78512 724.89193,898.95098 726.03053,900.06969 726.42443,901.23166 725.86993,901.82753 725.85703,903.04736 725.16393,903.40458 724.93743,904.56598 724.56823,904.7229 722.54193,904.868 720.73773,905.8145 719.72513,905.19497 720.06323,906.1184 719.03003,906.44579 718.66523,906.33244 718.09743,906.84419 717.53593,907.94329 717.73973,909.97982 717.27553,910.65544 714.48103,910.39971 714.51843,911.59921 715.00163,912.2166 714.48933,912.81995 714.28303,914.00771 713.52243,914.06926 713.08123,914.6922 711.69093,915.3564 710.51143,915.75621 709.72833,915.5651 708.89323,917.34318 709.55863,919.19891 709.29803,919.91262 707.72693,920.0515 706.77243,920.71048 705.97763,920.75765 706.38663,922.22786 703.97433,922.67082 702.05893,921.20035 701.70903,921.54953 701.52843,921.19746 700.17113,921.76814 699.80673,921.61823 699.80823,921.22249 698.98583,921.34943 697.65563,922.39123 697.11363,923.54643 696.00013,923.20962 695.26013,923.50553 694.46743,922.6014 694.07953,922.73 692.60873,924.66342 691.86753,926.43302 691.64493,927.28183 690.76973,928.07644 690.04653,927.71485 688.55313,925.38161 687.49623,925.64448 687.66293,927.70114 686.86323,929.60889 686.47673,929.47465 685.51213,927.71088 683.13963,927.4547 683.04193,929.9443 681.81153,931.6091 681.78033,932.43276 681.60683,932.5935 680.44053,932.26794 679.66713,932.48959 679.40153,932.76179 677.97793,932.32981 676.84973,932.45487 676.43583,931.63169 674.14133,931.78547 672.98033,930.74329 671.77413,930.50285 669.39353,931.0921 669.00533,931.18738 668.25693,930.27273 666.25083,928.93634 665.04213,928.96674 663.94433,929.45999 663.75353,928.70364 662.75263,928.13978 662.95563,925.86297 662.59793,925.71266 661.61403,926.31495 660.58763,925.7782 660.30743,925.09745 660.65723,923.4739 661.60273,922.69933 663.07893,919.32337 662.99813,918.7733 663.77403,917.36365 666.02663,916.4604 666.61193,915.87687 667.87873,913.29664 669.40263,913.43879 669.57113,914.21296 670.42513,914.95259 671.19983,914.69244 672.39283,914.93609 673.11703,914.04204 672.76103,913.30809 z">
      <title id="t92">Première circonscription de la Dordogne</title>
      <desc id="d92">Cantons de : Montpon-Ménestérol, Mussidan, Neuvic, Périgueux Centre, Périgueux Nord-Est, Périgueux Ouest, Saint-Astier</desc>
    </path><path class="circo" id="id-024-02" d="M 727.28243,964.95188 726.36683,964.12754 724.80433,963.63473 723.86543,964.29866 723.74633,965.49086 723.03173,965.60683 721.71733,964.93334 721.45483,966.08335 720.27163,965.91037 718.82673,966.59894 716.01513,966.47725 715.10173,966.65046 712.73203,966.37612 712.57863,964.92701 711.93863,963.46838 710.43063,962.94276 709.69633,963.79976 709.85163,964.53924 709.55163,964.76918 708.57803,964.2354 707.11833,964.09465 706.78663,963.88407 705.84973,964.55801 705.05943,967.13433 704.65853,967.04026 703.30733,967.89496 702.90173,967.82481 702.27433,966.76462 701.19083,966.28933 700.35573,966.38676 698.97793,967.33812 698.33343,967.68485 696.84473,967.36549 695.26873,969.03755 692.29063,970.27756 690.07383,969.17114 688.86043,969.23089 688.00743,968.35412 687.06933,969.11223 686.56523,968.4091 686.64303,966.72577 687.41043,964.7669 685.87513,963.4453 686.04553,962.63586 686.41843,962.48527 686.17613,960.92672 685.46563,959.47311 682.94503,956.77736 682.12193,956.27493 680.66843,954.82585 680.14133,953.72116 680.16903,952.27646 679.45713,950.2506 679.26533,948.59364 680.81573,948.90165 681.62753,948.13077 682.41323,948.26141 682.42893,947.1444 683.62913,946.32141 681.33323,944.18683 680.25663,943.65794 678.64713,943.66633 677.16613,943.1314 677.56803,944.62238 677.39813,944.93944 675.72673,946.42943 674.67643,946.80143 673.24083,949.26692 672.49553,948.94599 672.33553,948.77245 669.49933,948.27328 667.40993,948.40548 666.60713,949.37957 666.54113,949.42954 666.13803,949.35153 665.80873,947.81842 664.98783,947.82609 663.87543,948.04327 663.28303,949.42678 662.87453,949.46573 661.97613,948.68413 661.17063,948.84376 660.91303,948.83406 660.18943,948.44766 660.16653,947.25744 658.73963,945.83693 657.60353,946.25595 653.94063,945.51368 654.08113,945.13334 655.99553,944.593 656.44003,943.53764 656.95213,942.64274 656.94153,942.61611 657.24123,941.91303 657.90493,941.54509 658.20423,940.45278 658.30973,940.39578 659.73073,937.97393 658.72363,936.73148 658.39663,936.40528 657.28443,934.21875 657.63313,932.2325 658.08303,931.11565 658.01363,930.30626 658.35393,930.08659 659.05623,930.54286 659.46243,930.43868 660.25773,928.53428 659.87813,926.03456 660.17563,924.83588 660.30743,925.09745 660.58763,925.7782 661.61403,926.31495 662.59793,925.71266 662.95563,925.86297 662.75263,928.13978 663.75353,928.70364 663.94433,929.45999 665.04213,928.96674 666.25083,928.93634 668.25693,930.27273 669.00533,931.18738 669.39353,931.0921 671.77413,930.50285 672.98033,930.74329 674.14133,931.78547 676.43583,931.63169 676.84973,932.45487 677.97793,932.32981 679.40153,932.76179 679.66713,932.48959 680.44053,932.26794 681.60683,932.5935 681.78033,932.43276 681.81153,931.6091 683.04193,929.9443 683.13963,927.4547 685.51213,927.71088 686.47673,929.47465 686.86323,929.60889 687.66293,927.70114 687.49623,925.64448 688.55313,925.38161 690.04653,927.71485 690.76973,928.07644 691.64493,927.28183 691.86753,926.43302 692.60873,924.66342 694.07953,922.73 694.46743,922.6014 695.26013,923.50553 696.00013,923.20962 697.11363,923.54643 697.65563,922.39123 698.98583,921.34943 699.80823,921.22249 699.80673,921.61823 700.17113,921.76814 701.52843,921.19746 701.70903,921.54953 702.05893,921.20035 703.97433,922.67082 706.38663,922.22786 708.00263,924.12558 709.46643,924.21867 709.49603,924.62951 710.61503,925.6909 710.37453,926.41956 711.54423,926.47751 712.54853,928.09891 713.23503,928.39906 712.94773,928.67828 713.04753,929.46552 712.51993,930.04741 712.19613,931.64383 713.23203,932.28068 713.27753,933.42184 714.39373,933.1714 715.86603,933.33368 716.38953,934.7982 716.73463,934.98938 717.40663,934.77934 718.20713,935.36079 718.54523,935.57273 718.64383,937.54456 719.29843,937.7862 720.31043,937.90744 720.34843,938.59832 723.23063,938.45045 723.29483,939.97268 724.36303,940.30915 725.23933,941.69049 726.05823,941.50777 726.74203,941.93834 726.81553,944.49659 727.62103,945.45181 729.39293,945.58142 730.34873,944.42895 730.21163,942.93769 730.88203,941.92227 732.50703,942.0805 732.36073,943.70495 732.55003,944.95275 734.96553,945.03969 735.70553,945.30852 736.67223,946.47307 736.29493,946.53049 736.24343,946.90968 737.43563,947.86205 737.52633,948.62181 738.42423,949.94541 738.27683,950.73693 739.37753,951.9341 739.52573,952.17955 737.48743,953.55708 736.93393,954.63702 736.83093,955.42908 736.16393,956.39332 736.33143,957.16843 737.05813,957.47485 737.42423,957.34032 737.68833,958.8694 736.81343,960.17142 737.16753,960.86582 736.83203,961.58779 737.63713,962.45334 739.87393,963.2744 740.97863,964.21423 741.30113,964.95761 740.14683,970.18604 738.60313,970.61853 736.68243,969.82187 737.10603,970.85758 735.65423,971.46909 734.67423,972.68908 733.98423,973.0666 732.97303,973.77536 731.33623,974.00976 730.80033,975.99729 729.75743,975.90298 727.83793,975.41364 728.07513,973.89525 727.34023,974.14242 726.97733,973.14363 726.29583,972.45165 727.88133,971.27283 727.83093,969.31167 728.51073,968.95402 728.63843,967.81285 729.30833,967.4372 727.86293,967.26473 727.04673,966.61006 727.49183,965.74085 727.28243,964.95188 z">
      <title id="t93">Deuxième circonscription de la Dordogne</title>
      <desc id="d93">Cantons de : Beaumont, Bergerac I, Bergerac II, Le Buisson-de-Cadouin, Eymet, La Force, Issigeac, Lalinde, Monpazier, Sigoulès, Vélines, Villambard, Villefranche-de-Lonchat</desc>
    </path><path class="circo" id="id-024-03" d="M 719.18843,898.47245 719.44943,897.66765 718.32073,896.45375 717.03063,892.8939 715.23253,891.98114 715.28863,891.56145 714.38923,891.60097 714.03193,893.21601 712.79873,893.25696 712.04763,894.26317 713.14043,895.42202 712.71833,896.58888 712.39563,896.85623 711.31213,896.29797 710.99733,896.57391 709.59933,898.1128 708.77643,897.96369 707.23443,898.62299 706.89093,898.37683 706.35413,898.0138 706.15463,898.68552 705.00393,898.1 703.29093,897.87918 702.16633,898.38854 701.93253,900.0324 700.91793,901.82017 700.50423,901.86144 699.91503,902.93335 699.19983,903.30384 698.79133,903.29841 698.30513,902.1748 697.91643,902.04919 695.63243,902.51397 695.23813,903.59301 695.57283,904.26889 695.19153,904.29977 693.77523,904.57515 692.71613,904.14465 692.66693,904.12993 691.58023,904.51882 690.83733,905.97212 689.82723,906.66609 688.02303,907.69626 686.05553,907.87324 685.09813,907.15178 684.08483,908.85127 683.67273,908.89033 683.08053,908.31098 680.25853,911.80573 679.83903,911.81152 679.26963,911.21037 677.61353,911.25519 676.68223,910.46057 675.85343,910.4919 674.98513,909.58871 674.99193,909.16829 676.50673,907.72785 676.32323,906.90761 674.69353,907.14985 673.31303,908.03322 673.32403,908.77027 672.19133,909.91413 672.89263,910.85765 672.76103,913.30809 673.11703,914.04204 672.39283,914.93609 671.19983,914.69244 670.42513,914.95259 669.57113,914.21296 669.40263,913.43879 667.87873,913.29664 666.61193,915.87687 666.02663,916.4604 663.77403,917.36365 662.99813,918.7733 662.85243,918.60406 662.36503,917.90864 662.10923,916.228 660.74113,914.10576 659.55533,913.66526 657.44183,913.58575 656.65793,913.3953 654.71573,913.95375 653.43153,915.44022 653.31983,914.19429 654.33163,912.36744 653.72473,910.81873 657.09763,909.43612 656.88313,908.68733 655.65413,908.50832 655.22833,907.87614 656.99113,905.67811 657.21673,904.68382 657.74573,903.31699 658.98073,903.05387 659.95913,902.30487 661.57323,900.39689 662.49553,901.18665 663.31423,901.22913 664.66933,900.35453 665.35193,900.52832 666.56193,901.91043 666.69563,902.03713 668.09603,902.58926 668.45543,901.95109 669.21523,901.92672 669.44673,900.71141 670.26433,900.48282 671.70173,898.94326 671.31483,898.24693 671.49393,897.43329 671.86813,896.92047 671.71223,896.2592 672.44393,896.43093 674.22443,895.9975 674.74973,894.7176 675.62663,892.78177 676.73443,892.53589 677.83293,892.82829 678.32193,892.88085 679.51103,891.87263 679.85313,889.83543 679.36613,887.42653 679.33923,887.40017 678.69133,885.18467 678.05083,883.91219 678.39303,881.81247 679.19363,879.88485 679.59723,878.53898 679.87233,877.21366 680.48723,876.18411 681.48463,875.51781 682.64923,875.60333 683.70853,875.14472 682.62263,873.98776 682.57193,872.37255 683.26573,872.38818 684.82753,874.20281 685.27023,872.25984 685.29613,872.22082 687.16953,871.48383 687.71573,870.40178 688.92933,870.13521 689.01213,869.31325 691.55983,868.38546 692.79783,869.35532 693.54733,869.13527 693.63443,867.18891 694.76853,865.61333 695.17553,865.12687 695.04053,864.48752 695.76093,864.28817 696.43733,862.5817 697.11553,862.72928 697.92543,862.67054 699.26053,861.81127 699.90643,860.79554 699.85663,860.00973 699.22873,859.52761 700.73733,856.70086 700.38583,855.9973 700.72193,855.34203 700.48133,854.59106 699.47223,853.38493 699.38403,852.87317 699.79443,852.9783 700.06563,852.65003 700.42563,851.42751 701.54563,850.17206 702.36043,850.04136 702.61793,851.75826 703.63793,851.10658 704.83543,851.06939 705.76293,850.27625 705.04763,848.77677 706.74613,847.82392 706.82333,847.02384 707.88303,846.52998 707.56053,845.9053 708.03073,845.30891 708.27553,843.79422 708.61743,844.04259 709.80133,842.85759 710.37813,841.31703 711.06123,842.84931 712.12513,843.38434 712.40663,844.18168 713.12743,844.61403 714.76103,844.61841 715.84103,844.18655 716.52733,844.56547 717.45693,843.8379 718.22463,843.74651 720.10203,844.51899 721.49013,846.62535 722.63783,847.00693 722.78003,847.01496 721.80183,851.4331 720.65243,853.20021 722.08323,854.71706 722.91143,856.20175 724.96883,855.74451 725.34833,855.86198 725.82803,858.18123 728.25023,857.52143 729.05483,856.06934 729.92513,853.64765 730.74563,852.39152 731.39273,852.83938 731.75453,853.96372 732.81863,855.1248 733.23083,855.20243 733.72553,854.52278 734.93303,854.60236 737.27313,853.72543 738.44523,854.16227 739.27543,854.03578 739.78453,854.70454 740.44393,854.81013 740.96583,854.3568 741.49593,853.70635 743.85603,854.37333 745.08823,856.55741 744.80083,857.72097 745.07913,858.95876 745.90973,860.37187 747.06893,860.80027 747.09553,860.72853 748.15823,861.85484 749.04543,863.57448 749.16323,863.17379 750.71933,862.64639 751.17713,861.96966 751.99273,861.81236 753.10223,862.37515 755.90733,864.18589 755.81993,864.60095 754.39163,865.51301 753.28473,866.79232 752.81183,867.9745 751.91833,868.85543 752.01923,870.0815 753.38113,870.88434 755.65903,870.0141 756.75563,871.17209 756.89903,872.39242 757.58683,872.8317 759.88193,871.95068 761.73823,872.84309 761.75963,874.48498 762.03423,874.8008 762.42363,874.95138 763.36943,874.15011 764.12153,874.2262 765.00503,874.98797 766.35463,875.44513 766.43293,877.41021 765.64073,877.67286 764.43143,877.35038 763.84313,877.83561 763.97043,879.47508 764.30093,879.72833 765.47283,879.59795 765.14293,880.36832 765.79463,881.3101 767.32103,880.1945 769.32633,881.54901 769.04123,883.47434 768.70813,884.20387 768.00833,884.59147 767.17033,884.65534 766.08983,885.30745 765.81503,886.50724 765.14933,887.9889 763.94303,889.10432 761.89473,888.93653 762.31693,890.94221 762.11553,891.29824 762.38773,891.44242 762.16183,892.60114 761.57793,893.07018 761.15163,895.0023 760.76173,895.02199 759.31413,893.72318 756.44043,891.61608 756.08143,890.96372 755.69663,890.98136 754.57553,891.89365 754.22463,892.05534 753.18533,890.94583 753.20013,891.34489 752.25333,891.94863 749.71253,890.0449 749.41803,890.30139 749.85333,892.56139 749.20193,892.76438 747.64633,892.31054 745.90723,891.29003 745.03473,892.28263 744.39633,892.70022 743.15683,894.18079 741.83203,894.92705 741.54113,895.72963 742.33173,897.11706 742.29013,897.91854 743.18813,900.14875 743.70653,900.7738 742.97433,901.34437 741.91173,900.79094 741.10943,900.81025 740.84453,899.21016 739.68713,898.06221 739.30093,896.4843 738.76103,896.90623 738.10613,896.90031 737.88873,897.21377 738.92793,898.46569 739.15863,899.2611 739.03143,900.04833 738.14133,900.90945 738.67673,901.96835 738.83523,903.03698 738.20983,903.56707 735.87233,904.08566 735.82313,904.06841 734.52923,905.0576 732.53063,905.47272 731.82313,905.04952 730.30703,905.64241 729.44463,905.21825 730.05413,904.13693 729.90893,903.327 728.25433,904.25237 727.03283,904.05792 726.27173,903.08029 725.85703,903.04736 725.86993,901.82753 726.42443,901.23166 726.03053,900.06969 724.89193,898.95098 724.09953,898.78512 722.77833,900.3695 720.96233,901.17012 720.52393,898.63084 719.18843,898.47245 z">
      <title id="t94">Troisième circonscription de la Dordogne</title>
      <desc id="d94">Cantons de : Brantôme, Bussière-Badil, Champagnac-de-Belair, Champagnac-de-Belair, Excideuil, Jumilhac-le-Grand, Lanouaille, Mareuil, Montagrier, Nontron, Ribérac, Saint-Aulaye, Saint-Pardoux-la-Rivière, Savignac-les-Eglises, Thiviers, Verteillac</desc>
    </path><path class="circo" id="id-024-04" d="M 737.63713,962.45334 736.83203,961.58779 737.16753,960.86582 736.81343,960.17142 737.68833,958.8694 737.42423,957.34032 737.05813,957.47485 736.33143,957.16843 736.16393,956.39332 736.83093,955.42908 736.93393,954.63702 737.48743,953.55708 739.52573,952.17955 739.37753,951.9341 738.27683,950.73693 738.42423,949.94541 737.52633,948.62181 737.43563,947.86205 736.24343,946.90968 736.29493,946.53049 736.67223,946.47307 735.70553,945.30852 734.96553,945.03969 732.55003,944.95275 732.36073,943.70495 732.50703,942.0805 730.88203,941.92227 730.21163,942.93769 730.34873,944.42895 729.39293,945.58142 727.62103,945.45181 726.81553,944.49659 726.74203,941.93834 726.05823,941.50777 725.23933,941.69049 724.36303,940.30915 723.29483,939.97268 723.23063,938.45045 720.34843,938.59832 720.31043,937.90744 719.29843,937.7862 718.64383,937.54456 718.54523,935.57273 718.20713,935.36079 717.40663,934.77934 716.73463,934.98938 716.38953,934.7982 715.86603,933.33368 714.39373,933.1714 713.27753,933.42184 713.23203,932.28068 712.19613,931.64383 712.51993,930.04741 713.04753,929.46552 712.94773,928.67828 713.23503,928.39906 712.54853,928.09891 711.54423,926.47751 710.37453,926.41956 710.61503,925.6909 709.49603,924.62951 709.46643,924.21867 708.00263,924.12558 706.38663,922.22786 705.97763,920.75765 706.77243,920.71048 707.72693,920.0515 709.29803,919.91262 709.55863,919.19891 708.89323,917.34318 709.72833,915.5651 710.51143,915.75621 711.69093,915.3564 713.08123,914.6922 713.52243,914.06926 714.28303,914.00771 714.48933,912.81995 715.00163,912.2166 714.51843,911.59921 714.48103,910.39971 717.27553,910.65544 717.73973,909.97982 717.53593,907.94329 718.09743,906.84419 718.66523,906.33244 719.03003,906.44579 720.06323,906.1184 719.72513,905.19497 720.73773,905.8145 722.54193,904.868 724.56823,904.7229 724.93743,904.56598 725.16393,903.40458 725.85703,903.04736 726.27173,903.08029 727.03283,904.05792 728.25433,904.25237 729.90893,903.327 730.05413,904.13693 729.44463,905.21825 730.30703,905.64241 731.82313,905.04952 732.53063,905.47272 734.52923,905.0576 735.82313,904.06841 735.87233,904.08566 738.20983,903.56707 738.83523,903.03698 738.67673,901.96835 738.14133,900.90945 739.03143,900.04833 739.15863,899.2611 738.92793,898.46569 737.88873,897.21377 738.10613,896.90031 738.76103,896.90623 739.30093,896.4843 739.68713,898.06221 740.84453,899.21016 741.10943,900.81025 741.91173,900.79094 742.97433,901.34437 743.70653,900.7738 743.18813,900.14875 742.29013,897.91854 742.33173,897.11706 741.54113,895.72963 741.83203,894.92705 743.15683,894.18079 744.39633,892.70022 745.03473,892.28263 745.90723,891.29003 747.64633,892.31054 749.20193,892.76438 749.85333,892.56139 749.41803,890.30139 749.71253,890.0449 752.25333,891.94863 753.20013,891.34489 753.18533,890.94583 754.22463,892.05534 754.57553,891.89365 755.69663,890.98136 756.08143,890.96372 756.44043,891.61608 759.31413,893.72318 760.76173,895.02199 761.15163,895.0023 762.41223,895.6713 762.19923,896.37876 763.73033,897.03857 765.33583,896.95211 765.45503,898.59583 763.68113,900.31772 761.70823,900.99658 761.50983,901.91719 761.26343,903.14846 761.69523,903.86455 764.98413,903.53619 766.46713,905.01599 766.62063,905.40591 765.78123,906.78282 764.65043,907.8859 763.53123,907.92255 763.47863,908.67829 765.66903,909.79168 766.54183,910.68219 768.09573,911.26833 769.13643,910.61338 770.21943,911.18181 771.77033,910.71075 771.77103,911.62777 772.99403,911.82899 774.19703,911.42546 775.71493,912.14418 776.00373,912.30322 776.96493,912.72646 777.00153,913.52962 776.60993,914.21994 775.20993,915.01955 774.00303,914.9933 774.15663,915.63121 774.43113,915.36519 775.27943,916.0463 775.14653,917.22122 775.95573,918.60647 776.36213,919.31253 775.81483,920.39989 776.62283,920.61434 776.83573,921.43041 778.79643,924.13965 779.95433,925.43693 778.67173,926.46068 776.62793,926.95001 777.12583,928.53236 777.06413,930.89409 777.51523,931.55696 777.46613,932.77176 778.28393,934.21022 778.69623,934.24204 778.89313,934.98866 778.66543,935.30243 779.38473,937.51539 777.86043,937.57709 776.74663,938.71498 777.40483,938.87581 777.70803,940.19996 779.23983,941.09542 779.43713,942.36744 778.91793,943.01074 777.27803,943.26058 776.82483,943.04396 776.64173,944.00142 776.32603,944.2011 776.09513,945.67003 776.06503,945.88117 774.88223,945.76811 774.01083,946.56454 772.91583,946.37021 772.49303,947.51564 772.80053,950.37353 772.15863,950.53145 770.68103,951.08797 769.51983,951.03921 767.45073,952.0297 766.78313,952.97501 767.57433,953.08185 767.67523,953.47337 767.10973,954.51763 768.04303,955.24481 769.18223,956.41822 768.71603,958.89848 767.36783,958.43067 767.22593,960.32816 766.24843,961.99869 764.80503,961.08655 764.08263,962.51147 762.64573,963.16055 762.50083,964.36992 761.40163,964.78639 760.95153,965.43718 760.93823,965.60981 757.19903,965.79859 756.04413,966.28825 755.54153,966.96089 754.32363,967.21991 754.58643,969.10459 754.30513,969.3652 754.86613,970.93894 754.67723,971.75339 752.67083,973.67433 750.97983,975.20399 750.02413,976.49769 750.64593,977.94868 750.30903,978.05895 750.62403,979.04964 749.45213,979.16503 748.33743,978.7678 748.23813,978.38331 748.47693,977.19428 747.89723,976.12705 746.69093,975.95252 745.82963,975.08687 744.69013,974.67771 742.91363,973.78682 741.50443,971.75757 739.92103,970.54255 739.01653,971.35454 737.10603,970.85758 736.68243,969.82187 738.60313,970.61853 740.14683,970.18604 741.30113,964.95761 740.97863,964.21423 739.87393,963.2744 737.63713,962.45334 z">
      <title id="t95">Quatrième circonscription de la Dordogne</title>
      <desc id="d95">Cantons de : Belvès, Le Bugue, Carlux, Domme, Hautefort, Montignac, Saint-Cyprien, Sainte-Alvère, Saint-Pierre-de-Chignac, Salignac-Eyvignes, Sarlat-la-Canéda, Terrasson-la-Villedieu, Thenon, Vergt, Villefranche-du-Périgord</desc>
    </path></svg>