<svg xmlns="http://www.w3.org/2000/svg" version="1.1" xmlns:xlink="http://www.w3.org/1999/xlink" xmlns:svgjs="http://svgjs.dev/svgjs" viewBox="0 0 115.73659999999995 128.08513000000005"><path class="circo" id="id-025-01" d="M18.977499999999964 32.83319000000006L19.35640000000012 31.78324000000009L17.47479999999996 31.036770000000047L16.829300000000103 31.532670000000053L17.28379999999993 33.29685000000006L16.66800000000012 33.694290000000024L15.638599999999997 32.46604000000002L14.83770000000004 33.34262000000001L14.05580000000009 33.170720000000074L13.126400000000103 33.806620000000066L12.439499999999953 35.06569999999999L11.262300000000096 35.339450000000056L9.886700000000019 35.78690000000006L8.20920000000001 36.46879000000001L7.398599999999988 36.28758000000005L6.48070000000007 37.65608000000009L5.828099999999949 38.17140000000006L4.991999999999962 38.14321000000007L4.720600000000104 38.57155L3.1001000000001113 39.758460000000014L1.0757000000000971 38.864689999999996L0 39.56230000000005L1.7188000000001011 42.50939000000005L1.6713999999999487 42.93857000000003L1.3007000000000062 43.19297000000006L1.9574999999999818 44.13584000000003L1.8693000000000666 44.86907000000008L1.84699999999998 45.19184000000007L2.404199999999946 45.494080000000054L3.365199999999959 46.757330000000024L3.3099999999999454 47.53868L4.842399999999998 47.02647000000002L5.1206999999999425 47.327L4.969700000000103 48.11279000000002L5.326099999999997 48.427279999999996L6.8577999999999975 48.60403000000008L7.350300000000061 49.13526000000002L7.342000000000098 51.38143000000002L8.027700000000095 50.88076000000001L9.583300000000008 51.57036000000005L9.769999999999982 53.965689999999995L10.994899999999916 55.05437000000006L10.019400000000132 55.85248999999999L9.011799999999994 58.19006999999999L7.775499999999965 59.91259000000002L7.550500000000056 60.69988999999998L6.742899999999963 60.511600000000044L5.972600000000057 61.442780000000084L6.790300000000116 63.34843000000001L7.309500000000071 65.82661000000007L5.445999999999913 66.92408L4.171199999999999 65.75899000000004L3.3647000000000844 65.91295000000002L3.4764999999999873 66.72935000000007L4.437599999999975 67.60353000000009L4.336500000000115 68.45053000000007L3.6493000000000393 68.95462000000009L4.317099999999982 70.52474000000007L5.58400000000006 71.11831000000006L6.052200000000084 70.47212999999999L7.9172000000000935 69.85170000000005L8.541899999999941 68.71231L8.363399999999956 67.42615999999998L8.63760000000002 67.08636999999999L9.470900000000029 66.83738000000005L9.876800000000003 66.95302000000004L10.07269999999994 67.77703000000008L9.970700000000079 69.85744L10.051099999999906 70.58932000000004L11.212600000000066 71.07916L11.96180000000004 70.76025000000004L12.064499999999953 71.61309000000006L12.63799999999992 71.60573L12.598899999999958 72.28820000000007L13.566000000000031 71.64051000000006L15.541999999999916 72.0394L15.789700000000039 72.86365L16.575399999999945 73.10818000000006L17.76260000000002 72.72406000000001L18.583000000000084 70.87445000000002L18.940399999999954 70.86859000000004L18.473999999999933 72.09911L18.384199999999964 74.26738L19.21530000000007 75.03341999999998L20.413700000000063 74.70436000000007L20.94329999999991 74.06402000000003L20.921800000000076 73.44118000000003L21.646199999999908 73.01471000000004L22.278999999999996 71.92896000000007L22.786499999999933 69.05114000000003L22.53539999999998 68.27755000000002L22.494300000000067 68.20857999999998L22.985400000000027 66.40537000000006L24.392900000000054 65.15134999999998L24.792799999999943 65.09568999999999L24.881800000000112 64.70101L24.4688000000001 63.64310999999998L25.493099999999913 64.15317000000005L26.669000000000096 63.79674L26.861900000000105 63.14736000000005L27.592499999999973 62.74468999999999L27.657200000000103 62.314160000000015L28.624500000000126 61.151250000000005L28.40820000000008 60.41732999999999L28.76260000000002 60.240890000000036L29.256200000000035 58.80847000000006L29.932000000000016 56.96186L30.9208000000001 57.39086000000009L31.716100000000097 56.35478999999998L31.768299999999954 55.50124000000005L28.43380000000002 51.60586999999998L27.927599999999984 51.627000000000066L26.755300000000034 52.56867L25.778099999999995 49.85355000000004L24.72330000000011 48.57501000000002L24.536000000000058 48.866460000000075L24.121200000000044 48.42252000000008L23.81899999999996 48.18572000000006L24.017900000000054 47.85733000000005L24.685500000000047 47.58397000000002L26.125999999999976 45.628870000000006L27.226000000000113 45.54001000000005L28.425500000000056 44.55142999999998L28.067399999999907 43.91752000000008L27.145999999999958 43.83881000000008L27.10699999999997 43.07720000000006L27.769800000000032 42.50596000000007L27.450900000000047 41.793049999999994L25.476000000000113 38.81628999999998L26.051099999999906 38.154730000000086L25.717599999999948 37.36313000000007L24.9217000000001 37.161260000000084L25.104000000000042 35.64628000000005L24.704400000000078 34.689410000000066L24.35979999999995 34.21555999999998L23.521999999999935 34.31033000000002L22.99680000000012 33.63310999999999L22.187900000000127 33.376840000000016L20.96289999999999 33.708079999999995L20.918300000000045 33.69504000000006L19.43010000000004 33.86993000000007L18.977499999999964 32.83319000000006z">
      <title id="t96">Première circonscription du Doubs</title>
      <desc id="d96">Cantons de : Audeux, Besançon Nord-Ouest, Besançon Ouest, Besançon-Planoise, Boussières, Quingey</desc>
    </path><path class="circo" id="id-025-02" d="M24.72330000000011 48.57501000000002L24.536000000000058 48.866460000000075L24.121200000000044 48.42252000000008L23.81899999999996 48.18572000000006L24.017900000000054 47.85733000000005L24.685500000000047 47.58397000000002L26.125999999999976 45.628870000000006L27.226000000000113 45.54001000000005L28.425500000000056 44.55142999999998L28.067399999999907 43.91752000000008L27.145999999999958 43.83881000000008L27.10699999999997 43.07720000000006L27.769800000000032 42.50596000000007L27.450900000000047 41.793049999999994L25.476000000000113 38.81628999999998L26.051099999999906 38.154730000000086L25.717599999999948 37.36313000000007L24.9217000000001 37.161260000000084L25.104000000000042 35.64628000000005L24.704400000000078 34.689410000000066L24.35979999999995 34.21555999999998L23.521999999999935 34.31033000000002L22.99680000000012 33.63310999999999L22.187900000000127 33.376840000000016L20.96289999999999 33.708079999999995L20.918300000000045 33.69504000000006L19.43010000000004 33.86993000000007L18.977499999999964 32.83319000000006L19.35640000000012 31.78324000000009L19.71510000000012 31.552490000000034L19.251600000000053 30.380539999999996L19.37869999999998 29.56492000000003L20.388500000000022 29.859090000000037L20.65930000000003 29.635170000000016L20.75960000000009 29.99833000000001L22.511600000000044 30.50484000000006L22.549600000000055 30.513000000000034L23.786399999999958 31.68053000000009L24.1558 31.471970000000056L24.510099999999966 31.425569999999993L24.603000000000065 31.771330000000034L24.93380000000002 31.599770000000035L25.32439999999997 30.178589999999986L26.03670000000011 30.405750000000012L26.50109999999995 31.01897000000008L27.61130000000003 31.121430000000032L28.199499999999944 30.467210000000023L28.915300000000116 29.545600000000036L29.94419999999991 29.040650000000028L30.042699999999968 28.62173000000007L30.279199999999946 28.74054000000001L30.5 28.948060000000055L31.72440000000006 28.843169999999986L32.37000000000012 28.323489999999993L32.61090000000013 27.546140000000037L32.580600000000004 26.18258000000003L34.171800000000076 26.309600000000046L34.32069999999999 27.486780000000067L34.37079999999992 27.50121999999999L35.08269999999993 27.39706000000001L35.784000000000106 26.59149000000002L34.6739 25.52084000000002L35.113000000000056 25.309709999999995L34.62689999999998 24.73639000000003L35.503600000000006 23.491790000000037L35.79379999999992 23.196710000000053L36.974300000000085 24.22892999999999L38.55060000000003 24.37444000000005L38.86590000000001 23.902870000000007L39.23939999999993 24.09321L39.96340000000009 23.67109000000005L40.289400000000114 22.91039999999998L40.87670000000003 22.38196000000005L41.66730000000007 22.329090000000065L41.69569999999999 21.93310000000008L40.728000000000065 21.788670000000025L40.35269999999991 21.779250000000047L40.10050000000001 21.09233000000006L40.70730000000003 20.61662000000001L41.46759999999995 20.846630000000005L42.14200000000005 20.73923000000002L42.1096 20.397289999999998L42.5005000000001 20.385980000000018L42.61629999999991 19.221480000000042L43.15090000000009 18.701040000000035L43.288299999999936 19.01341000000002L43.596900000000005 19.39047000000005L44.70959999999991 19.860480000000052L45.38959999999997 20.89336000000003L46.143100000000004 21.281990000000064L46.325399999999945 20.910439999999994L45.518600000000106 19.504300000000057L45.581100000000106 18.720140000000015L46.906600000000026 19.53320000000008L47.559600000000046 20.911569999999983L47.733999999999924 21.033160000000066L49.07060000000001 20.467390000000023L49.747299999999996 23.628780000000006L49.49389999999994 23.949700000000007L49.80799999999999 24.640350000000012L50.53019999999992 24.873100000000022L50.4366 26.173170000000027L49.17640000000006 26.68712000000005L49.53919999999994 27.398689999999988L49.16859999999997 28.534150000000068L49.24669999999992 28.882190000000037L50.21409999999992 29.710440000000062L50.471700000000055 30.288600000000088L50.531799999999976 30.902450000000044L50.587999999999965 31.285730000000058L51.315700000000106 31.52866000000006L51.443700000000035 32.348670000000084L49.830200000000104 33.20407L50.599699999999984 35.712080000000014L51.00459999999998 35.88378L52.17800000000011 35.31087000000002L51.23090000000002 37.26062999999999L51.63409999999999 37.28105000000005L52.147899999999936 38.344670000000065L51.74610000000007 40.31081000000006L51.37200000000007 40.217250000000035L50.24199999999996 41.25547000000006L52.84860000000003 42.29466000000002L53.424400000000105 42.83228000000008L53.37570000000005 43.24204000000009L52.268299999999954 44.44276000000002L52.45170000000007 45.24666000000002L53.16120000000001 45.457040000000006L53.34539999999993 46.236170000000016L52.03760000000011 47.78302000000008L50.1884 47.36278000000004L48.93180000000007 47.39368000000002L46.48700000000008 49.18830000000003L46.45839999999998 49.41818000000001L44.993400000000065 50.851L45.05390000000011 52.03872000000001L43.82729999999992 52.10223000000008L45.58920000000012 54.38539000000003L47.21690000000012 54.55047999999999L47.89599999999996 56.515210000000025L48.38220000000001 57.57000000000005L47.643600000000106 58.52868999999998L48.59220000000005 60.33479L49.386799999999994 60.61986000000002L49.56840000000011 61.00218000000007L49.27109999999993 61.303570000000036L49.948900000000094 61.99558000000002L49.51440000000002 62.277829999999994L49.54520000000002 63.37576999999999L49.1246000000001 64.35459000000003L49.97890000000007 64.32501000000002L50.28649999999993 64.63810999999998L51.2804000000001 64.48412000000008L49.81410000000005 65.35261000000003L49.25070000000005 65.99354000000005L49.298 66.41822000000002L50.36590000000001 67.09460999999999L51.13079999999991 68.55741999999998L52.49279999999999 67.54815000000008L50.80600000000004 69.27985000000001L50.98260000000005 70.41989000000001L50.25849999999991 70.67484999999999L49.137500000000045 69.56416000000002L47.71550000000002 71.04762000000005L47.499700000000075 71.44641999999999L46.74610000000007 70.8469L43.86329999999998 71.54066L41.65689999999995 72.46955000000003L40.77970000000005 72.79124000000002L40.68319999999994 72.37732000000005L41.299400000000105 71.33746000000008L40.96219999999994 70.56115L40.54559999999992 70.47799000000009L40.10470000000009 69.40629000000001L38.997299999999996 69.39781000000005L36.54300000000012 65.82911000000001L36.23039999999992 65.62673000000007L35.974300000000085 65.89760000000001L36.053499999999985 65.31168000000002L33.86719999999991 64.27296999999999L33.940399999999954 63.43355000000008L34.59269999999992 63.18155999999999L33.021400000000085 60.694650000000024L33.74459999999999 60.38324L33.412000000000035 60.11364000000003L32.172000000000025 60.387980000000084L31.80040000000008 60.59963000000005L31.04390000000012 61.60046L30.624399999999923 61.51669000000004L30.265300000000025 60.739970000000085L29.030099999999948 60.57515999999998L28.76260000000002 60.240890000000036L29.256200000000035 58.80847000000006L29.932000000000016 56.96186L30.9208000000001 57.39086000000009L31.716100000000097 56.35478999999998L31.768299999999954 55.50124000000005L28.43380000000002 51.60586999999998L27.927599999999984 51.627000000000066L26.755300000000034 52.56867L25.778099999999995 49.85355000000004L24.72330000000011 48.57501000000002z">
      <title id="t97">Deuxième circonscription du Doubs</title>
      <desc id="d97">Cantons de : Besançon Est, Besançon Nord-Est, Besançon Sud, Marchaux, Ornans, Roulans</desc>
    </path><path class="circo" id="id-025-03" d="M54.94160000000011 41.49991L53.7029 41.424780000000055L53.52330000000006 41.20163000000002L52.84860000000003 42.29466000000002L50.24199999999996 41.25547000000006L51.37200000000007 40.217250000000035L51.74610000000007 40.31081000000006L52.147899999999936 38.344670000000065L51.63409999999999 37.28105000000005L51.23090000000002 37.26062999999999L52.17800000000011 35.31087000000002L51.00459999999998 35.88378L50.599699999999984 35.712080000000014L49.830200000000104 33.20407L51.443700000000035 32.348670000000084L51.315700000000106 31.52866000000006L50.587999999999965 31.285730000000058L50.531799999999976 30.902450000000044L50.471700000000055 30.288600000000088L50.21409999999992 29.710440000000062L49.24669999999992 28.882190000000037L49.16859999999997 28.534150000000068L49.53919999999994 27.398689999999988L49.17640000000006 26.68712000000005L50.4366 26.173170000000027L50.53019999999992 24.873100000000022L49.80799999999999 24.640350000000012L49.49389999999994 23.949700000000007L49.747299999999996 23.628780000000006L49.07060000000001 20.467390000000023L47.733999999999924 21.033160000000066L47.559600000000046 20.911569999999983L46.906600000000026 19.53320000000008L47.78060000000005 19.05198000000007L47.87180000000012 17.93500000000006L47.99919999999997 16.843090000000075L49.42530000000011 17.107420000000047L50.19270000000006 16.653549999999996L49.653099999999995 16.16219000000001L50.61850000000004 14.342640000000074L51.25669999999991 13.852870000000053L51.03870000000006 12.172430000000077L51.32290000000012 11.126990000000092L52.097999999999956 11.534690000000069L52.8578 11.601870000000076L53.79279999999994 9.627169999999978L54.04019999999991 9.306550000000016L55.247299999999996 9.361290000000054L56.896999999999935 8.363609999999994L57.7989 8.631420000000048L58.74189999999999 9.286420000000021L59.35480000000007 7.749300000000062L60.55760000000009 7.305740000000014L60.85629999999992 7.615760000000023L61.0317 7.404550000000086L62.03880000000004 7.93256000000008L63.26469999999995 8.206170000000043L64.08290000000011 8.006180000000086L64.76700000000005 8.495380000000068L65.6893 11.694450000000074L66.04750000000013 11.488150000000019L66.05559999999991 10.658750000000055L68.15859999999998 8.771360000000072L68.6400000000001 9.794020000000046L69.61660000000006 10.480350000000044L70.01549999999997 10.406370000000038L70.64350000000013 9.982250000000022L70.90710000000013 9.26956000000007L71.85719999999992 9.98802999999998L72.68640000000005 11.280340000000024L73.08560000000011 10.519610000000057L74.35889999999995 10.628300000000081L75.22219999999993 8.759410000000003L74.87689999999998 6.79645000000005L75.02940000000012 6.374599999999987L74.2505000000001 6.470779999999991L74.03980000000001 6.125460000000089L75.04279999999994 4.902660000000083L74.94869999999992 4.509160000000065L76.1400000000001 4.730279999999993L77.15470000000005 5.423440000000028L77.37069999999994 6.06982000000005L78.13229999999999 6.156940000000077L78.90589999999997 6.304860000000076L80.70090000000005 5.515480000000025L81.22579999999994 4.802310000000034L81.62609999999995 4.194590000000062L82.57560000000012 2.772550000000024L81.17419999999993 1.0943200000000388L81.69329999999991 0L82.14959999999996 0.9273800000000847L84.16429999999991 1.146349999999984L83.85670000000005 2.1116100000000415L86.76909999999998 3.448530000000005L87.0036 2.5765499999999975L87.31580000000008 2.457390000000032L88.51999999999998 2.910720000000083L89.26330000000007 3.940330000000017L90.05040000000008 4.8288800000000265L91.0014000000001 5.314650000000029L92.00459999999998 5.484250000000088L93.32500000000005 3.87295000000006L93.71600000000012 2.2096200000000863L94.20640000000003 2.1550700000000234L95.02710000000002 4.0291200000000345L94.35030000000006 6.077370000000087L95.2029 7.653520000000071L95.12630000000013 8.421130000000062L95.61550000000011 8.99045000000001L95.28240000000005 9.214690000000019L95.4797000000001 11.170010000000048L93.37799999999993 10.970750000000066L92.26299999999992 10.013320000000022L91.85989999999993 8.844100000000026L91.32220000000007 10.066800000000057L92.31290000000013 11.358080000000086L92.39239999999995 12.223490000000083L91.66329999999994 11.968529999999987L91.19759999999997 12.538940000000025L90.43579999999997 12.662320000000022L89.6395 12.65716000000009L88.3397 12.878640000000019L87.26050000000009 12.568989999999985L86.10220000000004 13.704240000000027L85.12130000000002 14.29033000000004L85.05619999999999 14.354080000000067L83.58120000000008 15.806440000000066L82.01649999999995 16.133280000000013L82.08950000000004 16.995300000000043L83.07740000000013 18.38337999999999L82.81099999999992 20.864090000000033L82.42460000000005 21.53207000000009L81.61590000000001 21.669849999999997L81.0981999999999 22.17775000000006L80.77109999999993 22.936649999999986L81.85460000000012 24.07099000000005L81.53780000000006 24.84937000000002L79.62969999999996 26.31851000000006L80.01510000000007 27.00927999999999L79.75929999999994 27.79246999999998L81.13560000000007 28.383210000000076L80.76780000000008 28.463390000000004L80.3891000000001 30.297630000000026L79.16969999999992 30.642560000000003L79.42959999999994 31.412900000000036L79.09979999999996 32.168480000000045L79.59230000000002 33.29183999999998L79.35059999999999 34.87706000000003L80.49990000000003 34.74043000000006L80.77829999999994 33.97837000000004L81.16750000000002 35.15996000000007L82.40789999999993 35.05167000000006L82.52340000000004 35.01292999999998L82.8397 34.894480000000044L85.09840000000008 33.43326000000002L85.82799999999997 33.05412000000001L85.5422000000001 31.413279999999986L86.60130000000004 31.07779000000005L87.00009999999997 30.43196999999998L87.74189999999999 30.547360000000026L87.75980000000004 30.16730000000007L88.45460000000003 29.89271000000008L89.13149999999996 29.331459999999993L89.99990000000003 29.27337L90.19710000000009 30.03345999999999L89.85370000000012 30.73939000000007L90.10300000000007 31.041920000000005L90.98669999999993 31.747619999999984L91.74620000000004 31.768190000000004L90.71409999999992 31.10387000000003L90.99890000000005 30.425700000000006L91.30539999999996 30.14196000000004L91.20959999999991 28.911800000000085L90.76050000000009 28.212940000000003L91.09879999999998 27.452150000000074L90.81809999999996 27.14355999999998L92.7817 27.297800000000052L93.42620000000011 26.95231000000001L95.83709999999996 27.485400000000027L97.44520000000011 27.550160000000005L98.65339999999992 27.77001000000007L99.51040000000012 28.71343999999999L100.35680000000002 28.85459000000003L100.394 28.602030000000013L102.19740000000002 27.807900000000018L103.85310000000004 28.20918000000006L105.10809999999992 27.95634000000007L109.72309999999993 27.217230000000086L110.55520000000001 27.04115999999999L111.5766000000001 26.202910000000088L113.27520000000004 26.578190000000063L114.7077999999999 27.58617000000004L114.89589999999998 27.987210000000005L115.00649999999996 28.866010000000074L115.73659999999995 29.929340000000025L115.1096 30.551750000000084L115.26850000000013 30.94772999999998L114.34590000000003 31.797790000000077L113.50669999999991 31.65971000000002L111.43880000000013 32.123710000000074L111.92740000000003 33.222380000000044L111.32629999999995 34.83594000000005L110.25250000000005 35.57784000000004L108.95240000000013 35.674600000000055L108.23919999999998 36.17291L106.11820000000012 36.32029L105.90620000000013 36.57393000000002L105.58940000000007 36.85288000000003L106.44599999999991 39.20530000000008L106.12509999999997 41.237190000000055L106.79680000000008 42.298040000000015L105.72829999999999 43.01294000000007L105.46600000000012 43.80663000000004L104.64550000000008 43.99689999999998L103.97029999999995 45.06994000000009L101.52490000000012 46.726170000000025L100.59480000000008 47.58009000000004L99.72859999999991 49.499360000000024L98.8306 50.28376000000003L97.38280000000009 51.19337000000007L97.30060000000003 51.614239999999995L98.28639999999996 52.31839000000002L98.1123 52.71106000000009L95.86149999999998 54.68096000000003L92.61059999999998 51.62800000000004L92.03099999999995 50.75597000000005L89.64660000000003 46.18599000000006L90.25790000000006 45.76627000000008L89.73540000000003 44.80961000000002L89.36290000000008 43.70210000000009L89.54690000000005 43.355459999999994L88.35850000000005 43.510940000000005L87.98029999999994 44.23197000000005L86.80790000000002 44.19455000000005L86.43869999999993 44.34513000000004L86.54770000000008 45.13765000000001L85.76160000000004 45.02051000000006L85.45730000000003 44.337240000000065L85.08010000000013 44.32285000000002L84.48620000000005 44.30169000000001L84.34920000000011 44.70586000000003L82.72690000000011 45.18271000000004L81.84969999999998 46.11066000000005L81.02999999999997 46.33077000000003L81.03770000000009 46.08976000000007L81.81750000000011 45.73698999999999L82.27040000000011 45.011370000000056L81.92560000000003 43.837920000000054L81.71710000000007 42.58037999999999L80.96640000000002 42.20013000000006L79.76150000000007 42.497490000000084L79.54989999999998 41.73959000000002L78.3596 41.962350000000015L77.02479999999991 42.79133999999999L76.42849999999999 42.57224000000008L76.18640000000005 41.41464000000008L76.97160000000008 40.54878000000008L76.1368 40.44857999999999L76.20759999999996 39.186390000000074L75.1857 38.516680000000065L74.3420000000001 38.38451000000009L70.2219 39.512699999999995L70.39720000000011 38.12867000000006L70.50980000000004 37.271029999999996L68.62519999999995 37.65645000000006L67.66360000000009 37.05137000000002L66.03369999999995 37.76733999999999L63.67430000000013 38.782260000000065L63.287399999999934 38.75069000000008L62.20779999999991 38.52507000000003L60.384700000000066 39.33420000000001L60.07290000000012 40.87940000000003L56.294200000000046 39.34109000000001L55.63930000000005 39.82108000000005L55.40470000000005 40.790610000000015L54.94160000000011 41.49991z">
      <title id="t98">Troisième circonscription du Doubs</title>
      <desc id="d98">Canton de : Baume-les-Dames, Clerval, L'Isle-sur-le-Doubs, Maîche, Montbéliard Est, Montbéliard Ouest, Rougemont, Saint-Hippolyte</desc>
    </path><path class="circo" id="id-025-04" d="M93.37799999999993 10.970750000000066L92.26299999999992 10.013320000000022L91.85989999999993 8.844100000000026L91.32220000000007 10.066800000000057L92.31290000000013 11.358080000000086L92.39239999999995 12.223490000000083L91.66329999999994 11.968529999999987L91.19759999999997 12.538940000000025L90.43579999999997 12.662320000000022L89.6395 12.65716000000009L88.3397 12.878640000000019L87.26050000000009 12.568989999999985L86.10220000000004 13.704240000000027L85.12130000000002 14.29033000000004L85.05619999999999 14.354080000000067L83.58120000000008 15.806440000000066L82.01649999999995 16.133280000000013L82.08950000000004 16.995300000000043L83.07740000000013 18.38337999999999L82.81099999999992 20.864090000000033L82.42460000000005 21.53207000000009L81.61590000000001 21.669849999999997L81.0981999999999 22.17775000000006L80.77109999999993 22.936649999999986L81.85460000000012 24.07099000000005L81.53780000000006 24.84937000000002L79.62969999999996 26.31851000000006L80.01510000000007 27.00927999999999L79.75929999999994 27.79246999999998L81.13560000000007 28.383210000000076L80.76780000000008 28.463390000000004L80.3891000000001 30.297630000000026L79.16969999999992 30.642560000000003L79.42959999999994 31.412900000000036L79.09979999999996 32.168480000000045L79.59230000000002 33.29183999999998L79.35059999999999 34.87706000000003L80.49990000000003 34.74043000000006L80.77829999999994 33.97837000000004L81.16750000000002 35.15996000000007L82.40789999999993 35.05167000000006L82.52340000000004 35.01292999999998L82.8397 34.894480000000044L85.09840000000008 33.43326000000002L85.82799999999997 33.05412000000001L85.5422000000001 31.413279999999986L86.60130000000004 31.07779000000005L87.00009999999997 30.43196999999998L87.74189999999999 30.547360000000026L87.75980000000004 30.16730000000007L88.45460000000003 29.89271000000008L89.13149999999996 29.331459999999993L89.99990000000003 29.27337L90.19710000000009 30.03345999999999L89.85370000000012 30.73939000000007L90.10300000000007 31.041920000000005L90.98669999999993 31.747619999999984L91.74620000000004 31.768190000000004L90.71409999999992 31.10387000000003L90.99890000000005 30.425700000000006L91.30539999999996 30.14196000000004L91.20959999999991 28.911800000000085L90.76050000000009 28.212940000000003L91.09879999999998 27.452150000000074L90.81809999999996 27.14355999999998L92.7817 27.297800000000052L93.42620000000011 26.95231000000001L95.83709999999996 27.485400000000027L97.44520000000011 27.550160000000005L98.65339999999992 27.77001000000007L99.51040000000012 28.71343999999999L100.35680000000002 28.85459000000003L100.394 28.602030000000013L100.73360000000002 26.23002000000008L101.68270000000007 24.933989999999994L103.14380000000006 24.310670000000073L102.92100000000005 23.11132000000009L103.45440000000008 22.661249999999995L103.58120000000008 21.945410000000038L105.29970000000003 21.792440000000056L105.51150000000007 21.412500000000023L105.44150000000013 18.39808000000005L105.02819999999997 17.786080000000084L105.08210000000008 16.72406000000001L104.85809999999992 15.617250000000013L103.75710000000004 14.060860000000048L102.73540000000003 13.471720000000005L103.44659999999999 12.798650000000066L102.75810000000001 10.746440000000007L104.06470000000013 10.041510000000017L104.76639999999998 10.344220000000064L105.07150000000001 11.506889999999999L105.73839999999996 11.958600000000047L105.96800000000007 11.66061000000002L106.28690000000006 11.860360000000014L105.92039999999997 10.28069000000005L106.25639999999999 9.14309000000003L105.93700000000013 8.382990000000063L105.30559999999991 7.869250000000079L105.05330000000004 7.825950000000034L104.2636 7.603929999999991L102.78140000000008 6.655460000000062L103.46510000000012 6.233350000000087L102.70859999999993 4.739850000000047L102.44329999999991 3.971940000000018L101.2464 3.758350000000064L100.70640000000003 3.0960000000000036L98.70090000000005 4.075580000000059L98.34680000000003 4.026340000000005L96.21510000000012 4.216130000000021L95.02710000000002 4.0291200000000345L94.35030000000006 6.077370000000087L95.2029 7.653520000000071L95.12630000000013 8.421130000000062L95.61550000000011 8.99045000000001L95.28240000000005 9.214690000000019L95.4797000000001 11.170010000000048L93.37799999999993 10.970750000000066z">
      <title id="t99">Quatrième circonscription du Doubs</title>
      <desc id="d99">Cantons de : Audicourt, Etupes, Hérimoncourt, Pont-de-Roide, Sochaux-Grand-Charmont, Valentigney</desc>
    </path><path class="circo" id="id-025-05" d="M26.669000000000096 63.79674L25.493099999999913 64.15317000000005L24.4688000000001 63.64310999999998L24.881800000000112 64.70101L24.792799999999943 65.09568999999999L24.392900000000054 65.15134999999998L22.985400000000027 66.40537000000006L22.494300000000067 68.20857999999998L22.53539999999998 68.27755000000002L22.786499999999933 69.05114000000003L22.278999999999996 71.92896000000007L21.646199999999908 73.01471000000004L20.921800000000076 73.44118000000003L20.94329999999991 74.06402000000003L21.02080000000001 74.75058999999999L21.65949999999998 75.02931000000001L22.939200000000028 75.13135L22.966699999999946 75.56018000000006L22.956699999999955 75.64951000000008L23.4996000000001 76.00007000000005L23.455799999999954 76.68868000000009L23.89110000000005 77.22465L21.91509999999994 79.09018000000003L22.67520000000013 79.22091999999998L25.372900000000072 80.95743000000004L24.23849999999993 82.51577000000009L24.07470000000012 84.10509000000002L25.55529999999999 85.52548999999999L26.326000000000022 85.67824000000007L26.449299999999994 88.46198000000004L27.162199999999984 88.89044999999999L28.17190000000005 88.30406000000005L28.351799999999912 88.68069000000003L28.057800000000043 90.06071000000009L27.706900000000132 90.53668000000005L27.583699999999908 90.92611L29.509000000000015 91.49089000000004L29.61220000000003 91.88574000000006L30.962999999999965 90.32437000000004L31.73140000000012 90.49206000000004L32.72980000000007 91.17520000000002L33.13630000000012 92.25832000000003L33.53780000000006 92.29759000000001L34.33899999999994 91.98876000000007L34.581500000000005 91.92774000000009L35.24150000000009 93.05572000000006L38.549800000000005 95.12974000000008L38.25999999999999 95.56921L38.67020000000002 95.66510000000005L39.52749999999992 97.07720000000006L41.15090000000009 98.26278000000002L42.240099999999984 100.04201L42.89260000000013 100.94658000000004L43.16840000000002 101.73389000000009L41.22050000000013 103.18664000000001L40.92630000000008 104.82254L39.56400000000008 105.70537999999999L38.80580000000009 106.05375000000004L37.29559999999992 107.00240000000008L36.753400000000056 107.52825000000007L36.712299999999914 107.55454000000009L35.21090000000004 109.00094000000001L34.41509999999994 109.50333999999998L32.930000000000064 110.44344000000001L31.66210000000001 111.50151000000005L34.386799999999994 115.84689000000003L34.04099999999994 116.98025000000007L32.55690000000004 117.82225000000005L30.63720000000012 119.26879000000008L30.91080000000011 120.67567000000008L30.178900000000112 120.74644999999998L29.73739999999998 121.38828000000001L33.01130000000012 124.50225L36.752300000000105 128.08513000000005L37.34860000000003 127.57980000000009L35.21029999999996 125.42133999999999L35.23960000000011 124.98790000000008L37.31510000000003 122.79212000000007L39.317800000000034 121.14316000000008L40.49610000000007 120.61405000000002L43.697000000000116 117.31515999999999L47.47790000000009 113.70521000000008L48.37259999999992 112.84139000000005L48.60140000000001 112.04361000000006L50.95820000000003 110.64445999999998L54.73540000000003 108.62459000000001L55.992500000000064 107.50048000000004L56.23000000000002 107.09936000000005L56.65460000000007 107.20129000000009L57.42280000000005 106.19263999999998L58.58459999999991 105.67599000000007L59.201500000000124 104.07491000000005L61.656600000000026 103.20078999999998L62.681100000000015 102.40111999999999L63.92969999999991 100.63382000000001L64.47610000000009 98.97418000000005L63.15380000000005 97.83417000000009L62.54179999999997 97.25900000000001L62.24500000000012 96.02492000000007L62.99350000000004 95.56735000000003L63.170900000000074 93.82296000000008L64.6898000000001 91.14574000000005L64.82220000000007 89.82961L65.096 86.38103000000001L63.642900000000054 83.74513000000002L62.41630000000009 81.66483000000005L63.41380000000004 80.96926000000008L65.77410000000009 78.04889000000003L67.37480000000005 76.33280000000002L67.82850000000008 75.89032000000009L68.61680000000001 76.89433000000008L73.41869999999994 75.25195000000008L75.2699 74.21978000000001L76.28179999999998 73.60667999999998L77.5630000000001 73.79685000000006L79.49299999999994 72.85230999999999L81.21669999999995 69.88499000000002L83.23489999999993 68.28304000000003L84.93640000000005 67.89066000000003L86.46849999999995 66.31131000000005L84.79989999999998 64.37930000000006L86.03739999999993 62.068359999999984L88.8143 60.983569999999986L88.55750000000012 59.320280000000025L88.86220000000003 58.99931000000004L90.56909999999993 57.72415000000001L93.79330000000004 56.51895999999999L95.09580000000005 55.51436000000001L95.86149999999998 54.68096000000003L92.61059999999998 51.62800000000004L92.03099999999995 50.75597000000005L89.64660000000003 46.18599000000006L90.25790000000006 45.76627000000008L89.73540000000003 44.80961000000002L89.36290000000008 43.70210000000009L89.54690000000005 43.355459999999994L88.35850000000005 43.510940000000005L87.98029999999994 44.23197000000005L86.80790000000002 44.19455000000005L86.43869999999993 44.34513000000004L86.54770000000008 45.13765000000001L85.76160000000004 45.02051000000006L85.45730000000003 44.337240000000065L85.08010000000013 44.32285000000002L84.48620000000005 44.30169000000001L84.34920000000011 44.70586000000003L82.72690000000011 45.18271000000004L81.84969999999998 46.11066000000005L81.02999999999997 46.33077000000003L81.03770000000009 46.08976000000007L81.81750000000011 45.73698999999999L82.27040000000011 45.011370000000056L81.92560000000003 43.837920000000054L81.71710000000007 42.58037999999999L80.96640000000002 42.20013000000006L79.76150000000007 42.497490000000084L79.54989999999998 41.73959000000002L78.3596 41.962350000000015L77.02479999999991 42.79133999999999L76.42849999999999 42.57224000000008L76.18640000000005 41.41464000000008L76.97160000000008 40.54878000000008L76.1368 40.44857999999999L76.20759999999996 39.186390000000074L75.1857 38.516680000000065L74.3420000000001 38.38451000000009L70.2219 39.512699999999995L70.39720000000011 38.12867000000006L70.50980000000004 37.271029999999996L68.62519999999995 37.65645000000006L67.66360000000009 37.05137000000002L66.03369999999995 37.76733999999999L63.67430000000013 38.782260000000065L63.287399999999934 38.75069000000008L62.20779999999991 38.52507000000003L60.384700000000066 39.33420000000001L60.07290000000012 40.87940000000003L56.294200000000046 39.34109000000001L55.63930000000005 39.82108000000005L55.40470000000005 40.790610000000015L54.94160000000011 41.49991L53.7029 41.424780000000055L53.52330000000006 41.20163000000002L52.84860000000003 42.29466000000002L53.424400000000105 42.83228000000008L53.37570000000005 43.24204000000009L52.268299999999954 44.44276000000002L52.45170000000007 45.24666000000002L53.16120000000001 45.457040000000006L53.34539999999993 46.236170000000016L52.03760000000011 47.78302000000008L50.1884 47.36278000000004L48.93180000000007 47.39368000000002L46.48700000000008 49.18830000000003L46.45839999999998 49.41818000000001L44.993400000000065 50.851L45.05390000000011 52.03872000000001L43.82729999999992 52.10223000000008L45.58920000000012 54.38539000000003L47.21690000000012 54.55047999999999L47.89599999999996 56.515210000000025L48.38220000000001 57.57000000000005L47.643600000000106 58.52868999999998L48.59220000000005 60.33479L49.386799999999994 60.61986000000002L49.56840000000011 61.00218000000007L49.27109999999993 61.303570000000036L49.948900000000094 61.99558000000002L49.51440000000002 62.277829999999994L49.54520000000002 63.37576999999999L49.1246000000001 64.35459000000003L49.97890000000007 64.32501000000002L50.28649999999993 64.63810999999998L51.2804000000001 64.48412000000008L49.81410000000005 65.35261000000003L49.25070000000005 65.99354000000005L49.298 66.41822000000002L50.36590000000001 67.09460999999999L51.13079999999991 68.55741999999998L52.49279999999999 67.54815000000008L50.80600000000004 69.27985000000001L50.98260000000005 70.41989000000001L50.25849999999991 70.67484999999999L49.137500000000045 69.56416000000002L47.71550000000002 71.04762000000005L47.499700000000075 71.44641999999999L46.74610000000007 70.8469L43.86329999999998 71.54066L41.65689999999995 72.46955000000003L40.77970000000005 72.79124000000002L40.68319999999994 72.37732000000005L41.299400000000105 71.33746000000008L40.96219999999994 70.56115L40.54559999999992 70.47799000000009L40.10470000000009 69.40629000000001L38.997299999999996 69.39781000000005L36.54300000000012 65.82911000000001L36.23039999999992 65.62673000000007L35.974300000000085 65.89760000000001L36.053499999999985 65.31168000000002L33.86719999999991 64.27296999999999L33.940399999999954 63.43355000000008L34.59269999999992 63.18155999999999L33.021400000000085 60.694650000000024L33.74459999999999 60.38324L33.412000000000035 60.11364000000003L32.172000000000025 60.387980000000084L31.80040000000008 60.59963000000005L31.04390000000012 61.60046L30.624399999999923 61.51669000000004L30.265300000000025 60.739970000000085L29.030099999999948 60.57515999999998L28.76260000000002 60.240890000000036L28.40820000000008 60.41732999999999L28.624500000000126 61.151250000000005L27.657200000000103 62.314160000000015L27.592499999999973 62.74468999999999L26.861900000000105 63.14736000000005L26.669000000000096 63.79674z">
      <title id="t100">Cinquième circonscription du Doubs</title>
      <desc id="d100">Cantons de : Amancey, Levier, Montbenoît, Morteau, Mouthe, Pierrefontaine-les-Varans, Pontarlier, Le Russey, Vercel-Villedieu-le-Camp</desc>
    </path></svg>