<svg xmlns="http://www.w3.org/2000/svg" version="1.1" xmlns:xlink="http://www.w3.org/1999/xlink" xmlns:svgjs="http://svgjs.dev/svgjs" viewBox="1051.8407 886.28314 100.56809999999996 146.96875999999997"><path class="circo" id="id-026-01" d="M 1077.2816,921.44906 1076.85,919.84631 1076.2132,919.37969 1076.4642,916.75985 1075.1857,916.08218 1074.5381,916.17911 1073.6638,914.73604 1074.4446,914.63451 1074.4798,913.851 1073.9552,910.39609 1072.9237,909.87954 1070.5441,911.27809 1069.9022,910.88416 1069.6149,910.72328 1069.4272,909.91775 1068.4531,909.1437 1067.3006,908.96482 1067.2888,909.19252 1065.2111,911.96117 1065.1857,912.21997 1065.2031,913.02114 1066.1168,914.34725 1066.987,915.24705 1067.3757,915.96754 1067.4492,917.65114 1067.2243,918.30951 1067.3381,918.99622 1067.9056,919.54711 1069.4152,920.08435 1070.0235,921.09254 1069.4587,922.19646 1068.4256,923.20036 1068.2513,924.28927 1068.6094,924.94869 1068.7197,925.35961 1067.9802,926.85612 1068.4719,927.52058 1069.2688,928.51361 1069.3281,930.21865 1069.3721,930.41453 1070.0017,931.89889 1071.1736,933.00216 1071.7762,934.4151 1072.2202,935.36992 1070.9023,937.82209 1070.694,938.61704 1069.754,939.42283 1069.4776,940.18688 1071.4902,940.51985 1071.8409,941.25979 1074.2485,941.00339 1074.7395,940.29451 1075.7604,939.68072 1076.5218,939.77408 1076.2223,938.10321 1076.5656,937.32248 1077.369,936.46327 1077.3792,935.65246 1077.8497,935.01844 1079.8081,935.15497 1079.8214,933.36515 1079.4781,932.64683 1078.8459,932.70245 1080.4213,931.02157 1080.1045,929.50049 1079.3675,929.20388 1078.7587,928.69499 1077.9555,928.80485 1077.1458,929.70383 1075.6161,929.84155 1074.3053,928.82131 1072.4087,930.44457 1070.0311,929.63461 1070.8086,928.36601 1071.878,927.90863 1072.2196,927.15463 1073.8261,926.89555 1074.4258,925.83916 1075.6244,926.08169 1077.0499,925.3002 1077.1526,924.89878 1076.4075,924.55867 1076.175,923.82175 1077.6199,923.06443 1078.7358,922.78546 1081.2162,923.85652 1081.4419,920.51181 1080.0811,920.54346 1077.5755,921.40105 1077.2816,921.44906 z">
      <title id="t101">Première circonscription de la Drôme</title>
      <desc id="d101">Cantons de : Bourg-lès-Valence, Tain-l'Hermitage, Valence I, Valence II, Valence III, Valence IV</desc>
    </path><path class="circo" id="id-026-02" d="M 1069.006,959.90268 1069.2453,958.34355 1069.0095,957.17717 1069.2023,956.83134 1070.7277,956.65609 1071.4295,956.73857 1072.4415,953.13526 1072.5792,951.46547 1072.5707,951.41563 1072.9749,951.4675 1073.9933,950.29984 1076.3084,949.52217 1077.096,949.68179 1077.3855,948.75436 1076.7901,947.77143 1076.4031,947.79756 1076.8214,947.10616 1077.9466,946.68047 1078.4962,946.07767 1079.67,945.18382 1079.8501,944.43771 1079.9107,942.52734 1079.271,942.1839 1078.8487,942.14852 1076.5218,939.77408 1075.7604,939.68072 1074.7395,940.29451 1074.2485,941.00339 1071.8409,941.25979 1071.4902,940.51985 1069.4776,940.18688 1070.0689,942.38231 1069.685,943.42214 1069.1087,943.99291 1068.5954,945.09221 1068.6101,946.3105 1068.0175,946.80838 1066.8418,947.02716 1066.5838,948.14168 1066.6862,949.67663 1065.5724,949.98866 1064.8839,950.28259 1064.9441,951.04256 1064.6246,951.28229 1064.4804,952.47326 1063.4699,953.6669 1062.0154,954.30269 1061.6104,954.92129 1061.5482,955.20662 1062.2521,956.59923 1061.4179,957.92896 1061.8134,959.89598 1061.8021,960.25673 1061.8185,961.93122 1062.4771,963.01129 1063.295,966.25777 1063.3477,967.0136 1062.8827,968.0428 1063.0811,969.14378 1062.5565,970.58556 1061.2974,972.00625 1060.816,973.41627 1059.7942,975.39131 1060.1169,975.57039 1059.8591,977.01692 1059.1532,977.36138 1057.2838,977.82552 1056.904,978.50396 1056.7609,980.03077 1055.9975,980.0841 1055.7176,982.05879 1056.6124,983.30125 1056.9197,983.54308 1056.6256,984.6769 1055.7732,985.61384 1055.3296,987.25505 1055.4599,988.51647 1056.3203,989.97794 1056.3945,991.25174 1055.9592,994.06142 1055.449,994.69041 1054.3177,995.14423 1053.5636,995.95251 1053.2191,998.67653 1053.3313,999.63775 1052.03,1002.715 1051.8407,1005.6622 1052.0747,1007.3322 1052.1618,1007.8583 1054.6498,1008.9412 1057.4661,1008.9463 1057.4833,1008.5475 1058.2011,1008.2402 1058.0873,1007.4385 1058.8021,1006.002 1058.7583,1003.1719 1060.629,1003.8846 1061.1336,1003.2589 1062.3061,1003.2134 1062.9902,1002.7781 1063.8911,1000.209 1064.4646,999.67892 1063.9868,999.14211 1064.1314,998.79182 1062.5274,997.85345 1062.2905,997.70125 1062.4866,995.18935 1061.2545,992.99177 1062.8077,991.58537 1063.7689,992.14015 1064.7678,991.63849 1065.778,991.0664 1068.2382,990.85853 1068.453,989.80484 1068.1992,988.76039 1068.3541,988.25968 1071.526,988.74883 1071.8776,987.72389 1073.3438,987.36958 1073.5462,987.04707 1074.2675,987.91779 1075.2909,988.35799 1076.7342,987.10559 1076.4866,986.38365 1076.3166,984.76167 1075.5117,982.88005 1074.4845,982.25034 1072.0684,981.90207 1072.4762,980.46813 1073.1411,980.10927 1074.9482,979.54279 1075.2976,976.83788 1075.9676,976.42428 1076.3302,976.57838 1076.3642,978.55993 1076.6017,978.87746 1076.944,978.67627 1079.5426,977.7501 1079.2142,976.35433 1080.4326,976.25693 1081.1322,974.80713 1080.1285,974.53777 1079.6508,975.03864 1077.9436,975.18417 1077.984,973.97871 1077.4846,972.88985 1078.1385,971.36577 1079.628,969.88711 1078.6911,968.66268 1076.7469,969.05141 1075.882,967.70648 1073.735,966.66062 1073.7363,966.60683 1072.6149,966.84028 1072.2006,965.85932 1071.5022,966.17098 1071.3801,964.12551 1070.8425,963.02935 1071.1573,961.88637 1070.0505,961.38287 1070.0052,960.2937 1069.006,959.90268 z">
      <title id="t102">Deuxième circonscription de la Drôme</title>
      <desc id="d102">Cantons de : Loriol-sur-Drôme (moins la commune d'Ambonil), Marsanne, Montélimar I, Montélimar II, Pierrelatte, Portes-lès-Valence</desc>
    </path><path class="circo" id="id-026-03" d="M 1094.6323,1013.5269 1094.3947,1015.0598 1095.5059,1015.4814 1095.5923,1017.8583 1094.7649,1018.7225 1094.6113,1019.0868 1096.1334,1020.2651 1096.7873,1020.7916 1099.6067,1021.5557 1102.1037,1021.6968 1102.2989,1019.61 1102.9865,1019.5752 1103.6642,1019.7015 1105.7178,1020.9185 1107.6414,1022.6266 1107.6691,1022.2227 1108.8908,1022.2233 1110.3979,1022.7549 1112.1034,1021.6534 1113.8782,1022.6573 1114.5463,1023.1248 1114.4323,1023.3765 1114.2702,1024.1692 1114.7265,1025.7233 1114.4368,1028.5658 1115.6021,1028.9149 1117.2073,1028.6408 1118.2036,1029.2922 1118.9007,1028.9255 1119.1228,1030.5175 1119.905,1030.7605 1120.0701,1032.2596 1120.5123,1032.8364 1124.2585,1033.2519 1125.0089,1033.0102 1125.3042,1032.2765 1127.9441,1031.1743 1128.7235,1029.2817 1128.725,1029.2337 1130.3477,1029.3559 1131.2627,1028.5814 1131.2271,1028.1737 1129.8335,1026.7153 1130.8061,1024.9027 1131.1366,1024.6509 1132.3739,1024.7481 1133.0363,1024.2735 1133.6546,1024.3677 1134.303,1025.8005 1135.3926,1026.3374 1136.1595,1027.2629 1135.5084,1029.1233 1136.7021,1029.3564 1139.5434,1029.6541 1139.8939,1027.5941 1136.7575,1027.1249 1136.5931,1026.7598 1137.2473,1024.5017 1139.0836,1024.5649 1139.3251,1024.2817 1140.1066,1024.0147 1140.1654,1023.6003 1139.3834,1021.676 1139.7583,1019.6259 1139.0367,1017.8489 1139.1734,1016.6395 1140.2275,1015.428 1139.2888,1014.2626 1136.8383,1015.3067 1136.7385,1014.4993 1135.6339,1013.3352 1135.6659,1012.5331 1136.2799,1012.1473 1135.7348,1011.2947 1135.0147,1011.0877 1134.2267,1010.2848 1133.5688,1010.6726 1133.9852,1009.5257 1135.4296,1008.0907 1135.5155,1007.6901 1134.8849,1007.2152 1134.2008,1007.5499 1131.8577,1007.5763 1131.7505,1007.593 1130.4228,1007.4221 1129.6547,1007.2933 1128.5377,1007.7653 1127.7598,1007.5475 1127.499,1006.3992 1126.1467,1005.5497 1124.6398,1006.1395 1123.7618,1006.9873 1122.54,1005.3344 1121.7142,1005.2977 1121.1979,1003.4089 1119.5948,1003.3482 1118.8325,1003.1854 1118.5243,1002.4464 1119.4843,1001.7404 1119.4061,1000.5018 1118.6527,998.12441 1117.4251,996.56455 1119.1409,995.51874 1122.0429,997.02111 1122.7894,996.79057 1123.1753,996.06524 1123.8188,996.15415 1124.1787,995.17709 1123.9782,994.89411 1121.6855,993.98974 1121.2875,993.31662 1120.9799,991.34739 1121.5414,990.7599 1120.9914,989.25654 1120.8687,988.97261 1120.7781,987.82459 1121.8835,987.60484 1122.2301,988.28876 1122.9279,988.65101 1125.2991,988.61681 1128.5874,989.99951 1129.4983,990.66651 1129.8601,990.55382 1130.2352,990.3955 1133.171,991.71508 1134.3701,990.6272 1135.0998,987.86988 1135.6829,987.3548 1137.2177,987.68552 1138.3448,987.379 1136.7996,985.21173 1135.2124,983.50898 1134.1357,983.69751 1132.628,982.44558 1133.4135,979.65649 1133.4694,979.45414 1134.0432,979.0401 1134.4285,977.59101 1135.099,977.27365 1135.1974,976.2771 1136.0094,974.5761 1136.7797,974.49228 1137.0662,973.36289 1136.5035,972.78021 1136.2528,971.58401 1136.4077,969.57574 1137.2438,969.08188 1137.9029,969.57992 1139.9591,969.70777 1143.53,970.8896 1145.5403,969.57657 1145.9325,968.4471 1147.4074,969.19433 1149.0649,969.31107 1149.9487,966.73808 1150.9908,966.13129 1152.4088,964.77551 1152.0263,963.61129 1150.9397,963.12957 1149.9872,962.91776 1147.7073,963.90787 1146.0637,964.09143 1144.4527,962.2134 1142.8863,961.88971 1141.7071,960.22382 1141.0121,961.07734 1138.6422,960.77669 1138.0178,961.17256 1136.8656,960.84596 1136.6,959.95114 1135.8933,959.72368 1135.3324,958.36928 1135.0986,957.3524 1134.7641,957.26359 1133.5161,957.04525 1131.684,956.05524 1131.3357,954.40974 1128.4758,952.58502 1128.2589,953.20701 1128.941,954.76311 1128.513,955.27008 1122.8339,953.36594 1122.4922,952.74013 1121.3118,952.49159 1120.9806,951.76592 1122.2408,950.80618 1123.0666,948.99512 1121.284,948.6465 1122.2296,943.62196 1121.85,942.39887 1122.703,939.98864 1122.9645,937.00748 1122.4639,931.75352 1123.3722,929.00124 1123.7716,928.31011 1122.6986,926.18606 1122.9683,925.01928 1122.357,924.54063 1122.4686,923.73804 1121.4059,922.52248 1121.5154,921.26111 1122.3025,919.30411 1123.0499,918.97311 1123.8682,919.13777 1123.2045,918.04106 1122.1275,917.36617 1121.2972,917.30104 1120.7479,917.93465 1119.9255,919.12345 1118.9193,920.9189 1117.8056,921.37338 1116.9066,922.23123 1115.689,922.34792 1114.6217,921.13417 1114.5704,921.87065 1115.6292,923.14911 1114.5094,923.43252 1113.294,922.47364 1111.8099,922.11164 1111.1343,921.80207 1110.811,920.31505 1110.196,920.54394 1109.1527,921.12334 1109.1021,921.52185 1107.8539,921.09819 1107.7014,920.439 1106.6488,920.07437 1106.497,920.43094 1105.3794,920.56006 1105.2095,920.90843 1104.7224,921.20877 1104.4992,921.00397 1104.4001,920.61626 1102.8166,920.45489 1102.6446,919.70309 1101.5578,919.19843 1101.1979,918.47045 1101.0296,918.84625 1101.8801,919.7215 1102.003,921.76381 1101.7358,922.54185 1101.4368,923.33845 1100.7375,927.63394 1101.1488,927.74514 1100.9129,929.23044 1100.5732,929.99261 1099.6194,931.23532 1098.2952,935.39069 1097.4056,937.59246 1095.4724,937.55753 1094.4984,938.66493 1091.0263,936.87674 1090.3704,937.34793 1089.2489,937.0543 1087.694,936.63483 1086.4656,934.55321 1086.4256,933.35038 1085.7182,932.93705 1085.6262,932.53331 1085.2237,932.41895 1085.0479,932.79963 1081.8798,931.77802 1080.7149,932.86294 1079.4781,932.64683 1079.8214,933.36515 1079.8081,935.15497 1077.8497,935.01844 1077.3792,935.65246 1077.369,936.46327 1076.5656,937.32248 1076.2223,938.10321 1076.5218,939.77408 1078.8487,942.14852 1079.271,942.1839 1079.9107,942.52734 1079.8501,944.43771 1079.67,945.18382 1078.4962,946.07767 1077.9466,946.68047 1076.8214,947.10616 1076.4031,947.79756 1076.7901,947.77143 1077.3855,948.75436 1077.096,949.68179 1076.3084,949.52217 1073.9933,950.29984 1072.9749,951.4675 1072.5707,951.41563 1072.5792,951.46547 1072.4415,953.13526 1071.4295,956.73857 1070.7277,956.65609 1069.2023,956.83134 1069.0095,957.17717 1069.2453,958.34355 1069.006,959.90268 1070.0052,960.2937 1070.0505,961.38287 1071.1573,961.88637 1070.8425,963.02935 1071.3801,964.12551 1071.5022,966.17098 1072.2006,965.85932 1072.6149,966.84028 1073.7363,966.60683 1073.735,966.66062 1075.882,967.70648 1076.7469,969.05141 1078.6911,968.66268 1079.628,969.88711 1078.1385,971.36577 1077.4846,972.88985 1077.984,973.97871 1077.9436,975.18417 1079.6508,975.03864 1080.1285,974.53777 1081.1322,974.80713 1080.4326,976.25693 1079.2142,976.35433 1079.5426,977.7501 1076.944,978.67627 1076.6017,978.87746 1076.3642,978.55993 1076.3302,976.57838 1075.9676,976.42428 1075.2976,976.83788 1074.9482,979.54279 1073.1411,980.10927 1072.4762,980.46813 1072.0684,981.90207 1074.4845,982.25034 1075.5117,982.88005 1076.3166,984.76167 1076.4866,986.38365 1076.7342,987.10559 1075.2909,988.35799 1074.2675,987.91779 1073.5462,987.04707 1073.3438,987.36958 1071.8776,987.72389 1071.526,988.74883 1068.3541,988.25968 1068.1992,988.76039 1068.453,989.80484 1068.2382,990.85853 1065.778,991.0664 1064.7678,991.63849 1063.7689,992.14015 1062.8077,991.58537 1061.2545,992.99177 1062.4866,995.18935 1062.2905,997.70125 1062.5274,997.85345 1064.1314,998.79182 1063.9868,999.14211 1064.4646,999.67892 1063.8911,1000.209 1062.9902,1002.7781 1062.3061,1003.2134 1061.1336,1003.2589 1060.629,1003.8846 1058.7583,1003.1719 1058.8021,1006.002 1058.0873,1007.4385 1058.2011,1008.2402 1061.7144,1008.4174 1062.4747,1009.3139 1063.2388,1009.3258 1064.5114,1010.7923 1065.2478,1010.9363 1065.2406,1014.0571 1065.1998,1015.0556 1065.9235,1016.3835 1065.8919,1018.2771 1066.003,1019.4205 1067.014,1019.8924 1069.713,1017.8106 1071.6813,1015.9384 1073.4692,1015.6405 1073.1085,1016.336 1076.1576,1015.8929 1077.001,1015.0747 1079.4538,1013.8423 1080.9584,1013.0978 1080.7441,1012.2568 1080.1576,1011.7259 1075.2163,1010.3543 1072.4645,1010.9218 1072.5719,1009.7692 1071.8488,1008.3944 1072.963,1006.8772 1071.5844,1006.0083 1070.7699,1006.0435 1072.7575,1003.6955 1072.7917,1003.3333 1073.9624,1002.5297 1074.3599,1000.9136 1074.2239,1000.0888 1074.934,998.58586 1077.2282,997.73362 1077.777,997.12668 1078.3989,997.15821 1079.3568,995.96037 1079.7434,996.00644 1080.1171,996.69322 1080.8922,996.75142 1082.3871,998.1181 1083.455,997.6108 1083.3663,998.66284 1083.0077,998.86476 1083.4428,1000.3939 1084.645,1000.5952 1085.9065,1001.639 1087.8855,1001.5076 1087.8377,1002.3138 1086.388,1003.6882 1083.9905,1004.1507 1083.6839,1006.1285 1082.6259,1007.3877 1082.9939,1008.3515 1081.6307,1009.2165 1081.1978,1009.8998 1080.7569,1012.2639 1080.9758,1013.0895 1082.0711,1013.0511 1083.3182,1012.3205 1084.3679,1011.6493 1087.0085,1010.4323 1088.3641,1013.289 1089.2106,1013.3072 1091.1721,1013.7091 1094.5708,1011.3182 1094.8881,1010.1899 1096.0077,1009.6344 1096.2121,1009.7214 1096.5511,1010.4239 1096.3198,1011.5491 1095.932,1012.6367 1094.6323,1013.5269 z">
      <title id="t103">Troisième circonscription de la Drôme</title>
      <desc id="d103">Cantons de: Bourdeaux, Buis-les-Baronnies, Chabeuil, La Chapelle-en-Vercors, Châtillon-en-Diois, Crest Nord, Crest Sud, Die, Dieulefit, Grignan, Luc-en-Diois, La Motte-Chalancon, Nyons, Rémuzat, Saillans, Saint-Jean-en-Royans, Saint-Paul-Trois-Châteaux, Séderon., Commune d'Ambonil</desc>
    </path><path class="circo" id="id-026-04" d="M 1085.2237,932.41895 1085.0479,932.79963 1081.8798,931.77802 1080.7149,932.86294 1079.4781,932.64683 1078.8459,932.70245 1080.4213,931.02157 1080.1045,929.50049 1079.3675,929.20388 1078.7587,928.69499 1077.9555,928.80485 1077.1458,929.70383 1075.6161,929.84155 1074.3053,928.82131 1072.4087,930.44457 1070.0311,929.63461 1070.8086,928.36601 1071.878,927.90863 1072.2196,927.15463 1073.8261,926.89555 1074.4258,925.83916 1075.6244,926.08169 1077.0499,925.3002 1077.1526,924.89878 1076.4075,924.55867 1076.175,923.82175 1077.6199,923.06443 1078.7358,922.78546 1081.2162,923.85652 1081.4419,920.51181 1080.0811,920.54346 1077.5755,921.40105 1077.2816,921.44906 1076.85,919.84631 1076.2132,919.37969 1076.4642,916.75985 1075.1857,916.08218 1074.5381,916.17911 1073.6638,914.73604 1074.4446,914.63451 1074.4798,913.851 1073.9552,910.39609 1072.9237,909.87954 1070.5441,911.27809 1069.9022,910.88416 1069.6149,910.72328 1069.4272,909.91775 1068.4531,909.1437 1067.3006,908.96482 1066.908,908.34666 1065.8661,907.86432 1065.7304,906.69817 1065.8532,905.63336 1065.3578,904.66935 1065.3597,903.96757 1065.8976,903.07704 1065.1326,900.62511 1064.9988,898.12366 1065.6118,896.57173 1065.7088,895.65053 1065.677,895.28542 1065.6665,893.08842 1064.9019,891.79867 1065.6429,891.5055 1069.858,890.51847 1069.8425,891.7797 1071.5563,891.87698 1073.62,890.36896 1075.7553,888.85311 1077.4528,888.14572 1078.2682,888.04936 1080.0112,887.01249 1081.0228,886.28314 1082.6808,886.49526 1083.6154,889.26921 1084.6579,889.41246 1086.3482,889.305 1086.8849,889.95388 1087.631,892.13219 1088.1137,893.62713 1088.2708,893.79554 1089.3857,893.26143 1091.033,893.06921 1091.7514,892.65092 1092.1452,891.92362 1093.3666,891.80858 1093.6578,892.03093 1092.9643,893.57277 1092.2472,898.19091 1093.8518,898.21373 1094.8744,896.87894 1095.6765,898.03637 1096.8668,897.83318 1097.5092,899.73113 1099.0065,901.57522 1096.9977,901.66391 1096.091,902.45183 1095.9351,903.64187 1096.2916,904.34597 1096.8023,905.93317 1097.8792,907.2035 1097.9562,908.02117 1098.0731,909.19168 1097.4947,909.72394 1097.9812,910.79366 1097.8641,912.3284 1097.7464,913.30279 1096.6559,915.09097 1095.7068,915.91625 1095.1269,917.79933 1093.6719,918.13267 1093.2969,918.77619 1093.6192,919.00513 1094.2854,918.583 1095.6852,919.87242 1096.3907,919.47995 1097.2122,917.65944 1100.004,917.80463 1100.9153,918.14592 1101.1979,918.47045 1101.0296,918.84625 1101.8801,919.7215 1102.003,921.76381 1101.7358,922.54185 1101.4368,923.33845 1100.7375,927.63394 1101.1488,927.74514 1100.9129,929.23044 1100.5732,929.99261 1099.6194,931.23532 1098.2952,935.39069 1097.4056,937.59246 1095.4724,937.55753 1094.4984,938.66493 1091.0263,936.87674 1090.3704,937.34793 1089.2489,937.0543 1087.694,936.63483 1086.4656,934.55321 1086.4256,933.35038 1085.7182,932.93705 1085.6262,932.53331 1085.2237,932.41895 z">
      <title id="t104">Quatrième circonscription de la Drôme</title>
      <desc id="d104">Cantons de : Bourg-de-Péage, Le Grand-Serre, Romans-Isère I, Romans-sur-Isère II, Saint-Donat-sur-l'Herbasse, Saint-Vallier.</desc>
    </path></svg>