<svg xmlns="http://www.w3.org/2000/svg" version="1.1" xmlns:xlink="http://www.w3.org/1999/xlink" xmlns:svgjs="http://svgjs.dev/svgjs" viewBox="0 0 100.56809999999996 146.96875999999997"><path class="circo" id="id-026-01" d="M25.440900000000056 35.16592000000003L25.00929999999994 33.563170000000014L24.372499999999945 33.09654999999998L24.623499999999922 30.476710000000026L23.345000000000027 29.79903999999999L22.697400000000016 29.895970000000034L21.823100000000068 28.4529L22.603900000000067 28.351369999999974L22.6391000000001 27.567859999999996L22.114500000000135 24.112949999999955L21.083000000000084 23.596400000000017L18.7034000000001 24.994950000000017L18.061500000000024 24.60101999999995L17.774200000000064 24.440140000000042L17.586500000000115 23.634609999999952L16.61239999999998 22.860559999999964L15.459900000000061 22.68168000000003L15.448100000000068 22.909379999999942L13.370400000000018 25.678030000000035L13.345000000000027 25.936829999999986L13.36239999999998 26.737999999999943L14.276100000000042 28.064110000000028L15.14630000000011 28.96390999999994L15.535000000000082 29.684399999999982L15.60850000000005 31.368000000000052L15.383600000000115 32.02637000000004L15.49739999999997 32.71307999999999L16.06490000000008 33.26396999999997L17.574499999999944 33.80120999999997L18.182800000000043 34.80939999999998L17.617999999999938 35.91332L16.58490000000006 36.91722000000004L16.41059999999993 38.006129999999985L16.76870000000008 38.66555000000005L16.879000000000133 39.07646999999997L16.139499999999998 40.57298000000003L16.631200000000035 41.23743999999999L17.428100000000086 42.23046999999997L17.48739999999998 43.93551000000002L17.531400000000076 44.13139000000001L18.161000000000058 45.61575000000005L19.33290000000011 46.71902L19.935500000000047 48.13196000000005L20.379500000000007 49.086779999999976L19.0616 51.53895L18.85329999999999 52.33389999999997L17.913299999999936 53.13968999999997L17.63689999999997 53.90373999999997L19.64949999999999 54.236710000000016L20.00019999999995 54.97664999999995L22.407799999999952 54.720249999999965L22.898799999999937 54.01136999999994L23.91969999999992 53.39757999999995L24.681100000000015 53.49094000000002L24.381599999999935 51.82006999999999L24.724899999999934 51.03934000000004L25.528299999999945 50.18012999999996L25.538500000000113 49.369320000000016L26.009000000000015 48.73530000000005L27.967399999999998 48.871830000000045L27.98070000000007 47.08200999999997L27.63740000000007 46.36369000000002L27.00520000000006 46.419309999999996L28.580600000000004 44.738429999999994L28.263799999999947 43.21735000000001L27.526800000000094 42.92074000000002L26.91800000000012 42.41184999999996L26.11480000000006 42.521709999999985L25.30510000000004 43.420690000000036L23.77539999999999 43.55840999999998L22.46460000000002 42.53817000000004L20.567999999999984 44.161429999999996L18.190399999999954 43.35146999999995L18.9679000000001 42.08286999999996L20.03729999999996 41.62549000000001L20.37889999999993 40.871489999999994L21.985400000000027 40.612409999999954L22.58510000000001 39.55601999999999L23.783699999999953 39.79854999999998L25.20920000000001 39.017060000000015L25.311899999999923 38.615639999999985L24.566800000000057 38.27553L24.334299999999985 37.53860999999995L25.779199999999946 36.78129000000001L26.895099999999957 36.50231999999994L29.375500000000102 37.57338000000004L29.601200000000063 34.228669999999966L28.240400000000136 34.26031999999998L25.73479999999995 35.11791000000005L25.440900000000056 35.16592000000003z">
      <title id="t101">Première circonscription de la Drôme</title>
      <desc id="d101">Cantons de : Bourg-lès-Valence, Tain-l'Hermitage, Valence I, Valence II, Valence III, Valence IV</desc>
    </path><path class="circo" id="id-026-02" d="M17.165300000000116 73.61954000000003L17.404600000000073 72.06041000000005L17.16879999999992 70.89403000000004L17.361599999999953 70.54819999999995L18.886999999999944 70.37294999999995L19.588799999999992 70.45542999999998L20.600799999999936 66.85212000000001L20.73849999999993 65.18232999999998L20.730000000000018 65.13248999999996L21.134199999999964 65.18435999999997L22.15260000000012 64.01670000000001L24.467699999999923 63.23902999999996L25.255300000000034 63.398649999999975L25.544800000000123 62.47122000000002L24.94939999999997 61.488290000000006L24.562400000000025 61.51441999999997L24.98070000000007 60.82302000000004L26.10590000000002 60.39733000000001L26.655500000000075 59.79453000000001L27.829300000000103 58.900679999999966L28.00940000000014 58.154570000000035L28.069999999999936 56.24419999999998L27.43029999999999 55.90075999999999L27.008000000000038 55.86537999999996L24.681100000000015 53.49094000000002L23.91969999999992 53.39757999999995L22.898799999999937 54.01136999999994L22.407799999999952 54.720249999999965L20.00019999999995 54.97664999999995L19.64949999999999 54.236710000000016L17.63689999999997 53.90373999999997L18.228200000000015 56.09916999999996L17.844299999999976 57.13900000000001L17.26800000000003 57.70977000000005L16.754699999999957 58.80907000000002L16.769400000000132 60.027360000000044L16.176799999999957 60.52524000000005L15.001099999999951 60.74401999999998L14.74310000000014 61.85853999999995L14.84550000000013 63.39349000000004L13.731700000000046 63.70551999999998L13.04320000000007 63.999450000000024L13.103399999999965 64.75941999999998L12.78390000000013 64.99914999999999L12.639699999999948 66.19011999999998L11.629200000000083 67.38376000000005L10.17470000000003 68.01954999999998L9.769700000000057 68.63815L9.707499999999982 68.92348000000004L10.411399999999958 70.31609000000003L9.577199999999948 71.64581999999996L9.972700000000032 73.61284L9.96140000000014 73.97358999999994L9.977800000000116 75.64808000000005L10.636400000000094 76.72815000000003L11.454300000000103 79.97463000000005L11.507000000000062 80.73046L11.042000000000144 81.75966000000005L11.240400000000136 82.86063999999999L10.715799999999945 84.30241999999998L9.456699999999955 85.72311000000002L8.975300000000061 87.13313000000005L7.953500000000076 89.10816999999997L8.276200000000017 89.28724999999997L8.018399999999929 90.73378000000002L7.3125 91.07824000000005L5.4430999999999585 91.54237999999998L5.063300000000027 92.22082L4.9202000000000226 93.74762999999996L4.156799999999976 93.80096000000003L3.876899999999978 95.77565000000004L4.77170000000001 97.01810999999998L5.078999999999951 97.25994000000003L4.784900000000107 98.39376000000004L3.9325000000001182 99.33069999999998L3.488900000000058 100.97190999999998L3.6192000000000917 102.23333000000002L4.479600000000119 103.69479999999999L4.5538000000001375 104.96860000000004L4.11850000000004 107.77828L3.6083000000000993 108.40727000000004L2.477000000000089 108.86108999999999L1.7228999999999814 109.66936999999996L1.378400000000056 112.39338999999995L1.4906000000000859 113.35460999999998L0.1893000000000029 116.43186000000003L0 119.37905999999998L0.2339999999999236 121.04905999999994L0.32110000000011496 121.57515999999998L2.809099999999944 122.65805999999998L5.625400000000127 122.66315999999995L5.6426000000001295 122.26436000000001L6.360400000000027 121.95705999999996L6.246599999999944 121.15535999999997L6.96140000000014 119.71885999999995L6.917599999999993 116.88876000000005L8.788299999999936 117.60145999999997L9.292899999999918 116.97576000000004L10.465400000000045 116.93025999999998L11.149499999999989 116.49495999999999L12.050400000000081 113.92585999999994L12.623900000000049 113.39577999999995L12.146099999999933 112.85897L12.290700000000015 112.50868000000003L10.686699999999973 111.57030999999995L10.449800000000096 111.41810999999996L10.645899999999983 108.90620999999999L9.413800000000037 106.70862999999997L10.967000000000098 105.30223000000001L11.92820000000006 105.85700999999995L12.92710000000011 105.35535000000004L13.93730000000005 104.78326000000004L16.397500000000036 104.57538999999997L16.612300000000005 103.52170000000001L16.35850000000005 102.47725000000003L16.513400000000047 101.97654L19.685300000000097 102.46569L20.03690000000006 101.44074999999998L21.50310000000013 101.08644000000004L21.70550000000003 100.76392999999996L22.426799999999957 101.63464999999997L23.450199999999995 102.07484999999997L24.89350000000013 100.82245L24.645899999999983 100.10050999999999L24.475900000000138 98.47852999999998L23.67100000000005 96.59690999999998L22.643800000000056 95.96720000000005L20.22770000000014 95.61892999999998L20.635500000000093 94.18498999999997L21.30040000000008 93.82613000000003L23.107500000000073 93.25964999999997L23.456900000000132 90.55474000000004L24.126899999999978 90.14113999999995L24.489500000000135 90.29524000000004L24.523500000000013 92.27679L24.760999999999967 92.59432000000004L25.10329999999999 92.39313000000004L27.701900000000023 91.46695999999997L27.373499999999922 90.07119L28.591900000000123 89.97379000000001L29.291500000000042 88.52399000000003L28.28780000000006 88.25463000000002L27.81009999999992 88.75549999999998L26.10290000000009 88.90102999999999L26.143299999999954 87.69556999999998L25.64390000000003 86.60671000000002L26.297800000000052 85.08263L27.78729999999996 83.60397L26.850400000000036 82.37954000000002L24.906200000000126 82.76827000000003L24.041300000000092 81.42334000000005L21.89429999999993 80.37747999999999L21.89560000000006 80.32368999999994L20.774200000000064 80.55714L20.359899999999925 79.57618000000002L19.661499999999933 79.88783999999998L19.539400000000114 77.84236999999996L19.001800000000003 76.74621000000002L19.316600000000108 75.60323000000005L18.209800000000087 75.09973000000002L18.16450000000009 74.01055999999994L17.165300000000116 73.61954000000003z">
      <title id="t102">Deuxième circonscription de la Drôme</title>
      <desc id="d102">Cantons de : Loriol-sur-Drôme (moins la commune d'Ambonil), Marsanne, Montélimar I, Montélimar II, Pierrelatte, Portes-lès-Valence</desc>
    </path><path class="circo" id="id-026-03" d="M42.79160000000002 127.24375999999995L42.55400000000009 128.77666L43.66520000000014 129.19826L43.75160000000005 131.57515999999998L42.92419999999993 132.43935999999997L42.77060000000006 132.80366000000004L44.29269999999997 133.98195999999996L44.94659999999999 134.50846L47.766000000000076 135.27256L50.26299999999992 135.41366000000005L50.45820000000003 133.32686L51.14580000000001 133.29206L51.82349999999997 133.41836L53.87709999999993 134.63536L55.800700000000006 136.34346000000005L55.8284000000001 135.93956000000003L57.05009999999993 135.94016L58.557199999999966 136.47176000000002L60.262699999999995 135.37026000000003L62.037500000000136 136.37415999999996L62.705600000000004 136.84166000000005L62.59159999999997 137.09335999999996L62.42949999999996 137.88606000000004L62.88580000000002 139.4401600000001L62.59609999999998 142.28266000000008L63.761400000000094 142.63175999999999L65.36660000000006 142.3576599999999L66.36290000000008 143.0090600000001L67.05999999999995 142.64236000000005L67.28210000000013 144.23435999999992L68.0643 144.4773600000001L68.22939999999994 145.9764600000001L68.67160000000013 146.5532599999999L72.41779999999994 146.96875999999997L73.16820000000007 146.72705999999994L73.46350000000007 145.99335999999994L76.10339999999997 144.8911599999999L76.88280000000009 142.99856L76.88429999999994 142.95056L78.50700000000006 143.07276000000002L79.42200000000003 142.29826000000003L79.3864000000001 141.89056000000005L77.99279999999999 140.43216000000007L78.96540000000005 138.6195600000001L79.29590000000007 138.3677600000001L80.53320000000008 138.46496000000002L81.19560000000001 137.99036L81.8139000000001 138.08456L82.46230000000014 139.51736000000005L83.55189999999993 140.05425999999989L84.31880000000001 140.97975999999994L83.66769999999997 142.84015999999997L84.8614 143.0732599999999L87.70270000000005 143.37095999999997L88.05320000000006 141.31096000000002L84.91679999999997 140.84176000000002L84.75240000000008 140.47666000000004L85.40660000000003 138.21856000000002L87.24289999999996 138.28176000000008L87.48440000000005 137.99856L88.2659000000001 137.73155999999994L88.32470000000012 137.31715999999994L87.54269999999997 135.39286000000004L87.9176 133.34276L87.19600000000014 131.56575999999995L87.33269999999993 130.35636L88.3868 129.14486L87.44810000000007 127.97946000000002L84.99759999999992 129.02355999999997L84.89779999999996 128.21615999999995L83.79320000000007 127.05205999999998L83.8252 126.24995999999999L84.43920000000003 125.86415999999997L83.89409999999998 125.01156000000003L83.17399999999998 124.80456000000004L82.38599999999997 124.00166000000002L81.72810000000004 124.38945999999999L82.14450000000011 123.24256000000003L83.58889999999997 121.80755999999997L83.6748 121.40696000000003L83.04420000000005 120.93205999999998L82.3601000000001 121.26675999999998L80.01700000000005 121.29315999999994L79.90980000000013 121.30985999999996L78.58210000000008 121.13896L77.81400000000008 121.01016000000004L76.69700000000012 121.48216000000002L75.91910000000007 121.26436000000001L75.65830000000005 120.11605999999995L74.30600000000004 119.26656000000003L72.79909999999995 119.85636L71.92110000000002 120.70416L70.6993 119.05125999999996L69.87349999999992 119.01455999999996L69.35719999999992 117.12576000000001L67.75410000000011 117.06506000000002L66.99180000000001 116.90225999999996L66.68360000000007 116.16326000000004L67.6436000000001 115.45726000000002L67.56539999999995 114.21866L66.81200000000013 111.84127000000001L65.58439999999996 110.28141000000005L67.30020000000013 109.23559999999998L70.20219999999995 110.73797000000002L70.94869999999992 110.50743L71.33460000000014 109.78210000000001L71.97810000000004 109.87100999999996L72.33799999999997 108.89395000000002L72.13750000000005 108.61096999999995L69.84480000000008 107.70659999999998L69.44679999999994 107.03347999999994L69.13920000000007 105.06425000000002L69.7007000000001 104.47676000000001L69.15070000000014 102.97339999999997L69.02800000000002 102.68947000000003L68.93740000000003 101.54144999999994L70.04279999999994 101.32169999999996L70.38940000000002 102.00562000000002L71.08719999999994 102.36787000000004L73.45839999999998 102.33366999999998L76.74669999999992 103.71636999999998L77.6576 104.38337000000001L78.01940000000013 104.27067999999997L78.39450000000011 104.11235999999997L81.33030000000008 105.43193999999994L82.52940000000012 104.34406000000001L83.25909999999999 101.58673999999996L83.84220000000005 101.07165999999995L85.37699999999995 101.40238L86.50410000000011 101.09586000000002L84.95890000000009 98.92858999999999L83.37169999999992 97.22583999999995L82.29500000000007 97.41436999999996L80.78729999999996 96.16243999999995L81.57280000000014 93.37334999999996L81.62869999999998 93.17100000000005L82.2025000000001 92.75696000000005L82.58780000000002 91.30786999999998L83.25829999999996 90.99050999999997L83.35670000000005 89.99396000000002L84.16869999999994 88.29296L84.93900000000008 88.20914000000005L85.22550000000001 87.07974999999999L84.66280000000006 86.49707000000001L84.41210000000001 85.30087000000003L84.56700000000001 83.2926L85.4031 82.79873999999995L86.06220000000008 83.29678000000001L88.11840000000007 83.42462999999998L91.6893 84.60645999999997L93.69959999999992 83.29342999999994L94.09179999999992 82.16395999999997L95.56670000000008 82.91119000000003L97.22420000000011 83.02792999999997L98.10799999999995 80.45493999999997L99.15010000000007 79.84815000000003L100.56809999999996 78.49237000000005L100.18560000000002 77.32815000000005L99.09899999999993 76.84642999999994L98.14650000000006 76.63462000000004L95.86660000000006 77.62473L94.22299999999996 77.80828999999994L92.61200000000008 75.93025999999998L91.04559999999992 75.60657000000003L89.86640000000011 73.94068000000004L89.17139999999995 74.79420000000005L86.80150000000003 74.49355000000003L86.17710000000011 74.88941999999997L85.02490000000012 74.56281999999999L84.75929999999994 73.668L84.05259999999998 73.44053999999994L83.49170000000004 72.08614L83.25790000000006 71.06925999999999L82.92340000000013 70.98045000000002L81.67540000000008 70.76211L79.8433 69.77210000000002L79.49500000000012 68.12660000000005L76.63509999999997 66.30187999999998L76.41820000000007 66.92386999999997L77.10030000000006 68.47996999999998L76.67229999999995 68.98694L70.99320000000012 67.08280000000002L70.65149999999994 66.45699000000002L69.47109999999998 66.20844999999997L69.13990000000013 65.48278000000005L70.40010000000007 64.52304000000004L71.22590000000014 62.71198000000004L69.44330000000014 62.36335999999994L70.38889999999992 57.33881999999994L70.00929999999994 56.115729999999985L70.8623 53.70550000000003L71.12380000000007 50.724339999999984L70.6232 45.47037999999998L71.53150000000005 42.71810000000005L71.93090000000007 42.026970000000006L70.85789999999997 39.902919999999995L71.12760000000003 38.73613999999998L70.5163 38.25748999999996L70.62789999999995 37.45489999999995L69.5652 36.23933999999997L69.67470000000003 34.97797000000003L70.46180000000004 33.020970000000034L71.20920000000001 32.68997000000002L72.02749999999992 32.85463000000004L71.36380000000008 31.757920000000013L70.28680000000008 31.083030000000008L69.4565 31.01789999999994L68.9072000000001 31.65151000000003L68.08480000000009 32.840310000000045L67.07860000000005 34.635760000000005L65.96489999999994 35.090239999999994L65.06590000000006 35.94808999999998L63.84830000000011 36.06478000000004L62.78099999999995 34.85103000000004L62.72970000000009 35.58750999999995L63.78850000000011 36.86596999999995L62.668699999999944 37.14937999999995L61.45330000000013 36.19050000000004L59.9692 35.82849999999996L59.29359999999997 35.518929999999955L58.97029999999995 34.03191000000004L58.35529999999994 34.26080000000002L57.312000000000126 34.84019999999998L57.261400000000094 35.23870999999997L56.0132000000001 34.81505000000004L55.86069999999995 34.15585999999996L54.80809999999997 33.79123000000004L54.6563000000001 34.14779999999996L53.53870000000006 34.27692000000002L53.368799999999965 34.62528999999995L52.88170000000014 34.925629999999956L52.658500000000004 34.72082999999998L52.559400000000096 34.33312000000001L50.97590000000014 34.171749999999975L50.80390000000011 33.41994999999997L49.71710000000007 32.91529000000003L49.35719999999992 32.187310000000025L49.1889000000001 32.56311000000005L50.039400000000114 33.43835999999999L50.16229999999996 35.48067000000003L49.89509999999996 36.25870999999995L49.59609999999998 37.05530999999996L48.896799999999985 41.35080000000005L49.30809999999997 41.46199999999999L49.072200000000066 42.94730000000004L48.73250000000007 43.70947000000001L47.77870000000007 44.95218L46.45450000000005 49.10754999999995L45.56490000000008 51.30931999999996L43.63170000000014 51.27439000000004L42.65769999999998 52.381790000000024L39.18560000000002 50.59360000000004L38.52970000000005 51.064790000000016L37.40820000000008 50.77116000000001L35.85329999999999 50.35168999999996L34.624900000000025 48.27007000000003L34.58490000000006 47.06723999999997L33.877500000000055 46.653909999999996L33.785499999999956 46.250170000000026L33.38300000000004 46.13580999999999L33.20720000000006 46.516489999999976L30.039099999999962 45.49487999999997L28.874199999999973 46.57979999999998L27.63740000000007 46.36369000000002L27.98070000000007 47.08200999999997L27.967399999999998 48.871830000000045L26.009000000000015 48.73530000000005L25.538500000000113 49.369320000000016L25.528299999999945 50.18012999999996L24.724899999999934 51.03934000000004L24.381599999999935 51.82006999999999L24.681100000000015 53.49094000000002L27.008000000000038 55.86537999999996L27.43029999999999 55.90075999999999L28.069999999999936 56.24419999999998L28.00940000000014 58.154570000000035L27.829300000000103 58.900679999999966L26.655500000000075 59.79453000000001L26.10590000000002 60.39733000000001L24.98070000000007 60.82302000000004L24.562400000000025 61.51441999999997L24.94939999999997 61.488290000000006L25.544800000000123 62.47122000000002L25.255300000000034 63.398649999999975L24.467699999999923 63.23902999999996L22.15260000000012 64.01670000000001L21.134199999999964 65.18435999999997L20.730000000000018 65.13248999999996L20.73849999999993 65.18232999999998L20.600799999999936 66.85212000000001L19.588799999999992 70.45542999999998L18.886999999999944 70.37294999999995L17.361599999999953 70.54819999999995L17.16879999999992 70.89403000000004L17.404600000000073 72.06041000000005L17.165300000000116 73.61954000000003L18.16450000000009 74.01055999999994L18.209800000000087 75.09973000000002L19.316600000000108 75.60323000000005L19.001800000000003 76.74621000000002L19.539400000000114 77.84236999999996L19.661499999999933 79.88783999999998L20.359899999999925 79.57618000000002L20.774200000000064 80.55714L21.89560000000006 80.32368999999994L21.89429999999993 80.37747999999999L24.041300000000092 81.42334000000005L24.906200000000126 82.76827000000003L26.850400000000036 82.37954000000002L27.78729999999996 83.60397L26.297800000000052 85.08263L25.64390000000003 86.60671000000002L26.143299999999954 87.69556999999998L26.10290000000009 88.90102999999999L27.81009999999992 88.75549999999998L28.28780000000006 88.25463000000002L29.291500000000042 88.52399000000003L28.591900000000123 89.97379000000001L27.373499999999922 90.07119L27.701900000000023 91.46695999999997L25.10329999999999 92.39313000000004L24.760999999999967 92.59432000000004L24.523500000000013 92.27679L24.489500000000135 90.29524000000004L24.126899999999978 90.14113999999995L23.456900000000132 90.55474000000004L23.107500000000073 93.25964999999997L21.30040000000008 93.82613000000003L20.635500000000093 94.18498999999997L20.22770000000014 95.61892999999998L22.643800000000056 95.96720000000005L23.67100000000005 96.59690999999998L24.475900000000138 98.47852999999998L24.645899999999983 100.10050999999999L24.89350000000013 100.82245L23.450199999999995 102.07484999999997L22.426799999999957 101.63464999999997L21.70550000000003 100.76392999999996L21.50310000000013 101.08644000000004L20.03690000000006 101.44074999999998L19.685300000000097 102.46569L16.513400000000047 101.97654L16.35850000000005 102.47725000000003L16.612300000000005 103.52170000000001L16.397500000000036 104.57538999999997L13.93730000000005 104.78326000000004L12.92710000000011 105.35535000000004L11.92820000000006 105.85700999999995L10.967000000000098 105.30223000000001L9.413800000000037 106.70862999999997L10.645899999999983 108.90620999999999L10.449800000000096 111.41810999999996L10.686699999999973 111.57030999999995L12.290700000000015 112.50868000000003L12.146099999999933 112.85897L12.623900000000049 113.39577999999995L12.050400000000081 113.92585999999994L11.149499999999989 116.49495999999999L10.465400000000045 116.93025999999998L9.292899999999918 116.97576000000004L8.788299999999936 117.60145999999997L6.917599999999993 116.88876000000005L6.96140000000014 119.71885999999995L6.246599999999944 121.15535999999997L6.360400000000027 121.95705999999996L9.873700000000099 122.13426000000004L10.634000000000015 123.03075999999999L11.398100000000113 123.04265999999996L12.670700000000124 124.50915999999995L13.407100000000128 124.65315999999996L13.399900000000116 127.77395999999999L13.359100000000126 128.77246000000002L14.082800000000134 130.10036000000002L14.051200000000108 131.99396000000002L14.16229999999996 133.13735999999994L15.173299999999927 133.60925999999995L17.872299999999996 131.52746000000002L19.840599999999995 129.65526L21.62850000000003 129.35735999999997L21.26780000000008 130.05286L24.316900000000032 129.60976000000005L25.160300000000007 128.79156L27.61310000000003 127.55916000000002L29.117700000000013 126.81466L28.90339999999992 125.97366L28.316900000000032 125.44276000000002L23.375600000000077 124.07115999999996L20.623800000000074 124.63865999999996L20.731199999999944 123.48605999999995L20.008100000000013 122.11126000000002L21.122299999999996 120.59406000000001L19.74369999999999 119.72515999999996L18.929200000000037 119.76035999999999L20.916799999999967 117.41236000000004L20.951000000000022 117.05016L22.12169999999992 116.24656000000004L22.519199999999955 114.63045999999997L22.383199999999988 113.80565999999999L23.0933 112.30272000000002L25.387500000000045 111.45047999999997L25.936300000000074 110.84353999999996L26.558199999999943 110.87507000000005L27.51610000000005 109.67723000000001L27.902700000000095 109.7233L28.276399999999967 110.41008L29.051500000000033 110.46828000000005L30.54639999999995 111.83496000000002L31.614299999999957 111.32766000000004L31.52559999999994 112.37969999999996L31.167000000000144 112.58162000000004L31.602100000000064 114.11076000000003L32.80430000000001 114.31205999999997L34.06580000000008 115.35586L36.04480000000012 115.22446000000002L35.99700000000007 116.03066000000001L34.54729999999995 117.40506000000005L32.14980000000014 117.86756000000003L31.843200000000024 119.84536000000003L30.78520000000003 121.10455999999999L31.15319999999997 122.06835999999998L29.789999999999964 122.93336L29.357099999999946 123.61666000000002L28.916200000000117 125.98076000000003L29.135099999999966 126.80636000000004L30.230399999999918 126.76796000000002L31.477499999999964 126.03736000000004L32.52719999999999 125.36616000000004L35.16779999999994 124.14916000000005L36.52340000000004 127.00585999999998L37.36990000000014 127.02405999999996L39.33140000000003 127.42596000000003L42.73009999999999 125.03506000000004L43.047399999999925 123.90675999999996L44.167000000000144 123.35126000000002L44.371399999999994 123.43826000000001L44.710399999999936 124.14076L44.47910000000002 125.26595999999995L44.09130000000005 126.35356000000002L42.79160000000002 127.24375999999995z">
      <title id="t103">Troisième circonscription de la Drôme</title>
      <desc id="d103">Cantons de: Bourdeaux, Buis-les-Baronnies, Chabeuil, La Chapelle-en-Vercors, Châtillon-en-Diois, Crest Nord, Crest Sud, Die, Dieulefit, Grignan, Luc-en-Diois, La Motte-Chalancon, Nyons, Rémuzat, Saillans, Saint-Jean-en-Royans, Saint-Paul-Trois-Châteaux, Séderon., Commune d'Ambonil</desc>
    </path><path class="circo" id="id-026-04" d="M33.38300000000004 46.13580999999999L33.20720000000006 46.516489999999976L30.039099999999962 45.49487999999997L28.874199999999973 46.57979999999998L27.63740000000007 46.36369000000002L27.00520000000006 46.419309999999996L28.580600000000004 44.738429999999994L28.263799999999947 43.21735000000001L27.526800000000094 42.92074000000002L26.91800000000012 42.41184999999996L26.11480000000006 42.521709999999985L25.30510000000004 43.420690000000036L23.77539999999999 43.55840999999998L22.46460000000002 42.53817000000004L20.567999999999984 44.161429999999996L18.190399999999954 43.35146999999995L18.9679000000001 42.08286999999996L20.03729999999996 41.62549000000001L20.37889999999993 40.871489999999994L21.985400000000027 40.612409999999954L22.58510000000001 39.55601999999999L23.783699999999953 39.79854999999998L25.20920000000001 39.017060000000015L25.311899999999923 38.615639999999985L24.566800000000057 38.27553L24.334299999999985 37.53860999999995L25.779199999999946 36.78129000000001L26.895099999999957 36.50231999999994L29.375500000000102 37.57338000000004L29.601200000000063 34.228669999999966L28.240400000000136 34.26031999999998L25.73479999999995 35.11791000000005L25.440900000000056 35.16592000000003L25.00929999999994 33.563170000000014L24.372499999999945 33.09654999999998L24.623499999999922 30.476710000000026L23.345000000000027 29.79903999999999L22.697400000000016 29.895970000000034L21.823100000000068 28.4529L22.603900000000067 28.351369999999974L22.6391000000001 27.567859999999996L22.114500000000135 24.112949999999955L21.083000000000084 23.596400000000017L18.7034000000001 24.994950000000017L18.061500000000024 24.60101999999995L17.774200000000064 24.440140000000042L17.586500000000115 23.634609999999952L16.61239999999998 22.860559999999964L15.459900000000061 22.68168000000003L15.067299999999932 22.06352000000004L14.02539999999999 21.581180000000018L13.889699999999948 20.41503L14.012500000000045 19.350220000000036L13.517100000000028 18.386210000000005L13.519000000000005 17.68443000000002L14.056900000000041 16.793900000000008L13.291899999999941 14.341969999999947L13.158100000000104 11.84051999999997L13.771099999999933 10.28859L13.86810000000014 9.36739L13.836299999999937 9.002280000000042L13.825800000000072 6.805280000000039L13.061200000000099 5.5155300000000125L13.802200000000084 5.222359999999981L18.017299999999977 4.235329999999976L18.001800000000003 5.496560000000045L19.715599999999995 5.59384L21.77929999999992 4.085820000000012L23.914600000000064 2.569970000000012L25.612100000000055 1.86257999999998L26.42750000000001 1.7662199999999757L28.170499999999947 0.729349999999954L29.18209999999999 0L30.84010000000012 0.21212000000002718L31.77469999999994 2.9860700000000406L32.81719999999996 3.129320000000007L34.507499999999936 3.021859999999947L35.044200000000046 3.6707400000000234L35.790300000000116 5.849050000000034L36.27300000000014 7.3439899999999625L36.43010000000004 7.512399999999957L37.54500000000007 6.978290000000015L39.19229999999993 6.786069999999995L39.91070000000013 6.367780000000039L40.30449999999996 5.640480000000025L41.52590000000009 5.525440000000003L41.81709999999998 5.747790000000009L41.123600000000124 7.289629999999988L40.40650000000005 11.907770000000028L42.01109999999994 11.930590000000052L43.03369999999995 10.59579999999994L43.83580000000006 11.75323000000003L45.02610000000004 11.550039999999967L45.668499999999995 13.447990000000004L47.16579999999999 15.292079999999942L45.156999999999925 15.380769999999984L44.250299999999925 16.16868999999997L44.09439999999995 17.358730000000037L44.45090000000005 18.062829999999963L44.96160000000009 19.650030000000015L46.03850000000011 20.92035999999996L46.11550000000011 21.73802999999998L46.2324000000001 22.908540000000016L45.653999999999996 23.440799999999967L46.140499999999975 24.510520000000042L46.02340000000004 26.045259999999985L45.905700000000024 27.019649999999956L44.815200000000004 28.807829999999967L43.86609999999996 29.633109999999988L43.28620000000001 31.51619000000005L41.83120000000008 31.84952999999996L41.45620000000008 32.49305000000004L41.77850000000012 32.721990000000005L42.44470000000001 32.29985999999997L43.844499999999925 33.58928000000003L44.549999999999955 33.19681000000003L45.37149999999997 31.376300000000015L48.163299999999936 31.52148999999997L49.07459999999992 31.862780000000043L49.35719999999992 32.187310000000025L49.1889000000001 32.56311000000005L50.039400000000114 33.43835999999999L50.16229999999996 35.48067000000003L49.89509999999996 36.25870999999995L49.59609999999998 37.05530999999996L48.896799999999985 41.35080000000005L49.30809999999997 41.46199999999999L49.072200000000066 42.94730000000004L48.73250000000007 43.70947000000001L47.77870000000007 44.95218L46.45450000000005 49.10754999999995L45.56490000000008 51.30931999999996L43.63170000000014 51.27439000000004L42.65769999999998 52.381790000000024L39.18560000000002 50.59360000000004L38.52970000000005 51.064790000000016L37.40820000000008 50.77116000000001L35.85329999999999 50.35168999999996L34.624900000000025 48.27007000000003L34.58490000000006 47.06723999999997L33.877500000000055 46.653909999999996L33.785499999999956 46.250170000000026L33.38300000000004 46.13580999999999z">
      <title id="t104">Quatrième circonscription de la Drôme</title>
      <desc id="d104">Cantons de : Bourg-de-Péage, Le Grand-Serre, Romans-Isère I, Romans-sur-Isère II, Saint-Donat-sur-l'Herbasse, Saint-Vallier.</desc>
    </path></svg>