<svg xmlns="http://www.w3.org/2000/svg" version="1.1" xmlns:xlink="http://www.w3.org/1999/xlink" xmlns:svgjs="http://svgjs.dev/svgjs" viewBox="0 0 127.9656 106.14113999999995"><path class="circo" id="id-027-01" d="M39.81709999999998 81.96535999999998L41.60239999999999 85.13365999999996L42.1721 86.41624999999999L42.86939999999993 86.25164999999998L42.48439999999994 87.52484999999996L42.90359999999998 88.7765L42.17669999999998 89.15796999999998L42.469299999999976 89.97862999999995L42.03989999999999 92.05201999999997L40.96659999999997 92.77274999999997L41.664499999999975 96.63119999999998L40.61500000000001 97.01799999999997L39.64599999999996 97.91988999999995L39.204200000000014 99.17881L37.94240000000002 99.64148L36.68189999999993 100.94926999999996L36.87329999999997 101.33787999999998L38.5865 101.31880999999998L39.95769999999993 102.36909999999995L39.99369999999999 102.70417999999995L39.56439999999998 103.41496999999998L39.688800000000015 104.95682L40.0557 105.60082L41.06849999999997 106.13277999999997L41.224500000000035 106.14113999999995L42.43809999999996 105.06120999999996L43.99680000000001 105.67211999999995L45.08889999999997 104.31326999999999L46.31290000000001 104.46736999999996L47.018100000000004 104.02629999999999L48.057199999999966 103.36668999999995L48.46399999999994 101.31507999999997L49.25710000000004 99.82286999999997L50.418199999999956 99.32788L51.2509 100.30712999999997L52.90070000000003 100.24246L53.039699999999925 100.64913999999999L55.58870000000002 99.83587999999997L56.67380000000003 98.43739999999997L57.89210000000003 97.84256999999997L58.51699999999994 98.50363999999996L61.09129999999993 98.08819L61.60509999999999 97.37023999999997L62.50810000000001 98.16382999999996L62.85749999999996 97.93946999999997L62.730500000000006 96.69036L65.0951 94.23202999999995L65.90919999999994 95.46253999999999L67.23339999999996 94.55565999999999L67.20539999999994 94.97855999999996L69.40549999999996 95.86487999999997L69.88199999999995 93.38507999999996L70.28689999999995 93.24205999999998L69.82629999999995 91.13757999999996L70.05719999999997 90.33357999999998L71.11059999999998 90.78783999999996L72.668 90.77906999999999L72.58699999999999 92.06788999999998L73.59090000000003 92.89837L75.74760000000003 92.45972999999998L78.69769999999994 94.36006999999995L79.15120000000002 93.74667L78.6603 93.15797999999995L80.65009999999995 92.85103999999995L81.32159999999999 93.29674L81.70349999999996 94.35323L82.5104 94.44219999999996L83.4031 93.69289999999995L84.9778 93.0659L86.20449999999994 93.46864L86.3963 93.57012999999995L87.56650000000002 94.04287L89.97910000000002 91.64260999999999L90.03129999999999 91.59500999999995L90.73069999999996 91.17317999999995L91.57029999999997 91.21033L91.76729999999998 89.97952999999995L91.21609999999998 88.84296999999998L91.01649999999995 88.58937999999995L90.88549999999998 88.35990999999996L90.06989999999996 86.92783999999995L90.31989999999996 84.91220999999996L92.90819999999997 82.96285999999998L93.56849999999997 81.64689999999996L94.14839999999992 81.09935999999999L95.76940000000002 81.02713L96.38569999999993 80.43714999999997L97.25630000000001 80.45123999999998L97.97439999999995 79.95477L98.63710000000003 79.70340999999996L99.33320000000003 78.71911L99.74279999999999 76.27979999999997L98.9606 76.07290999999998L98.88699999999994 74.78787999999997L97.8152 72.83456999999999L98.62130000000002 72.46378999999996L98.94989999999996 71.16328999999996L100.57409999999993 70.83381999999995L101.70830000000001 71.21582999999998L102.36829999999998 70.71087999999997L103.17349999999999 69.09044L102.33219999999994 69.17276999999996L101.8329 67.51490999999999L103.80179999999996 65.88083999999998L103.38569999999993 65.86296999999996L102.91059999999993 65.18016L101.71820000000002 65.75262999999995L100.39089999999999 65.76648L99.76429999999993 66.34006L98.98339999999996 64.5206L99.77239999999995 64.22913L100.57280000000003 62.357369999999946L100.03269999999998 61.82243999999997L100.29189999999994 61.16006999999996L99.84529999999995 60.66392999999999L98.64850000000001 59.66958999999997L97.90499999999997 60.05030999999997L96.70960000000002 59.85003999999998L96.47730000000001 59.043169999999975L94.88749999999993 58.489689999999996L94.00149999999996 57.62714999999997L93.72730000000001 57.00765999999999L92.95769999999993 57.35922999999997L91.7645 56.79237999999998L89.75869999999998 57.48488999999995L88.51260000000002 56.29330999999996L87.91399999999999 55.42528999999996L87.53229999999996 55.145219999999995L86.55989999999997 54.60359L85.06489999999997 53.683569999999975L84.49479999999994 52.497379999999964L83.59069999999997 52.720079999999996L82.16819999999996 51.374059999999986L80.79700000000003 52.32191999999998L79.73569999999995 53.631669999999986L80.16049999999996 54.31764999999996L80.57589999999993 54.21151999999995L80.9108 54.99174999999997L80.09989999999993 56.08888999999999L79.36619999999994 55.58042999999998L76.71789999999999 55.859699999999975L76.36990000000003 55.85255999999998L76.25199999999995 56.1352L75.6875 56.57630999999998L75.51829999999995 58.07670999999999L73.10040000000004 58.16552999999999L72.93560000000002 58.82088999999996L72.3732 59.43790999999999L72.4873 60.11306999999999L73.1386 60.40650999999997L72.89229999999998 60.64543999999995L72.60169999999994 62.341229999999996L72.8904 63.29558999999995L71.99720000000002 63.68088999999998L71.96199999999999 64.46009999999995L72.423 65.09700999999995L72.09629999999993 66.27660999999995L70.37350000000004 66.70523999999995L68.48119999999994 64.26333L67.16599999999994 64.45245999999997L66.53319999999997 65.57234L65.70839999999998 65.90364L63.92560000000003 64.54131999999998L63.10919999999999 64.69442999999995L62.23270000000002 65.4212L61.55639999999994 65.69097999999997L61.50069999999994 66.06279999999998L61.956500000000005 66.83188999999999L63.748699999999985 68.10672L64.4298 69.69207L63.89109999999994 70.39925L64.09500000000003 70.43146999999999L63.78869999999995 71.14103L63.51379999999995 71.70998999999995L62.2663 73.99878999999999L59.802599999999984 74.71002999999996L58.867399999999975 75.61334999999997L58.74180000000001 75.23741999999999L58.00019999999995 75.49489L57.4597 75.04575999999997L57.40610000000004 74.35486999999995L56.635599999999954 74.07691999999997L53.81439999999998 75.19991999999996L51.523199999999974 78.03584999999998L50.16579999999999 78.14067999999997L49.01189999999997 75.79903999999999L50.03559999999993 73.91341999999997L49.614900000000034 73.19162L50.11419999999998 72.47180999999995L48.547399999999925 73.10882999999995L48.03110000000004 71.00554999999997L47.12469999999996 70.96736999999996L44.42439999999999 72.63973999999996L42.01559999999995 75.35651999999999L40.95600000000002 74.84297999999995L40.56619999999998 75.41949999999997L41.09349999999995 76.93311999999997L39.87130000000002 77.10494L40.8759 78.48024999999996L40.07209999999998 79.53787L40.265300000000025 81.29238999999995L39.81709999999998 81.96535999999998z">
      <title id="t105">Première circonscription de l'Eure</title>
      <desc id="d105">Cantons de : Breteuil, Damville, Evreux Est, Evreux Sud, Nonancourt, Pacy-sur-Eure, Saint-André-de-l'Eure, Verneuil-sur-Avre</desc>
    </path><path class="circo" id="id-027-02" d="M36.050700000000006 55.61946999999998L35.60239999999999 53.70925999999997L34.70709999999997 51.609639999999956L35.49979999999994 50.51822999999996L36.130199999999945 51.019559999999956L36.52080000000001 50.920649999999966L37.286899999999946 49.98309999999998L36.4434 48.468079999999986L36.60630000000003 47.609519999999975L36.719299999999976 46.269709999999975L35.42470000000003 46.42169999999999L33.760400000000004 46.04133999999999L33.147699999999986 44.41155999999995L33.16919999999993 43.112409999999954L32.53869999999995 42.678439999999966L31.743100000000027 42.85974999999996L31.35069999999996 43.50736999999998L30.31790000000001 43.97287L29.551500000000033 44.305529999999976L28.111499999999978 43.54219999999998L27.658900000000017 42.36700999999999L25.30269999999996 43.052369999999996L25.924300000000017 41.75320999999997L23.91300000000001 39.95772999999997L23.893500000000017 39.16762L24.796299999999974 38.32797999999997L24.472599999999943 38.19517999999999L24.451299999999947 37.49395999999996L23.84960000000001 35.98067999999995L24.153500000000008 35.27036999999996L23.78729999999996 34.55476999999996L24.15930000000003 33.77894999999995L25.8741 33.43493999999998L26.66319999999996 34.86474999999996L27.826999999999998 34.870479999999986L28.519800000000032 34.31009999999998L28.53340000000003 33.08635999999996L30.539099999999962 32.18095999999997L30.954899999999952 32.227179999999976L31.343799999999987 32.94498999999996L32.49699999999996 33.33705999999995L32.44679999999994 33.85365999999999L33.16269999999997 33.42634999999996L33.521600000000035 33.64527999999996L33.82409999999993 35.29846999999995L35.2174 34.68906999999996L35.51249999999993 34.60082999999997L34.695100000000025 31.60419999999999L35.2414 30.38788999999997L36.739900000000034 29.45671999999996L38.633699999999976 31.07947999999999L39.90239999999994 31.306949999999972L40.64829999999995 30.92622L40.70100000000002 30.971659999999986L41.60839999999996 30.766839999999945L42.48400000000004 30.71891999999997L44.07349999999997 31.529469999999947L44.51929999999993 31.438589999999976L44.88499999999999 31.95781999999997L44.65229999999997 32.7509L45.063699999999926 33.916139999999984L43.92409999999995 34.407569999999964L43.3297 35.27972999999997L44.92819999999995 35.56886999999995L46.4461 37.02018999999996L46.772699999999986 39.11806999999999L48.02660000000003 38.909599999999955L48.70219999999995 38.39885999999996L50.3202 38.32369L50.670799999999986 38.08266999999995L52.24270000000001 37.274509999999964L53.696399999999926 36.52126999999996L54.19380000000001 37.11541L54.8836 37.040089999999964L54.80939999999998 36.69924999999995L55.28430000000003 36.749979999999994L58.47929999999997 34.35043999999999L59.29309999999998 34.68424999999996L59.871099999999956 34.560749999999985L60.499000000000024 36.18898999999999L61.478200000000015 37.04177999999996L61.726999999999975 36.540659999999946L62.87889999999993 36.748159999999984L64.23209999999995 39.16396999999995L65.32949999999994 39.88191999999998L66.23860000000002 40.92014999999998L66.33730000000003 40.51904999999999L66.74799999999993 40.48562999999996L68.14909999999998 41.19757999999996L69.37829999999997 41.457979999999964L71.01609999999994 42.54235L66.19849999999997 44.54591999999997L66.04419999999993 44.95637999999997L67.2464 44.70495999999997L69.94949999999994 45.825939999999946L68.88890000000004 47.22287L69.58109999999999 47.72368L70.35149999999999 46.76851999999997L70.63760000000002 48.46938L71.41809999999998 49.522839999999974L73.00929999999994 48.15406999999999L72.71789999999999 46.64589999999998L74.46640000000002 47.75926999999996L74.78309999999999 48.56585999999999L75.95140000000004 49.03761999999995L76.68089999999995 49.113189999999975L77.73979999999995 48.72467999999998L78.57780000000002 49.68772999999999L78.31290000000001 50.49122L78.88260000000002 51.02708999999999L80.25810000000001 50.90506999999997L80.79700000000003 52.32191999999998L79.73569999999995 53.631669999999986L80.16049999999996 54.31764999999996L80.57589999999993 54.21151999999995L80.9108 54.99174999999997L80.09989999999993 56.08888999999999L79.36619999999994 55.58042999999998L76.71789999999999 55.859699999999975L76.36990000000003 55.85255999999998L76.25199999999995 56.1352L75.6875 56.57630999999998L75.51829999999995 58.07670999999999L73.10040000000004 58.16552999999999L72.93560000000002 58.82088999999996L72.3732 59.43790999999999L72.4873 60.11306999999999L73.1386 60.40650999999997L72.89229999999998 60.64543999999995L72.60169999999994 62.341229999999996L72.8904 63.29558999999995L71.99720000000002 63.68088999999998L71.96199999999999 64.46009999999995L72.423 65.09700999999995L72.09629999999993 66.27660999999995L70.37350000000004 66.70523999999995L68.48119999999994 64.26333L67.16599999999994 64.45245999999997L66.53319999999997 65.57234L65.70839999999998 65.90364L63.92560000000003 64.54131999999998L63.10919999999999 64.69442999999995L62.23270000000002 65.4212L61.55639999999994 65.69097999999997L61.50069999999994 66.06279999999998L61.956500000000005 66.83188999999999L63.748699999999985 68.10672L64.4298 69.69207L63.89109999999994 70.39925L64.09500000000003 70.43146999999999L63.78869999999995 71.14103L63.51379999999995 71.70998999999995L62.2663 73.99878999999999L59.802599999999984 74.71002999999996L58.867399999999975 75.61334999999997L58.74180000000001 75.23741999999999L58.00019999999995 75.49489L57.4597 75.04575999999997L57.40610000000004 74.35486999999995L56.635599999999954 74.07691999999997L53.81439999999998 75.19991999999996L51.523199999999974 78.03584999999998L50.16579999999999 78.14067999999997L49.01189999999997 75.79903999999999L50.03559999999993 73.91341999999997L49.614900000000034 73.19162L50.11419999999998 72.47180999999995L48.547399999999925 73.10882999999995L48.03110000000004 71.00554999999997L47.12469999999996 70.96736999999996L44.42439999999999 72.63973999999996L42.01559999999995 75.35651999999999L40.95600000000002 74.84297999999995L40.56619999999998 75.41949999999997L41.09349999999995 76.93311999999997L39.87130000000002 77.10494L40.8759 78.48024999999996L40.07209999999998 79.53787L40.265300000000025 81.29238999999995L39.81709999999998 81.96535999999998L41.60239999999999 85.13365999999996L42.1721 86.41624999999999L42.86939999999993 86.25164999999998L42.48439999999994 87.52484999999996L42.90359999999998 88.7765L42.17669999999998 89.15796999999998L42.469299999999976 89.97862999999995L42.03989999999999 92.05201999999997L40.96659999999997 92.77274999999997L41.664499999999975 96.63119999999998L40.61500000000001 97.01799999999997L38.57719999999995 94.03112999999996L39.06330000000003 93.2654L38.976999999999975 92.79209999999995L37.589200000000005 91.83841999999999L36.83140000000003 90.79816L35.628600000000006 90.74706999999995L35.358600000000024 90.41472999999996L34.55689999999993 90.03179L33.40139999999997 89.70572999999996L30.83699999999999 87.41964999999999L29.733100000000036 87.02168999999998L28.182000000000016 85.69171L26.405599999999936 84.74525L28.60730000000001 81.70362L27.38919999999996 82.12851999999998L26.642600000000016 81.70025999999996L26.18520000000001 80.44813999999997L26.490699999999947 79.16332999999997L24.855299999999943 79.5632L24.545299999999997 78.78787L25.449700000000007 77.98452999999995L25.366300000000024 77.56943999999999L23.87009999999998 76.84183999999999L24.12749999999994 76.00334999999995L22.252700000000004 74.86858999999998L21.471000000000004 74.95225999999997L21.27120000000002 75.8055L20.252700000000004 75.24983999999995L19.095699999999965 75.27454L20.676600000000008 73.73077999999998L21.871999999999957 73.24892999999997L24.994699999999966 73.20610999999997L26.2029 73.74772999999999L26.888799999999947 73.17285999999996L27.647899999999936 72.94504999999998L28.150099999999952 71.73573999999996L28.593799999999987 72.52317L30.390199999999936 73.88923L33.69489999999996 70.54639999999995L35.742399999999975 69.97215L37.001199999999926 70.30722999999995L37.7287 69.80428999999998L38.08969999999999 68.98687999999999L38.52879999999993 68.91153999999995L38.90739999999994 69.03465L39.021799999999985 68.31980999999996L39.163099999999986 67.56682999999998L39.992399999999975 67.44899999999996L41.238699999999994 66.33384999999998L41.76909999999998 65.57104999999996L42.06719999999996 63.38938999999999L41.48019999999997 62.71823999999998L42.01210000000003 62.07733999999999L43.21489999999994 61.818809999999985L43.04079999999999 60.48635999999999L42.33050000000003 60.028269999999964L41.85029999999995 60.736639999999966L40.69169999999997 60.341309999999964L40.14869999999996 60.958279999999945L38.94139999999993 61.13725999999997L38.189899999999966 58.795019999999965L37.40149999999994 58.99610999999999L36.050700000000006 55.61946999999998z">
      <title id="t106">Deuxième circonscription de l'Eure</title>
      <desc id="d106">Cantons de : Beaumont-le-Roger, Brionne, Conches-en-Ouche, Evreux Nord, Evreux Ouest, Le Neubourg, Rugles</desc>
    </path><path class="circo" id="id-027-03" d="M41.48019999999997 62.71823999999998L42.06719999999996 63.38938999999999L41.76909999999998 65.57104999999996L41.238699999999994 66.33384999999998L39.992399999999975 67.44899999999996L39.163099999999986 67.56682999999998L39.021799999999985 68.31980999999996L38.90739999999994 69.03465L38.52879999999993 68.91153999999995L38.08969999999999 68.98687999999999L37.7287 69.80428999999998L37.001199999999926 70.30722999999995L35.742399999999975 69.97215L33.69489999999996 70.54639999999995L30.390199999999936 73.88923L28.593799999999987 72.52317L28.150099999999952 71.73573999999996L27.647899999999936 72.94504999999998L26.888799999999947 73.17285999999996L26.2029 73.74772999999999L24.994699999999966 73.20610999999997L21.871999999999957 73.24892999999997L20.676600000000008 73.73077999999998L19.095699999999965 75.27454L20.252700000000004 75.24983999999995L21.27120000000002 75.8055L21.471000000000004 74.95225999999997L22.252700000000004 74.86858999999998L24.12749999999994 76.00334999999995L23.87009999999998 76.84183999999999L21.80880000000002 79.01301999999998L21.475299999999947 79.29088999999999L19.011300000000006 78.50403L16.942699999999945 78.76486L15.05779999999993 77.69457999999997L13.75929999999994 77.59916999999996L13.611800000000017 78.63793999999996L12.40059999999994 78.44108L12.98969999999997 77.18315999999999L11.856499999999983 77.85978999999998L10.964200000000005 77.74111999999997L10.579600000000028 77.50479999999999L10.261700000000019 76.21927999999997L7.555899999999951 74.65751999999998L7.956400000000031 72.51553999999999L8.329399999999964 72.28084999999999L9.825500000000034 69.47202999999996L11.473299999999995 66.71677L11.010899999999992 64.92822999999999L11.603899999999953 62.64644999999996L12.650700000000029 60.61402999999996L10.82269999999994 58.92661999999996L9.547000000000025 58.82263999999998L7.457699999999932 58.280539999999974L6.921799999999962 56.64050999999995L6.616999999999962 56.32520999999997L6.256399999999985 56.57409999999999L5.928199999999947 56.29096999999996L7.068700000000035 55.13729999999998L6.9652999999999565 54.33308999999997L6.972399999999993 53.882349999999974L8.081099999999992 53.12287999999995L9.425899999999956 53.13572999999997L10.204799999999977 53.56653L10.134900000000016 51.74643999999995L8.921799999999962 51.606529999999964L9.705899999999929 50.76916L9.595199999999977 50.41190999999998L8.817699999999945 50.386199999999974L8.717800000000011 50.00282999999996L9.535099999999943 47.40015999999997L9.56110000000001 47.22987999999998L9.439399999999978 46.39726999999999L10.66739999999993 46.106809999999996L11.487499999999955 44.62725999999998L11.008399999999938 44.015229999999974L9.482799999999997 44.018479999999954L9.294399999999996 43.67748999999998L7.661899999999946 43.200789999999984L7.530999999999949 43.08706999999998L7.891499999999951 42.350239999999985L8.048800000000028 39.904289999999946L7.7263000000000375 38.43865999999997L8.177900000000022 36.20979999999997L8.169700000000034 35.74894999999998L7.750299999999925 35.55923999999999L7.688499999999976 35.135159999999985L7.275300000000016 35.02715999999998L5.935200000000009 34.953629999999976L3.4238000000000284 33.05615999999998L2.0860999999999876 30.788579999999968L2.0652999999999793 30.34661L2.4911999999999352 30.22901999999999L3.7619999999999436 30.126139999999964L5.244599999999991 29.259789999999953L7.2730999999999995 28.779679999999985L7.338300000000004 25.946229999999957L5.816900000000032 24.726369999999974L4.177900000000022 24.688699999999983L2.129599999999982 26.85862999999995L1.0008000000000266 26.27825999999999L2.143299999999954 24.56891999999999L1.5978000000000065 22.61649L0.07909999999992579 22.212289999999996L0.8360999999999876 21.639719999999954L2.2472999999999956 18.859339999999975L0.9202999999999975 16.515229999999974L0.38170000000002346 14.789319999999975L1.0067999999999984 12.755169999999964L0.04980000000000473 9.833639999999946L0 7.14067L1.068300000000022 7.0183399999999665L3.6865000000000236 6.55786999999998L3.5495999999999412 5.693829999999991L6.0837999999999965 5.297059999999988L7.597300000000018 4.8691499999999905L10.94659999999999 3.5665599999999813L11.739799999999946 3.1466399999999908L15.041499999999928 0.9979899999999589L15.527299999999968 0.5966099999999983L16.707300000000032 0L18.015199999999936 0.03152999999997519L19.115800000000036 0.6332400000000007L20.440600000000018 2.267879999999991L20.519699999999943 2.3947499999999877L20.925499999999943 2.85015999999996L22.39969999999994 4.756189999999947L24.143100000000004 6.604399999999998L25.687900000000013 7.264699999999948L26.97410000000002 7.129169999999988L29.352499999999964 5.259149999999977L29.603899999999953 5.63603999999998L28.685100000000034 6.617989999999963L28.24529999999993 7.900499999999965L29.090299999999957 7.747079999999983L29.454200000000014 8.517549999999972L30.629299999999944 8.833759999999984L29.97270000000003 9.882499999999993L30.61450000000002 10.314509999999984L30.914699999999925 10.640299999999968L31.769000000000005 10.577339999999992L33.048 10.253109999999992L34.28499999999997 10.659629999999993L34.71029999999996 10.543899999999951L35.03120000000001 9.731079999999963L35.470699999999965 9.74178999999998L35.55520000000001 9.624209999999948L37.491499999999974 9.988839999999982L37.95859999999993 9.322279999999978L39.98720000000003 8.561839999999961L41.31970000000001 9.623819999999967L41.683899999999994 9.365659999999991L42.81719999999996 9.089589999999987L42.71469999999999 7.466359999999952L42.97860000000003 7.473029999999994L43.55579999999998 10.167419999999993L44.34190000000001 11.279029999999977L45.54790000000003 11.87158999999997L46.76080000000002 12.076759999999979L47.909599999999955 11.648519999999962L48.19029999999998 11.980249999999955L49.406600000000026 11.53162999999995L49.25350000000003 12.374249999999961L49.939700000000016 13.428939999999955L49.45359999999994 14.595989999999972L49.81330000000003 14.346899999999948L50.621599999999944 14.679659999999956L50.85419999999999 13.875209999999981L52.77750000000003 12.941119999999955L52.75260000000003 14.127569999999992L53.30529999999999 16.412259999999947L53.21079999999995 17.58229L53.97789999999998 18.23676999999998L52.945299999999975 19.05580999999995L50.02449999999999 18.04613999999998L48.83140000000003 18.57688999999999L48.194999999999936 18.14242999999999L47.78399999999999 18.17113999999998L46.858100000000036 19.96070999999995L46.1191 19.92235999999997L45.5154 19.489689999999996L45.29689999999994 20.353179999999952L44.58870000000002 20.923899999999946L44.41129999999998 20.51007999999996L42.629099999999994 20.39203999999995L41.23689999999999 19.07746999999995L41.227300000000014 18.15325999999999L40.36979999999994 18.073019999999985L38.80669999999998 18.72874999999999L38.093200000000024 18.402979999999957L37.70799999999997 18.595939999999985L37.68470000000002 18.602469999999983L36.998699999999985 20.58585999999997L37.684799999999996 22.49757999999997L38.732399999999984 21.96454L39.9135 23.08466999999996L39.455799999999954 24.676709999999957L38.757799999999975 24.626269999999977L38.383899999999926 25.167939999999987L37.5376 26.14157L37.73090000000002 26.98084L37.35259999999994 27.19439L38.18769999999995 27.345129999999983L38.55869999999993 28.11129999999997L39.40179999999998 28.01801999999998L40.006599999999935 29.00019999999995L40.64829999999995 30.92622L39.90239999999994 31.306949999999972L38.633699999999976 31.07947999999999L36.739900000000034 29.45671999999996L35.2414 30.38788999999997L34.695100000000025 31.60419999999999L35.51249999999993 34.60082999999997L35.2174 34.68906999999996L33.82409999999993 35.29846999999995L33.521600000000035 33.64527999999996L33.16269999999997 33.42634999999996L32.44679999999994 33.85365999999999L32.49699999999996 33.33705999999995L31.343799999999987 32.94498999999996L30.954899999999952 32.227179999999976L30.539099999999962 32.18095999999997L28.53340000000003 33.08635999999996L28.519800000000032 34.31009999999998L27.826999999999998 34.870479999999986L26.66319999999996 34.86474999999996L25.8741 33.43493999999998L24.15930000000003 33.77894999999995L23.78729999999996 34.55476999999996L24.153500000000008 35.27036999999996L23.84960000000001 35.98067999999995L24.451299999999947 37.49395999999996L24.472599999999943 38.19517999999999L24.796299999999974 38.32797999999997L23.893500000000017 39.16762L23.91300000000001 39.95772999999997L25.924300000000017 41.75320999999997L25.30269999999996 43.052369999999996L27.658900000000017 42.36700999999999L28.111499999999978 43.54219999999998L29.551500000000033 44.305529999999976L30.31790000000001 43.97287L31.35069999999996 43.50736999999998L31.743100000000027 42.85974999999996L32.53869999999995 42.678439999999966L33.16919999999993 43.112409999999954L33.147699999999986 44.41155999999995L33.760400000000004 46.04133999999999L35.42470000000003 46.42169999999999L36.719299999999976 46.269709999999975L36.60630000000003 47.609519999999975L36.4434 48.468079999999986L37.286899999999946 49.98309999999998L36.52080000000001 50.920649999999966L36.130199999999945 51.019559999999956L35.49979999999994 50.51822999999996L34.70709999999997 51.609639999999956L35.60239999999999 53.70925999999997L36.050700000000006 55.61946999999998L37.40149999999994 58.99610999999999L38.189899999999966 58.795019999999965L38.94139999999993 61.13725999999997L40.14869999999996 60.958279999999945L40.69169999999997 60.341309999999964L41.85029999999995 60.736639999999966L42.33050000000003 60.028269999999964L43.04079999999999 60.48635999999999L43.21489999999994 61.818809999999985L42.01210000000003 62.07733999999999L41.48019999999997 62.71823999999998z">
      <title id="t107">Troisième circonscription de l'Eure</title>
      <desc id="d107">Cantons de : Beaumesnil, Bernay Est, Bernay Ouest, Beuzeville, Broglie, Cormeilles, Montfort-sur-Risle, Pont-Audemer, Quillebeuf-sur-Seine, Routot, Saint-Georges-du-Vièvre, Thiberville</desc>
    </path><path class="circo" id="id-027-04" d="M54.80939999999998 36.69924999999995L55.28430000000003 36.749979999999994L58.47929999999997 34.35043999999999L59.29309999999998 34.68424999999996L59.871099999999956 34.560749999999985L60.499000000000024 36.18898999999999L61.478200000000015 37.04177999999996L61.726999999999975 36.540659999999946L62.87889999999993 36.748159999999984L64.23209999999995 39.16396999999995L65.32949999999994 39.88191999999998L66.23860000000002 40.92014999999998L66.33730000000003 40.51904999999999L66.74799999999993 40.48562999999996L68.14909999999998 41.19757999999996L69.37829999999997 41.457979999999964L71.01609999999994 42.54235L66.19849999999997 44.54591999999997L66.04419999999993 44.95637999999997L67.2464 44.70495999999997L69.94949999999994 45.825939999999946L68.88890000000004 47.22287L69.58109999999999 47.72368L70.35149999999999 46.76851999999997L70.63760000000002 48.46938L71.41809999999998 49.522839999999974L73.00929999999994 48.15406999999999L72.71789999999999 46.64589999999998L74.46640000000002 47.75926999999996L74.78309999999999 48.56585999999999L75.95140000000004 49.03761999999995L76.68089999999995 49.113189999999975L77.73979999999995 48.72467999999998L78.57780000000002 49.68772999999999L78.31290000000001 50.49122L78.88260000000002 51.02708999999999L80.25810000000001 50.90506999999997L80.79700000000003 52.32191999999998L82.16819999999996 51.374059999999986L83.59069999999997 52.720079999999996L84.49479999999994 52.497379999999964L87.02229999999997 50.675689999999975L87.31039999999996 50.32167999999996L88.9203 49.64657L89.56830000000002 50.01243999999997L89.75209999999993 49.22510999999997L89.43619999999999 48.47625999999997L90.46299999999997 47.73536999999999L92.93290000000002 48.41548999999998L92.90369999999996 48.46742999999998L93.48979999999995 49.51932999999997L94.55340000000001 50.01840999999996L94.96669999999995 49.494009999999946L95.28430000000003 46.85996L94.24099999999999 46.00495999999998L95.0118 44.65155999999996L95.23320000000001 44.59100999999998L95.29369999999994 43.83031L92.95309999999995 41.210459999999955L91.27599999999995 40.37862999999999L91.0951 40.31100999999995L89.01239999999996 39.40156999999999L88.26679999999999 38.26411999999999L88.38170000000002 37.682699999999954L88.51559999999995 37.39326999999997L92.67150000000004 34.59380999999996L93.29329999999993 33.380269999999996L93.61059999999998 32.566179999999974L93.44960000000003 31.705499999999972L92.52120000000002 30.771519999999953L91.68129999999996 30.51486L91.48159999999996 30.459259999999972L90.20240000000001 30.48112999999995L88.12990000000002 32.14151999999996L86.9058 33.48192999999998L85.87239999999997 34.27885999999995L84.60410000000002 34.55554999999998L82.36270000000002 36.58553999999998L80.27120000000002 35.96259999999995L79.85979999999995 35.512L81.04290000000003 34.98017999999996L81.17079999999999 34.11591999999996L82.42560000000003 32.90607L83.64599999999996 31.80821999999995L84.4742 31.8288L84.82809999999995 31.082339999999988L84.37630000000001 30.489209999999957L84.25029999999992 28.38968L83.58609999999999 27.86417L82.529 27.75734L82.30909999999994 28.064399999999978L82.48310000000004 26.35722999999996L82.21629999999993 25.53702999999996L82.30259999999998 25.100299999999947L81.06219999999996 23.27357999999998L80.30499999999995 22.812189999999987L79.03610000000003 22.787939999999992L79.87689999999998 21.960109999999986L80.05909999999994 21.109479999999962L79.4733 19.489029999999957L79.86879999999996 18.288299999999992L80.65660000000003 17.89296999999999L77.77710000000002 17.605909999999994L77.55169999999998 17.257769999999994L76.74519999999995 17.239889999999946L76.78859999999997 16.83287999999999L76.56709999999998 17.126619999999946L76.87170000000003 19.05059L75.50900000000001 19.148689999999988L75.45010000000002 19.126649999999984L75.269 18.372979999999984L74.47919999999999 18.66808999999995L74.06809999999996 19.400199999999984L73.80689999999993 18.627509999999972L72.91589999999997 19.394329999999968L72.10339999999997 19.460339999999974L71.3741 20.721889999999973L71.12739999999997 22.80775L70.75329999999997 22.807229999999947L67.81240000000003 22.81909999999999L65.83839999999998 23.26926999999995L63.83039999999994 24.366749999999968L65.26509999999996 26.54499999999996L65.35619999999994 26.975109999999972L64.26189999999997 27.653509999999983L65.14179999999999 29.099589999999978L64.92700000000002 29.390559999999994L64.24739999999997 29.157939999999996L64.09910000000002 29.488369999999975L64.09399999999994 29.09137999999996L63.02859999999998 29.552449999999965L63.002399999999966 29.342239999999947L59.661899999999946 30.34803999999997L59.26030000000003 29.659119999999973L59.594799999999964 29.033289999999965L58.71550000000002 28.90107999999998L58.56219999999996 28.064009999999996L57.782299999999964 27.714999999999975L57.419399999999996 26.90761999999995L55.97789999999998 27.821309999999983L55.69439999999997 26.706309999999974L56.5394 25.990669999999966L56.39850000000001 25.28054999999995L56.393299999999954 24.855269999999962L55.59770000000003 24.457479999999975L54.40980000000002 21.481409999999983L53.4221 22.341109999999958L51.913400000000024 23.20760999999999L52.02170000000001 24.078029999999956L51.23169999999993 24.346419999999966L50.70780000000002 23.675749999999994L50.93039999999996 21.978099999999984L48.63080000000002 21.032539999999983L48.212999999999965 21.150689999999997L48.071699999999964 20.768579999999986L46.51419999999996 20.64806999999996L46.858100000000036 19.96070999999995L46.1191 19.92235999999997L45.5154 19.489689999999996L45.29689999999994 20.353179999999952L44.58870000000002 20.923899999999946L44.41129999999998 20.51007999999996L42.629099999999994 20.39203999999995L41.23689999999999 19.07746999999995L41.227300000000014 18.15325999999999L40.36979999999994 18.073019999999985L38.80669999999998 18.72874999999999L38.093200000000024 18.402979999999957L37.70799999999997 18.595939999999985L37.68470000000002 18.602469999999983L36.998699999999985 20.58585999999997L37.684799999999996 22.49757999999997L38.732399999999984 21.96454L39.9135 23.08466999999996L39.455799999999954 24.676709999999957L38.757799999999975 24.626269999999977L38.383899999999926 25.167939999999987L37.5376 26.14157L37.73090000000002 26.98084L37.35259999999994 27.19439L38.18769999999995 27.345129999999983L38.55869999999993 28.11129999999997L39.40179999999998 28.01801999999998L40.006599999999935 29.00019999999995L40.64829999999995 30.92622L40.70100000000002 30.971659999999986L41.60839999999996 30.766839999999945L42.48400000000004 30.71891999999997L44.07349999999997 31.529469999999947L44.51929999999993 31.438589999999976L44.88499999999999 31.95781999999997L44.65229999999997 32.7509L45.063699999999926 33.916139999999984L43.92409999999995 34.407569999999964L43.3297 35.27972999999997L44.92819999999995 35.56886999999995L46.4461 37.02018999999996L46.772699999999986 39.11806999999999L48.02660000000003 38.909599999999955L48.70219999999995 38.39885999999996L50.3202 38.32369L50.670799999999986 38.08266999999995L52.24270000000001 37.274509999999964L53.696399999999926 36.52126999999996L54.19380000000001 37.11541L54.8836 37.040089999999964L54.80939999999998 36.69924999999995z">
      <title id="t108">Quatrième circonscription de l'Eure</title>
      <desc id="d108">Cantons de : Amfreville-la-Campagne, Bourgtheroulde-Infreville, Gaillon, Gaillon-Campagne, Louviers Nord, Louviers Sud, Pont-de-l'Arche, Val-de-Reuil</desc>
    </path><path class="circo" id="id-027-05" d="M93.29329999999993 33.380269999999996L92.67150000000004 34.59380999999996L88.51559999999995 37.39326999999997L88.38170000000002 37.682699999999954L88.26679999999999 38.26411999999999L89.01239999999996 39.40156999999999L91.0951 40.31100999999995L91.27599999999995 40.37862999999999L92.95309999999995 41.210459999999955L95.29369999999994 43.83031L95.23320000000001 44.59100999999998L95.0118 44.65155999999996L94.24099999999999 46.00495999999998L95.28430000000003 46.85996L94.96669999999995 49.494009999999946L94.55340000000001 50.01840999999996L93.48979999999995 49.51932999999997L92.90369999999996 48.46742999999998L92.93290000000002 48.41548999999998L90.46299999999997 47.73536999999999L89.43619999999999 48.47625999999997L89.75209999999993 49.22510999999997L89.56830000000002 50.01243999999997L88.9203 49.64657L87.31039999999996 50.32167999999996L87.02229999999997 50.675689999999975L84.49479999999994 52.497379999999964L85.06489999999997 53.683569999999975L86.55989999999997 54.60359L87.53229999999996 55.145219999999995L87.91399999999999 55.42528999999996L88.51260000000002 56.29330999999996L89.75869999999998 57.48488999999995L91.7645 56.79237999999998L92.95769999999993 57.35922999999997L93.72730000000001 57.00765999999999L94.00149999999996 57.62714999999997L94.88749999999993 58.489689999999996L96.47730000000001 59.043169999999975L96.70960000000002 59.85003999999998L97.90499999999997 60.05030999999997L98.64850000000001 59.66958999999997L98.51749999999993 58.374419999999986L97.83159999999998 57.25548999999995L98.09669999999994 56.41988999999995L97.75749999999994 56.140769999999975L98.96209999999996 54.8689L100.2378 56.11560999999995L101.09410000000003 56.37086999999997L102.51940000000002 55.41632999999996L103.32870000000003 52.983379999999954L103.11169999999993 52.14839999999998L103.64710000000002 52.71124999999995L104.05330000000004 54.21592999999996L106.19259999999997 53.69304999999997L107.40279999999996 53.95552999999995L108.38120000000004 53.11859999999996L110.2595 52.34722999999997L111.08809999999994 52.21458999999999L111.48669999999993 52.977799999999945L112.72149999999999 51.915039999999976L112.3913 51.67102999999997L112.45119999999997 50.50043999999997L113.03710000000001 49.442859999999996L114.8288 46.85789L115.49839999999995 46.162019999999984L115.269 44.657669999999996L116.06719999999996 43.28851999999995L116.20499999999993 43.10046L115.96219999999994 42.72938999999997L116.63189999999997 41.11320999999998L116.37760000000003 40.26992999999999L116.84429999999998 39.59792999999996L116.73489999999993 38.42578999999995L117.19449999999995 37.18057999999996L116.96179999999993 36.380889999999965L117.22399999999993 35.52709999999996L119.202 33.714399999999955L119.61019999999996 32.92233999999996L119.3229 32.69413999999995L119.37739999999997 31.607069999999965L119.36069999999995 30.37214L120.22919999999999 28.713769999999954L121.54409999999996 28.639779999999973L122.22649999999999 28.082899999999995L123.53499999999997 28.25771999999995L123.89059999999995 27.998999999999967L124.94330000000002 29.44878L124.92560000000003 30.34009999999995L126.93639999999994 31.051089999999988L126.91409999999996 30.124179999999967L127.9656 27.55279999999999L127.25019999999995 27.126769999999965L127.42079999999999 25.822689999999966L126.41469999999993 24.97348999999997L125.88429999999994 25.351969999999994L125.39260000000002 24.91665999999998L125.56619999999998 23.220519999999965L124.98079999999993 21.576869999999985L125.24509999999998 20.756709999999998L125.52980000000002 19.436589999999967L124.13789999999995 16.652649999999994L124.28340000000003 15.189549999999997L123.48109999999997 14.769219999999962L122.87549999999999 13.553629999999998L120.94179999999994 11.658309999999972L122.67160000000001 10.300009999999986L121.8646 10.140379999999993L120.73310000000004 10.55917999999997L120.42399999999998 9.837289999999996L119.66599999999994 9.816779999999994L118.75339999999994 11.713039999999978L117.72489999999993 10.693329999999946L117.58690000000001 10.281199999999956L116.72519999999997 10.221629999999948L115.75689999999997 11.056589999999971L115.04859999999996 10.647089999999992L114.78110000000004 10.61887999999999L113.1232 9.48023999999998L113.13599999999997 9.070119999999974L111.33039999999994 9.624469999999974L110.41290000000004 8.73863L109.471 6.89233999999999L108.65189999999996 6.169129999999996L108.71569999999997 5.80847L106.51300000000003 5.758139999999969L105.40009999999995 7.111259999999959L104.58029999999997 5.547280000000001L102.39739999999995 5.875139999999988L101.50119999999993 4.835679999999968L100.21749999999997 4.336219999999969L97.98209999999995 4.502149999999972L96.80539999999996 3.851889999999969L94.75829999999996 3.771729999999991L92.37279999999998 4.514959999999974L92.30290000000002 4.074449999999956L93.072 2.986569999999972L92.58699999999999 2.7695999999999685L91.07579999999996 4.364329999999995L88.98619999999994 4.995579999999961L88.82269999999994 5.41510999999997L89.48689999999999 6.02049999999997L89.39099999999996 6.369119999999953L88.42520000000002 5.962849999999946L88.47230000000002 7.261569999999949L87.69179999999994 6.973770000000002L86.05709999999999 7.288229999999999L86.54660000000001 9.590899999999976L86.17660000000001 9.814949999999953L85.91909999999996 11.52091999999999L85.02339999999992 11.738769999999988L84.05930000000001 12.749419999999986L84.31999999999994 14.242719999999963L84.06859999999995 15.878459999999961L82.87760000000003 17.01556999999997L82.8714 17.912149999999997L80.65660000000003 17.89296999999999L79.86879999999996 18.288299999999992L79.4733 19.489029999999957L80.05909999999994 21.109479999999962L79.87689999999998 21.960109999999986L79.03610000000003 22.787939999999992L80.30499999999995 22.812189999999987L81.06219999999996 23.27357999999998L82.30259999999998 25.100299999999947L82.21629999999993 25.53702999999996L82.48310000000004 26.35722999999996L82.30909999999994 28.064399999999978L82.529 27.75734L83.58609999999999 27.86417L84.25029999999992 28.38968L84.37630000000001 30.489209999999957L84.82809999999995 31.082339999999988L84.4742 31.8288L83.64599999999996 31.80821999999995L82.42560000000003 32.90607L81.17079999999999 34.11591999999996L81.04290000000003 34.98017999999996L79.85979999999995 35.512L80.27120000000002 35.96259999999995L82.36270000000002 36.58553999999998L84.60410000000002 34.55554999999998L85.87239999999997 34.27885999999995L86.9058 33.48192999999998L88.12990000000002 32.14151999999996L90.20240000000001 30.48112999999995L91.48159999999996 30.459259999999972L91.68129999999996 30.51486L92.52120000000002 30.771519999999953L93.44960000000003 31.705499999999972L93.61059999999998 32.566179999999974L93.29329999999993 33.380269999999996z">
      <title id="t109">Cinquième circonscription de l'Eure</title>
      <desc id="d109">Cantons de : Les Andelys, Ecos, Etrépagny, Fleury-sur-Andelle, Gisors, Lyons-la-Forêt, Vernon Nord, Vernon Sud</desc>
    </path></svg>