<svg xmlns="http://www.w3.org/2000/svg" version="1.1" xmlns:xlink="http://www.w3.org/1999/xlink" xmlns:svgjs="http://svgjs.dev/svgjs" viewBox="721.18173 436.50812 105.16880000000003 126.52836999999994"><path class="circo" id="id-028-01" d="M 778.95283,484.31166 777.45883,484.45592 775.86413,484.46504 774.85163,483.63503 773.97333,483.52235 773.17883,483.94914 772.78353,485.17319 773.73123,486.72049 773.16563,487.11111 772.21683,486.18576 771.60043,486.79022 772.02923,487.5808 773.73933,489.91885 774.20233,490.5444 773.65403,490.86639 773.35603,492.38847 774.08713,493.18838 774.93113,493.15028 775.48203,492.50754 775.88413,492.63789 777.29923,493.59041 778.25873,492.76323 779.57113,494.53652 780.95943,493.74409 781.75263,493.93637 782.14523,494.66272 782.55273,494.73326 782.57993,495.612 783.93073,496.70642 783.53223,498.37754 782.89673,497.89077 782.74213,498.30559 782.97893,499.06706 782.89943,499.75522 782.46763,500.11965 781.72783,500.57097 782.48583,501.54771 780.16453,503.39353 778.49263,502.76282 777.37603,503.87883 775.86903,504.35653 774.60263,505.41477 774.45273,505.84294 774.99573,506.55772 776.52233,507.53343 777.85343,507.76921 777.79043,507.835 777.53743,508.6796 775.78863,510.66554 775.04973,512.26461 775.84013,512.36361 776.91023,513.47913 778.72903,513.02371 779.43813,513.36992 779.01853,513.96393 779.69863,514.41877 779.81773,515.64298 780.92573,516.11241 780.85583,517.82184 781.20953,518.61531 780.98243,519.43845 782.74923,520.52861 783.93203,520.1023 785.12633,520.1566 784.37003,519.74445 783.78283,518.6484 783.51503,516.56378 784.35803,516.38661 786.04043,516.7527 786.86153,516.43825 788.31813,517.38666 788.72453,517.21923 788.43073,515.64183 789.19373,515.40123 788.42853,512.893 789.11323,512.37397 790.40123,512.27114 791.18723,511.24279 791.58593,511.07213 791.84233,511.4233 793.38393,510.90773 793.00763,512.87228 795.41203,513.49857 796.04633,512.48871 798.81023,513.28385 799.33533,512.63746 799.24583,511.05857 800.34693,509.97527 799.67203,509.56631 794.57533,506.8217 795.27973,505.25535 796.07343,505.12167 796.86973,504.1228 796.49283,503.91725 796.68993,503.08177 793.32563,499.96805 794.42113,498.31238 793.72143,497.36618 794.68323,497.05041 794.27253,494.01615 794.75833,492.84316 795.82673,492.05809 796.80273,492.80185 797.93263,492.23887 799.09723,492.70742 799.54733,492.02345 799.82103,493.60247 800.63973,493.42262 801.41563,493.72254 802.47813,493.11077 803.30533,493.09499 803.56713,493.20608 806.12753,492.68497 806.95663,494.19547 807.67903,494.03757 808.71723,494.43006 808.96223,493.59991 807.88433,491.68432 807.83833,489.89549 808.76863,486.43785 807.99793,486.58155 806.87053,485.34787 806.57613,484.13323 805.44683,483.61948 804.64913,483.96391 802.13913,483.31923 802.22563,482.90166 801.52163,482.42302 802.89323,479.57231 802.63983,478.80506 800.62703,478.64267 800.42783,479.01154 799.92783,478.55254 800.57143,478.27816 799.83323,478.07063 798.49263,478.73293 797.73393,477.72318 797.68973,476.88292 797.06573,476.34519 797.23633,475.59234 796.32373,474.72272 796.52423,473.89866 794.78603,474.02373 793.49553,472.82755 793.08243,472.37983 793.37973,470.31688 793.81243,469.11513 791.33843,468.13634 791.36443,467.07458 792.41703,466.42887 791.82683,466.24711 792.00333,465.9704 794.13083,463.0801 794.57433,462.98988 794.78233,462.45525 794.97403,461.31096 793.29663,459.82115 791.56943,459.47144 791.40123,458.92234 790.40433,458.6782 790.72663,459.4913 790.52433,459.88008 789.66773,459.84114 788.99963,460.36838 787.87073,462.74216 786.98663,462.87917 786.30583,463.44482 785.89303,463.3135 785.74983,464.12189 785.01983,464.334 786.16593,466.10412 787.26763,466.69422 787.25123,467.11979 786.62263,467.05153 785.90723,467.90389 783.86683,467.45943 783.05103,467.74857 782.33843,468.83623 780.42663,468.35449 778.76403,468.91452 777.41303,470.72986 776.40573,470.41781 776.65853,470.76359 775.85183,471.75498 775.78363,472.60968 774.63343,473.15763 774.13643,473.85312 774.83263,476.07727 776.43253,476.16975 776.72543,475.87674 777.60783,479.61898 780.05293,478.28176 780.79963,478.3643 782.00963,479.92416 781.49193,481.89192 780.66473,482.03533 782.48083,483.07974 782.55683,483.4955 782.15923,484.99645 780.45873,485.59935 780.07663,484.85002 778.95283,484.31166 z">
      <title id="t110">Première circonscription d'Eure-et-Loir</title>
      <desc id="d110">Cantons de Chartres Nord-Est, Chartres Sud-Est, Chartres Sud-Ouest, Maintenon, Nogent-le-Roi</desc>
    </path><path class="circo" id="id-028-02" d="M 773.12983,454.38701 772.99883,454.15754 772.18323,452.72547 772.43323,450.70984 775.02153,448.76049 775.68183,447.44453 776.26173,446.89699 777.88273,446.82476 778.49903,446.23478 779.36963,446.24887 780.08773,445.7524 780.75043,445.50104 781.44653,444.51674 781.85613,442.07743 781.07393,441.87054 781.00033,440.58551 779.92853,438.6322 780.73463,438.26142 781.06323,436.96092 782.68743,436.63145 783.82163,437.01346 784.48163,436.50851 784.50493,436.50812 785.33233,437.49223 785.04103,438.2948 785.53583,438.99869 786.30333,438.60038 787.60343,439.01357 787.79673,439.42881 787.89363,439.78181 788.12123,440.42333 787.62653,440.95474 789.77033,443.03082 788.28183,445.38215 789.35363,446.43998 789.41483,446.05181 790.47843,446.48223 791.40413,447.31262 790.92023,449.00965 791.71513,449.15922 792.41833,449.68448 792.38453,450.12874 791.30473,450.88687 792.04343,452.49944 792.02133,452.88541 791.10423,453.58798 790.89863,456.63978 791.79783,458.14141 791.40123,458.92234 790.40433,458.6782 790.72663,459.4913 790.52433,459.88008 789.66773,459.84114 788.99963,460.36838 787.87073,462.74216 786.98663,462.87917 786.30583,463.44482 785.89303,463.3135 785.74983,464.12189 785.01983,464.334 786.16593,466.10412 787.26763,466.69422 787.25123,467.11979 786.62263,467.05153 785.90723,467.90389 783.86683,467.45943 783.05103,467.74857 782.33843,468.83623 780.42663,468.35449 778.76403,468.91452 777.41303,470.72986 776.40573,470.41781 776.65853,470.76359 775.85183,471.75498 775.78363,472.60968 774.63343,473.15763 774.13643,473.85312 774.83263,476.07727 776.43253,476.16975 776.72543,475.87674 777.60783,479.61898 780.05293,478.28176 780.79963,478.3643 782.00963,479.92416 781.49193,481.89192 780.66473,482.03533 782.48083,483.07974 782.55683,483.4955 782.15923,484.99645 780.45873,485.59935 780.07663,484.85002 778.95283,484.31166 777.45883,484.45592 775.86413,484.46504 774.85163,483.63503 773.97333,483.52235 773.17883,483.94914 772.78353,485.17319 773.73123,486.72049 773.16563,487.11111 772.21683,486.18576 771.60043,486.79022 772.02923,487.5808 769.72733,487.3936 767.08223,490.80441 766.31553,491.44219 765.13073,491.43461 763.98043,490.32828 763.19563,490.34689 761.58923,491.67829 759.70973,490.67928 758.53223,493.06843 757.30533,492.76759 755.58813,492.91949 754.20583,491.88975 753.35623,492.03807 752.79063,492.7037 751.13303,492.60248 750.74433,491.51161 749.51373,491.2284 748.69803,491.44219 747.38373,490.28259 745.35563,491.15385 744.02233,491.19991 744.26963,490.35651 743.08583,489.06951 741.53393,489.8181 741.32103,488.96065 739.59393,487.58504 739.07673,486.37711 737.02813,486.68685 735.65483,485.54412 735.53623,485.67898 734.22353,485.10345 732.75093,484.11512 730.56973,483.84315 729.04213,482.30197 728.75283,479.33628 726.75433,479.35428 726.46073,478.1164 727.55033,476.19766 726.79003,475.95134 726.85353,473.97934 725.69593,472.23402 726.11013,471.46975 727.20223,470.1109 728.42623,470.265 729.13143,469.82393 730.17053,469.16432 730.57733,467.11271 731.37043,465.6205 732.53153,465.12551 733.36423,466.10476 735.01403,466.04009 735.15303,466.44677 737.70203,465.63351 738.78713,464.23503 740.00543,463.6402 740.63033,464.30127 743.20463,463.88582 743.71843,463.16787 744.62143,463.96146 744.97083,463.7371 744.84383,462.48799 747.20843,460.02966 748.02253,461.26017 749.34673,460.35329 749.31873,460.77619 751.51883,461.66251 751.99533,459.18271 752.40023,459.03969 751.93963,456.93521 752.17053,456.13121 753.22393,456.58547 754.78133,456.5767 754.70033,457.86552 755.70423,458.696 757.86093,458.25736 760.81103,460.1577 761.26453,459.5443 760.77363,458.95561 762.76343,458.64867 763.43493,459.09437 763.81683,460.15086 764.62373,460.23983 765.51643,459.49053 767.09113,458.86353 768.31783,459.26627 768.50963,459.36776 769.67983,459.8405 772.09243,457.44024 772.14463,457.39264 772.84403,456.97081 773.68363,457.00796 773.88063,455.77716 773.32943,454.6406 773.12983,454.38701 z">
      <title id="t111">Deuxième circonscription d'Eure-et-Loir</title>
      <desc id="d111">Cantons de : Anet, Brézolles, Châteauneuf-en-Thymerais, Dreux Est, Dreux Ouest, Dreux Sud, La Ferté-Vidame, Senonches</desc>
    </path><path class="circo" id="id-028-03" d="M 739.12213,532.11858 740.34013,533.16838 744.17523,533.15958 744.21963,534.85091 743.53303,535.39021 743.47843,536.26693 745.16113,536.09743 746.28803,536.62808 747.56913,536.63777 748.43493,537.58338 747.68473,539.07995 746.90343,539.3365 746.09873,539.10645 745.70193,539.75136 744.36713,540.26733 742.60933,540.41023 741.44603,541.05069 738.03273,544.38633 737.21073,544.71356 737.09333,542.87188 735.83413,542.95641 734.48043,543.91817 732.40763,544.159 730.93233,543.37487 728.35403,544.05819 729.52633,541.41081 729.13223,540.23612 734.56943,539.88357 734.76603,539.48961 734.16763,538.90466 734.32523,538.46707 732.03033,536.57163 730.00543,535.95877 728.29933,536.10176 727.95813,535.83578 727.21863,535.14485 725.80593,533.65554 724.64033,533.21632 724.65113,532.41378 725.42343,532.03288 725.41323,531.16873 727.35343,530.2574 726.72923,528.70254 723.77273,523.8667 724.12943,523.38328 723.65883,522.62053 724.34403,520.96996 725.45113,520.25382 724.63683,520.0351 723.03003,518.67256 721.48843,519.18086 721.18173,518.8825 722.20683,517.00719 722.25843,516.14974 723.26463,514.76349 723.61213,513.77313 723.83273,513.65983 726.41493,512.62428 727.21923,513.53335 728.27883,512.95861 728.25293,512.17763 729.43113,512.66342 730.71853,511.62452 731.96573,511.68989 733.04363,509.87508 733.33593,509.59664 733.97523,509.97808 735.60573,508.18545 735.85853,507.35627 737.46323,505.94101 737.20053,503.83195 739.84623,501.18563 739.68633,500.77804 738.07493,500.34929 736.80653,498.57848 736.60143,497.28144 736.38603,496.47704 737.86053,495.88117 738.05963,494.27756 736.88293,493.5037 737.99673,492.73706 739.10873,490.27181 736.05733,488.95359 735.40733,488.45435 736.50773,487.09789 735.53623,485.67898 735.65483,485.54412 737.02813,486.68685 739.07673,486.37711 739.59393,487.58504 741.32103,488.96065 741.53393,489.8181 743.08583,489.06951 744.26963,490.35651 744.02233,491.19991 745.35563,491.15385 747.38373,490.28259 748.69803,491.44219 749.51373,491.2284 750.74433,491.51161 751.13303,492.60248 752.79063,492.7037 753.35623,492.03807 754.20583,491.88975 755.58813,492.91949 757.30533,492.76759 758.53223,493.06843 759.70973,490.67928 761.58923,491.67829 763.19563,490.34689 763.98043,490.32828 765.13073,491.43461 766.31553,491.44219 767.08223,490.80441 769.72733,487.3936 772.02923,487.5808 773.73933,489.91885 774.20233,490.5444 773.65403,490.86639 773.35603,492.38847 774.08713,493.18838 774.93113,493.15028 775.48203,492.50754 775.88413,492.63789 777.29923,493.59041 778.25873,492.76323 779.57113,494.53652 780.95943,493.74409 781.75263,493.93637 782.14523,494.66272 782.55273,494.73326 782.57993,495.612 783.93073,496.70642 783.53223,498.37754 782.89673,497.89077 782.74213,498.30559 782.97893,499.06706 782.89943,499.75522 782.46763,500.11965 781.72783,500.57097 782.48583,501.54771 780.16453,503.39353 778.49263,502.76282 777.37603,503.87883 775.86903,504.35653 774.60263,505.41477 774.45273,505.84294 774.99573,506.55772 776.52233,507.53343 777.85343,507.76921 777.79043,507.835 777.53743,508.6796 775.78863,510.66554 775.04973,512.26461 775.84013,512.36361 776.91023,513.47913 778.72903,513.02371 779.43813,513.36992 779.01853,513.96393 779.69863,514.41877 779.81773,515.64298 780.92573,516.11241 780.85583,517.82184 781.20953,518.61531 780.98243,519.43845 780.74493,520.01453 780.13603,519.88511 778.93233,520.22852 777.39533,519.43027 776.20233,521.2179 774.71093,522.1001 772.99623,521.80673 772.27543,521.7504 771.76083,521.19683 770.78353,520.55978 769.78253,522.44429 768.07603,522.48414 766.88223,524.19573 766.42143,524.12998 766.89663,521.99461 766.49173,520.38834 765.66193,520.33635 762.31043,522.30828 761.10053,522.52155 760.02223,522.01491 759.60843,520.89664 758.94993,520.46908 757.38333,521.03268 757.52893,522.33408 756.84173,522.84644 756.80013,523.28074 755.44433,523.36629 754.74033,524.91451 753.13433,524.52844 752.84953,525.32454 753.43573,525.94708 753.81083,526.70102 753.55883,527.03884 751.90733,527.08274 749.78183,526.51021 748.06323,526.86106 747.73693,525.21821 746.58313,525.48679 745.80853,526.49847 746.38513,527.68686 746.29443,528.55964 746.87713,529.21007 747.57653,529.72214 747.02253,531.40735 746.59533,531.53502 744.06733,530.75766 740.06163,530.95344 739.35453,531.32063 739.12213,532.11858 z">
      <title id="t112">Troisième circonscription d'Eure-et-Loir</title>
      <desc id="d112">Cantons de : Authon-du-Perche, Courville-sur-Eure, Illiers-Combray, La Loupe, Lucé, Mainvilliers, Nogent-le-Rotrou, Thiron</desc>
    </path><path class="circo" id="id-028-04" d="M 810.74613,497.68014 810.03403,497.42798 809.90933,496.63513 809.31963,496.05915 809.54143,495.3636 808.71723,494.43006 807.67903,494.03757 806.95663,494.19547 806.12753,492.68497 803.56713,493.20608 803.30533,493.09499 802.47813,493.11077 801.41563,493.72254 800.63973,493.42262 799.82103,493.60247 799.54733,492.02345 799.09723,492.70742 797.93263,492.23887 796.80273,492.80185 795.82673,492.05809 794.75833,492.84316 794.27253,494.01615 794.68323,497.05041 793.72143,497.36618 794.42113,498.31238 793.32563,499.96805 796.68993,503.08177 796.49283,503.91725 796.86973,504.1228 796.07343,505.12167 795.27973,505.25535 794.57533,506.8217 799.67203,509.56631 800.34693,509.97527 799.24583,511.05857 799.33533,512.63746 798.81023,513.28385 796.04633,512.48871 795.41203,513.49857 793.00763,512.87228 793.38393,510.90773 791.84233,511.4233 791.58593,511.07213 791.18723,511.24279 790.40123,512.27114 789.11323,512.37397 788.42853,512.893 789.19373,515.40123 788.43073,515.64183 788.72453,517.21923 788.31813,517.38666 786.86153,516.43825 786.04043,516.7527 784.35803,516.38661 783.51503,516.56378 783.78283,518.6484 784.37003,519.74445 785.12633,520.1566 783.93203,520.1023 782.74923,520.52861 780.98243,519.43845 780.74493,520.01453 780.13603,519.88511 778.93233,520.22852 777.39533,519.43027 776.20233,521.2179 774.71093,522.1001 772.99623,521.80673 772.27543,521.7504 771.76083,521.19683 770.78353,520.55978 769.78253,522.44429 768.07603,522.48414 766.88223,524.19573 766.42143,524.12998 766.89663,521.99461 766.49173,520.38834 765.66193,520.33635 762.31043,522.30828 761.10053,522.52155 760.02223,522.01491 759.60843,520.89664 758.94993,520.46908 757.38333,521.03268 757.52893,522.33408 756.84173,522.84644 756.80013,523.28074 755.44433,523.36629 754.74033,524.91451 753.13433,524.52844 752.84953,525.32454 753.43573,525.94708 753.81083,526.70102 753.55883,527.03884 751.90733,527.08274 749.78183,526.51021 748.06323,526.86106 747.73693,525.21821 746.58313,525.48679 745.80853,526.49847 746.38513,527.68686 746.29443,528.55964 746.87713,529.21007 747.57653,529.72214 747.02253,531.40735 746.59533,531.53502 744.06733,530.75766 740.06163,530.95344 739.35453,531.32063 739.12213,532.11858 740.34013,533.16838 744.17523,533.15958 744.21963,534.85091 743.53303,535.39021 743.47843,536.26693 745.16113,536.09743 746.28803,536.62808 747.56913,536.63777 748.43493,537.58338 747.68473,539.07995 746.90343,539.3365 746.09873,539.10645 745.70193,539.75136 744.36713,540.26733 745.23223,540.49454 745.85383,541.69185 745.63273,542.08466 742.42933,543.69948 741.19903,544.96811 741.48423,545.81084 742.65073,546.46388 743.90033,545.97424 744.73423,546.26042 747.36533,546.26042 747.92123,547.37601 751.39103,546.90031 750.91283,549.43659 751.69133,550.4962 752.06313,552.0736 752.46653,552.67961 753.18113,552.84576 754.08553,553.51208 755.75823,553.53686 756.05593,553.83085 755.60963,554.89483 756.26393,556.31389 756.65373,556.50154 757.80833,557.08783 758.30343,559.19501 758.89193,559.81713 758.85163,560.25 758.12853,560.72385 759.29473,561.14625 760.77873,560.25774 762.93213,559.88481 763.67723,560.34485 764.00283,561.15945 764.41053,561.87951 767.31593,561.20693 768.08533,563.03459 770.60213,562.52739 771.57693,561.80538 773.30323,563.03649 773.84873,560.97993 774.74223,559.54094 776.47123,560.91036 779.01743,560.14842 779.21833,559.29864 778.74873,557.6206 778.97533,556.33891 778.62363,556.08062 779.37063,555.6861 780.58263,556.09103 782.69483,557.49065 783.81793,558.76436 786.06273,559.41458 786.03343,557.35625 786.52453,556.18633 785.87293,555.66564 785.59803,553.53305 786.70303,552.90932 788.37823,553.13571 788.46623,552.70847 787.73773,552.23226 788.20333,551.4969 789.99473,552.51791 791.58733,552.9022 791.74353,553.28494 792.16153,553.2557 792.79163,551.72957 794.03203,551.55195 794.65713,551.02264 794.69573,549.04409 795.26243,548.42057 796.51693,548.22709 797.61213,547.58898 798.34303,547.9429 798.67583,548.7261 799.47973,548.75485 800.41133,547.25324 802.11683,548.655 803.35903,548.39436 805.48313,548.75523 807.04943,548.05154 807.43393,548.25965 807.99123,547.60756 809.64033,547.28797 809.85623,546.46935 810.08623,545.82115 812.29223,546.98339 813.09343,546.89369 813.26973,546.06662 815.34393,546.35471 815.36983,545.06025 816.79223,544.70084 817.47873,543.7369 818.30783,540.93862 818.58193,540.59681 819.42593,540.73855 820.08743,538.54134 818.85803,538.4207 818.67853,537.66989 819.04553,536.92296 820.42023,535.02771 821.50243,535.64728 823.00803,534.92293 824.22793,535.33349 824.40913,534.49603 822.90673,532.45191 823.21653,531.65477 823.63453,531.59304 824.02923,532.37617 824.43783,532.38586 824.84333,531.63003 823.67383,528.82502 824.01483,527.23486 823.62863,525.90547 823.95503,524.76054 825.24283,523.82125 825.82273,522.93928 826.35053,520.65585 825.08023,520.44685 823.61513,518.57838 823.38753,517.83155 824.85963,517.1166 824.77913,515.94558 825.35253,515.32273 824.35593,513.82966 824.78113,511.66981 825.77853,510.78325 824.90043,508.81551 824.02463,508.65771 824.91903,506.25853 823.64243,505.59787 822.48463,505.34127 820.93923,505.6455 820.88233,504.66362 820.55403,504.51942 821.66953,503.31387 821.52373,501.61241 821.99923,500.90054 821.25493,500.68579 820.95653,499.27048 820.23583,498.77293 820.04343,500.01047 819.21933,500.27317 818.73623,500.99472 817.00333,501.02714 816.60563,500.94282 815.74493,500.96435 815.04573,500.4568 813.86673,500.17309 813.17863,498.71756 812.79103,497.53772 810.74613,497.68014 z">
      <title id="t113">Quatrième circonscription d'Eure-et-Loir</title>
      <desc id="d113">Cantons de : Auneau, Bonneval, Brou, Châteaudun, Cloyes-sur-le-Loir, Janville, Orgères-en-Beauce, Voves</desc>
    </path></svg>