<svg xmlns="http://www.w3.org/2000/svg" version="1.1" xmlns:xlink="http://www.w3.org/1999/xlink" xmlns:svgjs="http://svgjs.dev/svgjs" viewBox="220.02973 460.85454 148.8287 126.30964999999998"><path class="circo" id="029-01" d="M 310.60963,541.08698 310.14473,541.71108 309.51573,542.79167 308.16923,543.73448 308.60423,544.46575 308.54443,547.01558 307.78843,548.94361 307.45383,551.51445 307.12533,551.79568 305.85993,551.69575 304.27113,553.11181 305.40343,554.71883 303.29293,554.99014 302.21923,554.40023 301.38803,554.47508 303.19233,556.28073 303.89973,558.79535 303.11823,558.59354 301.40423,556.69312 299.78353,558.02503 299.09993,557.48061 297.97133,558.02973 297.49873,557.32932 296.95443,557.96038 296.59993,559.62284 298.41443,560.64919 298.36863,561.92572 298.74853,562.69139 298.24193,564.19339 299.86343,564.62141 300.59453,565.64482 300.85463,566.0291 300.81033,566.10762 302.04723,567.77018 301.86763,568.94983 302.71193,570.38626 304.40363,570.17251 304.23613,568.48621 304.84933,566.49682 305.56413,566.5671 305.55103,565.99053 306.72203,565.88422 307.28533,565.19695 307.28683,563.33462 306.44643,563.04271 307.30593,562.78582 307.21883,561.81769 306.71603,561.58106 307.45413,561.77681 308.05033,561.23423 306.79673,560.10296 306.89193,559.17876 307.28823,560.04925 308.60773,560.80638 308.77633,561.90617 308.52103,563.16328 307.56073,563.51966 307.57443,564.43348 308.64743,564.45569 309.72813,563.22408 308.80183,564.62179 310.94863,565.66968 310.63383,565.69011 310.07983,565.37433 308.50763,564.66785 307.64893,564.71568 307.56203,565.30023 306.83003,566.09341 305.76153,566.12044 305.64813,566.73835 305.03273,566.71856 304.64373,568.2932 304.81483,569.88192 305.96623,570.743 306.98203,570.2534 306.20073,570.91186 306.42813,571.46974 307.86153,572.28474 307.10253,572.04773 306.75793,572.65849 307.33963,573.52644 308.12683,573.55939 308.24093,574.66312 308.96073,574.76055 309.48063,574.28315 310.20893,574.32167 309.93483,573.08456 310.43413,574.01973 311.12893,573.49223 310.66693,574.14644 312.78463,575.81279 309.53123,574.69416 313.38413,576.56024 319.00023,575.59427 318.37613,574.72951 317.69443,572.04228 319.07083,571.02887 318.05953,571.14853 317.58483,570.21042 318.42633,570.59595 318.77233,568.81136 319.12713,570.48908 320.70763,570.43824 321.42833,569.28269 321.16603,567.15769 322.23113,566.53741 322.67323,565.33855 321.98373,564.87785 320.70033,565.04761 319.40193,563.98426 318.23603,564.47535 318.59493,562.80613 317.89293,561.22852 318.49473,559.23857 319.63093,559.29483 320.89863,553.33108 319.08663,552.23201 319.73733,551.76758 320.95743,551.73415 321.89093,550.96809 324.01823,550.17854 327.83813,546.9143 327.33303,546.24591 325.70823,546.66772 325.02733,545.10454 325.22043,544.71738 325.72213,544.10987 325.53213,542.06467 324.84153,541.79881 324.57813,541.09386 322.95493,540.73651 322.75763,539.48146 322.09283,538.95333 322.51803,538.21609 322.38043,537.81158 321.03933,537.7759 316.77633,539.07078 315.93863,538.84861 315.34363,536.94271 313.86183,536.4261 312.26183,536.60757 311.81743,536.65676 311.69163,537.08594 311.74063,539.71264 310.60963,541.08698 z">
      <title id="t114">Première circonscription du Finistère</title>
      <desc id="d114">Cantons de : Briec, Fouesnant, Quimper I, Quimper II, Quimper III</desc>
    </path><path class="circo" id="029-02" d="M 270.79243,501.28852 270.97243,501.64982 270.52783,501.64854 269.72083,500.63543 268.85283,500.5893 265.91483,502.52776 266.58763,504.82997 268.52273,507.06864 269.00163,506.40691 270.73373,505.97426 271.07553,507.48577 272.04483,507.85913 273.04333,507.66342 274.01263,506.76731 274.61393,507.51293 274.74823,508.88599 275.87233,508.48673 276.77023,508.53075 277.97003,507.9621 279.65683,508.3375 279.97813,506.61828 278.94153,505.86381 277.95723,504.48075 278.17203,503.73589 277.76793,503.01375 279.09013,501.94487 279.44973,500.2724 280.19273,499.88706 280.20483,498.62822 279.01403,499.08041 277.74543,498.87765 276.87233,497.53361 276.54103,497.2558 276.17853,497.48964 274.96003,499.25536 274.58833,498.6236 274.12513,499.14629 273.39393,499.04709 272.66783,499.87527 272.26483,499.88719 272.02843,500.62915 271.64843,500.49409 270.79243,501.28852 z">
      <title id="t115">Deuxième circonscription du Finistère</title>
      <desc id="d115">Cantons de : Brest-Bellevue, Brest-Cavale-Blanche-Bohars-Guilers, Brest Centre, Brest-l'Hermitage-Gouesnou, Brest-Kerichen, Brest-Lambezellec, Brest-Saint-Marc</desc>
    </path><path class="circo" id="029-03" d="M 281.24848,481.47954 280.77973,482.16704 280.96723,482.54204 278.71723,484.35454 278.37348,484.29204 277.62348,484.72954 275.96723,486.79204 273.74848,486.54204 273.81098,487.32329 273.27973,487.04204 271.81098,486.41704 271.71723,487.07329 272.09223,488.22954 270.77973,489.76079 269.24848,486.66704 267.56098,486.22954 266.99848,486.07329 266.21723,486.47954 266.49848,485.66704 265.81098,484.10454 263.37348,483.32329 261.84223,484.07329 260.68598,484.16704 260.46723,484.47954 259.93598,483.79204 258.93598,484.60454 258.49848,484.07329 257.18598,484.22954 256.99848,486.91704 256.74848,486.47954 255.59223,485.88579 254.81098,486.19829 253.18598,487.76079 252.96723,489.07329 252.21723,489.54204 251.93598,490.85454 251.68598,491.22954 251.24848,491.51079 250.77973,493.51079 251.15473,495.19829 251.68598,495.88579 251.21723,496.10454 252.49848,497.07329 254.77973,496.60454 255.24848,496.29204 255.77973,496.63579 252.93598,497.22954 252.27973,498.47954 252.49848,497.44829 252.15473,497.35454 251.81098,497.72954 250.59223,499.91704 250.49848,500.35454 250.87348,500.54204 250.15473,501.60454 249.40473,504.10454 250.09223,505.19829 250.84223,505.26079 251.12348,507.69829 252.15473,508.88579 252.09223,509.85454 250.93598,510.72954 249.99848,510.19829 249.87348,511.10454 252.62348,510.79204 253.40473,510.38579 252.77973,510.91704 253.02973,511.26079 252.59223,511.32329 251.27973,511.07329 250.37348,511.51079 251.43598,512.85454 250.84223,514.35454 251.24848,514.44829 251.12348,514.88579 251.84223,515.32329 254.06098,514.88579 256.27973,514.94829 257.37348,514.13579 257.46723,512.41704 259.12348,511.85454 261.37348,513.04204 262.62348,513.29204 263.56098,514.13579 263.99848,514.04204 265.21723,513.97954 269.74848,511.10454 271.46723,511.41704 273.77973,509.35454 274.74848,508.88579 274.62348,507.51079 273.99848,506.76079 273.02973,507.66704 272.02973,507.85454 271.06098,507.47954 270.74848,505.97954 268.99848,506.41704 268.52973,507.07329 266.59223,504.82329 265.90473,502.54204 268.84223,500.60454 269.71723,500.63579 270.52973,501.63579 270.96723,501.63579 270.77973,501.29204 271.65473,500.47954 272.02973,500.63579 272.27973,499.88579 272.65473,499.88579 273.40473,499.04204 274.12348,499.13579 274.59223,498.63579 274.96723,499.26079 276.18598,497.47954 276.52973,497.26079 276.87348,497.54204 277.74848,498.88579 278.99848,499.07329 280.21723,498.63579 283.12348,497.97954 283.87348,498.41704 284.84223,499.10454 286.02973,498.82329 287.56098,498.07329 287.90473,497.32329 286.99848,494.91704 287.27973,493.19829 286.49848,491.35454 285.99848,489.16704 285.31098,488.01079 285.87348,487.32329 285.34223,486.94829 285.46723,486.66704 285.62348,484.47954 284.90473,483.44829 284.93598,483.35454 282.99848,482.22954 281.24848,481.47954 z M 235.12348,505.97954 234.71723,506.44829 235.31098,507.51079 235.77973,506.79204 235.12348,505.97954 z">
      <title id="t116">Troisième circonscription du Finistère</title>
      <desc id="d116">Cantons de : Brest-Plouzané, Brest-Recouvrance, Brest-Saint-Pierre, Plabennec, Ploudalmézeau, Saint-Renan</desc>
    </path><path class="circo" id="029-04" d="M 315.06098,460.85454 313.68598,461.63579 313.62348,461.85454 313.71723,462.07329 313.93598,462.16704 314.77973,462.47954 315.21723,462.47954 315.52973,462.13579 315.93598,462.07329 316.27973,462.35454 317.18598,462.41704 317.52973,462.94829 317.77973,462.57329 317.62348,461.91704 316.81098,461.57329 316.18598,460.91704 315.06098,460.85454 z M 317.96723,463.97954 316.81098,466.07329 316.56098,464.22954 316.24848,464.29204 315.52973,465.88579 313.84223,466.13579 313.49848,466.94829 312.27973,467.32329 312.06098,469.07329 313.81098,469.22954 313.56098,469.35454 311.65473,469.29204 311.24848,469.57329 312.09223,471.19829 311.99848,471.54204 311.68598,470.69829 309.87348,468.69829 308.99848,468.82329 308.81098,469.22954 308.59223,468.35454 307.27973,468.29204 305.52973,468.22954 303.02973,468.94829 303.31098,471.57329 304.09223,474.04204 303.56098,474.63579 302.31098,474.35454 304.31098,477.69829 303.40473,480.51079 302.37348,481.29204 302.65473,482.13579 302.46723,484.72954 302.71723,485.22954 303.56098,485.35454 304.77973,484.97954 304.90473,484.13579 305.49848,483.51079 306.71723,483.22954 308.68598,484.76079 311.06098,483.57329 312.71723,483.69829 312.56098,485.88579 311.84223,488.01079 311.96723,488.44829 312.77973,488.79204 314.46723,488.76079 314.84223,489.01079 314.90473,490.35454 314.37348,492.51079 315.40473,493.16704 318.65473,493.47954 318.46723,495.16704 319.40473,497.07329 319.15473,497.72954 317.93598,497.26079 316.99848,498.10454 316.18598,497.76079 315.37348,498.01079 315.21723,499.19829 314.43598,499.10454 311.49848,496.41704 310.62348,496.29204 310.06098,494.01079 308.43598,493.51079 306.68598,494.41704 304.12348,495.22954 303.68598,494.79204 302.99848,494.85454 301.21723,495.97954 299.71723,495.26079 300.74848,493.85454 299.96723,492.82329 299.52973,492.72954 299.18598,493.54204 298.46723,494.01079 298.40473,494.44829 297.93598,495.13579 298.62348,497.07329 297.71723,497.76079 297.87348,498.16704 299.31098,498.97954 299.37348,500.69829 299.90473,501.35454 298.77973,503.10454 299.52973,503.91704 301.62348,506.66704 301.46723,507.44829 302.71723,507.69829 304.71723,509.38579 305.37348,509.94829 307.12348,510.22954 309.21723,508.72954 310.34223,511.07329 311.52973,511.54204 311.81098,512.32329 312.59223,511.63579 312.74848,511.54204 316.65473,510.47954 319.68598,511.35454 320.12348,511.19829 320.49848,510.38579 321.62348,508.22954 323.68598,505.91704 323.81098,505.82329 326.59223,504.41704 329.93598,503.35454 331.84223,502.29204 333.40473,502.66704 333.68598,501.85454 336.06098,501.04204 337.77973,500.13579 340.37348,500.19829 342.27973,499.35454 343.15473,499.38579 344.62348,497.76079 346.21723,497.63579 347.37348,496.54204 347.62348,496.88579 348.46723,496.85454 348.99848,498.04204 349.84223,498.19829 349.87348,497.51079 350.87348,497.07329 350.99848,496.69829 350.43598,496.13579 350.68598,495.32329 350.49848,494.10454 351.02973,493.51079 352.12348,492.72954 354.27973,489.85454 355.99848,488.41704 354.77973,488.04204 353.15473,486.04204 352.40473,486.41704 350.87348,485.82329 352.06098,483.91704 351.31098,482.32329 350.87348,482.47954 349.68598,481.88579 348.34223,481.97954 347.71723,481.35454 347.37348,481.01079 347.43598,479.32329 346.68598,479.01079 346.24848,478.26079 345.43598,473.57329 345.81098,472.88579 346.27973,471.97954 347.52973,470.97954 346.18598,470.01079 347.24848,468.41704 346.09223,468.22954 344.12348,469.29204 343.27973,468.69829 342.21723,468.94829 340.46723,466.91704 338.27973,466.63579 336.96723,466.47954 335.56098,467.38579 334.49848,467.26079 333.87348,465.97954 333.12348,466.16704 331.81098,465.07329 332.34223,467.54204 331.02973,466.01079 329.34223,469.19829 329.90473,472.76079 329.31098,472.47954 329.12348,471.04204 328.49848,471.22954 329.81098,476.63579 332.87348,476.79204 329.77973,477.13579 328.81098,478.63579 329.62348,480.01079 328.96723,479.54204 327.84223,479.97954 328.77973,479.26079 328.52973,478.85454 328.90473,478.16704 328.90473,476.79204 328.62348,476.38579 326.96723,475.44829 326.27973,475.07329 325.56098,474.47954 325.02973,473.22954 324.87348,472.38579 326.21723,471.88579 326.09223,471.29204 323.52973,470.94829 322.90473,472.94829 321.74848,473.38579 321.02973,473.88579 321.37348,475.10454 321.02973,477.29204 321.62348,478.44829 322.02973,478.63579 321.77973,478.97954 322.37348,480.66704 320.74848,478.13579 321.02973,475.51079 320.46723,474.35454 320.90473,473.07329 320.81098,471.26079 319.43598,470.29204 319.90473,469.07329 319.12348,468.01079 319.09223,467.13579 319.84223,464.85454 317.96723,463.97954 z">
      <title id="t117">Quatrième circonscription du Finistère</title>
      <desc id="d117">Cantons de : Lanmeur, Morlaix, Ploudiry, Plouigneau, Plouzévédé, Saint-Pol-de-Léon, Saint-Thégonnec, Sizun, Taulé</desc>
    </path><path class="circo" id="029-05" d="M 303.02973,468.94829 300.93598,469.57329 298.77973,471.85454 297.96723,473.04204 299.81098,473.26079 300.31098,473.82329 298.18598,474.19829 297.15473,474.10454 297.74848,473.26079 295.99848,474.07329 293.43598,474.19829 293.24848,474.76079 291.27973,475.32329 291.84223,475.82329 291.18598,476.26079 290.34223,475.97954 289.96723,475.63579 289.90473,475.26079 290.59223,474.91704 289.81098,474.57329 291.09223,473.85454 291.81098,472.32329 290.46723,471.76079 289.99848,471.13579 289.43598,471.97954 288.87348,471.66704 288.93598,470.79204 287.15473,470.66704 283.09223,473.26079 279.99848,473.63579 280.37348,474.38579 283.06098,475.82329 280.12348,475.32329 279.90473,476.07329 279.40473,475.16704 277.49848,477.01079 273.52973,477.60454 273.24848,476.29204 271.84223,476.82329 270.71723,475.85454 270.87348,477.44829 268.84223,477.35454 268.62348,479.22954 269.87348,479.13579 269.15473,479.97954 270.99848,480.51079 272.59223,481.19829 272.68598,481.97954 274.21723,481.91704 276.18598,484.07329 275.37348,483.82329 273.93598,482.26079 272.65473,482.29204 272.37348,481.44829 271.87348,481.41704 270.43598,480.69829 269.52973,481.22954 269.09223,480.66704 266.27973,481.32329 267.09223,480.29204 266.12348,479.54204 265.34223,479.91704 265.40473,482.26079 264.96723,483.44829 266.31098,483.72954 267.12348,485.26079 269.71723,485.38579 273.31098,486.66704 273.74848,486.54204 275.96723,486.79204 277.62348,484.72954 278.37348,484.29204 278.71723,484.35454 280.96723,482.54204 280.77973,482.16704 281.24848,481.47954 282.99848,482.22954 284.93598,483.35454 284.90473,483.44829 285.62348,484.47954 285.46723,486.66704 285.34223,486.94829 285.87348,487.32329 285.31098,488.01079 285.99848,489.16704 286.49848,491.35454 287.27973,493.19829 286.99848,494.91704 287.90473,497.32329 287.56098,498.07329 286.02973,498.82329 284.84223,499.10454 283.87348,498.41704 283.12348,497.97954 280.21723,498.63579 280.18598,499.88579 279.43598,500.26079 279.09223,501.94829 277.77973,503.01079 278.18598,503.72954 277.96723,504.47954 278.93598,505.85454 279.96723,506.60454 280.87348,506.51079 282.31098,507.38579 283.74848,506.44829 284.46723,506.44829 284.87348,506.13579 285.27973,506.04204 285.62348,505.26079 287.27973,505.04204 288.90473,503.85454 290.15473,503.51079 293.15473,501.07329 293.52973,500.54204 293.87348,500.63579 290.15473,504.13579 290.99848,504.35454 292.09223,505.76079 292.90473,507.85454 292.81098,508.29204 291.09223,509.72954 290.77973,510.54204 291.15473,511.82329 291.93598,512.10454 293.99848,511.57329 293.49848,509.97954 294.74848,509.91704 294.84223,509.51079 295.21723,508.26079 296.65473,507.32329 296.96723,506.01079 296.71723,504.69829 297.15473,503.44829 298.02973,503.57329 298.77973,503.10454 299.90473,501.35454 299.37348,500.69829 299.31098,498.97954 297.87348,498.16704 297.71723,497.76079 298.62348,497.07329 297.93598,495.13579 298.40473,494.44829 298.46723,494.01079 299.18598,493.54204 299.52973,492.72954 299.96723,492.82329 300.74848,493.85454 299.71723,495.26079 301.21723,495.97954 302.99848,494.85454 303.68598,494.79204 304.12348,495.22954 306.68598,494.41704 308.43598,493.51079 310.06098,494.01079 310.62348,496.29204 311.49848,496.41704 314.43598,499.10454 315.21723,499.19829 315.37348,498.01079 316.18598,497.76079 316.99848,498.10454 317.93598,497.26079 319.15473,497.72954 319.40473,497.07329 318.46723,495.16704 318.65473,493.47954 315.40473,493.16704 314.37348,492.51079 314.90473,490.35454 314.84223,489.01079 314.46723,488.76079 312.77973,488.79204 311.96723,488.44829 311.84223,488.01079 312.56098,485.88579 312.71723,483.69829 311.06098,483.57329 308.68598,484.76079 306.71723,483.22954 305.49848,483.51079 304.90473,484.13579 304.77973,484.97954 303.56098,485.35454 302.71723,485.22954 302.46723,484.72954 302.65473,482.13579 302.37348,481.29204 303.40473,480.51079 304.31098,477.69829 302.31098,474.35454 303.56098,474.63579 304.09223,474.04204 303.31098,471.57329 303.02973,468.94829 z M 267.12348,485.60454 267.56098,486.22954 269.24848,486.66704 270.77973,489.76079 272.09223,488.22954 271.71723,487.07329 270.77973,486.16704 269.49848,485.79204 267.74848,485.63579 267.12348,485.60454 z">
      <title id="t118">Cinquième circonscription du Finistère</title>
      <desc id="d118">Cantons de : Guipavas, Landerneau, Landivisiau, Lannilis, Lesneven, Plouescat</desc>
    </path><path class="circo" id="029-06" d="M 225.68598,495.54204 225.46723,495.66704 225.71723,496.04204 225.62348,496.26079 225.31098,496.57329 224.87348,496.76079 223.99848,496.60454 222.90473,496.97954 222.46723,497.72954 220.62348,498.66704 220.02973,499.63579 220.06098,499.82329 220.27973,499.88579 220.74848,499.85454 222.90473,499.10454 223.12348,499.04204 223.56098,499.19829 223.87348,499.51079 223.77973,499.94829 222.62348,500.66704 222.06098,501.32329 223.12348,501.51079 223.37348,501.16704 224.24848,500.91704 224.99848,499.82329 226.74848,499.72954 227.65473,498.72954 228.52973,498.63579 228.84223,498.29204 228.81098,498.07329 228.62348,497.94829 227.71723,497.91704 227.12348,497.60454 227.34223,496.32329 226.68598,496.32329 226.31098,495.76079 225.68598,495.54204 z M 347.37348,496.54204 346.21723,497.63579 344.62348,497.76079 343.15473,499.38579 342.27973,499.35454 340.37348,500.19829 337.77973,500.13579 336.06098,501.04204 333.68598,501.85454 333.40473,502.66704 331.84223,502.29204 329.93598,503.35454 326.59223,504.41704 323.81098,505.82329 323.68598,505.91704 321.62348,508.22954 320.49848,510.38579 320.12348,511.19829 319.68598,511.35454 316.65473,510.47954 312.74848,511.54204 312.59223,511.63579 311.81098,512.32329 311.52973,511.54204 310.34223,511.07329 309.21723,508.72954 307.12348,510.22954 305.37348,509.94829 304.71723,509.38579 302.71723,507.69829 301.46723,507.44829 301.62348,506.66704 299.52973,503.91704 298.77973,503.10454 298.02973,503.57329 297.15473,503.44829 296.71723,504.69829 296.96723,506.01079 296.65473,507.32329 295.21723,508.26079 294.84223,509.51079 294.74848,509.91704 293.49848,509.97954 293.99848,511.57329 294.65473,511.57329 293.81098,512.16704 292.06098,512.66704 293.21723,513.22954 289.84223,514.57329 291.09223,515.16704 289.62348,515.51079 288.18598,517.26079 290.49848,516.79204 291.90473,517.57329 292.81098,516.47954 293.65473,516.35454 295.15473,515.44829 295.99848,515.38579 295.34223,515.91704 292.77973,517.16704 293.74848,517.88579 294.84223,517.72954 295.77973,518.97954 296.09223,517.54204 298.02973,517.16704 296.52973,517.97954 296.93598,519.13579 300.34223,519.22954 301.43598,519.41704 300.18598,520.01079 299.59223,519.57329 297.68598,520.44829 297.21723,519.82329 294.34223,521.60454 293.21723,521.32329 292.96723,521.72954 293.77973,522.19829 295.56098,523.26079 296.56098,524.79204 298.43598,523.91704 299.34223,525.26079 303.56098,525.60454 304.02973,525.38579 303.90473,525.79204 305.43598,526.41704 308.68598,524.60454 307.68598,525.60454 307.59223,526.54204 306.84223,529.38579 307.27973,526.07329 305.09223,527.04204 303.46723,525.97954 298.96723,525.72954 299.27973,526.72954 298.74848,526.10454 298.21723,524.29204 297.27973,525.19829 296.15473,525.47954 296.15473,524.94829 295.27973,524.16704 293.96723,524.19829 295.06098,523.63579 292.93598,522.10454 292.31098,522.26079 292.56098,521.76079 292.59223,520.44829 293.46723,520.35454 294.12348,521.04204 294.52973,519.76079 290.81098,519.29204 288.09223,520.79204 286.87348,520.69829 285.62348,521.79204 284.15473,522.10454 281.96723,521.91704 280.84223,520.04204 277.74848,519.85454 276.65473,520.63579 274.12348,521.38579 272.90473,519.51079 274.46723,517.60454 273.56098,517.41704 272.24848,519.88579 271.24848,520.97954 269.84223,519.63579 269.49848,518.32329 270.18598,517.76079 270.65473,515.54204 271.31098,514.35454 271.49848,513.60454 270.84223,513.79204 269.56098,514.19829 267.65473,516.13579 268.59223,520.01079 268.68598,520.72954 267.81098,521.69829 266.37348,522.01079 265.74848,520.54204 264.81098,521.32329 263.06098,521.44829 264.34223,522.07329 263.77973,524.60454 264.77973,523.91704 266.15473,524.79204 267.46723,525.04204 269.49848,524.22954 270.65473,525.38579 270.68598,526.51079 268.18598,527.35454 268.96723,527.79204 269.99848,531.82329 269.87348,534.10454 269.24848,534.72954 269.96723,535.76079 270.81098,535.51079 271.12348,534.19829 272.40473,532.94829 273.40473,530.44829 274.59223,529.13579 274.21723,528.29204 274.59223,527.51079 274.99848,527.29204 277.65473,527.01079 279.37348,527.54204 279.96723,528.19829 280.84223,528.13579 282.46723,528.82329 284.84223,529.54204 285.59223,530.97954 288.59223,530.91704 289.21723,531.41704 289.52973,531.19829 289.93598,531.22954 290.21723,531.97954 290.96723,532.29204 291.65473,533.79204 292.02973,535.01079 291.65473,536.16704 291.81098,536.97954 293.43598,537.38579 293.65473,537.76079 293.71723,538.47954 293.93598,540.19829 292.68598,541.32329 292.68598,543.44829 291.52973,545.04204 291.59223,545.44829 293.56098,546.38579 293.90473,547.19829 295.09223,548.07329 297.15473,547.07329 297.84223,546.66704 298.02973,545.82329 299.27973,545.69829 301.56098,544.60454 304.49848,544.07329 305.87348,544.88579 308.15473,543.72954 309.52973,542.79204 310.15473,541.69829 310.62348,541.07329 311.74848,539.69829 311.68598,537.07329 311.81098,536.66704 312.24848,536.60454 313.87348,536.41704 315.34223,536.94829 315.93598,538.85454 316.77973,539.07329 321.02973,537.76079 322.37348,537.82329 322.52973,538.22954 322.09223,538.94829 322.74848,539.47954 322.96723,540.72954 324.59223,541.10454 324.84223,541.79204 325.52973,542.07329 325.71723,544.10454 325.21723,544.72954 325.02973,545.10454 325.71723,546.66704 327.34223,546.26079 327.84223,546.91704 324.02973,550.16704 324.12348,551.04204 324.87348,551.47954 326.59223,551.32329 327.81098,551.63579 328.31098,552.35454 329.59223,552.29204 332.40473,550.32329 332.99848,548.69829 334.12348,548.91704 334.12348,549.72954 334.56098,549.79204 334.40473,548.54204 334.81098,547.76079 336.84223,546.13579 338.96723,545.57329 339.52973,544.91704 339.81098,544.07329 339.59223,542.79204 340.62348,542.04204 340.31098,541.35454 341.34223,539.97954 341.24848,539.13579 342.40473,538.60454 342.68598,537.82329 344.74848,537.88579 346.31098,537.29204 349.06098,535.41704 353.84223,533.51079 353.68598,532.97954 355.68598,532.54204 357.27973,533.04204 357.65473,532.88579 357.52973,532.07329 357.43598,531.19829 355.84223,530.54204 354.56098,528.22954 354.77973,526.47954 355.56098,526.13579 355.87348,524.91704 357.46723,524.66704 357.09223,523.91704 357.15473,522.66704 357.81098,521.19829 357.37348,521.29204 356.77973,520.66704 354.84223,519.82329 354.90473,518.97954 355.71723,519.07329 356.99848,516.85454 357.77973,516.57329 357.02973,516.13579 356.06098,517.07329 355.24848,517.04204 354.56098,513.54204 353.99848,512.91704 354.74848,509.97954 354.65473,509.10454 350.18598,507.63579 350.65473,506.94829 350.56098,506.10454 350.81098,505.85454 350.93598,503.26079 352.12348,501.91704 353.71723,501.16704 355.06098,500.01079 354.71723,499.26079 353.46723,499.38579 352.62348,498.54204 352.65473,498.10454 351.49848,497.88579 351.27973,497.13579 350.87348,497.07329 349.87348,497.51079 349.84223,498.19829 348.99848,498.04204 348.46723,496.85454 347.62348,496.88579 347.37348,496.54204 z M 290.15473,504.13579 287.21723,505.88579 286.56098,505.82329 286.15473,506.04204 285.62348,506.82329 282.49848,508.44829 281.34223,510.01079 279.87348,511.01079 278.24848,515.54204 278.90473,515.69829 282.71723,513.54204 283.56098,513.57329 282.65473,514.07329 281.37348,515.82329 285.09223,515.63579 285.68598,514.47954 285.56098,513.16704 287.81098,511.66704 286.71723,513.35454 287.34223,513.38579 289.31098,511.51079 289.77973,510.97954 288.68598,513.72954 291.43598,513.29204 290.81098,512.66704 291.15473,511.82329 290.77973,510.54204 291.09223,509.72954 292.81098,508.29204 292.90473,507.85454 292.09223,505.76079 290.99848,504.35454 290.15473,504.13579 z">
      <title id="t119">Sixième circonscription du Finistère</title>
      <desc id="d119">Cantons de : Carhaix-Plouguer, Châteaulin, Châteauneuf-du-Faou, Crozon, Daoulas, Le Faou, Huelgoat, Ouessant, Pleyben</desc>
    </path><path class="circo" id="029-07" d="M 285.99848,543.10454 284.65473,543.44829 283.37348,543.82329 281.59223,543.66704 280.15473,544.66704 277.96723,544.88579 277.09223,544.79204 275.27973,546.07329 273.96723,545.79204 271.37348,545.94829 270.21723,547.22954 268.52973,546.76079 267.27973,547.01079 263.99848,548.47954 263.40473,548.07329 263.09223,548.47954 260.12348,548.07329 259.81098,549.41704 256.21723,548.88579 256.12348,549.26079 256.15473,549.69829 256.81098,551.26079 256.49848,551.57329 253.84223,552.04204 255.06098,552.72954 257.59223,553.76079 260.31098,553.85454 261.27973,554.29204 263.02973,553.41704 263.96723,554.85454 265.59223,555.22954 266.02973,555.19829 266.74848,556.26079 268.71723,557.10454 270.15473,555.63579 270.68598,555.79204 271.18598,555.10454 271.37348,552.66704 270.84223,552.44829 271.49848,552.54204 271.99848,552.22954 272.40473,552.07329 275.09223,552.16704 275.15473,552.35454 271.71723,552.69829 271.27973,555.76079 274.37348,556.97954 276.68598,559.01079 277.52973,558.97954 281.06098,562.16704 281.90473,563.72954 282.93598,565.10454 285.06098,569.19829 285.68598,570.76079 287.96723,569.88579 286.46723,571.29204 286.24848,572.51079 286.87348,574.54204 287.27973,576.32329 287.09223,578.63579 284.52973,580.01079 284.49848,580.44829 285.09223,581.04204 285.27973,582.76079 289.12348,582.79204 291.27973,582.44829 292.43598,583.44829 293.68598,582.41704 293.74848,582.82329 293.06098,583.44829 294.21723,583.72954 297.56098,583.35454 298.77973,583.01079 298.15473,581.16704 298.43598,580.91704 299.12348,582.32329 300.52973,583.07329 302.21723,581.60454 302.06098,580.85454 302.77973,580.76079 303.15473,578.16704 301.24848,577.63579 300.37348,575.79204 298.65473,573.79204 299.90473,574.76079 301.15473,572.26079 302.15473,573.01079 302.62348,575.32329 302.37348,577.47954 302.62348,577.41704 303.02973,576.22954 303.96723,575.57329 306.24848,574.29204 307.18598,574.69829 307.12348,573.32329 306.34223,572.66704 306.37348,571.88579 304.84223,570.44829 303.71723,570.88579 302.37348,570.54204 301.87348,568.94829 302.06098,567.76079 300.81098,566.10454 300.84223,566.04204 300.59223,565.63579 299.87348,564.63579 298.24848,564.19829 298.74848,562.69829 298.37348,561.91704 298.40473,560.63579 296.59223,559.63579 296.96723,557.94829 297.49848,557.32329 297.96723,558.04204 299.09223,557.47954 299.77973,558.01079 301.40473,556.69829 303.12348,558.60454 303.90473,558.79204 303.18598,556.29204 301.37348,554.47954 302.21723,554.38579 303.27973,554.97954 305.40473,554.72954 304.27973,553.10454 305.87348,551.69829 307.12348,551.79204 307.46723,551.51079 307.77973,548.94829 308.52973,547.01079 308.59223,544.47954 308.15473,543.72954 305.87348,544.88579 304.49848,544.07329 301.56098,544.60454 299.27973,545.69829 298.02973,545.82329 297.84223,546.66704 297.15473,547.07329 295.09223,548.07329 293.90473,547.19829 293.56098,546.38579 291.59223,545.44829 290.77973,545.76079 289.06098,544.66704 288.52973,544.76079 288.81098,546.94829 287.81098,544.54204 285.99848,543.10454 z M 243.09223,551.57329 242.84223,552.01079 243.18598,552.35454 243.40473,552.07329 244.02973,552.26079 244.56098,553.10454 244.93598,553.16704 245.31098,553.07329 244.65473,552.94829 244.52973,552.01079 244.24848,552.13579 243.90473,551.85454 243.52973,551.85454 243.09223,551.57329 z">
      <title id="t120">Septième circonscription du Finistère</title>
      <desc id="d120">Cantons de : Douarnenez, Guilvinec, Plogastel-Saint-Germain, Pont-Croix, Pont-l'Abbé</desc>
    </path><path class="circo" id="029-08" d="M 367.10193,574.51552 366.03933,573.83347 363.60283,574.75612 363.68223,576.38659 362.93913,577.88408 361.65123,577.98665 360.54093,579.31995 360.10673,579.34894 358.57743,578.52418 357.72973,577.57673 357.70193,576.35531 357.38493,576.29919 356.78483,575.3024 355.95263,575.25261 355.78143,574.08042 355.55123,575.22652 356.56343,575.84015 356.99353,576.93223 355.90703,577.91244 355.69263,579.7152 356.13203,579.80445 356.28333,580.76588 357.20633,581.3852 356.77923,581.93966 357.44973,582.18099 356.70223,583.69563 356.92003,584.18133 356.45833,585.56789 356.71013,586.28704 356.14733,587.16419 353.65543,586.49838 349.91683,586.29349 349.46703,586.34851 346.80373,585.55549 347.46653,583.58784 346.40143,585.15996 345.06773,584.93265 344.29513,585.59002 340.51333,582.81587 340.45953,582.18264 341.72633,580.90245 342.34273,581.36887 342.33753,580.27296 344.79103,579.53467 346.10353,579.80863 346.61873,579.8347 347.47623,578.84743 346.36863,579.54606 344.62473,579.19878 343.39383,579.68886 342.83493,579.90003 342.81963,578.66967 341.96993,580.50778 339.55113,582.3164 338.74523,580.32423 338.62843,578.95506 338.00953,578.11733 338.40983,577.08877 338.08043,576.86549 338.28353,576.4384 337.68973,576.92425 338.09573,577.12385 337.38093,577.94144 338.38343,579.11687 338.48363,580.11688 337.55313,580.30094 338.46123,580.54867 339.12153,582.73046 337.19183,583.84505 335.03263,583.57974 333.89003,584.03407 333.22783,583.89946 332.92093,583.2471 330.77133,582.96746 329.54423,583.35224 329.12183,582.09494 325.48343,578.15228 325.36353,577.30141 325.97073,576.67829 326.13373,575.79999 327.15543,574.94248 325.30203,576.08931 324.47213,575.87498 324.20763,575.52523 324.87833,575.00038 324.79833,574.56785 324.23533,573.8986 323.00523,573.47119 322.46003,572.27929 321.76233,571.74442 321.25003,570.59291 321.42833,569.28269 321.16603,567.15769 322.23113,566.53741 322.67323,565.33855 321.98373,564.87785 320.70033,565.04761 319.40193,563.98426 318.23603,564.47535 318.59493,562.80613 317.89293,561.22852 318.49473,559.23857 319.63093,559.29483 320.89863,553.33108 319.08663,552.23201 319.73733,551.76758 320.95743,551.73415 321.89093,550.96809 324.01823,550.17854 324.13443,551.04819 324.88033,551.48444 326.59603,551.31775 327.80363,551.62773 328.29783,552.34706 329.59313,552.2868 332.39573,550.30978 333.00613,548.70257 334.13233,548.93127 334.13263,549.73318 334.56393,549.80719 334.41173,548.53034 334.82143,547.76645 336.85123,546.1319 338.96353,545.5744 339.53703,544.92293 341.65623,544.68302 342.76453,545.29302 342.01603,546.39695 342.30763,548.15992 342.02453,548.5091 342.21153,548.91817 344.49903,550.18324 345.66203,554.93168 346.67453,556.3985 347.35153,558.9682 348.97153,559.34639 349.73383,559.0562 350.39043,558.48368 351.68593,558.52394 352.37073,558.94711 353.01933,558.35946 354.74033,558.19498 355.44963,558.71038 356.72323,558.91524 357.85013,560.21254 359.55713,560.11934 360.59043,561.37185 361.04683,563.41102 362.05873,564.07703 362.40323,563.8184 362.62933,562.54605 364.30213,562.22301 366.33343,560.69833 366.73743,560.54965 367.12343,561.3217 367.55243,561.35433 367.72893,562.15142 368.41793,562.58807 368.42093,563.40265 367.75693,564.52802 368.85843,566.42591 368.53153,567.25536 367.30603,567.65984 366.87523,569.24541 367.63553,571.71096 367.50983,573.86223 367.97803,574.53111 367.10193,574.51552 z">
      <title id="t121">Huitième circonscription du Finistère</title>
      <desc id="d121">Cantons de : Arzano, Bannalec, Concarneau, Pont-Aven, Quimperlé, Rosporden, Scaër</desc>
    </path></svg>