<svg xmlns="http://www.w3.org/2000/svg" version="1.1" xmlns:xlink="http://www.w3.org/1999/xlink" xmlns:svgjs="http://svgjs.dev/svgjs" viewBox="0 0 148.8287 126.30964999999998"><path class="circo" id="id-029-01" d="M90.57989999999998 80.23244000000005L90.11499999999998 80.85654000000005L89.48600000000002 81.93712999999997L88.13950000000003 82.87993999999998L88.57449999999997 83.61120999999997L88.51469999999998 86.16104000000001L87.7587 88.08907000000005L87.42409999999998 90.65991000000002L87.09560000000002 90.94113999999996L85.83020000000002 90.84120999999999L84.24140000000003 92.25727L85.37370000000001 93.86429000000004L83.26320000000001 94.13560000000001L82.18949999999998 93.54568999999998L81.35830000000001 93.62054000000006L83.16260000000003 95.42618999999996L83.86999999999998 97.94081L83.08849999999998 97.73899999999998L81.37449999999998 95.83858000000004L79.75379999999998 97.17049000000003L79.07019999999997 96.62606999999997L77.94160000000002 97.17518999999999L77.46900000000002 96.47478000000007L76.9247 97.10584L76.57019999999997 98.76830000000001L78.38469999999998 99.79464999999999L78.3389 101.07117999999997L78.71880000000002 101.83684999999997L78.21220000000002 103.33885000000004L79.8337 103.76686999999998L80.56480000000002 104.79028L80.82489999999999 105.17455999999999L80.78060000000002 105.25308000000001L82.01750000000001 106.91564L81.83790000000002 108.09529000000003L82.6822 109.53172L84.37390000000002 109.31797L84.2064 107.63167000000004L84.81960000000001 105.64227999999997L85.53439999999998 105.71256L85.52130000000002 105.13599000000005L86.69230000000002 105.02968000000004L87.25559999999999 104.34241000000003L87.25710000000001 102.48007999999999L86.41670000000002 102.18817000000007L87.27619999999999 101.93127999999996L87.18910000000002 100.96314999999998L86.68629999999999 100.72652L87.42440000000002 100.92226999999997L88.02059999999997 100.37969000000004L86.76700000000002 99.24842000000007L86.8622 98.32422000000003L87.2585 99.19471000000004L88.578 99.95184L88.74659999999997 101.05162999999999L88.4913 102.30874L87.53099999999998 102.66512000000006L87.5447 103.57894000000005L88.61769999999999 103.60115000000002L89.69840000000002 102.36953999999997L88.7721 103.76725000000005L90.91889999999998 104.81513999999999L90.60409999999999 104.83557000000002L90.05010000000001 104.51979L88.4779 103.81331000000006L87.6192 103.86114000000003L87.53229999999999 104.44569000000007L86.80030000000002 105.23886999999996L85.73179999999999 105.26590000000004L85.61839999999998 105.88380999999998L85.00300000000001 105.86402000000004L84.614 107.43865999999997L84.78509999999997 109.02738000000005L85.9365 109.88846000000007L86.95230000000001 109.39886000000007L86.17100000000002 110.05732000000006L86.39840000000001 110.61520000000002L87.83180000000002 111.43020000000007L87.0728 111.19319000000002L86.72819999999999 111.80395000000004L87.3099 112.6719L88.09709999999998 112.70485000000002L88.21119999999999 113.80858000000006L88.93100000000001 113.90600999999998L89.45090000000002 113.42860999999999L90.17920000000001 113.46713000000005L89.90509999999998 112.23002000000002L90.40439999999998 113.16519L91.09920000000002 112.63768999999996L90.63719999999998 113.2919L92.75489999999999 114.95824999999996L89.5015 113.83962000000002L93.35440000000003 115.70570000000004L98.97049999999999 114.73973000000007L98.34639999999999 113.87497000000002L97.66470000000001 111.18774000000002L99.0411 110.17433L98.0298 110.29399000000006L97.55510000000001 109.35588000000001L98.3966 109.74141000000003L98.74260000000001 107.95682000000005L99.09740000000002 109.63453999999996L100.6779 109.58369999999996L101.39860000000002 108.42815000000002L101.13629999999998 106.30315000000002L102.2014 105.68287000000004L102.64349999999999 104.48401000000007L101.95399999999998 104.02330999999998L100.67060000000001 104.19306999999998L99.37219999999999 103.12971999999996L98.20630000000003 103.62081000000006L98.56519999999998 101.95159000000007L97.86319999999998 100.37398000000002L98.465 98.38403L99.60119999999998 98.44029000000006L100.86890000000002 92.47654000000006L99.05690000000001 91.37746999999996L99.70759999999999 90.91303999999997L100.92769999999999 90.87961000000001L101.86120000000003 90.11354999999998L103.98850000000002 89.32400000000001L107.80839999999998 86.05976000000004L107.30330000000001 85.39137L105.67850000000001 85.81318000000005L104.9976 84.25000000000006L105.19070000000002 83.86284000000006L105.69239999999999 83.25533000000001L105.5024 81.21012999999999L104.81179999999998 80.94427000000002L104.54839999999999 80.23931999999996L102.92519999999999 79.88196999999997L102.7279 78.62691999999998L102.06309999999999 78.09879000000006L102.48830000000001 77.36155000000002L102.35069999999999 76.95704000000006L101.0096 76.92135999999999L96.74659999999997 78.21624000000003L95.90889999999999 77.99407000000002L95.31390000000002 76.08817000000005L93.8321 75.57156000000003L92.23209999999997 75.75303000000002L91.7877 75.80221999999998L91.66189999999997 76.23140000000006L91.71090000000001 78.85809999999998L90.57989999999998 80.23244000000005z">
      <title id="t114">Première circonscription du Finistère</title>
      <desc id="d114">Cantons de : Briec, Fouesnant, Quimper I, Quimper II, Quimper III</desc>
    </path><path class="circo" id="id-029-02" d="M50.762700000000024 40.43398000000002L50.942699999999974 40.79527999999999L50.498099999999994 40.79400000000004L49.69109999999998 39.78089L48.82309999999998 39.734759999999994L45.885099999999994 41.673220000000015L46.55789999999999 43.97543000000002L48.49300000000002 46.21410000000003L48.97189999999998 45.552369999999996L50.70399999999998 45.11972000000003L51.045800000000014 46.631230000000016L52.01509999999999 47.00459000000001L53.013600000000025 46.80887999999999L53.9829 45.91277000000002L54.58419999999998 46.65839L54.71849999999998 48.03145000000001L55.842599999999976 47.63219000000004L56.740500000000026 47.676210000000026L57.94030000000001 47.107560000000035L59.62710000000001 47.48295999999999L59.94840000000002 45.76374000000004L58.9118 45.009270000000015L57.92749999999998 43.626210000000015L58.142300000000006 42.88135L57.73819999999998 42.15921000000003L59.06039999999999 41.090329999999994L59.41999999999999 39.41786000000002L60.16299999999998 39.032520000000034L60.175100000000015 37.77368000000001L58.98429999999999 38.225869999999986L57.7157 38.02311000000003L56.842599999999976 36.679070000000024L56.51129999999998 36.401260000000036L56.14880000000002 36.63510000000002L54.93030000000002 38.40082000000001L54.558599999999984 37.769060000000025L54.09540000000001 38.291750000000036L53.36420000000001 38.19255000000004L52.63809999999998 39.020730000000015L52.23510000000002 39.03264999999999L51.998700000000014 39.774609999999996L51.61870000000002 39.63955000000004L50.762700000000024 40.43398000000002z">
      <title id="t115">Deuxième circonscription du Finistère</title>
      <desc id="d115">Cantons de : Brest-Bellevue, Brest-Cavale-Blanche-Bohars-Guilers, Brest Centre, Brest-l'Hermitage-Gouesnou, Brest-Kerichen, Brest-Lambezellec, Brest-Saint-Marc</desc>
    </path><path class="circo" id="id-029-03" d="M61.21874999999997 20.625L60.74999999999997 21.3125L60.93749999999997 21.6875L58.68749999999997 23.5L58.34374999999997 23.4375L57.59374999999997 23.875L55.93749999999997 25.9375L53.71874999999997 25.6875L53.78124999999997 26.46875L53.24999999999997 26.1875L51.78124999999997 25.5625L51.68749999999997 26.21875L52.06249999999997 27.375L50.74999999999997 28.90625L49.21874999999997 25.8125L47.53124999999997 25.375L46.96874999999997 25.21875L46.18749999999997 25.625L46.46874999999997 24.8125L45.78124999999997 23.25L43.34374999999997 22.46875L41.81249999999997 23.21875L40.65624999999997 23.3125L40.43749999999997 23.625L39.90624999999997 22.9375L38.90624999999997 23.75L38.46874999999997 23.21875L37.15624999999997 23.375L36.96874999999997 26.0625L36.71874999999997 25.625L35.5625 25.03125L34.78125 25.34375L33.15625 26.90625L32.9375 28.21875L32.1875 28.6875L31.90625 30L31.65625 30.375L31.21875 30.65625L30.75 32.65625L31.125 34.34375L31.65625 35.03125L31.1875 35.25L32.46875 36.21875L34.75 35.75L35.21875 35.4375L35.75 35.78125L32.90625 36.375L32.25 37.625L32.46875 36.59375L32.125 36.5L31.78125 36.875L30.5625 39.0625L30.46875 39.5L30.84375 39.6875L30.125 40.75L29.375 43.25L30.0625 44.34375L30.8125 44.40625L31.09375 46.84375L32.125 48.03125L32.0625 49L30.90625 49.875L29.96875 49.34375L29.84375 50.25L32.59375 49.9375L33.375 49.53125L32.75 50.0625L33 50.40625L32.5625 50.46875L31.25 50.21875L30.34375 50.65625L31.40625 52.00000000000006L30.8125 53.50000000000006L31.21875 53.59375000000006L31.09375 54.03125000000006L31.8125 54.46875000000006L34.03125 54.03125000000006L36.24999999999997 54.09375000000006L37.34374999999997 53.28125000000006L37.43749999999997 51.56250000000006L39.09374999999997 51L41.34374999999997 52.18750000000006L42.59374999999997 52.43750000000006L43.53124999999997 53.28125000000006L43.96874999999997 53.18750000000006L45.18749999999997 53.12500000000006L49.71874999999997 50.25L51.43749999999997 50.5625L53.74999999999997 48.5L54.71874999999997 48.03125L54.59374999999997 46.65625L53.96874999999997 45.90625L52.99999999999997 46.8125L51.99999999999997 47L51.03124999999997 46.625L50.71874999999997 45.125L48.96874999999997 45.5625L48.49999999999997 46.21875L46.56249999999997 43.96875L45.87499999999997 41.6875L48.81249999999997 39.75L49.68749999999997 39.78125L50.49999999999997 40.78125L50.93749999999997 40.78125L50.74999999999997 40.4375L51.62499999999997 39.625L51.99999999999997 39.78125L52.24999999999997 39.03125L52.62499999999997 39.03125L53.37499999999997 38.1875L54.09374999999997 38.28125L54.56249999999997 37.78125L54.93749999999997 38.40625L56.15624999999997 36.625L56.49999999999997 36.40625L56.84374999999997 36.6875L57.71874999999997 38.03125L58.96874999999997 38.21875L60.18749999999997 37.78125L63.09374999999997 37.125L63.84374999999997 37.5625L64.81249999999997 38.25L65.99999999999997 37.96875L67.53124999999997 37.21875L67.87499999999997 36.46875L66.96874999999997 34.0625L67.24999999999997 32.34375L66.46874999999997 30.5L65.96874999999997 28.3125L65.28124999999997 27.15625L65.84374999999997 26.46875L65.31249999999997 26.09375L65.43749999999997 25.8125L65.59374999999997 23.625L64.87499999999997 22.59375L64.90624999999997 22.5L62.96874999999997 21.375L61.21874999999997 20.625zM15.09375 45.125L14.6875 45.59375L15.28125 46.65625L15.75 45.9375L15.09375 45.125z">
      <title id="t116">Troisième circonscription du Finistère</title>
      <desc id="d116">Cantons de : Brest-Plouzané, Brest-Recouvrance, Brest-Saint-Pierre, Plabennec, Ploudalmézeau, Saint-Renan</desc>
    </path><path class="circo" id="id-029-04" d="M95.03124999999997 0L93.65624999999997 0.78125L93.59374999999997 1L93.68749999999997 1.21875L93.90624999999997 1.3125L94.74999999999997 1.625L95.18749999999997 1.625L95.49999999999997 1.28125L95.90624999999997 1.21875L96.24999999999997 1.5L97.15624999999997 1.5625L97.49999999999997 2.09375L97.74999999999997 1.71875L97.59374999999997 1.0625L96.78124999999997 0.71875L96.15624999999997 0.0625L95.03124999999997 0zM97.93749999999997 3.125L96.78124999999997 5.21875L96.53124999999997 3.375L96.21874999999997 3.4375L95.49999999999997 5.03125L93.81249999999997 5.28125L93.46874999999997 6.09375L92.24999999999997 6.46875L92.03124999999997 8.21875L93.78124999999997 8.375L93.53124999999997 8.5L91.62499999999997 8.4375L91.21874999999997 8.71875L92.06249999999997 10.34375L91.96874999999997 10.6875L91.65624999999997 9.84375L89.84374999999997 7.84375L88.96874999999997 7.96875L88.78124999999997 8.375L88.56249999999997 7.5L87.24999999999997 7.4375L85.49999999999997 7.375L82.99999999999997 8.09375L83.28124999999997 10.71875L84.06249999999997 13.1875L83.53124999999997 13.78125L82.28124999999997 13.5L84.28124999999997 16.84375L83.37499999999997 19.65625L82.34374999999997 20.4375L82.62499999999997 21.28125L82.43749999999997 23.875L82.68749999999997 24.375L83.53124999999997 24.5L84.74999999999997 24.125L84.87499999999997 23.28125L85.46874999999997 22.65625L86.68749999999997 22.375L88.65624999999997 23.90625L91.03124999999997 22.71875L92.68749999999997 22.84375L92.53124999999997 25.03125L91.81249999999997 27.15625L91.93749999999997 27.59375L92.74999999999997 27.9375L94.43749999999997 27.90625L94.81249999999997 28.15625L94.87499999999997 29.5L94.34374999999997 31.65625L95.37499999999997 32.3125L98.62499999999997 32.625L98.43749999999997 34.3125L99.37499999999997 36.21875L99.12499999999997 36.875L97.90624999999997 36.40625L96.96874999999997 37.25L96.15624999999997 36.90625L95.34374999999997 37.15625L95.18749999999997 38.34375L94.40624999999997 38.25L91.46874999999997 35.5625L90.59374999999997 35.4375L90.03124999999997 33.15625L88.40624999999997 32.65625L86.65624999999997 33.5625L84.09374999999997 34.375L83.65624999999997 33.9375L82.96874999999997 34L81.18749999999997 35.125L79.68749999999997 34.40625L80.71874999999997 33L79.93749999999997 31.96875L79.49999999999997 31.875L79.15624999999997 32.6875L78.43749999999997 33.15625L78.37499999999997 33.59375L77.90624999999997 34.28125L78.59374999999997 36.21875L77.68749999999997 36.90625L77.84374999999997 37.3125L79.28124999999997 38.125L79.34374999999997 39.84375L79.87499999999997 40.5L78.74999999999997 42.25L79.49999999999997 43.0625L81.59374999999997 45.8125L81.43749999999997 46.59375L82.68749999999997 46.84375L84.68749999999997 48.53125L85.34374999999997 49.09375L87.09374999999997 49.375L89.18749999999997 47.875L90.31249999999997 50.21875L91.49999999999997 50.6875L91.78124999999997 51.46875000000006L92.56249999999997 50.78125L92.71874999999997 50.6875L96.62499999999997 49.625L99.65624999999997 50.5L100.09374999999997 50.34375L100.46874999999997 49.53125L101.59374999999997 47.375L103.65624999999997 45.0625L103.78124999999997 44.96875L106.56249999999997 43.5625L109.90624999999997 42.5L111.81249999999997 41.4375L113.37499999999997 41.8125L113.65624999999997 41L116.03124999999997 40.1875L117.74999999999997 39.28125L120.34374999999997 39.34375L122.24999999999997 38.5L123.12499999999997 38.53125L124.59374999999997 36.90625L126.18749999999997 36.78125L127.34374999999997 35.6875L127.59374999999997 36.03125L128.43749999999997 36L128.96874999999997 37.1875L129.81249999999997 37.34375L129.84374999999997 36.65625L130.84374999999997 36.21875L130.96874999999997 35.84375L130.40624999999997 35.28125L130.65624999999997 34.46875L130.46874999999997 33.25L130.99999999999997 32.65625L132.09374999999997 31.875L134.24999999999997 29L135.96874999999997 27.5625L134.74999999999997 27.1875L133.12499999999997 25.1875L132.37499999999997 25.5625L130.84374999999997 24.96875L132.03124999999997 23.0625L131.28124999999997 21.46875L130.84374999999997 21.625L129.65624999999997 21.03125L128.31249999999997 21.125L127.68749999999997 20.5L127.34374999999997 20.15625L127.40624999999997 18.46875L126.65624999999997 18.15625L126.21874999999997 17.40625L125.40624999999997 12.71875L125.78124999999997 12.03125L126.24999999999997 11.125L127.49999999999997 10.125L126.15624999999997 9.15625L127.21874999999997 7.5625L126.06249999999997 7.375L124.09374999999997 8.4375L123.24999999999997 7.84375L122.18749999999997 8.09375L120.43749999999997 6.0625L118.24999999999997 5.78125L116.93749999999997 5.625L115.53124999999997 6.53125L114.46874999999997 6.40625L113.84374999999997 5.125L113.09374999999997 5.3125L111.78124999999997 4.21875L112.31249999999997 6.6875L110.99999999999997 5.15625L109.31249999999997 8.34375L109.87499999999997 11.90625L109.28124999999997 11.625L109.09374999999997 10.1875L108.46874999999997 10.375L109.78124999999997 15.78125L112.84374999999997 15.9375L109.74999999999997 16.28125L108.78124999999997 17.78125L109.59374999999997 19.15625L108.93749999999997 18.6875L107.81249999999997 19.125L108.74999999999997 18.40625L108.49999999999997 18L108.87499999999997 17.3125L108.87499999999997 15.9375L108.59374999999997 15.53125L106.93749999999997 14.59375L106.24999999999997 14.21875L105.53124999999997 13.625L104.99999999999997 12.375L104.84374999999997 11.53125L106.18749999999997 11.03125L106.06249999999997 10.4375L103.49999999999997 10.09375L102.87499999999997 12.09375L101.71874999999997 12.53125L100.99999999999997 13.03125L101.34374999999997 14.25L100.99999999999997 16.4375L101.59374999999997 17.59375L101.99999999999997 17.78125L101.74999999999997 18.125L102.34374999999997 19.8125L100.71874999999997 17.28125L100.99999999999997 14.65625L100.43749999999997 13.5L100.87499999999997 12.21875L100.78124999999997 10.40625L99.40624999999997 9.4375L99.87499999999997 8.21875L99.09374999999997 7.15625L99.06249999999997 6.28125L99.81249999999997 4L97.93749999999997 3.125z">
      <title id="t117">Quatrième circonscription du Finistère</title>
      <desc id="d117">Cantons de : Lanmeur, Morlaix, Ploudiry, Plouigneau, Plouzévédé, Saint-Pol-de-Léon, Saint-Thégonnec, Sizun, Taulé</desc>
    </path><path class="circo" id="id-029-05" d="M82.99999999999997 8.09375L80.90624999999997 8.71875L78.74999999999997 11L77.93749999999997 12.1875L79.78124999999997 12.40625L80.28124999999997 12.96875L78.15624999999997 13.34375L77.12499999999997 13.25L77.71874999999997 12.40625L75.96874999999997 13.21875L73.40624999999997 13.34375L73.21874999999997 13.90625L71.24999999999997 14.46875L71.81249999999997 14.96875L71.15624999999997 15.40625L70.31249999999997 15.125L69.93749999999997 14.78125L69.87499999999997 14.40625L70.56249999999997 14.0625L69.78124999999997 13.71875L71.06249999999997 13L71.78124999999997 11.46875L70.43749999999997 10.90625L69.96874999999997 10.28125L69.40624999999997 11.125L68.84374999999997 10.8125L68.90624999999997 9.9375L67.12499999999997 9.8125L63.06249999999997 12.40625L59.96874999999997 12.78125L60.34374999999997 13.53125L63.03124999999997 14.96875L60.09374999999997 14.46875L59.87499999999997 15.21875L59.37499999999997 14.3125L57.46874999999997 16.15625L53.49999999999997 16.75L53.21874999999997 15.4375L51.81249999999997 15.96875L50.68749999999997 15L50.84374999999997 16.59375L48.81249999999997 16.5L48.59374999999997 18.375L49.84374999999997 18.28125L49.12499999999997 19.125L50.96874999999997 19.65625L52.56249999999997 20.34375L52.65624999999997 21.125L54.18749999999997 21.0625L56.15624999999997 23.21875L55.34374999999997 22.96875L53.90624999999997 21.40625L52.62499999999997 21.4375L52.34374999999997 20.59375L51.84374999999997 20.5625L50.40624999999997 19.84375L49.49999999999997 20.375L49.06249999999997 19.8125L46.24999999999997 20.46875L47.06249999999997 19.4375L46.09374999999997 18.6875L45.31249999999997 19.0625L45.37499999999997 21.40625L44.93749999999997 22.59375L46.28124999999997 22.875L47.09374999999997 24.40625L49.68749999999997 24.53125L53.28124999999997 25.8125L53.71874999999997 25.6875L55.93749999999997 25.9375L57.59374999999997 23.875L58.34374999999997 23.4375L58.68749999999997 23.5L60.93749999999997 21.6875L60.74999999999997 21.3125L61.21874999999997 20.625L62.96874999999997 21.375L64.90624999999997 22.5L64.87499999999997 22.59375L65.59374999999997 23.625L65.43749999999997 25.8125L65.31249999999997 26.09375L65.84374999999997 26.46875L65.28124999999997 27.15625L65.96874999999997 28.3125L66.46874999999997 30.5L67.24999999999997 32.34375L66.96874999999997 34.0625L67.87499999999997 36.46875L67.53124999999997 37.21875L65.99999999999997 37.96875L64.81249999999997 38.25L63.84374999999997 37.5625L63.09374999999997 37.125L60.18749999999997 37.78125L60.15624999999997 39.03125L59.40624999999997 39.40625L59.06249999999997 41.09375L57.74999999999997 42.15625L58.15624999999997 42.875L57.93749999999997 43.625L58.90624999999997 45L59.93749999999997 45.75L60.84374999999997 45.65625L62.28124999999997 46.53125L63.71874999999997 45.59375L64.43749999999997 45.59375L64.84374999999997 45.28125L65.24999999999997 45.1875L65.59374999999997 44.40625L67.24999999999997 44.1875L68.87499999999997 43L70.12499999999997 42.65625L73.12499999999997 40.21875L73.49999999999997 39.6875L73.84374999999997 39.78125L70.12499999999997 43.28125L70.96874999999997 43.5L72.06249999999997 44.90625L72.87499999999997 47L72.78124999999997 47.4375L71.06249999999997 48.875L70.74999999999997 49.6875L71.12499999999997 50.96875L71.90624999999997 51.25000000000006L73.96874999999997 50.71875L73.46874999999997 49.125L74.71874999999997 49.0625L74.81249999999997 48.65625L75.18749999999997 47.40625L76.62499999999997 46.46875L76.93749999999997 45.15625L76.68749999999997 43.84375L77.12499999999997 42.59375L77.99999999999997 42.71875L78.74999999999997 42.25L79.87499999999997 40.5L79.34374999999997 39.84375L79.28124999999997 38.125L77.84374999999997 37.3125L77.68749999999997 36.90625L78.59374999999997 36.21875L77.90624999999997 34.28125L78.37499999999997 33.59375L78.43749999999997 33.15625L79.15624999999997 32.6875L79.49999999999997 31.875L79.93749999999997 31.96875L80.71874999999997 33L79.68749999999997 34.40625L81.18749999999997 35.125L82.96874999999997 34L83.65624999999997 33.9375L84.09374999999997 34.375L86.65624999999997 33.5625L88.40624999999997 32.65625L90.03124999999997 33.15625L90.59374999999997 35.4375L91.46874999999997 35.5625L94.40624999999997 38.25L95.18749999999997 38.34375L95.34374999999997 37.15625L96.15624999999997 36.90625L96.96874999999997 37.25L97.90624999999997 36.40625L99.12499999999997 36.875L99.37499999999997 36.21875L98.43749999999997 34.3125L98.62499999999997 32.625L95.37499999999997 32.3125L94.34374999999997 31.65625L94.87499999999997 29.5L94.81249999999997 28.15625L94.43749999999997 27.90625L92.74999999999997 27.9375L91.93749999999997 27.59375L91.81249999999997 27.15625L92.53124999999997 25.03125L92.68749999999997 22.84375L91.03124999999997 22.71875L88.65624999999997 23.90625L86.68749999999997 22.375L85.46874999999997 22.65625L84.87499999999997 23.28125L84.74999999999997 24.125L83.53124999999997 24.5L82.68749999999997 24.375L82.43749999999997 23.875L82.62499999999997 21.28125L82.34374999999997 20.4375L83.37499999999997 19.65625L84.28124999999997 16.84375L82.28124999999997 13.5L83.53124999999997 13.78125L84.06249999999997 13.1875L83.28124999999997 10.71875L82.99999999999997 8.09375zM47.09374999999997 24.75L47.53124999999997 25.375L49.21874999999997 25.8125L50.74999999999997 28.90625L52.06249999999997 27.375L51.68749999999997 26.21875L50.74999999999997 25.3125L49.46874999999997 24.9375L47.71874999999997 24.78125L47.09374999999997 24.75z">
      <title id="t118">Cinquième circonscription du Finistère</title>
      <desc id="d118">Cantons de : Guipavas, Landerneau, Landivisiau, Lannilis, Lesneven, Plouescat</desc>
    </path><path class="circo" id="id-029-06" d="M5.65625 34.6875L5.4375 34.8125L5.6875 35.1875L5.59375 35.40625L5.28125 35.71875L4.84375 35.90625L3.96875 35.75L2.875 36.125L2.4375 36.875L0.59375 37.8125L0 38.78125L0.03125 38.96875L0.25 39.03125L0.71875 39L2.875 38.25L3.09375 38.1875L3.53125 38.34375L3.84375 38.65625L3.75 39.09375L2.59375 39.8125L2.03125 40.46875L3.09375 40.65625L3.34375 40.3125L4.21875 40.0625L4.96875 38.96875L6.71875 38.875L7.625 37.875L8.5 37.78125L8.8125 37.4375L8.78125 37.21875L8.59375 37.09375L7.6875 37.0625L7.09375 36.75L7.3125 35.46875L6.65625 35.46875L6.28125 34.90625L5.65625 34.6875zM127.34374999999997 35.6875L126.18749999999997 36.78125L124.59374999999997 36.90625L123.12499999999997 38.53125L122.24999999999997 38.5L120.34374999999997 39.34375L117.74999999999997 39.28125L116.03124999999997 40.1875L113.65624999999997 41L113.37499999999997 41.8125L111.81249999999997 41.4375L109.90624999999997 42.5L106.56249999999997 43.5625L103.78124999999997 44.96875L103.65624999999997 45.0625L101.59374999999997 47.375L100.46874999999997 49.53125L100.09374999999997 50.34375L99.65624999999997 50.5L96.62499999999997 49.625L92.71874999999997 50.6875L92.56249999999997 50.78125L91.78124999999997 51.46875000000006L91.49999999999997 50.6875L90.31249999999997 50.21875L89.18749999999997 47.875L87.09374999999997 49.375L85.34374999999997 49.09375L84.68749999999997 48.53125L82.68749999999997 46.84375L81.43749999999997 46.59375L81.59374999999997 45.8125L79.49999999999997 43.0625L78.74999999999997 42.25L77.99999999999997 42.71875L77.12499999999997 42.59375L76.68749999999997 43.84375L76.93749999999997 45.15625L76.62499999999997 46.46875L75.18749999999997 47.40625L74.81249999999997 48.65625L74.71874999999997 49.0625L73.46874999999997 49.125L73.96874999999997 50.71875L74.62499999999997 50.71875L73.78124999999997 51.31250000000006L72.03124999999997 51.81250000000006L73.18749999999997 52.37500000000006L69.81249999999997 53.71875000000006L71.06249999999997 54.31250000000006L69.59374999999997 54.65625000000006L68.15624999999997 56.40625000000006L70.46874999999997 55.93750000000006L71.87499999999997 56.71875000000006L72.78124999999997 55.62500000000006L73.62499999999997 55.50000000000006L75.12499999999997 54.59375000000006L75.96874999999997 54.53125000000006L75.31249999999997 55.06250000000006L72.74999999999997 56.31250000000006L73.71874999999997 57.03125000000006L74.81249999999997 56.87500000000006L75.74999999999997 58.12500000000006L76.06249999999997 56.68750000000006L77.99999999999997 56.31250000000006L76.49999999999997 57.12500000000006L76.90624999999997 58.28125000000006L80.31249999999997 58.37500000000006L81.40624999999997 58.56250000000006L80.15624999999997 59.15625000000006L79.56249999999997 58.71875000000006L77.65624999999997 59.59375000000006L77.18749999999997 58.96875000000006L74.31249999999997 60.75000000000006L73.18749999999997 60.46875000000006L72.93749999999997 60.87500000000006L73.74999999999997 61.34375000000006L75.53124999999997 62.40625000000006L76.53124999999997 63.93750000000006L78.40624999999997 63.06250000000006L79.31249999999997 64.40625000000006L83.53124999999997 64.75000000000006L83.99999999999997 64.53125000000006L83.87499999999997 64.93750000000006L85.40624999999997 65.56250000000006L88.65624999999997 63.75000000000006L87.65624999999997 64.75000000000006L87.56249999999997 65.68750000000006L86.81249999999997 68.53125000000006L87.24999999999997 65.21875000000006L85.06249999999997 66.18750000000006L83.43749999999997 65.12500000000006L78.93749999999997 64.87500000000006L79.24999999999997 65.87500000000006L78.71874999999997 65.25000000000006L78.18749999999997 63.43750000000006L77.24999999999997 64.34375000000006L76.12499999999997 64.62500000000006L76.12499999999997 64.09375000000006L75.24999999999997 63.31250000000006L73.93749999999997 63.34375000000006L75.03124999999997 62.78125000000006L72.90624999999997 61.25000000000006L72.28124999999997 61.40625000000006L72.53124999999997 60.90625000000006L72.56249999999997 59.59375000000006L73.43749999999997 59.50000000000006L74.09374999999997 60.18750000000006L74.49999999999997 58.90625000000006L70.78124999999997 58.43750000000006L68.06249999999997 59.93750000000006L66.84374999999997 59.84375000000006L65.59374999999997 60.93750000000006L64.12499999999997 61.25000000000006L61.93749999999997 61.06250000000006L60.81249999999997 59.18750000000006L57.71874999999997 59.00000000000006L56.62499999999997 59.78125000000006L54.09374999999997 60.53125000000006L52.87499999999997 58.65625000000006L54.43749999999997 56.75000000000006L53.53124999999997 56.56250000000006L52.21874999999997 59.03125000000006L51.21874999999997 60.12500000000006L49.81249999999997 58.78125000000006L49.46874999999997 57.46875000000006L50.15624999999997 56.90625000000006L50.62499999999997 54.68750000000006L51.28124999999997 53.50000000000006L51.46874999999997 52.75000000000006L50.81249999999997 52.93750000000006L49.53124999999997 53.34375000000006L47.62499999999997 55.28125000000006L48.56249999999997 59.15625000000006L48.65624999999997 59.87500000000006L47.78124999999997 60.84375000000006L46.34374999999997 61.15625000000006L45.71874999999997 59.68750000000006L44.78124999999997 60.46875000000006L43.03124999999997 60.59375000000006L44.31249999999997 61.21875000000006L43.74999999999997 63.75000000000006L44.74999999999997 63.06250000000006L46.12499999999997 63.93750000000006L47.43749999999997 64.18750000000006L49.46874999999997 63.37500000000006L50.62499999999997 64.53125000000006L50.65624999999997 65.65625000000006L48.15624999999997 66.50000000000006L48.93749999999997 66.93750000000006L49.96874999999997 70.96875000000006L49.84374999999997 73.25000000000006L49.21874999999997 73.87500000000006L49.93749999999997 74.90625000000006L50.78124999999997 74.65625000000006L51.09374999999997 73.34375000000006L52.37499999999997 72.09375000000006L53.37499999999997 69.59375000000006L54.56249999999997 68.28125000000006L54.18749999999997 67.43750000000006L54.56249999999997 66.65625000000006L54.96874999999997 66.43750000000006L57.62499999999997 66.15625000000006L59.34374999999997 66.68750000000006L59.93749999999997 67.34375000000006L60.81249999999997 67.28125000000006L62.43749999999997 67.96875000000006L64.81249999999997 68.68750000000006L65.56249999999997 70.12500000000006L68.56249999999997 70.06250000000006L69.18749999999997 70.56250000000006L69.49999999999997 70.34375000000006L69.90624999999997 70.37500000000006L70.18749999999997 71.12500000000006L70.93749999999997 71.43750000000006L71.62499999999997 72.93750000000006L71.99999999999997 74.15625000000006L71.62499999999997 75.31250000000006L71.78124999999997 76.12500000000006L73.40624999999997 76.53125000000006L73.62499999999997 76.90625000000006L73.68749999999997 77.62500000000006L73.90624999999997 79.34375000000006L72.65624999999997 80.46875000000006L72.65624999999997 82.59375000000006L71.49999999999997 84.18750000000006L71.56249999999997 84.59375000000006L73.53124999999997 85.53125000000006L73.87499999999997 86.34375000000006L75.06249999999997 87.21875000000006L77.12499999999997 86.21875000000006L77.81249999999997 85.81250000000006L77.99999999999997 84.96875000000006L79.24999999999997 84.84375000000006L81.53124999999997 83.75000000000006L84.46874999999997 83.21875000000006L85.84374999999997 84.03125000000006L88.12499999999997 82.87500000000006L89.49999999999997 81.93750000000006L90.12499999999997 80.84375000000006L90.59374999999997 80.21875000000006L91.71874999999997 78.84375000000006L91.65624999999997 76.21875000000006L91.78124999999997 75.81250000000006L92.21874999999997 75.75000000000006L93.84374999999997 75.56250000000006L95.31249999999997 76.09375000000006L95.90624999999997 78.00000000000006L96.74999999999997 78.21875000000006L100.99999999999997 76.90625000000006L102.34374999999997 76.96875000000006L102.49999999999997 77.37500000000006L102.06249999999997 78.09375000000006L102.71874999999997 78.62500000000006L102.93749999999997 79.87500000000006L104.56249999999997 80.25000000000006L104.81249999999997 80.93750000000006L105.49999999999997 81.21875000000006L105.68749999999997 83.25000000000006L105.18749999999997 83.87500000000006L104.99999999999997 84.25000000000006L105.68749999999997 85.81250000000006L107.31249999999997 85.40625000000006L107.81249999999997 86.06250000000006L103.99999999999997 89.31250000000006L104.09374999999997 90.18750000000006L104.84374999999997 90.62500000000006L106.56249999999997 90.46875000000006L107.78124999999997 90.78125000000006L108.28124999999997 91.50000000000006L109.56249999999997 91.43750000000006L112.37499999999997 89.46875000000006L112.96874999999997 87.84375000000006L114.09374999999997 88.06250000000006L114.09374999999997 88.87500000000006L114.53124999999997 88.93750000000006L114.37499999999997 87.68750000000006L114.78124999999997 86.90625000000006L116.81249999999997 85.28125000000006L118.93749999999997 84.71875000000006L119.49999999999997 84.06250000000006L119.78124999999997 83.21875000000006L119.56249999999997 81.93750000000006L120.59374999999997 81.18750000000006L120.28124999999997 80.50000000000006L121.31249999999997 79.12500000000006L121.21874999999997 78.28125000000006L122.37499999999997 77.75000000000006L122.65624999999997 76.96875000000006L124.71874999999997 77.03125000000006L126.28124999999997 76.43750000000006L129.03124999999997 74.56250000000006L133.81249999999997 72.65625000000006L133.65624999999997 72.12500000000006L135.65624999999997 71.68750000000006L137.24999999999997 72.18750000000006L137.62499999999997 72.03125000000006L137.49999999999997 71.21875000000006L137.40624999999997 70.34375000000006L135.81249999999997 69.68750000000006L134.53124999999997 67.37500000000006L134.74999999999997 65.62500000000006L135.53124999999997 65.28125000000006L135.84374999999997 64.06250000000006L137.43749999999997 63.81250000000006L137.06249999999997 63.06250000000006L137.12499999999997 61.81250000000006L137.78124999999997 60.34375000000006L137.34374999999997 60.43750000000006L136.74999999999997 59.81250000000006L134.81249999999997 58.96875000000006L134.87499999999997 58.12500000000006L135.68749999999997 58.21875000000006L136.96874999999997 56.00000000000006L137.74999999999997 55.71875000000006L136.99999999999997 55.28125000000006L136.03124999999997 56.21875000000006L135.21874999999997 56.18750000000006L134.53124999999997 52.68750000000006L133.96874999999997 52.06250000000006L134.71874999999997 49.125L134.62499999999997 48.25L130.15624999999997 46.78125L130.62499999999997 46.09375L130.53124999999997 45.25L130.78124999999997 45L130.90624999999997 42.40625L132.09374999999997 41.0625L133.68749999999997 40.3125L135.03124999999997 39.15625L134.68749999999997 38.40625L133.43749999999997 38.53125L132.59374999999997 37.6875L132.62499999999997 37.25L131.46874999999997 37.03125L131.24999999999997 36.28125L130.84374999999997 36.21875L129.84374999999997 36.65625L129.81249999999997 37.34375L128.96874999999997 37.1875L128.43749999999997 36L127.59374999999997 36.03125L127.34374999999997 35.6875zM70.12499999999997 43.28125L67.18749999999997 45.03125L66.53124999999997 44.96875L66.12499999999997 45.1875L65.59374999999997 45.96875L62.46874999999997 47.59375L61.31249999999997 49.15625L59.84374999999997 50.15625L58.21874999999997 54.68750000000006L58.87499999999997 54.84375000000006L62.68749999999997 52.68750000000006L63.53124999999997 52.71875000000006L62.62499999999997 53.21875000000006L61.34374999999997 54.96875000000006L65.06249999999997 54.78125000000006L65.65624999999997 53.62500000000006L65.53124999999997 52.31250000000006L67.78124999999997 50.8125L66.68749999999997 52.50000000000006L67.31249999999997 52.53125000000006L69.28124999999997 50.65625L69.74999999999997 50.125L68.65624999999997 52.87500000000006L71.40624999999997 52.43750000000006L70.78124999999997 51.81250000000006L71.12499999999997 50.96875L70.74999999999997 49.6875L71.06249999999997 48.875L72.78124999999997 47.4375L72.87499999999997 47L72.06249999999997 44.90625L70.96874999999997 43.5L70.12499999999997 43.28125z">
      <title id="t119">Sixième circonscription du Finistère</title>
      <desc id="d119">Cantons de : Carhaix-Plouguer, Châteaulin, Châteauneuf-du-Faou, Crozon, Daoulas, Le Faou, Huelgoat, Ouessant, Pleyben</desc>
    </path><path class="circo" id="id-029-07" d="M65.96874999999997 82.25000000000006L64.62499999999997 82.59375000000006L63.34374999999997 82.96875000000006L61.56249999999997 82.81250000000006L60.12499999999997 83.81250000000006L57.93749999999997 84.03125000000006L57.06249999999997 83.93750000000006L55.24999999999997 85.21875000000006L53.93749999999997 84.93750000000006L51.34374999999997 85.09375000000006L50.18749999999997 86.37500000000006L48.49999999999997 85.90625000000006L47.24999999999997 86.15625000000006L43.96874999999997 87.62500000000006L43.37499999999997 87.21875000000006L43.06249999999997 87.62500000000006L40.09374999999997 87.21875000000006L39.78124999999997 88.56250000000006L36.18749999999997 88.03125000000006L36.09374999999997 88.40625000000006L36.12499999999997 88.84375000000006L36.78124999999997 90.40625000000006L36.46874999999997 90.71875000000006L33.8125 91.18750000000006L35.03125 91.87500000000006L37.56249999999997 92.90625000000006L40.28124999999997 93.00000000000006L41.24999999999997 93.43750000000006L42.99999999999997 92.56250000000006L43.93749999999997 94.00000000000006L45.56249999999997 94.37500000000006L45.99999999999997 94.34375000000006L46.71874999999997 95.40625000000006L48.68749999999997 96.25000000000006L50.12499999999997 94.78125000000006L50.65624999999997 94.93750000000006L51.15624999999997 94.25000000000006L51.34374999999997 91.81250000000006L50.81249999999997 91.59375000000006L51.46874999999997 91.68750000000006L51.96874999999997 91.37500000000006L52.37499999999997 91.21875000000006L55.06249999999997 91.31250000000006L55.12499999999997 91.50000000000006L51.68749999999997 91.84375000000006L51.24999999999997 94.90625000000006L54.34374999999997 96.12500000000006L56.65624999999997 98.15625000000006L57.49999999999997 98.12500000000006L61.03124999999997 101.31250000000006L61.87499999999997 102.87500000000006L62.90624999999997 104.25000000000006L65.03124999999997 108.34375000000006L65.65624999999997 109.90625000000006L67.93749999999997 109.03125000000006L66.43749999999997 110.43750000000006L66.21874999999997 111.65625000000006L66.84374999999997 113.68750000000006L67.24999999999997 115.46875000000006L67.06249999999997 117.78125000000006L64.49999999999997 119.15625000000006L64.46874999999997 119.59375000000006L65.06249999999997 120.18750000000006L65.24999999999997 121.90625000000006L69.09374999999997 121.93750000000006L71.24999999999997 121.59375000000006L72.40624999999997 122.59375000000006L73.65624999999997 121.56250000000006L73.71874999999997 121.96875000000006L73.03124999999997 122.59375000000006L74.18749999999997 122.87500000000006L77.53124999999997 122.50000000000006L78.74999999999997 122.15625000000006L78.12499999999997 120.31250000000006L78.40624999999997 120.06250000000006L79.09374999999997 121.46875000000006L80.49999999999997 122.21875000000006L82.18749999999997 120.75000000000006L82.03124999999997 120.00000000000006L82.74999999999997 119.90625000000006L83.12499999999997 117.31250000000006L81.21874999999997 116.78125000000006L80.34374999999997 114.93750000000006L78.62499999999997 112.93750000000006L79.87499999999997 113.90625000000006L81.12499999999997 111.40625000000006L82.12499999999997 112.15625000000006L82.59374999999997 114.46875000000006L82.34374999999997 116.62500000000006L82.59374999999997 116.56250000000006L82.99999999999997 115.37500000000006L83.93749999999997 114.71875000000006L86.21874999999997 113.43750000000006L87.15624999999997 113.84375000000006L87.09374999999997 112.46875000000006L86.31249999999997 111.81250000000006L86.34374999999997 111.03125000000006L84.81249999999997 109.59375000000006L83.68749999999997 110.03125000000006L82.34374999999997 109.68750000000006L81.84374999999997 108.09375000000006L82.03124999999997 106.90625000000006L80.78124999999997 105.25000000000006L80.81249999999997 105.18750000000006L80.56249999999997 104.78125000000006L79.84374999999997 103.78125000000006L78.21874999999997 103.34375000000006L78.71874999999997 101.84375000000006L78.34374999999997 101.06250000000006L78.37499999999997 99.78125000000006L76.56249999999997 98.78125000000006L76.93749999999997 97.09375000000006L77.46874999999997 96.46875000000006L77.93749999999997 97.18750000000006L79.06249999999997 96.62500000000006L79.74999999999997 97.15625000000006L81.37499999999997 95.84375000000006L83.09374999999997 97.75000000000006L83.87499999999997 97.93750000000006L83.15624999999997 95.43750000000006L81.34374999999997 93.62500000000006L82.18749999999997 93.53125000000006L83.24999999999997 94.12500000000006L85.37499999999997 93.87500000000006L84.24999999999997 92.25000000000006L85.84374999999997 90.84375000000006L87.09374999999997 90.93750000000006L87.43749999999997 90.65625000000006L87.74999999999997 88.09375000000006L88.49999999999997 86.15625000000006L88.56249999999997 83.62500000000006L88.12499999999997 82.87500000000006L85.84374999999997 84.03125000000006L84.46874999999997 83.21875000000006L81.53124999999997 83.75000000000006L79.24999999999997 84.84375000000006L77.99999999999997 84.96875000000006L77.81249999999997 85.81250000000006L77.12499999999997 86.21875000000006L75.06249999999997 87.21875000000006L73.87499999999997 86.34375000000006L73.53124999999997 85.53125000000006L71.56249999999997 84.59375000000006L70.74999999999997 84.90625000000006L69.03124999999997 83.81250000000006L68.49999999999997 83.90625000000006L68.78124999999997 86.09375000000006L67.78124999999997 83.68750000000006L65.96874999999997 82.25000000000006zM23.0625 90.71875000000006L22.8125 91.15625000000006L23.15625 91.50000000000006L23.375 91.21875000000006L24 91.40625000000006L24.53125 92.25000000000006L24.90625 92.31250000000006L25.28125 92.21875000000006L24.625 92.09375000000006L24.5 91.15625000000006L24.21875 91.28125000000006L23.875 91.00000000000006L23.5 91.00000000000006L23.0625 90.71875000000006z">
      <title id="t120">Septième circonscription du Finistère</title>
      <desc id="d120">Cantons de : Douarnenez, Guilvinec, Plogastel-Saint-Germain, Pont-Croix, Pont-l'Abbé</desc>
    </path><path class="circo" id="id-029-08" d="M147.07219999999998 113.66098000000005L146.0096 112.97893000000005L143.57309999999998 113.90158000000002L143.6525 115.53204999999997L142.90939999999998 117.02954000000005L141.6215 117.13211000000007L140.5112 118.46540999999996L140.07700000000003 118.49439999999998L138.5477 117.66964000000002L137.70000000000002 116.72219000000001L137.6722 115.50077000000005L137.3552 115.44464999999997L136.7551 114.44786000000005L135.9229 114.39807000000002L135.7517 113.22588000000002L135.52149999999997 114.37198000000006L136.53369999999998 114.98561000000001L136.96380000000002 116.07769000000002L135.87730000000002 117.05789999999996L135.6629 118.86066L136.10229999999999 118.94990999999999L136.25359999999998 119.91134000000005L137.17659999999998 120.53066000000007L136.74949999999998 121.08512000000002L137.42 121.32644999999997L136.67249999999999 122.84109000000007L136.8903 123.32679000000002L136.4286 124.71335000000005L136.6804 125.43250000000006L136.1176 126.30964999999998L133.62570000000002 125.64384000000001L129.8871 125.43895000000003L129.43730000000002 125.49397000000005L126.77399999999997 124.70094999999998L127.43679999999998 122.73330000000004L126.3717 124.30541999999997L125.03799999999998 124.07810999999998L124.26539999999997 124.73548L120.4836 121.96133000000003L120.42979999999997 121.3281L121.69660000000002 120.04791000000006L122.31300000000002 120.51433000000003L122.30780000000001 119.41842000000003L124.76129999999998 118.68013000000002L126.07379999999998 118.95409000000001L126.58900000000003 118.98016000000001L127.44649999999999 117.99289000000005L126.3389 118.69152000000003L124.595 118.34424000000007L123.36409999999998 118.83431999999999L122.80519999999999 119.04549000000003L122.78990000000002 117.81513000000001L121.94019999999998 119.65324000000004L119.5214 121.46186000000006L118.71549999999999 119.46968999999996L118.59869999999998 118.10052000000002L117.97979999999998 117.26279000000005L118.3801 116.23422999999997L118.05069999999998 116.01095000000004L118.25379999999998 115.58386000000002L117.66 116.06971000000004L118.066 116.26930999999996L117.35119999999998 117.08689999999996L118.35369999999998 118.26232999999996L118.4539 119.26234000000005L117.52340000000001 119.44639999999998L118.4315 119.69413000000003L119.0918 121.87592000000001L117.16209999999998 122.99051000000003L115.00289999999998 122.72520000000003L113.86030000000002 123.17953000000006L113.19809999999998 123.04491999999999L112.8912 122.39256000000006L110.74159999999998 122.11291999999997L109.51450000000003 122.49770000000007L109.09209999999999 121.24039999999997L105.4537 117.29774000000003L105.33380000000002 116.44687000000005L105.941 115.82374999999996L106.10400000000001 114.94545L107.12570000000002 114.08794000000006L105.2723 115.23476999999997L104.44239999999999 115.02044000000006L104.1779 114.67068999999998L104.8486 114.14583999999996L104.76860000000002 113.71331000000004L104.20559999999998 113.04406L102.97549999999998 112.61664999999999L102.43030000000002 111.42474999999996L101.73260000000002 110.88988L101.22029999999998 109.73836999999997L101.39860000000002 108.42815000000002L101.13629999999998 106.30315000000002L102.2014 105.68287000000004L102.64349999999999 104.48401000000007L101.95399999999998 104.02330999999998L100.67060000000001 104.19306999999998L99.37219999999999 103.12971999999996L98.20630000000003 103.62081000000006L98.56519999999998 101.95159000000007L97.86319999999998 100.37398000000002L98.465 98.38403L99.60119999999998 98.44029000000006L100.86890000000002 92.47654000000006L99.05690000000001 91.37746999999996L99.70759999999999 90.91303999999997L100.92769999999999 90.87961000000001L101.86120000000003 90.11354999999998L103.98850000000002 89.32400000000001L104.10470000000001 90.19364999999999L104.85060000000001 90.62989999999996L106.56629999999998 90.46321000000006L107.7739 90.77319000000006L108.26809999999998 91.49252000000007L109.56339999999997 91.43225999999999L112.36600000000001 89.45524000000006L112.97639999999998 87.84803000000005L114.10260000000002 88.07673000000005L114.1029 88.87863999999996L114.53420000000003 88.95265L114.38199999999998 87.67580000000004L114.79170000000002 86.91190999999998L116.82149999999999 85.27735999999999L118.93379999999999 84.71985999999998L119.50730000000001 84.06838999999997L121.6265 83.82848000000007L122.73479999999998 84.43847999999997L121.9863 85.54240999999996L122.27790000000002 87.30538000000007L121.99480000000003 87.65456L122.18179999999998 88.06363000000005L124.4693 89.32869999999997L125.63230000000001 94.07714000000004L126.6448 95.54396000000003L127.32180000000002 98.11366000000004L128.94179999999997 98.49185000000006L129.7041 98.20166L130.36069999999998 97.62914000000006L131.65619999999998 97.66940000000005L132.34099999999998 98.09256999999997L132.98960000000002 97.50492000000003L134.71059999999997 97.34044L135.4199 97.85584L136.6935 98.06070000000005L137.82039999999998 99.358L139.52739999999997 99.26479999999998L140.56070000000003 100.51731000000001L141.0171 102.55648000000002L142.02900000000002 103.22249000000005L142.3735 102.96386000000001L142.59959999999998 101.69151000000005L144.27239999999998 101.36847000000006L146.30370000000002 99.84379000000007L146.70770000000002 99.69511000000006L147.09369999999998 100.46715999999998L147.52270000000001 100.49979000000002L147.6992 101.29688000000004L148.3882 101.73353000000003L148.3912 102.54811000000001L147.7272 103.67347999999998L148.8287 105.57137000000006L148.50179999999997 106.40082000000001L147.27630000000002 106.80530000000005L146.8455 108.39087L147.60580000000002 110.85642000000001L147.48010000000002 113.00768999999997L147.9483 113.67657000000003L147.07219999999998 113.66098000000005z">
      <title id="t121">Huitième circonscription du Finistère</title>
      <desc id="d121">Cantons de : Arzano, Bannalec, Concarneau, Pont-Aven, Quimperlé, Rosporden, Scaër</desc>
    </path></svg>