<svg xmlns="http://www.w3.org/2000/svg" version="1.1" xmlns:xlink="http://www.w3.org/1999/xlink" xmlns:svgjs="http://svgjs.dev/svgjs" viewBox="0 0 73.7174 116.28199999999993"><path class="circo" id="id-02a-01" d="M45.24289999999996 28.871999999999844L45.594499999999925 28.167799999999943L44.650499999999965 24.759199999999964L43.5634 24.323899999999867L43.210599999999886 23.63209999999981L43.28399999999988 21.648500000000013L43.00829999999996 19.95809999999983L41.09649999999988 20.434799999999996L39.672000000000025 19.84479999999985L39.36929999999984 19.215599999999995L38.654599999999846 19.18159999999989L37.762500000000045 18.02019999999993L37.40249999999992 18.09199999999987L36.76769999999988 17.13429999999994L34.75260000000003 16.940099999999802L34.02970000000005 16.573799999999892L33.64210000000003 15.472499999999854L32.88290000000006 14.624399999999923L32.5933 14.346900000000005L31.02509999999984 14.661499999999933L29.08510000000001 12.614399999999932L29.354900000000043 11.0949999999998L28.668699999999944 10.165399999999863L27.28150000000005 9.462199999999939L27.342999999999847 5.955799999999954L26.978799999999865 5.800099999999929L23.824299999999994 7.446099999999888L21.254599999999982 6.426299999999856L19.668899999999894 6.441199999999981L18.40189999999984 4.942099999999982L15.723700000000008 4.513099999999895L14.847600000000057 3.7911999999998898L12.215099999999893 3.8396000000000186L12.031299999999874 2.673799999999801L10.10719999999992 2.458099999999831L8.272500000000036 0.9856999999999516L6.3315000000000055 0.8704999999999927L5.21349999999984 1.2966999999998734L4.010199999999941 0.345299999999952L2.8589999999999236 0L3.18529999999987 0.6763999999998305L2.587099999999964 1.1606999999999061L1.1388999999999214 1.16379999999981L1.027900000000045 0.3442000000000007L0.5931000000000495 0.18079999999986285L0.3876000000000204 1.5513999999998305L0.7487999999998465 1.688799999999901L1.3162999999999556 2.225500000000011L1.175799999999981 3.785699999999906L1.4579999999998563 5.3245999999999185L2.2100000000000364 5.332299999999805L4.221299999999928 3.440099999999802L4.984199999999873 3.2818999999999505L6.451800000000048 3.9047999999997955L7.392900000000054 5.131799999999885L7.158400000000029 5.889999999999873L5.1684999999999945 7.213700000000017L5.30639999999994 7.989899999999807L5.901399999999967 8.434199999999919L7.459299999999985 8.131399999999985L8.249499999999898 8.946099999999888L8.840400000000045 9.326199999999972L10.25929999999994 9.091699999999946L10.261600000000044 9.477099999999837L11.27299999999991 10.020199999999932L11.763999999999896 11.415099999999939L12.530399999999872 11.429099999999835L12.816299999999956 12.243799999999965L12.677199999999857 13.560699999999997L8.812999999999874 14.307399999999916L8.16879999999992 14.768199999999979L5.8677000000000135 14.71309999999994L5.70270000000005 15.0779L2.3887999999999465 16.393899999999803L1.5980999999999312 16.765099999999848L0.8927999999998519 16.183599999999842L0 16.555999999999813L1.0718999999999141 17.743499999999813L1.7925000000000182 17.2679999999998L2.5715999999999894 17.340799999999945L2.8759999999999764 17.774099999999862L2.341999999999871 18.50969999999984L3.0411999999998898 19.186999999999898L2.4762000000000626 19.340199999999868L2.3182999999999083 20.22329999999988L3.344000000000051 20.00559999999996L3.2187999999998738 21.445999999999913L3.621099999999842 22.764399999999796L3.965099999999893 22.996599999999944L3.594699999999875 23.2833999999998L2.218399999999974 23.355199999999968L1.6933999999998832 23.969899999999825L2.432499999999891 24.40879999999993L4.090599999999995 24.091499999999996L4.596399999999903 24.755699999999933L3.384900000000016 25.704700000000003L1.9609000000000378 26.3433L1.7347999999999502 27.05639999999994L3.106700000000046 26.27879999999982L3.8642999999999574 26.47939999999994L4.4646000000000186 27.420599999999922L3.324899999999843 29.152699999999868L6.373000000000047 28.526499999999942L6.680799999999863 29.60979999999995L8.054300000000012 29.56269999999995L8.143800000000056 30.009900000000016L8.89149999999995 29.88079999999991L9.451499999999896 30.364100000000008L10.096000000000004 31.721399999999903L10.447199999999839 31.871599999999944L11.907999999999902 31.534199999999828L12.69119999999998 30.723899999999958L13.721399999999903 31.02879999999982L14.406399999999849 32.709299999999985L14.12869999999998 33.82219999999984L14.497899999999845 33.921299999999974L15.080899999999929 34.900499999999965L15.364100000000008 36.41489999999999L16.860999999999876 36.36419999999998L17.353599999999915 36.9541999999999L17.308299999999917 37.20869999999991L17.658500000000004 38.28729999999996L16.988599999999906 39.24979999999982L15.80379999999991 39.04269999999997L15.80320000000006 39.71799999999985L14.790700000000015 40.439099999999826L12.667599999999993 40.70139999999992L11.287499999999909 41.5003999999999L10.073999999999842 42.54639999999995L9.926699999999983 43.29829999999993L9.761399999999867 43.615099999999984L10.138899999999921 44.6087L10.849199999999882 44.550700000000006L10.98779999999988 44.88009999999986L10.935199999999895 45.800199999999904L9.261399999999867 47.30989999999997L8.142000000000053 47.455999999999904L7.063200000000052 47.13259999999991L6.296199999999999 47.04059999999981L4.601499999999987 47.923699999999826L5.9232999999999265 50.63580000000002L6.691299999999956 50.60719999999992L7.0715999999999894 51.25819999999999L6.05600000000004 53.809299999999894L6.213600000000042 54.968599999999924L5.906299999999874 55.690200000000004L8.247899999999845 54.275899999999865L9.010800000000017 54.09719999999993L11.358799999999974 54.584299999999985L12.910100000000057 54.20479999999998L14.9058 54.24579999999992L15.292400000000043 54.1422L17.007100000000037 53.11199999999985L17.095100000000002 51.91339999999991L16.596599999999853 50.19769999999994L17.523799999999937 48.90210000000002L17.676999999999907 48.34789999999998L18.50540000000001 48.581500000000005L18.432999999999993 49.3916999999999L18.810199999999895 49.99540000000002L19.493399999999838 50.33279999999991L21.001999999999953 50.27710000000002L22.51059999999984 50.775899999999865L22.50999999999999 51.39850000000001L23.073699999999917 51.48889999999983L22.97309999999993 52.33159999999998L23.85019999999986 52.69269999999983L23.37559999999985 53.30469999999991L22.629699999999957 53.57979999999998L22.316800000000057 54.308899999999994L22.439200000000028 54.65219999999999L23.412399999999934 54.227300000000014L23.748799999999846 54.36439999999993L24.606199999999944 53.674800000000005L25.310799999999972 53.837299999999914L27.53359999999998 52.187599999999975L26.695899999999938 50.510099999999966L28.242499999999836 49.031799999999976L30.049600000000055 48.681100000000015L31.079600000000028 47.5L33.94699999999989 46.375099999999975L34.33069999999998 45.694299999999885L34.59019999999987 45.0009L36.925500000000056 43.22119999999995L37.28749999999991 42.58909999999992L39.6561999999999 41.25649999999996L39.98009999999999 40.522399999999834L40.91750000000002 39.774400000000014L40.88200000000006 39.01159999999982L42.04939999999988 40.06139999999982L43.503999999999905 39.459699999999884L45.05859999999984 39.56739999999991L46.010099999999966 38.899400000000014L46.78620000000001 39.041999999999916L47.909799999999905 38.65169999999989L48.55150000000003 38.473599999999806L48.73309999999992 37.731599999999844L50.47350000000006 36.96049999999991L50.09999999999991 36.3286999999998L50.483799999999974 33.39249999999993L49.62909999999988 31.691299999999956L48.08969999999999 30.510899999999992L46.949299999999994 30.394399999999905L46.22779999999989 29.473999999999933L45.24289999999996 28.871999999999844z">
      <title id="t122">Première circonscription de Corse-du-Sud</title>
      <desc id="d122">Cantons de : Ajaccio I, Ajaccio II, Ajaccio III, Ajaccio IV, Ajaccio V, Ajaccio VII, Celavo-Mezzana, Cruzini-Cinarca, Les Deux-Sevi, Les Deux-Sorru</desc>
    </path><path class="circo" id="id-02a-02" d="M50.4674 36.96939999999995L48.74869999999987 37.71939999999995L48.5610999999999 38.46939999999995L47.9049 38.656999999999925L46.7799 39.031999999999925L45.99869999999987 38.906999999999925L45.0610999999999 39.563199999999824L43.49869999999987 39.46939999999995L42.0610999999999 40.063199999999824L40.87369999999987 39.000699999999824L40.9049 39.781999999999925L39.9674 40.531999999999925L39.6549 41.250699999999824L37.2799 42.59439999999995L36.9360999999999 43.21939999999995L34.5924 45.000699999999824L34.3424 45.688199999999824L33.9360999999999 46.375699999999824L31.092399999999998 47.500699999999824L30.061099999999897 48.688199999999824L28.24869999999987 49.031999999999925L26.686099999999897 50.500699999999824L27.529899999999998 52.188199999999824L25.311099999999897 53.84439999999995L24.592399999999998 53.688199999999824L23.74869999999987 54.375699999999824L23.404899999999998 54.21939999999995L22.436099999999897 54.656999999999925L22.311099999999897 54.313199999999824L22.62369999999987 53.59439999999995L23.37369999999987 53.313199999999824L23.842399999999998 52.688199999999824L22.967399999999998 52.34439999999995L23.061099999999897 51.500699999999824L22.49869999999987 51.406999999999925L22.49869999999987 50.781999999999925L20.99869999999987 50.281999999999925L19.49869999999987 50.34439999999995L18.811099999999897 50.000699999999824L18.436099999999897 49.406999999999925L18.49869999999987 48.59439999999995L17.686099999999897 48.34439999999995L17.529899999999998 48.906999999999925L16.592399999999998 50.188199999999824L17.092399999999998 51.906999999999925L17.686099999999897 51.406999999999925L18.061099999999897 51.46939999999995L18.811099999999897 52.406999999999925L19.561099999999897 52.125699999999824L20.311099999999897 52.313199999999824L21.936099999999897 54.563199999999824L22.342399999999998 56.031999999999925L21.842399999999998 56.59439999999995L20.467399999999998 57.21939999999995L20.592399999999998 58.281999999999925L21.154899999999998 58.813199999999824L21.24869999999987 60.531999999999925L20.686099999999897 61.125699999999824L18.311099999999897 61.438199999999824L18.311099999999897 61.71939999999995L19.061099999999897 61.906999999999925L20.561099999999897 63.156999999999925L19.904899999999998 64.12569999999982L19.686099999999897 65.31319999999982L18.49869999999987 65.53199999999993L18.217399999999998 65.25069999999982L17.842399999999998 65.40699999999993L16.561099999999897 66.81319999999982L14.686099999999897 66.46939999999995L14.529899999999998 66.81319999999982L16.217399999999998 68.90699999999993L14.654899999999998 71.15699999999993L12.279899999999998 72.53199999999993L10.842399999999998 72.06319999999982L10.248699999999872 72.56319999999982L10.154899999999998 72.96939999999995L10.311099999999897 73.31319999999982L11.092399999999998 73.12569999999982L13.842399999999998 73.46939999999995L14.123699999999872 73.75069999999982L14.092399999999998 75.31319999999982L14.467399999999998 75.43819999999982L19.467399999999998 73.34439999999995L20.217399999999998 73.40699999999993L20.74869999999987 73.96939999999995L19.842399999999998 76.09439999999995L20.936099999999897 77.59439999999995L21.279899999999998 77.68819999999982L22.12369999999987 76.87569999999982L23.217399999999998 76.43819999999982L24.279899999999998 76.93819999999982L25.717399999999998 78.25069999999982L28.74869999999987 78.53199999999993L29.717399999999998 79.15699999999993L31.654899999999998 79.03199999999993L31.967399999999998 80.09439999999995L29.186099999999897 81.34439999999995L28.592399999999998 83.59439999999995L28.029899999999998 84.12569999999982L27.74869999999987 83.87569999999982L26.561099999999897 84.00069999999982L23.62369999999987 85.84439999999995L22.49869999999987 85.00069999999982L22.12369999999987 85.62569999999982L21.49869999999987 86.06319999999982L21.217399999999998 88.75069999999982L20.342399999999998 90.43819999999982L20.592399999999998 90.78199999999993L21.279899999999998 91.06319999999982L22.061099999999897 92.40699999999993L21.24869999999987 93.25069999999982L20.87369999999987 93.84439999999995L21.779899999999998 94.37569999999982L22.811099999999897 94.28199999999993L23.154899999999998 94.62569999999982L23.936099999999897 95.43819999999982L25.49869999999987 95.53199999999993L26.529899999999998 96.00069999999982L26.561099999999897 96.78199999999993L25.62369999999987 98.06319999999982L25.99869999999987 98.68819999999982L26.87369999999987 98.59439999999995L28.467399999999998 97.93819999999982L29.74869999999987 99.00069999999982L29.342399999999998 99.96939999999995L31.74869999999987 99.81319999999982L32.4049 101.90699999999993L33.5924 101.31319999999982L34.0610999999999 101.84439999999995L35.9674 101.81319999999982L37.5924 103.40699999999993L38.6860999999999 102.37569999999982L39.0299 103.15699999999993L39.62369999999987 103.65699999999993L40.5610999999999 103.18819999999982L40.4674 104.09439999999995L41.2174 105.12569999999982L42.3424 104.15699999999993L42.5610999999999 105.59439999999995L43.5299 105.12569999999982L45.1549 103.43819999999982L45.9049 103.28199999999993L44.9360999999999 104.93819999999982L44.8424 106.43819999999982L45.2799 107.06319999999982L45.99869999999987 107.31319999999982L47.2174 106.43819999999982L47.5610999999999 107.12569999999982L49.0610999999999 107.40699999999993L49.1860999999999 107.78199999999993L48.2174 108.96939999999995L48.1860999999999 109.75069999999982L47.4049 110.56319999999982L46.9049 112.06319999999982L47.24869999999987 112.75069999999982L47.6549 112.84439999999995L49.99869999999987 112.37569999999982L50.9360999999999 113.12569999999982L52.0924 113.18819999999982L52.3424 113.34439999999995L52.0610999999999 113.62569999999982L53.5610999999999 113.96939999999995L54.3110999999999 115.71939999999995L54.6549 115.90699999999993L57.7799 115.68819999999982L58.0924 114.56319999999982L59.9049 112.06319999999982L60.4360999999999 111.00069999999982L61.0610999999999 110.56319999999982L61.49869999999987 109.06319999999982L61.12369999999987 108.96939999999995L60.12369999999987 109.53199999999993L58.4049 111.15699999999993L58.0610999999999 111.34439999999995L57.7174 111.21939999999995L57.49869999999987 110.46939999999995L58.1860999999999 110.21939999999995L58.49869999999987 109.09439999999995L58.2174 108.34439999999995L58.3110999999999 107.25069999999982L59.7799 106.65699999999993L61.4674 104.96939999999995L62.2174 104.71939999999995L62.24869999999987 104.00069999999982L63.1860999999999 103.28199999999993L63.5299 102.56319999999982L63.3110999999999 100.75069999999982L62.62369999999987 101.12569999999982L62.24869999999987 100.46939999999995L63.12369999999987 99.12569999999982L62.4674 97.78199999999993L62.5610999999999 97.43819999999982L63.6860999999999 97.06319999999982L64.7174 95.81319999999982L66.62369999999987 94.31319999999982L67.74869999999987 94.03199999999993L68.6860999999999 93.46939999999995L68.99869999999987 91.96939999999995L70.37369999999987 90.12569999999982L70.2174 89.78199999999993L69.4360999999999 89.81319999999982L68.3110999999999 89.96939999999995L67.4674 89.12569999999982L66.3110999999999 88.90699999999993L64.49869999999987 90.96939999999995L64.1549 91.12569999999982L63.5299 90.62569999999982L63.24869999999987 89.90699999999993L63.4674 88.71939999999995L65.0610999999999 87.59439999999995L65.0610999999999 86.43819999999982L65.7799 86.12569999999982L65.74869999999987 86.50069999999982L66.5924 87.34439999999995L68.9360999999999 87.25069999999982L69.12369999999987 86.59439999999995L68.62369999999987 85.56319999999982L68.9674 84.87569999999982L69.74869999999987 84.78199999999993L70.4049 85.15699999999993L71.7174 83.71939999999995L71.7799 81.78199999999993L70.87369999999987 80.59439999999995L71.7174 79.31319999999982L73.0924 78.62569999999982L73.4674 76.68819999999982L73.24869999999987 75.96939999999995L73.5610999999999 75.28199999999993L73.37369999999987 74.53199999999993L73.7174 70.65699999999993L73.5610999999999 69.90699999999993L72.8424 69.59439999999995L73.0299 68.06319999999982L72.7174 66.90699999999993L73.5924 64.25069999999982L73.3110999999999 59.906999999999925L71.99869999999987 59.031999999999925L71.1860999999999 59.063199999999824L69.2174 60.406999999999925L68.7799 61.09439999999995L67.7174 61.59439999999995L66.9360999999999 62.500699999999824L65.4049 62.938199999999824L65.3424 62.156999999999925L64.7799 61.656999999999925L63.24869999999987 61.563199999999824L62.12369999999987 61.96939999999995L59.9674 61.031999999999925L59.1860999999999 61.156999999999925L58.4674 60.250699999999824L59.1860999999999 58.000699999999824L59.2799 57.250699999999824L60.37369999999987 55.59439999999995L60.4360999999999 54.813199999999824L60.3110999999999 54.438199999999824L60.0610999999999 54.125699999999824L59.0610999999999 53.46939999999995L57.9049 53.563199999999824L57.24869999999987 53.188199999999824L58.7174 51.46939999999995L57.5610999999999 50.531999999999925L58.0610999999999 49.531999999999925L58.3424 46.938199999999824L57.87369999999987 46.406999999999925L57.8424 44.938199999999824L57.4360999999999 44.34439999999995L57.9049 40.59439999999995L54.9674 40.250699999999824L52.74869999999987 40.688199999999824L51.99869999999987 39.313199999999824L50.3424 37.71939999999995L50.4674 36.96939999999995zM61.1549 115.18819999999982L60.6860999999999 115.50069999999982L60.6860999999999 115.68819999999982L61.2174 115.93819999999982L61.4360999999999 116.25069999999982L61.62369999999987 116.28199999999993L61.8110999999999 115.96939999999995L62.1549 116.03199999999993L62.37369999999987 115.71939999999995L62.3110999999999 115.56319999999982L61.9049 115.53199999999993L61.7174 115.21939999999995L61.1549 115.18819999999982z">
      <title id="t123">Deuxième circonscription de Corse-du-Sud</title>
      <desc id="d123">Cantons de : Ajaccio VI, Bastelica, Bonifacio, Figari, Levie, Olmeto, Petreto-Bicchisano, Porto-Vecchio, Santa-Maria-Siché, Sartène, Tallano-Scopamène, Zicavo</desc>
    </path></svg>