<svg xmlns="http://www.w3.org/2000/svg" version="1.1" xmlns:xlink="http://www.w3.org/1999/xlink" xmlns:svgjs="http://svgjs.dev/svgjs" viewBox="1382.7498 1235.6663 73.7174 116.28199999999993"><path class="circo" id="02a-01" d="M 1427.9927,1264.5383 1428.3443,1263.8341 1427.4003,1260.4255 1426.3132,1259.9902 1425.9604,1259.2984 1426.0338,1257.3148 1425.7581,1255.6244 1423.8463,1256.1011 1422.4218,1255.5111 1422.1191,1254.8819 1421.4044,1254.8479 1420.5123,1253.6865 1420.1523,1253.7583 1419.5175,1252.8006 1417.5024,1252.6064 1416.7795,1252.2401 1416.3919,1251.1388 1415.6327,1250.2907 1415.3431,1250.0132 1413.7749,1250.3278 1411.8349,1248.2807 1412.1047,1246.7613 1411.4185,1245.8317 1410.0313,1245.1285 1410.0928,1241.6221 1409.7286,1241.4664 1406.5741,1243.1124 1404.0044,1242.0926 1402.4187,1242.1075 1401.1517,1240.6084 1398.4735,1240.1794 1397.5974,1239.4575 1394.9649,1239.5059 1394.7811,1238.3401 1392.857,1238.1244 1391.0223,1236.652 1389.0813,1236.5368 1387.9633,1236.963 1386.76,1236.0116 1385.6088,1235.6663 1385.9351,1236.3427 1385.3369,1236.827 1383.8887,1236.8301 1383.7777,1236.0105 1383.3429,1235.8471 1383.1374,1237.2177 1383.4986,1237.3551 1384.0661,1237.8918 1383.9256,1239.452 1384.2078,1240.9909 1384.9598,1240.9986 1386.9711,1239.1064 1387.734,1238.9482 1389.2016,1239.5711 1390.1427,1240.7981 1389.9082,1241.5563 1387.9183,1242.88 1388.0562,1243.6562 1388.6512,1244.1005 1390.2091,1243.7977 1390.9993,1244.6124 1391.5902,1244.9925 1393.0091,1244.758 1393.0114,1245.1434 1394.0228,1245.6865 1394.5138,1247.0814 1395.2802,1247.0954 1395.5661,1247.9101 1395.427,1249.227 1391.5628,1249.9737 1390.9186,1250.4345 1388.6175,1250.3794 1388.4525,1250.7442 1385.1386,1252.0602 1384.3479,1252.4314 1383.6426,1251.8499 1382.7498,1252.2223 1383.8217,1253.4098 1384.5423,1252.9343 1385.3214,1253.0071 1385.6258,1253.4404 1385.0918,1254.176 1385.791,1254.8533 1385.226,1255.0065 1385.0681,1255.8896 1386.0938,1255.6719 1385.9686,1257.1123 1386.3709,1258.4307 1386.7149,1258.6629 1386.3445,1258.9497 1384.9682,1259.0215 1384.4432,1259.6362 1385.1823,1260.0751 1386.8404,1259.7578 1387.3462,1260.422 1386.1347,1261.371 1384.7107,1262.0096 1384.4846,1262.7227 1385.8565,1261.9451 1386.6141,1262.1457 1387.2144,1263.0869 1386.0747,1264.819 1389.1228,1264.1928 1389.4306,1265.2761 1390.8041,1265.229 1390.8936,1265.6762 1391.6413,1265.5471 1392.2013,1266.0304 1392.8458,1267.3877 1393.197,1267.5379 1394.6578,1267.2005 1395.441,1266.3902 1396.4712,1266.6951 1397.1562,1268.3756 1396.8785,1269.4885 1397.2477,1269.5876 1397.8307,1270.5668 1398.1139,1272.0812 1399.6108,1272.0305 1400.1034,1272.6205 1400.0581,1272.875 1400.4083,1273.9536 1399.7384,1274.9161 1398.5536,1274.709 1398.553,1275.3843 1397.5405,1276.1054 1395.4174,1276.3677 1394.0373,1277.1667 1392.8238,1278.2127 1392.6765,1278.9646 1392.5112,1279.2814 1392.8887,1280.275 1393.599,1280.217 1393.7376,1280.5464 1393.685,1281.4665 1392.0112,1282.9762 1390.8918,1283.1223 1389.813,1282.7989 1389.046,1282.7069 1387.3513,1283.59 1388.6731,1286.3021 1389.4411,1286.2735 1389.8214,1286.9245 1388.8058,1289.4756 1388.9634,1290.6349 1388.6561,1291.3565 1390.9977,1289.9422 1391.7606,1289.7635 1394.1086,1290.2506 1395.6599,1289.8711 1397.6556,1289.9121 1398.0422,1289.8085 1399.7569,1288.7783 1399.8449,1287.5797 1399.3464,1285.864 1400.2736,1284.5684 1400.4268,1284.0142 1401.2552,1284.2478 1401.1828,1285.058 1401.56,1285.6617 1402.2432,1285.9991 1403.7518,1285.9434 1405.2604,1286.4422 1405.2598,1287.0648 1405.8235,1287.1552 1405.7229,1287.9979 1406.6,1288.359 1406.1254,1288.971 1405.3795,1289.2461 1405.0666,1289.9752 1405.189,1290.3185 1406.1622,1289.8936 1406.4986,1290.0307 1407.356,1289.3411 1408.0606,1289.5036 1410.2834,1287.8539 1409.4457,1286.1764 1410.9923,1284.6981 1412.7994,1284.3474 1413.8294,1283.1663 1416.6968,1282.0414 1417.0805,1281.3606 1417.34,1280.6672 1419.6753,1278.8875 1420.0373,1278.2554 1422.406,1276.9228 1422.7299,1276.1887 1423.6673,1275.4407 1423.6318,1274.6779 1424.7992,1275.7277 1426.2538,1275.126 1427.8084,1275.2337 1428.7599,1274.5657 1429.536,1274.7083 1430.6596,1274.318 1431.3013,1274.1399 1431.4829,1273.3979 1433.2233,1272.6268 1432.8498,1271.995 1433.2336,1269.0588 1432.3789,1267.3576 1430.8395,1266.1772 1429.6991,1266.0607 1428.9776,1265.1403 1427.9927,1264.5383 z">
      <title id="t122">Première circonscription de Corse-du-Sud</title>
      <desc id="d122">Cantons de : Ajaccio I, Ajaccio II, Ajaccio III, Ajaccio IV, Ajaccio V, Ajaccio VII, Celavo-Mezzana, Cruzini-Cinarca, Les Deux-Sevi, Les Deux-Sorru</desc>
    </path><path class="circo" id="02a-02" d="M 1433.2172,1272.6357 1431.4985,1273.3857 1431.3109,1274.1357 1430.6547,1274.3233 1429.5297,1274.6983 1428.7485,1274.5733 1427.8109,1275.2295 1426.2485,1275.1357 1424.8109,1275.7295 1423.6235,1274.667 1423.6547,1275.4483 1422.7172,1276.1983 1422.4047,1276.917 1420.0297,1278.2607 1419.6859,1278.8857 1417.3422,1280.667 1417.0922,1281.3545 1416.6859,1282.042 1413.8422,1283.167 1412.8109,1284.3545 1410.9985,1284.6983 1409.4359,1286.167 1410.2797,1287.8545 1408.0609,1289.5107 1407.3422,1289.3545 1406.4985,1290.042 1406.1547,1289.8857 1405.1859,1290.3233 1405.0609,1289.9795 1405.3735,1289.2607 1406.1235,1288.9795 1406.5922,1288.3545 1405.7172,1288.0107 1405.8109,1287.167 1405.2485,1287.0733 1405.2485,1286.4483 1403.7485,1285.9483 1402.2485,1286.0107 1401.5609,1285.667 1401.1859,1285.0733 1401.2485,1284.2607 1400.4359,1284.0107 1400.2797,1284.5733 1399.3422,1285.8545 1399.8422,1287.5733 1400.4359,1287.0733 1400.8109,1287.1357 1401.5609,1288.0733 1402.3109,1287.792 1403.0609,1287.9795 1404.6859,1290.2295 1405.0922,1291.6983 1404.5922,1292.2607 1403.2172,1292.8857 1403.3422,1293.9483 1403.9047,1294.4795 1403.9985,1296.1983 1403.4359,1296.792 1401.0609,1297.1045 1401.0609,1297.3857 1401.8109,1297.5733 1403.3109,1298.8233 1402.6547,1299.792 1402.4359,1300.9795 1401.2485,1301.1983 1400.9672,1300.917 1400.5922,1301.0733 1399.3109,1302.4795 1397.4359,1302.1357 1397.2797,1302.4795 1398.9672,1304.5733 1397.4047,1306.8233 1395.0297,1308.1983 1393.5922,1307.7295 1392.9985,1308.2295 1392.9047,1308.6357 1393.0609,1308.9795 1393.8422,1308.792 1396.5922,1309.1357 1396.8735,1309.417 1396.8422,1310.9795 1397.2172,1311.1045 1402.2172,1309.0107 1402.9672,1309.0733 1403.4985,1309.6357 1402.5922,1311.7607 1403.6859,1313.2607 1404.0297,1313.3545 1404.8735,1312.542 1405.9672,1312.1045 1407.0297,1312.6045 1408.4672,1313.917 1411.4985,1314.1983 1412.4672,1314.8233 1414.4047,1314.6983 1414.7172,1315.7607 1411.9359,1317.0107 1411.3422,1319.2607 1410.7797,1319.792 1410.4985,1319.542 1409.3109,1319.667 1406.3735,1321.5107 1405.2485,1320.667 1404.8735,1321.292 1404.2485,1321.7295 1403.9672,1324.417 1403.0922,1326.1045 1403.3422,1326.4483 1404.0297,1326.7295 1404.8109,1328.0733 1403.9985,1328.917 1403.6235,1329.5107 1404.5297,1330.042 1405.5609,1329.9483 1405.9047,1330.292 1406.6859,1331.1045 1408.2485,1331.1983 1409.2797,1331.667 1409.3109,1332.4483 1408.3735,1333.7295 1408.7485,1334.3545 1409.6235,1334.2607 1411.2172,1333.6045 1412.4985,1334.667 1412.0922,1335.6357 1414.4985,1335.4795 1415.1547,1337.5733 1416.3422,1336.9795 1416.8109,1337.5107 1418.7172,1337.4795 1420.3422,1339.0733 1421.4359,1338.042 1421.7797,1338.8233 1422.3735,1339.3233 1423.3109,1338.8545 1423.2172,1339.7607 1423.9672,1340.792 1425.0922,1339.8233 1425.3109,1341.2607 1426.2797,1340.792 1427.9047,1339.1045 1428.6547,1338.9483 1427.6859,1340.6045 1427.5922,1342.1045 1428.0297,1342.7295 1428.7485,1342.9795 1429.9672,1342.1045 1430.3109,1342.792 1431.8109,1343.0733 1431.9359,1343.4483 1430.9672,1344.6357 1430.9359,1345.417 1430.1547,1346.2295 1429.6547,1347.7295 1429.9985,1348.417 1430.4047,1348.5107 1432.7485,1348.042 1433.6859,1348.792 1434.8422,1348.8545 1435.0922,1349.0107 1434.8109,1349.292 1436.3109,1349.6357 1437.0609,1351.3857 1437.4047,1351.5733 1440.5297,1351.3545 1440.8422,1350.2295 1442.6547,1347.7295 1443.1859,1346.667 1443.8109,1346.2295 1444.2485,1344.7295 1443.8735,1344.6357 1442.8735,1345.1983 1441.1547,1346.8233 1440.8109,1347.0107 1440.4672,1346.8857 1440.2485,1346.1357 1440.9359,1345.8857 1441.2485,1344.7607 1440.9672,1344.0107 1441.0609,1342.917 1442.5297,1342.3233 1444.2172,1340.6357 1444.9672,1340.3857 1444.9985,1339.667 1445.9359,1338.9483 1446.2797,1338.2295 1446.0609,1336.417 1445.3735,1336.792 1444.9985,1336.1357 1445.8735,1334.792 1445.2172,1333.4483 1445.3109,1333.1045 1446.4359,1332.7295 1447.4672,1331.4795 1449.3735,1329.9795 1450.4985,1329.6983 1451.4359,1329.1357 1451.7485,1327.6357 1453.1235,1325.792 1452.9672,1325.4483 1452.1859,1325.4795 1451.0609,1325.6357 1450.2172,1324.792 1449.0609,1324.5733 1447.2485,1326.6357 1446.9047,1326.792 1446.2797,1326.292 1445.9985,1325.5733 1446.2172,1324.3857 1447.8109,1323.2607 1447.8109,1322.1045 1448.5297,1321.792 1448.4985,1322.167 1449.3422,1323.0107 1451.6859,1322.917 1451.8735,1322.2607 1451.3735,1321.2295 1451.7172,1320.542 1452.4985,1320.4483 1453.1547,1320.8233 1454.4672,1319.3857 1454.5297,1317.4483 1453.6235,1316.2607 1454.4672,1314.9795 1455.8422,1314.292 1456.2172,1312.3545 1455.9985,1311.6357 1456.3109,1310.9483 1456.1235,1310.1983 1456.4672,1306.3233 1456.3109,1305.5733 1455.5922,1305.2607 1455.7797,1303.7295 1455.4672,1302.5733 1456.3422,1299.917 1456.0609,1295.5733 1454.7485,1294.6983 1453.9359,1294.7295 1451.9672,1296.0733 1451.5297,1296.7607 1450.4672,1297.2607 1449.6859,1298.167 1448.1547,1298.6045 1448.0922,1297.8233 1447.5297,1297.3233 1445.9985,1297.2295 1444.8735,1297.6357 1442.7172,1296.6983 1441.9359,1296.8233 1441.2172,1295.917 1441.9359,1293.667 1442.0297,1292.917 1443.1235,1291.2607 1443.1859,1290.4795 1443.0609,1290.1045 1442.8109,1289.792 1441.8109,1289.1357 1440.6547,1289.2295 1439.9985,1288.8545 1441.4672,1287.1357 1440.3109,1286.1983 1440.8109,1285.1983 1441.0922,1282.6045 1440.6235,1282.0733 1440.5922,1280.6045 1440.1859,1280.0107 1440.6547,1276.2607 1437.7172,1275.917 1435.4985,1276.3545 1434.7485,1274.9795 1433.0922,1273.3857 1433.2172,1272.6357 z M 1443.9047,1350.8545 1443.4359,1351.167 1443.4359,1351.3545 1443.9672,1351.6045 1444.1859,1351.917 1444.3735,1351.9483 1444.5609,1351.6357 1444.9047,1351.6983 1445.1235,1351.3857 1445.0609,1351.2295 1444.6547,1351.1983 1444.4672,1350.8857 1443.9047,1350.8545 z">
      <title id="t123">Deuxième circonscription de Corse-du-Sud</title>
      <desc id="d123">Cantons de : Ajaccio VI, Bastelica, Bonifacio, Figari, Levie, Olmeto, Petreto-Bicchisano, Porto-Vecchio, Santa-Maria-Siché, Sartène, Tallano-Scopamène, Zicavo</desc>
    </path></svg>