<svg xmlns="http://www.w3.org/2000/svg" version="1.1" xmlns:xlink="http://www.w3.org/1999/xlink" xmlns:svgjs="http://svgjs.dev/svgjs" viewBox="0 0 83.84730000000013 135.7177999999999"><path class="circo" id="id-02b-01" d="M74.89540000000011 35.0911000000001L75.0440000000001 33.99610000000007L75.47489999999993 31.383100000000013L76.07760000000007 29.916500000000042L76.19949999999994 28.33789999999999L78.03610000000003 24.741399999999885L77.65910000000008 21.339699999999993L77.20800000000008 20.23160000000007L77.41070000000013 18.2179000000001L77.0634 17.48199999999997L77.13869999999997 16.72959999999989L76.59190000000012 15.689300000000003L76.8565000000001 14.967000000000098L76.54369999999994 14.304799999999886L76.59410000000003 12.848500000000058L76.18290000000002 12.136199999999917L76.25900000000001 10.097099999999955L75.88760000000002 8.94659999999999L76.14750000000004 8.62760000000003L74.95620000000008 6.303899999999885L74.67499999999995 5.5388000000000375L75.4103 2.891499999999951L72.08560000000011 0L70.65599999999995 0.592200000000048L68.8931 0.17699999999990723L67.82729999999992 0.6400000000001L66.65800000000013 0.5243000000000393L65.46589999999992 1.5100999999999658L65.46600000000012 3.7620999999999185L66.01310000000012 4.766599999999926L65.7627 5.491500000000087L66.0036 5.793899999999894L65.76549999999997 6.510299999999916L66.68020000000001 7.807000000000016L66.06359999999995 9.298099999999977L66.81729999999993 10.204300000000103L64.00490000000013 12.723600000000033L63.60460000000012 13.34660000000008L64.14840000000004 14.422399999999925L64.16450000000009 15.641800000000103L65.18700000000013 16.8429000000001L64.81240000000003 16.97790000000009L62.614700000000084 20.69069999999988L63.404199999999946 21.552999999999884L63.997299999999996 23.0329999999999L64.98630000000003 23.9991L65.37509999999997 25.1246000000001L65.14969999999994 29.01240000000007L65.48669999999993 31.439300000000003L65.41669999999999 32.221700000000055L64.22720000000004 33.85419999999999L63.64570000000003 34.27379999999994L63.558899999999994 36.49019999999996L61.42059999999992 38.79140000000007L60.65249999999992 38.82159999999999L59.26220000000012 36.38359999999989L58.068700000000035 35.3891000000001L58.01209999999992 34.18669999999997L57.34840000000008 33.73000000000002L56.15190000000007 33.72679999999991L55.11120000000005 32.074499999999944L54.34860000000003 32.2636L53.05459999999994 33.0766000000001L50.16879999999992 31.84030000000007L47.931100000000015 32.56040000000007L46.749500000000126 32.52559999999994L46.206100000000106 33.11149999999998L45.42730000000006 33.2188000000001L44.7967000000001 34.22360000000003L43.59100000000012 34.3429000000001L43.29880000000003 35.49389999999994L42.59860000000003 36.49209999999994L42.332800000000134 36.799999999999955L41.54919999999993 36.7331999999999L42.04220000000009 37.7974999999999L43.35799999999995 38.574800000000096L44.2799 40.738599999999906L45.35550000000012 41.15989999999988L44.45060000000012 42.28279999999995L44.87130000000002 43.41159999999991L47.72230000000013 46.71199999999999L47.74160000000006 47.49350000000004L46.96219999999994 49.2650000000001L47.63589999999999 51.06330000000003L47.022500000000036 52.061300000000074L47.376199999999926 52.246000000000095L47.45479999999998 53.41229999999996L48.08269999999993 54.41730000000007L51.18270000000007 57.975999999999885L52.646200000000135 58.38969999999995L53.656600000000026 57.23630000000003L55.100400000000036 57.005300000000034L55.113000000000056 55.89650000000006L55.5630000000001 54.44569999999999L55.41730000000007 53.71530000000007L55.70499999999993 53.459299999999985L56.86159999999995 52.59590000000003L60.87699999999995 53.45010000000002L61.28530000000001 53.13850000000002L63.57320000000004 53.999700000000075L65.47029999999995 53.34210000000007L67.43499999999995 52.73829999999998L68.14800000000014 52.66709999999989L67.85290000000009 53.79320000000007L68.17689999999993 55.30529999999999L69.52140000000009 56.58590000000004L70.327 56.646400000000085L71.33390000000009 56.255300000000034L71.84230000000002 56.77320000000009L72.5576000000001 56.911800000000085L72.67419999999993 57.503799999999956L73.57069999999999 57.20920000000001L74.18070000000012 56.413499999999885L74.80880000000002 56.23520000000008L76.4326000000001 55.17769999999996L78.74669999999992 54.97350000000006L79.53070000000002 55.071699999999964L80.89509999999996 56.378400000000056L81.57639999999992 56.38719999999989L81.68200000000002 56.43859999999995L81.10329999999999 51.63229999999999L80.11570000000006 49.505300000000034L77.55539999999996 46.04430000000002L75.60419999999999 43.05400000000009L74.44380000000001 40.39599999999996L74.25469999999996 37.66879999999992L74.92610000000013 35.86169999999993L74.89540000000011 35.0911000000001z">
      <title id="t124">Première circonscription de Haute-Corse</title>
      <desc id="d124">Cantons de : Bastia I, Bastia II, Bastia III, Bastia IV, Bastia V, Bastia VI, Borgo, Capobianco, La Conca-d'Oro, Le Haut-Nebbio, Sagro-di-Santa-Giulia, San-Martino-di-Lota</desc>
    </path><path class="circo" id="id-02b-02" d="M23.297000000000025 46.52279999999996L21.968200000000024 47.33699999999999L21.263799999999947 46.958900000000085L19.750600000000077 47.36629999999991L20.06179999999995 48.509399999999914L19.40280000000007 49.50669999999991L19.531400000000076 51.0603000000001L18.964699999999993 51.621900000000096L18.122499999999945 52.43669999999997L16.45569999999998 52.69579999999996L15.56750000000011 51.92650000000003L15.841100000000097 51.15899999999988L13.964400000000069 51.49389999999994L13.004300000000057 51.884700000000066L12.932800000000043 49.52089999999998L11.702999999999975 50.113000000000056L11.390100000000075 51.08680000000004L12.211700000000064 51.12169999999992L11.926699999999983 51.70849999999996L12.763500000000022 52.863599999999906L11.703300000000127 54.80289999999991L12.243099999999913 55.79130000000009L12.509999999999991 56.36809999999991L10.569300000000112 56.10529999999994L9.52539999999999 57.48700000000008L8.663099999999986 57.03590000000008L7.690000000000055 57.45100000000002L7.7771999999999935 59.61670000000004L6.298000000000002 62.035499999999956L6.823399999999992 61.981899999999996L8.750900000000001 61.872699999999895L9.013699999999972 62.89709999999991L7.591799999999921 64.21589999999992L8.284000000000106 65.5272L6.404099999999971 65.62220000000002L7.40260000000012 66.70000000000005L7.668799999999919 67.5317L7.067099999999982 68.61519999999996L6.258100000000013 69.1878999999999L5.388200000000097 68.52890000000002L4.179100000000062 68.2025000000001L3.977000000000089 68.66120000000001L2.850599999999986 68.71350000000007L2.8480999999999312 69.25900000000001L2.432700000000068 69.66509999999994L3.3162999999999556 70.32259999999997L2.4402000000000044 70.75690000000009L3.0932000000000244 72.09979999999996L1.704300000000103 72.63020000000006L1.028099999999995 72.46080000000006L0 72.78590000000008L1.151200000000017 73.13120000000004L2.3544999999999163 74.08259999999996L3.472500000000082 73.65640000000008L5.413500000000113 73.77160000000003L7.248199999999997 75.24399999999991L9.17229999999995 75.45969999999988L9.35609999999997 76.6255000000001L11.988600000000133 76.57709999999997L12.864700000000084 77.29899999999998L15.542899999999918 77.72800000000007L16.80989999999997 79.22710000000006L18.39560000000006 79.21219999999994L20.96530000000007 80.23199999999997L24.11979999999994 78.58600000000001L24.483999999999924 78.74170000000004L24.422500000000127 82.24810000000002L25.80970000000002 82.95129999999995L26.49590000000012 83.88089999999988L26.226100000000088 85.40030000000002L28.166099999999915 87.44740000000002L29.734300000000076 87.13280000000009L30.02390000000014 87.4103L30.783100000000104 88.25839999999994L31.170700000000124 89.35969999999998L31.893600000000106 89.72599999999989L33.90869999999995 89.92020000000002L34.543499999999995 90.87789999999995L34.90350000000012 90.80610000000001L35.79559999999992 91.96749999999997L36.510299999999916 92.00150000000008L36.8130000000001 92.63069999999993L38.237499999999955 93.22070000000008L40.14930000000004 92.74399999999991L40.424999999999955 94.4344000000001L40.35159999999996 96.41799999999989L40.70440000000008 97.10979999999995L41.79150000000004 97.54510000000005L42.7355 100.95370000000003L42.38390000000004 101.65789999999993L43.368799999999965 102.25990000000002L44.09030000000007 103.18029999999999L45.23070000000007 103.29680000000008L46.77009999999996 104.47720000000004L47.62480000000005 106.17840000000001L47.240999999999985 109.11459999999988L47.614500000000135 109.7464L47.47019999999998 110.49350000000004L49.15229999999997 112.08580000000006L49.87940000000003 113.47730000000001L52.09460000000013 113.03070000000002L55.05380000000014 113.38519999999994L54.58860000000004 117.1210000000001L54.98219999999992 117.73029999999994L55.02040000000011 119.20299999999997L55.475400000000036 119.72119999999995L55.188699999999926 122.32140000000004L54.690700000000106 123.33140000000003L55.866199999999935 124.24530000000004L54.390300000000025 125.97849999999994L55.05230000000006 126.35099999999989L56.21530000000007 126.25999999999999L57.20180000000005 126.9097999999999L57.462099999999964 127.21039999999994L57.56920000000014 127.59359999999992L57.51999999999998 128.37290000000007L56.423500000000104 130.0286000000001L56.33069999999998 130.77749999999992L55.59879999999998 133.04279999999994L56.32860000000005 133.9357L57.109100000000126 133.82089999999994L59.259900000000016 134.7573L60.3755000000001 134.3551L61.93579999999997 134.4308000000001L62.49270000000001 134.94959999999992L62.53480000000013 135.7177999999999L64.0616 135.29989999999998L64.85069999999996 134.3868L65.91470000000004 133.8690999999999L66.35989999999993 133.19959999999992L68.33490000000006 131.84580000000005L69.13310000000001 131.8098L70.45479999999998 132.6869999999999L70.02040000000011 130.8873000000001L70.46420000000012 128.2283L71.02500000000009 127.2170000000001L71.63190000000009 124.70479999999998L71.36380000000008 123.62110000000007L71.41440000000011 121.66689999999994L73.64969999999994 117.95229999999992L73.78179999999998 117.73019999999997L75.12249999999995 116.29169999999999L78.50559999999996 110.9994999999999L82.95150000000012 104.6534999999999L83.54330000000004 100.2068999999999L83.38509999999997 98.58709999999996L83.75569999999993 94.11789999999996L83.279 91.3243L83.28600000000006 88.8744999999999L83.45090000000005 87.64570000000003L83.84730000000013 84.13400000000001L83.32439999999997 82.23540000000003L82.37799999999993 78.85770000000002L82.19810000000007 77.86069999999995L81.74890000000005 75.38040000000001L81.53539999999998 73.0601999999999L81.75849999999991 71.33699999999999L82.01170000000002 69.26299999999992L82.45010000000002 67.42810000000009L82.23680000000013 65.85310000000004L82.30160000000001 63.9674L81.82709999999997 62.5299L81.43319999999994 61.04279999999994L81.27700000000004 59.63550000000009L81.68200000000002 56.43859999999995L81.57639999999992 56.38719999999989L80.89509999999996 56.378400000000056L79.53070000000002 55.071699999999964L78.74669999999992 54.97350000000006L76.4326000000001 55.17769999999996L74.80880000000002 56.23520000000008L74.18070000000012 56.413499999999885L73.57069999999999 57.20920000000001L72.67419999999993 57.503799999999956L72.5576000000001 56.911800000000085L71.84230000000002 56.77320000000009L71.33390000000009 56.255300000000034L70.327 56.646400000000085L69.52140000000009 56.58590000000004L68.17689999999993 55.30529999999999L67.85290000000009 53.79320000000007L68.14800000000014 52.66709999999989L67.43499999999995 52.73829999999998L65.47029999999995 53.34210000000007L63.57320000000004 53.999700000000075L61.28530000000001 53.13850000000002L60.87699999999995 53.45010000000002L56.86159999999995 52.59590000000003L55.70499999999993 53.459299999999985L55.41730000000007 53.71530000000007L55.5630000000001 54.44569999999999L55.113000000000056 55.89650000000006L55.100400000000036 57.005300000000034L53.656600000000026 57.23630000000003L52.646200000000135 58.38969999999995L51.18270000000007 57.975999999999885L48.08269999999993 54.41730000000007L47.45479999999998 53.41229999999996L47.376199999999926 52.246000000000095L47.022500000000036 52.061300000000074L47.63589999999999 51.06330000000003L46.96219999999994 49.2650000000001L47.74160000000006 47.49350000000004L47.72230000000013 46.71199999999999L44.87130000000002 43.41159999999991L44.45060000000012 42.28279999999995L45.35550000000012 41.15989999999988L44.2799 40.738599999999906L43.35799999999995 38.574800000000096L42.04220000000009 37.7974999999999L41.54919999999993 36.7331999999999L41.20209999999997 36.909799999999905L40.97019999999998 38.47270000000003L41.26340000000005 40.40820000000008L40.32639999999992 41.11770000000001L38.803300000000036 41.496599999999944L37.755499999999984 42.6708000000001L37.099500000000035 42.91650000000004L36.52539999999999 42.50690000000009L36.2826 42.76440000000002L34.587099999999964 43.043499999999995L31.873100000000022 43.71250000000009L31.19769999999994 43.47379999999998L30.779700000000048 42.888999999999896L29.823699999999917 43.193899999999985L28.264000000000124 44.315000000000055L26.279999999999973 44.42439999999988L25.65560000000005 45.84400000000005L24.989299999999957 46.61670000000004L23.58140000000003 46.28269999999998L23.297000000000025 46.52279999999996z">
      <title id="t125">Deuxième circonscription de Haute-Corse</title>
      <desc id="d125">Cantons de : Alto-di-Casaconi, Belgodère, Bustanico, Calenzana, Calvi, Campoloro-di-Moriani, Castifao-Morosaglia, Corte, Fiumalto-d'Ampugnani, Ghisoni, l'Ile-Rousse, Moïta-Verde, Niolu-Omessa, Orezza-Alesani, Prunelli-di-Fiumorbo, Venaco, Vescovato, Vezzani.</desc>
    </path></svg>