<svg xmlns="http://www.w3.org/2000/svg" version="1.1" xmlns:xlink="http://www.w3.org/1999/xlink" xmlns:svgjs="http://svgjs.dev/svgjs" viewBox="934.23683 992.39418 134.47747000000004 118.04611999999997"><path class="circo" id="id-030-01" d="M 1036.8972,1073.2432 1035.3583,1069.0663 1035.3396,1068.2399 1035.5306,1066.9879 1035.0775,1066.9128 1033.8447,1065.8994 1033.519,1064.7298 1032.4277,1063.629 1031.3365,1063.6809 1030.8201,1064.7282 1029.5113,1065.1352 1029.2071,1065.4991 1028.6203,1065.6923 1028.1503,1066.4691 1028.2459,1066.9216 1030.6967,1068.9649 1028.2939,1070.997 1028.5637,1071.4655 1027.0352,1072.4293 1024.768,1068.9423 1026.115,1068.0305 1025.5774,1067.0931 1026.5415,1066.7047 1026.9293,1067.5346 1027.4076,1066.5863 1026.694,1064.8649 1025.6171,1064.0486 1025.1122,1063.2916 1022.9105,1060.6042 1021.5406,1059.6971 1020.9895,1058.1455 1019.8042,1058.0848 1018.6371,1059.2159 1018.0018,1059.4511 1017.9727,1060.2235 1017.0625,1061.8766 1017.1817,1063.7959 1020.3652,1064.3815 1021.3725,1065.0419 1021.2814,1065.8338 1022.3229,1068.4523 1021.0099,1068.5643 1020.1617,1069.2768 1020.3033,1070.7164 1023.1998,1074.4589 1023.7466,1073.9511 1024.079,1074.1505 1025.9514,1076.6014 1026.0389,1075.6137 1028.0259,1076.0653 1029.5964,1077.3275 1030.3764,1077.3741 1031.22,1076.5706 1031.6693,1075.4623 1031.2808,1073.9161 1032.3406,1073.5717 1034.3803,1076.8871 1034.8208,1079.575 1035.3962,1080.5805 1036.3426,1081.249 1038.2049,1082.4353 1039.3835,1082.0587 1041.4577,1082.0002 1042.572,1081.4726 1044.4241,1082.3715 1046.0559,1082.657 1047.7081,1083.8648 1049.7437,1083.8207 1050.1395,1083.6956 1050.1502,1083.2789 1049.0761,1081.0399 1048.9029,1079.3892 1050.2495,1075.5117 1052.2624,1072.3751 1052.486,1069.4543 1051.512,1066.75 1053.527,1064.9699 1053.0937,1064.355 1051.5501,1064.4053 1051.8579,1063.6807 1051.4219,1062.5817 1051.1019,1061.0222 1051.2502,1059.8374 1050.1719,1060.209 1049.8561,1060.903 1049.2349,1062.6309 1048.412,1063.3632 1049.0439,1063.7009 1049.166,1064.8165 1048.8251,1064.9961 1049.6882,1065.747 1049.7004,1066.1322 1047.4989,1066.0182 1045.5101,1065.5613 1043.7979,1064.4156 1043.5826,1064.3986 1042.3976,1064.0061 1042.2528,1065.5903 1041.2994,1067.3441 1042.3502,1069.5648 1042.7232,1070.6459 1041.6673,1071.9957 1037.5735,1072.7621 1036.8972,1073.2432 z">
      <title id="t126">Première circonscription du Gard</title>
      <desc id="d126">Cantons de : Beaucaire, Nîmes I, Nîmes III, Nîmes VI, La Vistrenque</desc>
    </path><path class="circo" id="id-030-02" d="M 1003.9554,1095.4149 1003.2054,1095.3866 1003.2439,1095.3407 1003.9724,1095.0169 1005.3488,1095.7763 1007.3027,1095.4143 1009.6267,1095.7426 1009.5762,1094.504 1011.313,1092.7793 1013.2555,1089.1322 1013.333,1087.9715 1010.7666,1083.4597 1010.825,1083.1431 1011.0167,1082.4393 1009.9384,1080.5355 1009.1866,1078.4848 1008.8861,1077.8123 1008.2044,1077.523 1007.2722,1077.9342 1006.353,1077.5749 1005.2933,1076.4672 1004.7307,1075.9447 1004.6019,1074.7959 1003.9865,1074.3351 1002.5743,1074.713 1002.2628,1074.0118 1001.2575,1073.5629 1001.277,1073.1234 1001.3736,1072.2941 999.53753,1070.6589 996.97203,1068.9955 997.56953,1068.4455 998.38073,1066.8219 998.00593,1066.2158 998.98593,1065.6176 1000.6705,1067.2316 1000.8586,1067.0761 1000.4715,1066.3806 1001.1132,1063.7276 1001.4634,1063.396 1002.7215,1064.4209 1004.2063,1063.9904 1005.2075,1066.131 1006.3037,1065.6596 1007.1049,1065.7314 1007.7858,1066.1623 1007.7937,1066.5664 1008.4527,1065.9438 1009.9599,1066.2341 1010.5183,1066.7057 1010.258,1068.1749 1012.6223,1068.4094 1014.5751,1069.6403 1015.0001,1069.2725 1016.2166,1068.7549 1017.2373,1068.2748 1017.4198,1068.6286 1018.5693,1068.4306 1019.1749,1068.9502 1020.6547,1068.3815 1021.0099,1068.5643 1020.1617,1069.2768 1020.3033,1070.7164 1023.1998,1074.4589 1023.7466,1073.9511 1024.079,1074.1505 1025.9514,1076.6014 1026.0389,1075.6137 1028.0259,1076.0653 1029.5964,1077.3275 1030.3764,1077.3741 1031.22,1076.5706 1031.6693,1075.4623 1031.2808,1073.9161 1032.3406,1073.5717 1034.3803,1076.8871 1034.8208,1079.575 1035.3962,1080.5805 1036.3426,1081.249 1038.2049,1082.4353 1037.3591,1083.8593 1037.4592,1085.4976 1035.2394,1086.4927 1033.1473,1091.0148 1033.2838,1091.7961 1034.1337,1092.715 1034.9399,1092.8428 1036.4803,1092.2618 1037.1172,1092.7787 1037.1655,1093.5804 1036.0329,1095.2851 1035.015,1095.9918 1033.0184,1095.835 1031.4471,1097.0928 1032.0961,1097.5753 1031.552,1098.5896 1029.9568,1098.6235 1028.4933,1099.9783 1026.9191,1100.2202 1026.4798,1100.8215 1025.1147,1101.5887 1023.8327,1100.6585 1023.6991,1100.2837 1024.2366,1099.7102 1023.933,1099.056 1023.1396,1100.3505 1024.1348,1102.5374 1021.7861,1104.0933 1017.6184,1105.6048 1017.0829,1106.1183 1017.2039,1106.5104 1016.546,1108.0108 1016.4326,1110.4403 1010.784,1109.0013 1007.9561,1107.2872 1006.894,1105.06 1007.3768,1103.467 1008.4306,1102.8376 1008.4966,1102.0452 1007.6147,1100.6293 1005.4468,1099.4019 1006.0988,1097.7518 1003.9554,1095.4149 z">
      <title id="t127">Deuxième circonscription du Gard</title>
      <desc id="d127">Cantons de : Aigues-Mortes, Rhôny-Vidourle, Saint-Gilles, Sommières, Vauvert</desc>
    </path><path class="circo" id="id-030-03" d="M 1051.1019,1061.0222 1051.2502,1059.8374 1050.1719,1060.209 1049.8561,1060.903 1049.2349,1062.6309 1048.412,1063.3632 1049.0439,1063.7009 1049.166,1064.8165 1048.8251,1064.9961 1049.6882,1065.747 1049.7004,1066.1322 1047.4989,1066.0182 1045.5101,1065.5613 1043.7979,1064.4156 1043.5826,1064.3986 1042.3976,1064.0061 1041.3591,1063.4691 1041.1697,1062.4288 1041.4202,1061.3903 1042.1963,1061.2397 1042.7365,1060.2227 1043.4803,1060.0039 1043.3701,1058.8719 1043.1726,1058.5325 1042.4144,1058.3945 1042.0582,1057.2757 1041.2729,1056.0665 1041.3261,1054.509 1040.1813,1054.352 1039.2363,1053.656 1038.9339,1053.9075 1038.3491,1056.5768 1037.5758,1056.4357 1036.5436,1055.3063 1034.5879,1055.2628 1034.5244,1052.9389 1034.8102,1051.7867 1035.4879,1050.8743 1035.6789,1049.7627 1037.0881,1049.4742 1037.4762,1047.5864 1038.6414,1047.1691 1038.7276,1046.9272 1040.6155,1047.3664 1041.6547,1046.9621 1041.7671,1047.3376 1042.1577,1047.3111 1042.1797,1045.683 1042.689,1045.8834 1043.2421,1045.2995 1045.0601,1044.5098 1044.4816,1043.4661 1043.6883,1043.5227 1043.4085,1043.2395 1044.3216,1041.0296 1044.3961,1039.8343 1043.8797,1039.2725 1043.9004,1038.4901 1043.1616,1038.7642 1042.7693,1038.6895 1042.7697,1038.289 1040.9575,1037.815 1041.3489,1037.1088 1041.6181,1034.7095 1039.1256,1034.3824 1039.0891,1033.6196 1038.4427,1033.2557 1038.0298,1032.9035 1038.448,1032.0139 1039.5039,1031.8485 1039.8148,1031.1967 1039.3007,1030.5717 1039.2815,1029.7865 1040.7897,1028.4449 1041.4248,1027.5303 1041.7826,1026.065 1039.7116,1026.1649 1039.2772,1025.2443 1039.3974,1024.5614 1039.9989,1023.527 1040.1685,1022.3294 1040.8837,1022.0922 1041.9959,1022.8419 1043.4192,1020.9373 1043.9452,1018.5906 1044.7385,1018.4141 1044.2965,1019.5621 1044.4882,1020.3657 1044.9536,1021.0456 1046.1511,1021.3471 1046.3568,1021.7057 1047.9418,1021.7751 1048.127,1022.347 1051.2169,1021.6153 1051.8858,1021.2714 1054.1205,1021.5216 1054.8205,1021.8738 1056.3542,1021.3559 1057.0903,1021.6654 1057.2349,1022.4555 1056.686,1023.5431 1057.0665,1024.2472 1058.1547,1024.6872 1058.0652,1025.8708 1057.741,1026.106 1057.8299,1027.304 1057.8147,1027.7111 1057.9513,1028.9098 1057.901,1030.2962 1056.7917,1034.145 1057.7864,1035.7289 1058.0368,1036.8189 1058.3328,1037.5562 1058.7243,1037.6628 1060.4686,1036.6446 1061.2661,1036.5409 1061.4628,1037.6756 1061.7052,1038.0868 1063.7385,1039.3309 1063.7897,1040.4469 1064.5084,1041.2758 1065.5199,1042.2379 1066.0198,1042.9158 1066.5846,1044.9285 1067.8263,1045.1116 1068.4516,1045.6274 1068.525,1046.8898 1068.7143,1047.4601 1068.34,1048.6032 1065.9621,1048.3566 1065.7251,1049.5486 1066.0813,1051.1123 1064.1783,1052.5771 1062.9293,1054.2386 1060.5631,1055.0334 1059.6799,1055.9063 1059.3778,1056.7983 1058.2795,1058.0402 1056.8226,1058.8134 1056.7538,1059.0573 1057.1523,1058.9799 1055.8163,1060.4894 1053.63,1061.5307 1053.1656,1062.1865 1053.0697,1061.8172 1052.6908,1061.7805 1051.4219,1062.5817 1051.1019,1061.0222 z">
      <title id="t128">Troisième circonscription du Gard</title>
      <desc id="d128">Cantons de : Aramon, Bagnols-sur-Cèze, Remoulins, Roquemaure, Villeneuve-lès-Avignon</desc>
    </path><path class="circo" id="id-030-04" d="M 1003.1675,1021.0151 1004.1576,1020.4265 1004.4866,1020.4075 1004.4169,1019.7488 1003.7133,1019.3771 1003.574,1018.588 1002.9604,1018.0745 1001.8349,1017.7826 1002.4778,1016.7593 1001.9593,1014.3717 1003.5816,1014.5092 1005.0862,1015.8346 1006.2028,1015.6367 1006.8031,1017.0148 1007.4576,1017.4108 1007.9045,1017.1972 1007.4622,1016.63 1007.8997,1014.6274 1008.5057,1014.2493 1008.4247,1013.439 1009.3869,1012.6812 1008.5809,1011.8303 1008.6225,1010.4217 1009.0021,1009.8133 1010.603,1009.9555 1011.9877,1009.2917 1012.7177,1011.4307 1015.2512,1012.7009 1016.753,1014.3608 1017.6953,1015.1899 1018.8652,1015.6231 1020.1294,1014.7534 1021.4234,1012.3319 1021.3706,1009.6152 1022.5383,1009.6387 1023.8971,1008.8152 1024.8456,1007.5529 1024.5493,1006.846 1028.3234,1006.6303 1029.7582,1005.808 1030.4851,1006.1333 1031.0585,1007.2402 1030.9822,1008.053 1030.1444,1010.8339 1030.2905,1012.0405 1031.1624,1012.8033 1033.5776,1012.6244 1033.8857,1013.3795 1034.2949,1013.3678 1035.3821,1011.6525 1035.0034,1011.7899 1035.1999,1007.3485 1035.5631,1006.6148 1036.3638,1006.4477 1037.9065,1006.8607 1039.8775,1006.6168 1040.3804,1007.1935 1040.6114,1007.9405 1041.4134,1007.9816 1042.0072,1008.5366 1043.5337,1008.4873 1043.418,1008.6819 1043.2379,1009.0581 1044.2186,1010.9041 1045.3092,1011.4765 1045.6727,1011.3106 1047.7727,1012.3783 1048.324,1012.4633 1049.2726,1014.0125 1050.6372,1013.1812 1052.0436,1014.9186 1052.2353,1016.2489 1054.4352,1019.1179 1054.0589,1021.06 1054.1205,1021.5216 1051.8858,1021.2714 1051.2169,1021.6153 1048.127,1022.347 1047.9418,1021.7751 1046.3568,1021.7057 1046.1511,1021.3471 1044.9536,1021.0456 1044.4882,1020.3657 1044.2965,1019.5621 1044.7385,1018.4141 1043.9452,1018.5906 1043.4192,1020.9373 1041.9959,1022.8419 1040.8837,1022.0922 1040.1685,1022.3294 1039.9989,1023.527 1039.3974,1024.5614 1039.2772,1025.2443 1039.7116,1026.1649 1041.7826,1026.065 1041.4248,1027.5303 1040.7897,1028.4449 1039.2815,1029.7865 1039.3007,1030.5717 1039.8148,1031.1967 1039.5039,1031.8485 1038.448,1032.0139 1038.0298,1032.9035 1038.4427,1033.2557 1039.0891,1033.6196 1039.1256,1034.3824 1041.6181,1034.7095 1041.3489,1037.1088 1040.9575,1037.815 1040.1637,1037.8093 1039.903,1038.1164 1038.7312,1037.4464 1036.7975,1037.7147 1035.1227,1037.6505 1034.1488,1037.7381 1033.1613,1036.6368 1031.7138,1037.8623 1030.2539,1037.4103 1029.5393,1038.336 1027.7242,1039.0881 1026.3545,1039.0709 1025.5448,1037.6246 1023.6208,1036.0061 1020.2207,1034.7248 1020.1143,1037.117 1019.5297,1038.1663 1021.7149,1039.139 1021.722,1041.1152 1023.2939,1041.7065 1022.858,1043.2447 1023.0553,1044.013 1023.4817,1044.1371 1023.7575,1043.4278 1025.681,1044.569 1025.8515,1047.7824 1026.4788,1048.2865 1027.1709,1049.7658 1026.1676,1050.261 1025.7464,1051.235 1026.7016,1052.495 1027.7367,1053.0919 1029.1929,1052.5339 1029.8496,1052.8898 1029.4903,1053.9462 1029.7986,1054.6602 1030.099,1054.913 1031.6264,1054.8691 1030.6206,1056.315 1030.2347,1056.1701 1029.2274,1056.8109 1030.0303,1057.7447 1030.1018,1058.1314 1029.7785,1058.3455 1026.5148,1057.9235 1025.0638,1059.1953 1023.4605,1059.0919 1021.0472,1057.781 1020.9895,1058.1455 1019.8042,1058.0848 1018.6371,1059.2159 1018.0018,1059.4511 1018.0409,1059.0557 1017.3854,1058.6143 1017.0316,1057.4895 1016.0011,1056.3136 1015.3455,1056.7495 1015.0317,1056.5088 1015.7423,1055.7285 1013.7173,1055.7281 1011.8613,1055.0405 1011.8188,1054.7679 1011.8706,1053.9134 1012.4277,1052.1992 1012.5219,1051.7808 1012.8105,1051.1814 1014.1253,1050.2541 1014.9089,1050.2141 1013.6392,1048.1447 1014.2386,1047.0552 1013.0658,1046.813 1011.4871,1044.9777 1011.8305,1044.7668 1010.8145,1044.2144 1009.9619,1045.0923 1009.3368,1045.5747 1008.5538,1045.4655 1009.1927,1043.6596 1008.6378,1043.162 1007.5468,1043.2198 1006.7245,1042.4972 1005.7444,1040.4492 1006.2602,1038.2449 1005.0799,1035.0338 1005.1934,1034.6857 1004.8693,1033.7831 1004.9907,1033.2211 1004.6365,1032.6051 1003.4157,1032.6901 1002.9538,1032.2206 1003.0246,1031.392 1003.566,1030.8226 1003.5097,1030.1486 1003.146,1029.7094 1002.826,1030.0582 1002.0937,1030.3117 1001.8743,1027.9744 1001.378,1027.4014 1001.0859,1026.6689 1001.731,1025.3236 1002.6023,1024.66 1004.1347,1024.7333 1003.9382,1022.7754 1003.1675,1021.0151 z">
      <title id="t129">Quatrième circonscription du Gard</title>
      <desc id="d129">Cantons de : Alès Nord-Est, Alès Sud-Est, Barjac, Lussan, Pont-Saint-Esprit, Saint-Ambroix, Saint-Chaptes, Vézénobres</desc>
    </path><path class="circo" id="id-030-05" d="M 1001.0859,1026.6689 1001.731,1025.3236 1002.6023,1024.66 1004.1347,1024.7333 1003.9382,1022.7754 1003.1675,1021.0151 1004.1576,1020.4265 1004.4866,1020.4075 1004.4169,1019.7488 1003.7133,1019.3771 1003.574,1018.588 1002.9604,1018.0745 1001.8349,1017.7826 1002.4778,1016.7593 1001.9593,1014.3717 1003.5816,1014.5092 1005.0862,1015.8346 1006.2028,1015.6367 1006.8031,1017.0148 1007.4576,1017.4108 1007.9045,1017.1972 1007.4622,1016.63 1007.8997,1014.6274 1008.5057,1014.2493 1008.4247,1013.439 1009.3869,1012.6812 1008.5809,1011.8303 1008.6225,1010.4217 1009.0021,1009.8133 1008.8999,1008.553 1007.6322,1006.9161 1006.8707,1007.8424 1006.159,1007.735 1005.6864,1007.371 1003.1348,1007.9509 1001.9704,1009.0037 1001.2316,1009.3413 1000.9431,1009.1483 999.89315,1007.8529 1001.2152,1007.0371 1001.4207,1004.4128 1001.7107,1003.7766 1001.2845,1002.7796 1001.3614,1002.0462 1000.5768,1001.3495 1000.4615,1000.2171 1000.7963,1000.0042 1001.9117,1000.2365 1002.6756,998.91009 1001.5157,997.75254 1000.0722,997.02301 1000.7187,995.52601 1000.0119,994.04296 998.88753,994.00141 998.14003,993.14705 996.70193,992.39418 994.81463,994.41706 994.56673,996.33234 994.45413,996.37269 993.58403,997.76337 992.54343,998.36037 992.54953,999.18196 992.21163,999.40933 989.84923,998.87892 988.90263,999.4217 988.39313,1000.3904 987.91493,1000.687 987.39683,1000.3492 987.15223,1000.9429 989.31893,1003.0415 990.48393,1005.1357 990.48353,1005.8987 991.55683,1007.1151 992.68853,1007.4293 992.50753,1008.5663 992.44493,1008.1848 992.07273,1009.2744 990.30083,1010.7784 990.47803,1011.3012 991.40603,1012.1171 991.76043,1013.3143 991.27363,1014.3143 992.33283,1015.3303 993.33653,1014.8467 994.24443,1015.5834 994.70753,1016.1938 994.40343,1017.2883 993.01093,1017.3845 992.30473,1018.3982 992.68643,1021.2656 992.37463,1021.3707 991.63453,1023.6643 991.85493,1023.9999 993.36623,1024.35 993.96373,1026.631 994.64003,1026.5284 994.65793,1027.4939 990.77583,1025.4329 990.37223,1025.4772 990.67623,1027.8533 990.03483,1028.1668 989.34393,1027.9924 989.26023,1029.1613 987.87473,1029.5271 986.03983,1031.7187 982.58763,1030.6921 981.95033,1030.7824 981.57883,1031.271 980.77843,1031.7317 979.60213,1031.87 977.56533,1030.1867 976.84303,1030.0527 976.42553,1029.0507 976.05493,1029.0247 974.33213,1028.3482 973.53543,1027.5037 971.67843,1027.2693 970.71333,1026.6591 970.03163,1025.7068 970.08503,1025.319 968.89673,1025.139 968.63413,1025.8996 967.95023,1026.3131 967.07743,1025.5367 966.06223,1026.1782 965.45333,1028.1411 965.65573,1028.8871 966.73053,1029.4834 966.86653,1029.8683 965.90443,1030.5983 965.64843,1032.6002 963.38133,1033.2303 960.30593,1032.4698 959.89863,1032.3837 958.12323,1033.4114 957.17153,1032.6429 954.79543,1032.0112 952.74413,1032.2414 949.14013,1031.5168 948.64853,1030.8766 948.27643,1029.35 945.59643,1027.6873 945.22053,1026.9772 943.61663,1026.7315 940.47443,1028.2287 939.92563,1030.12 939.08653,1030.8564 939.36163,1031.915 939.38363,1034.0571 938.25743,1034.5 936.62863,1034.5237 934.23683,1035.9939 935.22083,1036.5981 937.01203,1038.728 937.82053,1038.761 939.31643,1037.4977 939.52233,1037.7679 939.81383,1037.5945 940.16583,1038.1945 940.55703,1040.0221 941.42583,1040.7445 941.75363,1040.9982 943.10623,1040.057 943.55073,1040.7255 944.72223,1040.4416 945.84483,1041.6425 947.38493,1042.2284 949.66253,1044.0179 950.08353,1044.1884 950.19013,1044.2753 949.55863,1046.663 947.43163,1047.8498 946.33393,1050.5211 943.94483,1050.8493 943.80463,1052.0591 942.38313,1052.824 941.74113,1054.3075 942.31703,1057.1141 942.62603,1057.3502 943.21353,1056.8474 944.26763,1057.2848 945.38193,1057.475 946.00333,1057.0088 947.89013,1057.4116 948.89783,1058.7029 949.00423,1060.3053 948.49233,1061.853 947.69323,1062.011 948.84713,1063.1145 949.86183,1062.4178 951.02873,1062.121 952.83383,1059.8723 953.64153,1059.7733 955.34993,1059.2609 956.35683,1060.4224 956.19673,1062.8801 956.93963,1063.8824 958.49933,1064.4426 959.59323,1064.0143 961.06423,1065.4008 961.64933,1064.8928 962.81243,1064.6852 962.84613,1064.2918 960.89183,1062.9394 961.40853,1061.4078 962.66313,1060.3835 963.04483,1059.2899 964.86223,1056.7429 966.06673,1056.9873 965.85473,1058.6102 966.09583,1058.8797 966.70653,1058.4642 966.64893,1057.2118 968.16583,1057.4167 968.94253,1057.5454 969.54273,1055.6665 969.36603,1054.9225 969.96823,1053.9514 970.46503,1054.0333 970.03873,1052.6493 971.31003,1051.873 971.83783,1051.4633 972.82523,1051.5488 974.00393,1050.4031 978.78123,1050.8532 978.75963,1052.3919 979.47663,1053.7571 981.58373,1053.7416 982.06623,1054.3798 982.26203,1055.9073 981.89793,1056.6161 979.81863,1059.8288 980.32233,1061.2711 981.75833,1061.8028 982.47643,1062.706 983.14123,1062.2366 983.93433,1062.4319 984.71253,1061.5574 988.36563,1061.2554 989.57823,1060.2026 990.01993,1060.8722 989.86493,1062.4814 990.32233,1063.6062 991.57953,1064.2205 993.37233,1064.2283 993.29983,1065.3338 995.11783,1065.5047 994.62573,1066.1604 994.66523,1067.3274 993.63533,1068.6009 993.46843,1069.8211 994.67753,1070.3595 996.48453,1069.3677 996.97203,1068.9955 997.56953,1068.4455 998.38073,1066.8219 998.00593,1066.2158 998.98593,1065.6176 1000.6705,1067.2316 1000.8586,1067.0761 1000.4715,1066.3806 1001.1132,1063.7276 1001.4634,1063.396 1002.7215,1064.4209 1004.2063,1063.9904 1005.2075,1066.131 1006.3037,1065.6596 1007.1049,1065.7314 1007.7858,1066.1623 1007.7937,1066.5664 1008.4527,1065.9438 1009.9599,1066.2341 1010.5183,1066.7057 1010.258,1068.1749 1012.6223,1068.4094 1014.5751,1069.6403 1015.0001,1069.2725 1016.2166,1068.7549 1017.2373,1068.2748 1017.4198,1068.6286 1018.5693,1068.4306 1019.1749,1068.9502 1020.6547,1068.3815 1021.0099,1068.5643 1022.3229,1068.4523 1021.2814,1065.8338 1021.3725,1065.0419 1020.3652,1064.3815 1017.1817,1063.7959 1017.0625,1061.8766 1017.9727,1060.2235 1018.0018,1059.4511 1018.0409,1059.0557 1017.3854,1058.6143 1017.0316,1057.4895 1016.0011,1056.3136 1015.3455,1056.7495 1015.0317,1056.5088 1015.7423,1055.7285 1013.7173,1055.7281 1011.8613,1055.0405 1011.8188,1054.7679 1011.8706,1053.9134 1012.4277,1052.1992 1012.5219,1051.7808 1012.8105,1051.1814 1014.1253,1050.2541 1014.9089,1050.2141 1013.6392,1048.1447 1014.2386,1047.0552 1013.0658,1046.813 1011.4871,1044.9777 1011.8305,1044.7668 1010.8145,1044.2144 1009.9619,1045.0923 1009.3368,1045.5747 1008.5538,1045.4655 1009.1927,1043.6596 1008.6378,1043.162 1007.5468,1043.2198 1006.7245,1042.4972 1005.7444,1040.4492 1006.2602,1038.2449 1005.0799,1035.0338 1005.1934,1034.6857 1004.8693,1033.7831 1004.9907,1033.2211 1004.6365,1032.6051 1003.4157,1032.6901 1002.9538,1032.2206 1003.0246,1031.392 1003.566,1030.8226 1003.5097,1030.1486 1003.146,1029.7094 1002.826,1030.0582 1002.0937,1030.3117 1001.8743,1027.9744 1001.378,1027.4014 1001.0859,1026.6689 z">
      <title id="t130">Cinquième circonscription du Gard</title>
      <desc id="d130">Cantons de : Alès Ouest, Alzon, Anduze, Bessèges, Génolhac, La Grand-Combe, Lasalle, Lédignan, Quissac, Saint-André-de-Valborgne, Saint-Hippolyte-du-Fort, Saint-Jean-du-Gard, Saint-Mamert-du-Gard, Sauve, Sumène, Trèves, Valleraugue, Le Vigan</desc>
    </path><path class="circo" id="id-030-06" d="M 1041.1697,1062.4288 1041.4202,1061.3903 1042.1963,1061.2397 1042.7365,1060.2227 1043.4803,1060.0039 1043.3701,1058.8719 1043.1726,1058.5325 1042.4144,1058.3945 1042.0582,1057.2757 1041.2729,1056.0665 1041.3261,1054.509 1040.1813,1054.352 1039.2363,1053.656 1038.9339,1053.9075 1038.3491,1056.5768 1037.5758,1056.4357 1036.5436,1055.3063 1034.5879,1055.2628 1034.5244,1052.9389 1034.8102,1051.7867 1035.4879,1050.8743 1035.6789,1049.7627 1037.0881,1049.4742 1037.4762,1047.5864 1038.6414,1047.1691 1038.7276,1046.9272 1040.6155,1047.3664 1041.6547,1046.9621 1041.7671,1047.3376 1042.1577,1047.3111 1042.1797,1045.683 1042.689,1045.8834 1043.2421,1045.2995 1045.0601,1044.5098 1044.4816,1043.4661 1043.6883,1043.5227 1043.4085,1043.2395 1044.3216,1041.0296 1044.3961,1039.8343 1043.8797,1039.2725 1043.9004,1038.4901 1043.1616,1038.7642 1042.7693,1038.6895 1042.7697,1038.289 1040.9575,1037.815 1040.1637,1037.8093 1039.903,1038.1164 1038.7312,1037.4464 1036.7975,1037.7147 1035.1227,1037.6505 1034.1488,1037.7381 1033.1613,1036.6368 1031.7138,1037.8623 1030.2539,1037.4103 1029.5393,1038.336 1027.7242,1039.0881 1026.3545,1039.0709 1025.5448,1037.6246 1023.6208,1036.0061 1020.2207,1034.7248 1020.1143,1037.117 1019.5297,1038.1663 1021.7149,1039.139 1021.722,1041.1152 1023.2939,1041.7065 1022.858,1043.2447 1023.0553,1044.013 1023.4817,1044.1371 1023.7575,1043.4278 1025.681,1044.569 1025.8515,1047.7824 1026.4788,1048.2865 1027.1709,1049.7658 1026.1676,1050.261 1025.7464,1051.235 1026.7016,1052.495 1027.7367,1053.0919 1029.1929,1052.5339 1029.8496,1052.8898 1029.4903,1053.9462 1029.7986,1054.6602 1030.099,1054.913 1031.6264,1054.8691 1030.6206,1056.315 1030.2347,1056.1701 1029.2274,1056.8109 1030.0303,1057.7447 1030.1018,1058.1314 1029.7785,1058.3455 1026.5148,1057.9235 1025.0638,1059.1953 1023.4605,1059.0919 1021.0472,1057.781 1020.9895,1058.1455 1021.5406,1059.6971 1022.9105,1060.6042 1025.1122,1063.2916 1025.6171,1064.0486 1026.694,1064.8649 1027.4076,1066.5863 1026.9293,1067.5346 1026.5415,1066.7047 1025.5774,1067.0931 1026.115,1068.0305 1024.768,1068.9423 1027.0352,1072.4293 1028.5637,1071.4655 1028.2939,1070.997 1030.6701,1068.9901 1028.2459,1066.9216 1028.1503,1066.4691 1028.6203,1065.6923 1029.2071,1065.4991 1029.5113,1065.1352 1030.8201,1064.7282 1031.3365,1063.6809 1032.4277,1063.629 1033.519,1064.7298 1033.8447,1065.8994 1035.0775,1066.9128 1035.5306,1066.9879 1035.3396,1068.2399 1035.3583,1069.0663 1036.8972,1073.2432 1037.5735,1072.7621 1041.6673,1071.9957 1042.7232,1070.6459 1042.3502,1069.5648 1041.2994,1067.3441 1042.2528,1065.5903 1042.3976,1064.0061 1041.3591,1063.4691 1041.1697,1062.4288 z">
      <title id="t131">Sixième circonscription du Gard</title>
      <desc id="d131">Cantons de : Marguerittes, Nîmes II, Nîmes IV, Nîmes V, Uzès</desc>
    </path></svg>