<svg xmlns="http://www.w3.org/2000/svg" version="1.1" xmlns:xlink="http://www.w3.org/1999/xlink" xmlns:svgjs="http://svgjs.dev/svgjs" viewBox="0 0 134.47747000000004 118.04611999999997"><path class="circo" id="id-030-01" d="M102.66037000000006 80.84901999999988L101.12147000000004 76.67211999999995L101.10276999999996 75.84572000000003L101.29377 74.59372000000008L100.84067000000005 74.51862000000006L99.60787000000005 73.50522000000001L99.28216999999995 72.33562000000006L98.1908699999999 71.2348199999999L97.09966999999983 71.28672000000006L96.58326999999986 72.33402000000001L95.27446999999984 72.74101999999993L94.97027000000003 73.10491999999999L94.38346999999999 73.29811999999993L93.91346999999996 74.07492000000002L94.00906999999984 74.52741999999989L96.45986999999991 76.57071999999994L94.05706999999984 78.60282000000007L94.32686999999987 79.07132000000001L92.79836999999998 80.03512L90.53116999999997 76.54811999999993L91.87816999999995 75.63632000000007L91.34056999999984 74.69892000000004L92.30466999999999 74.31052L92.69246999999996 75.14041999999995L93.17076999999995 74.19211999999993L92.4571699999999 72.47072000000003L91.38026999999988 71.65442000000007L90.87536999999998 70.89742000000001L88.6736699999999 68.21001999999999L87.30376999999999 67.30292000000009L86.75266999999997 65.75132000000008L85.56736999999998 65.69062000000008L84.40026999999998 66.82171999999991L83.76496999999995 67.05691999999999L83.73586999999998 67.82932000000005L82.82566999999995 69.48242000000005L82.94486999999992 71.40172000000007L86.1283699999999 71.98731999999995L87.13566999999989 72.64771999999994L87.04456999999991 73.4396200000001L88.08606999999995 76.05811999999992L86.77306999999996 76.17012L85.92486999999994 76.88262000000009L86.06646999999998 78.32222000000002L88.96296999999993 82.06472000000008L89.50976999999989 81.55691999999999L89.8421699999999 81.75631999999996L91.71456999999987 84.20722L91.80206999999996 83.2195200000001L93.78907000000004 83.67111999999997L95.35956999999985 84.9333200000001L96.13957000000005 84.97991999999999L96.98316999999997 84.17642000000001L97.43246999999997 83.06811999999991L97.04396999999994 81.52191999999991L98.10376999999994 81.17751999999996L100.14346999999998 84.49291999999991L100.58396999999991 87.18082000000004L101.15936999999985 88.18632000000002L102.1057699999999 88.85482000000002L103.9680699999999 90.04112000000009L105.14666999999986 89.66452000000004L107.22086999999988 89.60601999999994L108.33516999999983 89.07842000000005L110.1872699999999 89.97731999999996L111.81907000000001 90.26281999999992L113.47127 91.47062000000005L115.50686999999994 91.42651999999998L115.90266999999994 91.30142000000001L115.91336999999999 90.88472000000002L114.83926999999994 88.64571999999998L114.66606999999999 86.99502000000007L116.01266999999984 83.11752000000001L118.02557000000002 79.98091999999997L118.24917000000005 77.0601200000001L117.27516999999989 74.35582L119.29016999999999 72.57572000000005L118.85686999999984 71.96082000000001L117.31326999999987 72.01111999999989L117.62106999999992 71.28651999999988L117.18507 70.18751999999995L116.86506999999983 68.6280200000001L117.0133699999999 67.44321999999988L115.93507 67.81482000000005L115.61926999999991 68.50882000000001L114.99806999999987 70.2367200000001L114.17516999999998 70.96902L114.80706999999984 71.30672000000004L114.92916999999989 72.4223199999999L114.58826999999997 72.60192000000006L115.45137 73.35282000000007L115.46356999999989 73.73802L113.26207 73.62401999999997L111.27326999999991 73.16712000000007L109.56106999999997 72.02142000000003L109.3457699999999 72.00441999999998L108.16076999999996 71.61192000000005L108.01596999999992 73.19612000000006L107.06257000000005 74.94992000000002L108.11337000000003 77.1706200000001L108.48636999999985 78.25171999999998L107.43047000000001 79.60151999999994L103.33666999999991 80.36791999999991L102.66037000000006 80.84901999999988z">
      <title id="t126">Première circonscription du Gard</title>
      <desc id="d126">Cantons de : Beaucaire, Nîmes I, Nîmes III, Nîmes VI, La Vistrenque</desc>
    </path><path class="circo" id="id-030-02" d="M69.71857 103.02071999999998L68.96857 102.99242000000004L69.00707 102.94651999999996L69.73556999999994 102.62272000000007L71.11196999999993 103.38211999999999L73.0658699999999 103.0201199999999L75.38986999999997 103.34842000000003L75.33936999999992 102.1098199999999L77.07616999999993 100.38511999999992L79.01866999999993 96.73802L79.09616999999992 95.5773200000001L76.52976999999998 91.0655200000001L76.58816999999999 90.74892L76.77986999999996 90.04512L75.70156999999995 88.14131999999995L74.94976999999994 86.09061999999994L74.64927 85.41812000000004L73.96756999999991 85.1288199999999L73.03536999999994 85.54001999999991L72.1161699999999 85.18072000000006L71.05646999999999 84.07302000000004L70.4938699999999 83.55052L70.36506999999995 82.40172000000007L69.74966999999992 81.94092L68.33746999999994 82.31881999999996L68.02596999999992 81.61761999999999L67.02067 81.1687199999999L67.04016999999999 80.72921999999994L67.13676999999996 79.89992000000007L65.30069999999989 78.2647199999999L62.73519999999996 76.60131999999999L63.33269999999993 76.05132000000003L64.14389999999992 74.42771999999991L63.76909999999998 73.82161999999994L64.7491 73.22342000000003L66.43366999999989 74.83742000000007L66.62176999999997 74.68191999999999L66.23466999999994 73.98641999999995L66.87636999999995 71.33341999999993L67.22656999999992 71.00181999999995L68.48466999999994 72.02672000000007L69.96947 71.5962199999999L70.97066999999993 73.73682000000008L72.06687 73.26541999999995L72.86806999999999 73.33721999999989L73.54896999999994 73.76811999999995L73.55686999999989 74.17221999999992L74.21587 73.54962L75.7230699999999 73.83991999999989L76.2814699999999 74.31151999999997L76.02116999999998 75.78071999999997L78.38546999999994 76.01522L80.33826999999997 77.24612000000002L80.76326999999992 76.87832000000003L81.97976999999992 76.3607199999999L83.00046999999995 75.88061999999991L83.18296999999995 76.23442L84.33246999999994 76.03641999999991L84.93806999999993 76.55601999999999L86.41787 75.98731999999995L86.77306999999996 76.17012L85.92486999999994 76.88262000000009L86.06646999999998 78.32222000000002L88.96296999999993 82.06472000000008L89.50976999999989 81.55691999999999L89.8421699999999 81.75631999999996L91.71456999999987 84.20722L91.80206999999996 83.2195200000001L93.78907000000004 83.67111999999997L95.35956999999985 84.9333200000001L96.13957000000005 84.97991999999999L96.98316999999997 84.17642000000001L97.43246999999997 83.06811999999991L97.04396999999994 81.52191999999991L98.10376999999994 81.17751999999996L100.14346999999998 84.49291999999991L100.58396999999991 87.18082000000004L101.15936999999985 88.18632000000002L102.1057699999999 88.85482000000002L103.9680699999999 90.04112000000009L103.12226999999984 91.46512000000007L103.22236999999996 93.10341999999991L101.00256999999988 94.09852000000001L98.91047000000003 98.62061999999992L99.04696999999987 99.40192000000002L99.89687000000004 100.32081999999991L100.70307000000003 100.44861999999989L102.24346999999989 99.86761999999999L102.88036999999986 100.38452000000007L102.92867000000001 101.18622000000005L101.79606999999987 102.89092000000005L100.77817000000005 103.59762L98.78156999999987 103.44082000000003L97.21027000000004 104.69861999999989L97.85926999999992 105.18111999999996L97.31516999999985 106.19542000000001L95.71996999999988 106.22931999999992L94.25647000000004 107.58411999999998L92.68227000000002 107.82601999999997L92.24297000000001 108.42732000000001L90.87787000000003 109.19452000000001L89.59586999999999 108.26432L89.46226999999999 107.88951999999995L89.9997699999999 107.31601999999998L89.69616999999994 106.66182000000003L88.90276999999992 107.95632L89.89796999999999 110.14321999999993L87.54926999999998 111.69912L83.3815699999999 113.21062000000006L82.84606999999994 113.72412000000008L82.96706999999992 114.11621999999988L82.30917 115.61662000000001L82.19576999999992 118.04611999999997L76.54716999999994 116.6071199999999L73.71926999999994 114.89301999999998L72.65716999999995 112.66581999999994L73.13996999999995 111.07282000000009L74.19376999999997 110.44342000000006L74.25976999999989 109.65102000000002L73.37786999999992 108.23512000000005L71.20997 107.00772000000006L71.86196999999993 105.35762L69.71857 103.02071999999998z">
      <title id="t127">Deuxième circonscription du Gard</title>
      <desc id="d127">Cantons de : Aigues-Mortes, Rhôny-Vidourle, Saint-Gilles, Sommières, Vauvert</desc>
    </path><path class="circo" id="id-030-03" d="M116.86506999999983 68.6280200000001L117.0133699999999 67.44321999999988L115.93507 67.81482000000005L115.61926999999991 68.50882000000001L114.99806999999987 70.2367200000001L114.17516999999998 70.96902L114.80706999999984 71.30672000000004L114.92916999999989 72.4223199999999L114.58826999999997 72.60192000000006L115.45137 73.35282000000007L115.46356999999989 73.73802L113.26207 73.62401999999997L111.27326999999991 73.16712000000007L109.56106999999997 72.02142000000003L109.3457699999999 72.00441999999998L108.16076999999996 71.61192000000005L107.12226999999984 71.07492000000002L106.93286999999987 70.0346199999999L107.18336999999997 68.99612000000002L107.95947000000001 68.84552000000008L108.49966999999992 67.82852000000003L109.24346999999989 67.60971999999992L109.13327000000004 66.47772000000009L108.93577000000005 66.13832000000002L108.17756999999983 66.0003200000001L107.82136999999989 64.88151999999991L107.03606999999988 63.6723199999999L107.08926999999994 62.11482000000001L105.94446999999991 61.95782000000008L104.99946999999997 61.26181999999994L104.69706999999994 61.51332000000002L104.11226999999985 64.18262000000004L103.33897000000002 64.04151999999999L102.30676999999991 62.91211999999996L100.35106999999994 62.868619999999964L100.28756999999996 60.5447200000001L100.57336999999984 59.392520000000104L101.25107000000003 58.48011999999994L101.44207000000006 57.36851999999999L102.85126999999989 57.080020000000104L103.23937000000001 55.19221999999991L104.40456999999992 54.774920000000066L104.49076999999988 54.53302000000008L106.37867000000006 54.97222000000011L107.41787 54.56791999999996L107.53026999999997 54.94342000000006L107.92086999999992 54.91691999999989L107.94286999999986 53.28881999999999L108.45217000000002 53.48921999999993L109.00526999999988 52.905320000000074L110.82326999999987 52.115620000000035L110.24477000000002 51.07192000000009L109.45146999999997 51.12851999999998L109.17166999999995 50.8453199999999L110.08476999999993 48.63542000000007L110.15926999999988 47.44011999999998L109.6428699999999 46.87832000000003L109.66356999999994 46.09591999999998L108.92476999999985 46.37002000000007L108.53246999999988 46.29531999999995L108.53287 45.89481999999998L106.72066999999993 45.42082000000005L107.1120699999999 44.71461999999997L107.38126999999986 42.31531999999993L104.88877000000002 41.988219999999956L104.85226999999986 41.225419999999986L104.20587 40.86151999999993L103.79296999999997 40.50931999999989L104.21117000000004 39.619719999999916L105.26706999999988 39.45432000000005L105.57797000000005 38.80251999999996L105.06386999999995 38.17751999999996L105.04467 37.39231999999993L106.55286999999998 36.050719999999956L107.18796999999995 35.13611999999989L107.54576999999995 33.67082000000005L105.47477000000003 33.77071999999998L105.04036999999994 32.85012000000006L105.16057 32.16722000000004L105.76207 31.132820000000038L105.93166999999994 29.93521999999996L106.64687000000004 29.698020000000042L107.75906999999984 30.447720000000004L109.18236999999999 28.543120000000044L109.70837000000006 26.19641999999999L110.50166999999988 26.019919999999956L110.05966999999987 27.16791999999998L110.25136999999995 27.97151999999994L110.71677 28.65142000000003L111.91426999999999 28.95291999999995L112.11996999999997 29.311519999999973L113.70497 29.380919999999946L113.8901699999999 29.952819999999974L116.98006999999984 29.22112000000004L117.64896999999996 28.877219999999966L119.88366999999994 29.12742000000003L120.58366999999998 29.479619999999954L122.11736999999994 28.961720000000014L122.85347000000002 29.27121999999997L122.99806999999987 30.061320000000023L122.44916999999987 31.148919999999976L122.82966999999985 31.853020000000015L123.91787 32.29302000000007L123.82836999999995 33.47661999999991L123.50416999999993 33.71181999999999L123.5930699999999 34.90982000000008L123.57786999999985 35.31691999999998L123.71446999999989 36.5156199999999L123.66417000000001 37.90201999999999L122.55486999999994 41.750819999999976L123.5495699999999 43.33472000000006L123.79997000000003 44.42471999999998L124.09596999999985 45.162019999999984L124.48747000000003 45.268620000000055L126.23176999999987 44.25042000000008L127.02927 44.14671999999996L127.22596999999996 45.281420000000026L127.46837000000005 45.69262000000003L129.50166999999988 46.93671999999992L129.55286999999998 48.05271999999991L130.27156999999988 48.881619999999884L131.28306999999995 49.843720000000076L131.78296999999998 50.521619999999984L132.34776999999985 52.53431999999998L133.5894699999999 52.71741999999995L134.21477000000004 53.233220000000074L134.28817000000004 54.49561999999992L134.47747000000004 55.065920000000006L134.10316999999986 56.20902000000001L131.7252699999999 55.962420000000066L131.48827000000006 57.15442000000007L131.84447 58.71812L129.94146999999998 60.18291999999997L128.69246999999996 61.8444199999999L126.32627000000002 62.63922000000002L125.44307000000003 63.512120000000095L125.14096999999992 64.40411999999992L124.04267000000004 65.64601999999991L122.58576999999991 66.41922L122.5169699999999 66.66311999999994L122.91546999999991 66.58572000000004L121.5794699999999 68.09521999999993L119.39317000000005 69.13652000000002L118.92876999999999 69.79232000000002L118.83286999999996 69.42301999999995L118.45397000000003 69.38632000000007L117.18507 70.18751999999995L116.86506999999983 68.6280200000001z">
      <title id="t128">Troisième circonscription du Gard</title>
      <desc id="d128">Cantons de : Aramon, Bagnols-sur-Cèze, Remoulins, Roquemaure, Villeneuve-lès-Avignon</desc>
    </path><path class="circo" id="id-030-04" d="M68.93066999999996 28.620919999999956L69.92076999999995 28.032320000000027L70.2497699999999 28.01332000000002L70.18007 27.354619999999954L69.47646999999995 26.982920000000036L69.3371699999999 26.19381999999996L68.72357 25.680319999999938L67.5980699999999 25.388419999999996L68.24096999999995 24.365120000000047L67.72246999999993 21.977520000000027L69.34476999999993 22.11501999999996L70.84936999999991 23.440420000000017L71.96596999999997 23.242520000000013L72.56626999999992 24.62062000000003L73.2207699999999 25.01661999999999L73.66766999999993 24.803019999999947L73.22537 24.23581999999999L73.66287 22.23321999999996L74.26886999999999 21.855119999999943L74.18786999999998 21.04481999999996L75.15006999999991 20.287019999999984L74.34406999999999 19.43611999999996L74.38566999999989 18.02751999999998L74.76526999999999 17.41912000000002L76.3661699999999 17.561320000000023L77.75086999999996 16.897519999999986L78.48086999999998 19.036519999999996L81.01436999999999 20.30672000000004L82.51616999999999 21.966620000000034L83.45846999999992 22.79571999999996L84.6283699999999 23.228920000000016L85.89256999999998 22.35922000000005L87.18656999999996 19.937720000000013L87.13376999999991 17.221019999999953L88.30147 17.244519999999966L89.66026999999997 16.42102L90.60877000000005 15.158720000000017L90.31246999999985 14.451819999999998L94.08656999999994 14.236120000000028L95.52136999999993 13.413819999999987L96.24827000000005 13.739119999999957L96.82167000000004 14.846019999999953L96.74536999999987 15.658819999999992L95.90756999999985 18.439719999999966L96.05367000000001 19.646319999999946L96.92556999999988 20.40912000000003L99.34077000000002 20.23022000000003L99.64886999999999 20.98532L100.05807000000004 20.973619999999983L101.14526999999998 19.258320000000026L100.76657 19.395719999999983L100.96307000000002 14.954319999999939L101.32627000000002 14.22061999999994L102.12697000000003 14.053520000000049L103.66967 14.466519999999946L105.64067 14.222620000000006L106.14356999999995 14.799319999999966L106.37456999999995 15.546320000000037L107.17656999999986 15.587419999999952L107.77036999999996 16.142420000000016L109.2968699999999 16.09312L109.18116999999984 16.287720000000036L109.00107000000003 16.663919999999962L109.98176999999987 18.509919999999966L111.07236999999986 19.08231999999998L111.43587000000002 18.916420000000016L113.53586999999993 19.98411999999996L114.08717000000001 20.069119999999998L115.03576999999996 21.61832000000004L116.40036999999984 20.787019999999984L117.80676999999991 22.524419999999964L117.99847 23.854720000000043L120.19836999999984 26.723719999999958L119.82206999999994 28.66581999999994L119.88366999999994 29.12742000000003L117.64896999999996 28.877219999999966L116.98006999999984 29.22112000000004L113.8901699999999 29.952819999999974L113.70497 29.380919999999946L112.11996999999997 29.311519999999973L111.91426999999999 28.95291999999995L110.71677 28.65142000000003L110.25136999999995 27.97151999999994L110.05966999999987 27.16791999999998L110.50166999999988 26.019919999999956L109.70837000000006 26.19641999999999L109.18236999999999 28.543120000000044L107.75906999999984 30.447720000000004L106.64687000000004 29.698020000000042L105.93166999999994 29.93521999999996L105.76207 31.132820000000038L105.16057 32.16722000000004L105.04036999999994 32.85012000000006L105.47477000000003 33.77071999999998L107.54576999999995 33.67082000000005L107.18796999999995 35.13611999999989L106.55286999999998 36.050719999999956L105.04467 37.39231999999993L105.06386999999995 38.17751999999996L105.57797000000005 38.80251999999996L105.26706999999988 39.45432000000005L104.21117000000004 39.619719999999916L103.79296999999997 40.50931999999989L104.20587 40.86151999999993L104.85226999999986 41.225419999999986L104.88877000000002 41.988219999999956L107.38126999999986 42.31531999999993L107.1120699999999 44.71461999999997L106.72066999999993 45.42082000000005L105.92687000000001 45.41511999999989L105.66616999999997 45.72222000000011L104.49436999999989 45.052220000000034L102.56066999999985 45.32051999999999L100.88586999999984 45.25631999999996L99.91196999999988 45.343920000000026L98.92446999999993 44.24261999999999L97.47696999999994 45.46812L96.01706999999988 45.01612L95.30246999999986 45.94182000000001L93.48737000000006 46.693919999999935L92.11766999999986 46.67671999999993L91.30796999999984 45.230420000000095L89.38396999999998 43.611920000000055L85.98386999999991 42.33061999999995L85.8774699999999 44.722819999999956L85.29287 45.772120000000086L87.47806999999989 46.74481999999989L87.48516999999993 48.72101999999995L89.05706999999995 49.31232L88.62116999999989 50.85051999999996L88.81846999999993 51.618819999999914L89.24486999999999 51.74291999999991L89.52067 51.03361999999993L91.44416999999999 52.174819999999954L91.61466999999993 55.38822000000005L92.24197000000004 55.89231999999993L92.93407000000002 57.37161999999989L91.93076999999994 57.86681999999996L91.50956999999994 58.840819999999894L92.46477000000004 60.100819999999885L93.49986999999987 60.69771999999989L94.95606999999995 60.1397199999999L95.61276999999995 60.49561999999992L95.25346999999988 61.552020000000084L95.56177000000002 62.266020000000026L95.86216999999988 62.518820000000005L97.38957000000005 62.474919999999884L96.38376999999991 63.92082000000005L95.99786999999992 63.77592000000004L94.99056999999993 64.41671999999994L95.79346999999984 65.35051999999996L95.86496999999986 65.73721999999998L95.54166999999984 65.9513199999999L92.27796999999987 65.5293200000001L90.82696999999985 66.80112000000008L89.22366999999997 66.69771999999989L86.81036999999992 65.38681999999994L86.75266999999997 65.75132000000008L85.56736999999998 65.69062000000008L84.40026999999998 66.82171999999991L83.76496999999995 67.05691999999999L83.80406999999991 66.66151999999988L83.14856999999995 66.22011999999995L82.79476999999997 65.0953199999999L81.7642699999999 63.919419999999946L81.10866999999996 64.35531999999989L80.79486999999995 64.11462000000006L81.50546999999995 63.334319999999934L79.48046999999997 63.333920000000035L77.62446999999997 62.64632000000006L77.58196999999996 62.37372000000005L77.63376999999991 61.519219999999905L78.1908699999999 59.80502000000001L78.2850699999999 59.38661999999999L78.57366999999999 58.787219999999934L79.88846999999998 57.8599200000001L80.67206999999996 57.81991999999991L79.4023699999999 55.75052000000005L80.00176999999996 54.66102000000001L78.82896999999991 54.418820000000096L77.25027 52.58351999999991L77.59366999999997 52.3726200000001L76.5776699999999 51.82022000000006L75.72506999999996 52.69812000000002L75.09996999999998 53.18051999999989L74.31696999999997 53.071320000000014L74.95586999999989 51.26541999999995L74.40096999999992 50.76782000000003L73.30996999999991 50.82562000000007L72.48766999999998 50.103020000000015L71.50756999999999 48.05502000000001L72.02337 45.85071999999991L70.8430699999999 42.63961999999992L70.95656999999994 42.29151999999999L70.6324699999999 41.3889200000001L70.75386999999989 40.82691999999997L70.3996699999999 40.21091999999999L69.17886999999996 40.295920000000024L68.71696999999995 39.8264200000001L68.78776999999991 38.99782000000005L69.32916999999998 38.42841999999996L69.2728699999999 37.75441999999998L68.9091699999999 37.315219999999954L68.58916999999997 37.66401999999994L67.85686999999996 37.91751999999997L67.6374699999999 35.580220000000054L67.14116999999999 35.00721999999996L66.84906999999998 34.27471999999989L67.49416999999994 32.929419999999936L68.36546999999996 32.265820000000076L69.8978699999999 32.339120000000094L69.70137 30.381219999999985L68.93066999999996 28.620919999999956z">
      <title id="t129">Quatrième circonscription du Gard</title>
      <desc id="d129">Cantons de : Alès Nord-Est, Alès Sud-Est, Barjac, Lussan, Pont-Saint-Esprit, Saint-Ambroix, Saint-Chaptes, Vézénobres</desc>
    </path><path class="circo" id="id-030-05" d="M66.84906999999998 34.27471999999989L67.49416999999994 32.929419999999936L68.36546999999996 32.265820000000076L69.8978699999999 32.339120000000094L69.70137 30.381219999999985L68.93066999999996 28.620919999999956L69.92076999999995 28.032320000000027L70.2497699999999 28.01332000000002L70.18007 27.354619999999954L69.47646999999995 26.982920000000036L69.3371699999999 26.19381999999996L68.72357 25.680319999999938L67.5980699999999 25.388419999999996L68.24096999999995 24.365120000000047L67.72246999999993 21.977520000000027L69.34476999999993 22.11501999999996L70.84936999999991 23.440420000000017L71.96596999999997 23.242520000000013L72.56626999999992 24.62062000000003L73.2207699999999 25.01661999999999L73.66766999999993 24.803019999999947L73.22537 24.23581999999999L73.66287 22.23321999999996L74.26886999999999 21.855119999999943L74.18786999999998 21.04481999999996L75.15006999999991 20.287019999999984L74.34406999999999 19.43611999999996L74.38566999999989 18.02751999999998L74.76526999999999 17.41912000000002L74.66306999999995 16.15881999999999L73.39536999999996 14.521920000000023L72.63387 15.448219999999992L71.92216999999994 15.340820000000008L71.44957 14.976819999999975L68.89796999999999 15.556720000000041L67.73356999999999 16.609519999999975L66.9947699999999 16.94712000000004L66.7062699999999 16.754119999999944L65.65631999999994 15.458719999999971L66.97836999999993 14.642920000000004L67.18386999999996 12.018619999999942L67.47386999999992 11.382420000000025L67.04766999999993 10.385419999999954L67.12456999999995 9.652019999999993L66.33997 8.955320000000029L66.22466999999995 7.822919999999954L66.55946999999992 7.610019999999963L67.67486999999994 7.842319999999972L68.43876999999998 6.515909999999963L67.27886999999998 5.358359999999948L65.8353699999999 4.628829999999994L66.48186999999996 3.1318300000000363L65.77506999999991 1.648779999999988L64.65069999999992 1.6072299999999586L63.90319999999997 0.7528700000000299L62.46509999999989 0L60.57779999999991 2.0228799999999865L60.32989999999995 3.938160000000039L60.21729999999991 3.9785100000000284L59.34719999999993 5.369190000000003L58.30659999999989 5.966189999999983L58.31269999999995 6.787779999999998L57.97479999999996 7.015149999999949L55.61239999999998 6.484739999999988L54.66579999999999 7.027519999999981L54.15629999999999 7.996219999999994L53.67809999999997 8.292820000000006L53.15999999999997 7.95501999999999L52.91539999999998 8.548720000000003L55.08209999999997 10.647320000000036L56.24709999999993 12.741520000000037L56.24669999999992 13.504519999999957L57.319999999999936 14.720919999999978L58.45169999999996 15.035120000000006L58.27069999999992 16.17211999999995L58.208099999999945 15.79061999999999L57.835899999999924 16.88022000000001L56.063999999999965 18.384220000000028L56.241199999999935 18.90701999999999L57.16919999999993 19.722920000000045L57.52359999999999 20.920119999999997L57.03679999999997 21.920119999999997L58.09599999999989 22.93611999999996L59.099699999999984 22.45252000000005L60.00759999999991 23.189219999999978L60.470699999999965 23.799620000000004L60.1665999999999 24.894120000000044L58.774099999999976 24.990319999999997L58.067899999999895 26.00401999999997L58.44959999999992 28.871419999999944L58.13779999999997 28.97652000000005L57.397699999999986 31.27012000000002L57.61809999999991 31.60572000000002L59.12939999999992 31.955819999999903L59.7269 34.23682000000008L60.40319999999997 34.134219999999914L60.42109999999991 35.099719999999934L56.53899999999999 33.03872000000001L56.13539999999989 33.08302000000003L56.43939999999998 35.459119999999984L55.798 35.77261999999996L55.107099999999946 35.59822000000008L55.023399999999924 36.76711999999998L53.637899999999945 37.13292000000001L51.803 39.32451999999989L48.350799999999936 38.297919999999976L47.713499999999954 38.38822000000005L47.341999999999985 38.87681999999995L46.5415999999999 39.33752000000004L45.365299999999934 39.475819999999885L43.32849999999996 37.79251999999997L42.606199999999944 37.65851999999995L42.188699999999926 36.65652L41.81809999999996 36.63051999999993L40.09529999999995 35.9540199999999L39.298599999999965 35.109519999999975L37.441599999999994 34.875119999999924L36.47649999999999 34.264920000000075L35.794799999999896 33.312619999999924L35.848199999999906 32.924819999999954L34.65989999999999 32.74481999999989L34.39729999999997 33.50541999999996L33.71339999999998 33.91892000000007L32.840599999999995 33.142520000000104L31.825399999999945 33.784020000000055L31.216499999999996 35.746920000000046L31.418899999999894 36.49291999999991L32.49369999999999 37.08922000000007L32.62969999999996 37.474120000000084L31.667599999999993 38.2041200000001L31.411599999999908 40.20602000000008L29.144499999999994 40.83611999999994L26.069099999999935 40.07562000000007L25.66179999999997 39.989520000000084L23.88639999999998 41.01721999999995L22.934699999999907 40.24872000000005L20.558599999999956 39.61701999999991L18.507299999999987 39.84722000000011L14.903299999999945 39.1226200000001L14.411699999999996 38.48242000000005L14.03959999999995 36.9558199999999L11.3596 35.293120000000044L10.983699999999999 34.58302000000003L9.379799999999932 34.33732000000009L6.237599999999929 35.834519999999884L5.688799999999901 37.725819999999885L4.849699999999984 38.46221999999989L5.1247999999999365 39.52081999999996L5.146799999999985 41.662919999999986L4.020599999999945 42.105819999999994L2.3917999999999893 42.12951999999996L0 43.599719999999934L0.9839999999999236 44.203919999999925L2.775199999999927 46.33382000000006L3.583699999999908 46.36681999999996L5.079599999999914 45.10351999999989L5.285499999999956 45.37372000000005L5.576999999999998 45.20031999999992L5.928999999999974 45.800320000000056L6.3202 47.627919999999904L7.1889999999999645 48.35032000000001L7.516799999999989 48.60401999999999L8.869399999999928 47.66282000000001L9.31389999999999 48.331320000000005L10.485399999999913 48.0474200000001L11.607999999999947 49.24831999999992L13.1481 49.83421999999996L15.425699999999892 51.62372000000005L15.846699999999942 51.794219999999996L15.9532999999999 51.88112000000001L15.32179999999994 54.268820000000005L13.194799999999987 55.45561999999995L12.097099999999955 58.12691999999993L9.70799999999997 58.45512000000008L9.56779999999992 59.66491999999994L8.146299999999997 60.42982000000006L7.504299999999944 61.913319999999885L8.08019999999999 64.71992L8.38919999999996 64.95602000000008L8.976699999999937 64.4532200000001L10.0308 64.8906199999999L11.145099999999957 65.0808199999999L11.76649999999995 64.61462000000006L13.653299999999945 65.0174199999999L14.660999999999945 66.30872L14.767399999999952 67.91111999999998L14.255499999999984 69.45882000000006L13.456399999999917 69.61681999999996L14.610299999999938 70.7203199999999L15.625 70.02361999999994L16.79189999999994 69.72682000000009L18.59699999999998 67.47811999999999L19.404699999999934 67.37912000000006L21.113099999999918 66.86671999999999L22.11999999999989 68.02821999999992L21.959899999999948 70.48592000000008L22.70279999999991 71.48821999999996L24.262499999999932 72.04842000000008L25.356399999999894 71.62012000000004L26.827399999999898 73.00661999999988L27.41249999999991 72.49862000000007L28.575599999999895 72.29101999999989L28.609299999999962 71.89761999999996L26.654999999999973 70.54521999999997L27.171699999999987 69.01361999999995L28.42629999999997 67.9893199999999L28.807999999999993 66.89571999999998L30.6253999999999 64.34871999999996L31.829899999999952 64.59312L31.617899999999963 66.21602000000007L31.858999999999924 66.48551999999995L32.46969999999999 66.07001999999989L32.412099999999896 64.81762000000003L33.928999999999974 65.02251999999999L34.70569999999998 65.15121999999997L35.30589999999995 63.272320000000036L35.12919999999997 62.528319999999894L35.731399999999894 61.557219999999916L36.2281999999999 61.63912000000005L35.80189999999993 60.25512000000003L37.07319999999993 59.47882000000004L37.601 59.069119999999884L38.58839999999998 59.15462000000002L39.767099999999914 58.00891999999999L44.544399999999996 58.45902000000001L44.52279999999996 59.99772000000007L45.239799999999946 61.36292000000003L47.34689999999989 61.34742000000006L47.829399999999964 61.985619999999926L48.02519999999993 63.51312000000007L47.66109999999992 64.22191999999995L45.58179999999993 67.43462L46.08549999999991 68.87691999999993L47.521499999999946 69.40861999999993L48.239599999999996 70.3118199999999L48.904399999999896 69.84241999999995L49.69749999999999 70.03772000000004L50.47569999999996 69.16321999999991L54.128799999999956 68.86122L55.34139999999991 67.80842000000007L55.78309999999999 68.47802000000001L55.628099999999904 70.08721999999989L56.08549999999991 71.21201999999994L57.34269999999992 71.8263199999999L59.13549999999998 71.83411999999998L59.06299999999999 72.9396200000001L60.88099999999997 73.11051999999995L60.38889999999992 73.76621999999998L60.4283999999999 74.93321999999989L59.3984999999999 76.2067199999999L59.23159999999996 77.42691999999988L60.44069999999999 77.96532000000002L62.247699999999895 76.97352000000001L62.73519999999996 76.60131999999999L63.33269999999993 76.05132000000003L64.14389999999992 74.42771999999991L63.76909999999998 73.82161999999994L64.7491 73.22342000000003L66.43366999999989 74.83742000000007L66.62176999999997 74.68191999999999L66.23466999999994 73.98641999999995L66.87636999999995 71.33341999999993L67.22656999999992 71.00181999999995L68.48466999999994 72.02672000000007L69.96947 71.5962199999999L70.97066999999993 73.73682000000008L72.06687 73.26541999999995L72.86806999999999 73.33721999999989L73.54896999999994 73.76811999999995L73.55686999999989 74.17221999999992L74.21587 73.54962L75.7230699999999 73.83991999999989L76.2814699999999 74.31151999999997L76.02116999999998 75.78071999999997L78.38546999999994 76.01522L80.33826999999997 77.24612000000002L80.76326999999992 76.87832000000003L81.97976999999992 76.3607199999999L83.00046999999995 75.88061999999991L83.18296999999995 76.23442L84.33246999999994 76.03641999999991L84.93806999999993 76.55601999999999L86.41787 75.98731999999995L86.77306999999996 76.17012L88.08606999999995 76.05811999999992L87.04456999999991 73.4396200000001L87.13566999999989 72.64771999999994L86.1283699999999 71.98731999999995L82.94486999999992 71.40172000000007L82.82566999999995 69.48242000000005L83.73586999999998 67.82932000000005L83.76496999999995 67.05691999999999L83.80406999999991 66.66151999999988L83.14856999999995 66.22011999999995L82.79476999999997 65.0953199999999L81.7642699999999 63.919419999999946L81.10866999999996 64.35531999999989L80.79486999999995 64.11462000000006L81.50546999999995 63.334319999999934L79.48046999999997 63.333920000000035L77.62446999999997 62.64632000000006L77.58196999999996 62.37372000000005L77.63376999999991 61.519219999999905L78.1908699999999 59.80502000000001L78.2850699999999 59.38661999999999L78.57366999999999 58.787219999999934L79.88846999999998 57.8599200000001L80.67206999999996 57.81991999999991L79.4023699999999 55.75052000000005L80.00176999999996 54.66102000000001L78.82896999999991 54.418820000000096L77.25027 52.58351999999991L77.59366999999997 52.3726200000001L76.5776699999999 51.82022000000006L75.72506999999996 52.69812000000002L75.09996999999998 53.18051999999989L74.31696999999997 53.071320000000014L74.95586999999989 51.26541999999995L74.40096999999992 50.76782000000003L73.30996999999991 50.82562000000007L72.48766999999998 50.103020000000015L71.50756999999999 48.05502000000001L72.02337 45.85071999999991L70.8430699999999 42.63961999999992L70.95656999999994 42.29151999999999L70.6324699999999 41.3889200000001L70.75386999999989 40.82691999999997L70.3996699999999 40.21091999999999L69.17886999999996 40.295920000000024L68.71696999999995 39.8264200000001L68.78776999999991 38.99782000000005L69.32916999999998 38.42841999999996L69.2728699999999 37.75441999999998L68.9091699999999 37.315219999999954L68.58916999999997 37.66401999999994L67.85686999999996 37.91751999999997L67.6374699999999 35.580220000000054L67.14116999999999 35.00721999999996L66.84906999999998 34.27471999999989z">
      <title id="t130">Cinquième circonscription du Gard</title>
      <desc id="d130">Cantons de : Alès Ouest, Alzon, Anduze, Bessèges, Génolhac, La Grand-Combe, Lasalle, Lédignan, Quissac, Saint-André-de-Valborgne, Saint-Hippolyte-du-Fort, Saint-Jean-du-Gard, Saint-Mamert-du-Gard, Sauve, Sumène, Trèves, Valleraugue, Le Vigan</desc>
    </path><path class="circo" id="id-030-06" d="M106.93286999999987 70.0346199999999L107.18336999999997 68.99612000000002L107.95947000000001 68.84552000000008L108.49966999999992 67.82852000000003L109.24346999999989 67.60971999999992L109.13327000000004 66.47772000000009L108.93577000000005 66.13832000000002L108.17756999999983 66.0003200000001L107.82136999999989 64.88151999999991L107.03606999999988 63.6723199999999L107.08926999999994 62.11482000000001L105.94446999999991 61.95782000000008L104.99946999999997 61.26181999999994L104.69706999999994 61.51332000000002L104.11226999999985 64.18262000000004L103.33897000000002 64.04151999999999L102.30676999999991 62.91211999999996L100.35106999999994 62.868619999999964L100.28756999999996 60.5447200000001L100.57336999999984 59.392520000000104L101.25107000000003 58.48011999999994L101.44207000000006 57.36851999999999L102.85126999999989 57.080020000000104L103.23937000000001 55.19221999999991L104.40456999999992 54.774920000000066L104.49076999999988 54.53302000000008L106.37867000000006 54.97222000000011L107.41787 54.56791999999996L107.53026999999997 54.94342000000006L107.92086999999992 54.91691999999989L107.94286999999986 53.28881999999999L108.45217000000002 53.48921999999993L109.00526999999988 52.905320000000074L110.82326999999987 52.115620000000035L110.24477000000002 51.07192000000009L109.45146999999997 51.12851999999998L109.17166999999995 50.8453199999999L110.08476999999993 48.63542000000007L110.15926999999988 47.44011999999998L109.6428699999999 46.87832000000003L109.66356999999994 46.09591999999998L108.92476999999985 46.37002000000007L108.53246999999988 46.29531999999995L108.53287 45.89481999999998L106.72066999999993 45.42082000000005L105.92687000000001 45.41511999999989L105.66616999999997 45.72222000000011L104.49436999999989 45.052220000000034L102.56066999999985 45.32051999999999L100.88586999999984 45.25631999999996L99.91196999999988 45.343920000000026L98.92446999999993 44.24261999999999L97.47696999999994 45.46812L96.01706999999988 45.01612L95.30246999999986 45.94182000000001L93.48737000000006 46.693919999999935L92.11766999999986 46.67671999999993L91.30796999999984 45.230420000000095L89.38396999999998 43.611920000000055L85.98386999999991 42.33061999999995L85.8774699999999 44.722819999999956L85.29287 45.772120000000086L87.47806999999989 46.74481999999989L87.48516999999993 48.72101999999995L89.05706999999995 49.31232L88.62116999999989 50.85051999999996L88.81846999999993 51.618819999999914L89.24486999999999 51.74291999999991L89.52067 51.03361999999993L91.44416999999999 52.174819999999954L91.61466999999993 55.38822000000005L92.24197000000004 55.89231999999993L92.93407000000002 57.37161999999989L91.93076999999994 57.86681999999996L91.50956999999994 58.840819999999894L92.46477000000004 60.100819999999885L93.49986999999987 60.69771999999989L94.95606999999995 60.1397199999999L95.61276999999995 60.49561999999992L95.25346999999988 61.552020000000084L95.56177000000002 62.266020000000026L95.86216999999988 62.518820000000005L97.38957000000005 62.474919999999884L96.38376999999991 63.92082000000005L95.99786999999992 63.77592000000004L94.99056999999993 64.41671999999994L95.79346999999984 65.35051999999996L95.86496999999986 65.73721999999998L95.54166999999984 65.9513199999999L92.27796999999987 65.5293200000001L90.82696999999985 66.80112000000008L89.22366999999997 66.69771999999989L86.81036999999992 65.38681999999994L86.75266999999997 65.75132000000008L87.30376999999999 67.30292000000009L88.6736699999999 68.21001999999999L90.87536999999998 70.89742000000001L91.38026999999988 71.65442000000007L92.4571699999999 72.47072000000003L93.17076999999995 74.19211999999993L92.69246999999996 75.14041999999995L92.30466999999999 74.31052L91.34056999999984 74.69892000000004L91.87816999999995 75.63632000000007L90.53116999999997 76.54811999999993L92.79836999999998 80.03512L94.32686999999987 79.07132000000001L94.05706999999984 78.60282000000007L96.43327 76.59591999999998L94.00906999999984 74.52741999999989L93.91346999999996 74.07492000000002L94.38346999999999 73.29811999999993L94.97027000000003 73.10491999999999L95.27446999999984 72.74101999999993L96.58326999999986 72.33402000000001L97.09966999999983 71.28672000000006L98.1908699999999 71.2348199999999L99.28216999999995 72.33562000000006L99.60787000000005 73.50522000000001L100.84067000000005 74.51862000000006L101.29377 74.59372000000008L101.10276999999996 75.84572000000003L101.12147000000004 76.67211999999995L102.66037000000006 80.84901999999988L103.33666999999991 80.36791999999991L107.43047000000001 79.60151999999994L108.48636999999985 78.25171999999998L108.11337000000003 77.1706200000001L107.06257000000005 74.94992000000002L108.01596999999992 73.19612000000006L108.16076999999996 71.61192000000005L107.12226999999984 71.07492000000002L106.93286999999987 70.0346199999999z">
      <title id="t131">Sixième circonscription du Gard</title>
      <desc id="d131">Cantons de : Marguerittes, Nîmes II, Nîmes IV, Nîmes V, Uzès</desc>
    </path></svg>