<svg xmlns="http://www.w3.org/2000/svg" version="1.1" xmlns:xlink="http://www.w3.org/1999/xlink" xmlns:svgjs="http://svgjs.dev/svgjs" viewBox="1633.7182 554.17285 136.56359999999995 143.65429999999992"><path class="circo" id="id-031-01" d="M 1653.1842,574.98932 1655.4559,576.56177 1657.0124,575.4302 1658.3905,574.99427 1658.9906,577.62412 1661.148,577.7637 1663.0722,577.72079 1663.9904,578.81938 1666.1477,579.49405 1666.2243,577.97995 1667.5819,577.31577 1668.0796,581.17366 1668.1504,582.1769 1667.4837,582.06706 1667.4549,584.52681 1667.2467,584.89865 1667.4349,585.33515 1667.1115,586.90284 1667.1446,589.0363 1668.163,589.21269 1668.9225,589.20336 1669.6917,589.92227 1670.3963,591.54773 1668.9253,591.58606 1666.9967,591.60704 1665.5411,591.93407 1662.9543,590.78477 1661.5084,591.55554 1660.8424,592.26225 1660.6796,593.39725 1658.4344,593.36008 1655.438,592.09864 1653.3362,591.66138 1653.951,588.59009 1655.6983,587.04643 1652.5805,585.16066 1648.5426,586.63473 1646.9171,585.19823 1646.2165,585.39065 1642.7547,583.94558 1641.6942,582.01138 1640.3319,581.44655 1638.2538,582.14543 1634.6409,581.39545 1639.7861,577.71374 1640.6345,576.43057 1644.8517,574.30148 1644.6608,571.9653 1646.4123,575.46814 1646.5933,577.82415 1650.081,576.82568 1652.3458,578.72422 1654.4838,578.63498 1654.5893,578.19105 1653.1842,574.98932 z">
      <title id="t132">Première circonscription de la Haute-Garonne</title>
      <desc id="d132">Cantons de : Blagnac, Toulouse IV, Toulouse V, Toulouse XIII (moins la commune de Colomiers), Commune de Toulouse (partie comprise dans le canton de Toulouse XIV)</desc>
    </path><path class="circo" id="id-031-04" d="M 1655.9528,603.77045 1656.9345,602.83853 1654.5573,601.46478 1655.5899,599.30309 1655.3625,597.1372 1656.9503,595.39885 1654.9784,594.46293 1655.1201,593.08232 1653.3523,591.55983 1655.4541,591.99708 1658.4504,593.25852 1660.6957,593.2957 1660.8585,592.1607 1661.5244,591.45399 1662.9705,590.68321 1665.5572,591.83252 1667.0127,591.50548 1670.4124,591.44617 1672.2812,590.83729 1673.5634,591.36742 1675.0415,591.28523 1671.487,592.83728 1671.4656,593.83612 1669.6759,593.47019 1669.5558,592.48526 1668.5086,592.45608 1667.1792,592.80105 1665.8135,595.92002 1658.813,606.34366 1655.9528,603.77045 z">
      <title id="t135">Quatrième circonscription de la Haute-Garonne</title>
      <desc id="d135">Cantons de : Toulouse I, Toulouse III, Toulouse XII</desc>
    </path><path class="vide" d="M 1706.5466,581.12405 1706.6403,582.34285 1704.4216,583.46785 1703.9841,584.12405 1701.2966,586.06155 1703.1716,586.43655 1704.2653,586.09285 1704.9841,586.37405 1705.5466,587.40525 1707.3591,588.15525 1707.7341,588.06155 1708.5778,588.81155 1710.7028,588.03025 1712.3278,589.03025 1711.4216,589.84285 1711.0778,591.43655 1712.0153,592.24905 1711.9528,592.96785 1712.9841,593.46785 1712.1403,594.37405 1712.2653,595.49905 1711.7028,596.62405 1712.9528,597.34285 1712.4528,597.84285 1713.9528,599.18655 1717.6091,593.71785 1718.3278,592.09285 1719.0466,591.90525 1719.5778,591.93655 1719.6403,592.43655 1720.5778,592.62405 1720.6091,592.12405 1722.4528,591.28025 1721.6716,591.34285 1721.0153,591.06155 1720.0466,591.37405 1719.6716,590.53025 1719.2653,590.15525 1718.8591,590.15525 1718.3278,590.06155 1718.2966,588.93655 1718.4841,588.12405 1718.3903,587.90525 1718.4841,587.68655 1718.5153,586.40525 1718.8591,586.46785 1718.8278,585.93655 1718.5466,583.90525 1717.8591,584.28025 1717.7966,585.06155 1716.6716,584.71785 1716.2028,584.12405 1715.1716,584.15525 1714.0466,584.09285 1713.7341,582.68655 1713.0153,582.93655 1712.2028,583.53025 1711.0153,582.68655 1711.7341,584.37405 1711.6716,584.62405 1710.5778,584.65525 1709.3903,583.65525 1707.5466,584.18655 1707.4528,582.93655 1706.5466,581.12405 z" id="031-00"></path><path class="circo" id="id-031-02" d="M 1738.8706,580.04645 1737.3639,579.55135 1737.6548,579.79085 1737.5799,580.91475 1735.882,580.88575 1735.7102,581.62915 1736.1237,582.69355 1734.035,581.50595 1732.9731,581.96365 1731.5592,580.52135 1731.6301,580.12025 1729.6554,579.19815 1729.2217,580.81645 1729.5328,581.05315 1729.0053,582.08155 1729.2507,582.82385 1728.6014,584.21805 1728.3367,584.83735 1727.4769,585.29515 1726.6553,585.82635 1727.0088,586.54075 1728.9161,587.03625 1728.1423,587.17205 1727.2861,587.98795 1726.1826,587.60265 1725.2404,588.13395 1724.0748,587.03675 1722.8264,588.07415 1722.0502,588.90295 1722.4593,591.29575 1721.6842,591.33885 1721.0118,591.06085 1720.0318,591.38015 1719.6623,590.52775 1719.2589,590.15075 1718.8606,590.15565 1718.3266,590.06315 1718.3092,588.94435 1718.4788,588.12225 1718.3801,587.89335 1718.4893,587.69835 1718.5044,586.40845 1718.854,586.46605 1718.8169,585.93995 1719.6209,585.83415 1720.2734,584.82425 1720.2963,584.43145 1721.4199,584.06055 1721.642,582.95095 1720.4086,582.07165 1720.2088,582.09995 1720.4041,581.24135 1719.9994,580.54455 1718.3921,579.30115 1718.2989,578.90405 1718.6525,578.70435 1719.2189,578.22005 1719.5965,577.14235 1719.8564,576.83765 1721.02,577.05315 1721.3483,577.27955 1722.6053,576.31945 1723.3381,576.40705 1723.841,575.82675 1723.7168,574.72785 1724.2836,573.72575 1723.8125,572.08865 1723.4073,571.37795 1723.4139,570.55875 1725.5636,567.65635 1725.9243,567.51065 1726.7378,568.31925 1727.5098,568.36315 1727.8688,568.29825 1728.9802,566.85405 1729.9894,567.21645 1731.2061,566.42575 1734.3438,568.23605 1735.9831,568.41865 1736.303,569.15075 1735.7533,570.60355 1735.835,570.99525 1736.5559,571.29115 1736.9159,572.34765 1736.4336,574.14705 1737.0399,574.55715 1737.2543,575.25445 1738.9299,576.01175 1739.7227,576.86875 1740.0832,576.72295 1741.2242,578.30885 1740.8685,579.00055 1740.0718,579.03805 1738.8706,580.04645 z">
      <title id="t133">Deuxième circonscription de la Haute-Garonne</title>
      <desc id="d133">Cantons de : Montastruc-la-Conseillère, Toulouse VI, Toulouse VII, Toulouse XV, Commune de Montrabé</desc>
    </path><path class="circo" id="id-031-03" d="M 1731.5592,580.52135 1731.6301,580.12025 1729.6554,579.19815 1729.2217,580.81645 1729.5328,581.05315 1729.0053,582.08155 1729.2507,582.82385 1728.6014,584.21805 1728.3367,584.83735 1727.4769,585.29515 1726.6553,585.82635 1727.0088,586.54075 1728.9161,587.03625 1728.1423,587.17205 1727.2861,587.98795 1726.1826,587.60265 1725.2404,588.13395 1724.0748,587.03675 1722.8264,588.07415 1722.0502,588.90295 1722.4593,591.29575 1720.5953,592.10965 1720.5841,592.63345 1719.6456,592.44155 1719.5826,591.92505 1719.0334,591.90975 1718.3363,592.09065 1717.6201,593.72625 1719.4781,593.86775 1720.3632,593.40635 1721.6665,597.09465 1723.2041,597.41655 1724.2112,596.94555 1724.8731,595.89955 1724.7731,594.65985 1726.7886,594.46155 1728.7982,595.78755 1729.2744,595.82535 1729.5843,594.81345 1731.0396,594.23495 1732.0128,594.93665 1732.1296,595.65665 1733.2198,595.97305 1733.075,594.91985 1733.7781,593.60335 1734.5371,592.70825 1734.8798,591.59005 1735.5433,591.18135 1736.2848,591.45165 1737.452,591.25315 1738.869,591.88635 1738.4347,590.78435 1737.8293,590.27905 1738.0003,589.17625 1738.6891,589.37485 1739.6368,588.35825 1739.9696,587.27565 1740.9137,586.01155 1742.7426,585.29655 1743.1278,585.20365 1743.2682,584.43065 1742.4085,583.13735 1742.4362,581.58625 1737.5799,580.91475 1735.882,580.88575 1735.7102,581.62915 1736.1237,582.69355 1734.035,581.50595 1732.9731,581.96365 1731.5592,580.52135 z">
      <title id="t134">Troisième circonscription de la Haute-Garonne</title>
      <desc id="d134">Cantons de : Toulouse II, Toulouse VIII (moins la commune de Montrabé), Toulouse IX (moins la commune de Ramonville-Saint-Agne et la partie de la commune de Toulouse située à l'ouest du canal du Midi), Verfeil</desc>
    </path><path class="circo" id="id-031-05" d="M 1706.5929,568.47425 1705.1304,568.89075 1704.8019,568.25775 1703.86,568.61135 1704.108,569.37535 1704.7551,569.75015 1704.4947,570.05895 1699.2611,572.18805 1699.0287,571.85535 1698.7733,571.11625 1699.7015,570.36185 1699.5141,569.59455 1696.7462,569.14705 1696.0792,567.93175 1695.0297,567.41005 1694.5514,566.28995 1693.4658,565.82235 1693.2687,566.61065 1691.8496,567.37165 1690.9569,568.71085 1690.8435,570.06495 1691.3623,571.54575 1691.0279,571.78365 1691.0136,572.59985 1691.969,573.31225 1692.997,573.75605 1693.0753,576.41555 1691.2735,577.32135 1690.7654,580.26125 1691.3398,580.37875 1692.1088,580.30225 1692.4487,580.49095 1692.3648,580.87185 1693.8114,581.14025 1694.4714,582.04105 1695.4596,582.56175 1696.166,583.84625 1696.7979,584.19335 1698.4099,583.10405 1698.9686,582.12545 1699.1849,581.62215 1699.6994,582.70125 1699.7872,585.06105 1700.4821,585.45235 1700.5141,585.85025 1701.2815,586.05625 1703.9797,584.12555 1704.4246,583.45265 1706.6361,582.33615 1706.536,581.11105 1707.4545,582.94795 1707.5494,584.18345 1709.3784,583.65985 1710.566,584.65545 1711.6872,584.60865 1711.7425,584.37585 1711.0057,582.69685 1712.197,583.52145 1713.0132,582.92805 1713.7359,582.69945 1714.0506,584.07855 1715.1819,584.15175 1716.191,584.12925 1716.6725,584.70535 1717.8038,585.05915 1717.844,584.26515 1718.5559,583.91685 1718.8169,585.93995 1719.6209,585.83415 1720.2734,584.82425 1720.2963,584.43145 1721.4199,584.06055 1721.642,582.95095 1720.4086,582.07165 1720.2088,582.09995 1720.4041,581.24135 1719.9994,580.54455 1718.3921,579.30115 1718.2989,578.90405 1718.6525,578.70435 1719.2189,578.22005 1719.5965,577.14235 1719.8564,576.83765 1721.02,577.05315 1721.3483,577.27955 1722.6053,576.31945 1723.3381,576.40705 1723.841,575.82675 1723.7168,574.72785 1724.2836,573.72575 1723.8125,572.08865 1723.4073,571.37795 1723.4139,570.55875 1725.5636,567.65635 1725.9243,567.51065 1726.7378,568.31925 1727.5098,568.36315 1727.8688,568.29825 1728.9802,566.85405 1729.9894,567.21645 1731.2061,566.42575 1731.5955,563.36665 1731.4307,563.31555 1729.8457,562.69905 1728.3582,560.37815 1728.3775,560.10175 1729.1166,559.97795 1728.4705,559.51855 1728.7249,558.78885 1727.9874,557.85555 1727.7154,556.69475 1728.4034,554.50075 1726.5482,554.17285 1726.3246,555.29975 1725.6583,556.23715 1724.9674,555.95805 1724.8839,556.69665 1723.3915,558.00865 1722.988,557.98765 1722.6317,556.44965 1721.7207,555.68355 1721.1146,556.95895 1720.1236,558.28095 1719.3341,560.16245 1719.2338,559.78665 1717.81,560.26495 1716.7161,559.97905 1715.9075,558.68765 1715.1526,558.49705 1714.4124,558.82635 1712.2161,557.89175 1711.4282,558.72245 1711.4514,559.48415 1710.8651,559.97305 1711.9004,561.60575 1711.6783,562.26505 1709.6757,562.41115 1708.3254,561.60685 1706.6374,562.47505 1706.1503,563.07645 1706.9337,563.27495 1707.9037,564.54605 1709.3652,564.03335 1711.3011,564.15695 1711.7781,566.42185 1710.7282,566.59115 1710.3607,567.20865 1708.912,567.44605 1707.6645,568.35045 1706.8366,568.41275 1706.5929,568.47425 z">
      <title id="t136">Cinquième circonscription de la Haute-Garonne</title>
      <desc id="d136">Cantons de : Fronton, Grenade, Toulouse XIV (partie non comprise dans la 1re circonscription), Villemur-sur-Tarn</desc>
    </path><path class="circo" id="id-031-06" d="M 1689.1188,584.40255 1687.535,584.71615 1686.4888,583.60595 1686.106,583.64285 1686.0056,583.29095 1685.3416,583.03545 1685.5386,582.72705 1685.614,581.97715 1686.1817,581.48275 1686.2668,580.73585 1686.7595,580.18925 1685.9439,579.65695 1684.6368,578.78445 1683.5027,578.98955 1683.2442,578.68905 1682.9147,577.95735 1683.1653,577.64395 1682.1924,576.95915 1679.978,575.06165 1680.5108,575.05335 1679.0174,573.24115 1678.2893,573.20915 1678.6153,572.99625 1677.6979,571.76865 1677.2631,569.93595 1677.4399,569.70555 1678.1197,569.65185 1678.7632,570.02955 1679.6873,569.57225 1680.1187,568.96765 1681.2039,568.64095 1684.3002,568.09225 1684.9982,568.50535 1686.201,568.61445 1688.1558,566.62735 1688.2558,566.52515 1689.4287,567.49025 1690.1735,567.66415 1690.3601,567.99895 1690.1048,568.28385 1690.6044,568.85495 1690.9569,568.71085 1690.8435,570.06495 1691.3623,571.54575 1691.0279,571.78365 1691.0136,572.59985 1691.969,573.31225 1692.997,573.75605 1693.0753,576.41555 1691.2735,577.32135 1690.7654,580.26125 1691.3398,580.37875 1692.1088,580.30225 1692.4487,580.49095 1692.3648,580.87185 1693.8114,581.14025 1694.4714,582.04105 1695.4596,582.56175 1696.166,583.84625 1696.7979,584.19335 1698.4099,583.10405 1698.9686,582.12545 1699.1849,581.62215 1699.6994,582.70125 1699.7872,585.06105 1700.4821,585.45235 1700.5141,585.85025 1701.2815,586.05625 1703.1761,586.44955 1704.2659,586.08305 1704.9803,586.37925 1705.5364,587.39355 1707.3518,588.15135 1707.7192,588.05045 1708.5716,588.80375 1710.6891,588.03075 1712.3241,589.01965 1711.4078,589.82915 1711.0854,591.43975 1712.0125,592.23815 1711.9381,592.96215 1712.9722,593.45295 1712.1396,594.36455 1712.2588,595.50035 1711.7173,596.63395 1711.3139,597.21655 1709.4411,596.53825 1709.1049,596.75645 1708.0581,597.29925 1707.6159,599.19775 1707.5653,599.39305 1707.1603,600.02005 1706.4767,599.76895 1705.7922,600.64575 1705.362,601.45805 1704.2414,601.84335 1702.2755,601.45115 1701.9283,603.04945 1700.8249,604.22895 1702.8109,604.66125 1704.5319,605.77035 1704.1977,606.43865 1703.4622,606.66675 1700.4755,605.98815 1700.5803,604.05415 1699.5186,604.59385 1698.3566,604.45795 1697.7979,605.02525 1697.9255,605.32285 1697.4021,605.67955 1697.073,606.36085 1697.8607,607.13645 1697.4299,609.01595 1697.675,609.31385 1697.2663,610.21985 1696.1076,609.86725 1694.9425,610.20105 1694.0614,610.68005 1693.8569,610.37505 1692.7629,610.32615 1692.3974,609.69625 1692.5946,608.97505 1692.0369,607.99355 1689.3821,607.64825 1688.1649,606.69545 1687.7653,606.80635 1684.3614,605.38385 1684.0435,605.23575 1685.5425,604.96545 1686.2159,603.20665 1687.3702,603.17405 1685.6718,601.54605 1685.8641,600.77545 1686.979,600.92305 1687.6698,600.53685 1686.9034,599.63025 1685.4717,598.88155 1686.2421,599.08195 1687.5397,598.25215 1688.3294,598.24345 1688.9474,598.71075 1689.4267,599.79675 1690.1576,599.35795 1691.2273,598.35075 1690.7091,597.03955 1691.8209,597.30335 1694.4715,597.02955 1695.1079,595.25365 1694.8778,594.95065 1695.9328,595.39385 1697.0506,595.17905 1698.1192,595.58005 1698.2007,592.44785 1697.1924,591.30365 1696.5515,590.30835 1695.7456,591.15435 1694.6606,591.35605 1693.296,589.46185 1693.6454,587.78575 1692.9477,587.05375 1692.2743,586.95555 1691.6654,587.35595 1690.9392,587.29305 1690.9887,587.65125 1688.8408,586.77485 1688.8726,586.03915 1689.7924,584.85165 1689.1188,584.40255 z">
      <title id="t137">Sixième circonscription de la Haute-Garonne</title>
      <desc id="d137">Cantons de : Cadours, Léguevin, Saint-Lys, Communes de : Colomiers, Tournefeuille</desc>
    </path><path class="circo" id="id-031-07" d="M 1721.6152,615.77485 1721.9498,614.24815 1721.7239,613.68095 1721.5317,613.34765 1721.8494,613.11615 1722.9366,613.56485 1723.1805,613.25695 1723.5376,611.33445 1723.1416,610.65415 1721.4268,609.96865 1721.7741,609.30455 1721.5242,608.64765 1720.7497,609.53405 1719.3266,610.15305 1717.5053,609.94585 1717.3883,609.66165 1716.9337,609.97205 1715.0901,610.17265 1715.3989,611.22295 1715.636,612.42095 1716.443,613.83255 1716.3711,614.64575 1715.9529,615.76275 1714.1639,616.65595 1712.6633,614.78375 1711.6723,614.24215 1709.8602,614.78545 1709.6951,614.41625 1708.6031,614.07725 1708.7039,613.68545 1709.1227,612.99525 1711.4633,610.78895 1711.8163,609.63955 1712.8196,608.44375 1713.0001,607.72555 1712.2188,607.93355 1711.3303,607.06675 1710.2962,607.08535 1710.5708,606.35745 1710.3785,605.19555 1710.6707,604.89955 1709.9297,604.63675 1709.1897,604.91815 1709.4685,602.88965 1710.0917,601.73735 1712.7408,600.92665 1713.056,601.17965 1713.2211,600.87245 1712.7956,599.65635 1712.2157,598.61305 1712.4491,597.84305 1712.9639,597.35435 1711.7173,596.63395 1711.3139,597.21655 1709.4411,596.53825 1709.1049,596.75645 1708.0581,597.29925 1707.6159,599.19775 1707.5653,599.39305 1707.1603,600.02005 1706.4767,599.76895 1705.7922,600.64575 1705.362,601.45805 1704.2414,601.84335 1702.2755,601.45115 1701.9283,603.04945 1700.8249,604.22895 1702.8109,604.66125 1704.5319,605.77035 1704.1977,606.43865 1703.4622,606.66675 1700.4755,605.98815 1700.5803,604.05415 1699.5186,604.59385 1698.3566,604.45795 1697.7979,605.02525 1697.9255,605.32285 1697.4021,605.67955 1697.073,606.36085 1697.8607,607.13645 1697.4299,609.01595 1697.675,609.31385 1697.2663,610.21985 1698.328,611.34485 1697.4738,613.14555 1697.7987,614.28165 1697.4745,615.01655 1699.7302,616.09685 1698.8493,616.84945 1699.0337,617.95355 1695.8649,620.18545 1695.342,621.23695 1694.2277,621.27665 1693.6587,620.78715 1692.6133,621.75435 1692.2659,622.75435 1693.4171,622.64725 1695.7997,623.95005 1694.7091,624.26675 1694.2091,624.83985 1695.305,624.75435 1696.8469,625.71195 1697.1746,626.80165 1696.6312,627.85575 1695.3306,628.89255 1694.141,631.34915 1693.7561,631.35915 1693.5076,630.62665 1693.1358,630.52615 1692.1316,631.08355 1690.7117,629.60695 1688.39,632.60095 1689.5398,634.20795 1691.6949,635.18175 1692.5689,635.61025 1692.4866,636.33225 1691.4181,636.69875 1691.0808,637.77405 1690.3606,638.00025 1689.8411,638.27075 1689.8745,640.14475 1690.1147,641.53075 1691.5323,640.98715 1693.0439,641.31405 1693.2501,639.94875 1694.6721,639.92575 1695.1192,641.35235 1695.4526,641.53645 1695.465,642.30065 1696.1712,642.42895 1696.734,643.78005 1695.8622,644.29925 1695.6937,645.00855 1696.0487,645.63975 1698.0387,647.45185 1699.089,648.65365 1699.2975,649.33605 1699.0656,649.60745 1700.1787,652.04965 1702.0438,651.79945 1703.4328,651.38315 1703.3379,649.48125 1704.8841,649.21685 1705.1235,648.89845 1705.8394,647.68215 1706.9064,647.78065 1704.6952,645.52115 1704.4545,644.77605 1702.8826,644.82755 1701.3681,644.59075 1700.1929,644.34685 1699.6348,643.82165 1699.614,643.03995 1700.5326,641.79125 1700.7527,640.23105 1701.9379,640.03875 1702.3728,640.70665 1702.7018,640.64995 1703.9673,639.83545 1703.8151,639.75385 1704.689,639.27925 1706.3594,640.00975 1707.1616,639.35355 1707.917,639.92685 1708.5783,639.81095 1709.1927,639.10765 1709.0403,638.22865 1711.4923,637.24305 1712.6428,637.51615 1713.4724,636.15475 1713.6676,635.11795 1713.0423,634.25315 1712.885,633.52475 1712.2203,633.85865 1711.1448,633.55575 1710.7813,633.72925 1709.7955,633.11585 1708.2412,632.79285 1709.2214,632.08525 1709.2663,631.68525 1706.1748,631.18545 1706.7806,630.25645 1706.0404,628.44875 1706.8078,628.54245 1707.3116,627.47235 1708.0921,627.39465 1708.7127,625.99205 1709.3354,625.47435 1710.5422,625.28065 1712.8825,625.90445 1712.2588,626.38935 1713.4161,628.39145 1715.3407,629.70315 1715.4103,629.82885 1717.3896,632.25185 1716.6324,635.67275 1717.8565,636.64525 1718.7285,636.90905 1719.6005,637.33465 1721.019,637.64475 1721.593,636.77845 1721.8609,636.02815 1722.5725,635.66925 1724.0154,636.31745 1724.0057,635.86005 1724.0067,635.08435 1723.0338,634.46365 1724.0602,632.98275 1723.4786,632.38375 1722.9064,632.11855 1723.0504,631.43315 1722.7131,630.75595 1723.2536,629.78875 1723.3545,627.93465 1724.2367,628.58495 1724.6649,627.97065 1724.9827,628.16855 1725.0249,628.91045 1725.1742,630.40135 1727.2223,629.88305 1727.2182,629.99865 1727.5337,629.79965 1727.793,630.06795 1728.5254,631.37255 1729.2369,632.29845 1729.553,632.06785 1729.8486,631.34425 1729.6471,630.21465 1730.3769,629.99555 1730.2562,628.86845 1731.1512,627.15965 1731.7647,626.68735 1732.4022,627.14775 1732.7691,626.99415 1732.9314,626.62975 1732.4,625.59565 1734.3479,623.65645 1732.9737,622.35785 1730.0941,619.20135 1729.0947,619.47415 1728.6607,620.91365 1727.9802,621.75705 1728.2172,622.05555 1727.4617,622.23045 1726.3916,621.65195 1725.6175,621.89355 1725.2729,621.67925 1724.3541,620.41225 1725.5006,620.18035 1726.0436,619.61675 1725.3108,618.71625 1723.1127,617.63745 1722.3208,616.19915 1721.6152,615.77485 z">
      <title id="t138">Septième circonscription de la Haute-Garonne</title>
      <desc id="d138">Cantons de : Auterive, Carbonne, Cintegabelle, Muret, Montesquieu-Volvestre, Rieux, Tournefeuille (moins la commune de Tournefeuille)</desc>
    </path><path class="circo" id="id-031-08" d="M 1675.0259,665.91425 1673.7487,666.76105 1670.5418,666.94935 1671.4316,669.51005 1670.8025,670.42715 1669.6842,670.47315 1669.0331,670.87205 1667.8921,670.73395 1667.6367,671.02505 1666.4422,671.85785 1667.084,673.56485 1667.6662,674.09165 1667.8193,674.86505 1667.1712,676.72055 1667.5272,677.42445 1668.2722,677.67845 1668.5146,679.14145 1669.2643,680.81265 1669.1303,682.27085 1667.1651,681.97435 1664.3002,680.55955 1662.4128,681.06205 1659.0562,679.65805 1658.2582,678.79115 1656.3861,678.13405 1654.9787,678.84915 1653.7942,678.86415 1653.8632,679.65905 1652.4919,680.48605 1652.1983,681.17155 1652.4504,681.93045 1653.0888,682.40785 1652.6772,683.49375 1653.1227,684.83045 1652.2745,685.43615 1651.6188,686.68115 1650.9598,687.21135 1652.6303,688.17305 1650.7312,690.48365 1652.2624,690.79085 1653.135,693.04925 1653.6725,693.65995 1653.5545,694.83215 1654.0165,695.94765 1653.3967,697.82715 1649.0108,697.32385 1646.8949,696.18435 1646.6535,696.32915 1646.1526,697.37855 1641.1907,696.51615 1640.9153,696.52685 1640.0518,697.78895 1638.1032,697.62515 1636.7821,696.82775 1637.2335,696.18995 1637.1193,695.43295 1634.5336,692.99325 1635.454,692.29085 1635.4058,691.49905 1635.5676,689.94325 1634.8641,688.61915 1634.9319,687.50115 1635.4432,686.47915 1635.5401,686.39365 1635.5652,684.97445 1635.2607,684.67365 1634.9479,683.21185 1635.1707,682.48525 1635.6243,680.62065 1635.9109,679.83335 1635.2937,679.25335 1636.3508,678.37745 1636.283,677.22875 1636.7487,676.18075 1638.6132,676.60865 1639.0158,677.27815 1639.4054,677.23355 1640.8449,677.42075 1641.5788,678.15095 1642.6801,677.76175 1643.2671,678.28605 1643.9726,678.20885 1645.1281,677.04115 1645.2746,676.35935 1645.4366,675.63435 1645.9547,674.31255 1646.5183,672.66565 1646.7907,672.48815 1646.9687,671.56385 1647.1896,670.40515 1647.6535,669.70995 1648.4795,669.38405 1649.4372,668.79925 1650.3555,667.54815 1650.743,667.51875 1651.0803,666.53585 1650.8741,666.25565 1650.2633,665.71375 1650.1948,665.65315 1648.884,665.24645 1648.3547,664.13235 1648.5321,663.86565 1648.1463,663.40485 1649.2522,663.11305 1649.5024,662.07455 1649.3007,661.77415 1648.5093,660.75535 1648.5746,659.66965 1648.504,659.54105 1647.8577,658.08965 1646.5974,657.92195 1646.5482,659.01685 1646.4788,659.44265 1645.9622,659.32045 1645.8797,659.69125 1644.4091,659.63195 1643.887,660.17325 1642.5722,661.60935 1642.2455,661.92505 1641.6022,661.74845 1640.9643,661.00605 1641.6277,660.05435 1641.6587,657.73585 1642.0734,657.12115 1642.787,656.92825 1644.0028,657.80715 1644.36,657.69255 1644.2414,657.29125 1643.6756,654.73285 1643.3452,654.57145 1643.919,653.62805 1644.1012,653.40885 1641.41,652.25915 1641.4477,651.12465 1640.5737,651.27575 1639.0636,650.95165 1638.6792,649.55365 1637.9258,649.40055 1637.7631,648.64405 1635.6734,649.09045 1634.6718,648.94985 1635.5997,648.22195 1634.8279,647.34245 1633.7717,646.81185 1633.7182,646.80515 1634.9719,645.18995 1635.2365,644.71065 1638.6132,641.76665 1640.4292,639.54605 1639.1634,638.79375 1640.1512,637.31635 1641.5464,637.82025 1642.4968,637.23855 1643.0829,637.69365 1644.6432,636.73625 1644.8651,634.89855 1643.0049,634.56025 1644.3506,632.65865 1645.1346,632.55995 1645.1945,631.91735 1646.9015,630.18725 1648.4147,629.67885 1648.4763,629.36175 1648.783,628.20915 1649.9536,627.91835 1650.2104,627.19065 1647.7526,625.81845 1648.1642,625.25925 1650.9353,625.64255 1651.9551,625.05585 1653.525,623.64225 1653.5761,623.31585 1655.1334,620.97365 1655.5598,620.17205 1655.6791,619.94755 1655.9288,619.55305 1656.9781,617.87025 1658.3545,618.65345 1659.4394,617.53075 1660.0643,616.56225 1659.6938,615.85705 1659.9207,615.53155 1660.3431,614.84975 1660.5207,614.49295 1660.094,613.39305 1661.6599,613.43375 1664.7944,615.43285 1664.8255,615.38045 1665.3606,613.93655 1665.9202,613.41345 1667.9483,614.24425 1669.0251,613.70725 1669.3929,613.84145 1669.6515,613.54795 1670.2466,614.05845 1671.0215,614.15655 1671.4537,614.22705 1672.8639,614.78205 1673.0743,614.48475 1674.1408,614.65975 1674.1527,615.03215 1674.8393,615.29095 1674.9937,615.97755 1676.4392,617.63645 1676.661,617.12865 1678.0748,616.96025 1678.5225,618.02125 1678.3278,618.77125 1679.5202,619.72235 1680.6359,619.31505 1680.7811,618.38425 1681.4191,618.10695 1681.6028,617.74135 1681.0833,617.22725 1681.3112,616.45095 1680.6589,614.55035 1681.5408,613.78135 1683.1117,614.03125 1683.6056,613.00895 1682.9647,612.05285 1682.7824,611.81305 1683.0587,611.19615 1683.9178,610.57735 1684.0545,609.86905 1684.1489,609.14695 1684.4961,609.25635 1684.3496,608.93855 1684.9324,608.55515 1684.7167,608.28225 1682.665,606.78535 1683.0572,606.12925 1684.3614,605.38385 1687.7653,606.80635 1688.1649,606.69545 1689.3821,607.64825 1692.0369,607.99355 1692.5946,608.97505 1692.3974,609.69625 1692.7629,610.32615 1693.8569,610.37505 1694.0614,610.68005 1694.9425,610.20105 1696.1076,609.86725 1697.2663,610.21985 1698.328,611.34485 1697.4738,613.14555 1697.7987,614.28165 1697.4745,615.01655 1699.7302,616.09685 1698.8493,616.84945 1699.0337,617.95355 1695.8649,620.18545 1695.342,621.23695 1694.2277,621.27665 1693.6587,620.78715 1692.6133,621.75435 1692.2659,622.75435 1693.4171,622.64725 1695.7997,623.95005 1694.7091,624.26675 1694.2091,624.83985 1695.305,624.75435 1696.8469,625.71195 1697.1746,626.80165 1696.6312,627.85575 1695.3306,628.89255 1694.141,631.34915 1693.7561,631.35915 1693.5076,630.62665 1693.1358,630.52615 1692.1316,631.08355 1690.7117,629.60695 1688.39,632.60095 1689.5398,634.20795 1691.6949,635.18175 1692.5689,635.61025 1692.4866,636.33225 1691.4181,636.69875 1691.0808,637.77405 1690.3606,638.00025 1689.8411,638.27075 1689.8745,640.14475 1690.1147,641.53075 1691.5323,640.98715 1693.0439,641.31405 1693.2501,639.94875 1694.6721,639.92575 1695.1192,641.35235 1695.4526,641.53645 1695.465,642.30065 1696.1712,642.42895 1696.734,643.78005 1695.8622,644.29925 1695.6937,645.00855 1696.0487,645.63975 1695.414,646.68775 1695.0058,646.69315 1693.573,645.92405 1691.7219,643.78345 1690.7008,644.77335 1690.3949,645.26065 1688.9491,645.50535 1688.6529,646.47255 1686.5245,645.90825 1685.726,645.11785 1685.5831,645.29755 1685.2895,645.96925 1685.6219,646.57625 1685.4966,648.10405 1684.4243,650.37555 1683.3419,650.16165 1681.9822,648.84145 1681.2502,648.74905 1681.495,649.76415 1680.8603,650.62565 1680.5027,650.64215 1680.4666,651.43895 1681.5966,652.55265 1681.1431,653.14625 1680.5257,653.64885 1679.3288,653.55285 1679.9494,654.77945 1679.7948,655.87405 1680.2356,656.47915 1680.602,656.41335 1680.6961,657.41025 1680.5926,657.44435 1679.8533,656.82595 1680.2432,659.32375 1680.9033,659.25575 1681.8503,659.86235 1682.3208,660.87855 1683.0778,660.85845 1681.6446,661.33595 1680.7579,663.10875 1679.3982,665.01465 1678.175,665.43605 1675.9131,666.03515 1675.0259,665.91425 z">
      <title id="t139">Huitième circonscription de la Haute-Garonne</title>
      <desc id="d139">Communes de : Aspet, Aurignac, Bagnères-de-Luchon, Barbazan, Boulogne-sur-Gesse, Cazères, Le Fousseret, L'Isle-en-Dodon, Montréjeau, Rieumes, Saint-Béat, Saint-Gaudens, Saint-Martory, Salies-du-Salat</desc>
    </path><path class="circo" id="id-031-09" d="M 1717.6304,598.29275 1717.6693,599.77985 1717.2057,601.21025 1717.3714,601.56555 1718.1348,601.73385 1717.8109,602.73805 1716.6872,602.72055 1716.2993,602.09135 1714.9197,602.89035 1716.0961,604.43025 1716.263,604.73685 1715.6886,605.53605 1715.9351,605.78195 1716.8379,607.06455 1716.4689,608.51685 1716.9337,609.97205 1715.0901,610.17265 1715.3989,611.22295 1715.636,612.42095 1716.443,613.83255 1716.3711,614.64575 1715.9529,615.76275 1714.1639,616.65595 1712.6633,614.78375 1711.6723,614.24215 1709.8602,614.78545 1709.6951,614.41625 1708.6031,614.07725 1708.7039,613.68545 1709.1227,612.99525 1711.4633,610.78895 1711.8163,609.63955 1712.8196,608.44375 1713.0001,607.72555 1712.2188,607.93355 1711.3303,607.06675 1710.2962,607.08535 1710.5708,606.35745 1710.3785,605.19555 1710.6707,604.89955 1709.9297,604.63675 1709.1897,604.91815 1709.4685,602.88965 1710.0917,601.73735 1712.7408,600.92665 1713.056,601.17965 1713.2211,600.87245 1712.7956,599.65635 1712.2157,598.61305 1712.4491,597.84305 1713.949,599.19245 1717.6201,593.72625 1719.4781,593.86775 1720.3632,593.40635 1721.6665,597.09465 1723.2041,597.41655 1723.8454,598.62425 1721.0226,600.01975 1720.6289,599.93885 1720.3961,599.86005 1717.6304,598.29275 z">
      <title id="t140">Neuvième circonscription de la Haute-Garonne</title>
      <desc id="d140">Cantons de : Portet-sur-Garonne, Toulouse IX (partie non comprise dans la 3e circonscription), Toulouse X, Toulouse XI</desc>
    </path><path class="circo" id="id-031-10" d="M 1753.4871,597.92505 1753.3801,595.77245 1752.5039,594.56055 1751.0178,594.17085 1749.6995,594.38505 1749.0647,594.01355 1748.5925,593.89195 1746.8467,592.86195 1746.7489,592.05545 1746.1126,591.54465 1745.9653,591.75295 1744.5055,591.55745 1744.4785,591.45225 1744.1397,591.26325 1742.9114,590.61635 1742.6351,589.99645 1741.5867,589.50005 1740.5173,589.58425 1739.6368,588.35825 1738.6891,589.37485 1738.0003,589.17625 1737.8293,590.27905 1738.4347,590.78435 1738.869,591.88635 1737.452,591.25315 1736.2848,591.45165 1735.5433,591.18135 1734.8798,591.59005 1734.5371,592.70825 1733.7781,593.60335 1733.075,594.91985 1733.2198,595.97305 1732.1296,595.65665 1732.0128,594.93665 1731.0396,594.23495 1729.5843,594.81345 1729.2744,595.82535 1728.7982,595.78755 1726.7886,594.46155 1724.7731,594.65985 1724.8731,595.89955 1724.2112,596.94555 1723.2041,597.41655 1723.8454,598.62425 1721.0226,600.01975 1720.6289,599.93885 1720.3961,599.86005 1718.6289,598.80065 1717.6207,598.28875 1717.6693,599.77985 1717.2057,601.21025 1717.3714,601.56555 1718.1348,601.73385 1717.8109,602.73805 1716.6872,602.72055 1716.2993,602.09135 1714.9197,602.89035 1716.0961,604.43025 1716.263,604.73685 1715.6886,605.53605 1715.9351,605.78195 1716.8379,607.06455 1716.4689,608.51685 1716.9337,609.97205 1717.3883,609.66165 1717.5053,609.94585 1719.3266,610.15305 1720.7497,609.53405 1721.5242,608.64765 1721.7741,609.30455 1721.4268,609.96865 1723.1416,610.65415 1723.5376,611.33445 1723.1805,613.25695 1722.9366,613.56485 1721.8494,613.11615 1721.5317,613.34765 1721.7239,613.68095 1721.9498,614.24815 1721.6152,615.77485 1722.3208,616.19915 1723.1127,617.63745 1725.3108,618.71625 1726.0436,619.61675 1725.5006,620.18035 1724.3541,620.41225 1725.2729,621.67925 1725.6175,621.89355 1726.3916,621.65195 1727.4617,622.23045 1728.2172,622.05555 1727.9802,621.75705 1728.6607,620.91365 1729.0947,619.47415 1730.0941,619.20135 1732.9737,622.35785 1734.3479,623.65645 1732.4,625.59565 1732.9314,626.62975 1732.7691,626.99415 1732.4022,627.14775 1731.7647,626.68735 1731.1512,627.15965 1730.2562,628.86845 1730.3769,629.99555 1730.6956,630.72505 1732.2552,631.03415 1732.7042,631.68995 1735.3334,632.45985 1735.1581,634.43345 1735.95,634.37875 1736.8752,633.61545 1736.9182,632.81365 1736.4778,631.78065 1738.4333,629.26875 1739.6919,630.17825 1740.3998,629.88705 1740.7847,629.22735 1741.2412,628.72085 1741.9111,627.42915 1741.0176,626.76075 1743.0142,625.50485 1743.7323,625.21895 1742.7514,623.62435 1742.9186,623.27045 1743.0655,622.89895 1742.6233,622.23745 1743.6877,622.68495 1744.6336,622.00945 1744.8603,621.31065 1746.8197,622.76995 1747.1815,622.11765 1747.8957,621.81425 1748.9192,622.35055 1750.3227,622.24095 1750.5091,621.46415 1749.605,620.16315 1749.5223,618.15505 1749.9323,617.46055 1749.5616,616.38225 1751.3958,616.02525 1751.0142,615.54255 1750.579,614.91535 1750.6442,614.15435 1751.4513,613.32425 1752.6092,613.44185 1752.9601,612.75535 1753.1567,612.13435 1752.8276,611.59155 1753.9752,610.31505 1755.3768,611.07535 1755.4656,611.85975 1757.475,613.73085 1757.8565,614.38255 1757.3014,615.80075 1757.982,616.09965 1758.587,615.70495 1758.9203,615.31305 1758.6335,615.04335 1759.402,613.71365 1759.4797,612.94595 1760.6115,612.61365 1761.7176,613.01365 1762.6213,612.40355 1763.0958,612.73845 1763.2804,613.62355 1763.8556,613.15385 1765.4,614.30245 1767.2484,613.64215 1767.9553,612.68675 1768.6246,613.10495 1769.347,612.80545 1769.442,612.41885 1768.6534,611.08265 1768.0786,610.00905 1767.4448,609.60505 1767.8203,607.19905 1768.3102,606.56275 1769.5076,606.31715 1770.2818,605.36335 1769.898,604.81875 1770.2651,603.89185 1769.7913,602.41075 1769.4868,603.47645 1769.1499,603.67565 1768.2957,602.90685 1767.5629,602.62605 1767.2346,602.84205 1767.4593,605.19565 1767.2461,605.53785 1767.0119,605.86955 1765.0986,606.15115 1764.2473,605.28735 1762.4433,604.38745 1762.1401,604.81105 1759.4252,603.08915 1759.1285,603.51915 1756.775,601.79515 1756.6328,601.70645 1755.4528,599.80025 1755.3896,599.41705 1756.0119,598.96605 1754.6371,598.40965 1753.4871,597.92505 z">
      <title id="t141">Dixième circonscription de la Haute-Garonne</title>
      <desc id="d141">Cantons de : Caraman, Castanet-Tolosan, Lanta, Montgiscard, Nailloux, Revel, Villefranche-de-Lauragais</desc>
    </path></svg>