<svg xmlns="http://www.w3.org/2000/svg" version="1.1" xmlns:xlink="http://www.w3.org/1999/xlink" xmlns:svgjs="http://svgjs.dev/svgjs" viewBox="0 0 136.56359999999995 143.65429999999992"><path class="circo" id="id-031-01" d="M19.465999999999894 20.81646999999998L21.737699999999904 22.388919999999985L23.294200000000046 21.257349999999974L24.67229999999995 20.82141999999999L25.27240000000006 23.45126999999991L27.429799999999886 23.590849999999932L29.354000000000042 23.547939999999926L30.272199999999884 24.646529999999984L32.42949999999996 25.321199999999976L32.50610000000006 23.80709999999999L33.86369999999988 23.142920000000004L34.3614 27.00081L34.432199999999966 28.004050000000007L33.765499999999975 27.89420999999993L33.73669999999993 30.353959999999915L33.528499999999894 30.725799999999936L33.716699999999946 31.16229999999996L33.393299999999954 32.72998999999993L33.42640000000006 34.86344999999994L34.44479999999999 35.03983999999991L35.204299999999876 35.030509999999936L35.97350000000006 35.749419999999986L36.678100000000086 37.37487999999996L35.20710000000008 37.413209999999935L33.278499999999894 37.434189999999944L31.82289999999989 37.76121999999998L29.23610000000008 36.61191999999994L27.790199999999913 37.38268999999991L27.124199999999973 38.089399999999955L26.961399999999912 39.224399999999946L24.71620000000007 39.18723L21.719800000000077 37.925790000000006L19.617999999999938 37.48852999999997L20.232799999999997 34.41723999999999L21.980099999999993 32.87357999999995L18.862300000000005 30.987809999999968L14.824399999999969 32.46187999999995L13.198899999999867 31.025379999999927L12.498299999999972 31.21780000000001L9.036499999999933 29.77272999999991L7.975999999999885 27.83852999999999L6.613699999999881 27.273699999999963L4.535599999999931 27.972579999999994L0.9227000000000771 27.222599999999943L6.067900000000009 23.54088999999999L6.916299999999865 22.25771999999995L11.133499999999913 20.12862999999993L10.942600000000084 17.792449999999917L12.694099999999935 21.29528999999991L12.875099999999975 23.651299999999992L16.36279999999988 22.652829999999994L18.62760000000003 24.551369999999906L20.76559999999995 24.462130000000002L20.87110000000007 24.01819999999998L19.465999999999894 20.81646999999998z">
      <title id="t132">Première circonscription de la Haute-Garonne</title>
      <desc id="d132">Cantons de : Blagnac, Toulouse IV, Toulouse V, Toulouse XIII (moins la commune de Colomiers), Commune de Toulouse (partie comprise dans le canton de Toulouse XIV)</desc>
    </path><path class="circo" id="id-031-04" d="M22.2346 49.59759999999994L23.216300000000047 48.66567999999995L20.839099999999917 47.29192999999998L21.87169999999992 45.13023999999996L21.64429999999993 42.96434999999997L23.232099999999946 41.226L21.26019999999994 40.29007999999999L21.40190000000007 38.90946999999994L19.63409999999999 37.386979999999994L21.7358999999999 37.82422999999994L24.73219999999992 39.085669999999936L26.977499999999964 39.12284999999997L27.140300000000025 37.98784999999998L27.80619999999999 37.28113999999994L29.252299999999877 36.51035999999999L31.838999999999942 37.659670000000006L33.29449999999997 37.332629999999995L36.69419999999991 37.27332000000001L38.562999999999874 36.66444000000001L39.84519999999998 37.19457L41.32330000000002 37.112379999999916L37.768800000000056 38.664429999999925L37.74739999999997 39.66327000000001L35.95769999999993 39.29733999999996L35.837600000000066 38.31241L34.79039999999986 38.28323L33.46100000000001 38.62819999999999L32.09529999999995 41.74716999999998L25.094800000000077 52.17080999999996L22.2346 49.59759999999994z">
      <title id="t135">Quatrième circonscription de la Haute-Garonne</title>
      <desc id="d135">Cantons de : Toulouse I, Toulouse III, Toulouse XII</desc>
    </path><path class="circo" id="id-031-02" d="M105.15239999999994 25.87360000000001L103.64570000000003 25.378499999999917L103.9366 25.617999999999938L103.86169999999993 26.741899999999987L102.16380000000004 26.71289999999999L101.99199999999996 27.456299999999942L102.40550000000007 28.52069999999992L100.31680000000006 27.333099999999945L99.2548999999999 27.79079999999999L97.8409999999999 26.348499999999945L97.91190000000006 25.947400000000016L95.93720000000008 25.025300000000016L95.50350000000003 26.643599999999992L95.81459999999993 26.88029999999992L95.28710000000001 27.908699999999953L95.53250000000003 28.650999999999954L94.88319999999999 30.04519999999991L94.61850000000004 30.664499999999975L93.75869999999986 31.122299999999996L92.93709999999987 31.653500000000008L93.29060000000004 32.36789999999996L95.19789999999989 32.863399999999956L94.42409999999995 32.99919999999997L93.56790000000001 33.815099999999916L92.46440000000007 33.4298L91.52219999999988 33.96109999999999L90.35660000000007 32.863899999999944L89.1081999999999 33.90129999999999L88.33199999999988 34.73009999999999L88.74109999999996 37.12289999999996L87.9659999999999 37.16599999999994L87.29359999999997 36.88799999999992L86.31359999999995 37.20729999999992L85.94409999999993 36.35489999999993L85.54070000000002 35.97789999999998L85.14239999999995 35.9828L84.60840000000007 35.89029999999991L84.5909999999999 34.771499999999946L84.76060000000007 33.94939999999997L84.66190000000006 33.720500000000015L84.77109999999993 33.525499999999965L84.78620000000001 32.23559999999998L85.13580000000002 32.293199999999956L85.09870000000001 31.767099999999914L85.90269999999987 31.661299999999983L86.55520000000001 30.651399999999967L86.57809999999995 30.2586L87.70170000000007 29.887699999999995L87.92380000000003 28.778099999999995L86.69039999999995 27.898799999999937L86.49060000000009 27.927099999999996L86.68589999999995 27.068499999999972L86.2811999999999 26.37169999999992L84.6739 25.128299999999967L84.58069999999998 24.731199999999944L84.9342999999999 24.531499999999937L85.50070000000005 24.047199999999975L85.87830000000008 22.969499999999925L86.13819999999987 22.664800000000014L87.30179999999996 22.88029999999992L87.63010000000008 23.106699999999933L88.88709999999992 22.14659999999992L89.61989999999992 22.234199999999987L90.12279999999987 21.653899999999908L89.9985999999999 20.55499999999995L90.56539999999995 19.55289999999991L90.09429999999998 17.91579999999999L89.68910000000005 17.205100000000016L89.69569999999999 16.385899999999992L91.84539999999993 13.483499999999935L92.20609999999988 13.337800000000016L93.01960000000008 14.146399999999971L93.79160000000002 14.19029999999998L94.15059999999994 14.125400000000013L95.26199999999994 12.68119999999999L96.27119999999991 13.04359999999997L97.48790000000008 12.252899999999954L100.62560000000008 14.063199999999938L102.2648999999999 14.245799999999917L102.58480000000009 14.977899999999977L102.03510000000006 16.4307L102.11680000000001 16.822400000000016L102.83770000000004 17.118299999999977L103.19769999999994 18.174800000000005L102.71540000000005 19.974199999999996L103.32169999999996 20.38429999999994L103.53610000000003 21.08159999999998L105.21170000000006 21.838899999999967L106.00450000000001 22.695899999999938L106.36500000000001 22.55009999999993L107.50600000000009 24.135999999999967L107.15030000000002 24.827699999999936L106.35359999999991 24.86519999999996L105.15239999999994 25.87360000000001z">
      <title id="t133">Deuxième circonscription de la Haute-Garonne</title>
      <desc id="d133">Cantons de : Montastruc-la-Conseillère, Toulouse VI, Toulouse VII, Toulouse XV, Commune de Montrabé</desc>
    </path><path class="circo" id="id-031-03" d="M97.8409999999999 26.348499999999945L97.91190000000006 25.947400000000016L95.93720000000008 25.025300000000016L95.50350000000003 26.643599999999992L95.81459999999993 26.88029999999992L95.28710000000001 27.908699999999953L95.53250000000003 28.650999999999954L94.88319999999999 30.04519999999991L94.61850000000004 30.664499999999975L93.75869999999986 31.122299999999996L92.93709999999987 31.653500000000008L93.29060000000004 32.36789999999996L95.19789999999989 32.863399999999956L94.42409999999995 32.99919999999997L93.56790000000001 33.815099999999916L92.46440000000007 33.4298L91.52219999999988 33.96109999999999L90.35660000000007 32.863899999999944L89.1081999999999 33.90129999999999L88.33199999999988 34.73009999999999L88.74109999999996 37.12289999999996L86.87709999999993 37.93679999999995L86.86590000000001 38.4606L85.92740000000003 38.26869999999997L85.86439999999993 37.752200000000016L85.3152 37.73689999999999L84.61809999999991 37.91779999999994L83.90190000000007 39.55340000000001L85.75990000000002 39.69489999999996L86.64499999999998 39.233499999999935L87.94830000000002 42.92179999999996L89.4858999999999 43.24369999999999L90.49299999999994 42.772699999999986L91.1549 41.72669999999994L91.05490000000009 40.486999999999966L93.07040000000006 40.28869999999995L95.07999999999993 41.61469999999997L95.55619999999999 41.65249999999992L95.86609999999996 40.64059999999995L97.32140000000004 40.06209999999999L98.29459999999995 40.76379999999995L98.41139999999996 41.483799999999974L99.50160000000005 41.800199999999904L99.35680000000002 40.74699999999996L100.05989999999997 39.43049999999994L100.81889999999999 38.53539999999998L101.16159999999991 37.41719999999998L101.82510000000002 37.00849999999991L102.56659999999988 37.27879999999993L103.73379999999997 37.080299999999966L105.15079999999989 37.713499999999954L104.7165 36.61149999999998L104.11110000000008 36.106199999999944L104.2820999999999 35.00339999999994L104.97090000000003 35.202L105.91859999999997 34.18539999999996L106.25139999999988 33.1028L107.19550000000004 31.838700000000017L109.02440000000001 31.123699999999985L109.40959999999995 31.0308L109.54999999999995 30.257799999999975L108.69029999999998 28.96449999999993L108.71800000000007 27.41339999999991L103.86169999999993 26.741899999999987L102.16380000000004 26.71289999999999L101.99199999999996 27.456299999999942L102.40550000000007 28.52069999999992L100.31680000000006 27.333099999999945L99.2548999999999 27.79079999999999L97.8409999999999 26.348499999999945z">
      <title id="t134">Troisième circonscription de la Haute-Garonne</title>
      <desc id="d134">Cantons de : Toulouse II, Toulouse VIII (moins la commune de Montrabé), Toulouse IX (moins la commune de Ramonville-Saint-Agne et la partie de la commune de Toulouse située à l'ouest du canal du Midi), Verfeil</desc>
    </path><path class="circo" id="id-031-05" d="M72.87470000000008 14.301399999999944L71.41219999999998 14.717899999999986L71.08369999999991 14.084899999999948L70.14179999999988 14.438499999999976L70.38979999999992 15.202499999999986L71.03690000000006 15.577299999999923L70.77649999999994 15.886099999999942L65.54289999999992 18.015199999999936L65.31050000000005 17.682500000000005L65.05510000000004 16.943399999999997L65.98329999999987 16.188999999999965L65.79590000000007 15.421699999999987L63.02800000000002 14.974199999999996L62.360999999999876 13.758899999999926L61.311500000000024 13.237199999999916L60.83320000000003 12.117099999999937L59.74759999999992 11.649499999999989L59.550500000000056 12.437799999999925L58.131399999999985 13.198800000000006L57.23869999999988 14.538000000000011L57.125299999999925 15.892099999999914L57.64409999999998 17.37289999999996L57.30970000000002 17.610799999999927L57.29539999999997 18.426999999999907L58.25080000000003 19.13939999999991L59.27880000000005 19.58319999999992L59.357099999999946 22.242700000000013L57.55529999999999 23.148500000000013L57.047199999999975 26.08839999999998L57.621599999999944 26.20589999999993L58.39059999999995 26.12939999999992L58.73049999999989 26.31809999999996L58.646600000000035 26.698999999999955L60.093200000000024 26.967399999999998L60.75319999999988 27.8682L61.741399999999885 28.38889999999992L62.447799999999916 29.673400000000015L63.0797 30.02049999999997L64.69170000000008 28.93119999999999L65.2503999999999 27.95259999999996L65.46669999999995 27.449299999999994L65.98119999999994 28.52839999999992L66.06899999999996 30.888199999999983L66.76389999999992 31.279499999999985L66.79590000000007 31.67739999999992L67.56330000000003 31.883399999999938L70.26150000000007 29.952699999999936L70.70640000000003 29.27979999999991L72.91789999999992 28.163299999999936L72.81780000000003 26.938199999999938L73.73630000000003 28.775099999999952L73.83120000000008 30.010599999999954L75.66020000000003 29.486999999999966L76.8478 30.482599999999934L77.96900000000005 30.435799999999972L78.02430000000004 30.202999999999975L77.28749999999991 28.524L78.47879999999986 29.34859999999992L79.29500000000007 28.755199999999945L80.01769999999988 28.526599999999917L80.3324 29.90569999999991L81.46370000000002 29.978899999999953L82.4728 29.956399999999917L82.95429999999988 30.532499999999914L84.08559999999989 30.886300000000006L84.12580000000003 30.09229999999991L84.83770000000004 29.743999999999915L85.09870000000001 31.767099999999914L85.90269999999987 31.661299999999983L86.55520000000001 30.651399999999967L86.57809999999995 30.2586L87.70170000000007 29.887699999999995L87.92380000000003 28.778099999999995L86.69039999999995 27.898799999999937L86.49060000000009 27.927099999999996L86.68589999999995 27.068499999999972L86.2811999999999 26.37169999999992L84.6739 25.128299999999967L84.58069999999998 24.731199999999944L84.9342999999999 24.531499999999937L85.50070000000005 24.047199999999975L85.87830000000008 22.969499999999925L86.13819999999987 22.664800000000014L87.30179999999996 22.88029999999992L87.63010000000008 23.106699999999933L88.88709999999992 22.14659999999992L89.61989999999992 22.234199999999987L90.12279999999987 21.653899999999908L89.9985999999999 20.55499999999995L90.56539999999995 19.55289999999991L90.09429999999998 17.91579999999999L89.68910000000005 17.205100000000016L89.69569999999999 16.385899999999992L91.84539999999993 13.483499999999935L92.20609999999988 13.337800000000016L93.01960000000008 14.146399999999971L93.79160000000002 14.19029999999998L94.15059999999994 14.125400000000013L95.26199999999994 12.68119999999999L96.27119999999991 13.04359999999997L97.48790000000008 12.252899999999954L97.87729999999988 9.19380000000001L97.71249999999986 9.14269999999999L96.12750000000005 8.526200000000017L94.63999999999987 6.205299999999966L94.65930000000003 5.928899999999999L95.39840000000004 5.805099999999925L94.75229999999988 5.345699999999965L95.00669999999991 4.6159999999999854L94.26919999999996 3.6826999999999543L93.99720000000002 2.5218999999999596L94.6851999999999 0.32789999999999964L92.82999999999993 0L92.6063999999999 1.1268999999999778L91.94010000000003 2.064300000000003L91.24919999999997 1.785199999999918L91.16570000000002 2.5237999999999374L89.67329999999993 3.8357999999999493L89.26980000000003 3.814799999999991L88.91349999999989 2.27679999999998L88.00250000000005 1.5106999999999289L87.39640000000009 2.7860999999999194L86.40539999999987 4.108099999999922L85.61590000000001 5.989599999999996L85.51559999999995 5.613799999999969L84.09179999999992 6.092099999999959L82.99790000000007 5.80619999999999L82.1893 4.514799999999923L81.43439999999987 4.324199999999905L80.69419999999991 4.653500000000008L78.49790000000007 3.7188999999999623L77.71000000000004 4.549599999999941L77.7331999999999 5.31129999999996L77.14689999999996 5.800199999999904L78.18219999999997 7.432899999999904L77.96010000000001 8.092199999999934L75.95749999999998 8.238299999999981L74.60719999999992 7.433999999999969L72.91920000000005 8.30219999999997L72.43209999999999 8.903599999999983L73.21550000000002 9.10209999999995L74.18550000000005 10.373199999999997L75.64699999999993 9.860500000000002L77.58289999999988 9.984100000000012L78.05989999999997 12.24899999999991L77.00999999999999 12.418299999999931L76.64249999999993 13.035799999999995L75.19380000000001 13.273199999999974L73.94630000000006 14.177599999999984L73.11840000000007 14.23989999999992L72.87470000000008 14.301399999999944z">
      <title id="t136">Cinquième circonscription de la Haute-Garonne</title>
      <desc id="d136">Cantons de : Fronton, Grenade, Toulouse XIV (partie non comprise dans la 1re circonscription), Villemur-sur-Tarn</desc>
    </path><path class="circo" id="id-031-06" d="M55.40059999999994 30.22969999999998L53.81680000000006 30.54329999999993L52.77060000000006 29.433099999999968L52.38779999999997 29.469999999999914L52.287399999999934 29.118099999999913L51.62339999999995 28.86259999999993L51.82040000000006 28.554199999999923L51.89580000000001 27.804300000000012L52.46350000000007 27.30989999999997L52.54860000000008 26.562999999999988L53.041299999999865 26.016399999999976L52.22569999999996 25.484100000000012L50.91859999999997 24.611599999999953L49.78449999999998 24.81669999999997L49.52600000000007 24.516199999999913L49.196500000000015 23.78449999999998L49.447099999999864 23.47109999999998L48.47419999999988 22.786299999999983L46.25980000000004 20.888799999999947L46.79259999999999 20.880499999999984L45.29919999999993 19.06829999999991L44.57109999999989 19.036299999999983L44.89709999999991 18.823399999999992L43.979699999999866 17.59579999999994L43.54489999999987 15.763100000000009L43.721700000000055 15.532699999999977L44.40149999999994 15.478999999999928L45.04500000000007 15.856699999999933L45.969100000000026 15.399400000000014L46.400499999999965 14.79480000000001L47.48569999999995 14.468099999999936L50.58199999999988 13.919399999999996L51.27999999999997 14.332499999999982L52.4828 14.441599999999994L54.437599999999975 12.454499999999939L54.537599999999884 12.352300000000014L55.71049999999991 13.317399999999907L56.45530000000008 13.49129999999991L56.64190000000008 13.826099999999997L56.386600000000044 14.11099999999999L56.88619999999992 14.682099999999991L57.23869999999988 14.538000000000011L57.125299999999925 15.892099999999914L57.64409999999998 17.37289999999996L57.30970000000002 17.610799999999927L57.29539999999997 18.426999999999907L58.25080000000003 19.13939999999991L59.27880000000005 19.58319999999992L59.357099999999946 22.242700000000013L57.55529999999999 23.148500000000013L57.047199999999975 26.08839999999998L57.621599999999944 26.20589999999993L58.39059999999995 26.12939999999992L58.73049999999989 26.31809999999996L58.646600000000035 26.698999999999955L60.093200000000024 26.967399999999998L60.75319999999988 27.8682L61.741399999999885 28.38889999999992L62.447799999999916 29.673400000000015L63.0797 30.02049999999997L64.69170000000008 28.93119999999999L65.2503999999999 27.95259999999996L65.46669999999995 27.449299999999994L65.98119999999994 28.52839999999992L66.06899999999996 30.888199999999983L66.76389999999992 31.279499999999985L66.79590000000007 31.67739999999992L67.56330000000003 31.883399999999938L69.45789999999988 32.276700000000005L70.54770000000008 31.910199999999918L71.26209999999992 32.20639999999992L71.81819999999993 33.220699999999965L73.63359999999989 33.97849999999994L74.00099999999998 33.877599999999916L74.85339999999997 34.6309L76.97090000000003 33.85789999999997L78.60590000000002 34.84679999999992L77.68959999999993 35.65629999999999L77.36719999999991 37.266899999999964L78.29430000000002 38.06529999999998L78.21990000000005 38.78929999999991L79.2539999999999 39.28009999999995L78.42139999999995 40.19169999999997L78.54060000000004 41.327499999999986L77.9991 42.46109999999999L77.59570000000008 43.043699999999944L75.72289999999998 42.36539999999991L75.38670000000002 42.58359999999993L74.33989999999994 43.12639999999999L73.89769999999999 45.0249L73.84709999999995 45.22019999999998L73.44209999999998 45.84719999999993L72.75849999999991 45.59609999999998L72.07400000000007 46.47289999999998L71.64380000000006 47.28519999999992L70.52320000000009 47.67049999999995L68.55729999999994 47.278299999999945L68.21010000000001 48.87659999999994L67.10670000000005 50.056100000000015L69.09269999999992 50.488399999999956L70.81369999999993 51.59749999999997L70.47949999999992 52.26580000000001L69.74399999999991 52.49389999999994L66.75729999999999 51.81529999999998L66.86210000000005 49.88130000000001L65.80040000000008 50.420999999999935L64.63840000000005 50.28509999999994L64.0797 50.85239999999999L64.20730000000003 51.14999999999998L63.683899999999994 51.50669999999991L63.35480000000007 52.18799999999999L64.14249999999993 52.96359999999993L63.711700000000064 54.843099999999936L63.95679999999993 55.14099999999996L63.54809999999998 56.04699999999991L62.38940000000002 55.69439999999997L61.224300000000085 56.02819999999997L60.343200000000024 56.50720000000001L60.13869999999997 56.20219999999995L59.04469999999992 56.153299999999945L58.67920000000004 55.523399999999924L58.876399999999876 54.80219999999997L58.318700000000035 53.82069999999999L55.66390000000001 53.47539999999992L54.446699999999964 52.52260000000001L54.0471 52.63349999999991L50.64319999999998 51.21100000000001L50.32529999999997 51.06290000000001L51.824299999999994 50.79259999999999L52.497699999999895 49.03379999999993L53.652000000000044 49.001199999999926L51.95360000000005 47.3732L52.14589999999998 46.60259999999994L53.26080000000002 46.75019999999995L53.95159999999987 46.36399999999992L53.185199999999895 45.45740000000001L51.75350000000003 44.70869999999991L52.52389999999991 44.90909999999997L53.821500000000015 44.07929999999999L54.61120000000005 44.07060000000001L55.22919999999999 44.53789999999992L55.70849999999996 45.623899999999935L56.43939999999998 45.18509999999992L57.50909999999999 44.17789999999991L56.99090000000001 42.86669999999992L58.10269999999991 43.130499999999984L60.75330000000008 42.85669999999993L61.38969999999995 41.080799999999954L61.159599999999955 40.77779999999996L62.21460000000002 41.221000000000004L63.33240000000001 41.00619999999992L64.40100000000007 41.40719999999999L64.48250000000007 38.27499999999998L63.47419999999988 37.13079999999991L62.83330000000001 36.13549999999998L62.02739999999994 36.98149999999998L60.94239999999991 37.18319999999994L59.577800000000025 35.28899999999999L59.927200000000084 33.61289999999997L59.229499999999916 32.8809L58.556100000000015 32.78269999999998L57.947200000000066 33.18309999999997L57.221000000000004 33.120199999999954L57.270500000000084 33.478399999999965L55.12259999999992 32.601999999999975L55.154399999999896 31.86629999999991L56.07420000000002 30.67879999999991L55.40059999999994 30.22969999999998z">
      <title id="t137">Sixième circonscription de la Haute-Garonne</title>
      <desc id="d137">Cantons de : Cadours, Léguevin, Saint-Lys, Communes de : Colomiers, Tournefeuille</desc>
    </path><path class="circo" id="id-031-07" d="M87.89699999999993 61.601999999999975L88.23160000000007 60.07529999999997L88.00569999999993 59.50810000000001L87.81349999999998 59.174800000000005L88.13120000000004 58.94329999999991L89.21839999999997 59.39199999999994L89.46229999999991 59.08409999999992L89.81940000000009 57.16159999999991L89.4233999999999 56.48129999999992L87.70859999999993 55.795799999999986L88.05590000000007 55.13169999999991L87.80600000000004 54.47479999999996L87.03150000000005 55.36119999999994L85.60840000000007 55.98019999999997L83.78710000000001 55.77299999999991L83.67010000000005 55.48879999999997L83.21550000000002 55.79919999999993L81.37189999999987 55.99979999999994L81.68069999999989 57.05009999999993L81.91779999999994 58.24809999999991L82.72479999999996 59.65969999999993L82.65290000000005 60.47289999999998L82.23469999999998 61.58989999999994L80.44569999999999 62.48309999999992L78.94509999999991 60.610900000000015L77.95409999999993 60.0693L76.14200000000005 60.61259999999993L75.97689999999989 60.24339999999995L74.88490000000002 59.90440000000001L74.98569999999995 59.51259999999991L75.40449999999987 58.822400000000016L77.74509999999987 56.61609999999996L78.09809999999993 55.466699999999946L79.10140000000001 54.27089999999998L79.28189999999995 53.55269999999996L78.50060000000008 53.76069999999993L77.61210000000005 52.89389999999992L76.57799999999997 52.91249999999991L76.85259999999994 52.18459999999993L76.6603 51.022699999999986L76.95249999999987 50.72669999999994L76.21149999999989 50.46389999999997L75.47149999999988 50.74529999999993L75.75029999999992 48.71679999999992L76.37349999999992 47.56449999999995L79.02260000000001 46.753799999999956L79.33780000000002 47.0068L79.50289999999995 46.69959999999992L79.0773999999999 45.483499999999935L78.49749999999995 44.440200000000004L78.73090000000002 43.67019999999991L79.24569999999994 43.181499999999915L77.9991 42.46109999999999L77.59570000000008 43.043699999999944L75.72289999999998 42.36539999999991L75.38670000000002 42.58359999999993L74.33989999999994 43.12639999999999L73.89769999999999 45.0249L73.84709999999995 45.22019999999998L73.44209999999998 45.84719999999993L72.75849999999991 45.59609999999998L72.07400000000007 46.47289999999998L71.64380000000006 47.28519999999992L70.52320000000009 47.67049999999995L68.55729999999994 47.278299999999945L68.21010000000001 48.87659999999994L67.10670000000005 50.056100000000015L69.09269999999992 50.488399999999956L70.81369999999993 51.59749999999997L70.47949999999992 52.26580000000001L69.74399999999991 52.49389999999994L66.75729999999999 51.81529999999998L66.86210000000005 49.88130000000001L65.80040000000008 50.420999999999935L64.63840000000005 50.28509999999994L64.0797 50.85239999999999L64.20730000000003 51.14999999999998L63.683899999999994 51.50669999999991L63.35480000000007 52.18799999999999L64.14249999999993 52.96359999999993L63.711700000000064 54.843099999999936L63.95679999999993 55.14099999999996L63.54809999999998 56.04699999999991L64.60979999999995 57.17199999999991L63.75559999999996 58.97269999999992L64.08050000000003 60.108799999999974L63.75630000000001 60.84370000000001L66.01199999999994 61.92399999999998L65.13110000000006 62.67660000000001L65.31549999999993 63.78069999999991L62.14670000000001 66.0125999999999L61.623800000000074 67.06409999999994L60.50949999999989 67.10379999999998L59.94049999999993 66.61429999999996L58.89509999999996 67.5815L58.54770000000008 68.5815L59.69889999999987 68.47439999999995L62.081500000000005 69.7772L60.99090000000001 70.09389999999996L60.49090000000001 70.66699999999992L61.58680000000004 70.5815L63.12869999999998 71.53909999999996L63.45640000000003 72.62879999999996L62.91300000000001 73.6828999999999L61.61239999999998 74.71969999999999L60.42280000000005 77.17629999999997L60.037900000000036 77.18629999999996L59.78939999999989 76.4538L59.41759999999999 76.35329999999999L58.41339999999991 76.9106999999999L56.99350000000004 75.43409999999994L54.671800000000076 78.42809999999997L55.82159999999999 80.03509999999994L57.97669999999994 81.00889999999993L58.85069999999996 81.43739999999991L58.76839999999993 82.1594L57.69990000000007 82.52589999999998L57.36259999999993 83.60119999999995L56.64239999999995 83.82740000000001L56.12290000000007 84.09789999999998L56.156299999999874 85.9719L56.39650000000006 87.35789999999997L57.81410000000005 86.8143L59.32569999999987 87.14119999999991L59.53189999999995 85.77589999999998L60.953899999999976 85.75289999999995L61.40100000000007 87.17949999999996L61.73440000000005 87.3635999999999L61.746799999999894 88.12779999999998L62.452999999999975 88.25609999999995L63.0157999999999 89.60719999999992L62.144000000000005 90.12639999999999L61.97550000000001 90.83569999999997L62.33050000000003 91.46690000000001L64.32050000000004 93.279L65.37079999999992 94.48079999999993L65.57929999999988 95.16319999999996L65.34739999999988 95.43459999999993L66.46049999999991 97.8768L68.3255999999999 97.62659999999994L69.71460000000002 97.21029999999996L69.61969999999997 95.3084L71.16589999999997 95.04399999999998L71.4052999999999 94.72559999999999L72.12120000000004 93.50929999999994L73.18820000000005 93.6078L70.97700000000009 91.3483L70.73630000000003 90.60320000000002L69.16439999999989 90.65469999999993L67.64989999999989 90.41789999999992L66.47469999999998 90.17399999999998L65.91660000000002 89.64879999999994L65.89580000000001 88.86709999999994L66.81439999999998 87.61839999999995L67.03449999999998 86.05819999999994L68.21969999999988 85.86590000000001L68.65460000000007 86.53379999999993L68.98360000000002 86.47709999999995L70.2491 85.6626L70.0969 85.58100000000002L70.97080000000005 85.10640000000001L72.64120000000003 85.83690000000001L73.44339999999988 85.1807L74.19879999999989 85.7539999999999L74.86009999999987 85.63810000000001L75.47450000000003 84.9348L75.32209999999986 84.05579999999998L77.77409999999986 83.0702L78.92460000000005 83.3433L79.75420000000008 81.9819L79.94939999999997 80.94509999999991L79.32410000000004 80.08029999999997L79.16679999999997 79.3519L78.50209999999993 79.68579999999997L77.42660000000001 79.38289999999995L77.06310000000008 79.55639999999994L76.07729999999992 78.94299999999998L74.52299999999991 78.62L75.50319999999988 77.91239999999993L75.54809999999998 77.51239999999996L72.45659999999998 77.0125999999999L73.06240000000003 76.08359999999993L72.32220000000007 74.27589999999998L73.08960000000002 74.36959999999999L73.59339999999997 73.29949999999997L74.37390000000005 73.22179999999992L74.99450000000002 71.81919999999991L75.61719999999991 71.30149999999992L76.82400000000007 71.1078L79.16429999999991 71.73159999999996L78.54060000000004 72.2165L79.69789999999989 74.21859999999992L81.62249999999995 75.53030000000001L81.69209999999998 75.65599999999995L83.67139999999995 78.07899999999995L82.91419999999994 81.49989999999991L84.13830000000007 82.4724L85.01029999999992 82.73619999999994L85.88229999999999 83.16179999999997L87.30079999999998 83.4719L87.87480000000005 82.60559999999998L88.14269999999988 81.85529999999994L88.85429999999997 81.4964L90.29719999999998 82.14459999999997L90.28749999999991 81.68719999999996L90.28849999999989 80.91149999999993L89.3155999999999 80.29079999999999L90.34199999999987 78.80989999999997L89.76039999999989 78.21089999999992L89.18820000000005 77.94569999999999L89.33220000000006 77.26029999999992L88.99489999999992 76.58309999999994L89.53539999999998 75.61590000000001L89.63629999999989 73.7618L90.5184999999999 74.41210000000001L90.94669999999996 73.79779999999994L91.2645 73.99569999999994L91.30669999999986 74.73759999999993L91.4559999999999 76.22849999999994L93.50409999999988 75.71019999999999L93.5 75.82579999999996L93.81549999999993 75.6268L94.07479999999987 75.89509999999996L94.80719999999997 77.1997L95.51870000000008 78.12559999999996L95.83480000000009 77.89499999999998L96.13040000000001 77.17139999999995L95.92889999999989 76.04179999999997L96.65869999999995 75.82269999999994L96.53800000000001 74.69560000000001L97.43299999999999 72.98680000000002L98.04649999999992 72.5145L98.68399999999997 72.97489999999993L99.05089999999996 72.82129999999995L99.21319999999992 72.4568999999999L98.68180000000007 71.42279999999994L100.62969999999996 69.48359999999991L99.25549999999998 68.18499999999995L96.3759 65.02850000000001L95.37650000000008 65.30129999999997L94.94249999999988 66.74079999999992L94.26199999999994 67.58420000000001L94.49900000000002 67.8827L93.74350000000004 68.05759999999998L92.6733999999999 67.47910000000002L91.89930000000004 67.72069999999997L91.55469999999991 67.50639999999999L90.63589999999999 66.23939999999993L91.78240000000005 66.00749999999994L92.32539999999995 65.44389999999999L91.59259999999995 64.5433999999999L89.39449999999988 63.464599999999905L88.60259999999994 62.02629999999999L87.89699999999993 61.601999999999975z">
      <title id="t138">Septième circonscription de la Haute-Garonne</title>
      <desc id="d138">Cantons de : Auterive, Carbonne, Cintegabelle, Muret, Montesquieu-Volvestre, Rieux, Tournefeuille (moins la commune de Tournefeuille)</desc>
    </path><path class="circo" id="id-031-08" d="M41.30770000000007 111.7414L40.030500000000075 112.58819999999992L36.82359999999994 112.77649999999994L37.713399999999865 115.33719999999994L37.084299999999985 116.25429999999994L35.965999999999894 116.3003L35.31490000000008 116.6991999999999L34.1739 116.56110000000001L33.918499999999995 116.85219999999993L32.72399999999993 117.68499999999995L33.365800000000036 119.39199999999994L33.947999999999865 119.91879999999992L34.10110000000009 120.69219999999996L33.452999999999975 122.54769999999996L33.80899999999997 123.25159999999994L34.55400000000009 123.50559999999996L34.79639999999995 124.96859999999992L35.546100000000024 126.63979999999992L35.41210000000001 128.09799999999996L33.446899999999914 127.80149999999992L30.58199999999988 126.3866999999999L28.694600000000037 126.88919999999996L25.337999999999965 125.48519999999996L24.539999999999964 124.61829999999998L22.667899999999918 123.96119999999996L21.260499999999865 124.67629999999997L20.076000000000022 124.69129999999996L20.144999999999982 125.48619999999994L18.773699999999963 126.31319999999994L18.480099999999993 126.99869999999999L18.73219999999992 127.75759999999991L19.370599999999968 128.235L18.95900000000006 129.32089999999994L19.40449999999987 130.6576L18.556299999999965 131.26329999999996L17.90059999999994 132.50829999999996L17.241600000000062 133.0385L18.91210000000001 134.00019999999995L17.01299999999992 136.31079999999997L18.544200000000046 136.61799999999994L19.416799999999967 138.8764L19.954299999999876 139.48709999999994L19.836299999999937 140.65929999999992L20.298299999999927 141.7747999999999L19.678499999999985 143.65429999999992L15.292599999999993 143.15099999999995L13.176699999999983 142.01149999999996L12.93529999999987 142.1563L12.434399999999869 143.20569999999998L7.472500000000082 142.3433L7.197099999999864 142.35399999999993L6.333599999999933 143.61609999999996L4.384999999999991 143.45229999999992L3.063899999999876 142.6549L3.5153000000000247 142.0170999999999L3.401100000000042 141.26009999999997L0.8153999999999542 138.82039999999995L1.7357999999999265 138.11799999999994L1.687599999999975 137.32619999999997L1.8494000000000597 135.7704L1.1458999999999833 134.44629999999995L1.213700000000017 133.3283L1.724999999999909 132.30629999999996L1.8218999999999141 132.22079999999994L1.84699999999998 130.8016L1.5425000000000182 130.5007999999999L1.2296999999998661 129.039L1.4524999999998727 128.3123999999999L1.906099999999924 126.44779999999992L2.192700000000059 125.66049999999996L1.57549999999992 125.08049999999992L2.6325999999999112 124.20459999999991L2.5647999999998774 123.05589999999995L3.0305000000000746 122.00789999999995L4.894999999999982 122.43579999999997L5.297599999999875 123.10529999999994L5.687200000000075 123.0607L7.126700000000028 123.24789999999996L7.860599999999977 123.97809999999993L8.961900000000014 123.58889999999997L9.548900000000003 124.1132L10.254400000000032 124.03599999999994L11.40989999999988 122.86829999999998L11.55639999999994 122.18649999999991L11.718399999999974 121.4615L12.236499999999978 120.13969999999995L12.80009999999993 118.49279999999999L13.072499999999991 118.31529999999998L13.250499999999874 117.39099999999996L13.471399999999903 116.23230000000001L13.93529999999987 115.53710000000001L14.761299999999892 115.21119999999996L15.719000000000051 114.62639999999999L16.63729999999987 113.37529999999992L17.024799999999914 113.34589999999992L17.362100000000055 112.36299999999994L17.155899999999974 112.0827999999999L16.545100000000048 111.54089999999997L16.476599999999962 111.48029999999994L15.16579999999999 111.07359999999994L14.63650000000007 109.95949999999993L14.813899999999876 109.69279999999992L14.428100000000086 109.23199999999997L15.533999999999878 108.9402L15.784200000000055 107.9017L15.582499999999982 107.60129999999992L14.791099999999915 106.58249999999998L14.856399999999894 105.49680000000001L14.785799999999881 105.3682L14.139499999999998 103.91679999999997L12.879200000000083 103.7491L12.829999999999927 104.84399999999994L12.760600000000068 105.26979999999992L12.243999999999915 105.14760000000001L12.161499999999933 105.51839999999993L10.690900000000056 105.45909999999992L10.16879999999992 106.00040000000001L8.854000000000042 107.43649999999991L8.527299999999968 107.75220000000002L7.8840000000000146 107.57560000000001L7.2461000000000695 106.83319999999992L7.90949999999998 105.88149999999996L7.940499999999929 103.56299999999999L8.355199999999968 102.9482999999999L9.06880000000001 102.75540000000001L10.284599999999955 103.63429999999994L10.641799999999876 103.51969999999994L10.523200000000088 103.11839999999995L9.957400000000007 100.55999999999995L9.626999999999953 100.39859999999999L10.200800000000072 99.45519999999999L10.383000000000038 99.23599999999999L7.6918000000000575 98.08629999999994L7.729499999999916 96.95179999999993L6.855499999999893 97.10289999999998L5.345399999999927 96.77879999999993L4.961000000000013 95.38079999999991L4.207599999999957 95.22769999999991L4.0448999999998705 94.47119999999995L1.955199999999877 94.9176L0.9536000000000513 94.77699999999993L1.88149999999996 94.04909999999995L1.1096999999999753 93.16959999999995L0.05349999999998545 92.63900000000001L0 92.63229999999999L1.2536999999999807 91.01709999999991L1.5182999999999538 90.53779999999995L4.894999999999982 87.59379999999999L6.711000000000013 85.3732L5.445199999999886 84.6209L6.432999999999993 83.14350000000002L7.828199999999924 83.64739999999995L8.77859999999987 83.06569999999999L9.364700000000084 83.52080000000001L10.924999999999955 82.5634L11.14689999999996 80.72569999999996L9.286699999999882 80.38739999999996L10.632399999999961 78.48579999999993L11.416400000000067 78.38709999999992L11.476300000000037 77.74450000000002L13.183299999999917 76.01439999999991L14.696500000000015 75.50599999999997L14.758100000000013 75.18889999999999L15.064799999999877 74.03629999999998L16.235400000000027 73.74549999999999L16.49219999999991 73.01779999999997L14.034400000000005 71.64559999999994L14.445999999999913 71.08639999999991L17.217100000000073 71.46969999999999L18.236899999999878 70.88299999999992L19.806800000000067 69.46939999999995L19.857899999999972 69.14299999999992L21.415199999999913 66.80079999999998L21.84159999999997 65.99919999999997L21.960900000000038 65.77469999999994L22.210599999999886 65.38019999999995L23.259900000000016 63.697400000000016L24.636299999999892 64.48059999999998L25.721199999999953 63.35789999999997L26.34609999999998 62.38939999999991L25.975599999999986 61.68419999999992L26.202499999999873 61.3587L26.624900000000025 60.67689999999993L26.80250000000001 60.32009999999991L26.375800000000027 59.22019999999998L27.941700000000083 59.26089999999999L31.07619999999997 61.25999999999999L31.107299999999896 61.20759999999996L31.642399999999952 59.76369999999997L32.202 59.24059999999997L34.23009999999999 60.071399999999926L35.30690000000004 59.534400000000005L35.67470000000003 59.66859999999997L35.93329999999992 59.375099999999975L36.52839999999992 59.885599999999954L37.303300000000036 59.9837L37.7355 60.05419999999992L39.14570000000003 60.60919999999999L39.35609999999997 60.31189999999992L40.422599999999875 60.48689999999999L40.43450000000007 60.85929999999996L41.12110000000007 61.11809999999991L41.275499999999965 61.80469999999991L42.721000000000004 63.46359999999993L42.942800000000034 62.955799999999954L44.35660000000007 62.787399999999934L44.80430000000001 63.84839999999997L44.6096 64.59839999999997L45.80199999999991 65.54949999999997L46.91769999999997 65.1422L47.0628999999999 64.21139999999991L47.70090000000005 63.934099999999944L47.884599999999864 63.56849999999997L47.365099999999984 63.05439999999999L47.593000000000075 62.278099999999995L46.94069999999988 60.37749999999994L47.822599999999966 59.608499999999935L49.393499999999904 59.85839999999996L49.88740000000007 58.83609999999999L49.24649999999997 57.879999999999995L49.06420000000003 57.640199999999936L49.34050000000002 57.02329999999995L50.19959999999992 56.404499999999985L50.33629999999994 55.696199999999976L50.43069999999989 54.97409999999991L50.777900000000045 55.08349999999996L50.631399999999985 54.765699999999924L51.21419999999989 54.38229999999999L50.99849999999992 54.10939999999994L48.94679999999994 52.612499999999955L49.33899999999994 51.95639999999992L50.64319999999998 51.21100000000001L54.0471 52.63349999999991L54.446699999999964 52.52260000000001L55.66390000000001 53.47539999999992L58.318700000000035 53.82069999999999L58.876399999999876 54.80219999999997L58.67920000000004 55.523399999999924L59.04469999999992 56.153299999999945L60.13869999999997 56.20219999999995L60.343200000000024 56.50720000000001L61.224300000000085 56.02819999999997L62.38940000000002 55.69439999999997L63.54809999999998 56.04699999999991L64.60979999999995 57.17199999999991L63.75559999999996 58.97269999999992L64.08050000000003 60.108799999999974L63.75630000000001 60.84370000000001L66.01199999999994 61.92399999999998L65.13110000000006 62.67660000000001L65.31549999999993 63.78069999999991L62.14670000000001 66.0125999999999L61.623800000000074 67.06409999999994L60.50949999999989 67.10379999999998L59.94049999999993 66.61429999999996L58.89509999999996 67.5815L58.54770000000008 68.5815L59.69889999999987 68.47439999999995L62.081500000000005 69.7772L60.99090000000001 70.09389999999996L60.49090000000001 70.66699999999992L61.58680000000004 70.5815L63.12869999999998 71.53909999999996L63.45640000000003 72.62879999999996L62.91300000000001 73.6828999999999L61.61239999999998 74.71969999999999L60.42280000000005 77.17629999999997L60.037900000000036 77.18629999999996L59.78939999999989 76.4538L59.41759999999999 76.35329999999999L58.41339999999991 76.9106999999999L56.99350000000004 75.43409999999994L54.671800000000076 78.42809999999997L55.82159999999999 80.03509999999994L57.97669999999994 81.00889999999993L58.85069999999996 81.43739999999991L58.76839999999993 82.1594L57.69990000000007 82.52589999999998L57.36259999999993 83.60119999999995L56.64239999999995 83.82740000000001L56.12290000000007 84.09789999999998L56.156299999999874 85.9719L56.39650000000006 87.35789999999997L57.81410000000005 86.8143L59.32569999999987 87.14119999999991L59.53189999999995 85.77589999999998L60.953899999999976 85.75289999999995L61.40100000000007 87.17949999999996L61.73440000000005 87.3635999999999L61.746799999999894 88.12779999999998L62.452999999999975 88.25609999999995L63.0157999999999 89.60719999999992L62.144000000000005 90.12639999999999L61.97550000000001 90.83569999999997L62.33050000000003 91.46690000000001L61.69579999999996 92.51490000000001L61.287599999999884 92.5202999999999L59.85480000000007 91.75119999999993L58.00369999999998 89.61059999999998L56.98260000000005 90.60050000000001L56.67669999999998 91.08780000000002L55.23090000000002 91.33249999999998L54.93470000000002 92.29969999999992L52.806299999999965 91.73539999999991L52.00780000000009 90.94499999999994L51.864900000000034 91.12469999999996L51.571300000000065 91.79639999999995L51.90370000000007 92.40339999999992L51.77839999999992 93.93119999999999L50.70609999999988 96.20269999999994L49.62369999999987 95.98879999999997L48.263999999999896 94.66859999999997L47.531999999999925 94.57619999999997L47.77679999999987 95.59129999999993L47.14210000000003 96.45279999999991L46.78449999999998 96.46929999999998L46.74839999999995 97.26609999999994L47.878400000000056 98.37979999999993L47.42489999999998 98.97339999999997L46.80749999999989 99.476L45.61059999999998 99.38L46.231199999999944 100.60659999999996L46.07659999999987 101.70119999999997L46.51739999999995 102.30629999999996L46.883800000000065 102.2405L46.97789999999986 103.23739999999998L46.87439999999992 103.27149999999995L46.135099999999966 102.6531L46.524999999999864 105.15089999999998L47.18509999999992 105.0829L48.13210000000004 105.68949999999995L48.60259999999994 106.70569999999998L49.3596 106.68559999999991L47.92640000000006 107.16309999999999L47.03970000000004 108.93589999999995L45.680000000000064 110.84179999999992L44.45679999999993 111.26319999999998L42.19489999999996 111.8623L41.30770000000007 111.7414z">
      <title id="t139">Huitième circonscription de la Haute-Garonne</title>
      <desc id="d139">Communes de : Aspet, Aurignac, Bagnères-de-Luchon, Barbazan, Boulogne-sur-Gesse, Cazères, Le Fousseret, L'Isle-en-Dodon, Montréjeau, Rieumes, Saint-Béat, Saint-Gaudens, Saint-Martory, Salies-du-Salat</desc>
    </path><path class="circo" id="id-031-09" d="M83.91219999999998 44.119899999999916L83.9511 45.60699999999997L83.48749999999995 47.037399999999934L83.65319999999997 47.39269999999999L84.41660000000002 47.56099999999992L84.09269999999992 48.565200000000004L82.96900000000005 48.54769999999996L82.58109999999988 47.918499999999995L81.2014999999999 48.71749999999997L82.37789999999995 50.25739999999996L82.5447999999999 50.563999999999965L81.97039999999993 51.363200000000006L82.2168999999999 51.60910000000001L83.11969999999997 52.891700000000014L82.75070000000005 54.34399999999994L83.21550000000002 55.79919999999993L81.37189999999987 55.99979999999994L81.68069999999989 57.05009999999993L81.91779999999994 58.24809999999991L82.72479999999996 59.65969999999993L82.65290000000005 60.47289999999998L82.23469999999998 61.58989999999994L80.44569999999999 62.48309999999992L78.94509999999991 60.610900000000015L77.95409999999993 60.0693L76.14200000000005 60.61259999999993L75.97689999999989 60.24339999999995L74.88490000000002 59.90440000000001L74.98569999999995 59.51259999999991L75.40449999999987 58.822400000000016L77.74509999999987 56.61609999999996L78.09809999999993 55.466699999999946L79.10140000000001 54.27089999999998L79.28189999999995 53.55269999999996L78.50060000000008 53.76069999999993L77.61210000000005 52.89389999999992L76.57799999999997 52.91249999999991L76.85259999999994 52.18459999999993L76.6603 51.022699999999986L76.95249999999987 50.72669999999994L76.21149999999989 50.46389999999997L75.47149999999988 50.74529999999993L75.75029999999992 48.71679999999992L76.37349999999992 47.56449999999995L79.02260000000001 46.753799999999956L79.33780000000002 47.0068L79.50289999999995 46.69959999999992L79.0773999999999 45.483499999999935L78.49749999999995 44.440200000000004L78.73090000000002 43.67019999999991L80.23080000000004 45.01959999999997L83.90190000000007 39.55340000000001L85.75990000000002 39.69489999999996L86.64499999999998 39.233499999999935L87.94830000000002 42.92179999999996L89.4858999999999 43.24369999999999L90.1271999999999 44.45139999999992L87.30439999999999 45.846900000000005L86.9106999999999 45.76599999999996L86.67789999999991 45.68719999999996L83.91219999999998 44.119899999999916z">
      <title id="t140">Neuvième circonscription de la Haute-Garonne</title>
      <desc id="d140">Cantons de : Portet-sur-Garonne, Toulouse IX (partie non comprise dans la 3e circonscription), Toulouse X, Toulouse XI</desc>
    </path><path class="circo" id="id-031-10" d="M119.76890000000003 43.752200000000016L119.66190000000006 41.59960000000001L118.7856999999999 40.387699999999995L117.29960000000005 39.997999999999934L115.98129999999992 40.21219999999994L115.34649999999988 39.84069999999997L114.87429999999995 39.71909999999991L113.12850000000003 38.68909999999994L113.03070000000002 37.88259999999991L112.3943999999999 37.37180000000001L112.24710000000005 37.580100000000016L110.78729999999996 37.38459999999998L110.76029999999992 37.27940000000001L110.42149999999992 37.09039999999993L109.19319999999993 36.44349999999997L108.91689999999994 35.82359999999994L107.86850000000004 35.32719999999995L106.79909999999995 35.41139999999996L105.91859999999997 34.18539999999996L104.97090000000003 35.202L104.2820999999999 35.00339999999994L104.11110000000008 36.106199999999944L104.7165 36.61149999999998L105.15079999999989 37.713499999999954L103.73379999999997 37.080299999999966L102.56659999999988 37.27879999999993L101.82510000000002 37.00849999999991L101.16159999999991 37.41719999999998L100.81889999999999 38.53539999999998L100.05989999999997 39.43049999999994L99.35680000000002 40.74699999999996L99.50160000000005 41.800199999999904L98.41139999999996 41.483799999999974L98.29459999999995 40.76379999999995L97.32140000000004 40.06209999999999L95.86609999999996 40.64059999999995L95.55619999999999 41.65249999999992L95.07999999999993 41.61469999999997L93.07040000000006 40.28869999999995L91.05490000000009 40.486999999999966L91.1549 41.72669999999994L90.49299999999994 42.772699999999986L89.4858999999999 43.24369999999999L90.1271999999999 44.45139999999992L87.30439999999999 45.846900000000005L86.9106999999999 45.76599999999996L86.67789999999991 45.68719999999996L84.9106999999999 44.62779999999998L83.90249999999992 44.11590000000001L83.9511 45.60699999999997L83.48749999999995 47.037399999999934L83.65319999999997 47.39269999999999L84.41660000000002 47.56099999999992L84.09269999999992 48.565200000000004L82.96900000000005 48.54769999999996L82.58109999999988 47.918499999999995L81.2014999999999 48.71749999999997L82.37789999999995 50.25739999999996L82.5447999999999 50.563999999999965L81.97039999999993 51.363200000000006L82.2168999999999 51.60910000000001L83.11969999999997 52.891700000000014L82.75070000000005 54.34399999999994L83.21550000000002 55.79919999999993L83.67010000000005 55.48879999999997L83.78710000000001 55.77299999999991L85.60840000000007 55.98019999999997L87.03150000000005 55.36119999999994L87.80600000000004 54.47479999999996L88.05590000000007 55.13169999999991L87.70859999999993 55.795799999999986L89.4233999999999 56.48129999999992L89.81940000000009 57.16159999999991L89.46229999999991 59.08409999999992L89.21839999999997 59.39199999999994L88.13120000000004 58.94329999999991L87.81349999999998 59.174800000000005L88.00569999999993 59.50810000000001L88.23160000000007 60.07529999999997L87.89699999999993 61.601999999999975L88.60259999999994 62.02629999999999L89.39449999999988 63.464599999999905L91.59259999999995 64.5433999999999L92.32539999999995 65.44389999999999L91.78240000000005 66.00749999999994L90.63589999999999 66.23939999999993L91.55469999999991 67.50639999999999L91.89930000000004 67.72069999999997L92.6733999999999 67.47910000000002L93.74350000000004 68.05759999999998L94.49900000000002 67.8827L94.26199999999994 67.58420000000001L94.94249999999988 66.74079999999992L95.37650000000008 65.30129999999997L96.3759 65.02850000000001L99.25549999999998 68.18499999999995L100.62969999999996 69.48359999999991L98.68180000000007 71.42279999999994L99.21319999999992 72.4568999999999L99.05089999999996 72.82129999999995L98.68399999999997 72.97489999999993L98.04649999999992 72.5145L97.43299999999999 72.98680000000002L96.53800000000001 74.69560000000001L96.65869999999995 75.82269999999994L96.97739999999999 76.55219999999997L98.53700000000003 76.86129999999991L98.98599999999988 77.51709999999991L101.61519999999996 78.28699999999992L101.43990000000008 80.26059999999995L102.23180000000002 80.20589999999993L103.15699999999993 79.44259999999997L103.20000000000005 78.64080000000001L102.75959999999986 77.6078L104.7150999999999 75.09589999999992L105.97370000000001 76.00540000000001L106.68159999999989 75.7142L107.0664999999999 75.05449999999996L107.52299999999991 74.548L108.19290000000001 73.25630000000001L107.29939999999988 72.58789999999999L109.29600000000005 71.332L110.01409999999987 71.04609999999991L109.03320000000008 69.45150000000001L109.20039999999995 69.09759999999994L109.3472999999999 68.72609999999997L108.90509999999995 68.06459999999993L109.96949999999993 68.51209999999992L110.91539999999986 67.83659999999998L111.14210000000003 67.13779999999997L113.10149999999999 68.59709999999995L113.46329999999989 67.94479999999999L114.17750000000001 67.64139999999998L115.20100000000002 68.17769999999996L116.60449999999992 68.06809999999996L116.79089999999997 67.29129999999998L115.8868 65.99029999999993L115.80410000000006 63.98219999999992L116.21409999999992 63.28769999999997L115.84339999999997 62.20939999999996L117.67759999999998 61.85239999999999L117.29600000000005 61.369699999999966L116.86079999999993 60.74249999999995L116.92599999999993 59.98149999999998L117.73309999999992 59.15139999999997L118.89100000000008 59.269000000000005L119.24189999999999 58.58249999999998L119.43849999999998 57.9615L119.10940000000005 57.418699999999944L120.25700000000006 56.1422L121.65859999999998 56.90249999999992L121.74739999999997 57.68689999999992L123.75679999999988 59.55799999999999L124.13830000000007 60.2097L123.58320000000003 61.627899999999954L124.26379999999995 61.92679999999996L124.86879999999996 61.532100000000014L125.20209999999997 61.140199999999936L124.91529999999989 60.87049999999999L125.68380000000002 59.54079999999999L125.76150000000007 58.7731L126.89329999999995 58.44079999999997L127.99939999999992 58.840799999999945L128.9031 58.230699999999956L129.37760000000003 58.565599999999904L129.56220000000008 59.45069999999998L130.13740000000007 58.980999999999995L131.68180000000007 60.12959999999998L133.53019999999992 59.469299999999976L134.23710000000005 58.51389999999992L134.90640000000008 58.93209999999999L135.62879999999996 58.63259999999991L135.72379999999998 58.24599999999998L134.9351999999999 56.909799999999905L134.36040000000003 55.83619999999996L133.72659999999996 55.432199999999966L134.10210000000006 53.02620000000002L134.59199999999987 52.38990000000001L135.7893999999999 52.14429999999993L136.56359999999995 51.19049999999993L136.1797999999999 50.64589999999998L136.54690000000005 49.71899999999994L136.07310000000007 48.23789999999997L135.76859999999988 49.30359999999996L135.43169999999986 49.50279999999998L134.57749999999987 48.733999999999924L133.84469999999988 48.453199999999924L133.51639999999998 48.66919999999993L133.74109999999996 51.02279999999996L133.52790000000005 51.36500000000001L133.29369999999994 51.696699999999964L131.3804 51.97829999999999L130.52909999999997 51.11449999999991L128.72509999999988 50.214599999999905L128.42190000000005 50.63819999999998L125.70699999999988 48.91629999999998L125.4103 49.34629999999993L123.05680000000007 47.622299999999996L122.91460000000006 47.53359999999998L121.7346 45.627399999999966L121.67139999999995 45.24419999999998L122.29369999999994 44.793199999999956L120.9188999999999 44.23680000000002L119.76890000000003 43.752200000000016z">
      <title id="t141">Dixième circonscription de la Haute-Garonne</title>
      <desc id="d141">Cantons de : Caraman, Castanet-Tolosan, Lanta, Montgiscard, Nailloux, Revel, Villefranche-de-Lauragais</desc>
    </path></svg>