<svg xmlns="http://www.w3.org/2000/svg" version="1.1" xmlns:xlink="http://www.w3.org/1999/xlink" xmlns:svgjs="http://svgjs.dev/svgjs" viewBox="632.86843 1037.5669 126.0086 90.33580000000006"><path class="circo" id="id-032-01" d="M 664.28803,1075.891 664.85093,1076.2697 666.07513,1077.7545 667.52623,1078.178 669.03853,1077.8177 669.92873,1078.6202 670.31323,1078.5089 670.74413,1079.1352 671.50463,1079.3884 672.57313,1080.5002 674.07243,1081.0047 674.27283,1082.1961 674.59153,1082.4421 674.98913,1083.1276 676.62613,1084.1844 676.62873,1085.3758 676.56133,1086.8541 677.09563,1087.8181 676.94233,1088.5586 677.65213,1089.3331 677.78333,1090.4991 679.50903,1092.5427 680.04643,1092.3327 680.79143,1090.9327 680.63033,1089.3691 681.11113,1089.4096 682.09823,1089.9244 682.45343,1090.9791 683.15303,1090.7975 684.42493,1091.6475 684.10743,1092.8157 684.82973,1093.1547 687.96073,1092.9318 688.14713,1093.9159 688.70123,1093.0297 690.50413,1092.4846 690.72853,1091.7162 690.56443,1088.9991 688.61343,1089.3685 688.48923,1086.5105 687.99173,1084.9613 689.16133,1085.2863 690.70273,1085.1241 691.72093,1085.7909 693.31593,1085.9184 693.64973,1087.0098 693.16363,1087.654 694.14123,1088.1286 695.15223,1087.547 695.45823,1086.8388 696.60993,1086.9572 697.27593,1088.8702 698.34713,1089.4545 699.26553,1087.638 701.22183,1087.0399 701.11083,1085.8501 701.26653,1085.5013 701.99733,1085.745 701.94093,1085.3554 701.57813,1084.2716 699.78943,1082.8539 699.91873,1082.1025 700.49233,1081.5603 703.82723,1081.4696 704.18913,1081.6097 704.36433,1082.3325 705.02373,1082.3396 705.52643,1081.9112 705.47033,1081.5255 704.79093,1081.1464 704.89493,1080.3756 703.85383,1079.2908 705.63413,1077.987 706.19393,1076.6182 707.18963,1077.1491 709.27503,1076.2921 708.78703,1075.1638 709.32793,1073.489 711.93543,1073.7052 711.82673,1075.0574 712.48923,1075.9615 714.15403,1075.5666 714.66363,1075.6999 715.10843,1074.6983 716.59883,1075.0838 717.28463,1074.7734 718.07943,1073.9937 718.37873,1072.9443 719.38333,1073.7622 720.11173,1074.0867 720.04713,1075.2678 720.39963,1075.9665 722.76093,1076.073 722.83233,1076.8507 723.16663,1077.0648 723.46863,1076.8041 724.68593,1077.8026 724.33313,1078.1705 724.40333,1078.572 723.35303,1079.8033 723.55293,1080.1587 722.09603,1080.6847 723.05473,1081.3172 722.71323,1082.0391 721.21493,1082.3515 720.91803,1082.595 721.12133,1082.9215 722.75183,1085.2179 721.36773,1084.4753 719.79233,1084.4653 718.20993,1084.7649 718.04013,1085.1316 718.33433,1085.8277 717.59603,1085.5942 716.64013,1086.1837 716.15263,1087.3995 715.62113,1088.5467 715.71263,1088.9013 716.76543,1089.1656 716.86473,1089.8277 716.74113,1090.7986 717.28863,1092.1356 720.42403,1094.0338 721.10373,1093.6087 723.31883,1095.4422 724.92543,1095.6834 726.74423,1096.5243 727.22543,1096.0716 727.96343,1096.8898 729.33893,1097.359 730.23883,1097.7939 730.44083,1097.5191 731.53383,1095.4249 733.72413,1097.1341 736.18043,1098.3109 736.07033,1099.0887 736.39973,1099.7853 737.31383,1099.9862 738.27563,1100.2915 740.23383,1099.2455 742.10363,1099.563 740.87253,1101.1618 742.00893,1102.7263 744.55143,1103.6245 746.14803,1100.9658 747.57973,1101.7145 748.34613,1102.6211 747.65533,1103.0073 746.54043,1102.8597 746.34813,1103.6303 748.04653,1105.2583 746.89223,1105.2909 746.21883,1107.0497 744.71983,1107.32 745.03773,1107.4681 743.73353,1108.2135 743.34133,1108.8696 745.39303,1110.3665 745.60873,1110.6394 745.02593,1111.0228 745.17243,1111.3406 744.82523,1111.2312 744.73083,1111.9533 744.59413,1112.6616 743.73503,1113.2804 743.45873,1113.8973 743.64103,1114.1371 744.28193,1115.0932 743.78803,1116.1155 742.21713,1115.8656 741.33523,1116.6346 741.98753,1118.5352 741.75963,1119.3115 742.27913,1119.8256 742.09543,1120.1912 741.45743,1120.4685 741.31223,1121.3993 740.19653,1121.8066 739.00413,1120.8555 739.19883,1120.1055 738.75113,1119.0445 737.33733,1119.2129 737.11553,1119.7207 735.67003,1118.0618 735.51563,1117.3752 734.82903,1117.1164 734.81713,1116.744 733.75063,1116.569 733.54023,1116.8663 732.13003,1116.3113 731.69783,1116.2408 730.92293,1116.1427 730.32783,1115.6322 730.06923,1115.9257 729.70143,1115.7915 728.62463,1116.3285 726.59653,1115.4977 726.03693,1116.0208 725.50183,1117.4647 725.47073,1117.5171 722.33623,1115.518 720.77033,1115.4773 721.19703,1116.5772 721.01943,1116.934 720.59703,1117.6158 720.37013,1117.9413 720.74063,1118.6465 720.11573,1119.615 719.03083,1120.7377 717.65443,1119.9545 716.60513,1121.6373 716.35543,1122.0318 716.23613,1122.2563 715.80973,1123.0579 714.25243,1125.4001 714.20133,1125.7265 712.63143,1127.1401 711.61163,1127.7268 708.84053,1127.3435 708.42893,1127.9027 707.82413,1127.5795 706.12203,1126.6979 705.39333,1126.8572 703.35073,1125.6922 702.72333,1126.0052 702.49643,1125.9534 700.59943,1125.279 699.85693,1125.2972 699.15603,1126.1377 698.80063,1126.1975 697.63413,1125.367 697.05273,1125.3794 696.04603,1124.9027 694.67293,1124.4148 694.50213,1125.9119 692.44233,1125.894 690.49443,1125.1736 690.30813,1124.8001 690.73663,1123.1636 689.02603,1122.7047 687.77893,1123.3819 686.27263,1123.5494 685.73623,1124.0599 685.01413,1124.1907 684.50893,1120.4351 683.38033,1121.3304 682.43373,1120.8219 682.24383,1118.8208 679.90093,1119.5176 677.60073,1120.6758 676.54393,1121.2613 675.83473,1121.0136 674.38843,1121.2534 673.68553,1120.4183 672.32163,1120.8554 671.81103,1119.7726 672.15543,1119.9267 671.62243,1117.1606 670.19033,1117.6103 669.45773,1116.8806 669.12613,1115.7181 668.28553,1114.8532 668.58833,1113.6167 668.53293,1113.507 670.96443,1112.5253 670.05743,1110.8104 670.04963,1110.7106 669.43953,1109.8133 669.13393,1110.0215 668.45253,1109.7711 667.96193,1108.8147 667.66763,1106.8712 667.89593,1106.5865 667.68363,1105.8937 666.38993,1103.74 664.65913,1104.5752 663.81883,1103.741 663.69773,1102.9687 662.60683,1103.5011 661.40653,1103.5766 660.23653,1101.4503 659.40333,1100.5516 658.19013,1100.6894 657.65273,1098.9959 656.70693,1098.1172 656.28873,1094.8897 655.57283,1093.3995 653.99963,1093.4937 653.96833,1093.1705 653.60933,1093.3133 653.09493,1092.755 652.07993,1093.2859 650.54033,1093.3226 650.42333,1094.8936 648.56013,1095.289 648.62183,1096.1129 646.45993,1095.7599 645.89073,1096.2516 645.08253,1096.2627 644.01473,1095.7549 643.43333,1096.2252 643.06903,1096.1997 641.84053,1094.4199 639.42213,1095.9257 638.94653,1094.8418 637.39983,1095.2634 636.54053,1096.0385 636.20683,1095.8103 635.64203,1094.4396 635.25743,1094.4343 635.83563,1092.1745 633.52783,1092.1646 632.91933,1091.2605 632.86843,1088.9897 634.15563,1089.7104 634.46223,1089.5009 634.59473,1088.4175 634.81613,1087.8052 635.91453,1087.5958 636.16953,1086.5367 636.47093,1085.6808 635.26473,1085.4809 635.02733,1085.1447 635.21163,1084.3431 636.34463,1083.1615 635.82063,1081.2136 637.95803,1080.0814 640.34593,1077.9468 640.13053,1076.7964 638.24463,1076.3805 638.66373,1075.7529 639.06613,1075.6761 639.18643,1075.2822 638.51513,1073.782 638.58773,1072.5789 637.96723,1072.0529 638.26303,1070.9346 637.55683,1069.6303 638.48803,1069.0564 638.77433,1069.4404 640.29793,1069.4483 640.15893,1067.1027 640.71143,1066.5635 640.40743,1065.8191 639.09093,1063.7379 639.48953,1063.4169 640.22013,1062.4877 640.79033,1062.8256 641.06173,1062.6512 642.58773,1064.8254 643.34393,1065.1113 645.34463,1066.8335 646.05363,1067.0864 646.14823,1067.0976 647.14013,1068.3093 648.93503,1068.9779 649.43813,1069.5182 650.91243,1069.5093 651.25433,1070.1769 651.59763,1069.0508 652.69663,1068.9572 652.98873,1068.6913 653.01553,1067.5179 654.05793,1067.0193 654.17963,1066.6601 656.73773,1065.0178 656.66643,1064.3071 658.85273,1065.1465 659.17993,1064.0568 660.31553,1064.4651 662.77063,1065.9822 664.63793,1068.1347 665.03523,1068.2431 666.41263,1067.3426 666.78583,1067.5178 667.01853,1068.7091 667.22583,1069.4705 666.65103,1070.4917 666.64393,1071.281 667.05953,1072.3356 668.00533,1072.9838 667.52043,1073.4786 667.80083,1074.4244 665.55433,1075.2338 664.40423,1074.9149 664.28803,1075.891 z">
      <title id="t142">Première circonscription du Gers</title>
      <desc id="d142">Cantons de : Aignan, Auch Nord-Est, Auch Nord-Ouest, Auch Sud-Est-Seissan, Auch Sud-Ouest, Lombez, Marciac, Masseube, Miélan, Mirande, Montesquiou, Nogaro, Plaisance, Riscle, Samatan, Saramon</desc>
    </path><path class="circo" id="id-032-02" d="M 656.66643,1064.3071 658.85273,1065.1465 659.17993,1064.0568 660.31553,1064.4651 662.77063,1065.9822 664.63793,1068.1347 665.03523,1068.2431 666.41263,1067.3426 666.78583,1067.5178 667.01853,1068.7091 667.22583,1069.4705 666.65103,1070.4917 666.64393,1071.281 667.05953,1072.3356 668.00533,1072.9838 667.52043,1073.4786 667.80083,1074.4244 665.55433,1075.2338 664.40423,1074.9149 664.28803,1075.891 664.85093,1076.2697 666.07513,1077.7545 667.52623,1078.178 669.03853,1077.8177 669.92873,1078.6202 670.31323,1078.5089 670.74413,1079.1352 671.50463,1079.3884 672.57313,1080.5002 674.07243,1081.0047 674.27283,1082.1961 674.59153,1082.4421 674.98913,1083.1276 676.62613,1084.1844 676.62873,1085.3758 676.56133,1086.8541 677.09563,1087.8181 676.94233,1088.5586 677.65213,1089.3331 677.78333,1090.4991 679.50903,1092.5427 680.04643,1092.3327 680.79143,1090.9327 680.63033,1089.3691 681.11113,1089.4096 682.09823,1089.9244 682.45343,1090.9791 683.15303,1090.7975 684.42493,1091.6475 684.10743,1092.8157 684.82973,1093.1547 687.96073,1092.9318 688.14713,1093.9159 688.70123,1093.0297 690.50413,1092.4846 690.72853,1091.7162 690.56443,1088.9991 688.61343,1089.3685 688.48923,1086.5105 687.99173,1084.9613 689.16133,1085.2863 690.70273,1085.1241 691.72093,1085.7909 693.31593,1085.9184 693.64973,1087.0098 693.16363,1087.654 694.14123,1088.1286 695.15223,1087.547 695.45823,1086.8388 696.60993,1086.9572 697.27593,1088.8702 698.34713,1089.4545 699.26553,1087.638 701.22183,1087.0399 701.11083,1085.8501 701.26653,1085.5013 701.99733,1085.745 701.94093,1085.3554 701.57813,1084.2716 699.78943,1082.8539 699.91873,1082.1025 700.49233,1081.5603 703.82723,1081.4696 704.18913,1081.6097 704.36433,1082.3325 705.02373,1082.3396 705.52643,1081.9112 705.47033,1081.5255 704.79093,1081.1464 704.89493,1080.3756 703.85383,1079.2908 705.63413,1077.987 706.19393,1076.6182 707.18963,1077.1491 709.27503,1076.2921 708.78703,1075.1638 709.32793,1073.489 711.93543,1073.7052 711.82673,1075.0574 712.48923,1075.9615 714.15403,1075.5666 714.66363,1075.6999 715.10843,1074.6983 716.59883,1075.0838 717.28463,1074.7734 718.07943,1073.9937 718.37873,1072.9443 719.38333,1073.7622 720.11173,1074.0867 720.04713,1075.2678 720.39963,1075.9665 722.76093,1076.073 722.83233,1076.8507 723.16663,1077.0648 723.46863,1076.8041 724.68593,1077.8026 724.33313,1078.1705 724.40333,1078.572 723.35303,1079.8033 723.55293,1080.1587 722.09603,1080.6847 723.05473,1081.3172 722.71323,1082.0391 721.21493,1082.3515 720.91803,1082.595 721.12133,1082.9215 722.75183,1085.2179 721.36773,1084.4753 719.79233,1084.4653 718.20993,1084.7649 718.04013,1085.1316 718.33433,1085.8277 717.59603,1085.5942 716.64013,1086.1837 716.15263,1087.3995 715.62113,1088.5467 715.71263,1088.9013 716.76543,1089.1656 716.86473,1089.8277 716.74113,1090.7986 717.28863,1092.1356 720.42403,1094.0338 721.10373,1093.6087 723.31883,1095.4422 724.92543,1095.6834 726.74423,1096.5243 727.22543,1096.0716 727.96343,1096.8898 729.33893,1097.359 730.23883,1097.7939 730.44083,1097.5191 731.53383,1095.4249 733.72413,1097.1341 736.18043,1098.3109 736.07033,1099.0887 736.39973,1099.7853 737.31383,1099.9862 738.27563,1100.2915 740.23383,1099.2455 742.10363,1099.563 740.87253,1101.1618 742.00893,1102.7263 744.55143,1103.6245 746.14803,1100.9658 746.91843,1101.1662 748.21603,1100.3364 749.00573,1100.3277 749.62373,1100.795 750.10303,1101.881 750.83393,1101.4422 751.90363,1100.435 751.38543,1099.1238 752.49723,1099.3876 755.14783,1099.1138 755.78423,1097.3379 755.55413,1097.0349 756.60913,1097.4781 757.72693,1097.2633 758.79553,1097.6643 758.87703,1094.5321 757.86873,1093.3879 757.22783,1092.3926 756.42193,1093.2386 755.33693,1093.4403 753.97233,1091.5461 754.32173,1089.87 753.62403,1089.138 752.95063,1089.0398 752.34173,1089.4402 751.61553,1089.3773 751.66503,1089.7355 749.51713,1088.8591 749.54893,1088.1234 750.46873,1086.9359 749.79513,1086.4868 748.21133,1086.8004 747.16513,1085.6902 746.78233,1085.7271 746.68193,1085.3752 746.01793,1085.1197 746.21493,1084.8113 746.29033,1084.0614 746.85803,1083.567 746.94313,1082.8201 747.43583,1082.2735 746.62023,1081.7412 745.31313,1080.8687 744.17903,1081.0738 743.92053,1080.7733 743.59103,1080.0416 743.84163,1079.7282 742.86873,1079.0434 740.65433,1077.1459 741.18713,1077.1376 739.69373,1075.3254 738.96563,1075.2934 739.29163,1075.0805 738.37423,1073.8529 737.93943,1072.0202 736.92753,1071.4911 735.36393,1071.6001 734.83353,1072.1981 733.69553,1072.382 733.12043,1071.8833 733.85963,1069.2778 734.60743,1068.345 735.48963,1066.7603 732.94603,1065.8329 732.95803,1064.7302 734.43003,1064.8204 733.69973,1063.351 732.16353,1062.0196 731.89433,1060.4175 732.13283,1059.7602 733.40463,1059.1177 733.74633,1058.8728 732.43533,1058.245 732.34743,1057.6112 731.25023,1057.2328 730.34823,1056.0111 729.61613,1056.2658 729.28253,1056.0678 729.04513,1056.7192 728.27923,1056.8581 726.54573,1055.7988 725.64083,1054.9345 722.30073,1056.1335 721.49703,1054.183 721.46003,1053.3997 723.47153,1052.2648 723.58713,1051.8894 724.18883,1050.938 724.12783,1050.5336 724.92703,1049.6264 725.23783,1049.6752 725.55953,1049.1631 725.61713,1049.0605 727.13463,1047.2356 726.98823,1046.4183 726.33153,1045.8672 726.76203,1045.2095 726.08733,1044.2427 726.54023,1043.6659 727.26953,1043.5307 728.25363,1044.0657 729.04093,1042.8648 729.76943,1042.8141 730.34703,1042.365 729.40123,1041.9522 729.15453,1041.3031 727.96833,1041.3856 726.72533,1040.3667 725.99863,1040.7586 724.62733,1041.7423 721.79443,1043.4362 721.15843,1042.065 721.33963,1040.8949 720.88483,1040.2754 720.63333,1039.1909 719.91053,1039.2308 717.80833,1040.1297 717.02373,1040.0481 715.88673,1041.6052 714.88433,1041.9466 714.61503,1043.4706 713.16763,1044.0328 712.47963,1043.0432 712.28783,1041.8672 710.54023,1041.0868 710.05193,1039.6297 707.79183,1038.077 707.95383,1037.7151 707.22733,1037.5669 706.58473,1037.871 705.85853,1038.0777 705.04313,1039.7732 704.34283,1040.0558 702.61613,1040.6795 700.33413,1039.5221 699.75073,1040.9497 699.48683,1040.2583 698.13403,1040.0011 697.80663,1040.6229 695.92923,1040.3925 695.15723,1041.5346 695.12613,1041.6932 694.45793,1043.5398 692.45893,1043.5955 691.50493,1044.3338 690.68223,1044.4163 690.32883,1044.6356 689.34813,1045.9655 688.53843,1045.95 687.19553,1045.118 684.45223,1046.0175 683.66513,1045.7612 683.88153,1047.2649 682.81623,1047.6493 682.60463,1047.9747 680.85653,1047.1773 680.10113,1047.1693 679.70763,1046.4594 678.15323,1046.4359 676.65373,1045.8296 676.63503,1044.2933 676.05613,1044.6075 675.44043,1044.4419 675.10153,1044.2462 673.99883,1045.2572 673.29363,1045.3217 672.98263,1045.1657 672.23033,1046.6209 670.96243,1047.6136 670.90023,1049.2512 670.53693,1049.9695 669.77333,1050.1046 668.63203,1049.7046 668.83393,1047.6907 667.63093,1046.7118 667.67913,1047.1071 665.97683,1048.6666 663.31263,1048.9311 662.58933,1049.9825 662.58033,1050.7997 661.55983,1052.0023 662.79423,1054.576 663.23073,1057.014 662.72083,1058.1156 661.83123,1058.9372 660.35933,1058.3327 659.66883,1058.7485 658.20373,1057.2899 655.11573,1055.2897 657.31393,1053.4195 657.32463,1052.1857 656.76693,1051.5922 653.77413,1048.8605 653.09233,1051.2315 651.63443,1051.8497 650.44623,1053.4815 650.05723,1053.6148 648.98863,1053.0856 648.47003,1053.7239 648.73003,1055.1159 648.13063,1055.5275 646.18973,1053.6121 645.36193,1054.4626 644.20383,1054.1134 643.47123,1055.0316 642.72983,1055.3005 641.79663,1054.5356 639.79923,1057.0189 639.02623,1057.3618 638.41253,1057.8448 637.84343,1057.3389 637.47243,1057.4615 637.05983,1058.5592 636.42613,1058.9879 637.11373,1059.8043 637.84593,1059.6393 638.52073,1060.0122 639.04853,1060.4718 639.74343,1060.4605 640.35843,1060.9061 641.06173,1062.6512 642.58773,1064.8254 643.34393,1065.1113 645.34463,1066.8335 646.05363,1067.0864 646.14823,1067.0976 647.14013,1068.3093 648.93503,1068.9779 649.43813,1069.5182 650.91243,1069.5093 651.25433,1070.1769 651.59763,1069.0508 652.69663,1068.9572 652.98873,1068.6913 653.01553,1067.5179 654.05793,1067.0193 654.17963,1066.6601 656.73773,1065.0178 656.66643,1064.3071 z">
      <title id="t143">Deuxième circonscription du Gers</title>
      <desc id="d143">Cantons de : Cazaubon, Cazaubon, Cologne, Condom, Eauze, Fleurance, Gimont, L'Isle-Jourdain, Jegun, Lectoure, Mauvezin, Miradoux, Montréal, Saint-Clar, Valence-sur-Baïse, Vic-Fézensac</desc>
    </path></svg>