<svg xmlns="http://www.w3.org/2000/svg" version="1.1" xmlns:xlink="http://www.w3.org/1999/xlink" xmlns:svgjs="http://svgjs.dev/svgjs" viewBox="1625.4014 158.41925 144.79899999999998 165.45937"><path class="circo" id="033-01" d="M 1745.0617,198.09246 1742.7754,192.23953 1744.343,188.90236 1746.2106,187.33268 1744.804,185.81002 1745.4529,183.83397 1744.601,180.8397 1748.4946,180.05531 1750.1972,177.83278 1755.1385,177.43752 1756.0845,177.71769 1762.2721,175.22986 1764.8982,183.60553 1763.6334,189.66728 1761.7058,192.45644 1753.1724,194.55409 1748.7022,199.97643 1745.0617,198.09246 z">
      <title id="t144">Première circonscription de la Gironde</title>
      <desc id="d144">Cantons de : Bordeaux I, Bordeaux II, Bordeaux VIII, Le Bouscat</desc>
    </path><path class="circo" id="033-02" d="M 1748.7334,203.83089 1747.9802,203.08331 1748.7022,199.97643 1753.1724,194.55409 1761.7058,192.45644 1763.6334,189.66728 1764.624,189.9867 1764.4002,192.05732 1764.4501,196.04374 1763.4566,197.78744 1762.504,199.63808 1760.061,201.71959 1757.821,201.62164 1756.6465,207.37355 1756.0962,205.44669 1753.8316,203.39522 1750.3693,205.04349 1748.7334,203.83089 z">
      <title id="t145">Deuxième circonscription de la Gironde</title>
      <desc id="d145">Cantons de : Bordeaux III, Bordeaux IV, Bordeaux V, Bordeaux VII</desc>
    </path><path class="circo" id="033-03" d="M 1750.3693,205.04349 1748.859,206.28032 1749.8068,208.00566 1749.8952,212.76018 1752.784,214.60141 1753.846,218.20574 1753.1476,221.95563 1754.2129,224.85687 1757.1891,227.60499 1759.1476,228.2508 1758.3815,225.19713 1763.7946,222.21332 1765.0939,220.587 1770.2004,220.01666 1770.1002,218.68272 1767.5757,213.33634 1766.828,208.7837 1765.5828,205.72062 1764.4397,203.74044 1764.7065,201.84442 1762.504,199.63808 1760.061,201.71959 1757.821,201.62164 1756.6465,207.37355 1756.0962,205.44669 1753.8316,203.39522 1750.3693,205.04349 z">
      <title id="t146">Troisième circonscription de la Gironde</title>
      <desc id="d146">Cantons : Bègles, Bordeaux VI, Talence, Villenave-d'Ornon</desc>
    </path><path class="vide" d="M 1686.0634,237.67405 1683.6259,238.6428 1683.2509,238.54905 1681.3134,238.7053 1680.6259,239.5803 1679.0946,239.8928 1679.4384,241.0803 1679.1571,241.86155 1679.7196,242.4553 1679.0009,243.0803 1678.3759,244.3928 1679.2821,246.7053 1680.7196,247.4553 1680.4071,248.67405 1680.7196,248.9553 1681.3759,249.4553 1680.7821,249.92405 1681.1571,250.61155 1681.1884,252.48655 1682.3134,253.23655 1682.7509,254.6428 1682.4696,256.1428 1682.8759,257.2678 1684.0634,258.36155 1684.8446,258.61155 1684.5321,257.42405 1686.6571,256.23655 1687.1884,255.5803 1689.1884,255.36155 1689.1571,254.8303 1688.1571,252.73655 1687.8759,250.92405 1687.3759,249.7053 1686.9384,248.92405 1687.0321,248.17405 1686.1571,247.29905 1686.5321,246.5803 1686.9384,245.8928 1686.9071,244.3303 1687.0009,243.48655 1686.5946,243.36155 1687.0946,240.98655 1686.0634,237.67405 z" id="033-00"></path><path class="circo" id="033-04" d="M 1693.9551,233.25888 1692.7201,231.19658 1692.4437,230.03824 1692.2954,228.33221 1691.5549,227.35203 1690.8992,227.12542 1690.5722,227.30358 1688.0211,225.59147 1685.4605,223.62995 1684.2917,223.29797 1683.557,223.56235 1682.4265,223.10538 1681.9019,222.83015 1681.5122,223.57546 1682.0305,224.73549 1682.7389,225.75452 1685.0206,227.56662 1685.2463,228.33437 1686.4964,229.53555 1686.6794,230.77928 1686.6465,232.74718 1685.9539,235.01148 1685.89,236.85715 1686.0677,237.67249 1687.105,240.98088 1686.6054,243.37526 1686.9967,243.50143 1686.9083,244.31934 1686.928,245.89397 1686.5356,246.58273 1686.1593,247.31373 1687.0293,248.18525 1686.9239,248.93418 1687.3754,249.71634 1687.8673,250.92625 1688.4626,251.34449 1690.2764,251.01838 1692.286,248.62917 1694.1289,248.58255 1694.5912,247.48215 1694.5147,245.80021 1693.5681,243.92683 1694.4365,243.7082 1696.5458,242.9653 1697.7285,242.98749 1697.493,244.09473 1699.4992,243.98523 1701.9675,245.42133 1704.4481,243.26263 1702.8489,240.92845 1702.6788,239.83714 1701.9308,239.48301 1701.6259,238.31718 1700.438,238.09225 1699.1395,237.12486 1699.3588,236.32555 1700.0155,234.99011 1699.404,234.41044 1698.6828,233.96968 1697.8334,233.95779 1695.2635,235.46466 1694.5628,235.02349 1694.2676,234.21612 1693.9551,233.25888 z">
      <title id="t147">Quatrième circonscription de la Gironde</title>
      <desc id="d147">Cantons de : Carbon-Blanc, Cenon, Floirac, Lormont</desc>
    </path><path class="circo" id="033-05" d="M 1677.0401,238.50022 1677.046,237.66901 1675.6299,236.89533 1675.6307,236.07402 1674.0689,236.00426 1673.3682,236.35748 1670.9452,232.90634 1668.4888,231.66851 1665.8657,234.14382 1665.0782,234.25864 1664.7563,237.42149 1661.95,236.679 1660.8693,240.27825 1659.1417,241.45526 1657.4888,241.42095 1657.7436,244.77095 1657.4251,245.70106 1653.8427,246.79108 1651.2121,248.0057 1647.0509,248.08685 1644.1732,245.86196 1643.3283,248.88696 1640.4418,248.26699 1635.4031,248.76076 1633.2546,250.06491 1627.8198,250.59186 1629.3897,237.17708 1631.1047,219.44034 1631.719,212.19692 1633.2157,197.53477 1633.6379,193.3077 1634.1108,184.81948 1633.9981,180.56592 1633.9818,178.7243 1634.7813,174.15207 1634.3728,171.22452 1634.5018,169.57266 1635.9668,166.08278 1637.6722,164.22549 1639.111,162.08782 1639.9074,159.60105 1641.6826,158.92111 1642.4731,158.41925 1642.0829,160.25567 1642.9334,161.43872 1643.9217,161.82336 1644.3727,163.18004 1644.0666,163.65631 1643.361,162.8229 1642.4488,162.92132 1643.2977,164.0788 1642.8239,163.77182 1641.7599,163.90335 1641.8142,165.46924 1643.5669,167.23354 1645.256,168.19312 1646.1914,169.42439 1649.4083,172.32194 1653.3628,174.6082 1655.81,178.42803 1657.9382,179.60855 1659.1457,180.70039 1660.9385,182.34835 1662.6706,184.01454 1663.7531,185.63812 1664.3425,186.18853 1666.1078,190.33769 1667.4127,193.45376 1669.1325,200.34127 1669.8974,200.0743 1672.0013,205.44276 1673.0861,207.55789 1673.6981,210.20206 1674.1966,214.39561 1674.2803,215.33501 1674.511,216.92085 1675.1453,218.16506 1675.9637,219.11742 1676.6019,219.89479 1677.1121,220.54908 1678.0284,221.88071 1678.3638,222.35641 1678.4833,222.72273 1680.5975,225.17396 1680.9737,225.32043 1682.0305,224.73549 1682.7389,225.75452 1685.0206,227.56662 1685.2463,228.33437 1686.4964,229.53555 1686.6794,230.77928 1686.6465,232.74718 1685.9539,235.01148 1685.89,236.85715 1686.0677,237.67249 1683.6236,238.65517 1683.2499,238.54451 1681.2981,238.70065 1680.6256,239.57854 1679.0876,239.88838 1679.4241,241.07111 1679.1678,241.85164 1679.7234,242.45311 1678.9857,243.07313 1678.3665,244.3913 1677.2732,244.15877 1675.9668,244.70056 1676.3804,243.13981 1675.7067,242.2264 1675.7396,240.21561 1678.0459,240.27717 1677.0401,238.50022 z">
      <title id="t148">Cinquième circonscription de la Gironde</title>
      <desc id="d148">Cantons de Blanquefort, Castelnau-de-Médoc, Lesparre-Médoc, Pauillac, Saint-Laurent-Médoc, Saint-Vivien-de-Médoc</desc>
    </path><path class="circo" id="033-06" d="M 1679.3157,249.87259 1677.2216,250.02129 1676.4697,250.40507 1674.8556,250.17694 1672.7161,251.51604 1670.6385,251.4771 1669.8793,253.4488 1670.0488,254.71554 1668.1478,257.01611 1665.0994,258.3394 1661.4724,259.23274 1657.7092,256.45277 1655.7717,250.8963 1657.4251,245.70106 1657.7436,244.77095 1657.4888,241.42095 1659.1417,241.45526 1660.8693,240.27825 1661.95,236.679 1664.7563,237.42149 1665.0782,234.25864 1665.8657,234.14382 1668.4888,231.66851 1670.9452,232.90634 1673.3682,236.35748 1674.0689,236.00426 1675.6307,236.07402 1675.6299,236.89533 1677.046,237.66901 1677.0401,238.50022 1678.0459,240.27717 1675.7396,240.21561 1675.7067,242.2264 1676.3804,243.13981 1675.9668,244.70056 1677.2732,244.15877 1678.3665,244.3913 1679.2696,246.70321 1680.7076,247.44739 1680.4224,248.6746 1680.7199,248.96989 1679.3157,249.87259 z">
      <title id="t149">Sixième circonscription de la Gironde</title>
      <desc id="d149">Cantons de Mérignac I, Mérignac II, Saint-Médard-en-Jalles</desc>
    </path><path class="circo" id="033-07" d="M 1668.1478,257.01611 1665.0994,258.3394 1661.4724,259.23274 1662.6318,261.00317 1664.2522,262.36289 1667.0523,264.4647 1670.5776,266.91061 1671.2768,265.88627 1676.8117,265.59744 1676.4887,264.83561 1675.4983,264.25138 1677.4128,261.11921 1678.3854,260.37327 1678.5903,260.01445 1677.7892,259.84012 1678.3693,259.25141 1678.7363,259.33266 1678.8439,258.58677 1680.2105,257.74708 1680.9773,256.78412 1682.4635,256.12918 1682.7394,254.64801 1682.3199,253.22425 1681.1788,252.49698 1681.1439,250.61894 1680.7695,249.93742 1681.3661,249.44888 1680.7199,248.96989 1679.3157,249.87259 1677.2216,250.02129 1676.4697,250.40507 1674.8556,250.17694 1672.7161,251.51604 1670.6385,251.4771 1669.8793,253.4488 1670.0488,254.71554 1668.1478,257.01611 z">
      <title id="t150">Septième circonscription de la Gironde</title>
      <desc id="d150">Cantons de : Gradignan, Pessac I, Pessac II</desc>
    </path><path class="circo" id="033-08" d="M 1657.4327,245.69526 1653.8389,246.78901 1651.2139,248.00776 1647.0577,248.10151 1644.1827,245.85151 1643.3389,248.88276 1640.4327,248.25776 1635.4014,248.75776 1633.2452,250.07026 1627.8077,250.60151 1625.4639,268.82026 1625.4014,271.78901 1625.8389,272.97651 1626.2452,273.13276 1626.8077,272.60151 1627.0577,270.91401 1626.8077,270.13276 1627.3702,266.35151 1627.4327,265.94526 1628.1514,263.91401 1628.9952,262.44526 1632.5577,258.25776 1632.8389,257.47651 1632.5264,256.25776 1633.8702,254.66401 1634.8389,255.94526 1636.7139,257.47651 1637.7452,256.88276 1637.2452,257.50776 1637.6202,258.22651 1639.0889,258.91401 1640.9639,260.97651 1644.4952,264.35151 1642.1827,264.35151 1643.2764,265.53901 1645.5577,266.35151 1646.1202,267.44526 1646.0264,267.85151 1647.0889,269.03901 1647.2139,269.82026 1646.0577,269.88276 1646.2452,270.63276 1644.1514,269.47651 1643.8702,269.75776 1640.4639,270.66401 1638.0577,270.22651 1637.5264,270.78901 1637.4014,270.00776 1636.9952,269.94526 1635.8077,269.94526 1634.8702,270.63276 1634.5577,270.41401 1634.5577,270.00776 1635.5577,269.38276 1635.0889,268.32026 1633.4639,268.00776 1631.8077,268.13276 1631.1514,268.63276 1630.2452,270.94526 1630.1827,273.91401 1629.4952,275.88276 1627.8702,279.32026 1625.5264,282.22651 1626.3077,286.75776 1626.0577,291.38276 1630.6514,289.94526 1638.5264,287.19526 1640.3702,283.66401 1645.0577,286.47651 1646.6827,286.25776 1652.5889,281.44526 1655.4952,279.63276 1658.1827,276.38276 1658.9952,276.47651 1661.6514,274.35151 1663.3077,274.66401 1663.9639,272.69526 1662.9639,271.41401 1663.1827,270.19526 1662.5264,269.69526 1662.7452,268.91401 1663.3077,267.78901 1667.0577,264.47651 1664.2452,262.35151 1662.6202,261.00776 1661.4639,259.22651 1657.7139,256.44526 1655.7764,250.88276 1657.4327,245.69526 z M 1645.4014,268.25776 1645.2452,268.35151 1644.9639,269.35151 1645.0889,269.69526 1645.5577,269.32026 1646.1202,269.53901 1646.4014,269.32026 1645.4014,268.25776 z">
      <title id="t151">Huitième circonscription de la Gironde</title>
      <desc id="d151">Cantons de : Arcachon, Audenge, La Teste-de-Buch</desc>
    </path><path class="circo" id="033-09" d="M 1717.9393,290.43857 1716.2028,289.62978 1715.9901,288.89024 1713.8829,290.05819 1713.1002,289.85305 1712.435,287.58302 1712.9875,285.86037 1714.1493,286.16183 1714.7165,284.73273 1715.6468,285.05355 1715.5746,283.0529 1716.7757,283.63376 1717.0625,283.76289 1719.033,283.99064 1719.695,283.59667 1721.2033,284.10582 1722.5187,283.00818 1722.548,282.93723 1722.6622,282.57492 1722.2143,281.96833 1722.5779,280.13334 1721.1094,279.56938 1720.7412,278.87351 1719.7863,279.64705 1718.9922,279.82828 1717.77,279.40341 1717.3257,279.41176 1715.0126,279.64645 1714.0669,279.96894 1712.4189,280.5095 1711.7989,280.69738 1711.2117,280.43458 1711.0963,280.33616 1709.2591,278.26123 1708.5336,277.48504 1707.5932,276.67473 1707.148,275.50811 1707.0124,275.31375 1706.9193,273.69852 1706.0167,272.29778 1705.4467,271.77295 1704.7165,271.19456 1704.3402,270.53454 1703.7514,269.36986 1702.2742,268.64238 1701.4098,267.77368 1701.0786,266.19602 1700.8597,265.56875 1700.7856,265.44262 1700.154,265.05931 1698.6784,265.30178 1698.1907,264.92313 1698.307,264.6046 1699.0023,263.68983 1698.2666,262.91559 1697.5451,262.74743 1695.7457,263.31288 1695.4941,263.13206 1695.393,262.97909 1694.5101,261.0064 1693.6914,260.44075 1691.5152,259.30968 1689.9901,258.84682 1689.1411,258.14815 1689.174,255.85969 1689.1994,255.36331 1687.1823,255.58852 1686.6691,256.23094 1684.5309,257.40955 1684.8335,258.61573 1684.0599,258.3607 1682.8843,257.27514 1682.4635,256.12918 1680.9773,256.78412 1680.2105,257.74708 1678.8439,258.58677 1678.7363,259.33266 1678.3693,259.25141 1677.7892,259.84012 1678.5903,260.01445 1678.3854,260.37327 1677.4128,261.11921 1675.4983,264.25138 1676.4887,264.83561 1676.8117,265.59744 1671.2768,265.88627 1670.5776,266.91061 1667.0523,264.4647 1663.3147,267.7879 1662.758,268.91042 1662.5236,269.70156 1663.1904,270.19787 1662.9529,271.41544 1663.9724,272.69012 1663.3214,274.65256 1661.6486,274.3475 1659.0102,276.47814 1658.1676,276.37334 1655.4996,279.64741 1652.6037,281.43279 1646.6771,286.27126 1648.3527,286.09794 1648.7314,286.83718 1649.2364,289.32073 1648.2657,292.09935 1646.9664,295.06971 1645.1456,296.71415 1650.0536,295.9431 1651.9786,295.1809 1654.4949,294.2567 1655.3729,295.12293 1660.8211,297.1983 1663.714,296.9855 1665.0879,296.08035 1666.3008,296.07011 1666.4735,294.85067 1666.8282,294.64268 1670.8326,293.75746 1673.2301,294.33087 1674.3458,294.27099 1674.8465,293.67887 1674.5886,293.37548 1675.0964,292.72613 1675.5092,292.70469 1678.2627,293.60041 1679.2396,294.31492 1679.303,295.9318 1679.4316,298.43434 1678.1002,299.38798 1681.361,300.49302 1684.1349,301.52832 1685.0246,302.43322 1687.7366,303.61922 1688.6264,306.65572 1691.8755,308.32172 1695.9191,308.62042 1696.1074,311.11892 1698.4309,312.82412 1700.0377,312.92702 1698.9389,318.72532 1699.5082,322.04452 1700.928,322.33292 1706.2272,322.80632 1709.3681,323.87862 1710.1697,323.67342 1713.633,322.46992 1713.2322,316.70692 1713.4157,315.48372 1715.0765,315.55272 1716.0795,314.81782 1716.4596,314.99382 1717.6351,316.19092 1718.4444,318.12412 1720.6677,320.03672 1721.922,319.09232 1722.1558,318.34772 1722.6236,318.94802 1723.7154,319.38782 1725.1055,318.60632 1726.4115,317.07372 1726.9477,317.63432 1728.0907,315.36622 1729.7698,314.38802 1728.981,312.10932 1729.6675,311.69122 1727.7622,309.03542 1726.0154,307.42302 1725.3374,306.83402 1725.9268,304.92222 1726.7169,304.98872 1727.5894,304.17512 1729.5504,304.07222 1730.1767,304.14992 1731.2998,302.98002 1732.0769,302.72532 1733.8782,303.38612 1734.4354,302.33562 1733.5394,301.62072 1734.2035,300.68482 1733.1894,299.73204 1731.6232,296.99633 1732.2,296.51431 1731.9833,295.39137 1732.3755,294.3479 1733.0335,294.05786 1731.9301,293.57123 1730.7301,293.7502 1729.8338,295.0771 1729.1003,295.34887 1728.9054,296.53383 1728.0979,296.62298 1727.5661,296.02393 1726.438,295.566 1726.6556,295.14138 1727.3811,294.97269 1727.7778,293.14661 1726.5087,293.94273 1725.8463,293.53956 1725.2591,291.64212 1723.7892,292.27835 1723.6419,292.3947 1722.4706,292.51713 1719.0168,291.60245 1719.0555,290.37317 1717.9393,290.43857 z">
      <title id="t152">Neuvième circonscription de la Gironde</title>
      <desc id="d152">Cantons de : Bazas, Belin-Béliet, La Brède, Captieux, Grignols, Langon, Podensac, Saint-Symphorien, Villandraut</desc>
    </path><path class="circo" id="033-10" d="M 1705.0423,251.19953 1704.6564,250.56814 1703.6596,247.44834 1701.8671,247.62203 1701.8007,246.92163 1701.9675,245.42133 1704.4481,243.26263 1702.8489,240.92845 1702.6788,239.83714 1701.9308,239.48301 1701.6259,238.31718 1700.438,238.09225 1699.1395,237.12486 1699.3588,236.32555 1700.0155,234.99011 1699.404,234.41044 1698.6828,233.96968 1697.8334,233.95779 1695.2635,235.46466 1694.5628,235.02349 1694.2676,234.21612 1693.9551,233.25888 1697.5848,231.24368 1698.1564,230.6071 1699.2225,227.78071 1701.8763,228.10864 1702.2355,227.56686 1702.5284,226.12306 1701.8666,224.75341 1702.8254,222.1401 1703.8807,222.38588 1705.4541,221.66872 1705.6951,221.92739 1708.095,225.95846 1708.4819,226.25004 1709.7055,227.7158 1710.7604,227.24516 1711.5386,227.39832 1711.2496,229.03606 1711.745,230.14086 1711.0902,230.62043 1711.9302,231.18456 1713.0314,231.01359 1713.8102,231.5891 1715.798,231.43867 1717.7066,232.1332 1717.9639,231.90422 1721.7428,228.3387 1722.3454,228.81299 1723.0404,227.9579 1723.7315,227.71616 1725.0109,228.13364 1725.1827,227.77927 1725.5556,227.90008 1726.5322,227.30935 1728.2417,228.16249 1728.8168,227.7069 1728.9456,226.98488 1730.6912,226.72796 1731.157,227.75751 1731.8496,228.00502 1732.1959,227.34302 1732.5416,227.49341 1733.2455,228.75001 1734.2837,227.14009 1734.1223,225.98058 1735.9536,224.7391 1735.6561,225.93778 1736.0357,228.4375 1735.2404,230.3419 1734.8342,230.44608 1734.1319,229.98981 1733.7916,230.20948 1733.861,231.01887 1733.4111,232.13572 1733.0624,234.12197 1734.1746,236.3085 1734.5016,236.6347 1735.5087,237.87715 1734.0877,240.299 1733.9822,240.356 1733.6829,241.44831 1733.0192,241.81625 1732.7195,242.51933 1732.7301,242.54596 1732.218,243.44086 1731.7735,244.49622 1729.8591,245.03656 1729.7186,245.4169 1733.3815,246.15917 1734.5176,245.74015 1735.9445,247.16066 1735.9674,248.35088 1736.691,248.73728 1736.9486,248.74698 1737.7541,248.58735 1738.6525,249.36895 1739.061,249.33 1739.6534,247.94649 1740.7658,247.72931 1741.5867,247.72164 1741.916,249.25475 1742.3191,249.33276 1742.3851,249.28279 1743.1879,248.3087 1745.2773,248.1765 1748.1135,248.67567 1748.2735,248.84921 1749.0188,249.17014 1750.4544,246.70465 1751.5047,246.33265 1753.1761,244.84266 1753.346,244.5256 1752.9441,243.03462 1754.4251,243.56955 1756.0346,243.56116 1757.1112,244.09005 1759.4071,246.22463 1758.2069,247.04762 1758.1912,248.16463 1757.4055,248.03399 1756.5937,248.80487 1755.0433,248.49686 1755.2351,250.15382 1755.947,252.17968 1755.9193,253.62438 1756.4464,254.72907 1757.8999,256.17815 1757.8353,256.55356 1755.7202,257.26819 1754.1875,257.60298 1753.4602,257.29943 1752.6824,255.95068 1751.8882,255.95499 1751.7497,256.32875 1751.1831,256.90406 1750.6354,258.89875 1751.2108,260.44673 1749.7581,260.94873 1749.14,258.53794 1748.7224,257.82297 1748.312,257.7654 1747.9639,258.1886 1747.0152,257.26089 1745.6908,257.60956 1745.0254,257.33498 1744.3942,256.96751 1743.6197,255.762 1743.6055,254.24686 1742.9947,253.94556 1742.3067,252.68132 1741.5508,253.56809 1740.4024,253.18855 1740.0296,253.34257 1739.8584,254.12579 1738.3029,254.16411 1738.1216,255.24861 1736.6354,254.80152 1735.7427,254.07562 1734.663,254.44432 1732.4968,253.8276 1730.4564,252.94219 1729.6023,252.60059 1729.383,253.36329 1727.8396,253.04866 1727.1105,253.38461 1726.7951,252.32102 1725.1836,251.07481 1724.7635,251.033 1723.3627,254.18016 1723.1923,254.22363 1723.4234,254.96113 1722.9756,256.04023 1722.6044,256.16929 1721.7777,255.32512 1720.9988,255.28609 1720.734,255.76799 1719.9921,255.68227 1718.858,254.82259 1718.4693,254.19309 1717.277,255.10864 1716.5339,255.23903 1715.7365,255.0362 1715.0577,253.96544 1714.2904,253.73886 1714.2427,253.75707 1713.7004,253.43395 1712.066,254.2295 1711.1851,253.65072 1711.5925,253.19802 1711.1796,252.86098 1710.0341,254.03514 1709.3446,254.44792 1708.5256,254.4066 1708.4104,253.6506 1706.1448,253.07118 1705.833,252.40643 1706.0743,251.71945 1705.0423,251.19953 z">
      <title id="t153">Dixième circonscription de la Gironde</title>
      <desc id="d153">Cantons de : Branne, Castillon-la-Bataille, Fronsac, Libourne, Lussac, Pujols, Sainte-Foy-la-Grande</desc>
    </path><path class="circo" id="033-11" d="M 1674.1966,214.39561 1673.6981,210.20206 1673.0861,207.55789 1672.0013,205.44276 1669.8974,200.0743 1673.9647,199.18906 1673.219,193.34588 1671.8829,188.55866 1672.0098,188.16138 1672.4258,188.18218 1677.3297,188.78534 1678.0532,189.68449 1678.7696,189.27434 1680.9761,188.60182 1682.0943,188.94831 1682.1346,187.68452 1682.8612,186.31177 1684.263,187.69334 1683.8465,190.2086 1684.3739,191.81548 1685.4126,191.90672 1685.9854,192.33508 1687.1607,192.42582 1688.9838,193.14895 1691.3137,192.27973 1692.4216,192.27321 1693.7249,192.91057 1695.7812,193.85158 1697.043,194.69921 1697.2551,195.44324 1697.0004,196.17607 1696.5832,197.71672 1697.7837,197.78856 1698.12,198.49977 1697.5047,200.77719 1696.9959,202.32404 1697.1436,203.10922 1698.4059,204.82007 1698.6706,206.06503 1700.037,210.40958 1700.46,208.78053 1701.7963,207.15218 1703.8437,207.65385 1705.1501,208.7469 1705.9673,211.09539 1706.484,209.65633 1709.2204,210.64205 1709.326,211.46845 1709.7073,211.63389 1710.7743,213.86949 1711.7439,214.64131 1713.8209,214.69599 1714.7998,215.60223 1716.3535,216.26283 1718.8625,216.53472 1719.5971,216.92518 1720.4256,216.79322 1723.1888,213.77831 1724.1056,213.1842 1725.1826,213.03109 1727.0489,215.54551 1727.7739,215.75384 1728.0594,215.49975 1728.7084,215.89774 1729.2095,215.34344 1730.4937,213.85697 1732.4359,213.29852 1733.2198,213.48897 1735.3333,213.56848 1736.5191,214.00898 1737.8872,216.13122 1738.143,217.81186 1738.6304,218.50728 1738.7761,218.67652 1738.8569,219.22659 1737.3807,222.60255 1736.4352,223.37712 1736.0854,225.00067 1735.9536,224.7391 1734.1223,225.98058 1734.2837,227.14009 1733.2455,228.75001 1732.5416,227.49341 1732.1959,227.34302 1731.8496,228.00502 1731.157,227.75751 1730.6912,226.72796 1728.9456,226.98488 1728.8168,227.7069 1728.2417,228.16249 1726.5322,227.30935 1725.5556,227.90008 1725.1827,227.77927 1725.0109,228.13364 1723.7315,227.71616 1723.0404,227.9579 1722.3454,228.81299 1721.7428,228.3387 1717.9639,231.90422 1717.7066,232.1332 1715.798,231.43867 1713.8102,231.5891 1713.0314,231.01359 1711.9302,231.18456 1711.0902,230.62043 1711.745,230.14086 1711.2496,229.03606 1711.5386,227.39832 1710.7604,227.24516 1709.7055,227.7158 1708.4819,226.25004 1708.095,225.95846 1705.6951,221.92739 1705.4541,221.66872 1703.8807,222.38588 1702.8254,222.1401 1701.8666,224.75341 1702.5284,226.12306 1702.2355,227.56686 1701.8763,228.10864 1699.2225,227.78071 1698.1564,230.6071 1697.5848,231.24368 1693.9551,233.25888 1692.7201,231.19658 1692.4437,230.03824 1692.2954,228.33221 1691.5549,227.35203 1690.8992,227.12542 1690.5722,227.30358 1688.0211,225.59147 1685.4605,223.62995 1684.2917,223.29797 1683.557,223.56235 1682.4265,223.10538 1681.9019,222.83015 1681.5122,223.57546 1682.0305,224.73549 1680.9737,225.32043 1680.5975,225.17396 1678.4833,222.72273 1678.3638,222.35641 1678.0284,221.88071 1677.1121,220.54908 1676.6019,219.89479 1675.9637,219.11742 1675.1453,218.16506 1674.511,216.92085 1674.2803,215.33501 1674.1966,214.39561 z">
      <title id="t154">Onzième circonscription de la Gironde</title>
      <desc id="d154">Cantons de Blaye, Bourg, Coutras, Guitres, Saint-André-de-Cubzac, Saint-Ciers-sur-Gironde, Saint-Savin</desc>
    </path><path class="circo" id="033-12" d="M 1726.5087,293.94273 1725.8463,293.53956 1725.2591,291.64212 1723.7892,292.27835 1723.6419,292.3947 1722.4706,292.51713 1719.0168,291.60245 1719.0555,290.37317 1717.9393,290.43857 1716.2028,289.62978 1715.9901,288.89024 1713.8829,290.05819 1713.1002,289.85305 1712.435,287.58302 1712.9875,285.86037 1714.1493,286.16183 1714.7165,284.73273 1715.6468,285.05355 1715.5746,283.0529 1716.7757,283.63376 1717.0625,283.76289 1719.033,283.99064 1719.695,283.59667 1721.2033,284.10582 1722.5187,283.00818 1722.548,282.93723 1722.6622,282.57492 1722.2143,281.96833 1722.5779,280.13334 1721.1094,279.56938 1720.7412,278.87351 1719.7863,279.64705 1718.9922,279.82828 1717.77,279.40341 1717.3257,279.41176 1715.0126,279.64645 1714.0669,279.96894 1712.4189,280.5095 1711.7989,280.69738 1711.2117,280.43458 1711.0963,280.33616 1709.2591,278.26123 1708.5336,277.48504 1707.5932,276.67473 1707.148,275.50811 1707.0124,275.31375 1706.9193,273.69852 1706.0167,272.29778 1705.4467,271.77295 1704.7165,271.19456 1704.3402,270.53454 1703.7514,269.36986 1702.2742,268.64238 1701.4098,267.77368 1701.0786,266.19602 1700.8597,265.56875 1700.7856,265.44262 1700.154,265.05931 1698.6784,265.30178 1698.1907,264.92313 1698.307,264.6046 1699.0023,263.68983 1698.2666,262.91559 1697.5451,262.74743 1695.7457,263.31288 1695.4941,263.13206 1695.393,262.97909 1694.5101,261.0064 1693.6914,260.44075 1691.5152,259.30968 1689.9901,258.84682 1689.1411,258.14815 1689.174,255.85969 1689.1994,255.36331 1689.1598,254.83636 1688.1626,252.72456 1687.8673,250.92625 1688.4626,251.34449 1690.2764,251.01838 1692.286,248.62917 1694.1289,248.58255 1694.5912,247.48215 1694.5147,245.80021 1693.5681,243.92683 1694.4365,243.7082 1696.5458,242.9653 1697.7285,242.98749 1697.493,244.09473 1699.4992,243.98523 1701.9675,245.42133 1701.8007,246.92163 1701.8671,247.62203 1703.6596,247.44834 1704.6564,250.56814 1705.0423,251.19953 1706.0743,251.71945 1705.833,252.40643 1706.1448,253.07118 1708.4104,253.6506 1708.5256,254.4066 1709.3446,254.44792 1710.0341,254.03514 1711.1796,252.86098 1711.5925,253.19802 1711.1851,253.65072 1712.066,254.2295 1713.7004,253.43395 1714.2427,253.75707 1714.2904,253.73886 1715.0577,253.96544 1715.7365,255.0362 1716.5339,255.23903 1717.277,255.10864 1718.4693,254.19309 1718.858,254.82259 1719.9921,255.68227 1720.734,255.76799 1720.9988,255.28609 1721.7777,255.32512 1722.6044,256.16929 1722.9756,256.04023 1723.4234,254.96113 1723.1923,254.22363 1723.3627,254.18016 1724.7635,251.033 1725.1836,251.07481 1726.7951,252.32102 1727.1105,253.38461 1727.8396,253.04866 1729.383,253.36329 1729.6023,252.60059 1730.4564,252.94219 1732.4968,253.8276 1734.663,254.44432 1735.7427,254.07562 1736.6354,254.80152 1738.1216,255.24861 1738.3029,254.16411 1739.8584,254.12579 1740.0296,253.34257 1740.4024,253.18855 1741.5508,253.56809 1742.3067,252.68132 1742.9947,253.94556 1743.6055,254.24686 1743.6197,255.762 1744.3942,256.96751 1745.0254,257.33498 1745.6908,257.60956 1747.0152,257.26089 1747.9639,258.1886 1747.3066,259.49193 1746.9798,259.30741 1746.3424,259.6269 1745.5996,259.9447 1744.6286,259.14455 1744.1902,262.29149 1743.7485,262.96486 1743.188,262.37438 1742.4096,262.22833 1741.6943,262.60916 1741.554,263.4137 1741.1561,263.51463 1741.7255,265.37447 1742.4476,265.75178 1744.0527,265.73409 1743.7729,266.77924 1743.9801,267.46186 1744.7042,267.72516 1746.4924,267.16938 1746.8745,267.41297 1747.6529,267.60361 1748.1609,268.25077 1747.6694,269.09193 1746.9363,270.07087 1746.6701,271.65589 1745.4356,271.56069 1744.6284,270.64612 1744.326,271.27376 1744.4642,272.33839 1745.7478,273.80014 1745.4498,274.54773 1743.9428,274.84443 1742.6086,276.26985 1742.5404,276.30888 1742.0008,276.76414 1739.6168,277.50055 1739.8983,278.25014 1739.6795,279.40532 1738.4651,281.75877 1735.8344,281.05144 1735.3897,281.47549 1734.4102,282.5655 1732.5401,281.33533 1734.0827,283.90574 1733.4306,284.89284 1733.0363,284.88104 1732.6266,285.21879 1731.3035,286.93718 1731.2629,288.73475 1731.6324,292.2899 1732.3907,292.18474 1733.1548,292.99669 1733.0335,294.05786 1731.9301,293.57123 1730.7301,293.7502 1729.8338,295.0771 1729.1003,295.34887 1728.9054,296.53383 1728.0979,296.62298 1727.5661,296.02393 1726.438,295.566 1726.6556,295.14138 1727.3811,294.97269 1727.7778,293.14661 1726.5087,293.94273 z">
      <title id="t155">Douzième circonscription de la Gironde</title>
      <desc id="d155">Cantons de : Auros, Cadillac, Créon, Monségur, Pellegrue, La Réole, Saint-Macaire, Sauveterre-de-Guyenne, Targon</desc>
    </path></svg>