<svg xmlns="http://www.w3.org/2000/svg" version="1.1" xmlns:xlink="http://www.w3.org/1999/xlink" xmlns:svgjs="http://svgjs.dev/svgjs" viewBox="0 0 144.79899999999998 165.45937"><path class="circo" id="id-033-01" d="M119.6603 39.67320999999998L117.37400000000002 33.82028L118.94160000000011 30.483109999999982L120.80920000000015 28.913430000000005L119.40260000000012 27.390770000000003L120.05150000000003 25.41471999999999L119.19960000000015 22.420449999999988L123.09320000000002 21.636059999999986L124.7958000000001 19.41353000000001L129.73710000000005 19.01827L130.68309999999997 19.29844L136.87069999999994 16.810609999999997L139.49680000000012 25.186279999999982L138.23199999999997 31.24803L136.3044 34.03718999999998L127.77099999999996 36.13484L123.30079999999998 41.55717999999999L119.6603 39.67320999999998z">
      <title id="t144">Première circonscription de la Gironde</title>
      <desc id="d144">Cantons de : Bordeaux I, Bordeaux II, Bordeaux VIII, Le Bouscat</desc>
    </path><path class="circo" id="id-033-02" d="M123.33200000000011 45.411640000000006L122.5788 44.664060000000006L123.30079999999998 41.55717999999999L127.77099999999996 36.13484L136.3044 34.03718999999998L138.23199999999997 31.24803L139.22260000000006 31.567450000000008L138.99880000000007 33.63807L139.04870000000005 37.62449000000001L138.0552 39.36819L137.10259999999994 41.21883L134.65959999999995 43.300340000000006L132.41959999999995 43.20239000000001L131.2451000000001 48.95429999999999L130.6948 47.027439999999984L128.4302 44.97596999999999L124.9679000000001 46.624239999999986L123.33200000000011 45.411640000000006z">
      <title id="t145">Deuxième circonscription de la Gironde</title>
      <desc id="d145">Cantons de : Bordeaux III, Bordeaux IV, Bordeaux V, Bordeaux VII</desc>
    </path><path class="circo" id="id-033-03" d="M124.9679000000001 46.624239999999986L123.45759999999996 47.861069999999984L124.4054000000001 49.58641L124.49379999999996 54.340929999999986L127.38260000000014 56.18215999999998L128.44460000000004 59.786489999999986L127.74620000000004 63.53638000000001L128.81150000000002 66.43761999999998L131.7877000000001 69.18573999999998L133.74620000000004 69.83155L132.9801 66.77787999999998L138.39319999999998 63.794070000000005L139.6925000000001 62.167749999999984L144.79899999999998 61.597409999999996L144.69880000000012 60.263469999999984L142.17430000000013 54.91709L141.4266 50.364450000000005L140.18139999999994 47.30136999999999L139.03829999999994 45.32119L139.30510000000004 43.42517000000001L137.10259999999994 41.21883L134.65959999999995 43.300340000000006L132.41959999999995 43.20239000000001L131.2451000000001 48.95429999999999L130.6948 47.027439999999984L128.4302 44.97596999999999L124.9679000000001 46.624239999999986z">
      <title id="t146">Troisième circonscription de la Gironde</title>
      <desc id="d146">Cantons : Bègles, Bordeaux VI, Talence, Villenave-d'Ornon</desc>
    </path><path class="circo" id="id-033-04" d="M68.55369999999994 74.83963L67.31870000000004 72.77733L67.04230000000007 71.61899L66.894 69.91296L66.15350000000012 68.93278000000001L65.4978000000001 68.70616999999999L65.1708000000001 68.88433L62.619699999999966 67.17221999999998L60.059099999999944 65.2107L58.890300000000025 64.87871999999999L58.15560000000005 65.1431L57.025100000000066 64.68612999999999L56.5005000000001 64.4109L56.11079999999993 65.15620999999999L56.62910000000011 66.31624L57.33750000000009 67.33527000000001L59.61920000000009 69.14737L59.84490000000005 69.91512L61.09500000000003 71.1163L61.27800000000002 72.36003L61.24510000000009 74.32792999999998L60.55250000000001 76.59223L60.48860000000013 78.43789999999998L60.66630000000009 79.25324L61.70360000000005 82.56163000000001L61.20399999999995 84.95600999999999L61.59529999999995 85.08218L61.50690000000009 85.90009L61.526600000000144 87.47471999999999L61.134199999999964 88.16347999999999L60.75790000000006 88.89447999999999L61.627899999999954 89.76599999999999L61.522500000000036 90.51492999999999L61.97399999999993 91.29709L62.46589999999992 92.507L63.0612000000001 92.92524L64.875 92.59913L66.88460000000009 90.20991999999998L68.72749999999996 90.16329999999999L69.1898000000001 89.06289999999998L69.11329999999998 87.38095999999999L68.16669999999999 85.50757999999999L69.03510000000006 85.28895L71.14440000000013 84.54605000000001L72.32709999999997 84.56824L72.09159999999997 85.67548L74.0978 85.56598L76.5661 87.00208L79.0467000000001 84.84338L77.44749999999999 82.50919999999999L77.27739999999994 81.41789L76.52940000000012 81.06376L76.22450000000003 79.89793L75.03660000000013 79.673L73.73810000000003 78.70561000000001L73.9574 77.90629999999999L74.61410000000001 76.57085999999998L74.00260000000003 75.99118999999999L73.28140000000008 75.55043L72.43200000000002 75.53853999999998L69.86210000000005 77.04541L69.16139999999996 76.60424L68.86619999999994 75.79686999999998L68.55369999999994 74.83963z">
      <title id="t147">Quatrième circonscription de la Gironde</title>
      <desc id="d147">Cantons de : Carbon-Blanc, Cenon, Floirac, Lormont</desc>
    </path><path class="circo" id="id-033-05" d="M51.63869999999997 80.08097000000001L51.64460000000008 79.24975999999998L50.22849999999994 78.47608L50.22929999999997 77.65476999999998L48.66750000000002 77.58500999999998L47.96679999999992 77.93823L45.54380000000015 74.48709L43.087400000000116 73.24925999999999L40.464300000000094 75.72457L39.67679999999996 75.83939000000001L39.35490000000004 79.00224L36.54860000000008 78.25975L35.4679000000001 81.85900000000001L33.740299999999934 83.03601L32.087400000000116 83.0017L32.34220000000005 86.3517L32.02369999999996 87.28181000000001L28.441299999999956 88.37182999999999L25.810699999999997 89.58644999999999L21.64949999999999 89.6676L18.771799999999985 87.44271L17.926899999999932 90.46770999999998L15.04040000000009 89.84773999999999L10.001700000000028 90.34151L7.853200000000015 91.64565999999999L2.4184000000000196 92.17260999999999L3.988299999999981 78.75782999999998L5.703300000000127 61.02108999999999L6.317600000000084 53.77767L7.814300000000003 39.115520000000004L8.236499999999978 34.888450000000006L8.70939999999996 26.400229999999993L8.596700000000055 22.14667L8.580400000000054 20.305049999999994L9.379900000000134 15.732820000000004L8.97140000000013 12.805270000000007L9.100400000000036 11.153410000000008L10.565399999999954 7.663530000000009L12.270800000000008 5.8062400000000025L13.709600000000137 3.6685699999999883L14.506000000000085 1.1817999999999813L16.281200000000126 0.5018599999999935L17.071699999999964 0L16.681500000000142 1.836420000000004L17.531999999999925 3.019469999999984L18.520300000000134 3.404110000000003L18.97129999999993 4.760789999999986L18.66520000000014 5.237059999999985L17.959600000000137 4.403649999999999L17.047399999999925 4.502070000000003L17.89630000000011 5.659549999999996L17.422500000000127 5.352569999999986L16.35850000000005 5.484099999999984L16.41280000000006 7.049990000000008L18.165500000000065 8.81429L19.85460000000012 9.773869999999988L20.789999999999964 11.005139999999983L24.006900000000087 13.902690000000007L27.96140000000014 16.188950000000006L30.40859999999998 20.00878L32.536800000000085 21.189300000000003L33.74430000000007 22.281139999999994L35.53710000000001 23.929100000000005L37.269199999999955 25.595290000000006L38.35169999999994 27.21886999999998L38.941100000000006 27.76927999999998L40.70640000000003 31.918440000000004L42.01130000000012 35.03450999999998L43.73109999999997 41.92202L44.496000000000095 41.65504999999999L46.599899999999934 47.02350999999999L47.68470000000002 49.13863999999998L48.2967000000001 51.782809999999984L48.79520000000002 55.97636L48.87889999999993 56.915760000000006L49.1096 58.501599999999996L49.74389999999994 59.745810000000006L50.56230000000005 60.698170000000005L51.20049999999992 61.475539999999995L51.71070000000009 62.12983L52.62699999999995 63.46145999999999L52.962400000000116 63.937160000000006L53.08190000000013 64.30348000000001L55.196100000000115 66.75470999999999L55.57230000000004 66.90117999999998L56.62910000000011 66.31624L57.33750000000009 67.33527000000001L59.61920000000009 69.14737L59.84490000000005 69.91512L61.09500000000003 71.1163L61.27800000000002 72.36003L61.24510000000009 74.32792999999998L60.55250000000001 76.59223L60.48860000000013 78.43789999999998L60.66630000000009 79.25324L58.22219999999993 80.23592L57.84850000000006 80.12526L55.89670000000001 80.28139999999999L55.22420000000011 81.15929L53.6862000000001 81.46913L54.022699999999986 82.65186L53.766399999999976 83.43239L54.322000000000116 84.03386L53.584299999999985 84.65387999999999L52.96510000000012 85.97205L51.87180000000012 85.73952L50.565399999999954 86.28130999999999L50.97900000000004 84.72056L50.30529999999999 83.80715000000001L50.33820000000014 81.79635999999999L52.64450000000011 81.85792000000001L51.63869999999997 80.08097000000001z">
      <title id="t148">Cinquième circonscription de la Gironde</title>
      <desc id="d148">Cantons de Blanquefort, Castelnau-de-Médoc, Lesparre-Médoc, Pauillac, Saint-Laurent-Médoc, Saint-Vivien-de-Médoc</desc>
    </path><path class="circo" id="id-033-06" d="M53.91430000000014 91.45334L51.82020000000011 91.60203999999999L51.068300000000136 91.98581999999999L49.45420000000013 91.75769L47.31470000000013 93.09679L45.237100000000055 93.05785L44.47790000000009 95.02955L44.64740000000006 96.29629L42.746399999999994 98.59686000000002L39.69800000000009 99.92015L36.07100000000014 100.81348999999997L32.30780000000004 98.03351999999998L30.370300000000043 92.47704999999999L32.02369999999996 87.28181000000001L32.34220000000005 86.3517L32.087400000000116 83.0017L33.740299999999934 83.03601L35.4679000000001 81.85900000000001L36.54860000000008 78.25975L39.35490000000004 79.00224L39.67679999999996 75.83939000000001L40.464300000000094 75.72457L43.087400000000116 73.24925999999999L45.54380000000015 74.48709L47.96679999999992 77.93823L48.66750000000002 77.58500999999998L50.22929999999997 77.65476999999998L50.22849999999994 78.47608L51.64460000000008 79.24975999999998L51.63869999999997 80.08097000000001L52.64450000000011 81.85792000000001L50.33820000000014 81.79635999999999L50.30529999999999 83.80715000000001L50.97900000000004 84.72056L50.565399999999954 86.28130999999999L51.87180000000012 85.73952L52.96510000000012 85.97205L53.868200000000115 88.28396000000001L55.30619999999999 89.02814000000001L55.02099999999996 90.25534999999999L55.318500000000085 90.55063999999999L53.91430000000014 91.45334z">
      <title id="t149">Sixième circonscription de la Gironde</title>
      <desc id="d149">Cantons de Mérignac I, Mérignac II, Saint-Médard-en-Jalles</desc>
    </path><path class="circo" id="id-033-07" d="M42.746399999999994 98.59686000000002L39.69800000000009 99.92015L36.07100000000014 100.81348999999997L37.230400000000145 102.58392L38.850799999999936 103.94363999999999L41.65090000000009 106.04544999999999L45.17620000000011 108.49136000000001L45.87540000000013 107.46702000000002L51.41030000000001 107.17819L51.08730000000014 106.41635999999997L50.096900000000005 105.83212999999998L52.011400000000094 102.69996L52.983999999999924 101.95401999999999L53.1889000000001 101.5952L52.38779999999997 101.42087000000001L52.9679000000001 100.83216000000002L53.33490000000006 100.91340999999997L53.44250000000011 100.16752L54.809099999999944 99.32782999999998L55.57590000000005 98.36486999999997L57.0621000000001 97.70993000000001L57.337999999999965 96.22876L56.918499999999995 94.805L55.77739999999994 94.07773L55.742500000000064 92.19969L55.36810000000014 91.51817L55.96469999999999 91.02963L55.318500000000085 90.55063999999999L53.91430000000014 91.45334L51.82020000000011 91.60203999999999L51.068300000000136 91.98581999999999L49.45420000000013 91.75769L47.31470000000013 93.09679L45.237100000000055 93.05785L44.47790000000009 95.02955L44.64740000000006 96.29629L42.746399999999994 98.59686000000002z">
      <title id="t150">Septième circonscription de la Gironde</title>
      <desc id="d150">Cantons de : Gradignan, Pessac I, Pessac II</desc>
    </path><path class="circo" id="id-033-08" d="M32.0313000000001 87.27600999999999L28.4375 88.36975999999999L25.8125 89.58850999999999L21.6563000000001 89.68225999999999L18.7813000000001 87.43225999999999L17.9375 90.46350999999999L15.031300000000101 89.83850999999999L10 90.33850999999999L7.843800000000101 91.65100999999999L2.406300000000101 92.18225999999999L0.0625 110.40101000000001L0 113.36976000000001L0.4375 114.55726000000001L0.8438000000001011 114.71351000000001L1.4063000000001011 114.18226000000001L1.6563000000001011 112.49476000000001L1.4063000000001011 111.71351000000001L1.9688000000001011 107.93226000000001L2.031300000000101 107.52601000000001L2.75 105.49476000000001L3.593800000000101 104.02601000000001L7.156300000000101 99.83851000000001L7.4375 99.05726000000001L7.125 97.83851000000001L8.468800000000101 96.24475999999999L9.4375 97.52600999999999L11.3125 99.05726000000001L12.343800000000101 98.46351000000001L11.843800000000101 99.08851000000001L12.218800000000101 99.80726000000001L13.6875 100.49476000000001L15.5625 102.55726000000001L19.0938000000001 105.93226000000001L16.7813000000001 105.93226000000001L17.875 107.11976000000001L20.1563000000001 107.93226000000001L20.7188000000001 109.02601000000001L20.625 109.43226000000001L21.6875 110.61976000000001L21.8125 111.40101000000001L20.6563000000001 111.46351000000001L20.8438000000001 112.21351000000001L18.75 111.05726000000001L18.4688000000001 111.33851000000001L15.0625 112.24476000000001L12.656300000000101 111.80726000000001L12.125 112.36976000000001L12 111.58851000000001L11.593800000000101 111.52601000000001L10.406300000000101 111.52601000000001L9.468800000000101 112.21351000000001L9.156300000000101 111.99476000000001L9.156300000000101 111.58851000000001L10.156300000000101 110.96351000000001L9.6875 109.90101000000001L8.0625 109.58851000000001L6.406300000000101 109.71351000000001L5.75 110.21351000000001L4.843800000000101 112.52601000000001L4.781300000000101 115.49476000000001L4.093800000000101 117.46351000000001L2.468800000000101 120.90101000000001L0.125 123.80726000000001L0.9063000000001011 128.33851L0.6563000000001011 132.96351L5.25 131.52601L13.125 128.77601L14.968800000000101 125.24476000000001L19.6563000000001 128.05726L21.2813000000001 127.83851000000001L27.1875 123.02601000000001L30.0938000000001 121.21351000000001L32.7813000000001 117.96351000000001L33.5938000000001 118.05726000000001L36.25 115.93226000000001L37.9063000000001 116.24476000000001L38.5625 114.27601000000001L37.5625 112.99476000000001L37.7813000000001 111.77601000000001L37.125 111.27601000000001L37.3438000000001 110.49476000000001L37.9063000000001 109.36976000000001L41.6563000000001 106.05726000000001L38.8438000000001 103.93226000000001L37.2188000000001 102.58851000000001L36.0625 100.80726000000001L32.3125 98.02601000000001L30.375 92.46350999999999L32.0313000000001 87.27600999999999zM20 109.83851000000001L19.8438000000001 109.93226000000001L19.5625 110.93226000000001L19.6875 111.27601000000001L20.1563000000001 110.90101000000001L20.7188000000001 111.11976000000001L21 110.90101000000001L20 109.83851000000001z">
      <title id="t151">Huitième circonscription de la Gironde</title>
      <desc id="d151">Cantons de : Arcachon, Audenge, La Teste-de-Buch</desc>
    </path><path class="circo" id="id-033-09" d="M92.53790000000004 132.01932000000002L90.80140000000006 131.21052999999998L90.58870000000002 130.47099L88.4815000000001 131.63894000000002L87.69880000000012 131.4338L87.03359999999998 129.16376999999997L87.58609999999999 127.44111999999998L88.74790000000007 127.74258L89.31510000000003 126.31348L90.24540000000002 126.63429999999997L90.17319999999995 124.63365000000002L91.37429999999995 125.21450999999999L91.66110000000003 125.34364000000002L93.63159999999993 125.57138999999998L94.29359999999997 125.17742000000001L95.80189999999993 125.68656999999999L97.11730000000011 124.58892999999998L97.14660000000003 124.51798L97.26080000000002 124.15567000000001L96.81290000000013 123.54907999999998L97.17650000000003 121.71408999999997L95.70800000000008 121.15013000000002L95.33979999999997 120.45426L94.38490000000002 121.22779999999997L93.59079999999994 121.40903L92.36860000000001 120.98416L91.92430000000013 120.99251000000001L89.61120000000005 121.22720000000001L88.66550000000007 121.54968999999997L87.01749999999993 122.09025L86.39750000000004 122.27813L85.8103000000001 122.01532999999998L85.69489999999996 121.91691L83.85770000000002 119.84198L83.13220000000001 119.06579000000002L82.19180000000006 118.25548L81.74659999999994 117.08885999999998L81.6110000000001 116.89450000000002L81.51790000000005 115.27926999999997L80.61529999999993 113.87852999999998L80.0453 113.35369999999998L79.31510000000003 112.77531000000002L78.93880000000013 112.11528999999999L78.35000000000014 110.95061000000001L76.8728000000001 110.22313L76.00839999999994 109.35443000000001L75.67720000000008 107.77676999999997L75.45830000000001 107.14950000000002L75.38419999999996 107.02336999999997L74.75260000000003 106.64005999999998L73.27700000000004 106.88253L72.78930000000014 106.50388000000001L72.90560000000005 106.18535L73.60090000000014 105.27057999999997L72.86519999999996 104.49634L72.14370000000008 104.32818L70.34429999999998 104.89363L70.09269999999992 104.71281000000002L69.99160000000006 104.55983999999998L69.1087 102.58714999999998L68.28999999999996 102.02149999999997L66.11380000000008 100.89043000000001L64.58870000000002 100.42756999999997L63.739700000000084 99.72889999999998L63.77260000000001 97.44044L63.798 96.94406000000001L61.780899999999974 97.16926999999998L61.267700000000104 97.81168999999997L59.12950000000001 98.99030000000002L59.43209999999999 100.19647999999998L58.658500000000004 99.94145L57.48289999999997 98.85589000000002L57.0621000000001 97.70993000000001L55.57590000000005 98.36486999999997L54.809099999999944 99.32782999999998L53.44250000000011 100.16752L53.33490000000006 100.91340999999997L52.9679000000001 100.83216000000002L52.38779999999997 101.42087000000001L53.1889000000001 101.5952L52.983999999999924 101.95401999999999L52.011400000000094 102.69996L50.096900000000005 105.83212999999998L51.08730000000014 106.41635999999997L51.41030000000001 107.17819L45.87540000000013 107.46702000000002L45.17620000000011 108.49136000000001L41.65090000000009 106.04544999999999L37.913299999999936 109.36864999999997L37.35660000000007 110.49116999999998L37.12220000000002 111.28230999999997L37.78899999999999 111.77862000000002L37.55150000000003 112.99618999999998L38.57100000000014 114.27086999999997L37.92000000000007 116.23330999999999L36.24720000000002 115.92825000000002L33.608799999999974 118.05888999999999L32.766200000000026 117.95408999999998L30.098200000000134 121.22815999999997L27.202299999999923 123.01354L21.275700000000143 127.85200999999998L22.951299999999947 127.67868999999999L23.329999999999927 128.41792999999998L23.835000000000036 130.90148000000002L22.864299999999957 133.6801L21.565000000000055 136.65045999999998L19.74420000000009 138.2949L24.652199999999993 137.52385L26.577199999999948 136.76165L29.09349999999995 135.83745000000002L29.971500000000106 136.70368L35.41969999999992 138.77905L38.312599999999975 138.56625L39.686500000000024 137.6611L40.899400000000014 137.65086L41.07210000000009 136.43141999999997L41.42679999999996 136.22342999999998L45.43119999999999 135.33820999999998L47.828700000000026 135.91162L48.94440000000009 135.85173999999998L49.44510000000014 135.25962L49.187200000000075 134.95622999999998L49.694999999999936 134.30688L50.1078 134.28544000000002L52.86130000000003 135.18116L53.83820000000014 135.89566999999997L53.901600000000144 137.51255L54.03019999999992 140.01509000000001L52.69880000000012 140.96873000000002L55.95960000000014 142.07377L58.73350000000005 143.10907L59.6232 144.01397L62.335199999999986 145.19996999999998L63.225000000000136 148.23646999999997L66.47410000000013 149.90247000000002L70.5177000000001 150.20117000000002L70.70600000000013 152.69967L73.0295000000001 154.40487L74.63630000000012 154.50777000000002L73.53750000000014 160.30607L74.10680000000002 163.62526999999997L75.52660000000014 163.91367L80.82580000000007 164.38707000000002L83.96669999999995 165.45937L84.76829999999995 165.25417000000002L88.23160000000007 164.05067L87.83079999999995 158.28767000000002L88.01430000000005 157.06447L89.67509999999993 157.13347000000002L90.67810000000009 156.39856999999998L91.05819999999994 156.57457000000002L92.2337 157.77167L93.04300000000012 159.70487L95.2663 161.61747L96.52060000000006 160.67306999999997L96.75440000000003 159.92846999999998L97.22219999999993 160.52876999999998L98.31400000000008 160.96856999999997L99.70409999999993 160.18706999999998L101.01009999999997 158.65446999999998L101.54629999999997 159.21507L102.6893 156.94697L104.36840000000007 155.96876999999998L103.57960000000003 153.69007000000002L104.26610000000005 153.27196999999998L102.36079999999993 150.61616999999998L100.61400000000003 149.00377L99.93599999999992 148.41477L100.52539999999999 146.50296999999998L101.31549999999993 146.56947L102.1880000000001 145.75587L104.14900000000011 145.65297L104.77530000000002 145.73067L105.89840000000004 144.56077000000002L106.67550000000006 144.30607L108.47680000000014 144.96687L109.0340000000001 143.91637L108.13799999999992 143.20147L108.80210000000011 142.26557L107.78800000000001 141.31278999999998L106.22180000000003 138.57708L106.79860000000008 138.09506000000002L106.58190000000013 136.97212L106.97410000000013 135.92864999999998L107.63210000000004 135.63861L106.52870000000007 135.15198L105.32870000000003 135.33095L104.43240000000014 136.65784999999997L103.6989000000001 136.92961999999997L103.50400000000013 138.11458000000002L102.69650000000001 138.20372999999998L102.16470000000004 137.60468L101.03660000000013 137.14674999999997L101.25420000000008 136.72213000000002L101.9797000000001 136.55344L102.3764000000001 134.72736L101.10730000000012 135.52347999999998L100.44489999999996 135.12031L99.85770000000002 133.22286999999997L98.38779999999997 133.85909999999998L98.24050000000011 133.97545L97.06920000000014 134.09788L93.61540000000014 133.18319999999997L93.65409999999997 131.95392L92.53790000000004 132.01932000000002z">
      <title id="t152">Neuvième circonscription de la Gironde</title>
      <desc id="d152">Cantons de : Bazas, Belin-Béliet, La Brède, Captieux, Grignols, Langon, Podensac, Saint-Symphorien, Villandraut</desc>
    </path><path class="circo" id="id-033-10" d="M79.6409000000001 92.78028L79.25500000000011 92.14889L78.25819999999999 89.02909L76.46569999999997 89.20277999999999L76.39930000000004 88.50237999999999L76.5661 87.00208L79.0467000000001 84.84338L77.44749999999999 82.50919999999999L77.27739999999994 81.41789L76.52940000000012 81.06376L76.22450000000003 79.89793L75.03660000000013 79.673L73.73810000000003 78.70561000000001L73.9574 77.90629999999999L74.61410000000001 76.57085999999998L74.00260000000003 75.99118999999999L73.28140000000008 75.55043L72.43200000000002 75.53853999999998L69.86210000000005 77.04541L69.16139999999996 76.60424L68.86619999999994 75.79686999999998L68.55369999999994 74.83963L72.18340000000012 72.82443L72.75500000000011 72.18785L73.82110000000011 69.36146L76.47489999999993 69.68939L76.83410000000003 69.14760999999999L77.12699999999995 67.70381L76.4652000000001 66.33416L77.42399999999998 63.720849999999984L78.47929999999997 63.96662999999998L80.05269999999996 63.24947L80.29369999999994 63.50814L82.69360000000006 67.53921L83.08050000000003 67.83079000000001L84.30410000000006 69.29655L85.35899999999992 68.82591L86.13720000000012 68.97907000000001L85.84820000000013 70.61680999999999L86.34359999999992 71.72161L85.68880000000013 72.20118L86.52880000000005 72.76531L87.63000000000011 72.59433999999999L88.40879999999993 73.16985L90.39660000000003 73.01942L92.30520000000001 73.71394999999998L92.5625 73.48497L96.34140000000002 69.91944999999998L96.94399999999996 70.39374000000001L97.63900000000012 69.53864999999999L98.33010000000013 69.29691L99.60950000000003 69.71439000000001L99.7813000000001 69.36001999999999L100.15419999999995 69.48083L101.13080000000014 68.89009999999999L102.84030000000007 69.74323999999999L103.41540000000009 69.28764999999999L103.54420000000005 68.56563L105.28980000000001 68.30870999999999L105.75559999999996 69.33825999999999L106.44820000000004 69.58577L106.79449999999997 68.92376999999999L107.14020000000005 69.07416L107.84410000000003 70.33076L108.88229999999999 68.72083999999998L108.72090000000003 67.56133L110.55220000000008 66.31985L110.25469999999996 67.51853L110.63429999999994 70.01825L109.83899999999994 71.92265L109.43280000000004 72.02682999999999L108.73050000000012 71.57056L108.39020000000005 71.79023000000001L108.45960000000014 72.59961999999999L108.00970000000007 73.71646999999999L107.66100000000006 75.70272L108.77320000000009 77.88925L109.10020000000009 78.21545L110.10730000000012 79.4579L108.68630000000007 81.87975L108.58079999999995 81.93674999999999L108.28150000000005 83.02905999999999L107.61779999999999 83.39699999999999L107.31809999999996 84.10007999999999L107.32870000000003 84.12671L106.81660000000011 85.02160999999998L106.37210000000005 86.07696999999999L104.45769999999993 86.61731L104.31719999999996 86.99765L107.9801 87.73991999999998L109.11619999999994 87.3209L110.5431000000001 88.74141L110.56600000000003 89.93162999999998L111.28960000000006 90.31803L111.54719999999998 90.32773L112.35270000000014 90.16809999999998L113.25109999999995 90.9497L113.65959999999995 90.91075000000001L114.25199999999995 89.52724L115.36439999999993 89.31006L116.1853000000001 89.30239L116.51459999999997 90.8355L116.91769999999997 90.91351L116.9837 90.86354L117.78649999999993 89.88944999999998L119.8759 89.75725L122.71209999999996 90.25641999999999L122.87210000000005 90.42996L123.61740000000009 90.75089L125.05300000000011 88.28539999999998L126.10329999999999 87.9134L127.77469999999994 86.42340999999999L127.94460000000004 86.10634999999999L127.54269999999997 84.61536999999998L129.02369999999996 85.15029999999999L130.6332 85.14191L131.7098000000001 85.67079999999999L134.00569999999993 87.80537999999999L132.80549999999994 88.62836999999999L132.7898 89.74537999999998L132.0041000000001 89.61473999999998L131.19229999999993 90.38561999999999L129.64190000000008 90.07760999999999L129.83370000000014 91.73456999999999L130.54559999999992 93.76042999999999L130.51790000000005 95.20513L131.04500000000007 96.30982L132.49849999999992 97.75890000000001L132.4339 98.13431L130.3188 98.84894L128.78610000000003 99.18373L128.05880000000002 98.88017999999997L127.28099999999995 97.53143L126.48680000000013 97.53574L126.34830000000011 97.90950000000001L125.7817 98.48481000000001L125.23399999999992 100.4795L125.8094000000001 102.02748L124.35670000000005 102.52948L123.73860000000013 100.11868999999999L123.32100000000014 99.40371999999999L122.91059999999993 99.34615L122.5625 99.76935L121.61380000000008 98.84164000000001L120.28940000000011 99.19030999999998L119.62400000000002 98.91572999999997L118.99279999999999 98.54826L118.2183 97.34275L118.20409999999993 95.82760999999999L117.5933 95.52631L116.90530000000012 94.26207L116.14940000000001 95.14884L115.00099999999998 94.76929999999999L114.6282000000001 94.92331999999999L114.45700000000011 95.70653999999999L112.90149999999994 95.74485999999999L112.72019999999998 96.82936000000001L111.23399999999992 96.38227L110.34130000000005 95.65636999999998L109.26160000000004 96.02507L107.09539999999993 95.40834999999998L105.05500000000006 94.52294L104.20090000000005 94.18134L103.98160000000007 94.94404L102.43820000000005 94.62941000000001L101.70910000000003 94.96536L101.39370000000008 93.90177L99.7822000000001 92.65556000000001L99.36210000000005 92.61374999999998L97.96129999999994 95.76091L97.79089999999997 95.80438000000001L98.02199999999993 96.54187999999999L97.57420000000002 97.62098L97.20299999999997 97.75003999999998L96.37630000000013 96.90587L95.5974000000001 96.86684L95.33259999999996 97.34873999999999L94.59069999999997 97.26301999999998L93.45659999999998 96.40333999999999L93.06790000000001 95.77384L91.87560000000008 96.68939L91.13249999999994 96.81978000000001L90.33510000000001 96.61695L89.6563000000001 95.54619L88.88900000000012 95.31960999999998L88.84130000000005 95.33782L88.29899999999998 95.0147L86.66460000000006 95.81025L85.78369999999995 95.23147L86.1911 94.77877000000001L85.77819999999997 94.44173L84.63270000000011 95.61589000000001L83.94319999999993 96.02867L83.12419999999997 95.98734999999999L83.00900000000001 95.23134999999999L80.74340000000007 94.65193L80.43160000000012 93.98718L80.67290000000003 93.30019999999999L79.6409000000001 92.78028z">
      <title id="t153">Dixième circonscription de la Gironde</title>
      <desc id="d153">Cantons de : Branne, Castillon-la-Bataille, Fronsac, Libourne, Lussac, Pujols, Sainte-Foy-la-Grande</desc>
    </path><path class="circo" id="id-033-11" d="M48.79520000000002 55.97636L48.2967000000001 51.782809999999984L47.68470000000002 49.13863999999998L46.599899999999934 47.02350999999999L44.496000000000095 41.65504999999999L48.56330000000003 40.76981000000001L47.817600000000084 34.92662999999999L46.481500000000096 30.139409999999998L46.608400000000074 29.742130000000003L47.024400000000014 29.762929999999983L51.928300000000036 30.366089999999986L52.651800000000094 31.265240000000006L53.368200000000115 30.85508999999999L55.57470000000012 30.18257L56.69290000000001 30.529059999999987L56.733200000000124 29.265269999999987L57.45980000000009 27.89251999999999L58.86159999999995 29.27409L58.44510000000014 31.789349999999985L58.97250000000008 33.39623L60.011200000000144 33.48747L60.58400000000006 33.91583L61.75929999999994 34.00656999999998L63.58240000000001 34.72970000000001L65.91229999999996 33.860479999999995L67.02019999999993 33.85396L68.32349999999997 34.49132L70.37979999999993 35.43233000000001L71.64159999999993 36.27995999999999L71.85370000000012 37.02399L71.59899999999993 37.756820000000005L71.18180000000007 39.297470000000004L72.38229999999999 39.369309999999984L72.71859999999992 40.08052000000001L72.10329999999999 42.357939999999985L71.59449999999993 43.90478999999999L71.74220000000014 44.68996999999999L73.00450000000001 46.40081999999998L73.26919999999996 47.64578L74.63560000000007 51.99033L75.05860000000007 50.361279999999994L76.3949 48.73292999999998L78.44229999999993 49.2346L79.7487000000001 50.327650000000006L80.56590000000006 52.676140000000004L81.08259999999996 51.23707999999999L83.81899999999996 52.22280000000001L83.92460000000005 53.049199999999985L84.30590000000007 53.21464L85.37290000000007 55.45024000000001L86.34249999999997 56.22206L88.41949999999997 56.27673999999999L89.39840000000004 57.182979999999986L90.95209999999997 57.84358L93.46109999999999 58.11546999999999L94.19569999999999 58.505930000000006L95.02420000000006 58.373969999999986L97.78739999999993 55.35906L98.70420000000013 54.76495L99.78120000000013 54.61184L101.64750000000004 57.12626L102.37249999999995 57.33458999999999L102.65800000000013 57.0805L103.30700000000002 57.478489999999994L103.80809999999997 56.92418999999998L105.09230000000002 55.437719999999985L107.03449999999998 54.87926999999999L107.81840000000011 55.06971999999999L109.93190000000004 55.14922999999999L111.11770000000001 55.58973L112.48579999999993 57.71197000000001L112.74160000000006 59.39260999999999L113.22900000000004 60.08803L113.37470000000008 60.257270000000005L113.45550000000003 60.80733999999998L111.97929999999997 64.1833L111.03379999999993 64.95786999999999L110.68399999999997 66.58142000000001L110.55220000000008 66.31985L108.72090000000003 67.56133L108.88229999999999 68.72083999999998L107.84410000000003 70.33076L107.14020000000005 69.07416L106.79449999999997 68.92376999999999L106.44820000000004 69.58577L105.75559999999996 69.33825999999999L105.28980000000001 68.30870999999999L103.54420000000005 68.56563L103.41540000000009 69.28764999999999L102.84030000000007 69.74323999999999L101.13080000000014 68.89009999999999L100.15419999999995 69.48083L99.7813000000001 69.36001999999999L99.60950000000003 69.71439000000001L98.33010000000013 69.29691L97.63900000000012 69.53864999999999L96.94399999999996 70.39374000000001L96.34140000000002 69.91944999999998L92.5625 73.48497L92.30520000000001 73.71394999999998L90.39660000000003 73.01942L88.40879999999993 73.16985L87.63000000000011 72.59433999999999L86.52880000000005 72.76531L85.68880000000013 72.20118L86.34359999999992 71.72161L85.84820000000013 70.61680999999999L86.13720000000012 68.97907000000001L85.35899999999992 68.82591L84.30410000000006 69.29655L83.08050000000003 67.83079000000001L82.69360000000006 67.53921L80.29369999999994 63.50814L80.05269999999996 63.24947L78.47929999999997 63.96662999999998L77.42399999999998 63.720849999999984L76.4652000000001 66.33416L77.12699999999995 67.70381L76.83410000000003 69.14760999999999L76.47489999999993 69.68939L73.82110000000011 69.36146L72.75500000000011 72.18785L72.18340000000012 72.82443L68.55369999999994 74.83963L67.31870000000004 72.77733L67.04230000000007 71.61899L66.894 69.91296L66.15350000000012 68.93278000000001L65.4978000000001 68.70616999999999L65.1708000000001 68.88433L62.619699999999966 67.17221999999998L60.059099999999944 65.2107L58.890300000000025 64.87871999999999L58.15560000000005 65.1431L57.025100000000066 64.68612999999999L56.5005000000001 64.4109L56.11079999999993 65.15620999999999L56.62910000000011 66.31624L55.57230000000004 66.90117999999998L55.196100000000115 66.75470999999999L53.08190000000013 64.30348000000001L52.962400000000116 63.937160000000006L52.62699999999995 63.46145999999999L51.71070000000009 62.12983L51.20049999999992 61.475539999999995L50.56230000000005 60.698170000000005L49.74389999999994 59.745810000000006L49.1096 58.501599999999996L48.87889999999993 56.915760000000006L48.79520000000002 55.97636z">
      <title id="t154">Onzième circonscription de la Gironde</title>
      <desc id="d154">Cantons de Blaye, Bourg, Coutras, Guitres, Saint-André-de-Cubzac, Saint-Ciers-sur-Gironde, Saint-Savin</desc>
    </path><path class="circo" id="id-033-12" d="M101.10730000000012 135.52347999999998L100.44489999999996 135.12031L99.85770000000002 133.22286999999997L98.38779999999997 133.85909999999998L98.24050000000011 133.97545L97.06920000000014 134.09788L93.61540000000014 133.18319999999997L93.65409999999997 131.95392L92.53790000000004 132.01932000000002L90.80140000000006 131.21052999999998L90.58870000000002 130.47099L88.4815000000001 131.63894000000002L87.69880000000012 131.4338L87.03359999999998 129.16376999999997L87.58609999999999 127.44111999999998L88.74790000000007 127.74258L89.31510000000003 126.31348L90.24540000000002 126.63429999999997L90.17319999999995 124.63365000000002L91.37429999999995 125.21450999999999L91.66110000000003 125.34364000000002L93.63159999999993 125.57138999999998L94.29359999999997 125.17742000000001L95.80189999999993 125.68656999999999L97.11730000000011 124.58892999999998L97.14660000000003 124.51798L97.26080000000002 124.15567000000001L96.81290000000013 123.54907999999998L97.17650000000003 121.71408999999997L95.70800000000008 121.15013000000002L95.33979999999997 120.45426L94.38490000000002 121.22779999999997L93.59079999999994 121.40903L92.36860000000001 120.98416L91.92430000000013 120.99251000000001L89.61120000000005 121.22720000000001L88.66550000000007 121.54968999999997L87.01749999999993 122.09025L86.39750000000004 122.27813L85.8103000000001 122.01532999999998L85.69489999999996 121.91691L83.85770000000002 119.84198L83.13220000000001 119.06579000000002L82.19180000000006 118.25548L81.74659999999994 117.08885999999998L81.6110000000001 116.89450000000002L81.51790000000005 115.27926999999997L80.61529999999993 113.87852999999998L80.0453 113.35369999999998L79.31510000000003 112.77531000000002L78.93880000000013 112.11528999999999L78.35000000000014 110.95061000000001L76.8728000000001 110.22313L76.00839999999994 109.35443000000001L75.67720000000008 107.77676999999997L75.45830000000001 107.14950000000002L75.38419999999996 107.02336999999997L74.75260000000003 106.64005999999998L73.27700000000004 106.88253L72.78930000000014 106.50388000000001L72.90560000000005 106.18535L73.60090000000014 105.27057999999997L72.86519999999996 104.49634L72.14370000000008 104.32818L70.34429999999998 104.89363L70.09269999999992 104.71281000000002L69.99160000000006 104.55983999999998L69.1087 102.58714999999998L68.28999999999996 102.02149999999997L66.11380000000008 100.89043000000001L64.58870000000002 100.42756999999997L63.739700000000084 99.72889999999998L63.77260000000001 97.44044L63.798 96.94406000000001L63.75839999999994 96.41711000000001L62.761200000000144 94.30530999999999L62.46589999999992 92.507L63.0612000000001 92.92524L64.875 92.59913L66.88460000000009 90.20991999999998L68.72749999999996 90.16329999999999L69.1898000000001 89.06289999999998L69.11329999999998 87.38095999999999L68.16669999999999 85.50757999999999L69.03510000000006 85.28895L71.14440000000013 84.54605000000001L72.32709999999997 84.56824L72.09159999999997 85.67548L74.0978 85.56598L76.5661 87.00208L76.39930000000004 88.50237999999999L76.46569999999997 89.20277999999999L78.25819999999999 89.02909L79.25500000000011 92.14889L79.6409000000001 92.78028L80.67290000000003 93.30019999999999L80.43160000000012 93.98718L80.74340000000007 94.65193L83.00900000000001 95.23134999999999L83.12419999999997 95.98734999999999L83.94319999999993 96.02867L84.63270000000011 95.61589000000001L85.77819999999997 94.44173L86.1911 94.77877000000001L85.78369999999995 95.23147L86.66460000000006 95.81025L88.29899999999998 95.0147L88.84130000000005 95.33782L88.88900000000012 95.31960999999998L89.6563000000001 95.54619L90.33510000000001 96.61695L91.13249999999994 96.81978000000001L91.87560000000008 96.68939L93.06790000000001 95.77384L93.45659999999998 96.40333999999999L94.59069999999997 97.26301999999998L95.33259999999996 97.34873999999999L95.5974000000001 96.86684L96.37630000000013 96.90587L97.20299999999997 97.75003999999998L97.57420000000002 97.62098L98.02199999999993 96.54187999999999L97.79089999999997 95.80438000000001L97.96129999999994 95.76091L99.36210000000005 92.61374999999998L99.7822000000001 92.65556000000001L101.39370000000008 93.90177L101.70910000000003 94.96536L102.43820000000005 94.62941000000001L103.98160000000007 94.94404L104.20090000000005 94.18134L105.05500000000006 94.52294L107.09539999999993 95.40834999999998L109.26160000000004 96.02507L110.34130000000005 95.65636999999998L111.23399999999992 96.38227L112.72019999999998 96.82936000000001L112.90149999999994 95.74485999999999L114.45700000000011 95.70653999999999L114.6282000000001 94.92331999999999L115.00099999999998 94.76929999999999L116.14940000000001 95.14884L116.90530000000012 94.26207L117.5933 95.52631L118.20409999999993 95.82760999999999L118.2183 97.34275L118.99279999999999 98.54826L119.62400000000002 98.91572999999997L120.28940000000011 99.19030999999998L121.61380000000008 98.84164000000001L122.5625 99.76935L121.90519999999992 101.07268000000002L121.5784000000001 100.88816L120.94100000000003 101.20764999999997L120.19820000000004 101.52545L119.22720000000004 100.72529999999998L118.78880000000004 103.87224L118.34709999999995 104.54560999999998L117.78660000000013 103.95512999999997L117.00819999999999 103.80908000000002L116.29290000000015 104.18990999999997L116.15260000000012 104.99445L115.75469999999996 105.09538L116.32410000000004 106.95521999999997L117.0462 107.33252999999999L118.65129999999999 107.31483999999998L118.37149999999997 108.35999000000001L118.57870000000003 109.04261L119.30279999999993 109.30591000000001L121.09100000000012 108.75012999999998L121.47309999999993 108.99371999999997L122.25150000000008 109.18436L122.75950000000012 109.83151999999998L122.26800000000003 110.67267999999999L121.5349000000001 111.65162000000001L121.26870000000008 113.23664L120.03420000000006 113.14144000000002L119.22700000000009 112.22686999999999L118.92460000000005 112.85450999999998L119.06279999999992 113.91914L120.34640000000013 115.38089L120.04840000000013 116.12848L118.54140000000007 116.42517999999998L117.20720000000006 117.85060000000001L117.13900000000012 117.88962999999998L116.59940000000006 118.34488999999999L114.21540000000005 119.08129999999997L114.4969000000001 119.83088999999998L114.2781 120.98607000000001L113.06369999999993 123.33952000000002L110.43299999999999 122.63219000000001L109.98829999999998 123.05623999999997L109.00880000000006 124.14624999999998L107.13869999999997 122.91608L108.68129999999996 125.48648999999997L108.02919999999995 126.47358999999997L107.63490000000002 126.46178999999998L107.22520000000009 126.79954000000001L105.90210000000002 128.51793L105.86149999999998 130.31550000000001L106.231 133.87064999999998L106.98929999999996 133.76548999999997L107.75340000000006 134.57744L107.63210000000004 135.63861L106.52870000000007 135.15198L105.32870000000003 135.33095L104.43240000000014 136.65784999999997L103.6989000000001 136.92961999999997L103.50400000000013 138.11458000000002L102.69650000000001 138.20372999999998L102.16470000000004 137.60468L101.03660000000013 137.14674999999997L101.25420000000008 136.72213000000002L101.9797000000001 136.55344L102.3764000000001 134.72736L101.10730000000012 135.52347999999998z">
      <title id="t155">Douzième circonscription de la Gironde</title>
      <desc id="d155">Cantons de : Auros, Cadillac, Créon, Monségur, Pellegrue, La Réole, Saint-Macaire, Sauveterre-de-Guyenne, Targon</desc>
    </path></svg>