<svg xmlns="http://www.w3.org/2000/svg" version="1.1" xmlns:xlink="http://www.w3.org/1999/xlink" xmlns:svgjs="http://svgjs.dev/svgjs" viewBox="0 0 140.57156999999995 88.94769999999994"><path class="circo" id="id-034-01" d="M109.22039999999993 59.24369999999999L112.02199999999993 56.029399999999896L110.99209999999994 54.78890000000001L109.84100000000001 54.54040000000009L109.76089999999999 53.058899999999994L107.96359999999993 51.63090000000011L108.61159999999995 51.17969999999991L108.45230000000004 50.41949999999997L108.99940000000004 49.36349999999993L108.38589999999999 48.49180000000001L107.67869999999994 48.433899999999994L107.69060000000002 48.078199999999924L107.51149999999996 47.494899999999916L106.51959999999997 47.075199999999995L105.83339999999998 46.25440000000003L106.3904 44.52929999999992L105.66189999999995 43.70029999999997L107.58330000000001 43.73980000000006L108.27459999999996 43.652900000000045L108.4778 44.675199999999904L110.49959999999999 42.64670000000001L110.55160000000001 41.97510000000011L108.51260000000002 41.93209999999999L107.99109999999996 40.809299999999894L108.33780000000002 40.06690000000003L107.72979999999995 39.06510000000003L108.77549999999997 38.573900000000094L109.44309999999996 38.89059999999995L110.66539999999998 40.06719999999996L110.26760000000002 40.649599999999964L111.48410000000001 41.33480000000009L111.87450000000001 41.7485999999999L111.5489 44.0775000000001L110.36599999999999 44.531400000000076L111.18539999999996 45.585399999999936L112.92409999999995 43.54600000000005L113.52629999999999 43.987100000000055L113.76749999999993 43.23270000000002L114.37519999999995 43.16300000000001L115.13829999999996 43.41750000000002L116.1232 44.63429999999994L118.92239999999993 44.09999999999991L118.35130000000004 45.058500000000095L118.88329999999996 45.541099999999915L121.29139999999995 47.556100000000015L121.73889999999994 49.489900000000034L121.54639999999995 49.83989999999994L121.49439999999993 50.6570999999999L116.27269999999999 53.35760000000005L111.58259999999996 56.84259999999995L109.32479999999998 59.298500000000104L109.22039999999993 59.24369999999999z">
      <title id="t156">Première circonscription de l'Hérault</title>
      <desc id="d156">Cantons de : Lattes, Montpellier V, Montpellier VI, Montpellier VIII, Commune de Villeneuve-lès-Maguelone</desc>
    </path><path class="circo" id="id-034-02" d="M110.36599999999999 44.531400000000076L111.5489 44.0775000000001L111.87450000000001 41.7485999999999L112.28210000000001 42.21720000000005L112.74009999999998 41.567800000000034L112.95899999999995 41.334299999999985L112.69380000000001 40.56099999999992L113.0394 40.13319999999999L112.94729999999993 39.238399999999956L112.5788 38.19820000000004L113.15509999999995 37.98559999999998L113.87130000000002 37.894199999999955L114.7423 38.48019999999997L115.09280000000001 39.03539999999998L114.88890000000004 39.67820000000006L115.27739999999994 40.43689999999992L114.26670000000001 41.7813000000001L114.9724 41.6875L115.3107 42.35549999999989L115.0815 42.872699999999895L114.15199999999993 42.77710000000002L113.76749999999993 43.23270000000002L113.52629999999999 43.987100000000055L112.92409999999995 43.54600000000005L111.18539999999996 45.585399999999936L110.36599999999999 44.531400000000076z">
      <title id="t157">Deuxième circonscription de l'Hérault</title>
      <desc id="d157">Cantons de : Montpellier I, Montpellier III, Montpellier VII, Montpellier IX</desc>
    </path><path class="circo" id="id-034-03" d="M113.83789999999999 31.882700000000114L114.2758 30.819999999999936L114.07929999999999 29.624000000000024L113.50620000000004 29.087299999999914L113.32889999999998 28.03430000000003L113.47630000000004 27.487499999999955L114.53219999999999 27.036599999999908L114.39279999999997 25.913800000000037L115.41739999999993 26.474899999999934L115.66099999999994 26.125099999999975L115.70299999999997 25.86609999999996L117.16369999999995 26.56490000000008L119.1422 25.14390000000003L121.16829999999993 24.98739999999998L122.28359999999998 24.58490000000006L122.83979999999997 23.992300000000114L121.96399999999994 21.823300000000017L122.30669999999998 21.091100000000097L121.91610000000003 19.95640000000003L123.72309999999993 18.96460000000002L124.2106 18.592399999999998L126.77609999999993 20.25579999999991L128.61217 21.891000000000076L128.51557000000003 22.720299999999952L128.49607000000003 23.159799999999905L129.50136999999995 23.6087L129.81286999999998 24.30989999999997L131.22506999999996 23.932000000000016L131.84046999999998 24.39280000000008L131.96926999999994 25.541600000000017L132.53187000000003 26.064100000000053L133.59156999999993 27.171800000000076L134.51076999999998 27.531099999999924L135.44296999999995 27.119899999999916L136.12467000000004 27.409200000000055L136.42516999999998 28.081699999999955L137.17696999999998 30.13239999999996L135.35246999999993 30.863599999999906L134.78367000000003 31.86069999999995L134.06376999999998 32.21759999999995L133.32426999999996 31.948000000000093L133.50986999999998 31.65000000000009L131.98037 32.22440000000006L130.05256999999995 31.571500000000015L129.58066999999994 32.15969999999993L129.41367000000002 32.90120000000002L129.03026999999997 32.950000000000045L128.73766999999998 33.6241L127.11522000000002 34.293300000000045L128.32106999999996 35.081300000000056L128.10726999999997 36.1866L128.66967 36.684799999999996L128.09726999999998 37.58639999999991L127.04102 36.91059999999993L126.66089999999997 36.81680000000006L126.29329999999993 37.86390000000006L125.25710000000004 38.25L125.24279999999999 39.03530000000001L124.71479999999997 38.5603000000001L122.89030000000002 37.31189999999992L119.83179999999993 38.477300000000014L118.71780000000001 39.95209999999997L118.42290000000003 40.23180000000002L117.31190000000004 41.41579999999999L115.72289999999998 41.06040000000007L114.88890000000004 39.67820000000006L115.09280000000001 39.03539999999998L114.7423 38.48019999999997L113.87130000000002 37.894199999999955L113.15509999999995 37.98559999999998L112.5788 38.19820000000004L112.94729999999993 39.238399999999956L113.0394 40.13319999999999L112.69380000000001 40.56099999999992L112.95899999999995 41.334299999999985L112.74009999999998 41.567800000000034L112.15899999999999 41.232099999999946L111.86779999999999 40.1108999999999L111.27070000000003 39.714500000000044L110.62459999999999 38.01729999999998L111.94420000000002 37.36030000000005L110.80959999999993 36.18080000000009L110.73590000000002 35.3732L112.47069999999997 34.387300000000096L112.39599999999996 33.98250000000007L114.17449999999997 33.37069999999994L113.83789999999999 31.882700000000114z">
      <title id="t158">Troisième circonscription de l'Hérault</title>
      <desc id="d158">Cantons de : Castelnau-le-Lez, Castries, Montpellier II, Communes de : Boisseron, Saturargues, Saussines, Saint-Christol, Saint-Sériès, Vérargues, Villetelle (issues du canton de Lunel), Campagne et Guarrigues (issues du canton de Claret)</desc>
    </path><path class="circo" id="id-034-04" d="M102.6943 38.98780000000011L102.18119999999999 38.44710000000009L103.99429999999995 36.97929999999997L105.75279999999998 36.0005000000001L107.21179999999993 36.55140000000006L108.12599999999998 35.75610000000006L109.47370000000001 35.865299999999934L110.39919999999995 37.712600000000066L110.62459999999999 38.01729999999998L111.94420000000002 37.36030000000005L110.80959999999993 36.18080000000009L110.73590000000002 35.3732L112.47069999999997 34.387300000000096L112.39599999999996 33.98250000000007L114.17449999999997 33.37069999999994L113.83789999999999 31.882700000000114L114.2758 30.819999999999936L114.07929999999999 29.624000000000024L113.50620000000004 29.087299999999914L113.32889999999998 28.03430000000003L113.47630000000004 27.487499999999955L114.53219999999999 27.036599999999908L114.39279999999997 25.913800000000037L115.41739999999993 26.474899999999934L115.66099999999994 26.125099999999975L115.70299999999997 25.86609999999996L117.16369999999995 26.56490000000008L119.1422 25.14390000000003L121.16829999999993 24.98739999999998L122.28359999999998 24.58490000000006L122.83979999999997 23.992300000000114L121.96399999999994 21.823300000000017L122.30669999999998 21.091100000000097L121.91610000000003 19.95640000000003L120.707 19.417999999999893L120.87389999999994 18.197799999999916L121.90379999999993 16.924299999999903L121.86429999999996 15.757299999999987L122.35640000000001 15.101599999999962L120.53840000000002 14.930700000000115L120.61090000000002 13.825199999999995L118.81809999999996 13.817399999999907L117.56089999999995 13.20309999999995L117.10349999999994 12.0782999999999L117.25850000000003 10.469100000000026L116.81679999999994 9.79950000000008L115.60419999999999 10.852300000000014L111.9511 11.154299999999921L111.17290000000003 12.028800000000047L110.37979999999993 11.833499999999958L109.71500000000003 12.302899999999909L108.99689999999998 11.399699999999939L107.56089999999995 10.867999999999938L107.05719999999997 9.425700000000006L109.13649999999996 6.212999999999965L109.50059999999996 5.504200000000083L109.3048 3.976699999999937L108.82229999999993 3.3385000000000673L106.71519999999998 3.354000000000042L105.9982 1.988800000000083L106.01980000000003 0.4501000000000204L101.24249999999995 0L100.06380000000001 1.1457000000000335L99.07640000000004 1.0601999999998952L98.54859999999996 1.4699000000000524L97.27729999999997 2.2462000000000444L97.70359999999994 3.630200000000059L97.20679999999993 3.5482999999999265L96.6046 4.519399999999905L96.78129999999999 5.263400000000047L96.18110000000001 7.1422999999999774L95.40440000000001 7.013599999999997L93.88749999999993 6.808700000000044L93.94510000000002 8.061099999999897L93.33439999999996 8.476599999999962L93.0933 8.207100000000082L93.30529999999999 6.58420000000001L92.10079999999994 6.339799999999968L90.28340000000003 8.886799999999994L89.9017 9.980399999999918L88.64710000000002 11.004699999999957L88.13040000000001 12.536299999999983L90.0847 13.888699999999972L90.05099999999993 14.2820999999999L88.88789999999995 14.489700000000084L88.30279999999993 14.997699999999895L86.83179999999993 13.611200000000053L85.73789999999997 14.03950000000009L84.17819999999995 13.479299999999967L83.43529999999998 12.47700000000009L83.59539999999993 10.01929999999993L82.58849999999995 8.857799999999997L80.88009999999997 9.370200000000068L80.07240000000002 9.4692L78.26729999999998 11.7179000000001L77.10040000000004 12.014699999999948L76.08569999999997 12.711399999999912L74.93179999999995 11.607899999999972L75.73090000000002 11.44990000000007L76.24279999999999 9.902199999999993L76.13639999999998 8.299800000000005L75.12869999999998 7.008499999999913L73.24189999999999 6.60570000000007L72.62049999999999 7.071899999999914L71.50620000000004 6.88169999999991L70.45209999999997 6.444300000000112L69.8646 6.947100000000091L69.55560000000003 6.711000000000013L68.14620000000002 7.92470000000003L68.2133 9.028099999999995L66.18079999999998 9.38799999999992L64.18229999999994 8.935400000000072L63.390300000000025 9.132000000000062L62.677599999999984 8.723999999999933L61.742200000000025 8.803499999999985L61.41660000000002 9.404399999999896L61.085699999999974 10.612100000000055L59.67669999999998 11.409900000000107L59.13620000000003 12.529800000000023L59.22770000000003 13.75870000000009L60.45920000000001 15.41190000000006L60.263000000000034 16.645500000000084L60.07330000000002 18.503400000000056L59.827699999999936 19.71010000000001L59.8682 21.306100000000015L59.29290000000003 23.726200000000063L59.30129999999997 24.454999999999927L60.079200000000014 26.097800000000007L60.552799999999934 28.141599999999926L60.616300000000024 30.071300000000065L61.21799999999996 30.526100000000042L62.2595 29.67990000000009L62.62329999999997 30.304499999999962L62.57499999999993 31.478700000000117L63.80560000000003 33.41280000000006L63.49529999999993 34.6893L65.29660000000001 35.42890000000011L66.08219999999994 35.294599999999946L66.80470000000003 35.61789999999996L69.55369999999994 35.17730000000006L70.28559999999993 34.80420000000004L70.55160000000001 34.029199999999946L71.59680000000003 34.53340000000003L71.8854 35.65470000000005L72.61929999999995 35.97119999999995L72.60230000000001 35.57989999999995L73.38080000000002 35.60089999999991L74.36590000000001 35.02109999999993L75.26919999999996 35.759900000000016L76.04229999999995 35.80320000000006L76.22680000000003 35.41509999999994L77.40999999999997 35.98109999999997L78.72519999999997 35.406099999999924L80.46609999999998 35.72659999999996L79.67840000000001 37.752700000000004L79.73500000000001 38.149400000000014L80.94240000000002 39.11650000000009L80.45730000000003 39.73700000000008L79.40480000000002 39.27620000000002L79.99369999999999 41.14480000000003L80.51999999999998 41.68679999999995L81.06299999999999 41.55079999999998L81.596 42.330600000000004L81.43899999999996 43.86220000000003L80.69659999999999 44.11629999999991L80.99680000000001 45.60290000000009L80.38469999999995 45.89580000000001L79.94550000000004 45.46340000000009L79.69979999999998 45.72679999999991L79.73439999999994 46.79019999999991L79.10289999999998 47.20010000000002L79.83069999999998 48.08909999999992L79.9022 48.26369999999997L80.096 49.418300000000045L79.69449999999995 51.13259999999991L79.73450000000003 51.66129999999998L79.90009999999995 52.612699999999904L81.24090000000001 51.981899999999996L85.94819999999993 54.94830000000002L86.18880000000001 55.559299999999894L85.74940000000004 56.0476000000001L86.08659999999998 56.20180000000005L86.06669999999997 56.94360000000006L87.34489999999994 58.275499999999965L85.22590000000002 60.090999999999894L84.59759999999994 61.553100000000086L84.65449999999998 62.76260000000002L83.77499999999998 63.561300000000074L85.8501 66.34660000000008L89.58209999999997 68.31439999999998L93.28599999999994 65.67630000000008L95.34579999999994 64.21299999999997L96.24839999999995 63.568899999999985L95.6825 61.849500000000035L95.80819999999994 61.13740000000007L95.72739999999999 60.378099999999904L97.24270000000001 59.246799999999894L98.4642 57.78639999999996L99.66610000000003 57.972099999999955L100.19179999999994 58.5954999999999L100.98630000000003 58.7672L102.7876 57.27500000000009L103.14289999999994 56.131399999999985L102.28949999999998 54.721000000000004L100.55099999999993 53.067999999999984L99.62059999999997 53.322200000000066L99.59929999999997 52.546800000000076L98.43079999999998 52.26950000000011L96.71870000000001 50.5317L96.44870000000003 49.76440000000002L96.93259999999998 48.63830000000007L94.928 47.263999999999896L96.08690000000001 45.67530000000011L96.04250000000002 44.08140000000003L97.27570000000003 43.250299999999925L97.6508 42.59979999999996L98.33079999999995 42.60050000000001L98.22439999999995 42.96080000000006L98.8931 43.649000000000115L99.96619999999996 43.68100000000004L100.00260000000003 42.56490000000008L99.50299999999993 42.05639999999994L99.5666 41.65129999999999L101.14530000000002 41.475599999999986L101.73669999999993 40.48160000000007L102.50490000000002 40.20029999999997L102.72159999999997 39.558700000000044L102.6943 38.98780000000011z">
      <title id="t159">Quatrième circonscription de l'Hérault</title>
      <desc id="d159">Cantons de : Aniane, Le Caylar, Claret (moins les communes de Campagne et Garrigues), Ganges, Gignac, Lodève, Les Matelles, Mèze, Saint-Martin-de-Londres</desc>
    </path><path class="circo" id="id-034-05" d="M44.25199999999995 32.74299999999994L43.194999999999936 32.253400000000056L41.75479999999993 32.784799999999905L40.68079999999998 32.36770000000001L40.22759999999994 31.727499999999964L38.75479999999993 31.133800000000065L37.571699999999964 30.95309999999995L36.881200000000035 31.35329999999999L35.513000000000034 31.938900000000103L34.21799999999996 32.852800000000116L33.81110000000001 32.87940000000003L33.608499999999935 32.524200000000064L32.28629999999998 33.33879999999999L32.13149999999996 36.481899999999996L31.230500000000006 37.25469999999996L29.24969999999996 36.9369999999999L28.8664 37.086500000000115L28.3057 38.18579999999997L25.919399999999996 38.41840000000002L24.509900000000016 39.249900000000025L23.347800000000007 39.0295000000001L22.229100000000017 40.17669999999998L21.681899999999928 40.75080000000003L20.53189999999995 40.612300000000005L19.33439999999996 41.584499999999935L18.228200000000015 41.9851000000001L17.565600000000018 41.52659999999992L16.857700000000023 40.10050000000001L15.52049999999997 38.63830000000007L12.51400000000001 37.663299999999936L12.292599999999993 37.32600000000002L11.206199999999967 37.781799999999976L9.652600000000007 37.77150000000006L9.32529999999997 36.66399999999999L8.960100000000011 36.51970000000006L8.02539999999999 40.571100000000115L7.321699999999964 42.50980000000004L6.530599999999936 43.474699999999984L6.451599999999985 43.88390000000004L6.923099999999977 44.54269999999997L7.318599999999947 44.51340000000005L7.680600000000027 45.65000000000009L6.508000000000038 47.70779999999991L7.765800000000013 49.71330000000012L11.555200000000013 53.7958000000001L10.095900000000029 53.38969999999995L10.213999999999942 54.966699999999946L9.783799999999928 56.05449999999996L9.980699999999956 57.607299999999896L10.873500000000035 58.88190000000009L10.58669999999995 59.60380000000009L8.743600000000015 59.03870000000006L8.44870000000003 59.29189999999994L8.881599999999935 60.30250000000001L6.594499999999925 62.572599999999966L5.845199999999977 62.35200000000009L5.634900000000016 63.337800000000016L5.2794999999999845 63.41540000000009L4.923000000000002 63.253999999999905L3.3316999999999553 64.35529999999994L2.185100000000034 64.39519999999993L3.718099999999936 65.59979999999996L4.502200000000016 65.71150000000011L3.9787999999999784 67.12259999999992L2.838899999999967 67.1413L2.460900000000038 67.05289999999991L2.22969999999998 67.36560000000009L1.4429999999999836 68.2772L1.0471000000000004 69.83989999999994L1.288499999999999 71.01569999999992L0 73.48610000000008L0.9711999999999534 74.58349999999996L1.3138000000000147 74.39329999999995L3.694099999999935 74.8092999999999L4.413999999999987 76.6703L5.06880000000001 77.15460000000007L5.193199999999933 78.97489999999993L6.609299999999962 80.20970000000011L6.534800000000018 80.58830000000012L7.18610000000001 80.2174L7.744799999999941 79.24620000000004L8.825799999999958 79.41239999999993L10.12990000000002 79.59259999999995L10.17229999999995 79.19949999999994L11.45640000000003 78.33780000000002L11.656799999999976 77.18110000000001L12.365499999999997 76.83449999999993L12.554200000000037 76.08439999999996L13.351999999999975 76.8137999999999L13.521099999999933 77.79790000000003L14.062199999999962 79.67450000000008L13.619299999999953 80.7781L13.845900000000029 81.47769999999991L14.351699999999937 81.84760000000006L15.101199999999949 81.6253999999999L17.059300000000007 82.9072000000001L18.057900000000018 84.07259999999997L19.75559999999996 83.6717000000001L20.393599999999992 82.82989999999995L20.995499999999993 81.80320000000006L20.98599999999999 81.75610000000006L21.00909999999999 80.20890000000009L22.248899999999935 78.73479999999995L22.916799999999967 78.26029999999992L23.50509999999997 77.76089999999999L22.61310000000003 76.52710000000002L23.637100000000032 75.97170000000006L25.272399999999948 76.15110000000004L26.001700000000028 75.7786000000001L27.919700000000034 75.25890000000004L28.361999999999966 74.14069999999992L28.007799999999975 72.17489999999998L26.822099999999978 70.18370000000004L27.97429999999997 68.9960000000001L28.092199999999934 69.30300000000011L28.238399999999956 70.24759999999992L29.549800000000005 70.9882L29.735799999999927 72.07030000000009L29.701099999999997 72.7224000000001L29.844100000000026 73.8871999999999L29.329099999999926 74.88670000000002L30.16300000000001 75.7034000000001L31.527500000000032 76.42900000000009L32.40019999999993 75.72389999999996L34.51080000000002 77.37429999999995L35.484699999999975 77.3139000000001L38.3057 76.52580000000012L39.47019999999998 76.46900000000005L39.62810000000002 78.75559999999996L39.581999999999994 80.3777L40.122999999999934 80.99749999999995L40.039300000000026 81.38499999999999L40.37199999999996 81.5951L41.37580000000003 80.9715000000001L43.71389999999997 81.10190000000011L45.63760000000002 83.09979999999996L46.42139999999995 82.99569999999994L47.377899999999954 83.68339999999989L48.458999999999946 84.1531L48.84100000000001 84.05500000000006L49.20079999999996 83.35629999999992L51.13289999999995 83.4991L52.133500000000026 80.0458000000001L52.04020000000003 78.47289999999998L49.0222 77.46640000000002L48.375299999999925 76.52790000000005L49.895599999999945 76.1214L50.49429999999995 75.1395L51.669599999999946 75.12580000000003L51.697599999999966 74.7369000000001L50.34529999999995 73.3456000000001L50.024 73.1264000000001L50.22039999999993 71.60179999999991L49.90739999999994 71.37830000000008L48.943700000000035 70.94450000000006L48.2894 71.18859999999995L46.304700000000025 70.70759999999996L44.45399999999995 67.63560000000007L43.19200000000001 66.60539999999992L41.72379999999998 66.22360000000003L43.41739999999993 65.19920000000002L44.484500000000025 64.94720000000007L47.4049 64.2659000000001L48.15739999999994 63.384500000000116L49.559099999999944 64.14370000000008L50.73419999999999 64.17499999999995L50.93679999999995 65.32819999999992L49.882799999999975 65.76549999999997L50.26890000000003 67.63760000000002L50.62729999999999 67.7949000000001L51.88720000000001 66.97849999999994L52.051199999999994 67.33449999999993L52.232399999999984 67.96839999999997L52.8809 68.28009999999995L53.22309999999993 67.58940000000007L54.377200000000016 65.49099999999999L55.548400000000015 64.42630000000008L56.39289999999994 64.04089999999997L56.93709999999999 64.5752L57.30669999999998 64.46659999999997L58.34010000000001 64.11460000000011L58.61900000000003 63.42679999999996L56.7595 61.078199999999924L57.26099999999997 59.99129999999991L59.09230000000002 59.18419999999992L60.47739999999999 57.802599999999984L61.048 59.32619999999997L61.83119999999997 60.290700000000015L62.67650000000003 59.94180000000006L64.04009999999994 58.275499999999965L64.27089999999998 58.05289999999991L64.85910000000001 58.29549999999995L66.28899999999999 57.883800000000065L66.35450000000003 57.51209999999992L67.43979999999999 57.182399999999916L67.76499999999999 56.047399999999925L67.1866 53.42900000000009L67.82249999999999 52.40020000000004L69.74789999999996 51.74000000000001L70.5349 51.815399999999954L71.77199999999993 52.91100000000006L73.92920000000004 55.23960000000011L74.45230000000004 55.446899999999914L74.69229999999993 56.17139999999995L75.53129999999999 57.002300000000105L77.2536 57.78880000000004L77.04570000000001 58.35030000000006L76.98680000000002 58.731500000000096L78.4991 60.863399999999956L78.89919999999995 61.53150000000005L79.50159999999994 61.035699999999906L81.04579999999999 60.85140000000001L82.41660000000002 62.19270000000006L83.15549999999996 63.942600000000084L83.77499999999998 63.561300000000074L84.65449999999998 62.76260000000002L84.59759999999994 61.553100000000086L85.22590000000002 60.090999999999894L87.34489999999994 58.275499999999965L86.06669999999997 56.94360000000006L86.08659999999998 56.20180000000005L85.74940000000004 56.0476000000001L86.18880000000001 55.559299999999894L85.94819999999993 54.94830000000002L81.24090000000001 51.981899999999996L79.90009999999995 52.612699999999904L79.73450000000003 51.66129999999998L79.69449999999995 51.13259999999991L80.096 49.418300000000045L79.9022 48.26369999999997L79.83069999999998 48.08909999999992L79.10289999999998 47.20010000000002L79.73439999999994 46.79019999999991L79.69979999999998 45.72679999999991L79.94550000000004 45.46340000000009L80.38469999999995 45.89580000000001L80.99680000000001 45.60290000000009L80.69659999999999 44.11629999999991L81.43899999999996 43.86220000000003L81.596 42.330600000000004L81.06299999999999 41.55079999999998L80.51999999999998 41.68679999999995L79.99369999999999 41.14480000000003L79.40480000000002 39.27620000000002L80.45730000000003 39.73700000000008L80.94240000000002 39.11650000000009L79.73500000000001 38.149400000000014L79.67840000000001 37.752700000000004L80.46609999999998 35.72659999999996L78.72519999999997 35.406099999999924L77.40999999999997 35.98109999999997L76.22680000000003 35.41509999999994L76.04229999999995 35.80320000000006L75.26919999999996 35.759900000000016L74.36590000000001 35.02109999999993L73.38080000000002 35.60089999999991L72.60230000000001 35.57989999999995L72.61929999999995 35.97119999999995L71.8854 35.65470000000005L71.59680000000003 34.53340000000003L70.55160000000001 34.029199999999946L70.28559999999993 34.80420000000004L69.55369999999994 35.17730000000006L66.80470000000003 35.61789999999996L66.08219999999994 35.294599999999946L65.29660000000001 35.42890000000011L63.49529999999993 34.6893L63.80560000000003 33.41280000000006L62.57499999999993 31.478700000000117L62.62329999999997 30.304499999999962L62.2595 29.67990000000009L61.21799999999996 30.526100000000042L60.616300000000024 30.071300000000065L60.552799999999934 28.141599999999926L60.079200000000014 26.097800000000007L59.30129999999997 24.454999999999927L59.29290000000003 23.726200000000063L59.8682 21.306100000000015L59.827699999999936 19.71010000000001L60.07330000000002 18.503400000000056L60.263000000000034 16.645500000000084L59.175899999999956 16.92750000000001L58.02329999999995 18.036200000000008L56.54589999999996 18.603599999999915L54.59699999999998 18.618999999999915L52.67020000000002 18.090099999999893L51.9692 18.387500000000045L51.904499999999985 18.508299999999963L49.94999999999993 18.079700000000003L48.45489999999995 16.7659000000001L46.597099999999955 15.994799999999941L44.61149999999998 15.93990000000008L44.076799999999935 17.406999999999925L44.40210000000002 18.92750000000001L43.22259999999994 19.95360000000005L43.82389999999998 20.992700000000013L43.94349999999997 22.155099999999948L45.41039999999998 23.94340000000011L44.662900000000036 25.34179999999992L43.87779999999998 25.433299999999917L43.610000000000014 26.6253999999999L43.95339999999999 27.362499999999955L43.65750000000003 28.12130000000002L43.98389999999995 28.86570000000006L43.77120000000002 30.024400000000014L44.97339999999997 31.0920000000001L44.39530000000002 31.61519999999996L44.25199999999995 32.74299999999994z">
      <title id="t160">Cinquième circonscription de l'Hérault</title>
      <desc id="d160">Cantons de : Bédarieux, Capestang, Clermont-l'Hérault, Lunas, Montagnac, Murviel-lès-Béziers, Olargues, Olonzac, Roujan, Saint-Chinian, Saint-Gervais-sur-Mare, Saint-Pons-de-Thomières, La Salvetat-sur-Agout</desc>
    </path><path class="circo" id="id-034-06" d="M51.669599999999946 75.12580000000003L50.49429999999995 75.1395L49.895599999999945 76.1214L48.375299999999925 76.52790000000005L49.0222 77.46640000000002L52.04020000000003 78.47289999999998L52.133500000000026 80.0458000000001L51.13289999999995 83.4991L51.59100000000001 84.1235999999999L51.54779999999994 84.91399999999999L52.62519999999995 85.39900000000011L53.81039999999996 85.32799999999997L54.73659999999995 84.59429999999998L55.519199999999955 84.56150000000002L56.224399999999946 84.86979999999994L58.558899999999994 88.20730000000003L59.54250000000002 88.94769999999994L62.15890000000002 86.54600000000005L65.5829 84.08560000000011L68.29719999999998 82.23849999999993L70.1019 81.41380000000004L71.04489999999998 79.63349999999991L70.90809999999999 78.02320000000009L70.76429999999993 77.64110000000005L70.0086 77.3465000000001L69.1046 75.53150000000005L68.49519999999995 74.99579999999992L67.8809 74.61040000000003L67.24469999999997 73.93380000000002L67.57899999999995 73.17810000000009L67.26509999999996 71.5824L67.94650000000001 70.55140000000006L67.91469999999993 70.13879999999995L67.28059999999994 69.6090999999999L65.80939999999998 70.22270000000003L65.35910000000001 69.55809999999997L62.887899999999945 68.43669999999997L61.4212 67.39810000000011L62.35559999999998 65.59089999999992L60.831699999999955 64.20440000000008L60.433400000000006 64.08420000000001L59.41899999999998 63.32490000000007L58.61900000000003 63.42679999999996L58.34010000000001 64.11460000000011L57.30669999999998 64.46659999999997L56.93709999999999 64.5752L56.39289999999994 64.04089999999997L55.548400000000015 64.42630000000008L54.377200000000016 65.49099999999999L53.22309999999993 67.58940000000007L52.8809 68.28009999999995L52.232399999999984 67.96839999999997L52.051199999999994 67.33449999999993L51.88720000000001 66.97849999999994L50.62729999999999 67.7949000000001L50.26890000000003 67.63760000000002L49.882799999999975 65.76549999999997L50.93679999999995 65.32819999999992L50.73419999999999 64.17499999999995L49.559099999999944 64.14370000000008L48.15739999999994 63.384500000000116L47.4049 64.2659000000001L44.484500000000025 64.94720000000007L43.41739999999993 65.19920000000002L41.72379999999998 66.22360000000003L43.19200000000001 66.60539999999992L44.45399999999995 67.63560000000007L46.304700000000025 70.70759999999996L48.2894 71.18859999999995L48.943700000000035 70.94450000000006L49.90739999999994 71.37830000000008L50.22039999999993 71.60179999999991L50.024 73.1264000000001L50.34529999999995 73.3456000000001L51.697599999999966 74.7369000000001L51.669599999999946 75.12580000000003z">
      <title id="t161">Sixième circonscription de l'Hérault</title>
      <desc id="d161">Cantons de : Béziers I, Béziers II, Béziers III, Béziers IV</desc>
    </path><path class="circo" id="id-034-07" d="M82.95659999999998 81.57600000000002L82.25900000000001 81.99050000000011L76.80189999999993 80.85370000000012L75.55729999999994 79.91399999999999L73.13329999999996 80.25630000000001L70.1019 81.41380000000004L71.04489999999998 79.63349999999991L70.90809999999999 78.02320000000009L70.76429999999993 77.64110000000005L70.0086 77.3465000000001L69.1046 75.53150000000005L68.49519999999995 74.99579999999992L67.8809 74.61040000000003L67.24469999999997 73.93380000000002L67.57899999999995 73.17810000000009L67.26509999999996 71.5824L67.94650000000001 70.55140000000006L67.91469999999993 70.13879999999995L67.28059999999994 69.6090999999999L65.80939999999998 70.22270000000003L65.35910000000001 69.55809999999997L62.887899999999945 68.43669999999997L61.4212 67.39810000000011L62.35559999999998 65.59089999999992L60.831699999999955 64.20440000000008L60.433400000000006 64.08420000000001L59.41899999999998 63.32490000000007L58.61900000000003 63.42679999999996L56.7595 61.078199999999924L57.26099999999997 59.99129999999991L59.09230000000002 59.18419999999992L60.47739999999999 57.802599999999984L61.048 59.32619999999997L61.83119999999997 60.290700000000015L62.67650000000003 59.94180000000006L64.04009999999994 58.275499999999965L64.27089999999998 58.05289999999991L64.85910000000001 58.29549999999995L66.28899999999999 57.883800000000065L66.35450000000003 57.51209999999992L67.43979999999999 57.182399999999916L67.76499999999999 56.047399999999925L67.1866 53.42900000000009L67.82249999999999 52.40020000000004L69.74789999999996 51.74000000000001L70.5349 51.815399999999954L71.77199999999993 52.91100000000006L73.92920000000004 55.23960000000011L74.45230000000004 55.446899999999914L74.69229999999993 56.17139999999995L75.53129999999999 57.002300000000105L77.2536 57.78880000000004L77.04570000000001 58.35030000000006L76.98680000000002 58.731500000000096L78.4991 60.863399999999956L78.89919999999995 61.53150000000005L79.50159999999994 61.035699999999906L81.04579999999999 60.85140000000001L82.41660000000002 62.19270000000006L83.15549999999996 63.942600000000084L83.77499999999998 63.561300000000074L85.8501 66.34660000000008L89.58209999999997 68.31439999999998L93.28599999999994 65.67630000000008L95.34579999999994 64.21299999999997L96.24839999999995 63.568899999999985L100.3972 64.52279999999996L100.71379999999999 65.2331999999999L100.75220000000002 66.8895L97.6911 68.04070000000002L95.68409999999994 67.90650000000005L94.58780000000002 68.47409999999991L91.75149999999996 70.86789999999996L87.26419999999996 75.71540000000005L84.97929999999997 78.53580000000011L82.95659999999998 81.57600000000002z">
      <title id="t162">Septième circonscription de l'Hérault</title>
      <desc id="d162">Cantons de : Agde, Florensac, Pézenas, Servian, Sète I, Sète II</desc>
    </path><path class="circo" id="id-034-08" d="M95.6825 61.849500000000035L96.24839999999995 63.568899999999985L100.3972 64.52279999999996L100.71379999999999 65.2331999999999L106.63080000000002 62.39650000000006L109.32479999999998 59.298500000000104L109.22039999999993 59.24369999999999L112.02199999999993 56.029399999999896L110.99209999999994 54.78890000000001L109.84100000000001 54.54040000000009L109.76089999999999 53.058899999999994L107.96359999999993 51.63090000000011L108.61159999999995 51.17969999999991L108.45230000000004 50.41949999999997L108.99940000000004 49.36349999999993L108.38589999999999 48.49180000000001L107.67869999999994 48.433899999999994L107.69060000000002 48.078199999999924L107.51149999999996 47.494899999999916L106.51959999999997 47.075199999999995L105.83339999999998 46.25440000000003L106.3904 44.52929999999992L105.66189999999995 43.70029999999997L107.58330000000001 43.73980000000006L108.27459999999996 43.652900000000045L108.4778 44.675199999999904L110.49959999999999 42.64670000000001L110.55160000000001 41.97510000000011L108.51260000000002 41.93209999999999L107.99109999999996 40.809299999999894L108.33780000000002 40.06690000000003L107.72979999999995 39.06510000000003L108.77549999999997 38.573900000000094L109.44309999999996 38.89059999999995L110.66539999999998 40.06719999999996L110.26760000000002 40.649599999999964L111.48410000000001 41.33480000000009L112.28210000000001 42.21720000000005L112.74009999999998 41.567800000000034L112.15899999999999 41.232099999999946L111.86779999999999 40.1108999999999L111.27070000000003 39.714500000000044L110.62459999999999 38.01729999999998L110.39919999999995 37.712600000000066L109.47370000000001 35.865299999999934L108.12599999999998 35.75610000000006L107.21179999999993 36.55140000000006L105.75279999999998 36.0005000000001L103.99429999999995 36.97929999999997L102.18119999999999 38.44710000000009L102.6943 38.98780000000011L102.72159999999997 39.558700000000044L102.50490000000002 40.20029999999997L101.73669999999993 40.48160000000007L101.14530000000002 41.475599999999986L99.5666 41.65129999999999L99.50299999999993 42.05639999999994L100.00260000000003 42.56490000000008L99.96619999999996 43.68100000000004L98.8931 43.649000000000115L98.22439999999995 42.96080000000006L98.33079999999995 42.60050000000001L97.6508 42.59979999999996L97.27570000000003 43.250299999999925L96.04250000000002 44.08140000000003L96.08690000000001 45.67530000000011L94.928 47.263999999999896L96.93259999999998 48.63830000000007L96.44870000000003 49.76440000000002L96.71870000000001 50.5317L98.43079999999998 52.26950000000011L99.59929999999997 52.546800000000076L99.62059999999997 53.322200000000066L100.55099999999993 53.067999999999984L102.28949999999998 54.721000000000004L103.14289999999994 56.131399999999985L102.7876 57.27500000000009L100.98630000000003 58.7672L100.19179999999994 58.5954999999999L99.66610000000003 57.972099999999955L98.4642 57.78639999999996L97.24270000000001 59.246799999999894L95.72739999999999 60.378099999999904L95.80819999999994 61.13740000000007L95.6825 61.849500000000035z">
      <title id="t163">Huitième circonscription de l'Hérault</title>
      <desc id="d163">Cantons de : Frontignan (moins la commune de Villeneuve-lès-Maguelone), Montpellier X, Pignan</desc>
    </path><path class="circo" id="id-034-09" d="M133.32426999999996 31.948000000000093L133.50986999999998 31.65000000000009L131.98037 32.22440000000006L130.05256999999995 31.571500000000015L129.58066999999994 32.15969999999993L129.41367000000002 32.90120000000002L129.03026999999997 32.950000000000045L128.73766999999998 33.6241L127.11522000000002 34.293300000000045L128.32106999999996 35.081300000000056L128.10726999999997 36.1866L128.66967 36.684799999999996L128.09726999999998 37.58639999999991L127.04102 36.91059999999993L126.66089999999997 36.81680000000006L126.29329999999993 37.86390000000006L125.25710000000004 38.25L125.24279999999999 39.03530000000001L124.71479999999997 38.5603000000001L122.89030000000002 37.31189999999992L119.83179999999993 38.477300000000014L118.71780000000001 39.95209999999997L118.42290000000003 40.23180000000002L117.31190000000004 41.41579999999999L115.72289999999998 41.06040000000007L115.27739999999994 40.43689999999992L114.26670000000001 41.7813000000001L114.9724 41.6875L115.3107 42.35549999999989L115.0815 42.872699999999895L114.15199999999993 42.77710000000002L113.76749999999993 43.23270000000002L114.37519999999995 43.16300000000001L115.13829999999996 43.41750000000002L116.1232 44.63429999999994L118.92239999999993 44.09999999999991L118.35130000000004 45.058500000000095L118.88329999999996 45.541099999999915L121.29139999999995 47.556100000000015L121.73889999999994 49.489900000000034L121.54639999999995 49.83989999999994L121.49439999999993 50.6570999999999L124.50149999999996 49.399000000000115L127.29746999999998 48.768299999999954L129.79587000000004 48.651800000000094L132.68537000000003 48.998800000000074L133.33736999999996 47.34870000000001L131.19397000000004 45.011799999999994L130.44397000000004 44.98350000000005L130.48247000000003 44.937599999999975L131.21096999999997 44.61380000000008L132.58736999999996 45.3732L134.54126999999994 45.01119999999992L136.86527 45.339500000000044L136.81476999999995 44.10089999999991L138.55156999999997 42.376199999999926L140.49406999999997 38.72910000000002L140.57156999999995 37.56840000000011L138.00517000000002 33.05660000000012L138.06357000000003 32.74000000000001L138.25527 32.03620000000001L137.17696999999998 30.13239999999996L135.35246999999993 30.863599999999906L134.78367000000003 31.86069999999995L134.06376999999998 32.21759999999995L133.32426999999996 31.948000000000093z">
      <title id="t164">Neuvième circonscription de l'Hérault</title>
      <desc id="d164">Cantons de : Lunel (moins les communes de Boisseron, Saturargues, Saussines, Saint-Christol, Saint-Sériès, Vérargues, Villetelle), Mauguio, Montpellier IV</desc>
    </path></svg>