<svg xmlns="http://www.w3.org/2000/svg" version="1.1" xmlns:xlink="http://www.w3.org/1999/xlink" xmlns:svgjs="http://svgjs.dev/svgjs" viewBox="872.76143 1050.4031 140.57156999999995 88.94769999999994"><path class="circo" id="id-034-01" d="M 981.98183,1109.6468 984.78343,1106.4325 983.75353,1105.192 982.60243,1104.9435 982.52233,1103.462 980.72503,1102.034 981.37303,1101.5828 981.21373,1100.8226 981.76083,1099.7666 981.14733,1098.8949 980.44013,1098.837 980.45203,1098.4813 980.27293,1097.898 979.28103,1097.4783 978.59483,1096.6575 979.15183,1094.9324 978.42333,1094.1034 980.34473,1094.1429 981.03603,1094.056 981.23923,1095.0783 983.26103,1093.0498 983.31303,1092.3782 981.27403,1092.3352 980.75253,1091.2124 981.09923,1090.47 980.49123,1089.4682 981.53693,1088.977 982.20453,1089.2937 983.42683,1090.4703 983.02903,1091.0527 984.24553,1091.7379 984.63593,1092.1517 984.31033,1094.4806 983.12743,1094.9345 983.94683,1095.9885 985.68553,1093.9491 986.28773,1094.3902 986.52893,1093.6358 987.13663,1093.5661 987.89973,1093.8206 988.88463,1095.0374 991.68383,1094.5031 991.11273,1095.4616 991.64473,1095.9442 994.05283,1097.9592 994.50033,1099.893 994.30783,1100.243 994.25583,1101.0602 989.03413,1103.7607 984.34403,1107.2457 982.08623,1109.7016 981.98183,1109.6468 z">
      <title id="t156">Première circonscription de l'Hérault</title>
      <desc id="d156">Cantons de : Lattes, Montpellier V, Montpellier VI, Montpellier VIII, Commune de Villeneuve-lès-Maguelone</desc>
    </path><path class="circo" id="id-034-02" d="M 983.12743,1094.9345 984.31033,1094.4806 984.63593,1092.1517 985.04353,1092.6203 985.50153,1091.9709 985.72043,1091.7374 985.45523,1090.9641 985.80083,1090.5363 985.70873,1089.6415 985.34023,1088.6013 985.91653,1088.3887 986.63273,1088.2973 987.50373,1088.8833 987.85423,1089.4385 987.65033,1090.0813 988.03883,1090.84 987.02813,1092.1844 987.73383,1092.0906 988.07213,1092.7586 987.84293,1093.2758 986.91343,1093.1802 986.52893,1093.6358 986.28773,1094.3902 985.68553,1093.9491 983.94683,1095.9885 983.12743,1094.9345 z">
      <title id="t157">Deuxième circonscription de l'Hérault</title>
      <desc id="d157">Cantons de : Montpellier I, Montpellier III, Montpellier VII, Montpellier IX</desc>
    </path><path class="circo" id="id-034-03" d="M 986.59933,1082.2858 987.03723,1081.2231 986.84073,1080.0271 986.26763,1079.4904 986.09033,1078.4374 986.23773,1077.8906 987.29363,1077.4397 987.15423,1076.3169 988.17883,1076.878 988.42243,1076.5282 988.46443,1076.2692 989.92513,1076.968 991.90363,1075.547 993.92973,1075.3905 995.04503,1074.988 995.60123,1074.3954 994.72543,1072.2264 995.06813,1071.4942 994.67753,1070.3595 996.48453,1069.3677 996.97203,1068.9955 999.53753,1070.6589 1001.3736,1072.2941 1001.277,1073.1234 1001.2575,1073.5629 1002.2628,1074.0118 1002.5743,1074.713 1003.9865,1074.3351 1004.6019,1074.7959 1004.7307,1075.9447 1005.2933,1076.4672 1006.353,1077.5749 1007.2722,1077.9342 1008.2044,1077.523 1008.8861,1077.8123 1009.1866,1078.4848 1009.9384,1080.5355 1008.1139,1081.2667 1007.5451,1082.2638 1006.8252,1082.6207 1006.0857,1082.3511 1006.2713,1082.0531 1004.7418,1082.6275 1002.814,1081.9746 1002.3421,1082.5628 1002.1751,1083.3043 1001.7917,1083.3531 1001.4991,1084.0272 999.87665,1084.6964 1001.0825,1085.4844 1000.8687,1086.5897 1001.4311,1087.0879 1000.8587,1087.9895 999.80245,1087.3137 999.42233,1087.2199 999.05473,1088.267 998.01853,1088.6531 998.00423,1089.4384 997.47623,1088.9634 995.65173,1087.715 992.59323,1088.8804 991.47923,1090.3552 991.18433,1090.6349 990.07333,1091.8189 988.48433,1091.4635 987.65033,1090.0813 987.85423,1089.4385 987.50373,1088.8833 986.63273,1088.2973 985.91653,1088.3887 985.34023,1088.6013 985.70873,1089.6415 985.80083,1090.5363 985.45523,1090.9641 985.72043,1091.7374 985.50153,1091.9709 984.92043,1091.6352 984.62923,1090.514 984.03213,1090.1176 983.38603,1088.4204 984.70563,1087.7634 983.57103,1086.5839 983.49733,1085.7763 985.23213,1084.7904 985.15743,1084.3856 986.93593,1083.7738 986.59933,1082.2858 z">
      <title id="t158">Troisième circonscription de l'Hérault</title>
      <desc id="d158">Cantons de : Castelnau-le-Lez, Castries, Montpellier II, Communes de : Boisseron, Saturargues, Saussines, Saint-Christol, Saint-Sériès, Vérargues, Villetelle (issues du canton de Lunel), Campagne et Guarrigues (issues du canton de Claret)</desc>
    </path><path class="circo" id="id-034-04" d="M 975.45573,1089.3909 974.94263,1088.8502 976.75573,1087.3824 978.51423,1086.4036 979.97323,1086.9545 980.88743,1086.1592 982.23513,1086.2684 983.16063,1088.1157 983.38603,1088.4204 984.70563,1087.7634 983.57103,1086.5839 983.49733,1085.7763 985.23213,1084.7904 985.15743,1084.3856 986.93593,1083.7738 986.59933,1082.2858 987.03723,1081.2231 986.84073,1080.0271 986.26763,1079.4904 986.09033,1078.4374 986.23773,1077.8906 987.29363,1077.4397 987.15423,1076.3169 988.17883,1076.878 988.42243,1076.5282 988.46443,1076.2692 989.92513,1076.968 991.90363,1075.547 993.92973,1075.3905 995.04503,1074.988 995.60123,1074.3954 994.72543,1072.2264 995.06813,1071.4942 994.67753,1070.3595 993.46843,1069.8211 993.63533,1068.6009 994.66523,1067.3274 994.62573,1066.1604 995.11783,1065.5047 993.29983,1065.3338 993.37233,1064.2283 991.57953,1064.2205 990.32233,1063.6062 989.86493,1062.4814 990.01993,1060.8722 989.57823,1060.2026 988.36563,1061.2554 984.71253,1061.5574 983.93433,1062.4319 983.14123,1062.2366 982.47643,1062.706 981.75833,1061.8028 980.32233,1061.2711 979.81863,1059.8288 981.89793,1056.6161 982.26203,1055.9073 982.06623,1054.3798 981.58373,1053.7416 979.47663,1053.7571 978.75963,1052.3919 978.78123,1050.8532 974.00393,1050.4031 972.82523,1051.5488 971.83783,1051.4633 971.31003,1051.873 970.03873,1052.6493 970.46503,1054.0333 969.96823,1053.9514 969.36603,1054.9225 969.54273,1055.6665 968.94253,1057.5454 968.16583,1057.4167 966.64893,1057.2118 966.70653,1058.4642 966.09583,1058.8797 965.85473,1058.6102 966.06673,1056.9873 964.86223,1056.7429 963.04483,1059.2899 962.66313,1060.3835 961.40853,1061.4078 960.89183,1062.9394 962.84613,1064.2918 962.81243,1064.6852 961.64933,1064.8928 961.06423,1065.4008 959.59323,1064.0143 958.49933,1064.4426 956.93963,1063.8824 956.19673,1062.8801 956.35683,1060.4224 955.34993,1059.2609 953.64153,1059.7733 952.83383,1059.8723 951.02873,1062.121 949.86183,1062.4178 948.84713,1063.1145 947.69323,1062.011 948.49233,1061.853 949.00423,1060.3053 948.89783,1058.7029 947.89013,1057.4116 946.00333,1057.0088 945.38193,1057.475 944.26763,1057.2848 943.21353,1056.8474 942.62603,1057.3502 942.31703,1057.1141 940.90763,1058.3278 940.97473,1059.4312 938.94223,1059.7911 936.94373,1059.3385 936.15173,1059.5351 935.43903,1059.1271 934.50363,1059.2066 934.17803,1059.8075 933.84713,1061.0152 932.43813,1061.813 931.89763,1062.9329 931.98913,1064.1618 933.22063,1065.815 933.02443,1067.0486 932.83473,1068.9065 932.58913,1070.1132 932.62963,1071.7092 932.05433,1074.1293 932.06273,1074.8581 932.84063,1076.5009 933.31423,1078.5447 933.37773,1080.4744 933.97943,1080.9292 935.02093,1080.083 935.38473,1080.7076 935.33643,1081.8818 936.56703,1083.8159 936.25673,1085.0924 938.05803,1085.832 938.84363,1085.6977 939.56613,1086.021 942.31513,1085.5804 943.04703,1085.2073 943.31303,1084.4323 944.35823,1084.9365 944.64683,1086.0578 945.38073,1086.3743 945.36373,1085.983 946.14223,1086.004 947.12733,1085.4242 948.03063,1086.163 948.80373,1086.2063 948.98823,1085.8182 950.17143,1086.3842 951.48663,1085.8092 953.22753,1086.1297 952.43983,1088.1558 952.49643,1088.5525 953.70383,1089.5196 953.21873,1090.1401 952.16623,1089.6793 952.75513,1091.5479 953.28143,1092.0899 953.82443,1091.9539 954.35743,1092.7337 954.20043,1094.2653 953.45803,1094.5194 953.75823,1096.006 953.14613,1096.2989 952.70693,1095.8665 952.46123,1096.1299 952.49583,1097.1933 951.86433,1097.6032 952.59213,1098.4922 952.66363,1098.6668 952.85743,1099.8214 952.45593,1101.5357 952.49593,1102.0644 952.66153,1103.0158 954.00233,1102.385 958.70963,1105.3514 958.95023,1105.9624 958.51083,1106.4507 958.84803,1106.6049 958.82813,1107.3467 960.10633,1108.6786 957.98733,1110.4941 957.35903,1111.9562 957.41593,1113.1657 956.53643,1113.9644 958.61153,1116.7497 962.34353,1118.7175 966.04743,1116.0794 968.10723,1114.6161 969.00983,1113.972 968.44393,1112.2526 968.56963,1111.5405 968.48883,1110.7812 970.00413,1109.6499 971.22563,1108.1895 972.42753,1108.3752 972.95323,1108.9986 973.74773,1109.1703 975.54903,1107.6781 975.90433,1106.5345 975.05093,1105.1241 973.31243,1103.4711 972.38203,1103.7253 972.36073,1102.9499 971.19223,1102.6726 969.48013,1100.9348 969.21013,1100.1675 969.69403,1099.0414 967.68943,1097.6671 968.84833,1096.0784 968.80393,1094.4845 970.03713,1093.6534 970.41223,1093.0029 971.09223,1093.0036 970.98583,1093.3639 971.65453,1094.0521 972.72763,1094.0841 972.76403,1092.968 972.26443,1092.4595 972.32803,1092.0544 973.90673,1091.8787 974.49813,1090.8847 975.26633,1090.6034 975.48303,1089.9618 975.45573,1089.3909 z">
      <title id="t159">Quatrième circonscription de l'Hérault</title>
      <desc id="d159">Cantons de : Aniane, Le Caylar, Claret (moins les communes de Campagne et Garrigues), Ganges, Gignac, Lodève, Les Matelles, Mèze, Saint-Martin-de-Londres</desc>
    </path><path class="circo" id="id-034-05" d="M 917.01343,1083.1461 915.95643,1082.6565 914.51623,1083.1879 913.44223,1082.7708 912.98903,1082.1306 911.51623,1081.5369 910.33313,1081.3562 909.64263,1081.7564 908.27443,1082.342 906.97943,1083.2559 906.57253,1083.2825 906.36993,1082.9273 905.04773,1083.7419 904.89293,1086.885 903.99193,1087.6578 902.01113,1087.3401 901.62783,1087.4896 901.06713,1088.5889 898.68083,1088.8215 897.27133,1089.653 896.10923,1089.4326 894.99053,1090.5798 894.44333,1091.1539 893.29333,1091.0154 892.09583,1091.9876 890.98963,1092.3882 890.32703,1091.9297 889.61913,1090.5036 888.28193,1089.0414 885.27543,1088.0664 885.05403,1087.7291 883.96763,1088.1849 882.41403,1088.1746 882.08673,1087.0671 881.72153,1086.9228 880.78683,1090.9742 880.08313,1092.9129 879.29203,1093.8778 879.21303,1094.287 879.68453,1094.9458 880.08003,1094.9165 880.44203,1096.0531 879.26943,1098.1109 880.52723,1100.1164 884.31663,1104.1989 882.85733,1103.7928 882.97543,1105.3698 882.54523,1106.4576 882.74213,1108.0104 883.63493,1109.285 883.34813,1110.0069 881.50503,1109.4418 881.21013,1109.695 881.64303,1110.7056 879.35593,1112.9757 878.60663,1112.7551 878.39633,1113.7409 878.04093,1113.8185 877.68443,1113.6571 876.09313,1114.7584 874.94653,1114.7983 876.47953,1116.0029 877.26363,1116.1146 876.74023,1117.5257 875.60033,1117.5444 875.22233,1117.456 874.99113,1117.7687 874.20443,1118.6803 873.80853,1120.243 874.04993,1121.4188 872.76143,1123.8892 873.73263,1124.9866 874.07523,1124.7964 876.45553,1125.2124 877.17543,1127.0734 877.83023,1127.5577 877.95463,1129.378 879.37073,1130.6128 879.29623,1130.9914 879.94753,1130.6205 880.50623,1129.6493 881.58723,1129.8155 882.89133,1129.9957 882.93373,1129.6026 884.21783,1128.7409 884.41823,1127.5842 885.12693,1127.2376 885.31563,1126.4875 886.11343,1127.2169 886.28253,1128.201 886.82363,1130.0776 886.38073,1131.1812 886.60733,1131.8808 887.11313,1132.2507 887.86263,1132.0285 889.82073,1133.3103 890.81933,1134.4757 892.51703,1134.0748 893.15503,1133.233 893.75693,1132.2063 893.74743,1132.1592 893.77053,1130.612 895.01033,1129.1379 895.67823,1128.6634 896.26653,1128.164 895.37453,1126.9302 896.39853,1126.3748 898.03383,1126.5542 898.76313,1126.1817 900.68113,1125.662 901.12343,1124.5438 900.76923,1122.578 899.58353,1120.5868 900.73573,1119.3991 900.85363,1119.7061 900.99983,1120.6507 902.31123,1121.3913 902.49723,1122.4734 902.46253,1123.1255 902.60553,1124.2903 902.09053,1125.2898 902.92443,1126.1065 904.28893,1126.8321 905.16163,1126.127 907.27223,1127.7774 908.24613,1127.717 911.06713,1126.9289 912.23163,1126.8721 912.38953,1129.1587 912.34343,1130.7808 912.88443,1131.4006 912.80073,1131.7881 913.13343,1131.9982 914.13723,1131.3746 916.47533,1131.505 918.39903,1133.5029 919.18283,1133.3988 920.13933,1134.0865 921.22043,1134.5562 921.60243,1134.4581 921.96223,1133.7594 923.89433,1133.9022 924.89493,1130.4489 924.80163,1128.876 921.78363,1127.8695 921.13673,1126.931 922.65703,1126.5245 923.25573,1125.5426 924.43103,1125.5289 924.45903,1125.14 923.10673,1123.7487 922.78543,1123.5295 922.98183,1122.0049 922.66883,1121.7814 921.70513,1121.3476 921.05083,1121.5917 919.06613,1121.1107 917.21543,1118.0387 915.95343,1117.0085 914.48523,1116.6267 916.17883,1115.6023 917.24593,1115.3503 920.16633,1114.669 920.91883,1113.7876 922.32053,1114.5468 923.49563,1114.5781 923.69823,1115.7313 922.64423,1116.1686 923.03033,1118.0407 923.38873,1118.198 924.64863,1117.3816 924.81263,1117.7376 924.99383,1118.3715 925.64233,1118.6832 925.98453,1117.9925 927.13863,1115.8941 928.30983,1114.8294 929.15433,1114.444 929.69853,1114.9783 930.06813,1114.8697 931.10153,1114.5177 931.38043,1113.8299 929.52093,1111.4813 930.02243,1110.3944 931.85373,1109.5873 933.23883,1108.2057 933.80943,1109.7293 934.59263,1110.6938 935.43793,1110.3449 936.80153,1108.6786 937.03233,1108.456 937.62053,1108.6986 939.05043,1108.2869 939.11593,1107.9152 940.20123,1107.5855 940.52643,1106.4505 939.94803,1103.8321 940.58393,1102.8033 942.50933,1102.1431 943.29633,1102.2185 944.53343,1103.3141 946.69063,1105.6427 947.21373,1105.85 947.45373,1106.5745 948.29273,1107.4054 950.01503,1108.1919 949.80713,1108.7534 949.74823,1109.1346 951.26053,1111.2665 951.66063,1111.9346 952.26303,1111.4388 953.80723,1111.2545 955.17803,1112.5958 955.91693,1114.3457 956.53643,1113.9644 957.41593,1113.1657 957.35903,1111.9562 957.98733,1110.4941 960.10633,1108.6786 958.82813,1107.3467 958.84803,1106.6049 958.51083,1106.4507 958.95023,1105.9624 958.70963,1105.3514 954.00233,1102.385 952.66153,1103.0158 952.49593,1102.0644 952.45593,1101.5357 952.85743,1099.8214 952.66363,1098.6668 952.59213,1098.4922 951.86433,1097.6032 952.49583,1097.1933 952.46123,1096.1299 952.70693,1095.8665 953.14613,1096.2989 953.75823,1096.006 953.45803,1094.5194 954.20043,1094.2653 954.35743,1092.7337 953.82443,1091.9539 953.28143,1092.0899 952.75513,1091.5479 952.16623,1089.6793 953.21873,1090.1401 953.70383,1089.5196 952.49643,1088.5525 952.43983,1088.1558 953.22753,1086.1297 951.48663,1085.8092 950.17143,1086.3842 948.98823,1085.8182 948.80373,1086.2063 948.03063,1086.163 947.12733,1085.4242 946.14223,1086.004 945.36373,1085.983 945.38073,1086.3743 944.64683,1086.0578 944.35823,1084.9365 943.31303,1084.4323 943.04703,1085.2073 942.31513,1085.5804 939.56613,1086.021 938.84363,1085.6977 938.05803,1085.832 936.25673,1085.0924 936.56703,1083.8159 935.33643,1081.8818 935.38473,1080.7076 935.02093,1080.083 933.97943,1080.9292 933.37773,1080.4744 933.31423,1078.5447 932.84063,1076.5009 932.06273,1074.8581 932.05433,1074.1293 932.62963,1071.7092 932.58913,1070.1132 932.83473,1068.9065 933.02443,1067.0486 931.93733,1067.3306 930.78473,1068.4393 929.30733,1069.0067 927.35843,1069.0221 925.43163,1068.4932 924.73063,1068.7906 924.66593,1068.9114 922.71143,1068.4828 921.21633,1067.169 919.35853,1066.3979 917.37293,1066.343 916.83823,1067.8101 917.16353,1069.3306 915.98403,1070.3567 916.58533,1071.3958 916.70493,1072.5582 918.17183,1074.3465 917.42433,1075.7449 916.63923,1075.8364 916.37143,1077.0285 916.71483,1077.7656 916.41893,1078.5244 916.74533,1079.2688 916.53263,1080.4275 917.73483,1081.4951 917.15673,1082.0183 917.01343,1083.1461 z">
      <title id="t160">Cinquième circonscription de l'Hérault</title>
      <desc id="d160">Cantons de : Bédarieux, Capestang, Clermont-l'Hérault, Lunas, Montagnac, Murviel-lès-Béziers, Olargues, Olonzac, Roujan, Saint-Chinian, Saint-Gervais-sur-Mare, Saint-Pons-de-Thomières, La Salvetat-sur-Agout</desc>
    </path><path class="circo" id="id-034-06" d="M 924.43103,1125.5289 923.25573,1125.5426 922.65703,1126.5245 921.13673,1126.931 921.78363,1127.8695 924.80163,1128.876 924.89493,1130.4489 923.89433,1133.9022 924.35243,1134.5267 924.30923,1135.3171 925.38663,1135.8021 926.57183,1135.7311 927.49803,1134.9974 928.28063,1134.9646 928.98583,1135.2729 931.32033,1138.6104 932.30393,1139.3508 934.92033,1136.9491 938.34433,1134.4887 941.05863,1132.6416 942.86333,1131.8169 943.80633,1130.0366 943.66953,1128.4263 943.52573,1128.0442 942.77003,1127.7496 941.86603,1125.9346 941.25663,1125.3989 940.64233,1125.0135 940.00613,1124.3369 940.34043,1123.5812 940.02653,1121.9855 940.70793,1120.9545 940.67613,1120.5419 940.04203,1120.0122 938.57083,1120.6258 938.12053,1119.9612 935.64933,1118.8398 934.18263,1117.8012 935.11703,1115.994 933.59313,1114.6075 933.19483,1114.4873 932.18043,1113.728 931.38043,1113.8299 931.10153,1114.5177 930.06813,1114.8697 929.69853,1114.9783 929.15433,1114.444 928.30983,1114.8294 927.13863,1115.8941 925.98453,1117.9925 925.64233,1118.6832 924.99383,1118.3715 924.81263,1117.7376 924.64863,1117.3816 923.38873,1118.198 923.03033,1118.0407 922.64423,1116.1686 923.69823,1115.7313 923.49563,1114.5781 922.32053,1114.5468 920.91883,1113.7876 920.16633,1114.669 917.24593,1115.3503 916.17883,1115.6023 914.48523,1116.6267 915.95343,1117.0085 917.21543,1118.0387 919.06613,1121.1107 921.05083,1121.5917 921.70513,1121.3476 922.66883,1121.7814 922.98183,1122.0049 922.78543,1123.5295 923.10673,1123.7487 924.45903,1125.14 924.43103,1125.5289 z">
      <title id="t161">Sixième circonscription de l'Hérault</title>
      <desc id="d161">Cantons de : Béziers I, Béziers II, Béziers III, Béziers IV</desc>
    </path><path class="circo" id="id-034-07" d="M 955.71803,1131.9791 955.02043,1132.3936 949.56333,1131.2568 948.31873,1130.3171 945.89473,1130.6594 942.86333,1131.8169 943.80633,1130.0366 943.66953,1128.4263 943.52573,1128.0442 942.77003,1127.7496 941.86603,1125.9346 941.25663,1125.3989 940.64233,1125.0135 940.00613,1124.3369 940.34043,1123.5812 940.02653,1121.9855 940.70793,1120.9545 940.67613,1120.5419 940.04203,1120.0122 938.57083,1120.6258 938.12053,1119.9612 935.64933,1118.8398 934.18263,1117.8012 935.11703,1115.994 933.59313,1114.6075 933.19483,1114.4873 932.18043,1113.728 931.38043,1113.8299 929.52093,1111.4813 930.02243,1110.3944 931.85373,1109.5873 933.23883,1108.2057 933.80943,1109.7293 934.59263,1110.6938 935.43793,1110.3449 936.80153,1108.6786 937.03233,1108.456 937.62053,1108.6986 939.05043,1108.2869 939.11593,1107.9152 940.20123,1107.5855 940.52643,1106.4505 939.94803,1103.8321 940.58393,1102.8033 942.50933,1102.1431 943.29633,1102.2185 944.53343,1103.3141 946.69063,1105.6427 947.21373,1105.85 947.45373,1106.5745 948.29273,1107.4054 950.01503,1108.1919 949.80713,1108.7534 949.74823,1109.1346 951.26053,1111.2665 951.66063,1111.9346 952.26303,1111.4388 953.80723,1111.2545 955.17803,1112.5958 955.91693,1114.3457 956.53643,1113.9644 958.61153,1116.7497 962.34353,1118.7175 966.04743,1116.0794 968.10723,1114.6161 969.00983,1113.972 973.15863,1114.9259 973.47523,1115.6363 973.51363,1117.2926 970.45253,1118.4438 968.44553,1118.3096 967.34923,1118.8772 964.51293,1121.271 960.02563,1126.1185 957.74073,1128.9389 955.71803,1131.9791 z">
      <title id="t162">Septième circonscription de l'Hérault</title>
      <desc id="d162">Cantons de : Agde, Florensac, Pézenas, Servian, Sète I, Sète II</desc>
    </path><path class="circo" id="id-034-08" d="M 968.44393,1112.2526 969.00983,1113.972 973.15863,1114.9259 973.47523,1115.6363 979.39223,1112.7996 982.08623,1109.7016 981.98183,1109.6468 984.78343,1106.4325 983.75353,1105.192 982.60243,1104.9435 982.52233,1103.462 980.72503,1102.034 981.37303,1101.5828 981.21373,1100.8226 981.76083,1099.7666 981.14733,1098.8949 980.44013,1098.837 980.45203,1098.4813 980.27293,1097.898 979.28103,1097.4783 978.59483,1096.6575 979.15183,1094.9324 978.42333,1094.1034 980.34473,1094.1429 981.03603,1094.056 981.23923,1095.0783 983.26103,1093.0498 983.31303,1092.3782 981.27403,1092.3352 980.75253,1091.2124 981.09923,1090.47 980.49123,1089.4682 981.53693,1088.977 982.20453,1089.2937 983.42683,1090.4703 983.02903,1091.0527 984.24553,1091.7379 985.04353,1092.6203 985.50153,1091.9709 984.92043,1091.6352 984.62923,1090.514 984.03213,1090.1176 983.38603,1088.4204 983.16063,1088.1157 982.23513,1086.2684 980.88743,1086.1592 979.97323,1086.9545 978.51423,1086.4036 976.75573,1087.3824 974.94263,1088.8502 975.45573,1089.3909 975.48303,1089.9618 975.26633,1090.6034 974.49813,1090.8847 973.90673,1091.8787 972.32803,1092.0544 972.26443,1092.4595 972.76403,1092.968 972.72763,1094.0841 971.65453,1094.0521 970.98583,1093.3639 971.09223,1093.0036 970.41223,1093.0029 970.03713,1093.6534 968.80393,1094.4845 968.84833,1096.0784 967.68943,1097.6671 969.69403,1099.0414 969.21013,1100.1675 969.48013,1100.9348 971.19223,1102.6726 972.36073,1102.9499 972.38203,1103.7253 973.31243,1103.4711 975.05093,1105.1241 975.90433,1106.5345 975.54903,1107.6781 973.74773,1109.1703 972.95323,1108.9986 972.42753,1108.3752 971.22563,1108.1895 970.00413,1109.6499 968.48883,1110.7812 968.56963,1111.5405 968.44393,1112.2526 z">
      <title id="t163">Huitième circonscription de l'Hérault</title>
      <desc id="d163">Cantons de : Frontignan (moins la commune de Villeneuve-lès-Maguelone), Montpellier X, Pignan</desc>
    </path><path class="circo" id="id-034-09" d="M 1006.0857,1082.3511 1006.2713,1082.0531 1004.7418,1082.6275 1002.814,1081.9746 1002.3421,1082.5628 1002.1751,1083.3043 1001.7917,1083.3531 1001.4991,1084.0272 999.87665,1084.6964 1001.0825,1085.4844 1000.8687,1086.5897 1001.4311,1087.0879 1000.8587,1087.9895 999.80245,1087.3137 999.42233,1087.2199 999.05473,1088.267 998.01853,1088.6531 998.00423,1089.4384 997.47623,1088.9634 995.65173,1087.715 992.59323,1088.8804 991.47923,1090.3552 991.18433,1090.6349 990.07333,1091.8189 988.48433,1091.4635 988.03883,1090.84 987.02813,1092.1844 987.73383,1092.0906 988.07213,1092.7586 987.84293,1093.2758 986.91343,1093.1802 986.52893,1093.6358 987.13663,1093.5661 987.89973,1093.8206 988.88463,1095.0374 991.68383,1094.5031 991.11273,1095.4616 991.64473,1095.9442 994.05283,1097.9592 994.50033,1099.893 994.30783,1100.243 994.25583,1101.0602 997.26293,1099.8021 1000.0589,1099.1714 1002.5573,1099.0549 1005.4468,1099.4019 1006.0988,1097.7518 1003.9554,1095.4149 1003.2054,1095.3866 1003.2439,1095.3407 1003.9724,1095.0169 1005.3488,1095.7763 1007.3027,1095.4143 1009.6267,1095.7426 1009.5762,1094.504 1011.313,1092.7793 1013.2555,1089.1322 1013.333,1087.9715 1010.7666,1083.4597 1010.825,1083.1431 1011.0167,1082.4393 1009.9384,1080.5355 1008.1139,1081.2667 1007.5451,1082.2638 1006.8252,1082.6207 1006.0857,1082.3511 z">
      <title id="t164">Neuvième circonscription de l'Hérault</title>
      <desc id="d164">Cantons de : Lunel (moins les communes de Boisseron, Saturargues, Saussines, Saint-Christol, Saint-Sériès, Vérargues, Villetelle), Mauguio, Montpellier IV</desc>
    </path></svg>