<svg xmlns="http://www.w3.org/2000/svg" version="1.1" xmlns:xlink="http://www.w3.org/1999/xlink" xmlns:svgjs="http://svgjs.dev/svgjs" viewBox="462.40233 466.13579 107.89660000000003 137.69149999999996"><path class="circo" id="035-01" d="M 513.48763,544.46838 513.00623,545.59171 512.17103,546.58679 512.38253,546.97219 512.38263,549.20613 511.29903,548.84325 509.95483,549.72656 508.69743,549.5363 507.89853,548.56748 507.10413,548.79899 506.46203,549.96158 506.55063,551.26079 505.96573,551.92663 505.86143,553.20854 506.04593,554.03166 505.42523,555.12115 505.21903,556.75563 506.88883,557.02533 507.83303,557.78357 507.47073,558.99182 507.82223,559.76976 508.94393,559.17533 509.26793,556.61588 509.68103,555.84772 510.07933,555.67136 510.72523,556.25684 511.17243,556.93894 511.95033,557.25196 512.31273,558.00788 513.13073,558.13427 513.07363,561.90604 513.19023,562.31453 514.31173,562.85309 514.96213,560.92382 516.14033,561.01193 516.67823,561.64047 517.36353,563.17001 518.49283,562.58515 518.71933,562.2239 518.24603,561.09597 519.18603,560.28987 520.72683,559.54932 521.12273,557.89814 521.67703,557.21995 521.29063,556.99522 520.80473,555.27351 520.77973,554.0206 521.31463,553.37633 522.11393,551.34038 523.70393,550.02365 523.79683,549.61363 522.92003,548.72216 523.48663,548.10217 523.92793,546.51694 523.53243,545.41011 520.63163,546.01177 519.61723,544.61772 518.75643,544.46983 518.00673,544.01376 517.91853,543.58173 517.87843,542.70281 516.60903,543.03841 516.29393,543.47763 515.60283,543.59018 515.36923,543.83024 515.27573,544.20563 514.38823,544.25602 513.48763,544.46838 z">
      <title id="t165">Première circonscription d'Ille-et-Vilaine</title>
      <desc id="d165">Cantons de : Bruz, Rennes-le-Blosne, Rennes-Brequigny, Rennes Centre-Sud, Rennes Sud-Est</desc>
    </path><path class="circo" id="035-02" d="M 504.47423,514.13272 503.76703,514.67488 502.55833,514.16674 501.24943,514.41186 499.81583,513.37158 499.73963,511.32287 500.52023,509.89325 501.22983,509.38588 501.39813,508.56352 503.27613,509.59971 504.94873,509.59101 505.91443,510.31075 506.19413,511.57374 507.26593,510.7766 511.60983,509.66164 513.17253,508.22807 511.65283,507.31288 511.43673,506.48475 511.76513,506.18363 513.09533,506.11104 514.65793,507.65401 514.49073,508.71709 515.64653,508.99212 516.11873,509.64923 516.50353,509.52613 516.61063,510.40659 516.25923,511.2149 516.59573,511.50402 519.98713,512.32 519.98403,512.3663 518.84783,513.00363 515.89213,512.9659 514.94513,514.91334 515.10043,515.32477 514.03903,515.85098 514.19513,516.60788 512.62243,517.06918 512.28383,519.12247 512.96623,520.13309 512.98653,520.97814 513.37203,521.14854 512.97473,522.36613 511.64153,523.41494 509.14053,523.48109 509.38283,524.46321 508.34263,526.53599 509.58653,527.80924 509.81623,528.64079 509.56453,529.45412 510.30053,530.43202 510.09103,531.66446 510.54213,532.3856 509.94923,532.99255 510.30963,534.00052 511.65923,533.42197 512.58753,534.11921 514.32793,531.7962 515.55573,531.58769 516.00123,530.45294 518.10073,532.01197 518.51533,531.86914 518.72113,531.03864 520.97813,531.87182 521.60003,529.88926 521.25553,528.65597 521.40333,526.9763 521.02703,526.77632 521.55753,525.71911 522.28293,525.33284 522.98513,525.71298 524.21373,525.67507 524.32313,525.12451 524.73283,524.37128 525.91363,523.81627 527.03593,522.49831 528.33063,522.46306 530.92543,522.42743 530.63323,523.22443 529.82043,523.47904 529.43433,524.23531 531.08863,526.15871 531.06123,526.58705 531.12013,527.01957 532.36823,527.33274 533.28563,528.22956 535.83723,527.85211 536.07233,527.4846 536.77223,528.41929 537.91593,528.70024 538.41513,527.01753 540.50853,526.53178 541.16903,525.42998 543.74083,525.06246 546.34503,527.85926 547.57233,527.97729 547.24543,528.7782 546.21703,529.55515 545.12103,528.93921 544.73503,529.11323 541.97333,531.58514 542.17253,531.91658 541.56553,532.54308 541.39253,533.8534 541.68453,535.53729 540.85793,535.72898 540.53923,536.38647 540.37803,536.76291 539.63743,536.87186 539.12603,538.42643 538.09243,537.64594 537.26573,537.51993 537.06193,538.36146 534.45483,539.61839 533.59933,539.52667 532.48273,540.00203 532.03983,537.89516 530.51623,539.28975 530.83293,540.49645 530.58043,541.29137 529.75693,541.23738 529.36463,541.94613 528.16043,541.93709 527.32013,540.5679 526.46883,540.5102 524.96703,541.83777 524.52293,544.18026 524.44313,544.91911 523.53243,545.41011 520.63163,546.01177 519.61723,544.61772 518.75643,544.46983 518.00673,544.01376 517.91853,543.58173 517.87843,542.70281 516.60903,543.03841 516.29393,543.47763 515.60283,543.59018 515.27393,543.23709 515.15683,542.16637 514.98203,541.60271 515.41203,540.76307 515.91873,539.17791 515.50533,539.14797 513.15783,540.20034 512.13333,538.86989 510.22193,538.84212 510.18143,538.04868 509.39473,537.22534 509.64203,536.89811 509.36113,536.12814 508.26233,536.5413 507.48353,536.23685 507.13693,535.48236 507.10953,533.40986 505.84823,533.37824 505.67763,532.12776 507.94023,530.9491 506.84623,530.23686 505.63243,527.1477 505.57093,526.75577 504.37523,525.85748 501.17453,526.12016 500.15873,525.26786 501.07673,524.74407 501.00903,524.36962 500.20883,522.88105 500.54933,522.10496 501.51173,521.5311 501.66823,521.12197 501.21053,520.41428 501.66463,519.91654 503.21383,519.35412 504.00053,516.95146 506.30893,515.89726 505.74333,514.29064 504.47423,514.13272 z">
      <title id="t166">Deuxième circonscription d'Ille-et-Vilaine</title>
      <desc id="d166">Cantons de : Betton, Cesson-Sévigné, Hédé, Liffré, Rennes Nord-Est, Rennes Est</desc>
    </path><path class="circo" id="035-03" d="M 501.21053,520.41428 501.66823,521.12197 501.51173,521.5311 500.54933,522.10496 500.20883,522.88105 501.00903,524.36962 501.07673,524.74407 500.15873,525.26786 501.17453,526.12016 504.37523,525.85748 505.57093,526.75577 505.63243,527.1477 506.84623,530.23686 507.94023,530.9491 505.67763,532.12776 505.84823,533.37824 507.10953,533.40986 507.13693,535.48236 507.48353,536.23685 508.26233,536.5413 509.36113,536.12814 509.64203,536.89811 509.39473,537.22534 510.18143,538.04868 510.22193,538.84212 512.13333,538.86989 512.51823,539.38982 512.07443,539.71415 510.97703,541.25522 512.36903,541.2597 512.55353,542.4315 511.97303,543.04724 511.43433,542.87049 509.59503,543.10458 509.90723,542.67365 510.10453,541.7997 508.97333,540.45468 508.57983,540.32464 507.35843,541.31454 506.11863,541.34829 505.41813,541.78238 504.62393,541.84095 504.44143,541.47219 504.32763,541.06813 502.79893,540.4911 501.97913,539.55037 503.10153,537.82444 501.97143,536.58756 501.76443,535.80405 501.70673,535.02631 500.95443,535.08966 498.99123,535.9552 498.49153,534.75901 497.62783,534.92969 497.00383,535.47395 497.01343,537.13346 496.64743,537.34575 496.04263,540.19613 496.64213,540.78223 497.50103,540.86221 498.59523,540.15257 501.44423,539.37764 501.57333,539.74754 500.83063,540.65195 500.69913,541.38446 500.44303,542.08097 498.93613,542.51603 496.81893,542.79409 496.43733,541.54363 494.42603,542.16602 493.89663,542.76494 494.66393,544.26643 494.50243,544.66902 497.41183,548.12112 495.81213,548.65754 494.89643,549.56199 493.61933,549.78176 492.92433,550.24263 490.81533,550.51845 490.26193,548.94806 492.25563,546.96329 490.37303,546.48742 489.63063,547.58173 486.48883,549.25815 483.97823,548.45504 483.53893,548.54281 483.06953,549.30355 482.31523,548.32542 481.06513,548.41281 480.35793,547.90664 479.07103,547.75933 478.93223,547.43454 478.58483,547.6704 476.59503,547.09293 475.98403,546.5247 474.32733,546.31055 473.56823,546.35458 472.52263,547.47537 471.40113,546.59341 467.93863,547.12092 466.86903,547.82879 466.83173,549.08059 465.07323,549.17268 465.00133,547.95231 465.66463,546.4691 465.28483,545.74518 465.10103,544.85649 465.05523,543.13413 462.42453,540.1513 462.76713,538.67969 464.34163,537.9502 465.40453,538.67192 466.27033,538.72211 466.62333,538.46529 465.79013,537.49139 465.82183,537.05497 467.28943,536.20448 467.74063,535.45496 468.24693,531.28454 467.46513,530.31518 468.66343,529.96528 469.69293,530.67462 470.52893,530.65855 471.18743,530.18941 471.20813,529.77062 470.67033,528.61884 470.93383,526.094 471.74783,525.20697 473.85593,523.8321 474.08953,524.21054 476.29953,524.149 477.78413,525.11608 477.61243,524.71522 478.34103,523.25188 477.52793,522.94426 477.45453,522.12807 479.62713,521.97456 480.31563,520.87748 480.24633,519.99499 482.22933,519.12656 482.86823,520.24782 485.64523,521.5569 486.47973,521.35292 486.67463,520.07828 487.18103,519.36996 487.57183,519.17345 488.84503,518.91189 489.59993,519.9757 490.41013,519.82098 489.85533,518.75817 490.63063,516.53975 489.65773,513.46839 491.28253,513.49742 492.46943,513.08497 492.76703,512.78851 492.62243,511.96274 491.39433,510.35963 491.45793,509.04177 491.95093,507.92754 492.04023,507.14762 492.78843,506.87687 491.87843,505.97609 492.09943,505.14843 491.84263,504.79642 492.10813,503.61025 490.92063,502.33061 491.21003,500.20115 492.03823,500.12939 493.14463,498.79279 493.16953,497.91423 492.73053,497.13862 493.05443,496.30817 494.57943,495.7019 494.51153,496.13032 495.75223,495.92015 496.08193,496.20123 496.41423,495.40503 495.98403,494.20765 496.37343,494.01923 498.01293,494.49201 499.33343,496.06454 499.49413,496.37356 500.52103,496.41434 501.68613,495.9081 502.01393,495.16213 503.27923,494.02128 504.21113,495.95131 504.97803,496.28483 509.31983,494.30783 509.75763,494.32425 510.60653,496.34317 511.47933,497.30195 511.36643,498.17291 512.02773,498.65885 512.42723,498.59694 512.84493,498.00819 514.15013,499.0244 516.17143,497.40375 517.80593,497.75437 518.43273,497.22644 519.42243,497.66502 519.09183,500.03033 518.28083,500.39683 517.52853,501.98023 517.50253,502.87196 516.60333,503.78725 517.17483,505.44537 516.66893,506.1168 516.88593,506.89326 517.49553,507.4213 517.20663,508.6531 516.45263,509.08976 516.50353,509.52613 516.11873,509.64923 515.64653,508.99212 514.49073,508.71709 514.65793,507.65401 513.09533,506.11104 511.76513,506.18363 511.43673,506.48475 511.65283,507.31288 513.17253,508.22807 511.60983,509.66164 507.26593,510.7766 506.19413,511.57374 505.91443,510.31075 504.94873,509.59101 503.27613,509.59971 501.39813,508.56352 501.22983,509.38588 500.52023,509.89325 499.73963,511.32287 499.81583,513.37158 501.24943,514.41186 502.55833,514.16674 503.76703,514.67488 504.47423,514.13272 505.74333,514.29064 506.30893,515.89726 504.00053,516.95146 503.21383,519.35412 501.66463,519.91654 501.21053,520.41428 z">
      <title id="t167">Troisième circonscription d'Ille-et-Vilaine</title>
      <desc id="d167">Cantons de : Bécherel, Combourg, Montfort-sur-Meu, Montauban-de-Bretagne, Rennes Nord-Ouest, Saint-Méen-le-Grand, Tinténiac</desc>
    </path><path class="circo" id="035-04" d="M 528.78853,577.43515 529.12923,577.1621 529.58963,574.60877 530.61423,573.23904 531.41433,572.72731 532.43193,571.90742 530.63703,570.76874 531.06143,570.03368 530.43303,568.93804 529.25363,568.43955 527.77043,569.25048 526.59523,568.68709 525.76563,568.80933 525.14203,567.39805 524.75933,567.32411 524.93233,566.90363 524.51293,566.11257 522.48913,564.38069 523.54823,563.28728 523.52913,562.50112 522.27073,562.87416 520.58543,562.80778 520.36603,562.42826 520.62173,561.13723 519.18603,560.28987 518.24603,561.09597 518.71933,562.2239 518.49283,562.58515 517.36353,563.17001 516.67823,561.64047 516.14033,561.01193 514.96213,560.92382 514.31173,562.85309 513.19023,562.31453 513.07363,561.90604 513.13073,558.13427 512.31273,558.00788 511.95033,557.25196 511.17243,556.93894 510.72523,556.25684 510.07933,555.67136 509.68103,555.84772 509.26793,556.61588 508.94393,559.17533 507.82223,559.76976 507.47073,558.99182 507.83303,557.78357 506.88883,557.02533 505.21903,556.75563 505.42523,555.12115 506.04593,554.03166 505.86143,553.20854 504.29203,552.5741 503.72293,551.4065 502.53433,551.2557 502.03323,551.1728 501.79923,550.80202 502.14473,549.53121 501.75163,548.74798 500.11133,548.93941 498.67623,547.96834 497.41183,548.12112 495.81213,548.65754 494.89643,549.56199 493.61933,549.78176 492.92433,550.24263 490.81533,550.51845 490.26193,548.94806 492.25563,546.96329 490.37303,546.48742 489.63063,547.58173 486.48883,549.25815 483.97823,548.45504 483.53893,548.54281 483.06953,549.30355 482.31523,548.32542 481.06513,548.41281 480.35793,547.90664 479.07103,547.75933 478.93223,547.43454 478.58483,547.6704 476.59503,547.09293 475.98403,546.5247 474.32733,546.31055 473.56823,546.35458 472.52263,547.47537 472.23583,547.812 472.27183,549.13109 470.57863,550.49747 466.23703,550.47827 465.61983,551.09969 463.61373,553.21528 462.99743,554.47749 462.83583,554.88149 463.34043,556.04059 462.42173,556.94339 462.40233,558.24274 466.59653,557.24815 468.61803,558.02224 469.00923,557.82447 470.60363,558.53804 471.82143,559.697 474.38233,559.20365 475.07923,559.73751 476.43153,561.75269 476.66313,562.12222 477.39063,562.35984 477.94643,563.26126 478.50853,565.32472 480.13283,567.38296 479.71173,567.99923 479.87223,568.7231 478.87883,569.58434 478.03563,569.80483 477.11603,571.20228 477.13863,572.53835 478.41933,574.35791 477.54023,576.33783 478.75203,577.04508 480.95153,575.95251 482.19393,573.81028 482.51493,575.28758 482.25973,576.07044 482.64113,577.72844 483.77993,578.28575 482.86833,580.09232 480.85423,581.07814 480.71163,582.70464 480.64783,583.55557 479.41143,584.67155 478.73323,585.17982 477.48523,585.22877 477.37643,586.02765 476.20943,586.23367 475.91003,587.40407 479.32383,587.25284 479.84063,588.78287 481.54633,588.6854 481.75563,590.32279 477.53973,590.6308 477.46773,591.381 475.92813,592.13655 475.87273,592.94595 476.71733,593.93692 476.29723,596.06048 476.41723,597.35211 478.01633,598.17047 478.06873,599.45715 477.46203,600.5905 477.28743,601.78548 478.76833,602.26404 478.75183,602.67823 478.00543,602.97696 478.07253,603.38568 478.59553,603.82729 479.86923,601.54877 482.42533,601.42145 482.81363,599.73596 483.18073,599.49489 483.84043,599.14412 485.79973,599.39921 489.10483,595.90199 489.13413,595.91714 489.47533,596.70311 489.45483,598.4169 489.70913,598.76177 490.55603,598.80166 492.34313,596.82988 496.62513,595.66734 496.82383,595.77911 498.14323,594.94908 498.50713,594.23744 499.29773,594.14864 500.63293,594.3102 501.42983,593.95246 502.13973,594.45685 505.01093,595.17896 506.25773,595.33089 508.07333,594.31096 509.57413,594.93115 509.81893,595.24678 511.38663,595.1105 511.44913,594.23542 511.83033,594.01789 513.50793,593.56564 515.65693,593.88222 517.07183,592.37346 517.60363,592.35805 517.71663,589.88785 518.53863,587.6031 519.17583,587.13005 520.34663,587.20845 521.00573,586.75611 521.34283,585.55397 522.09363,585.19082 522.93643,585.27519 524.54843,584.58059 526.75913,584.44713 528.30883,582.87294 529.00333,582.38714 529.76763,582.7073 531.00263,582.4246 532.02703,581.77425 531.93313,580.61462 530.88593,578.49556 529.77353,578.1847 528.78853,577.43515 z">
      <title id="t168">Quatrième circonscription d'Ille-et-Vilaine</title>
      <desc id="d168">Cantons de : Bain-de-Bretagne, Grand-Fougeray, Guichen, Maure-de-Bretagne, Pipriac, Plélan-le-Grand, Redon, Le Sel-de-Bretagne</desc>
    </path><path class="circo" id="035-05" d="M 563.94163,558.75039 562.70713,558.57665 561.45043,558.87701 560.80563,560.81844 559.20573,561.20008 558.56933,561.67767 558.13623,563.13841 558.28713,564.88013 557.63803,565.52048 557.97953,566.29246 557.51113,567.89244 556.91003,568.46605 556.87093,570.14348 555.51253,570.99261 555.09003,571.68117 555.06133,572.51427 555.76693,573.94776 554.58883,575.32368 553.73373,575.27694 552.96503,576.14479 553.64063,577.13943 553.47863,577.94473 552.87773,580.11549 552.05243,580.04118 551.59423,581.25698 551.27133,581.49113 551.42923,582.23199 551.67653,583.00454 550.94563,585.46695 543.18763,583.20041 542.94603,583.12702 540.89843,582.43283 538.56533,578.93657 537.38593,579.35527 537.06763,579.05242 536.58333,579.04077 535.93293,578.51911 533.03593,578.5024 532.31043,578.1086 531.07603,578.11493 530.88593,578.49556 529.77353,578.1847 528.78853,577.43515 529.12923,577.1621 529.58963,574.60877 530.61423,573.23904 531.41433,572.72731 532.43193,571.90742 530.63703,570.76874 531.06143,570.03368 530.43303,568.93804 529.25363,568.43955 527.77043,569.25048 526.59523,568.68709 525.76563,568.80933 525.14203,567.39805 524.75933,567.32411 524.93233,566.90363 524.51293,566.11257 522.48913,564.38069 523.54823,563.28728 523.52913,562.50112 522.27073,562.87416 520.58543,562.80778 520.36603,562.42826 520.62173,561.13723 519.18603,560.28987 520.72683,559.54932 521.12273,557.89814 521.67703,557.21995 521.29063,556.99522 520.80473,555.27351 520.77973,554.0206 521.31463,553.37633 522.11393,551.34038 523.70393,550.02365 523.79683,549.61363 522.92003,548.72216 523.48663,548.10217 523.92793,546.51694 523.53243,545.41011 524.44313,544.91911 524.52293,544.18026 524.96703,541.83777 526.46883,540.5102 527.32013,540.5679 528.16043,541.93709 529.36463,541.94613 529.75693,541.23738 530.58043,541.29137 530.83293,540.49645 530.51623,539.28975 532.03983,537.89516 532.48273,540.00203 533.59933,539.52667 534.45483,539.61839 537.06193,538.36146 537.26573,537.51993 538.09243,537.64594 539.12603,538.42643 539.63743,536.87186 540.37803,536.76291 540.53923,536.38647 540.85793,535.72898 541.68453,535.53729 541.39253,533.8534 541.56553,532.54308 542.17253,531.91658 541.97333,531.58514 544.73503,529.11323 545.12103,528.93921 546.21703,529.55515 547.24543,528.7782 547.57233,527.97729 546.34503,527.85926 543.74083,525.06246 546.43243,524.13023 547.16283,524.56892 550.51903,524.8928 551.85953,522.70239 552.16893,522.71682 553.54333,524.35392 554.92613,525.29786 556.40503,524.61641 557.12753,525.65924 557.55233,525.62516 558.44173,524.74305 560.03793,525.30986 561.32003,525.31152 561.44903,524.00038 563.35173,522.9818 563.45883,525.16063 564.99503,529.22014 564.44083,530.42692 564.88553,531.05088 565.52573,531.64737 565.19653,534.26186 565.56233,536.89569 566.39183,536.99865 566.80563,541.20325 567.34653,543.6786 567.66983,545.77203 568.41793,547.23657 569.67933,548.28497 570.01893,548.46814 569.44733,549.40632 569.02563,550.63684 569.45863,552.27587 568.99403,553.02004 570.02603,554.94731 570.29893,556.9702 570.00063,557.74775 569.26073,558.11979 567.56923,559.11539 565.99553,559.32937 565.15533,559.14396 563.94163,558.75039 z">
      <title id="t169">Cinquième circonscription d'Ille-et-Vilaine</title>
      <desc id="d169">Cantons de : Argentré-du-Plessis, Châteaubourg, Châteaugiron, La Guerche-de-Bretagne, Janzé, Retiers, Vitré Est, Vitré Ouest</desc>
    </path><path class="circo" id="035-06" d="M 530.19953,494.69889 529.70773,492.26967 528.04373,489.44869 527.83363,489.50594 527.66493,488.24676 526.53063,486.9908 527.03543,485.39038 527.55953,484.72838 526.98653,483.18355 525.77403,482.95369 526.03953,480.82174 525.48053,479.71205 524.69843,479.30903 523.73073,478.58906 523.30243,477.09499 517.64873,478.60204 515.07423,479.15514 513.51883,479.90565 513.61733,481.19588 512.60933,481.91839 512.82993,483.59224 513.50643,485.17024 515.19253,485.32809 515.68223,486.98052 516.29623,487.61174 515.43963,487.8372 514.95723,489.47385 513.66363,489.69424 514.44883,490.64797 514.37833,494.37042 513.14093,496.24123 512.84493,498.00819 514.15013,499.0244 516.17143,497.40375 517.80593,497.75437 518.43273,497.22644 519.42243,497.66502 519.09183,500.03033 518.28083,500.39683 517.52853,501.98023 517.50253,502.87196 516.60333,503.78725 517.17483,505.44537 516.66893,506.1168 516.88593,506.89326 517.49553,507.4213 517.20663,508.6531 516.45263,509.08976 516.50353,509.52613 516.61063,510.40659 516.25923,511.2149 516.59573,511.50402 519.98713,512.32 519.98403,512.3663 518.84783,513.00363 515.89213,512.9659 514.94513,514.91334 515.10043,515.32477 514.03903,515.85098 514.19513,516.60788 512.62243,517.06918 512.28383,519.12247 512.96623,520.13309 512.98653,520.97814 513.37203,521.14854 512.97473,522.36613 511.64153,523.41494 509.14053,523.48109 509.38283,524.46321 508.34263,526.53599 509.58653,527.80924 509.81623,528.64079 509.56453,529.45412 510.30053,530.43202 510.09103,531.66446 510.54213,532.3856 509.94923,532.99255 510.30963,534.00052 511.65923,533.42197 512.58753,534.11921 514.32793,531.7962 515.55573,531.58769 516.00123,530.45294 518.10073,532.01197 518.51533,531.86914 518.72113,531.03864 520.97813,531.87182 521.60003,529.88926 521.25553,528.65597 521.40333,526.9763 521.02703,526.77632 521.55753,525.71911 522.28293,525.33284 522.98513,525.71298 524.21373,525.67507 524.32313,525.12451 524.73283,524.37128 525.91363,523.81627 527.03593,522.49831 528.33063,522.46306 530.92543,522.42743 530.63323,523.22443 529.82043,523.47904 529.43433,524.23531 531.08863,526.15871 531.06123,526.58705 531.12013,527.01957 532.36823,527.33274 533.28563,528.22956 535.83723,527.85211 536.07233,527.4846 536.77223,528.41929 537.91593,528.70024 538.41513,527.01753 540.50853,526.53178 541.16903,525.42998 543.74083,525.06246 546.43243,524.13023 547.16283,524.56892 550.51903,524.8928 551.85953,522.70239 552.16893,522.71682 553.54333,524.35392 554.92613,525.29786 556.40503,524.61641 557.12753,525.65924 557.55233,525.62516 558.44173,524.74305 560.03793,525.30986 561.32003,525.31152 561.44903,524.00038 563.35173,522.9818 563.88633,522.40623 564.12393,520.61139 564.77173,519.42209 566.66453,517.52457 566.81223,517.38462 567.95053,515.15166 567.10483,513.68387 566.76983,512.41644 567.06973,510.71493 566.33483,510.34492 567.03683,508.81576 567.35873,508.59282 565.06853,503.92596 565.17733,503.78303 565.19673,503.33321 564.82633,501.63765 565.02743,500.78458 566.29283,499.58666 566.13743,498.42274 566.35093,497.57912 565.59123,496.55589 565.26773,494.47829 565.47783,493.19069 566.11193,492.61582 565.88203,492.24631 563.24403,491.68291 561.87743,490.55788 560.61243,490.54799 559.46063,491.07095 558.07913,490.22483 557.67433,489.47629 555.83453,489.65496 555.12843,489.29825 554.25973,487.92104 554.14373,488.31929 552.08383,488.50621 550.67923,487.73179 550.63873,487.7282 548.64823,489.00879 548.93453,490.21084 548.13023,492.15868 547.39703,492.11301 546.34753,493.3504 544.75023,493.68418 544.49183,493.36195 543.92313,493.89943 543.76043,495.13674 543.20593,494.54216 542.82513,494.72031 542.22483,495.91477 542.39013,496.7836 539.97523,498.5599 539.29313,498.86585 537.89703,498.31674 535.48633,498.16445 534.41493,496.90451 534.80673,496.1684 534.31203,495.52275 533.24763,494.91038 532.95073,495.20458 532.22373,494.87832 531.49813,495.14726 530.54683,494.5242 530.19953,494.69889 z">
      <title id="t170">Sixième circonscription d'Ille-et-Vilaine</title>
      <desc id="d170">Cantons de : Antrain, Fougères Nord, Fougères Sud, Louvigné-du-Désert, Pleine-Fougères, Saint-Aubin-d'Aubigné, Saint-Aubin-du-Cormier, Saint-Brice-en-Coglès</desc>
    </path><path class="circo" id="035-07" d="M 500.09223,466.13579 497.65473,468.01079 496.34223,467.82329 495.99848,468.10454 494.99848,468.82329 494.24848,468.76079 493.87348,468.16704 493.40473,468.72954 492.62348,468.38579 492.31098,467.32329 492.06098,468.47954 490.59223,468.57329 490.34223,469.04204 492.06098,469.57329 490.12348,470.10454 489.93598,469.26079 488.96723,469.82329 487.77973,469.76079 488.43598,470.91704 487.43598,472.69829 485.49848,473.82329 484.49848,473.88579 484.37348,474.44829 485.06098,475.32329 484.21723,475.57329 484.24848,476.13579 485.06098,476.19829 485.71723,477.13579 485.37348,477.94829 485.68598,478.76079 486.62348,478.63579 485.87348,479.85454 485.84223,480.72954 487.09223,480.01079 486.68598,481.19829 487.02973,481.72954 488.06098,481.19829 489.12348,481.85454 490.06098,481.44829 490.15473,482.01079 489.68598,482.32329 490.56098,483.16704 490.65473,483.54204 490.18598,483.57329 488.37348,482.26079 487.81098,482.47954 489.21723,484.94829 488.71723,486.04204 489.99848,486.16704 490.15473,487.01079 489.43598,488.69829 491.24848,488.35454 492.49848,486.79204 492.68598,486.85454 493.24848,487.54204 493.18598,488.41704 493.74848,489.10454 494.37348,491.22954 494.37348,492.10454 493.40473,492.97954 493.40473,493.41704 494.59223,495.69829 494.49848,496.13579 495.74848,495.91704 496.09223,496.19829 496.40473,495.41704 495.99848,494.19829 496.37348,494.01079 497.99848,494.47954 499.34223,496.07329 499.49848,496.38579 500.52973,496.41704 501.68598,495.91704 501.99848,495.16704 503.27973,494.01079 504.21723,495.94829 504.96723,496.29204 509.31098,494.32329 509.74848,494.32329 510.59223,496.35454 511.46723,497.29204 511.37348,498.16704 512.02973,498.66704 512.43598,498.60454 512.84223,498.01079 513.15473,496.22954 514.37348,494.38579 514.43598,490.63579 513.65473,489.69829 514.96723,489.47954 515.43598,487.82329 516.31098,487.60454 515.68598,486.97954 515.18598,485.32329 513.49848,485.16704 512.84223,483.60454 512.62348,481.91704 513.62348,481.19829 513.52973,479.91704 515.06098,479.16704 506.59223,480.19829 506.52973,480.07329 504.62348,479.72954 502.02973,479.22954 499.99848,478.38579 498.99848,477.32329 497.84223,474.88579 498.37348,473.16704 498.59223,471.82329 500.74848,470.22954 499.81098,468.35454 500.09223,466.13579 z M 477.21723,475.16704 476.31098,475.94829 475.43598,475.85454 474.24848,476.32329 474.15473,476.76079 476.34223,479.91704 476.12348,480.82329 476.21723,481.35454 478.81098,484.13579 479.99848,484.60454 481.74848,484.32329 482.81098,485.10454 482.37348,486.66704 482.90473,487.66704 483.56098,487.94829 483.96723,486.79204 485.21723,485.79204 486.24848,484.85454 485.65473,484.16704 487.27973,483.38579 487.18598,482.44829 486.56098,482.63579 486.24848,481.97954 485.68598,482.10454 484.74848,480.22954 485.18598,479.85454 484.24848,479.97954 483.93598,479.07329 484.34223,478.54204 484.06098,477.85454 484.15473,477.44829 483.77973,477.19829 482.49848,477.13579 482.59223,475.88579 482.21723,475.66704 480.49848,475.41704 479.84223,475.88579 479.06098,476.10454 477.21723,475.16704 z">
      <title id="t171">Septième circonscription d'Ille-et-Vilaine</title>
      <desc id="d171">Cantons de : Cancale, Châteauneuf-d'Ille-et-Vilaine, Dinard, Dol-de-Bretagne, Saint-Malo Nord, Saint-Malo Sud</desc>
    </path><path class="circo" id="035-08" d="M 502.53433,551.2557 502.03323,551.1728 501.79923,550.80202 502.14473,549.53121 501.75163,548.74798 500.11133,548.93941 498.67623,547.96834 497.41183,548.12112 494.50243,544.66902 494.66393,544.26643 493.89663,542.76494 494.42603,542.16602 496.43733,541.54363 496.81893,542.79409 498.93613,542.51603 500.44303,542.08097 500.69913,541.38446 500.83063,540.65195 501.57333,539.74754 501.44423,539.37764 498.59523,540.15257 497.50103,540.86221 496.64213,540.78223 496.04263,540.19613 496.64743,537.34575 497.01343,537.13346 497.00383,535.47395 497.62783,534.92969 498.49153,534.75901 498.99123,535.9552 500.95443,535.08966 501.70673,535.02631 501.76443,535.80405 501.97143,536.58756 503.10153,537.82444 501.97913,539.55037 502.79893,540.4911 504.32763,541.06813 504.44143,541.47219 504.62393,541.84095 505.41813,541.78238 506.11863,541.34829 507.35843,541.31454 508.57983,540.32464 508.97333,540.45468 510.10453,541.7997 509.90723,542.67365 509.59503,543.10458 511.43433,542.87049 511.97303,543.04724 512.55353,542.4315 512.36903,541.2597 510.97703,541.25522 512.07443,539.71415 512.51823,539.38982 513.15783,540.20034 515.50533,539.14797 515.91873,539.17791 515.41203,540.76307 514.98203,541.60271 515.15683,542.16637 515.27393,543.23709 515.60283,543.59018 515.36923,543.83024 515.27573,544.20563 514.38823,544.25602 513.48763,544.46838 513.00623,545.59171 512.17103,546.58679 512.38253,546.97219 512.38263,549.20613 511.29903,548.84325 509.95483,549.72656 508.69743,549.5363 507.89853,548.56748 507.10413,548.79899 506.46203,549.96158 506.55063,551.26079 505.96573,551.92663 505.86143,553.20854 504.29203,552.5741 503.72293,551.4065 502.53433,551.2557 z">
      <title id="t172">Huitième circonscription d'Ille-et-Vilaine</title>
      <desc id="d172">Cantons de : Mordelles, Rennes Centre, Rennes Centre-Ouest, Rennes Nord, Rennes Sud-Ouest</desc>
    </path></svg>