<svg xmlns="http://www.w3.org/2000/svg" version="1.1" xmlns:xlink="http://www.w3.org/1999/xlink" xmlns:svgjs="http://svgjs.dev/svgjs" viewBox="0 0 107.89660000000003 137.69149999999996"><path class="circo" id="id-035-01" d="M51.08529999999996 78.33259000000004L50.60389999999995 79.45592000000005L49.76869999999997 80.45099999999996L49.98019999999997 80.83639999999997L49.98029999999994 83.07034000000004L48.89670000000001 82.70746000000003L47.55250000000001 83.59076999999996L46.29509999999999 83.40051L45.49619999999999 82.43169000000006L44.70179999999999 82.66320000000002L44.05970000000002 83.82579000000004L44.148300000000006 85.12500000000006L43.5634 85.79084000000006L43.45909999999998 87.07274999999998L43.64359999999999 87.89587L43.02289999999999 88.98535999999996L42.81669999999997 90.61984000000001L44.48649999999998 90.88954000000007L45.4307 91.64778000000007L45.0684 92.85602999999998L45.419899999999984 93.63397000000003L46.54160000000002 93.03954000000004L46.86559999999997 90.48008999999996L47.278700000000015 89.71193L47.67700000000002 89.53557000000006L48.322900000000004 90.12105000000003L48.77010000000001 90.80315000000002L49.548 91.11617000000007L49.91039999999998 91.87209000000001L50.728399999999965 91.99848000000003L50.671299999999974 95.77024999999998L50.787900000000036 96.17874L51.909400000000005 96.71729999999997L52.559799999999996 94.78802999999999L53.73799999999994 94.87614000000002L54.27589999999998 95.50468000000006L54.96119999999996 97.03422000000006L56.09050000000002 96.44936000000001L56.31700000000001 96.08810999999997L55.84370000000001 94.96017999999998L56.78369999999995 94.15407999999996L58.324499999999944 93.41352999999998L58.72040000000004 91.76235000000003L59.27469999999994 91.08416000000005L58.88829999999996 90.85943000000003L58.40239999999994 89.13772L58.377399999999966 87.88480999999996L58.91229999999996 87.24054000000007L59.711599999999976 85.20459L61.30160000000001 83.88785999999999L61.394499999999994 83.47783999999996L60.51769999999999 82.58637000000004L61.084299999999985 81.96638000000002L61.52559999999994 80.38114999999999L61.13009999999997 79.27432000000005L58.22929999999997 79.87597999999997L57.21489999999994 78.48192999999998L56.35410000000002 78.33404000000002L55.60439999999994 77.87797000000006L55.516200000000026 77.44594000000001L55.476099999999974 76.56702000000001L54.206699999999955 76.90262000000001L53.89160000000004 77.34183999999999L53.200500000000034 77.45439000000005L52.96690000000001 77.69445000000002L52.87339999999995 78.06984000000006L51.985900000000015 78.12023000000005L51.08529999999996 78.33259000000004z">
      <title id="t165">Première circonscription d'Ille-et-Vilaine</title>
      <desc id="d165">Cantons de : Bruz, Rennes-le-Blosne, Rennes-Brequigny, Rennes Centre-Sud, Rennes Sud-Est</desc>
    </path><path class="circo" id="id-035-02" d="M42.07189999999997 47.99692999999996L41.36469999999997 48.539090000000044L40.156000000000006 48.03095000000002L38.84710000000001 48.27607000000006L37.4135 47.23579000000001L37.33729999999997 45.18708000000004L38.11790000000002 43.75746000000004L38.827499999999986 43.25009L38.995799999999974 42.42773L40.87380000000002 43.46392000000003L42.546400000000006 43.45522L43.512099999999975 44.17496L43.79179999999997 45.43795L44.86360000000002 44.64080999999999L49.20749999999998 43.52584999999999L50.770200000000045 42.09228000000002L49.25049999999999 41.17709000000002L49.034400000000005 40.348960000000034L49.36279999999999 40.04784000000001L50.692999999999984 39.97525000000002L52.25559999999996 41.51822000000004L52.08839999999998 42.5813L53.24419999999998 42.856330000000014L53.71640000000002 43.51344L54.10119999999995 43.39034000000004L54.20830000000001 44.27080000000001L53.856899999999996 45.079110000000014L54.1934 45.36823000000004L57.58479999999997 46.184210000000064L57.581699999999955 46.23051000000004L56.44550000000004 46.86784000000006L53.489799999999946 46.83011000000005L52.54279999999994 48.77754999999996L52.698099999999954 49.18897999999996L51.63670000000002 49.715190000000064L51.79279999999994 50.47209000000004L50.2201 50.933389999999974L49.88149999999996 52.986680000000035L50.56389999999999 53.99730000000005L50.58420000000001 54.84235000000007L50.96969999999999 55.01275000000004L50.572400000000016 56.23034000000001L49.23919999999998 57.279150000000016L46.738200000000006 57.34530000000001L46.980500000000006 58.32742000000002L45.94029999999998 60.400199999999984L47.184199999999976 61.67345000000006L47.41390000000001 62.50500000000005L47.162199999999984 63.31833L47.898199999999974 64.29622999999998L47.68869999999998 65.52866999999998L48.13979999999998 66.24980999999997L47.546899999999994 66.85676000000007L47.90730000000002 67.86473000000007L49.25689999999997 67.28618L50.18520000000001 67.98341999999997L51.92560000000003 65.66041000000001L53.15340000000003 65.45189999999997L53.59889999999996 64.31715000000003L55.69839999999999 65.87618000000003L56.11299999999994 65.73335000000003L56.31880000000001 64.90285L58.57579999999996 65.73602999999997L59.19769999999994 63.75347000000005L58.853200000000015 62.52018000000004L59.000999999999976 60.84051000000005L58.62469999999996 60.64053000000007L59.155200000000036 59.583320000000015L59.88059999999996 59.19705000000005L60.58280000000002 59.57719000000003L61.81140000000005 59.53928000000002L61.920799999999986 58.98872L62.33050000000003 58.23548999999997L63.511300000000006 57.680480000000045L64.6336 56.36251999999996L65.92830000000004 56.327270000000055L68.5231 56.29163999999997L68.23090000000002 57.08864L67.41809999999998 57.34325000000007L67.03200000000004 58.09952000000004L68.68629999999996 60.022920000000056L68.65890000000002 60.45125999999999L68.71780000000001 60.88378000000006L69.96590000000003 61.19694999999996L70.88329999999996 62.093770000000006L73.43489999999997 61.71632000000005L73.66999999999996 61.348810000000014L74.36990000000003 62.28350000000006L75.5136 62.56445000000002L76.01279999999997 60.88173999999998L78.10619999999994 60.39599000000004L78.76670000000001 59.294190000000015L81.33849999999995 58.92667L83.94269999999995 61.72346999999996L85.16999999999996 61.84150000000005L84.84310000000005 62.642409999999984L83.81470000000002 63.41936000000004L82.71870000000001 62.80342000000002L82.33270000000005 62.97744000000006L79.57100000000003 65.44935000000004L79.77020000000005 65.78078999999997L79.16319999999996 66.40729000000005L78.99019999999996 67.71760999999998L79.28219999999999 69.4015L78.4556 69.59318999999999L78.13689999999997 70.25068000000005L77.97569999999996 70.62712000000005L77.23509999999999 70.73606999999998L76.72370000000001 72.29064L75.69010000000003 71.51015000000001L74.86339999999996 71.38414000000006L74.65959999999995 72.22566999999998L72.05250000000001 73.48259999999999L71.197 73.39087999999998L70.08039999999994 73.86624L69.63750000000005 71.75937000000005L68.11389999999994 73.15396000000004L68.43060000000003 74.36066L68.17809999999997 75.15558000000004L67.3546 75.10159000000004L66.96230000000003 75.81034000000005L65.75810000000001 75.80130000000003L64.91779999999994 74.43211000000002L64.06650000000002 74.37441000000007L62.564700000000016 75.70197999999999L62.12059999999997 78.04446999999999L62.04079999999999 78.78332000000006L61.13009999999997 79.27432000000005L58.22929999999997 79.87597999999997L57.21489999999994 78.48192999999998L56.35410000000002 78.33404000000002L55.60439999999994 77.87797000000006L55.516200000000026 77.44594000000001L55.476099999999974 76.56702000000001L54.206699999999955 76.90262000000001L53.89160000000004 77.34183999999999L53.200500000000034 77.45439000000005L52.871599999999944 77.10129999999998L52.75450000000001 76.03058000000004L52.5797 75.46692000000002L53.00969999999995 74.62727999999998L53.516399999999976 73.04212000000001L53.10299999999995 73.01218L50.755499999999984 74.06455L49.730999999999995 72.73410000000007L47.81959999999998 72.70633000000004L47.77909999999997 71.91289L46.992399999999975 71.08954999999997L47.23969999999997 70.76231999999999L46.9588 69.99235000000004L45.860000000000014 70.40550999999999L45.08119999999997 70.10106000000002L44.7346 69.34656999999999L44.7072 67.27407L43.445899999999995 67.24245000000002L43.275300000000016 65.99196999999998L45.53789999999998 64.81331000000006L44.443899999999985 64.10106999999999L43.23009999999999 61.01191L43.16859999999997 60.61998L41.97289999999998 59.721690000000024L38.7722 59.98437000000007L37.756399999999985 59.132070000000056L38.67439999999999 58.60827999999998L38.60669999999999 58.23383000000007L37.80649999999997 56.74525999999997L38.14699999999999 55.96917000000002L39.109399999999994 55.39531000000005L39.26589999999999 54.98618000000005L38.8082 54.27848999999998L39.26229999999998 53.78075000000007L40.81149999999997 53.21832999999998L41.59820000000002 50.81567000000001L43.90659999999997 49.761469999999974L43.34100000000001 48.15485000000007L42.07189999999997 47.99692999999996z">
      <title id="t166">Deuxième circonscription d'Ille-et-Vilaine</title>
      <desc id="d166">Cantons de : Betton, Cesson-Sévigné, Hédé, Liffré, Rennes Nord-Est, Rennes Est</desc>
    </path><path class="circo" id="id-035-03" d="M38.8082 54.27848999999998L39.26589999999999 54.98618000000005L39.109399999999994 55.39531000000005L38.14699999999999 55.96917000000002L37.80649999999997 56.74525999999997L38.60669999999999 58.23383000000007L38.67439999999999 58.60827999999998L37.756399999999985 59.132070000000056L38.7722 59.98437000000007L41.97289999999998 59.721690000000024L43.16859999999997 60.61998L43.23009999999999 61.01191L44.443899999999985 64.10106999999999L45.53789999999998 64.81331000000006L43.275300000000016 65.99196999999998L43.445899999999995 67.24245000000002L44.7072 67.27407L44.7346 69.34656999999999L45.08119999999997 70.10106000000002L45.860000000000014 70.40550999999999L46.9588 69.99235000000004L47.23969999999997 70.76231999999999L46.992399999999975 71.08954999999997L47.77909999999997 71.91289L47.81959999999998 72.70633000000004L49.730999999999995 72.73410000000007L50.11590000000001 73.25403L49.6721 73.57836000000003L48.57470000000001 75.11943000000002L49.966699999999946 75.12390999999997L50.15120000000002 76.29571000000004L49.57069999999999 76.91145L49.03199999999998 76.73470000000003L47.1927 76.96879000000007L47.50490000000002 76.53785999999997L47.702200000000005 75.66391000000004L46.57099999999997 74.31889000000007L46.17750000000001 74.18885000000006L44.95609999999999 75.17874999999998L43.71629999999999 75.21250000000003L43.01580000000001 75.64659L42.22159999999997 75.70516000000003L42.03910000000002 75.33639999999997L41.92529999999999 74.93234000000001L40.39659999999998 74.35530999999997L39.57679999999999 73.41458000000006L40.69920000000002 71.68865L39.56909999999999 70.45177000000007L39.3621 69.66825999999998L39.30439999999999 68.89051999999998L38.552099999999996 68.95387L36.58889999999997 69.81941L36.089200000000005 68.62322L35.22550000000001 68.79390000000006L34.60149999999999 69.33815999999996L34.61110000000002 70.99767000000003L34.24509999999998 71.20995999999997L33.64029999999997 74.06034000000005L34.2398 74.64644000000004L35.09870000000001 74.72642000000002L36.19290000000001 74.01677999999998L39.0419 73.24185000000006L39.17099999999999 73.61174999999997L38.42829999999998 74.51616000000007L38.29680000000002 75.24867L38.040700000000015 75.94518L36.533799999999985 76.38024000000001L34.41660000000002 76.6583L34.03499999999997 75.40784000000002L32.02370000000002 76.03023000000002L31.49430000000001 76.62915000000004L32.26159999999999 78.13064000000003L32.1001 78.53323000000006L35.0095 81.98533000000003L33.40980000000002 82.52175000000005L32.4941 83.42620000000005L31.216999999999985 83.64596999999998L30.52199999999999 84.10683999999998L28.41300000000001 84.38266000000004L27.8596 82.81227000000007L29.85329999999999 80.82750000000004L27.970700000000022 80.35163000000006L27.22829999999999 81.44594000000001L24.0865 83.12236000000001L21.57589999999999 82.31925000000007L21.136599999999987 82.40702000000005L20.66719999999998 83.16775999999999L19.91289999999998 82.18963000000002L18.662800000000004 82.27702000000005L17.955600000000004 81.77085000000005L16.6687 81.62353999999999L16.529899999999998 81.29874999999998L16.182500000000005 81.53460999999999L14.192700000000002 80.95714000000004L13.581700000000012 80.38891000000007L11.925000000000011 80.17476000000005L11.165900000000022 80.21879000000007L10.120299999999986 81.33958000000001L8.998800000000017 80.45761999999996L5.536299999999983 80.98512999999997L4.466700000000003 81.69300000000004L4.429399999999987 82.94480000000004L2.6709000000000174 83.03689000000003L2.5989999999999895 81.81652000000003L3.262299999999982 80.33331000000004L2.882499999999993 79.60939000000002L2.698699999999974 78.72070000000002L2.6528999999999883 76.99834000000004L0.022199999999998 74.01551L0.36480000000000246 72.54390000000006L1.939300000000003 71.81441000000001L3.002200000000016 72.53613000000001L3.867999999999995 72.58632000000006L4.221000000000004 72.3295L3.38779999999997 71.35560000000004L3.419499999999971 70.91918000000004L4.887099999999975 70.06869L5.338300000000004 69.31917000000004L5.844600000000014 65.14875L5.0627999999999815 64.17939000000007L6.261099999999999 63.82949000000002L7.2905999999999835 64.53883000000002L8.126599999999996 64.52276L8.7851 64.05361999999997L8.805799999999977 63.63483000000002L8.267999999999972 62.48304999999999L8.531499999999994 59.958210000000065L9.345500000000015 59.07117999999997L11.453599999999994 57.69630999999998L11.687200000000018 58.07475000000005L13.897199999999998 58.013210000000015L15.381799999999998 58.980290000000025L15.210100000000011 58.57943000000006L15.938699999999983 57.11609000000004L15.12560000000002 56.80847L15.05219999999997 55.992279999999994L17.224800000000016 55.83877000000001L17.913299999999992 54.741690000000006L17.843999999999994 53.859200000000044L19.826999999999998 52.990770000000055L20.465899999999976 54.11203000000006L23.24290000000002 55.421110000000056L24.07740000000001 55.217130000000054L24.272299999999973 53.942489999999964L24.778700000000015 53.234170000000006L25.16949999999997 53.03766000000002L26.442700000000002 52.776099999999985L27.197599999999966 53.839909999999975L28.007799999999975 53.68518999999998L27.452999999999975 52.622379999999964L28.22829999999999 50.40396000000004L27.25540000000001 47.33260000000001L28.880200000000002 47.36163000000005L30.067099999999982 46.94918000000001L30.36469999999997 46.65271999999999L30.220100000000002 45.82695000000001L28.99200000000002 44.223839999999996L29.05559999999997 42.90598L29.54860000000002 41.791750000000036L29.637900000000002 41.01183000000003L30.3861 40.74108000000001L29.476099999999974 39.84030000000001L29.697099999999978 39.01264000000003L29.44029999999998 38.660630000000026L29.70580000000001 37.47446000000002L28.51830000000001 36.19481999999999L28.80770000000001 34.06536L29.635899999999992 33.993600000000015L30.7423 32.65700000000004L30.767200000000003 31.77843999999999L30.32819999999998 31.002830000000017L30.65210000000002 30.172380000000032L32.177099999999996 29.566110000000037L32.10919999999999 29.994529999999997L33.34989999999999 29.784359999999992L33.67959999999999 30.065440000000024L34.01189999999997 29.269240000000025L33.58170000000001 28.071860000000015L33.97109999999998 27.883440000000007L35.61059999999998 28.356220000000008L36.931100000000015 29.928750000000036L37.09179999999998 30.237770000000012L38.11869999999999 30.278549999999996L39.283799999999985 29.772310000000004L39.61160000000001 29.026340000000005L40.87689999999998 27.885490000000004L41.80880000000002 29.815519999999992L42.57569999999998 30.149040000000014L46.91750000000002 28.172040000000038L47.3553 28.18846000000002L48.204200000000014 30.20738L49.077 31.16615999999999L48.96409999999997 32.037120000000016L49.62540000000001 32.52305999999999L50.0249 32.46115000000003L50.44259999999997 31.872400000000027L51.747799999999984 32.88861000000003L53.76909999999998 31.267960000000016L55.40359999999998 31.61858000000001L56.030399999999986 31.09065000000004L57.02009999999996 31.52923000000004L56.68949999999995 33.894540000000006L55.87850000000003 34.26104000000004L55.12620000000004 35.84444000000002L55.10019999999997 36.736170000000016L54.20100000000002 37.651459999999986L54.772500000000036 39.30958000000004L54.26660000000004 39.981010000000026L54.483600000000024 40.75747000000001L55.093200000000024 41.28550999999999L54.80430000000001 42.51731000000001L54.05029999999999 42.95397000000003L54.10119999999995 43.39034000000004L53.71640000000002 43.51344L53.24419999999998 42.856330000000014L52.08839999999998 42.5813L52.25559999999996 41.51822000000004L50.692999999999984 39.97525000000002L49.36279999999999 40.04784000000001L49.034400000000005 40.348960000000034L49.25049999999999 41.17709000000002L50.770200000000045 42.09228000000002L49.20749999999998 43.52584999999999L44.86360000000002 44.64080999999999L43.79179999999997 45.43795L43.512099999999975 44.17496L42.546400000000006 43.45522L40.87380000000002 43.46392000000003L38.995799999999974 42.42773L38.827499999999986 43.25009L38.11790000000002 43.75746000000004L37.33729999999997 45.18708000000004L37.4135 47.23579000000001L38.84710000000001 48.27607000000006L40.156000000000006 48.03095000000002L41.36469999999997 48.539090000000044L42.07189999999997 47.99692999999996L43.34100000000001 48.15485000000007L43.90659999999997 49.761469999999974L41.59820000000002 50.81567000000001L40.81149999999997 53.21832999999998L39.26229999999998 53.78075000000007L38.8082 54.27848999999998z">
      <title id="t167">Troisième circonscription d'Ille-et-Vilaine</title>
      <desc id="d167">Cantons de : Bécherel, Combourg, Montfort-sur-Meu, Montauban-de-Bretagne, Rennes Nord-Ouest, Saint-Méen-le-Grand, Tinténiac</desc>
    </path><path class="circo" id="id-035-04" d="M66.38620000000003 111.29936000000004L66.7269 111.02631000000002L67.18730000000005 108.47298000000006L68.21190000000001 107.10325000000006L69.01199999999994 106.59152L70.02959999999996 105.77163000000002L68.23469999999998 104.63295L68.65909999999997 103.89789000000002L68.03070000000002 102.80225000000002L66.85130000000004 102.30376000000007L65.36810000000003 103.11469000000005L64.19290000000001 102.55130000000003L63.36329999999998 102.67354000000006L62.73969999999997 101.26226000000003L62.35699999999997 101.18832000000003L62.52999999999997 100.76784000000004L62.11059999999998 99.97678000000002L60.08680000000004 98.24489999999997L61.14589999999998 97.15149000000002L61.1268 96.36533000000003L59.86839999999995 96.73836999999997L58.18309999999997 96.67199L57.96370000000002 96.29247000000004L58.21939999999995 95.00144000000006L56.78369999999995 94.15407999999996L55.84370000000001 94.96017999999998L56.31700000000001 96.08810999999997L56.09050000000002 96.44936000000001L54.96119999999996 97.03422000000006L54.27589999999998 95.50468000000006L53.73799999999994 94.87614000000002L52.559799999999996 94.78802999999999L51.909400000000005 96.71729999999997L50.787900000000036 96.17874L50.671299999999974 95.77024999999998L50.728399999999965 91.99848000000003L49.91039999999998 91.87209000000001L49.548 91.11617000000007L48.77010000000001 90.80315000000002L48.322900000000004 90.12105000000003L47.67700000000002 89.53557000000006L47.278700000000015 89.71193L46.86559999999997 90.48008999999996L46.54160000000002 93.03954000000004L45.419899999999984 93.63397000000003L45.0684 92.85602999999998L45.4307 91.64778000000007L44.48649999999998 90.88954000000007L42.81669999999997 90.61984000000001L43.02289999999999 88.98535999999996L43.64359999999999 87.89587L43.45909999999998 87.07274999999998L41.889700000000005 86.43831000000006L41.32060000000001 85.27071000000007L40.132000000000005 85.11991000000006L39.6309 85.03701000000007L39.39690000000002 84.66622999999998L39.742399999999975 83.39542L39.34929999999997 82.61219L37.709 82.80361999999997L36.27389999999997 81.83255000000003L35.0095 81.98533000000003L33.40980000000002 82.52175000000005L32.4941 83.42620000000005L31.216999999999985 83.64596999999998L30.52199999999999 84.10683999999998L28.41300000000001 84.38266000000004L27.8596 82.81227000000007L29.85329999999999 80.82750000000004L27.970700000000022 80.35163000000006L27.22829999999999 81.44594000000001L24.0865 83.12236000000001L21.57589999999999 82.31925000000007L21.136599999999987 82.40702000000005L20.66719999999998 83.16775999999999L19.91289999999998 82.18963000000002L18.662800000000004 82.27702000000005L17.955600000000004 81.77085000000005L16.6687 81.62353999999999L16.529899999999998 81.29874999999998L16.182500000000005 81.53460999999999L14.192700000000002 80.95714000000004L13.581700000000012 80.38891000000007L11.925000000000011 80.17476000000005L11.165900000000022 80.21879000000007L10.120299999999986 81.33958000000001L9.833500000000015 81.67621000000003L9.869500000000016 82.99529999999999L8.17629999999997 84.36168000000004L3.834699999999998 84.34247999999997L3.2174999999999727 84.96390000000002L1.2113999999999692 87.07949000000002L0.5951000000000022 88.3417L0.4334999999999809 88.7457L0.9381000000000199 89.90479999999997L0.019400000000018736 90.80760000000004L0 92.10695000000004L4.194199999999967 91.11236000000002L6.21569999999997 91.88645000000002L6.606899999999996 91.68868000000003L8.201300000000003 92.40225000000004L9.419100000000014 93.56121000000002L11.980000000000018 93.06786000000005L12.67689999999999 93.60172000000006L14.029200000000003 95.61690000000004L14.260800000000017 95.98642999999998L14.988299999999981 96.22404999999998L15.544100000000014 97.12547L16.1062 99.18892999999997L17.730500000000006 101.24717000000004L17.309399999999982 101.86344000000003L17.469899999999996 102.58731000000006L16.476499999999987 103.44855000000001L15.63330000000002 103.66904000000005L14.713700000000017 105.06648999999999L14.736299999999972 106.40256000000005L16.016999999999996 108.22211999999996L15.137900000000002 110.20204000000007L16.349699999999984 110.90929L18.549199999999985 109.81671999999998L19.791600000000017 107.67449000000005L20.112599999999986 109.15179000000006L19.857399999999984 109.93464999999998L20.23879999999997 111.59264999999999L21.377599999999973 112.14996000000002L20.466000000000008 113.95652999999999L18.451899999999966 114.94234999999998L18.309300000000007 116.56885000000005L18.245499999999993 117.41978L17.00909999999999 118.53576000000004L16.330899999999986 119.04402999999996L15.082899999999995 119.09298000000007L14.974100000000021 119.89186000000001L13.807099999999991 120.09787999999998L13.5077 121.26828000000006L16.92149999999998 121.11705L17.43829999999997 122.64708000000002L19.144000000000005 122.54960999999997L19.35329999999999 124.18700000000007L15.137400000000014 124.49501000000004L15.065400000000011 125.24520999999999L13.525800000000004 126.00076000000007L13.470399999999984 126.81016000000005L14.314999999999998 127.80113L13.894900000000007 129.92469L14.014900000000011 131.21632000000005L15.613999999999976 132.03468000000004L15.66640000000001 133.32135999999997L15.05970000000002 134.45471000000003L14.885099999999966 135.64969000000002L16.365999999999985 136.12825000000004L16.349499999999978 136.54244L15.603099999999984 136.84116999999998L15.670199999999966 137.24989L16.19319999999999 137.69149999999996L17.46690000000001 135.41298L20.022999999999968 135.28566000000006L20.411299999999983 133.60017L20.778399999999976 133.35910000000007L21.43810000000002 133.00833000000006L23.397400000000005 133.26342000000005L26.702499999999986 129.76619999999997L26.73180000000002 129.78135000000003L27.07299999999998 130.56732000000005L27.05250000000001 132.28111000000007L27.30680000000001 132.62597999999997L28.153700000000015 132.66586999999998L29.940799999999967 130.69409000000002L34.22280000000001 129.53154999999998L34.42149999999998 129.64331999999996L35.74090000000001 128.81329L36.10480000000001 128.10165L36.895399999999995 128.01285000000001L38.23059999999998 128.17441000000002L39.027499999999975 127.81666999999999L39.73739999999998 128.32106000000005L42.60859999999997 129.04316999999998L43.855399999999975 129.19509999999997L45.67099999999999 128.17517000000004L47.17180000000002 128.79536000000002L47.41660000000002 129.11098999999996L48.98430000000002 128.97471000000002L49.04680000000002 128.09963L49.428 127.88209999999998L51.10559999999998 127.42985000000004L53.25459999999998 127.74642999999998L54.66949999999997 126.23767000000004L55.20129999999995 126.22226000000006L55.3143 123.75205999999997L56.136300000000006 121.46731000000005L56.77350000000001 120.99426L57.9443 121.07265999999998L58.603399999999965 120.62032000000005L58.94050000000004 119.41818000000006L59.691299999999956 119.05503000000004L60.53409999999997 119.13939999999997L62.14610000000005 118.44480000000004L64.35680000000002 118.31134000000003L65.90649999999994 116.73714999999999L66.601 116.25135000000006L67.36530000000005 116.57151000000005L68.60029999999995 116.28881000000007L69.62469999999996 115.63846000000007L69.5308 114.47882999999996L68.48360000000002 112.35976999999997L67.37120000000004 112.04891000000003L66.38620000000003 111.29936000000004z">
      <title id="t168">Quatrième circonscription d'Ille-et-Vilaine</title>
      <desc id="d168">Cantons de : Bain-de-Bretagne, Grand-Fougeray, Guichen, Maure-de-Bretagne, Pipriac, Plélan-le-Grand, Redon, Le Sel-de-Bretagne</desc>
    </path><path class="circo" id="id-035-05" d="M101.53930000000003 92.61460000000005L100.3048 92.44085999999999L99.04809999999998 92.74122000000006L98.40329999999994 94.68265000000002L96.80340000000001 95.06428999999997L96.16700000000003 95.54188000000005L95.73389999999995 97.00262000000004L95.88480000000004 98.74434000000002L95.23569999999995 99.38469000000003L95.57719999999995 100.15667000000002L95.10879999999997 101.75664999999998L94.5077 102.33026000000001L94.46860000000004 104.00768999999997L93.11019999999996 104.85682000000003L92.68769999999995 105.54537999999997L92.65899999999999 106.37848000000002L93.3646 107.81197000000003L92.18650000000002 109.18788999999998L91.33140000000003 109.14114999999998L90.56269999999995 110.00899999999996L91.23829999999998 111.00363999999996L91.07629999999995 111.80894000000006L90.47540000000004 113.97970000000004L89.65009999999995 113.90539000000007L89.19190000000003 115.12119000000001L88.86900000000003 115.35534000000001L89.02689999999996 116.09620000000001L89.27419999999995 116.86875000000003L88.54330000000004 119.33116000000001L80.7853 117.06462000000005L80.54369999999994 116.99123000000003L78.49609999999996 116.29703999999998L76.16300000000001 112.80077999999997L74.98360000000002 113.21948000000003L74.6653 112.91663L74.18100000000004 112.90497999999997L73.53060000000005 112.38331999999997L70.6336 112.36660999999998L69.90809999999999 111.97281000000004L68.67369999999994 111.97913999999997L68.48360000000002 112.35976999999997L67.37120000000004 112.04891000000003L66.38620000000003 111.29936000000004L66.7269 111.02631000000002L67.18730000000005 108.47298000000006L68.21190000000001 107.10325000000006L69.01199999999994 106.59152L70.02959999999996 105.77163000000002L68.23469999999998 104.63295L68.65909999999997 103.89789000000002L68.03070000000002 102.80225000000002L66.85130000000004 102.30376000000007L65.36810000000003 103.11469000000005L64.19290000000001 102.55130000000003L63.36329999999998 102.67354000000006L62.73969999999997 101.26226000000003L62.35699999999997 101.18832000000003L62.52999999999997 100.76784000000004L62.11059999999998 99.97678000000002L60.08680000000004 98.24489999999997L61.14589999999998 97.15149000000002L61.1268 96.36533000000003L59.86839999999995 96.73836999999997L58.18309999999997 96.67199L57.96370000000002 96.29247000000004L58.21939999999995 95.00144000000006L56.78369999999995 94.15407999999996L58.324499999999944 93.41352999999998L58.72040000000004 91.76235000000003L59.27469999999994 91.08416000000005L58.88829999999996 90.85943000000003L58.40239999999994 89.13772L58.377399999999966 87.88480999999996L58.91229999999996 87.24054000000007L59.711599999999976 85.20459L61.30160000000001 83.88785999999999L61.394499999999994 83.47783999999996L60.51769999999999 82.58637000000004L61.084299999999985 81.96638000000002L61.52559999999994 80.38114999999999L61.13009999999997 79.27432000000005L62.04079999999999 78.78332000000006L62.12059999999997 78.04446999999999L62.564700000000016 75.70197999999999L64.06650000000002 74.37441000000007L64.91779999999994 74.43211000000002L65.75810000000001 75.80130000000003L66.96230000000003 75.81034000000005L67.3546 75.10159000000004L68.17809999999997 75.15558000000004L68.43060000000003 74.36066L68.11389999999994 73.15396000000004L69.63750000000005 71.75937000000005L70.08039999999994 73.86624L71.197 73.39087999999998L72.05250000000001 73.48259999999999L74.65959999999995 72.22566999999998L74.86339999999996 71.38414000000006L75.69010000000003 71.51015000000001L76.72370000000001 72.29064L77.23509999999999 70.73606999999998L77.97569999999996 70.62712000000005L78.13689999999997 70.25068000000005L78.4556 69.59318999999999L79.28219999999999 69.4015L78.99019999999996 67.71760999999998L79.16319999999996 66.40729000000005L79.77020000000005 65.78078999999997L79.57100000000003 65.44935000000004L82.33270000000005 62.97744000000006L82.71870000000001 62.80342000000002L83.81470000000002 63.41936000000004L84.84310000000005 62.642409999999984L85.16999999999996 61.84150000000005L83.94269999999995 61.72346999999996L81.33849999999995 58.92667L84.03009999999995 57.99444L84.76049999999998 58.43313000000006L88.11670000000004 58.75700999999998L89.45719999999994 56.56660000000005L89.76660000000004 56.58103L91.14099999999996 58.21813000000003L92.52379999999994 59.16207000000003L94.0027 58.48061999999999L94.72519999999997 59.52344999999997L95.14999999999998 59.489370000000065L96.0394 58.60726000000005L97.63559999999995 59.17406999999997L98.91769999999997 59.17572999999999L99.04669999999999 57.864589999999964L100.94939999999997 56.846010000000035L101.05650000000003 59.02483999999998L102.59270000000004 63.08435000000003L102.0385 64.29113000000001L102.48320000000001 64.91509000000002L103.12339999999995 65.51158000000004L102.79420000000005 68.12606999999997L103.15999999999997 70.75989999999996L103.98950000000002 70.86286000000001L104.40329999999994 75.06746000000004L104.94420000000002 77.54280999999997L105.26750000000004 79.63623999999999L106.01559999999995 81.10078000000004L107.27700000000004 82.14918000000006L107.61659999999995 82.33234999999996L107.04499999999996 83.27053000000006L106.62329999999997 84.50105000000002L107.05629999999996 86.14008000000007L106.59169999999995 86.88425000000001L107.62369999999999 88.81152000000003L107.89660000000003 90.83440999999999L107.5983 91.61196000000001L106.85839999999996 91.98399999999998L105.16689999999994 92.97960000000006L103.59320000000002 93.19358000000005L102.75300000000004 93.00817L101.53930000000003 92.61460000000005z">
      <title id="t169">Cinquième circonscription d'Ille-et-Vilaine</title>
      <desc id="d169">Cantons de : Argentré-du-Plessis, Châteaubourg, Châteaugiron, La Guerche-de-Bretagne, Janzé, Retiers, Vitré Est, Vitré Ouest</desc>
    </path><path class="circo" id="id-035-06" d="M67.79719999999998 28.56310000000002L67.30539999999996 26.133880000000033L65.64139999999998 23.312900000000013L65.43129999999996 23.370150000000024L65.26260000000002 22.11097000000001L64.12829999999997 20.855009999999993L64.63310000000001 19.254590000000007L65.15719999999999 18.59259000000003L64.58420000000001 17.04776000000004L63.37170000000003 16.81790000000001L63.63720000000001 14.685949999999991L63.07820000000004 13.57625999999999L62.296100000000024 13.173240000000021L61.32839999999999 12.453270000000032L60.90009999999995 10.95920000000001L55.246399999999994 12.466250000000002L52.67189999999994 13.019350000000031L51.116499999999974 13.769859999999994L51.21500000000003 15.060090000000002L50.206999999999994 15.782600000000002L50.427599999999984 17.456450000000018L51.10410000000002 19.034449999999993L52.79020000000003 19.19229999999999L53.2799 20.844730000000027L53.89390000000003 21.47595000000001L53.03729999999996 21.70141000000001L52.554899999999975 23.33806000000004L51.261300000000006 23.558449999999993L52.04650000000004 24.51218L51.976 28.23463000000004L50.73860000000002 30.105439999999987L50.44259999999997 31.872400000000027L51.747799999999984 32.88861000000003L53.76909999999998 31.267960000000016L55.40359999999998 31.61858000000001L56.030399999999986 31.09065000000004L57.02009999999996 31.52923000000004L56.68949999999995 33.894540000000006L55.87850000000003 34.26104000000004L55.12620000000004 35.84444000000002L55.10019999999997 36.736170000000016L54.20100000000002 37.651459999999986L54.772500000000036 39.30958000000004L54.26660000000004 39.981010000000026L54.483600000000024 40.75747000000001L55.093200000000024 41.28550999999999L54.80430000000001 42.51731000000001L54.05029999999999 42.95397000000003L54.10119999999995 43.39034000000004L54.20830000000001 44.27080000000001L53.856899999999996 45.079110000000014L54.1934 45.36823000000004L57.58479999999997 46.184210000000064L57.581699999999955 46.23051000000004L56.44550000000004 46.86784000000006L53.489799999999946 46.83011000000005L52.54279999999994 48.77754999999996L52.698099999999954 49.18897999999996L51.63670000000002 49.715190000000064L51.79279999999994 50.47209000000004L50.2201 50.933389999999974L49.88149999999996 52.986680000000035L50.56389999999999 53.99730000000005L50.58420000000001 54.84235000000007L50.96969999999999 55.01275000000004L50.572400000000016 56.23034000000001L49.23919999999998 57.279150000000016L46.738200000000006 57.34530000000001L46.980500000000006 58.32742000000002L45.94029999999998 60.400199999999984L47.184199999999976 61.67345000000006L47.41390000000001 62.50500000000005L47.162199999999984 63.31833L47.898199999999974 64.29622999999998L47.68869999999998 65.52866999999998L48.13979999999998 66.24980999999997L47.546899999999994 66.85676000000007L47.90730000000002 67.86473000000007L49.25689999999997 67.28618L50.18520000000001 67.98341999999997L51.92560000000003 65.66041000000001L53.15340000000003 65.45189999999997L53.59889999999996 64.31715000000003L55.69839999999999 65.87618000000003L56.11299999999994 65.73335000000003L56.31880000000001 64.90285L58.57579999999996 65.73602999999997L59.19769999999994 63.75347000000005L58.853200000000015 62.52018000000004L59.000999999999976 60.84051000000005L58.62469999999996 60.64053000000007L59.155200000000036 59.583320000000015L59.88059999999996 59.19705000000005L60.58280000000002 59.57719000000003L61.81140000000005 59.53928000000002L61.920799999999986 58.98872L62.33050000000003 58.23548999999997L63.511300000000006 57.680480000000045L64.6336 56.36251999999996L65.92830000000004 56.327270000000055L68.5231 56.29163999999997L68.23090000000002 57.08864L67.41809999999998 57.34325000000007L67.03200000000004 58.09952000000004L68.68629999999996 60.022920000000056L68.65890000000002 60.45125999999999L68.71780000000001 60.88378000000006L69.96590000000003 61.19694999999996L70.88329999999996 62.093770000000006L73.43489999999997 61.71632000000005L73.66999999999996 61.348810000000014L74.36990000000003 62.28350000000006L75.5136 62.56445000000002L76.01279999999997 60.88173999999998L78.10619999999994 60.39599000000004L78.76670000000001 59.294190000000015L81.33849999999995 58.92667L84.03009999999995 57.99444L84.76049999999998 58.43313000000006L88.11670000000004 58.75700999999998L89.45719999999994 56.56660000000005L89.76660000000004 56.58103L91.14099999999996 58.21813000000003L92.52379999999994 59.16207000000003L94.0027 58.48061999999999L94.72519999999997 59.52344999999997L95.14999999999998 59.489370000000065L96.0394 58.60726000000005L97.63559999999995 59.17406999999997L98.91769999999997 59.17572999999999L99.04669999999999 57.864589999999964L100.94939999999997 56.846010000000035L101.48400000000004 56.270440000000065L101.72159999999997 54.47560000000004L102.36940000000004 53.28630000000004L104.2622 51.388780000000054L104.4099 51.248830000000055L105.54819999999995 49.01587000000001L104.70249999999999 47.54807999999997L104.36749999999995 46.28064999999998L104.66740000000004 44.579139999999995L103.9325 44.209130000000016L104.6345 42.679970000000026L104.95640000000003 42.45703000000003L102.6662 37.79016999999999L102.77499999999998 37.64724000000001L102.7944 37.19742000000002L102.42399999999998 35.50186000000002L102.62509999999997 34.64879000000002L103.89049999999997 33.45087000000001L103.73509999999999 32.28694999999999L103.94859999999994 31.443330000000003L103.18889999999999 30.42009999999999L102.86540000000002 28.34250000000003L103.07550000000003 27.054900000000032L103.70960000000002 26.48003L103.47969999999998 26.110520000000008L100.84169999999995 25.547120000000007L99.4751 24.422090000000026L98.21010000000001 24.41220000000004L97.05830000000003 24.935159999999996L95.67679999999996 24.08904000000001L95.27200000000005 23.34050000000002L93.43219999999997 23.51917000000003L92.72609999999997 23.16246000000001L91.85739999999998 21.78525000000002L91.7414 22.183500000000038L89.68150000000003 22.370420000000024L88.27689999999996 21.596000000000004L88.2364 21.59241000000003L86.2459 22.87299999999999L86.53219999999999 24.075050000000033L85.72789999999998 26.022890000000018L84.99469999999997 25.97721999999999L83.9452 27.214609999999993L82.34789999999998 27.54839000000004L82.08950000000004 27.226159999999993L81.52080000000001 27.76364000000001L81.35810000000004 29.00094999999999L80.80359999999996 28.406370000000038L80.42279999999994 28.584519999999998L79.82249999999999 29.77897999999999L79.9878 30.647809999999993L77.5729 32.42411000000004L76.89080000000001 32.73006000000004L75.49469999999997 32.180949999999996L73.08399999999995 32.02866L72.01260000000002 30.76872000000003L72.40440000000001 30.032610000000034L71.90970000000004 29.386959999999988L70.84529999999995 28.77458999999999L70.54840000000002 29.068790000000035L69.82140000000004 28.742529999999988L69.09579999999994 29.01147000000003L68.1445 28.38841000000002L67.79719999999998 28.56310000000002z">
      <title id="t170">Sixième circonscription d'Ille-et-Vilaine</title>
      <desc id="d170">Cantons de : Antrain, Fougères Nord, Fougères Sud, Louvigné-du-Désert, Pleine-Fougères, Saint-Aubin-d'Aubigné, Saint-Aubin-du-Cormier, Saint-Brice-en-Coglès</desc>
    </path><path class="circo" id="id-035-07" d="M37.689899999999966 0L35.252399999999966 1.875L33.939899999999966 1.6875L33.596149999999966 1.96875L32.596149999999966 2.6875L31.846149999999966 2.625L31.471149999999966 2.03125L31.002399999999966 2.59375L30.221149999999966 2.25L29.908649999999966 1.1875L29.658649999999966 2.34375L28.189899999999966 2.4375L27.939899999999966 2.90625L29.658649999999966 3.4375L27.721149999999966 3.96875L27.533649999999966 3.125L26.564899999999966 3.6875L25.377399999999966 3.625L26.033649999999966 4.78125L25.033649999999966 6.5625L23.096149999999966 7.6875L22.096149999999966 7.75L21.971149999999966 8.3125L22.658649999999966 9.1875L21.814899999999966 9.4375L21.846149999999966 10L22.658649999999966 10.0625L23.314899999999966 11L22.971149999999966 11.8125L23.283649999999966 12.625L24.221149999999966 12.5L23.471149999999966 13.71875L23.439899999999966 14.59375L24.689899999999966 13.875L24.283649999999966 15.0625L24.627399999999966 15.59375L25.658649999999966 15.0625L26.721149999999966 15.71875L27.658649999999966 15.3125L27.752399999999966 15.875L27.283649999999966 16.1875L28.158649999999966 17.03125L28.252399999999966 17.40625L27.783649999999966 17.4375L25.971149999999966 16.125L25.408649999999966 16.34375L26.814899999999966 18.8125L26.314899999999966 19.90625L27.596149999999966 20.03125L27.752399999999966 20.875L27.033649999999966 22.5625L28.846149999999966 22.21875L30.096149999999966 20.65625L30.283649999999966 20.71875L30.846149999999966 21.40625L30.783649999999966 22.28125L31.346149999999966 22.96875L31.971149999999966 25.09375L31.971149999999966 25.96875L31.002399999999966 26.84375L31.002399999999966 27.28125L32.189899999999966 29.5625L32.096149999999966 30L33.346149999999966 29.78125L33.689899999999966 30.0625L34.002399999999966 29.28125L33.596149999999966 28.0625L33.971149999999966 27.875L35.596149999999966 28.34375L36.939899999999966 29.9375L37.096149999999966 30.25L38.127399999999966 30.28125L39.283649999999966 29.78125L39.596149999999966 29.03125L40.877399999999966 27.875L41.814899999999966 29.8125L42.564899999999966 30.15625L46.908649999999966 28.1875L47.346149999999966 28.1875L48.189899999999966 30.21875L49.064899999999966 31.15625L48.971149999999966 32.03125L49.627399999999966 32.53125L50.033649999999966 32.46875L50.439899999999966 31.875L50.752399999999966 30.09375L51.971149999999966 28.25L52.033649999999966 24.5L51.252399999999966 23.5625L52.564899999999966 23.34375L53.033649999999966 21.6875L53.908649999999966 21.46875L53.283649999999966 20.84375L52.783649999999966 19.1875L51.096149999999966 19.03125L50.439899999999966 17.46875L50.221149999999966 15.78125L51.221149999999966 15.0625L51.127399999999966 13.78125L52.658649999999966 13.03125L44.189899999999966 14.0625L44.127399999999966 13.9375L42.221149999999966 13.59375L39.627399999999966 13.09375L37.596149999999966 12.25L36.596149999999966 11.1875L35.439899999999966 8.75L35.971149999999966 7.03125L36.189899999999966 5.6875L38.346149999999966 4.09375L37.408649999999966 2.21875L37.689899999999966 0zM14.814899999999966 9.03125L13.908649999999966 9.8125L13.033649999999966 9.71875L11.846149999999966 10.1875L11.752399999999966 10.625L13.939899999999966 13.78125L13.721149999999966 14.6875L13.814899999999966 15.21875L16.408649999999966 18L17.596149999999966 18.46875L19.346149999999966 18.1875L20.408649999999966 18.96875L19.971149999999966 20.53125L20.502399999999966 21.53125L21.158649999999966 21.8125L21.564899999999966 20.65625L22.814899999999966 19.65625L23.846149999999966 18.71875L23.252399999999966 18.03125L24.877399999999966 17.25L24.783649999999966 16.3125L24.158649999999966 16.5L23.846149999999966 15.84375L23.283649999999966 15.96875L22.346149999999966 14.09375L22.783649999999966 13.71875L21.846149999999966 13.84375L21.533649999999966 12.9375L21.939899999999966 12.40625L21.658649999999966 11.71875L21.752399999999966 11.3125L21.377399999999966 11.0625L20.096149999999966 11L20.189899999999966 9.75L19.814899999999966 9.53125L18.096149999999966 9.28125L17.439899999999966 9.75L16.658649999999966 9.96875L14.814899999999966 9.03125z">
      <title id="t171">Septième circonscription d'Ille-et-Vilaine</title>
      <desc id="d171">Cantons de : Cancale, Châteauneuf-d'Ille-et-Vilaine, Dinard, Dol-de-Bretagne, Saint-Malo Nord, Saint-Malo Sud</desc>
    </path><path class="circo" id="id-035-08" d="M40.132000000000005 85.11991000000006L39.6309 85.03701000000007L39.39690000000002 84.66622999999998L39.742399999999975 83.39542L39.34929999999997 82.61219L37.709 82.80361999999997L36.27389999999997 81.83255000000003L35.0095 81.98533000000003L32.1001 78.53323000000006L32.26159999999999 78.13064000000003L31.49430000000001 76.62915000000004L32.02370000000002 76.03023000000002L34.03499999999997 75.40784000000002L34.41660000000002 76.6583L36.533799999999985 76.38024000000001L38.040700000000015 75.94518L38.29680000000002 75.24867L38.42829999999998 74.51616000000007L39.17099999999999 73.61174999999997L39.0419 73.24185000000006L36.19290000000001 74.01677999999998L35.09870000000001 74.72642000000002L34.2398 74.64644000000004L33.64029999999997 74.06034000000005L34.24509999999998 71.20995999999997L34.61110000000002 70.99767000000003L34.60149999999999 69.33815999999996L35.22550000000001 68.79390000000006L36.089200000000005 68.62322L36.58889999999997 69.81941L38.552099999999996 68.95387L39.30439999999999 68.89051999999998L39.3621 69.66825999999998L39.56909999999999 70.45177000000007L40.69920000000002 71.68865L39.57679999999999 73.41458000000006L40.39659999999998 74.35530999999997L41.92529999999999 74.93234000000001L42.03910000000002 75.33639999999997L42.22159999999997 75.70516000000003L43.01580000000001 75.64659L43.71629999999999 75.21250000000003L44.95609999999999 75.17874999999998L46.17750000000001 74.18885000000006L46.57099999999997 74.31889000000007L47.702200000000005 75.66391000000004L47.50490000000002 76.53785999999997L47.1927 76.96879000000007L49.03199999999998 76.73470000000003L49.57069999999999 76.91145L50.15120000000002 76.29571000000004L49.966699999999946 75.12390999999997L48.57470000000001 75.11943000000002L49.6721 73.57836000000003L50.11590000000001 73.25403L50.755499999999984 74.06455L53.10299999999995 73.01218L53.516399999999976 73.04212000000001L53.00969999999995 74.62727999999998L52.5797 75.46692000000002L52.75450000000001 76.03058000000004L52.871599999999944 77.10129999999998L53.200500000000034 77.45439000000005L52.96690000000001 77.69445000000002L52.87339999999995 78.06984000000006L51.985900000000015 78.12023000000005L51.08529999999996 78.33259000000004L50.60389999999995 79.45592000000005L49.76869999999997 80.45099999999996L49.98019999999997 80.83639999999997L49.98029999999994 83.07034000000004L48.89670000000001 82.70746000000003L47.55250000000001 83.59076999999996L46.29509999999999 83.40051L45.49619999999999 82.43169000000006L44.70179999999999 82.66320000000002L44.05970000000002 83.82579000000004L44.148300000000006 85.12500000000006L43.5634 85.79084000000006L43.45909999999998 87.07274999999998L41.889700000000005 86.43831000000006L41.32060000000001 85.27071000000007L40.132000000000005 85.11991000000006z">
      <title id="t172">Huitième circonscription d'Ille-et-Vilaine</title>
      <desc id="d172">Cantons de : Mordelles, Rennes Centre, Rennes Centre-Ouest, Rennes Nord, Rennes Sud-Ouest</desc>
    </path></svg>