<svg xmlns="http://www.w3.org/2000/svg" version="1.1" xmlns:xlink="http://www.w3.org/1999/xlink" xmlns:svgjs="http://svgjs.dev/svgjs" viewBox="0 0 113.5902000000001 115.50149999999996"><path class="circo" id="id-036-01" d="M21.781900000000064 93.90417000000002L20.117500000000064 92.53190999999993L18.92360000000008 92.01873L18.07680000000005 92.19184999999993L16.833799999999997 91.81260999999995L13.000200000000063 92.07272999999998L13.365400000000022 90.52075000000002L12.520399999999995 88.28829999999994L10.437000000000012 88.51827000000003L9.736700000000042 87.60738000000003L8.072500000000105 87.69813999999997L7.491100000000074 87.07057999999995L6.281500000000051 86.66656L5.798800000000028 85.69654000000003L5.974700000000098 84.99110999999994L4.113699999999994 84.71821999999997L3.188600000000065 82.11802999999998L2.2602000000000544 80.75931000000003L2.384200000000078 80.36357999999996L3.4136000000000877 78.51951999999994L4.094500000000039 78.02967000000001L3.3891000000000986 76.07720999999992L3.7204000000000406 74.88897999999995L2.9575000000000955 74.68616999999995L4.308400000000006 73.09781999999996L5.071600000000103 72.71154000000001L4.874300000000062 71.89183000000003L3.6496000000000777 69.76027999999997L3.714800000000082 68.56237999999996L3.005700000000047 68.14904999999999L2.6228000000000975 67.4801L1.048400000000015 67.11446000000001L0 65.93952999999999L1.8477000000000317 65.05385000000001L3.380300000000034 64.70892000000003L4.176800000000071 64.91909999999996L5.318200000000047 65.02865999999995L6.77940000000001 67.37815L7.9524000000000115 66.95892000000003L9.530900000000088 64.96947999999998L9.783200000000079 64.16171999999995L12.259100000000103 64.74911999999995L12.074600000000032 63.390229999999974L11.261700000000019 61.86596999999995L11.633200000000102 60.64454999999998L10.018600000000106 59.30791999999997L12.024500000000103 57.718759999999975L12.132400000000075 55.130289999999945L13.190200000000004 53.84563000000003L12.70410000000004 52.74839999999995L13.43730000000005 49.613719999999944L13.40910000000008 49.60214999999994L14.141200000000026 46.16899999999998L14.447500000000105 41.849050000000034L15.083000000000084 41.46880999999996L16.199300000000108 40.90064999999993L16.5236000000001 40.171550000000025L16.358100000000036 38.11941999999999L15.659400000000005 37.088750000000005L16.057500000000005 35.075680000000034L17.23230000000001 34.56867L17.86290000000008 32.65706L20.63810000000001 30.986220000000003L21.089000000000055 31.58528000000001L24.949400000000082 29.72383000000002L26.6567 29.514529999999922L27.674300000000017 30.67831000000001L28.16280000000006 31.138860000000022L28.83820000000003 31.10430999999994L30.019800000000032 31.526669999999967L31.00470000000007 32.86875999999995L32.43010000000004 32.03516000000002L34.51580000000001 32.46294L35.64840000000004 33.077080000000024L36.273700000000076 34.15684999999996L37.13330000000008 34.269649999999956L37.36270000000002 35.1087L39.308500000000095 37.44943000000001L39.700199999999995 38.68308000000002L40.6785000000001 39.537270000000035L40.7731 40.37428L42.19050000000004 41.28428999999994L42.4239 41.650589999999966L42.13680000000011 42.47165999999993L43.586200000000076 42.73992999999996L43.9294000000001 42.083729999999946L44.66360000000009 41.80858999999998L44.86710000000005 40.54401999999993L44.03340000000003 38.63424999999995L47.346500000000106 39.24234000000001L48.28510000000006 38.42610000000002L49.54220000000009 38.261049999999955L50.636100000000056 37.120019999999954L50.94170000000008 35.98067000000003L52.68040000000008 36.05705999999998L53.510200000000054 38.99060999999995L55.39510000000007 40.76940999999999L56.323900000000094 41.48761000000002L57.267400000000066 43.13590999999997L57.381200000000035 43.853489999999965L58.01430000000005 44.19139999999993L57.98750000000007 44.31522999999993L59.95670000000007 46.401539999999954L61.447500000000105 47.20372999999995L62.89190000000008 48.94103999999993L63.5399000000001 49.47953999999993L64.3583000000001 49.36101999999994L65.50700000000006 49.81031999999993L66.79430000000002 50.74104999999997L68.00670000000002 50.62515999999994L68.69150000000002 50.92606000000001L69.71140000000003 51.72622000000001L71.02020000000005 50.61856999999998L71.44960000000003 50.66743999999994L72.1757 51.74150999999995L72.66730000000007 53.85122000000001L73.38030000000003 53.37198000000001L74.61760000000004 51.116660000000024L75.63440000000003 50.3347L76.35540000000003 48.32885999999996L76.1658000000001 47.05606999999998L76.5689000000001 46.90851999999995L79.15200000000004 46.83611999999994L79.90640000000008 46.429160000000024L80.7342000000001 46.67214000000001L81.41970000000003 47.187310000000025L80.5276 50.927670000000035L80.85340000000008 51.21500000000003L80.76470000000006 51.632729999999924L79.63780000000008 52.16354999999999L78.85220000000004 54.146499999999946L76.78690000000006 56.26861999999994L76.7478000000001 57.12937999999997L74.37150000000008 58.8066L74.26310000000001 59.21541000000002L73.14780000000007 59.87289999999996L70.87950000000001 62.31567999999993L70.07800000000009 62.556960000000004L69.38740000000007 62.16945999999996L69.19470000000001 63.44458999999995L68.39200000000005 64.47167999999999L68.40110000000004 65.34862999999996L67.3886 66.12436000000002L65.63170000000002 66.15226999999993L63.51800000000003 66.71406999999999L63.28740000000005 65.88481999999999L62.85710000000006 65.85888999999997L60.677200000000084 67.20141000000001L59.307100000000105 65.56846999999993L58.52430000000004 65.21078999999997L56.51800000000003 64.82889999999998L56.25870000000009 65.98009000000002L55.0951 66.11022000000003L53.432500000000005 66.28487999999993L52.94680000000005 68.73127L53.343000000000075 69.42489999999998L52.969400000000064 70.15007000000003L52.67130000000009 72.19981999999993L52.85520000000008 73.43957999999998L52.366300000000024 74.51680999999996L51.79410000000007 75.64910999999995L50.0322000000001 77.45147999999995L48.86940000000004 78.98209999999995L48.72480000000007 79.71082000000001L50.71720000000005 81.13089000000002L52.107900000000086 81.91085999999996L50.99490000000003 83.07593999999995L50.91910000000007 83.80619999999999L49.17960000000005 85.44457999999997L49.07650000000001 85.84768999999994L49.54290000000003 86.53349000000003L49.2949000000001 87.75352999999996L49.506500000000074 88.97978999999998L51.03590000000008 88.29175999999995L52.57670000000007 88.93886999999995L53.74930000000006 90.13992999999994L52.52880000000005 91.36660999999992L52.43560000000002 93.50945999999999L54.31330000000003 96.33803L54.6703 96.09881999999993L54.09800000000007 99.31772999999998L54.67150000000004 100.41067999999996L54.36790000000008 101.58340999999996L55.24680000000001 102.49018999999998L56.0711 103.81576999999993L55.92150000000004 105.71257000000003L54.66660000000002 106.62457999999992L54.5141000000001 107.40368999999998L53.77550000000008 108.32040999999992L53.5077 109.65986999999996L52.79340000000002 109.33942000000002L52.03430000000003 109.74145999999996L50.6803000000001 111.92404999999997L49.107200000000034 112.47537L48.406400000000076 113.55768L48.380300000000034 114.41899999999998L46.55760000000009 115.50149999999996L45.86160000000007 113.60203000000001L44.85360000000003 112.86256000000003L44.97490000000005 112.46181999999999L44.58210000000008 112.56407000000002L43.9285000000001 112.08038999999997L43.278099999999995 111.05180999999993L42.083000000000084 109.53698999999995L41.54780000000005 109.02093000000002L40.5639000000001 108.80177000000003L37.84120000000007 109.77424999999994L38.62220000000002 110.65440999999998L37.70410000000004 111.33559000000002L37.65970000000004 112.15652999999998L35.32280000000003 112.42350999999996L35.02820000000008 111.89620000000002L33.38390000000004 111.62168999999994L32.57180000000005 111.86379999999997L31.510000000000105 113.16350999999997L29.79340000000002 112.91035999999997L29.398000000000025 112.15259000000003L29.366800000000012 110.47744999999998L28.644500000000107 110.57935999999995L27.661800000000085 111.78273000000002L26.940500000000043 111.82929999999999L26.334600000000023 110.97651999999994L27.874900000000025 108.99627999999996L27.705800000000067 107.79548999999997L29.376500000000078 104.91970000000003L28.55060000000003 104.82745L27.878000000000043 105.34604999999999L27.05860000000007 105.39032999999995L27.031900000000064 104.13018999999997L25.590400000000045 103.28359L24.093700000000013 102.79628000000002L22.784400000000005 100.25528999999995L24.035100000000057 100.33366999999998L24.267000000000053 100.01473999999996L22.836400000000026 97.46888000000001L22.896600000000035 97.05917999999997L23.94290000000001 96.38828999999998L21.781900000000064 93.90417000000002z">
      <title id="t173">Première circonscription de l'Indre</title>
      <desc id="d173">Cantons de : Bélâbre, Le Blanc, Buzançais, Châteauroux Centre, Châteauroux Est, Châteauroux Ouest, Châteauroux Sud, Châtillon-sur-Indre, Mézières-en-Brenne, Saint-Benoît-du-Sault, Saint-Gaultier, Tournon-Saint-Martin</desc>
    </path><path class="circo" id="id-036-02" d="M83.83590000000004 104.87234000000001L82.8859000000001 105.69370000000004L80.83600000000001 105.12442999999996L80.6979 104.25673999999992L79.44060000000002 103.0471L79.11800000000005 102.22762999999998L74.81230000000005 102.83033L75.24310000000003 103.38783000000001L75.7224000000001 104.07677999999999L75.4652000000001 104.4108L75.84490000000005 105.60984999999994L74.91240000000005 107.48025999999993L75.0639000000001 108.30930999999998L73.44910000000004 109.60959000000003L73.1336 110.35938999999996L71.5648000000001 109.80887999999993L69.37330000000009 106.75774999999999L67.5059 108.45587999999998L66.95980000000009 109.60070999999994L65.75960000000009 110.77455999999995L64.59090000000003 110.30209000000002L63.49210000000005 108.58296999999993L64.072 106.60645999999997L63.036500000000046 106.14269999999999L62.332500000000095 106.58056999999997L61.59010000000001 108.02948000000004L60.35470000000009 107.89288999999997L60.08710000000008 108.21192999999994L58.45620000000008 109.50617999999997L57.692600000000084 109.50027L57.47900000000004 106.96514000000002L56.72160000000008 105.99299999999994L55.92150000000004 105.71257000000003L56.0711 103.81576999999993L55.24680000000001 102.49018999999998L54.36790000000008 101.58340999999996L54.67150000000004 100.41067999999996L54.09800000000007 99.31772999999998L54.6703 96.09881999999993L54.31330000000003 96.33803L52.43560000000002 93.50945999999999L52.52880000000005 91.36660999999992L53.74930000000006 90.13992999999994L52.57670000000007 88.93886999999995L51.03590000000008 88.29175999999995L49.506500000000074 88.97978999999998L49.2949000000001 87.75352999999996L49.54290000000003 86.53349000000003L49.07650000000001 85.84768999999994L49.17960000000005 85.44457999999997L50.91910000000007 83.80619999999999L50.99490000000003 83.07593999999995L52.107900000000086 81.91085999999996L50.71720000000005 81.13089000000002L48.72480000000007 79.71082000000001L48.86940000000004 78.98209999999995L50.0322000000001 77.45147999999995L51.79410000000007 75.64910999999995L52.366300000000024 74.51680999999996L52.85520000000008 73.43957999999998L52.67130000000009 72.19981999999993L52.969400000000064 70.15007000000003L53.343000000000075 69.42489999999998L52.94680000000005 68.73127L53.432500000000005 66.28487999999993L55.0951 66.11022000000003L56.25870000000009 65.98009000000002L56.51800000000003 64.82889999999998L58.52430000000004 65.21078999999997L59.307100000000105 65.56846999999993L60.677200000000084 67.20141000000001L62.85710000000006 65.85888999999997L63.28740000000005 65.88481999999999L63.51800000000003 66.71406999999999L65.63170000000002 66.15226999999993L67.3886 66.12436000000002L68.40110000000004 65.34862999999996L68.39200000000005 64.47167999999999L69.19470000000001 63.44458999999995L69.38740000000007 62.16945999999996L70.07800000000009 62.556960000000004L70.87950000000001 62.31567999999993L73.14780000000007 59.87289999999996L74.26310000000001 59.21541000000002L74.37150000000008 58.8066L76.7478000000001 57.12937999999997L76.78690000000006 56.26861999999994L78.85220000000004 54.146499999999946L79.63780000000008 52.16354999999999L80.76470000000006 51.632729999999924L80.85340000000008 51.21500000000003L80.5276 50.927670000000035L81.41970000000003 47.187310000000025L80.7342000000001 46.67214000000001L79.90640000000008 46.429160000000024L79.15200000000004 46.83611999999994L76.5689000000001 46.90851999999995L76.1658000000001 47.05606999999998L76.35540000000003 48.32885999999996L75.63440000000003 50.3347L74.61760000000004 51.116660000000024L73.38030000000003 53.37198000000001L72.66730000000007 53.85122000000001L72.1757 51.74150999999995L71.44960000000003 50.66743999999994L71.02020000000005 50.61856999999998L69.71140000000003 51.72622000000001L68.69150000000002 50.92606000000001L68.00670000000002 50.62515999999994L66.79430000000002 50.74104999999997L65.50700000000006 49.81031999999993L64.3583000000001 49.36101999999994L63.5399000000001 49.47953999999993L62.89190000000008 48.94103999999993L61.447500000000105 47.20372999999995L59.95670000000007 46.401539999999954L57.98750000000007 44.31522999999993L58.01430000000005 44.19139999999993L57.381200000000035 43.853489999999965L57.267400000000066 43.13590999999997L56.323900000000094 41.48761000000002L55.39510000000007 40.76940999999999L53.510200000000054 38.99060999999995L52.68040000000008 36.05705999999998L50.94170000000008 35.98067000000003L50.636100000000056 37.120019999999954L49.54220000000009 38.261049999999955L48.28510000000006 38.42610000000002L47.346500000000106 39.24234000000001L44.03340000000003 38.63424999999995L44.86710000000005 40.54401999999993L44.66360000000009 41.80858999999998L43.9294000000001 42.083729999999946L43.586200000000076 42.73992999999996L42.13680000000011 42.47165999999993L42.4239 41.650589999999966L42.19050000000004 41.28428999999994L40.7731 40.37428L40.6785000000001 39.537270000000035L39.700199999999995 38.68308000000002L39.308500000000095 37.44943000000001L37.36270000000002 35.1087L37.13330000000008 34.269649999999956L36.273700000000076 34.15684999999996L35.64840000000004 33.077080000000024L34.51580000000001 32.46294L32.43010000000004 32.03516000000002L34.734300000000076 29.543969999999945L34.4316 28.346310000000017L35.843900000000076 26.793049999999994L36.23650000000009 25.620229999999992L37.51070000000004 25.73766999999998L37.801900000000046 25.417910000000006L38.1495000000001 24.169449999999983L37.7247000000001 22.95308L38.253700000000094 21.788069999999948L39.030500000000075 21.575899999999933L40.12110000000007 22.098139999999944L41.49810000000002 21.097710000000006L42.245900000000006 19.51864999999998L42.185100000000034 17.773779999999988L41.0924 15.44574L40.46600000000001 12.965209999999956L39.032800000000066 11.380710000000022L39.89200000000005 10.380300000000034L41.173 10.420949999999948L44.658000000000015 8.569959999999924L46.08170000000007 7.478510000000028L47.06910000000005 6.008119999999963L49.783300000000054 4.777410000000032L51.47260000000006 4.787299999999959L52.316100000000006 4.81722000000002L53.74040000000002 5.610549999999989L54.064500000000066 5.337149999999951L55.86620000000005 6.448350000000005L56.15190000000007 7.248739999999998L56.69460000000004 6.705559999999991L56.54770000000008 5.87092999999993L56.06260000000009 4.678379999999947L56.27350000000001 3.4478000000000293L55.80270000000007 2.730479999999943L59.128600000000006 1.967489999999998L61.662000000000035 2.434790000000021L61.683400000000006 0.34114999999997053L62.91700000000003 0.21424000000001797L63.294399999999996 0L63.94870000000003 0.5650299999999788L64.78140000000008 0.33951999999999316L66.47110000000009 0.7084700000000339L66.6132 1.9162599999999657L67.85160000000008 2.2863700000000335L70.80430000000001 1.635940000000005L72.11180000000002 0.03984000000002652L75.0209000000001 3.7360499999999774L77.23670000000004 5.730230000000006L78.49400000000003 5.657870000000003L78.91210000000001 4.924390000000017L80.5100000000001 5.904469999999947L82.58910000000003 7.241609999999923L82.45010000000002 9.861890000000017L82.85760000000005 12.461889999999926L81.27150000000006 12.913189999999986L80.45030000000008 13.838579999999979L80.20620000000008 14.250909999999976L79.92040000000009 15.540610000000015L77.0956000000001 18.314930000000004L77.65200000000004 18.541330000000016L78.91230000000007 19.55687999999998L80.07280000000003 19.406470000000013L81.68550000000005 19.495919999999956L83.23480000000006 20.785480000000007L86.32830000000001 22.092520000000036L86.73890000000006 21.561539999999923L87.14980000000003 21.686169999999947L88.3103000000001 21.143799999999942L89.48980000000006 21.652579999999944L90.9298 20.791849999999954L91.78910000000008 20.074029999999993L93.13460000000009 19.136139999999955L94.13200000000006 19.52914999999996L95.98390000000006 18.784329999999954L96.28820000000007 20.418019999999956L97.08270000000005 20.748759999999947L96.6472 21.955159999999978L96.82650000000001 22.75443999999993L98.49660000000006 22.596490000000017L98.53660000000002 21.741499999999974L98.91980000000001 21.544559999999933L100.20260000000007 21.399569999999926L100.82370000000003 21.967769999999973L100.38680000000011 22.647550000000024L100.99840000000006 25.062439999999924L100.79880000000003 25.884059999999977L100.05520000000001 26.282910000000015L99.54040000000009 27.418440000000032L98.76520000000005 28.954459999999926L98.9380000000001 29.351009999999974L100.19330000000002 29.36833999999999L100.8139000000001 29.866149999999948L101.76050000000009 31.14846L102.53710000000001 31.416690000000017L103.32640000000004 32.308959999999956L104.5036 33.08443L105.52080000000001 34.98194999999998L104.32810000000006 35.94366000000002L104.30830000000003 37.05349000000001L103.66680000000008 38.05588L103.98930000000007 38.78234999999995L103.45640000000003 39.78548000000001L103.18430000000001 40.03318999999999L102.23520000000008 40.31002999999998L102.27620000000002 42.849969999999985L105.64520000000005 45.44569999999999L108.47760000000005 44.92901999999992L109.4402 45.63135L108.17410000000007 48.34689000000003L106.99540000000002 49.58834999999999L106.11830000000009 49.60600999999997L105.18560000000002 50.542479999999955L103.94080000000008 50.993319999999926L103.74480000000005 51.32701999999995L104.1228000000001 52.94902000000002L102.88240000000008 54.791939999999954L102.4579 54.83506L101.7686000000001 55.215779999999995L100.20050000000003 55.12047999999993L100.3478 55.49682999999993L102.35120000000006 58.28946999999994L105.1255000000001 60.313549999999964L106.02650000000006 61.76107999999999L105.95870000000002 62.56986999999992L104.28380000000004 64.97803999999996L102.22790000000009 65.44664L101.85680000000002 66.64956999999993L102.57780000000002 67.64851999999996L103.92020000000002 68.41120999999998L104.10030000000006 68.78656999999998L103.6712 70.37459000000001L104.83970000000011 70.86574999999993L105.62480000000005 70.53649999999993L106.45050000000003 70.73037999999997L107.21250000000009 71.12148000000002L108.26650000000006 72.47149000000002L109.48120000000006 72.89023999999995L107.9362000000001 75.34920999999997L108.14430000000004 76.18124999999998L109.1622000000001 76.95993999999996L110.44180000000006 78.44386999999995L111.22340000000008 78.25603000000001L111.56670000000008 78.99176L112.37120000000004 79.08597999999995L111.67640000000006 81.1096L112.19310000000007 82.31565999999998L111.96040000000005 83.98385999999994L111.63130000000001 84.26469999999995L110.70620000000008 84.89375999999993L110.47550000000001 85.66363999999999L111.03060000000005 88.52408000000003L109.7577 89.57625999999993L111.69170000000008 93.32834000000003L111.80230000000006 95.01924999999994L112.05630000000008 95.78401999999994L112.81780000000003 95.88960999999995L113.0657000000001 97.37601999999993L113.5902000000001 97.95879000000002L113.2822000000001 99.0548L113.28270000000009 99.11034999999993L112.68970000000002 100.28566000000001L109.1373000000001 101.88325999999995L109.46570000000008 104.73358999999994L110.53000000000009 106.03048000000001L108.95060000000001 106.05182000000002L108.21940000000006 106.39733000000001L106.12570000000005 106.34393999999998L105.06040000000007 107.67171999999994L103.80100000000004 107.75727999999992L103.81170000000009 107.72387000000003L103.0653000000001 107.49715000000003L102.42640000000006 106.51977999999997L101.66200000000003 106.36675000000002L100.38990000000001 106.43752999999992L98.7681 105.96647999999993L98.144 105.44002999999998L95.67970000000003 105.18683999999996L95.4837 104.65502000000004L94.46170000000006 103.87842999999998L89.98770000000002 105.06436999999994L89.42830000000004 104.07123000000001L88.74980000000005 103.68512999999996L87.7532000000001 104.24329999999998L86.7306000000001 103.9633L86.40380000000005 104.97309999999993L83.83590000000004 104.87234000000001z">
      <title id="t174">Deuxième circonscription de l'Indre</title>
      <desc id="d174">Cantons de : Aigurande, Ardentes, Argenton-sur-Creuse, La Châtre, Ecueillé, Eguzon-Chantôme, Issoudun Nord, Issoudun Sud, Levroux, Neuvy-Saint-Sépulchre, Saint-Christophe-en-Bazelle, Sainte-Sévère-sur-Indre, Valençay, Vatan</desc>
    </path></svg>