<svg xmlns="http://www.w3.org/2000/svg" version="1.1" xmlns:xlink="http://www.w3.org/1999/xlink" xmlns:svgjs="http://svgjs.dev/svgjs" viewBox="730.58553 648.35662 113.5902000000001 115.50149999999996"><path class="circo" id="id-036-01" d="M 752.36743,742.26079 750.70303,740.88853 749.50913,740.37535 748.66233,740.54847 747.41933,740.16923 743.58573,740.42935 743.95093,738.87737 743.10593,736.64492 741.02253,736.87489 740.32223,735.964 738.65803,736.05476 738.07663,735.4272 736.86703,735.02318 736.38433,734.05316 736.56023,733.34773 734.69923,733.07484 733.77413,730.47465 732.84573,729.11593 732.96973,728.7202 733.99913,726.87614 734.68003,726.38629 733.97463,724.43383 734.30593,723.2456 733.54303,723.04279 734.89393,721.45444 735.65713,721.06816 735.45983,720.24845 734.23513,718.1169 734.30033,716.919 733.59123,716.50567 733.20833,715.83672 731.63393,715.47108 730.58553,714.29615 732.43323,713.41047 733.96583,713.06554 734.76233,713.27572 735.90373,713.38528 737.36493,715.73477 738.53793,715.31554 740.11643,713.3261 740.36873,712.51834 742.84463,713.10574 742.66013,711.74685 741.84723,710.22259 742.21873,709.00117 740.60413,707.66454 742.61003,706.07538 742.71793,703.48691 743.77573,702.20225 743.28963,701.10502 744.02283,697.97034 743.99463,697.95877 744.72673,694.52562 745.03303,690.20567 745.66853,689.82543 746.78483,689.25727 747.10913,688.52817 746.94363,686.47604 746.24493,685.44537 746.64303,683.4323 747.81783,682.92529 748.44843,681.01368 751.22363,679.34284 751.67453,679.9419 755.53493,678.08045 757.24223,677.87115 758.25983,679.03493 758.74833,679.49548 759.42373,679.46093 760.60533,679.88329 761.59023,681.22538 763.01563,680.39178 765.10133,680.81956 766.23393,681.4337 766.85923,682.51347 767.71883,682.62627 767.94823,683.46532 769.89403,685.80605 770.28573,687.0397 771.26403,687.89389 771.35863,688.7309 772.77603,689.64091 773.00943,690.00721 772.72233,690.82828 774.17173,691.09655 774.51493,690.44035 775.24913,690.16521 775.45263,688.90064 774.61893,686.99087 777.93203,687.59896 778.87063,686.78272 780.12773,686.61767 781.22163,685.47664 781.52723,684.33729 783.26593,684.41368 784.09573,687.34723 785.98063,689.12603 786.90943,689.84423 787.85293,691.49253 787.96673,692.21011 788.59983,692.54802 788.57303,692.67185 790.54223,694.75816 792.03303,695.56035 793.47743,697.29766 794.12543,697.83616 794.94383,697.71764 796.09253,698.16694 797.37983,699.09767 798.59223,698.98178 799.27703,699.28268 800.29693,700.08284 801.60573,698.97519 802.03513,699.02406 802.76123,700.09813 803.25283,702.20784 803.96583,701.7286 805.20313,699.47328 806.21993,698.69132 806.94093,696.68548 806.75133,695.41269 807.15443,695.26514 809.73753,695.19274 810.49193,694.78578 811.31973,695.02876 812.00523,695.54393 811.11313,699.28429 811.43893,699.57162 811.35023,699.98935 810.22333,700.52017 809.43773,702.50312 807.37243,704.62524 807.33333,705.486 804.95703,707.16322 804.84863,707.57203 803.73333,708.22952 801.46503,710.6723 800.66353,710.91358 799.97293,710.52608 799.78023,711.80121 798.97753,712.8283 798.98663,713.70525 797.97413,714.48098 796.21723,714.50889 794.10353,715.07069 793.87293,714.24144 793.44263,714.21551 791.26273,715.55803 789.89263,713.92509 789.10983,713.56741 787.10353,713.18552 786.84423,714.33671 785.68063,714.46684 784.01803,714.6415 783.53233,717.08789 783.92853,717.78152 783.55493,718.50669 783.25683,720.55644 783.44073,721.7962 782.95183,722.87343 782.37963,724.00573 780.61773,725.8081 779.45493,727.33872 779.31033,728.06744 781.30273,729.48751 782.69343,730.26748 781.58043,731.43256 781.50463,732.16282 779.76513,733.8012 779.66203,734.20431 780.12843,734.89011 779.88043,736.11015 780.09203,737.33641 781.62143,736.64838 783.16223,737.29549 784.33483,738.49655 783.11433,739.72323 783.02113,741.86608 784.89883,744.69465 785.25583,744.45544 784.68353,747.67435 785.25703,748.7673 784.95343,749.94003 785.83233,750.84681 786.65663,752.17239 786.50703,754.06919 785.25213,754.9812 785.09963,755.76031 784.36103,756.67703 784.09323,758.01649 783.37893,757.69604 782.61983,758.09808 781.26583,760.28067 779.69273,760.83199 778.99193,761.9143 778.96583,762.77562 777.14313,763.85812 776.44713,761.95865 775.43913,761.21918 775.56043,760.81844 775.16763,760.92069 774.51403,760.43701 773.86363,759.40843 772.66853,757.89361 772.13333,757.37755 771.14943,757.15839 768.42673,758.13087 769.20773,759.01103 768.28963,759.69221 768.24523,760.51315 765.90833,760.78013 765.61373,760.25282 763.96943,759.97831 763.15733,760.22042 762.09553,761.52013 760.37893,761.26698 759.98353,760.50921 759.95233,758.83407 759.23003,758.93598 758.24733,760.13935 757.52603,760.18592 756.92013,759.33314 758.46043,757.3529 758.29133,756.15211 759.96203,753.27632 759.13613,753.18407 758.46353,753.70267 757.64413,753.74695 757.61743,752.48681 756.17593,751.64021 754.67923,751.1529 753.36993,748.61191 754.62063,748.69029 754.85253,748.37136 753.42193,745.8255 753.48213,745.4158 754.52843,744.74491 752.36743,742.26079 z">
      <title id="t173">Première circonscription de l'Indre</title>
      <desc id="d173">Cantons de : Bélâbre, Le Blanc, Buzançais, Châteauroux Centre, Châteauroux Est, Châteauroux Ouest, Châteauroux Sud, Châtillon-sur-Indre, Mézières-en-Brenne, Saint-Benoît-du-Sault, Saint-Gaultier, Tournon-Saint-Martin</desc>
    </path><path class="circo" id="id-036-02" d="M 814.42143,753.22896 813.47143,754.05032 811.42153,753.48105 811.28343,752.61336 810.02613,751.40372 809.70353,750.58425 805.39783,751.18695 805.82863,751.74445 806.30793,752.4334 806.05073,752.76742 806.43043,753.96647 805.49793,755.83688 805.64943,756.66593 804.03463,757.96621 803.71913,758.71601 802.15033,758.1655 799.95883,755.11437 798.09143,756.8125 797.54533,757.95733 796.34513,759.13118 795.17643,758.65871 794.07763,756.93959 794.65753,754.96308 793.62203,754.49932 792.91803,754.93719 792.17563,756.3861 790.94023,756.24951 790.67263,756.56855 789.04173,757.8628 788.27813,757.85689 788.06453,755.32176 787.30713,754.34962 786.50703,754.06919 786.65663,752.17239 785.83233,750.84681 784.95343,749.94003 785.25703,748.7673 784.68353,747.67435 785.25583,744.45544 784.89883,744.69465 783.02113,741.86608 783.11433,739.72323 784.33483,738.49655 783.16223,737.29549 781.62143,736.64838 780.09203,737.33641 779.88043,736.11015 780.12843,734.89011 779.66203,734.20431 779.76513,733.8012 781.50463,732.16282 781.58043,731.43256 782.69343,730.26748 781.30273,729.48751 779.31033,728.06744 779.45493,727.33872 780.61773,725.8081 782.37963,724.00573 782.95183,722.87343 783.44073,721.7962 783.25683,720.55644 783.55493,718.50669 783.92853,717.78152 783.53233,717.08789 784.01803,714.6415 785.68063,714.46684 786.84423,714.33671 787.10353,713.18552 789.10983,713.56741 789.89263,713.92509 791.26273,715.55803 793.44263,714.21551 793.87293,714.24144 794.10353,715.07069 796.21723,714.50889 797.97413,714.48098 798.98663,713.70525 798.97753,712.8283 799.78023,711.80121 799.97293,710.52608 800.66353,710.91358 801.46503,710.6723 803.73333,708.22952 804.84863,707.57203 804.95703,707.16322 807.33333,705.486 807.37243,704.62524 809.43773,702.50312 810.22333,700.52017 811.35023,699.98935 811.43893,699.57162 811.11313,699.28429 812.00523,695.54393 811.31973,695.02876 810.49193,694.78578 809.73753,695.19274 807.15443,695.26514 806.75133,695.41269 806.94093,696.68548 806.21993,698.69132 805.20313,699.47328 803.96583,701.7286 803.25283,702.20784 802.76123,700.09813 802.03513,699.02406 801.60573,698.97519 800.29693,700.08284 799.27703,699.28268 798.59223,698.98178 797.37983,699.09767 796.09253,698.16694 794.94383,697.71764 794.12543,697.83616 793.47743,697.29766 792.03303,695.56035 790.54223,694.75816 788.57303,692.67185 788.59983,692.54802 787.96673,692.21011 787.85293,691.49253 786.90943,689.84423 785.98063,689.12603 784.09573,687.34723 783.26593,684.41368 781.52723,684.33729 781.22163,685.47664 780.12773,686.61767 778.87063,686.78272 777.93203,687.59896 774.61893,686.99087 775.45263,688.90064 775.24913,690.16521 774.51493,690.44035 774.17173,691.09655 772.72233,690.82828 773.00943,690.00721 772.77603,689.64091 771.35863,688.7309 771.26403,687.89389 770.28573,687.0397 769.89403,685.80605 767.94823,683.46532 767.71883,682.62627 766.85923,682.51347 766.23393,681.4337 765.10133,680.81956 763.01563,680.39178 765.31983,677.90059 765.01713,676.70293 766.42943,675.14967 766.82203,673.97685 768.09623,674.09429 768.38743,673.77453 768.73503,672.52607 768.31023,671.3097 768.83923,670.14469 769.61603,669.93252 770.70663,670.45476 772.08363,669.45433 772.83143,667.87527 772.77063,666.1304 771.67793,663.80236 771.05153,661.32183 769.61833,659.73733 770.47753,658.73692 771.75853,658.77757 775.24353,656.92658 776.66723,655.83513 777.65463,654.36474 780.36883,653.13403 782.05813,653.14392 782.90163,653.17384 784.32593,653.96717 784.65003,653.69377 786.45173,654.80497 786.73743,655.60536 787.28013,655.06218 787.13323,654.22755 786.64813,653.035 786.85903,651.80442 786.38823,651.0871 789.71413,650.32411 792.24753,650.79141 792.26893,648.69777 793.50253,648.57086 793.87993,648.35662 794.53423,648.92165 795.36693,648.69614 797.05663,649.06509 797.19873,650.27288 798.43713,650.64299 801.38983,649.99256 802.69733,648.39646 805.60643,652.09267 807.82223,654.08685 809.07953,654.01449 809.49763,653.28101 811.09553,654.26109 813.17463,655.59823 813.03563,658.21851 813.44313,660.81851 811.85703,661.26981 811.03583,662.1952 810.79173,662.60753 810.50593,663.89723 807.68113,666.67155 808.23753,666.89795 809.49783,667.9135 810.65833,667.76309 812.27103,667.85254 813.82033,669.1421 816.91383,670.44914 817.32443,669.91816 817.73533,670.04279 818.89583,669.50042 820.07533,670.0092 821.51533,669.14847 822.37463,668.43065 823.72013,667.49276 824.71753,667.88577 826.56943,667.14095 826.87373,668.77464 827.66823,669.10538 827.23273,670.31178 827.41203,671.11106 829.08213,670.95311 829.12213,670.09812 829.50533,669.90118 830.78813,669.75619 831.40923,670.32439 830.97233,671.00417 831.58393,673.41906 831.38433,674.24068 830.64073,674.63953 830.12593,675.77506 829.35073,677.31108 829.52353,677.70763 830.77883,677.72496 831.39943,678.22277 832.34603,679.50508 833.12263,679.77331 833.91193,680.66558 835.08913,681.44105 836.10633,683.33857 834.91363,684.30028 834.89383,685.41011 834.25233,686.4125 834.57483,687.13897 834.04193,688.1421 833.76983,688.38981 832.82073,688.66665 832.86173,691.20659 836.23073,693.80232 839.06313,693.28564 840.02573,693.98797 838.75963,696.70351 837.58093,697.94497 836.70383,697.96263 835.77113,698.8991 834.52633,699.34994 834.33033,699.68364 834.70833,701.30564 833.46793,703.14856 833.04343,703.19168 832.35413,703.5724 830.78603,703.4771 830.93333,703.85345 832.93673,706.64609 835.71103,708.67017 836.61203,710.1177 836.54423,710.92649 834.86933,713.33466 832.81343,713.80326 832.44233,715.00619 833.16333,716.00514 834.50573,716.76783 834.68583,717.14319 834.25673,718.73121 835.42523,719.22237 836.21033,718.89312 837.03603,719.087 837.79803,719.4781 838.85203,720.82811 840.06673,721.24686 838.52173,723.70583 838.72983,724.53787 839.74773,725.31656 841.02733,726.80049 841.80893,726.61265 842.15223,727.34838 842.95673,727.4426 842.26193,729.46622 842.77863,730.67228 842.54593,732.34048 842.21683,732.62132 841.29173,733.25038 841.06103,734.02026 841.61613,736.8807 840.34323,737.93288 842.27723,741.68496 842.38783,743.37587 842.64183,744.14064 843.40333,744.24623 843.65123,745.73264 844.17573,746.31541 843.86773,747.41142 843.86823,747.46697 843.27523,748.64228 839.72283,750.23988 840.05123,753.09021 841.11553,754.3871 839.53613,754.40844 838.80493,754.75395 836.71123,754.70056 835.64593,756.02834 834.38653,756.1139 834.39723,756.08049 833.65083,755.85377 833.01193,754.8764 832.24753,754.72337 830.97543,754.79415 829.35363,754.3231 828.72953,753.79665 826.26523,753.54346 826.06923,753.01164 825.04723,752.23505 820.57323,753.42099 820.01383,752.42785 819.33533,752.04175 818.33873,752.59992 817.31613,752.31992 816.98933,753.32972 814.42143,753.22896 z">
      <title id="t174">Deuxième circonscription de l'Indre</title>
      <desc id="d174">Cantons de : Aigurande, Ardentes, Argenton-sur-Creuse, La Châtre, Ecueillé, Eguzon-Chantôme, Issoudun Nord, Issoudun Sud, Levroux, Neuvy-Saint-Sépulchre, Saint-Christophe-en-Bazelle, Sainte-Sévère-sur-Indre, Valençay, Vatan</desc>
    </path></svg>