<svg xmlns="http://www.w3.org/2000/svg" version="1.1" xmlns:xlink="http://www.w3.org/1999/xlink" xmlns:svgjs="http://svgjs.dev/svgjs" viewBox="661.41663 594.13739 111.4147999999999 121.59738000000004"><path class="circo" id="id-037-01" d="M 712.66733,637.14723 712.98473,636.06733 713.45273,635.46669 713.33293,633.57966 714.61623,632.594 714.44463,631.68774 714.82743,631.74452 716.72913,629.15307 717.23473,628.07773 717.38953,628.43878 718.84343,629.01682 718.66473,629.8231 719.08143,630.98428 718.63893,632.10897 718.86023,632.90445 716.85223,633.41278 716.82243,633.99784 717.55133,635.70645 718.13613,635.51967 719.04813,635.23513 719.52343,635.87277 717.82973,636.30594 716.74383,639.1991 716.28413,638.72885 715.50323,637.79804 712.66733,637.14723 z">
      <title id="t175">Première circonscription de l'Indre-et-Loire</title>
      <desc id="d175">Cantons de : Tours Centre, Tours Est, Tours Nord-Est, Tours Ouest, Tours Sud, Tours-Val-du-Cher</desc>
    </path><path class="circo" id="id-037-02" d="M 745.67903,616.40184 745.89313,615.73569 748.35843,612.58259 748.39633,611.25337 747.25653,612.04821 746.94293,610.74458 744.68603,606.89772 743.88943,606.68049 742.91693,607.43037 742.16743,609.75198 741.59743,609.80164 740.80173,608.89485 740.56833,607.23573 741.15303,605.25676 739.53773,605.03922 738.89883,604.05307 737.74153,604.48392 736.52493,604.19774 735.01723,603.65133 733.69743,605.76798 732.95043,606.15232 733.27893,607.31288 730.31463,607.80352 729.96583,607.54509 729.75253,606.26933 729.33413,606.15572 729.16563,604.87161 729.89483,604.41682 730.14573,603.59911 728.65073,602.09271 729.89533,599.36577 730.12153,598.08879 730.04103,597.37711 730.58053,596.87016 730.40083,596.51016 728.61503,597.45236 727.75493,598.07629 725.85183,597.40931 725.07063,597.76534 723.76003,597.58493 719.38063,595.72657 718.00073,596.42593 717.38323,597.46031 716.46483,598.88977 717.43513,599.64698 718.04163,600.71922 718.87903,600.84718 719.59823,602.26833 718.95583,602.8117 718.58783,604.47383 719.62033,605.69888 719.50913,606.51961 718.82683,607.75284 718.88203,608.6105 717.43343,612.8315 717.12813,613.65247 716.01003,614.36102 715.38203,616.00778 715.12853,617.11714 717.20673,618.36551 717.19253,619.59327 717.93073,619.96283 718.02373,620.36798 717.18393,620.46826 717.05563,620.87313 713.23553,622.59071 713.21913,622.6082 713.77713,624.72531 715.19893,626.4077 715.60643,628.11166 715.76003,628.46366 717.23473,628.07773 717.38953,628.43878 718.84343,629.01682 718.66473,629.8231 719.08143,630.98428 718.63893,632.10897 718.86023,632.90445 721.42603,632.21911 721.14773,633.4168 721.89643,636.61533 721.65243,636.75565 721.28463,638.01388 721.77403,640.62018 721.99113,641.64866 722.94553,642.43936 724.13153,642.05136 724.87983,642.07556 725.28573,642.82759 726.45613,643.30206 727.23313,644.29791 728.80293,644.32925 728.62823,645.14808 728.92553,645.44352 731.37933,645.8871 732.42483,646.56776 731.35813,648.2847 731.20683,649.47798 730.13813,649.88484 730.60393,651.85726 729.73063,652.73802 729.06553,654.24332 730.58963,656.66343 731.19993,656.04738 732.30253,656.69622 732.68703,656.49538 732.99993,655.71274 732.74643,654.88545 733.55253,653.3724 733.31373,652.5467 734.22063,651.68583 736.97743,652.55596 737.53303,653.1751 738.27223,652.81314 738.81263,652.27699 740.61533,651.6003 741.72533,652.05686 742.56093,651.93415 742.79463,652.29027 743.60403,651.34734 744.64853,652.66314 746.52423,653.60751 747.43463,654.4824 748.06213,654.7375 750.95443,652.38217 751.05213,651.57575 751.39973,651.34984 751.34103,651.7651 752.10753,652.08729 752.24693,653.32195 754.06813,655.54892 756.16843,656.00233 757.42093,655.70173 759.01773,655.17708 759.74463,652.73351 761.82743,650.56985 762.43433,648.53265 762.53083,648.2158 762.56073,647.53931 762.17803,646.92154 760.83493,646.22161 760.18523,646.44507 760.15083,646.86677 758.61603,647.44458 757.35813,647.38093 756.65233,646.92003 755.62673,648.97477 753.00443,646.17612 751.04203,645.69145 749.91373,641.91391 750.88783,641.59461 751.69343,639.20876 752.25643,638.58531 750.93613,637.06879 750.98093,636.35012 752.20853,634.99818 752.08383,633.73486 751.48923,633.1374 751.24563,631.86204 749.07773,629.21648 751.60573,629.27202 753.18733,626.79562 752.48613,626.39011 751.44623,624.66257 749.25553,625.17732 749.16163,624.84451 749.81963,624.08805 748.78573,621.85852 747.70383,619.99882 747.70183,617.92512 745.67903,616.40184 z">
      <title id="t176">Deuxième circonscription de l'Indre-et-Loire</title>
      <desc id="d176">Cantons de : Amboise, Bléré, Château-Renault, Montlouis-sur-Loire, Vouvray</desc>
    </path><path class="circo" id="id-037-03" d="M 722.41843,701.53931 721.99063,700.93125 722.45273,700.25862 722.32793,699.86913 720.89133,700.34216 720.04973,698.97432 719.37623,698.57469 718.85513,697.53234 716.74723,695.08151 716.66803,694.27578 717.10833,693.23512 716.61983,692.22703 716.87543,690.94704 716.00883,688.05069 715.94023,687.69262 715.94863,686.82732 715.51483,686.10617 712.98993,685.60734 712.60123,684.83447 711.82793,684.45231 711.06263,684.82662 709.88873,683.77539 709.71053,683.06127 709.86053,682.68735 709.42173,682.05164 707.04723,682.14974 705.49113,679.8404 706.28973,679.66407 707.20293,678.83864 708.43333,678.86395 708.28263,678.06873 708.90433,677.10487 708.41483,676.03084 709.06253,674.58375 708.21473,673.7125 708.87563,672.69846 710.02943,672.22621 711.96343,670.57676 712.66963,671.0259 714.61283,669.38914 715.19693,668.31111 716.72943,667.51237 717.53483,666.65844 717.23263,665.55759 717.08623,662.82731 715.02363,663.18835 714.88053,662.78718 715.50383,661.67882 714.64453,660.82001 713.66743,660.27788 712.92983,660.36055 712.76433,660.76423 711.72713,660.17007 708.87603,659.91456 708.72203,658.64172 709.28043,657.00553 710.93043,657.10451 711.23913,655.85203 711.98053,654.78607 711.74133,653.09071 711.03663,651.88944 710.46733,652.40158 709.76813,651.95581 708.78313,652.43789 706.71143,651.11715 706.61463,651.88944 705.65903,652.5154 705.30993,650.85127 702.82873,649.42337 702.64983,648.58828 703.27593,648.24712 705.13323,646.52252 706.08633,644.72188 708.71393,644.81552 709.13683,644.87945 713.31613,645.42472 714.36213,644.71072 715.64263,643.84884 714.28383,640.85298 716.28413,638.72885 716.74383,639.1991 717.82973,636.30594 719.52343,635.87277 719.04813,635.23513 717.55133,635.70645 716.82243,633.99784 716.85223,633.41278 718.86023,632.90445 721.42603,632.21911 721.14773,633.4168 721.89643,636.61533 721.65243,636.75565 721.28463,638.01388 721.77403,640.62018 721.99113,641.64866 722.94553,642.43936 724.13153,642.05136 724.87983,642.07556 725.28573,642.82759 726.45613,643.30206 727.23313,644.29791 728.80293,644.32925 728.62823,645.14808 728.92553,645.44352 731.37933,645.8871 732.42483,646.56776 731.35813,648.2847 731.20683,649.47798 730.13813,649.88484 730.60393,651.85726 729.73063,652.73802 729.06553,654.24332 730.58963,656.66343 731.19993,656.04738 732.30253,656.69622 732.68703,656.49538 732.99993,655.71274 732.74643,654.88545 733.55253,653.3724 733.31373,652.5467 734.22063,651.68583 736.97743,652.55596 737.53303,653.1751 738.27223,652.81314 738.81263,652.27699 740.61533,651.6003 741.72533,652.05686 742.56093,651.93415 742.79463,652.29027 743.60403,651.34734 744.64853,652.66314 746.52423,653.60751 747.43463,654.4824 748.06213,654.7375 750.95443,652.38217 751.05213,651.57575 751.39973,651.34984 751.34103,651.7651 752.10753,652.08729 752.24693,653.32195 754.06813,655.54892 756.16843,656.00233 757.42093,655.70173 759.01773,655.17708 759.74463,652.73351 761.82743,650.56985 762.43433,648.53265 764.37453,650.84939 765.23243,651.00306 766.32983,652.88463 766.90643,653.51024 767.58753,655.50974 769.22413,658.78045 769.61833,659.73733 771.05153,661.32183 771.67793,663.80236 772.77063,666.1304 772.83143,667.87527 772.08363,669.45433 770.70663,670.45476 769.61603,669.93252 768.83923,670.14469 768.31023,671.3097 768.73503,672.52607 768.38743,673.77453 768.09623,674.09429 766.82203,673.97685 766.42943,675.14967 765.01713,676.70293 765.31983,677.90059 763.01563,680.39178 761.59023,681.22538 760.60533,679.88329 759.42373,679.46093 758.74833,679.49548 758.25983,679.03493 757.24223,677.87115 755.53493,678.08045 751.67453,679.9419 751.22363,679.34284 748.44843,681.01368 747.81783,682.92529 746.64303,683.4323 746.24493,685.44537 746.94363,686.47604 747.10913,688.52817 746.78483,689.25727 745.66853,689.82543 745.03303,690.20567 744.72673,694.52562 743.99463,697.95877 744.02283,697.97034 743.28963,701.10502 743.77573,702.20225 742.71793,703.48691 742.61003,706.07538 740.60413,707.66454 742.21873,709.00117 741.84723,710.22259 742.66013,711.74685 742.84463,713.10574 740.36873,712.51834 740.11643,713.3261 738.53793,715.31554 737.36493,715.73477 735.90373,713.38528 734.76233,713.27572 733.96583,713.06554 732.43323,713.41047 730.58553,714.29615 729.92873,713.36518 729.84263,712.93948 728.66203,712.4599 727.34923,710.74093 727.06893,709.50533 725.98563,708.90247 726.17623,707.24853 725.71423,706.10693 725.68833,705.89503 725.53023,704.25017 724.39713,703.78388 723.73563,702.74805 723.80783,702.33634 724.56483,701.98712 724.07013,701.37748 722.41843,701.53931 z">
      <title id="t177">Troisième circonscription de l'Indre-et-Loire</title>
      <desc id="d177">Cantons de : Chambray-lès-Tours, Descartes, Le Grand-Pressigny, Ligueil, Loches, Montbazon, Montrésor, Preuilly-sur-Claise, Saint-Avertin, Saint-Pierre-des-Corps</desc>
    </path><path class="circo" id="id-037-04" d="M 683.59403,648.79399 681.88283,649.91102 680.68693,650.19936 680.04773,650.25647 679.25693,650.54455 679.29483,651.38253 678.65003,651.92275 675.57463,653.14167 673.10173,653.98395 670.52893,653.46617 669.89233,653.39331 668.18673,653.61089 663.26943,656.23985 663.04323,656.2008 661.92843,657.11151 661.42233,658.15734 661.47403,658.5803 662.50923,659.28993 662.24793,660.96719 661.41663,662.44013 662.36813,664.75377 662.70973,665.00785 663.51193,664.72465 663.77073,666.35544 663.48483,667.54785 663.85553,668.29037 664.51563,667.78321 665.75003,667.9155 666.34673,666.86596 667.18953,667.02189 668.07753,667.84142 668.80693,667.44129 668.25113,668.60602 668.31933,669.4677 670.61193,670.49946 670.92923,669.68263 672.29253,668.59503 672.72943,670.25246 673.88783,671.55205 671.88223,673.79413 671.78313,675.41545 672.17763,675.5733 673.37343,675.13158 674.54603,676.34986 676.55033,675.09763 676.83733,674.36249 677.57833,674.13972 679.25093,674.44448 679.30803,677.19856 679.60173,677.49632 680.79813,677.13569 682.21553,676.25754 683.02403,677.10076 682.85513,678.29536 683.19383,679.49386 682.39903,680.35786 683.04423,682.99745 683.26123,683.32349 682.40743,684.14975 681.62133,684.20146 682.90933,685.61432 682.19683,686.56909 682.89353,687.48225 682.52173,688.55519 683.24773,690.49899 684.13613,691.3805 684.50423,691.58999 685.60213,690.95949 686.43573,690.91455 687.84303,689.39574 689.81423,690.00074 691.30533,690.94393 692.61233,690.91218 694.13993,691.7594 694.65793,690.31835 698.60893,688.55469 699.79093,687.98319 700.44643,688.48744 702.73333,687.94545 703.95683,688.16203 705.15633,688.51073 707.69743,688.41696 707.99463,688.11059 707.74833,686.11315 705.61303,685.05863 705.67853,683.87471 705.04063,682.67177 705.10803,682.20484 705.87443,682.41363 707.04723,682.14974 705.49113,679.8404 706.28973,679.66407 707.20293,678.83864 708.43333,678.86395 708.28263,678.06873 708.90433,677.10487 708.41483,676.03084 709.06253,674.58375 708.21473,673.7125 708.87563,672.69846 710.02943,672.22621 711.96343,670.57676 712.66963,671.0259 714.61283,669.38914 715.19693,668.31111 716.72943,667.51237 717.53483,666.65844 717.23263,665.55759 717.08623,662.82731 715.02363,663.18835 714.88053,662.78718 715.50383,661.67882 714.64453,660.82001 713.66743,660.27788 712.92983,660.36055 712.76433,660.76423 711.72713,660.17007 708.87603,659.91456 708.72203,658.64172 709.28043,657.00553 710.93043,657.10451 711.23913,655.85203 711.98053,654.78607 711.74133,653.09071 711.03663,651.88944 710.46733,652.40158 709.76813,651.95581 708.78313,652.43789 706.71143,651.11715 706.61463,651.88944 705.65903,652.5154 705.30993,650.85127 702.82873,649.42337 702.64983,648.58828 703.27593,648.24712 705.13323,646.52252 706.08633,644.72188 708.71393,644.81552 709.13683,644.87945 713.31613,645.42472 714.36213,644.71072 715.64263,643.84884 714.28383,640.85298 716.28413,638.72885 715.50323,637.79804 712.66733,637.14723 712.98473,636.06733 713.45273,635.46669 713.33293,633.57966 711.87193,633.96138 708.20213,635.06936 705.86483,635.82156 704.72463,636.1631 701.16443,637.27812 698.87113,638.12832 697.62943,639.92975 694.45393,642.61228 694.44403,642.44325 691.25393,643.09317 690.16573,643.65425 688.15203,645.22768 686.68143,645.74672 685.46993,646.73356 683.59403,648.79399 z">
      <title id="t178">Quatrième circonscription de l'Indre-et-Loire</title>
      <desc id="d178">Cantons de : Azay-le-Rideau, Ballan-Miré, Chinon, L'Ile-Bouchard, Joué-lès-Tours Nord, Joué-lès-Tours Sud, Richelieu, Sainte-Maure-de-Touraine</desc>
    </path><path class="circo" id="id-037-05" d="M 668.78333,637.74007 669.36923,639.80179 668.36593,641.05755 666.83313,641.43658 666.50533,643.13404 663.85123,647.13682 664.37613,647.69983 664.28513,648.55871 663.65813,649.03903 663.33993,651.51414 662.72193,652.59077 663.12503,653.82083 663.00713,655.52689 663.38033,655.59084 663.04323,656.2008 663.26943,656.23985 668.18673,653.61089 669.89233,653.39331 670.52893,653.46617 673.10173,653.98395 675.57463,653.14167 678.65003,651.92275 679.29483,651.38253 679.25693,650.54455 680.04773,650.25647 680.68693,650.19936 681.88283,649.91102 683.59403,648.79399 685.46993,646.73356 686.68143,645.74672 688.15203,645.22768 690.16573,643.65425 691.25393,643.09317 694.44403,642.44325 694.45393,642.61228 697.62943,639.92975 698.87113,638.12832 701.16443,637.27812 704.72463,636.1631 705.86483,635.82156 708.20213,635.06936 711.87193,633.96138 713.33293,633.57966 714.61623,632.594 714.44463,631.68774 714.82743,631.74452 716.14793,629.94456 716.72913,629.15307 717.23473,628.07773 715.76003,628.46366 715.60643,628.11166 715.19893,626.4077 713.77713,624.72531 713.21913,622.6082 713.23553,622.59071 717.05563,620.87313 717.18393,620.46826 718.02373,620.36798 717.93073,619.96283 717.19253,619.59327 717.20673,618.36551 715.12853,617.11714 715.38203,616.00778 716.01003,614.36102 717.12813,613.65247 717.43343,612.8315 718.88203,608.6105 718.82683,607.75284 719.50913,606.51961 719.62033,605.69888 718.58783,604.47383 718.95583,602.8117 719.59823,602.26833 718.87903,600.84718 718.04163,600.71922 717.43513,599.64698 716.46483,598.88977 717.38323,597.46031 715.81393,596.73745 714.20593,595.28833 712.46203,597.16057 711.65643,596.9391 712.26693,595.35615 711.14553,594.13739 710.29643,594.14927 709.07663,595.89441 709.43783,596.14054 709.19533,596.97446 707.28393,598.71873 706.49733,599.08605 704.34723,598.85114 704.41613,599.43443 703.19583,600.57144 701.53633,600.97905 700.77283,600.69057 699.21533,602.13649 697.52183,602.20979 697.26293,601.86938 696.04973,602.25723 695.45363,603.40914 695.21963,605.07617 693.54763,605.4724 692.73643,605.31489 690.53073,602.62953 689.38643,602.34592 687.83683,604.99911 688.57423,606.09986 689.35473,606.52364 690.43173,608.46454 691.06863,610.48993 690.25823,610.65285 689.02063,611.74812 685.67353,610.33531 685.45243,609.54833 684.22823,608.38211 680.25923,607.89504 678.87393,606.23087 676.62943,606.40827 676.39933,606.72298 676.70893,608.84771 676.44813,609.67196 676.78743,610.4772 675.45863,611.10961 675.04663,611.71537 673.85643,614.94205 673.26423,615.58813 674.32823,616.22949 674.45893,617.01857 675.96073,616.94279 675.55833,620.12993 673.90503,622.32557 673.75133,623.34269 673.40333,623.59069 673.02893,625.26231 672.22333,626.25811 672.58673,629.65248 672.22913,630.8603 669.92743,633.10525 671.15013,633.42873 671.19123,634.7019 672.33113,635.21285 669.92703,637.57881 668.78333,637.74007 z">
      <title id="t179">Cinquième circonscription de l'Indre-et-Loire</title>
      <desc id="d179">Cantons de : Bourgueil, Château-la-Vallière, Langeais, Luynes, Neuillé-Pont-Pierre, Neuvy-le-Roi, Saint-Cyr-sur-Loire, Tours Nord-Ouest</desc>
    </path></svg>