<svg xmlns="http://www.w3.org/2000/svg" version="1.1" xmlns:xlink="http://www.w3.org/1999/xlink" xmlns:svgjs="http://svgjs.dev/svgjs" viewBox="0 0 137.31310000000008 143.2831799999999"><path class="circo" id="id-038-01" d="M84.71289999999999 79.23307999999997L83.56829999999991 82.32006000000001L83.04639999999995 82.91057999999998L82.52839999999992 82.65522999999996L82.80880000000002 84.79323999999997L82.5784000000001 85.95362L84.05099999999993 86.61821999999995L84.74919999999997 86.40071999999998L84.97270000000003 86.99977000000001L85.74399999999991 86.14361999999994L85.30690000000004 84.57137L85.49430000000007 84.19868999999994L85.98309999999992 83.25304999999992L86.69180000000006 83.36799999999994L86.99299999999994 83.27211L87.67599999999993 82.8528L88.38650000000007 83.81248999999991L89.52130000000011 84.18855999999994L89.87329999999997 84.00546999999995L89.6065000000001 82.48304999999993L90.28459999999995 82.11809999999991L91.41560000000004 82.51392999999996L91.57909999999993 82.48726999999997L92.94720000000007 80.85686999999996L93.36500000000001 80.47722999999996L93.59930000000008 79.77679999999998L92.9507000000001 79.33687999999995L92.97890000000007 78.94315999999992L93.28580000000011 78.69643999999994L94.27929999999992 79.31200999999999L94.5634 79.03959999999995L94.48379999999997 77.97082999999998L94.67470000000003 78.32803000000001L96.22420000000011 78.73361L96.59930000000008 78.58417999999995L96.83650000000011 77.81196L97.46460000000002 75.93108999999993L95.82120000000009 74.1201299999999L94.45039999999995 73.24194999999997L94.14300000000003 72.49716000000001L93.80130000000008 73.10084999999992L93.11750000000006 73.13927000000001L92.67180000000008 71.13312999999994L91.95260000000007 71.54940999999997L91.42800000000011 72.72368999999992L91.11040000000003 73.17273L90.75520000000006 72.54499999999996L88.80580000000009 72.29273999999998L87.54970000000003 73.24545L86.53749999999991 74.83466999999996L86.27340000000004 76.34321999999997L86.6606999999999 77.4554599999999L85.12930000000006 77.50519999999995L85.1096 78.6683099999999L84.71289999999999 79.23307999999997z">
      <title id="t180">Première circonscription de l'Isère</title>
      <desc id="d180">Cantons de Grenoble I, Grenoble II, Grenoble IV, Meylan, Saint-Ismier)</desc>
    </path><path class="circo" id="id-038-02" d="M81.5915 94.55247999999995L82.60050000000001 92.87699999999995L82.2935 92.21096L82.53710000000001 90.71926999999994L81.56220000000008 89.99191999999994L80.37400000000002 89.74162000000001L81.30490000000009 87.63545999999997L83.51780000000008 87.78336999999999L83.9713999999999 88.31495999999993L84.97270000000003 86.99977000000001L85.74399999999991 86.14361999999994L85.30690000000004 84.57137L85.49430000000007 84.19868999999994L85.98309999999992 83.25304999999992L86.69180000000006 83.36799999999994L86.99299999999994 83.27211L87.67599999999993 82.8528L88.38650000000007 83.81248999999991L89.52130000000011 84.18855999999994L89.87329999999997 84.00546999999995L89.6065000000001 82.48304999999993L90.28459999999995 82.11809999999991L90.22939999999994 83.24761999999998L90.97790000000009 84.67833999999993L91.31880000000001 85.38707999999997L92.02970000000005 85.55601999999999L92.41249999999991 86.20534999999995L91.07240000000002 87.23051999999996L90.23090000000002 87.14937999999995L89.95569999999998 87.61532999999997L90.96190000000001 89.21398999999997L91.35590000000002 90.61129999999991L92.07580000000007 90.41789999999992L95.44720000000007 92.58283999999992L96.19900000000007 92.28239999999994L95.99219999999991 93.89743999999996L96.41550000000007 95.01743999999997L96.06919999999991 95.23370999999997L96.66200000000003 95.58303000000001L96.30240000000003 96.31628999999998L95.22780000000012 96.91270999999995L94.39789999999994 99.24131999999997L93.33500000000004 100.52553999999998L94.75970000000007 101.55602999999996L94.25520000000006 102.18471999999997L93.09220000000005 102.50686999999994L92.4248 104.82768999999996L91.7989 105.33488L90.33539999999994 103.43097999999998L89.36149999999998 104.67701999999997L87.74829999999997 104.8928699999999L87.12560000000008 105.47327999999993L86.70869999999991 107.58359999999993L85.07770000000005 107.39981L84.10619999999994 105.11964999999998L83.76109999999994 105.79874999999993L82.74050000000011 106.47177999999997L82.14990000000012 107.32972999999993L80.7061000000001 107.00504999999998L80.24590000000012 106.12504999999999L80.13920000000007 105.73802999999998L81.12339999999995 104.06551999999999L80.981 102.82646999999997L81.5603000000001 99.55445999999995L82.47250000000008 98.25333L83.52600000000007 96.12388999999996L83.44749999999999 96.08210999999994L81.5915 94.55247999999995z">
      <title id="t181">Deuxième circonscription de l'Isère</title>
      <desc id="d181">Cantons de : Echirolles Est, Echirolles Ouest, Eybens, Saint-Martin-d'Hères Nord, Saint-Martin-d'Hères Sud, Vizille (moins la partie de la commune de Chamrousse)</desc>
    </path><path class="circo" id="id-038-03" d="M71.93209999999999 78.29555999999991L71.50849999999991 77.59429999999998L70.89830000000006 77.68954999999994L70.4652000000001 77.00428L70.54340000000002 75.40229L72.6253999999999 72.98632999999995L72.46420000000012 72.30940999999996L73.15069999999992 70.86473999999998L74.16620000000012 71.49613L74.62380000000007 74.28886999999997L76.07600000000002 76.21100000000001L76.2147 76.27656999999999L77.5299 77.92748999999992L77.93340000000012 78.79154999999992L79.4697000000001 81.27702L79.72520000000009 81.24986999999999L82.52839999999992 82.65522999999996L82.80880000000002 84.79323999999997L82.5784000000001 85.95362L84.05099999999993 86.61821999999995L84.74919999999997 86.40071999999998L84.97270000000003 86.99977000000001L83.9713999999999 88.31495999999993L83.51780000000008 87.78336999999999L81.30490000000009 87.63545999999997L81.45049999999992 84.31833999999992L81.1893 83.80471999999997L79.83300000000008 83.81056000000001L80.22769999999991 84.69189999999992L78.65470000000005 84.94872999999995L77.24900000000002 84.11016999999993L77.19769999999994 84.02693999999997L77.17769999999996 83.07004999999992L76.0202999999999 83.38103000000001L75.68720000000008 83.13844999999992L75.5637999999999 82.32234999999991L74.6744000000001 81.50470999999993L74.93200000000002 80.30115999999998L74.6096 80.54806999999994L73.52130000000011 80.00199999999995L72.65920000000006 78.63487999999995L71.93209999999999 78.29555999999991z">
      <title id="t182">Troisième circonscription de l'Isère</title>
      <desc id="d182">Cantons de : Fontaine-Sassenage, Grenoble III, Grenoble V, Grenoble VI</desc>
    </path><path class="circo" id="id-038-04" d="M102.95360000000005 88.72296999999992L103.37000000000012 88.06412L105.77400000000011 86.69184999999993L106.08179999999993 86.42756999999995L105.89429999999993 84.42435L107.00440000000003 81.99708999999996L109.19380000000001 80.90355999999997L110.27199999999993 78.19367999999997L111.40679999999998 78.42688999999996L112.13040000000001 79.36656999999991L113.30529999999999 79.17309L114.56829999999991 80.28076999999996L114.98790000000008 80.2515699999999L115.94430000000011 78.05642L117.51999999999998 77.52378999999996L117.78359999999998 79.19529999999997L118.72409999999991 80.05498L118.70869999999991 81.29077999999993L120.35200000000009 82.58292999999992L120.59899999999993 84.26466999999991L119.05799999999999 88.34582L120.53539999999998 88.76238000000001L121.20370000000003 88.39824999999996L122.22029999999995 87.10417999999993L124.4994999999999 88.0951L125.71129999999994 89.78909999999996L127.64949999999999 89.05851999999993L128.44679999999994 89.17505999999992L129.3273999999999 90.08156999999994L128.98430000000008 91.68520999999998L126.32339999999999 94.09929999999997L127.51530000000002 98.53701999999998L125.54289999999992 99.08823999999993L124.64889999999991 101.86437000000001L124.5743 103.54355999999996L124.08459999999991 104.19335000000001L124.10280000000012 105.45427999999993L125.05780000000004 106.26787999999999L128.6108999999999 107.40521999999999L132.23900000000003 106.50459999999998L133.8832 106.48595999999998L134.26420000000007 107.23656999999992L133.71360000000004 108.36797999999999L133.6956 109.21199999999999L134.73450000000003 110.99487999999997L134.3655000000001 112.5878899999999L134.89300000000003 113.22721999999999L137.28099999999995 113.97048999999993L136.9407000000001 116.04435999999998L137.26170000000002 118.08627999999999L136.98250000000007 119.30939000000001L137.31310000000008 120.48260999999991L136.75610000000006 121.11725000000001L136.6262999999999 121.94507999999996L137.04230000000007 124.38047999999992L135.4235000000001 125.15445L133.9876999999999 124.34271000000001L132.70630000000006 122.22564L131.8741 122.08265999999992L129.53919999999994 122.66941999999995L127.98970000000008 124.65194999999994L126.3094000000001 124.71885999999995L123.5284999999999 123.88248999999996L122.8719000000001 124.41009999999994L121.25700000000006 124.67220999999995L120.25790000000006 123.96534999999994L117.92399999999998 123.45821000000001L116.45360000000005 125.49482L115.10809999999992 126.36946999999998L111.63830000000007 129.05651L109.4034999999999 126.38600999999994L108.21309999999994 126.72260999999992L107.1259 128.51235999999994L105.06600000000003 128.72339L102.54449999999997 130.40850999999998L103.52050000000008 131.3787299999999L104.94700000000012 132.03045999999995L105.15869999999995 133.20486999999991L102.85449999999992 134.38675L102.68080000000009 135.78666999999996L101.53899999999999 135.33092L99.99900000000002 136.60435999999993L98.52260000000001 135.9814399999999L97.75209999999993 136.27123999999992L97.09899999999993 137.26301999999998L93.91399999999999 136.75554L93.32220000000007 136.17548L92.13799999999992 135.77805L92.33079999999995 137.8434699999999L91.43820000000005 139.25380999999993L90.79719999999998 141.24294999999995L89.96000000000004 142.10951L87.68010000000004 143.09961999999996L86.03649999999993 143.2831799999999L84.42550000000006 141.40514999999994L82.8590999999999 141.08146L81.67990000000009 139.41557L80.98489999999993 140.26909L78.61500000000001 139.96844L77.99060000000009 140.36430999999993L76.83840000000009 140.03770999999995L76.57279999999992 139.14288999999997L75.86609999999996 138.9154299999999L75.30520000000001 137.56102999999996L75.07140000000004 136.54414999999995L74.7369000000001 136.45533999999998L73.48890000000006 136.23699999999997L71.65679999999998 135.24698999999998L71.3085000000001 133.60149L68.44859999999994 131.77676999999994L68.23170000000005 132.39875999999992L68.91380000000004 133.95485999999994L68.48579999999993 134.46182999999996L62.80670000000009 132.55768999999998L62.46499999999992 131.93187999999998L61.284599999999955 131.68333999999993L60.9534000000001 130.95767L62.21360000000004 129.99793L63.039400000000114 128.18687L61.25680000000011 127.8382499999999L62.2023999999999 122.8137099999999L61.822799999999916 121.59061999999994L62.67579999999998 119.18038999999999L62.93730000000005 116.19922999999994L62.43669999999997 110.94526999999994L63.34500000000003 108.19299000000001L63.74440000000004 107.50185999999997L62.67139999999995 105.37780999999995L62.941100000000006 104.21102999999994L62.32979999999998 103.73237999999992L62.44139999999993 102.92978999999991L61.37869999999998 101.71422999999993L61.488200000000006 100.45285999999999L62.275300000000016 98.49586L63.022699999999986 98.16485999999998L63.840999999999894 98.32952L65.0311999999999 98.52028999999993L63.75739999999996 94.97781999999995L63.849300000000085 89.99745999999993L65.01459999999997 87.29609999999991L65.0275999999999 87.22593999999992L66.74330000000009 83.42746999999997L67.44160000000011 80.12171000000001L68.1545000000001 78.60940999999991L70.23710000000005 78.18993L70.89830000000006 77.68954999999994L71.50849999999991 77.59429999999998L71.93209999999999 78.29555999999991L72.65920000000006 78.63487999999995L73.52130000000011 80.00199999999995L74.6096 80.54806999999994L74.93200000000002 80.30115999999998L74.6744000000001 81.50470999999993L75.5637999999999 82.32234999999991L75.68720000000008 83.13844999999992L76.0202999999999 83.38103000000001L77.17769999999996 83.07004999999992L77.19769999999994 84.02693999999997L77.24900000000002 84.11016999999993L78.65470000000005 84.94872999999995L80.22769999999991 84.69189999999992L79.83300000000008 83.81056000000001L81.1893 83.80471999999997L81.45049999999992 84.31833999999992L81.39820000000009 86.16784999999993L81.30490000000009 87.63545999999997L80.37400000000002 89.74162000000001L81.56220000000008 89.99191999999994L82.53710000000001 90.71926999999994L82.2935 92.21096L82.60050000000001 92.87699999999995L81.5915 94.55247999999995L83.44749999999999 96.08210999999994L83.52600000000007 96.12388999999996L82.47250000000008 98.25333L81.5603000000001 99.55445999999995L80.981 102.82646999999997L81.12339999999995 104.06551999999999L80.13920000000007 105.73802999999998L80.24590000000012 106.12504999999999L80.7061000000001 107.00504999999998L82.14990000000012 107.32972999999993L82.74050000000011 106.47177999999997L83.76109999999994 105.79874999999993L84.10619999999994 105.11964999999998L85.07770000000005 107.39981L86.70869999999991 107.58359999999993L87.12560000000008 105.47327999999993L87.74829999999997 104.8928699999999L89.36149999999998 104.67701999999997L90.33539999999994 103.43097999999998L91.7989 105.33488L92.4248 104.82768999999996L93.09220000000005 102.50686999999994L94.25520000000006 102.18471999999997L94.75970000000007 101.55602999999996L93.33500000000004 100.52553999999998L94.39789999999994 99.24131999999997L95.22780000000012 96.91270999999995L96.30240000000003 96.31628999999998L96.66200000000003 95.58303000000001L97.08359999999993 95.5269199999999L98.64900000000011 93.53044999999997L100.90789999999993 91.58569L100.93129999999996 91.1599L101.90419999999995 89.9009299999999L103.04169999999999 89.52119999999991L102.95360000000005 88.72296999999992z">
      <title id="t183">Quatrième circonscription de l'Isère</title>
      <desc id="d183">Cantons de : Le Bourg-d'Oisans, Clelles, Corps, Fontaine-Seyssinet, Mens, Monestier-de-Clermont, La Mure, Valbonnais, Vif, Villard-de-Lans</desc>
    </path><path class="circo" id="id-038-05" d="M121.28670000000011 63.593169999999986L122.13059999999996 63.493119999999976L123.00890000000004 62.5693L121.74990000000003 59.41118999999992L119.24800000000005 57.08825999999999L117.89799999999991 54.455299999999966L117.14760000000001 54.06088L115.55349999999999 54.61894999999993L114.86899999999991 54.81578999999999L114.85020000000009 53.57168999999999L114.48710000000005 53.36743000000001L113.31919999999991 53.459139999999934L112.14329999999995 53.36633999999992L111.46090000000004 53.763469999999984L111.02070000000003 54.11865999999998L107.49759999999992 52.143299999999954L107.80130000000008 51.571809999999914L107.60290000000009 49.976209999999924L106.0023000000001 49.460789999999974L105.08719999999994 48.05942999999991L104.37169999999992 47.62365L99.68059999999991 49.41678999999999L99.6418000000001 49.43617999999992L100.48070000000007 50.835809999999924L100.08539999999994 53.318359999999984L99.45170000000007 54.39400999999998L98.71399999999994 54.784779999999955L98.7505000000001 55.06445999999994L98.54539999999997 56.740729999999985L98.87580000000003 57.48723999999993L100.33310000000006 57.13100999999995L99.26099999999997 59.40500999999995L97.86290000000008 60.148559999999975L97.57050000000004 59.999329999999986L97.53700000000003 58.71427999999992L96.57420000000002 57.86511999999993L94.89990000000012 57.49752999999998L94.45100000000002 56.769919999999956L92.83300000000008 56.24761999999998L92.7784999999999 56.25112999999999L90.80079999999998 55.62366999999995L89.52590000000009 54.08728999999994L88.34429999999998 53.71912999999995L86.72289999999998 53.9478499999999L86.49430000000007 54.293589999999995L86.2358999999999 54.46777999999995L84.73389999999995 54.14580000000001L84.07050000000004 52.31173000000001L84.44010000000003 49.99208999999996L83.0130999999999 48.59375L82.52179999999998 46.88551999999993L81.19800000000009 48.471169999999915L80.14670000000001 48.49189999999999L78.90159999999992 49.12135999999998L78.55079999999998 47.6434099999999L76.82200000000012 46.885889999999904L76.22039999999993 45.98273999999992L75.27649999999994 45.774119999999925L74.99500000000012 44.31012999999996L73.33439999999996 42.732129999999984L72.69689999999991 42.60277999999994L72.5972999999999 42.91437999999994L70.3882000000001 42.62644L69.59069999999997 44.10352999999998L70.43340000000012 46.03148999999996L70.11590000000001 46.08339999999998L69.03520000000003 46.602109999999925L66.72769999999991 49.257499999999936L66.30269999999996 51.93765999999994L66.50630000000001 52.2761099999999L67.25579999999991 52.040419999999926L67.2847999999999 52.01945999999998L71.0175999999999 51.802299999999946L70.99170000000004 51.89427999999998L70.57780000000002 53.649099999999976L72.34320000000002 56.313139999999976L73.54210000000012 56.10071999999991L74.42810000000009 56.865459999999985L75.29909999999995 56.04573999999991L76.00810000000001 56.373809999999935L79.32189999999991 55.238509999999906L79.7989 58.752539999999954L79.35670000000005 59.42122999999992L78.44880000000012 61.23547999999994L78.46180000000004 63.23955999999998L78.28970000000004 64.02611999999999L79.32439999999997 65.19889999999998L80.12660000000005 65.08242999999993L82.60899999999992 66.45443L82.00350000000003 69.33213999999998L82.18250000000012 69.7150499999999L81.23739999999998 70.8236599999999L81.06860000000006 70.71440999999993L79.67959999999994 72.6363399999999L78.72499999999991 73.34294L78.47520000000009 74.51303999999993L77.67630000000008 75.79161999999997L76.2147 76.27656999999999L77.5299 77.92748999999992L77.93340000000012 78.79154999999992L79.4697000000001 81.27702L79.72520000000009 81.24986999999999L83.04639999999995 82.91057999999998L83.56829999999991 82.32006000000001L84.71289999999999 79.23307999999997L85.1096 78.6683099999999L85.12930000000006 77.50519999999995L86.6606999999999 77.4554599999999L86.27340000000004 76.34321999999997L86.53749999999991 74.83466999999996L87.54970000000003 73.24545L88.80580000000009 72.29273999999998L90.75520000000006 72.54499999999996L91.11040000000003 73.17273L91.42800000000011 72.72368999999992L91.95260000000007 71.54940999999997L92.67180000000008 71.13312999999994L93.11750000000006 73.13927000000001L93.80130000000008 73.10084999999992L94.14300000000003 72.49716000000001L94.45039999999995 73.24194999999997L95.82120000000009 74.1201299999999L97.46460000000002 75.93108999999993L96.83650000000011 77.81196L96.59930000000008 78.58417999999995L96.22420000000011 78.73361L94.67470000000003 78.32803000000001L94.48379999999997 77.97082999999998L94.5634 79.03959999999995L94.27929999999992 79.31200999999999L93.28580000000011 78.69643999999994L92.97890000000007 78.94315999999992L92.9507000000001 79.33687999999995L93.59930000000008 79.77679999999998L93.36500000000001 80.47722999999996L92.94720000000007 80.85686999999996L91.57909999999993 82.48726999999997L91.41560000000004 82.51392999999996L90.28459999999995 82.11809999999991L90.22939999999994 83.24761999999998L90.97790000000009 84.67833999999993L91.31880000000001 85.38707999999997L92.02970000000005 85.55601999999999L92.41249999999991 86.20534999999995L91.07240000000002 87.23051999999996L90.23090000000002 87.14937999999995L89.95569999999998 87.61532999999997L90.96190000000001 89.21398999999997L91.35590000000002 90.61129999999991L92.07580000000007 90.41789999999992L95.44720000000007 92.58283999999992L96.19900000000007 92.28239999999994L95.99219999999991 93.89743999999996L96.41550000000007 95.01743999999997L96.06919999999991 95.23370999999997L96.66200000000003 95.58303000000001L97.08359999999993 95.5269199999999L98.64900000000011 93.53044999999997L100.90789999999993 91.58569L100.93129999999996 91.1599L101.90419999999995 89.9009299999999L103.04169999999999 89.52119999999991L102.95360000000005 88.72296999999992L103.37000000000012 88.06412L105.77400000000011 86.69184999999993L106.08179999999993 86.42756999999995L105.89429999999993 84.42435L107.00440000000003 81.99708999999996L109.19380000000001 80.90355999999997L110.27199999999993 78.19367999999997L111.40679999999998 78.42688999999996L112.13040000000001 79.36656999999991L113.30529999999999 79.17309L114.56829999999991 80.28076999999996L114.98790000000008 80.2515699999999L115.94430000000011 78.05642L117.51999999999998 77.52378999999996L118.6878999999999 75.82506999999998L117.9550999999999 72.66109999999992L118.94039999999995 71.3481099999999L118.8415 70.93905999999993L119.82979999999998 70.35343L120.24720000000002 69.30397999999991L122.51430000000005 68.62185999999997L122.79960000000005 66.79541999999992L123.1072999999999 66.00374L123.39049999999997 64.47512999999992L121.85140000000001 64.11527000000001L121.28670000000011 63.593169999999986z">
      <title id="t184">Cinquième circonscription de l'Isère</title>
      <desc id="d184">Cantons de : Allevard, Domène, Goncelin, Saint-Egrève, Saint-Geoirs-en-Valdaine, Saint-Laurent-du-Pont, Le Touvet, Commune de Chamrousse (partie comprise dans le canton de Vizille)</desc>
    </path><path class="circo" id="id-038-06" d="M44.51990000000001 11.396709999999985L43.5621000000001 12.013749999999959L42.250999999999976 12.859139999999911L40.90210000000002 13.89891L38.85050000000001 13.58438000000001L38.06989999999996 13.519799999999918L37.75579999999991 12.414269999999988L36.88560000000007 10.90652L36.108600000000024 10.617099999999937L35.25109999999995 9.70826999999997L34.09069999999997 9.543659999999932L32.13979999999992 8.683469999999943L31.385700000000043 8.955299999999966L31.491199999999935 10.171969999999988L31.10349999999994 10.305349999999976L30.424099999999953 8.469319999999925L29.545900000000074 11.666229999999928L29.202600000000075 11.899779999999964L26.85419999999999 11.093409999999949L26.89969999999994 12.285930000000008L27.72759999999994 14.194769999999949L29.78430000000003 14.240459999999985L29.47309999999993 15.874050000000011L29.868200000000115 17.478869999999915L32.60130000000004 17.71015L33.20219999999995 18.21677999999997L34.27150000000006 19.872539999999958L35.36930000000007 20.425749999999994L34.92329999999993 22.315879999999993L34.318500000000085 24.71210999999994L34.0924 27.57450999999992L34.569099999999935 27.83511999999996L34.72880000000009 28.10349999999994L35.23109999999997 28.744929999999954L36.039999999999964 28.747359999999958L36.40300000000002 29.48246999999992L37.03150000000005 29.451709999999935L37.08510000000001 29.765249999999924L37.732099999999946 30.291409999999928L39.63000000000011 30.57439999999997L43.46759999999995 31.066460000000006L43.815700000000106 31.835219999999936L42.819099999999935 33.19264999999996L43.3592000000001 33.514099999999985L44.443700000000035 34.41323L45.01739999999995 35.750099999999975L47.20859999999993 35.70367999999996L47.76389999999992 37.04654999999991L48.72649999999999 38.09987000000001L50.63280000000009 37.9713999999999L51.814800000000105 36.20804999999996L55.16360000000009 36.76308999999992L55.893499999999904 34.98958999999991L55.70790000000011 34.23649L53.230999999999995 33.887789999999995L53.85429999999997 32.566709999999944L56.76970000000006 33.00794999999994L57.547000000000025 32.6726799999999L55.918899999999894 31.378960000000006L55.79019999999991 30.547169999999937L56.36159999999995 28.516459999999938L58.6083000000001 29.09814999999992L59.80250000000001 29.528419999999983L59.78559999999993 29.933149999999955L58.955799999999954 30.650009999999952L59.1726000000001 32.222549999999956L61.12130000000002 31.917499999999905L61.84780000000001 32.24248L62.64200000000005 32.07366999999999L63.68380000000002 30.285570000000007L64.20679999999993 29.901289999999904L66.04600000000005 32.31210999999996L68.71730000000002 33.03103999999996L70.05690000000004 32.09918999999991L71.45700000000011 32.939899999999966L72.16820000000007 33.28075000000001L73.5036 32.39316999999994L74.10210000000006 31.35415999999998L73.21190000000001 30.045479999999998L72.99919999999997 28.046839999999975L71.03639999999996 26.58402000000001L71.08220000000006 26.18444999999997L70.05819999999994 25.558109999999942L69.03320000000008 25.737300000000005L68.61130000000003 24.49055999999996L68.18419999999992 23.77401999999995L68.36590000000001 22.538839999999936L69.14370000000008 22.68574000000001L69.92460000000005 24.117759999999976L70.34210000000007 24.08319999999992L70.72550000000001 23.37878999999998L70.29690000000005 22.67831000000001L69.13000000000011 22.230320000000006L68.80899999999997 21.10125999999991L68.20550000000003 20.627719999999954L66.65280000000007 20.39994999999999L65.82269999999994 18.485419999999976L64.17730000000006 16.87815999999998L62.97420000000011 15.79413999999997L60.96849999999995 12.745180000000005L59.83590000000004 11.784099999999967L59.16210000000001 10.703409999999963L57.7478000000001 9.231619999999907L57.59870000000001 7.587769999999978L57.7659000000001 7.208309999999983L58.90519999999992 6.883109999999988L58.86310000000003 6.469579999999951L58.69509999999991 6.161049999999932L57.35629999999992 5.085449999999923L57.22109999999998 4.2403099999999085L56.20620000000008 3.1625699999999597L53.965799999999945 1.6022199999999884L52.002899999999954 0L50.81169999999997 0.2768099999999549L50.35529999999994 1.0672499999999445L49.92620000000011 2.1972099999999273L48.534000000000106 2.993039999999951L47.54559999999992 4.229449999999929L46.537199999999984 8.370779999999968L44.51990000000001 11.396709999999985z">
      <title id="t185">Sixième circonscription de l'Isère</title>
      <desc id="d185">Cantons de : Bourgoin-Jallieu Nord, Crémieu, Morestel, Pont-de-Chéruy</desc>
    </path><path class="circo" id="id-038-07" d="M26.320999999999913 68.4967499999999L24.630699999999933 68.60420999999997L23.588199999999915 68.46096L22.653600000000097 65.68700999999999L20.995599999999968 65.47488999999996L19.983999999999924 66.20423999999991L18.240999999999985 67.24110999999994L17.42560000000003 67.33746999999994L15.72810000000004 68.04485999999997L13.592799999999897 69.56070999999997L11.529099999999971 71.06872999999996L9.81529999999998 70.97145L9.830799999999954 69.71021999999994L5.615700000000061 70.69724999999994L4.874700000000075 70.99041999999997L3.2635999999999967 69.59866L1.6207999999999174 67.94596999999999L1.503500000000031 66.39033999999992L1.5217999999999847 66.15224L1.7170000000000982 65.43013999999994L2.0880999999999403 65.48964000000001L2.6012000000000626 64.97066999999993L2.499499999999898 64.22763999999995L1.092300000000023 62.85047999999995L1.1795999999999367 62.15174999999999L3.577099999999973 61.948459999999955L5.276200000000017 59.74176L5.66800000000012 58.332329999999956L5.820999999999913 57.77527999999995L6.69380000000001 58.01028999999994L6.8641999999999825 58.44601L8.86830000000009 59.09681999999998L11.390300000000025 58.87964999999997L12.106899999999996 58.54346999999996L12.432299999999941 57.83702999999991L13.173500000000104 57.799260000000004L13.998900000000049 57.825649999999996L14.530199999999923 57.20607999999993L15.731700000000046 56.92345999999998L16.541600000000017 57.10037L15.845000000000027 55.84312L15.45530000000008 54.11853999999994L14.91450000000009 52.37776999999994L15.09050000000002 51.98588999999993L16.739299999999957 51.20108999999991L18.317199999999957 51.23150999999996L18.648300000000063 51.26374999999996L21.125999999999976 51.773579999999924L24.993400000000065 52.330999999999904L24.893600000000106 49.90711999999996L25.54060000000004 48.454079999999976L25.079700000000003 47.75072L26.289299999999912 47.53645999999992L25.56860000000006 45.679149999999936L25.64740000000006 44.861729999999966L26.297900000000027 44.42852999999991L26.286800000000085 44.01726999999994L25.695899999999938 43.44898999999998L26.60069999999996 43.08668L28.148500000000013 41.845179999999914L29.704300000000103 41.35401999999999L29.490600000000086 42.01956999999993L30.607400000000098 43.70195000000001L31.65319999999997 44.43265999999994L33.35439999999994 43.5868099999999L32.8617999999999 42.50229999999999L33.189800000000105 41.81167999999991L33.91370000000006 41.47380999999996L33.48980000000006 40.38531999999998L34.65090000000009 40.40825999999993L35.321899999999914 40.0231L35.968599999999924 40.40497999999991L36.714500000000044 40.353399999999965L36.663099999999986 40.752129999999966L37.85370000000012 40.77203999999995L38.66820000000007 40.83418999999992L39.330400000000054 41.28022999999996L39.27109999999993 42.07988L40.069999999999936 42.22804999999994L41.77299999999991 41.069169999999986L42.32069999999999 40.00767999999994L42.61570000000006 40.28735999999992L44.64020000000005 40.15407999999991L44.63300000000004 40.213919999999916L45.274900000000116 41.69650999999999L44.82590000000005 42.3461299999999L45.462600000000066 43.09141999999997L46.65110000000004 43.622119999999995L45.949299999999994 44.043229999999994L46.01469999999995 45.62856999999997L45.5646999999999 46.31698999999992L47.980800000000045 46.51308999999992L48.66090000000008 46.045799999999986L49.70679999999993 46.768249999999966L50.11689999999999 47.52105999999992L52.200199999999995 45.12810999999999L53.40319999999997 44.41566999999998L55.97280000000001 45.85525999999993L56.293100000000095 46.64080000000001L57.52759999999989 45.5083699999999L57.93859999999995 44.35829000000001L59.71060000000011 44.43932999999993L61.65139999999997 44.58963999999992L62.52759999999989 43.80835999999999L63.696699999999964 43.70317L63.71810000000005 43.71480999999994L64.93280000000004 42.16834999999992L65.02109999999993 41.37405000000001L65.54359999999997 42.010709999999904L66.7186999999999 42.376339999999914L67.57809999999995 43.16712999999993L67.5915 42.78381999999999L69.12249999999995 42.95138999999995L70.3882000000001 42.62644L69.59069999999997 44.10352999999998L70.43340000000012 46.03148999999996L70.11590000000001 46.08339999999998L69.03520000000003 46.602109999999925L66.72769999999991 49.257499999999936L66.30269999999996 51.93765999999994L66.50630000000001 52.2761099999999L67.25579999999991 52.040419999999926L67.2847999999999 52.01945999999998L71.0175999999999 51.802299999999946L70.99170000000004 51.89427999999998L70.57780000000002 53.649099999999976L69.12599999999998 54.47492999999997L68.05130000000008 54.068989999999985L67.37519999999995 54.461959999999976L67.2958000000001 55.280059999999935L66.51199999999994 56.121189999999956L67.36969999999997 56.91134999999997L67.3085000000001 58.92298999999991L67.21080000000006 59.05615L66.64730000000009 59.61707999999999L64.67779999999993 59.96192999999994L64.2944 61.090259999999944L63.709499999999935 61.65163999999993L63.963199999999915 62.42712999999992L63.22929999999997 62.61865999999998L62.33120000000008 60.48732999999993L59.87339999999995 62.480729999999994L59.60570000000007 62.67178000000001L59.55320000000006 62.75198999999998L57.12920000000008 62.69452000000001L56.09539999999993 67.58543999999995L56.429800000000114 67.58375000000001L56.70790000000011 68.18581999999992L56.98659999999995 68.94146999999998L56.82359999999994 69.73028L57.56790000000001 70.65784999999994L59.133600000000115 70.73120999999992L59.28500000000008 70.88939999999991L58.559299999999894 72.47250999999994L57.418300000000045 72.35894999999994L56.89519999999993 73.32783999999992L53.92509999999993 72.15233999999998L53.58629999999994 72.3793599999999L53.040300000000116 72.50005999999996L51.887500000000045 72.59827999999993L51.789999999999964 72.74228999999991L50.10500000000002 73.45722L48.78620000000001 76.34587999999997L48.26980000000003 76.95285000000001L47.89210000000003 78.94266999999991L47.87850000000003 79.04007999999999L45.97260000000006 79.4813499999999L45.471000000000004 80.90947999999992L45.1853000000001 80.74789999999996L43.6386 81.34362999999996L42.89889999999991 82.32873999999993L42.714300000000094 81.58119999999997L41.1724999999999 81.01675L40.197400000000016 81.79463999999996L39.39499999999998 81.90575999999999L38.97929999999997 80.7669699999999L37.48199999999997 78.92287999999996L36.83960000000002 77.02492999999993L35.64930000000004 77.22811999999999L34.84719999999993 76.0706899999999L33.82459999999992 77.40548000000001L32.22000000000003 77.38265999999999L32.9371000000001 72.76451999999995L33.63059999999996 71.22267999999997L33.33940000000007 71.00032999999996L32.11799999999994 71.11536999999998L31.72420000000011 71.84267L31.00579999999991 72.26095999999995L29.35850000000005 72.45317999999997L28.243600000000015 72.98728999999992L28.086500000000115 72.81887999999992L27.603800000000092 71.32394L26.857700000000023 69.14562999999998L26.320999999999913 68.4967499999999z">
      <title id="t186">Septième circonscription de l'Isère</title>
      <desc id="d186">Cantons de : Beaurepaire, La Côte-Saint-André, Le Grand-Lemps, Roussillon (moins les communes de Assieu, Auberives-sur-Varèze, Cheyssieu, Clonas-sur-Varèze, Saint-Alban-du-Rhône, Saint-Clair-du-Rhône, Saint-Maurice-l'Exil, Saint-Prim, Vernioz), Roybon, Saint-Etienne-de-Saint-Geoirs, Saint-Jean-de-Bournay, Virieu</desc>
    </path><path class="circo" id="id-038-08" d="M30.607400000000098 43.70195000000001L29.490600000000086 42.01956999999993L29.704300000000103 41.35401999999999L28.148500000000013 41.845179999999914L26.60069999999996 43.08668L25.695899999999938 43.44898999999998L26.286800000000085 44.01726999999994L26.297900000000027 44.42852999999991L25.64740000000006 44.861729999999966L25.56860000000006 45.679149999999936L26.289299999999912 47.53645999999992L25.079700000000003 47.75072L25.54060000000004 48.454079999999976L24.893600000000106 49.90711999999996L24.993400000000065 52.330999999999904L21.125999999999976 51.773579999999924L18.648300000000063 51.26374999999996L18.317199999999957 51.23150999999996L16.739299999999957 51.20108999999991L15.09050000000002 51.98588999999993L14.91450000000009 52.37776999999994L15.45530000000008 54.11853999999994L15.845000000000027 55.84312L16.541600000000017 57.10037L15.731700000000046 56.92345999999998L14.530199999999923 57.20607999999993L13.998900000000049 57.825649999999996L13.173500000000104 57.799260000000004L12.432299999999941 57.83702999999991L12.106899999999996 58.54346999999996L11.390300000000025 58.87964999999997L8.86830000000009 59.09681999999998L6.8641999999999825 58.44601L6.69380000000001 58.01028999999994L5.820999999999913 57.77527999999995L5.66800000000012 58.332329999999956L5.276200000000017 59.74176L3.577099999999973 61.948459999999955L1.1795999999999367 62.15174999999999L1.3347000000001117 60.546389999999974L0.9947999999999411 58.96462999999994L0.1391000000000986 57.80507L0 56.22484999999995L1.4285999999999603 54.74905000000001L1.4282000000000608 54.03555999999992L1.0532000000000608 52.99923000000001L1.001800000000003 52.516869999999926L1.1721999999999753 51.94989999999996L2.1800000000000637 51.78363999999999L2.785699999999906 52.13117999999997L3.0880999999999403 52.03108999999995L3.244699999999966 51.69844999999998L3.1322999999999865 50.26044999999999L4.758399999999938 49.187059999999974L4.941299999999956 49.08425999999997L5.988700000000108 48.49687999999992L6.9133999999999105 47.19450999999992L8.356600000000071 46.50726999999995L8.690200000000004 46.11420999999996L10.045699999999897 44.53674000000001L10.9371000000001 43.228039999999964L11.018299999999954 42.83101999999997L10.54300000000012 42.20110999999997L7.938699999999926 41.14283999999998L6.592100000000073 39.478149999999914L6.19360000000006 38.650999999999954L5.550300000000107 37.80054999999993L3.230399999999918 36.739169999999945L2.8888999999999214 35.973389999999995L5.752300000000105 35.690740000000005L7.258100000000013 35.93232999999998L8.967599999999948 36.88137999999992L9.727699999999913 37.29417000000001L9.91450000000009 35.55577999999991L11.70679999999993 34.61480999999992L11.867700000000013 34.224699999999984L12.288099999999986 34.25009L12.598899999999958 34.25421999999992L14.036299999999983 33.627899999999954L15.634700000000066 33.74672999999996L16.11519999999996 33.549519999999916L19.414400000000114 32.87172999999996L21.691299999999956 34.043429999999944L21.73739999999998 33.98984999999993L21.981500000000096 32.746080000000006L20.936099999999897 32.185359999999946L22.073100000000068 31.711739999999963L24.735300000000052 32.742309999999975L25.542799999999943 31.850289999999973L24.938900000000103 30.76487999999995L24.99420000000009 29.54860999999994L25.347500000000082 28.798799999999915L26.76890000000003 27.958429999999908L26.42540000000008 27.14215999999999L28.59310000000005 25.1807399999999L29.41229999999996 25.056780000000003L30.120100000000093 25.88095999999996L29.488000000000056 26.82617999999991L29.619899999999916 27.617439999999988L28.381599999999935 28.62297000000001L28.127199999999903 29.374259999999936L28.139799999999923 30.22551999999996L28.63110000000006 30.887769999999932L28.495200000000068 32.57132999999999L27.974699999999984 34.073440000000005L28.752700000000004 33.11001999999996L29.165700000000015 33.21184999999991L31.964699999999993 35.79604999999992L31.594900000000052 36.984129999999936L31.938300000000027 36.82490999999993L32.96270000000004 37.2901599999999L33.26279999999997 38.01037999999994L32.41039999999998 38.69713999999999L33.16470000000004 40.03535999999997L33.48980000000006 40.38531999999998L33.91370000000006 41.47380999999996L33.189800000000105 41.81167999999991L32.8617999999999 42.50229999999999L33.35439999999994 43.5868099999999L31.65319999999997 44.43265999999994L30.607400000000098 43.70195000000001z">
      <title id="t187">Huitième circonscription de l'Isère</title>
      <desc id="d187">Cantons de : Heyrieux, Vienne Nord, Vienne Sud, Communes de : Assieu, Auberives-sur-Varèze, Cheyssieu, Clonas-sur-Varèze, Saint-Alban-du-Rhône, Saint-Clair-du-Rhône, Saint-Maurice-l'Exil, Saint-Prim, Vernioz</desc>
    </path><path class="circo" id="id-038-09" d="M47.82670000000007 100.28994L47.67419999999993 99.63074999999992L46.621599999999944 99.26612L46.46980000000008 99.62268999999992L45.35220000000004 99.75180999999998L45.18229999999994 100.10017999999991L44.69520000000011 100.40051999999991L44.47199999999998 100.19571999999994L44.37290000000007 99.80800999999997L42.789400000000114 99.64663999999993L42.61740000000009 98.89483999999993L41.53060000000005 98.39017999999999L41.1706999999999 97.66219999999998L40.888099999999895 97.33767L39.97679999999991 96.99637999999993L37.184999999999945 96.85118999999997L36.36349999999993 98.67169999999999L35.6579999999999 99.06416999999999L34.25819999999999 97.77474999999993L33.5920000000001 98.19687999999996L33.26970000000006 97.96794L33.64470000000006 97.32441999999992L35.099699999999984 96.99108000000001L35.67959999999994 95.10799999999995L36.62869999999998 94.28271999999993L37.7192 92.49453999999992L37.836900000000014 91.52014999999994L37.95399999999995 89.98541L37.46749999999997 88.91568999999993L38.045900000000074 88.38342999999998L37.92900000000009 87.21291999999994L37.85200000000009 86.39524999999992L36.775100000000066 85.12491999999997L36.26440000000002 83.53771999999992L35.90789999999993 82.83362L36.0637999999999 81.64357999999993L36.9704999999999 80.85565999999994L38.97929999999997 80.7669699999999L39.39499999999998 81.90575999999999L40.197400000000016 81.79463999999996L41.1724999999999 81.01675L42.714300000000094 81.58119999999997L42.89889999999991 82.32873999999993L43.6386 81.34362999999996L45.1853000000001 80.74789999999996L45.471000000000004 80.90947999999992L45.97260000000006 79.4813499999999L47.87850000000003 79.04007999999999L47.89210000000003 78.94266999999991L48.26980000000003 76.95285000000001L48.78620000000001 76.34587999999997L50.10500000000002 73.45722L51.789999999999964 72.74228999999991L51.887500000000045 72.59827999999993L53.040300000000116 72.50005999999996L53.58629999999994 72.3793599999999L53.92509999999993 72.15233999999998L56.89519999999993 73.32783999999992L57.418300000000045 72.35894999999994L58.559299999999894 72.47250999999994L59.28500000000008 70.88939999999991L59.133600000000115 70.73120999999992L57.56790000000001 70.65784999999994L56.82359999999994 69.73028L56.98659999999995 68.94146999999998L56.70790000000011 68.18581999999992L56.429800000000114 67.58375000000001L56.09539999999993 67.58543999999995L57.12920000000008 62.69452000000001L59.55320000000006 62.75198999999998L59.60570000000007 62.67178000000001L59.87339999999995 62.480729999999994L62.33120000000008 60.48732999999993L63.22929999999997 62.61865999999998L63.963199999999915 62.42712999999992L63.709499999999935 61.65163999999993L64.2944 61.090259999999944L64.67779999999993 59.96192999999994L66.64730000000009 59.61707999999999L67.21080000000006 59.05615L67.3085000000001 58.92298999999991L67.36969999999997 56.91134999999997L66.51199999999994 56.121189999999956L67.2958000000001 55.280059999999935L67.37519999999995 54.461959999999976L68.05130000000008 54.068989999999985L69.12599999999998 54.47492999999997L70.57780000000002 53.649099999999976L72.34320000000002 56.313139999999976L73.54210000000012 56.10071999999991L74.42810000000009 56.865459999999985L75.29909999999995 56.04573999999991L76.00810000000001 56.373809999999935L79.32189999999991 55.238509999999906L79.7989 58.752539999999954L79.35670000000005 59.42122999999992L78.44880000000012 61.23547999999994L78.46180000000004 63.23955999999998L78.28970000000004 64.02611999999999L79.32439999999997 65.19889999999998L80.12660000000005 65.08242999999993L82.60899999999992 66.45443L82.00350000000003 69.33213999999998L82.18250000000012 69.7150499999999L81.23739999999998 70.8236599999999L81.06860000000006 70.71440999999993L79.67959999999994 72.6363399999999L78.72499999999991 73.34294L78.47520000000009 74.51303999999993L77.67630000000008 75.79161999999997L76.2147 76.27656999999999L76.07600000000002 76.21100000000001L74.62380000000007 74.28886999999997L74.16620000000012 71.49613L73.15069999999992 70.86473999999998L72.46420000000012 72.30940999999996L72.6253999999999 72.98632999999995L70.54340000000002 75.40229L70.4652000000001 77.00428L70.89830000000006 77.68954999999994L70.23710000000005 78.18993L68.1545000000001 78.60940999999991L67.44160000000011 80.12171000000001L66.74330000000009 83.42746999999997L65.0275999999999 87.22593999999992L65.01459999999997 87.29609999999991L63.849300000000085 89.99745999999993L63.75739999999996 94.97781999999995L65.0311999999999 98.52028999999993L63.840999999999894 98.32952L63.17730000000006 97.23280999999997L62.10030000000006 96.55791999999997L61.26999999999998 96.4927899999999L60.72070000000008 97.12639999999999L59.89830000000006 98.3152L58.89210000000003 100.11064999999996L57.77839999999992 100.56512999999995L56.87940000000003 101.42297999999994L55.661800000000085 101.53967L54.594499999999925 100.32592L54.54320000000007 101.06239999999991L55.60200000000009 102.3408599999999L54.48219999999992 102.62426999999991L53.2668000000001 101.66539L51.78269999999998 101.30338999999992L51.107099999999946 100.99381999999991L50.78379999999993 99.5068L50.16879999999992 99.73568999999998L49.1255000000001 100.31508999999994L49.07490000000007 100.71359999999993L47.82670000000007 100.28994z">
      <title id="t188">Neuvième circonscription de l'Isère</title>
      <desc id="d188">Cantons de : Pont-en-Royans, Rives, Saint-Marcellin, Tullins, Vinay, Voiron</desc>
    </path><path class="circo" id="id-038-10" d="M45.5646999999999 46.31698999999992L46.01469999999995 45.62856999999997L45.949299999999994 44.043229999999994L46.65110000000004 43.622119999999995L45.462600000000066 43.09141999999997L44.82590000000005 42.3461299999999L45.274900000000116 41.69650999999999L44.63300000000004 40.213919999999916L44.64020000000005 40.15407999999991L42.61570000000006 40.28735999999992L42.32069999999999 40.00767999999994L41.77299999999991 41.069169999999986L40.069999999999936 42.22804999999994L39.27109999999993 42.07988L39.330400000000054 41.28022999999996L38.66820000000007 40.83418999999992L37.85370000000012 40.77203999999995L36.663099999999986 40.752129999999966L36.714500000000044 40.353399999999965L35.968599999999924 40.40497999999991L35.321899999999914 40.0231L34.65090000000009 40.40825999999993L33.48980000000006 40.38531999999998L33.16470000000004 40.03535999999997L32.41039999999998 38.69713999999999L33.26279999999997 38.01037999999994L32.96270000000004 37.2901599999999L31.938300000000027 36.82490999999993L31.594900000000052 36.984129999999936L31.964699999999993 35.79604999999992L29.165700000000015 33.21184999999991L28.752700000000004 33.11001999999996L27.974699999999984 34.073440000000005L28.495200000000068 32.57132999999999L28.63110000000006 30.887769999999932L28.139799999999923 30.22551999999996L28.127199999999903 29.374259999999936L28.381599999999935 28.62297000000001L29.619899999999916 27.617439999999988L29.488000000000056 26.82617999999991L30.120100000000093 25.88095999999996L29.41229999999996 25.056780000000003L30.934600000000046 23.716339999999946L30.69730000000004 22.489919999999984L33.000099999999975 21.66276999999991L33.74700000000007 22.00649999999996L34.497499999999945 21.73628999999994L34.92329999999993 22.315879999999993L34.318500000000085 24.71210999999994L34.0924 27.57450999999992L34.569099999999935 27.83511999999996L34.72880000000009 28.10349999999994L35.23109999999997 28.744929999999954L36.039999999999964 28.747359999999958L36.40300000000002 29.48246999999992L37.03150000000005 29.451709999999935L37.08510000000001 29.765249999999924L37.732099999999946 30.291409999999928L39.63000000000011 30.57439999999997L43.46759999999995 31.066460000000006L43.815700000000106 31.835219999999936L42.819099999999935 33.19264999999996L43.3592000000001 33.514099999999985L44.443700000000035 34.41323L45.01739999999995 35.750099999999975L47.20859999999993 35.70367999999996L47.76389999999992 37.04654999999991L48.72649999999999 38.09987000000001L50.63280000000009 37.9713999999999L51.814800000000105 36.20804999999996L55.16360000000009 36.76308999999992L55.893499999999904 34.98958999999991L55.70790000000011 34.23649L53.230999999999995 33.887789999999995L53.85429999999997 32.566709999999944L56.76970000000006 33.00794999999994L57.547000000000025 32.6726799999999L55.918899999999894 31.378960000000006L55.79019999999991 30.547169999999937L56.36159999999995 28.516459999999938L58.6083000000001 29.09814999999992L59.80250000000001 29.528419999999983L59.78559999999993 29.933149999999955L58.955799999999954 30.650009999999952L59.1726000000001 32.222549999999956L61.12130000000002 31.917499999999905L61.84780000000001 32.24248L62.64200000000005 32.07366999999999L63.68380000000002 30.285570000000007L64.20679999999993 29.901289999999904L66.04600000000005 32.31210999999996L68.71730000000002 33.03103999999996L70.05690000000004 32.09918999999991L71.45700000000011 32.939899999999966L72.16820000000007 33.28075000000001L73.5036 32.39316999999994L74.10210000000006 31.35415999999998L74.85320000000002 32.830049999999915L74.88210000000004 34.031889999999976L76.03539999999998 35.70240000000001L76.7358999999999 36.51496999999995L76.82200000000012 37.23344999999995L78.88210000000004 39.138829999999984L78.88760000000002 39.94625999999994L79.22530000000006 40.17762999999991L79.0009 40.882979999999975L79.67399999999998 41.190169999999966L79.72579999999994 41.559369999999944L79.06840000000011 41.30741999999998L78.89879999999994 42.134849999999915L79.39110000000005 42.82070999999996L80.57909999999993 43.1968599999999L80.5911000000001 43.93513999999993L80.96800000000007 44.158969999999954L81.42380000000003 44.43484000000001L82.52179999999998 46.88551999999993L81.19800000000009 48.471169999999915L80.14670000000001 48.49189999999999L78.90159999999992 49.12135999999998L78.55079999999998 47.6434099999999L76.82200000000012 46.885889999999904L76.22039999999993 45.98273999999992L75.27649999999994 45.774119999999925L74.99500000000012 44.31012999999996L73.33439999999996 42.732129999999984L72.69689999999991 42.60277999999994L72.5972999999999 42.91437999999994L70.3882000000001 42.62644L69.12249999999995 42.95138999999995L67.5915 42.78381999999999L67.57809999999995 43.16712999999993L66.7186999999999 42.376339999999914L65.54359999999997 42.010709999999904L65.02109999999993 41.37405000000001L64.93280000000004 42.16834999999992L63.71810000000005 43.71480999999994L63.696699999999964 43.70317L62.52759999999989 43.80835999999999L61.65139999999997 44.58963999999992L59.71060000000011 44.43932999999993L57.93859999999995 44.35829000000001L57.52759999999989 45.5083699999999L56.293100000000095 46.64080000000001L55.97280000000001 45.85525999999993L53.40319999999997 44.41566999999998L52.200199999999995 45.12810999999999L50.11689999999999 47.52105999999992L49.70679999999993 46.768249999999966L48.66090000000008 46.045799999999986L47.980800000000045 46.51308999999992L45.5646999999999 46.31698999999992z">
      <title id="t189">Dixième circonscription de l'Isère</title>
      <desc id="d189">Cantons de : Bourgoin-Jallieu Sud, L'Isle-d'Abeau, Le Pont-de-Beauvoisin, La Tour-du-Pin, La Verpillière</desc>
    </path></svg>