<svg xmlns="http://www.w3.org/2000/svg" version="1.1" xmlns:xlink="http://www.w3.org/1999/xlink" xmlns:svgjs="http://svgjs.dev/svgjs" viewBox="1103.2846 644.75936 81.13750000000005 129.74509"><path class="circo" id="039-01" d="M 1129.2172,690.41704 1127.5297,691.51079 1128.6547,692.72954 1129.1235,693.85454 1128.8109,694.16704 1127.5609,693.82329 1126.4359,694.26079 1124.3109,694.07329 1123.3735,693.16704 1122.6235,693.29204 1123.0297,694.47954 1121.7797,694.41704 1121.0922,693.97954 1119.9672,695.10454 1120.0297,695.69829 1118.6859,695.85454 1117.9672,695.54204 1117.2172,695.85454 1116.5922,696.85454 1116.1859,696.72954 1115.9047,697.57329 1116.2172,699.29204 1117.1547,700.19829 1117.9985,700.41704 1118.4985,700.35454 1119.4672,701.10454 1119.3422,700.51079 1119.7172,700.47954 1120.9047,701.01079 1120.7797,702.26079 1121.3109,702.88579 1120.9047,704.04204 1121.2485,704.32329 1117.2797,704.54204 1116.7172,703.82329 1114.3422,704.41704 1113.7485,704.51079 1111.7172,705.88579 1111.1859,705.26079 1110.4047,705.29204 1109.7797,706.26079 1110.1235,708.16704 1110.9047,709.01079 1112.0297,708.97954 1113.3735,709.91704 1113.6235,710.72954 1114.4672,710.91704 1115.0297,711.51079 1114.5609,712.63579 1113.4359,713.88579 1113.0297,713.79204 1112.6235,716.16704 1115.3109,716.72954 1115.0922,717.01079 1115.4985,718.35454 1115.4985,719.10454 1116.4359,719.79204 1116.5609,720.47954 1115.4672,722.13579 1117.7485,723.60454 1117.9672,725.07329 1118.1547,725.19829 1117.1235,725.94829 1119.3109,727.97954 1118.7172,729.22954 1117.0297,730.85454 1115.7485,731.07329 1116.8735,732.85454 1116.3422,734.91704 1113.7797,735.10454 1112.6547,735.47954 1113.1235,736.76079 1112.2485,737.54204 1112.6859,738.63579 1112.4672,742.01079 1112.4047,742.10454 1112.4047,742.54204 1114.8109,743.32329 1115.2485,744.01079 1116.5297,744.94829 1117.6547,744.94829 1117.5297,747.32329 1117.5609,747.47954 1117.0297,748.47954 1115.6859,749.13579 1114.6235,748.66704 1113.8422,749.57329 1113.6235,749.88579 1109.3422,749.63579 1109.3422,750.38579 1109.2172,750.76079 1108.4985,750.88579 1108.2485,751.57329 1109.2172,753.79204 1108.1859,754.44829 1108.0297,755.22954 1108.4047,755.38579 1107.2485,755.44829 1107.3422,755.85454 1108.1235,756.10454 1110.2485,757.38579 1111.4359,757.41704 1113.0609,758.76079 1113.9672,759.54204 1112.9047,760.66704 1112.7485,761.04204 1113.7797,761.69829 1113.8109,762.47954 1113.5922,763.22954 1114.4359,764.13579 1115.9359,764.82329 1115.9985,765.63579 1116.2172,767.72954 1116.2172,767.85454 1116.7172,768.54204 1117.3109,764.38579 1117.8735,763.79204 1119.0297,767.82329 1120.4985,767.44829 1121.4047,766.76079 1122.2485,767.79204 1121.5297,770.51079 1120.8735,770.82329 1120.7485,772.51079 1121.9359,773.69829 1122.2797,773.94829 1124.3422,773.57329 1124.5922,773.32329 1125.3422,774.04204 1127.7172,773.47954 1129.5922,771.32329 1129.8735,770.57329 1131.7797,770.60454 1132.6859,769.91704 1133.2485,768.51079 1133.3422,767.97954 1133.9359,766.41704 1135.5609,765.88579 1136.0609,765.19829 1135.2797,764.88579 1135.7485,763.32329 1136.0609,762.35454 1136.4047,761.44829 1136.9672,759.44829 1138.8735,757.19829 1139.2485,756.01079 1137.8735,755.26079 1139.7485,754.35454 1139.7485,753.66704 1141.1859,752.41704 1141.1547,751.66704 1141.1547,750.51079 1140.5297,750.13579 1139.2797,749.16704 1139.2485,747.47954 1140.1547,746.66704 1139.9047,745.88579 1139.2485,745.35454 1139.0609,745.44829 1139.3422,744.29204 1139.1235,743.47954 1139.4985,742.72954 1141.4985,742.19829 1140.9359,741.51079 1139.8109,741.22954 1139.3735,740.01079 1136.8422,739.04204 1136.6547,738.76079 1136.7485,736.41704 1137.2172,736.26079 1137.7485,733.82329 1138.0609,732.54204 1138.6859,731.51079 1138.4985,730.72954 1139.3109,730.79204 1141.9047,731.97954 1141.8422,730.72954 1143.1547,728.57329 1142.9672,728.16704 1143.4672,728.07329 1143.6859,727.79204 1144.1859,726.88579 1145.7485,726.41704 1146.1235,725.72954 1145.7172,725.60454 1144.9672,723.16704 1147.1859,721.91704 1147.1859,721.13579 1146.8109,720.94829 1147.7172,718.13579 1147.3735,718.26079 1146.1235,717.38579 1148.2797,714.51079 1148.7172,713.69829 1148.8735,713.16704 1150.8109,710.76079 1151.4985,708.57329 1151.1235,706.97954 1150.9359,706.16704 1151.9359,705.47954 1153.1859,705.35454 1153.8422,706.41704 1154.5297,704.88579 1153.7172,703.47954 1153.3422,703.69829 1151.3422,703.07329 1150.7485,702.41704 1149.6235,703.51079 1146.1859,700.69829 1145.0297,699.76079 1145.1235,699.04204 1144.4985,698.54204 1144.0922,697.35454 1143.3735,697.13579 1142.2485,696.04204 1143.2485,694.82329 1142.5297,694.47954 1142.3109,694.76079 1142.0297,694.51079 1141.2172,693.66704 1140.1235,694.76079 1137.9672,694.54204 1137.8735,694.47954 1138.4359,692.88579 1137.9985,692.72954 1137.2485,693.07329 1136.4359,692.91704 1134.7485,691.76079 1133.5922,691.22954 1133.5922,691.10454 1133.2797,691.07329 1132.5297,690.60454 1131.2797,690.91704 1129.9985,690.51079 1129.2172,690.41704 z M 1119.4047,701.41704 1119.3422,701.44829 1119.2797,701.57329 1119.2485,701.79204 1119.3422,701.85454 1119.4359,701.85454 1119.3422,702.13579 1119.4047,702.19829 1119.5297,702.16704 1119.6235,702.22954 1119.6547,702.19829 1119.7797,702.22954 1119.8422,702.16704 1119.9359,702.19829 1119.9672,702.10454 1119.9359,702.07329 1119.9985,701.91704 1119.9047,701.91704 1119.8109,701.85454 1119.7797,701.72954 1119.4985,701.66704 1119.5609,701.54204 1119.4359,701.51079 1119.4359,701.41704 1119.4047,701.41704 z">
      <title id="t190">Première circonscription du Jura</title>
      <desc id="d190">Cantons de : Arinthod, Beaufort, Bletterans, Chaumergy, Conliège, Lons-le-Saunier Nord, Lons-le-Saunier Sud, Orgelet, Poligny, Saint-Amour, Saint-Julien, Sellières, Voiteur</desc>
    </path><path class="circo" id="039-02" d="M 1157.9058,771.3168 1156.726,773.13198 1155.7433,773.97686 1155.36,773.25052 1154.1684,774.38052 1152.0946,774.37879 1151.4161,774.23703 1146.976,773.56544 1144.2245,774.12625 1143.5025,774.50445 1142.7187,772.08418 1142.9752,770.37292 1142.5991,768.6771 1140.0515,768.32467 1139.9439,767.71673 1138.6828,766.72902 1136.7111,766.61923 1137.0947,765.46196 1136.7797,764.4009 1136.0458,765.18495 1135.277,764.89747 1135.7538,763.32576 1136.0654,762.34085 1136.3909,761.43402 1136.9568,759.43505 1138.8812,757.20486 1139.2581,756.00713 1137.8876,755.27417 1139.7532,754.36873 1139.7617,753.66124 1141.2004,752.42908 1141.1699,751.6634 1141.1478,750.52219 1140.5374,750.12549 1139.2823,749.16099 1139.26,747.49104 1140.1649,746.66554 1139.9058,745.87353 1139.2431,745.36814 1139.0571,745.45532 1139.34,744.30453 1139.128,743.48716 1139.4843,742.72701 1141.4909,742.18346 1140.9387,741.52114 1139.8019,741.24401 1139.387,740.02428 1136.8266,739.03014 1136.6498,738.77256 1136.7431,736.41111 1137.2153,736.26991 1137.7397,733.81407 1138.0656,732.54672 1138.6882,731.51225 1138.4854,730.73502 1139.3009,730.77722 1141.9165,731.96473 1141.8455,730.72487 1143.1524,728.56088 1142.9733,728.17651 1143.4658,728.08094 1143.6889,727.8009 1144.1852,726.88555 1145.7593,726.42282 1146.1353,725.71634 1145.7235,725.59695 1144.974,723.18266 1147.181,721.92371 1147.1963,721.13818 1146.8102,720.94262 1147.7273,718.14715 1147.3608,718.24932 1146.1141,717.37334 1148.293,714.50344 1148.7174,713.71257 1148.8745,713.17709 1150.8134,710.75943 1151.5133,708.57445 1151.1364,706.97234 1150.9204,706.17798 1151.9442,705.49395 1153.1909,705.35631 1153.8365,706.42265 1154.5251,704.89656 1153.7061,703.46877 1154.2234,702.36679 1155.7612,702.34541 1156.1124,702.16894 1156.0124,701.78689 1156.8943,701.51333 1157.042,701.8995 1159.0345,702.41737 1158.6966,700.7039 1160.6062,697.79263 1161.3402,697.75719 1161.847,697.16545 1162.1315,697.89547 1162.3677,698.60117 1163.5402,698.96562 1163.7677,699.68886 1166.5821,700.0341 1169.3115,700.37498 1168.9606,700.85095 1168.8374,701.24038 1170.7627,701.80516 1170.8659,702.20001 1172.2167,700.63864 1172.9851,700.80633 1173.9835,701.48947 1174.39,702.57259 1174.7915,702.61186 1175.5927,702.30303 1175.8352,702.24201 1176.4952,703.36999 1179.8035,705.44401 1179.5137,705.88348 1179.9239,705.97937 1180.7812,707.39147 1182.4046,708.57705 1183.4938,710.35628 1184.1463,711.26085 1184.4221,712.04816 1182.4742,713.50091 1182.18,715.13681 1180.8177,716.01965 1180.0595,716.36802 1178.5493,717.31667 1178.0071,717.84252 1177.966,717.86881 1176.4646,719.31521 1175.6688,719.81761 1174.1837,720.75771 1172.9158,721.81578 1175.6405,726.16116 1175.2947,727.29452 1173.8106,728.13652 1171.8909,729.58306 1172.1645,730.98994 1171.4326,731.06072 1170.9911,731.70255 1174.265,734.81652 1178.006,738.3994 1178.6023,737.89407 1180.0795,739.39004 1179.3285,741.27415 1178.5232,741.34668 1177.1336,742.92564 1175.1349,747.18441 1173.1346,749.41163 1173.2268,750.66174 1174.1939,752.03472 1172.3036,755.35493 1172.0118,755.19686 1171.3515,755.94894 1169.4995,758.82187 1168.0004,760.31332 1165.5126,761.9568 1164.7495,763.47945 1161.8927,768.53018 1160.5647,767.97616 1159.9719,768.52624 1159.7159,770.5545 1159.1444,771.64509 1157.9058,771.3168 z">
      <title id="t191">Deuxième circonscription du Jura</title>
      <desc id="d191">Cantons de : Les Bouchoux, Champagnole, Clairvaux-les-Lacs, Moirans-en-Montagne, Morez, Nozeroy, Les Planches-en-Montagne, Saint-Claude, Saint-Laurent-en-Grandvaux</desc>
    </path><path class="circo" id="039-03" d="M 1137.9584,694.55225 1137.884,694.47125 1138.4258,692.87982 1137.996,692.73296 1137.2472,693.06537 1136.4344,692.90458 1134.7467,691.76164 1133.6006,691.23124 1133.5776,691.11273 1133.2671,691.07103 1132.5309,690.61166 1131.2645,690.91206 1130.0106,690.52227 1129.216,690.4055 1127.5449,691.51319 1128.6458,692.73508 1129.1299,693.86951 1128.8176,694.16653 1127.5757,693.83156 1126.4337,694.25214 1124.3099,694.06562 1123.3782,693.17066 1122.6187,693.30257 1123.0295,694.49016 1121.7859,694.41849 1121.0777,693.98163 1119.974,695.09594 1120.0388,695.70877 1118.6939,695.85195 1117.9647,695.55264 1117.2169,695.86352 1116.5766,696.86023 1116.1881,696.74419 1115.1476,696.17798 1114.3994,696.46793 1113.9728,696.68585 1112.4899,697.38844 1111.6767,696.41967 1110.8695,696.67229 1110.3805,697.3479 1109.8022,696.76944 1109.6209,695.56633 1108.387,693.98449 1108.2137,692.79693 1107.9873,690.90335 1106.7071,690.37474 1105.9208,690.54468 1104.8891,691.78641 1104.1322,692.03262 1104.2061,690.77661 1103.2846,689.92491 1103.4691,689.53208 1103.9011,689.55673 1104.2274,688.77885 1103.556,685.49471 1104.9781,684.31673 1105.242,683.23451 1105.5884,683.09405 1107.206,682.76837 1107.7029,681.69499 1108.9115,681.43519 1108.823,681.01817 1105.2638,679.63065 1105.2546,679.60235 1105.9572,677.21303 1107.282,675.67611 1107.5222,675.39324 1108.249,675.44253 1109.399,673.78477 1110.1265,673.43529 1111.253,673.4283 1112.451,672.86823 1112.7455,673.21661 1113.9596,673.09466 1114.6412,672.79158 1115.1253,671.79201 1115.6752,671.18123 1115.9113,669.56873 1116.7448,668.78538 1116.891,668.03267 1116.6341,667.37432 1117.0995,666.42079 1118.3194,665.89561 1119.1751,665.1432 1119.1167,664.01448 1119.9959,663.05884 1120.3044,662.23296 1120.8693,660.27388 1120.328,658.78795 1119.8044,658.28382 1120.0487,657.61186 1121.2256,657.19447 1122.169,656.37763 1122.5881,655.6976 1122.2628,654.09661 1122.6709,653.37766 1123.03,653.25147 1122.9278,650.45224 1123.304,649.68229 1123.3419,647.97623 1123.389,647.3694 1123.38,646.97743 1123.7705,646.97292 1124.8176,647.48806 1125.9374,644.96695 1126.258,644.75936 1127.1869,647.18018 1129.1045,648.1123 1129.0536,649.37564 1130.2146,649.30173 1130.6057,650.31422 1130.8415,651.3665 1131.484,651.11114 1132.9735,650.47779 1133.7808,650.6207 1134.8441,651.25166 1136.4578,650.98077 1136.8369,650.64162 1137.3979,649.87632 1138.2458,649.74705 1139.3768,648.53403 1140.0075,649.0453 1140.6538,648.96349 1141.2537,649.87657 1142.9725,652.82366 1142.9251,653.25284 1142.5544,653.50724 1143.2112,654.45011 1143.123,655.18334 1143.1007,655.50611 1143.6579,655.80835 1144.6189,657.0716 1144.5637,657.85295 1146.0961,657.34074 1146.3744,657.64127 1146.2234,658.42706 1146.5798,658.74155 1148.1115,658.9183 1148.604,659.44953 1148.5957,661.6957 1149.2814,661.19503 1150.837,661.88463 1151.0237,664.27996 1152.2486,665.36864 1151.2731,666.16676 1150.2655,668.50434 1149.0292,670.22686 1148.8042,671.01416 1147.9966,670.82587 1147.2263,671.75705 1148.044,673.6627 1148.5632,676.14088 1146.6997,677.23835 1145.4249,676.07326 1144.6184,676.22722 1144.7302,677.04362 1145.6913,677.9178 1145.5902,678.7648 1144.903,679.26889 1145.5708,680.83901 1146.8377,681.43258 1147.3059,680.7864 1149.1709,680.16597 1149.7956,679.02658 1149.6171,677.74043 1149.8913,677.40064 1150.7246,677.15165 1151.1305,677.26729 1151.3264,678.0913 1151.2244,680.17171 1151.3048,680.90359 1152.4663,681.39343 1153.2155,681.07452 1153.3182,681.92736 1153.8917,681.92 1153.8526,682.60247 1154.8197,681.95478 1156.7957,682.35367 1157.0434,683.17792 1157.8291,683.42245 1159.0163,683.03833 1159.8367,681.18872 1160.1941,681.18286 1159.7277,682.41338 1159.6379,684.58165 1160.469,685.34769 1161.6674,685.01863 1162.197,684.37829 1162.2745,685.06486 1162.9132,685.34358 1164.1929,685.44562 1164.2204,685.87445 1164.2104,685.96378 1164.7533,686.31434 1164.7095,687.00295 1165.1448,687.53892 1163.1688,689.40445 1163.9289,689.53519 1166.6266,691.2717 1165.4922,692.83004 1165.3284,694.41936 1166.809,695.83976 1167.5797,695.99251 1167.703,698.77625 1168.4159,699.20472 1169.4256,698.61833 1169.6055,698.99496 1169.3115,700.37498 1166.5821,700.0341 1163.7677,699.68886 1163.5402,698.96562 1162.3677,698.60117 1162.1315,697.89547 1161.847,697.16545 1161.3402,697.75719 1160.6062,697.79263 1158.6966,700.7039 1159.0345,702.41737 1157.042,701.8995 1156.8943,701.51333 1156.0124,701.78689 1156.1124,702.16894 1155.7612,702.34541 1154.2234,702.36679 1153.7061,703.46877 1153.3397,703.69616 1151.3369,703.05996 1150.7624,702.42582 1149.6378,703.51649 1146.1855,700.68501 1145.0209,699.755 1145.1254,699.02729 1144.5138,698.53552 1144.1028,697.36942 1143.3589,697.14194 1142.2461,696.04128 1143.2613,694.81427 1142.5357,694.46752 1142.3134,694.76363 1142.0299,694.52525 1141.2293,693.65586 1140.1171,694.75107 1137.9584,694.55225 z">
      <title id="t192">Troisième circonscription du Jura</title>
      <desc id="d192">Cantons de : Arbois, Chaussin, Chemin, Dampierre, Dole Nord-Est, Dole Sud-Ouest, Gendrey, Montbarrey, Montmirey-le-Château, Rochefort-sur-Nenon, Salins-les-Bains, Villers-Farlay</desc>
    </path></svg>