<svg xmlns="http://www.w3.org/2000/svg" version="1.1" xmlns:xlink="http://www.w3.org/1999/xlink" xmlns:svgjs="http://svgjs.dev/svgjs" viewBox="0 0 141.23970000000008 123.34611000000007"><path class="circo" id="id-040-01" d="M27.09050000000002 83.23980999999992L26.400800000000004 83.62290999999993L26.21390000000008 84.42380999999989L23.339200000000005 85.83991000000003L23.11740000000009 87.36110999999994L21.754400000000032 86.79400999999996L22.167100000000005 86.81930999999997L22.319799999999987 86.43421000000001L22.04200000000003 85.67560999999989L20.060300000000097 85.14120999999989L17.984500000000025 83.7779099999999L17.321500000000015 83.49461000000008L17.4987000000001 82.76811000000009L16.556100000000015 81.49651000000006L16.04849999999999 79.97880999999995L15.060699999999997 75.27291000000002L14.295100000000048 76.24450999999988L12.250300000000038 76.48890999999992L12.001800000000003 76.82161000000008L14.741200000000049 63.01211000000001L16.911300000000097 52.585809999999924L17.72180000000003 47.93131000000005L20.211700000000064 31.109010000000012L20.809200000000033 26.71650999999997L21.260200000000054 23.368510000000015L23.033600000000092 7.697679999999991L27.62990000000002 6.269289999999955L35.5209000000001 3.523649999999975L37.37560000000008 0L42.06299999999999 2.815560000000005L43.66780000000006 2.6012499999999363L45.34340000000009 2.4279299999999466L45.72210000000007 3.167169999999942L46.227100000000064 5.650719999999978L45.2564000000001 8.429340000000025L43.95710000000008 11.399699999999939L42.136300000000006 13.04413999999997L47.04430000000002 12.273090000000025L48.96930000000009 11.510890000000018L51.48560000000009 10.586689999999976L52.36360000000002 11.45291999999995L57.81180000000006 13.52828999999997L60.7047 13.315489999999954L62.07860000000005 12.41034000000002L63.29150000000004 12.400099999999952L63.464200000000005 11.180659999999989L63.8189000000001 10.972669999999994L67.82330000000002 10.08744999999999L70.22080000000005 10.660859999999957L71.3365 10.600979999999936L71.83720000000005 10.008860000000027L71.57929999999999 9.705469999999991L72.08710000000008 9.056119999999964L72.49990000000003 9.03467999999998L75.25340000000006 9.930399999999963L76.23030000000006 10.644909999999982L76.29370000000006 12.261790000000019L76.42230000000006 14.764329999999973L75.09090000000003 15.717970000000037L78.35170000000005 16.823009999999954L81.12560000000008 17.85830999999996L82.01530000000002 18.763209999999958L84.72730000000001 19.949209999999994L85.61710000000005 22.98571000000004L88.86620000000005 24.65170999999998L92.90980000000002 24.950410000000034L93.09810000000004 27.448909999999955L95.42160000000001 29.154109999999946L97.02840000000003 29.257010000000037L95.92960000000005 35.05530999999996L96.49890000000005 38.37450999999999L97.91870000000006 38.66291000000001L103.21789999999999 39.13630999999998L106.35880000000009 40.20861000000002L107.1604000000001 40.00341000000003L110.6237000000001 38.799909999999954L110.2229000000001 33.036910000000034L110.40640000000008 31.813710000000015L112.06720000000007 31.882709999999975L113.0702 31.147809999999936L113.45030000000008 31.32380999999998L114.62580000000003 32.52090999999996L115.43510000000003 34.454110000000014L117.65840000000003 36.36671000000001L118.59730000000002 39.18921L118.63880000000006 45.13961000000006L119.86430000000007 45.257510000000025L120.55930000000001 44.83940999999993L122.15830000000005 44.71561000000008L124.52910000000008 45.327210000000036L129.29510000000005 45.434810000000084L129.31640000000004 45.437209999999936L131.788 46.805009999999925L132.55780000000004 47.71681000000001L141.1603 48.48160999999993L140.82990000000007 49.10050999999987L141.23970000000008 50.177409999999895L140.14870000000008 50.76850999999999L138.18730000000005 52.911809999999946L138.47260000000006 53.68661000000009L137.05220000000008 55.60920999999996L136.09640000000002 59.5397099999999L135.55040000000008 60.12531000000001L134.7364 60.232309999999984L134.90730000000008 61.036210000000096L134.96860000000004 63.03281000000004L136.08130000000006 65.16431L135.35800000000006 66.21571000000006L135.34900000000005 67.03291000000002L134.32850000000008 68.23551000000009L135.5629 70.80921000000001L135.99940000000004 73.24720999999988L135.48950000000002 74.34881000000007L134.59990000000005 75.17041000000006L133.12800000000004 74.56590999999992L132.4375 74.98170999999991L130.9724 73.52310999999997L127.88440000000003 71.52291000000002L130.08260000000007 69.65270999999996L130.0933 68.41890999999998L129.53560000000004 67.82541000000003L126.54280000000006 65.09370999999999L125.86099999999999 67.46471000000008L124.4031 68.08290999999997L123.21490000000006 69.71471000000008L122.82590000000005 69.84801000000004L121.75729999999999 69.3188100000001L121.2387 69.95710999999994L121.4987000000001 71.34911L120.89930000000004 71.7607099999999L118.9584000000001 69.84531000000004L118.13060000000007 70.69581000000005L116.97250000000008 70.34660999999994L116.23990000000003 71.26481000000001L115.49850000000004 71.53371000000004L114.5653000000001 70.76880999999992L112.56790000000001 73.25211000000002L111.7949000000001 73.59500999999989L111.9208000000001 71.62981000000002L111.5843000000001 70.90791000000002L110.89340000000004 70.51400999999998L110.67240000000004 68.96321L109.45030000000008 69.58020999999997L108.92840000000001 69.05191000000002L108.92010000000005 68.64071000000001L107.27830000000006 66.86200999999994L104.43880000000001 65.22060999999997L104.12490000000003 66.39041000000009L102.79110000000003 67.30181000000005L101.84410000000003 69.08521000000007L100.28570000000002 69.37460999999996L99.91420000000005 71.2906099999999L99.40320000000008 72.30750999999998L98.3343000000001 72.60721000000001L98.48040000000003 72.97610999999995L97.83519999999999 74.39080999999999L98.30150000000003 75.02220999999997L97.96190000000001 75.69980999999996L98.25080000000003 76.81670999999994L97.13690000000008 76.93571000000009L96.9751 77.28471000000002L98.74750000000006 78.04351000000008L97.67290000000003 81.28590999999994L97.27480000000003 81.30400999999995L96.85640000000001 80.20301000000006L96.25070000000005 79.6982099999999L94.75800000000004 80.93710999999996L93.02430000000004 80.18751000000009L91.93040000000008 79.90080999999998L90.84160000000008 84.94180999999992L89.58900000000006 85.89151000000004L88.47540000000004 86.84770999999989L86.45390000000009 88.58171000000004L86.0748000000001 88.47031000000004L85.95230000000004 87.68671000000006L85.55930000000001 87.64380999999992L84.49530000000004 86.56060999999988L83.77880000000005 86.40180999999995L83.45870000000002 84.96481000000006L82.7147 85.04610999999989L82.45310000000006 85.76670999999999L81.27170000000001 86.76780999999994L80.1468000000001 86.83690999999988L80.71820000000002 84.41401000000008L80.33690000000001 83.67350999999996L79.60250000000008 83.34071000000006L77.57810000000006 83.73600999999996L76.03330000000005 83.72221000000002L74.83460000000002 83.32451000000003L74.96050000000002 82.93430999999998L73.72040000000004 80.36200999999994L71.3546 79.91591000000005L71.55770000000007 77.91061000000002L72.78160000000003 76.8632100000001L73.40880000000004 74.05400999999995L72.8125 73.64370999999994L71.32670000000007 74.17671000000007L70.96160000000009 73.50181000000009L68.79320000000007 71.81040999999993L69.85620000000006 70.34050999999988L71.09680000000003 69.2154099999999L71.57159999999999 65.95561000000009L72.13890000000004 64.85721000000001L72.0358 62.84271000000001L71.27800000000002 60.9464099999999L69.55310000000009 58.060910000000035L66.49160000000006 57.535709999999995L67.08730000000003 56.02600999999993L66.7301 55.30120999999997L64.37260000000003 54.823209999999904L62.8261 52.93900999999994L59.54000000000008 53.39431000000002L58.34490000000005 52.82881000000009L57.81370000000004 53.97011000000009L57.4049 54.06161000000009L52.46640000000002 53.138610000000085L51.23610000000008 53.336509999999976L50.11930000000007 55.5833100000001L49.63900000000001 58.05651L47.81310000000008 57.644210000000044L48.54770000000008 55.723910000000046L49.20460000000003 55.26230999999996L50.56420000000003 51.38421000000005L49.247299999999996 49.80621000000008L38.09750000000008 47.17771000000005L36.73009999999999 52.0217100000001L35.13700000000006 53.97240999999997L34.908000000000015 54.75950999999998L35.4516000000001 55.385709999999904L37.058899999999994 55.73371000000009L37.32740000000001 56.05670999999995L37.90039999999999 57.63110999999992L37.739400000000046 58.87670999999989L38.02760000000001 59.66620999999998L37.756500000000074 60.89591000000007L37.07310000000007 61.06770999999992L35.21670000000006 63.197810000000004L34.057500000000005 63.41511000000003L32.511799999999994 64.68141000000003L31.519000000000005 66.4265099999999L30.375 66.3966099999999L30.01800000000003 67.99610999999993L32.51859999999999 70.73031000000003L35.24700000000007 72.13580999999988L36.26859999999999 71.82711000000006L37.30650000000003 72.46870999999999L38.9584000000001 72.46381000000008L42.9443 73.66041000000007L41.98880000000008 76.86730999999997L40.666000000000054 82.41681000000005L38.54410000000007 82.94581000000005L33.99430000000007 82.1955099999999L32.31280000000004 82.27850999999998L29.849800000000073 82.83361000000002L28.030000000000086 83.81600999999989L27.09050000000002 83.23980999999992z">
      <title id="t193">Première circonscription des Landes</title>
      <desc id="d193">Cantons de : Castets, Gabarret, Labrit, Mimizan, Mont-de-Marsan Nord, Mont-de-Marsan Sud, Parentis-en-Born, Pissos, Roquefort, Sabres, Sore</desc>
    </path><path class="circo" id="id-040-02" d="M38.54410000000007 82.94581000000005L33.99430000000007 82.1955099999999L32.31280000000004 82.27850999999998L29.849800000000073 82.83361000000002L28.030000000000086 83.81600999999989L27.09050000000002 83.23980999999992L26.400800000000004 83.62290999999993L26.21390000000008 84.42380999999989L23.339200000000005 85.83991000000003L23.11740000000009 87.36110999999994L21.754400000000032 86.79400999999996L22.167100000000005 86.81930999999997L22.319799999999987 86.43421000000001L22.04200000000003 85.67560999999989L20.060300000000097 85.14120999999989L17.984500000000025 83.7779099999999L17.321500000000015 83.49461000000008L17.4987000000001 82.76811000000009L16.556100000000015 81.49651000000006L16.04849999999999 79.97880999999995L15.060699999999997 75.27291000000002L14.295100000000048 76.24450999999988L12.250300000000038 76.48890999999992L12.001800000000003 76.82161000000008L11.42820000000006 80.11521000000005L10.62620000000004 82.48641000000009L9.611800000000017 87.01541000000009L9.375700000000052 88.51140999999996L8.267400000000066 93.66871000000003L7.168900000000008 100.47340999999994L6.7386000000000195 103.46751000000006L6.474199999999996 105.4274099999999L4.926199999999994 109.0815100000001L3.6011000000000877 111.87550999999996L2.6825000000000045 113.73841000000004L0 118.52800999999988L1.99350000000004 118.85091L3.8473000000000184 117.41681000000005L5.215000000000032 118.12411000000009L5.03550000000007 120.07290999999998L5.799600000000055 119.90380999999991L8.156900000000064 120.5723099999999L9.113000000000056 122.37180999999998L9.40560000000005 122.33641L13.19380000000001 122.59251000000006L16.145399999999995 121.64041000000009L16.199500000000057 121.66701L17.20920000000001 121.42961000000003L19.84680000000003 122.19851000000006L22.52690000000007 120.46571000000006L23.3193 120.03510999999992L26.118000000000052 118.42041000000006L27.28430000000003 117.28991000000008L27.987100000000055 116.60570999999993L27.588100000000054 115.95180999999991L26.25030000000004 115.09341000000006L26.195500000000038 114.69790999999998L26.55630000000008 114.53171000000009L28.088100000000054 114.45931000000007L28.1952 114.07510999999988L27.489000000000033 113.21321L27.509400000000028 113.07991000000004L27.68010000000004 112.38681000000008L26.848700000000008 111.67100999999991L25.743000000000052 110.83251000000007L24.7029 109.65210999999988L25.112600000000043 107.21900999999991L26.783000000000015 105.59701000000007L27.175500000000056 104.92401000000007L28.027400000000057 103.98191000000008L28.79060000000004 103.77291000000002L30.680400000000077 104.34361000000001L31.59800000000007 103.63881000000003L32.44040000000007 103.3487100000001L32.24980000000005 104.42061000000001L32.91560000000004 105.23330999999996L34.073800000000006 105.54181000000005L34.38850000000002 105.2871100000001L35.05910000000006 105.60770999999988L35.817800000000034 105.47481000000005L36.43820000000005 105.94951000000003L36.533000000000015 106.72221000000002L37.724300000000085 107.7426099999999L39.17360000000008 107.53111000000001L40.05150000000003 107.4636099999999L41.063800000000015 106.84971000000007L42.17420000000004 105.81711000000007L42.622400000000084 104.46910999999989L44.81410000000005 103.88630999999998L46.119500000000016 102.93501000000003L46.4135 101.37441000000001L47.825500000000034 102.01140999999996L48.58109999999999 101.71931000000006L48.13740000000007 99.70311000000004L48.55740000000003 99.25841000000003L47.317100000000096 97.74041L46.94530000000009 96.62020999999993L47.343000000000075 95.13771000000008L47.948900000000094 95.53320999999994L49.03489999999999 95.32911000000001L49.71379999999999 94.6040099999999L49.2487000000001 94.02530999999988L50.23030000000006 93.67080999999996L50.10970000000009 92.22131000000002L49.58210000000008 91.70381000000009L48.009000000000015 91.85811000000001L46.93540000000007 90.6748100000001L45.8343000000001 90.19491000000005L46.526500000000055 88.65781000000004L44.31020000000001 84.10950999999989L41.587600000000066 83.22420999999997L40.666000000000054 82.41681000000005L38.54410000000007 82.94581000000005z">
      <title id="t194">Deuxième circonscription des Landes</title>
      <desc id="d194">Cantons de : Dax Nord, Dax Sud, Saint-Martin-de-Seignanx, Saint-Vincent-de-Tyrosse, Soustons</desc>
    </path><path class="circo" id="id-040-03" d="M107.23090000000002 105.73410999999999L106.92430000000002 105.94360999999992L105.63710000000003 105.22291000000007L105.68799999999999 107.49371000000008L106.29650000000004 108.39781000000005L108.60430000000008 108.40771000000007L108.02610000000004 110.66750999999988L108.41070000000002 110.67280999999991L108.97550000000001 112.04351000000008L108.61590000000001 112.31290999999999L108.22540000000004 112.31641000000002L107.7912 111.6665099999999L105.53399999999999 112.13971000000004L105.20780000000002 113.26181000000008L104.60140000000001 114.04680999999994L104.01420000000007 113.64891L103.976 114.32240999999988L103.6078 115.0361099999999L101.0118 116.00350999999989L99.96540000000005 115.42370999999991L99.5607 114.76490999999999L96.54840000000002 114.01500999999996L95.55860000000007 114.59770999999989L95.10270000000003 114.0098099999999L92.41020000000003 115.81741L91.39060000000006 116.16300999999987L90.47990000000004 114.44520999999997L91.4344000000001 113.95321000000001L92.9203 112.21221000000003L92.09660000000008 111.04651000000001L91.43150000000003 110.71941000000004L90.3583000000001 111.73690999999997L90.07000000000005 111.50130999999999L86.46530000000007 113.89190999999994L86.49450000000002 113.98160999999993L86.03030000000001 114.64781000000005L84.95440000000008 115.2390099999999L82.63100000000009 116.95010999999988L82.25620000000004 116.99250999999992L81.86830000000009 115.8333100000001L81.41480000000001 115.18411000000003L78.61250000000007 117.47831000000008L77.39470000000006 117.58801000000005L77.34980000000007 116.76631000000009L75.957 116.09210999999993L75.7469000000001 115.66660999999988L74.97530000000006 115.78150999999991L73.69510000000002 115.00430999999992L75.12670000000003 113.23761000000002L73.39980000000003 113.94560999999987L71.06240000000003 115.33010999999999L70.07550000000003 114.73311000000001L69.46879999999999 115.22330999999997L69.41770000000008 117.16730999999993L68.31330000000003 117.15830999999991L67.68920000000003 116.7136099999999L67.21810000000005 115.47350999999992L64.1395 112.72600999999997L63.11970000000008 113.15971000000002L63.1662 114.28731000000005L62.11120000000005 114.51031L61.33050000000003 115.42180999999994L59.83460000000002 114.83621000000005L58.01850000000002 115.66530999999998L57.97620000000006 116.91930999999988L56.879600000000096 117.09770999999989L56.178300000000036 116.83200999999997L55.54040000000009 116.68170999999995L53.65140000000008 116.11570999999992L52.09610000000009 116.34300999999994L51.485000000000014 116.84460999999999L51.10200000000009 117.95180999999991L50.734500000000025 118.09570999999994L50.083900000000085 117.64771000000007L49.38830000000007 117.65190999999993L48.89600000000007 118.22910999999988L47.830400000000054 117.88020999999992L45.61790000000008 117.29711000000009L44.51710000000003 117.67620999999997L45.472900000000095 118.30480999999997L45.53780000000006 119.86341000000004L45.14440000000002 120.94980999999996L45.26240000000007 121.53721000000007L43.08480000000009 121.31030999999996L42.60200000000009 121.80911000000003L42.32710000000009 121.53590999999994L41.83710000000008 120.92020999999988L40.698800000000006 120.65460999999993L38.75 121.01911000000007L38.31200000000001 119.70391000000006L37.72260000000006 119.31410999999991L36.99940000000004 120.6158099999999L35.49160000000006 120.33110999999997L34.72670000000005 121.60770999999988L33.311300000000074 122.04390999999998L32.91650000000004 122.07960999999989L32.654300000000035 123.2219100000001L32.278999999999996 123.34611000000007L31.545400000000086 122.45381000000009L30.53219999999999 123.03210999999999L30.193200000000047 122.82621000000006L30.17840000000001 122.34670999999992L30.009400000000028 121.39380999999992L30.596300000000042 121.03011000000004L32.92420000000004 120.87871000000007L33.47760000000005 120.37441000000001L33.221700000000055 119.64431000000002L31.524700000000053 118.57091000000003L31.0557 117.47700999999995L29.80880000000002 116.61120999999991L27.987100000000055 116.60570999999993L27.588100000000054 115.95180999999991L26.25030000000004 115.09341000000006L26.195500000000038 114.69790999999998L26.55630000000008 114.53171000000009L28.088100000000054 114.45931000000007L28.1952 114.07510999999988L27.489000000000033 113.21321L27.509400000000028 113.07991000000004L27.68010000000004 112.38681000000008L26.848700000000008 111.67100999999991L25.743000000000052 110.83251000000007L24.7029 109.65210999999988L25.112600000000043 107.21900999999991L26.783000000000015 105.59701000000007L27.175500000000056 104.92401000000007L28.027400000000057 103.98191000000008L28.79060000000004 103.77291000000002L30.680400000000077 104.34361000000001L31.59800000000007 103.63881000000003L32.44040000000007 103.3487100000001L32.24980000000005 104.42061000000001L32.91560000000004 105.23330999999996L34.073800000000006 105.54181000000005L34.38850000000002 105.2871100000001L35.05910000000006 105.60770999999988L35.817800000000034 105.47481000000005L36.43820000000005 105.94951000000003L36.533000000000015 106.72221000000002L37.724300000000085 107.7426099999999L39.17360000000008 107.53111000000001L40.05150000000003 107.4636099999999L41.063800000000015 106.84971000000007L42.17420000000004 105.81711000000007L42.622400000000084 104.46910999999989L44.81410000000005 103.88630999999998L46.119500000000016 102.93501000000003L46.4135 101.37441000000001L47.825500000000034 102.01140999999996L48.58109999999999 101.71931000000006L48.13740000000007 99.70311000000004L48.55740000000003 99.25841000000003L47.317100000000096 97.74041L46.94530000000009 96.62020999999993L47.343000000000075 95.13771000000008L47.948900000000094 95.53320999999994L49.03489999999999 95.32911000000001L49.71379999999999 94.6040099999999L49.2487000000001 94.02530999999988L50.23030000000006 93.67080999999996L50.10970000000009 92.22131000000002L49.58210000000008 91.70381000000009L48.009000000000015 91.85811000000001L46.93540000000007 90.6748100000001L45.8343000000001 90.19491000000005L46.526500000000055 88.65781000000004L44.31020000000001 84.10950999999989L41.587600000000066 83.22420999999997L40.666000000000054 82.41681000000005L41.98880000000008 76.86730999999997L42.9443 73.66041000000007L38.9584000000001 72.46381000000008L37.30650000000003 72.46870999999999L36.26859999999999 71.82711000000006L35.24700000000007 72.13580999999988L32.51859999999999 70.73031000000003L30.01800000000003 67.99610999999993L30.375 66.3966099999999L31.519000000000005 66.4265099999999L32.511799999999994 64.68141000000003L34.057500000000005 63.41511000000003L35.21670000000006 63.197810000000004L37.07310000000007 61.06770999999992L37.756500000000074 60.89591000000007L38.02760000000001 59.66620999999998L37.739400000000046 58.87670999999989L37.90039999999999 57.63110999999992L37.32740000000001 56.05670999999995L37.058899999999994 55.73371000000009L35.4516000000001 55.385709999999904L34.908000000000015 54.75950999999998L35.13700000000006 53.97240999999997L36.73009999999999 52.0217100000001L38.09750000000008 47.17771000000005L49.247299999999996 49.80621000000008L50.56420000000003 51.38421000000005L49.20460000000003 55.26230999999996L48.54770000000008 55.723910000000046L47.81310000000008 57.644210000000044L49.63900000000001 58.05651L50.11930000000007 55.5833100000001L51.23610000000008 53.336509999999976L52.46640000000002 53.138610000000085L57.4049 54.06161000000009L57.81370000000004 53.97011000000009L58.34490000000005 52.82881000000009L59.54000000000008 53.39431000000002L62.8261 52.93900999999994L64.37260000000003 54.823209999999904L66.7301 55.30120999999997L67.08730000000003 56.02600999999993L66.49160000000006 57.535709999999995L69.55310000000009 58.060910000000035L71.27800000000002 60.9464099999999L72.0358 62.84271000000001L72.13890000000004 64.85721000000001L71.57159999999999 65.95561000000009L71.09680000000003 69.2154099999999L69.85620000000006 70.34050999999988L68.79320000000007 71.81040999999993L70.96160000000009 73.50181000000009L71.32670000000007 74.17671000000007L72.8125 73.64370999999994L73.40880000000004 74.05400999999995L72.78160000000003 76.8632100000001L71.55770000000007 77.91061000000002L71.3546 79.91591000000005L73.72040000000004 80.36200999999994L74.96050000000002 82.93430999999998L74.83460000000002 83.32451000000003L76.03330000000005 83.72221000000002L77.57810000000006 83.73600999999996L79.60250000000008 83.34071000000006L80.33690000000001 83.67350999999996L80.71820000000002 84.41401000000008L80.1468000000001 86.83690999999988L81.27170000000001 86.76780999999994L82.45310000000006 85.76670999999999L82.7147 85.04610999999989L83.45870000000002 84.96481000000006L83.77880000000005 86.40180999999995L84.49530000000004 86.56060999999988L85.55930000000001 87.64380999999992L85.95230000000004 87.68671000000006L86.0748000000001 88.47031000000004L86.45390000000009 88.58171000000004L88.47540000000004 86.84770999999989L89.58900000000006 85.89151000000004L90.84160000000008 84.94180999999992L91.93040000000008 79.90080999999998L93.02430000000004 80.18751000000009L94.75800000000004 80.93710999999996L96.25070000000005 79.6982099999999L96.85640000000001 80.20301000000006L97.27480000000003 81.30400999999995L97.67290000000003 81.28590999999994L98.74750000000006 78.04351000000008L96.9751 77.28471000000002L97.13690000000008 76.93571000000009L98.25080000000003 76.81670999999994L97.96190000000001 75.69980999999996L98.30150000000003 75.02220999999997L97.83519999999999 74.39080999999999L98.48040000000003 72.97610999999995L98.3343000000001 72.60721000000001L99.40320000000008 72.30750999999998L99.91420000000005 71.2906099999999L100.28570000000002 69.37460999999996L101.84410000000003 69.08521000000007L102.79110000000003 67.30181000000005L104.12490000000003 66.39041000000009L104.43880000000001 65.22060999999997L107.27830000000006 66.86200999999994L108.92010000000005 68.64071000000001L108.92840000000001 69.05191000000002L109.45030000000008 69.58020999999997L110.67240000000004 68.96321L110.89340000000004 70.51400999999998L111.5843000000001 70.90791000000002L111.9208000000001 71.62981000000002L111.7949000000001 73.59500999999989L111.18119999999999 74.07801000000006L110.61210000000005 73.57210999999995L110.24110000000007 73.69470999999987L109.82850000000008 74.7924099999999L109.19479999999999 75.22111000000007L109.88240000000008 76.03751L110.6146 75.87251000000003L111.2894 76.24540999999988L111.81720000000007 76.70501000000002L112.51210000000003 76.6937099999999L113.12710000000004 77.13930999999991L113.83040000000005 78.88441L113.55900000000008 79.05880999999988L112.98880000000008 78.72090999999989L112.25819999999999 79.65010999999993L111.8596 79.97111000000007L113.17610000000002 82.05230999999992L113.4801 82.79670999999996L112.9276000000001 83.3359099999999L113.0666 85.68151L111.543 85.67360999999994L111.25670000000002 85.28960999999993L110.32550000000003 85.86351000000002L111.0317 87.16781000000003L110.73590000000002 88.2861099999999L111.35640000000001 88.81210999999996L111.28380000000004 90.01520999999991L111.95510000000002 91.51541000000009L111.83480000000009 91.90930999999989L111.43240000000003 91.98610999999994L111.01330000000007 92.61370999999997L112.89920000000006 93.02960999999993L113.1146 94.18000999999992L110.72670000000005 96.31461000000002L108.5893000000001 97.44681000000003L109.1133000000001 99.39470999999992L107.98030000000006 100.57631000000003L107.79600000000005 101.37791000000004L108.03340000000003 101.71411L109.2396 101.91401000000008L108.93820000000005 102.7699100000001L108.68320000000006 103.82901000000004L107.58480000000009 104.03841L107.36340000000007 104.65071L107.23090000000002 105.73410999999999z">
      <title id="t195">Troisième circonscription des Landes</title>
      <desc id="d195">Cantons de : Aire-sur-l'Adour, Amou, Geaune, Grenade-sur-l'Adour, Hagetmau, Montfort-en-Chalosse, Morcenx, Mugron, Peyrehorade, Pouillon, Saint-Sever, Tartas Est, Tartas Ouest, Villeneuve-de-Marsan</desc>
    </path></svg>