<svg xmlns="http://www.w3.org/2000/svg" version="1.1" xmlns:xlink="http://www.w3.org/1999/xlink" xmlns:svgjs="http://svgjs.dev/svgjs" viewBox="0 0 141.7355 119.47000000000003"><path class="circo" id="id-041-01" d="M58.80799999999999 74.40071L58.187799999999925 72.86760000000004L57.613200000000006 70.90337999999997L57.27509999999995 69.72421999999995L56.932000000000016 68.94210999999996L55.33460000000002 68.37973L55.182699999999954 67.15068999999994L54.226800000000026 68.37177999999994L50.73059999999998 66.59168999999997L52.01030000000003 64.49695999999994L50.82409999999993 63.32294999999999L52.87670000000003 62.07290999999998L54.14009999999996 61.001319999999964L54.30340000000001 59.748950000000036L57.232399999999984 60.03669000000002L58.742200000000025 60.80547999999999L58.775800000000004 60.79336000000001L59.55830000000003 60.47068999999999L61.50139999999999 59.654789999999934L63.60770000000002 58.11762999999996L65.82669999999996 56.28399999999999L66.20809999999994 56.09307000000001L66.6952 56.79449999999997L67.50509999999997 57.05737999999997L67.88509999999997 58.233889999999974L68.73130000000003 58.282370000000014L69.3338 58.88713999999993L68.97939999999994 59.56708000000003L68.19380000000001 60.97834999999998L68.30589999999995 61.75422000000003L70.60839999999996 63.29279999999994L71.10929999999996 62.58322999999996L71.36969999999997 62.182680000000005L73.07479999999998 60.84686999999997L74.84559999999999 60.82111999999995L75.61540000000002 62.26922000000002L75.21579999999994 62.978830000000016L75.54419999999993 64.14999999999998L73.6318 65.57151999999996L73.03039999999999 66.12366999999995L73.03179999999998 67.28481999999997L71.45719999999994 67.70661999999993L70.5883 67.76384999999993L70.45640000000003 68.1807L70.38130000000001 70.35275999999999L70.46910000000003 70.78090999999995L70.88979999999992 70.89266999999995L70.38729999999998 71.61068L70.56489999999997 73.35806000000002L68.89980000000003 73.80579L71.4185 76.02435000000003L72.67349999999999 75.94604000000004L74.99860000000001 75.10560999999996L75.57669999999996 76.71524L75.94939999999997 76.93804999999998L77.67849999999999 76.96359999999993L78.65009999999995 77.7396L79.94240000000002 77.68007L80.46089999999992 78.39885000000004L80.55709999999999 80.17237L78.6336 83.68528000000003L78.19949999999994 84.84146999999996L76.82979999999998 86.33458999999993L79.50229999999999 86.91629999999998L79.29899999999998 87.74504999999999L77.66449999999998 89.70728999999994L77.29570000000001 91.35894999999994L76.62519999999995 92.60885999999994L77.19069999999999 93.11694L76.6676 93.82349999999997L73.42250000000001 96.03899000000001L69.33119999999997 94.62464L66.68470000000002 95.47590000000002L64.74059999999997 93.94655L63.60910000000001 93.95006000000001L62.759199999999964 95.69430999999997L63.865099999999984 97.48565999999994L63.80740000000003 98.32863999999995L64.24270000000001 99.05146000000002L62.06639999999993 100.14161000000001L60.130300000000034 101.62676999999996L58.968099999999936 101.19358L58.48969999999997 100.52656999999999L57.66750000000002 102.05114000000003L57.7287 105.09007999999994L57.26509999999996 106.31458999999995L56.384000000000015 107.27197999999999L56.001300000000015 106.65421000000003L54.658199999999965 105.95428000000004L54.008500000000026 106.17773999999997L53.97410000000002 106.59943999999996L52.4393 107.17724999999996L51.18139999999994 107.11360000000002L50.475599999999986 106.65269999999998L49.44999999999993 108.70744000000002L46.827699999999936 105.90878999999995L44.865299999999934 105.42412000000002L43.736999999999966 101.64657999999997L44.71109999999999 101.32727999999997L45.516700000000014 98.94142999999997L46.0797 98.31798000000003L44.75940000000003 96.80146000000002L44.80419999999992 96.08278999999993L46.031799999999976 94.73085000000003L45.907100000000014 93.46753000000001L45.3125 92.87006999999994L45.068899999999985 91.59470999999996L42.900999999999954 88.94915000000003L45.428999999999974 89.00468999999998L47.010599999999954 86.52828999999997L46.30939999999998 86.12278000000003L45.269499999999994 84.39523999999994L48.87940000000003 82.95312000000001L49.87919999999997 82.74069999999995L53.69119999999998 81.06624999999997L55.66930000000002 80.95365000000004L56.58979999999997 80.04277000000002L57.32089999999994 77.44533000000001L59.36159999999995 75.68882999999994L59.954200000000014 74.87103000000002L58.80799999999999 74.40071z">
      <title id="t196">Première circonscription du Loir-et-Cher</title>
      <desc id="d196">Cantons de : Blois I, Blois II, Blois III, Blois IV, Blois V, Contres, Montrichard, Vineuil</desc>
    </path><path class="circo" id="id-041-02" d="M76.82979999999998 86.33458999999993L78.19949999999994 84.84146999999996L78.6336 83.68528000000003L80.55709999999999 80.17237L80.46089999999992 78.39885000000004L79.94240000000002 77.68007L78.65009999999995 77.7396L77.67849999999999 76.96359999999993L75.94939999999997 76.93804999999998L75.57669999999996 76.71524L74.99860000000001 75.10560999999996L72.67349999999999 75.94604000000004L71.4185 76.02435000000003L68.89980000000003 73.80579L70.56489999999997 73.35806000000002L70.38729999999998 71.61068L70.88979999999992 70.89266999999995L70.46910000000003 70.78090999999995L70.38130000000001 70.35275999999999L70.45640000000003 68.1807L70.5883 67.76384999999993L71.45719999999994 67.70661999999993L73.03179999999998 67.28481999999997L73.03039999999999 66.12366999999995L73.6318 65.57151999999996L75.54419999999993 64.14999999999998L75.21579999999994 62.978830000000016L75.61540000000002 62.26922000000002L74.84559999999999 60.82111999999995L75.65210000000002 60.65316999999993L77.97489999999993 59.810910000000035L78.62059999999997 58.79296999999997L81.6662 57.28009999999995L81.88279999999997 56.17918999999995L83.76099999999997 55.56709000000001L85.01869999999997 54.409689999999955L84.31650000000002 52.37083999999993L85.21929999999998 51.55596000000003L88.32409999999993 49.909220000000005L89.16300000000001 47.388630000000035L91.4099 48.93297999999993L92.89199999999994 49.90795000000003L94.64949999999999 49.99580000000003L96.21839999999997 50.775480000000016L96.28649999999993 52.10410999999999L97.56150000000002 54.95128L96.82309999999995 55.411249999999995L97.73329999999999 56.82997999999998L98.57909999999993 59.712980000000016L99.14769999999999 60.35597999999993L101.67639999999994 60.846739999999954L102.02459999999996 61.10137999999995L101.8655 61.94661999999994L103.20449999999994 62.95952999999997L103.89469999999994 62.40836999999999L104.05709999999999 61.53935000000001L104.64639999999997 60.89203999999995L107.53399999999999 60.02660000000003L107.2618 58.759270000000015L107.39480000000003 57.00838999999996L107.49389999999994 56.577319999999986L108.3048 56.23348999999996L108.69659999999999 56.05391999999995L109.02359999999999 56.33451000000002L108.98979999999995 57.60910999999999L109.27429999999993 57.93344000000002L111.39189999999996 57.704309999999964L112.09680000000003 58.20019000000002L113.36559999999997 58.11775L114.51929999999993 57.646229999999946L115.33719999999994 57.727160000000026L115.75239999999997 59.71574999999996L116.96629999999993 59.69505000000004L117.70079999999996 60.08402000000001L119.13749999999993 59.24736999999993L120.27109999999993 59.40881000000002L120.72159999999997 58.22025999999994L121.43510000000003 57.743060000000014L126.17229999999995 58.07041000000004L127.01350000000002 57.15017999999998L129.50400000000002 57.75544000000002L129.83579999999995 58.55048999999997L130.2496 58.68453999999997L131.54989999999998 57.64156000000003L132.39319999999998 57.77778000000001L133.3592 58.59000000000003L135.09320000000002 58.55553999999995L137.99029999999993 57.60519999999997L138.1947 57.87701000000004L138.25249999999994 59.57615999999996L139.42020000000002 59.33951000000002L141.13739999999996 62.31123000000002L141.01030000000003 64.86937L140.12310000000002 64.98803999999996L137.44349999999997 66.57555000000002L133.96159999999998 67.38252L132.4149 68.92421000000002L130.84069999999997 69.66309999999999L131.5317 71.30353000000002L131.31769999999995 73.01370999999995L131.84439999999995 73.72669999999994L137.14789999999994 73.99445000000003L137.4697 74.30286000000001L138.90879999999993 77.53770999999995L137.34299999999996 81.63018999999997L139.32960000000003 80.68154000000004L140.6517 80.56666999999993L141.7355 81.14851999999996L140.9253 84.01512000000002L141.50159999999994 85.14598000000001L140.96169999999995 86.27374999999995L141.64660000000003 87.35118L141.39099999999996 90.81606L140.26009999999997 91.73274000000004L138.08749999999998 91.91485999999998L136.67759999999998 88.19368999999995L132.2957 91.88433999999995L130.45179999999993 89.98015999999996L130.61559999999997 91.32177000000001L129.40959999999995 93.73109L128.92899999999997 96.84550999999999L130.14390000000003 96.50401L130.42340000000002 96.81952999999999L131.44669999999996 99.52931000000001L130.82510000000002 101.03254000000004L131.60159999999996 101.32313999999997L132.15359999999998 102.49919L133.2559 103.17340000000002L134.03480000000002 105.19774999999993L132.56920000000002 106.04740000000004L131.97299999999996 107.58159999999998L130.389 107.83381999999995L129.90009999999995 107.16359L128.6843 107.05570999999998L126.90949999999998 107.1463L122.96129999999994 109.19611999999995L122.76159999999993 109.59546L121.99879999999996 109.19110999999998L120.38829999999996 109.51591999999994L118.63289999999995 108.26067999999998L118.6214 108.24389999999994L115.69319999999993 106.46974L114.13189999999997 108.53391999999997L114.1046 109.75353999999993L111.79319999999996 110.88726999999994L111.52959999999996 111.64527999999996L112.98569999999995 112.26634999999999L113.50569999999993 113.46875L112.88369999999998 115.13289999999995L112.4117 115.85037999999997L110.07960000000003 116.86119999999994L108.18869999999993 115.17821000000004L106.99789999999996 115.33089999999993L104.91880000000003 113.99375999999995L103.32089999999994 113.01368000000002L102.90279999999996 113.74716000000001L101.64549999999997 113.81952000000001L99.42970000000003 111.82533999999998L96.52059999999994 108.12913000000003L95.21309999999994 109.72523000000001L92.2604 110.37566000000004L91.02199999999993 110.00554999999997L90.87990000000002 108.79776000000004L89.1902 108.42881L88.35749999999996 108.65431999999998L87.70319999999992 108.08929L87.32579999999996 108.30353000000002L86.09219999999993 108.43043999999998L86.07079999999996 110.52408000000003L83.53739999999993 110.05678L80.2115 110.81976999999995L80.68229999999994 111.53709000000003L80.47140000000002 112.76766999999995L80.9565 113.96021999999994L81.10339999999997 114.79485L80.5607 115.33803L80.27499999999998 114.53764000000001L78.4733 113.42643999999996L78.14919999999995 113.69984L76.72489999999993 112.90651000000003L75.88139999999999 112.87658999999996L74.19209999999998 112.86670000000004L71.47789999999998 114.09740999999997L70.4905 115.56780000000003L69.06679999999994 116.65924999999993L65.58179999999993 118.51023999999995L64.30079999999998 118.46959000000004L63.441599999999994 119.47000000000003L63.047399999999925 118.51311999999996L61.410799999999995 115.24240999999995L60.72969999999998 113.24290999999994L60.153099999999995 112.6173L59.0557 110.73572999999999L58.19780000000003 110.58205999999996L56.257600000000025 108.26531999999997L56.35410000000002 107.94846999999993L56.384000000000015 107.27197999999999L57.26509999999996 106.31458999999995L57.7287 105.09007999999994L57.66750000000002 102.05114000000003L58.48969999999997 100.52656999999999L58.968099999999936 101.19358L60.130300000000034 101.62676999999996L62.06639999999993 100.14161000000001L64.24270000000001 99.05146000000002L63.80740000000003 98.32863999999995L63.865099999999984 97.48565999999994L62.759199999999964 95.69430999999997L63.60910000000001 93.95006000000001L64.74059999999997 93.94655L66.68470000000002 95.47590000000002L69.33119999999997 94.62464L73.42250000000001 96.03899000000001L76.6676 93.82349999999997L77.19069999999999 93.11694L76.62519999999995 92.60885999999994L77.29570000000001 91.35894999999994L77.66449999999998 89.70728999999994L79.29899999999998 87.74504999999999L79.50229999999999 86.91629999999998L76.82979999999998 86.33458999999993z">
      <title id="t197">Deuxième circonscription du Loir-et-Cher</title>
      <desc id="d197">Cantons de : Bracieux, Lamotte-Beuvron, Mennetou-sur Cher, Neung-sur-Beuvron, Romorantin-Lanthenay Nord, Romorantin-Lanthenay Sud, Saint-Aignan, Salbris, Selles-sur-Cher</desc>
    </path><path class="circo" id="id-041-03" d="M45.88639999999998 11.80627000000004L45.51459999999997 10.228870000000029L44.736099999999965 9.169260000000008L45.21429999999998 6.632979999999975L41.744500000000016 7.108679999999936L41.18859999999995 5.993089999999938L38.557500000000005 5.993089999999938L37.72360000000003 5.7069099999999935L36.47399999999993 6.196550000000002L35.307500000000005 5.543509999999969L35.02229999999997 4.700780000000009L36.25260000000003 3.4321499999999787L39.45600000000002 1.81732999999997L39.677099999999996 1.4245200000000295L39.05549999999994 0.22721000000001368L38.190399999999954 0L36.43259999999998 0.14289999999994052L35.26929999999993 0.783360000000016L31.855999999999995 4.119000000000028L31.033999999999992 4.446230000000014L30.916600000000017 2.6045500000000175L29.65739999999994 2.68907999999999L28.303699999999935 3.6508400000000165L26.23090000000002 3.8916699999999764L24.75559999999996 3.1075399999999718L22.177299999999946 3.7908599999999524L21.482099999999946 4.30953999999997L20.195799999999963 4.475630000000024L20.046600000000012 4.863560000000007L21.24789999999996 5.308089999999993L22.49969999999996 5.100649999999973L22.330799999999954 7.661830000000009L21.54079999999999 7.999569999999949L18.976499999999987 7.7946399999999585L18.163299999999936 8.069409999999948L18.547399999999925 8.824709999999982L18.23849999999993 10.931789999999978L18.465599999999995 12.162609999999972L19.281299999999987 12.241689999999949L19.80269999999996 12.899009999999976L21.925200000000018 12.752200000000016L22.121700000000033 14.477930000000015L21.714699999999993 15.73488999999995L21.270999999999958 17.398609999999962L20.406399999999962 18.416129999999953L20.744100000000003 19.215059999999994L22.54759999999999 22.749739999999974L22.785999999999945 24.014890000000037L22.515300000000025 24.362709999999993L20.063499999999976 25.24009000000001L19.712599999999952 26.017389999999978L19.570600000000013 28.54263000000003L20.104799999999955 30.623609999999985L19.798999999999978 30.920749999999998L18.49249999999995 29.845590000000016L18.169899999999984 28.644589999999994L17.568499999999972 28.09739000000002L15.959499999999935 29.410079999999994L15.257799999999975 29.829489999999964L15.047599999999989 31.52931000000001L15.586599999999976 33.57235000000003L15.202699999999936 34.75470999999993L16.451099999999997 35.841609999999946L16.483799999999974 37.127039999999965L15.98879999999997 38.31648999999993L15.18769999999995 38.002970000000005L14.227399999999989 38.73040000000003L13.597300000000018 40.66449L13.04570000000001 41.27973999999995L11.263599999999997 43.45740000000001L11.18470000000002 43.87199999999996L10.401200000000017 43.56343000000004L9.996999999999957 43.68109000000004L9.472099999999955 44.337800000000016L9.40930000000003 44.755379999999946L10.397299999999973 46.09091999999998L9.948599999999942 46.78381000000002L8.047199999999975 46.20422999999994L6.0253999999999905 47.93130999999994L5.9465999999999894 47.955209999999965L3.9114999999999327 48.40682000000004L3.3647999999999456 49.061919999999986L3.1990999999999303 50.26766999999995L2.580100000000016 50.848659999999995L2.659599999999955 51.341260000000034L2.415200000000027 51.70026999999993L1.1703999999999724 51.986350000000016L0.01639999999997599 53.27544L0 53.33280000000002L0.8781999999999925 54.239799999999946L1.1532999999999447 55.86563000000001L1.6385000000000218 56.53768000000002L2.0592000000000326 56.578340000000026L2.8999000000000024 55.62707999999998L4.119699999999966 53.881939999999986L4.9687999999999874 53.87005999999997L6.090199999999982 55.08881999999994L5.47969999999998 56.67177000000004L6.2853000000000065 56.89323999999999L8.029199999999946 55.02099999999996L9.637200000000007 56.47011999999995L11.206500000000005 57.192980000000034L11.823999999999955 56.15859999999998L13.203899999999976 55.45924000000002L17.58330000000001 57.31759999999997L18.89390000000003 57.49801000000002L19.67509999999993 57.14197999999999L21.578199999999924 57.808959999999956L22.438300000000027 57.18502999999998L24.22410000000002 56.242830000000026L24.403799999999933 56.60283000000004L23.864299999999957 57.10978L23.944799999999987 57.82146L23.718599999999924 59.09843999999998L22.473999999999933 61.825379999999996L23.968999999999937 63.33177999999998L23.718099999999936 64.14949000000001L22.988899999999944 64.60428000000002L23.15739999999994 65.88838999999996L23.57579999999996 66.00199999999995L23.789099999999962 67.27775999999994L24.137899999999945 67.53619000000003L27.102199999999925 67.04554999999993L26.773699999999963 65.88499000000002L27.520700000000033 65.50064999999995L28.84050000000002 63.384000000000015L30.34820000000002 63.93040999999994L31.56479999999999 64.21659L32.722099999999955 63.78574000000003L33.36099999999999 64.77188999999998L34.976299999999924 64.98942999999997L34.391599999999926 66.96839999999997L34.625 68.62752L35.42070000000001 69.53431L35.99069999999995 69.48464999999999L36.74019999999996 67.16304000000002L37.71269999999993 66.41315999999995L38.50929999999994 66.63039000000003L40.766200000000026 70.47725000000003L41.07979999999998 71.78088000000002L42.219600000000014 70.98604L42.18169999999998 72.31525999999997L39.71640000000002 75.46835999999996L39.50229999999999 76.13450999999998L41.52509999999995 77.65778999999998L41.52710000000002 79.73149000000001L42.608999999999924 81.59118999999998L43.64289999999994 83.82071999999994L42.984899999999925 84.57718L43.0788 84.90999L45.269499999999994 84.39523999999994L48.87940000000003 82.95312000000001L49.87919999999997 82.74069999999995L53.69119999999998 81.06624999999997L55.66930000000002 80.95365000000004L56.58979999999997 80.04277000000002L57.32089999999994 77.44533000000001L59.36159999999995 75.68882999999994L59.954200000000014 74.87103000000002L58.80799999999999 74.40071L58.187799999999925 72.86760000000004L57.613200000000006 70.90337999999997L57.27509999999995 69.72421999999995L56.932000000000016 68.94210999999996L55.33460000000002 68.37973L55.182699999999954 67.15068999999994L54.226800000000026 68.37177999999994L50.73059999999998 66.59168999999997L52.01030000000003 64.49695999999994L50.82409999999993 63.32294999999999L52.87670000000003 62.07290999999998L54.14009999999996 61.001319999999964L54.30340000000001 59.748950000000036L57.232399999999984 60.03669000000002L58.742200000000025 60.80547999999999L58.775800000000004 60.79336000000001L59.55830000000003 60.47068999999999L61.50139999999999 59.654789999999934L63.60770000000002 58.11762999999996L65.82669999999996 56.28399999999999L66.20809999999994 56.09307000000001L66.6952 56.79449999999997L67.50509999999997 57.05737999999997L67.88509999999997 58.233889999999974L68.73130000000003 58.282370000000014L69.3338 58.88713999999993L68.97939999999994 59.56708000000003L68.19380000000001 60.97834999999998L68.30589999999995 61.75422000000003L70.60839999999996 63.29279999999994L71.10929999999996 62.58322999999996L71.36969999999997 62.182680000000005L73.07479999999998 60.84686999999997L74.84559999999999 60.82111999999995L75.65210000000002 60.65316999999993L77.97489999999993 59.810910000000035L78.62059999999997 58.79296999999997L81.6662 57.28009999999995L81.88279999999997 56.17918999999995L83.76099999999997 55.56709000000001L85.01869999999997 54.409689999999955L84.31650000000002 52.37083999999993L85.21929999999998 51.55596000000003L85.24189999999999 51.10963000000004L86.50389999999993 49.87533999999994L86.36939999999993 49.45214999999996L82.24000000000001 46.10798999999997L84.2319 43.90363000000002L83.69139999999993 43.33479999999997L84.14609999999993 42.66937999999993L81.6481 40.10056999999995L80.48509999999999 39.808919999999944L80.84270000000004 38.63302999999996L81.22169999999994 37.377790000000005L82.32769999999994 36.76229999999998L85.28379999999993 33.58172000000002L85.71019999999999 32.427659999999946L84.89599999999996 30.980839999999944L84.90620000000001 29.139999999999986L82.72939999999994 26.954799999999977L80.3365 25.895099999999957L80.09879999999998 25.545589999999947L80.40570000000002 23.92491999999993L82.93179999999995 22.570150000000012L82.17110000000002 22.20371L82.24299999999994 21.780880000000025L83.654 20.309489999999983L83.68520000000001 18.195519999999988L81.35439999999994 18.504779999999982L80.70939999999996 19.060899999999947L79.88599999999997 19.147249999999985L77.64120000000003 18.497029999999995L76.5181 17.223319999999944L74.40589999999997 15.82370000000003L73.19389999999999 15.418769999999995L72.44690000000003 15.813289999999938L72.79859999999996 16.07158000000004L72.572 17.353269999999952L73.04160000000002 19.031309999999962L72.84069999999997 19.881089999999972L70.29449999999997 20.643029999999953L68.56549999999993 19.273609999999962L67.67200000000003 20.712599999999952L67.12649999999996 22.769159999999943L65.40019999999993 21.53805L64.42539999999997 22.260059999999953L61.90859999999998 22.767259999999965L61.13919999999996 20.93960000000004L58.233799999999974 21.612179999999967L57.8261 20.892119999999977L57.50049999999999 20.077519999999936L56.75540000000001 19.61748L54.601999999999975 19.990409999999997L53.11799999999994 20.878919999999994L51.951799999999935 20.456519999999955L52.67489999999998 19.982669999999985L52.71519999999998 19.549800000000005L52.12670000000003 18.92768000000001L51.631599999999935 16.820500000000038L50.476999999999975 16.234209999999962L50.08719999999994 16.04656L49.43290000000002 14.62749999999994L49.87919999999997 13.56352000000004L49.581500000000005 13.269530000000032L47.90879999999993 13.244749999999954L47.00440000000003 12.578430000000026L46.289800000000014 12.41228000000001L45.88639999999998 11.80627000000004z">
      <title id="t198">Troisième circonscription du Loir-et-Cher</title>
      <desc id="d198">Cantons de : Droué, Herbault, Marchenoir, Mer, Mondoubleau, Montoire-sur-le-Loir, Morée, Ouzouer-le-Marché, Saint-Amand-Longpré, Savigny-sur-Braye, Selommes, Vendôme I, Vendôme II</desc>
    </path></svg>