<svg xmlns="http://www.w3.org/2000/svg" version="1.1" xmlns:xlink="http://www.w3.org/1999/xlink" xmlns:svgjs="http://svgjs.dev/svgjs" viewBox="0 0 90.66026999999997 127.15491999999995"><path class="circo" id="id-042-01" d="M58.31346999999994 102.28037999999992L57.55246999999997 101.59381999999994L56.87686999999994 102.29271999999992L57.18897000000004 102.93174999999997L56.87756999999999 103.65496999999993L56.56477000000007 104.39337999999998L55.94247000000007 104.99777999999992L54.89187000000004 105.74318999999991L51.358370000000036 107.15918999999997L51.68566999999996 106.54638L51.05577000000005 106.11948999999993L51.10557000000006 105.73653000000002L51.58546999999999 105.23741999999993L49.61967000000004 104.73838999999998L48.44807000000003 104.93106L47.432770000000005 104.25725999999997L47.07257000000004 103.24037999999996L46.90867000000003 102.46659L47.87486999999999 101.73899999999992L47.233370000000036 100.42597L47.93687 99.47674999999992L47.73136999999997 99.12964999999997L50.03087000000005 98.87415999999996L51.14296999999999 99.19146L51.52126999999996 99.14091999999994L51.95017000000007 97.34139999999991L52.918570000000045 97.93394L54.41907000000003 97.53996999999993L55.71247000000005 96.99104L56.1144700000001 97.15845999999999L57.27967000000001 96.79426999999998L58.852469999999926 97.1526399999999L59.036269999999945 97.71925999999996L61.105069999999955 98.00824L61.12457000000006 98.86325L62.02877000000001 99.77026000000001L62.610070000000064 98.78204999999991L64.08827000000008 98.32218999999998L64.11236999999994 97.54323999999997L65.10406999999998 97.69574L65.66897000000006 98.21830999999997L66.22926999999993 99.68482999999992L66.05346999999995 101.18435L65.2122700000001 102.09722999999997L65.2448700000001 102.51128999999992L66.01247000000001 103.97858999999994L64.72206999999992 104.18008999999995L63.848769999999945 104.7854299999999L63.38617000000011 104.09920999999997L62.89877000000013 104.56529999999998L62.47826999999995 104.30097L62.806470000000104 103.64664999999991L61.88717000000008 103.75301999999999L62.21546999999998 102.16675999999995L60.063170000000014 102.00879999999995L58.31346999999994 102.28037999999992z">
      <title id="t199">Première circonscription de la Loire</title>
      <desc id="d199">Cantons de : Saint-Etienne Nord-Est I, Saint-Etienne Nord-Est II, Saint-Etienne Nord-Ouest I, Saint-Etienne Nord-Ouest II.</desc>
    </path><path class="circo" id="id-042-02" d="M64.01826999999992 107.51616999999999L63.09377000000006 106.12444999999991L62.27227000000005 106.06040999999993L60.61547000000007 107.25493999999992L59.85997000000009 106.90350999999998L59.5229700000001 107.15701000000001L58.5409699999999 106.51828999999998L57.68617000000006 104.73572999999999L56.56477000000007 104.39337999999998L56.87756999999999 103.65496999999993L57.18897000000004 102.93174999999997L56.87686999999994 102.29271999999992L57.55246999999997 101.59381999999994L58.31346999999994 102.28037999999992L60.063170000000014 102.00879999999995L62.21546999999998 102.16675999999995L61.88717000000008 103.75301999999999L62.806470000000104 103.64664999999991L62.47826999999995 104.30097L62.89877000000013 104.56529999999998L63.38617000000011 104.09920999999997L63.848769999999945 104.7854299999999L64.72206999999992 104.18008999999995L66.01247000000001 103.97858999999994L66.91756999999996 104.76127999999994L66.52607 107.62921999999992L67.13927000000001 108.18903999999998L67.62197000000003 108.81185999999991L66.53156999999999 109.31445999999994L66.16327000000013 109.14297999999997L65.58087000000012 110.21004999999991L65.38676999999996 109.95461L64.19977000000006 108.75993999999992L64.01826999999992 107.51616999999999z">
      <title id="t200">Deuxième circonscription de la Loire</title>
      <desc id="d200">Cantons de : Saint-Etienne Sud-Est I, Saint-Etienne Sud-Est II, Saint-Etienne Sud-Est III, Saint-Etienne Sud-Ouest I, Saint-Etienne Sud-Ouest II</desc>
    </path><path class="circo" id="id-042-03" d="M80.86387000000002 89.83978000000002L80.73266999999998 89.5430399999999L80.12416999999994 88.93787999999995L79.25687000000005 86.49361999999996L78.32686999999999 85.59625999999992L77.30716999999993 86.21191999999996L75.96826999999996 86.17378999999994L74.56487000000004 84.77298999999994L72.5809700000001 85.0279099999999L70.3979700000001 85.90518999999995L69.75967000000003 85.41931999999997L68.96957000000009 85.46655999999996L68.86307 84.29735999999991L65.82776999999999 84.3483799999999L65.45456999999999 85.07321000000002L65.60757000000001 85.46875L64.69306999999992 86.64599999999996L63.78667000000007 88.17861999999991L61.933869999999956 86.80664000000002L61.69936999999993 86.81112999999993L62.323870000000056 88.26238000000001L61.867869999999925 89.32542999999998L61.50127000000009 89.17674999999997L60.52806999999996 88.75920999999994L60.38506999999993 87.72787999999991L59.17746999999997 87.61460999999997L57.991170000000125 88.02784999999994L57.177569999999946 87.81467999999995L56.65686999999991 87.17039L55.351369999999974 89.28415999999993L55.771970000000124 92.15242L55.380469999999946 92.89414L52.70757000000003 91.62525999999991L52.39886999999999 92.38389999999993L50.44217000000003 91.90140999999994L49.89896999999996 92.35696999999993L50.06876999999997 93.64328999999998L51.66147000000001 95.63767999999993L51.95017000000007 97.34139999999991L52.918570000000045 97.93394L54.41907000000003 97.53996999999993L55.71247000000005 96.99104L56.1144700000001 97.15845999999999L57.27967000000001 96.79426999999998L58.852469999999926 97.1526399999999L59.036269999999945 97.71925999999996L61.105069999999955 98.00824L61.12457000000006 98.86325L62.02877000000001 99.77026000000001L62.610070000000064 98.78204999999991L64.08827000000008 98.32218999999998L64.11236999999994 97.54323999999997L65.10406999999998 97.69574L65.66897000000006 98.21830999999997L66.22926999999993 99.68482999999992L66.05346999999995 101.18435L65.2122700000001 102.09722999999997L65.2448700000001 102.51128999999992L66.01247000000001 103.97858999999994L66.91756999999996 104.76127999999994L66.52607 107.62921999999992L67.13927000000001 108.18903999999998L68.34007000000008 107.82592L69.15347000000008 108.02236999999991L70.51497000000006 108.97620999999992L71.74297000000013 109.01324999999997L71.98476999999991 109.81569999999999L72.69967000000008 110.25482L73.85717000000011 110.04656999999997L74.72987 108.70596999999998L75.04606999999999 108.65017L75.87167000000011 108.76382000000001L78.11667 107.77931999999998L78.50617 104.02738999999997L78.93766999999991 103.33812L79.72327000000007 103.04669999999999L79.81896999999992 101.40994999999998L80.37786999999992 100.78318000000002L82.28436999999997 100.95183999999995L83.1769700000001 100.24941000000001L83.79407000000003 98.85015999999996L84.02806999999996 97.20440999999994L83.66676999999993 97.04813999999999L83.11107000000004 97.59863999999993L82.34987000000012 96.37925999999993L81.66797000000008 96.24806999999998L81.36527000000012 95.10582L81.64596999999992 94.80045999999993L81.27597000000003 92.75644999999997L81.38087000000007 91.11844999999994L82.30407000000002 90.31161999999995L82.61727000000008 89.55858L82.7157699999999 89.53333999999995L84.30407000000002 88.11209999999994L84.50157000000002 87.69315999999992L83.50337000000002 86.40219000000002L83.09246999999993 86.29618999999991L82.04397000000006 87.01765999999998L81.25227000000007 86.87960999999996L81.15737000000001 88.14049999999997L82.11316999999997 89.49109999999996L80.86387000000002 89.83978000000002z">
      <title id="t201">Troisième circonscription de la Loire</title>
      <desc id="d201">Cantons de : La Grand-Croix, Rive-de-Gier, Saint-Chamond Nord, Saint-Chamond Sud, Saint-Héand.</desc>
    </path><path class="circo" id="id-042-04" d="M76.94466999999997 120.23824000000002L76.32847000000004 122.24397999999997L76.93576999999993 122.71648999999991L77.51487000000009 123.35694999999998L77.51567000000011 124.59676999999999L75.7720700000001 125.72276L73.75096999999994 125.34318999999994L72.18067000000008 125.95153999999991L71.64586999999995 126.59881999999993L70.1034699999999 126.00344999999993L69.03886999999997 127.05606L67.78027000000009 127.15491999999995L67.13007000000005 126.64373L66.79966999999999 126.46675999999991L64.90007000000003 124.59060999999997L63.929469999999924 123.85498999999993L62.95997 122.02401999999995L61.73417000000006 121.93982999999992L59.31626999999992 123.36286999999993L58.97717 124.09312L57.93286999999998 123.56479000000002L57.614169999999945 123.81368999999995L55.82876999999996 121.66175999999996L56.62966999999992 120.73673999999994L56.77107000000012 119.95030999999994L57.31786999999997 119.44281999999998L57.19527000000005 118.81286L56.009169999999926 118.46469000000002L54.25376999999992 116.73455000000001L56.95067000000006 114.43637999999999L57.34387000000004 114.48136999999997L55.6769700000001 111.65755000000001L54.66026999999997 110.96794999999997L52.260170000000016 110.38391999999999L52.21996999999999 111.17652999999996L51.887770000000046 111.37033999999994L51.19297000000006 111.22492999999997L50.69236999999998 111.82569999999998L49.151770000000056 111.74173999999994L49.08127000000002 109.90789999999993L47.92267000000004 110.29909999999995L46.832070000000044 108.65464999999995L46.42527000000007 108.68853999999999L45.320569999999975 108.11641999999995L43.141669999999976 109.02341000000001L41.43267000000003 107.87711999999999L39.84157000000005 108.21530999999993L38.34046999999998 108.79612999999995L39.385369999999966 110.14191999999991L39.21167000000003 110.96093999999994L36.296370000000024 110.69984L35.337170000000015 111.49579999999992L35.22647000000006 112.34174999999993L34.43656999999996 111.76423999999997L32.87716999999998 112.25464999999997L32.56707000000006 113.90598L32.08096999999998 114.60929999999996L31.37576999999999 114.18376L30.665669999999977 112.65708999999993L29.919970000000035 112.23759999999993L29.112420000000043 112.46875999999997L29.014819999999986 112.8759L28.054300000000012 113.53094999999996L27.81110000000001 115.55980999999997L27.47040000000004 115.55534L27.304100000000062 114.90216999999996L26.273599999999988 112.19779999999992L25.461700000000064 112.17651000000001L24.83789999999999 110.31228999999996L24.21519999999998 109.81412L22.74969999999996 110.47055999999998L21.609500000000025 110.01329999999996L20.856300000000033 110.33443999999997L20.49490000000003 111.50789999999995L19.125200000000063 112.3948499999999L19.205400000000054 113.91408000000001L18.095100000000002 114.94871999999998L17.798700000000053 114.28981999999996L17.341999999999985 112.06593999999996L16.894700000000057 110.52149999999995L17.09609999999998 108.83800999999994L16.74350000000004 107.63938999999993L17.438300000000027 105.68385999999998L18.16420000000005 105.30401999999992L18.743400000000065 104.17877999999996L19.12900000000002 104.29019999999991L20.733900000000062 103.24135000000001L22.939399999999978 102.46078L22.942099999999982 102.32994999999994L22.674600000000055 101.61093999999991L23.946500000000015 101.02647999999999L23.43520000000001 100.41458L23.77819999999997 99.67791999999997L23.304399999999987 98.20510000000002L24.840900000000033 96.43164000000002L24.703100000000063 95.35429999999997L23.745200000000068 94.73957999999993L23.144999999999982 94.68742999999995L23.073800000000006 94.36543999999992L22.539600000000064 93.08312999999998L21.50890000000004 89.49000999999998L22.19270000000006 87.98208999999997L22.563600000000065 88.49167999999997L24.477100000000064 87.94250999999997L27.518699999999967 88.91895L27.56770000000006 88.92513999999994L29.183220000000006 88.6019L30.34307000000001 89.05016L31.62927000000002 90.12752L32.04476999999997 90.01623999999993L32.853270000000066 88.72122000000002L33.82567000000006 88.04811999999993L33.92687000000001 87.66026L33.37187000000006 87.13542999999993L34.75407000000007 86.40134L34.223370000000045 85.29156999999998L34.88497000000007 85.37293L35.391970000000015 84.42634999999996L40.30457000000001 86.34791999999993L40.85037 85.85296999999991L41.99097000000006 86.18070999999998L43.51497000000006 87.38042999999993L43.84236999999996 85.42369999999994L44.39716999999996 84.85690999999997L44.63187000000005 83.70764999999994L44.16037000000006 82.59645999999998L44.242470000000026 81.79458L43.71056999999996 81.19333999999992L41.38507000000004 80.90303999999992L41.535169999999994 80.05817000000002L42.79817000000003 79.06477999999993L42.92677000000003 78.28180999999995L44.43727000000001 77.69948L45.18687 77.42530999999997L45.52337 80.14883999999995L46.03476999999998 80.58476999999993L46.73977000000002 80.55535999999995L47.026970000000006 81.23843L45.710770000000025 82.75513000000001L45.570569999999975 83.15116999999998L46.08797000000004 84.30464999999992L47.87647000000004 85.37099L48.09267 85.62272999999993L49.449569999999994 87.60514L49.32217000000003 88.33557999999994L48.22437000000002 88.30475000000001L47.58897000000002 88.65870999999993L46.85546999999997 89.02199999999993L46.53426999999999 89.77436999999998L47.236670000000004 90.82808L47.20607000000007 91.66359999999997L47.22596999999996 92.61329999999998L49.12607000000003 92.06907999999999L49.89896999999996 92.35696999999993L50.06876999999997 93.64328999999998L51.66147000000001 95.63767999999993L51.95017000000007 97.34139999999991L51.52126999999996 99.14091999999994L51.14296999999999 99.19146L50.03087000000005 98.87415999999996L47.73136999999997 99.12964999999997L47.93687 99.47674999999992L47.233370000000036 100.42597L47.87486999999999 101.73899999999992L46.90867000000003 102.46659L47.07257000000004 103.24037999999996L47.432770000000005 104.25725999999997L48.44807000000003 104.93106L49.61967000000004 104.73838999999998L51.58546999999999 105.23741999999993L51.10557000000006 105.73653000000002L51.05577000000005 106.11948999999993L51.68566999999996 106.54638L51.358370000000036 107.15918999999997L54.89187000000004 105.74318999999991L55.94247000000007 104.99777999999992L56.56477000000007 104.39337999999998L57.68617000000006 104.73572999999999L58.5409699999999 106.51828999999998L59.5229700000001 107.15701000000001L59.85997000000009 106.90350999999998L60.61547000000007 107.25493999999992L62.27227000000005 106.06040999999993L63.09377000000006 106.12444999999991L64.01826999999992 107.51616999999999L64.19977000000006 108.75993999999992L65.38676999999996 109.95461L65.58087000000012 110.21004999999991L66.16327000000013 109.14297999999997L66.53156999999999 109.31445999999994L67.62197000000003 108.81185999999991L67.13927000000001 108.18903999999998L68.34007000000008 107.82592L69.15347000000008 108.02236999999991L70.51497000000006 108.97620999999992L71.74297000000013 109.01324999999997L71.98476999999991 109.81569999999999L72.69967000000008 110.25482L73.85717000000011 110.04656999999997L74.72987 108.70596999999998L75.04606999999999 108.65017L75.87167000000011 108.76382000000001L78.11667 107.77931999999998L78.50617 104.02738999999997L78.93766999999991 103.33812L79.72327000000007 103.04669999999999L79.81896999999992 101.40994999999998L80.37786999999992 100.78318000000002L82.28436999999997 100.95183999999995L83.1769700000001 100.24941000000001L83.79407000000003 98.85015999999996L84.02806999999996 97.20440999999994L85.56387000000007 97.39461999999992L87.41956999999991 95.43553999999995L88.80966999999998 96.32554999999991L89.2267700000001 97.90059999999994L88.84027000000003 98.05575999999996L90.40386999999998 100.12532999999996L90.23347000000001 100.69229999999993L90.28487000000007 101.17466000000002L90.65987000000007 102.21098999999992L90.66026999999997 102.92448000000002L89.23167000000001 104.40027999999995L89.3707700000001 105.9805L90.22646999999995 107.14005999999995L90.56637000000012 108.72181999999998L90.41126999999994 110.32718L90.32397000000003 111.02590999999995L87.7593700000001 111.49434999999994L87.52867000000003 112.36629999999991L85.84547000000009 112.97568000000001L85.39607000000012 113.52925999999991L83.87516999999991 113.37456999999995L80.34097000000008 115.80161999999996L80.73407000000009 116.68305999999995L79.94077000000004 117.16186999999991L78.40686999999991 117.72791999999993L78.50867000000005 118.95666999999992L79.01176999999996 119.60376999999994L78.89946999999995 120.00407999999993L78.0744699999999 119.93158999999991L76.94466999999997 120.23824000000002z">
      <title id="t202">Quatrième circonscription de la Loire</title>
      <desc id="d202">Cantons de : Bourg-Argental, Le Chambon-Feugerolles, Firminy, Pélussin, Saint-Genest-Malifaux, Saint-Bonnet-le-Château, Saint-Just-Saint-Rambert, Saint-Jean-Soleymieux</desc>
    </path><path class="circo" id="id-042-05" d="M60.76427000000001 17.05462L58.517169999999965 15.508799999999951L57.44756999999993 15.894549999999981L56.798270000000116 16.883119999999963L54.34637000000009 17.245490000000018L53.44306999999992 17.922939999999926L53.238969999999995 19.537609999999972L52.353270000000066 20.373129999999946L52.08617000000004 21.55571999999995L52.53717000000006 22.231139999999982L52.44776999999999 23.840010000000007L51.68437000000006 24.239010000000007L51.81016999999997 25.01475999999991L51.33636999999999 26.078319999999962L50.31786999999997 27.30376000000001L47.62647000000004 27.425880000000006L47.400769999999966 27.723379999999906L48.27126999999996 29.33534999999995L49.00637000000006 29.760719999999992L49.864869999999996 31.182579999999916L50.52076999999997 31.600119999999947L51.993870000000015 31.218689999999924L52.060069999999996 31.204369999999926L52.44146999999998 32.86641999999995L52.58387000000005 33.21924000000001L51.57137 35.205859999999916L50.693070000000034 34.380379999999946L49.122370000000046 34.78683000000001L48.68777 34.14727999999991L46.78947000000005 34.166619999999966L47.14677000000006 35.47133999999994L48.075969999999984 36.15050999999994L49.50117 36.56346999999994L50.61316999999997 37.12903999999992L51.372870000000034 38.13616000000002L51.61207000000002 38.94503999999995L51.04566999999997 39.54684999999995L52.582269999999994 40.93976999999995L53.409770000000094 41.06040999999993L55.4749700000001 42.414159999999924L54.757670000000076 43.83263999999997L55.491570000000024 44.14664999999991L53.53706999999997 45.59773999999993L52.794669999999996 45.463250000000016L51.561969999999974 45.601159999999936L50.866070000000036 46.05066999999997L50.39716999999996 47.57952L49.15427 47.36250999999993L48.477269999999976 48.908759999999916L47.03767000000005 49.77862999999991L46.68347000000006 50.564520000000016L46.60776999999996 51.26904000000002L45.978470000000016 51.646049999999946L45.69146999999998 50.939250000000015L45.31786999999997 50.86748L44.90256999999997 50.79607999999996L44.55696999999998 50.04426999999998L44.814269999999965 47.641309999999976L43.67497000000003 47.22890999999993L43.64237000000003 47.63972000000001L42.84787000000006 47.69686999999999L42.29257000000007 48.760659999999916L41.144769999999994 49.07651999999996L40.483370000000036 50.00007999999991L39.67667000000006 49.11302999999998L39.05167000000006 47.708349999999996L36.73687000000007 45.676289999999995L35.071770000000015 47.13328000000001L34.91047000000003 46.752610000000004L34.134469999999965 46.50088999999991L33.593669999999975 45.40326999999991L32.62337000000002 44.666009999999915L31.42667000000006 44.360329999999976L31.154769999999985 44.677979999999934L30.934669999999983 44.98743999999999L30.591369999999984 44.829959999999915L30.707570000000032 44.08335999999997L29.868870000000015 43.31394L29.158019999999965 42.31626999999992L28.024800000000027 41.89314999999999L27.990499999999997 41.48541L26.590900000000033 40.68134999999995L24.12570000000005 40.385029999999915L22.636799999999994 41.178L21.796799999999962 41.05221999999992L21.47569999999996 41.84316000000001L22.28660000000002 44.01541999999995L22.38790000000006 44.80442999999991L24.16719999999998 46.34649999999999L23.089900000000057 48.38765000000001L21.938099999999963 48.464939999999956L20.028500000000008 46.43504999999993L19.266200000000026 46.562439999999924L18.464900000000057 47.40549999999996L18.723799999999983 49.015109999999936L19.80849999999998 49.59611999999993L20.166500000000042 50.74261000000001L19.943200000000047 51.096090000000004L19.53200000000004 51.03078999999991L19.11620000000005 50.703919999999925L18.90179999999998 51.05422999999996L17.740300000000047 51.35850999999991L16.682700000000068 52.56522999999993L15.90160000000003 52.38169999999991L15.216800000000035 51.40036999999995L14.832200000000057 51.510459999999966L14.350500000000011 52.584389999999985L14.932300000000055 54.06198999999992L14.143400000000042 54.811399999999935L13.47479999999996 54.366859999999974L11.544399999999996 54.352829999999926L10.950799999999958 53.83249999999998L11.50890000000004 52.82087000000001L11.465400000000045 51.22021999999993L10.24090000000001 50.22370999999998L6.749699999999962 48.68117999999993L5.65440000000001 48.39118999999994L5.183499999999981 47.778569999999945L3.981700000000046 45.12414000000001L3.026100000000042 44.343959999999925L2.376600000000053 43.29377999999997L0.05330000000003565 42.31772999999998L0.04259999999999309 42.29010999999991L0.06540000000006785 40.186739999999986L0.9447000000000116 39.28409999999997L0.7154000000000451 38.03990999999996L1.3788000000000693 37.01063999999997L4.137900000000059 37.921539999999936L4.866300000000024 37.51330999999993L5.2543000000000575 36.31637999999998L5.663700000000063 36.21130999999991L7.507600000000025 37.17550999999992L8.27049999999997 36.85713999999996L9.077300000000037 35.89815999999996L9.888299999999958 35.723589999999945L11.035799999999995 35.29589999999996L11.143199999999979 34.47947999999997L11.759700000000066 33.915160000000014L11.788599999999974 33.88799999999992L11.38620000000003 33.82093999999995L11.162500000000023 33.03946999999994L10.417100000000005 31.50513000000001L10.226999999999975 29.359839999999963L9.538599999999974 27.351040000000012L10.872100000000046 22.79582999999991L9.302699999999959 20.356449999999995L8.508299999999963 20.103259999999977L9.16840000000002 17.74655999999993L8.500599999999963 16.26064999999994L8.350300000000061 14.659179999999992L9.730199999999968 14.044359999999983L8.25490000000002 11.08678999999995L8.098700000000008 9.392229999999927L8.559600000000046 8.284159999999929L7.781700000000001 6.79406999999992L6.7970000000000255 5.9899299999999585L6.451000000000022 4.363039999999955L7.211999999999989 4.039679999999976L9.291500000000042 4.598389999999995L9.71550000000002 2.299219999999991L13.359199999999987 1.699989999999957L14.918499999999995 1.5065899999999601L15.664300000000026 0.042059999999992215L16.453300000000013 0.2613299999999299L17.522699999999986 0L17.883199999999988 0.23439999999993688L18.30690000000004 1.880359999999996L18.19169999999997 3.938040000000001L17.34050000000002 4.770569999999907L17.35050000000001 6.028879999999958L16.723500000000058 7.549599999999941L18.36609999999996 8.35600999999997L19.0163 8.852459999999951L20.6404 8.568499999999972L23.10170000000005 8.977620000000002L23.73090000000002 9.36250999999993L23.63970000000006 10.59773999999993L25.087400000000002 13.03033999999991L27.596300000000042 12.764959999999974L28.399099999999976 13.062739999999962L28.71029999999996 12.77060999999992L30.298270000000002 11.670569999999998L31.16026999999997 10.746809999999982L31.804470000000038 10.956759999999917L33.16637000000003 10.414659999999913L34.888469999999984 9.520809999999983L37.33646999999996 11.705190000000016L37.40116999999998 12.114119999999957L37.43977000000007 12.11460999999997L38.24517000000003 12.276650000000018L41.204169999999976 12.560209999999984L41.93687 12.198579999999993L41.77526999999998 11.801439999999957L41.78197 10.542239999999993L42.14737000000002 10.724579999999946L43.59127000000001 10.005639999999971L44.72546999999997 11.158860000000004L45.18746999999996 12.075939999999946L45.32217000000003 11.985219999999913L46.91926999999998 10.775170000000003L48.00547000000006 11.227120000000014L48.32556999999997 12.377560000000017L47.60287000000005 13.338899999999967L47.19916999999998 13.367869999999925L47.584370000000035 14.507999999999925L50.06987000000004 14.630839999999921L50.73707000000002 13.096619999999916L51.80717000000004 12.481899999999996L52.56887000000006 12.865979999999922L52.95807000000002 12.852599999999939L53.82786999999996 11.184399999999982L54.53006999999991 11.571129999999926L55.52796999999998 10.893779999999992L56.53677000000005 11.456219999999917L57.581870000000094 11.25326999999993L57.81066999999996 10.895620000000008L56.948369999999954 9.505949999999984L57.91877000000011 8.161200000000008L59.07876999999996 7.7224299999999175L59.050170000000094 6.898739999999975L60.63686999999993 6.919260000000008L61.91277000000002 8.466679999999997L62.01546999999994 8.944209999999998L59.797570000000064 9.861220000000003L59.73836999999992 10.653119999999944L60.60387000000003 11.509990000000016L61.28027000000009 11.776399999999967L62.90077000000008 12.66258999999991L63.34377000000006 13.273119999999949L62.71257000000003 14.783609999999953L62.07436999999993 15.297019999999975L61.5392700000001 17.194459999999935L60.76427000000001 17.05462z">
      <title id="t203">Cinquième circonscription de la Loire</title>
      <desc id="d203">Cantons de : Belmont-de-la-Loire, Charlieu, La Pacaudière, Perreux, Roanne Nord, Roanne Sud, Saint-Haon-le-Châtel, Saint-Just-en-Chevalet, Saint-Symphorien-de-Lay</desc>
    </path><path class="circo" id="id-042-06" d="M65.23507000000006 82.49599L64.30307000000005 81.93162999999993L64.06446999999991 80.42361999999991L63.59007000000008 79.81619L61.97127000000012 79.01275999999996L60.93756999999994 78.72259999999994L60.81657000000007 78.10627L59.43527000000006 76.10065999999995L59.726369999999974 75.56264999999996L59.43026999999995 75.02289999999994L57.16656999999998 73.96771000000001L57.40557000000001 73.65738999999996L57.164069999999924 72.52679999999998L57.8063699999999 71.58025999999995L57.132169999999974 70.63797L57.743970000000104 70.07201999999995L57.95016999999996 68.82920000000001L58.77006999999992 67.87861999999996L59.31937000000005 65.84623999999997L60.31207000000006 65.11023L59.85557000000006 64.14766999999995L59.27096999999992 63.75112999999999L57.79137000000003 64.43723L56.59197000000006 64.23537999999996L55.73687000000007 61.790039999999976L56.51777000000004 60.84638999999993L58.061669999999935 60.213559999999916L57.99086999999997 57.73298999999997L58.311070000000086 57.44984999999997L59.029769999999985 57.90942999999993L58.38737000000003 56.14850000000001L58.57287000000008 55.80466999999999L58.02636999999993 55.249079999999935L58.41177000000005 55.188819999999964L58.67777000000012 54.12993999999992L59.26446999999996 53.70524L58.625470000000064 52.668589999999995L59.265670000000114 52.142510000000016L59.73536999999999 50.97793999999999L59.59346999999991 50.325759999999946L56.75636999999995 50.203449999999975L55.173169999999914 48.89314000000002L54.70286999999996 47.27409L53.79227000000003 46.39413999999999L53.53706999999997 45.59773999999993L52.794669999999996 45.463250000000016L51.561969999999974 45.601159999999936L50.866070000000036 46.05066999999997L50.39716999999996 47.57952L49.15427 47.36250999999993L48.477269999999976 48.908759999999916L47.03767000000005 49.77862999999991L46.68347000000006 50.564520000000016L46.60776999999996 51.26904000000002L45.978470000000016 51.646049999999946L45.69146999999998 50.939250000000015L45.31786999999997 50.86748L44.90256999999997 50.79607999999996L44.55696999999998 50.04426999999998L44.814269999999965 47.641309999999976L43.67497000000003 47.22890999999993L43.64237000000003 47.63972000000001L42.84787000000006 47.69686999999999L42.29257000000007 48.760659999999916L41.144769999999994 49.07651999999996L40.483370000000036 50.00007999999991L39.67667000000006 49.11302999999998L39.05167000000006 47.708349999999996L36.73687000000007 45.676289999999995L35.071770000000015 47.13328000000001L34.91047000000003 46.752610000000004L34.134469999999965 46.50088999999991L33.593669999999975 45.40326999999991L32.62337000000002 44.666009999999915L31.42667000000006 44.360329999999976L31.154769999999985 44.677979999999934L30.934669999999983 44.98743999999999L30.591369999999984 44.829959999999915L30.707570000000032 44.08335999999997L29.868870000000015 43.31394L29.158019999999965 42.31626999999992L28.024800000000027 41.89314999999999L27.990499999999997 41.48541L26.590900000000033 40.68134999999995L24.12570000000005 40.385029999999915L22.636799999999994 41.178L21.796799999999962 41.05221999999992L21.47569999999996 41.84316000000001L22.28660000000002 44.01541999999995L22.38790000000006 44.80442999999991L24.16719999999998 46.34649999999999L23.089900000000057 48.38765000000001L21.938099999999963 48.464939999999956L20.028500000000008 46.43504999999993L19.266200000000026 46.562439999999924L18.464900000000057 47.40549999999996L18.723799999999983 49.015109999999936L19.80849999999998 49.59611999999993L20.166500000000042 50.74261000000001L19.943200000000047 51.096090000000004L19.53200000000004 51.03078999999991L19.11620000000005 50.703919999999925L18.90179999999998 51.05422999999996L17.740300000000047 51.35850999999991L16.682700000000068 52.56522999999993L15.90160000000003 52.38169999999991L15.216800000000035 51.40036999999995L14.832200000000057 51.510459999999966L14.350500000000011 52.584389999999985L14.932300000000055 54.06198999999992L14.143400000000042 54.811399999999935L13.47479999999996 54.366859999999974L11.544399999999996 54.352829999999926L10.950799999999958 53.83249999999998L11.50890000000004 52.82087000000001L11.465400000000045 51.22021999999993L10.24090000000001 50.22370999999998L6.749699999999962 48.68117999999993L5.65440000000001 48.39118999999994L5.183499999999981 47.778569999999945L4.440299999999979 48.0068L4.2853999999999814 48.7432L3.45900000000006 49.580859999999916L1.881399999999985 49.66423999999995L2.2857999999999947 50.74407999999994L2.9868999999999915 50.62860999999998L2.8722999999999956 51.422219999999925L2.326599999999985 52.03926999999999L2.187400000000025 52.16874999999993L2.8477000000000317 54.58438000000001L1.635499999999979 58.11853999999994L0.14660000000003492 58.92211999999995L0 59.66185999999993L0.5951999999999771 60.280719999999974L2.981700000000046 61.20018999999991L3.7894999999999754 62.20313999999996L3.376100000000065 62.914609999999925L3.148900000000026 63.107849999999985L2.8659000000000106 63.68997999999999L4.467700000000036 65.44480999999996L4.90179999999998 64.75235999999995L5.308200000000056 64.78256999999996L6.345400000000041 66.96746999999993L7.4401000000000295 67.45416999999998L7.108299999999986 68.08024L7.564300000000003 69.03967999999998L7.009800000000041 70.43606L7.156700000000001 71.6058099999999L8.597200000000043 73.68548999999996L9.523400000000038 75.80453999999997L10.568399999999997 76.9421299999999L10.821800000000053 78.07137L11.09559999999999 78.71141999999998L12.217200000000048 79.33510999999999L13.895800000000008 79.57979L14.240000000000009 80.73046999999997L14.899099999999976 81.00911999999994L16.0009 82.16928999999993L18.249599999999987 83.01972L20.296600000000012 85.1241L20.920100000000048 86.04361999999992L21.355000000000018 87.14112999999998L22.19270000000006 87.98208999999997L22.563600000000065 88.49167999999997L24.477100000000064 87.94250999999997L27.518699999999967 88.91895L27.56770000000006 88.92513999999994L29.183220000000006 88.6019L30.34307000000001 89.05016L31.62927000000002 90.12752L32.04476999999997 90.01623999999993L32.853270000000066 88.72122000000002L33.82567000000006 88.04811999999993L33.92687000000001 87.66026L33.37187000000006 87.13542999999993L34.75407000000007 86.40134L34.223370000000045 85.29156999999998L34.88497000000007 85.37293L35.391970000000015 84.42634999999996L40.30457000000001 86.34791999999993L40.85037 85.85296999999991L41.99097000000006 86.18070999999998L43.51497000000006 87.38042999999993L43.84236999999996 85.42369999999994L44.39716999999996 84.85690999999997L44.63187000000005 83.70764999999994L44.16037000000006 82.59645999999998L44.242470000000026 81.79458L43.71056999999996 81.19333999999992L41.38507000000004 80.90303999999992L41.535169999999994 80.05817000000002L42.79817000000003 79.06477999999993L42.92677000000003 78.28180999999995L44.43727000000001 77.69948L45.18687 77.42530999999997L45.52337 80.14883999999995L46.03476999999998 80.58476999999993L46.73977000000002 80.55535999999995L47.026970000000006 81.23843L45.710770000000025 82.75513000000001L45.570569999999975 83.15116999999998L46.08797000000004 84.30464999999992L47.87647000000004 85.37099L48.09267 85.62272999999993L49.449569999999994 87.60514L49.32217000000003 88.33557999999994L48.22437000000002 88.30475000000001L47.58897000000002 88.65870999999993L46.85546999999997 89.02199999999993L46.53426999999999 89.77436999999998L47.236670000000004 90.82808L47.20607000000007 91.66359999999997L47.22596999999996 92.61329999999998L49.12607000000003 92.06907999999999L49.89896999999996 92.35696999999993L50.44217000000003 91.90140999999994L52.39886999999999 92.38389999999993L52.70757000000003 91.62525999999991L55.380469999999946 92.89414L55.771970000000124 92.15242L55.351369999999974 89.28415999999993L56.65686999999991 87.17039L57.177569999999946 87.81467999999995L57.991170000000125 88.02784999999994L59.17746999999997 87.61460999999997L60.38506999999993 87.72787999999991L60.52806999999996 88.75920999999994L61.50127000000009 89.17674999999997L61.867869999999925 89.32542999999998L62.323870000000056 88.26238000000001L61.69936999999993 86.81112999999993L61.933869999999956 86.80664000000002L63.78667000000007 88.17861999999991L64.69306999999992 86.64599999999996L65.60757000000001 85.46875L65.45456999999999 85.07321000000002L65.82776999999999 84.3483799999999L66.39756999999997 83.26062000000002L65.23507000000006 82.49599z">
      <title id="t204">Sixième circonscription de la Loire</title>
      <desc id="d204">Cantons de : Boën, Chazelles-sur-Lyon, Feurs, Montbrison, Néronde, Noirétable, Saint-Galmier, Saint-Georges-en-Couzan, Saint-Germain-Laval</desc>
    </path></svg>