<svg xmlns="http://www.w3.org/2000/svg" version="1.1" xmlns:xlink="http://www.w3.org/1999/xlink" xmlns:svgjs="http://svgjs.dev/svgjs" viewBox="970.79553 772.63282 90.66026999999997 127.15491999999995"><path class="circo" id="042-01" d="M 1029.109,874.9132 1028.348,874.22664 1027.6724,874.92554 1027.9845,875.56457 1027.6731,876.28779 1027.3603,877.0262 1026.738,877.6306 1025.6874,878.37601 1022.1539,879.79201 1022.4812,879.1792 1021.8513,878.75231 1021.9011,878.36935 1022.381,877.87024 1020.4152,877.37121 1019.2436,877.56388 1018.2283,876.89008 1017.8681,875.8732 1017.7042,875.09941 1018.6704,874.37182 1018.0289,873.05879 1018.7324,872.10957 1018.5269,871.76247 1020.8264,871.50698 1021.9385,871.82428 1022.3168,871.77374 1022.7457,869.97422 1023.7141,870.56676 1025.2146,870.17279 1026.508,869.62386 1026.91,869.79128 1028.0752,869.42709 1029.648,869.78546 1029.8318,870.35208 1031.9006,870.64106 1031.9201,871.49607 1032.8243,872.40308 1033.4056,871.41487 1034.8838,870.95501 1034.9079,870.17606 1035.8996,870.32856 1036.4645,870.85113 1037.0248,872.31765 1036.849,873.81717 1036.0078,874.73005 1036.0404,875.14411 1036.808,876.61141 1035.5176,876.81291 1034.6443,877.41825 1034.1817,876.73203 1033.6943,877.19812 1033.2738,876.93379 1033.602,876.27947 1032.6827,876.38584 1033.011,874.79958 1030.8587,874.64162 1029.109,874.9132 z">
      <title id="t199">Première circonscription de la Loire</title>
      <desc id="d199">Cantons de : Saint-Etienne Nord-Est I, Saint-Etienne Nord-Est II, Saint-Etienne Nord-Ouest I, Saint-Etienne Nord-Ouest II.</desc>
    </path><path class="circo" id="042-02" d="M 1034.8138,880.14899 1033.8893,878.75727 1033.0678,878.69323 1031.411,879.88776 1030.6555,879.53633 1030.3185,879.78983 1029.3365,879.15111 1028.4817,877.36855 1027.3603,877.0262 1027.6731,876.28779 1027.9845,875.56457 1027.6724,874.92554 1028.348,874.22664 1029.109,874.9132 1030.8587,874.64162 1033.011,874.79958 1032.6827,876.38584 1033.602,876.27947 1033.2738,876.93379 1033.6943,877.19812 1034.1817,876.73203 1034.6443,877.41825 1035.5176,876.81291 1036.808,876.61141 1037.7131,877.3941 1037.3216,880.26204 1037.9348,880.82186 1038.4175,881.44468 1037.3271,881.94728 1036.9588,881.7758 1036.3764,882.84287 1036.1823,882.58743 1034.9953,881.39276 1034.8138,880.14899 z">
      <title id="t200">Deuxième circonscription de la Loire</title>
      <desc id="d200">Cantons de : Saint-Etienne Sud-Est I, Saint-Etienne Sud-Est II, Saint-Etienne Sud-Est III, Saint-Etienne Sud-Ouest I, Saint-Etienne Sud-Ouest II</desc>
    </path><path class="circo" id="042-03" d="M 1051.6594,862.4726 1051.5282,862.17586 1050.9197,861.5707 1050.0524,859.12644 1049.1224,858.22908 1048.1027,858.84474 1046.7638,858.80661 1045.3604,857.40581 1043.3765,857.66073 1041.1935,858.53801 1040.5552,858.05214 1039.7651,858.09938 1039.6586,856.93018 1036.6233,856.9812 1036.2501,857.70603 1036.4031,858.10157 1035.4886,859.27882 1034.5822,860.81144 1032.7294,859.43946 1032.4949,859.44395 1033.1194,860.8952 1032.6634,861.95825 1032.2968,861.80957 1031.3236,861.39203 1031.1806,860.3607 1029.973,860.24743 1028.7867,860.66067 1027.9731,860.4475 1027.4524,859.80321 1026.1469,861.91698 1026.5675,864.78524 1026.176,865.52696 1023.5031,864.25808 1023.1944,865.01672 1021.2377,864.53423 1020.6945,864.98979 1020.8643,866.27611 1022.457,868.2705 1022.7457,869.97422 1023.7141,870.56676 1025.2146,870.17279 1026.508,869.62386 1026.91,869.79128 1028.0752,869.42709 1029.648,869.78546 1029.8318,870.35208 1031.9006,870.64106 1031.9201,871.49607 1032.8243,872.40308 1033.4056,871.41487 1034.8838,870.95501 1034.9079,870.17606 1035.8996,870.32856 1036.4645,870.85113 1037.0248,872.31765 1036.849,873.81717 1036.0078,874.73005 1036.0404,875.14411 1036.808,876.61141 1037.7131,877.3941 1037.3216,880.26204 1037.9348,880.82186 1039.1356,880.45874 1039.949,880.65519 1041.3105,881.60903 1042.5385,881.64607 1042.7803,882.44852 1043.4952,882.88764 1044.6527,882.67939 1045.5254,881.33879 1045.8416,881.28299 1046.6672,881.39664 1048.9122,880.41214 1049.3017,876.66021 1049.7332,875.97094 1050.5188,875.67952 1050.6145,874.04277 1051.1734,873.416 1053.0799,873.58466 1053.9725,872.88223 1054.5896,871.48298 1054.8236,869.83723 1054.4623,869.68096 1053.9066,870.23146 1053.1454,869.01208 1052.4635,868.88089 1052.1608,867.73864 1052.4415,867.43328 1052.0715,865.38927 1052.1764,863.75127 1053.0996,862.94444 1053.4128,862.1914 1053.5113,862.16616 1055.0996,860.74492 1055.2971,860.32598 1054.2989,859.03501 1053.888,858.92901 1052.8395,859.65048 1052.0478,859.51243 1051.9529,860.77332 1052.9087,862.12392 1051.6594,862.4726 z">
      <title id="t201">Troisième circonscription de la Loire</title>
      <desc id="d201">Cantons de : La Grand-Croix, Rive-de-Gier, Saint-Chamond Nord, Saint-Chamond Sud, Saint-Héand.</desc>
    </path><path class="circo" id="042-04" d="M 1047.7402,892.87106 1047.124,894.8768 1047.7313,895.34931 1048.3104,895.98977 1048.3112,897.22959 1046.5676,898.35558 1044.5465,897.97601 1042.9762,898.58436 1042.4414,899.23164 1040.899,898.63627 1039.8344,899.68888 1038.5758,899.78774 1037.9256,899.27655 1037.5952,899.09958 1035.6956,897.22343 1034.725,896.48781 1033.7555,894.65684 1032.5297,894.57265 1030.1118,895.99569 1029.7727,896.72594 1028.7284,896.19761 1028.4097,896.44651 1026.6243,894.29458 1027.4252,893.36956 1027.5666,892.58313 1028.1134,892.07564 1027.9908,891.44568 1026.8047,891.09751 1025.0493,889.36737 1027.7462,887.0692 1028.1394,887.11419 1026.4725,884.29037 1025.4558,883.60077 1023.0557,883.01674 1023.0155,883.80935 1022.6833,884.00316 1021.9885,883.85775 1021.4879,884.45852 1019.9473,884.37456 1019.8768,882.54072 1018.7182,882.93192 1017.6276,881.28747 1017.2208,881.32136 1016.1161,880.74924 1013.9372,881.65623 1012.2282,880.50994 1010.6371,880.84813 1009.136,881.42895 1010.1809,882.77474 1010.0072,883.59376 1007.0919,883.33266 1006.1327,884.12862 1006.022,884.97457 1005.2321,884.39706 1003.6727,884.88747 1003.3626,886.5388 1002.8765,887.24212 1002.1713,886.81658 1001.4612,885.28991 1000.7155,884.87042 999.90795,885.10158 999.81035,885.50872 998.84983,886.16377 998.60663,888.19263 998.26593,888.18816 998.09963,887.53499 997.06913,884.83062 996.25723,884.80933 995.63343,882.94511 995.01073,882.44694 993.54523,883.10338 992.40503,882.64612 991.65183,882.96726 991.29043,884.14072 989.92073,885.02767 990.00093,886.5469 988.89063,887.58154 988.59423,886.92264 988.13753,884.69876 987.69023,883.15432 987.89163,881.47083 987.53903,880.27221 988.23383,878.31668 988.95973,877.93684 989.53893,876.8116 989.92453,876.92302 991.52943,875.87417 993.73493,875.0936 993.73763,874.96277 993.47013,874.24376 994.74203,873.6593 994.23073,873.0474 994.57373,872.31074 994.09993,870.83792 995.63643,869.06446 995.49863,867.98712 994.54073,867.3724 993.94053,867.32025 993.86933,866.99826 993.33513,865.71595 992.30443,862.12283 992.98823,860.61491 993.35913,861.1245 995.27263,860.57533 998.31423,861.55177 998.36323,861.55796 999.97875,861.23472 1001.1386,861.68298 1002.4248,862.76034 1002.8403,862.64906 1003.6488,861.35404 1004.6212,860.68094 1004.7224,860.29308 1004.1674,859.76825 1005.5496,859.03416 1005.0189,857.92439 1005.6805,858.00575 1006.1875,857.05917 1011.1001,858.98074 1011.6459,858.48579 1012.7865,858.81353 1014.3105,860.01325 1014.6379,858.05652 1015.1927,857.48973 1015.4274,856.34047 1014.9559,855.22928 1015.038,854.4274 1014.5061,853.82616 1012.1806,853.53586 1012.3307,852.69099 1013.5937,851.6976 1013.7223,850.91463 1015.2328,850.3323 1015.9824,850.05813 1016.3189,852.78166 1016.8303,853.21759 1017.5353,853.18818 1017.8225,853.87125 1016.5063,855.38795 1016.3661,855.78399 1016.8835,856.93747 1018.672,858.00381 1018.8882,858.25555 1020.2451,860.23796 1020.1177,860.9684 1019.0199,860.93757 1018.3845,861.29153 1017.651,861.65482 1017.3298,862.40719 1018.0322,863.4609 1018.0016,864.29642 1018.0215,865.24612 1019.9216,864.7019 1020.6945,864.98979 1020.8643,866.27611 1022.457,868.2705 1022.7457,869.97422 1022.3168,871.77374 1021.9385,871.82428 1020.8264,871.50698 1018.5269,871.76247 1018.7324,872.10957 1018.0289,873.05879 1018.6704,874.37182 1017.7042,875.09941 1017.8681,875.8732 1018.2283,876.89008 1019.2436,877.56388 1020.4152,877.37121 1022.381,877.87024 1021.9011,878.36935 1021.8513,878.75231 1022.4812,879.1792 1022.1539,879.79201 1025.6874,878.37601 1026.738,877.6306 1027.3603,877.0262 1028.4817,877.36855 1029.3365,879.15111 1030.3185,879.78983 1030.6555,879.53633 1031.411,879.88776 1033.0678,878.69323 1033.8893,878.75727 1034.8138,880.14899 1034.9953,881.39276 1036.1823,882.58743 1036.3764,882.84287 1036.9588,881.7758 1037.3271,881.94728 1038.4175,881.44468 1037.9348,880.82186 1039.1356,880.45874 1039.949,880.65519 1041.3105,881.60903 1042.5385,881.64607 1042.7803,882.44852 1043.4952,882.88764 1044.6527,882.67939 1045.5254,881.33879 1045.8416,881.28299 1046.6672,881.39664 1048.9122,880.41214 1049.3017,876.66021 1049.7332,875.97094 1050.5188,875.67952 1050.6145,874.04277 1051.1734,873.416 1053.0799,873.58466 1053.9725,872.88223 1054.5896,871.48298 1054.8236,869.83723 1056.3594,870.02744 1058.2151,868.06836 1059.6052,868.95837 1060.0223,870.53342 1059.6358,870.68858 1061.1994,872.75815 1061.029,873.32512 1061.0804,873.80748 1061.4554,874.84381 1061.4558,875.5573 1060.0272,877.0331 1060.1663,878.61332 1061.022,879.77288 1061.3619,881.35464 1061.2068,882.96 1061.1195,883.65873 1058.5549,884.12717 1058.3242,884.99912 1056.641,885.6085 1056.1916,886.16208 1054.6707,886.00739 1051.1365,888.43444 1051.5296,889.31588 1050.7363,889.79469 1049.2024,890.36074 1049.3042,891.58949 1049.8073,892.23659 1049.695,892.6369 1048.87,892.56441 1047.7402,892.87106 z">
      <title id="t202">Quatrième circonscription de la Loire</title>
      <desc id="d202">Cantons de : Bourg-Argental, Le Chambon-Feugerolles, Firminy, Pélussin, Saint-Genest-Malifaux, Saint-Bonnet-le-Château, Saint-Just-Saint-Rambert, Saint-Jean-Soleymieux</desc>
    </path><path class="circo" id="042-05" d="M 1031.5598,789.68744 1029.3127,788.14162 1028.2431,788.52737 1027.5938,789.51594 1025.1419,789.87831 1024.2386,790.55576 1024.0345,792.17043 1023.1488,793.00595 1022.8817,794.18854 1023.3327,794.86396 1023.2433,796.47283 1022.4799,796.87183 1022.6057,797.64758 1022.1319,798.71114 1021.1134,799.93658 1018.422,800.0587 1018.1963,800.3562 1019.0668,801.96817 1019.8019,802.39354 1020.6604,803.8154 1021.3163,804.23294 1022.7894,803.85151 1022.8556,803.83719 1023.237,805.49924 1023.3794,805.85206 1022.3669,807.83868 1021.4886,807.0132 1019.9179,807.41965 1019.4833,806.7801 1017.585,806.79944 1017.9423,808.10416 1018.8715,808.78333 1020.2967,809.19629 1021.4087,809.76186 1022.1684,810.76898 1022.4076,811.57786 1021.8412,812.17967 1023.3778,813.57259 1024.2053,813.69323 1026.2705,815.04698 1025.5532,816.46546 1026.2871,816.77947 1024.3326,818.23056 1023.5902,818.09607 1022.3575,818.23398 1021.6616,818.68349 1021.1927,820.21234 1019.9498,819.99533 1019.2728,821.54158 1017.8332,822.41145 1017.479,823.19734 1017.4033,823.90186 1016.774,824.27887 1016.487,823.57207 1016.1134,823.5003 1015.6981,823.4289 1015.3525,822.67709 1015.6098,820.27413 1014.4705,819.86173 1014.4379,820.27254 1013.6434,820.32969 1013.0881,821.39348 1011.9403,821.70934 1011.2789,822.6329 1010.4722,821.74585 1009.8472,820.34117 1007.5324,818.30911 1005.8673,819.7661 1005.706,819.38543 1004.93,819.13371 1004.3892,818.03609 1003.4189,817.29883 1002.2222,816.99315 1001.9503,817.3108 1001.7302,817.62026 1001.3869,817.46278 1001.5031,816.71618 1000.6644,815.94676 999.95355,814.94909 998.82033,814.52597 998.78603,814.11823 997.38643,813.31417 994.92123,813.01785 993.43233,813.81082 992.59233,813.68504 992.27123,814.47598 993.08213,816.64824 993.18343,817.43725 994.96273,818.97932 993.88543,821.02047 992.73363,821.09776 990.82403,819.06787 990.06173,819.19526 989.26043,820.03832 989.51933,821.64793 990.60403,822.22894 990.96203,823.37543 990.73873,823.72891 990.32753,823.66361 989.91173,823.33674 989.69733,823.68705 988.53583,823.99133 987.47823,825.19805 986.69713,825.01452 986.01233,824.03319 985.62773,824.14328 985.14603,825.21721 985.72783,826.69481 984.93893,827.44422 984.27033,826.99968 982.33993,826.98565 981.74633,826.46532 982.30443,825.45369 982.26093,823.85304 981.03643,822.85653 977.54523,821.314 976.44993,821.02401 975.97903,820.41139 974.77723,817.75696 973.82163,816.97678 973.17213,815.9266 970.84883,814.95055 970.83813,814.92293 970.86093,812.81956 971.74023,811.91692 971.51093,810.67273 972.17433,809.64346 974.93343,810.55436 975.66183,810.14613 976.04983,808.9492 976.45923,808.84413 978.30313,809.80833 979.06603,809.48996 979.87283,808.53098 980.68383,808.35641 981.83133,807.92872 981.93873,807.1123 982.55523,806.54798 982.58413,806.52082 982.18173,806.45376 981.95803,805.67229 981.21263,804.13795 981.02253,801.99266 980.33413,799.98386 981.66763,795.42865 980.09823,792.98927 979.30383,792.73608 979.96393,790.37938 979.29613,788.89347 979.14583,787.292 980.52573,786.67718 979.05043,783.71961 978.89423,782.02505 979.35513,780.91698 978.57723,779.42689 977.59253,778.62275 977.24653,776.99586 978.00753,776.6725 980.08703,777.23121 980.51103,774.93204 984.15473,774.33281 985.71403,774.13941 986.45983,772.67488 987.24883,772.89415 988.31823,772.63282 988.67873,772.86722 989.10243,774.51318 988.98723,776.57086 988.13603,777.40339 988.14603,778.6617 987.51903,780.18242 989.16163,780.98883 989.81183,781.48528 991.43593,781.20132 993.89723,781.61044 994.52643,781.99533 994.43523,783.23056 995.88293,785.66316 998.39183,785.39778 999.19463,785.69556 999.50583,785.40343 1001.0938,784.30339 1001.9558,783.37963 1002.6,783.58958 1003.9619,783.04748 1005.684,782.15363 1008.132,784.33801 1008.1967,784.74694 1008.2353,784.74743 1009.0407,784.90947 1011.9997,785.19303 1012.7324,784.8314 1012.5708,784.43426 1012.5775,783.17506 1012.9429,783.3574 1014.3868,782.63846 1015.521,783.79168 1015.983,784.70876 1016.1177,784.61804 1017.7148,783.40799 1018.801,783.85994 1019.1211,785.01038 1018.3984,785.97172 1017.9947,786.00069 1018.3799,787.14082 1020.8654,787.26366 1021.5326,785.72944 1022.6027,785.11472 1023.3644,785.4988 1023.7536,785.48542 1024.6234,783.81722 1025.3256,784.20395 1026.3235,783.5266 1027.3323,784.08904 1028.3774,783.88609 1028.6062,783.52844 1027.7439,782.13877 1028.7143,780.79402 1029.8743,780.35525 1029.8457,779.53156 1031.4324,779.55208 1032.7083,781.0995 1032.811,781.57703 1030.5931,782.49404 1030.5339,783.28594 1031.3994,784.14281 1032.0758,784.40922 1033.6963,785.29541 1034.1393,785.90594 1033.5081,787.41643 1032.8699,787.92984 1032.3348,789.82728 1031.5598,789.68744 z">
      <title id="t203">Cinquième circonscription de la Loire</title>
      <desc id="d203">Cantons de : Belmont-de-la-Loire, Charlieu, La Pacaudière, Perreux, Roanne Nord, Roanne Sud, Saint-Haon-le-Châtel, Saint-Just-en-Chevalet, Saint-Symphorien-de-Lay</desc>
    </path><path class="circo" id="042-06" d="M 1036.0306,855.12881 1035.0986,854.56445 1034.86,853.05644 1034.3856,852.44901 1032.7668,851.64558 1031.7331,851.35542 1031.6121,850.73909 1030.2308,848.73348 1030.5219,848.19547 1030.2258,847.65572 1027.9621,846.60053 1028.2011,846.29021 1027.9596,845.15962 1028.6019,844.21308 1027.9277,843.27079 1028.5395,842.70484 1028.7457,841.46202 1029.5656,840.51144 1030.1149,838.47906 1031.1076,837.74305 1030.6511,836.78049 1030.0665,836.38395 1028.5869,837.07005 1027.3875,836.8682 1026.5324,834.42286 1027.3133,833.47921 1028.8572,832.84638 1028.7864,830.36581 1029.1066,830.08267 1029.8253,830.54225 1029.1829,828.78132 1029.3684,828.43749 1028.8219,827.8819 1029.2073,827.82164 1029.4733,826.76276 1030.06,826.33806 1029.421,825.30141 1030.0612,824.77533 1030.5309,823.61076 1030.389,822.95858 1027.5519,822.83627 1025.9687,821.52596 1025.4984,819.90691 1024.5878,819.02696 1024.3326,818.23056 1023.5902,818.09607 1022.3575,818.23398 1021.6616,818.68349 1021.1927,820.21234 1019.9498,819.99533 1019.2728,821.54158 1017.8332,822.41145 1017.479,823.19734 1017.4033,823.90186 1016.774,824.27887 1016.487,823.57207 1016.1134,823.5003 1015.6981,823.4289 1015.3525,822.67709 1015.6098,820.27413 1014.4705,819.86173 1014.4379,820.27254 1013.6434,820.32969 1013.0881,821.39348 1011.9403,821.70934 1011.2789,822.6329 1010.4722,821.74585 1009.8472,820.34117 1007.5324,818.30911 1005.8673,819.7661 1005.706,819.38543 1004.93,819.13371 1004.3892,818.03609 1003.4189,817.29883 1002.2222,816.99315 1001.9503,817.3108 1001.7302,817.62026 1001.3869,817.46278 1001.5031,816.71618 1000.6644,815.94676 999.95355,814.94909 998.82033,814.52597 998.78603,814.11823 997.38643,813.31417 994.92123,813.01785 993.43233,813.81082 992.59233,813.68504 992.27123,814.47598 993.08213,816.64824 993.18343,817.43725 994.96273,818.97932 993.88543,821.02047 992.73363,821.09776 990.82403,819.06787 990.06173,819.19526 989.26043,820.03832 989.51933,821.64793 990.60403,822.22894 990.96203,823.37543 990.73873,823.72891 990.32753,823.66361 989.91173,823.33674 989.69733,823.68705 988.53583,823.99133 987.47823,825.19805 986.69713,825.01452 986.01233,824.03319 985.62773,824.14328 985.14603,825.21721 985.72783,826.69481 984.93893,827.44422 984.27033,826.99968 982.33993,826.98565 981.74633,826.46532 982.30443,825.45369 982.26093,823.85304 981.03643,822.85653 977.54523,821.314 976.44993,821.02401 975.97903,820.41139 975.23583,820.63962 975.08093,821.37602 974.25453,822.21368 972.67693,822.29706 973.08133,823.3769 973.78243,823.26143 973.66783,824.05504 973.12213,824.67209 972.98293,824.80157 973.64323,827.2172 972.43103,830.75136 970.94213,831.55494 970.79553,832.29468 971.39073,832.91354 973.77723,833.83301 974.58503,834.83596 974.17163,835.54743 973.94443,835.74067 973.66143,836.3228 975.26323,838.07763 975.69733,837.38518 976.10373,837.41539 977.14093,839.60029 978.23563,840.08699 977.90383,840.71306 978.35983,841.6725 977.80533,843.06888 977.95223,844.23863 979.39273,846.31831 980.31893,848.43736 981.36393,849.57495 981.61733,850.70419 981.89113,851.34424 983.01273,851.96793 984.69133,852.21261 985.03553,853.36329 985.69463,853.64194 986.79643,854.80211 989.04513,855.65254 991.09213,857.75692 991.71563,858.67644 992.15053,859.77395 992.98823,860.61491 993.35913,861.1245 995.27263,860.57533 998.31423,861.55177 998.36323,861.55796 999.97875,861.23472 1001.1386,861.68298 1002.4248,862.76034 1002.8403,862.64906 1003.6488,861.35404 1004.6212,860.68094 1004.7224,860.29308 1004.1674,859.76825 1005.5496,859.03416 1005.0189,857.92439 1005.6805,858.00575 1006.1875,857.05917 1011.1001,858.98074 1011.6459,858.48579 1012.7865,858.81353 1014.3105,860.01325 1014.6379,858.05652 1015.1927,857.48973 1015.4274,856.34047 1014.9559,855.22928 1015.038,854.4274 1014.5061,853.82616 1012.1806,853.53586 1012.3307,852.69099 1013.5937,851.6976 1013.7223,850.91463 1015.2328,850.3323 1015.9824,850.05813 1016.3189,852.78166 1016.8303,853.21759 1017.5353,853.18818 1017.8225,853.87125 1016.5063,855.38795 1016.3661,855.78399 1016.8835,856.93747 1018.672,858.00381 1018.8882,858.25555 1020.2451,860.23796 1020.1177,860.9684 1019.0199,860.93757 1018.3845,861.29153 1017.651,861.65482 1017.3298,862.40719 1018.0322,863.4609 1018.0016,864.29642 1018.0215,865.24612 1019.9216,864.7019 1020.6945,864.98979 1021.2377,864.53423 1023.1944,865.01672 1023.5031,864.25808 1026.176,865.52696 1026.5675,864.78524 1026.1469,861.91698 1027.4524,859.80321 1027.9731,860.4475 1028.7867,860.66067 1029.973,860.24743 1031.1806,860.3607 1031.3236,861.39203 1032.2968,861.80957 1032.6634,861.95825 1033.1194,860.8952 1032.4949,859.44395 1032.7294,859.43946 1034.5822,860.81144 1035.4886,859.27882 1036.4031,858.10157 1036.2501,857.70603 1036.6233,856.9812 1037.1931,855.89344 1036.0306,855.12881 z">
      <title id="t204">Sixième circonscription de la Loire</title>
      <desc id="d204">Cantons de : Boën, Chazelles-sur-Lyon, Feurs, Montbrison, Néronde, Noirétable, Saint-Galmier, Saint-Georges-en-Couzan, Saint-Germain-Laval</desc>
    </path></svg>