<svg xmlns="http://www.w3.org/2000/svg" version="1.1" xmlns:xlink="http://www.w3.org/1999/xlink" xmlns:svgjs="http://svgjs.dev/svgjs" viewBox="919.11393 876.15928 119.30327000000011 82.32069999999999"><path class="circo" id="043-01" d="M 999.90795,885.10158 999.81035,885.50872 998.84983,886.16377 998.60663,888.19263 998.26593,888.18816 998.09963,887.53499 997.06913,884.83062 996.25723,884.80933 995.63343,882.94511 995.01073,882.44694 993.54523,883.10338 992.40503,882.64612 991.65183,882.96726 991.29043,884.14072 989.92073,885.02767 990.00093,886.5469 991.40323,887.28324 991.52363,888.93846 991.95783,889.65229 991.72093,890.77929 992.86893,891.02814 993.25663,891.70103 991.82473,892.36504 991.80883,893.15584 991.02843,893.22156 989.97463,894.97476 989.21753,895.10738 988.73503,894.07061 987.97283,893.97917 986.42223,895.07127 985.67463,894.94215 984.49643,895.33071 984.37713,895.72963 984.26833,897.38234 984.88793,899.70783 985.20663,900.78406 985.89133,900.76873 985.88843,901.51959 983.54553,903.28357 983.61613,904.48348 984.79623,904.46804 984.98063,904.83387 984.87433,906.05557 984.34413,907.15515 984.97583,907.56906 988.33303,907.30912 989.82863,906.54684 991.21293,907.4491 991.31193,907.85853 990.69733,908.42442 990.47143,909.23471 990.71623,910.41296 990.11803,912.37431 991.47813,913.02391 991.42813,914.1502 992.02613,914.66498 993.53643,914.29281 993.91613,913.20196 995.34693,914.03421 996.38093,916.31915 996.09953,917.48103 995.58193,918.09247 994.82033,918.34634 994.90303,918.73226 994.77153,919.06002 993.31893,919.13765 992.40873,919.82561 991.78103,919.38355 990.18803,919.37115 990.39463,920.08231 990.06483,921.04717 989.54873,920.94044 988.89943,920.97076 988.54643,920.86379 988.27593,921.22869 987.95413,921.67285 987.97803,921.78521 987.30413,922.55075 987.11853,922.70395 987.00813,923.39054 987.21603,923.67246 987.03723,924.34835 987.17053,924.75618 987.47893,925.12024 987.17713,925.43678 987.02423,925.64726 986.58673,926.72594 986.54363,927.29282 985.96073,927.81826 986.62533,927.76005 987.40173,927.89324 988.26873,929.6304 989.65983,930.3834 989.28013,930.77177 990.09403,931.62725 990.55503,932.7738 989.95313,933.83322 990.17953,935.02204 990.15323,935.5343 989.38353,936.77614 990.03383,938.11425 989.10303,938.78003 989.04003,939.57787 989.51293,940.22515 988.48643,940.81718 989.64843,940.98624 989.94943,942.50299 990.28663,943.59557 991.19563,944.27473 992.68083,943.98907 993.59243,944.70093 995.48213,945.20912 996.26163,946.11604 997.43873,945.94207 998.56213,946.26315 999.00043,945.64701 999.30063,943.82836 1000.1655,943.03725 1001.6906,943.12133 1002.7491,943.64534 1003.4511,943.39144 1004.3302,943.32907 1006.0748,942.41698 1006.8835,942.39599 1008.4945,942.8824 1010.1725,942.89175 1010.982,941.93594 1012.1142,941.3878 1012.5257,938.77055 1013.1519,938.31314 1013.0124,938.06672 1014.2714,936.45366 1015.2671,935.73915 1015.8861,932.21989 1016.8539,931.62809 1018.6685,932.58064 1020.6094,931.7606 1021.8678,931.74871 1022.4563,931.23905 1023.5798,930.98396 1023.4836,930.21313 1022.9807,929.45578 1022.255,929.11049 1021.6031,928.08016 1022.3319,925.34975 1023.8961,924.15961 1026.74,924.43311 1027.1478,923.75127 1029.0797,923.40894 1029.2987,922.61235 1029.051,921.40105 1028.3296,921.02323 1027.5195,921.09699 1026.4165,919.91081 1026.3005,918.73178 1027.0288,918.46251 1027.3412,917.38267 1027.6993,917.23061 1027.3936,915.77885 1028.4337,915.19936 1029.5486,915.59845 1030.6156,915.09675 1030.8309,913.92267 1028.5273,912.34587 1028.8664,910.38332 1030.6743,910.97093 1031.8075,910.80884 1033.3661,912.06635 1033.2257,913.61852 1033.9552,914.5885 1034.4302,914.31955 1034.0263,913.64285 1034.1682,913.27556 1035.7284,913.4518 1035.6054,912.67273 1034.8036,911.81272 1034.5621,910.64604 1034.9485,908.26192 1035.8024,907.42861 1035.9911,906.64596 1037.0283,906.09946 1037.7063,904.22233 1037.3984,902.38692 1037.772,901.75393 1038.1747,901.64846 1038.4172,900.84886 1037.9256,899.27655 1037.5952,899.09958 1035.6956,897.22343 1034.725,896.48781 1033.7555,894.65684 1032.5297,894.57265 1030.1118,895.99569 1029.7727,896.72594 1028.7284,896.19761 1028.4097,896.44651 1026.6243,894.29458 1027.4252,893.36956 1027.5666,892.58313 1028.1134,892.07564 1027.9908,891.44568 1026.8047,891.09751 1025.0493,889.36737 1027.7462,887.0692 1028.1394,887.11419 1026.4725,884.29037 1025.4558,883.60077 1023.0557,883.01674 1023.0155,883.80935 1022.6833,884.00316 1021.9885,883.85775 1021.4879,884.45852 1019.9473,884.37456 1019.8768,882.54072 1018.7182,882.93192 1017.6276,881.28747 1017.2208,881.32136 1016.1161,880.74924 1013.9372,881.65623 1012.2282,880.50994 1010.6371,880.84813 1009.136,881.42895 1010.1809,882.77474 1010.0072,883.59376 1007.0919,883.33266 1006.1327,884.12862 1006.022,884.97457 1005.2321,884.39706 1003.6727,884.88747 1003.3626,886.5388 1002.8765,887.24212 1002.1713,886.81658 1001.4612,885.28991 1000.7155,884.87042 999.90795,885.10158 z">
      <title id="t205">Première circonscription de la Haute-Loire</title>
      <desc id="d205">Cantons de : Aurec-sur-Loire, Bas-en-Basset, Fay-sur-Lignon, Le Monastier-sur-Gazeille, Monistrol-sur-Loire, Montfaucon-en-Velay, Le Puy Est, Le Puy Sud-Est, Retournac, Saint-Didier-en-Velay, Saint-Julien-Chapteuil, Sainte-Sigolène, Tence, Vorey, Yssingeaux.</desc>
    </path><path class="circo" id="043-02" d="M 984.26833,897.38234 984.37713,895.72963 984.49643,895.33071 985.67463,894.94215 986.42223,895.07127 987.97283,893.97917 988.73503,894.07061 989.21753,895.10738 989.97463,894.97476 991.02843,893.22156 991.80883,893.15584 991.82473,892.36504 993.25663,891.70103 992.86893,891.02814 991.72093,890.77929 991.95783,889.65229 991.52363,888.93846 991.40323,887.28324 990.00093,886.5469 988.89063,887.58154 988.59423,886.92264 988.13753,884.69876 986.19293,884.90017 984.34453,884.15657 983.70253,883.15601 983.02913,883.58359 982.94303,881.55155 981.79583,881.88714 981.38273,881.18532 980.36513,880.51866 979.12703,881.34859 978.76603,882.91849 978.93903,884.52396 978.17733,885.36055 977.85023,885.61213 976.36183,884.83521 976.11083,885.08549 974.93513,885.18975 974.08153,884.41497 972.94413,884.23665 971.90703,884.26109 971.24993,884.03075 971.69713,882.9485 970.92253,882.7434 970.05973,881.92187 969.80813,881.61884 969.03093,881.70476 968.58233,882.34288 968.22753,883.98611 966.71333,884.59993 966.33163,885.74481 965.18163,886.89857 964.37133,886.98697 962.07453,884.69852 961.56993,883.345 961.84423,882.66717 961.25263,881.59052 960.24863,879.22775 959.83823,879.94756 959.10173,880.24643 958.44793,879.74479 956.20983,879.24772 954.94223,878.16993 954.46373,876.15928 952.60603,877.04848 951.25903,878.58874 951.00783,879.36358 950.60413,879.46479 948.18863,879.30511 947.57633,879.84684 946.41323,879.10596 945.68993,879.47084 944.94523,879.116 944.15743,879.36515 943.08323,878.11386 942.11233,876.75613 941.50633,877.12756 940.82903,876.91842 940.85823,877.719 939.92893,879.84309 938.98953,878.11895 938.11913,877.27252 937.34283,877.05369 936.99643,877.27918 936.65553,878.94711 936.29583,879.55304 933.97163,880.62517 932.84143,880.77078 931.93073,880.15552 930.79453,881.66277 930.44163,883.19812 930.20393,883.13532 929.83173,883.47422 929.21503,883.01941 927.44723,883.93566 926.91923,884.57054 927.25203,885.27612 924.71263,885.41885 923.66793,885.01279 922.97473,885.39284 920.65323,885.0267 921.31913,885.5144 921.49643,888.32623 920.28343,888.20484 919.64713,888.66777 920.41503,889.6506 921.50023,890.22138 920.96063,891.33281 920.17083,891.49499 919.11393,891.99975 919.21183,892.80497 920.44803,892.67376 921.39263,893.44302 923.04203,893.27811 924.19923,893.07018 925.51313,892.15442 925.57013,892.91939 926.23493,893.86295 925.85663,895.39351 927.58333,894.46092 927.63303,894.06844 929.64673,893.87008 930.65533,894.56347 930.73113,894.96618 931.13863,894.9901 931.28473,895.80946 930.79153,898.17075 931.64383,899.02438 932.08713,901.45889 932.84533,901.79266 934.99553,902.53315 934.88343,904.59975 934.19923,905.60635 934.06093,906.84045 934.63403,909.21422 935.59883,909.23278 935.79253,909.50916 935.32153,910.59048 936.33913,913.26737 937.42743,912.792 938.38463,913.50071 938.54453,913.54263 939.93553,914.38122 941.56243,914.35135 941.76423,915.14504 942.57983,915.22248 939.78573,916.34866 937.91943,915.5616 937.44103,914.90261 935.99113,915.39168 936.21963,916.11686 936.33483,916.83498 938.11763,917.39892 938.37873,918.03192 937.33803,920.69484 937.63853,922.31352 937.22393,923.46223 937.98903,924.91838 938.32593,925.1417 939.76193,924.4437 940.51623,924.71117 939.65613,926.54701 941.20043,926.21588 942.01363,927.49245 943.17153,927.18277 943.43113,927.49582 942.73083,928.94174 941.25713,929.53017 941.44163,930.75038 942.57073,931.19471 943.53703,930.67672 943.67953,932.67542 944.66873,933.41776 946.13053,932.9427 946.94763,934.38628 947.19333,936.22567 946.73893,937.63483 947.49353,938.75735 947.49653,940.00868 948.89213,942.14 949.40973,945.26032 950.75213,946.8073 950.63123,948.0175 951.80763,949.13043 952.50743,950.59974 953.24903,950.98398 953.59133,950.7434 953.83253,949.98016 954.98373,948.85563 957.84953,948.39781 959.06063,948.68353 960.20243,947.66331 961.36553,948.63008 961.98363,948.23756 961.74223,947.43928 962.67263,944.72288 962.43413,942.67368 963.56113,942.24916 964.06713,942.791 965.02393,942.25312 965.62263,942.49219 966.62243,942.51331 967.96893,943.30748 968.53103,944.80226 969.11663,945.27267 968.78413,946.81234 967.73763,947.43065 968.49833,948.31115 970.90503,947.96393 971.51113,947.41351 973.41573,947.90999 974.20813,947.7133 974.36473,946.95176 975.08603,947.22951 975.68873,949.00711 976.44333,949.83553 976.80893,951.7138 977.06593,951.37981 977.47343,951.482 979.63223,953.37791 980.45173,955.64172 980.76123,955.84537 981.50423,955.04569 982.68413,954.7206 983.41513,955.09706 983.34883,955.87686 982.40043,957.19141 983.20823,958.09126 985.17253,958.47998 985.99393,957.12474 986.35913,956.93261 987.84293,957.55601 988.20183,957.35324 988.37193,956.1825 989.51873,955.76671 990.47593,955.39735 990.42623,955.23512 989.84723,954.6666 989.89033,954.29191 991.48743,951.98789 992.13833,949.24152 992.22903,948.84232 993.72853,948.19358 994.08013,949.3417 995.31823,950.36047 995.76613,949.79646 995.28133,948.64877 995.57703,947.96177 995.97343,948.00456 996.73933,948.93472 997.63043,947.61009 998.66513,948.12094 999.28803,947.61105 998.56213,946.26315 997.43873,945.94207 996.26163,946.11604 995.48213,945.20912 993.59243,944.70093 992.68083,943.98907 991.19563,944.27473 990.28663,943.59557 989.94943,942.50299 989.64843,940.98624 988.48643,940.81718 989.51293,940.22515 989.04003,939.57787 989.10303,938.78003 990.03383,938.11425 989.38353,936.77614 990.15323,935.5343 990.17953,935.02204 989.95313,933.83322 990.55503,932.7738 990.09403,931.62725 989.28013,930.77177 989.65983,930.3834 988.26873,929.6304 987.40173,927.89324 986.62533,927.76005 985.96073,927.81826 986.54363,927.29282 986.58673,926.72594 987.02423,925.64726 987.33763,925.2633 987.47893,925.12024 987.17053,924.75618 987.03723,924.34835 987.21603,923.67246 987.00813,923.39054 987.11853,922.70395 987.30413,922.55075 987.97803,921.78521 987.95413,921.67285 988.54643,920.86379 988.89943,920.97076 989.54873,920.94044 990.06483,921.04717 990.39463,920.08231 990.18803,919.37115 991.78103,919.38355 992.40873,919.82561 993.31893,919.13765 994.77153,919.06002 994.90303,918.73226 994.82033,918.34634 995.58193,918.09247 996.09953,917.48103 996.38093,916.31915 995.34693,914.03421 993.91613,913.20196 993.53643,914.29281 992.02613,914.66498 991.42813,914.1502 991.47813,913.02391 990.11803,912.37431 990.71623,910.41296 990.47143,909.23471 990.69733,908.42442 991.31193,907.85853 991.21293,907.4491 989.82863,906.54684 988.33303,907.30912 984.97583,907.56906 984.34413,907.15515 984.87433,906.05557 984.98063,904.83387 984.79623,904.46804 983.61613,904.48348 983.54553,903.28357 985.88843,901.51959 985.89133,900.76873 985.20663,900.78406 984.88793,899.70783 984.26833,897.38234 z">
      <title id="t206">Deuxième circonscription de la Haute-Loire</title>
      <desc id="d206">Cantons de : Allègre, Auzon, Blesle, Brioude Nord, Brioude Sud, Cayres, La Chaise-Dieu, Craponne-sur-Arzon, Langeac Lavoûte-Chilhac, Loudes, Paulhaguet, Pinols, Pradelles, Le Puy Nord, Le Puy Ouest, Le Puy Sud-Ouest, Saint-Paulien, Saugues, Solignac-sur-Loire.</desc>
    </path></svg>