<svg xmlns="http://www.w3.org/2000/svg" version="1.1" xmlns:xlink="http://www.w3.org/1999/xlink" xmlns:svgjs="http://svgjs.dev/svgjs" viewBox="0 0 180.99659999999994 122.29637000000002"><path class="circo" id="id-044-01" d="M143.87249999999995 88.40257000000008L135.75299999999993 85.83987000000002L132.1121999999998 83.48417000000006L129.23309999999992 80.23567000000003L129.4871999999998 79.09247000000005L129.29769999999985 76.96487000000002L130.25929999999994 76.42887000000007L132.3623 76.94427000000007L135.42999999999984 75.71597000000008L139.3621999999998 71.87007000000006L141.2869999999998 72.55227000000002L142.9903999999999 69.61827000000005L143.98469999999998 70.11227000000008L145.9898999999998 69.29207000000008L151.58289999999988 72.88987000000009L156.30349999999999 80.32737000000009L158.35429999999997 80.55407000000002L163.6042 81.92067000000009L165.0094999999999 84.91877L167.96119999999996 85.79567000000009L167.75509999999986 87.88417000000004L166.5139999999999 89.63977L165.97249999999985 92.46697000000006L165.8714 93.74017000000003L164.56359999999995 95.15337L165.0559999999998 96.59937000000002L163.71219999999994 97.98797000000002L158.43409999999994 95.32427000000007L156.57059999999979 93.96057000000008L157.8866999999998 92.96677L157.0438999999999 91.16797000000008L153.5136 88.67897000000005L144.50369999999998 85.15717000000006L143.87249999999995 88.40257000000008z">
      <title id="t207">Première circonscription de Loire-Atlantique</title>
      <desc id="d207">Cantons de : Nantes I, Nantes VI, Nantes VII, Orvault.</desc>
    </path><path class="circo" id="id-044-02" d="M159.36989999999992 104.59077000000002L160.55299999999988 101.7625700000001L157.6918999999998 100.84757000000002L157.88549999999987 99.31347000000005L157.55079999999998 97.98377000000005L158.43409999999994 95.32427000000007L163.71219999999994 97.98797000000002L165.0559999999998 96.59937000000002L164.56359999999995 95.15337L165.8714 93.74017000000003L165.97249999999985 92.46697000000006L168.7165 92.85247000000004L173.33749999999986 86.76157L175.53099999999995 84.8594700000001L177.48469999999998 83.89497000000006L177.2962 87.05367000000001L180.99659999999994 94.77547000000004L180.53709999999978 95.32487000000003L174.4156999999998 98.17727000000002L170.5247999999999 102.26957000000004L164.84839999999986 104.36697000000004L159.36989999999992 104.59077000000002z">
      <title id="t208">Deuxième circonscription de Loire-Atlantique</title>
      <desc id="d208">Cantons de : Nantes II, Nantes III, Nantes IV, Nantes IX.</desc>
    </path><path class="circo" id="id-044-03" d="M56.21289999999999 70.01737000000003L57.562599999999975 67.99057000000005L58.02439999999979 66.43097L58.45939999999996 66.52167000000009L60.456699999999955 65.60107000000005L63.07499999999982 63.241570000000024L64.31589999999983 63.50957000000005L64.68049999999994 63.477070000000026L64.32179999999994 62.86437000000001L65.11279999999988 63.03787L65.4973 62.31197000000009L66.49049999999988 61.14620000000002L70.86529999999993 61.53248000000008L72.0489 60.97043000000008L73.29179999999997 61.215200000000095L74.24869999999987 60.308320000000094L74.25 60.33091000000002L74.49709999999982 62.542670000000044L75.44699999999989 64.04037000000005L76.74369999999999 65.24917000000005L76.96569999999997 66.10997000000009L76.69569999999999 66.46397000000002L76.02349999999979 67.62187000000006L75.26389999999992 67.35257000000001L73.71209999999996 68.8703700000001L72.50149999999985 69.35507000000007L71.6715999999999 69.15167000000008L71.29209999999989 69.36317000000008L71.36689999999999 70.2027700000001L71.26659999999993 70.65397000000007L72.40279999999984 71.93597L73.83959999999979 72.86557000000005L77.04379999999992 73.87687000000005L77.29289999999992 72.59617000000003L80.84849999999983 73.98597000000007L82.24169999999981 74.9681700000001L82.5743 75.67807000000005L82.05489999999986 76.07027000000005L82.79029999999989 76.60837000000004L82.44169999999986 77.65797000000009L82.57379999999989 78.18267000000003L82.49739999999997 78.78807000000006L83.62649999999985 79.14917000000003L83.15959999999995 80.2652700000001L81.74089999999978 81.14777000000004L80.7050999999999 81.84127000000001L77.8397 81.01037000000008L77.51279999999997 81.05447000000004L75.95949999999993 80.80247000000008L75.54469999999992 81.33807000000002L73.36429999999996 80.03177000000005L73.64069999999992 79.81777L73.3400999999999 79.18807000000004L72.1268 78.93217000000004L68.83709999999996 79.22717L67.17259999999987 78.71157000000005L65.44809999999984 78.67887000000007L64.25029999999992 77.4808700000001L62.99739999999997 77.36337000000003L61.5954999999999 76.3159700000001L60.67329999999993 74.34247000000005L60.493799999999965 73.61947000000009L60.05289999999991 73.6443700000001L59.00609999999983 72.8268700000001L56.21289999999999 70.01737000000003z">
      <title id="t209">Troisième circonscription de Loire-Atlantique</title>
      <desc id="d209">Cantons de : Nantes V, Nantes XI, Saint-Etienne-de-Montluc, Saint-Herblain Est, Saint-Herblain Ouest-Indre.</desc>
    </path><path class="circo" id="id-044-04" d="M73.0800999999999 88.36697000000004L72.5804999999998 88.2412700000001L70.69659999999999 89.12607000000003L69.48979999999983 87.99517000000003L71.70849999999996 85.57817L69.5462 85.40937000000008L68.27419999999984 84.25387L66.67449999999985 83.65617000000009L67.50319999999988 81.9794700000001L68.71329999999989 81.8318700000001L70.8608999999999 81.9595700000001L73.23429999999985 82.9373700000001L74.62339999999995 83.31137000000001L75.54469999999992 81.33807000000002L75.95949999999993 80.80247000000008L77.51279999999997 81.05447000000004L77.8397 81.01037000000008L80.7050999999999 81.84127000000001L81.74089999999978 81.14777000000004L83.15959999999995 80.2652700000001L85.32159999999999 80.1769700000001L87.56169999999997 79.34927000000005L89.09719999999993 77.73427000000004L91.51289999999995 76.60867000000007L91.14239999999995 77.81247000000008L91.89929999999981 79.83757000000003L92.08739999999989 81.5537700000001L88.7942999999998 81.25927000000001L88.3469 82.32487000000003L87.9493 83.07727L88.10629999999992 84.31077000000005L86.99329999999986 85.67917L85.82499999999982 86.31027000000006L85.66479999999979 86.69027000000006L86.44749999999999 88.13147000000004L86.43509999999992 88.95237000000009L87.39859999999999 90.24427000000003L87.22559999999999 91.36027000000001L85.2788999999998 92.72837000000004L84.13609999999994 91.40617000000009L81.8318999999999 90.25977L80.62349999999992 90.45207000000005L79.81309999999985 90.6121700000001L77.8143 92.12437L77.5130999999999 91.41227000000003L78.36699999999996 90.02147000000002L76.73509999999987 89.79227000000003L76.15969999999993 89.23257000000001L75.8576999999998 89.50187000000005L75.51679999999988 89.28317000000004L75.03089999999997 88.18857000000003L73.0800999999999 88.36697000000004z">
      <title id="t210">Quatrième circonscription de Loire-Atlantique</title>
      <desc id="d210">Cantons de Bouaye, Nantes X, Rezé.</desc>
    </path><path class="circo" id="id-044-05" d="M86.84809999999993 75.63297L85.76519999999982 75.4808700000001L85.97889999999984 74.36507000000006L86.4686999999999 73.67227000000003L86.54999999999995 72.84807L85.38519999999994 72.50207L84.8306 71.31887000000006L82.75879999999984 70.77957000000004L81.94949999999994 70.69017000000008L80.08659999999986 67.75507000000005L77.8793999999998 66.33527000000004L77.08809999999994 66.65887000000009L76.69569999999999 66.46397000000002L76.96569999999997 66.10997000000009L76.74369999999999 65.24917000000005L75.44699999999989 64.04037000000005L74.49709999999982 62.542670000000044L74.25 60.33091000000002L74.24869999999987 60.308320000000094L76.11239999999998 58.60752000000002L75.68639999999982 58.50159000000008L74.84789999999998 55.597759999999994L73.71789999999987 54.930090000000064L73.34539999999993 54.133500000000026L71.6864999999998 53.616660000000024L71.32249999999999 52.81501000000003L73.27589999999987 51.93335999999999L73.46839999999997 51.542240000000106L73.59159999999997 46.37995000000001L73.71939999999995 45.96071000000006L74.15099999999984 45.899850000000015L74.52369999999996 46.12255000000005L74.85469999999987 47.36141000000009L76.34199999999987 48.24467000000004L77.60129999999981 48.44329000000005L79.68369999999982 47.29817000000003L80.54059999999981 47.340790000000084L82.81269999999995 48.42091000000005L83.1565999999998 47.60732000000007L84.63689999999997 46.70397000000003L89.24519999999984 41.92897000000005L91.41739999999982 41.94206000000008L92.16549999999984 42.32946000000004L92.43869999999993 43.6024900000001L91.59299999999985 44.56123000000002L91.39729999999986 45.37746000000004L91.65559999999982 45.72795000000008L92.9527999999998 45.7414L94.63239999999996 44.49192000000005L98.3757999999998 45.1069500000001L98.16659999999979 46.36360000000002L98.4342999999999 47.174960000000056L99.50579999999991 47.87220000000002L101.18349999999987 48.01237000000003L101.45809999999983 48.34046000000001L102.24199999999996 48.04882000000009L102.43149999999991 47.67457000000002L102.07579999999984 46.939340000000016L102.41349999999989 46.690520000000106L103.22659999999996 46.51411000000007L104.42009999999982 46.88805000000002L104.52649999999994 48.17315000000008L105.3128999999999 48.525490000000104L105.93499999999995 49.659590000000094L107.49289999999996 49.99804000000006L107.63219999999978 50.77326000000005L106.93669999999997 52.62695000000008L108.95939999999996 53.41129000000001L112.69689999999991 55.83357000000001L113.24059999999986 56.486830000000054L113.18679999999995 58.541380000000004L107.93499999999995 58.443230000000085L104.5139999999999 60.410330000000044L106.10479999999984 62.26497000000006L106.33749999999986 63.0596700000001L104.96069999999986 64.76567L103.72409999999991 65.19317000000001L102.28659999999991 66.86187000000007L101.83589999999981 67.08687000000009L98.7313999999999 69.26657L98.19329999999991 69.67747000000008L96.70229999999992 71.71527000000003L94.6733999999999 73.20057000000008L93.21069999999986 74.69027000000006L91.69419999999991 76.39187000000004L90.23389999999995 73.34457000000009L90.30829999999992 72.09797000000003L89.53729999999996 72.47867000000008L88.67169999999987 73.22927000000004L86.84809999999993 75.63297z">
      <title id="t211">Cinquième circonscription de Loire-Atlantique</title>
      <desc id="d211">Cantons de : Carquefou, La Chapelle-sur-Erdre, Ligné, Nantes VIII, Nort-sur-Erdre</desc>
    </path><path class="circo" id="id-044-06" d="M114.89849999999979 61.18384000000003L112.98249999999985 61.11584000000005L112.65019999999981 61.373410000000035L110.60119999999984 62.206770000000006L108.4031 62.29657000000009L106.33749999999986 63.0596700000001L106.10479999999984 62.26497000000006L104.5139999999999 60.410330000000044L107.93499999999995 58.443230000000085L113.18679999999995 58.541380000000004L113.24059999999986 56.486830000000054L112.69689999999991 55.83357000000001L108.95939999999996 53.41129000000001L106.93669999999997 52.62695000000008L107.63219999999978 50.77326000000005L107.49289999999996 49.99804000000006L105.93499999999995 49.659590000000094L105.3128999999999 48.525490000000104L104.52649999999994 48.17315000000008L104.42009999999982 46.88805000000002L103.22659999999996 46.51411000000007L102.41349999999989 46.690520000000106L102.07579999999984 46.939340000000016L102.43149999999991 47.67457000000002L102.24199999999996 48.04882000000009L101.45809999999983 48.34046000000001L101.18349999999987 48.01237000000003L99.50579999999991 47.87220000000002L98.4342999999999 47.174960000000056L98.16659999999979 46.36360000000002L98.3757999999998 45.1069500000001L94.63239999999996 44.49192000000005L92.9527999999998 45.7414L91.65559999999982 45.72795000000008L91.39729999999986 45.37746000000004L91.59299999999985 44.56123000000002L92.43869999999993 43.6024900000001L92.16549999999984 42.32946000000004L91.41739999999982 41.94206000000008L89.24519999999984 41.92897000000005L84.63689999999997 46.70397000000003L83.1565999999998 47.60732000000007L82.81269999999995 48.42091000000005L80.54059999999981 47.340790000000084L79.68369999999982 47.29817000000003L77.60129999999981 48.44329000000005L76.34199999999987 48.24467000000004L74.85469999999987 47.36141000000009L74.52369999999996 46.12255000000005L74.15099999999984 45.899850000000015L73.71939999999995 45.96071000000006L73.59159999999997 46.37995000000001L73.46839999999997 51.542240000000106L73.27589999999987 51.93335999999999L71.32249999999999 52.81501000000003L71.6864999999998 53.616660000000024L73.34539999999993 54.133500000000026L73.71789999999987 54.930090000000064L74.84789999999998 55.597759999999994L75.68639999999982 58.50159000000008L76.11239999999998 58.60752000000002L74.24869999999987 60.308320000000094L73.29179999999997 61.215200000000095L72.0489 60.97043000000008L70.86529999999993 61.53248000000008L66.49049999999988 61.14620000000002L65.4973 62.31197000000009L65.11279999999988 63.03787L64.32179999999994 62.86437000000001L61.23559999999998 59.75294000000008L60.858999999999924 57.23142000000007L57.56729999999993 58.195710000000076L57.41669999999999 57.4919000000001L55.28799999999978 57.640280000000075L54.49569999999994 57.259540000000015L54.932199999999966 55.19945000000007L54.325599999999895 53.161080000000084L54.7032999999999 51.513720000000035L53.88379999999984 50.01676000000009L55.002899999999954 49.42432000000008L55.27929999999992 46.90137000000004L56.11429999999996 47.14981L56.926299999999856 46.88038000000006L58.10159999999996 46.324370000000044L60.12429999999995 44.05785000000003L58.231799999999794 41.71720000000005L57.326699999999846 40.78147000000001L54.3599999999999 41.531600000000026L52.264199999999846 41.23513000000003L51.927999999999884 39.58656000000008L50.738099999999804 39.110880000000066L50.35609999999997 36.97410000000002L47.79359999999997 36.73787000000004L47.00059999999985 35.19121000000007L45.1429999999998 34.01217000000008L44.42139999999995 33.53231000000005L40.2355 32.441310000000044L39.17009999999982 33.121830000000045L38.46169999999984 32.504060000000095L38.85329999999999 32.33773000000008L38.677599999999984 30.26531L40.041299999999865 29.26278000000002L40.1416999999999 28.84913000000006L40.18439999999987 27.096070000000054L39.14409999999998 25.718690000000038L40.41779999999994 23.44017000000008L42.97389999999996 23.312850000000026L43.3621999999998 21.627360000000067L43.72929999999997 21.38629000000003L44.388999999999896 21.03552000000002L46.34829999999988 21.290610000000015L49.65339999999992 17.793390000000045L49.68269999999984 17.808539999999994L50.02389999999991 18.594510000000014L50.00339999999983 20.30830000000003L50.257699999999886 20.653170000000046L51.10459999999989 20.69306000000006L52.8916999999999 18.721280000000093L57.173699999999826 17.558740000000057L57.37239999999997 17.670510000000036L58.69179999999983 16.84048000000007L59.05569999999989 16.128840000000082L59.84629999999993 16.04004000000009L61.181499999999915 16.2016000000001L61.978399999999965 15.843860000000063L62.6882999999998 16.348250000000007L65.55949999999984 17.07036000000005L66.80629999999996 17.222290000000044L68.62189999999987 16.20236L70.1226999999999 16.822550000000092L70.36749999999984 17.138180000000034L71.9351999999999 17.00190000000009L71.9976999999999 16.126820000000066L72.37889999999993 15.909290000000055L74.05649999999991 15.457040000000006L76.2054999999998 15.77362000000005L77.62039999999979 14.264859999999999L78.1522 14.249450000000024L78.26519999999982 11.779250000000047L79.08719999999994 9.494500000000016L79.72439999999983 9.021450000000073L80.89519999999993 9.09985000000006L81.55429999999978 8.647510000000011L81.89139999999998 7.445370000000025L82.6422 7.082220000000007L83.4849999999999 7.166590000000042L85.09699999999998 6.471990000000005L87.30769999999984 6.338530000000105L88.85739999999987 4.764340000000061L89.55189999999993 4.278540000000021L90.31619999999998 4.598700000000008L91.55119999999988 4.316000000000031L92.5755999999999 3.665650000000028L92.48169999999982 2.506020000000035L91.43449999999984 0.3869600000000446L91.62459999999987 0.0063300000000481305L92.85899999999992 0L93.58449999999993 0.39380000000005566L96.48149999999987 0.4105100000000448L97.13189999999986 0.9321700000000419L97.61619999999994 0.9438200000000734L97.93449999999984 1.2466699999999946L99.11389999999983 0.8279700000000503L101.44699999999989 4.324230000000057L103.49459999999999 5.018420000000106L103.73619999999983 5.0918100000000095L111.49419999999986 7.358350000000087L111.3723 9.089740000000006L112.28959999999984 10.006720000000087L111.8476999999998 11.63945000000001L110.65809999999988 11.676360000000045L110.76509999999985 12.926000000000045L112.49189999999999 14.105150000000094L114.08369999999991 14.677909999999997L115.7627 14.311360000000036L115.78109999999992 15.535750000000007L117.077 17.460230000000024L117.52529999999979 17.741480000000024L117.27179999999998 18.568750000000023L117.47829999999999 19.40903000000003L116.97799999999984 21.018480000000068L117.69069999999988 22.057860000000005L118.54379999999992 22.043350000000032L119.09479999999985 23.93868000000009L119.01589999999987 25.134540000000015L120.69179999999983 26.879920000000084L120.67349999999988 27.286750000000097L121.88299999999981 27.25043000000005L123.6286 27.086490000000026L126.00889999999981 28.903850000000034L130.2480999999998 29.796780000000012L131.61059999999998 30.800749999999994L131.70079999999984 31.216409999999996L130.67929999999978 32.55421000000001L129.5904999999998 33.20625000000007L128.87839999999983 33.53911000000005L128.81099999999992 34.30216000000007L127.66499999999996 34.04896000000008L126.00419999999986 33.760090000000105L123.9025999999999 33.99189000000001L117.69499999999994 33.09878000000003L117.2349999999999 36.221810000000005L119.27449999999999 36.894769999999994L119.35349999999994 37.32189000000005L118.08269999999993 38.45816000000002L118.22969999999987 39.31505000000004L119.28449999999998 41.09369000000004L120.44469999999978 41.676810000000046L123.35519999999997 42.1536900000001L125.86549999999988 41.85184000000004L126.221 42.08072000000004L128.6157999999998 41.574890000000096L130.20389999999998 42.253220000000056L131.4156999999998 43.544129999999996L135.32909999999993 43.29920000000004L135.88049999999998 44.628520000000094L135.1633999999999 45.518190000000004L135.12619999999993 46.28514000000007L136.30399999999986 48.14876000000004L136.78539999999998 51.98022000000003L137.2244999999998 52.499450000000024L138.9011999999998 54.99112000000002L137.84619999999995 56.373590000000036L137.00119999999993 56.465740000000096L135.9780999999998 57.322810000000004L135.1112999999998 57.78739000000007L134.41499999999996 58.474230000000034L133.1993 58.27667000000008L131.3222999999998 59.139150000000086L129.6646999999998 59.23077000000001L126.95629999999983 58.57940000000008L125.7195999999999 58.50309000000004L123.73669999999993 59.02482000000009L122.87839999999983 59.112670000000094L122.68859999999995 58.909860000000094L120.08479999999986 58.85426000000007L117.9500999999998 59.26691000000005L116.8427999999999 60.572320000000104L114.89849999999979 61.18384000000003z">
      <title id="t212">Sixième circonscription de Loire-Atlantique</title>
      <desc id="d212">Cantons de : Ancenis, Blain, Châteaubriant, Derval, Guéméné-Penfao, Moisdon-la-Rivière, Nozay, Riaillé, Rougé, Saint-Julien-de-Vouvantes, Saint-Mars-La-Jaille, Saint-Nicolas-de-Redon, Varades</desc>
    </path><path class="circo" id="id-044-07" d="M8.513699999999972 71.36497000000008L5.596299999999928 70.47507000000007L4.56659999999988 69.7702700000001L0.9360999999998967 68.39377000000002L1.2425999999998112 67.61877000000004L2.0751999999999953 67.3508700000001L2.9347999999999956 67.21117000000004L3.7176999999999225 67.58607000000006L3.9023999999999432 67.12977000000001L3.7673999999999523 66.85977000000003L4.783099999999877 65.13567L4.779699999999821 64.24427000000003L4.25019999999995 62.06740000000002L2.5661999999999807 59.46368000000007L0.5725999999999658 58.72763000000009L0 58.08174000000008L0.17639999999983047 57.37930000000006L2.0958999999998014 56.87351000000001L5.0397999999997865 54.34851000000003L7.376899999999978 52.70748000000003L8.014099999999871 53.22878000000003L10.498999999999796 53.198130000000106L10.580600000000004 52.774310000000014L8.740299999999934 51.667260000000056L9.383899999999812 50.147460000000024L8.419799999999896 48.791090000000054L9.158999999999878 46.851080000000024L9.951499999999896 46.551199999999994L11.434099999999944 45.144930000000045L11.683999999999969 46.43037000000004L12.50669999999991 47.44464000000005L13.788099999999986 47.72851000000003L15.296899999999823 46.951290000000085L16.178699999999935 46.89672000000007L17.138099999999895 47.80343000000005L20.52039999999988 46.98171000000002L20.750499999999874 44.397460000000024L21.85089999999991 42.501580000000104L22.05329999999981 40.31959000000006L22.14189999999985 40.27277000000004L23.645499999999856 40.8891900000001L25.335799999999836 40.775800000000004L25.6407999999999 41.07443000000001L25.164399999999887 42.19836000000009L26.627700000000004 43.07099000000005L28.961199999999963 41.37884000000008L30.523299999999836 40.866660000000024L31.396799999999985 40.7420800000001L31.61329999999998 41.127290000000016L31.2670999999998 42.78579000000002L31.552799999999934 43.12220000000002L33.27059999999983 43.42097000000001L34.20089999999982 42.54171000000008L34.35319999999979 39.495050000000106L35.15549999999985 39.12573000000009L38.98979999999983 38.05718000000002L39.13299999999981 37.2040300000001L38.56139999999982 36.08480000000009L39.17009999999982 33.121830000000045L40.2355 32.441310000000044L44.42139999999995 33.53231000000005L45.1429999999998 34.01217000000008L47.00059999999985 35.19121000000007L47.79359999999997 36.73787000000004L50.35609999999997 36.97410000000002L50.738099999999804 39.110880000000066L51.927999999999884 39.58656000000008L52.264199999999846 41.23513000000003L54.3599999999999 41.531600000000026L57.326699999999846 40.78147000000001L58.231799999999794 41.71720000000005L60.12429999999995 44.05785000000003L58.10159999999996 46.324370000000044L56.926299999999856 46.88038000000006L56.11429999999996 47.14981L55.27929999999992 46.90137000000004L54.90149999999994 46.15147000000002L54.063499999999976 45.984980000000064L51.560399999999845 43.81911000000002L50.83869999999979 44.23332000000005L50.26019999999994 45.790950000000066L48.98109999999997 45.80717000000004L49.36489999999981 47.665520000000015L49.42059999999992 48.9817700000001L47.73910000000001 50.381830000000036L46.0936999999999 51.00346000000002L42.16209999999978 50.87115000000006L41.8436999999999 51.17623000000003L43.107699999999795 52.160130000000095L44.968599999999924 52.873800000000074L44.118799999999965 54.82021000000009L44.72479999999996 55.363570000000095L44.705600000000004 55.78962000000001L43.85109999999986 57.22941000000003L44.52789999999982 57.698900000000094L43.84949999999981 59.20404000000008L42.44179999999983 60.06314000000009L42.52649999999994 60.46968000000004L39.9855 60.27934000000005L39.704499999999825 57.71748000000002L38.41899999999987 56.58564000000001L37.55489999999986 57.99287000000004L36.269599999999855 56.99177000000009L35.70849999999996 58.486900000000105L35.02649999999994 58.15442000000007L33.449499999999944 56.355260000000044L32.8137999999999 57.96225000000004L33.048499999999876 59.202530000000024L30.605399999999918 59.829990000000066L29.709499999999935 61.288470000000075L29.879199999999855 62.10227000000009L30.275699999999915 62.914570000000026L29.981899999999996 64.41627000000005L29.139699999999948 64.45517000000007L28.545499999999947 63.84167000000002L27.137899999999945 65.34277000000009L27.140299999999797 65.77017000000001L26.31639999999993 64.92817000000002L25.538499999999885 64.8635700000001L25.085199999999986 65.54217000000006L23.81049999999982 65.55407000000002L22.14819999999986 66.96777000000009L20.98389999999995 69.56007L22.781099999999924 70.07537000000002L22.754599999999982 72.18857000000003L22.20699999999988 72.84347000000002L22.094899999999825 74.53347000000008L21.63909999999987 75.24427000000003L18.75059999999985 73.22537L17.95679999999993 71.69717000000003L16.998099999999795 70.78587000000005L14.180599999999913 69.69307000000003L12.471699999999828 69.95297000000005L11.372499999999945 70.62337000000002L11.263299999999845 71.0356700000001L11.846900000000005 72.16867000000002L11.586099999999988 72.50647000000004L9.162099999999782 71.94397000000004L8.513699999999972 71.36497000000008z">
      <title id="t213">Septième circonscription de Loire-Atlantique</title>
      <desc id="d213">Cantons de : La Baule-Escoublac, Le Croisic, Guérande, Herbignac, Pontchâteau, Saint-Gildas-des-Bois</desc>
    </path><path class="circo" id="id-044-08" d="M31.956500000000005 67.56247000000008L32.650699999999915 68.62817000000007L33.08499999999981 68.59847000000002L35.37089999999989 67.35187000000008L38.74409999999989 66.55537000000004L41.35849999999982 66.67907000000002L43.73149999999987 65.61707000000001L44.40269999999987 65.42827L44.492499999999836 67.24547000000007L45.35549999999989 66.4405700000001L45.744699999999966 65.39557000000002L46.51909999999998 65.53497000000004L46.5145 67.68727000000001L47.11979999999994 67.27897000000007L48.15159999999992 67.62497000000008L50.46429999999987 68.50277000000006L54.25739999999996 69.22617000000002L56.21289999999999 70.01737000000003L57.562599999999975 67.99057000000005L58.02439999999979 66.43097L58.45939999999996 66.52167000000009L60.456699999999955 65.60107000000005L63.07499999999982 63.241570000000024L64.31589999999983 63.50957000000005L64.68049999999994 63.477070000000026L64.32179999999994 62.86437000000001L61.23559999999998 59.75294000000008L60.858999999999924 57.23142000000007L57.56729999999993 58.195710000000076L57.41669999999999 57.4919000000001L55.28799999999978 57.640280000000075L54.49569999999994 57.259540000000015L54.932199999999966 55.19945000000007L54.325599999999895 53.161080000000084L54.7032999999999 51.513720000000035L53.88379999999984 50.01676000000009L55.002899999999954 49.42432000000008L55.27929999999992 46.90137000000004L54.90149999999994 46.15147000000002L54.063499999999976 45.984980000000064L51.560399999999845 43.81911000000002L50.83869999999979 44.23332000000005L50.26019999999994 45.790950000000066L48.98109999999997 45.80717000000004L49.36489999999981 47.665520000000015L49.42059999999992 48.9817700000001L47.73910000000001 50.381830000000036L46.0936999999999 51.00346000000002L42.16209999999978 50.87115000000006L41.8436999999999 51.17623000000003L43.107699999999795 52.160130000000095L44.968599999999924 52.873800000000074L44.118799999999965 54.82021000000009L44.72479999999996 55.363570000000095L44.705600000000004 55.78962000000001L43.85109999999986 57.22941000000003L44.52789999999982 57.698900000000094L43.84949999999981 59.20404000000008L42.44179999999983 60.06314000000009L42.52649999999994 60.46968000000004L39.9855 60.27934000000005L39.704499999999825 57.71748000000002L38.41899999999987 56.58564000000001L37.55489999999986 57.99287000000004L36.269599999999855 56.99177000000009L35.70849999999996 58.486900000000105L35.02649999999994 58.15442000000007L33.449499999999944 56.355260000000044L32.8137999999999 57.96225000000004L33.048499999999876 59.202530000000024L30.605399999999918 59.829990000000066L29.709499999999935 61.288470000000075L29.879199999999855 62.10227000000009L30.275699999999915 62.914570000000026L29.981899999999996 64.41627000000005L29.139699999999948 64.45517000000007L28.545499999999947 63.84167000000002L27.137899999999945 65.34277000000009L27.140299999999797 65.77017000000001L26.31639999999993 64.92817000000002L25.538499999999885 64.8635700000001L25.085199999999986 65.54217000000006L23.81049999999982 65.55407000000002L22.14819999999986 66.96777000000009L20.98389999999995 69.56007L22.781099999999924 70.07537000000002L22.754599999999982 72.18857000000003L22.20699999999988 72.84347000000002L22.094899999999825 74.53347000000008L21.63909999999987 75.24427000000003L22.35199999999986 75.56447000000003L24.431699999999864 74.9536700000001L26.24149999999986 73.12327000000005L27.94939999999997 72.76987000000008L28.53949999999986 71.65717000000006L30.53319999999985 70.8286700000001L31.00539999999978 69.62867000000006L31.993199999999888 69.43117000000007L31.956500000000005 67.56247000000008z">
      <title id="t214">Huitième circonscription de Loire-Atlantique</title>
      <desc id="d214">Cantons de : Montoir-de-Bretagne, Saint-Nazaire Centre, Sainte-Nazaire Est, Saint-Nazaire Ouest, Savenay.</desc>
    </path><path class="circo" id="id-044-09" d="M44.572599999999966 95.63607000000002L42.8291999999999 93.12267000000008L38.76209999999992 91.60777000000007L38.462099999999964 90.89377000000002L37.1878999999999 91.13097000000005L34.599899999999934 90.84027000000003L32.322999999999865 89.65777000000003L29.280199999999923 89.31667000000004L26.85699999999997 88.37527L26.66659999999979 88.01267000000007L27.9384 86.79927000000009L28.521799999999985 85.69247000000007L30.544099999999844 85.08927000000006L32.244199999999864 85.36387000000002L32.79689999999982 84.70387000000005L33.23109999999997 83.98387000000002L33.94279999999981 80.27217000000007L33.81499999999983 78.52077000000008L31.918899999999894 75.53457000000003L32.94989999999984 74.80707000000007L32.90249999999992 71.7720700000001L33.09870000000001 71.37827000000004L36.4550999999999 70.54707000000008L42.553699999999935 69.51907000000006L43.502899999999954 68.71307000000002L43.79179999999997 68.41977000000009L44.99539999999979 68.64917000000003L46.5003999999999 69.31607000000008L46.5145 67.68727000000001L47.11979999999994 67.27897000000007L48.15159999999992 67.62497000000008L50.46429999999987 68.50277000000006L54.25739999999996 69.22617000000002L56.21289999999999 70.01737000000003L59.00609999999983 72.8268700000001L60.05289999999991 73.6443700000001L60.493799999999965 73.61947000000009L60.67329999999993 74.34247000000005L61.5954999999999 76.3159700000001L62.99739999999997 77.36337000000003L64.25029999999992 77.4808700000001L65.44809999999984 78.67887000000007L67.17259999999987 78.71157000000005L68.83709999999996 79.22717L72.1268 78.93217000000004L73.3400999999999 79.18807000000004L73.64069999999992 79.81777L73.36429999999996 80.03177000000005L75.54469999999992 81.33807000000002L74.62339999999995 83.31137000000001L73.23429999999985 82.9373700000001L70.8608999999999 81.9595700000001L68.71329999999989 81.8318700000001L67.50319999999988 81.9794700000001L66.67449999999985 83.65617000000009L68.27419999999984 84.25387L69.5462 85.40937000000008L71.70849999999996 85.57817L69.48979999999983 87.99517000000003L70.69659999999999 89.12607000000003L72.5804999999998 88.2412700000001L73.0800999999999 88.36697000000004L75.03089999999997 88.18857000000003L75.51679999999988 89.28317000000004L75.8576999999998 89.50187000000005L76.15969999999993 89.23257000000001L76.73509999999987 89.79227000000003L78.36699999999996 90.02147000000002L77.5130999999999 91.41227000000003L77.8143 92.12437L79.81309999999985 90.6121700000001L80.62349999999992 90.45207000000005L81.8318999999999 90.25977L84.13609999999994 91.40617000000009L85.2788999999998 92.72837000000004L85.1438999999998 93.1325700000001L86.18959999999993 94.90497000000005L86.35039999999981 96.16077000000007L84.94129999999996 96.00587000000007L84.17849999999999 96.90217000000007L84.26569999999992 97.2865700000001L87.22599999999989 97.6968700000001L88.39949999999999 98.93897000000004L89.90679999999998 99.80657000000008L88.19389999999999 101.67957000000001L86.97559999999999 101.9577700000001L85.2639999999999 103.01227000000006L86.18269999999984 104.40947000000006L85.5673999999999 105.94897000000003L85.28039999999987 107.53987000000006L86.24209999999994 109.65797000000009L86.14069999999992 110.07607000000007L87.0281 111.51397000000009L88.05489999999986 112.22517000000005L88.19439999999986 113.06027000000006L87.63119999999981 114.19047L85.98919999999998 114.16177000000005L87.35879999999997 116.31167000000005L89.59879999999998 118.18907000000002L89.82639999999992 119.39747L87.59719999999993 120.59417000000008L86.75689999999986 120.40487000000007L85.9572999999998 120.6932700000001L85.77009999999996 122.29637000000002L83.2684999999999 121.67347000000007L81.31929999999988 120.69397000000004L80.57719999999995 120.91007000000002L77.952 120.00697000000002L76.66059999999993 120.00707L75.93809999999985 120.47827000000007L73.66909999999984 118.56397000000004L71.16379999999981 119.23557000000005L70.38319999999999 118.86067000000003L69.8322999999998 117.82237000000009L69.81099999999992 115.89787000000001L69.0320999999999 114.97967000000006L69.22719999999981 114.61427000000003L68.60619999999994 113.55277000000001L66.10319999999979 114.19387000000006L65.42689999999993 113.67037000000005L64.59249999999997 113.8277700000001L61.66379999999981 113.33917000000008L62.110099999999875 112.6357700000001L62.231899999999996 111.38497000000007L61.74349999999981 110.70177000000001L58.29189999999994 110.71367000000009L56.319299999999885 109.80047000000002L54.77279999999996 108.34177L54.310199999999895 106.68597L54.47159999999985 105.85757000000001L52.926499999999805 105.4663700000001L52.58389999999986 105.68807000000004L51.65789999999993 104.77047000000005L50.366599999999835 101.92897000000005L49.753999999999905 101.31627000000003L49.05729999999994 101.27617000000009L47.090799999999945 97.36777000000006L45.69200000000001 96.31427000000008L44.572599999999966 95.63607000000002z">
      <title id="t215">Neuvième circonscription de Loire-Atlantique</title>
      <desc id="d215">Cantons de : Bourgneuf-en-Retz, Legé, Machecoul, Paimboeuf, Le Pellerin, Pornic, Saint-Père-en-Retz, Saint-Philbert-de-Grand-Lieu.</desc>
    </path><path class="circo" id="id-044-10" d="M86.18959999999993 94.90497000000005L85.1438999999998 93.1325700000001L85.2788999999998 92.72837000000004L87.22559999999999 91.36027000000001L87.39859999999999 90.24427000000003L86.43509999999992 88.95237000000009L86.44749999999999 88.13147000000004L85.66479999999979 86.69027000000006L85.82499999999982 86.31027000000006L86.99329999999986 85.67917L88.10629999999992 84.31077000000005L87.9493 83.07727L88.3469 82.32487000000003L88.7942999999998 81.25927000000001L92.08739999999989 81.5537700000001L91.89929999999981 79.83757000000003L91.14239999999995 77.81247000000008L91.51289999999995 76.60867000000007L91.69419999999991 76.39187000000004L93.21069999999986 74.69027000000006L94.6733999999999 73.20057000000008L96.70229999999992 71.71527000000003L98.19329999999991 69.67747000000008L98.7313999999999 69.26657L101.83589999999981 67.08687000000009L102.28659999999991 66.86187000000007L103.5523999999998 67.26087000000007L105.72109999999998 67.0116700000001L107.30429999999978 66.81087000000002L107.33979999999997 67.21347000000003L108.57539999999995 68.27267000000006L108.87289999999985 68.88027L108.89999999999986 71.19217000000003L110.79899999999998 73.63657L112.73659999999995 74.95217000000002L113.87869999999998 74.42587000000003L114.97629999999981 73.26627000000008L115.74609999999984 73.37427000000002L117.0003999999999 74.78727000000003L116.37469999999985 77.40267000000006L117.56349999999998 78.10337000000004L117.0293999999999 78.97887000000003L117.5507 80.09827000000007L117.37199999999984 80.82397000000003L118.6434999999999 81.6778700000001L117.98219999999992 83.59337000000005L116.38349999999991 85.1289700000001L114.6217999999999 86.84017000000006L113.79209999999989 86.86767000000009L112.14549999999986 88.04457000000002L112.76039999999989 88.49477000000002L112.71299999999997 89.33077000000003L113.13099999999986 90.07307000000003L112.64639999999986 91.17127000000005L111.1737999999998 92.70077000000003L111.91799999999989 93.08067000000005L113.00459999999998 92.43337000000008L117.51319999999987 93.20557000000008L117.89769999999999 93.2842700000001L118.63309999999979 94.95497L119.76959999999985 96.1968700000001L122.57369999999992 97.06087000000002L122.1271999999999 98.19797000000005L122.37389999999982 99.85737000000006L119.76589999999987 101.19537000000003L115.66899999999987 99.92167000000006L114.59909999999991 98.69227000000001L113.96119999999996 98.21007000000009L112.84989999999993 96.9287700000001L111.2697999999998 96.32877000000008L109.6239999999998 94.36857000000009L109.21629999999982 94.50557000000003L108.78969999999981 95.18717000000004L108.01999999999998 95.35057000000006L107.71499999999992 96.09747000000004L107.97509999999988 97.60797000000002L106.95709999999985 99.26427000000001L106.83649999999989 99.64547000000005L107.2014999999999 99.79977000000008L107.00239999999985 100.55167000000006L105.36739999999986 100.60307L103.79509999999982 99.38497000000007L103.00769999999989 99.17767000000003L102.85889999999995 99.95847000000003L101.5659999999998 99.91327000000001L100.43869999999993 101.18247000000008L101.2059999999999 102.71507000000008L101.33569999999986 103.98937000000001L101.44729999999981 104.40807000000007L100.481 106.2643700000001L101.87389999999982 107.23077L101.7625999999998 108.48167000000001L101.19139999999993 109.0872700000001L101.2702999999999 110.27557000000002L100.65729999999985 110.84987000000001L100.2806999999998 110.63947000000007L99.2054999999998 111.35417000000007L97.08069999999998 111.81207000000006L93.44089999999983 114.11677000000009L92.2960999999998 113.20177000000001L93.42139999999995 110.33317L92.42919999999981 108.94167000000004L91.99669999999992 107.25417000000004L92.24389999999994 106.43567000000007L93.0596999999998 106.12177000000008L93.0498 105.31207000000006L92.53199999999993 104.65257000000008L92.02049999999986 102.18597L92.17759999999998 100.99967000000004L91.53949999999986 100.46237000000008L91.03089999999997 99.85697000000005L90.2485999999999 99.70477000000005L89.90679999999998 99.80657000000008L88.39949999999999 98.93897000000004L87.22599999999989 97.6968700000001L84.26569999999992 97.2865700000001L84.17849999999999 96.90217000000007L84.94129999999996 96.00587000000007L86.35039999999981 96.16077000000007L86.18959999999993 94.90497000000005z">
      <title id="t216">Dixième circonscription de Loire-Atlantique</title>
      <desc id="d216">Cantons de : Aigrefeuille-sur-Maine, Clisson, Le Loroux-Bottereau, Vallet, Vertou, Vertou-Vignoble.</desc>
    </path></svg>