<svg xmlns="http://www.w3.org/2000/svg" version="1.1" xmlns:xlink="http://www.w3.org/1999/xlink" xmlns:svgjs="http://svgjs.dev/svgjs" viewBox="785.59803 513.19662 137.1803 109.2938499999999"><path class="circo" id="045-01" d="M 794.64733,580.07865 795.40213,576.16493 791.46053,573.84905 788.50443,577.02963 787.39843,577.64512 787.01943,578.90036 786.66183,580.07625 787.82483,580.3679 790.32283,582.93671 789.86813,583.60213 790.40863,584.17096 788.41673,586.37532 792.54613,589.71948 792.68063,590.14267 791.41863,591.37696 791.39603,591.82329 794.50083,590.17655 795.33973,587.65596 797.58663,589.20031 799.06873,590.17528 800.82623,590.26313 802.39513,591.04281 802.46323,592.37144 803.73823,595.21861 808.33813,593.09908 809.84063,592.21729 810.68323,592.44574 811.49583,592.11494 811.90743,592.26581 812.80573,594.67121 815.41433,593.41872 814.88723,591.38706 815.56853,590.41025 815.76913,589.12383 815.33313,589.18135 815.06273,587.89127 813.40593,587.65027 813.06953,586.83907 812.10783,585.96428 812.04563,584.83119 813.63653,584.0891 814.02123,580.16726 814.96723,579.27715 815.01593,578.40351 818.89493,578.21851 819.68163,577.83038 820.29803,579.53492 820.01113,580.32727 820.62653,584.15982 819.79083,584.97743 820.53003,586.99942 821.83943,586.9066 822.53323,587.45048 823.40073,587.41166 824.40383,582.77234 825.27213,582.74513 826.45513,583.27089 826.95133,583.98776 827.11863,583.11449 826.44303,582.04445 826.92343,580.33512 826.87123,576.83357 825.39473,575.93477 825.25183,575.51358 827.21863,573.18594 827.38133,571.56063 826.16223,570.68279 824.54883,569.6859 823.11003,569.55074 821.58193,569.80394 819.94233,570.3751 818.73593,570.37996 817.17953,570.48553 816.39093,570.38499 815.14743,570.70066 810.81993,573.72602 809.77923,574.3816 808.52283,574.23095 807.67863,574.42088 804.36003,576.56341 803.11433,577.76453 803.62123,578.47784 803.28153,579.74837 803.64553,579.9908 801.95573,581.06776 800.77013,581.289 801.03533,580.495 800.76083,580.17714 799.37653,579.25791 797.78213,578.83579 796.30073,579.57923 794.64733,580.07865 z">
      <title id="t217">Première circonscription du Loiret</title>
      <desc id="d217">Cantons de : Beaugency, Cléry-Saint-André, Olivet, Orléans-Saint-Marceau, Orléans-La Source, Saint-Jean-le-Blanc</desc>
    </path><path class="circo" id="045-02" d="M 810.08623,545.82115 809.85623,546.46935 809.64033,547.28797 807.99123,547.60756 807.43393,548.25965 807.04943,548.05154 805.48313,548.75523 803.35903,548.39436 802.11683,548.655 800.41133,547.25324 799.47973,548.75485 798.67583,548.7261 798.34303,547.9429 797.61213,547.58898 796.51693,548.22709 795.26243,548.42057 794.69573,549.04409 794.65713,551.02264 794.03203,551.55195 792.79163,551.72957 792.16153,553.2557 791.74353,553.28494 791.58733,552.9022 789.99473,552.51791 788.20333,551.4969 787.73773,552.23226 788.46623,552.70847 788.37823,553.13571 786.70303,552.90932 785.59803,553.53305 785.87293,555.66564 786.52453,556.18633 786.03343,557.35625 786.06273,559.41458 786.88613,559.32823 787.53113,558.77211 789.86193,558.46285 789.83073,560.57682 788.41973,562.04821 788.34783,562.47104 789.10853,562.83748 786.58243,564.19225 786.27553,565.81292 786.51323,566.16243 788.90613,567.22213 791.08293,569.40733 791.07273,571.24817 791.88693,572.69499 791.46053,573.84905 795.40213,576.16493 794.64733,580.07865 796.30073,579.57923 797.78213,578.83579 799.37653,579.25791 800.76083,580.17714 801.03533,580.495 800.77013,581.289 801.95573,581.06776 803.64553,579.9908 803.28153,579.74837 803.62123,578.47784 803.11433,577.76453 804.36003,576.56341 807.67863,574.42088 808.52283,574.23095 809.77923,574.3816 810.81993,573.72602 815.14743,570.70066 816.39093,570.38499 817.17953,570.48553 818.73593,570.37996 818.52383,568.98507 818.89323,569.04534 819.25853,567.91362 818.90863,567.21643 818.23763,567.05914 817.93373,565.75722 817.85883,564.87328 819.72753,563.82056 820.02123,561.63692 820.43373,560.9732 820.83213,561.03859 821.38423,558.46424 822.40933,557.04997 823.25953,555.47339 822.09433,552.57665 821.04693,551.78653 821.21583,551.37115 821.59383,549.9481 821.43213,549.20867 822.09933,548.66963 822.78413,549.18362 824.39463,548.77088 824.37623,547.44548 825.01183,546.27492 826.09103,545.49028 826.41623,545.20216 826.23193,544.80826 825.47183,544.3988 825.06123,543.63774 823.84783,543.77611 823.61673,543.40797 823.93903,542.80453 822.91773,541.23801 822.52163,541.1802 823.00343,539.25396 820.08743,538.54134 819.42593,540.73855 818.58193,540.59681 818.30783,540.93862 817.47873,543.7369 816.79223,544.70084 815.36983,545.06025 815.34393,546.35471 813.26973,546.06662 813.09343,546.89369 812.29223,546.98339 810.08623,545.82115 z">
      <title id="t218">Deuxième circonscription du Loiret</title>
      <desc id="d218">Cantons de : Artenay, Ingré, Meung-sur-Loire, Orléans-Bannier, Orléans-Carmes, Patay, Saint-Jean-de-la-Ruelle</desc>
    </path><path class="circo" id="045-03" d="M 892.02863,584.6422 890.55773,583.63225 889.73193,581.08472 888.54763,580.80967 887.59753,581.58314 887.40603,582.34235 885.45883,580.63208 883.78293,580.21499 884.09573,578.95696 884.48213,578.70803 882.94813,578.12987 882.36633,577.07699 881.71273,576.52706 879.66333,576.94135 879.37283,577.73034 876.74493,579.32995 876.77233,580.66398 875.78743,582.1205 875.69793,583.41703 873.09753,582.93507 871.62913,581.9494 868.03663,579.40059 864.43003,576.8689 863.78383,575.95694 863.26193,575.31773 862.18853,577.26937 861.30463,577.29533 859.26563,576.37975 857.25893,577.26785 855.70673,578.77488 854.46013,578.61674 853.56883,577.63182 852.74503,577.77467 851.15063,578.89669 850.33713,578.76058 848.35043,579.29184 847.59173,578.96291 846.95503,577.84533 847.42383,575.76845 846.78393,575.1875 845.88623,575.10844 844.25423,575.83052 842.69593,576.49058 840.84133,575.43833 840.43113,575.25109 837.43863,573.75909 835.36523,573.40149 833.32123,573.5438 832.13253,573.98438 831.59783,574.62144 830.57023,575.48102 829.75373,575.2744 829.40723,572.22441 828.27643,571.55518 827.38133,571.56063 827.21863,573.18594 825.25183,575.51358 825.39473,575.93477 826.87123,576.83357 826.92343,580.33512 826.44303,582.04445 827.11863,583.11449 826.95133,583.98776 826.45513,583.27089 825.27213,582.74513 824.40383,582.77234 823.40073,587.41166 822.53323,587.45048 821.83943,586.9066 820.53003,586.99942 819.79083,584.97743 820.62653,584.15982 820.01113,580.32727 820.29803,579.53492 819.68163,577.83038 818.89493,578.21851 815.01593,578.40351 814.96723,579.27715 814.02123,580.16726 813.63653,584.0891 812.04563,584.83119 812.10783,585.96428 813.06953,586.83907 813.40593,587.65027 815.06273,587.89127 815.33313,589.18135 815.76913,589.12383 815.56853,590.41025 814.88723,591.38706 815.41433,593.41872 812.80573,594.67121 811.90743,592.26581 811.49583,592.11494 810.68323,592.44574 809.84063,592.21729 808.33813,593.09908 803.73823,595.21861 802.99983,595.67858 803.91003,597.09731 804.75583,599.98031 805.32443,600.62331 807.85313,601.11407 808.20133,601.36871 808.04223,602.21395 809.38123,603.22686 810.07143,602.6757 810.23383,601.80668 810.82313,601.15937 813.71073,600.29393 813.43853,599.0266 813.57153,597.27572 813.67063,596.84465 814.48153,596.50082 814.87333,596.32125 815.20033,596.60184 815.16653,597.87644 815.45103,598.20077 817.56863,597.97164 818.27353,598.46752 819.54233,598.38508 820.69603,597.91356 821.51393,597.99449 821.92913,599.98308 823.14303,599.96238 823.87753,600.35135 825.31423,599.5147 826.44783,599.67614 826.89833,598.48759 827.61183,598.01039 832.34903,598.33774 833.19023,597.41751 835.68073,598.02277 836.01253,598.81782 836.42633,598.95187 837.72663,597.90889 838.56993,598.04511 839.53593,598.85733 841.26993,598.82287 844.16703,597.87253 844.37143,598.14434 844.42923,599.84349 845.59693,599.60684 847.31413,602.57856 847.18703,605.1367 851.47273,604.11803 851.81053,604.92899 852.96623,605.59749 854.35053,606.7023 856.03953,607.21681 857.46743,608.90935 858.53273,609.61663 859.12493,608.96758 860.36903,608.67428 860.88393,607.96122 864.09103,606.54962 864.88593,606.95257 865.64933,608.55857 868.53003,611.33891 868.61993,611.77722 869.91113,611.80293 871.08373,611.26382 873.61023,610.96987 875.09903,611.75316 875.63753,612.86941 877.25833,613.05697 878.45643,614.18811 879.27663,615.52152 878.87633,617.05457 882.60393,619.06751 882.75163,621.62656 883.75233,622.3028 885.19573,622.49047 887.59383,621.72845 888.68463,620.51506 888.20463,619.82014 888.49263,619.50883 888.36123,617.43385 888.66283,615.81678 889.05973,615.58083 889.98423,617.03846 891.67253,617.23484 893.14933,618.1484 894.64453,620.70995 895.40633,621.07279 897.08753,620.61811 898.35873,618.88918 901.19853,617.80555 899.25003,615.93689 898.69623,614.71954 899.66893,613.90386 900.68493,614.58442 901.51653,613.74542 901.94373,613.73912 903.14033,613.53446 904.15223,612.87105 904.57073,612.07013 908.34153,613.15219 908.74013,612.3537 909.86133,611.63436 909.71543,611.22048 908.86953,611.00074 908.39833,609.35513 907.23993,608.75797 906.78573,608.00723 907.06313,606.80304 906.10283,604.37142 906.42893,603.18814 907.96543,602.01965 906.88993,600.52462 905.75513,600.41079 904.89863,598.97687 905.40913,597.37408 902.76873,595.30513 902.00093,594.90159 901.62663,594.68611 901.95353,593.46445 901.46273,592.78297 900.05523,593.78141 899.01773,593.03515 898.99053,591.9048 899.32113,591.6072 899.81993,589.01258 899.43533,587.74788 899.65593,587.36171 898.88163,587.14687 898.44593,586.0198 897.68633,585.83009 897.91233,584.279 895.33323,583.81912 894.47433,584.00345 893.54703,584.91228 892.23753,585.02979 892.02863,584.6422 z">
      <title id="t219">Troisième circonscription du Loiret</title>
      <desc id="d219">Cantons de : Briare, Châtillon-sur-Loire, La Ferté-Saint-Aubin, Gien, Jargeau, Ouzouer-sur-Loire, Sully-sur-Loire</desc>
    </path><path class="circo" id="045-04" d="M 918.99073,564.47282 918.54903,565.63467 917.39903,565.98419 916.19973,567.12827 915.95653,568.41799 914.46233,568.86119 912.86023,569.243 913.16723,570.04522 912.46993,570.4513 912.83243,573.01119 911.42253,573.99312 913.83603,574.79501 914.73083,576.96706 914.46223,577.77732 913.03503,578.49151 913.04503,579.35299 913.50503,580.05953 913.17093,580.8079 913.92493,580.86625 914.20043,582.55102 913.87853,584.24535 910.91233,584.27697 910.19393,584.73265 907.98903,585.77747 907.36663,586.84906 906.54163,586.78469 906.38083,587.17064 904.45323,586.39404 903.32713,586.95883 899.65593,587.36171 898.88163,587.14687 898.44593,586.0198 897.68633,585.83009 897.91233,584.279 895.33323,583.81912 894.47433,584.00345 893.54703,584.91228 892.23753,585.02979 892.02863,584.6422 890.55773,583.63225 889.73193,581.08472 888.54763,580.80967 887.59753,581.58314 887.40603,582.34235 885.45883,580.63208 883.78293,580.21499 884.09573,578.95696 884.48213,578.70803 885.93413,577.84419 887.06573,576.58266 887.25423,576.2023 886.39943,575.28897 887.61623,574.15784 888.83923,574.42265 889.12583,574.11717 889.16123,570.45218 888.41243,570.35203 887.58633,568.3911 887.55393,566.65843 887.22353,566.87433 886.49743,566.59615 885.65133,566.46815 884.82193,567.41556 882.78943,566.88523 881.54703,566.96959 881.74113,566.6205 881.34183,565.895 880.80683,566.40777 880.11253,566.14733 879.24873,565.95856 878.63093,565.32675 878.10233,563.64162 876.14863,564.33691 875.41653,562.02333 875.82153,561.31066 876.20503,560.7933 877.35003,556.81102 880.14603,555.38622 878.36013,553.20359 878.27063,552.41927 877.89583,552.0586 877.58213,550.92511 876.87503,550.51108 874.39663,552.08746 872.92843,551.06498 872.61673,549.84471 871.16203,549.86709 871.65563,548.63719 871.48093,548.24553 869.84683,547.547 869.96073,547.14561 868.78943,546.0516 869.66293,545.88796 874.88103,544.96149 876.37083,544.03948 874.90493,543.28334 873.25633,543.39345 873.02933,543.0454 871.91943,542.33129 871.24243,541.23776 871.20113,540.82999 872.54253,539.28848 875.35253,539.25077 875.97343,540.40157 878.22093,540.39685 881.22643,539.48846 883.35843,541.83281 883.59833,541.81689 884.27103,541.24349 886.91153,541.28818 888.26423,539.68449 891.04693,538.63459 890.96673,537.83808 889.44953,536.00261 891.00303,536.62949 891.74963,536.27853 892.58223,536.37933 893.23823,535.86828 894.02563,536.13108 894.76673,535.78391 895.78323,536.28834 895.74073,536.70238 894.89023,537.62059 894.80973,539.6864 895.05843,540.44219 896.63003,540.67118 899.15323,539.03613 900.53533,537.31173 900.88963,537.25604 903.35943,536.87874 906.44223,536.37436 907.77293,536.25074 908.76263,537.71564 910.00063,538.00638 910.80293,537.79055 911.63063,539.29 912.18603,538.73511 912.98023,538.9118 913.82113,539.90574 914.19703,540.10991 914.17393,540.53962 913.20583,542.4483 914.83923,542.45798 915.50243,545.29099 915.88153,545.26834 916.09573,545.94293 916.14583,547.96834 916.97943,548.93954 919.96193,550.30329 919.55143,551.03522 920.15363,552.13653 922.41833,553.20816 920.54093,554.31037 920.45363,554.74602 920.91443,555.48877 922.12783,555.97414 922.15143,557.67992 922.28943,558.32593 922.62343,558.27284 922.31003,559.04376 922.77833,559.7657 922.74613,560.65465 921.49703,561.81807 920.80403,563.90051 920.02863,563.87436 919.39393,564.37727 918.99073,564.47282 z">
      <title id="t220">Quatrième circonscription du Loiret</title>
      <desc id="d220">Cantons de : Amilly, Châlette-sur-Loing, Château-Renard, Châtillon-Coligny, Courtenay, Ferrières, Montargis</desc>
    </path><path class="circo" id="045-05" d="M 865.86553,541.18771 865.60243,541.47028 864.48323,541.20312 864.61613,540.44118 866.04763,539.5831 866.98283,538.2654 866.96173,537.49508 867.92973,536.23086 869.89233,537.2605 870.62193,536.18957 870.10613,534.13986 870.66403,532.59906 871.07973,532.4829 871.31053,531.86532 870.83383,529.87356 870.55463,529.87305 870.65933,528.27217 869.97883,528.00996 869.88083,526.79112 868.00963,526.73535 867.45113,526.07651 867.38133,525.22242 866.72703,524.65356 865.25743,525.27361 864.63763,524.75531 864.26663,524.91872 863.46363,524.59253 862.70013,523.55617 862.56353,523.19518 862.61913,519.03775 861.08073,516.29406 860.76383,516.99223 858.29953,517.83373 858.10883,517.50169 857.41893,517.81545 857.09733,517.60879 855.01753,515.5641 854.84543,514.74533 853.81453,514.9072 853.41013,515.09247 852.37173,517.5054 851.64943,517.76944 849.72903,517.01882 848.51623,518.76085 847.69223,519.14687 847.95243,516.97114 847.08783,516.84959 847.79023,515.11165 846.55873,515.13747 845.10243,514.25446 844.45643,513.19662 842.39153,515.89023 842.27993,517.17961 841.37473,517.01997 841.22073,517.31944 840.00513,517.08516 839.93333,517.86785 840.61523,518.60687 840.58873,519.14176 836.25453,519.33189 836.51953,518.01584 835.67523,518.06913 834.29463,519.64403 831.33363,519.52035 831.22823,520.19301 830.52843,520.7095 829.31783,520.39447 827.64183,520.8177 826.35053,520.65585 825.82273,522.93928 825.24283,523.82125 823.95503,524.76054 823.62863,525.90547 824.01483,527.23486 823.67383,528.82502 824.84333,531.63003 824.43783,532.38586 824.02923,532.37617 823.63453,531.59304 823.21653,531.65477 822.90673,532.45191 824.40913,534.49603 824.22793,535.33349 823.00803,534.92293 821.50243,535.64728 820.42023,535.02771 819.04553,536.92296 818.67853,537.66989 818.85803,538.4207 820.08743,538.54134 823.00343,539.25396 822.52163,541.1802 822.91773,541.23801 823.93903,542.80453 823.61673,543.40797 823.84783,543.77611 825.06123,543.63774 825.47183,544.3988 826.23193,544.80826 826.41623,545.20216 826.09103,545.49028 825.01183,546.27492 824.37623,547.44548 824.39463,548.77088 822.78413,549.18362 822.09933,548.66963 821.43213,549.20867 821.59383,549.9481 821.21583,551.37115 821.04693,551.78653 822.09433,552.57665 823.25953,555.47339 822.40933,557.04997 821.38423,558.46424 820.83213,561.03859 820.43373,560.9732 820.02123,561.63692 819.72753,563.82056 817.85883,564.87328 817.93373,565.75722 818.23763,567.05914 819.54253,567.34935 820.34803,566.99001 821.49293,565.62376 822.42973,564.07297 824.43403,563.39313 825.62483,563.71459 827.15973,560.71775 828.38393,560.77324 829.02973,560.29215 830.41623,561.04189 830.66843,561.37134 828.63963,563.6684 828.98053,564.43627 830.75733,565.42863 830.68923,565.54358 831.82253,565.79034 832.66693,566.53944 833.73293,565.21167 835.40653,565.51769 837.26743,564.5638 837.22213,564.16916 838.50983,563.32789 839.54033,562.57309 843.84073,562.89929 845.22283,563.19945 846.35103,563.51039 848.46563,562.30552 847.74193,561.17684 848.25773,559.47274 848.90263,558.86317 848.96003,555.73819 851.16513,557.27051 852.63513,558.92844 853.15253,558.27932 855.16893,558.73858 857.14633,559.74843 858.46793,559.74462 858.78373,560.05865 859.12043,560.86719 860.39813,561.11667 861.51333,560.51283 861.93023,560.64919 862.36173,562.1735 861.40963,562.91972 861.09623,563.66218 861.41323,563.41305 862.89963,563.93769 862.51673,565.13732 863.68333,566.99432 866.16933,566.20632 867.04853,566.28827 868.08203,565.57479 867.86513,564.43653 869.95803,564.29174 870.26253,563.63667 870.23703,563.2039 870.83463,562.6085 871.61363,562.98191 872.90343,562.9069 872.87053,560.37189 873.62883,560.29672 875.82153,561.31066 876.20503,560.7933 877.35003,556.81102 880.14603,555.38622 878.36013,553.20359 878.27063,552.41927 877.89583,552.0586 877.58213,550.92511 876.87503,550.51108 874.39663,552.08746 872.92843,551.06498 872.61673,549.84471 871.16203,549.86709 871.65563,548.63719 871.48093,548.24553 869.84683,547.547 869.96073,547.14561 868.78943,546.0516 869.66293,545.88796 874.88103,544.96149 876.37083,544.03948 874.90493,543.28334 873.25633,543.39345 873.02933,543.0454 871.91943,542.33129 871.24243,541.23776 867.44723,540.74275 865.86553,541.18771 z">
      <title id="t221">Cinquième circonscription du Loiret</title>
      <desc id="d221">Cantons de : Beaune-la-Rolande, Bellegarde, Fleury-les-Aubrais, Malesherbes, Neuville-aux-Bois, Outarville, Pithiviers, Puiseaux</desc>
    </path><path class="circo" id="045-06" d="M 859.26563,576.37975 857.25893,577.26785 855.70673,578.77488 854.46013,578.61674 853.56883,577.63182 852.74503,577.77467 851.15063,578.89669 850.33713,578.76058 848.35043,579.29184 847.59173,578.96291 846.95503,577.84533 847.42383,575.76845 846.78393,575.1875 845.88623,575.10844 844.25423,575.83052 842.69593,576.49058 840.84133,575.43833 840.43113,575.25109 837.43863,573.75909 835.36523,573.40149 833.32123,573.5438 832.13253,573.98438 831.59783,574.62144 830.57023,575.48102 829.75373,575.2744 829.40723,572.22441 828.27643,571.55518 827.38133,571.56063 826.16223,570.68279 824.54883,569.6859 823.11003,569.55074 821.58193,569.80394 819.94233,570.3751 818.73593,570.37996 818.52383,568.98507 818.89323,569.04534 819.25853,567.91362 818.90863,567.21643 819.54253,567.34935 820.34803,566.99001 821.49293,565.62376 822.42973,564.07297 824.43403,563.39313 825.62483,563.71459 827.15973,560.71775 828.38393,560.77324 829.02973,560.29215 830.41623,561.04189 830.66843,561.37134 828.63963,563.6684 828.98053,564.43627 830.75733,565.42863 830.68923,565.54358 831.82253,565.79034 832.66693,566.53944 833.73293,565.21167 835.40653,565.51769 837.26743,564.5638 837.22213,564.16916 838.50983,563.32789 839.54033,562.57309 843.84073,562.89929 845.22283,563.19945 846.35103,563.51039 848.46563,562.30552 847.74193,561.17684 848.25773,559.47274 848.90263,558.86317 848.96003,555.73819 851.16513,557.27051 852.63513,558.92844 853.15253,558.27932 855.16893,558.73858 857.14633,559.74843 858.46793,559.74462 858.78373,560.05865 859.12043,560.86719 860.39813,561.11667 861.51333,560.51283 861.93023,560.64919 862.36173,562.1735 861.40963,562.91972 861.09623,563.66218 861.41323,563.41305 862.89963,563.93769 862.51673,565.13732 863.68333,566.99432 866.16933,566.20632 867.04853,566.28827 868.08203,565.57479 867.86513,564.43653 869.95803,564.29174 870.26253,563.63667 870.23703,563.2039 870.83463,562.6085 871.61363,562.98191 872.90343,562.9069 872.87053,560.37189 873.62883,560.29672 875.82153,561.31066 875.41653,562.02333 876.14863,564.33691 878.10233,563.64162 878.63093,565.32675 879.24873,565.95856 880.11253,566.14733 880.80683,566.40777 881.34183,565.895 881.74113,566.6205 881.54703,566.96959 882.78943,566.88523 884.82193,567.41556 885.65133,566.46815 886.49743,566.59615 887.22353,566.87433 887.55393,566.65843 887.58633,568.3911 888.41243,570.35203 889.16123,570.45218 889.12583,574.11717 888.83923,574.42265 887.61623,574.15784 886.39943,575.28897 887.25423,576.2023 887.06573,576.58266 885.93413,577.84419 884.48213,578.70803 882.94813,578.12987 882.36633,577.07699 881.71273,576.52706 879.66333,576.94135 879.37283,577.73034 876.74493,579.32995 876.77233,580.66398 875.78743,582.1205 875.69793,583.41703 873.09753,582.93507 871.62913,581.9494 868.03663,579.40059 864.43003,576.8689 863.78383,575.95694 863.26193,575.31773 862.18853,577.26937 861.30463,577.29533 859.26563,576.37975 z">
      <title id="t222">Sixième circonscription du Loiret</title>
      <desc id="d222">Cantons de : Châteauneuf-sur-Loire, Chécy, Lorris, Orléans-Bourgogne, Orléans-Saint-Marc-Argonne, Saint-Jean-de-Braye</desc>
    </path></svg>