<svg xmlns="http://www.w3.org/2000/svg" version="1.1" xmlns:xlink="http://www.w3.org/1999/xlink" xmlns:svgjs="http://svgjs.dev/svgjs" viewBox="740.28013 922.3875 104.4642 100.48199999999997"><path class="circo" id="id-046-01" d="M 770.84343,1020.408 770.23023,1019.8913 769.42223,1019.9875 768.73563,1019.6283 767.61013,1019.9077 765.76363,1019.0741 766.14423,1018.4633 766.02503,1017.0366 767.60403,1015.7927 767.04613,1014.4133 767.69303,1012.0891 767.35103,1011.9917 765.88143,1012.5763 765.03243,1013.4608 763.81273,1013.4194 763.55643,1013.0989 763.14323,1014.9927 762.60763,1015.4311 762.07943,1014.3805 760.99373,1013.8886 760.59613,1013.9253 759.93203,1014.8511 759.13083,1013.4797 758.79443,1013.6756 757.52643,1012.9671 756.93543,1012.0131 757.06523,1010.145 756.22183,1010.9218 755.41913,1010.2229 754.72163,1010.5217 753.66343,1009.5775 752.94663,1009.3816 752.29483,1009.5395 752.08213,1009.2493 751.15633,1008.4659 751.51103,1006.9327 750.71063,1006.0177 750.03343,1005.5739 749.24093,1005.578 748.75513,1004.9359 749.42753,1004.5106 749.84003,1003.3454 750.64153,1003.4407 752.16413,1002.8131 752.97963,1002.8236 753.27733,1002.55 753.11193,1000.2407 750.54923,1000.4766 748.90303,1001.7021 747.29823,1002.068 746.91533,1000.5941 746.20033,1000.4318 747.09453,999.28274 746.73753,996.21831 745.86153,995.81991 745.67653,995.46434 744.50093,995.57398 744.50653,994.80958 743.69373,993.96581 743.63513,992.81779 743.97813,991.69923 743.80673,990.53118 742.61813,989.98187 743.09573,988.81961 743.23603,987.16351 740.28013,982.3064 741.27013,981.71397 742.40913,981.92771 742.97013,983.29684 744.68203,981.12615 745.37703,980.74358 745.44753,980.69778 745.63133,980.33439 747.88613,979.54064 748.23813,978.38331 748.33743,978.7678 749.45213,979.16503 750.62403,979.04964 750.30903,978.05895 750.64593,977.94868 750.02413,976.49769 750.97983,975.20399 752.67083,973.67433 754.67723,971.75339 754.86613,970.93894 754.30513,969.3652 754.58643,969.10459 754.32363,967.21991 755.54153,966.96089 756.04413,966.28825 757.19903,965.79859 760.93823,965.60981 760.95153,965.43718 761.40163,964.78639 762.50083,964.36992 762.64573,963.16055 764.08263,962.51147 764.80503,961.08655 766.24843,961.99869 767.22593,960.32816 767.36783,958.43067 768.71603,958.89848 769.18223,956.41822 768.04303,955.24481 767.10973,954.51763 767.67523,953.47337 767.57433,953.08185 766.78313,952.97501 767.45073,952.0297 769.51983,951.03921 770.68103,951.08797 772.15863,950.53145 772.80053,950.37353 772.49303,947.51564 772.91583,946.37021 774.01083,946.56454 774.88223,945.76811 776.06503,945.88117 776.09513,945.67003 776.32603,944.2011 776.64173,944.00142 776.82483,943.04396 777.27803,943.26058 778.91793,943.01074 779.43713,942.36744 781.23593,943.91219 781.15683,945.106 780.48663,945.56176 780.87733,946.33904 783.28453,946.52126 783.60233,946.26363 784.44203,947.41878 785.59703,948.32194 785.71433,947.69256 787.28693,947.97615 787.90953,949.42367 788.70913,949.33978 789.42913,950.19632 789.78203,952.22447 790.84733,952.8835 792.09173,952.86326 792.41703,953.63074 793.18733,953.92331 791.86453,955.6774 791.49503,955.74444 790.27883,956.81746 787.85793,956.60749 788.38983,958.3749 789.16513,959.01372 789.96373,958.16175 791.36203,958.99529 792.21213,959.88079 792.27653,961.93505 793.23713,963.26962 795.14033,963.96826 796.37923,965.00413 796.34143,965.05745 796.99963,965.39712 797.64493,966.81769 798.39663,967.06321 800.24363,963.82201 801.15823,963.06056 802.40583,964.08234 802.63173,966.49865 801.84673,966.9022 802.99613,968.00157 803.21123,968.77394 802.46403,968.6548 801.66893,969.47369 801.06083,970.57349 801.71273,973.39764 800.61913,975.17892 800.58893,976.65955 801.25003,977.06013 802.47963,976.80565 804.18863,975.57624 806.64653,975.88543 807.60473,977.16337 805.98853,978.38677 805.81703,980.00631 805.22113,981.51847 805.49353,981.82335 805.23563,984.25626 805.62783,984.97246 805.27313,985.68322 804.07063,987.33692 803.96433,988.11013 803.63073,988.31283 802.09863,988.24776 801.59173,988.76242 801.27613,989.53248 801.74153,990.21454 802.12543,992.25758 802.60583,992.8191 802.67323,994.86661 803.62153,996.64513 803.76823,997.4004 803.38753,997.57046 801.75143,995.71766 800.96723,995.56981 800.48763,997.95876 800.00223,998.62893 798.29373,999.36364 797.76083,998.77933 797.08163,996.51528 796.31983,996.11475 796.21903,996.1582 795.49173,996.4666 794.88783,997.47799 793.58793,998.36751 793.18623,999.50593 793.44923,1002.201 794.82303,1001.3706 795.24373,1002.0603 796.01493,1002.2953 796.84503,1003.1642 797.99413,1003.0449 799.41413,1001.1879 800.20863,1001.03 800.55753,1001.1516 800.38723,1001.9522 800.85173,1005.92 801.18513,1005.9627 802.42543,1007.5429 802.45113,1007.9457 801.47403,1008.4935 801.54993,1009.6762 799.27443,1011.655 798.89633,1011.6058 798.83043,1012.1831 798.77503,1012.4995 798.11533,1012.6743 797.90893,1013.3876 797.19253,1011.7898 795.73723,1011.986 797.10693,1013.3938 796.32723,1014.8256 795.54063,1014.9129 794.22883,1014.0146 794.26783,1011.6759 793.06703,1011.8543 792.57193,1011.2184 791.79213,1011.2291 790.62733,1011.2854 790.35373,1011.5898 790.77483,1013.1452 789.83403,1013.902 789.89773,1014.3049 790.86923,1015.0214 791.21943,1016.1981 791.65523,1017.2233 791.06163,1018.0833 790.55883,1019.0729 788.26683,1019.6863 787.53653,1019.6774 786.64103,1018.8525 785.89653,1017.0611 786.40513,1016.0109 785.13953,1014.5119 784.02483,1014.8143 783.27693,1014.6405 783.02863,1013.9099 782.10243,1013.2736 781.20463,1015.0451 780.49453,1015.4406 780.28153,1016.6372 778.04083,1018.281 777.81133,1018.1926 775.35553,1019.8284 773.91133,1020.5586 772.24593,1022.8695 770.84343,1020.408 z">
      <title id="t223">Première circonscription du Lot</title>
      <desc id="d223">Cantons de : Cahors Nord-Est, Cahors Nord-Ouest, Cahors Sud, Castelnau-Montratier, Catus, Cazals, Gourdon, Labastide-Murat, Lalbenque, Lauzès, Luzech, Montcuq, Payrac, Puy-l'Evêque, Saint-Germain-du-Bel-Air, Saint-Géry, Salviac.</desc>
    </path><path class="circo" id="id-046-02" d="M 817.25583,933.00576 814.19243,934.21778 813.48853,935.31816 813.12773,935.18619 812.90353,934.44873 812.53653,934.55694 812.34863,935.69292 811.93123,936.39651 810.34303,936.61394 809.92063,937.32404 809.86703,937.33461 809.97763,936.60001 808.63743,935.33942 808.53923,936.10632 807.69443,936.94433 807.64523,936.82512 807.04863,935.80303 805.64983,935.11366 805.94123,934.86569 805.50033,932.94654 804.81513,932.49559 803.25653,931.58712 802.49603,931.62977 802.29003,931.68948 802.09783,931.4081 801.63963,929.37261 800.69583,928.65124 800.02413,927.43919 798.92243,927.24119 797.37443,925.47998 797.26323,924.71839 795.60473,923.87191 794.06473,923.77424 793.66503,923.87444 793.61393,924.28482 793.53823,923.72721 790.79263,922.92705 788.77563,924.33521 788.08733,924.00133 787.77903,922.3875 786.62673,922.43394 785.99643,922.91382 784.84513,923.00921 782.64613,924.54183 782.40823,924.52259 782.42193,925.34325 781.36713,925.94089 780.98243,926.07941 779.95433,925.43693 778.67173,926.46068 776.62793,926.95001 777.12583,928.53236 777.06413,930.89409 777.51523,931.55696 777.46613,932.77176 778.28393,934.21022 778.69623,934.24204 778.89313,934.98866 778.66543,935.30243 779.38473,937.51539 777.86043,937.57709 776.74663,938.71498 777.40483,938.87581 777.70803,940.19996 779.23983,941.09542 779.43713,942.36744 781.23593,943.91219 781.15683,945.106 780.48663,945.56176 780.87733,946.33904 783.28453,946.52126 783.60233,946.26363 784.44203,947.41878 785.59703,948.32194 785.71433,947.69256 787.28693,947.97615 787.90953,949.42367 788.70913,949.33978 789.42913,950.19632 789.78203,952.22447 790.84733,952.8835 792.09173,952.86326 792.41703,953.63074 793.18733,953.92331 791.86453,955.6774 791.49503,955.74444 790.27883,956.81746 787.85793,956.60749 788.38983,958.3749 789.16513,959.01372 789.96373,958.16175 791.36203,958.99529 792.21213,959.88079 792.27653,961.93505 793.23713,963.26962 795.14033,963.96826 796.37923,965.00413 796.34143,965.05745 796.99963,965.39712 797.64493,966.81769 798.39663,967.06321 800.24363,963.82201 801.15823,963.06056 802.40583,964.08234 802.63173,966.49865 801.84673,966.9022 802.99613,968.00157 803.21123,968.77394 802.46403,968.6548 801.66893,969.47369 801.06083,970.57349 801.71273,973.39764 800.61913,975.17892 800.58893,976.65955 801.25003,977.06013 802.47963,976.80565 804.18863,975.57624 806.64653,975.88543 807.60473,977.16337 805.98853,978.38677 805.81703,980.00631 805.22113,981.51847 805.49353,981.82335 805.23563,984.25626 805.62783,984.97246 805.27313,985.68322 804.07063,987.33692 803.96433,988.11013 803.63073,988.31283 802.09863,988.24776 801.59173,988.76242 801.27613,989.53248 801.74153,990.21454 802.12543,992.25758 802.60583,992.8191 802.67323,994.86661 803.62153,996.64513 803.76823,997.4004 803.38753,997.57046 801.75143,995.71766 800.96723,995.56981 800.48763,997.95876 800.00223,998.62893 798.29373,999.36364 797.76083,998.77933 797.08163,996.51528 796.31983,996.11475 796.21903,996.1582 795.49173,996.4666 794.88783,997.47799 793.58793,998.36751 793.18623,999.50593 793.44923,1002.201 794.82303,1001.3706 795.24373,1002.0603 796.01493,1002.2953 796.84503,1003.1642 797.99413,1003.0449 799.41413,1001.1879 800.20863,1001.03 800.55753,1001.1516 800.38723,1001.9522 800.85173,1005.92 801.18513,1005.9627 802.42543,1007.5429 802.45113,1007.9457 801.47403,1008.4935 801.54993,1009.6762 802.28733,1010.0021 804.16743,1009.2731 804.83383,1008.2752 806.41943,1008.6469 807.59873,1009.7012 808.37963,1009.4687 808.84573,1008.7952 808.43713,1008.0794 809.11833,1008.0796 809.31763,1007.3695 810.36073,1007.0465 810.62643,1007.8384 812.10243,1008.5971 812.71763,1007.2251 813.86763,1006.9076 814.25293,1007.5941 816.83013,1006.638 817.31963,1005.5086 817.64123,1005.2483 818.85533,1005.3564 819.27343,1004.6572 819.05343,1003.8629 818.04393,1003.148 817.62453,1001.9944 816.17723,1000.5309 815.70743,999.84369 816.16603,998.69521 815.87793,997.05491 816.08523,996.69298 816.07383,996.63954 814.17163,995.06923 814.25093,992.21661 813.90363,991.47531 813.22493,990.45578 813.31733,990.04895 815.08693,989.11571 816.43613,989.4996 817.09113,989.25225 817.02153,987.72556 817.32513,987.03241 818.48953,987.17376 819.04303,989.01133 819.75173,989.23438 820.12313,988.56736 819.31093,987.26315 819.96073,987.08366 820.75623,986.99975 821.65403,985.68584 822.44903,985.54219 823.27623,985.33476 824.45223,983.7241 825.11543,982.7138 825.51363,981.96994 827.21123,980.81313 828.45493,980.98002 829.23593,980.68895 829.30623,980.66127 829.81903,980.05451 829.86263,979.2408 831.51523,978.04117 832.24863,978.12698 832.07193,979.29688 832.35373,979.49757 832.67303,979.24891 833.64683,977.45614 834.05263,977.45889 834.95853,978.30157 835.69553,979.08162 836.73823,978.88724 837.24863,978.27877 837.64473,978.27221 838.27173,979.21288 839.82143,979.06814 841.26563,976.71267 841.28803,976.70169 842.64783,976.78524 843.26653,977.16576 843.71803,976.4916 843.69443,975.32255 844.48183,975.34033 844.74433,974.58637 844.48923,973.8224 843.14193,972.3094 841.86093,971.44078 841.25433,971.14071 841.26473,969.97995 841.62123,969.31681 840.96453,968.35651 842.08163,966.78338 840.00033,963.80431 838.60833,964.57954 837.90903,963.81208 838.18233,962.60954 839.44103,960.99539 839.90053,957.37455 839.53113,955.38777 839.68653,955.34946 840.85003,955.04162 841.17673,953.92331 841.44253,952.92638 840.96823,951.8766 840.98833,950.31338 838.73673,948.90476 837.70583,946.89038 837.46943,946.23677 836.81673,945.97636 834.80193,943.08391 834.12573,941.57424 834.11623,939.91592 834.26033,939.52099 836.04293,938.49774 835.55203,937.37926 833.34333,935.5941 833.71323,933.57739 832.20113,930.58263 831.47513,930.55884 830.68873,929.7221 827.55613,930.61568 825.52183,930.91752 823.16423,932.68467 822.68733,933.38761 821.90003,933.19158 821.76593,931.14341 820.66333,930.30686 820.40463,930.55055 819.01433,930.37391 817.36433,932.2146 817.25583,933.00576 z">
      <title id="t224">Deuxième circonscription du Lot</title>
      <desc id="d224">Cantons de : Bretenoux, Cajarc, Figeac Est, Figeac Ouest, Gramat, Lacapelle-Marival, Latronquière, Limogne-en-Quercy, Livernon, Martel, Saint-Céré, Souillac, Sousceyrac, Vayrac.</desc>
    </path></svg>