<svg xmlns="http://www.w3.org/2000/svg" version="1.1" xmlns:xlink="http://www.w3.org/1999/xlink" xmlns:svgjs="http://svgjs.dev/svgjs" viewBox="0 0 104.4642 100.48199999999997"><path class="circo" id="id-046-01" d="M30.563300000000027 98.02049999999997L29.95010000000002 97.50379999999996L29.142100000000028 97.59999999999991L28.45550000000003 97.24079999999992L27.33000000000004 97.52019999999993L25.48350000000005 96.6866L25.864100000000008 96.07579999999996L25.74490000000003 94.64909999999998L27.32389999999998 93.40519999999992L26.765999999999963 92.0258L27.412900000000036 89.70159999999998L27.07090000000005 89.60419999999999L25.601300000000037 90.1887999999999L24.75229999999999 91.0732999999999L23.532600000000002 91.03189999999995L23.276299999999992 90.71139999999991L22.86310000000003 92.60519999999997L22.327499999999986 93.04359999999997L21.799300000000017 91.99299999999994L20.713600000000042 91.50109999999995L20.31600000000003 91.53779999999995L19.65190000000007 92.46359999999993L18.85069999999996 91.09219999999993L18.51430000000005 91.28809999999999L17.24630000000002 90.57959999999991L16.65530000000001 89.62559999999996L16.785100000000057 87.75749999999994L15.941699999999969 88.53429999999992L15.13900000000001 87.83539999999994L14.441500000000019 88.13419999999996L13.383299999999963 87.18999999999994L12.666500000000042 86.9941L12.014700000000062 87.15199999999993L11.802000000000021 86.8617999999999L10.87620000000004 86.07839999999999L11.23090000000002 84.54519999999991L10.430500000000052 83.63019999999995L9.753299999999967 83.18639999999994L8.960800000000063 83.19049999999993L8.475000000000023 82.5483999999999L9.147400000000061 82.12309999999991L9.55989999999997 80.9579L10.361400000000003 81.05319999999995L11.884000000000015 80.42559999999992L12.699500000000057 80.43610000000001L12.99720000000002 80.16249999999991L12.831800000000044 77.8531999999999L10.26909999999998 78.08909999999992L8.622899999999959 79.31459999999993L7.018100000000004 79.68049999999994L6.635200000000054 78.20659999999998L5.9202000000000226 78.04429999999991L6.814399999999978 76.89523999999994L6.457400000000007 73.83080999999993L5.581400000000031 73.43241L5.396399999999971 73.07683999999995L4.220800000000054 73.18647999999996L4.226400000000012 72.42207999999994L3.413599999999974 71.57830999999999L3.355000000000018 70.4302899999999L3.697999999999979 69.3117299999999L3.5266000000000304 68.1436799999999L2.3379999999999654 67.59436999999991L2.8156000000000176 66.43210999999997L2.9559000000000424 64.77600999999993L0 59.91890000000001L0.9900000000000091 59.32646999999997L2.129000000000019 59.54021L2.6900000000000546 60.90933999999993L4.401900000000069 58.73865000000001L5.096900000000005 58.356079999999906L5.167400000000043 58.31027999999992L5.351200000000063 57.94688999999994L7.6059999999999945 57.15314000000001L7.95799999999997 55.995810000000006L8.057300000000055 56.38029999999992L9.172000000000025 56.777529999999956L10.343899999999962 56.66213999999991L10.028900000000021 55.671449999999936L10.365800000000036 55.56117999999992L9.744000000000028 54.11018999999999L10.699700000000007 52.81648999999993L12.390700000000038 51.28683000000001L14.397100000000023 49.36588999999992L14.586000000000013 48.55143999999996L14.024999999999977 46.97769999999991L14.306299999999965 46.717089999999985L14.043499999999995 44.83240999999998L15.26139999999998 44.573389999999904L15.76400000000001 43.9007499999999L16.918900000000008 43.411089999999945L20.65809999999999 43.22230999999999L20.671400000000062 43.04967999999997L21.12149999999997 42.39888999999994L22.220699999999965 41.982419999999934L22.365599999999972 40.7730499999999L23.80250000000001 40.123969999999986L24.524900000000002 38.69904999999994L25.9683 39.611189999999965L26.945799999999963 37.94065999999998L27.08770000000004 36.04316999999992L28.43590000000006 36.510979999999904L28.90210000000002 34.030719999999974L27.76290000000006 32.857309999999984L26.829600000000028 32.13013000000001L27.39510000000007 31.08587L27.294200000000046 30.694349999999986L26.503000000000043 30.587509999999952L27.170600000000036 29.642200000000003L29.23969999999997 28.65170999999998L30.40089999999998 28.700469999999996L31.87850000000003 28.143949999999904L32.520399999999995 27.986029999999914L32.21289999999999 25.128139999999917L32.63570000000004 23.982709999999997L33.73070000000007 24.17703999999992L34.602100000000064 23.380609999999933L35.78489999999999 23.493669999999952L35.815000000000055 23.28252999999995L36.04589999999996 21.81359999999995L36.36160000000007 21.613920000000007L36.544700000000034 20.656459999999925L36.99789999999996 20.87307999999996L38.63779999999997 20.62324000000001L39.15700000000004 19.979939999999942L40.95580000000007 21.524689999999964L40.87670000000003 22.71849999999995L40.206500000000005 23.174260000000004L40.59720000000004 23.95153999999991L43.00440000000003 24.13375999999994L43.322200000000066 23.87612999999999L44.16190000000006 25.031279999999924L45.31690000000003 25.934439999999995L45.43420000000003 25.305059999999912L47.0068 25.588649999999916L47.62940000000003 27.03616999999997L48.428999999999974 26.952279999999973L49.149 27.80881999999997L49.50189999999998 29.83696999999995L50.56720000000007 30.49599999999998L51.8116 30.475759999999923L52.13689999999997 31.2432399999999L52.90719999999999 31.53580999999997L51.58439999999996 33.28989999999999L51.21490000000006 33.35694000000001L49.998699999999985 34.42995999999994L47.577800000000025 34.21998999999994L48.109699999999975 35.98739999999998L48.88499999999999 36.62621999999999L49.68360000000007 35.77424999999994L51.08190000000002 36.60778999999991L51.932000000000016 37.49329L51.996399999999994 39.54755L52.956999999999994 40.882119999999986L54.86019999999996 41.58075999999994L56.09910000000002 42.61662999999999L56.06129999999996 42.66994999999997L56.71950000000004 43.00961999999993L57.36480000000006 44.430189999999925L58.116499999999974 44.67570999999998L59.96350000000007 41.43450999999993L60.87810000000002 40.673059999999964L62.12570000000005 41.69484L62.35159999999996 44.11114999999995L61.566599999999994 44.51469999999995L62.71600000000001 45.61406999999997L62.931100000000015 46.38643999999999L62.183899999999994 46.26729999999998L61.38880000000006 47.08618999999999L60.780700000000024 48.18598999999995L61.43259999999998 51.01013999999998L60.339000000000055 52.7914199999999L60.30880000000002 54.27204999999992L60.96990000000005 54.67262999999991L62.19950000000006 54.41814999999997L63.908500000000004 53.18873999999994L66.3664 53.49793L67.32460000000003 54.77586999999994L65.70839999999998 55.99926999999991L65.53690000000006 57.61880999999994L64.94100000000003 59.130969999999934L65.21339999999998 59.43584999999996L64.95550000000003 61.86875999999995L65.34770000000003 62.58495999999991L64.99300000000005 63.29571999999996L63.790500000000065 64.94941999999992L63.68420000000003 65.72262999999998L63.350599999999986 65.92532999999992L61.81849999999997 65.86025999999993L61.3116 66.37491999999997L60.99599999999998 67.14497999999992L61.461400000000026 67.82704000000001L61.845300000000066 69.87007999999992L62.32569999999998 70.4316L62.393100000000004 72.47910999999999L63.34140000000002 74.25762999999995L63.48810000000003 75.01289999999995L63.107399999999984 75.18295999999998L61.47130000000004 73.33015999999998L60.68709999999999 73.18230999999992L60.20749999999998 75.57125999999994L59.72210000000007 76.24142999999992L58.0136 76.97613999999999L57.48070000000007 76.39182999999991L56.80150000000003 74.12777999999992L56.03970000000004 73.72724999999991L55.93889999999999 73.77069999999992L55.211599999999976 74.07909999999993L54.60770000000002 75.09048999999993L53.30780000000004 75.98001L52.90610000000004 77.11842999999999L53.16909999999996 79.81349999999998L54.54290000000003 78.98309999999992L54.96360000000004 79.67279999999994L55.734800000000064 79.90779999999995L56.564899999999966 80.7767L57.714000000000055 80.65739999999994L59.134000000000015 78.80039999999997L59.928499999999985 78.64249999999993L60.27740000000006 78.76409999999998L60.10710000000006 79.5646999999999L60.57159999999999 83.53249999999991L60.90499999999997 83.5752L62.14530000000002 85.15539999999999L62.17100000000005 85.55819999999994L61.193899999999985 86.106L61.26980000000003 87.28869999999995L58.99430000000007 89.26749999999993L58.61620000000005 89.2183L58.55029999999999 89.79559999999992L58.49490000000003 90.11199999999997L57.835199999999986 90.28679999999997L57.62880000000007 91.00009999999997L56.91240000000005 89.40229999999997L55.45709999999997 89.59849999999994L56.82680000000005 91.00630000000001L56.0471 92.43809999999996L55.26049999999998 92.52539999999999L53.94870000000003 91.62709999999993L53.98770000000002 89.28839999999991L52.78690000000006 89.46679999999992L52.29179999999997 88.83089999999993L51.51200000000006 88.84159999999997L50.34720000000004 88.89789999999994L50.073600000000056 89.20229999999992L50.494699999999966 90.7577L49.5539 91.5145L49.61760000000004 91.91739999999993L50.58910000000003 92.63389999999993L50.9393 93.81059999999991L51.375099999999975 94.83579999999995L50.78150000000005 95.69579999999996L50.27869999999996 96.68539999999996L47.98670000000004 97.29879999999991L47.256399999999985 97.28989999999999L46.360900000000015 96.46499999999992L45.6164 94.67359999999996L46.125 93.62339999999995L44.85940000000005 92.12439999999992L43.744699999999966 92.42679999999996L42.99680000000001 92.25299999999993L42.748500000000035 91.52239999999995L41.82230000000004 90.88609999999994L40.924499999999966 92.6576L40.21440000000007 93.05309999999997L40.00139999999999 94.24969999999996L37.76070000000004 95.8934999999999L37.53120000000001 95.80509999999992L35.07540000000006 97.44089999999994L33.631200000000035 98.17109999999991L31.96580000000006 100.48199999999997L30.563300000000027 98.02049999999997z">
      <title id="t223">Première circonscription du Lot</title>
      <desc id="d223">Cantons de : Cahors Nord-Est, Cahors Nord-Ouest, Cahors Sud, Castelnau-Montratier, Catus, Cazals, Gourdon, Labastide-Murat, Lalbenque, Lauzès, Luzech, Montcuq, Payrac, Puy-l'Evêque, Saint-Germain-du-Bel-Air, Saint-Géry, Salviac.</desc>
    </path><path class="circo" id="id-046-02" d="M76.97569999999996 10.618259999999964L73.91229999999996 11.830279999999902L73.20839999999998 12.930659999999989L72.84760000000006 12.798689999999965L72.62340000000006 12.06122999999991L72.25639999999999 12.169440000000009L72.06849999999997 13.305419999999913L71.65110000000004 14.00900999999999L70.06290000000001 14.226439999999911L69.64049999999997 14.936539999999923L69.58690000000001 14.947109999999952L69.69749999999999 14.212509999999952L68.35730000000001 12.951919999999973L68.25909999999999 13.718819999999937L67.41430000000003 14.55682999999999L67.36509999999998 14.437619999999924L66.76850000000002 13.41552999999999L65.36969999999997 12.726159999999936L65.66110000000003 12.478189999999927L65.22019999999998 10.559039999999982L64.53499999999997 10.108089999999947L62.97640000000001 9.199619999999982L62.21590000000003 9.242269999999962L62.009900000000016 9.301979999999958L61.81770000000006 9.020599999999945L61.359500000000025 6.985109999999963L60.415700000000015 6.263739999999984L59.74400000000003 5.051690000000008L58.64229999999998 4.853689999999915L57.094299999999976 3.0924799999999095L56.983100000000036 2.330889999999954L55.32460000000003 1.4844099999999116L53.78460000000007 1.386739999999918L53.384900000000016 1.4869400000000041L53.3338 1.8973199999999224L53.25810000000001 1.3397099999999682L50.512500000000045 0.5395499999999629L48.49549999999999 1.9477099999999155L47.807199999999966 1.6138300000000072L47.49890000000005 0L46.34659999999997 0.0464399999999614L45.71630000000005 0.5263199999999415L44.565000000000055 0.6217100000000073L42.365999999999985 2.154329999999959L42.12810000000002 2.135089999999991L42.14179999999999 2.9557499999999663L41.08699999999999 3.553389999999922L40.70230000000004 3.691910000000007L39.67420000000004 3.0494299999999157L38.39160000000004 4.073179999999979L36.34780000000001 4.562509999999975L36.845699999999965 6.144859999999994L36.78399999999999 8.50658999999996L37.23509999999999 9.169459999999958L37.186000000000035 10.384259999999927L38.00380000000007 11.822720000000004L38.41610000000003 11.854539999999929L38.613000000000056 12.601159999999936L38.38530000000003 12.914929999999913L39.104600000000005 15.12788999999998L37.580299999999966 15.189589999999953L36.466499999999996 16.327479999999923L37.12469999999996 16.488309999999956L37.42790000000002 17.812459999999987L38.9597 18.707919999999945L39.15700000000004 19.979939999999942L40.95580000000007 21.524689999999964L40.87670000000003 22.71849999999995L40.206500000000005 23.174260000000004L40.59720000000004 23.95153999999991L43.00440000000003 24.13375999999994L43.322200000000066 23.87612999999999L44.16190000000006 25.031279999999924L45.31690000000003 25.934439999999995L45.43420000000003 25.305059999999912L47.0068 25.588649999999916L47.62940000000003 27.03616999999997L48.428999999999974 26.952279999999973L49.149 27.80881999999997L49.50189999999998 29.83696999999995L50.56720000000007 30.49599999999998L51.8116 30.475759999999923L52.13689999999997 31.2432399999999L52.90719999999999 31.53580999999997L51.58439999999996 33.28989999999999L51.21490000000006 33.35694000000001L49.998699999999985 34.42995999999994L47.577800000000025 34.21998999999994L48.109699999999975 35.98739999999998L48.88499999999999 36.62621999999999L49.68360000000007 35.77424999999994L51.08190000000002 36.60778999999991L51.932000000000016 37.49329L51.996399999999994 39.54755L52.956999999999994 40.882119999999986L54.86019999999996 41.58075999999994L56.09910000000002 42.61662999999999L56.06129999999996 42.66994999999997L56.71950000000004 43.00961999999993L57.36480000000006 44.430189999999925L58.116499999999974 44.67570999999998L59.96350000000007 41.43450999999993L60.87810000000002 40.673059999999964L62.12570000000005 41.69484L62.35159999999996 44.11114999999995L61.566599999999994 44.51469999999995L62.71600000000001 45.61406999999997L62.931100000000015 46.38643999999999L62.183899999999994 46.26729999999998L61.38880000000006 47.08618999999999L60.780700000000024 48.18598999999995L61.43259999999998 51.01013999999998L60.339000000000055 52.7914199999999L60.30880000000002 54.27204999999992L60.96990000000005 54.67262999999991L62.19950000000006 54.41814999999997L63.908500000000004 53.18873999999994L66.3664 53.49793L67.32460000000003 54.77586999999994L65.70839999999998 55.99926999999991L65.53690000000006 57.61880999999994L64.94100000000003 59.130969999999934L65.21339999999998 59.43584999999996L64.95550000000003 61.86875999999995L65.34770000000003 62.58495999999991L64.99300000000005 63.29571999999996L63.790500000000065 64.94941999999992L63.68420000000003 65.72262999999998L63.350599999999986 65.92532999999992L61.81849999999997 65.86025999999993L61.3116 66.37491999999997L60.99599999999998 67.14497999999992L61.461400000000026 67.82704000000001L61.845300000000066 69.87007999999992L62.32569999999998 70.4316L62.393100000000004 72.47910999999999L63.34140000000002 74.25762999999995L63.48810000000003 75.01289999999995L63.107399999999984 75.18295999999998L61.47130000000004 73.33015999999998L60.68709999999999 73.18230999999992L60.20749999999998 75.57125999999994L59.72210000000007 76.24142999999992L58.0136 76.97613999999999L57.48070000000007 76.39182999999991L56.80150000000003 74.12777999999992L56.03970000000004 73.72724999999991L55.93889999999999 73.77069999999992L55.211599999999976 74.07909999999993L54.60770000000002 75.09048999999993L53.30780000000004 75.98001L52.90610000000004 77.11842999999999L53.16909999999996 79.81349999999998L54.54290000000003 78.98309999999992L54.96360000000004 79.67279999999994L55.734800000000064 79.90779999999995L56.564899999999966 80.7767L57.714000000000055 80.65739999999994L59.134000000000015 78.80039999999997L59.928499999999985 78.64249999999993L60.27740000000006 78.76409999999998L60.10710000000006 79.5646999999999L60.57159999999999 83.53249999999991L60.90499999999997 83.5752L62.14530000000002 85.15539999999999L62.17100000000005 85.55819999999994L61.193899999999985 86.106L61.26980000000003 87.28869999999995L62.00720000000001 87.6146L63.88729999999998 86.88559999999995L64.55370000000005 85.8877L66.13930000000005 86.25939999999991L67.31860000000006 87.31369999999993L68.09950000000003 87.08119999999997L68.56560000000002 86.40769999999998L68.15700000000004 85.69189999999992L68.83820000000003 85.69209999999998L69.03750000000002 84.98199999999997L70.0806 84.65899999999999L70.34630000000004 85.45089999999993L71.82230000000004 86.20959999999991L72.4375 84.83759999999995L73.58749999999998 84.52009999999996L73.9728 85.20659999999998L76.55000000000007 84.25049999999999L77.03949999999998 83.12109999999996L77.36109999999996 82.86079999999993L78.5752 82.96889999999996L78.99329999999998 82.26969999999994L78.77330000000006 81.47539999999992L77.76380000000006 80.76049999999998L77.34440000000006 79.6069L75.89710000000002 78.14339999999993L75.42730000000006 77.45618999999999L75.88589999999999 76.30770999999993L75.5978 74.6674099999999L75.80510000000004 74.30547999999999L75.79370000000006 74.25203999999997L73.89150000000006 72.6817299999999L73.97080000000005 69.8291099999999L73.62350000000004 69.08780999999999L72.94479999999999 68.06827999999996L73.03719999999998 67.66144999999995L74.80680000000007 66.72820999999999L76.15600000000006 67.11209999999994L76.81100000000004 66.86474999999996L76.7414 65.33805999999993L77.04499999999996 64.64490999999998L78.20939999999996 64.78625999999997L78.76290000000006 66.62383L79.47159999999997 66.84687999999994L79.84299999999996 66.17985999999996L79.0308 64.87564999999995L79.68060000000003 64.69615999999996L80.47609999999997 64.6122499999999L81.37390000000005 63.29833999999994L82.16890000000001 63.15468999999996L82.99610000000007 62.947259999999915L84.1721 61.336599999999976L84.83529999999996 60.32629999999995L85.23350000000005 59.582439999999906L86.93110000000001 58.425629999999956L88.1748 58.59251999999992L88.95580000000007 58.30144999999993L89.02610000000004 58.2737699999999L89.53890000000001 57.667010000000005L89.58249999999998 56.85329999999999L91.23509999999999 55.65366999999992L91.96850000000006 55.73947999999996L91.79179999999997 56.90937999999994L92.07360000000006 57.11006999999995L92.39290000000005 56.86140999999998L93.36670000000004 55.06863999999996L93.77250000000004 55.07138999999995L94.67840000000001 55.914069999999924L95.41539999999998 56.69412L96.45810000000006 56.499739999999974L96.96850000000006 55.89126999999996L97.3646 55.88470999999993L97.99160000000006 56.825379999999996L99.54129999999998 56.680639999999926L100.9855 54.32516999999996L101.00790000000006 54.31418999999994L102.36770000000001 54.39774L102.9864 54.77825999999993L103.43790000000001 54.1040999999999L103.41430000000003 52.93504999999993L104.20169999999996 52.95282999999995L104.4642 52.19886999999994L104.20910000000003 51.43489999999997L102.86180000000002 49.92189999999994L101.58080000000007 49.05327999999997L100.9742 48.75320999999997L100.9846 47.592449999999985L101.34109999999998 46.92930999999999L100.68439999999998 45.96900999999991L101.80150000000003 44.39587999999992L99.72019999999998 41.41680999999994L98.32820000000004 42.192039999999906L97.62890000000004 41.42457999999999L97.9022 40.22203999999999L99.16089999999997 38.60789L99.62040000000002 34.987049999999954L99.25099999999998 33.00027L99.40639999999996 32.961959999999976L100.56989999999996 32.65411999999992L100.89660000000003 31.53580999999997L101.16240000000005 30.53887999999995L100.68809999999996 29.489100000000008L100.70820000000003 27.925880000000006L98.45659999999998 26.517259999999965L97.4257 24.502880000000005L97.1893 23.849269999999933L96.53660000000002 23.588859999999954L94.52179999999998 20.6964099999999L93.84559999999999 19.186739999999986L93.83609999999999 17.528419999999983L93.98019999999997 17.133489999999938L95.76279999999997 16.110239999999976L95.27189999999996 14.99176L93.06320000000005 13.20659999999998L93.43309999999997 11.189889999999991L91.92100000000005 8.19512999999995L91.19500000000005 8.171339999999987L90.40859999999998 7.334599999999909L87.27600000000007 8.228179999999952L85.24170000000004 8.530019999999922L82.88409999999999 10.297169999999937L82.40719999999999 11.00010999999995L81.61990000000003 10.804079999999999L81.48580000000004 8.755909999999972L80.38319999999999 7.919359999999983L80.12450000000001 8.163049999999998L78.73419999999999 7.986409999999978L77.08420000000001 9.827099999999973L76.97569999999996 10.618259999999964z">
      <title id="t224">Deuxième circonscription du Lot</title>
      <desc id="d224">Cantons de : Bretenoux, Cajarc, Figeac Est, Figeac Ouest, Gramat, Lacapelle-Marival, Latronquière, Limogne-en-Quercy, Livernon, Martel, Saint-Céré, Souillac, Sousceyrac, Vayrac.</desc>
    </path></svg>