<svg xmlns="http://www.w3.org/2000/svg" version="1.1" xmlns:xlink="http://www.w3.org/1999/xlink" xmlns:svgjs="http://svgjs.dev/svgjs" viewBox="0 0 103.58720000000005 94.05713999999989"><path class="circo" id="id-047-01" d="M70.29179999999997 58.637039999999956L69.52250000000004 58.487640000000056L68.01319999999998 57.307140000000004L68.54370000000006 56.75994000000003L68.50509999999997 55.596540000000005L66.77459999999996 56.506740000000036L66.78880000000004 57.55863999999997L65.56219999999996 58.370540000000005L64.33029999999997 59.952440000000024L63.27520000000004 60.46443999999997L61.83190000000002 60.773540000000025L60.61850000000004 60.800140000000056L61.28629999999998 59.44033999999999L60.677099999999996 58.92244000000005L59.878600000000006 59.008140000000026L57.75040000000001 60.15074000000004L55.44489999999996 61.69604000000004L54.09100000000001 60.26833999999997L53.69150000000002 60.26833999999997L53.36660000000006 60.46684000000005L53.38720000000001 61.21954000000005L54.049600000000055 62.05763999999999L53.53539999999998 62.60083999999995L51.91510000000005 62.976440000000025L50.73410000000001 62.57334000000003L49.166900000000055 63.174440000000004L47.92020000000002 63.044239999999945L46.844799999999964 62.20014000000003L46.368600000000015 61.606739999999945L45.025800000000004 61.51544000000001L43.150300000000016 62.412540000000035L41.15160000000003 61.971040000000016L40.67629999999997 61.35763999999995L40.45659999999998 59.00703999999996L40.33370000000002 58.51944000000003L39.10800000000006 60.43083999999999L39.612100000000055 61.41513999999995L39.64269999999999 62.574640000000045L38.55269999999996 63.057339999999954L38.101 63.707539999999995L38.20349999999996 64.09393999999998L37.29290000000003 64.73734000000002L36.19900000000007 64.50264000000004L35.879800000000046 64.54034000000001L35.32370000000003 63.75613999999996L34.05910000000006 65.33414000000005L31.236200000000053 65.18413999999996L30.201000000000022 64.44093999999996L29.090000000000032 64.93643999999995L27.93889999999999 66.09803999999997L27.127700000000004 66.00544000000002L26.15859999999998 67.32924000000003L28.248199999999997 69.6875399999999L29.71270000000004 70.06994000000009L27.213500000000067 71.49104000000011L27.245300000000043 71.9050400000001L27.931100000000015 72.91984000000002L29.505700000000047 73.33953999999994L30.29690000000005 74.79654000000005L28.256399999999985 74.71764000000007L27.887100000000032 75.84223999999995L26.365099999999984 76.37673999999993L23.501899999999978 76.20093999999995L23.171500000000037 76.81983999999989L23.581300000000056 77.89673999999991L22.490300000000047 78.48784L20.52890000000002 80.63113999999996L20.814200000000028 81.4059400000001L19.393800000000056 83.32853999999998L18.437999999999988 87.25903999999991L17.892000000000053 87.84464000000003L17.077999999999975 87.95164L17.24890000000005 88.75554000000011L17.31020000000001 90.75214000000005L18.422900000000027 92.88364000000001L21.087099999999964 92.61914000000002L22.7894 91.05963999999994L22.74120000000005 90.66434000000004L23.944200000000023 91.6432400000001L23.7423 93.65714000000003L24.8836 94.05713999999989L25.647199999999998 93.92203999999992L26.01049999999998 93.20373999999993L26.072700000000054 91.5661399999999L27.340599999999995 90.57343999999989L28.092899999999986 89.11824000000001L28.40390000000002 89.27423999999996L29.109100000000012 89.20974000000001L30.21180000000004 88.19874000000004L30.550700000000006 88.39444000000003L31.166400000000067 88.56004000000007L31.745300000000043 88.24584000000004L31.76400000000001 89.78214000000003L33.26350000000002 90.38843999999995L34.81790000000001 90.41193999999996L35.211400000000026 91.12184000000002L35.966800000000035 91.12984000000006L37.71490000000006 91.92723999999998L37.92650000000003 91.60184000000004L38.99180000000001 91.2174399999999L38.77539999999999 89.71373999999992L39.5625 89.97003999999993L42.30579999999998 89.07053999999994L43.64869999999996 89.90254000000004L44.45839999999998 89.91804000000002L45.43910000000005 88.58814000000007L45.79250000000002 88.36884000000009L46.61519999999996 88.28634000000011L47.56920000000002 87.5480399999999L49.56820000000005 87.49234000000001L50.2364 85.64573999999993L50.26750000000004 85.48713999999995L51.039499999999975 84.34503999999993L52.916900000000055 84.57544000000007L53.24430000000007 83.95363999999995L54.59710000000007 84.21083999999996L54.86099999999999 84.90223999999989L55.44439999999997 83.47463999999991L57.72640000000001 84.63203999999996L59.45310000000006 84.00834000000009L60.15340000000003 83.72574000000009L60.96879999999999 82.03024000000005L61.69500000000005 81.8235400000001L62.337600000000066 81.51944000000003L63.06410000000005 81.66763999999989L62.90210000000002 82.02954L65.16219999999998 83.58223999999996L65.65049999999997 85.03934000000004L67.3981 85.81973999999991L67.58990000000006 86.99574000000007L68.27790000000005 87.98533999999995L69.72530000000006 87.4231400000001L69.99459999999999 85.89913999999999L70.99699999999996 85.55773999999997L72.13400000000001 84.00063999999998L72.91859999999997 84.08223999999996L75.02080000000001 83.18334000000004L74.76790000000005 82.05613999999991L75.51160000000004 80.66044000000011L75.54089999999997 79.85924L76.08320000000003 78.49664000000007L77.8392 77.06634000000008L78.4239 77.53593999999998L79.84069999999997 77.86923999999999L79.37980000000005 76.88013999999998L79.75380000000007 75.4675400000001L78.918 74.00224000000003L79.66899999999998 73.71874000000003L81.70330000000001 73.98523999999998L84.67079999999999 75.43723999999997L84.87509999999997 75.80053999999996L85.83370000000002 75.92594000000008L86.769 75.30043999999998L86.79960000000005 74.53814000000011L87.106 74.31014000000005L87.78660000000002 74.6449399999999L87.90010000000007 73.92093999999997L87.47080000000005 73.28503999999998L87.20500000000004 71.80724000000009L87.59350000000006 71.14383999999995L87.61360000000002 70.74214000000006L86.95010000000002 70.30644000000007L85.93330000000003 70.8941400000001L85.39340000000004 70.35174000000006L84.51959999999997 70.20794000000001L84.52330000000006 69.08624000000009L85.03430000000003 68.07963999999993L80.2287 68.10223999999994L80.14269999999999 66.92064000000005L80.90100000000007 65.98334L80.4923 65.44374000000005L79.9452 65.71104000000003L78.80690000000004 65.76113999999995L77.84040000000005 64.46403999999995L77.99340000000007 63.315740000000005L77.92430000000002 63.055939999999964L77.18259999999998 63.106840000000034L76.11130000000003 64.07324000000006L75.24379999999996 63.363140000000044L74.83260000000007 62.79254000000003L73.68989999999997 62.81704000000002L72.90300000000002 62.11224000000004L72.91669999999999 61.405539999999974L72.93110000000001 60.65063999999995L73.61789999999996 60.20014000000003L73.63790000000006 59.07934L72.82220000000007 57.79344000000003L72.13990000000001 58.11044000000004L71.0752 57.84544000000005L70.29179999999997 58.637039999999956z">
      <title id="t225">Première circonscription du Lot-et-Garonne</title>
      <desc id="d225">Cantons de : Agen Centre, Agen Nord, Agen Nord-Est, Agen Sud-Est, Agen Ouest, Astaffort, Francescas, Laplume, Lavardac, Mézin, Nérac, Puymirol.</desc>
    </path><path class="circo" id="id-047-02" d="M9.509000000000015 48.19924000000003L8.8827 48.12153999999998L6.921699999999987 48.22443999999996L6.049200000000042 49.038040000000024L5.2590999999999894 48.971540000000005L4.669700000000034 50.883339999999976L5.347700000000032 51.47234000000003L7.094500000000039 53.08474000000001L8.99980000000005 55.74054000000001L8.313300000000027 56.15863999999999L9.102100000000064 58.43733999999995L7.423000000000002 59.415539999999964L6.279999999999973 61.68363999999997L5.743799999999965 61.123039999999946L4.437800000000038 62.65563999999995L3.0476999999999634 63.43714L1.9559000000000424 62.99734000000001L1.4881000000000313 62.39703999999995L1.2543000000000575 63.14164000000005L0 64.08604000000003L0.9388999999999896 66.90854000000002L0.9804000000000315 72.85894000000008L2.2059000000000424 72.97684000000004L2.9008999999999787 72.55873999999994L4.499900000000025 72.4349400000001L6.870700000000056 73.04654000000005L11.636700000000019 73.1541400000001L11.658000000000015 73.15653999999995L14.129599999999982 74.52433999999994L14.899400000000014 75.43614000000002L23.501899999999978 76.20093999999995L26.365099999999984 76.37673999999993L27.887100000000032 75.84223999999995L28.256399999999985 74.71764000000007L30.29690000000005 74.79654000000005L29.505700000000047 73.33953999999994L27.931100000000015 72.91984000000002L27.245300000000043 71.9050400000001L27.213500000000067 71.49104000000011L29.71270000000004 70.06994000000009L28.248199999999997 69.6875399999999L26.15859999999998 67.32924000000003L27.127700000000004 66.00544000000002L27.93889999999999 66.09803999999997L29.090000000000032 64.93643999999995L30.201000000000022 64.44093999999996L31.236200000000053 65.18413999999996L34.05910000000006 65.33414000000005L35.32370000000003 63.75613999999996L35.879800000000046 64.54034000000001L36.19900000000007 64.50264000000004L37.29290000000003 64.73734000000002L38.20349999999996 64.09393999999998L38.101 63.707539999999995L38.55269999999996 63.057339999999954L39.64269999999999 62.574640000000045L39.612100000000055 61.41513999999995L39.10800000000006 60.43083999999999L40.33370000000002 58.51944000000003L40.45659999999998 59.00703999999996L40.67629999999997 61.35763999999995L41.15160000000003 61.971040000000016L43.150300000000016 62.412540000000035L45.025800000000004 61.51544000000001L46.368600000000015 61.606739999999945L46.844799999999964 62.20014000000003L47.92020000000002 63.044239999999945L49.166900000000055 63.174440000000004L50.73410000000001 62.57334000000003L51.91510000000005 62.976440000000025L53.53539999999998 62.60083999999995L54.049600000000055 62.05763999999999L53.38720000000001 61.21954000000005L53.36660000000006 60.46684000000005L53.69150000000002 60.26833999999997L53.15549999999996 59.387539999999944L53.46590000000003 59.263239999999996L53.41190000000006 58.06654000000003L52.152000000000044 57.25144L52.40420000000006 56.504440000000045L51.52030000000002 55.16174000000001L52.10530000000006 54.183340000000044L50.31529999999998 53.25774000000001L49.84360000000004 52.28553999999997L49.83190000000002 51.230639999999994L51.303499999999985 50.78484000000003L51.2586 48.78434000000004L50.86289999999997 45.89724000000001L52.36080000000004 46.30844000000002L52.99720000000002 45.81133999999997L53.8732 43.97623999999996L54.91909999999996 45.21573999999998L56.05320000000006 45.669340000000034L55.69799999999998 44.931839999999966L55.99199999999996 42.86644000000001L55.66980000000001 41.34509000000003L54.4914 41.23559999999998L53.45849999999996 40.70038999999997L53.18100000000004 39.19344000000001L53.64070000000004 38.42282L54.09159999999997 36.90061000000003L54.618799999999965 36.30038999999999L54.46619999999996 35.559709999999995L54.08590000000004 35.43773999999996L53.75210000000004 34.78855999999996L54.3211 34.25225999999998L53.21249999999998 33.04715999999996L51.625 32.73212000000001L51.05520000000001 33.30857000000003L50.05970000000002 32.15264000000002L49.30680000000007 31.82397000000003L48.787000000000035 32.68349999999998L48.13480000000004 32.23045000000002L47.3836 32.418249999999944L46.475400000000036 31.69668999999999L45.666000000000054 30.958129999999983L45.2636 29.95046000000002L46.02089999999998 28.703359999999975L47.355500000000006 28.146079999999984L48.62340000000006 27.145509999999945L48.34680000000003 24.031389999999988L49.01830000000007 23.931050000000027L50.02240000000006 26.111639999999966L50.40999999999997 26.214090000000056L51.85140000000001 25.520869999999945L53.565000000000055 23.813409999999976L55.81320000000005 24.575879999999984L56.552599999999984 23.153479999999945L58.25750000000005 22.423919999999953L58.93799999999999 21.564309999999978L59.62160000000006 21.361419999999953L60.168300000000045 20.04472999999996L60.14080000000001 20.024080000000026L57.83789999999999 19.223749999999995L57.08249999999998 19.401160000000004L54.74189999999999 18.884680000000003L55.2088 17.033950000000004L55.061199999999985 15.883190000000013L54.44889999999998 15.440029999999979L55.77880000000005 15.039610000000039L55.4683 14.062720000000013L55.03800000000001 12.046370000000024L54.08820000000003 11.290660000000003L53.443700000000035 11.637389999999982L51.95500000000004 11.318030000000022L50.37900000000002 12.99009000000001L47.40089999999998 14.230099999999993L45.18410000000006 13.123680000000036L43.970699999999965 13.183430000000044L43.11770000000001 12.306659999999965L42.17960000000005 13.064769999999953L41.675500000000056 12.361639999999966L41.75329999999997 10.67831000000001L42.52070000000003 8.719439999999963L40.98540000000003 7.397839999999974L41.1558 6.588399999999979L41.52869999999996 6.437810000000013L41.28639999999996 4.879260000000045L40.57590000000005 3.4256500000000187L38.05529999999999 0.7299000000000433L37.232200000000034 0.22747000000003936L37.16759999999999 0.6028800000000274L35.05250000000001 1.3175099999999702L33.51980000000003 1.6522999999999683L32.79250000000002 1.3487499999999955L32.01470000000006 0L31.220500000000015 0.0043100000000322325L31.081999999999994 0.3780699999999797L30.5154 0.9533800000000383L29.967700000000036 2.9480700000000297L30.54309999999998 4.496049999999968L29.090400000000045 4.998050000000035L28.47230000000002 2.5872600000000148L28.054700000000025 1.8722900000000209L27.644300000000044 1.8147199999999657L27.2962 2.237920000000031L26.638900000000035 3.541249999999991L26.312099999999987 3.3567299999999705L25.67470000000003 3.676219999999944L24.93190000000004 3.9940199999999777L23.960900000000038 3.193869999999947L23.522500000000036 6.340810000000033L23.080800000000067 7.01418000000001L22.52030000000002 6.4237000000000535L21.741899999999987 6.277649999999994L21.02660000000003 6.658480000000054L20.886300000000006 7.463020000000029L20.48840000000007 7.563949999999977L21.057800000000043 9.423790000000054L21.779899999999998 9.80110000000002L23.38499999999999 9.783410000000003L23.105199999999968 10.828560000000039L23.312400000000025 11.511179999999968L24.036500000000046 11.77448000000004L25.824700000000007 11.218700000000013L26.206800000000044 11.462290000000053L26.985199999999963 11.65292999999997L27.4932 12.300089999999955L27.001700000000028 13.141250000000014L26.268599999999992 14.12018999999998L26.002399999999966 15.705209999999965L24.767900000000054 15.610009999999988L23.960699999999974 14.695439999999962L23.658300000000054 15.323080000000004L23.796500000000037 16.38770999999997L25.080100000000016 17.849460000000022L24.782100000000014 18.597049999999967L23.275100000000066 18.893749999999955L21.940900000000056 20.319169999999986L21.87270000000001 20.35820000000001L21.33310000000006 20.813459999999964L18.949100000000044 21.549870000000055L19.23059999999998 22.299459999999954L19.011799999999994 23.45464000000004L17.79740000000004 25.808089999999993L15.166699999999992 25.100760000000037L14.72199999999998 25.524810000000002L13.742500000000064 26.61482000000001L11.87239999999997 25.384649999999965L13.414999999999964 27.955060000000003L12.762900000000059 28.942159999999944L12.368600000000015 28.93035999999995L11.958899999999971 29.26810999999998L10.635800000000017 30.986499999999978L10.595199999999977 32.78407000000004L10.964699999999993 36.339219999999955L11.72300000000007 36.23406L12.487100000000055 37.046010000000024L12.365800000000036 38.10717999999997L11.70780000000002 38.39721999999995L11.315600000000018 39.44069000000002L11.532299999999964 40.56362999999999L10.955500000000029 41.04565000000002L12.52170000000001 43.78135999999995L13.535799999999995 44.734140000000025L12.871700000000033 45.67003999999997L13.76769999999999 46.38494000000003L13.210500000000025 47.43543999999997L11.409200000000055 46.77463999999998L10.632100000000037 47.02934000000005L9.509000000000015 48.19924000000003z">
      <title id="t226">Deuxième circonscription du Lot-et-Garonne</title>
      <desc id="d226">Cantons de : Bouglon, Casteljaloux, Castelmoron-sur-Lot, Damazan, Duras, Houeillès, Lauzun, Marmande Est, Marmande Ouest, Le Mas-d'Agenais, Meilhan-sur-Garonne, Port-Sainte-Marie, Seyches, Tonneins.</desc>
    </path><path class="circo" id="id-047-03" d="M88.04169999999999 55.74354000000005L87.08389999999997 54.43884000000003L85.8637 54.25243999999998L86.29539999999997 53.254440000000045L86.18899999999996 52.55133999999998L87.04380000000003 51.980339999999956L88.13059999999996 49.859140000000025L87.78190000000006 49.42093999999997L87.89679999999998 48.68894L87.38319999999999 47.669539999999984L87.94749999999999 46.66193999999996L88.34130000000005 45.69934000000001L89.38290000000006 45.49163999999996L90.14790000000005 45.31813999999997L90.471 46.08073999999999L91.63030000000003 47.198240000000055L91.96770000000004 50.07654000000002L92.06360000000006 50.07403999999997L92.21040000000005 48.908840000000055L92.72950000000003 48.27224000000001L95.52380000000005 48.280340000000024L96.68110000000001 47.13394000000005L98.55370000000005 47.813639999999964L99.35900000000004 47.71623999999997L100.94690000000003 47.89934000000005L102.08080000000007 47.500940000000014L102.11760000000004 46.29863999999998L102.4085 46.02053999999998L102.02560000000005 44.546640000000025L101.31060000000002 44.38433999999995L102.20479999999998 43.23527999999999L101.8478 40.17084999999997L100.97180000000003 39.77245000000005L100.78679999999997 39.41687999999999L99.61120000000005 39.526520000000005L99.61680000000001 38.76211999999998L98.80399999999997 37.91835000000003L98.74540000000002 36.770329999999944L99.08839999999998 35.65176999999994L98.91700000000003 34.48371999999995L97.72839999999997 33.93440999999996L98.20600000000002 32.77215000000001L98.34630000000004 31.116049999999973L95.3904 26.258940000000052L96.38040000000001 25.666510000000017L97.51940000000002 25.880250000000046L98.08040000000005 27.249379999999974L99.79230000000007 25.07869000000005L100.4873 24.69611999999995L100.55780000000004 24.650319999999965L100.74160000000006 24.286929999999984L102.9964 23.493180000000052L103.34839999999997 22.33585000000005L103.58720000000005 21.146820000000048L103.00750000000005 20.079590000000053L101.8012 19.90506000000005L100.93989999999997 19.039409999999975L99.80039999999997 18.630250000000046L98.02390000000003 17.739360000000033L96.61469999999997 15.710109999999986L95.03129999999999 14.495090000000005L94.1268 15.307080000000042L92.21630000000005 14.810119999999984L90.7645 15.42163000000005L89.78449999999998 16.64161999999999L89.09450000000004 17.019139999999993L88.08330000000001 17.727899999999977L86.44650000000001 17.962300000000027L85.91060000000004 19.94983000000002L84.86770000000001 19.855519999999956L82.94820000000004 19.366179999999986L83.18539999999996 17.847790000000032L82.45050000000003 18.094960000000015L82.08760000000007 17.09617000000003L81.40610000000004 16.40418999999997L82.99160000000006 15.225369999999998L82.94119999999998 13.264210000000048L83.62099999999998 12.906560000000013L83.74869999999999 11.765390000000025L84.41859999999997 11.38973999999996L82.97320000000002 11.217269999999985L82.15700000000004 10.562599999999975L82.60210000000006 9.693390000000022L82.39269999999999 8.90441999999996L81.47710000000006 8.080079999999953L79.91460000000006 7.5872699999999895L78.97569999999996 8.25120000000004L78.85659999999996 9.443399999999997L78.14200000000005 9.559369999999944L76.82759999999996 8.885880000000043L76.56510000000003 10.035889999999995L75.38189999999997 9.862909999999943L73.93700000000001 10.55147999999997L71.12540000000001 10.429790000000025L70.21199999999999 10.602999999999952L67.84230000000002 10.328660000000013L67.68889999999999 8.879549999999995L67.0489 7.420920000000024L65.54089999999997 6.89530000000002L64.8066 7.752299999999991L64.96190000000001 8.491779999999949L64.66190000000006 8.721720000000005L63.68830000000003 8.187940000000026L62.22860000000003 8.04719L61.89689999999996 7.836609999999951L60.960000000000036 8.510549999999967L60.169700000000034 11.086869999999976L59.768800000000056 10.992799999999988L58.41759999999999 11.847499999999968L58.01200000000006 11.777349999999956L57.38459999999998 10.717160000000035L56.30110000000002 10.241869999999949L55.46600000000001 10.33929999999998L54.08820000000003 11.290660000000003L55.03800000000001 12.046370000000024L55.4683 14.062720000000013L55.77880000000005 15.039610000000039L54.44889999999998 15.440029999999979L55.061199999999985 15.883190000000013L55.2088 17.033950000000004L54.74189999999999 18.884680000000003L57.08249999999998 19.401160000000004L57.83789999999999 19.223749999999995L60.14080000000001 20.024080000000026L60.168300000000045 20.04472999999996L59.62160000000006 21.361419999999953L58.93799999999999 21.564309999999978L58.25750000000005 22.423919999999953L56.552599999999984 23.153479999999945L55.81320000000005 24.575879999999984L53.565000000000055 23.813409999999976L51.85140000000001 25.520869999999945L50.40999999999997 26.214090000000056L50.02240000000006 26.111639999999966L49.01830000000007 23.931050000000027L48.34680000000003 24.031389999999988L48.62340000000006 27.145509999999945L47.355500000000006 28.146079999999984L46.02089999999998 28.703359999999975L45.2636 29.95046000000002L45.666000000000054 30.958129999999983L46.475400000000036 31.69668999999999L47.3836 32.418249999999944L48.13480000000004 32.23045000000002L48.787000000000035 32.68349999999998L49.30680000000007 31.82397000000003L50.05970000000002 32.15264000000002L51.05520000000001 33.30857000000003L51.625 32.73212000000001L53.21249999999998 33.04715999999996L54.3211 34.25225999999998L53.75210000000004 34.78855999999996L54.08590000000004 35.43773999999996L54.46619999999996 35.559709999999995L54.618799999999965 36.30038999999999L54.09159999999997 36.90061000000003L53.64070000000004 38.42282L53.18100000000004 39.19344000000001L53.45849999999996 40.70038999999997L54.4914 41.23559999999998L55.66980000000001 41.34509000000003L55.99199999999996 42.86644000000001L55.69799999999998 44.931839999999966L56.05320000000006 45.669340000000034L54.91909999999996 45.21573999999998L53.8732 43.97623999999996L52.99720000000002 45.81133999999997L52.36080000000004 46.30844000000002L50.86289999999997 45.89724000000001L51.2586 48.78434000000004L51.303499999999985 50.78484000000003L49.83190000000002 51.230639999999994L49.84360000000004 52.28553999999997L50.31529999999998 53.25774000000001L52.10530000000006 54.183340000000044L51.52030000000002 55.16174000000001L52.40420000000006 56.504440000000045L52.152000000000044 57.25144L53.41190000000006 58.06654000000003L53.46590000000003 59.263239999999996L53.15549999999996 59.387539999999944L53.69150000000002 60.26833999999997L54.09100000000001 60.26833999999997L55.44489999999996 61.69604000000004L57.75040000000001 60.15074000000004L59.878600000000006 59.008140000000026L60.677099999999996 58.92244000000005L61.28629999999998 59.44033999999999L60.61850000000004 60.800140000000056L61.83190000000002 60.773540000000025L63.27520000000004 60.46443999999997L64.33029999999997 59.952440000000024L65.56219999999996 58.370540000000005L66.78880000000004 57.55863999999997L66.77459999999996 56.506740000000036L68.50509999999997 55.596540000000005L68.54370000000006 56.75994000000003L68.01319999999998 57.307140000000004L69.52250000000004 58.487640000000056L70.29179999999997 58.637039999999956L71.0752 57.84544000000005L72.13990000000001 58.11044000000004L72.82220000000007 57.79344000000003L73.63790000000006 59.07934L73.61789999999996 60.20014000000003L72.93110000000001 60.65063999999995L72.91669999999999 61.405539999999974L72.90300000000002 62.11224000000004L73.68989999999997 62.81704000000002L74.83260000000007 62.79254000000003L75.24379999999996 63.363140000000044L76.11130000000003 64.07324000000006L77.18259999999998 63.106840000000034L77.92430000000002 63.055939999999964L77.99340000000007 63.315740000000005L77.84040000000005 64.46403999999995L78.80690000000004 65.76113999999995L79.9452 65.71104000000003L80.4923 65.44374000000005L80.90100000000007 65.98334L80.14269999999999 66.92064000000005L80.2287 68.10223999999994L85.03430000000003 68.07963999999993L85.14520000000005 68.05094000000008L88.72540000000004 68.39763999999991L90.94640000000004 63.63094000000001L90.08370000000002 62.679539999999974L91.24860000000001 61.13914L90.82249999999999 59.221340000000055L91.93380000000002 59.59943999999996L92.7781 58.311739999999986L90.57330000000002 56.73914000000002L90.45979999999997 56.353039999999964L89.85760000000005 55.089939999999956L88.04169999999999 55.74354000000005z">
      <title id="t227">Troisième circonscription du Lot-et-Garonne</title>
      <desc id="d227">Cantons de : Beauville, Cancon, Castillonnès, Fumel, Laroque-Timbaut, Monclar, Monflanquin, Penne-d'Agenais, Prayssas, Sainte-Livrade-sur-Lot, Tournon-d'Agenais, Villeneuve-sur-Lot Nord, Villeneuve-sur-Lot Sud, Villeréal.</desc>
    </path></svg>