<svg xmlns="http://www.w3.org/2000/svg" version="1.1" xmlns:xlink="http://www.w3.org/1999/xlink" xmlns:svgjs="http://svgjs.dev/svgjs" viewBox="644.88973 956.04746 103.58720000000005 94.05713999999989"><path class="circo" id="047-01" d="M 715.18153,1014.6845 714.41223,1014.5351 712.90293,1013.3546 713.43343,1012.8074 713.39483,1011.644 711.66433,1012.5542 711.67853,1013.6061 710.45193,1014.418 709.22003,1015.9999 708.16493,1016.5119 706.72163,1016.821 705.50823,1016.8476 706.17603,1015.4878 705.56683,1014.9699 704.76833,1015.0556 702.64013,1016.1982 700.33463,1017.7435 698.98073,1016.3158 698.58123,1016.3158 698.25633,1016.5143 698.27693,1017.267 698.93933,1018.1051 698.42513,1018.6483 696.80483,1019.0239 695.62383,1018.6208 694.05663,1019.2219 692.80993,1019.0917 691.73453,1018.2476 691.25833,1017.6542 689.91553,1017.5629 688.04003,1018.46 686.04133,1018.0185 685.56603,1017.4051 685.34633,1015.0545 685.22343,1014.5669 683.99773,1016.4783 684.50183,1017.4626 684.53243,1018.6221 683.44243,1019.1048 682.99073,1019.755 683.09323,1020.1414 682.18263,1020.7848 681.08873,1020.5501 680.76953,1020.5878 680.21343,1019.8036 678.94883,1021.3816 676.12593,1021.2316 675.09073,1020.4884 673.97973,1020.9839 672.82863,1022.1455 672.01743,1022.0529 671.04833,1023.3767 673.13793,1025.735 674.60243,1026.1174 672.10323,1027.5385 672.13503,1027.9525 672.82083,1028.9673 674.39543,1029.387 675.18663,1030.844 673.14613,1030.7651 672.77683,1031.8897 671.25483,1032.4242 668.39163,1032.2484 668.06123,1032.8673 668.47103,1033.9442 667.38003,1034.5353 665.41863,1036.6786 665.70393,1037.4534 664.28353,1039.376 663.32773,1043.3065 662.78173,1043.8921 661.96773,1043.9991 662.13863,1044.803 662.19993,1046.7996 663.31263,1048.9311 665.97683,1048.6666 667.67913,1047.1071 667.63093,1046.7118 668.83393,1047.6907 668.63203,1049.7046 669.77333,1050.1046 670.53693,1049.9695 670.90023,1049.2512 670.96243,1047.6136 672.23033,1046.6209 672.98263,1045.1657 673.29363,1045.3217 673.99883,1045.2572 675.10153,1044.2462 675.44043,1044.4419 676.05613,1044.6075 676.63503,1044.2933 676.65373,1045.8296 678.15323,1046.4359 679.70763,1046.4594 680.10113,1047.1693 680.85653,1047.1773 682.60463,1047.9747 682.81623,1047.6493 683.88153,1047.2649 683.66513,1045.7612 684.45223,1046.0175 687.19553,1045.118 688.53843,1045.95 689.34813,1045.9655 690.32883,1044.6356 690.68223,1044.4163 691.50493,1044.3338 692.45893,1043.5955 694.45793,1043.5398 695.12613,1041.6932 695.15723,1041.5346 695.92923,1040.3925 697.80663,1040.6229 698.13403,1040.0011 699.48683,1040.2583 699.75073,1040.9497 700.33413,1039.5221 702.61613,1040.6795 704.34283,1040.0558 705.04313,1039.7732 705.85853,1038.0777 706.58473,1037.871 707.22733,1037.5669 707.95383,1037.7151 707.79183,1038.077 710.05193,1039.6297 710.54023,1041.0868 712.28783,1041.8672 712.47963,1043.0432 713.16763,1044.0328 714.61503,1043.4706 714.88433,1041.9466 715.88673,1041.6052 717.02373,1040.0481 717.80833,1040.1297 719.91053,1039.2308 719.65763,1038.1036 720.40133,1036.7079 720.43063,1035.9067 720.97293,1034.5441 722.72893,1033.1138 723.31363,1033.5834 724.73043,1033.9167 724.26953,1032.9276 724.64353,1031.515 723.80773,1030.0497 724.55873,1029.7662 726.59303,1030.0327 729.56053,1031.4847 729.76483,1031.848 730.72343,1031.9734 731.65873,1031.3479 731.68933,1030.5856 731.99573,1030.3576 732.67633,1030.6924 732.78983,1029.9684 732.36053,1029.3325 732.09473,1027.8547 732.48323,1027.1913 732.50333,1026.7896 731.83983,1026.3539 730.82303,1026.9416 730.28313,1026.3992 729.40933,1026.2554 729.41303,1025.1337 729.92403,1024.1271 725.11843,1024.1497 725.03243,1022.9681 725.79073,1022.0308 725.38203,1021.4912 724.83493,1021.7585 723.69663,1021.8086 722.73013,1020.5115 722.88313,1019.3632 722.81403,1019.1034 722.07233,1019.1543 721.00103,1020.1207 720.13353,1019.4106 719.72233,1018.84 718.57963,1018.8645 717.79273,1018.1597 717.80643,1017.453 717.82083,1016.6981 718.50763,1016.2476 718.52763,1015.1268 717.71193,1013.8409 717.02963,1014.1579 715.96493,1013.8929 715.18153,1014.6845 z">
      <title id="t225">Première circonscription du Lot-et-Garonne</title>
      <desc id="d225">Cantons de : Agen Centre, Agen Nord, Agen Nord-Est, Agen Sud-Est, Agen Ouest, Astaffort, Francescas, Laplume, Lavardac, Mézin, Nérac, Puymirol.</desc>
    </path><path class="circo" id="047-02" d="M 654.39873,1004.2467 653.77243,1004.169 651.81143,1004.2719 650.93893,1005.0855 650.14883,1005.019 649.55943,1006.9308 650.23743,1007.5198 651.98423,1009.1322 653.88953,1011.788 653.20303,1012.2061 653.99183,1014.4848 652.31273,1015.463 651.16973,1017.7311 650.63353,1017.1705 649.32753,1018.7031 647.93743,1019.4846 646.84563,1019.0448 646.37783,1018.4445 646.14403,1019.1891 644.88973,1020.1335 645.82863,1022.956 645.87013,1028.9064 647.09563,1029.0243 647.79063,1028.6062 649.38963,1028.4824 651.76043,1029.094 656.52643,1029.2016 656.54773,1029.204 659.01933,1030.5718 659.78913,1031.4836 668.39163,1032.2484 671.25483,1032.4242 672.77683,1031.8897 673.14613,1030.7651 675.18663,1030.844 674.39543,1029.387 672.82083,1028.9673 672.13503,1027.9525 672.10323,1027.5385 674.60243,1026.1174 673.13793,1025.735 671.04833,1023.3767 672.01743,1022.0529 672.82863,1022.1455 673.97973,1020.9839 675.09073,1020.4884 676.12593,1021.2316 678.94883,1021.3816 680.21343,1019.8036 680.76953,1020.5878 681.08873,1020.5501 682.18263,1020.7848 683.09323,1020.1414 682.99073,1019.755 683.44243,1019.1048 684.53243,1018.6221 684.50183,1017.4626 683.99773,1016.4783 685.22343,1014.5669 685.34633,1015.0545 685.56603,1017.4051 686.04133,1018.0185 688.04003,1018.46 689.91553,1017.5629 691.25833,1017.6542 691.73453,1018.2476 692.80993,1019.0917 694.05663,1019.2219 695.62383,1018.6208 696.80483,1019.0239 698.42513,1018.6483 698.93933,1018.1051 698.27693,1017.267 698.25633,1016.5143 698.58123,1016.3158 698.04523,1015.435 698.35563,1015.3107 698.30163,1014.114 697.04173,1013.2989 697.29393,1012.5519 696.41003,1011.2092 696.99503,1010.2308 695.20503,1009.3052 694.73333,1008.333 694.72163,1007.2781 696.19323,1006.8323 696.14833,1004.8318 695.75263,1001.9447 697.25053,1002.3559 697.88693,1001.8588 698.76293,1000.0237 699.80883,1001.2632 700.94293,1001.7168 700.58773,1000.9793 700.88173,998.9139 700.55953,997.39255 699.38113,997.28306 698.34823,996.74785 698.07073,995.2409 698.53043,994.47028 698.98133,992.94807 699.50853,992.34785 699.35593,991.60717 698.97563,991.4852 698.64183,990.83602 699.21083,990.29972 698.10223,989.09462 696.51473,988.77958 695.94493,989.35603 694.94943,988.2001 694.19653,987.87143 693.67673,988.73096 693.02453,988.27791 692.27333,988.46571 691.36513,987.74415 690.55573,987.00559 690.15333,985.99792 690.91063,984.75082 692.24523,984.19354 693.51313,983.19297 693.23653,980.07885 693.90803,979.97851 694.91213,982.1591 695.29973,982.26155 696.74113,981.56833 698.45473,979.86087 700.70293,980.62334 701.44233,979.20094 703.14723,978.47138 703.82773,977.61177 704.51133,977.40888 705.05803,976.09219 705.03053,976.07154 702.72763,975.27121 701.97223,975.44862 699.63163,974.93214 700.09853,973.08141 699.95093,971.93065 699.33863,971.48749 700.66853,971.08707 700.35803,970.11018 699.92773,968.09383 698.97793,967.33812 698.33343,967.68485 696.84473,967.36549 695.26873,969.03755 692.29063,970.27756 690.07383,969.17114 688.86043,969.23089 688.00743,968.35412 687.06933,969.11223 686.56523,968.4091 686.64303,966.72577 687.41043,964.7669 685.87513,963.4453 686.04553,962.63586 686.41843,962.48527 686.17613,960.92672 685.46563,959.47311 682.94503,956.77736 682.12193,956.27493 682.05733,956.65034 679.94223,957.36497 678.40953,957.69976 677.68223,957.39621 676.90443,956.04746 676.11023,956.05177 675.97173,956.42553 675.40513,957.00084 674.85743,958.99553 675.43283,960.54351 673.98013,961.04551 673.36203,958.63472 672.94443,957.91975 672.53403,957.86218 672.18593,958.28538 671.52863,959.58871 671.20183,959.40419 670.56443,959.72368 669.82163,960.04148 668.85063,959.24133 668.41223,962.38827 667.97053,963.06164 667.41003,962.47116 666.63163,962.32511 665.91633,962.70594 665.77603,963.51048 665.37813,963.61141 665.94753,965.47125 666.66963,965.84856 668.27473,965.83087 667.99493,966.87602 668.20213,967.55864 668.92623,967.82194 670.71443,967.26616 671.09653,967.50975 671.87493,967.70039 672.38293,968.34755 671.89143,969.18871 671.15833,970.16765 670.89213,971.75267 669.65763,971.65747 668.85043,970.7429 668.54803,971.37054 668.68623,972.43517 669.96983,973.89692 669.67183,974.64451 668.16483,974.94121 666.83063,976.36663 666.76243,976.40566 666.22283,976.86092 663.83883,977.59733 664.12033,978.34692 663.90153,979.5021 662.68713,981.85555 660.05643,981.14822 659.61173,981.57227 658.63223,982.66228 656.76213,981.43211 658.30473,984.00252 657.65263,984.98962 657.25833,984.97782 656.84863,985.31557 655.52553,987.03396 655.48493,988.83153 655.85443,992.38668 656.61273,992.28152 657.37683,993.09347 657.25553,994.15464 656.59753,994.44468 656.20533,995.48815 656.42203,996.61109 655.84523,997.09311 657.41143,999.82882 658.42553,1000.7816 657.76143,1001.7175 658.65743,1002.4324 658.10023,1003.4829 656.29893,1002.8221 655.52183,1003.0768 654.39873,1004.2467 z">
      <title id="t226">Deuxième circonscription du Lot-et-Garonne</title>
      <desc id="d226">Cantons de : Bouglon, Casteljaloux, Castelmoron-sur-Lot, Damazan, Duras, Houeillès, Lauzun, Marmande Est, Marmande Ouest, Le Mas-d'Agenais, Meilhan-sur-Garonne, Port-Sainte-Marie, Seyches, Tonneins.</desc>
    </path><path class="circo" id="047-03" d="M 732.93143,1011.791 731.97363,1010.4863 730.75343,1010.2999 731.18513,1009.3019 731.07873,1008.5988 731.93353,1008.0278 733.02033,1005.9066 732.67163,1005.4684 732.78653,1004.7364 732.27293,1003.717 732.83723,1002.7094 733.23103,1001.7468 734.27263,1001.5391 735.03763,1001.3656 735.36073,1002.1282 736.52003,1003.2457 736.85743,1006.124 736.95333,1006.1215 737.10013,1004.9563 737.61923,1004.3197 740.41353,1004.3278 741.57083,1003.1814 743.44343,1003.8611 744.24873,1003.7637 745.83663,1003.9468 746.97053,1003.5484 747.00733,1002.3461 747.29823,1002.068 746.91533,1000.5941 746.20033,1000.4318 747.09453,999.28274 746.73753,996.21831 745.86153,995.81991 745.67653,995.46434 744.50093,995.57398 744.50653,994.80958 743.69373,993.96581 743.63513,992.81779 743.97813,991.69923 743.80673,990.53118 742.61813,989.98187 743.09573,988.81961 743.23603,987.16351 740.28013,982.3064 741.27013,981.71397 742.40913,981.92771 742.97013,983.29684 744.68203,981.12615 745.37703,980.74358 745.44753,980.69778 745.63133,980.33439 747.88613,979.54064 748.23813,978.38331 748.47693,977.19428 747.89723,976.12705 746.69093,975.95252 745.82963,975.08687 744.69013,974.67771 742.91363,973.78682 741.50443,971.75757 739.92103,970.54255 739.01653,971.35454 737.10603,970.85758 735.65423,971.46909 734.67423,972.68908 733.98423,973.0666 732.97303,973.77536 731.33623,974.00976 730.80033,975.99729 729.75743,975.90298 727.83793,975.41364 728.07513,973.89525 727.34023,974.14242 726.97733,973.14363 726.29583,972.45165 727.88133,971.27283 727.83093,969.31167 728.51073,968.95402 728.63843,967.81285 729.30833,967.4372 727.86293,967.26473 727.04673,966.61006 727.49183,965.74085 727.28243,964.95188 726.36683,964.12754 724.80433,963.63473 723.86543,964.29866 723.74633,965.49086 723.03173,965.60683 721.71733,964.93334 721.45483,966.08335 720.27163,965.91037 718.82673,966.59894 716.01513,966.47725 715.10173,966.65046 712.73203,966.37612 712.57863,964.92701 711.93863,963.46838 710.43063,962.94276 709.69633,963.79976 709.85163,964.53924 709.55163,964.76918 708.57803,964.2354 707.11833,964.09465 706.78663,963.88407 705.84973,964.55801 705.05943,967.13433 704.65853,967.04026 703.30733,967.89496 702.90173,967.82481 702.27433,966.76462 701.19083,966.28933 700.35573,966.38676 698.97793,967.33812 699.92773,968.09383 700.35803,970.11018 700.66853,971.08707 699.33863,971.48749 699.95093,971.93065 700.09853,973.08141 699.63163,974.93214 701.97223,975.44862 702.72763,975.27121 705.03053,976.07154 705.05803,976.09219 704.51133,977.40888 703.82773,977.61177 703.14723,978.47138 701.44233,979.20094 700.70293,980.62334 698.45473,979.86087 696.74113,981.56833 695.29973,982.26155 694.91213,982.1591 693.90803,979.97851 693.23653,980.07885 693.51313,983.19297 692.24523,984.19354 690.91063,984.75082 690.15333,985.99792 690.55573,987.00559 691.36513,987.74415 692.27333,988.46571 693.02453,988.27791 693.67673,988.73096 694.19653,987.87143 694.94943,988.2001 695.94493,989.35603 696.51473,988.77958 698.10223,989.09462 699.21083,990.29972 698.64183,990.83602 698.97563,991.4852 699.35593,991.60717 699.50853,992.34785 698.98133,992.94807 698.53043,994.47028 698.07073,995.2409 698.34823,996.74785 699.38113,997.28306 700.55953,997.39255 700.88173,998.9139 700.58773,1000.9793 700.94293,1001.7168 699.80883,1001.2632 698.76293,1000.0237 697.88693,1001.8588 697.25053,1002.3559 695.75263,1001.9447 696.14833,1004.8318 696.19323,1006.8323 694.72163,1007.2781 694.73333,1008.333 695.20503,1009.3052 696.99503,1010.2308 696.41003,1011.2092 697.29393,1012.5519 697.04173,1013.2989 698.30163,1014.114 698.35563,1015.3107 698.04523,1015.435 698.58123,1016.3158 698.98073,1016.3158 700.33463,1017.7435 702.64013,1016.1982 704.76833,1015.0556 705.56683,1014.9699 706.17603,1015.4878 705.50823,1016.8476 706.72163,1016.821 708.16493,1016.5119 709.22003,1015.9999 710.45193,1014.418 711.67853,1013.6061 711.66433,1012.5542 713.39483,1011.644 713.43343,1012.8074 712.90293,1013.3546 714.41223,1014.5351 715.18153,1014.6845 715.96493,1013.8929 717.02963,1014.1579 717.71193,1013.8409 718.52763,1015.1268 718.50763,1016.2476 717.82083,1016.6981 717.80643,1017.453 717.79273,1018.1597 718.57963,1018.8645 719.72233,1018.84 720.13353,1019.4106 721.00103,1020.1207 722.07233,1019.1543 722.81403,1019.1034 722.88313,1019.3632 722.73013,1020.5115 723.69663,1021.8086 724.83493,1021.7585 725.38203,1021.4912 725.79073,1022.0308 725.03243,1022.9681 725.11843,1024.1497 729.92403,1024.1271 730.03493,1024.0984 733.61513,1024.4451 735.83613,1019.6784 734.97343,1018.727 736.13833,1017.1866 735.71223,1015.2688 736.82353,1015.6469 737.66783,1014.3592 735.46303,1012.7866 735.34953,1012.4005 734.74733,1011.1374 732.93143,1011.791 z">
      <title id="t227">Troisième circonscription du Lot-et-Garonne</title>
      <desc id="d227">Cantons de : Beauville, Cancon, Castillonnès, Fumel, Laroque-Timbaut, Monclar, Monflanquin, Penne-d'Agenais, Prayssas, Sainte-Livrade-sur-Lot, Tournon-d'Agenais, Villeneuve-sur-Lot Nord, Villeneuve-sur-Lot Sud, Villeréal.</desc>
    </path></svg>