<svg xmlns="http://www.w3.org/2000/svg" version="1.1" xmlns:xlink="http://www.w3.org/1999/xlink" xmlns:svgjs="http://svgjs.dev/svgjs" viewBox="910.29823 930.67672 86.40369999999996 102.73467999999991"><path class="circo" id="id-048-01" d="M 963.38133,1033.2303 960.30593,1032.4698 959.89863,1032.3837 958.12323,1033.4114 957.17153,1032.6429 954.79543,1032.0112 952.74413,1032.2414 949.14013,1031.5168 948.64853,1030.8766 948.27643,1029.35 945.59643,1027.6873 945.22053,1026.9772 943.61663,1026.7315 943.47023,1025.5403 942.31453,1023.8854 942.49153,1023.089 940.08033,1022.8489 938.91423,1023.223 937.44503,1022.4989 936.63963,1022.5631 936.30733,1023.2887 934.31233,1023.2358 932.19343,1024.373 931.09283,1024.3814 929.12343,1024.4166 929.21903,1024.036 929.90253,1023.7304 930.48913,1022.7321 931.45213,1019.6678 928.48953,1018.4434 927.82133,1017.4645 926.68133,1017.8977 925.50123,1017.7766 924.96883,1014.6005 924.28043,1014.2454 923.61133,1015.6771 922.85483,1016.0369 922.21453,1015.6203 922.50703,1013.1309 924.96863,1010.3035 924.27253,1009.3643 924.68573,1007.8432 923.51563,1007.6152 922.84323,1006.1496 923.07393,1004.6049 922.07473,1003.8755 922.26793,1003.0784 922.34453,1001.8657 922.03413,1001.1382 923.50553,1000.5089 923.52173,998.52863 922.62723,997.85131 922.90073,997.09216 923.84483,996.32341 923.93783,995.08066 923.33753,994.51159 923.44723,994.10988 923.37233,992.90377 922.46963,992.21506 921.82863,990.72798 920.31853,989.9366 917.71503,987.28222 918.33613,985.28469 918.22323,983.63598 918.95083,980.4123 918.36743,979.31728 918.33253,978.95311 916.92443,977.87004 916.28793,976.96595 915.01193,976.20977 914.46593,975.58842 913.43473,974.35413 913.01283,973.22424 910.29823,970.34124 910.57573,969.66141 910.38483,969.28287 911.78063,966.68106 913.22503,962.28684 914.35853,961.74868 915.18173,961.93433 914.82173,960.49314 914.17663,960.11363 914.29923,959.75826 914.52003,957.78988 915.44643,956.62317 915.95593,956.03178 915.59983,954.92991 916.10333,953.92977 915.76273,952.02407 915.95883,951.24875 917.31163,949.32624 918.39913,948.85035 917.99073,947.41363 919.83283,947.79013 920.28443,947.81554 920.37113,946.49561 919.91773,945.11007 920.77913,943.81673 920.62163,941.61335 922.01483,940.78467 922.76863,939.34026 923.99813,939.49579 924.73163,940.49766 925.47983,941.63338 925.85323,942.74769 926.59633,943.04516 927.29373,944.00562 928.03023,944.26538 928.51413,943.11773 930.12183,942.77624 931.03803,941.91807 931.83063,941.11677 931.23273,940.106 931.10263,938.5724 933.08013,937.82077 932.64433,935.96248 933.12333,935.37796 932.97143,935.0272 933.63063,934.77526 934.44543,934.7725 934.16903,935.54787 934.57193,936.22603 936.13593,936.61202 937.44013,935.03849 938.57493,934.9943 938.93453,934.26582 940.58203,933.05717 941.99143,933.18774 942.57073,931.19471 943.53703,930.67672 943.67953,932.67542 944.66873,933.41776 946.13053,932.9427 946.94763,934.38628 947.19333,936.22567 946.73893,937.63483 947.49353,938.75735 947.49653,940.00868 948.89213,942.14 949.40973,945.26032 950.75213,946.8073 950.63123,948.0175 951.80763,949.13043 952.50743,950.59974 953.24903,950.98398 953.59133,950.7434 953.83253,949.98016 954.98373,948.85563 957.84953,948.39781 959.06063,948.68353 960.20243,947.66331 961.36553,948.63008 961.98363,948.23756 961.74223,947.43928 962.67263,944.72288 962.43413,942.67368 963.56113,942.24916 964.06713,942.791 965.02393,942.25312 965.62263,942.49219 966.62243,942.51331 967.96893,943.30748 968.53103,944.80226 969.11663,945.27267 968.78413,946.81234 967.73763,947.43065 968.49833,948.31115 970.90503,947.96393 971.51113,947.41351 973.41573,947.90999 974.20813,947.7133 974.36473,946.95176 975.08603,947.22951 975.68873,949.00711 976.44333,949.83553 976.80893,951.7138 977.06593,951.37981 977.47343,951.482 979.63223,953.37791 980.45173,955.64172 980.76123,955.84537 981.50423,955.04569 982.68413,954.7206 983.41513,955.09706 983.34883,955.87686 982.40043,957.19141 983.20823,958.09126 985.17253,958.47998 986.28683,959.00618 986.41453,959.39976 985.22823,961.44627 985.22363,962.27236 985.80093,962.86131 985.77783,964.09167 986.95773,964.12096 987.04563,964.51282 985.94773,966.19919 987.11443,968.81421 987.91393,969.70968 987.99793,970.62606 987.85973,973.85154 988.92413,974.36798 989.04493,974.75746 988.91373,976.58734 989.92743,977.18473 989.78763,977.97935 990.36103,979.03246 992.50373,978.9129 993.53493,981.18866 993.94183,983.11247 995.10003,985.22973 994.89043,985.57807 995.25383,985.7725 995.74113,987.34646 995.77193,990.62708 996.70193,992.39418 994.81463,994.41706 994.56673,996.33234 994.45413,996.37269 993.58403,997.76337 992.54343,998.36037 992.54953,999.18196 992.21163,999.40933 989.84923,998.87892 988.90263,999.4217 988.39313,1000.3904 987.91493,1000.687 987.39683,1000.3492 987.15223,1000.9429 989.31893,1003.0415 990.48393,1005.1357 990.48353,1005.8987 991.55683,1007.1151 992.68853,1007.4293 992.50753,1008.5663 992.44493,1008.1848 992.07273,1009.2744 990.30083,1010.7784 990.47803,1011.3012 991.40603,1012.1171 991.76043,1013.3143 991.27363,1014.3143 992.33283,1015.3303 993.33653,1014.8467 994.24443,1015.5834 994.70753,1016.1938 994.40343,1017.2883 993.01093,1017.3845 992.30473,1018.3982 992.68643,1021.2656 992.37463,1021.3707 991.63453,1023.6643 991.85493,1023.9999 993.36623,1024.35 993.96373,1026.631 994.64003,1026.5284 994.65793,1027.4939 990.77583,1025.4329 990.37223,1025.4772 990.67623,1027.8533 990.03483,1028.1668 989.34393,1027.9924 989.26023,1029.1613 987.87473,1029.5271 986.03983,1031.7187 982.58763,1030.6921 981.95033,1030.7824 981.57883,1031.271 980.77843,1031.7317 979.60213,1031.87 977.56533,1030.1867 976.84303,1030.0527 976.42553,1029.0507 976.05493,1029.0247 974.33213,1028.3482 973.53543,1027.5037 971.67843,1027.2693 970.71333,1026.6591 970.03163,1025.7068 970.08503,1025.319 968.89673,1025.139 968.63413,1025.8996 967.95023,1026.3131 967.07743,1025.5367 966.06223,1026.1782 965.45333,1028.1411 965.65573,1028.8871 966.73053,1029.4834 966.86653,1029.8683 965.90443,1030.5983 965.64843,1032.6002 963.38133,1033.2303 z">
      <title id="t228">Première circonscription de la Lozère</title>
      <desc id="d228">Circonscription unique : Tous les cantons du département</desc>
    </path></svg>