<svg xmlns="http://www.w3.org/2000/svg" version="1.1" xmlns:xlink="http://www.w3.org/1999/xlink" xmlns:svgjs="http://svgjs.dev/svgjs" viewBox="0 0 135.0494 105.41152"><path class="circo" id="id-049-01" d="M69.98199999999997 35.84127000000001L68.57690000000002 34.84283000000005L68.4665 33.54075999999998L68.87689999999998 32.80404999999996L68.15359999999998 31.785750000000007L66.81600000000003 30.828139999999962L65.9837 31.817120000000045L65.57079999999996 31.69291999999996L64.63520000000005 33.14282000000003L63.52380000000005 32.014620000000036L63.006500000000074 30.919099999999958L61.91380000000004 30.48472000000004L60.822400000000016 29.863079999999968L61.7731 25.686379999999986L61.71370000000002 25.625490000000013L60.648900000000026 24.389689999999973L59.517600000000016 23.929790000000025L58.40409999999997 24.472409999999968L56.072 24.236099999999965L56.34379999999999 22.193539999999985L56.27350000000001 21.073800000000006L56.65260000000001 20.963910000000055L56.807000000000016 19.80269999999996L57.14690000000007 18.16507999999999L57.81020000000001 17.457329999999956L57.37270000000001 17.438009999999963L57.19970000000001 17.034310000000005L57.859699999999975 15.909149999999954L57.81479999999999 14.624419999999986L58.25720000000001 13.86627999999996L58.800700000000006 12.957850000000008L58.29200000000003 10.844820000000027L59.53710000000001 9.689280000000053L60.178499999999985 9.24377000000004L63.18960000000004 9.397579999999948L65.41410000000008 6.525930000000017L66.3949 7.120310000000018L67.47760000000005 6.648580000000038L69.81090000000006 7.501359999999977L71.04960000000005 5.350919999999974L70.73080000000004 3.2912300000000414L70.91880000000003 2.9693899999999758L72.00300000000004 3.1534599999999955L74.28859999999997 4.174549999999954L75.86940000000004 5.563250000000039L76.52549999999997 6.673610000000053L78.62970000000007 5.411619999999971L80.25689999999997 5.66441999999995L80.44939999999997 6.469410000000039L80.1739 6.796889999999962L78.94380000000001 7.053049999999985L79.14620000000002 8.267450000000053L78.4683 9.340080000000057L77.46050000000002 9.864569999999958L77.22800000000007 11.121409999999969L77.96609999999998 12.176140000000032L76.96030000000007 13.520959999999945L77.14099999999996 13.920330000000035L77.8777 14.921320000000037L77.76880000000006 15.731490000000008L75.9837 16.510509999999954L75.13959999999997 16.552170000000046L74.21040000000005 18.398199999999974L73.42920000000004 18.704520000000002L74.84019999999998 20.348700000000008L74.46690000000001 22.06790000000001L75.36130000000003 22.387540000000058L77.55190000000005 22.137910000000034L78.30060000000003 20.53896999999995L78.46879999999999 19.21514000000002L79.18770000000006 18.69834000000003L82.6567 19.155449999999973L82.1925 22.425129999999967L80.97940000000006 22.457040000000006L80.21140000000003 23.380049999999983L80.67020000000002 25.066689999999994L81.23019999999997 25.738830000000007L84.54230000000007 27.762270000000058L83.91780000000006 29.847330000000056L83.32270000000005 30.330259999999953L82.10429999999997 30.364529999999945L81.36689999999999 31.691280000000006L80.97910000000002 31.803390000000036L81.19920000000002 33.529930000000036L79.58690000000001 35.53399000000002L80.15269999999998 37.11873000000003L79.99110000000007 37.32979L79.30370000000005 38.66130999999996L79.12630000000001 39.00342999999998L79.69759999999997 39.434349999999995L79.53210000000001 40.68041000000005L79.84800000000007 41.45434999999998L79.52750000000003 41.72212000000002L78.74180000000001 41.52855999999997L78.06550000000004 42.52687000000003L77.231 42.48172999999997L77.05240000000003 43.178499999999985L76.26750000000004 43.02710999999999L74.0222 44.442589999999996L71.45799999999997 44.30178999999998L71.09000000000003 43.51413000000002L70.41550000000007 43.441460000000006L70.37980000000005 44.06948L69.57150000000001 43.800700000000006L69.7278 44.83172000000002L68.81470000000002 45.201149999999984L68.58699999999999 44.83006999999998L67.15830000000005 43.660150000000044L66.55799999999999 43.46217999999999L67.15330000000006 42.754279999999994L67.78520000000003 42.184909999999945L68.32950000000005 41.03917999999999L69.01250000000005 39.98099000000002L69.90629999999999 38.95977000000005L70.58839999999998 37.370180000000005L70.33159999999998 36.098949999999945L69.98199999999997 35.84127000000001z">
      <title id="t229">Première circonscription du Maine-et-Loire</title>
      <desc id="d229">Cantons de : Angers Centre, Angers Est, Angers Nord-Est, Châteauneuf-sur-Sarthe, Tiercé.</desc>
    </path><path class="circo" id="id-049-02" d="M45.52690000000007 60.573780000000056L45.061000000000035 59.42303000000004L45.8365 58.51256999999998L45.877200000000016 56.90146000000004L46.25049999999999 56.222939999999994L45.83820000000003 55.03817000000004L44.13700000000006 53.86284999999998L44.217700000000036 53.130289999999945L45.154499999999985 53.84163000000001L46.306100000000015 54.074250000000006L51.977499999999964 55.94458999999995L53.507799999999975 56.595770000000016L55.14670000000001 56.32384000000002L57.42290000000003 55.49540999999999L58.66050000000007 55.58239000000003L60.45730000000003 54.565830000000005L61.841499999999996 52.287649999999985L62.06510000000003 51.923239999999964L62.79259999999999 50.61197000000004L63.7251 48.73761000000002L63.897800000000075 47.05273999999997L65.02970000000005 45.275049999999965L65.96119999999996 44.550430000000006L66.55799999999999 43.46217999999999L67.15830000000005 43.660150000000044L68.58699999999999 44.83006999999998L68.81470000000002 45.201149999999984L69.7278 44.83172000000002L69.57150000000001 43.800700000000006L70.37980000000005 44.06948L70.41550000000007 43.441460000000006L71.09000000000003 43.51413000000002L71.45799999999997 44.30178999999998L74.0222 44.442589999999996L76.26750000000004 43.02710999999999L77.05240000000003 43.178499999999985L77.231 42.48172999999997L78.06550000000004 42.52687000000003L78.74180000000001 41.52855999999997L79.52750000000003 41.72212000000002L79.84800000000007 41.45434999999998L79.53210000000001 40.68041000000005L79.69759999999997 39.434349999999995L79.12630000000001 39.00342999999998L79.30370000000005 38.66130999999996L79.99110000000007 37.32979L80.15269999999998 37.11873000000003L81.6748 37.524599999999964L84.01150000000007 38.989959999999996L82.4615 40.32592999999997L83.65300000000002 41.478380000000016L84.09659999999997 43.11827000000005L83.95979999999997 43.96460000000002L82.6395 45.01923999999997L85.14999999999998 45.50972999999999L85.26510000000007 45.93520000000001L86.85019999999997 46.791849999999954L87.5779 46.46106999999995L91.08789999999999 48.86550999999997L91.63869999999997 48.37728000000004L92.17790000000002 49.464129999999955L90.34839999999997 51.62599L90.17039999999997 51.519250000000056L89.76170000000002 53.977589999999964L90.33190000000002 54.58942999999999L90.10410000000002 55.78067999999996L87.93860000000006 56.15894000000003L87.0883 55.48135000000002L85.87170000000003 53.82066999999995L85.75419999999997 52.18870000000004L84.92600000000004 52.39250000000004L83.75829999999996 54.71834000000001L83.65139999999997 56.02239999999995L84.15210000000002 57.21978999999999L84.23320000000001 58.49149L82.77850000000001 59.339360000000056L82.33410000000003 58.614810000000034L83.37 56.32158000000004L83.35980000000006 55.47508000000005L82.66550000000007 55.028749999999945L80.97050000000002 54.88805000000002L80.80899999999997 54.49014L80.43370000000004 54.335609999999974L79.81230000000005 55.35333000000003L78.70330000000001 55.80528000000004L78.47940000000006 56.49237000000005L77.80180000000007 56.82730000000004L76.86210000000005 56.26685999999995L76.49419999999998 56.850630000000024L76.34530000000007 56.46262999999999L75.14080000000001 56.26912000000004L75.25880000000006 57.418289999999956L74.46450000000004 57.528080000000045L73.88499999999999 56.475059999999985L74.05579999999998 56.12932000000001L73.32050000000004 55.94371000000001L72.45749999999998 56.54407000000003L72.05709999999999 59.41425000000004L70.46800000000007 59.913580000000024L68.96950000000004 59.71415000000002L66.79700000000003 61.38665000000003L66.26779999999997 60.768800000000056L63.960500000000025 60.00275999999997L61.48720000000003 60.054179999999974L60.78870000000006 61.98965999999996L60.20860000000005 62.30912999999998L59.71870000000001 61.82227L58.75059999999996 63.66371000000004L57.321300000000065 65.18646000000001L57.45619999999997 65.90867000000003L56.52350000000001 67.32428000000004L54.73810000000003 68.47290999999996L55.69990000000007 70.36347999999998L58.22260000000006 70.36836000000005L57.77750000000003 71.51760000000002L57.63229999999999 72.77454L58.27150000000006 73.31780000000003L57.5249 76.22526000000005L59.61430000000007 76.60711000000003L60.62620000000004 75.87806L61.873800000000074 76.07299999999998L62.161500000000046 76.38904000000002L61.031600000000026 77.65769L60.22620000000006 77.98242000000005L60.00279999999998 79.23149999999998L58.68060000000003 80.93610000000001L58.69130000000007 81.79985999999997L60.570299999999975 82.84699L58.53269999999998 84.94651999999996L56.551900000000046 85.53801999999996L54.52290000000005 85.19205L53.400800000000004 85.72929999999997L50.89340000000004 85.92732000000001L50.08929999999998 85.04573000000005L50.29460000000006 83.81385999999998L48.59710000000007 83.82322999999997L47.52369999999996 83.21596L46.8963 82.14887999999996L45.73770000000002 82.39088000000004L44.97760000000005 82.14162999999996L44.895200000000045 81.80985999999996L45.756399999999985 81.84811000000002L46.02859999999998 81.53057999999999L46.27499999999998 79.34468000000004L46.07590000000005 76.25842L44.78010000000006 75.29170999999997L46.86990000000003 73.87842L46.50229999999999 73.69317999999998L46.43209999999999 72.47020999999995L46.91210000000001 71.78578000000005L46.35519999999997 70.26430000000005L46.02830000000006 70.36811L42.04259999999999 69.50937999999996L41.73289999999997 68.23640999999998L41.884000000000015 67.43415000000005L42.60760000000005 67.08360000000005L42.51570000000004 65.35789999999997L41.345800000000054 64.80534L42.73270000000002 63.26746000000003L43.54550000000006 63.48985000000005L44.62080000000003 64.71735000000001L47.15859999999998 66.58443L49.059799999999996 65.89313000000004L49.683700000000044 64.85685000000001L49.77639999999997 63.230230000000006L49.719400000000064 62.933490000000006L49.051900000000046 61.87957000000006L46.58960000000002 60.29737L46.19680000000005 60.14110000000005L45.52690000000007 60.573780000000056z">
      <title id="t230">Deuxième circonscription du Maine-et-Loire</title>
      <desc id="d230">Angers Sud, Angers-Trélazé, Chalonnes-sur-Loire, Chemillé, Les Ponts-de-Cé.</desc>
    </path><path class="circo" id="id-049-03" d="M107.07320000000004 18.880449999999996L106.6911 18.73064999999997L106.14430000000004 19.325060000000008L105.43430000000001 20.809229999999957L105.41179999999997 22.05111999999997L104.24329999999998 21.895200000000045L103.67759999999998 22.427909999999997L102.57069999999999 21.968619999999987L101.59929999999997 20.59158000000002L100.34960000000001 20.850990000000024L98.69169999999997 20.480429999999956L98.39080000000001 20.21419000000003L98.39409999999998 18.611130000000003L96.76380000000006 16.06331L96.60660000000007 14.816249999999968L97.81790000000001 14.679229999999961L99.4402 13.225260000000048L99.51599999999996 12.374479999999949L100.37059999999997 12.21252000000004L100.20960000000002 11.845760000000041L99.42460000000005 11.877479999999991L98.65679999999998 10.958290000000034L97.90840000000003 10.71781999999996L94.98490000000004 13.321770000000015L93.29359999999997 12.882939999999962L90.66160000000002 11.490109999999959L88.83850000000007 11.716769999999997L86.74840000000006 11.261030000000005L85.26369999999997 12.082139999999981L84.0145 11.870270000000005L84.65460000000007 9.867849999999976L83.33850000000007 8.868749999999977L83.44460000000004 8.45528999999999L82.8347 7.436130000000048L83.06529999999998 6.297440000000051L82.66480000000001 6.251920000000041L82.47140000000002 5.418450000000007L80.29150000000004 4.043890000000033L79.86180000000002 3.9838099999999486L80.25689999999997 5.66441999999995L80.44939999999997 6.469410000000039L80.1739 6.796889999999962L78.94380000000001 7.053049999999985L79.14620000000002 8.267450000000053L78.4683 9.340080000000057L77.46050000000002 9.864569999999958L77.22800000000007 11.121409999999969L77.96609999999998 12.176140000000032L76.96030000000007 13.520959999999945L77.14099999999996 13.920330000000035L77.8777 14.921320000000037L77.76880000000006 15.731490000000008L75.9837 16.510509999999954L75.13959999999997 16.552170000000046L74.21040000000005 18.398199999999974L73.42920000000004 18.704520000000002L74.84019999999998 20.348700000000008L74.46690000000001 22.06790000000001L75.36130000000003 22.387540000000058L77.55190000000005 22.137910000000034L78.30060000000003 20.53896999999995L78.46879999999999 19.21514000000002L79.18770000000006 18.69834000000003L82.6567 19.155449999999973L82.1925 22.425129999999967L80.97940000000006 22.457040000000006L80.21140000000003 23.380049999999983L80.67020000000002 25.066689999999994L81.23019999999997 25.738830000000007L84.54230000000007 27.762270000000058L83.91780000000006 29.847330000000056L83.32270000000005 30.330259999999953L82.10429999999997 30.364529999999945L81.36689999999999 31.691280000000006L80.97910000000002 31.803390000000036L81.19920000000002 33.529930000000036L79.58690000000001 35.53399000000002L80.15269999999998 37.11873000000003L81.6748 37.524599999999964L84.01150000000007 38.989959999999996L82.4615 40.32592999999997L83.65300000000002 41.478380000000016L84.09659999999997 43.11827000000005L83.95979999999997 43.96460000000002L82.6395 45.01923999999997L85.14999999999998 45.50972999999999L85.26510000000007 45.93520000000001L86.85019999999997 46.791849999999954L87.5779 46.46106999999995L91.08789999999999 48.86550999999997L91.63869999999997 48.37728000000004L92.17790000000002 49.464129999999955L90.34839999999997 51.62599L91.60680000000002 52.839500000000044L92.44490000000008 54.374649999999974L93.06180000000006 55.91083000000003L94.41460000000006 57.427580000000034L97.07029999999997 59.30010000000004L97.44259999999997 59.507439999999974L100.09800000000007 61.41449L102.30290000000002 62.73779000000002L103.54330000000004 64.54276000000004L104.66089999999997 65.16453000000001L106.14980000000003 66.13188000000002L106.55899999999997 67.24514999999997L109.95159999999998 70.14504L111.86329999999998 70.37675000000002L114.44200000000001 71.02227000000005L115.40440000000001 71.48979999999995L117.00930000000005 72.57474000000002L118.80500000000006 73.33257000000003L120.10320000000002 74.35401000000002L121.26909999999998 74.26990999999998L121.38700000000006 72.56385L120.98390000000006 71.33379000000002L121.6019 70.25716L121.92010000000005 67.78205000000003L122.5471 67.30173000000002L122.63810000000001 66.44285000000002L122.1132 65.87983999999994L124.76729999999998 61.87706000000003L125.0951 60.17960000000005L126.62790000000007 59.80056999999999L127.63120000000004 58.544809999999984L127.0453 56.48308999999995L128.18899999999996 56.32182999999998L130.59310000000005 53.955870000000004L129.45320000000004 53.444920000000025L129.4121 52.171749999999975L128.18939999999998 51.84826999999996L130.49110000000007 49.60332000000005L130.8487 48.39549999999997L130.48530000000005 45.00112999999999L131.29089999999997 44.00532999999996L131.6653 42.333709999999996L132.01330000000007 42.08570999999995L132.16700000000003 41.06858999999997L133.82029999999997 38.872949999999946L134.22270000000003 35.68580999999995L132.72090000000003 35.761589999999956L132.59019999999998 34.97251000000006L131.52620000000002 34.33114999999998L132.11840000000007 33.685069999999996L133.30860000000007 30.45839000000001L133.7206 29.852629999999976L135.0494 29.22022000000004L134.7101 28.414980000000014L134.97090000000003 27.590730000000008L134.66129999999998 25.466000000000008L133.58230000000003 24.91462999999999L133.18349999999998 25.03895L132.91020000000003 25.828719999999976L132.4973 25.771859999999947L132.27330000000006 24.560179999999946L130.90690000000006 24.43849L130.74900000000002 26.649400000000014L130.09040000000005 27.229370000000017L128.80690000000004 27.48108000000002L127.73239999999998 28.882010000000037L127.05410000000006 28.36519999999996L126.52170000000001 27.227859999999964L125.34080000000006 27.02908000000002L124.94119999999998 25.815230000000042L124.51420000000007 25.780939999999987L123.25139999999999 26.105570000000057L121.1472 25.501049999999964L120.40110000000004 25.960460000000012L119.55290000000002 25.74009000000001L118.01779999999997 24.202049999999986L115.95400000000006 23.52697999999998L116.21260000000007 22.90709000000004L114.72739999999999 20.510459999999966L113.38620000000003 21.85609999999997L112.83720000000005 20.679399999999987L110.65830000000005 20.38516000000004L108.7772 19.273950000000013L107.25430000000006 20.090659999999957L107.07320000000004 18.880449999999996z">
      <title id="t231">Troisième circonscription du Maine-et-Loire</title>
      <desc id="d231">Cantons de: Allonnes, Baugé, Beaufort-en-Vallée, Durtal, Longué-Jumelles, Noyant, Saumur Nord, Seiches-sur-le-Loir.</desc>
    </path><path class="circo" id="id-049-04" d="M82.33410000000003 58.614810000000034L82.77850000000001 59.339360000000056L84.23320000000001 58.49149L84.15210000000002 57.21978999999999L83.65139999999997 56.02239999999995L83.75829999999996 54.71834000000001L84.92600000000004 52.39250000000004L85.75419999999997 52.18870000000004L85.87170000000003 53.82066999999995L87.0883 55.48135000000002L87.93860000000006 56.15894000000003L90.10410000000002 55.78067999999996L90.33190000000002 54.58942999999999L89.76170000000002 53.977589999999964L90.17039999999997 51.519250000000056L90.34839999999997 51.62599L91.60680000000002 52.839500000000044L92.44490000000008 54.374649999999974L93.06180000000006 55.91083000000003L94.41460000000006 57.427580000000034L97.07029999999997 59.30010000000004L97.44259999999997 59.507439999999974L100.09800000000007 61.41449L102.30290000000002 62.73779000000002L103.54330000000004 64.54276000000004L104.66089999999997 65.16453000000001L106.14980000000003 66.13188000000002L106.55899999999997 67.24514999999997L109.95159999999998 70.14504L111.86329999999998 70.37675000000002L114.44200000000001 71.02227000000005L115.40440000000001 71.48979999999995L117.00930000000005 72.57474000000002L118.80500000000006 73.33257000000003L120.10320000000002 74.35401000000002L121.26909999999998 74.26990999999998L121.64229999999998 74.33385999999996L121.30520000000001 74.94381999999996L120.19040000000007 75.85452999999995L119.68430000000001 76.90035999999998L119.73599999999999 77.32331999999997L120.77120000000002 78.03295000000003L120.50990000000002 79.71020999999996L119.67860000000007 81.18314999999996L119.06720000000007 80.92672000000005L118.22519999999997 81.71421999999995L116.7269 79.78936999999996L114.11419999999998 82.22951L112.24289999999996 85.81313L112.18309999999997 86.67988000000003L111.7699 87.84153000000003L111.92309999999998 88.23956999999996L112.7251 88.50345000000004L112.80950000000007 88.92218000000003L112.1087 90.91443000000004L111.3501 90.11127999999997L109.35059999999999 90.08218999999997L109.00829999999996 89.38333999999998L107.83940000000007 89.20190000000002L106.77570000000003 90.33601999999996L106.55520000000001 91.18044999999995L106.43000000000006 93.64936L104.15409999999997 94.96824000000004L103.49610000000007 94.51220999999998L103.39229999999998 93.70351000000005L102.76400000000001 93.20572000000004L101.98379999999997 92.98283000000004L101.00149999999996 93.67556000000002L100.25610000000006 93.31092000000001L99.93299999999999 93.02713000000006L100.93759999999997 91.62922000000003L103.1345 89.66029000000003L103.1037 88.79967999999997L101.8374 89.05741999999998L99.36469999999997 88.20510000000002L98.94439999999997 89.30005000000006L97.57720000000006 90.10604000000001L94.6753 88.61373000000003L93.16579999999999 89.22076000000004L92.76549999999997 88.57227L92.15269999999998 89.10861999999997L91.3406 89.24486000000002L91.03960000000006 88.96364000000005L89.4692 89.45027000000005L88.5358 90.24887000000001L86.19780000000003 90.84501L84.95580000000007 89.87967000000003L84.58550000000002 90.06321000000003L82.64480000000003 90.68521999999996L82.24040000000002 90.61593000000005L82.20940000000007 90.20667000000003L81.447 90.47472000000005L81.04330000000004 92.90494999999999L80.37570000000005 93.43883000000005L78.85820000000001 92.72199L77.2459 93.29057999999998L75.96080000000006 93.20758999999998L74.27690000000007 95.04285000000004L73.9905 93.42611L75.65970000000004 92.24346000000003L75.72450000000003 91.5195L73.30790000000002 91.39691000000005L71.32330000000002 92.01054999999997L67.53330000000005 94.03680999999995L67.83839999999998 94.3424L67.84310000000005 96.04336999999998L68.91489999999999 97.35405000000003L68.6132 98.14658999999995L67.3777 98.05294000000004L66.9334 99.25873999999999L65.80079999999998 99.87427000000002L65.19280000000003 100.96704999999997L64.42560000000003 100.62113999999997L63.299600000000055 101.10416999999995L62.73810000000003 100.03908000000001L60.33230000000003 99.29040999999995L59.68780000000004 98.75050999999996L60.2989 97.27684999999997L61.01220000000001 96.89756L58.45690000000002 95.00703999999996L58.074100000000044 94.27027999999996L58.63589999999999 93.15992000000006L59.931299999999965 92.07159000000001L60.90229999999997 90.28494999999998L60.15070000000003 89.96744999999999L59.77589999999998 89.21289000000002L57.73400000000004 88.80155000000002L57.185100000000034 87.73536999999999L57.67510000000004 86.71272999999997L56.551900000000046 85.53801999999996L58.53269999999998 84.94651999999996L60.570299999999975 82.84699L58.69130000000007 81.79985999999997L58.68060000000003 80.93610000000001L60.00279999999998 79.23149999999998L60.22620000000006 77.98242000000005L61.031600000000026 77.65769L62.161500000000046 76.38904000000002L61.873800000000074 76.07299999999998L60.62620000000004 75.87806L59.61430000000007 76.60711000000003L57.5249 76.22526000000005L58.27150000000006 73.31780000000003L57.63229999999999 72.77454L57.77750000000003 71.51760000000002L58.22260000000006 70.36836000000005L55.69990000000007 70.36347999999998L54.73810000000003 68.47290999999996L56.52350000000001 67.32428000000004L57.45619999999997 65.90867000000003L57.321300000000065 65.18646000000001L58.75059999999996 63.66371000000004L59.71870000000001 61.82227L60.20860000000005 62.30912999999998L60.78870000000006 61.98965999999996L61.48720000000003 60.054179999999974L63.960500000000025 60.00275999999997L66.26779999999997 60.768800000000056L66.79700000000003 61.38665000000003L68.96950000000004 59.71415000000002L70.46800000000007 59.913580000000024L72.05709999999999 59.41425000000004L72.45749999999998 56.54407000000003L73.32050000000004 55.94371000000001L74.05579999999998 56.12932000000001L73.88499999999999 56.475059999999985L74.46450000000004 57.528080000000045L75.25880000000006 57.418289999999956L75.14080000000001 56.26912000000004L76.34530000000007 56.46262999999999L76.49419999999998 56.850630000000024L76.86210000000005 56.26685999999995L77.80180000000007 56.82730000000004L78.47940000000006 56.49237000000005L78.70330000000001 55.80528000000004L79.81230000000005 55.35333000000003L80.43370000000004 54.335609999999974L80.80899999999997 54.49014L80.97050000000002 54.88805000000002L82.66550000000007 55.028749999999945L83.35980000000006 55.47508000000005L83.37 56.32158000000004L82.33410000000003 58.614810000000034z">
      <title id="t232">Quatrième circonscription du Maine-et-Loire</title>
      <desc id="d232">Cantons de : Doué-la-Fontaine, Gennes, Montreuil-Bellay, Saumur Sud, Thouarcé, Vihiers.</desc>
    </path><path class="circo" id="id-049-05" d="M61.26660000000004 102.12122999999997L60.032299999999964 102.40525000000002L58.07050000000004 101.60910000000001L57.27769999999998 102.57398999999998L57.29320000000007 103.26959L55.73930000000007 102.40912000000003L54.37300000000005 103.47880999999995L52.72760000000005 102.08632999999998L52.298400000000015 102.01017999999999L51.23879999999997 102.69075999999995L50.37829999999997 102.58582999999999L49.39459999999997 101.25897999999995L48.16470000000004 101.09121000000005L47.45460000000003 102.12085000000002L46.387500000000045 102.75207L46.6816 103.04665999999997L46.285799999999995 103.19731999999999L45.70360000000005 102.57174999999995L45.27539999999999 102.58695L44.20839999999998 103.28367000000003L43.052400000000034 103.45687999999996L42.419200000000046 104.48068L42.49810000000002 105.27200000000005L42.10080000000005 105.41152L40.13189999999997 104.68537000000003L39.29179999999997 104.74366999999995L38.49840000000006 102.79831000000001L37.34159999999997 102.29969000000006L35.64369999999997 100.78893000000005L35.14589999999998 101.45442000000003L33.58209999999997 101.96544000000006L32.03570000000002 99.94446000000005L31.27570000000003 100.11550999999997L29.915700000000015 99.07744000000002L28.73879999999997 101.27729999999997L25.745900000000006 100.99710000000005L24.61170000000004 100.39923999999996L23.80060000000003 100.55145000000005L23.02710000000002 100.15090999999995L22.40949999999998 99.82227999999998L20.747799999999984 99.73576000000003L19.27030000000002 99.05674999999997L18.082499999999982 98.65038000000004L17.479299999999967 98.04695000000004L20.087300000000027 96.70897000000002L19.840599999999995 95.04958999999997L20.28710000000001 93.91252999999995L17.48300000000006 93.04846999999995L16.346499999999992 91.8066L15.611099999999965 90.13588000000004L15.226600000000076 90.05722000000003L10.718000000000075 89.28494L9.631399999999985 89.93223999999998L8.887200000000007 89.55241000000001L10.359800000000064 88.02287999999999L10.844400000000064 86.92471999999998L10.426400000000058 86.18242999999995L10.473799999999983 85.34635000000003L9.858900000000062 84.89616000000001L11.505499999999984 83.71924999999999L12.335199999999986 83.69176000000004L14.096900000000005 81.98062000000004L15.695600000000013 80.44497000000001L16.515999999999963 80.33843999999999L18.812700000000063 81.04362000000003L19.31370000000004 81.70709999999997L19.492399999999975 82.93835999999999L20.200199999999995 82.87648999999999L20.704799999999977 83.46416999999997L22.33540000000005 82.28501000000006L22.7423 82.20187999999996L23.204500000000053 82.88562000000002L23.6096 82.79137000000003L23.59450000000004 84.89553999999998L23.94990000000007 85.14631999999995L25.879999999999995 84.15678000000003L26.41560000000004 83.47466999999995L28.068100000000072 83.70087999999998L29.152600000000007 83.62739999999997L29.705400000000054 82.76436999999999L30.486800000000017 82.66938000000005L31.38670000000002 83.32006999999999L33.771600000000035 83.66714000000002L33.791900000000055 84.47717999999998L34.530500000000075 85.86598000000004L34.29690000000005 86.65026999999998L34.676000000000045 86.80129999999997L34.441100000000006 87.92096000000004L35.700199999999995 88.93529000000001L37.051199999999994 87.02827000000002L37.902900000000045 87.0906L39.634700000000066 88.30064000000004L40.48230000000001 88.32861000000003L41.366300000000024 89.74607000000003L41.64700000000005 89.03669000000002L42.83170000000007 89.07878000000005L43.479400000000055 89.52319L44.16539999999998 89.13747000000001L42.627700000000004 87.21438999999998L42.65300000000002 86.79093L43.6567 86.03126999999995L44.53570000000002 84.59302000000002L44.72019999999998 83.76412000000005L44.37930000000006 83.01011000000005L44.97760000000005 82.14162999999996L45.73770000000002 82.39088000000004L46.8963 82.14887999999996L47.52369999999996 83.21596L48.59710000000007 83.82322999999997L50.29460000000006 83.81385999999998L50.08929999999998 85.04573000000005L50.89340000000004 85.92732000000001L53.400800000000004 85.72929999999997L54.52290000000005 85.19205L56.551900000000046 85.53801999999996L57.67510000000004 86.71272999999997L57.185100000000034 87.73536999999999L57.73400000000004 88.80155000000002L59.77589999999998 89.21289000000002L60.15070000000003 89.96744999999999L60.90229999999997 90.28494999999998L59.931299999999965 92.07159000000001L58.63589999999999 93.15992000000006L58.074100000000044 94.27027999999996L58.45690000000002 95.00703999999996L61.01220000000001 96.89756L60.2989 97.27684999999997L59.68780000000004 98.75050999999996L60.33230000000003 99.29040999999995L62.73810000000003 100.03908000000001L63.299600000000055 101.10416999999995L64.42560000000003 100.62113999999997L65.19280000000003 100.96704999999997L64.63229999999999 101.35096999999996L64.4923 101.99211000000003L62.394000000000005 102.55890999999997L61.26660000000004 102.12122999999997z">
      <title id="t233">Cinquième circonscription du Maine-et-Loire</title>
      <desc id="d233">Cantons de : Cholet I, Cholet II, Cholet III, Montfaucon.</desc>
    </path><path class="circo" id="id-049-06" d="M30.486800000000017 82.66938000000005L29.705400000000054 82.76436999999999L29.152600000000007 83.62739999999997L28.068100000000072 83.70087999999998L26.41560000000004 83.47466999999995L25.879999999999995 84.15678000000003L23.94990000000007 85.14631999999995L23.59450000000004 84.89553999999998L23.6096 82.79137000000003L23.204500000000053 82.88562000000002L22.7423 82.20187999999996L22.33540000000005 82.28501000000006L20.704799999999977 83.46416999999997L20.200199999999995 82.87648999999999L19.492399999999975 82.93835999999999L19.31370000000004 81.70709999999997L18.812700000000063 81.04362000000003L16.515999999999963 80.33843999999999L15.695600000000013 80.44497000000001L16.356899999999996 78.52950999999996L15.08540000000005 77.67557999999997L15.264099999999985 76.94989999999996L14.742799999999988 75.83051L15.276900000000069 74.95496000000003L14.088100000000054 74.25427000000002L14.713799999999992 71.63891999999998L13.459500000000048 70.22585000000004L12.689700000000016 70.11791000000005L11.592100000000073 71.27745000000004L10.450000000000045 71.80381L8.51240000000007 70.48820999999998L6.61340000000007 68.04375000000005L6.586300000000051 65.73185000000001L6.2888000000000375 65.12429999999995L5.053200000000061 64.06507999999997L5.017699999999991 63.66246000000001L3.434500000000071 63.86327000000006L1.265800000000013 64.11247000000003L0 63.713480000000004L1.4375 62.04483000000005L2.6741000000000668 61.61725000000001L4.05090000000007 59.911320000000046L6.116499999999974 59.148199999999974L8.314600000000041 59.05838000000006L10.36360000000002 58.22502999999995L10.695900000000051 57.96745999999996L12.611899999999991 58.03546000000006L14.55619999999999 57.423940000000016L15.663499999999999 56.118529999999964L17.798200000000065 55.70587999999998L20.402000000000044 55.761480000000006L20.591800000000035 55.964290000000005L21.45010000000002 55.87644L23.432999999999993 55.354709999999955L24.669700000000034 55.43101999999999L27.378100000000018 56.08239000000003L29.03570000000002 55.99077L30.912699999999973 55.12828999999999L32.128400000000056 55.325849999999946L32.82470000000001 54.639009999999985L33.69150000000002 54.17443000000003L34.71460000000002 53.31736000000001L35.559600000000046 53.22520999999995L36.614599999999996 51.84274000000005L34.93790000000001 49.35107000000005L35.567800000000034 48.46686L36.67269999999996 48.34599000000003L36.62290000000007 43.87846999999999L37.46550000000002 43.989490000000046L37.93730000000005 45.17159000000004L38.272800000000075 44.41732000000002L39.02110000000005 44.129800000000046L41.69590000000005 45.28157999999996L44.54939999999999 45.64498000000003L45.037199999999984 46.27606000000003L45.06790000000001 47.07423000000006L45.45860000000005 46.911359999999945L47.41730000000007 47.70442000000003L49.49549999999999 47.676900000000046L49.77539999999999 46.96250999999995L50.56320000000005 46.71870000000001L51.66179999999997 46.40916000000004L51.754999999999995 45.99239L51.12149999999997 44.89779999999996L50.423200000000065 44.41556000000003L50.467700000000036 43.14103L51.020200000000045 42.54687000000001L51.79870000000005 42.57101L52.63189999999997 41.193989999999985L52.93360000000007 41.48113999999998L54.11360000000002 41.44001000000003L56.148900000000026 42.850310000000036L57.974500000000035 42.41243999999995L59.07569999999998 42.79510000000005L58.814899999999966 41.33285000000001L59.98300000000006 40.81388000000004L59.13009999999997 39.327530000000024L59.897500000000036 39.42566999999997L60.578700000000026 39.02455999999995L61.75350000000003 39.30250000000001L63.28970000000004 40.52305000000001L64.42759999999998 41.192859999999996L65.65160000000003 41.02481999999998L65.93899999999996 41.369249999999965L66.32360000000006 41.45257000000004L66.82240000000002 41.895489999999995L66.94770000000005 42.10236999999995L66.90089999999998 42.3809L67.15330000000006 42.754279999999994L66.55799999999999 43.46217999999999L65.96119999999996 44.550430000000006L65.02970000000005 45.275049999999965L63.897800000000075 47.05273999999997L63.7251 48.73761000000002L62.79259999999999 50.61197000000004L62.06510000000003 51.923239999999964L61.841499999999996 52.287649999999985L60.45730000000003 54.565830000000005L58.66050000000007 55.58239000000003L57.42290000000003 55.49540999999999L55.14670000000001 56.32384000000002L53.507799999999975 56.595770000000016L51.977499999999964 55.94458999999995L46.306100000000015 54.074250000000006L45.154499999999985 53.84163000000001L44.217700000000036 53.130289999999945L44.13700000000006 53.86284999999998L45.83820000000003 55.03817000000004L46.25049999999999 56.222939999999994L45.877200000000016 56.90146000000004L45.8365 58.51256999999998L45.061000000000035 59.42303000000004L45.52690000000007 60.573780000000056L46.19680000000005 60.14110000000005L46.58960000000002 60.29737L49.051900000000046 61.87957000000006L49.719400000000064 62.933490000000006L49.77639999999997 63.230230000000006L49.683700000000044 64.85685000000001L49.059799999999996 65.89313000000004L47.15859999999998 66.58443L44.62080000000003 64.71735000000001L43.54550000000006 63.48985000000005L42.73270000000002 63.26746000000003L41.345800000000054 64.80534L42.51570000000004 65.35789999999997L42.60760000000005 67.08360000000005L41.884000000000015 67.43415000000005L41.73289999999997 68.23640999999998L42.04259999999999 69.50937999999996L46.02830000000006 70.36811L46.35519999999997 70.26430000000005L46.91210000000001 71.78578000000005L46.43209999999999 72.47020999999995L46.50229999999999 73.69317999999998L46.86990000000003 73.87842L44.78010000000006 75.29170999999997L46.07590000000005 76.25842L46.27499999999998 79.34468000000004L46.02859999999998 81.53057999999999L45.756399999999985 81.84811000000002L44.895200000000045 81.80985999999996L44.97760000000005 82.14162999999996L44.37930000000006 83.01011000000005L44.72019999999998 83.76412000000005L44.53570000000002 84.59302000000002L43.6567 86.03126999999995L42.65300000000002 86.79093L42.627700000000004 87.21438999999998L44.16539999999998 89.13747000000001L43.479400000000055 89.52319L42.83170000000007 89.07878000000005L41.64700000000005 89.03669000000002L41.366300000000024 89.74607000000003L40.48230000000001 88.32861000000003L39.634700000000066 88.30064000000004L37.902900000000045 87.0906L37.051199999999994 87.02827000000002L35.700199999999995 88.93529000000001L34.441100000000006 87.92096000000004L34.676000000000045 86.80129999999997L34.29690000000005 86.65026999999998L34.530500000000075 85.86598000000004L33.791900000000055 84.47717999999998L33.771600000000035 83.66714000000002L31.38670000000002 83.32006999999999L30.486800000000017 82.66938000000005z">
      <title id="t234">Sixième circonscription du Maine-et-Loire</title>
      <desc id="d234">Cantons de : Angers Ouest, Beaupréau, Champtoceaux, Montrevault, Saint-Florent-le-Vieil, Saint-Georges-sur-Loire</desc>
    </path><path class="circo" id="id-049-07" d="M26.591800000000035 30.390729999999962L26.524400000000014 31.153779999999983L25.378400000000056 30.90057999999999L23.71760000000006 30.611710000000016L21.615999999999985 30.843510000000038L15.408400000000029 29.950399999999945L14.948399999999992 33.07343000000003L16.987899999999968 33.74639000000002L17.066900000000032 34.173509999999965L15.796100000000024 35.309780000000046L15.943100000000072 36.166669999999954L16.997900000000072 37.94530999999995L18.15809999999999 38.52842999999996L21.06860000000006 39.00531000000001L23.578899999999976 38.70345999999995L23.934399999999982 38.932339999999954L26.329200000000014 38.42651000000001L27.91730000000007 39.10483999999997L29.129099999999994 40.39575000000002L33.04250000000002 40.15081999999995L33.593900000000076 41.480140000000006L32.8768 42.36981000000003L32.83960000000002 43.13675999999998L34.017400000000066 45.00037999999995L34.498800000000074 48.83184000000006L34.93790000000001 49.35107000000005L35.567800000000034 48.46686L36.67269999999996 48.34599000000003L36.62290000000007 43.87846999999999L37.46550000000002 43.989490000000046L37.93730000000005 45.17159000000004L38.272800000000075 44.41732000000002L39.02110000000005 44.129800000000046L41.69590000000005 45.28157999999996L44.54939999999999 45.64498000000003L45.037199999999984 46.27606000000003L45.06790000000001 47.07423000000006L45.45860000000005 46.911359999999945L47.41730000000007 47.70442000000003L49.49549999999999 47.676900000000046L49.77539999999999 46.96250999999995L50.56320000000005 46.71870000000001L51.66179999999997 46.40916000000004L51.754999999999995 45.99239L51.12149999999997 44.89779999999996L50.423200000000065 44.41556000000003L50.467700000000036 43.14103L51.020200000000045 42.54687000000001L51.79870000000005 42.57101L52.63189999999997 41.193989999999985L52.93360000000007 41.48113999999998L54.11360000000002 41.44001000000003L56.148900000000026 42.850310000000036L57.974500000000035 42.41243999999995L59.07569999999998 42.79510000000005L58.814899999999966 41.33285000000001L59.98300000000006 40.81388000000004L59.13009999999997 39.327530000000024L59.897500000000036 39.42566999999997L60.578700000000026 39.02455999999995L61.75350000000003 39.30250000000001L63.28970000000004 40.52305000000001L64.42759999999998 41.192859999999996L65.65160000000003 41.02481999999998L65.93899999999996 41.369249999999965L66.32360000000006 41.45257000000004L66.82240000000002 41.895489999999995L66.94770000000005 42.10236999999995L66.90089999999998 42.3809L67.00160000000005 42.55664999999999L67.15330000000006 42.754279999999994L67.78520000000003 42.184909999999945L68.32950000000005 41.03917999999999L69.01250000000005 39.98099000000002L69.90629999999999 38.95977000000005L70.58839999999998 37.370180000000005L70.33159999999998 36.098949999999945L69.98199999999997 35.84127000000001L68.57690000000002 34.84283000000005L68.4665 33.54075999999998L68.87689999999998 32.80404999999996L68.15359999999998 31.785750000000007L66.81600000000003 30.828139999999962L65.9837 31.817120000000045L65.57079999999996 31.69291999999996L64.63520000000005 33.14282000000003L63.52380000000005 32.014620000000036L63.006500000000074 30.919099999999958L61.91380000000004 30.48472000000004L60.822400000000016 29.863079999999968L61.7731 25.686379999999986L61.71370000000002 25.625490000000013L60.648900000000026 24.389689999999973L59.517600000000016 23.929790000000025L58.40409999999997 24.472409999999968L56.072 24.236099999999965L56.34379999999999 22.193539999999985L56.27350000000001 21.073800000000006L56.65260000000001 20.963910000000055L56.807000000000016 19.80269999999996L57.14690000000007 18.16507999999999L57.81020000000001 17.457329999999956L57.37270000000001 17.438009999999963L57.19970000000001 17.034310000000005L57.859699999999975 15.909149999999954L57.81479999999999 14.624419999999986L58.25720000000001 13.86627999999996L58.800700000000006 12.957850000000008L58.29200000000003 10.844820000000027L59.53710000000001 9.689280000000053L58.172500000000014 8.757399999999961L56.46879999999999 8.891759999999977L54.822 8.375909999999976L54.039800000000014 8.740840000000048L52.92330000000004 8.613680000000045L52.19209999999998 8.92638999999997L51.38409999999999 8.649319999999989L50.54060000000004 7.217920000000049L50.135400000000004 7.08123999999998L48.52070000000003 7.564200000000028L48.01869999999997 6.424020000000041L46.11040000000003 5.646839999999997L45.74279999999999 4.904599999999959L44.09960000000001 5.107589999999959L43.73059999999998 5.277190000000019L43.76850000000002 7.300089999999955L42.01980000000003 6.564240000000041L39.188999999999965 5.75445000000002L39.200000000000045 5.330050000000028L38.96249999999998 4.475590000000011L37.072900000000004 3.4011600000000044L35.89390000000003 2.086149999999975L35.91129999999998 2.8947500000000446L35.50599999999997 2.9276399999999967L34.311199999999985 1.8301800000000412L33.52859999999998 1.7293300000000045L32.48000000000002 3.396600000000035L33.63189999999997 3.9062699999999495L34.165700000000015 5.061429999999973L31.939399999999978 6.071730000000002L31.242700000000013 5.953120000000013L30.122600000000034 5.774059999999963L29.569200000000023 5.301969999999983L28.795600000000036 5.149959999999965L28.331800000000044 4.453200000000038L27.244000000000028 4.915859999999952L26.413099999999986 4.754480000000058L23.729900000000043 4.529340000000047L23.682800000000043 4.497600000000034L22.832400000000007 4.272709999999961L22.21569999999997 3.6423999999999523L18.231700000000046 3.160039999999981L18.425700000000006 4.219200000000001L18.164800000000014 4.466609999999946L16.080900000000042 3.9371300000000247L14.99210000000005 3.2070999999999685L13.699399999999969 3.00899000000004L13.162500000000023 1.8653600000000097L12.316500000000019 1.672270000000026L11.828700000000026 0.9456500000000005L9.856200000000058 0L9.533300000000054 0.23414999999999964L9.69119999999998 0.9750099999999975L9.938499999999976 1.7475600000000213L9.20760000000007 4.209969999999998L9.085699999999974 5.9413600000000315L10.003000000000043 6.858339999999998L9.56110000000001 8.491070000000036L8.371499999999969 8.527979999999957L8.478500000000054 9.777619999999956L10.205299999999966 10.956770000000006L11.7971 11.529530000000022L13.476099999999974 11.162979999999948L13.494500000000016 12.387370000000033L14.790399999999977 14.31185000000005L15.238699999999994 14.59310000000005L14.985199999999963 15.420370000000048L15.191699999999969 16.260650000000055L14.691400000000044 17.87009999999998L15.404099999999971 18.90948000000003L16.25720000000001 18.894970000000058L16.808200000000056 20.790300000000002L16.729299999999967 21.98616000000004L18.405200000000036 23.731539999999995L18.38689999999997 24.13837000000001L19.596400000000017 24.102049999999963L21.341999999999985 23.93811000000005L23.72230000000002 25.755469999999946L27.9615 26.648400000000038L29.32400000000007 27.65237000000002L29.41420000000005 28.06803000000002L28.39269999999999 29.405830000000037L27.3039 30.05786999999998L26.591800000000035 30.390729999999962z">
      <title id="t235">Septième circonscription du Maine-et-Loire</title>
      <desc id="d235">Cantons de : Angers Nord, Angers Nord-Ouest, Candé, Le Lion-d'Angers, Le Louroux-Béconnais, Pouancé, Segré.</desc>
    </path></svg>