<svg xmlns="http://www.w3.org/2000/svg" version="1.1" xmlns:xlink="http://www.w3.org/1999/xlink" xmlns:svgjs="http://svgjs.dev/svgjs" viewBox="541.73803 581.25698 135.0494 105.41152"><path class="circo" id="id-049-01" d="M 611.72003,617.09825 610.31493,616.09981 610.20453,614.79774 610.61493,614.06103 609.89163,613.04273 608.55403,612.08512 607.72173,613.0741 607.30883,612.9499 606.37323,614.3998 605.26183,613.2716 604.74453,612.17608 603.65183,611.7417 602.56043,611.12006 603.51113,606.94336 603.45173,606.88247 602.38693,605.64667 601.25563,605.18677 600.14213,605.72939 597.81003,605.49308 598.08183,603.45052 598.01153,602.33078 598.39063,602.22089 598.54503,601.05968 598.88493,599.42206 599.54823,598.71431 599.11073,598.69499 598.93773,598.29129 599.59773,597.16613 599.55283,595.8814 599.99523,595.12326 600.53873,594.21483 600.03003,592.1018 601.27513,590.94626 601.91653,590.50075 604.92763,590.65456 607.15213,587.78291 608.13293,588.37729 609.21563,587.90556 611.54893,588.75834 612.78763,586.6079 612.46883,584.54821 612.65683,584.22637 613.74103,584.41044 616.02663,585.43153 617.60743,586.82023 618.26353,587.93059 620.36773,586.6686 621.99493,586.9214 622.18743,587.72639 621.91193,588.05387 620.68183,588.31003 620.88423,589.52443 620.20633,590.59706 619.19853,591.12155 618.96603,592.37839 619.70413,593.43312 618.69833,594.77794 618.87903,595.17731 619.61573,596.1783 619.50683,596.98847 617.72173,597.76749 616.87763,597.80915 615.94843,599.65518 615.16723,599.9615 616.57823,601.60568 616.20493,603.32488 617.09933,603.64452 619.28993,603.39489 620.03863,601.79595 620.20683,600.47212 620.92573,599.95532 624.39473,600.41243 623.93053,603.68211 622.71743,603.71402 621.94943,604.63703 622.40823,606.32367 622.96823,606.99581 626.28033,609.01925 625.65583,611.10431 625.06073,611.58724 623.84233,611.62151 623.10493,612.94826 622.71713,613.06037 622.93723,614.78691 621.32493,616.79097 621.89073,618.37571 621.72913,618.58677 621.04173,619.91829 620.86433,620.26041 621.43563,620.69133 621.27013,621.93739 621.58603,622.71133 621.26553,622.9791 620.47983,622.78554 619.80353,623.78385 618.96903,623.73871 618.79043,624.43548 618.00553,624.28409 615.76023,625.69957 613.19603,625.55877 612.82803,624.77111 612.15353,624.69844 612.11783,625.32646 611.30953,625.05768 611.46583,626.0887 610.55273,626.45813 610.32503,626.08705 608.89633,624.91713 608.29603,624.71916 608.89133,624.01126 609.52323,623.44189 610.06753,622.29616 610.75053,621.23797 611.64433,620.21675 612.32643,618.62716 612.06963,617.35593 611.72003,617.09825 z">
      <title id="t229">Première circonscription du Maine-et-Loire</title>
      <desc id="d229">Cantons de : Angers Centre, Angers Est, Angers Nord-Est, Châteauneuf-sur-Sarthe, Tiercé.</desc>
    </path><path class="circo" id="id-049-02" d="M 587.26493,641.83076 586.79903,640.68001 587.57453,639.76955 587.61523,638.15844 587.98853,637.47992 587.57623,636.29515 585.87503,635.11983 585.95573,634.38727 586.89253,635.09861 588.04413,635.33123 593.71553,637.20157 595.24583,637.85275 596.88473,637.58082 599.16093,636.75239 600.39853,636.83937 602.19533,635.82281 603.57953,633.54463 603.80313,633.18022 604.53063,631.86895 605.46313,629.99459 605.63583,628.30972 606.76773,626.53203 607.69923,625.80741 608.29603,624.71916 608.89633,624.91713 610.32503,626.08705 610.55273,626.45813 611.46583,626.0887 611.30953,625.05768 612.11783,625.32646 612.15353,624.69844 612.82803,624.77111 613.19603,625.55877 615.76023,625.69957 618.00553,624.28409 618.79043,624.43548 618.96903,623.73871 619.80353,623.78385 620.47983,622.78554 621.26553,622.9791 621.58603,622.71133 621.27013,621.93739 621.43563,620.69133 620.86433,620.26041 621.04173,619.91829 621.72913,618.58677 621.89073,618.37571 623.41283,618.78158 625.74953,620.24694 624.19953,621.58291 625.39103,622.73536 625.83463,624.37525 625.69783,625.22158 624.37753,626.27622 626.88803,626.76671 627.00313,627.19218 628.58823,628.04883 629.31593,627.71805 632.82593,630.12249 633.37673,629.63426 633.91593,630.72111 632.08643,632.88297 631.90843,632.77623 631.49973,635.23457 632.06993,635.84641 631.84213,637.03766 629.67663,637.41592 628.82633,636.73833 627.60973,635.07765 627.49223,633.44568 626.66403,633.64948 625.49633,635.97532 625.38943,637.27938 625.89013,638.47677 625.97123,639.74847 624.51653,640.59634 624.07213,639.87179 625.10803,637.57856 625.09783,636.73206 624.40353,636.28573 622.70853,636.14503 622.54703,635.74712 622.17173,635.59259 621.55033,636.61031 620.44133,637.06226 620.21743,637.74935 619.53983,638.08428 618.60013,637.52384 618.23223,638.10761 618.08333,637.71961 616.87883,637.5261 616.99683,638.67527 616.20253,638.78506 615.62303,637.73204 615.79383,637.3863 615.05853,637.20069 614.19553,637.80105 613.79513,640.67123 612.20603,641.17056 610.70753,640.97113 608.53503,642.64363 608.00583,642.02578 605.69853,641.25974 603.22523,641.31116 602.52673,643.24664 601.94663,643.56611 601.45673,643.07925 600.48863,644.92069 599.05933,646.44344 599.19423,647.16565 598.26153,648.58126 596.47613,649.72989 597.43793,651.62046 599.96063,651.62534 599.51553,652.77458 599.37033,654.03152 600.00953,654.57478 599.26293,657.48224 601.35233,657.86409 602.36423,657.13504 603.61183,657.32998 603.89953,657.64602 602.76963,658.91467 601.96423,659.2394 601.74083,660.48848 600.41863,662.19308 600.42933,663.05684 602.30833,664.10397 600.27073,666.2035 598.28993,666.795 596.26093,666.44903 595.13883,666.98628 592.63143,667.1843 591.82733,666.30271 592.03263,665.07084 590.33513,665.08021 589.26173,664.47294 588.63433,663.40586 587.47573,663.64786 586.71563,663.39861 586.63323,663.06684 587.49443,663.10509 587.76663,662.78756 588.01303,660.60166 587.81393,657.5154 586.51813,656.54869 588.60793,655.1354 588.24033,654.95016 588.17013,653.72719 588.65013,653.04276 588.09323,651.52128 587.76633,651.62509 583.78063,650.76636 583.47093,649.49339 583.62203,648.69113 584.34563,648.34058 584.25373,646.61488 583.08383,646.06232 584.47073,644.52444 585.28353,644.74683 586.35883,645.97433 588.89663,647.84141 590.79783,647.15011 591.42173,646.11383 591.51443,644.48721 591.45743,644.19047 590.78993,643.13655 588.32763,641.55435 587.93483,641.39808 587.26493,641.83076 z">
      <title id="t230">Deuxième circonscription du Maine-et-Loire</title>
      <desc id="d230">Angers Sud, Angers-Trélazé, Chalonnes-sur-Loire, Chemillé, Les Ponts-de-Cé.</desc>
    </path><path class="circo" id="id-049-03" d="M 648.81123,600.13743 648.42913,599.98763 647.88233,600.58204 647.17233,602.06621 647.14983,603.3081 645.98133,603.15218 645.41563,603.68489 644.30873,603.2256 643.33733,601.84856 642.08763,602.10797 640.42973,601.73741 640.12883,601.47117 640.13213,599.86811 638.50183,597.32029 638.34463,596.07323 639.55593,595.93621 641.17823,594.48224 641.25403,593.63146 642.10863,593.4695 641.94763,593.10274 641.16263,593.13446 640.39483,592.21527 639.64643,591.9748 636.72293,594.57875 635.03163,594.13992 632.39963,592.74709 630.57653,592.97375 628.48643,592.51801 627.00173,593.33912 625.75253,593.12725 626.39263,591.12483 625.07653,590.12573 625.18263,589.71227 624.57273,588.69311 624.80333,587.55442 624.40283,587.5089 624.20943,586.67543 622.02953,585.30087 621.59983,585.24079 621.99493,586.9214 622.18743,587.72639 621.91193,588.05387 620.68183,588.31003 620.88423,589.52443 620.20633,590.59706 619.19853,591.12155 618.96603,592.37839 619.70413,593.43312 618.69833,594.77794 618.87903,595.17731 619.61573,596.1783 619.50683,596.98847 617.72173,597.76749 616.87763,597.80915 615.94843,599.65518 615.16723,599.9615 616.57823,601.60568 616.20493,603.32488 617.09933,603.64452 619.28993,603.39489 620.03863,601.79595 620.20683,600.47212 620.92573,599.95532 624.39473,600.41243 623.93053,603.68211 622.71743,603.71402 621.94943,604.63703 622.40823,606.32367 622.96823,606.99581 626.28033,609.01925 625.65583,611.10431 625.06073,611.58724 623.84233,611.62151 623.10493,612.94826 622.71713,613.06037 622.93723,614.78691 621.32493,616.79097 621.89073,618.37571 623.41283,618.78158 625.74953,620.24694 624.19953,621.58291 625.39103,622.73536 625.83463,624.37525 625.69783,625.22158 624.37753,626.27622 626.88803,626.76671 627.00313,627.19218 628.58823,628.04883 629.31593,627.71805 632.82593,630.12249 633.37673,629.63426 633.91593,630.72111 632.08643,632.88297 633.34483,634.09648 634.18293,635.63163 634.79983,637.16781 636.15263,638.68456 638.80833,640.55708 639.18063,640.76442 641.83603,642.67147 644.04093,643.99477 645.28133,645.79974 646.39893,646.42151 647.88783,647.38886 648.29703,648.50213 651.68963,651.40202 653.60133,651.63373 656.18003,652.27925 657.14243,652.74678 658.74733,653.83172 660.54303,654.58955 661.84123,655.61099 663.00713,655.52689 663.12503,653.82083 662.72193,652.59077 663.33993,651.51414 663.65813,649.03903 664.28513,648.55871 664.37613,647.69983 663.85123,647.13682 666.50533,643.13404 666.83313,641.43658 668.36593,641.05755 669.36923,639.80179 668.78333,637.74007 669.92703,637.57881 672.33113,635.21285 671.19123,634.7019 671.15013,633.42873 669.92743,633.10525 672.22913,630.8603 672.58673,629.65248 672.22333,626.25811 673.02893,625.26231 673.40333,623.59069 673.75133,623.34269 673.90503,622.32557 675.55833,620.12993 675.96073,616.94279 674.45893,617.01857 674.32823,616.22949 673.26423,615.58813 673.85643,614.94205 675.04663,611.71537 675.45863,611.10961 676.78743,610.4772 676.44813,609.67196 676.70893,608.84771 676.39933,606.72298 675.32033,606.17161 674.92153,606.29593 674.64823,607.0857 674.23533,607.02884 674.01133,605.81716 672.64493,605.69547 672.48703,607.90638 671.82843,608.48635 670.54493,608.73806 669.47043,610.13899 668.79213,609.62218 668.25973,608.48484 667.07883,608.28606 666.67923,607.07221 666.25223,607.03792 664.98943,607.36255 662.88523,606.75803 662.13913,607.21744 661.29093,606.99707 659.75583,605.45903 657.69203,604.78396 657.95063,604.16407 656.46543,601.76744 655.12423,603.11308 654.57523,601.93638 652.39633,601.64214 650.51523,600.53093 648.99233,601.34764 648.81123,600.13743 z">
      <title id="t231">Troisième circonscription du Maine-et-Loire</title>
      <desc id="d231">Cantons de: Allonnes, Baugé, Beaufort-en-Vallée, Durtal, Longué-Jumelles, Noyant, Saumur Nord, Seiches-sur-le-Loir.</desc>
    </path><path class="circo" id="id-049-04" d="M 624.07213,639.87179 624.51653,640.59634 625.97123,639.74847 625.89013,638.47677 625.38943,637.27938 625.49633,635.97532 626.66403,633.64948 627.49223,633.44568 627.60973,635.07765 628.82633,636.73833 629.67663,637.41592 631.84213,637.03766 632.06993,635.84641 631.49973,635.23457 631.90843,632.77623 632.08643,632.88297 633.34483,634.09648 634.18293,635.63163 634.79983,637.16781 636.15263,638.68456 638.80833,640.55708 639.18063,640.76442 641.83603,642.67147 644.04093,643.99477 645.28133,645.79974 646.39893,646.42151 647.88783,647.38886 648.29703,648.50213 651.68963,651.40202 653.60133,651.63373 656.18003,652.27925 657.14243,652.74678 658.74733,653.83172 660.54303,654.58955 661.84123,655.61099 663.00713,655.52689 663.38033,655.59084 663.04323,656.2008 661.92843,657.11151 661.42233,658.15734 661.47403,658.5803 662.50923,659.28993 662.24793,660.96719 661.41663,662.44013 660.80523,662.1837 659.96323,662.9712 658.46493,661.04635 655.85223,663.48649 653.98093,667.07011 653.92113,667.93686 653.50793,669.09851 653.66113,669.49655 654.46313,669.76043 654.54753,670.17916 653.84673,672.17141 653.08813,671.36826 651.08863,671.33917 650.74633,670.64032 649.57743,670.45888 648.51373,671.593 648.29323,672.43743 648.16803,674.90634 645.89213,676.22522 645.23413,675.76919 645.13033,674.96049 644.50203,674.4627 643.72183,674.23981 642.73953,674.93254 641.99413,674.5679 641.67103,674.28411 642.67563,672.8862 644.87253,670.91727 644.84173,670.05666 643.57543,670.3144 641.10273,669.46208 640.68243,670.55703 639.31523,671.36302 636.41333,669.87071 634.90383,670.47774 634.50353,669.82925 633.89073,670.3656 633.07863,670.50184 632.77763,670.22062 631.20723,670.70725 630.27383,671.50585 627.93583,672.10199 626.69383,671.13665 626.32353,671.32019 624.38283,671.9422 623.97843,671.87291 623.94743,671.46365 623.18503,671.7317 622.78133,674.16193 622.11373,674.69581 620.59623,673.97897 618.98393,674.54756 617.69883,674.46457 616.01493,676.29983 615.72853,674.68309 617.39773,673.50044 617.46253,672.77648 615.04593,672.65389 613.06133,673.26753 609.27133,675.29379 609.57643,675.59938 609.58113,677.30035 610.65293,678.61103 610.35123,679.40357 609.11573,679.30992 608.67143,680.51572 607.53883,681.13125 606.93083,682.22403 606.16363,681.87812 605.03763,682.36115 604.47613,681.29606 602.07033,680.54739 601.42583,680.00749 602.03693,678.53383 602.75023,678.15454 600.19493,676.26402 599.81213,675.52726 600.37393,674.4169 601.66933,673.32857 602.64033,671.54193 601.88873,671.22443 601.51393,670.46987 599.47203,670.05853 598.92313,668.99235 599.41313,667.96971 598.28993,666.795 600.27073,666.2035 602.30833,664.10397 600.42933,663.05684 600.41863,662.19308 601.74083,660.48848 601.96423,659.2394 602.76963,658.91467 603.89953,657.64602 603.61183,657.32998 602.36423,657.13504 601.35233,657.86409 599.26293,657.48224 600.00953,654.57478 599.37033,654.03152 599.51553,652.77458 599.96063,651.62534 597.43793,651.62046 596.47613,649.72989 598.26153,648.58126 599.19423,647.16565 599.05933,646.44344 600.48863,644.92069 601.45673,643.07925 601.94663,643.56611 602.52673,643.24664 603.22523,641.31116 605.69853,641.25974 608.00583,642.02578 608.53503,642.64363 610.70753,640.97113 612.20603,641.17056 613.79513,640.67123 614.19553,637.80105 615.05853,637.20069 615.79383,637.3863 615.62303,637.73204 616.20253,638.78506 616.99683,638.67527 616.87883,637.5261 618.08333,637.71961 618.23223,638.10761 618.60013,637.52384 619.53983,638.08428 620.21743,637.74935 620.44133,637.06226 621.55033,636.61031 622.17173,635.59259 622.54703,635.74712 622.70853,636.14503 624.40353,636.28573 625.09783,636.73206 625.10803,637.57856 624.07213,639.87179 z">
      <title id="t232">Quatrième circonscription du Maine-et-Loire</title>
      <desc id="d232">Cantons de : Doué-la-Fontaine, Gennes, Montreuil-Bellay, Saumur Sud, Thouarcé, Vihiers.</desc>
    </path><path class="circo" id="id-049-05" d="M 603.00463,683.37821 601.77033,683.66223 599.80853,682.86608 599.01573,683.83097 599.03123,684.52657 597.47733,683.6661 596.11103,684.73579 594.46563,683.34331 594.03643,683.26716 592.97683,683.94774 592.11633,683.84281 591.13263,682.51596 589.90273,682.34819 589.19263,683.37783 588.12553,684.00905 588.41963,684.30364 588.02383,684.4543 587.44163,683.82873 587.01343,683.84393 585.94643,684.54065 584.79043,684.71386 584.15723,685.73766 584.23613,686.52898 583.83883,686.6685 581.86993,685.94235 581.02983,686.00065 580.23643,684.05529 579.07963,683.55667 577.38173,682.04591 576.88393,682.7114 575.32013,683.22242 573.77373,681.20144 573.01373,681.37249 571.65373,680.33442 570.47683,682.53428 567.48393,682.25408 566.34973,681.65622 565.53863,681.80843 564.76513,681.40789 564.14753,681.07926 562.48583,680.99274 561.00833,680.31373 559.82053,679.90736 559.21733,679.30393 561.82533,677.96595 561.57863,676.30657 562.02513,675.16951 559.22103,674.30545 558.08453,673.06358 557.34913,671.39286 556.96463,671.3142 552.45603,670.54192 551.36943,671.18922 550.62523,670.80939 552.09783,669.27986 552.58243,668.1817 552.16443,667.43941 552.21183,666.60333 551.59693,666.15314 553.24353,664.97623 554.07323,664.94874 555.83493,663.2376 557.43363,661.70195 558.25403,661.59542 560.55073,662.3006 561.05173,662.96408 561.23043,664.19534 561.93823,664.13347 562.44283,664.72115 564.07343,663.54199 564.48033,663.45886 564.94253,664.1426 565.34763,664.04835 565.33253,666.15252 565.68793,666.4033 567.61803,665.41376 568.15363,664.73165 569.80613,664.95786 570.89063,664.88438 571.44343,664.02135 572.22483,663.92636 573.12473,664.57705 575.50963,664.92412 575.52993,665.73416 576.26853,667.12296 576.03493,667.90725 576.41403,668.05828 576.17913,669.17794 577.43823,670.19227 578.78923,668.28525 579.64093,668.34758 581.37273,669.55762 582.22033,669.58559 583.10433,671.00305 583.38503,670.29367 584.56973,670.33576 585.21743,670.78017 585.90343,670.39445 584.36573,668.47137 584.39103,668.04791 585.39473,667.28825 586.27373,665.85 586.45823,665.0211 586.11733,664.26709 586.71563,663.39861 587.47573,663.64786 588.63433,663.40586 589.26173,664.47294 590.33513,665.08021 592.03263,665.07084 591.82733,666.30271 592.63143,667.1843 595.13883,666.98628 596.26093,666.44903 598.28993,666.795 599.41313,667.96971 598.92313,668.99235 599.47203,670.05853 601.51393,670.46987 601.88873,671.22443 602.64033,671.54193 601.66933,673.32857 600.37393,674.4169 599.81213,675.52726 600.19493,676.26402 602.75023,678.15454 602.03693,678.53383 601.42583,680.00749 602.07033,680.54739 604.47613,681.29606 605.03763,682.36115 606.16363,681.87812 606.93083,682.22403 606.37033,682.60795 606.23033,683.24909 604.13203,683.81589 603.00463,683.37821 z">
      <title id="t233">Cinquième circonscription du Maine-et-Loire</title>
      <desc id="d233">Cantons de : Cholet I, Cholet II, Cholet III, Montfaucon.</desc>
    </path><path class="circo" id="id-049-06" d="M 572.22483,663.92636 571.44343,664.02135 570.89063,664.88438 569.80613,664.95786 568.15363,664.73165 567.61803,665.41376 565.68793,666.4033 565.33253,666.15252 565.34763,664.04835 564.94253,664.1426 564.48033,663.45886 564.07343,663.54199 562.44283,664.72115 561.93823,664.13347 561.23043,664.19534 561.05173,662.96408 560.55073,662.3006 558.25403,661.59542 557.43363,661.70195 558.09493,659.78649 556.82343,658.93256 557.00213,658.20688 556.48083,657.08749 557.01493,656.21194 555.82613,655.51125 556.45183,652.8959 555.19753,651.48283 554.42773,651.37489 553.33013,652.53443 552.18803,653.06079 550.25043,651.74519 548.35143,649.30073 548.32433,646.98883 548.02683,646.38128 546.79123,645.32206 546.75573,644.91944 545.17253,645.12025 543.00383,645.36945 541.73803,644.97046 543.17553,643.30181 544.41213,642.87423 545.78893,641.1683 547.85453,640.40518 550.05263,640.31536 552.10163,639.48201 552.43393,639.22444 554.34993,639.29244 556.29423,638.68092 557.40153,637.37551 559.53623,636.96286 562.14003,637.01846 562.32983,637.22127 563.18813,637.13342 565.17103,636.61169 566.40773,636.688 569.11613,637.33937 570.77373,637.24775 572.65073,636.38527 573.86643,636.58283 574.56273,635.89599 575.42953,635.43141 576.45263,634.57434 577.29763,634.48219 578.35263,633.09972 576.67593,630.60805 577.30583,629.72384 578.41073,629.60297 578.36093,625.13545 579.20353,625.24647 579.67533,626.42857 580.01083,625.6743 580.75913,625.38678 583.43393,626.53856 586.28743,626.90196 586.77523,627.53304 586.80593,628.33121 587.19663,628.16834 589.15533,628.9614 591.23353,628.93388 591.51343,628.21949 592.30123,627.97568 593.39983,627.66614 593.49303,627.24937 592.85953,626.15478 592.16123,625.67254 592.20573,624.39801 592.75823,623.80385 593.53673,623.82799 594.36993,622.45097 594.67163,622.73812 595.85163,622.69699 597.88693,624.10729 599.71253,623.66942 600.81373,624.05208 600.55293,622.58983 601.72103,622.07086 600.86813,620.58451 601.63553,620.68265 602.31673,620.28154 603.49153,620.55948 605.02773,621.78003 606.16563,622.44984 607.38963,622.2818 607.67703,622.62623 608.06163,622.70955 608.56043,623.15247 608.68573,623.35935 608.63893,623.63788 608.89133,624.01126 608.29603,624.71916 607.69923,625.80741 606.76773,626.53203 605.63583,628.30972 605.46313,629.99459 604.53063,631.86895 603.80313,633.18022 603.57953,633.54463 602.19533,635.82281 600.39853,636.83937 599.16093,636.75239 596.88473,637.58082 595.24583,637.85275 593.71553,637.20157 588.04413,635.33123 586.89253,635.09861 585.95573,634.38727 585.87503,635.11983 587.57623,636.29515 587.98853,637.47992 587.61523,638.15844 587.57453,639.76955 586.79903,640.68001 587.26493,641.83076 587.93483,641.39808 588.32763,641.55435 590.78993,643.13655 591.45743,644.19047 591.51443,644.48721 591.42173,646.11383 590.79783,647.15011 588.89663,647.84141 586.35883,645.97433 585.28353,644.74683 584.47073,644.52444 583.08383,646.06232 584.25373,646.61488 584.34563,648.34058 583.62203,648.69113 583.47093,649.49339 583.78063,650.76636 587.76633,651.62509 588.09323,651.52128 588.65013,653.04276 588.17013,653.72719 588.24033,654.95016 588.60793,655.1354 586.51813,656.54869 587.81393,657.5154 588.01303,660.60166 587.76663,662.78756 587.49443,663.10509 586.63323,663.06684 586.71563,663.39861 586.11733,664.26709 586.45823,665.0211 586.27373,665.85 585.39473,667.28825 584.39103,668.04791 584.36573,668.47137 585.90343,670.39445 585.21743,670.78017 584.56973,670.33576 583.38503,670.29367 583.10433,671.00305 582.22033,669.58559 581.37273,669.55762 579.64093,668.34758 578.78923,668.28525 577.43823,670.19227 576.17913,669.17794 576.41403,668.05828 576.03493,667.90725 576.26853,667.12296 575.52993,665.73416 575.50963,664.92412 573.12473,664.57705 572.22483,663.92636 z">
      <title id="t234">Sixième circonscription du Maine-et-Loire</title>
      <desc id="d234">Cantons de : Angers Ouest, Beaupréau, Champtoceaux, Montrevault, Saint-Florent-le-Vieil, Saint-Georges-sur-Loire</desc>
    </path><path class="circo" id="id-049-07" d="M 568.32983,611.64771 568.26243,612.41076 567.11643,612.15756 565.45563,611.86869 563.35403,612.10049 557.14643,611.20738 556.68643,614.33041 558.72593,615.00337 558.80493,615.43049 557.53413,616.56676 557.68113,617.42365 558.73593,619.20229 559.89613,619.78541 562.80663,620.26229 565.31693,619.96044 565.67243,620.18932 568.06723,619.68349 569.65533,620.36182 570.86713,621.65273 574.78053,621.4078 575.33193,622.73712 574.61483,623.62679 574.57763,624.39374 575.75543,626.25736 576.23683,630.08882 576.67593,630.60805 577.30583,629.72384 578.41073,629.60297 578.36093,625.13545 579.20353,625.24647 579.67533,626.42857 580.01083,625.6743 580.75913,625.38678 583.43393,626.53856 586.28743,626.90196 586.77523,627.53304 586.80593,628.33121 587.19663,628.16834 589.15533,628.9614 591.23353,628.93388 591.51343,628.21949 592.30123,627.97568 593.39983,627.66614 593.49303,627.24937 592.85953,626.15478 592.16123,625.67254 592.20573,624.39801 592.75823,623.80385 593.53673,623.82799 594.36993,622.45097 594.67163,622.73812 595.85163,622.69699 597.88693,624.10729 599.71253,623.66942 600.81373,624.05208 600.55293,622.58983 601.72103,622.07086 600.86813,620.58451 601.63553,620.68265 602.31673,620.28154 603.49153,620.55948 605.02773,621.78003 606.16563,622.44984 607.38963,622.2818 607.67703,622.62623 608.06163,622.70955 608.56043,623.15247 608.68573,623.35935 608.63893,623.63788 608.73963,623.81363 608.89133,624.01126 609.52323,623.44189 610.06753,622.29616 610.75053,621.23797 611.64433,620.21675 612.32643,618.62716 612.06963,617.35593 611.72003,617.09825 610.31493,616.09981 610.20453,614.79774 610.61493,614.06103 609.89163,613.04273 608.55403,612.08512 607.72173,613.0741 607.30883,612.9499 606.37323,614.3998 605.26183,613.2716 604.74453,612.17608 603.65183,611.7417 602.56043,611.12006 603.51113,606.94336 603.45173,606.88247 602.38693,605.64667 601.25563,605.18677 600.14213,605.72939 597.81003,605.49308 598.08183,603.45052 598.01153,602.33078 598.39063,602.22089 598.54503,601.05968 598.88493,599.42206 599.54823,598.71431 599.11073,598.69499 598.93773,598.29129 599.59773,597.16613 599.55283,595.8814 599.99523,595.12326 600.53873,594.21483 600.03003,592.1018 601.27513,590.94626 599.91053,590.01438 598.20683,590.14874 596.56003,589.63289 595.77783,589.99782 594.66133,589.87066 593.93013,590.18337 593.12213,589.9063 592.27863,588.4749 591.87343,588.33822 590.25873,588.82118 589.75673,587.681 587.84843,586.90382 587.48083,586.16158 585.83763,586.36457 585.46863,586.53417 585.50653,588.55707 583.75783,587.82122 580.92703,587.01143 580.93803,586.58703 580.70053,585.73257 578.81093,584.65814 577.63193,583.34313 577.64933,584.15173 577.24403,584.18462 576.04923,583.08716 575.26663,582.98631 574.21803,584.65358 575.36993,585.16325 575.90373,586.31841 573.67743,587.32871 572.98073,587.2101 571.86063,587.03104 571.30723,586.55895 570.53363,586.40694 570.06983,585.71018 568.98203,586.17284 568.15113,586.01146 565.46793,585.78632 565.42083,585.75458 564.57043,585.52969 563.95373,584.89938 559.96973,584.41702 560.16373,585.47618 559.90283,585.72359 557.81893,585.19411 556.73013,584.46408 555.43743,584.26597 554.90053,583.12234 554.05453,582.92925 553.56673,582.20263 551.59423,581.25698 551.27133,581.49113 551.42923,582.23199 551.67653,583.00454 550.94563,585.46695 550.82373,587.19834 551.74103,588.11532 551.29913,589.74805 550.10953,589.78496 550.21653,591.0346 551.94333,592.21375 553.53513,592.78651 555.21413,592.41996 555.23253,593.64435 556.52843,595.56883 556.97673,595.85008 556.72323,596.67735 556.92973,597.51763 556.42943,599.12708 557.14213,600.16646 557.99523,600.15195 558.54623,602.04728 558.46733,603.24314 560.14323,604.98852 560.12493,605.39535 561.33443,605.35903 563.08003,605.19509 565.46033,607.01245 569.69953,607.90538 571.06203,608.90935 571.15223,609.32501 570.13073,610.66281 569.04193,611.31485 568.32983,611.64771 z">
      <title id="t235">Septième circonscription du Maine-et-Loire</title>
      <desc id="d235">Cantons de : Angers Nord, Angers Nord-Ouest, Candé, Le Lion-d'Angers, Le Louroux-Béconnais, Pouancé, Segré.</desc>
    </path></svg>