<svg xmlns="http://www.w3.org/2000/svg" version="1.1" xmlns:xlink="http://www.w3.org/1999/xlink" xmlns:svgjs="http://svgjs.dev/svgjs" viewBox="0 0 139.45717000000002 115.55831"><path class="circo" id="id-051-01" d="M47.95659999999998 3.967550000000017L45.696500000000015 1.2170399999999972L44.85490000000004 0L43.620900000000006 1.6189200000000028L42.38319999999999 1.9522200000000112L39.331800000000044 3.421800000000019L39.01010000000008 5.1422000000000025L39.45180000000005 5.096640000000036L39.77230000000009 6.38488000000001L41.73599999999999 7.3581400000000485L41.19780000000003 8.637580000000014L42.083900000000085 8.665110000000027L44.170900000000074 7.892730000000029L46.795900000000074 7.859320000000025L47.039300000000026 8.237570000000005L47.254999999999995 8.589699999999993L45.984500000000025 9.709630000000004L45.82690000000002 11.465239999999994L45.132600000000025 12.063120000000026L45.403099999999995 12.315950000000043L45.50279999999998 13.677960000000041L46.194000000000074 15.304380000000037L46.19760000000008 16.666930000000036L45.83699999999999 16.94368000000003L47.41160000000002 17.027070000000037L48.553800000000024 17.513040000000046L49.44670000000008 16.99111000000005L49.80540000000008 17.172470000000033L50.65859999999998 16.37375000000003L50.29230000000007 14.84366L50.94850000000008 14.32229000000001L53.012699999999995 17.70935000000003L52.62150000000008 18.136310000000037L52.86040000000003 18.611860000000036L52.08630000000005 18.990070000000003L52.001100000000065 19.314570000000003L51.97930000000008 19.765480000000025L52.71969999999999 20.016400000000033L53.59870000000001 19.070809999999994L54.22072000000003 19.979340000000036L53.98811999999998 20.331470000000024L54.30212000000006 20.45598000000001L54.70357000000001 20.33972L55.01037000000008 20.87384000000003L55.47777000000008 21.305810000000008L56.33267000000001 21.53719000000001L57.21247000000005 21.506970000000024L57.79827 22.308989999999994L58.96777000000009 23.14019000000002L59.04156999999998 20.749860000000012L58.13537000000008 18.890890000000013L58.137770000000046 17.595640000000003L59.63587000000007 16.78003000000001L61.45297000000005 17.80591000000004L62.23957000000007 17.594600000000014L62.301270000000045 17.200750000000028L63.36617000000001 16.818990000000042L63.70357000000001 16.103499999999997L66.17997000000003 15.096120000000042L66.84726999999998 15.62745000000001L67.23787000000004 15.449430000000007L67.84367000000009 16.57038L68.54237 16.103110000000015L68.93447000000003 14.442859999999996L70.02677000000006 13.702730000000031L70.06477000000007 13.059889999999996L69.50547000000006 12.107580000000041L71.67286999999999 11.490800000000036L74.22967000000006 11.993359999999996L75.89377000000002 11.304190000000006L77.45107000000007 10.588860000000011L75.92297000000008 7.939050000000009L75.72517000000005 7.653040000000033L76.24036999999998 7.188760000000002L74.50377000000003 6.875310000000013L73.22577000000001 5.585340000000031L72.32227 3.5160700000000134L71.89537000000007 3.5726099999999974L71.71467000000007 3.298680000000047L70.10417000000007 3.071610000000021L69.40796999999998 2.5935499999999934L68.35707000000002 3.1256700000000137L67.31056999999998 1.1786400000000299L67.51777000000004 0.8728700000000345L65.47037 0.7635400000000345L63.41516999999999 0.46101000000004433L61.02357000000006 0.7566100000000233L60.28007000000002 0.7567400000000362L58.49727000000007 0.808210000000031L57.95297000000005 0.8019400000000019L57.14247 0.38577000000003636L55.323170000000005 0.27212000000002945L54.663470000000075 1.3752100000000382L54.39877000000001 3.0821900000000255L54.26272000000006 6.244200000000035L52.32740000000001 6.452490000000012L51.94360000000006 5.263720000000035L50.11009999999999 3.761790000000019L47.95659999999998 3.967550000000017z">
      <title id="t240">Première circonscription de la Marne</title>
      <desc id="d240">Cantons de : Bourgogne, Reims II, Reims IV, Reims VI, Reims X</desc>
    </path><path class="circo" id="id-051-02" d="M25.574600000000032 33.74833000000001L25.103200000000015 33.16689000000002L24.37060000000008 32.99689000000001L21.900100000000066 33.73779999999999L19.323300000000017 33.40485000000001L19.038600000000088 33.61058000000003L18.929100000000062 33.900630000000035L20.86570000000006 35.16623000000004L21.686700000000087 36.599140000000034L20.757100000000037 38.06758000000002L22.438600000000065 37.75810000000001L23.146600000000035 38.29653000000002L24.00210000000004 38.05862000000002L26.189500000000066 39.40195L26.0711 39.75925000000001L26.749900000000025 40.655940000000044L27.898700000000076 40.39332000000002L28.496600000000058 40.93465000000003L28.843700000000013 41.017210000000034L31.77240000000006 42.51929000000001L32.634900000000016 42.37134000000003L33.12639999999999 42.32384000000002L33.976800000000026 42.453750000000014L34.536699999999996 43.13038L35.77859999999998 43.52822000000003L37.54200000000003 43.22705000000002L36.38690000000008 42.646600000000035L36.23180000000002 42.23533000000003L36.32230000000004 41.36106000000001L36.90530000000001 40.70527000000004L36.70460000000003 40.31569000000002L37.91579999999999 39.37014000000005L39.13390000000004 38.68156000000005L39.43270000000007 38.71869000000004L39.634900000000016 38.00277L40.03460000000007 37.975630000000024L41.78100000000006 37.98927000000003L41.81420000000003 36.68760000000003L41.41650000000004 34.76033000000001L41.882400000000075 33.62643000000003L44.424800000000005 30.802909999999997L45.48419999999999 31.31098000000003L45.71249999999998 32.50923L46.15680000000009 32.97389000000004L46.6232 31.774550000000033L45.99189999999999 30.172570000000007L48.823600000000056 29.30785000000003L49.927400000000034 27.172180000000026L49.646600000000035 26.868030000000033L51.76610000000005 26.109939999999995L52.194000000000074 25.38533000000001L51.9135 25.060010000000034L52.2654 24.27594000000005L52.05910000000006 23.898900000000026L52.478000000000065 23.46324000000004L52.38700000000006 21.63883000000004L52.77920000000006 21.62401L54.23022000000003 23.068470000000048L54.90077000000008 22.456450000000018L55.02277000000004 21.747720000000015L55.47777000000008 21.305810000000008L55.01037000000008 20.87384000000003L54.70357000000001 20.33972L53.98811999999998 20.331470000000024L54.22072000000003 19.979340000000036L53.59870000000001 19.070809999999994L52.71969999999999 20.016400000000033L51.97930000000008 19.765480000000025L52.08630000000005 18.990070000000003L52.86040000000003 18.611860000000036L52.62150000000008 18.136310000000037L53.012699999999995 17.70935000000003L50.94850000000008 14.32229000000001L50.29230000000007 14.84366L50.65859999999998 16.37375000000003L49.80540000000008 17.172470000000033L49.44670000000008 16.99111000000005L48.553800000000024 17.513040000000046L47.41160000000002 17.027070000000037L45.83699999999999 16.94368000000003L46.19760000000008 16.666930000000036L46.194000000000074 15.304380000000037L45.50279999999998 13.677960000000041L45.403099999999995 12.315950000000043L45.132600000000025 12.063120000000026L45.82690000000002 11.465239999999994L45.984500000000025 9.709630000000004L47.254999999999995 8.589699999999993L47.039300000000026 8.237570000000005L46.795900000000074 7.859320000000025L44.170900000000074 7.892730000000029L42.083900000000085 8.665110000000027L41.19780000000003 8.637580000000014L41.73599999999999 7.3581400000000485L39.77230000000009 6.38488000000001L39.45180000000005 5.096640000000036L39.01010000000008 5.1422000000000025L38.28060000000005 5.63181000000003L39.16730000000007 7.05749000000003L38.90100000000007 7.877980000000036L38.60640000000001 8.196210000000008L37.03129999999999 7.502589999999998L36.264999999999986 6.6240999999999985L34.50800000000004 6.385410000000036L33.66680000000008 6.6372800000000325L32.54000000000008 7.1410000000000196L32.33540000000005 6.7777000000000385L30.659400000000005 7.848760000000027L29.6952 7.777379999999994L29.23720000000003 7.85163L29.316700000000083 8.978340000000003L28.821500000000015 9.421610000000044L26.794500000000085 9.615190000000041L25.154800000000023 10.327490000000012L24.672500000000014 10.537869999999998L23.123300000000086 10.83053000000001L22.583000000000084 11.560960000000023L21.290200000000027 11.976930000000038L20.861800000000017 13.634160000000008L20.50350000000003 13.880930000000035L20.921800000000076 14.594320000000039L21.99980000000005 15.219539999999995L22.25909999999999 15.781750000000045L21.637100000000032 16.842570000000023L22.780900000000088 18.04092000000003L21.94130000000007 18.898180000000025L23.21640000000002 21.77719000000002L23.623000000000047 21.862600000000043L23.79129999999998 22.25382000000002L22.855099999999993 24.072519999999997L21.620300000000043 24.273979999999995L21.90269999999998 25.394830000000013L22.56090000000006 25.911519999999996L23.761600000000044 26.134659999999997L24.209299999999985 27.24269000000004L25.530200000000036 26.215580000000045L26.1404 26.992920000000026L25.535600000000045 28.131370000000004L26.296400000000062 29.63945000000001L27.93960000000004 30.328990000000033L29.199500000000057 29.855560000000025L30.092399999999998 29.979739999999993L29.882299999999987 32.47206L29.107700000000023 32.68561L27.190900000000056 33.96496000000002L26.024999999999977 34.463810000000024L25.574600000000032 33.74833000000001z">
      <title id="t241">Deuxième circonscription de la Marne</title>
      <desc id="d241">Cantons de : Châtillon-sur-Marne (moins les communes de Courtagnon, Nanteuil-la-Forêt et Pourcy), Fismes, Reims I, Reims III, Reims V, Reims VIII, Ville-en-Tardenois</desc>
    </path><path class="circo" id="id-051-03" d="M68.23577 41.22386L68.70827000000008 41.75862000000001L66.75227000000007 44.15038000000004L65.45887000000005 44.765720000000044L64.44177000000002 47.671310000000005L65.05567000000008 48.77746000000002L64.91117000000008 49.19972000000001L64.87047000000007 49.43229000000002L61.43916999999999 49.17392000000001L59.91807000000006 49.889250000000004L59.11877000000004 49.52252000000004L58.733370000000036 49.65708000000001L57.33517000000006 48.961820000000046L56.23147000000006 49.689490000000035L55.80427000000009 49.03792000000004L54.99777000000006 48.932650000000024L54.37711999999999 48.39524L54.06772000000001 48.66505000000001L53.32810000000006 53.26273000000003L52.451599999999985 53.31429000000003L51.62060000000008 54.346280000000036L51.176900000000046 54.34408000000002L50.30060000000003 53.360280000000046L49.544399999999996 51.10064L47.01940000000002 51.565L46.64089999999999 51.72945000000004L46.16719999999998 52.48583000000002L45.45220000000006 52.02180000000004L44.273700000000076 51.95196000000004L43.363200000000006 52.11044000000004L42.101 52.350040000000035L41.36239999999998 51.901160000000004L39.75139999999999 52.59299000000004L39.03010000000006 54.181250000000034L38.31370000000004 54.697580000000016L36.60000000000002 54.308970000000045L35.42399999999998 54.81623000000002L35.594100000000026 56.56736000000001L36.14480000000003 57.76080000000002L38.63319999999999 58.15399000000002L39.497299999999996 58.53706L39.98300000000006 59.23621000000003L40.72320000000002 59.47140000000002L40.55410000000006 59.862930000000006L40.92780000000005 60.068460000000016L41.73020000000008 60.34516000000002L43.335199999999986 59.83381000000003L44.25980000000004 62.26869000000005L42.15949999999998 63.02176000000003L40.187200000000075 61.98624000000001L40.0634 62.38396L41.03629999999998 63.15682000000004L40.87430000000006 63.54127L40.33350000000007 62.926810000000046L39.15880000000004 62.56367L38.74930000000006 62.566250000000025L38.593200000000024 63.374270000000024L38.64359999999999 64.19151L40.59140000000002 66.88642000000004L41.59699999999998 67.67787000000004L42.08120000000008 69.34914000000003L43.075199999999995 70.69825000000003L42.29970000000003 71.04027000000002L41.72500000000002 70.42135000000002L40.3116 70.70536000000004L39.107200000000034 72.25739000000004L39.03470000000004 72.53305L39.87150000000008 72.81284L40.629999999999995 73.88189L42.697200000000066 75.52186L42.64820000000009 75.96135000000004L41.830600000000004 76.29005000000001L40.162000000000035 76.63241L39.79079999999999 77.86358000000001L39.36009999999999 77.86823000000004L38.25570000000005 76.59304000000003L37.825300000000084 76.56761L37.07770000000005 76.76047L36.98350000000005 77.13560000000001L37.66470000000004 77.95780000000002L36.91390000000001 78.13217000000003L35.87710000000004 77.55588L35.75780000000009 77.22376000000003L33.93939999999998 76.63047L31.89269999999999 76.15604000000002L31.16420000000005 76.66456L30.265300000000025 76.60014000000001L28.213700000000017 75.73786000000001L30.00750000000005 77.41738000000004L30.106200000000058 78.24136000000004L29.34570000000008 79.59674000000001L28.888700000000085 80.84102000000001L29.13160000000005 81.20998000000003L28.6798 82.15820000000002L27.338300000000004 81.09594000000004L26.815000000000055 81.79304000000002L25.988500000000045 81.72648000000004L25.68590000000006 81.41174000000001L25.77120000000002 79.73223000000002L24.122900000000072 79.52861000000001L23.86430000000007 79.87222000000003L24.054100000000062 81.07711L22.58120000000008 81.92667L22.225900000000024 82.65335000000005L23.253400000000056 83.28374000000002L23.903599999999983 84.33313000000004L24.093900000000076 85.19646L23.554000000000087 85.86540000000002L21.366899999999987 85.56297L20.196900000000028 86.14706000000001L21.960199999999986 88.32581000000005L21.62779999999998 89.55038000000002L23.2269 89.67625000000004L24.155700000000024 90.37706000000003L23.432800000000043 92.36934000000002L22.288800000000037 93.68469000000005L22.38040000000001 95.44786000000005L20.273900000000026 96.41807L20.272500000000036 96.44702000000001L19.504099999999994 99.90604000000002L20.187099999999987 100.33951000000002L20.49380000000008 100.06901000000005L21.79740000000004 101.05036000000001L21.496200000000044 101.76860000000005L22.34820000000002 101.81039000000004L22.835199999999986 102.45525000000004L22.84140000000002 104.59009000000003L23.82090000000005 105.99511000000001L22.832499999999982 106.88254L22.123300000000086 108.47719000000001L19.9135 108.31815L19.26890000000003 107.35601000000003L18.541200000000003 107.42784L17.898500000000013 107.98337000000004L17.605300000000057 108.20407L16.605300000000057 106.33450000000005L15.764700000000062 106.53290000000004L15.535200000000032 104.03967L14.307300000000055 104.21000000000004L14.111499999999978 103.04412000000002L13.47160000000008 102.05638000000005L12.242700000000013 100.79044000000005L10.551199999999994 100.33707000000004L10.339200000000005 99.94695000000002L11.569400000000087 98.68342000000001L10.265600000000063 99.02654000000001L8.075900000000047 98.62592000000001L6.768199999999979 99.83877000000001L4.586900000000014 100.20883000000003L5.242900000000077 98.06959L3.8618000000000166 96.38679000000002L4.169500000000085 96.05976000000004L3.8734000000000606 95.33793000000003L5.055100000000039 94.00605000000002L6.267400000000066 93.43761L6.411500000000046 92.12967000000003L6.8554000000000315 92.06515000000002L5.940600000000018 91.09236000000004L5.95270000000005 88.85489000000001L5.9179000000000315 88.09102000000001L5.9728000000000065 86.82080000000002L3.876600000000053 86.92701L3.3729000000000724 86.23085000000003L3.35469999999998 84.94492000000002L2.6475000000000364 84.43190000000004L1.0072999999999865 84.98450000000003L0.16820000000006985 84.71001000000001L0 83.88570000000004L1.0927000000000362 81.00641000000002L1.9363000000000739 80.95752000000005L2.669899999999984 81.36865L3.8272000000000617 80.85986000000003L3.8654000000000224 80.43657000000002L3.71530000000007 78.71473000000003L2.040300000000002 78.59407000000004L0.8836000000000013 78.00995L0.7666000000000395 77.58453000000003L1.6561000000000377 76.60466000000002L2.781400000000076 77.22608000000002L4.024900000000002 77.38266000000004L6.212400000000002 76.23208L6.606200000000058 76.40520000000004L7.122600000000034 77.33245L7.656400000000076 76.94558L7.489700000000084 75.61405000000002L8.003400000000056 74.36992000000004L7.4850999999999885 72.20391000000001L7.621399999999994 71.50642000000005L7.156000000000063 70.32301000000001L7.863900000000058 70.15063000000004L8.999000000000024 69.67327L9.488000000000056 67.15973000000002L10.542300000000068 65.31539000000004L11.17330000000004 64.41824000000003L12.775100000000066 64.04535000000004L14.412500000000023 64.24298000000005L14.901000000000067 63.58124000000004L15.072099999999978 60.940200000000004L16.68119999999999 60.21303L17.350400000000036 59.94926000000004L17.259000000000015 59.14780000000002L16.519800000000032 58.19348000000002L17.493100000000027 57.51972000000001L19.047000000000025 57.444500000000005L19.43870000000004 54.89136000000002L20.62970000000007 52.52678000000003L22.78309999999999 52.31505000000004L23.85080000000005 50.96767L22.645500000000084 48.20878000000005L21.505899999999997 47.68389000000002L20.75010000000009 48.12074000000001L19.919500000000085 47.90070000000003L18.675700000000006 48.31524000000002L18.49260000000004 48.696169999999995L16.45410000000004 48.63160000000005L15.986800000000017 48.00677000000002L16.199400000000082 45.35052000000002L16.425700000000006 45.26711L17.45640000000003 44.779210000000035L17.87270000000001 43.72779000000003L19.974300000000085 43.65681000000001L20.564200000000028 42.50177000000002L19.98490000000004 41.88089000000002L18.951099999999997 39.12382000000002L18.384700000000066 38.01018000000005L17.62830000000008 38.11524000000003L17.24599999999998 37.38834000000003L18.12970000000007 36.50406000000004L18.100000000000023 35.665250000000015L18.923700000000053 34.741750000000025L18.929100000000062 33.900630000000035L20.86570000000006 35.16623000000004L21.686700000000087 36.599140000000034L20.757100000000037 38.06758000000002L22.438600000000065 37.75810000000001L23.146600000000035 38.29653000000002L24.00210000000004 38.05862000000002L26.189500000000066 39.40195L26.0711 39.75925000000001L26.749900000000025 40.655940000000044L27.898700000000076 40.39332000000002L28.496600000000058 40.93465000000003L28.843700000000013 41.017210000000034L31.77240000000006 42.51929000000001L32.634900000000016 42.37134000000003L33.12639999999999 42.32384000000002L33.976800000000026 42.453750000000014L34.536699999999996 43.13038L35.77859999999998 43.52822000000003L37.54200000000003 43.22705000000002L36.38690000000008 42.646600000000035L36.23180000000002 42.23533000000003L36.32230000000004 41.36106000000001L36.90530000000001 40.70527000000004L36.70460000000003 40.31569000000002L37.91579999999999 39.37014000000005L39.13390000000004 38.68156000000005L39.43270000000007 38.71869000000004L39.634900000000016 38.00277L40.03460000000007 37.975630000000024L41.78100000000006 37.98927000000003L41.81420000000003 36.68760000000003L41.41650000000004 34.76033000000001L41.882400000000075 33.62643000000003L44.424800000000005 30.802909999999997L45.48419999999999 31.31098000000003L45.71249999999998 32.50923L46.15680000000009 32.97389000000004L46.6232 31.774550000000033L45.99189999999999 30.172570000000007L48.823600000000056 29.30785000000003L49.927400000000034 27.172180000000026L49.646600000000035 26.868030000000033L51.76610000000005 26.109939999999995L52.194000000000074 25.38533000000001L51.9135 25.060010000000034L52.2654 24.27594000000005L52.05910000000006 23.898900000000026L52.478000000000065 23.46324000000004L52.38700000000006 21.63883000000004L52.77920000000006 21.62401L54.23022000000003 23.068470000000048L53.78470000000004 23.49594000000002L54.434169999999995 24.43329L53.84730000000002 25.275760000000048L53.54510000000005 26.545780000000036L54.00422000000003 27.386950000000013L55.16307000000006 26.789330000000007L56.177670000000035 27.494140000000016L56.16387000000009 28.611950000000036L56.475869999999986 28.992740000000026L58.73097000000007 28.817690000000027L59.72437000000002 26.97198000000003L61.21527000000003 25.629040000000032L61.151070000000004 25.381290000000035L61.73567000000003 24.46061000000003L62.12247000000002 23.519360000000006L62.62957000000006 22.823350000000005L63.30767000000003 23.14449000000002L63.284470000000056 23.53615000000002L62.67007000000001 24.967750000000024L62.95527000000004 25.25377000000003L64.36986999999999 26.882859999999994L65.21406999999999 27.059140000000014L65.75287000000003 27.697450000000003L66.18826999999999 28.211490000000026L66.56587000000002 29.011210000000005L67.17516999999998 27.95616000000001L69.11626999999999 26.99747000000002L69.28937000000008 26.58716000000004L68.40706999999998 25.084480000000042L68.91397000000006 24.356240000000014L70.33197000000007 25.390270000000044L70.90247 24.71464000000003L73.38777000000005 23.97230000000002L74.02607 24.551320000000032L74.40267000000006 25.36464000000001L73.55397000000005 29.27520000000004L74.34676999999999 29.646860000000004L74.54307000000006 30.05113L74.20147000000009 30.342520000000036L74.75717000000009 30.94774000000001L75.88207 30.445880000000045L76.75396999999998 31.297200000000032L78.02857000000006 31.119610000000023L78.66856999999993 29.998730000000023L80.80577000000005 28.61650000000003L80.79616999999996 27.742710000000045L81.53886999999997 28.095860000000016L83.66946999999993 30.63402000000002L82.67427000000009 31.288880000000006L83.16147000000012 32.83092000000005L81.55657000000008 33.45749000000001L79.12396999999999 35.16987L76.70917000000009 33.24370000000005L74.29657000000009 35.31096000000002L74.08387000000005 35.71410000000003L74.45617000000004 36.546010000000024L72.57107000000008 37.83433000000002L72.49827000000005 37.72810000000004L70.13967000000002 37.912900000000036L69.54417000000001 37.789270000000045L69.02447000000006 38.271720000000016L68.58797000000004 39.638120000000015L68.23577 41.22386z">
      <title id="t242">Troisième circonscription de la Marne</title>
      <desc id="d242">Cantons de : Ay, Dormans, Epernay I, Epernay II, Esternay, Montmirail, Montmort-Lucy, Reims IX, Verzy, Communes de : Courtagnon, Nanteuil-la-Forêt et Pourcy</desc>
    </path><path class="circo" id="id-051-04" d="M80.79616999999996 27.742710000000045L80.80577000000005 28.61650000000003L78.66856999999993 29.998730000000023L78.02857000000006 31.119610000000023L76.75396999999998 31.297200000000032L75.88207 30.445880000000045L74.75717000000009 30.94774000000001L74.20147000000009 30.342520000000036L74.54307000000006 30.05113L74.34676999999999 29.646860000000004L73.55397000000005 29.27520000000004L74.40267000000006 25.36464000000001L74.02607 24.551320000000032L73.38777000000005 23.97230000000002L70.90247 24.71464000000003L70.33197000000007 25.390270000000044L68.91397000000006 24.356240000000014L68.40706999999998 25.084480000000042L69.28937000000008 26.58716000000004L69.11626999999999 26.99747000000002L67.17516999999998 27.95616000000001L66.56587000000002 29.011210000000005L66.18826999999999 28.211490000000026L65.75287000000003 27.697450000000003L65.21406999999999 27.059140000000014L64.36986999999999 26.882859999999994L62.95527000000004 25.25377000000003L62.67007000000001 24.967750000000024L63.284470000000056 23.53615000000002L63.30767000000003 23.14449000000002L62.62957000000006 22.823350000000005L62.12247000000002 23.519360000000006L61.73567000000003 24.46061000000003L61.151070000000004 25.381290000000035L61.21527000000003 25.629040000000032L59.72437000000002 26.97198000000003L58.73097000000007 28.817690000000027L56.475869999999986 28.992740000000026L56.16387000000009 28.611950000000036L56.177670000000035 27.494140000000016L55.16307000000006 26.789330000000007L54.00422000000003 27.386950000000013L53.54510000000005 26.545780000000036L53.84730000000002 25.275760000000048L54.434169999999995 24.43329L53.78470000000004 23.49594000000002L54.90077000000008 22.456450000000018L55.02277000000004 21.747720000000015L55.47777000000008 21.305810000000008L56.33267000000001 21.53719000000001L57.21247000000005 21.506970000000024L57.79827 22.308989999999994L58.96777000000009 23.14019000000002L58.93727000000001 22.388430000000028L59.04156999999998 20.749860000000012L58.13537000000008 18.890890000000013L58.137770000000046 17.595640000000003L59.63587000000007 16.78003000000001L61.45297000000005 17.80591000000004L62.23957000000007 17.594600000000014L62.301270000000045 17.200750000000028L63.36617000000001 16.818990000000042L63.70357000000001 16.103499999999997L66.17997000000003 15.096120000000042L66.84726999999998 15.62745000000001L67.23787000000004 15.449430000000007L67.84367000000009 16.57038L68.54237 16.103110000000015L68.93447000000003 14.442859999999996L70.02677000000006 13.702730000000031L70.06477000000007 13.059889999999996L69.50547000000006 12.107580000000041L71.67286999999999 11.490800000000036L74.22967000000006 11.993359999999996L75.89377000000002 11.304190000000006L77.45107000000007 10.588860000000011L79.60316999999998 10.614430000000027L80.34007000000008 11.07832000000002L80.44587000000013 11.940680000000043L81.31166999999994 11.900390000000016L82.07457000000011 11.380220000000008L83.17386999999997 10.953779999999995L84.46577000000013 14.214110000000005L85.96466999999996 15.614160000000027L85.98317000000009 15.763250000000028L86.81187000000011 15.932790000000011L87.3997700000001 16.56791000000004L88.70417000000009 16.789540000000045L89.20127000000014 17.516819999999996L89.25986999999998 17.636160000000018L89.8825700000001 17.183809999999994L92.37297000000001 16.56256000000002L93.12766999999997 16.555660000000046L95.08837000000005 16.408020000000022L97.25877000000003 15.819800000000043L98.59937000000002 14.669790000000035L100.33287000000007 14.640980000000013L102.23887000000002 15.558250000000044L101.49787000000003 16.61885000000001L101.72607000000005 17.468090000000018L102.84007000000008 18.118690000000015L103.23527000000001 19.362390000000005L104.13226999999995 22.319560000000024L105.84277000000009 22.801090000000045L106.92827 22.01609000000002L108.23977000000002 21.712480000000028L109.14036999999996 20.09250000000003L109.90517000000011 19.597080000000005L111.10056999999995 19.939080000000047L111.09637000000009 20.34996000000001L112.29687000000001 20.451009999999997L113.2222700000001 20.36936000000003L114.50687000000005 21.682140000000004L116.6660700000001 21.284250000000043L118.37197000000003 21.635400000000004L120.27647000000013 20.649860000000047L120.96677000000011 21.601290000000006L121.78457000000014 21.473820000000046L121.55346999999995 22.484759999999994L124.89657 23.621270000000038L124.98487000000011 22.750200000000007L124.50356999999997 22.023510000000044L126.23816999999997 19.575330000000008L125.72096999999997 18.875519999999995L126.87297000000001 19.45004L128.8843700000001 18.655250000000024L130.61727000000008 19.054869999999994L129.77647000000013 20.493460000000027L132.04356999999993 21.842020000000048L132.08167000000014 22.28194000000002L133.76887 22.45508000000001L134.34207000000004 24.50967000000003L135.55577000000005 25.669510000000002L134.41827 27.020370000000014L133.10467000000006 27.34897000000001L131.34976999999992 28.800270000000012L132.30966999999998 30.82722000000001L133.24067000000002 33.00729000000001L134.11017000000004 35.80919L134.42216999999994 36.38026000000002L134.94907 37.154030000000034L135.9368700000001 39.23108000000002L136.05796999999995 41.07796000000002L136.57596999999998 44.52961000000005L136.73597000000007 45.28281000000004L136.27847000000008 46.49377000000004L133.30937000000006 50.26633000000004L133.41846999999996 50.32271000000003L137.09866999999997 48.54888L139.24556999999993 50.12115L139.27726999999993 50.37845000000004L139.43576999999993 51.67541L138.93177000000003 52.87805000000003L138.93677000000014 53.67873000000003L136.87797000000012 53.99652000000003L135.8581700000001 55.31632000000002L138.79266999999993 55.811980000000005L139.45717000000002 56.39643000000001L138.87797000000012 58.95998000000003L137.44897000000003 60.091110000000015L137.33987000000013 61.23498000000001L135.98867000000007 61.19707L133.97987 62.25445000000002L132.61487 62.362360000000024L132.34437000000014 61.99012000000005L130.82537000000013 63.12461000000002L128.2711700000001 62.70843000000002L127.01787000000002 63.15074000000004L123.94457 64.82279L122.17417000000012 65.13731000000001L120.96376999999995 64.60668000000004L117.73057000000006 66.37287000000003L117.31806999999992 66.30771000000004L117.15627000000006 64.57318000000004L115.48987 63.19317000000001L115.56907000000012 62.76083L114.3354700000001 62.50532000000004L112.76827000000014 63.28657000000004L111.89627000000007 63.31761L110.90607000000011 59.35050000000001L111.09056999999996 58.113339999999994L110.34477000000004 57.59300999999999L109.43507000000011 57.17984000000001L109.14846999999997 57.05372L108.52526999999998 54.29136L108.06056999999998 52.25272000000001L107.11126999999999 51.524050000000045L105.3943700000001 51.59545000000003L103.83307000000002 52.411580000000015L102.42656999999997 51.40145000000001L101.48837000000015 49.452L99.40417000000014 50.616810000000044L99.15216999999996 50.66542000000004L98.30637000000013 50.64753000000002L96.6923700000001 49.24367000000001L95.47096999999997 49.583709999999996L93.78737000000012 49.66097000000002L93.07976999999994 50.63029L93.21357 49.385490000000004L92.78356999999994 49.441370000000006L91.98847000000012 50.437160000000006L90.76787000000002 50.002800000000036L88.43576999999993 51.23737L87.1660700000001 52.432320000000004L86.72836999999993 52.481430000000046L86.20407000000012 51.77753000000001L84.85956999999996 52.82907L84.68227000000013 52.935580000000016L85.99877000000004 55.27863000000002L86.79487000000006 55.444290000000024L87.83796999999993 56.91906L89.80027000000007 58.31970000000001L89.72757000000013 59.75033000000002L86.89576999999997 60.95819L85.33596999999997 61.75192000000004L84.49687000000006 61.499600000000044L83.73716999999999 61.938890000000015L82.83587 61.05731000000003L81.96627000000001 61.07828000000001L81.68997000000002 62.031270000000006L82.25646999999992 62.75669000000005L79.25186999999994 66.0566L78.36937 65.85230000000001L76.20596999999998 66.38968L75.80957000000001 66.16922L74.73167000000001 66.85164000000003L74.19257000000005 65.69635L75.54737 64.88901000000004L75.54156999999998 63.816400000000044L74.50587000000007 61.35727000000003L74.85917000000006 60.10017000000005L75.60427000000004 59.60252000000003L76.53717000000006 58.06466L76.80827 57.74203L76.58546999999999 57.38429000000002L74.48197000000005 55.983960000000025L75.41987000000006 54.72491000000002L73.57847000000004 54.018280000000004L72.91817000000003 53.020830000000046L71.72257000000002 52.73384000000004L70.72946999999999 51.960770000000025L70.63127000000009 52.37297000000001L70.24737000000005 52.031390000000044L69.28897000000006 51.933809999999994L69.38127000000009 51.22078000000005L68.91717000000006 50.56211000000002L68.22367000000008 50.69147000000004L67.17997000000003 49.60549000000003L65.94326999999998 49.83519000000001L64.91117000000008 49.19972000000001L65.05567000000008 48.77746000000002L64.44177000000002 47.671310000000005L65.45887000000005 44.765720000000044L66.75227000000007 44.15038000000004L68.70827000000008 41.75862000000001L68.23577 41.22386L68.58797000000004 39.638120000000015L69.02447000000006 38.271720000000016L69.54417000000001 37.789270000000045L70.13967000000002 37.912900000000036L72.49827000000005 37.72810000000004L72.57107000000008 37.83433000000002L74.45617000000004 36.546010000000024L74.08387000000005 35.71410000000003L74.29657000000009 35.31096000000002L76.70917000000009 33.24370000000005L79.12396999999999 35.16987L81.55657000000008 33.45749000000001L83.16147000000012 32.83092000000005L82.67427000000009 31.288880000000006L83.66946999999993 30.63402000000002L81.53886999999997 28.095860000000016L80.79616999999996 27.742710000000045z">
      <title id="t243">Quatrième circonscription de la Marne</title>
      <desc id="d243">Cantons de : Beine-Nauroy, Châlons-en-Champagne I, Châlons-en-Champagne II, Châlons-en-Champagne III, Châlons-en-Champagne IV, Givry-en-Argonne, Reims VII, Sainte-Menehould, Suippes, Ville-sur-Tourbe</desc>
    </path><path class="circo" id="id-051-05" d="M38.93040000000008 108.16027000000003L38.908300000000054 107.33481L41.35080000000005 107.49349000000001L41.42930000000001 107.47242L42.616100000000074 107.79335000000003L43.461200000000076 104.43893000000003L43.71390000000008 104.42685L44.36110000000008 103.89660000000003L46.9307 104.22311000000002L47.68020000000001 101.83469000000002L48.40769999999998 100.81745000000001L49.04150000000004 101.24752000000001L49.590599999999995 100.87481000000002L49.31209999999999 100.53823L49.90330000000006 97.98466000000002L51.38960000000009 96.44767000000002L53.81110000000001 96.99281000000002L55.01026999999999 96.82462000000004L56.58726999999999 95.42623000000003L56.990170000000035 94.65362000000005L56.84947 93.44263000000001L58.02757000000008 91.65277000000003L58.73626999999999 91.94280000000003L62.388469999999984 93.5813L64.65617000000009 91.23829L66.33487000000002 90.75797L67.99986999999999 91.28131000000002L71.05447000000004 91.50001000000003L71.91057 89.65023000000002L72.35446999999999 90.29926L73.52847000000008 90.87068L76.47447 90.10164000000003L77.67497000000003 90.45062000000001L79.03677000000005 92.13148000000001L78.74327000000005 93.79220000000004L79.5972700000001 95.13494000000003L78.83046999999999 96.66311000000002L79.13737000000003 97.42661000000004L78.30966999999998 98.26811000000004L78.73276999999996 98.98125000000005L78.86146999999994 99.29245000000003L79.23847000000012 99.99775L79.40557000000001 100.83018000000004L78.01417000000004 102.57907L79.36696999999992 104.43045000000001L80.96697000000006 104.92942L84.6035700000001 108.85035000000005L87.22777000000008 110.55547000000001L87.61596999999995 110.68145000000004L90.63576999999998 111.40119000000004L93.34547000000009 112.53566000000001L94.68527000000006 111.36691000000002L95.51557000000014 111.73747000000003L96.19206999999994 113.74309L97.04827000000012 114.00224000000003L97.48967000000005 113.92895000000004L98.67216999999994 112.05447000000004L99.76677000000007 111.27689000000004L100.63596999999993 111.30578000000003L101.46556999999996 111.17699000000005L101.6461700000001 110.78778L105.76067 110.58924999999999L105.22307000000012 111.79691000000003L106.49497000000008 112.39302000000004L106.58066999999994 112.75634000000002L107.81976999999995 112.70614L108.21257000000003 113.41333000000003L108.61617000000012 112.67572000000001L109.44736999999998 112.96610000000004L112.85817000000009 112.19095000000004L118.06107000000009 113.50819000000001L118.35377000000005 113.80598000000003L119.17756999999995 113.68263000000002L117.95936999999992 110.45839000000001L118.71957000000009 108.88889L118.40026999999998 108.59036000000003L117.20037000000013 108.90880000000004L116.73307000000011 107.69392000000005L116.53877 105.50778000000003L119.4423700000001 104.87981000000002L121.76857000000007 103.0598L123.86956999999995 103.03023000000002L124.14946999999995 102.70597000000004L123.72816999999998 102.56994000000003L123.47357 101.71703000000002L123.54657000000009 99.53172L122.56716999999992 98.77027000000004L122.81407000000002 98.27712000000002L119.88907000000006 97.68139000000002L116.91997000000003 98.00062000000003L116.85667000000001 97.99213000000003L116.90337000000011 97.40280000000001L117.68887000000007 95.63398000000001L118.87547000000006 95.49639000000002L119.10496999999998 94.69558L120.94476999999995 94.38584000000003L121.22906999999998 95.13249000000002L123.21607000000006 95.39302000000004L123.91656999999998 96.05345L125.00837000000013 96.02012000000002L126.26067 94.87568000000005L127.47746999999993 94.45897000000002L128.68267000000003 93.23352L131.03517 95.04599000000002L131.4360700000001 94.28337000000005L132.32966999999996 93.45627999999999L134.49716999999998 93.38417000000004L135.26407000000006 93.80314000000004L135.45427000000007 92.99247000000003L136.7919700000001 91.94538L136.1859700000001 90.45938000000001L137.32747000000006 90.87661000000003L137.60797000000014 90.57209L136.7720700000001 89.03579000000002L137.03147 86.46480000000003L135.36157000000014 86.38076000000001L134.66316999999992 85.91774000000004L134.60077000000013 85.54853000000003L132.3227700000001 83.00905L131.93457 82.707L130.76327000000003 80.92940000000004L130.66957000000014 80.12034L129.85577 79.88913000000002L127.18357000000003 79.29854L127.14647000000002 79.20356000000004L126.90007000000003 78.85979000000003L127.43736999999999 77.74071000000004L126.79217000000006 76.68469000000005L127.99556999999993 75.32457L128.90377 74.49867L130.76446999999996 73.67744000000005L130.92527000000007 72.69491L130.17666999999994 72.31746000000004L129.72267 70.78495000000004L128.7892700000001 69.93573000000004L128.8608700000001 69.51315L129.70797000000005 67.47582L129.45587000000012 66.67878000000002L128.90287 66.28856999999999L129.09066999999993 66.00811000000004L129.45217000000014 65.20611000000002L130.48106999999993 64.34827000000001L130.82537000000013 63.12461000000002L128.2711700000001 62.70843000000002L127.01787000000002 63.15074000000004L123.94457 64.82279L122.17417000000012 65.13731000000001L120.96376999999995 64.60668000000004L117.73057000000006 66.37287000000003L117.31806999999992 66.30771000000004L117.15627000000006 64.57318000000004L115.48987 63.19317000000001L115.56907000000012 62.76083L114.3354700000001 62.50532000000004L112.76827000000014 63.28657000000004L111.89627000000007 63.31761L110.90607000000011 59.35050000000001L111.09056999999996 58.113339999999994L110.34477000000004 57.59300999999999L109.43507000000011 57.17984000000001L109.14846999999997 57.05372L108.52526999999998 54.29136L108.06056999999998 52.25272000000001L107.11126999999999 51.524050000000045L105.3943700000001 51.59545000000003L103.83307000000002 52.411580000000015L102.42656999999997 51.40145000000001L101.48837000000015 49.452L99.40417000000014 50.616810000000044L99.15216999999996 50.66542000000004L98.30637000000013 50.64753000000002L96.6923700000001 49.24367000000001L95.47096999999997 49.583709999999996L93.78737000000012 49.66097000000002L93.07976999999994 50.63029L93.21357 49.385490000000004L92.78356999999994 49.441370000000006L91.98847000000012 50.437160000000006L90.76787000000002 50.002800000000036L88.43576999999993 51.23737L87.1660700000001 52.432320000000004L86.72836999999993 52.481430000000046L86.20407000000012 51.77753000000001L84.85956999999996 52.82907L84.68227000000013 52.935580000000016L85.99877000000004 55.27863000000002L86.79487000000006 55.444290000000024L87.83796999999993 56.91906L89.80027000000007 58.31970000000001L89.72757000000013 59.75033000000002L86.89576999999997 60.95819L85.33596999999997 61.75192000000004L84.49687000000006 61.499600000000044L83.73716999999999 61.938890000000015L82.83587 61.05731000000003L81.96627000000001 61.07828000000001L81.68997000000002 62.031270000000006L82.25646999999992 62.75669000000005L79.25186999999994 66.0566L78.36937 65.85230000000001L76.20596999999998 66.38968L75.80957000000001 66.16922L74.73167000000001 66.85164000000003L74.19257000000005 65.69635L75.54737 64.88901000000004L75.54156999999998 63.816400000000044L74.50587000000007 61.35727000000003L74.85917000000006 60.10017000000005L75.60427000000004 59.60252000000003L76.53717000000006 58.06466L76.80827 57.74203L76.58546999999999 57.38429000000002L74.48197000000005 55.983960000000025L75.41987000000006 54.72491000000002L73.57847000000004 54.018280000000004L72.91817000000003 53.020830000000046L71.72257000000002 52.73384000000004L70.72946999999999 51.960770000000025L70.63127000000009 52.37297000000001L70.24737000000005 52.031390000000044L69.28897000000006 51.933809999999994L69.38127000000009 51.22078000000005L68.91717000000006 50.56211000000002L68.22367000000008 50.69147000000004L67.17997000000003 49.60549000000003L65.94326999999998 49.83519000000001L64.91117000000008 49.19972000000001L64.87047000000007 49.43229000000002L61.43916999999999 49.17392000000001L59.91807000000006 49.889250000000004L59.11877000000004 49.52252000000004L58.733370000000036 49.65708000000001L57.33517000000006 48.961820000000046L56.23147000000006 49.689490000000035L55.80427000000009 49.03792000000004L54.99777000000006 48.932650000000024L54.37711999999999 48.39524L54.06772000000001 48.66505000000001L53.32810000000006 53.26273000000003L52.451599999999985 53.31429000000003L51.62060000000008 54.346280000000036L51.176900000000046 54.34408000000002L50.30060000000003 53.360280000000046L49.544399999999996 51.10064L47.01940000000002 51.565L46.64089999999999 51.72945000000004L46.16719999999998 52.48583000000002L45.45220000000006 52.02180000000004L44.273700000000076 51.95196000000004L43.363200000000006 52.11044000000004L42.101 52.350040000000035L41.36239999999998 51.901160000000004L39.75139999999999 52.59299000000004L39.03010000000006 54.181250000000034L38.31370000000004 54.697580000000016L36.60000000000002 54.308970000000045L35.42399999999998 54.81623000000002L35.594100000000026 56.56736000000001L36.14480000000003 57.76080000000002L38.63319999999999 58.15399000000002L39.497299999999996 58.53706L39.98300000000006 59.23621000000003L40.72320000000002 59.47140000000002L40.55410000000006 59.862930000000006L40.92780000000005 60.068460000000016L41.73020000000008 60.34516000000002L43.335199999999986 59.83381000000003L44.25980000000004 62.26869000000005L42.15949999999998 63.02176000000003L40.187200000000075 61.98624000000001L40.0634 62.38396L41.03629999999998 63.15682000000004L40.87430000000006 63.54127L40.33350000000007 62.926810000000046L39.15880000000004 62.56367L38.74930000000006 62.566250000000025L38.593200000000024 63.374270000000024L38.64359999999999 64.19151L40.59140000000002 66.88642000000004L41.59699999999998 67.67787000000004L42.08120000000008 69.34914000000003L43.075199999999995 70.69825000000003L42.29970000000003 71.04027000000002L41.72500000000002 70.42135000000002L40.3116 70.70536000000004L39.107200000000034 72.25739000000004L39.03470000000004 72.53305L39.87150000000008 72.81284L40.629999999999995 73.88189L42.697200000000066 75.52186L42.64820000000009 75.96135000000004L41.830600000000004 76.29005000000001L40.162000000000035 76.63241L39.79079999999999 77.86358000000001L39.36009999999999 77.86823000000004L38.25570000000005 76.59304000000003L37.825300000000084 76.56761L37.07770000000005 76.76047L36.98350000000005 77.13560000000001L37.66470000000004 77.95780000000002L36.91390000000001 78.13217000000003L35.87710000000004 77.55588L35.75780000000009 77.22376000000003L33.93939999999998 76.63047L31.89269999999999 76.15604000000002L31.16420000000005 76.66456L30.265300000000025 76.60014000000001L28.213700000000017 75.73786000000001L30.00750000000005 77.41738000000004L30.106200000000058 78.24136000000004L29.34570000000008 79.59674000000001L28.888700000000085 80.84102000000001L29.13160000000005 81.20998000000003L28.6798 82.15820000000002L27.338300000000004 81.09594000000004L26.815000000000055 81.79304000000002L25.988500000000045 81.72648000000004L25.68590000000006 81.41174000000001L25.77120000000002 79.73223000000002L24.122900000000072 79.52861000000001L23.86430000000007 79.87222000000003L24.054100000000062 81.07711L22.58120000000008 81.92667L22.225900000000024 82.65335000000005L23.253400000000056 83.28374000000002L23.903599999999983 84.33313000000004L24.093900000000076 85.19646L23.554000000000087 85.86540000000002L21.366899999999987 85.56297L20.196900000000028 86.14706000000001L21.960199999999986 88.32581000000005L21.62779999999998 89.55038000000002L23.2269 89.67625000000004L24.155700000000024 90.37706000000003L23.432800000000043 92.36934000000002L22.288800000000037 93.68469000000005L22.38040000000001 95.44786000000005L20.273900000000026 96.41807L20.272500000000036 96.44702000000001L19.504099999999994 99.90604000000002L20.187099999999987 100.33951000000002L20.49380000000008 100.06901000000005L21.79740000000004 101.05036000000001L21.496200000000044 101.76860000000005L22.34820000000002 101.81039000000004L22.835199999999986 102.45525000000004L22.84140000000002 104.59009000000003L23.82090000000005 105.99511000000001L22.832499999999982 106.88254L22.123300000000086 108.47719000000001L19.9135 108.31815L19.715900000000033 109.54255L20.012100000000032 111.68444L20.953899999999976 112.85159000000004L22.217500000000086 112.93131L22.737500000000068 112.84800000000001L24.781900000000064 112.51910000000004L26.280900000000088 113.06700000000001L28.444500000000062 112.68727000000001L30.43010000000004 113.23491000000001L31.40160000000003 113.98337000000004L32.07580000000007 113.68161000000003L33.07950000000005 113.81856000000005L33.93040000000008 113.91714000000002L36.446199999999976 115.55831L37.178100000000086 115.23930000000001L38.680000000000064 114.29487L39.84350000000006 111.91696000000002L39.34590000000003 111.91619000000003L39.25420000000008 110.18587000000002L39.67100000000005 108.51264000000003L38.93040000000008 108.16027000000003z">
      <title id="t244">Cinquième circonscription de la Marne</title>
      <desc id="d244">Cantons de : Anglure, Avize, Ecury-sur-Coole, Fère-Champenoise, Heiltz-le-Maurupt, Marson, Sézanne, Saint-Rémy-en-Bouzemont-Saint-Genest-et-Isson, Sompuis, Thiéblemont-Farémont, Vertus, Vitry-le-François Est, Vitry-le-François Ouest</desc>
    </path></svg>