<svg xmlns="http://www.w3.org/2000/svg" version="1.1" xmlns:xlink="http://www.w3.org/1999/xlink" xmlns:svgjs="http://svgjs.dev/svgjs" viewBox="945.61263 375.83088 139.45717000000002 115.55831"><path class="circo" id="051-01" d="M 993.56923,379.79843 991.30913,377.04792 990.46753,375.83088 989.23353,377.4498 987.99583,377.7831 984.94443,379.25268 984.62273,380.97308 985.06443,380.92752 985.38493,382.21576 987.34863,383.18902 986.81043,384.46846 987.69653,384.49599 989.78353,383.72361 992.40853,383.6902 992.65193,384.06845 992.86763,384.42058 991.59713,385.54051 991.43953,387.29612 990.74523,387.894 991.01573,388.14683 991.11543,389.50884 991.80663,391.13526 991.81023,392.49781 991.44963,392.77456 993.02423,392.85795 994.16643,393.34392 995.05933,392.82199 995.41803,393.00335 996.27123,392.20463 995.90493,390.67454 996.56113,390.15317 998.62533,393.54023 998.23413,393.96719 998.47303,394.44274 997.69893,394.82095 997.61373,395.14545 997.59193,395.59636 998.33233,395.84728 999.21133,394.90169 999.83335,395.81022 999.60075,396.16235 999.91475,396.28686 1000.3162,396.1706 1000.623,396.70472 1001.0904,397.13669 1001.9453,397.36807 1002.8251,397.33785 1003.4109,398.13987 1004.5804,398.97107 1004.6542,396.58074 1003.748,394.72177 1003.7504,393.42652 1005.2485,392.61091 1007.0656,393.63679 1007.8522,393.42548 1007.9139,393.03163 1008.9788,392.64987 1009.3162,391.93438 1011.7926,390.927 1012.4599,391.45833 1012.8505,391.28031 1013.4563,392.40126 1014.155,391.93399 1014.5471,390.27374 1015.6394,389.53361 1015.6774,388.89077 1015.1181,387.93846 1017.2855,387.32168 1019.8423,387.82424 1021.5064,387.13507 1023.0637,386.41974 1021.5356,383.76993 1021.3378,383.48392 1021.853,383.01964 1020.1164,382.70619 1018.8384,381.41622 1017.9349,379.34695 1017.508,379.40349 1017.3273,379.12956 1015.7168,378.90249 1015.0206,378.42443 1013.9697,378.95655 1012.9232,377.00952 1013.1304,376.70375 1011.083,376.59442 1009.0278,376.29189 1006.6362,376.58749 1005.8927,376.58762 1004.1099,376.63909 1003.5656,376.63282 1002.7551,376.21665 1000.9358,376.103 1000.2761,377.20609 1000.0114,378.91307 999.87535,382.07508 997.94003,382.28337 997.55623,381.0946 995.72273,379.59267 993.56923,379.79843 z">
      <title id="t240">Première circonscription de la Marne</title>
      <desc id="d240">Cantons de : Bourgogne, Reims II, Reims IV, Reims VI, Reims X</desc>
    </path><path class="circo" id="051-02" d="M 971.18723,409.57921 970.71583,408.99777 969.98323,408.82777 967.51273,409.56868 964.93593,409.23573 964.65123,409.44146 964.54173,409.73151 966.47833,410.99711 967.29933,412.43002 966.36973,413.89846 968.05123,413.58898 968.75923,414.12741 969.61473,413.8895 971.80213,415.23283 971.68373,415.59013 972.36253,416.48682 973.51133,416.2242 974.10923,416.76553 974.45633,416.84809 977.38503,418.35017 978.24753,418.20222 978.73903,418.15472 979.58943,418.28463 980.14933,418.96126 981.39123,419.3591 983.15463,419.05793 981.99953,418.47748 981.84443,418.06621 981.93493,417.19194 982.51793,416.53615 982.31723,416.14657 983.52843,415.20102 984.74653,414.51244 985.04533,414.54957 985.24753,413.83365 985.64723,413.80651 987.39363,413.82015 987.42683,412.51848 987.02913,410.59121 987.49503,409.45731 990.03743,406.63379 991.09683,407.14186 991.32513,408.34011 991.76943,408.80477 992.23583,407.60543 991.60453,406.00345 994.43623,405.13873 995.54003,403.00306 995.25923,402.69891 997.37873,401.94082 997.80663,401.21621 997.52613,400.89089 997.87803,400.10682 997.67173,399.72978 998.09063,399.29412 997.99963,397.46971 998.39183,397.45489 999.84285,398.89935 1000.5134,398.28733 1000.6354,397.5786 1001.0904,397.13669 1000.623,396.70472 1000.3162,396.1706 999.60075,396.16235 999.83335,395.81022 999.21133,394.90169 998.33233,395.84728 997.59193,395.59636 997.69893,394.82095 998.47303,394.44274 998.23413,393.96719 998.62533,393.54023 996.56113,390.15317 995.90493,390.67454 996.27123,392.20463 995.41803,393.00335 995.05933,392.82199 994.16643,393.34392 993.02423,392.85795 991.44963,392.77456 991.81023,392.49781 991.80663,391.13526 991.11543,389.50884 991.01573,388.14683 990.74523,387.894 991.43953,387.29612 991.59713,385.54051 992.86763,384.42058 992.65193,384.06845 992.40853,383.6902 989.78353,383.72361 987.69653,384.49599 986.81043,384.46846 987.34863,383.18902 985.38493,382.21576 985.06443,380.92752 984.62273,380.97308 983.89323,381.46269 984.77993,382.88837 984.51363,383.70886 984.21903,384.02709 982.64393,383.33347 981.87763,382.45498 980.12063,382.21629 979.27943,382.46816 978.15263,382.97188 977.94803,382.60858 976.27203,383.67964 975.30783,383.60826 974.84983,383.68251 974.92933,384.80922 974.43413,385.25249 972.40713,385.44607 970.76743,386.15837 970.28513,386.36875 968.73593,386.66141 968.19563,387.39184 966.90283,387.80781 966.47443,389.46504 966.11613,389.71181 966.53443,390.4252 967.61243,391.05042 967.87173,391.61263 967.24973,392.67345 968.39353,393.8718 967.55393,394.72906 968.82903,397.60807 969.23563,397.69348 969.40393,398.0847 968.46773,399.9034 967.23293,400.10486 967.51533,401.22571 968.17353,401.7424 969.37423,401.96554 969.82193,403.07357 971.14283,402.04646 971.75303,402.8238 971.14823,403.96225 971.90903,405.47033 973.55223,406.15987 974.81213,405.68644 975.70503,405.81062 975.49493,408.30294 974.72033,408.51649 972.80353,409.79584 971.63763,410.29469 971.18723,409.57921 z">
      <title id="t241">Deuxième circonscription de la Marne</title>
      <desc id="d241">Cantons de : Châtillon-sur-Marne (moins les communes de Courtagnon, Nanteuil-la-Forêt et Pourcy), Fismes, Reims I, Reims III, Reims V, Reims VIII, Ville-en-Tardenois</desc>
    </path><path class="circo" id="051-03" d="M 1013.8484,417.05474 1014.3209,417.5895 1012.3649,419.98126 1011.0715,420.5966 1010.0544,423.50219 1010.6683,424.60834 1010.5238,425.0306 1010.4831,425.26317 1007.0518,425.0048 1005.5307,425.72013 1004.7314,425.3534 1004.346,425.48796 1002.9478,424.7927 1001.8441,425.52037 1001.4169,424.8688 1000.6104,424.76353 999.98975,424.22612 999.68035,424.49593 998.94073,429.09361 998.06423,429.14517 997.23323,430.17716 996.78953,430.17496 995.91323,429.19116 995.15703,426.93152 992.63203,427.39588 992.25353,427.56033 991.77983,428.31671 991.06483,427.85268 989.88633,427.78284 988.97583,427.94132 987.71363,428.18092 986.97503,427.73204 985.36403,428.42387 984.64273,430.01213 983.92633,430.52846 982.21263,430.13985 981.03663,430.64711 981.20673,432.39824 981.75743,433.59168 984.24583,433.98487 985.10993,434.36794 985.59563,435.06709 986.33583,435.30228 986.16673,435.69381 986.54043,435.89934 987.34283,436.17604 988.94783,435.66469 989.87243,438.09957 987.77213,438.85264 985.79983,437.81712 985.67603,438.21484 986.64893,438.9877 986.48693,439.37215 985.94613,438.75769 984.77143,438.39455 984.36193,438.39713 984.20583,439.20515 984.25623,440.02239 986.20403,442.7173 987.20963,443.50875 987.69383,445.18002 988.68783,446.52913 987.91233,446.87115 987.33763,446.25223 985.92423,446.53624 984.71983,448.08827 984.64733,448.36393 985.48413,448.64372 986.24263,449.71277 988.30983,451.35274 988.26083,451.79223 987.44323,452.12093 985.77463,452.46329 985.40343,453.69446 984.97273,453.69911 983.86833,452.42392 983.43793,452.39849 982.69033,452.59135 982.59613,452.96648 983.27733,453.78868 982.52653,453.96305 981.48973,453.38676 981.37043,453.05464 979.55203,452.46135 977.50533,451.98692 976.77683,452.49544 975.87793,452.43102 973.82633,451.56874 975.62013,453.24826 975.71883,454.07224 974.95833,455.42762 974.50133,456.6719 974.74423,457.04086 974.29243,457.98908 972.95093,456.92682 972.42763,457.62392 971.60113,457.55736 971.29853,457.24262 971.38383,455.56311 969.73553,455.35949 969.47693,455.7031 969.66673,456.90799 968.19383,457.75755 967.83853,458.48423 968.86603,459.11462 969.51623,460.16401 969.70653,461.02734 969.16663,461.69628 966.97953,461.39385 965.80953,461.97794 967.57283,464.15669 967.24043,465.38126 968.83953,465.50713 969.76833,466.20794 969.04543,468.20022 967.90143,469.51557 967.99303,471.27874 965.88653,472.24895 965.88513,472.2779 965.11673,475.73692 965.79973,476.17039 966.10643,475.89989 967.41003,476.88124 967.10883,477.59948 967.96083,477.64127 968.44783,478.28613 968.45403,480.42097 969.43353,481.82599 968.44513,482.71342 967.73593,484.30807 965.52613,484.14903 964.88153,483.18689 964.15383,483.25872 963.51113,483.81425 963.21793,484.03495 962.21793,482.16538 961.37733,482.36378 961.14783,479.87055 959.91993,480.04088 959.72413,478.875 959.08423,477.88726 957.85533,476.62132 956.16383,476.16795 955.95183,475.77783 957.18203,474.5143 955.87823,474.85742 953.68853,474.4568 952.38083,475.66965 950.19953,476.03971 950.85553,473.90047 949.47443,472.21767 949.78213,471.89064 949.48603,471.16881 950.66773,469.83693 951.88003,469.26849 952.02413,467.96055 952.46803,467.89603 951.55323,466.92324 951.56533,464.68577 951.53053,463.9219 951.58543,462.65168 949.48923,462.75789 948.98553,462.06173 948.96733,460.7758 948.26013,460.26278 946.61993,460.81538 945.78083,460.54089 945.61263,459.71658 946.70533,456.83729 947.54893,456.7884 948.28253,457.19953 949.43983,456.69074 949.47803,456.26745 949.32793,454.54561 947.65293,454.42495 946.49623,453.84083 946.37923,453.41541 947.26873,452.43554 948.39403,453.05696 949.63753,453.21354 951.82503,452.06296 952.21883,452.23608 952.73523,453.16333 953.26903,452.77646 953.10233,451.44493 953.61603,450.2008 953.09773,448.03479 953.23403,447.3373 952.76863,446.15389 953.47653,445.98151 954.61163,445.50415 955.10063,442.99061 956.15493,441.14627 956.78593,440.24912 958.38773,439.87623 960.02513,440.07386 960.51363,439.41212 960.68473,436.77108 962.29383,436.04391 962.96303,435.78014 962.87163,434.97868 962.13243,434.02436 963.10573,433.3506 964.65963,433.27538 965.05133,430.72224 966.24233,428.35766 968.39573,428.14593 969.46343,426.79855 968.25813,424.03966 967.11853,423.51477 966.36273,423.95162 965.53213,423.73158 964.28833,424.14612 964.10523,424.52705 962.06673,424.46248 961.59943,423.83765 961.81203,421.1814 962.03833,421.09799 963.06903,420.61009 963.48533,419.55867 965.58693,419.48769 966.17683,418.33265 965.59753,417.71177 964.56373,414.9547 963.99733,413.84106 963.24093,413.94612 962.85863,413.21922 963.74233,412.33494 963.71263,411.49613 964.53633,410.57263 964.54173,409.73151 966.47833,410.99711 967.29933,412.43002 966.36973,413.89846 968.05123,413.58898 968.75923,414.12741 969.61473,413.8895 971.80213,415.23283 971.68373,415.59013 972.36253,416.48682 973.51133,416.2242 974.10923,416.76553 974.45633,416.84809 977.38503,418.35017 978.24753,418.20222 978.73903,418.15472 979.58943,418.28463 980.14933,418.96126 981.39123,419.3591 983.15463,419.05793 981.99953,418.47748 981.84443,418.06621 981.93493,417.19194 982.51793,416.53615 982.31723,416.14657 983.52843,415.20102 984.74653,414.51244 985.04533,414.54957 985.24753,413.83365 985.64723,413.80651 987.39363,413.82015 987.42683,412.51848 987.02913,410.59121 987.49503,409.45731 990.03743,406.63379 991.09683,407.14186 991.32513,408.34011 991.76943,408.80477 992.23583,407.60543 991.60453,406.00345 994.43623,405.13873 995.54003,403.00306 995.25923,402.69891 997.37873,401.94082 997.80663,401.21621 997.52613,400.89089 997.87803,400.10682 997.67173,399.72978 998.09063,399.29412 997.99963,397.46971 998.39183,397.45489 999.84285,398.89935 999.39733,399.32682 1000.0468,400.26417 999.45993,401.10664 999.15773,402.37666 999.61685,403.21783 1000.7757,402.62021 1001.7903,403.32502 1001.7765,404.44283 1002.0885,404.82362 1004.3436,404.64857 1005.337,402.80286 1006.8279,401.45992 1006.7637,401.21217 1007.3483,400.29149 1007.7351,399.35024 1008.2422,398.65423 1008.9203,398.97537 1008.8971,399.36703 1008.2827,400.79863 1008.5679,401.08465 1009.9825,402.71374 1010.8267,402.89002 1011.3655,403.52833 1011.8009,404.04237 1012.1785,404.84209 1012.7878,403.78704 1014.7289,402.82835 1014.902,402.41804 1014.0197,400.91536 1014.5266,400.18712 1015.9446,401.22115 1016.5151,400.54552 1019.0004,399.80318 1019.6387,400.3822 1020.0153,401.19552 1019.1666,405.10608 1019.9594,405.47774 1020.1557,405.88201 1019.8141,406.1734 1020.3698,406.77862 1021.4947,406.27676 1022.3666,407.12808 1023.6412,406.95049 1024.2812,405.82961 1026.4184,404.44738 1026.4088,403.57359 1027.1515,403.92674 1029.2821,406.4649 1028.2869,407.11976 1028.7741,408.6618 1027.1692,409.28837 1024.7366,411.00075 1022.3218,409.07458 1019.9092,411.14184 1019.6965,411.54498 1020.0688,412.37689 1018.1837,413.66521 1018.1109,413.55898 1015.7523,413.74378 1015.1568,413.62015 1014.6371,414.1026 1014.2006,415.469 1013.8484,417.05474 z">
      <title id="t242">Troisième circonscription de la Marne</title>
      <desc id="d242">Cantons de : Ay, Dormans, Epernay I, Epernay II, Esternay, Montmirail, Montmort-Lucy, Reims IX, Verzy, Communes de : Courtagnon, Nanteuil-la-Forêt et Pourcy</desc>
    </path><path class="circo" id="051-04" d="M 1026.4088,403.57359 1026.4184,404.44738 1024.2812,405.82961 1023.6412,406.95049 1022.3666,407.12808 1021.4947,406.27676 1020.3698,406.77862 1019.8141,406.1734 1020.1557,405.88201 1019.9594,405.47774 1019.1666,405.10608 1020.0153,401.19552 1019.6387,400.3822 1019.0004,399.80318 1016.5151,400.54552 1015.9446,401.22115 1014.5266,400.18712 1014.0197,400.91536 1014.902,402.41804 1014.7289,402.82835 1012.7878,403.78704 1012.1785,404.84209 1011.8009,404.04237 1011.3655,403.52833 1010.8267,402.89002 1009.9825,402.71374 1008.5679,401.08465 1008.2827,400.79863 1008.8971,399.36703 1008.9203,398.97537 1008.2422,398.65423 1007.7351,399.35024 1007.3483,400.29149 1006.7637,401.21217 1006.8279,401.45992 1005.337,402.80286 1004.3436,404.64857 1002.0885,404.82362 1001.7765,404.44283 1001.7903,403.32502 1000.7757,402.62021 999.61685,403.21783 999.15773,402.37666 999.45993,401.10664 1000.0468,400.26417 999.39733,399.32682 1000.5134,398.28733 1000.6354,397.5786 1001.0904,397.13669 1001.9453,397.36807 1002.8251,397.33785 1003.4109,398.13987 1004.5804,398.97107 1004.5499,398.21931 1004.6542,396.58074 1003.748,394.72177 1003.7504,393.42652 1005.2485,392.61091 1007.0656,393.63679 1007.8522,393.42548 1007.9139,393.03163 1008.9788,392.64987 1009.3162,391.93438 1011.7926,390.927 1012.4599,391.45833 1012.8505,391.28031 1013.4563,392.40126 1014.155,391.93399 1014.5471,390.27374 1015.6394,389.53361 1015.6774,388.89077 1015.1181,387.93846 1017.2855,387.32168 1019.8423,387.82424 1021.5064,387.13507 1023.0637,386.41974 1025.2158,386.44531 1025.9527,386.9092 1026.0585,387.77156 1026.9243,387.73127 1027.6872,387.2111 1028.7865,386.78466 1030.0784,390.04499 1031.5773,391.44504 1031.5958,391.59413 1032.4245,391.76367 1033.0124,392.39879 1034.3168,392.62042 1034.8139,393.3477 1034.8725,393.46704 1035.4952,393.01469 1037.9856,392.39344 1038.7403,392.38654 1040.701,392.2389 1042.8714,391.65068 1044.212,390.50067 1045.9455,390.47186 1047.8515,391.38913 1047.1105,392.44973 1047.3387,393.29897 1048.4527,393.94957 1048.8479,395.19327 1049.7449,398.15044 1051.4554,398.63197 1052.5409,397.84697 1053.8524,397.54336 1054.753,395.92338 1055.5178,395.42796 1056.7132,395.76996 1056.709,396.18084 1057.9095,396.28189 1058.8349,396.20024 1060.1195,397.51302 1062.2787,397.11513 1063.9846,397.46628 1065.8891,396.48074 1066.5794,397.43217 1067.3972,397.3047 1067.1661,398.31564 1070.5092,399.45215 1070.5975,398.58108 1070.1162,397.85439 1071.8508,395.40621 1071.3336,394.7064 1072.4856,395.28092 1074.497,394.48613 1076.2299,394.88575 1075.3891,396.32434 1077.6562,397.6729 1077.6943,398.11282 1079.3815,398.28596 1079.9547,400.34055 1081.1684,401.50039 1080.0309,402.85125 1078.7173,403.17985 1076.9624,404.63115 1077.9223,406.6581 1078.8533,408.83817 1079.7228,411.64007 1080.0348,412.21114 1080.5617,412.98491 1081.5495,415.06196 1081.6706,416.90884 1082.1886,420.36049 1082.3486,421.11369 1081.8911,422.32465 1078.922,426.09721 1079.0311,426.15359 1082.7113,424.37976 1084.8582,425.95203 1084.8899,426.20933 1085.0484,427.50629 1084.5444,428.70893 1084.5494,429.50961 1082.4906,429.8274 1081.4708,431.1472 1084.4053,431.64286 1085.0698,432.22731 1084.4906,434.79086 1083.0616,435.92199 1082.9525,437.06586 1081.6013,437.02795 1079.5925,438.08533 1078.2275,438.19324 1077.957,437.821 1076.438,438.95549 1073.8838,438.53931 1072.6305,438.98162 1069.5572,440.65367 1067.7868,440.96819 1066.5764,440.43756 1063.3432,442.20375 1062.9307,442.13859 1062.7689,440.40406 1061.1025,439.02405 1061.1817,438.59171 1059.9481,438.3362 1058.3809,439.11745 1057.5089,439.14849 1056.5187,435.18138 1056.7032,433.94422 1055.9574,433.42389 1055.0477,433.01072 1054.7611,432.8846 1054.1379,430.12224 1053.6732,428.0836 1052.7239,427.35493 1051.007,427.42633 1049.4457,428.24246 1048.0392,427.23233 1047.101,425.28288 1045.0168,426.44769 1044.7648,426.4963 1043.919,426.47841 1042.305,425.07455 1041.0836,425.41459 1039.4,425.49185 1038.6924,426.46117 1038.8262,425.21637 1038.3962,425.27225 1037.6011,426.26804 1036.3805,425.83368 1034.0484,427.06825 1032.7787,428.2632 1032.341,428.31231 1031.8167,427.60841 1030.4722,428.65995 1030.2949,428.76646 1031.6114,431.10951 1032.4075,431.27517 1033.4506,432.74994 1035.4129,434.15058 1035.3402,435.58121 1032.5084,436.78907 1030.9486,437.5828 1030.1095,437.33048 1029.3498,437.76977 1028.4485,436.88819 1027.5789,436.90916 1027.3026,437.86215 1027.8691,438.58757 1024.8645,441.88748 1023.982,441.68318 1021.8186,442.22056 1021.4222,442.0001 1020.3443,442.68252 1019.8052,441.52723 1021.16,440.71989 1021.1542,439.64728 1020.1185,437.18815 1020.4718,435.93105 1021.2169,435.4334 1022.1498,433.89554 1022.4209,433.57291 1022.1981,433.21517 1020.0946,431.81484 1021.0325,430.55579 1019.1911,429.84916 1018.5308,428.85171 1017.3352,428.56472 1016.3421,427.79165 1016.2439,428.20385 1015.86,427.86227 1014.9016,427.76469 1014.9939,427.05166 1014.5298,426.39299 1013.8363,426.52235 1012.7926,425.43637 1011.5559,425.66607 1010.5238,425.0306 1010.6683,424.60834 1010.0544,423.50219 1011.0715,420.5966 1012.3649,419.98126 1014.3209,417.5895 1013.8484,417.05474 1014.2006,415.469 1014.6371,414.1026 1015.1568,413.62015 1015.7523,413.74378 1018.1109,413.55898 1018.1837,413.66521 1020.0688,412.37689 1019.6965,411.54498 1019.9092,411.14184 1022.3218,409.07458 1024.7366,411.00075 1027.1692,409.28837 1028.7741,408.6618 1028.2869,407.11976 1029.2821,406.4649 1027.1515,403.92674 1026.4088,403.57359 z">
      <title id="t243">Quatrième circonscription de la Marne</title>
      <desc id="d243">Cantons de : Beine-Nauroy, Châlons-en-Champagne I, Châlons-en-Champagne II, Châlons-en-Champagne III, Châlons-en-Champagne IV, Givry-en-Argonne, Reims VII, Sainte-Menehould, Suippes, Ville-sur-Tourbe</desc>
    </path><path class="circo" id="051-05" d="M 984.54303,483.99115 984.52093,483.16569 986.96343,483.32437 987.04193,483.3033 988.22873,483.62423 989.07383,480.26981 989.32653,480.25773 989.97373,479.72748 992.54333,480.05399 993.29283,477.66557 994.02033,476.64833 994.65413,477.0784 995.20323,476.70569 994.92473,476.36911 995.51593,473.81554 997.00223,472.27855 999.42373,472.82369 1000.6229,472.6555 1002.1999,471.25711 1002.6028,470.4845 1002.4621,469.27351 1003.6402,467.48365 1004.3489,467.77368 1008.0011,469.41218 1010.2688,467.06917 1011.9475,466.58885 1013.6125,467.11219 1016.6671,467.33089 1017.5232,465.48111 1017.9671,466.13014 1019.1411,466.70156 1022.0871,465.93252 1023.2876,466.2815 1024.6494,467.96236 1024.3559,469.62308 1025.2099,470.96582 1024.4431,472.49399 1024.75,473.25749 1023.9223,474.09899 1024.3454,474.81213 1024.4741,475.12333 1024.8511,475.82863 1025.0182,476.66106 1023.6268,478.40995 1024.9796,480.26133 1026.5796,480.7603 1030.2162,484.68123 1032.8404,486.38635 1033.2286,486.51233 1036.2484,487.23207 1038.9581,488.36654 1040.2979,487.19779 1041.1282,487.56835 1041.8047,489.57397 1042.6609,489.83312 1043.1023,489.75983 1044.2848,487.88535 1045.3794,487.10777 1046.2486,487.13666 1047.0782,487.00787 1047.2588,486.61866 1051.3733,486.42013 1050.8357,487.62779 1052.1076,488.2239 1052.1933,488.58722 1053.4324,488.53702 1053.8252,489.24421 1054.2288,488.5066 1055.06,488.79698 1058.4708,488.02183 1063.6737,489.33907 1063.9664,489.63686 1064.7902,489.51351 1063.572,486.28927 1064.3322,484.71977 1064.0129,484.42124 1062.813,484.73968 1062.3457,483.5248 1062.1514,481.33866 1065.055,480.71069 1067.3812,478.89068 1069.4822,478.86111 1069.7621,478.53685 1069.3408,478.40082 1069.0862,477.54791 1069.1592,475.3626 1068.1798,474.60115 1068.4267,474.108 1065.5017,473.51227 1062.5326,473.8315 1062.4693,473.82301 1062.516,473.23368 1063.3015,471.46486 1064.4881,471.32727 1064.7176,470.52646 1066.5574,470.21672 1066.8417,470.96337 1068.8287,471.2239 1069.5292,471.88433 1070.621,471.851 1071.8733,470.70656 1073.0901,470.28985 1074.2953,469.0644 1076.6478,470.87687 1077.0487,470.11425 1077.9423,469.28716 1080.1098,469.21505 1080.8767,469.63402 1081.0669,468.82335 1082.4046,467.77626 1081.7986,466.29026 1082.9401,466.70749 1083.2206,466.40297 1082.3847,464.86667 1082.6441,462.29568 1080.9742,462.21164 1080.2758,461.74862 1080.2134,461.37941 1077.9354,458.83993 1077.5472,458.53788 1076.3759,456.76028 1076.2822,455.95122 1075.4684,455.72001 1072.7962,455.12942 1072.7591,455.03444 1072.5127,454.69067 1073.05,453.57159 1072.4048,452.51557 1073.6082,451.15545 1074.5164,450.32955 1076.3771,449.50832 1076.5379,448.52579 1075.7893,448.14834 1075.3353,446.61583 1074.4019,445.76661 1074.4735,445.34403 1075.3206,443.3067 1075.0685,442.50966 1074.5155,442.11945 1074.7033,441.83899 1075.0648,441.03699 1076.0937,440.17915 1076.438,438.95549 1073.8838,438.53931 1072.6305,438.98162 1069.5572,440.65367 1067.7868,440.96819 1066.5764,440.43756 1063.3432,442.20375 1062.9307,442.13859 1062.7689,440.40406 1061.1025,439.02405 1061.1817,438.59171 1059.9481,438.3362 1058.3809,439.11745 1057.5089,439.14849 1056.5187,435.18138 1056.7032,433.94422 1055.9574,433.42389 1055.0477,433.01072 1054.7611,432.8846 1054.1379,430.12224 1053.6732,428.0836 1052.7239,427.35493 1051.007,427.42633 1049.4457,428.24246 1048.0392,427.23233 1047.101,425.28288 1045.0168,426.44769 1044.7648,426.4963 1043.919,426.47841 1042.305,425.07455 1041.0836,425.41459 1039.4,425.49185 1038.6924,426.46117 1038.8262,425.21637 1038.3962,425.27225 1037.6011,426.26804 1036.3805,425.83368 1034.0484,427.06825 1032.7787,428.2632 1032.341,428.31231 1031.8167,427.60841 1030.4722,428.65995 1030.2949,428.76646 1031.6114,431.10951 1032.4075,431.27517 1033.4506,432.74994 1035.4129,434.15058 1035.3402,435.58121 1032.5084,436.78907 1030.9486,437.5828 1030.1095,437.33048 1029.3498,437.76977 1028.4485,436.88819 1027.5789,436.90916 1027.3026,437.86215 1027.8691,438.58757 1024.8645,441.88748 1023.982,441.68318 1021.8186,442.22056 1021.4222,442.0001 1020.3443,442.68252 1019.8052,441.52723 1021.16,440.71989 1021.1542,439.64728 1020.1185,437.18815 1020.4718,435.93105 1021.2169,435.4334 1022.1498,433.89554 1022.4209,433.57291 1022.1981,433.21517 1020.0946,431.81484 1021.0325,430.55579 1019.1911,429.84916 1018.5308,428.85171 1017.3352,428.56472 1016.3421,427.79165 1016.2439,428.20385 1015.86,427.86227 1014.9016,427.76469 1014.9939,427.05166 1014.5298,426.39299 1013.8363,426.52235 1012.7926,425.43637 1011.5559,425.66607 1010.5238,425.0306 1010.4831,425.26317 1007.0518,425.0048 1005.5307,425.72013 1004.7314,425.3534 1004.346,425.48796 1002.9478,424.7927 1001.8441,425.52037 1001.4169,424.8688 1000.6104,424.76353 999.98975,424.22612 999.68035,424.49593 998.94073,429.09361 998.06423,429.14517 997.23323,430.17716 996.78953,430.17496 995.91323,429.19116 995.15703,426.93152 992.63203,427.39588 992.25353,427.56033 991.77983,428.31671 991.06483,427.85268 989.88633,427.78284 988.97583,427.94132 987.71363,428.18092 986.97503,427.73204 985.36403,428.42387 984.64273,430.01213 983.92633,430.52846 982.21263,430.13985 981.03663,430.64711 981.20673,432.39824 981.75743,433.59168 984.24583,433.98487 985.10993,434.36794 985.59563,435.06709 986.33583,435.30228 986.16673,435.69381 986.54043,435.89934 987.34283,436.17604 988.94783,435.66469 989.87243,438.09957 987.77213,438.85264 985.79983,437.81712 985.67603,438.21484 986.64893,438.9877 986.48693,439.37215 985.94613,438.75769 984.77143,438.39455 984.36193,438.39713 984.20583,439.20515 984.25623,440.02239 986.20403,442.7173 987.20963,443.50875 987.69383,445.18002 988.68783,446.52913 987.91233,446.87115 987.33763,446.25223 985.92423,446.53624 984.71983,448.08827 984.64733,448.36393 985.48413,448.64372 986.24263,449.71277 988.30983,451.35274 988.26083,451.79223 987.44323,452.12093 985.77463,452.46329 985.40343,453.69446 984.97273,453.69911 983.86833,452.42392 983.43793,452.39849 982.69033,452.59135 982.59613,452.96648 983.27733,453.78868 982.52653,453.96305 981.48973,453.38676 981.37043,453.05464 979.55203,452.46135 977.50533,451.98692 976.77683,452.49544 975.87793,452.43102 973.82633,451.56874 975.62013,453.24826 975.71883,454.07224 974.95833,455.42762 974.50133,456.6719 974.74423,457.04086 974.29243,457.98908 972.95093,456.92682 972.42763,457.62392 971.60113,457.55736 971.29853,457.24262 971.38383,455.56311 969.73553,455.35949 969.47693,455.7031 969.66673,456.90799 968.19383,457.75755 967.83853,458.48423 968.86603,459.11462 969.51623,460.16401 969.70653,461.02734 969.16663,461.69628 966.97953,461.39385 965.80953,461.97794 967.57283,464.15669 967.24043,465.38126 968.83953,465.50713 969.76833,466.20794 969.04543,468.20022 967.90143,469.51557 967.99303,471.27874 965.88653,472.24895 965.88513,472.2779 965.11673,475.73692 965.79973,476.17039 966.10643,475.89989 967.41003,476.88124 967.10883,477.59948 967.96083,477.64127 968.44783,478.28613 968.45403,480.42097 969.43353,481.82599 968.44513,482.71342 967.73593,484.30807 965.52613,484.14903 965.32853,485.37343 965.62473,487.51532 966.56653,488.68247 967.83013,488.76219 968.35013,488.67888 970.39453,488.34998 971.89353,488.89788 974.05713,488.51815 976.04273,489.06579 977.01423,489.81425 977.68843,489.51249 978.69213,489.64944 979.54303,489.74802 982.05883,491.38919 982.79073,491.07018 984.29263,490.12575 985.45613,487.74784 984.95853,487.74707 984.86683,486.01675 985.28363,484.34352 984.54303,483.99115 z">
      <title id="t244">Cinquième circonscription de la Marne</title>
      <desc id="d244">Cantons de : Anglure, Avize, Ecury-sur-Coole, Fère-Champenoise, Heiltz-le-Maurupt, Marson, Sézanne, Saint-Rémy-en-Bouzemont-Saint-Genest-et-Isson, Sompuis, Thiéblemont-Farémont, Vertus, Vitry-le-François Est, Vitry-le-François Ouest</desc>
    </path></svg>