<svg xmlns="http://www.w3.org/2000/svg" version="1.1" xmlns:xlink="http://www.w3.org/1999/xlink" xmlns:svgjs="http://svgjs.dev/svgjs" viewBox="1050.14 469.0644 107.42139999999995 141.67262000000005"><path class="circo" id="052-01" d="M 1076.7518,574.0153 1075.694,573.46118 1075.7518,571.50701 1075.0213,570.57617 1073.8668,567.76625 1072.9065,566.98836 1071.1999,567.37915 1069.6866,570.40832 1067.752,568.9932 1067.3653,568.297 1067.6526,567.53656 1068.7579,566.95031 1070.4029,564.58283 1069.6303,563.09652 1068.6878,562.18886 1066.5338,561.92965 1065.7914,562.25995 1064.9995,561.92064 1063.8213,561.57611 1063.6454,560.78809 1064.4766,559.25254 1065.5665,558.58935 1064.3099,557.40236 1063.9606,556.16396 1060.5699,556.616 1058.0549,556.03348 1056.72,554.59187 1057.1164,554.39679 1057.0432,553.08982 1058.3279,551.34763 1057.2187,550.66533 1055.6081,548.01706 1053.0226,547.35515 1052.7507,547.08937 1055.5844,546.23586 1056.7803,545.90196 1056.9487,545.08545 1056.6901,544.73851 1058.432,543.57231 1059.069,541.97172 1059.8354,542.4539 1061.6322,542.52494 1063.7451,543.26806 1066.1332,543.99416 1067.7828,543.79062 1067.6946,542.21874 1068.5283,542.53386 1071.4716,541.61315 1072.6301,541.47818 1073.9224,543.00377 1076.8064,541.07781 1078.2571,543.27863 1078.3763,544.60385 1078.893,545.32242 1081.1307,544.31098 1082.738,544.53054 1083.7673,543.7686 1084.3144,541.67517 1083.3909,539.75315 1085.073,539.0202 1084.5292,537.44654 1083.9694,536.88957 1084.7619,536.75513 1084.2291,536.16905 1084.031,534.57035 1084.7294,534.19251 1085.7657,534.99393 1088.7624,534.96347 1092.041,536.1558 1092.3163,535.44043 1093.3513,535.1943 1094.3092,533.82727 1095.53,533.40858 1096.3299,533.69914 1097.5808,533.52142 1098.0192,532.85535 1098.4484,532.89016 1098.6795,533.75855 1097.8713,536.33829 1099.8364,537.92905 1102.7048,538.75574 1103.4121,539.81594 1103.8233,539.9493 1104.1002,539.61788 1104.3511,540.56064 1105.5366,538.24883 1106.1898,537.68391 1107.2822,538.34311 1106.8657,539.1016 1106.067,539.48324 1105.9416,540.77854 1106.9175,539.84154 1111.1925,538.54453 1111.7141,539.2309 1112.5618,539.25179 1115.3526,538.08028 1117.0353,538.36222 1118.1352,537.65511 1118.4105,536.40176 1119.5652,535.78697 1119.2492,535.24134 1116.8613,533.82395 1116.7633,533.43408 1117.8794,532.86351 1118.3419,531.62658 1118.141,530.33674 1118.8954,529.96618 1120.082,529.76641 1120.4869,529.81693 1122.9968,531.01402 1125.7147,530.86276 1125.9844,530.55447 1126.9195,528.48385 1128.4108,526.76751 1129.4189,525.13523 1129.7478,524.81723 1131.3415,523.31075 1131.8779,522.29372 1133.8522,519.98783 1137.4357,522.96277 1137.066,524.72748 1136.3385,526.30383 1139.3512,528.006 1140.3243,527.3464 1142.2838,529.16439 1143.4454,531.31527 1143.9168,531.92181 1143.9957,533.02086 1141.3425,533.02468 1139.6767,534.42656 1139.8574,534.83332 1140.2308,535.9018 1140.0209,537.03165 1140.1173,538.00192 1139.3137,539.06887 1139.382,539.8246 1138.1755,540.78249 1137.6694,541.83166 1138.9921,543.24629 1137.0603,543.80564 1136.1952,544.80227 1135.679,546.44632 1137.2106,547.98462 1137.6303,548.00218 1137.5674,546.74342 1137.9038,546.48793 1140.6909,547.56214 1141.0457,547.30273 1141.3867,548.59051 1142.4986,549.33077 1143.171,550.46238 1143.1154,550.55215 1143.1977,551.41133 1144.8305,550.93452 1146.8213,553.1563 1147.2117,553.34735 1147.8919,552.88834 1147.8578,554.3166 1148.6901,555.79245 1148.7078,556.65336 1149.419,557.5708 1149.3176,558.34384 1148.034,559.95655 1148.8773,563.17014 1150.3101,563.89645 1151.1615,562.63427 1152.7327,562.29168 1153.2534,561.21645 1153.7589,560.25038 1154.0001,561.02284 1154.4151,560.98869 1154.4727,561.47671 1154.106,561.68973 1154.4566,563.34388 1154.92,564.05101 1155.3432,564.03553 1157.0642,566.55149 1157.5614,568.59489 1157.2145,569.52082 1156.9336,569.82334 1155.7285,569.7176 1154.2252,569.10352 1153.9589,569.41925 1153.6954,570.22386 1151.7204,573.76999 1151.9598,575.00051 1152.2866,575.9444 1150.3404,576.53061 1149.5692,576.60128 1149.7673,575.46759 1147.3127,575.37385 1146.5635,575.0076 1145.9017,575.98253 1145.1195,576.33618 1145.4836,578.75298 1145.2769,579.53479 1144.7814,580.12397 1144.0335,580.28955 1143.7427,580.186 1142.522,579.79154 1141.2146,579.5653 1140.1361,580.90207 1139.374,585.15831 1139.853,585.6348 1139.6594,586.32069 1141.647,586.37052 1141.982,586.60524 1142.0256,587.38903 1141.9011,588.70449 1142.1628,589.48423 1140.4821,590.88029 1140.4092,591.32274 1141.0131,591.98302 1140.1038,592.29677 1140.0195,593.61264 1140.7857,594.66375 1140.8355,596.39891 1140.4086,597.08595 1138.861,597.32547 1138.6124,596.99744 1137.9384,597.11676 1137.3891,598.04764 1135.3743,598.10053 1134.17,598.53001 1133.3798,598.29457 1132.591,598.74372 1131.6093,596.35433 1131.4726,595.05215 1130.3992,594.30502 1130.0898,594.26422 1126.9621,598.44555 1125.2369,598.41753 1124.9248,598.11089 1122.897,597.10287 1121.7554,598.34153 1120.0641,598.75357 1118.7698,598.79295 1117.6691,598.13841 1116.4126,598.49428 1115.7742,601.0877 1116.3387,601.71167 1114.8253,603.21526 1113.7295,605.08916 1113.658,607.20912 1112.9531,607.42974 1112.0977,608.82868 1110.9587,608.19883 1111.0805,607.33507 1110.5757,606.64342 1110.1912,606.44131 1109.3416,606.2697 1108.7229,606.87137 1107.9014,606.86431 1105.7098,608.87884 1105.4826,610.13092 1104.6955,610.12286 1103.6405,610.73702 1102.2202,608.08173 1103.8421,604.97982 1102.5053,605.48665 1102.001,605.66647 1101.3296,604.14263 1099.8291,602.52835 1097.8738,601.52505 1096.6006,601.02952 1097.0198,597.56902 1095.4778,597.92215 1095.3112,598.75647 1094.0645,600.56349 1092.7037,601.66839 1091.8373,601.54057 1091.7937,601.2212 1090.9895,601.30764 1090.5622,600.54961 1089.2881,600.45092 1088.3705,599.58576 1087.1326,599.3077 1086.3289,598.97195 1085.8388,598.24874 1086.6407,595.81864 1084.5153,595.90439 1084.6739,594.18906 1084.3385,593.90976 1082.2012,595.11618 1082.0388,595.97965 1081.344,596.51685 1079.1888,596.76397 1079.4268,596.39702 1077.994,594.7989 1078.198,594.02042 1078.8183,593.46824 1078.8397,592.28236 1079.4408,591.23706 1078.8378,590.76338 1078.5024,591.01792 1078.8916,589.82932 1078.3743,587.34414 1077.2997,586.82794 1076.6849,587.32163 1075.4661,587.50233 1075.5032,587.09338 1074.7882,586.71843 1075.3241,585.91748 1074.8866,585.41939 1077.0228,584.32834 1078.0664,583.82228 1080.6791,582.06609 1081.361,580.02194 1080.5786,579.32286 1080.5242,579.40692 1080.3135,578.74513 1079.5871,578.57179 1079.1723,578.43719 1078.588,577.38512 1078.6569,575.66052 1077.9583,574.06687 1076.7518,574.0153 z">
      <title id="t245">Première circonscription de la Haute-Marne</title>
      <desc id="d245">Cantons : Arc-en-Barrois, Auberive, Bourbonne-les-bains, Bourmont, Châteauvillain, Chaumont Nord, Chaumont Sud, Clefmont Fayl-la-Forêt, Laferté-sur-Amance, Langres, Longeau-Percey, Neuilly-l'Evêque, Nogent, Prauthoy, Terre-Natale, Val-de-Meuse</desc>
    </path><path class="circo" id="052-02" d="M 1105.9416,540.77854 1106.9175,539.84154 1111.1925,538.54453 1111.7141,539.2309 1112.5618,539.25179 1115.3526,538.08028 1117.0353,538.36222 1118.1352,537.65511 1118.4105,536.40176 1119.5652,535.78697 1119.2492,535.24134 1116.8613,533.82395 1116.7633,533.43408 1117.8794,532.86351 1118.3419,531.62658 1118.141,530.33674 1118.8954,529.96618 1120.082,529.76641 1120.4869,529.81693 1122.9968,531.01402 1125.7147,530.86276 1125.9844,530.55447 1126.9195,528.48385 1128.4108,526.76751 1129.4189,525.13523 1129.7478,524.81723 1131.3415,523.31075 1131.8779,522.29372 1131.6318,521.44169 1127.2103,515.73375 1126.3185,513.76341 1126.6164,512.95209 1124.9619,512.52964 1124.3093,511.96773 1122.1937,511.96542 1121.7165,512.65268 1120.9508,512.61495 1119.5866,514.23361 1118.0755,514.97177 1117.3197,513.49358 1117.7628,512.32614 1117.4385,511.18202 1119.5066,508.7903 1116.6127,508.32444 1115.3375,507.23134 1116.6926,507.09642 1119.869,504.23269 1121.8168,503.47154 1121.3573,502.90488 1120.5782,503.26788 1119.7655,502.97059 1119.6183,502.56132 1119.2254,501.77192 1118.3455,501.74476 1116.669,500.31853 1116.197,499.08374 1116.376,497.77398 1115.9591,497.14503 1115.6976,496.77476 1113.9336,496.93823 1113.2587,496.34317 1113.1989,496.38177 1111.5662,495.64612 1109.6877,492.13982 1108.7944,492.25196 1107.8391,491.2932 1106.998,492.26748 1106.4386,491.9856 1106.2937,491.57718 1105.0352,491.49916 1101.3365,489.38721 1100.7267,489.93823 1099.9024,489.64136 1099.4624,488.52688 1098.4114,488.13121 1098.6082,487.34532 1096.5461,486.0007 1095.8915,484.94828 1094.7988,485.591 1094.0606,485.23215 1093.2894,484.26105 1092.6614,483.05211 1091.88,482.18003 1092.0142,481.04576 1089.9085,481.39881 1087.8349,481.0189 1086.9087,478.54238 1086.6775,476.33785 1086.2583,476.26325 1084.6586,478.75234 1082.4045,479.03108 1081.5426,478.07911 1082.217,476.04576 1081.4087,474.55869 1081.2494,473.00089 1082.7999,471.77004 1082.4923,470.19522 1080.8767,469.63402 1080.1098,469.21505 1077.9423,469.28716 1077.0487,470.11425 1076.6478,470.87687 1074.2953,469.0644 1073.0901,470.28985 1071.8733,470.70656 1070.621,471.851 1069.5292,471.88433 1068.8287,471.2239 1066.8417,470.96337 1066.5574,470.21672 1064.7176,470.52646 1064.4881,471.32727 1063.3015,471.46486 1062.516,473.23368 1062.4693,473.82301 1062.5326,473.8315 1065.5017,473.51227 1068.4267,474.108 1068.1798,474.60115 1069.1592,475.3626 1069.0862,477.54791 1069.3408,478.40082 1069.7621,478.53685 1069.4822,478.86111 1067.3812,478.89068 1065.055,480.71069 1062.1514,481.33866 1062.3457,483.5248 1062.813,484.73968 1064.0129,484.42124 1064.3322,484.71977 1063.572,486.28927 1064.7902,489.51351 1063.9664,489.63686 1063.6737,489.33907 1058.4708,488.02183 1055.06,488.79698 1054.2288,488.5066 1053.8252,489.24421 1054.3489,490.83046 1053.7761,491.95095 1053.4937,491.97161 1052.7613,492.91654 1052.8645,494.20458 1052.2358,496.26265 1052.4044,497.11195 1050.14,497.42926 1050.901,498.89956 1054.1398,500.49896 1054.3997,501.58371 1055.3453,502.89847 1054.687,503.96784 1055.8686,504.27316 1057.0699,505.99991 1056.526,506.40051 1056.6641,507.03023 1057.0111,507.29125 1057.7643,506.87559 1060.3233,507.137 1061.4758,507.73747 1060.9991,510.43307 1062.7042,511.59727 1064.2555,511.77061 1066.4704,513.18307 1067.7918,513.25635 1068.385,513.89743 1066.0685,516.00106 1067.009,517.39523 1067.0934,518.65543 1067.889,518.5624 1069.1819,519.42056 1068.51,521.04788 1069.9086,523.28189 1068.8126,524.58564 1068.6493,525.44696 1068.7499,525.70315 1068.5387,526.50702 1069.239,527.95573 1067.8833,528.89545 1068.2044,529.709 1070.167,530.60932 1070.1586,531.93954 1069.6453,532.65274 1069.6277,532.66843 1068.8616,534.26721 1069.0097,534.68151 1068.1618,535.678 1067.9695,536.52461 1068.1227,537.80699 1069.118,539.15358 1067.2911,540.74568 1067.6946,542.21874 1068.5283,542.53386 1071.4716,541.61315 1072.6301,541.47818 1073.9224,543.00377 1076.8064,541.07781 1078.2571,543.27863 1078.3763,544.60385 1078.893,545.32242 1081.1307,544.31098 1082.738,544.53054 1083.7673,543.7686 1084.3144,541.67517 1083.3909,539.75315 1085.073,539.0202 1084.5292,537.44654 1083.9694,536.88957 1084.7619,536.75513 1084.2291,536.16905 1084.031,534.57035 1084.7294,534.19251 1085.7657,534.99393 1088.7624,534.96347 1092.041,536.1558 1092.3163,535.44043 1093.3513,535.1943 1094.3092,533.82727 1095.53,533.40858 1096.3299,533.69914 1097.5808,533.52142 1098.0192,532.85535 1098.4484,532.89016 1098.6795,533.75855 1097.8713,536.33829 1099.8364,537.92905 1102.7048,538.75574 1103.4121,539.81594 1103.8233,539.9493 1104.1002,539.61788 1104.3511,540.56064 1105.5366,538.24883 1106.1898,537.68391 1107.2822,538.34311 1106.8657,539.1016 1106.067,539.48324 1105.9416,540.77854 z">
      <title id="t246">Deuxième circonscription de la Haute-Marne</title>
      <desc id="d246">Cantons de : Andelot-Blancheville, Blaiserives (le canton de Blaiserives est devenu le canton de Doulevant-le-Château par suite du changement de nom de sa commune chef-lieu par décret du 19 octobre 1992), Chevillon, Doulaincourt-Saucourt, Joinville, Juzennecourt, Montier-en-Der, Poissons, Saint-Blin-Semilly, Saint-Dizier Centre, Saint-Dizier-Nord-Est, Saint-Dizier Ouest, Dizier Sud-Est, Vignory, Wassy</desc>
    </path></svg>