<svg xmlns="http://www.w3.org/2000/svg" version="1.1" xmlns:xlink="http://www.w3.org/1999/xlink" xmlns:svgjs="http://svgjs.dev/svgjs" viewBox="0 0 107.42139999999995 141.67262000000005"><path class="circo" id="id-052-01" d="M26.611799999999903 104.95090000000005L25.55399999999986 104.39678000000004L25.611799999999903 102.44261000000006L24.88130000000001 101.51177000000007L23.726799999999912 98.70185000000004L22.76649999999995 97.92395999999997L21.05989999999997 98.31475L19.5465999999999 101.34392000000003L17.611999999999853 99.92880000000002L17.225299999999834 99.23260000000005L17.512599999999793 98.47216000000003L18.617899999999963 97.88590999999997L20.262899999999945 95.51842999999997L19.490299999999934 94.03212000000008L18.547799999999825 93.12446L16.39379999999983 92.86525000000006L15.651399999999967 93.19555000000003L14.859499999999798 92.85624000000007L13.681299999999965 92.51171L13.505400000000009 91.72369000000003L14.336599999999862 90.18813999999998L15.426499999999805 89.52494999999999L14.16989999999987 88.33796000000007L13.820600000000013 87.09956L10.429899999999861 87.55160000000001L7.914899999999989 86.96908000000008L6.579999999999927 85.52747L6.976400000000012 85.33239000000003L6.90319999999997 84.02542000000005L8.1878999999999 82.28323L7.078699999999799 81.60093000000006L5.468099999999822 78.95266000000004L2.8825999999999112 78.29075L2.6106999999999516 78.02497000000005L5.44439999999986 77.17146000000002L6.640299999999797 76.83756000000005L6.808699999999817 76.02105000000006L6.550099999999929 75.67411000000004L8.291999999999916 74.50791000000004L8.92899999999986 72.90732000000003L9.695399999999836 73.3895L11.492199999999912 73.46054000000004L13.605099999999993 74.20366000000001L15.993199999999888 74.92975999999999L17.642799999999852 74.72622000000001L17.554599999999937 73.15434000000005L18.388299999999845 73.46946000000003L21.33159999999998 72.54875000000004L22.490099999999984 72.41377999999997L23.782399999999825 73.93937000000005L26.66639999999984 72.01341000000002L28.117099999999937 74.21423000000004L28.2362999999998 75.53944999999999L28.75299999999993 76.25801999999999L30.990699999999833 75.24658L32.597999999999956 75.46614L33.62729999999988 74.70420000000001L34.17439999999988 72.61077L33.2509 70.68875000000003L34.93299999999999 69.95580000000007L34.389199999999846 68.38214000000005L33.82939999999985 67.82517000000007L34.62189999999987 67.69073000000003L34.08909999999992 67.10464999999999L33.89099999999985 65.50594999999998L34.58939999999984 65.12810999999999L35.625699999999824 65.92953L38.62239999999997 65.89907000000005L41.90099999999984 67.09140000000002L42.176299999999856 66.37603000000001L43.21129999999994 66.12990000000002L44.16919999999982 64.76287000000002L45.38999999999987 64.34418000000005L46.18989999999985 64.63474000000008L47.440799999999854 64.45702000000006L47.879199999999855 63.790950000000066L48.30839999999989 63.82576000000006L48.53949999999986 64.69415000000004L47.73129999999992 67.27389000000005L49.69639999999981 68.86464999999998L52.56479999999988 69.69133999999997L53.27209999999991 70.75153999999998L53.68329999999992 70.88490000000002L53.960199999999986 70.55348000000004L54.21109999999999 71.49624000000006L55.39659999999981 69.18443000000002L56.049800000000005 68.61950999999999L57.1422 69.27871000000005L56.72569999999996 70.03719999999998L55.92699999999991 70.41884000000005L55.80160000000001 71.71414000000004L56.77749999999992 70.77714000000003L61.05250000000001 69.48013000000003L61.57409999999982 70.16650000000004L62.42179999999985 70.18739000000005L65.21259999999984 69.01588000000004L66.8952999999999 69.29782L67.99519999999984 68.59071000000006L68.27049999999986 67.33735999999999L69.4251999999999 66.72257000000002L69.10919999999987 66.17694000000006L66.72129999999993 64.75954999999999L66.62329999999997 64.36968000000002L67.73939999999993 63.79911000000004L68.2018999999998 62.56218000000001L68.00099999999998 61.272339999999986L68.75540000000001 60.90178000000003L69.94200000000001 60.70200999999997L70.3469 60.75252999999998L72.8567999999998 61.94961999999998L75.5746999999999 61.79836L75.84439999999995 61.49007000000006L76.77949999999987 59.41944999999998L78.27080000000001 57.70311000000004L79.2788999999998 56.07083L79.6078 55.75283000000002L81.2014999999999 54.24635000000001L81.73789999999985 53.22932000000003L83.71219999999994 50.92343000000005L87.2956999999999 53.89837L86.92599999999993 55.663080000000036L86.19849999999997 57.23942999999997L89.21119999999996 58.941599999999994L90.1842999999999 58.28200000000004L92.14379999999983 60.09999000000005L93.30539999999996 62.25087000000008L93.77679999999987 62.85741000000007L93.85569999999984 63.95645999999999L91.20249999999987 63.96028000000001L89.53669999999988 65.36216000000002L89.7174 65.76891999999998L90.09079999999994 66.8374L89.88089999999988 67.96725000000004L89.97729999999979 68.93752000000006L89.17369999999983 70.00446999999997L89.24199999999996 70.76020000000005L88.03549999999996 71.71809000000007L87.5293999999999 72.76726000000008L88.85209999999984 74.18189000000007L86.9203 74.74124000000006L86.05520000000001 75.73787000000004L85.53899999999999 77.38192000000004L87.07060000000001 78.92021999999997L87.49029999999993 78.93777999999998L87.4273999999998 77.67902000000004L87.76379999999995 77.42353000000003L90.55089999999996 78.49774000000002L90.9056999999998 78.23833000000002L91.24669999999992 79.52611000000002L92.3585999999998 80.26637000000005L93.03099999999995 81.39798000000008L92.97539999999981 81.48775L93.05769999999984 82.34693000000004L94.69049999999993 81.87012000000004L96.68129999999996 84.09190000000001L97.07169999999996 84.28295000000003L97.75189999999998 83.82394L97.7177999999999 85.25220000000002L98.55009999999993 86.72805000000005L98.5677999999998 87.58896000000004L99.279 88.50639999999999L99.17759999999998 89.27944000000002L97.894 90.89215000000002L98.7373 94.10573999999997L100.17009999999982 94.83204999999998L101.02149999999983 93.56987000000004L102.59269999999992 93.22728000000006L103.11339999999996 92.15205000000003L103.61889999999994 91.18597999999997L103.86009999999987 91.95844L104.27509999999984 91.92429000000004L104.33269999999993 92.41231000000005L103.9659999999999 92.62533000000008L104.31659999999988 94.27948000000004L104.77999999999997 94.98661000000004L105.20319999999992 94.97113000000002L106.92419999999993 97.48708999999997L107.42139999999995 99.53048999999999L107.07449999999994 100.45641999999998L106.79359999999997 100.75894000000005L105.58849999999984 100.65319999999997L104.08519999999999 100.03912000000003L103.81889999999999 100.35485000000006L103.55539999999996 101.15945999999997L101.58039999999983 104.70559000000003L101.81979999999999 105.93610999999999L102.14659999999981 106.88L100.20039999999995 107.46621000000005L99.42919999999981 107.53688L99.62729999999988 106.40319L97.17269999999985 106.30944999999997L96.42349999999988 105.94320000000005L95.76169999999979 106.91813000000002L94.97949999999992 107.27178000000004L95.34359999999992 109.68858L95.13689999999997 110.47039000000007L94.64139999999998 111.05957000000001L93.8934999999999 111.22514999999999L93.60269999999991 111.12160000000006L92.38199999999983 110.72714000000008L91.07459999999992 110.5009L89.99609999999984 111.83767L89.23399999999992 116.09391000000005L89.71299999999997 116.57040000000006L89.5193999999999 117.25629000000004L91.50699999999983 117.30612000000008L91.84199999999987 117.54084L91.88559999999984 118.32463000000007L91.76109999999994 119.64008999999999L92.02279999999996 120.41983000000005L90.34209999999985 121.81588999999997L90.26919999999996 122.25833999999998L90.8730999999998 122.91862000000003L89.96379999999999 123.23237000000006L89.87950000000001 124.54824000000008L90.6456999999998 125.59935000000007L90.69549999999981 127.33451000000002L90.26859999999988 128.02155000000005L88.721 128.26107000000002L88.47239999999988 127.93304L87.7983999999999 128.05236000000002L87.2491 128.98324000000002L85.23429999999985 129.03613000000007L84.02999999999997 129.46560999999997L83.23979999999983 129.23017000000004L82.4509999999998 129.67932000000008L81.46929999999998 127.28993000000003L81.33259999999996 125.98775L80.25919999999996 125.24062000000004L79.94979999999987 125.19982000000005L76.82209999999986 129.38115000000005L75.0969 129.35313000000008L74.7847999999999 129.04649000000006L72.75699999999983 128.03847000000007L71.61539999999991 129.27713000000006L69.92409999999995 129.68917L68.62979999999993 129.72855000000004L67.52909999999997 129.07401000000004L66.27260000000001 129.42988000000003L65.63419999999996 132.02330000000006L66.19869999999992 132.64727000000005L64.68529999999987 134.15085999999997L63.589499999999816 136.02476000000001L63.5179999999998 138.14472L62.81309999999985 138.36534000000006L61.95769999999993 139.76427999999999L60.81869999999981 139.13443000000007L60.94049999999993 138.27067L60.4357 137.57902L60.05119999999988 137.37691000000007L59.20159999999987 137.20529999999997L58.58289999999988 137.80696999999998L57.76139999999987 137.79991000000007L55.56979999999999 139.81444L55.34259999999995 141.06651999999997L54.55549999999994 141.05845999999997L53.500499999999874 141.67262000000005L52.08019999999988 139.01733000000002L53.70209999999997 135.91542000000004L52.365299999999934 136.42225000000008L51.860999999999876 136.60207000000003L51.18959999999993 135.07823000000008L49.689099999999826 133.46395000000007L47.733799999999974 132.46065L46.460599999999886 131.96512000000007L46.87979999999993 128.50462000000005L45.33779999999979 128.85775L45.1712 129.69207000000006L43.92449999999985 131.49909000000002L42.563699999999926 132.60399000000007L41.697299999999814 132.47617000000002L41.653699999999844 132.15679999999998L40.84949999999981 132.24324000000001L40.422199999999975 131.48521000000005L39.148099999999886 131.38652000000002L38.23049999999989 130.52136000000007L36.99259999999981 130.24329999999998L36.188899999999876 129.90755000000001L35.69879999999989 129.18434000000002L36.500699999999824 126.75423999999998L34.375299999999925 126.83999000000006L34.5338999999999 125.12466000000006L34.19849999999997 124.84536000000003L32.06119999999987 126.05178000000001L31.898799999999937 126.91525000000001L31.20399999999995 127.45245L29.0487999999998 127.69957L29.286799999999857 127.33262000000002L27.853999999999814 125.73450000000003L28.057999999999993 124.95601999999997L28.67829999999981 124.40384000000006L28.699699999999893 123.21796000000006L29.30079999999998 122.17266000000006L28.697799999999916 121.69898L28.36239999999998 121.95352000000003L28.751599999999826 120.76492000000007L28.23429999999985 118.27974000000006L27.15969999999993 117.76354000000003L26.54489999999987 118.25723000000005L25.326099999999997 118.43793000000005L25.363200000000006 118.02898000000005L24.64819999999986 117.65403000000003L25.184099999999944 116.85307999999998L24.746599999999944 116.35499000000004L26.88279999999986 115.26394000000005L27.92639999999983 114.75788L30.539099999999962 113.00169000000005L31.221000000000004 110.95754L30.43859999999995 110.25846000000001L30.384199999999964 110.34252000000004L30.173499999999876 109.68073000000004L29.447099999999864 109.50738999999999L29.03229999999985 109.37279000000001L28.447999999999865 108.32072000000005L28.51689999999985 106.59612000000004L27.81829999999991 105.00247000000002L26.611799999999903 104.95090000000005z">
      <title id="t245">Première circonscription de la Haute-Marne</title>
      <desc id="d245">Cantons : Arc-en-Barrois, Auberive, Bourbonne-les-bains, Bourmont, Châteauvillain, Chaumont Nord, Chaumont Sud, Clefmont Fayl-la-Forêt, Laferté-sur-Amance, Langres, Longeau-Percey, Neuilly-l'Evêque, Nogent, Prauthoy, Terre-Natale, Val-de-Meuse</desc>
    </path><path class="circo" id="id-052-02" d="M55.80160000000001 71.71414000000004L56.77749999999992 70.77714000000003L61.05250000000001 69.48013000000003L61.57409999999982 70.16650000000004L62.42179999999985 70.18739000000005L65.21259999999984 69.01588000000004L66.8952999999999 69.29782L67.99519999999984 68.59071000000006L68.27049999999986 67.33735999999999L69.4251999999999 66.72257000000002L69.10919999999987 66.17694000000006L66.72129999999993 64.75954999999999L66.62329999999997 64.36968000000002L67.73939999999993 63.79911000000004L68.2018999999998 62.56218000000001L68.00099999999998 61.272339999999986L68.75540000000001 60.90178000000003L69.94200000000001 60.70200999999997L70.3469 60.75252999999998L72.8567999999998 61.94961999999998L75.5746999999999 61.79836L75.84439999999995 61.49007000000006L76.77949999999987 59.41944999999998L78.27080000000001 57.70311000000004L79.2788999999998 56.07083L79.6078 55.75283000000002L81.2014999999999 54.24635000000001L81.73789999999985 53.22932000000003L81.49180000000001 52.377290000000016L77.07029999999986 46.66935000000001L76.17849999999999 44.699010000000044L76.47640000000001 43.88769000000002L74.82189999999991 43.465239999999994L74.1692999999998 42.90333000000004L72.05369999999994 42.90102000000002L71.5764999999999 43.588280000000054L70.81079999999997 43.550550000000044L69.44659999999999 45.16921000000002L67.93549999999982 45.907370000000014L67.17969999999991 44.429179999999974L67.62279999999987 43.26174000000003L67.29849999999988 42.117620000000045L69.36659999999983 39.725900000000024L66.4726999999998 39.260040000000004L65.19749999999999 38.16694000000001L66.55259999999998 38.032020000000045L69.72899999999981 35.16829000000001L71.67679999999996 34.40714000000003L71.2172999999998 33.840480000000014L70.43819999999982 34.20348000000001L69.62549999999987 33.90619000000004L69.47829999999999 33.496920000000046L69.08539999999994 32.707520000000045L68.2054999999998 32.68036000000001L66.529 31.254130000000032L66.05699999999979 30.01934L66.23599999999988 28.709580000000017L65.81909999999993 28.080630000000042L65.55759999999987 27.710360000000037L63.79359999999997 27.873829999999998L63.11869999999999 27.27877000000001L63.058899999999994 27.31737000000004L61.42619999999988 26.58172000000002L59.54769999999985 23.07542000000001L58.654399999999896 23.18756000000002L57.69909999999982 22.228800000000035L56.85799999999995 23.20308L56.29859999999985 22.9212L56.153699999999844 22.51278000000002L54.89519999999993 22.43476000000004L51.19649999999979 20.322810000000004L50.58669999999984 20.873829999999998L49.76239999999984 20.576960000000042L49.32239999999979 19.462480000000028L48.27139999999986 19.066810000000032L48.4681999999998 18.280920000000037L46.406099999999924 16.936300000000017L45.75149999999985 15.883880000000033L44.65879999999993 16.52660000000003L43.92059999999992 16.167750000000012L43.14939999999979 15.196650000000034L42.52139999999986 13.98771000000005L41.74000000000001 13.11563000000001L41.87419999999997 11.981359999999995L39.768499999999904 12.334410000000048L37.69489999999996 11.954499999999996L36.76869999999985 9.477980000000002L36.53749999999991 7.273450000000025L36.11829999999986 7.19885000000005L34.51859999999988 9.687940000000026L32.2645 9.966679999999997L31.402599999999893 9.014710000000036L32.077 6.981359999999995L31.268699999999853 5.494290000000035L31.109399999999823 3.936490000000049L32.65989999999988 2.7056400000000167L32.35229999999979 1.1308200000000284L30.736699999999928 0.5696200000000431L29.96979999999985 0.15065000000004147L27.802299999999832 0.22275999999999385L26.908699999999953 1.049850000000049L26.50779999999986 1.812470000000019L24.155299999999897 0L22.950099999999793 1.2254500000000235L21.733299999999872 1.6421600000000467L20.480999999999995 2.7866000000000213L19.389199999999846 2.8199299999999994L18.688699999999926 2.159500000000037L16.701699999999846 1.8989700000000198L16.417399999999816 1.1523200000000315L14.577599999999848 1.4620600000000081L14.348099999999931 2.262870000000021L13.161499999999933 2.4004600000000096L12.375999999999976 4.169280000000015L12.329299999999876 4.758610000000033L12.392599999999902 4.767100000000028L15.361699999999928 4.447870000000023L18.286699999999882 5.043600000000026L18.039799999999786 5.5367500000000405L19.019199999999955 6.2982000000000085L18.946199999999862 8.483510000000024L19.200799999999845 9.336420000000032L19.62209999999982 9.472450000000038L19.34219999999982 9.796710000000019L17.241199999999935 9.826279999999997L14.914999999999964 11.646290000000022L12.011399999999867 12.274260000000027L12.205699999999979 14.46040000000005L12.673000000000002 15.675280000000043L13.872899999999845 15.356840000000034L14.192199999999957 15.655370000000005L13.431999999999789 17.22487000000001L14.650199999999813 20.44911000000002L13.826399999999921 20.572460000000035L13.533699999999953 20.274670000000015L8.330799999999954 18.957430000000045L4.919999999999845 19.73258000000004L4.088799999999992 19.442200000000014L3.6851999999998952 20.179810000000032L4.208899999999858 21.76606000000004L3.636099999999942 22.88655L3.3536999999998898 22.90721000000002L2.621299999999792 23.85214000000002L2.724499999999807 25.140180000000043L2.0957999999998265 27.19825000000003L2.264399999999796 28.04755L0 28.36486000000002L0.7609999999999673 29.83516000000003L3.999799999999823 31.434560000000033L4.259699999999839 32.51931000000002L5.205299999999852 33.83407L4.546999999999798 34.903440000000046L5.728599999999915 35.20876000000004L6.929899999999861 36.93551000000002L6.385999999999967 37.33611000000002L6.524099999999862 37.96583000000004L6.871099999999842 38.22685000000001L7.624299999999948 37.81119000000001L10.183299999999917 38.07260000000002L11.335799999999836 38.673069999999996L10.859099999999899 41.36867000000001L12.5641999999998 42.53287L14.115499999999884 42.70621L16.330399999999827 44.118670000000066L17.651799999999866 44.19195000000002L18.24499999999989 44.83303000000001L15.928499999999985 46.936660000000074L16.868999999999915 48.33082999999999L16.953399999999874 49.591030000000046L17.748999999999796 49.49800000000005L19.04189999999994 50.356160000000045L18.36999999999989 51.983479999999986L19.76859999999988 54.21749L18.672599999999875 55.521240000000034L18.50929999999994 56.38256000000001L18.609899999999925 56.63875000000007L18.398699999999963 57.44262000000003L19.098999999999933 58.89133000000004L17.743299999999863 59.831050000000005L18.064399999999978 60.64459999999997L20.026999999999816 61.54492000000005L20.01859999999988 62.87513999999999L19.505299999999806 63.58834000000002L19.487699999999904 63.604029999999966L18.721599999999853 65.20281L18.869699999999966 65.61711000000003L18.021799999999985 66.61360000000002L17.829499999999825 67.46021000000007L17.982699999999795 68.74259000000006L18.977999999999838 70.08918000000006L17.151099999999815 71.68128000000002L17.554599999999937 73.15434000000005L18.388299999999845 73.46946000000003L21.33159999999998 72.54875000000004L22.490099999999984 72.41377999999997L23.782399999999825 73.93937000000005L26.66639999999984 72.01341000000002L28.117099999999937 74.21423000000004L28.2362999999998 75.53944999999999L28.75299999999993 76.25801999999999L30.990699999999833 75.24658L32.597999999999956 75.46614L33.62729999999988 74.70420000000001L34.17439999999988 72.61077L33.2509 70.68875000000003L34.93299999999999 69.95580000000007L34.389199999999846 68.38214000000005L33.82939999999985 67.82517000000007L34.62189999999987 67.69073000000003L34.08909999999992 67.10464999999999L33.89099999999985 65.50594999999998L34.58939999999984 65.12810999999999L35.625699999999824 65.92953L38.62239999999997 65.89907000000005L41.90099999999984 67.09140000000002L42.176299999999856 66.37603000000001L43.21129999999994 66.12990000000002L44.16919999999982 64.76287000000002L45.38999999999987 64.34418000000005L46.18989999999985 64.63474000000008L47.440799999999854 64.45702000000006L47.879199999999855 63.790950000000066L48.30839999999989 63.82576000000006L48.53949999999986 64.69415000000004L47.73129999999992 67.27389000000005L49.69639999999981 68.86464999999998L52.56479999999988 69.69133999999997L53.27209999999991 70.75153999999998L53.68329999999992 70.88490000000002L53.960199999999986 70.55348000000004L54.21109999999999 71.49624000000006L55.39659999999981 69.18443000000002L56.049800000000005 68.61950999999999L57.1422 69.27871000000005L56.72569999999996 70.03719999999998L55.92699999999991 70.41884000000005L55.80160000000001 71.71414000000004z">
      <title id="t246">Deuxième circonscription de la Haute-Marne</title>
      <desc id="d246">Cantons de : Andelot-Blancheville, Blaiserives (le canton de Blaiserives est devenu le canton de Doulevant-le-Château par suite du changement de nom de sa commune chef-lieu par décret du 19 octobre 1992), Chevillon, Doulaincourt-Saucourt, Joinville, Juzennecourt, Montier-en-Der, Poissons, Saint-Blin-Semilly, Saint-Dizier Centre, Saint-Dizier-Nord-Est, Saint-Dizier Ouest, Dizier Sud-Est, Vignory, Wassy</desc>
    </path></svg>