<svg xmlns="http://www.w3.org/2000/svg" version="1.1" xmlns:xlink="http://www.w3.org/1999/xlink" xmlns:svgjs="http://svgjs.dev/svgjs" viewBox="551.59423 484.60712 100.94479999999999 106.33914000000004"><path class="circo" id="053-01" d="M 593.17213,554.04691 591.73403,552.11034 588.80353,552.60169 587.84993,552.1256 588.95223,550.27493 588.41433,549.58946 588.50093,548.37962 588.96223,548.45505 589.45273,548.23865 591.27353,548.1643 591.25743,546.71175 590.84073,545.80307 587.40363,546.39733 586.01563,545.44218 584.49113,543.479 583.76963,543.07965 582.97693,541.55394 583.78733,541.38 583.94243,540.99262 583.38583,539.45713 583.58773,539.09141 584.78683,539.42286 585.33653,538.4435 585.19683,537.68582 586.37013,537.22113 588.48363,537.04745 590.76903,538.09888 591.51183,537.88535 591.78633,536.24679 593.82703,536.48701 593.13983,535.34177 593.89363,533.73037 594.65143,533.28899 595.12083,533.99147 596.35883,534.41292 596.52353,535.65557 597.55003,536.40966 597.58533,536.84535 597.44283,537.2986 598.92043,537.82037 599.29663,537.66735 599.28393,536.45809 598.80153,535.808 599.32693,535.1669 603.20423,535.64346 603.91673,535.40512 604.35723,536.05295 605.20913,535.96106 606.34553,536.56335 608.05113,536.67167 607.96023,535.39467 607.17823,534.4555 608.08223,533.05248 608.18623,532.61819 607.40723,531.54637 607.06933,530.25548 606.84403,529.10073 607.55233,527.68929 609.27723,527.66849 610.64743,526.58832 611.57593,525.61533 611.45853,524.73182 610.89973,524.02911 610.92403,522.69971 611.79823,521.91274 612.91723,522.29168 613.15833,521.96 614.00833,522.95039 615.73263,523.27972 618.46303,521.92181 619.09643,521.5076 619.31543,520.82153 620.27713,520.64729 621.14073,519.6881 621.40073,518.08536 622.47303,517.37708 623.36583,516.81584 624.66223,515.81148 625.29953,512.06814 627.89703,512.52401 629.64393,511.21528 630.14243,512.4245 630.63263,511.92692 630.51993,510.7418 630.89023,508.88027 630.66803,508.56697 631.12273,508.11915 630.78433,506.86663 631.63203,505.91809 631.25903,505.13243 633.17713,504.2866 632.65423,502.01892 631.64453,500.66874 631.58993,500.24293 633.12993,498.81458 633.51183,498.61873 634.68633,499.02812 634.87813,497.25772 635.94933,495.98632 636.79233,495.88232 637.53473,496.24893 639.25033,494.61193 639.02203,493.44097 642.22083,493.06189 642.61263,492.95477 643.47483,493.81182 643.63523,494.60103 644.08383,496.03543 643.79933,496.29278 644.25703,496.97631 644.18783,498.62027 645.13173,499.38583 647.64663,500.00022 650.01953,499.78453 650.42993,499.71892 650.73663,498.96724 651.53183,498.91212 652.53903,499.67137 652.15483,502.23453 651.95413,502.42694 652.28753,506.98313 651.97403,507.67526 652.21333,508.45537 651.74153,509.03128 650.95523,508.98712 650.15113,509.96554 649.00223,509.40111 647.31443,509.44807 646.85973,510.21377 645.26133,510.92245 645.56223,513.09879 646.45963,514.04526 644.26243,513.29919 643.61563,513.77531 643.41843,514.52937 643.68323,517.14318 644.23493,517.16606 644.75263,517.8658 645.06653,519.58717 644.27653,520.60577 644.00983,521.8287 644.10053,521.9757 642.85893,524.15858 643.16673,526.75666 644.48873,528.91344 643.88373,529.94283 644.36713,531.06861 642.84643,531.75666 641.65823,532.93339 641.04593,533.81923 637.17643,535.71152 635.88393,536.78737 635.57993,537.07192 635.74203,537.45533 636.54273,538.23355 635.27433,539.79683 632.96093,541.15804 631.20853,540.95034 630.51833,542.60083 629.22213,542.96163 628.76793,541.45806 627.63073,540.30656 625.96193,540.32719 625.10713,542.7023 623.59963,543.51579 622.46943,544.16193 621.62463,544.31785 621.43433,543.98665 619.97083,544.39893 617.88403,544.58896 616.71723,544.17606 615.57863,544.6414 614.95593,544.88106 614.63903,545.98645 612.57633,548.11603 613.39963,549.39691 613.50193,551.4702 610.85953,550.88073 609.70823,552.07233 609.35503,551.80992 609.43113,550.50421 609.15423,550.16277 607.07343,550.59297 606.33423,552.14657 605.21403,551.46715 603.60593,551.63498 602.42563,552.68813 601.26643,555.05469 601.34713,555.49283 603.89153,556.17756 603.87093,557.82193 602.00033,558.47364 598.71333,560.37481 597.92423,560.3272 597.63063,562.1961 598.02043,562.8536 597.35943,563.37066 595.65683,563.72195 595.67903,562.88279 594.82903,562.0001 595.56703,561.03529 594.86213,559.53128 594.79383,559.14548 593.89293,558.62072 594.03203,556.05978 593.17213,554.04691 z">
      <title id="t247">Première circonscription de la Mayenne</title>
      <desc id="d247">Cantons de : Argentré, Bais, Evron, Laval Est, Laval Nord-Est, Laval Saint-Nicolas, Laval Sud-Ouest, Montsûrs, Pré-en-Pail, Villaines-la-Juhel</desc>
    </path><path class="circo" id="053-02" d="M 612.46883,584.54821 612.78763,586.6079 611.54893,588.75834 609.21563,587.90556 608.13293,588.37729 607.15213,587.78291 604.92763,590.65456 601.91653,590.50075 601.27513,590.94626 599.91053,590.01438 598.20683,590.14874 596.56003,589.63289 595.77783,589.99782 594.66133,589.87066 593.93013,590.18337 593.12213,589.9063 592.27863,588.4749 591.87343,588.33822 590.25873,588.82118 589.75673,587.681 587.84843,586.90382 587.48083,586.16158 585.83763,586.36457 585.46863,586.53417 585.50653,588.55707 583.75783,587.82122 580.92703,587.01143 580.93803,586.58703 580.70053,585.73257 578.81093,584.65814 577.63193,583.34313 577.64933,584.15173 577.24403,584.18462 576.04923,583.08716 575.26663,582.98631 574.21803,584.65358 575.36993,585.16325 575.90373,586.31841 573.67743,587.32871 572.98073,587.2101 571.86063,587.03104 571.30723,586.55895 570.53363,586.40694 570.06983,585.71018 568.98203,586.17284 568.15113,586.01146 565.46793,585.78632 565.42083,585.75458 564.57043,585.52969 563.95373,584.89938 559.96973,584.41702 560.16373,585.47618 559.90283,585.72359 557.81893,585.19411 556.73013,584.46408 555.43743,584.26597 554.90053,583.12234 554.05453,582.92925 553.56673,582.20263 551.59423,581.25698 552.05243,580.04118 552.87773,580.11549 553.47863,577.94473 553.64063,577.13943 552.96503,576.14479 553.73373,575.27694 554.58883,575.32368 555.76693,573.94776 555.06133,572.51427 555.09003,571.68117 555.51253,570.99261 556.87093,570.14348 556.91003,568.46605 557.51113,567.89244 557.97953,566.29246 557.63803,565.52048 558.28713,564.88013 558.13623,563.13841 558.56933,561.67767 559.20573,561.20008 560.80563,560.81844 561.45043,558.87701 562.70713,558.57665 563.94163,558.75039 565.15533,559.14396 565.99553,559.32937 567.56923,559.11539 569.26073,558.11979 569.42533,558.52914 570.70933,558.80678 571.63323,561.25975 573.31943,561.54133 573.66683,560.28479 576.30783,560.04074 576.99923,559.47173 577.89783,560.06068 578.20643,559.86678 578.58773,559.66703 578.45303,558.81211 579.59343,556.07706 580.01463,555.33603 578.51833,554.7877 577.99243,552.76974 577.97983,552.7475 579.21303,552.92991 580.39713,551.65468 581.19253,551.29576 581.85843,549.68752 582.28843,549.60434 581.13033,548.47323 580.69703,547.26024 581.53103,547.34739 581.83563,547.03428 580.93383,545.6379 581.11783,545.24352 583.26283,545.08736 583.74253,544.37576 583.76963,543.07965 584.49113,543.479 586.01563,545.44218 587.40363,546.39733 590.84073,545.80307 591.25743,546.71175 591.27353,548.1643 589.45273,548.23865 588.96223,548.45505 588.50093,548.37962 588.41433,549.58946 588.95223,550.27493 587.84993,552.1256 588.80353,552.60169 591.73403,552.11034 593.17213,554.04691 594.03203,556.05978 593.89293,558.62072 594.79383,559.14548 594.86213,559.53128 595.56703,561.03529 594.82903,562.0001 595.67903,562.88279 595.65683,563.72195 597.35943,563.37066 598.02043,562.8536 597.63063,562.1961 597.92423,560.3272 598.71333,560.37481 602.00033,558.47364 603.87093,557.82193 603.89153,556.17756 601.34713,555.49283 601.26643,555.05469 602.42563,552.68813 603.60593,551.63498 605.21403,551.46715 606.33423,552.14657 607.07343,550.59297 609.15423,550.16277 609.43113,550.50421 609.35503,551.80992 609.70823,552.07233 610.85953,550.88073 613.50193,551.4702 613.39963,549.39691 612.57633,548.11603 614.63903,545.98645 614.95593,544.88106 615.57863,544.6414 616.71723,544.17606 617.88403,544.58896 619.97083,544.39893 621.43433,543.98665 621.62463,544.31785 622.46943,544.16193 623.59963,543.51579 625.10713,542.7023 625.96193,540.32719 627.63073,540.30656 628.76793,541.45806 629.22213,542.96163 630.51833,542.60083 631.20853,540.95034 632.96093,541.15804 635.27433,539.79683 636.02853,539.89529 636.35123,541.0163 637.89623,541.55496 637.92013,542.28214 638.46123,542.76799 638.28693,543.62807 636.90303,544.72578 636.82383,545.16334 636.76673,546.47915 637.86073,547.1951 637.63853,548.0509 637.21793,549.66628 636.45983,549.28041 633.53813,548.96955 632.53203,549.74119 632.81033,550.00902 632.44573,550.27392 629.94823,551.33504 628.76743,550.76082 627.90493,551.56352 628.41743,553.04978 628.10473,555.62142 630.58343,556.45173 630.62313,556.44538 630.28933,557.02812 630.32503,557.88137 631.38723,560.1314 631.30883,561.39711 632.33803,562.07779 633.03233,562.5199 633.00403,562.93495 631.53213,564.34757 630.35553,564.7422 629.64843,565.37775 628.77073,565.20685 628.05803,565.73299 624.13623,565.94283 623.44893,566.38849 623.04723,567.53808 621.75513,567.84653 622.29513,568.53707 622.50363,569.81079 621.90923,570.44293 623.47873,570.82731 623.59613,571.22877 624.81643,571.4686 625.32373,573.00979 624.71813,574.07232 624.97563,575.22652 621.82503,575.22423 621.91343,576.61711 620.68043,576.27475 620.08693,577.35941 618.77483,578.46631 619.35943,579.04305 619.95073,581.37558 621.40313,582.18327 623.85063,581.84828 623.94043,581.98129 624.54093,584.75605 624.90103,586.83477 624.40283,587.5089 624.20943,586.67543 622.02953,585.30087 621.59983,585.24079 621.99493,586.9214 620.36773,586.6686 618.26353,587.93059 617.60743,586.82023 616.02663,585.43153 613.74103,584.41044 612.65683,584.22637 612.46883,584.54821 z">
      <title id="t248">Deuxième circonscription de la Mayenne</title>
      <desc id="d248">Cantons de : Bierné, Château-Gontier Est, Château-Gontier Ouest, Cossé-le-Vivien, Craon, Grez-en-Bouère, Laval Nord-Ouest, Meslay-du-Maine, Saint-Aignan-sur-Roë, Saint-Berthevin, Sainte-Suzanne</desc>
    </path><path class="circo" id="053-03" d="M 601.23873,500.44604 601.26503,499.24562 600.90273,496.56217 599.99563,495.073 599.97533,495.47941 599.57243,495.43119 598.73503,496.29381 598.74013,497.0949 598.36773,497.25554 597.54653,497.4199 597.06913,496.81309 595.90573,497.14272 595.20053,496.73847 594.55723,497.30593 594.34993,498.1574 595.99383,499.63216 592.54573,501.42087 591.82203,501.37244 591.05963,500.68066 590.60783,499.94293 590.72743,497.77155 589.40563,497.79014 587.76353,499.11643 587.26553,497.38452 587.48453,497.03092 586.97763,496.40421 585.73323,495.20009 584.95133,493.61414 583.71573,493.149 580.68363,493.99396 578.80923,493.24367 578.31673,491.65032 576.60283,491.45746 575.76623,491.18169 575.05673,491.69702 574.91763,492.99146 574.07533,493.99871 571.59333,494.73801 570.83993,494.23459 566.68253,491.36122 566.49903,492.00869 565.88203,492.24631 566.11193,492.61582 565.47783,493.19069 565.26773,494.47829 565.59123,496.55589 566.35093,497.57912 566.13743,498.42274 566.29283,499.58666 565.02743,500.78458 564.82633,501.63765 565.19673,503.33321 565.17733,503.78303 565.06853,503.92596 567.35873,508.59282 567.03683,508.81576 566.33483,510.34492 567.06973,510.71493 566.76983,512.41644 567.10483,513.68387 567.95053,515.15166 566.81223,517.38462 566.66453,517.52457 564.77173,519.42209 564.12393,520.61139 563.88633,522.40623 563.35173,522.9818 563.45883,525.16063 564.99503,529.22014 564.44083,530.42692 564.88553,531.05088 565.52573,531.64737 565.19653,534.26186 565.56233,536.89569 566.39183,536.99865 566.80563,541.20325 567.34653,543.6786 567.66983,545.77203 568.41793,547.23657 569.67933,548.28497 570.01893,548.46814 569.44733,549.40632 569.02563,550.63684 569.45863,552.27587 568.99403,553.02004 570.02603,554.94731 570.29893,556.9702 570.00063,557.74775 569.26073,558.11979 569.42533,558.52914 570.70933,558.80678 571.63323,561.25975 573.31943,561.54133 573.66683,560.28479 576.30783,560.04074 576.99923,559.47173 577.89783,560.06068 578.20643,559.86678 578.58773,559.66703 578.45303,558.81211 579.59343,556.07706 580.01463,555.33603 578.51833,554.7877 577.99243,552.76974 577.97983,552.7475 579.21303,552.92991 580.39713,551.65468 581.19253,551.29576 581.85843,549.68752 582.28843,549.60434 581.13033,548.47323 580.69703,547.26024 581.53103,547.34739 581.83563,547.03428 580.93383,545.6379 581.11783,545.24352 583.26283,545.08736 583.74253,544.37576 583.76963,543.07965 582.97693,541.55394 583.78733,541.38 583.94243,540.99262 583.38583,539.45713 583.58773,539.09141 584.78683,539.42286 585.33653,538.4435 585.19683,537.68582 586.37013,537.22113 588.48363,537.04745 590.76903,538.09888 591.51183,537.88535 591.78633,536.24679 593.82703,536.48701 593.13983,535.34177 593.89363,533.73037 594.65143,533.28899 595.12083,533.99147 596.35883,534.41292 596.52353,535.65557 597.55003,536.40966 597.58533,536.84535 597.44283,537.2986 598.92043,537.82037 599.29663,537.66735 599.28393,536.45809 598.80153,535.808 599.32693,535.1669 603.20423,535.64346 603.91673,535.40512 604.35723,536.05295 605.20913,535.96106 606.34553,536.56335 608.05113,536.67167 607.96023,535.39467 607.17823,534.4555 608.08223,533.05248 608.18623,532.61819 607.40723,531.54637 607.06933,530.25548 606.84403,529.10073 607.55233,527.68929 609.27723,527.66849 610.64743,526.58832 611.57593,525.61533 611.45853,524.73182 610.89973,524.02911 610.92403,522.69971 611.79823,521.91274 612.91723,522.29168 613.15833,521.96 614.00833,522.95039 615.73263,523.27972 618.46303,521.92181 619.09643,521.5076 619.31543,520.82153 620.27713,520.64729 621.14073,519.6881 621.40073,518.08536 622.47303,517.37708 623.36583,516.81584 624.66223,515.81148 625.29953,512.06814 627.89703,512.52401 629.64393,511.21528 630.14243,512.4245 630.63263,511.92692 630.51993,510.7418 630.89023,508.88027 630.66803,508.56697 631.12273,508.11915 630.78433,506.86663 631.63203,505.91809 631.25903,505.13243 633.17713,504.2866 632.65423,502.01892 631.64453,500.66874 631.58993,500.24293 633.12993,498.81458 633.51183,498.61873 634.68633,499.02812 634.87813,497.25772 635.94933,495.98632 636.79233,495.88232 637.53473,496.24893 639.25033,494.61193 639.02203,493.44097 642.22083,493.06189 642.68143,491.44924 644.49023,490.62102 644.55693,489.77484 641.61183,487.99101 640.55153,486.70341 640.19983,486.15918 639.22373,485.31088 638.07593,485.60757 636.83683,485.2202 636.22373,484.60712 635.65813,486.13824 634.96283,486.66759 634.69883,487.03009 636.18813,488.5799 635.52683,489.73274 634.03483,490.68441 633.76623,492.38001 632.59883,492.22643 632.54803,491.38983 632.18993,491.17143 630.58663,490.98445 629.62753,490.39399 628.37513,492.17074 628.21763,493.02533 626.77573,493.78552 626.82983,495.41721 625.75353,494.93321 625.56083,494.21971 624.90883,493.83644 623.41323,493.19851 623.52763,492.4566 623.04683,491.98752 622.38153,492.50959 620.68443,492.39142 620.76733,492.28506 618.86243,491.4196 618.53563,491.69163 617.22753,491.72949 616.20063,493.13463 614.97093,493.06433 613.55743,492.20179 612.76363,493.65006 611.38023,494.42019 609.82893,496.80309 609.41793,496.90476 608.88553,496.30419 608.25793,497.32105 606.42463,497.07554 606.33073,496.8604 604.68863,498.38685 601.23873,500.44604 z">
      <title id="t249">Troisième circonscription de la Mayenne</title>
      <desc id="d249">Cantons de : Ambrières-les-Vallées, Chailland, Couptrain, Ernée, Gorron, Le Horps, Landivy, Lassay-les-Châteaux, Loiron, Mayenne Est, Mayenne Ouest</desc>
    </path></svg>