<svg xmlns="http://www.w3.org/2000/svg" version="1.1" xmlns:xlink="http://www.w3.org/1999/xlink" xmlns:svgjs="http://svgjs.dev/svgjs" viewBox="0 0 100.94479999999999 106.33914000000004"><path class="circo" id="id-053-01" d="M41.5779 69.43979000000002L40.13979999999992 67.50321999999994L37.209299999999985 67.99456999999995L36.25569999999993 67.51847999999995L37.35799999999995 65.66781000000003L36.82009999999991 64.98234000000002L36.9067 63.772500000000036L37.36799999999994 63.84793000000002L37.858499999999935 63.63153L39.67930000000001 63.55718000000002L39.66319999999996 62.10463000000004L39.24649999999997 61.19595000000004L35.80939999999998 61.79021L34.42139999999995 60.83506L32.89689999999996 58.87188000000003L32.17539999999997 58.472530000000006L31.3827 56.94682L32.19309999999996 56.77287999999999L32.348199999999906 56.38549999999998L31.791600000000017 54.85001L31.993499999999926 54.48428999999999L33.19259999999997 54.815740000000005L33.7423 53.83637999999996L33.60259999999994 53.078700000000026L34.77589999999998 52.61401000000001L36.88939999999991 52.44033000000002L39.174800000000005 53.49176L39.91759999999999 53.27823000000001L40.19209999999998 51.639670000000024L42.2328 51.879890000000046L41.54559999999992 50.73464999999999L42.29939999999999 49.123249999999985L43.057199999999966 48.68187L43.52659999999992 49.38435000000004L44.76459999999997 49.80579999999998L44.92930000000001 51.04845L45.955799999999954 51.80254000000002L45.99109999999996 52.238230000000044L45.84859999999992 52.691479999999956L47.32619999999997 53.213250000000016L47.70240000000001 53.06023000000005L47.689700000000016 51.85096999999996L47.20729999999992 51.200879999999984L47.73269999999991 50.559780000000046L51.610000000000014 51.036339999999996L52.32249999999999 50.798L52.76299999999992 51.44583L53.61489999999992 51.353939999999966L54.751300000000015 51.956230000000005L56.456899999999905 52.06454999999994L56.365999999999985 50.78755000000001L55.583999999999946 49.84838000000002L56.48799999999994 48.44535999999994L56.591999999999985 48.01107000000002L55.81299999999999 46.939250000000015L55.4751 45.648360000000025L55.24979999999994 44.49360999999999L55.958099999999945 43.08217000000002L57.68299999999999 43.06137000000001L59.05319999999995 41.981199999999944L59.98169999999993 41.00820999999996L59.86429999999996 40.12469999999996L59.30549999999994 39.42198999999994L59.32979999999998 38.09258999999997L60.20399999999995 37.305619999999976L61.32299999999998 37.68456000000003L61.56409999999994 37.35288000000003L62.41409999999996 38.34326999999996L64.13839999999993 38.67259999999999L66.86879999999996 37.31469000000004L67.50220000000002 36.900480000000016L67.72119999999995 36.21441000000004L68.68290000000002 36.04016999999999L69.54649999999992 35.080979999999954L69.80649999999991 33.47824000000003L70.87879999999996 32.76995999999997L71.77159999999992 32.20871999999997L73.06799999999998 31.20435999999995L73.70529999999997 27.461019999999962L76.30279999999993 27.916889999999967L78.04969999999992 26.608159999999998L78.54819999999995 27.817379999999957L79.03839999999991 27.319799999999987L78.9257 26.134680000000003L79.29599999999994 24.273149999999987L79.0738 23.959850000000017L79.52850000000001 23.51202999999998L79.19009999999992 22.259509999999977L80.03779999999995 21.310969999999998L79.66480000000001 20.52530999999999L81.5829 19.679480000000012L81.05999999999995 17.41179999999997L80.0503 16.061620000000005L79.99569999999994 15.635809999999992L81.5356999999999 14.20745999999997L81.9176 14.011610000000019L83.09209999999996 14.420999999999992L83.28390000000002 12.650599999999997L84.3551 11.379199999999969L85.19809999999995 11.275199999999984L85.94049999999993 11.641809999999964L87.65609999999992 10.004809999999964L87.42779999999993 8.833849999999984L90.62659999999994 8.454769999999996L91.01839999999993 8.347649999999987L91.88059999999996 9.204700000000003L92.04099999999994 9.993909999999971L92.4896 11.42831000000001L92.20510000000002 11.685659999999984L92.66279999999995 12.369190000000003L92.59359999999992 14.013149999999996L93.53749999999991 14.77870999999999L96.05239999999992 15.393100000000004L98.4253 15.177410000000009L98.83569999999997 15.111800000000017L99.14239999999995 14.360119999999995L99.93759999999997 14.305000000000007L100.94479999999999 15.064250000000015L100.56059999999991 17.627409999999998L100.35989999999993 17.819819999999993L100.69329999999991 22.376010000000008L100.37979999999993 23.06813999999997L100.6191 23.848250000000007L100.14729999999997 24.424159999999972L99.36099999999999 24.379999999999995L98.55689999999993 25.358419999999967L97.40800000000002 24.793990000000008L95.72019999999998 24.840949999999964L95.26549999999997 25.606650000000002L93.6671 26.315330000000017L93.96799999999996 28.49167L94.86539999999991 29.438139999999976L92.66819999999996 28.692069999999944L92.02139999999997 29.16818999999998L91.8241999999999 29.922249999999963L92.08899999999994 32.53606000000002L92.64069999999992 32.55894000000001L93.15839999999992 33.25868000000003L93.4722999999999 34.980050000000006L92.68229999999994 35.99865L92.41559999999993 37.22158000000002L92.50630000000001 37.36857999999995L91.26469999999995 39.55146000000002L91.57249999999999 42.14954L92.8945 44.30632000000003L92.28949999999998 45.33570999999995L92.77289999999994 46.461490000000026L91.25220000000002 47.14954L90.06399999999996 48.32627000000002L89.45169999999996 49.21210999999994L85.58219999999994 51.10439999999994L84.28969999999993 52.18025L83.98569999999995 52.46479999999997L84.14779999999996 52.848209999999995L84.94849999999997 53.62643000000003L83.68009999999992 55.18970999999999L81.36669999999992 56.55092000000002L79.61429999999996 56.343219999999974L78.92409999999995 57.993709999999965L77.62789999999995 58.354510000000005L77.17369999999994 56.85094000000004L76.03649999999993 55.69943999999998L74.36770000000001 55.720069999999964L73.51289999999995 58.09518000000003L72.00540000000001 58.90867000000003L70.87519999999995 59.554809999999975L70.03039999999999 59.71073000000001L69.8401 59.379530000000045L68.37659999999994 59.79180999999994L66.28980000000001 59.981840000000034L65.12299999999993 59.56894L63.98439999999994 60.03427999999997L63.36169999999993 60.27394000000004L63.04480000000001 61.37932999999998L60.982099999999946 63.508910000000014L61.80539999999996 64.78979000000004L61.90769999999998 66.86307999999997L59.26529999999991 66.27360999999996L58.11399999999992 67.46520999999996L57.76080000000002 67.20280000000002L57.836900000000014 65.89708999999993L57.559999999999945 65.55565000000001L55.47919999999999 65.98585000000003L54.74000000000001 67.53944999999999L53.61979999999994 66.86002999999994L52.011699999999905 67.02786000000003L50.83139999999992 68.08100999999999L49.672199999999975 70.44757000000004L49.752899999999954 70.88571000000002L52.29729999999995 71.57043999999996L52.276700000000005 73.21480999999994L50.406099999999924 73.86652000000004L47.1191 75.76769000000002L46.32999999999993 75.72007999999994L46.03639999999996 77.58897999999999L46.426199999999994 78.24648000000002L45.765199999999936 78.76354000000003L44.062599999999975 79.11482999999998L44.08479999999997 78.27566999999999L43.23479999999995 77.39297999999997L43.97280000000001 76.42817000000002L43.26789999999994 74.92416000000003L43.19959999999992 74.53836000000001L42.29869999999994 74.0136L42.437799999999925 71.45266000000004L41.5779 69.43979000000002z">
      <title id="t247">Première circonscription de la Mayenne</title>
      <desc id="d247">Cantons de : Argentré, Bais, Evron, Laval Est, Laval Nord-Est, Laval Saint-Nicolas, Laval Sud-Ouest, Montsûrs, Pré-en-Pail, Villaines-la-Juhel</desc>
    </path><path class="circo" id="id-053-02" d="M60.87459999999999 99.94109000000003L61.1934 102.00077999999996L59.9547 104.15121999999997L57.621399999999994 103.29844000000003L56.53869999999995 103.77017000000001L55.55790000000002 103.17579L53.33339999999998 106.04743999999994L50.32229999999993 105.89363000000003L49.68089999999995 106.33914000000004L48.316299999999956 105.40725999999995L46.61259999999993 105.54161999999997L44.965799999999945 105.02576999999997L44.183599999999956 105.39070000000004L43.06709999999998 105.26354000000003L42.335899999999924 105.57624999999996L41.52789999999993 105.29917999999998L40.68439999999998 103.86778000000004L40.279199999999946 103.73109999999997L38.664499999999975 104.21406000000002L38.16249999999991 103.07388000000003L36.25419999999997 102.29669999999999L35.88659999999993 101.55445999999995L34.24339999999995 101.75744999999995L33.87439999999992 101.92705000000001L33.91229999999996 103.94994999999994L32.163599999999974 103.21410000000003L29.332799999999907 102.40431000000001L29.343799999999987 101.97991000000002L29.10629999999992 101.12545L27.216699999999946 100.05102L26.037699999999973 98.73600999999996L26.055099999999925 99.54461000000003L25.649799999999914 99.57749999999999L24.454999999999927 98.48004000000003L23.672399999999925 98.37919L22.62379999999996 100.04646000000002L23.775699999999915 100.55612999999994L24.309499999999957 101.71128999999996L22.08319999999992 102.72158999999999L21.386499999999955 102.60298L20.266399999999976 102.42391999999995L19.712999999999965 101.95182999999997L18.939399999999978 101.79981999999995L18.475599999999986 101.10306000000003L17.38779999999997 101.56571999999994L16.556899999999928 101.40434000000005L13.873699999999985 101.17920000000004L13.826599999999985 101.14746000000002L12.976199999999949 100.92256999999995L12.359499999999912 100.29225999999994L8.375499999999988 99.80989999999997L8.569499999999948 100.86905999999999L8.308599999999956 101.11646999999994L6.224699999999984 100.58699000000001L5.135899999999992 99.85695999999996L3.8431999999999107 99.65885000000003L3.3062999999999647 98.51522L2.460299999999961 98.32213000000002L1.9724999999999682 97.59550999999999L0 96.64985999999999L0.4581999999999198 95.43406000000004L1.2835000000000036 95.50837000000001L1.8843999999999141 93.33761000000004L2.0463999999999487 92.53230999999994L1.3707999999999174 91.53766999999993L2.139499999999998 90.66981999999996L2.9945999999999913 90.71655999999996L4.172699999999963 89.34064000000001L3.4670999999999594 87.90715L3.4957999999999174 87.07404999999994L3.918299999999931 86.38549L5.276700000000005 85.53635999999995L5.315799999999967 83.85892999999999L5.916899999999941 83.28531999999996L6.385299999999916 81.68534L6.043799999999919 80.91336000000001L6.692900000000009 80.27301L6.541999999999916 78.53129000000001L6.975099999999998 77.07055000000003L7.611499999999978 76.59295999999995L9.211399999999912 76.21132L9.856199999999944 74.26989000000003L11.112899999999968 73.96952999999996L12.347399999999993 74.14327000000003L13.56110000000001 74.53683999999998L14.401299999999992 74.72225000000003L15.974999999999909 74.50827000000004L17.666499999999928 73.51266999999996L17.831099999999992 73.92201999999997L19.115099999999984 74.19966L20.038999999999987 76.65263000000004L21.725199999999973 76.93421000000001L22.072599999999966 75.67767000000003L24.71359999999993 75.43362000000002L25.404999999999973 74.86460999999997L26.30359999999996 75.45356000000004L26.612199999999916 75.25965999999994L26.993499999999926 75.05990999999995L26.858799999999974 74.20498999999995L27.999199999999973 71.46993999999995L28.420399999999972 70.72891000000004L26.924099999999953 70.18057999999996L26.398199999999974 68.16261999999995L26.385599999999954 68.14037999999994L27.618799999999965 68.32278999999994L28.80289999999991 67.04755999999998L29.598299999999995 66.68863999999996L30.26419999999996 65.08039999999994L30.69419999999991 64.99721999999997L29.53609999999992 63.866109999999935L29.102800000000002 62.653119999999944L29.93679999999995 62.74027000000001L30.2414 62.42715999999996L29.339599999999905 61.030779999999936L29.523599999999988 60.63639999999998L31.66859999999997 60.48023999999998L32.14829999999995 59.768640000000005L32.17539999999997 58.472530000000006L32.89689999999996 58.87188000000003L34.42139999999995 60.83506L35.80939999999998 61.79021L39.24649999999997 61.19595000000004L39.66319999999996 62.10463000000004L39.67930000000001 63.55718000000002L37.858499999999935 63.63153L37.36799999999994 63.84793000000002L36.9067 63.772500000000036L36.82009999999991 64.98234000000002L37.35799999999995 65.66781000000003L36.25569999999993 67.51847999999995L37.209299999999985 67.99456999999995L40.13979999999992 67.50321999999994L41.5779 69.43979000000002L42.437799999999925 71.45266000000004L42.29869999999994 74.0136L43.19959999999992 74.53836000000001L43.26789999999994 74.92416000000003L43.97280000000001 76.42817000000002L43.23479999999995 77.39297999999997L44.08479999999997 78.27566999999999L44.062599999999975 79.11482999999998L45.765199999999936 78.76354000000003L46.426199999999994 78.24648000000002L46.03639999999996 77.58897999999999L46.32999999999993 75.72007999999994L47.1191 75.76769000000002L50.406099999999924 73.86652000000004L52.276700000000005 73.21480999999994L52.29729999999995 71.57043999999996L49.752899999999954 70.88571000000002L49.672199999999975 70.44757000000004L50.83139999999992 68.08100999999999L52.011699999999905 67.02786000000003L53.61979999999994 66.86002999999994L54.74000000000001 67.53944999999999L55.47919999999999 65.98585000000003L57.559999999999945 65.55565000000001L57.836900000000014 65.89708999999993L57.76080000000002 67.20280000000002L58.11399999999992 67.46520999999996L59.26529999999991 66.27360999999996L61.90769999999998 66.86307999999997L61.80539999999996 64.78979000000004L60.982099999999946 63.508910000000014L63.04480000000001 61.37932999999998L63.36169999999993 60.27394000000004L63.98439999999994 60.03427999999997L65.12299999999993 59.56894L66.28980000000001 59.981840000000034L68.37659999999994 59.79180999999994L69.8401 59.379530000000045L70.03039999999999 59.71073000000001L70.87519999999995 59.554809999999975L72.00540000000001 58.90867000000003L73.51289999999995 58.09518000000003L74.36770000000001 55.720069999999964L76.03649999999993 55.69943999999998L77.17369999999994 56.85094000000004L77.62789999999995 58.354510000000005L78.92409999999995 57.993709999999965L79.61429999999996 56.343219999999974L81.36669999999992 56.55092000000002L83.68009999999992 55.18970999999999L84.43430000000001 55.28817000000004L84.75699999999995 56.40917999999999L86.30199999999991 56.94784000000004L86.32589999999993 57.67502000000002L86.86699999999996 58.160870000000045L86.69269999999995 59.02094999999997L85.3087999999999 60.11865999999998L85.2296 60.55621999999994L85.17250000000001 61.872029999999995L86.26649999999995 62.587980000000016L86.04429999999991 63.44377999999995L85.62369999999999 65.05916000000002L84.86559999999997 64.67328999999995L81.94389999999999 64.36243000000002L80.93779999999992 65.13406999999995L81.21609999999998 65.40189999999996L80.85149999999999 65.66679999999997L78.35399999999993 66.72792000000004L77.17319999999995 66.15369999999996L76.3107 66.95640000000003L76.82319999999993 68.44266000000005L76.51049999999998 71.01429999999993L78.98919999999998 71.84460999999999L79.02889999999991 71.83825999999999L78.69509999999991 72.42099999999994L78.73079999999993 73.27424999999994L79.793 75.52427999999998L79.7145999999999 76.78998999999999L80.74379999999996 77.47067000000004L81.43809999999996 77.91278L81.4097999999999 78.32782999999995L79.93790000000001 79.74045000000001L78.7613 80.13508000000002L78.05419999999992 80.77062999999998L77.17649999999992 80.59973000000002L76.46379999999999 81.12586999999996L72.54199999999992 81.33570999999995L71.85469999999998 81.78137000000004L71.45299999999997 82.93096000000003L70.16089999999997 83.23941000000002L70.70089999999993 83.92994999999996L70.9094 85.20366999999999L70.31499999999994 85.83581000000004L71.8845 86.22019L72.00189999999998 86.62165000000005L73.22219999999993 86.86148000000003L73.72949999999992 88.40266999999994L73.12389999999994 89.46519999999998L73.38139999999999 90.61940000000004L70.23079999999993 90.61711000000003L70.31919999999991 92.00999000000002L69.08619999999996 91.66763000000003L68.49270000000001 92.75229000000002L67.18059999999991 93.85919000000001L67.76519999999994 94.43592999999998L68.35649999999998 96.76846L69.8089 97.57614999999998L72.25639999999999 97.24116000000004L72.34619999999995 97.37416999999994L72.94669999999996 100.14892999999995L73.30679999999995 102.22765000000004L72.80859999999996 102.90178000000003L72.61519999999996 102.06831L70.43529999999998 100.69375000000002L70.00559999999996 100.63366999999994L70.40069999999992 102.31427999999994L68.77350000000001 102.06147999999996L66.66929999999991 103.32347000000004L66.01319999999998 102.21311000000003L64.43239999999992 100.82440999999994L62.146799999999985 99.80331999999999L61.062599999999975 99.61924999999997L60.87459999999999 99.94109000000003z">
      <title id="t248">Deuxième circonscription de la Mayenne</title>
      <desc id="d248">Cantons de : Bierné, Château-Gontier Est, Château-Gontier Ouest, Cossé-le-Vivien, Craon, Grez-en-Bouère, Laval Nord-Ouest, Meslay-du-Maine, Saint-Aignan-sur-Roë, Saint-Berthevin, Sainte-Suzanne</desc>
    </path><path class="circo" id="id-053-03" d="M49.644499999999994 15.838919999999973L49.670799999999986 14.638499999999965L49.30849999999998 11.955049999999972L48.40139999999997 10.46587999999997L48.38109999999995 10.872289999999964L47.978200000000015 10.824070000000006L47.14080000000001 11.686689999999999L47.14589999999998 12.487779999999987L46.77350000000001 12.648419999999987L45.95229999999992 12.812779999999975L45.474899999999934 12.20596999999998L44.31149999999991 12.535599999999988L43.60629999999992 12.131349999999998L42.962999999999965 12.69880999999998L42.75569999999993 13.550279999999987L44.399599999999964 15.02503999999999L40.95150000000001 16.81374999999997L40.2278 16.765319999999974L39.46539999999993 16.07353999999998L39.0136 15.33580999999998L39.13319999999999 13.164429999999982L37.811399999999935 13.183019999999999L36.16929999999991 14.50930999999997L35.671299999999974 12.7774L35.89029999999991 12.423799999999972L35.38339999999994 11.797089999999969L34.13900000000001 10.59296999999998L33.357099999999946 9.007020000000011L32.12149999999997 8.541879999999992L29.089399999999955 9.386840000000007L27.214999999999918 8.63655L26.722499999999968 7.043200000000013L25.0086 6.850340000000017L24.171999999999912 6.574569999999994L23.462499999999977 7.0899L23.323399999999992 8.384340000000009L22.48109999999997 9.391590000000008L19.9991 10.130889999999965L19.245699999999943 9.627470000000017L15.088300000000004 6.754099999999994L14.90479999999991 7.401569999999992L14.287799999999947 7.639189999999985L14.51769999999999 8.008699999999976L13.883600000000001 8.583570000000009L13.67349999999999 9.871170000000006L13.996999999999957 11.948769999999968L14.75669999999991 12.97199999999998L14.543199999999956 13.815619999999967L14.698599999999942 14.979539999999986L13.433199999999943 16.177459999999996L13.232099999999946 17.03053L13.602499999999964 18.72609L13.583099999999945 19.175909999999988L13.474299999999971 19.318839999999966L15.764499999999998 23.98570000000001L15.44259999999997 24.208640000000003L14.740599999999972 25.737799999999993L15.475500000000011 26.107809999999972L15.175599999999918 27.809319999999957L15.510599999999954 29.076749999999947L16.35629999999992 30.544539999999984L15.217999999999961 32.77750000000003L15.070299999999975 32.91745000000003L13.177500000000009 34.81497000000002L12.529699999999934 36.00427000000002L12.292100000000005 37.79911000000004L11.757499999999936 38.37468000000001L11.864599999999996 40.55350999999996L13.400800000000004 44.613020000000006L12.846599999999967 45.81979999999999L13.291299999999978 46.44376L13.931499999999915 47.040250000000015L13.602300000000014 49.65473999999995L13.968099999999936 52.288569999999936L14.797599999999989 52.39152999999999L15.211399999999912 56.59613000000002L15.752299999999991 59.07147999999995L16.07560000000001 61.16490999999996L16.823699999999917 62.62945000000002L18.08510000000001 63.677850000000035L18.424699999999916 63.86101999999994L17.853099999999927 64.79920000000004L17.43139999999994 66.02972L17.864399999999932 67.66875000000005L17.399799999999914 68.41291999999999L18.431799999999953 70.34019L18.704700000000003 72.36307999999997L18.406399999999962 73.14062999999999L17.666499999999928 73.51266999999996L17.831099999999992 73.92201999999997L19.115099999999984 74.19966L20.038999999999987 76.65263000000004L21.725199999999973 76.93421000000001L22.072599999999966 75.67767000000003L24.71359999999993 75.43362000000002L25.404999999999973 74.86460999999997L26.30359999999996 75.45356000000004L26.612199999999916 75.25965999999994L26.993499999999926 75.05990999999995L26.858799999999974 74.20498999999995L27.999199999999973 71.46993999999995L28.420399999999972 70.72891000000004L26.924099999999953 70.18057999999996L26.398199999999974 68.16261999999995L26.385599999999954 68.14037999999994L27.618799999999965 68.32278999999994L28.80289999999991 67.04755999999998L29.598299999999995 66.68863999999996L30.26419999999996 65.08039999999994L30.69419999999991 64.99721999999997L29.53609999999992 63.866109999999935L29.102800000000002 62.653119999999944L29.93679999999995 62.74027000000001L30.2414 62.42715999999996L29.339599999999905 61.030779999999936L29.523599999999988 60.63639999999998L31.66859999999997 60.48023999999998L32.14829999999995 59.768640000000005L32.17539999999997 58.472530000000006L31.3827 56.94682L32.19309999999996 56.77287999999999L32.348199999999906 56.38549999999998L31.791600000000017 54.85001L31.993499999999926 54.48428999999999L33.19259999999997 54.815740000000005L33.7423 53.83637999999996L33.60259999999994 53.078700000000026L34.77589999999998 52.61401000000001L36.88939999999991 52.44033000000002L39.174800000000005 53.49176L39.91759999999999 53.27823000000001L40.19209999999998 51.639670000000024L42.2328 51.879890000000046L41.54559999999992 50.73464999999999L42.29939999999999 49.123249999999985L43.057199999999966 48.68187L43.52659999999992 49.38435000000004L44.76459999999997 49.80579999999998L44.92930000000001 51.04845L45.955799999999954 51.80254000000002L45.99109999999996 52.238230000000044L45.84859999999992 52.691479999999956L47.32619999999997 53.213250000000016L47.70240000000001 53.06023000000005L47.689700000000016 51.85096999999996L47.20729999999992 51.200879999999984L47.73269999999991 50.559780000000046L51.610000000000014 51.036339999999996L52.32249999999999 50.798L52.76299999999992 51.44583L53.61489999999992 51.353939999999966L54.751300000000015 51.956230000000005L56.456899999999905 52.06454999999994L56.365999999999985 50.78755000000001L55.583999999999946 49.84838000000002L56.48799999999994 48.44535999999994L56.591999999999985 48.01107000000002L55.81299999999999 46.939250000000015L55.4751 45.648360000000025L55.24979999999994 44.49360999999999L55.958099999999945 43.08217000000002L57.68299999999999 43.06137000000001L59.05319999999995 41.981199999999944L59.98169999999993 41.00820999999996L59.86429999999996 40.12469999999996L59.30549999999994 39.42198999999994L59.32979999999998 38.09258999999997L60.20399999999995 37.305619999999976L61.32299999999998 37.68456000000003L61.56409999999994 37.35288000000003L62.41409999999996 38.34326999999996L64.13839999999993 38.67259999999999L66.86879999999996 37.31469000000004L67.50220000000002 36.900480000000016L67.72119999999995 36.21441000000004L68.68290000000002 36.04016999999999L69.54649999999992 35.080979999999954L69.80649999999991 33.47824000000003L70.87879999999996 32.76995999999997L71.77159999999992 32.20871999999997L73.06799999999998 31.20435999999995L73.70529999999997 27.461019999999962L76.30279999999993 27.916889999999967L78.04969999999992 26.608159999999998L78.54819999999995 27.817379999999957L79.03839999999991 27.319799999999987L78.9257 26.134680000000003L79.29599999999994 24.273149999999987L79.0738 23.959850000000017L79.52850000000001 23.51202999999998L79.19009999999992 22.259509999999977L80.03779999999995 21.310969999999998L79.66480000000001 20.52530999999999L81.5829 19.679480000000012L81.05999999999995 17.41179999999997L80.0503 16.061620000000005L79.99569999999994 15.635809999999992L81.5356999999999 14.20745999999997L81.9176 14.011610000000019L83.09209999999996 14.420999999999992L83.28390000000002 12.650599999999997L84.3551 11.379199999999969L85.19809999999995 11.275199999999984L85.94049999999993 11.641809999999964L87.65609999999992 10.004809999999964L87.42779999999993 8.833849999999984L90.62659999999994 8.454769999999996L91.08719999999994 6.842119999999966L92.89599999999996 6.013899999999978L92.96269999999993 5.167719999999974L90.01760000000002 3.383890000000008L88.95729999999992 2.0962900000000104L88.60559999999998 1.5520599999999831L87.62950000000001 0.7037599999999884L86.48169999999993 1.0004500000000007L85.24259999999992 0.6130799999999681L84.62950000000001 0L84.06389999999999 1.5311199999999872L83.36860000000001 2.0604700000000093L83.1046 2.422969999999964L84.59389999999996 3.97278L83.93259999999998 5.125619999999969L82.44060000000002 6.077290000000005L82.17199999999991 7.772890000000018L81.00459999999998 7.6193099999999845L80.9538 6.782710000000009L80.59569999999997 6.564309999999978L78.99239999999998 6.377329999999972L78.03329999999994 5.786869999999965L76.78089999999997 7.563620000000014L76.62339999999995 8.418209999999988L75.18149999999991 9.17840000000001L75.23559999999998 10.810090000000002L74.15929999999992 10.326089999999965L73.96659999999997 9.612590000000012L73.31459999999993 9.229319999999973L71.81899999999996 8.59138999999999L71.9334 7.849479999999971L71.45259999999996 7.380400000000009L70.78729999999996 7.902469999999994L69.09019999999998 7.784299999999973L69.17309999999998 7.677939999999978L67.26819999999998 6.812479999999994L66.94139999999993 7.084509999999966L65.63329999999996 7.122369999999989L64.60640000000001 8.527510000000007L63.376699999999914 8.457209999999975L61.963199999999915 7.594670000000008L61.169399999999996 9.042939999999987L59.785999999999945 9.813069999999982L58.234699999999975 12.195969999999988L57.82369999999992 12.297640000000001L57.29129999999998 11.697069999999997L56.66369999999995 12.713930000000005L54.83039999999994 12.46841999999998L54.73649999999998 12.253280000000018L53.09439999999995 13.779729999999972L49.644499999999994 15.838919999999973z">
      <title id="t249">Troisième circonscription de la Mayenne</title>
      <desc id="d249">Cantons de : Ambrières-les-Vallées, Chailland, Couptrain, Ernée, Gorron, Le Horps, Landivy, Lassay-les-Châteaux, Loiron, Mayenne Est, Mayenne Ouest</desc>
    </path></svg>