<svg xmlns="http://www.w3.org/2000/svg" version="1.1" xmlns:xlink="http://www.w3.org/1999/xlink" xmlns:svgjs="http://svgjs.dev/svgjs" viewBox="1072.4048 348.42161 82.0030999999999 156.53475000000003"><path class="circo" id="id-055-01" d="M 1081.5426,478.07911 1082.217,476.04576 1081.4087,474.55869 1081.2494,473.00089 1082.7999,471.77004 1082.4923,470.19522 1080.8767,469.63402 1081.0669,468.82335 1082.4046,467.77626 1081.7986,466.29026 1082.9401,466.70749 1083.2206,466.40297 1082.3847,464.86667 1082.6441,462.29568 1080.9742,462.21164 1080.2758,461.74862 1080.2134,461.37941 1077.9354,458.83993 1077.5472,458.53788 1076.3759,456.76028 1076.2822,455.95122 1075.4684,455.72001 1072.7962,455.12942 1072.7591,455.03444 1072.5127,454.69067 1073.05,453.57159 1072.4048,452.51557 1073.6082,451.15545 1074.5164,450.32955 1076.3771,449.50832 1076.5379,448.52579 1075.7893,448.14834 1075.3353,446.61583 1074.4019,445.76661 1074.4735,445.34403 1075.3206,443.3067 1075.0685,442.50966 1074.5155,442.11945 1074.7033,441.83899 1075.0648,441.03699 1076.0937,440.17915 1076.438,438.95549 1077.957,437.821 1078.2275,438.19324 1079.5925,438.08533 1081.6013,437.02795 1082.9525,437.06586 1083.0616,435.92199 1084.4906,434.79086 1085.0698,432.22731 1084.4053,431.64286 1081.4708,431.1472 1082.4906,429.8274 1084.5494,429.50961 1084.5444,428.70893 1085.0484,427.50629 1084.8899,426.20933 1084.8582,425.95203 1082.7113,424.37976 1079.0311,426.15359 1078.922,426.09721 1081.8911,422.32465 1082.3486,421.11369 1082.6886,419.68362 1083.8017,419.52415 1084.5629,420.37463 1086.0632,421.30036 1089.0336,420.54289 1088.7622,421.3023 1089.3148,422.44981 1090.573,422.50778 1092.3267,422.21882 1093.3789,421.42138 1095.4937,420.70661 1095.4669,421.13522 1097.4974,423.1046 1100.2111,422.06279 1100.42,421.24964 1101.5163,421.15702 1101.5957,421.39492 1101.1202,422.12699 1101.292,423.41972 1102.0773,424.48245 1101.6521,425.21209 1101.5747,425.27289 1100.1813,425.99493 1099.6954,426.65987 1099.7098,427.56137 1100.1352,427.72608 1100.8157,429.90266 1101.5984,429.6288 1103.165,430.03 1103.1533,431.09475 1104.4662,429.99516 1106.9392,430.74607 1107.7822,430.56564 1108.9012,432.4639 1109.2496,432.74554 1110.0804,432.46027 1110.3437,432.82336 1110.8822,434.01698 1112.3409,433.11936 1112.9405,432.79953 1114.9866,432.50948 1116.6881,431.94163 1118.9617,429.74747 1120.5608,428.92077 1119.68,427.29855 1119.8629,426.94746 1120.6109,427.23077 1122.1058,426.71676 1122.6471,425.53968 1121.7154,424.65903 1122.9679,423.50984 1125.0621,423.49221 1126.7074,423.18552 1127.433,423.55769 1129.1126,423.59452 1131.3032,425.8705 1130.432,427.05711 1130.9,427.25306 1132.8684,426.89342 1133.0571,427.27159 1134.1087,428.48749 1134.5021,428.40145 1135.2555,428.21901 1136.9831,427.23932 1138.2504,426.86231 1139.6637,425.84561 1139.9962,424.61249 1142.0507,426.09526 1142.0232,426.52468 1142.7892,426.77029 1143.3246,426.18003 1143.9607,426.5484 1145.0311,426.12845 1146.196,425.50209 1147.9772,422.10209 1146.9935,422.84692 1145.187,421.12783 1145.1957,420.67405 1146.1527,419.26243 1147.8915,418.01001 1149.6963,419.28826 1150.5569,419.05041 1150.3675,420.64759 1150.7749,420.84179 1152.9273,420.31093 1153.1326,421.98497 1154.4079,423.63199 1152.6473,424.58811 1152.3802,425.32268 1151.6644,426.28606 1151.0577,428.17197 1151.3419,427.83117 1151.7488,427.9951 1151.6785,428.4332 1150.0948,430.54478 1150.2358,430.96238 1151.3763,431.43551 1152.4463,431.95989 1154.0417,433.89671 1153.8803,435.11861 1153.0558,435.11796 1152.5272,436.13075 1151.3265,436.32759 1149.8266,435.82686 1147.8772,438.56506 1145.7744,439.08718 1145.3593,439.84557 1145.8797,440.13142 1146.1928,440.13892 1146.2278,440.5312 1147.3153,442.44967 1148.8415,443.38426 1148.722,444.63746 1147.9449,444.90422 1146.9044,445.31068 1147.2613,447.04182 1147.7507,447.36714 1148.277,450.17071 1147.3408,453.8416 1146.3099,454.57762 1146.6672,455.52272 1148.034,454.74977 1147.8609,456.0187 1146.9857,456.14927 1144.7654,458.31798 1144.4363,459.13396 1145.0279,460.26059 1144.8462,460.66609 1142.9867,461.41603 1142.5556,461.8792 1143.4657,462.72605 1142.9802,463.38902 1144.0868,464.4653 1144.1691,464.56207 1145.706,465.85046 1146.8533,467.48931 1146.112,468.66291 1145.2867,471.10329 1145.5202,471.89694 1145.1455,473.17758 1145.8066,475.15304 1146.1499,475.73705 1146.5426,476.49168 1146.3241,477.75842 1146.5006,477.79584 1146.831,478.04941 1147.6287,477.80895 1149.0179,476.89732 1150.1614,477.2632 1149.6945,478.75234 1149.0044,479.57141 1146.8221,479.49441 1146.0217,479.68505 1144.8909,480.92392 1142.8911,481.625 1142.496,483.49191 1142.6322,483.92563 1142.6782,485.33888 1143.7968,486.46418 1145.1321,486.60659 1146.7066,487.39437 1147.8541,488.12248 1147.7874,488.54652 1147.0499,488.94692 1146.5447,490.58123 1146.6982,491.26472 1146.9004,493.7859 1145.9386,494.72441 1145.2814,496.38215 1144.9687,496.60667 1144.7819,497.71271 1142.6865,498.3566 1140.9435,498.02319 1140.4774,497.51913 1139.3541,496.98695 1137.696,497.02195 1137.3952,497.31067 1136.6469,496.94387 1136.4526,496.86925 1136.164,497.14003 1137.1656,498.35878 1137.0764,499.10105 1135.1557,499.89039 1134.5997,500.56623 1134.4553,502.21864 1134.1415,500.96281 1131.9553,500.7578 1131.1961,501.22304 1130.8769,502.05671 1130.0258,501.78332 1130.1414,501.37423 1129.532,500.84006 1128.0839,501.67301 1125.666,502.32061 1125.2044,503.97411 1125.5434,504.76888 1124.702,504.95636 1123.7637,504.09783 1122.9232,504.14394 1121.8168,503.47154 1121.3573,502.90488 1120.5782,503.26788 1119.7655,502.97059 1119.6183,502.56132 1119.2254,501.77192 1118.3455,501.74476 1116.669,500.31853 1116.197,499.08374 1116.376,497.77398 1115.9591,497.14503 1115.6976,496.77476 1113.9336,496.93823 1113.2587,496.34317 1113.1989,496.38177 1111.5662,495.64612 1109.6877,492.13982 1108.7944,492.25196 1107.8391,491.2932 1106.998,492.26748 1106.4386,491.9856 1106.2937,491.57718 1105.0352,491.49916 1101.3365,489.38721 1100.7267,489.93823 1099.9024,489.64136 1099.4624,488.52688 1098.4114,488.13121 1098.6082,487.34532 1096.5461,486.0007 1095.8915,484.94828 1094.7988,485.591 1094.0606,485.23215 1093.2894,484.26105 1092.6614,483.05211 1091.88,482.18003 1092.0142,481.04576 1089.9085,481.39881 1087.8349,481.0189 1086.9087,478.54238 1086.6775,476.33785 1086.2583,476.26325 1084.6586,478.75234 1082.4045,479.03108 1081.5426,478.07911 z">
      <title id="t256">Première circonscription de la Meuse</title>
      <desc id="d256">Cantons de : Ancerville, Bar-le-Duc Nord, Bar-le-Duc Sud, Commercy, Gondrecourt-le-Château, Ligny-en-Barrois, Montiers-sur-Saulx, Pierrefitte-sur-Aire, Revigny-sur-Ornain, Saint-Mihiel, Seuil-d'Argonne, Vaubecourt, Vaucouleurs, Vavincourt, Vigneulles-lès-Hattonchâtel, Void-Vacon</desc>
    </path><path class="circo" id="id-055-02" d="M 1076.9624,404.63115 1077.9223,406.6581 1078.8533,408.83817 1079.7228,411.64007 1080.0348,412.21114 1080.5617,412.98491 1081.5495,415.06196 1081.6706,416.90884 1082.1886,420.36049 1082.3486,421.11369 1082.6886,419.68362 1083.8017,419.52415 1084.5629,420.37463 1086.0632,421.30036 1089.0336,420.54289 1088.7622,421.3023 1089.3148,422.44981 1090.573,422.50778 1092.3267,422.21882 1093.3789,421.42138 1095.4937,420.70661 1095.4669,421.13522 1097.4974,423.1046 1100.2111,422.06279 1100.42,421.24964 1101.5163,421.15702 1101.5957,421.39492 1101.1202,422.12699 1101.292,423.41972 1102.0773,424.48245 1101.6521,425.21209 1101.5747,425.27289 1100.1813,425.99493 1099.6954,426.65987 1099.7098,427.56137 1100.1352,427.72608 1100.8157,429.90266 1101.5984,429.6288 1103.165,430.03 1103.1533,431.09475 1104.4662,429.99516 1106.9392,430.74607 1107.7822,430.56564 1108.9012,432.4639 1109.2496,432.74554 1110.0804,432.46027 1110.3437,432.82336 1110.8822,434.01698 1112.3409,433.11936 1112.9405,432.79953 1114.9866,432.50948 1116.6881,431.94163 1118.9617,429.74747 1120.5608,428.92077 1119.68,427.29855 1119.8629,426.94746 1120.6109,427.23077 1122.1058,426.71676 1122.6471,425.53968 1121.7154,424.65903 1122.9679,423.50984 1125.0621,423.49221 1126.7074,423.18552 1127.433,423.55769 1129.1126,423.59452 1131.3032,425.8705 1130.432,427.05711 1130.9,427.25306 1132.8684,426.89342 1133.0571,427.27159 1134.1087,428.48749 1134.5021,428.40145 1135.2555,428.21901 1136.9831,427.23932 1138.2504,426.86231 1139.6637,425.84561 1139.9962,424.61249 1142.0507,426.09526 1142.0232,426.52468 1142.7892,426.77029 1143.3246,426.18003 1143.9607,426.5484 1145.0311,426.12845 1146.196,425.50209 1147.9772,422.10209 1146.9935,422.84692 1145.187,421.12783 1145.1957,420.67405 1146.1527,419.26243 1147.8915,418.01001 1149.6963,419.28826 1150.5569,419.05041 1151.5057,417.67503 1151.8354,417.37508 1151.3798,414.47244 1150.525,414.43374 1147.938,414.39453 1148.0345,414.73085 1147.5295,415.21192 1146.4742,414.71578 1146.0472,414.06403 1145.4677,412.90347 1145.997,411.72413 1147.4649,410.73777 1146.12,410.40059 1146.4258,409.58363 1146.3716,409.13163 1145.5426,408.76708 1145.3061,407.91923 1146.953,403.23578 1146.2383,402.78243 1145.645,403.09984 1143.9379,403.53899 1143.3334,403.00072 1143.6138,402.68278 1143.0549,400.67722 1143.8032,399.66001 1144.8094,398.99138 1143.5102,397.08193 1143.1414,396.70132 1143.7843,395.53229 1143.4635,393.82582 1146.5391,392.5455 1147.1662,389.91698 1146.7087,388.01996 1146.205,388.00822 1145.5413,388.59952 1144.0854,388.46314 1143.1317,385.96573 1144.5236,384.81965 1144.705,383.90719 1144.5551,382.6262 1144.0456,381.92068 1142.4012,381.61148 1142.6264,380.43578 1142.0239,378.91555 1140.2809,377.65668 1140.8151,377.20505 1140.6931,376.55836 1140.665,374.86906 1139.834,374.94523 1139.3958,374.35451 1135.714,371.89134 1134.2374,372.87295 1134.2992,373.7683 1133.4742,373.90891 1133.4197,374.35607 1132.7357,373.80934 1131.5311,374.38312 1130.314,373.90251 1130.171,374.22697 1128.8266,374.45695 1127.0182,375.82853 1124.291,375.86707 1124.0754,377.57401 1123.0872,379.02249 1122.7455,379.12799 1122.1405,378.25402 1122.3974,377.45529 1121.2058,377.24632 1119.8408,376.31814 1119.8704,376.30848 1121.9625,375.63257 1122.5758,376.28392 1123.8466,375.91645 1124.9372,374.03123 1124.2074,373.65422 1123.874,373.93165 1121.9172,373.17656 1122.5775,372.56267 1123.1029,370.90878 1121.3129,369.96596 1121.9111,368.79244 1121.5626,368.61091 1121.3239,367.53786 1121.6547,366.29546 1121.2715,366.09398 1121.0793,365.82563 1120.6417,365.82497 1120.5836,366.25962 1119.4173,365.58213 1118.0705,365.57925 1118.7407,364.9611 1119.4317,363.29137 1121.356,365.07547 1121.4056,365.48059 1121.0875,365.81792 1121.2773,366.0869 1122.1319,366.04217 1122.8733,364.58186 1121.8889,364.12956 1121.4957,363.90537 1121.2526,362.59132 1119.8732,361.42417 1121.304,360.33498 1121.4087,359.01103 1119.4781,357.18175 1119.3764,356.93713 1119.7938,356.77335 1120.4393,355.12508 1119.2046,354.62231 1118.326,352.07994 1118.494,351.66191 1115.312,348.42161 1114.3048,349.91486 1113.9264,351.63083 1112.5899,351.70492 1111.834,352.13856 1110.7596,351.42508 1108.0556,355.53397 1108.3616,356.00011 1106.0306,356.90044 1105.4087,357.98261 1104.1913,358.28902 1103.2615,356.33767 1101.8088,355.61418 1101.7802,354.7155 1100.0625,354.20156 1098.9742,354.84028 1097.7497,354.63647 1096.9639,354.96938 1096.1946,355.42769 1095.4512,355.03019 1094.8568,353.72834 1094.2375,352.08021 1092.0364,351.62336 1091.315,352.18038 1090.8727,353.47914 1091.4956,355.63213 1091.0736,356.52321 1090.0274,356.1972 1089.4831,358.34771 1090.1667,359.35969 1089.4999,361.00438 1089.1311,361.10285 1088.4408,362.62182 1087.1784,362.7899 1086.9496,363.1487 1088.1962,365.50768 1088.6527,365.54915 1089.0455,366.30881 1088.9119,367.64263 1090.0044,368.94623 1090.4177,368.83272 1090.6051,368.97527 1091.1987,369.48855 1090.436,371.50414 1090.8837,373.22138 1091.6381,374.15105 1091.154,374.81836 1090.3026,375.03172 1089.0407,376.24094 1089.3961,377.02088 1090.7134,378.17501 1090.2602,379.80666 1089.3935,380.80599 1086.9783,380.55928 1086.4566,381.26507 1086.6049,382.13628 1084.1639,385.24427 1084.2829,385.66964 1084.3588,386.49369 1085.1034,387.77586 1084.4399,388.39182 1084.4779,388.82311 1085.4085,390.3195 1086.6747,390.75326 1086.9101,391.2248 1086.0858,392.05635 1086.2109,393.26992 1084.9211,393.63835 1084.0545,393.40151 1082.7979,393.89069 1081.7468,394.62407 1081.8519,395.0414 1079.1431,396.56004 1078.4818,397.70975 1077.6943,398.11282 1079.3815,398.28596 1079.9547,400.34055 1081.1684,401.50039 1080.0309,402.85125 1078.7173,403.17985 1076.9624,404.63115 z">
      <title id="t257">Deuxième circonscription de la Meuse</title>
      <desc id="d257">Cantons de : Charny-sur-Meuse, Clermont-en-Argonne, Damvillers, Dun-sur-Meuse, Etain, Fresnes-en-Woëvre, Montfaucon-d'Argonne, Montmédy, Souilly, Spincourt, Stenay, Varennes-en-Argonne, Verdun Centre, Verdun Est, Verdun Ouest</desc>
    </path></svg>