<svg xmlns="http://www.w3.org/2000/svg" version="1.1" xmlns:xlink="http://www.w3.org/1999/xlink" xmlns:svgjs="http://svgjs.dev/svgjs" viewBox="0 0 82.0030999999999 156.53475000000003"><path class="circo" id="id-055-01" d="M9.13779999999997 129.65750000000003L9.812200000000075 127.62414999999999L9.00389999999993 126.13708000000003L8.8445999999999 124.57928000000004L10.395099999999957 123.34843000000001L10.087499999999864 121.77361000000002L8.471900000000005 121.21241000000003L8.66210000000001 120.40174000000002L9.99980000000005 119.35464999999999L9.393800000000056 117.86865L10.535300000000007 118.28588000000002L10.815800000000081 117.98136L9.979900000000043 116.44506000000001L10.239299999999957 113.87407000000002L8.569400000000087 113.79003L7.870999999999867 113.32701000000003L7.8086000000000695 112.95780000000002L5.5306000000000495 110.41832L5.142399999999952 110.11626999999999L3.9710999999999785 108.33867000000004L3.8774000000000797 107.52960999999999L3.0635999999999513 107.29840000000002L0.391399999999976 106.70781L0.35429999999996653 106.61283000000003L0.10789999999997235 106.26906000000002L0.6451999999999316 105.14998000000003L0 104.09396000000004L1.2033999999998741 102.73383999999999L2.111599999999953 101.90794L3.9722999999999047 101.08671000000004L4.133100000000013 100.10417999999999L3.384499999999889 99.72673000000003L2.930499999999938 98.19422000000003L1.9971000000000458 97.34500000000003L2.0687000000000353 96.92241999999999L2.91579999999999 94.88508999999999L2.6637000000000626 94.08805000000001L2.1106999999999516 93.69783999999999L2.2984999999998763 93.41738000000004L2.660000000000082 92.61538000000002L3.688899999999876 91.75754L4.033200000000079 90.53388000000001L5.552200000000084 89.39939000000004L5.822699999999941 89.77163000000002L7.18769999999995 89.66372000000001L9.196500000000015 88.60633999999999L10.547700000000077 88.64425L10.656799999999976 87.50038L12.085800000000063 86.36925000000002L12.664999999999964 83.8057L12.000499999999874 83.22125L9.066000000000031 82.72559000000001L10.085800000000063 81.40579000000002L12.144600000000082 81.08800000000002L12.139599999999973 80.28732000000002L12.643599999999878 79.08467999999999L12.485099999999875 77.78772000000004L12.453399999999874 77.53041999999999L10.306499999999915 75.95814999999999L6.626299999999901 77.73198000000002L6.5172000000000025 77.67560000000003L9.486300000000028 73.90304000000003L9.94380000000001 72.69208000000003L10.283799999999928 71.26201000000003L11.39689999999996 71.10254000000003L12.158099999999877 71.95302000000004L13.658400000000029 72.87875000000003L16.628799999999956 72.12128000000001L16.35739999999987 72.88069000000002L16.910000000000082 74.02820000000003L18.16820000000007 74.08617000000004L19.92190000000005 73.79721L20.974099999999908 72.99977000000001L23.088899999999967 72.28500000000003L23.062099999999873 72.71361000000002L25.092599999999948 74.68299000000002L27.806299999999965 73.64118000000002L28.01520000000005 72.82803000000001L29.111499999999978 72.73541L29.190900000000056 72.97331000000003L28.715400000000045 73.70537999999999L28.887199999999893 74.99811L29.6724999999999 76.06083999999998L29.247299999999996 76.79048L29.16989999999987 76.85128000000003L27.776499999999942 77.57332000000002L27.29060000000004 78.23826000000003L27.305000000000064 79.13976000000002L27.730399999999918 79.30447000000004L28.410900000000083 81.48105000000004L29.19360000000006 81.20719000000003L30.76019999999994 81.60838999999999L30.748499999999922 82.67313999999999L32.06140000000005 81.57355000000001L34.534400000000005 82.32445999999999L35.37740000000008 82.14402999999999L36.496399999999994 84.04229000000004L36.84480000000008 84.32393000000002L37.67560000000003 84.03866L37.938899999999876 84.40174999999999L38.47739999999999 85.59537L39.9360999999999 84.69774999999998L40.535699999999906 84.37792000000002L42.58179999999993 84.08787000000001L44.283300000000054 83.52001999999999L46.55690000000004 81.32586000000003L48.15599999999995 80.49916000000002L47.27520000000004 78.87693999999999L47.45810000000006 78.52584999999999L48.20609999999988 78.80916000000002L49.70100000000002 78.29515000000004L50.24229999999989 77.11806999999999L49.31060000000002 76.23741999999999L50.56310000000008 75.08823000000001L52.65730000000008 75.07060000000001L54.302599999999984 74.76391000000001L55.02819999999997 75.13607999999999L56.70779999999991 75.17291L58.89840000000004 77.44889L58.02719999999999 78.63550000000004L58.49520000000007 78.83145000000002L60.46360000000004 78.47181L60.65229999999997 78.84998000000002L61.703899999999976 80.06587999999999L62.097299999999905 79.97984000000002L62.85069999999996 79.79740000000004L64.5782999999999 78.81771000000003L65.84559999999988 78.44069999999999L67.25890000000004 77.42400000000004L67.59140000000002 76.19087999999999L69.64589999999998 77.67365000000001L69.61840000000007 78.10307L70.38439999999991 78.34868L70.9197999999999 77.75842L71.55590000000007 78.12679000000003L72.6262999999999 77.70684L73.79119999999989 77.08048000000002L75.57240000000002 73.68047999999999L74.58870000000002 74.42531000000002L72.78219999999988 72.70622000000003L72.79089999999997 72.25244000000004L73.74790000000007 70.84082000000001L75.48669999999993 69.58840000000004L77.29150000000004 70.86664999999999L78.15210000000002 70.62880000000001L77.96270000000004 72.22597999999999L78.37009999999987 72.42018000000002L80.52250000000004 71.88932L80.72779999999989 73.56335999999999L82.0030999999999 75.21037999999999L80.24250000000006 76.16649999999998L79.97540000000004 76.90107L79.25959999999986 77.86445000000003L78.65290000000005 79.75036L78.93709999999987 79.40956L79.34400000000005 79.57348999999999L79.27369999999996 80.01159000000001L77.69000000000005 82.12317000000002L77.8309999999999 82.54077000000001L78.97149999999988 83.01390000000004L80.04150000000004 83.53827999999999L81.63689999999997 85.4751L81.47550000000001 86.697L80.65100000000007 86.69635L80.12239999999997 87.70913999999999L78.92169999999987 87.90598L77.42180000000008 87.40525000000002L75.47239999999988 90.14345000000003L73.36959999999999 90.66557L72.95450000000005 91.42396000000002L73.47489999999993 91.70981L73.78800000000001 91.71731L73.82299999999987 92.10959000000003L74.91049999999996 94.02806000000004L76.43669999999997 94.96265L76.31719999999996 96.21584999999999L75.54009999999994 96.48261000000002L74.49959999999987 96.88907L74.85649999999987 98.62020999999999L75.34590000000003 98.94553000000002L75.87220000000002 101.7491L74.93599999999992 105.41999000000004L73.90509999999995 106.15601000000004L74.26240000000007 107.10111L75.62920000000008 106.32816000000003L75.45609999999988 107.59709000000004L74.58089999999993 107.72766000000001L72.36059999999998 109.89636999999999L72.03150000000005 110.71235000000001L72.62310000000002 111.83897999999999L72.44139999999993 112.24448000000001L70.5818999999999 112.99441999999999L70.15079999999989 113.45759000000004L71.06089999999995 114.30444L70.57539999999995 114.96741000000003L71.68200000000002 116.04369000000003L71.76430000000005 116.14046000000002L73.30119999999988 117.42885000000001L74.44849999999997 119.0677L73.70720000000006 120.24130000000002L72.88190000000009 122.68168000000003L73.11539999999991 123.47532999999999L72.74070000000006 124.75596999999999L73.40179999999987 126.73142999999999L73.74509999999987 127.31544000000002L74.13779999999997 128.07007L73.91930000000002 129.33681L74.09580000000005 129.37423L74.42619999999988 129.62780000000004L75.22389999999996 129.38734L76.61310000000003 128.47571L77.75659999999993 128.84159L77.28970000000004 130.33073000000002L76.59960000000001 131.14980000000003L74.41730000000007 131.07280000000003L73.61689999999999 131.26344L72.48610000000008 132.50231000000002L70.48630000000003 133.20339L70.09120000000007 135.07030000000003L70.22739999999999 135.50402000000003L70.27340000000004 136.91727000000003L71.39200000000005 138.04257L72.72730000000001 138.18498L74.30179999999996 138.97276L75.4493 139.70087L75.38259999999991 140.12491L74.64509999999996 140.52531L74.1398999999999 142.15962000000002L74.29340000000002 142.84311000000002L74.49559999999997 145.36429000000004L73.53379999999993 146.3028L72.87660000000005 147.96054000000004L72.56389999999988 148.18506000000002L72.37709999999993 149.29110000000003L70.2817 149.93499000000003L68.53870000000006 149.60158L68.07259999999997 149.09752000000003L66.9493 148.56534L65.29119999999989 148.60034000000002L64.99039999999991 148.88906000000003L64.24209999999994 148.52226000000002L64.04780000000005 148.44764000000004L63.759199999999964 148.71842000000004L64.76080000000002 149.93717000000004L64.6715999999999 150.67944L62.7509 151.46878000000004L62.19489999999996 152.14462000000003L62.050500000000056 153.79703L61.73669999999993 152.5412L59.550500000000056 152.33619L58.791299999999865 152.80143000000004L58.472099999999955 153.63510000000002L57.62099999999987 153.36171000000002L57.73659999999995 152.95262000000002L57.1271999999999 152.41845L55.67910000000006 153.2514L53.26119999999992 153.899L52.799600000000055 155.5525L53.1386 156.34727000000004L52.297199999999975 156.53475000000003L51.35889999999995 155.67622L50.51839999999993 155.72233L49.412000000000035 155.04993000000002L48.95249999999987 154.48327L48.1733999999999 154.84627L47.36069999999995 154.54898000000003L47.21350000000007 154.13971000000004L46.82060000000001 153.35031000000004L45.94069999999988 153.32315L44.26420000000007 151.89692000000002L43.792199999999866 150.66213L43.97119999999995 149.35237L43.55430000000001 148.72342000000003L43.29279999999994 148.35315000000003L41.52880000000005 148.51662L40.85390000000007 147.92156L40.79410000000007 147.96016000000003L39.16139999999996 147.22451L37.28289999999993 143.71821L36.38959999999997 143.83035L35.434299999999894 142.87159000000003L34.593200000000024 143.84587L34.03379999999993 143.56399L33.88889999999992 143.15557L32.63040000000001 143.07755000000003L28.931699999999864 140.9656L28.321899999999914 141.51662L27.49759999999992 141.21975000000003L27.057599999999866 140.10527000000002L26.006599999999935 139.70960000000002L26.203399999999874 138.92371000000003L24.1413 137.57909L23.486699999999928 136.52667000000002L22.394000000000005 137.16939000000002L21.6558 136.81054L20.884599999999864 135.83944000000002L20.256599999999935 134.63050000000004L19.475200000000086 133.75842L19.60940000000005 132.62415L17.50369999999998 132.97720000000004L15.430100000000039 132.59729L14.50389999999993 130.12077L14.272699999999986 127.91624000000002L13.85349999999994 127.84164000000004L12.253799999999956 130.33073000000002L9.999700000000075 130.60947L9.13779999999997 129.65750000000003z">
      <title id="t256">Première circonscription de la Meuse</title>
      <desc id="d256">Cantons de : Ancerville, Bar-le-Duc Nord, Bar-le-Duc Sud, Commercy, Gondrecourt-le-Château, Ligny-en-Barrois, Montiers-sur-Saulx, Pierrefitte-sur-Aire, Revigny-sur-Ornain, Saint-Mihiel, Seuil-d'Argonne, Vaubecourt, Vaucouleurs, Vavincourt, Vigneulles-lès-Hattonchâtel, Void-Vacon</desc>
    </path><path class="circo" id="id-055-02" d="M4.557599999999866 56.209540000000004L5.517499999999927 58.23649L6.448499999999967 60.416560000000004L7.317999999999984 63.21845999999999L7.629999999999882 63.78953000000001L8.15689999999995 64.56330000000003L9.144700000000057 66.64035000000001L9.2657999999999 68.48723000000001L9.783799999999928 71.93888000000004L9.94380000000001 72.69208000000003L10.283799999999928 71.26201000000003L11.39689999999996 71.10254000000003L12.158099999999877 71.95302000000004L13.658400000000029 72.87875000000003L16.628799999999956 72.12128000000001L16.35739999999987 72.88069000000002L16.910000000000082 74.02820000000003L18.16820000000007 74.08617000000004L19.92190000000005 73.79721L20.974099999999908 72.99977000000001L23.088899999999967 72.28500000000003L23.062099999999873 72.71361000000002L25.092599999999948 74.68299000000002L27.806299999999965 73.64118000000002L28.01520000000005 72.82803000000001L29.111499999999978 72.73541L29.190900000000056 72.97331000000003L28.715400000000045 73.70537999999999L28.887199999999893 74.99811L29.6724999999999 76.06083999999998L29.247299999999996 76.79048L29.16989999999987 76.85128000000003L27.776499999999942 77.57332000000002L27.29060000000004 78.23826000000003L27.305000000000064 79.13976000000002L27.730399999999918 79.30447000000004L28.410900000000083 81.48105000000004L29.19360000000006 81.20719000000003L30.76019999999994 81.60838999999999L30.748499999999922 82.67313999999999L32.06140000000005 81.57355000000001L34.534400000000005 82.32445999999999L35.37740000000008 82.14402999999999L36.496399999999994 84.04229000000004L36.84480000000008 84.32393000000002L37.67560000000003 84.03866L37.938899999999876 84.40174999999999L38.47739999999999 85.59537L39.9360999999999 84.69774999999998L40.535699999999906 84.37792000000002L42.58179999999993 84.08787000000001L44.283300000000054 83.52001999999999L46.55690000000004 81.32586000000003L48.15599999999995 80.49916000000002L47.27520000000004 78.87693999999999L47.45810000000006 78.52584999999999L48.20609999999988 78.80916000000002L49.70100000000002 78.29515000000004L50.24229999999989 77.11806999999999L49.31060000000002 76.23741999999999L50.56310000000008 75.08823000000001L52.65730000000008 75.07060000000001L54.302599999999984 74.76391000000001L55.02819999999997 75.13607999999999L56.70779999999991 75.17291L58.89840000000004 77.44889L58.02719999999999 78.63550000000004L58.49520000000007 78.83145000000002L60.46360000000004 78.47181L60.65229999999997 78.84998000000002L61.703899999999976 80.06587999999999L62.097299999999905 79.97984000000002L62.85069999999996 79.79740000000004L64.5782999999999 78.81771000000003L65.84559999999988 78.44069999999999L67.25890000000004 77.42400000000004L67.59140000000002 76.19087999999999L69.64589999999998 77.67365000000001L69.61840000000007 78.10307L70.38439999999991 78.34868L70.9197999999999 77.75842L71.55590000000007 78.12679000000003L72.6262999999999 77.70684L73.79119999999989 77.08048000000002L75.57240000000002 73.68047999999999L74.58870000000002 74.42531000000002L72.78219999999988 72.70622000000003L72.79089999999997 72.25244000000004L73.74790000000007 70.84082000000001L75.48669999999993 69.58840000000004L77.29150000000004 70.86664999999999L78.15210000000002 70.62880000000001L79.10089999999991 69.25342L79.43059999999991 68.95347000000004L78.97499999999991 66.05083000000002L78.12020000000007 66.01213000000001L75.53320000000008 65.97291999999999L75.62969999999996 66.30923999999999L75.12470000000008 66.79031000000003L74.06940000000009 66.29417000000001L73.64239999999995 65.64242000000002L73.0628999999999 64.48186000000004L73.59220000000005 63.302520000000015L75.06009999999992 62.316160000000025L73.71519999999987 61.978980000000035L74.02099999999996 61.16202000000004L73.96679999999992 60.710019999999986L73.13779999999997 60.345470000000034L72.90129999999999 59.49762000000004L74.54819999999995 54.81416999999999L73.83349999999996 54.36081999999999L73.24019999999996 54.678229999999985L71.53309999999988 55.117380000000026L70.92859999999996 54.579110000000014L71.20900000000006 54.26116999999999L70.65010000000007 52.25560999999999L71.39840000000004 51.23840000000001L72.40460000000007 50.569770000000005L71.10539999999992 48.66032000000001L70.73659999999995 48.27971000000002L71.37950000000001 47.11068L71.05870000000004 45.404210000000035L74.13429999999994 44.12389000000002L74.76139999999987 41.49537000000004L74.30389999999989 39.59835000000004L73.8001999999999 39.58661000000001L73.13650000000007 40.17791L71.68059999999991 40.04153000000002L70.72689999999989 37.54412000000002L72.11879999999996 36.39804000000004L72.3001999999999 35.48558000000003L72.15030000000002 34.204589999999996L71.6407999999999 33.49907000000002L69.9964 33.189869999999985L70.22160000000008 32.014170000000036L69.61909999999989 30.49394000000001L67.87609999999995 29.235070000000007L68.4103 28.78344000000004L68.28829999999994 28.136750000000006L68.26019999999994 26.447450000000003L67.42920000000004 26.523619999999994L66.99099999999999 25.932900000000018L63.30919999999992 23.469730000000027L61.83259999999996 24.451340000000016L61.894399999999905 25.346690000000024L61.06940000000009 25.487300000000005L61.0148999999999 25.93446L60.33089999999993 25.387730000000033L59.1262999999999 25.961510000000033L57.909200000000055 25.48090000000002L57.766200000000026 25.805360000000007L56.421800000000076 26.03534000000002L54.613399999999956 27.406920000000014L51.88619999999992 27.445460000000026L51.67059999999992 29.1524L50.682399999999916 30.600880000000018L50.34069999999997 30.706380000000024L49.73569999999995 29.83241000000004L49.99260000000004 29.033680000000004L48.80099999999993 28.82471000000004L47.43599999999992 27.89653000000004L47.465599999999995 27.886869999999988L49.55770000000007 27.21096L50.17100000000005 27.862310000000036L51.44180000000006 27.49484000000001L52.53240000000005 25.609620000000007L51.802599999999984 25.232610000000022L51.4692 25.510040000000004L49.51240000000007 24.754950000000008L50.17270000000008 24.14106000000004L50.69810000000007 22.487169999999992L48.90809999999988 21.54435000000001L49.50630000000001 20.370830000000012L49.15779999999995 20.189300000000003L48.91910000000007 19.116250000000036L49.249900000000025 17.873850000000004L48.86670000000004 17.67237L48.67450000000008 17.404020000000003L48.23689999999988 17.40336000000002L48.17879999999991 17.838009999999997L47.012500000000045 17.16052000000002L45.665700000000015 17.157640000000015L46.33590000000004 16.53949L47.02690000000007 14.869759999999985L48.95119999999997 16.65386000000001L49.00080000000003 17.05898000000002L48.68270000000007 17.396310000000028L48.872499999999945 17.665290000000027L49.727100000000064 17.62056000000001L50.46849999999995 16.16025000000002L49.4840999999999 15.70795000000004L49.09089999999992 15.483760000000018L48.84780000000001 14.16971000000001L47.468399999999974 13.002560000000017L48.899200000000064 11.913369999999986L49.00389999999993 10.589420000000018L47.07330000000002 8.760140000000035L46.97160000000008 8.515520000000038L47.388999999999896 8.351740000000007L48.03449999999998 6.7034700000000385L46.799800000000005 6.20070000000004L45.9212 3.658330000000035L46.08919999999989 3.2402999999999906L42.907199999999875 0L41.899999999999864 1.493249999999989L41.521600000000035 3.209220000000016L40.18509999999992 3.2833100000000286L39.42920000000004 3.716949999999997L38.35480000000007 3.003469999999993L35.65079999999989 7.112360000000024L35.95679999999993 7.5785000000000196L33.62580000000003 8.478830000000016L33.00389999999993 9.561000000000035L31.786499999999933 9.867410000000007L30.856700000000046 7.916060000000016L29.403999999999996 7.192569999999989L29.3753999999999 6.293890000000033L27.657699999999977 5.779949999999985L26.569400000000087 6.41867000000002L25.344900000000052 6.214859999999987L24.559099999999944 6.547770000000014L23.789800000000014 7.006079999999997L23.04639999999995 6.608580000000018L22.451999999999998 5.306730000000016L21.83269999999993 3.6586000000000354L19.631599999999935 3.201750000000004L18.91020000000003 3.758770000000027L18.467899999999872 5.057529999999986L19.090799999999945 7.210520000000031L18.66879999999992 8.101600000000019L17.62259999999992 7.775590000000022L17.0782999999999 9.92610000000002L17.76189999999997 10.938080000000014L17.095100000000002 12.582770000000039L16.726300000000037 12.681240000000003L16.036000000000058 14.200210000000027L14.773599999999988 14.368290000000002L14.544799999999896 14.727090000000032L15.791400000000067 17.086070000000007L16.247900000000072 17.12754000000001L16.640699999999924 17.887200000000007L16.507100000000037 19.22102000000001L17.59960000000001 20.524620000000027L18.012899999999945 20.411110000000008L18.20029999999997 20.553660000000036L18.793899999999894 21.06693999999999L18.0311999999999 23.08253000000002L18.478900000000067 24.799770000000024L19.233299999999872 25.72944000000001L18.749199999999973 26.396749999999997L17.89779999999996 26.61011000000002L16.635899999999992 27.819330000000036L16.99129999999991 28.59926999999999L18.30860000000007 29.7534L17.855399999999918 31.385050000000035L16.98869999999988 32.38438000000002L14.573499999999967 32.137670000000014L14.051799999999957 32.84345999999999L14.20010000000002 33.71467000000001L11.75909999999999 36.822659999999985L11.878099999999904 37.24803000000003L11.95399999999995 38.07208000000003L12.698599999999942 39.354250000000036L12.035100000000057 39.97021000000001L12.073100000000068 40.4015L13.00369999999998 41.89789000000002L14.269900000000007 42.331650000000025L14.505300000000034 42.80319000000003L13.68100000000004 43.63474000000002L13.806100000000015 44.848310000000026L12.516300000000001 45.216740000000016L11.649699999999939 44.97989999999999L10.393100000000004 45.46908000000002L9.34199999999987 46.20246000000003L9.447099999999864 46.61979000000002L6.738299999999981 48.13843000000003L6.076999999999998 49.28814L5.289500000000089 49.69121000000001L6.976699999999937 49.86435L7.54989999999998 51.91894000000002L8.763599999999997 53.078779999999995L7.626099999999951 54.429640000000006L6.3125 54.75824L4.557599999999866 56.209540000000004z">
      <title id="t257">Deuxième circonscription de la Meuse</title>
      <desc id="d257">Cantons de : Charny-sur-Meuse, Clermont-en-Argonne, Damvillers, Dun-sur-Meuse, Etain, Fresnes-en-Woëvre, Montfaucon-d'Argonne, Montmédy, Souilly, Spincourt, Stenay, Varennes-en-Argonne, Verdun Centre, Verdun Est, Verdun Ouest</desc>
    </path></svg>