<svg xmlns="http://www.w3.org/2000/svg" version="1.1" xmlns:xlink="http://www.w3.org/1999/xlink" xmlns:svgjs="http://svgjs.dev/svgjs" viewBox="339.53703 530.42998 144.24289999999996 117.42456000000004"><path class="circo" id="056-01" d="M 423.71723,590.97954 422.74848,591.69829 421.84223,593.57329 419.84223,593.54204 419.52973,594.79204 420.81098,595.97954 419.15473,597.26079 418.99848,598.41704 416.24848,597.29204 414.12348,597.10454 413.62348,598.69829 412.65473,599.22954 411.74848,602.41704 411.15473,603.07329 409.15473,604.04204 408.12348,604.76079 407.31098,604.60454 406.62348,604.41704 406.21723,605.13579 405.93598,606.63579 407.27973,609.57329 407.71723,606.91704 407.93598,608.63579 408.74848,607.22954 408.96723,608.35454 408.06098,609.07329 408.71723,609.88579 409.43598,608.76079 410.06098,609.79204 411.12348,610.44829 411.34223,610.22954 411.34223,607.32329 413.46723,608.35454 413.84223,607.60454 412.99848,606.94829 413.99848,606.07329 413.90473,605.47954 413.18598,605.54204 413.81098,604.97954 416.27973,605.72954 417.87348,605.10454 419.56098,605.54204 420.37348,605.22954 420.74848,604.44829 420.43598,603.66704 421.84223,603.88579 422.21723,602.57329 423.24848,605.29204 423.65473,604.32329 424.18598,605.97954 420.87348,604.66704 420.74848,605.26079 424.65473,607.76079 424.27973,607.01079 425.49848,607.35454 425.87348,608.13579 425.68598,609.19829 425.99848,610.82329 424.96723,612.57329 424.77973,614.04204 424.93598,614.76079 424.02973,615.26079 423.81098,614.97954 422.71723,615.82329 420.49848,615.44829 420.65473,614.51079 419.90473,613.91704 418.81098,614.38579 418.96723,615.60454 418.37348,615.07329 418.15473,613.41704 416.84223,613.29204 417.46723,615.16704 416.49848,615.60454 416.52973,614.16704 415.37348,614.91704 414.56098,614.44829 414.62348,615.41704 414.31098,615.66704 413.62348,615.38579 413.84223,613.94829 412.65473,614.60454 412.87348,613.01079 412.27973,613.60454 412.09223,612.35454 410.71723,613.29204 410.40473,612.47954 409.12348,613.10454 409.62348,614.22954 408.71723,614.26079 409.31098,615.16704 411.12348,614.91704 409.87348,615.60454 410.31098,616.07329 410.99848,615.51079 412.93598,616.54204 413.93598,617.97954 414.40473,618.04204 414.84223,620.60454 417.59223,622.01079 418.43598,621.82329 419.24848,622.19829 420.49848,620.97954 423.09223,620.57329 425.02973,619.63579 426.34223,619.82329 429.12348,621.07329 430.46723,617.94829 432.46723,618.35454 432.99848,618.97954 433.40473,619.72954 433.87348,619.72954 435.99848,618.22954 437.77973,618.26079 439.49848,618.72954 439.93598,618.66704 440.59223,617.51079 441.34223,617.13579 442.99848,617.13579 444.34223,618.10454 447.15473,618.88579 449.31098,620.51079 449.56098,620.82329 451.09223,620.97954 451.93598,621.10454 453.15473,619.91704 454.59223,620.66704 456.37348,619.41704 454.77973,617.41704 454.02973,614.51079 452.99848,613.69829 452.15473,613.44829 451.87348,613.76079 451.18598,613.04204 452.37348,611.26079 453.52973,611.19829 454.15473,610.26079 454.56098,610.32329 454.81098,609.10454 453.62348,608.91704 453.43598,608.57329 453.99848,607.44829 453.87348,606.19829 453.37348,605.88579 452.87348,605.38579 452.06098,605.66704 450.87348,605.22954 449.59223,605.51079 449.27973,605.19829 449.31098,603.97954 448.27973,603.16704 446.71723,603.63579 445.46723,603.51079 444.59223,604.97954 443.43598,604.88579 441.93598,605.51079 442.09223,607.72954 440.93598,607.63579 439.43598,608.10454 437.96723,608.19829 437.37348,607.76079 437.65473,607.01079 437.15473,606.38579 437.37348,605.76079 436.65473,603.82329 435.65473,603.10454 435.84223,601.88579 434.87348,601.07329 434.59223,600.72954 434.87348,599.44829 434.52973,599.22954 433.21723,599.04204 430.93598,600.29204 429.77973,599.72954 428.99848,598.82329 428.90473,598.88579 428.24848,598.44829 427.09223,599.04204 426.02973,598.29204 425.74848,597.97954 425.87348,597.60454 427.37348,596.19829 427.81098,594.97954 427.59223,594.63579 424.52973,593.10454 424.40473,591.44829 423.71723,590.97954 z M 415.52973,606.88579 414.87348,607.94829 414.24848,607.60454 414.49848,608.26079 414.12348,608.85454 413.62348,611.72954 413.77973,612.82329 413.93598,612.69829 413.93598,612.01079 414.62348,611.97954 414.24848,611.10454 414.56098,609.60454 414.68598,609.38579 414.84223,609.22954 415.02973,609.13579 416.74848,609.26079 416.37348,608.82329 415.40473,608.51079 415.52973,606.88579 z M 419.21723,607.04204 419.06098,608.04204 417.99848,608.85454 418.21723,609.41704 417.68598,609.76079 417.84223,610.41704 418.02973,610.51079 419.02973,609.10454 419.87348,608.35454 419.84223,607.91704 419.43598,607.38579 419.21723,607.04204 z">
      <title id="t258">Première circonscription du Morbihan</title>
      <desc id="d258">Cantons de : Muzillac, Sarzeau, Vannes Centre, Vannes Est, Vannes Ouest</desc>
    </path><path class="circo" id="056-02" d="M 400.99848,574.32329 399.65473,575.44829 399.06098,576.63579 398.81098,578.38579 398.21723,578.97954 396.77973,578.54204 396.65473,578.97954 395.31098,579.10454 394.15473,580.41704 392.24848,581.51079 391.96723,582.32329 390.96723,584.63579 389.18598,586.44829 387.43598,585.88579 387.02973,585.19829 385.81098,585.35454 384.65473,585.07329 384.74848,583.94829 383.68598,582.22954 381.65473,582.04204 377.84223,585.13579 377.43598,586.66704 376.71723,586.22954 375.81098,589.01079 375.06098,589.51079 374.62348,590.72954 373.52973,590.63579 373.65473,591.47954 372.46723,590.76079 372.27973,592.01079 372.71723,593.16704 371.27973,594.01079 371.77973,594.63579 372.87348,594.07329 375.27973,594.16704 375.77973,594.69829 377.37348,595.04204 377.99848,596.63579 377.18598,596.72954 375.68598,596.01079 374.15473,594.97954 373.62348,595.32329 372.65473,595.51079 371.84223,595.22954 371.15473,596.29204 371.52973,596.79204 372.40473,595.79204 375.46723,596.19829 378.27973,597.47954 383.68598,602.04204 383.87348,601.10454 383.65473,598.91704 384.87348,597.38579 383.49848,595.82329 385.18598,596.57329 386.81098,595.88579 387.49848,595.76079 388.99848,596.07329 388.99848,596.51079 388.24848,596.79204 387.71723,597.47954 386.02973,597.41704 385.34223,597.91704 384.21723,599.13579 384.34223,599.54204 384.18598,599.94829 384.46723,601.63579 383.99848,602.35454 385.12348,604.76079 388.37348,606.94829 389.90473,610.16704 390.06098,612.85454 390.37348,614.54204 389.90473,615.72954 389.46723,616.44829 388.31098,617.04204 388.77973,617.76079 388.93598,619.88579 389.71723,622.38579 390.62348,623.35454 391.93598,623.26079 393.99848,623.91704 394.40473,623.85454 393.77973,622.69829 391.90473,620.82329 391.68598,619.97954 391.77973,619.10454 391.12348,618.60454 390.59223,616.51079 390.93598,612.63579 392.09223,610.66704 390.93598,610.94829 390.93598,607.91704 393.06098,609.94829 394.02973,610.69829 392.93598,610.47954 393.56098,612.19829 396.31098,611.13579 397.18598,611.66704 397.43598,610.57329 398.31098,610.44829 398.31098,609.35454 399.96723,611.88579 399.43598,609.01079 399.81098,608.88579 399.87348,608.85454 401.06098,611.29204 401.68598,611.82329 402.43598,611.41704 402.21723,609.29204 402.74848,609.85454 402.68598,610.29204 404.06098,611.29204 404.65473,613.44829 405.52973,612.16704 406.18598,613.29204 408.12348,613.35454 406.34223,610.82329 404.49848,609.19829 405.68598,608.01079 404.21723,606.94829 405.65473,605.94829 404.96723,603.41704 404.21723,603.47954 404.31098,602.01079 403.37348,600.72954 403.74848,600.19829 404.06098,600.82329 404.74848,601.88579 404.65473,602.69829 405.40473,602.94829 405.12348,603.26079 405.49848,604.38579 406.65473,604.10454 407.31098,604.60454 408.12348,604.76079 409.15473,604.04204 411.15473,603.07329 411.74848,602.41704 412.65473,599.22954 413.62348,598.69829 414.12348,597.10454 411.77973,596.72954 411.52973,596.38579 412.27973,594.07329 411.31098,593.22954 411.37348,592.79204 412.46723,592.13579 412.21723,589.94829 412.49848,588.29204 411.84223,587.69829 409.34223,587.01079 408.93598,586.94829 408.46723,587.66704 409.40473,588.51079 409.24848,588.91704 408.40473,589.07329 407.62348,588.76079 406.43598,589.26079 405.65473,588.97954 406.27973,588.32329 405.93598,587.51079 406.21723,585.79204 405.99848,583.16704 407.21723,582.79204 407.77973,580.66704 408.40473,580.04204 405.87348,579.16704 404.90473,576.41704 405.09223,575.60454 404.81098,575.29204 400.99848,574.32329 z M 402.65473,632.85454 402.49848,632.91704 402.46723,633.13579 402.52973,633.57329 403.15473,633.79204 404.09223,634.72954 405.37348,635.07329 405.62348,635.69829 406.24848,636.29204 405.81098,634.85454 406.81098,633.79204 405.74848,634.01079 404.43598,633.76079 402.65473,632.85454 z M 381.12348,634.57329 380.71723,634.72954 380.43598,636.47954 379.81098,637.04204 379.68598,638.79204 380.43598,640.88579 381.84223,642.51079 380.87348,643.91704 383.02973,645.97954 385.49848,646.10454 387.09223,645.38579 388.40473,646.44829 389.24848,646.38579 390.40473,647.04204 392.15473,646.97954 393.74848,647.79204 394.18598,647.85454 394.56098,647.66704 395.24848,647.10454 396.71723,643.97954 395.59223,643.38579 393.37348,643.51079 391.96723,642.51079 391.52973,642.54204 389.49848,641.16704 388.24848,637.54204 387.40473,637.76079 385.34223,637.22954 384.37348,636.44829 383.52973,636.44829 383.24848,636.79204 383.18598,635.91704 381.96723,635.57329 381.12348,634.57329 z M 413.18598,639.41704 412.59223,640.07329 411.71723,640.07329 411.21723,639.72954 411.27973,640.79204 411.46723,641.19829 411.99848,641.57329 413.46723,640.66704 413.52973,639.57329 413.18598,639.41704 z">
      <title id="t259">Deuxième circonscription du Morbihan</title>
      <desc id="d259">Cantons de : Auray, Belle-Ile, Belz, Pluvigner, Port-Louis, Quiberon</desc>
    </path><path class="circo" id="056-03" d="M 396.77453,578.54608 395.95733,577.05913 396.00443,573.50034 395.24163,573.04223 393.47403,572.77775 392.35823,572.03506 393.09463,571.58649 394.42373,572.43176 395.15313,572.0253 395.19903,568.61493 394.49163,568.20265 395.56533,566.3725 395.55573,565.5201 394.37003,565.26026 393.54573,564.34275 392.39033,564.59742 392.05523,564.35544 390.35213,562.87758 389.53413,561.2732 389.77093,559.01277 390.38203,558.40557 390.34263,556.60165 390.64353,556.2651 389.51333,554.47813 389.44333,553.65075 388.44193,552.85034 387.18193,552.88834 387.72163,551.74089 387.52603,550.90705 388.50823,549.53058 389.91843,548.5465 391.40773,547.92623 392.06103,549.09013 393.75773,550.44813 395.06863,550.63468 397.29023,552.09267 398.62353,552.04055 399.39373,552.46338 400.72223,549.94251 401.57263,549.88553 402.18943,549.29783 401.48703,548.77406 401.42273,547.89621 400.29773,546.54595 400.65483,545.80766 401.39913,545.92881 401.43703,544.72451 402.16043,544.40275 402.75333,545.54755 405.15733,544.84211 406.48913,545.84724 407.17023,545.66246 407.40543,544.09879 407.98983,543.52279 408.37763,543.65556 409.72353,541.18988 410.43463,540.26414 411.04903,540.82031 412.02763,539.52871 412.21613,537.96396 414.60913,539.20045 417.95783,538.51981 420.12003,541.56884 420.42723,542.24471 420.24653,543.00008 420.70243,543.67415 420.94583,546.09754 422.07353,544.81144 422.97273,542.34631 423.24803,542.68218 424.92323,542.34746 427.00373,542.86577 427.14633,542.06391 429.36293,540.39622 430.18773,540.31598 431.42293,541.90551 431.04823,542.54353 431.43833,543.09785 431.09733,543.86993 431.37533,544.69969 431.10853,545.97958 429.77943,549.16746 430.14733,549.95675 430.00553,551.21858 430.76303,551.46346 430.67843,552.45473 431.10263,553.02868 431.47303,555.60363 430.89053,556.16828 431.35223,556.82283 431.17673,558.07558 431.56343,558.83497 432.99843,559.46182 433.13683,561.10042 432.77293,561.56976 433.19603,561.57954 433.28953,561.99312 431.97913,563.02278 431.35683,564.97047 431.08133,567.101 431.40723,567.91058 432.90693,567.08654 433.76033,567.11698 434.87483,567.645 436.33153,569.14181 434.21913,570.7624 433.50433,571.90235 434.18573,573.85463 434.96433,574.83593 435.67943,574.45686 436.97753,574.47308 437.80953,575.44378 438.66503,575.60149 438.42653,576.71211 437.77023,577.27621 438.32053,579.34628 438.50413,579.73874 439.35903,579.84838 440.13273,580.87524 440.06433,581.73539 439.31033,582.78322 440.76823,583.36414 440.06763,585.21928 441.55183,586.47839 440.93753,587.48576 441.47583,588.18713 441.06953,589.90605 442.41713,591.01552 442.27583,591.77578 441.03733,592.78865 441.21073,593.99958 441.98013,594.38991 444.85943,594.73499 445.65153,596.19522 445.69943,597.00085 444.16583,599.3462 444.71393,600.42152 444.37153,600.68918 443.19093,600.34491 439.15713,601.55256 437.63433,603.61854 438.76913,604.1845 437.36663,605.77365 436.65493,603.80989 435.64443,603.09756 435.82723,601.88011 434.88463,601.05804 434.59333,600.72818 434.88663,599.4545 434.51463,599.22023 433.21153,599.05147 430.93963,600.27954 429.78193,599.71501 428.99413,598.81731 428.91183,598.87336 428.25563,598.45048 427.09193,599.05425 426.04493,598.28497 425.74093,597.99272 425.88373,597.59604 427.38813,596.18322 427.80583,594.99506 427.58663,594.6347 424.53953,593.09163 424.39063,591.44684 423.70753,590.98 422.75973,591.69036 421.85203,593.56981 419.85513,593.54214 419.51953,594.79474 420.80803,595.99014 419.14633,597.25325 419.00303,598.41349 416.24713,597.28431 414.12913,597.09542 411.77003,596.72344 411.53613,596.38982 412.26763,594.07802 411.29973,593.23035 411.38593,592.80078 412.46913,592.12441 412.20323,589.95434 412.48993,588.28639 411.84763,587.69655 409.35043,587.01548 408.92443,586.96313 408.45613,587.65457 409.39533,588.51282 409.23513,588.9117 408.41393,589.06593 407.61193,588.76252 406.44813,589.24519 405.66403,588.98515 406.26693,588.33355 405.92973,587.51333 406.22773,585.78658 405.99673,583.15612 407.22503,582.78917 407.77863,580.66727 408.40733,580.04295 405.88513,579.16283 404.89423,576.41712 405.09273,575.60403 404.82243,575.28492 400.99383,574.33257 399.64773,575.4591 399.05303,576.64359 398.80923,578.39173 398.21073,578.98405 396.77453,578.54608 z">
      <title id="t260">Troisième circonscription du Morbihan</title>
      <desc id="d260">Cantons de : Baud, Elven, Grand-Champ, Locminé, Pontivy, Rohan, Saint-Jean-Brévelay</desc>
    </path><path class="circo" id="056-04" d="M 478.07253,603.38568 478.00543,602.97696 478.75183,602.67823 478.76833,602.26404 477.28743,601.78548 477.46203,600.5905 478.06873,599.45715 478.01633,598.17047 476.41723,597.35211 476.29723,596.06048 476.71733,593.93692 475.87273,592.94595 475.92813,592.13655 477.46773,591.381 477.53973,590.6308 481.75563,590.32279 481.54633,588.6854 479.84063,588.78287 479.32383,587.25284 475.91003,587.40407 476.20943,586.23367 477.37643,586.02765 477.48523,585.22877 478.73323,585.17982 479.41143,584.67155 480.64783,583.55557 480.71163,582.70464 480.85423,581.07814 482.86833,580.09232 483.77993,578.28575 482.64113,577.72844 482.25973,576.07044 482.51493,575.28758 482.19393,573.81028 480.95153,575.95251 478.75203,577.04508 477.54023,576.33783 478.41933,574.35791 477.13863,572.53835 477.11603,571.20228 478.03563,569.80483 478.87883,569.58434 479.87223,568.7231 479.71173,567.99923 480.13283,567.38296 478.50853,565.32472 477.94643,563.26126 477.39063,562.35984 476.66313,562.12222 476.43153,561.75269 475.07923,559.73751 474.38233,559.20365 471.82143,559.697 470.60363,558.53804 469.00923,557.82447 468.61803,558.02224 466.59653,557.24815 462.40233,558.24274 462.42173,556.94339 463.34043,556.04059 462.83583,554.88149 462.99743,554.47749 463.61373,553.21528 465.61983,551.09969 466.23703,550.47827 470.57863,550.49747 472.27183,549.13109 472.23583,547.812 472.52263,547.47537 471.40113,546.59341 467.93863,547.12092 466.86903,547.82879 466.83173,549.08059 465.07323,549.17268 465.00133,547.95231 465.66463,546.4691 465.28483,545.74518 465.10103,544.85649 465.05523,543.13413 462.42453,540.1513 459.90413,540.1043 459.43583,541.31327 458.78303,541.85585 457.34903,541.08622 456.45323,543.00759 456.06363,542.7149 455.09773,541.33963 455.00613,540.51313 454.90803,539.17116 452.86533,537.43825 452.23303,535.78187 451.06563,535.11846 448.84493,535.21113 447.65763,536.39246 445.57043,536.22398 445.32903,537.07179 441.42323,537.19628 443.03163,539.61953 443.07373,540.47123 442.56593,541.6292 441.38963,543.47493 440.37673,544.31212 439.94113,544.98936 440.20483,547.4409 439.38783,547.68452 438.85743,548.359 437.60843,548.29832 437.46673,548.70664 436.50143,550.16468 433.85983,552.47418 432.16633,552.42575 431.90773,552.06928 431.10263,553.02868 431.47303,555.60363 430.89053,556.16828 431.35223,556.82283 431.17673,558.07558 431.56343,558.83497 432.99843,559.46182 433.13683,561.10042 432.77293,561.56976 433.19603,561.57954 433.28953,561.99312 431.97913,563.02278 431.35683,564.97047 431.08133,567.101 431.40723,567.91058 432.90693,567.08654 433.76033,567.11698 434.87483,567.645 436.33153,569.14181 434.21913,570.7624 433.50433,571.90235 434.18573,573.85463 434.96433,574.83593 435.67943,574.45686 436.97753,574.47308 437.80953,575.44378 438.66503,575.60149 438.42653,576.71211 437.77023,577.27621 438.32053,579.34628 438.50413,579.73874 439.35903,579.84838 440.13273,580.87524 440.06433,581.73539 439.31033,582.78322 440.76823,583.36414 440.06763,585.21928 441.55183,586.47839 440.93753,587.48576 441.47583,588.18713 441.06953,589.90605 442.41713,591.01552 442.27583,591.77578 441.03733,592.78865 441.21073,593.99958 441.98013,594.38991 444.85943,594.73499 445.65153,596.19522 445.69943,597.00085 444.16583,599.3462 444.71393,600.42152 444.37153,600.68918 443.19093,600.34491 439.15713,601.55256 437.63433,603.61854 438.76913,604.1845 437.36663,605.77365 437.15513,606.37688 437.66433,607.00287 437.36023,607.75587 437.97603,608.19001 439.43273,608.10379 440.92303,607.638 442.09843,607.727 441.93903,605.51073 443.43753,604.8764 444.59353,604.97402 445.45303,603.51422 446.72733,603.64503 448.27713,603.16631 449.30003,603.98193 449.27803,605.21249 449.60313,605.50279 450.87423,605.2159 452.06153,605.67454 452.88063,605.37921 453.37553,605.88336 453.86363,606.18901 453.99303,607.43819 453.44483,608.57773 453.63643,608.91035 454.81273,609.08907 454.55843,610.31503 454.16803,610.25769 453.52023,611.19679 452.36663,611.24757 451.17673,613.05042 451.86153,613.75323 452.16853,613.43773 453.00923,613.68912 454.01943,614.51516 454.77253,617.41132 456.37413,619.40841 454.59053,620.67799 453.15423,619.92722 451.92893,621.09229 451.10413,620.97881 450.89293,621.31571 449.16933,621.08298 447.38123,622.2457 445.13153,620.87237 444.31093,621.61989 445.21833,623.83541 444.56413,625.45593 444.87163,626.74119 445.91033,627.53405 447.00373,626.78305 447.87123,626.89969 448.61043,624.95968 449.40293,624.6598 450.88553,623.25353 451.13543,624.53897 451.95813,625.55324 453.23953,625.83711 454.74833,625.05989 455.63013,625.00532 456.58953,625.91203 459.97183,625.09031 460.20193,622.50606 461.30233,620.61018 461.50473,618.42819 461.59333,618.38137 463.09693,618.99779 464.78723,618.8844 465.09223,619.18303 464.61583,620.30696 466.07913,621.17959 468.41263,619.48744 469.97473,618.97526 470.84823,618.85068 471.06473,619.23589 470.71853,620.89439 471.00423,621.2308 472.72203,621.52957 473.65233,620.65031 473.80463,617.60365 474.60693,617.23433 478.44123,616.16578 478.58443,615.31263 478.01283,614.1934 478.62153,611.23043 477.91313,610.61266 478.30473,610.44633 478.12903,608.37391 479.49273,607.37138 479.59313,606.95773 479.63583,605.20467 478.59553,603.82729 478.07253,603.38568 z">
      <title id="t261">Quatrième circonscription du Morbihan</title>
      <desc id="d261">Cantons de : Allaire, La Gacilly, Guer, Josselin, Malestroit, Mauron, Ploërmel, Questembert, La Roche-Bernard, Rochefort-en-Terre, La Trinité-Porhoët</desc>
    </path><path class="circo" id="056-05" d="M 376.31098,583.10454 374.21723,585.13579 372.99848,584.79204 371.74848,585.16704 371.24848,586.29204 371.09223,587.13579 371.71723,587.19829 372.52973,589.76079 374.40473,589.10454 374.02973,586.60454 374.65473,588.07329 376.15473,586.76079 376.40473,585.76079 377.31098,586.04204 377.46723,585.32329 376.59223,584.51079 376.81098,583.35454 376.31098,583.10454 z M 367.49848,585.82329 366.99848,586.91704 365.68598,586.76079 364.99848,587.35454 363.27973,587.32329 363.34223,587.76079 361.77973,589.07329 359.21723,590.38579 359.37348,591.22954 363.02973,595.44829 363.84223,595.57329 365.34223,594.72954 366.46723,595.10454 366.84223,594.85454 368.56098,594.97954 369.31098,594.60454 370.43598,593.26079 370.62348,591.97954 371.52973,591.22954 372.09223,589.66704 371.52973,587.76079 370.93598,587.66704 370.21723,586.26079 369.87348,586.47954 367.49848,585.82329 z M 359.31098,601.07329 358.24848,601.41704 358.24848,602.07329 358.84223,602.76079 359.90473,603.57329 360.52973,603.82329 360.74848,604.19829 361.62348,604.44829 362.52973,605.10454 362.74848,605.10454 363.84223,604.79204 364.56098,604.29204 365.06098,604.69829 365.49848,604.79204 365.99848,605.26079 366.43598,603.57329 365.12348,602.38579 363.77973,602.26079 359.96723,601.07329 359.31098,601.07329 z">
      <title id="t262">Cinquième circonscription du Morbihan</title>
      <desc id="d262">Cantons de : Groix, Lanester, Lorient Centre, Lorient Nord, Lorient Sud, Ploemeur</desc>
    </path><path class="circo" id="056-06" d="M 401.43703,544.72451 401.39913,545.92881 400.65483,545.80766 400.29773,546.54595 401.42273,547.89621 401.48703,548.77406 402.18943,549.29783 401.57263,549.88553 400.72223,549.94251 399.39373,552.46338 398.62353,552.04055 397.29023,552.09267 395.06863,550.63468 393.75773,550.44813 392.06103,549.09013 391.40773,547.92623 389.91843,548.5465 388.50823,549.53058 387.52603,550.90705 387.72163,551.74089 387.18193,552.88834 388.44193,552.85034 389.44333,553.65075 389.51333,554.47813 390.64353,556.2651 390.34263,556.60165 390.38203,558.40557 389.77093,559.01277 389.53413,561.2732 390.35213,562.87758 392.05523,564.35544 392.39033,564.59742 393.54573,564.34275 394.37003,565.26026 395.55573,565.5201 395.56533,566.3725 394.49163,568.20265 395.19903,568.61493 395.15313,572.0253 394.42373,572.43176 393.09463,571.58649 392.35823,572.03506 393.47403,572.77775 395.24163,573.04223 396.00443,573.50034 395.95733,577.05913 396.77453,578.54608 396.64053,578.96898 395.32093,579.11446 394.14893,580.42221 392.24663,581.51492 391.97653,582.30818 390.95723,584.62866 389.20003,586.45361 387.42833,585.87663 387.03793,585.19247 385.81043,585.36551 384.66033,585.08621 384.75123,583.95285 383.69123,582.22946 381.64703,582.04862 377.82913,585.13453 376.96283,584.34946 377.08723,583.51015 378.44343,583.10475 376.81993,583.342 376.31943,583.09311 374.23133,585.13883 372.99073,584.80475 371.74913,585.1826 371.24893,586.283 370.56443,585.74231 368.70303,581.76007 369.10673,580.48044 368.85883,579.59974 368.79123,578.9034 368.48863,579.68595 368.87813,580.44297 368.64383,581.21066 367.50773,581.43456 368.35173,581.6139 369.51503,583.89933 369.18833,584.5644 369.89093,584.80324 370.33283,585.76444 370.21253,586.25049 369.86423,586.47637 367.50933,585.81137 366.99313,586.93037 365.67593,586.76281 365.00613,587.34515 363.26543,587.33149 363.35533,587.7489 361.78213,589.08401 359.20493,590.38029 358.74033,589.11953 357.10793,587.00777 356.84223,584.85396 357.21913,584.05254 357.94223,584.21422 357.01223,583.68463 357.88763,581.93675 357.27703,581.88334 357.53503,581.25394 356.47623,580.61829 356.53403,579.86926 356.09633,579.57986 356.10863,578.06149 357.35563,576.74656 357.38493,576.29919 357.70193,576.35531 357.72973,577.57673 358.57743,578.52418 360.10673,579.34894 360.54093,579.31995 361.65123,577.98665 362.93913,577.88408 363.68223,576.38659 363.60283,574.75612 366.03933,573.83347 367.10193,574.51552 367.97803,574.53111 367.50983,573.86223 367.63553,571.71096 366.87523,569.24541 367.30603,567.65984 368.53153,567.25536 368.85843,566.42591 367.75693,564.52802 368.42093,563.40265 368.41793,562.58807 367.72893,562.15142 367.55243,561.35433 367.12343,561.3217 366.73743,560.54965 366.33343,560.69833 364.30213,562.22301 362.62933,562.54605 362.40323,563.8184 362.05873,564.07703 361.04683,563.41102 360.59043,561.37185 359.55713,560.11934 357.85013,560.21254 356.72323,558.91524 355.44963,558.71038 354.74033,558.19498 353.01933,558.35946 352.37073,558.94711 351.68593,558.52394 350.39043,558.48368 349.73383,559.0562 348.97153,559.34639 347.35153,558.9682 346.67453,556.3985 345.66203,554.93168 344.49903,550.18324 342.21153,548.91817 342.02453,548.5091 342.30763,548.15992 342.01603,546.39695 342.76453,545.29302 341.65623,544.68302 339.53703,544.92293 339.81543,544.08759 339.57843,542.79956 340.62513,542.03259 340.31433,541.34281 341.33593,539.99375 341.23953,539.12772 342.40033,538.60287 342.67843,537.8233 344.75713,537.89261 346.31103,537.2879 349.07653,535.40741 353.82883,533.52486 354.80913,534.30176 356.57193,534.47028 359.62023,533.88935 361.00173,533.51058 361.87713,534.37531 363.53903,534.4365 363.90623,534.21189 364.00653,533.37378 365.96393,535.10559 364.61623,536.77144 364.97973,537.55854 366.34483,538.63612 367.50433,537.42118 368.70143,537.61817 370.01493,536.45656 372.14333,536.03804 373.20173,535.33247 374.26653,536.99878 374.14623,537.80215 374.78953,538.23342 375.02703,537.41723 376.27673,537.44106 377.04393,537.75921 377.64183,538.87511 378.80373,539.28707 378.92553,538.8853 380.35173,538.18972 381.58153,538.039 383.85833,539.04186 383.58023,537.83808 384.71793,536.61419 385.50193,536.30159 386.69163,536.65994 387.05583,536.88893 388.14503,536.21111 389.27113,536.66695 390.21483,535.80991 390.77223,534.65627 390.22813,533.97158 390.27203,533.08907 390.79753,531.87641 391.61803,531.58003 392.03733,530.84413 393.54783,530.99604 393.78393,531.31961 394.18493,531.37024 394.89633,530.42998 395.29913,530.44478 395.88313,531.04081 397.16633,530.87844 397.89203,531.34856 398.74873,531.37254 399.21743,532.10073 400.46893,531.96326 400.27903,532.84324 400.87053,534.99419 402.01173,535.47968 401.86253,536.71601 403.58663,536.63853 404.93703,535.61708 406.61263,535.31526 409.83193,536.32147 411.06823,536.20334 412.21613,537.96396 412.02763,539.52871 411.04903,540.82031 410.43463,540.26414 409.72353,541.18988 408.37763,543.65556 407.98983,543.52279 407.40543,544.09879 407.17023,545.66246 406.48913,545.84724 405.15733,544.84211 402.75333,545.54755 402.16043,544.40275 401.43703,544.72451 z">
      <title id="t263">Sixième circonscription du Morbihan</title>
      <desc id="d263">Cantons de : Cléguérec, Le Faouët, Gourin, Guémené-sur-Scorff, Hennebont, Plouay, Pont-Scorff</desc>
    </path></svg>