<svg xmlns="http://www.w3.org/2000/svg" version="1.1" xmlns:xlink="http://www.w3.org/1999/xlink" xmlns:svgjs="http://svgjs.dev/svgjs" viewBox="0 0 144.24289999999996 117.42456000000004"><path class="circo" id="id-056-01" d="M84.18019999999996 60.54956000000004L83.21144999999996 61.26831000000004L82.30519999999996 63.14331000000004L80.30519999999996 63.11206000000004L79.99269999999996 64.36206000000004L81.27394999999996 65.54956000000004L79.61769999999996 66.83081000000004L79.46144999999996 67.98706000000004L76.71144999999996 66.86206000000004L74.58644999999996 66.67456000000004L74.08644999999996 68.26831000000004L73.11769999999996 68.79956000000004L72.21144999999996 71.98706000000004L71.61769999999996 72.64331000000004L69.61769999999996 73.61206000000004L68.58644999999996 74.33081000000004L67.77394999999996 74.17456000000004L67.08644999999996 73.98706000000004L66.68019999999996 74.70581000000004L66.39894999999996 76.20581000000004L67.74269999999996 79.14331000000004L68.18019999999996 76.48706000000004L68.39894999999996 78.20581000000004L69.21144999999996 76.79956000000004L69.43019999999996 77.92456000000004L68.52394999999996 78.64331000000004L69.18019999999996 79.45581000000004L69.89894999999996 78.33081000000004L70.52394999999996 79.36206000000004L71.58644999999996 80.01831000000004L71.80519999999996 79.79956000000004L71.80519999999996 76.89331000000004L73.93019999999996 77.92456000000004L74.30519999999996 77.17456000000004L73.46144999999996 76.51831000000004L74.46144999999996 75.64331000000004L74.36769999999996 75.04956000000004L73.64894999999996 75.11206000000004L74.27394999999996 74.54956000000004L76.74269999999996 75.29956000000004L78.33644999999996 74.67456000000004L80.02394999999996 75.11206000000004L80.83644999999996 74.79956000000004L81.21144999999996 74.01831000000004L80.89894999999996 73.23706000000004L82.30519999999996 73.45581000000004L82.68019999999996 72.14331000000004L83.71144999999996 74.86206000000004L84.11769999999996 73.89331000000004L84.64894999999996 75.54956000000004L81.33644999999996 74.23706000000004L81.21144999999996 74.83081000000004L85.11769999999996 77.33081000000004L84.74269999999996 76.58081000000004L85.96144999999996 76.92456000000004L86.33644999999996 77.70581000000004L86.14894999999996 78.76831000000004L86.46144999999996 80.39331000000004L85.43019999999996 82.14331000000004L85.24269999999996 83.61206000000004L85.39894999999996 84.33081000000004L84.49269999999996 84.83081000000004L84.27394999999996 84.54956000000004L83.18019999999996 85.39331000000004L80.96144999999996 85.01831000000004L81.11769999999996 84.08081000000004L80.36769999999996 83.48706000000004L79.27394999999996 83.95581000000004L79.43019999999996 85.17456000000004L78.83644999999996 84.64331000000004L78.61769999999996 82.98706000000004L77.30519999999996 82.86206000000004L77.93019999999996 84.73706000000004L76.96144999999996 85.17456000000004L76.99269999999996 83.73706000000004L75.83644999999996 84.48706000000004L75.02394999999996 84.01831000000004L75.08644999999996 84.98706000000004L74.77394999999996 85.23706000000004L74.08644999999996 84.95581000000004L74.30519999999996 83.51831000000004L73.11769999999996 84.17456000000004L73.33644999999996 82.58081000000004L72.74269999999996 83.17456000000004L72.55519999999996 81.92456000000004L71.18019999999996 82.86206000000004L70.86769999999996 82.04956000000004L69.58644999999996 82.67456000000004L70.08644999999996 83.79956000000004L69.18019999999996 83.83081000000004L69.77394999999996 84.73706000000004L71.58644999999996 84.48706000000004L70.33644999999996 85.17456000000004L70.77394999999996 85.64331000000004L71.46144999999996 85.08081000000004L73.39894999999996 86.11206000000004L74.39894999999996 87.54956000000004L74.86769999999996 87.61206000000004L75.30519999999996 90.17456000000004L78.05519999999996 91.58081000000004L78.89894999999996 91.39331000000004L79.71144999999996 91.76831000000004L80.96144999999996 90.54956000000004L83.55519999999996 90.14331000000004L85.49269999999996 89.20581000000004L86.80519999999996 89.39331000000004L89.58644999999996 90.64331000000004L90.93019999999996 87.51831000000004L92.93019999999996 87.92456000000004L93.46144999999996 88.54956000000004L93.86769999999996 89.29956000000004L94.33644999999996 89.29956000000004L96.46144999999996 87.79956000000004L98.24269999999996 87.83081000000004L99.96144999999996 88.29956000000004L100.39894999999996 88.23706000000004L101.05519999999996 87.08081000000004L101.80519999999996 86.70581000000004L103.46144999999996 86.70581000000004L104.80519999999996 87.67456000000004L107.61769999999996 88.45581000000004L109.77394999999996 90.08081000000004L110.02394999999996 90.39331000000004L111.55519999999996 90.54956000000004L112.39894999999996 90.67456000000004L113.61769999999996 89.48706000000004L115.05519999999996 90.23706000000004L116.83644999999996 88.98706000000004L115.24269999999996 86.98706000000004L114.49269999999996 84.08081000000004L113.46144999999996 83.26831000000004L112.61769999999996 83.01831000000004L112.33644999999996 83.33081000000004L111.64894999999996 82.61206000000004L112.83644999999996 80.83081000000004L113.99269999999996 80.76831000000004L114.61769999999996 79.83081000000004L115.02394999999996 79.89331000000004L115.27394999999996 78.67456000000004L114.08644999999996 78.48706000000004L113.89894999999996 78.14331000000004L114.46144999999996 77.01831000000004L114.33644999999996 75.76831000000004L113.83644999999996 75.45581000000004L113.33644999999996 74.95581000000004L112.52394999999996 75.23706000000004L111.33644999999996 74.79956000000004L110.05519999999996 75.08081000000004L109.74269999999996 74.76831000000004L109.77394999999996 73.54956000000004L108.74269999999996 72.73706000000004L107.18019999999996 73.20581000000004L105.93019999999996 73.08081000000004L105.05519999999996 74.54956000000004L103.89894999999996 74.45581000000004L102.39894999999996 75.08081000000004L102.55519999999996 77.29956000000004L101.39894999999996 77.20581000000004L99.89894999999996 77.67456000000004L98.43019999999996 77.76831000000004L97.83644999999996 77.33081000000004L98.11769999999996 76.58081000000004L97.61769999999996 75.95581000000004L97.83644999999996 75.33081000000004L97.11769999999996 73.39331000000004L96.11769999999996 72.67456000000004L96.30519999999996 71.45581000000004L95.33644999999996 70.64331000000004L95.05519999999996 70.29956000000004L95.33644999999996 69.01831000000004L94.99269999999996 68.79956000000004L93.68019999999996 68.61206000000004L91.39894999999996 69.86206000000004L90.24269999999996 69.29956000000004L89.46144999999996 68.39331000000004L89.36769999999996 68.45581000000004L88.71144999999996 68.01831000000004L87.55519999999996 68.61206000000004L86.49269999999996 67.86206000000004L86.21144999999996 67.54956000000004L86.33644999999996 67.17456000000004L87.83644999999996 65.76831000000004L88.27394999999996 64.54956000000004L88.05519999999996 64.20581000000004L84.99269999999996 62.67456000000004L84.86769999999996 61.01831000000004L84.18019999999996 60.54956000000004zM75.99269999999996 76.45581000000004L75.33644999999996 77.51831000000004L74.71144999999996 77.17456000000004L74.96144999999996 77.83081000000004L74.58644999999996 78.42456000000004L74.08644999999996 81.29956000000004L74.24269999999996 82.39331000000004L74.39894999999996 82.26831000000004L74.39894999999996 81.58081000000004L75.08644999999996 81.54956000000004L74.71144999999996 80.67456000000004L75.02394999999996 79.17456000000004L75.14894999999996 78.95581000000004L75.30519999999996 78.79956000000004L75.49269999999996 78.70581000000004L77.21144999999996 78.83081000000004L76.83644999999996 78.39331000000004L75.86769999999996 78.08081000000004L75.99269999999996 76.45581000000004zM79.68019999999996 76.61206000000004L79.52394999999996 77.61206000000004L78.46144999999996 78.42456000000004L78.68019999999996 78.98706000000004L78.14894999999996 79.33081000000004L78.30519999999996 79.98706000000004L78.49269999999996 80.08081000000004L79.49269999999996 78.67456000000004L80.33644999999996 77.92456000000004L80.30519999999996 77.48706000000004L79.89894999999996 76.95581000000004L79.68019999999996 76.61206000000004z">
      <title id="t258">Première circonscription du Morbihan</title>
      <desc id="d258">Cantons de : Muzillac, Sarzeau, Vannes Centre, Vannes Est, Vannes Ouest</desc>
    </path><path class="circo" id="id-056-02" d="M61.46144999999996 43.89331000000004L60.11769999999996 45.01831000000004L59.52394999999996 46.20581000000004L59.27394999999996 47.95581000000004L58.68019999999996 48.54956000000004L57.24269999999996 48.11206000000004L57.11769999999996 48.54956000000004L55.77394999999996 48.67456000000004L54.61769999999996 49.98706000000004L52.71144999999996 51.08081000000004L52.43019999999996 51.89331000000004L51.43019999999996 54.20581000000004L49.64894999999996 56.01831000000004L47.89894999999996 55.45581000000004L47.49269999999996 54.76831000000004L46.27394999999996 54.92456000000004L45.11769999999996 54.64331000000004L45.21144999999996 53.51831000000004L44.14894999999996 51.79956000000004L42.11769999999996 51.61206000000004L38.30519999999996 54.70581000000004L37.89894999999996 56.23706000000004L37.18019999999996 55.79956000000004L36.27394999999996 58.58081000000004L35.52394999999996 59.08081000000004L35.08644999999996 60.29956000000004L33.99269999999996 60.20581000000004L34.11769999999996 61.04956000000004L32.93019999999996 60.33081000000004L32.74269999999996 61.58081000000004L33.18019999999996 62.73706000000004L31.742699999999957 63.58081000000004L32.24269999999996 64.20581000000004L33.33644999999996 63.64331000000004L35.74269999999996 63.73706000000004L36.24269999999996 64.26831000000004L37.83644999999996 64.61206000000004L38.46144999999996 66.20581000000004L37.64894999999996 66.29956000000004L36.14894999999996 65.58081000000004L34.61769999999996 64.54956000000004L34.08644999999996 64.89331000000004L33.11769999999996 65.08081000000004L32.30519999999996 64.79956000000004L31.617699999999957 65.86206000000004L31.992699999999957 66.36206000000004L32.86769999999996 65.36206000000004L35.93019999999996 65.76831000000004L38.74269999999996 67.04956000000004L44.14894999999996 71.61206000000004L44.33644999999996 70.67456000000004L44.11769999999996 68.48706000000004L45.33644999999996 66.95581000000004L43.96144999999996 65.39331000000004L45.64894999999996 66.14331000000004L47.27394999999996 65.45581000000004L47.96144999999996 65.33081000000004L49.46144999999996 65.64331000000004L49.46144999999996 66.08081000000004L48.71144999999996 66.36206000000004L48.18019999999996 67.04956000000004L46.49269999999996 66.98706000000004L45.80519999999996 67.48706000000004L44.68019999999996 68.70581000000004L44.80519999999996 69.11206000000004L44.64894999999996 69.51831000000004L44.93019999999996 71.20581000000004L44.46144999999996 71.92456000000004L45.58644999999996 74.33081000000004L48.83644999999996 76.51831000000004L50.36769999999996 79.73706000000004L50.52394999999996 82.42456000000004L50.83644999999996 84.11206000000004L50.36769999999996 85.29956000000004L49.93019999999996 86.01831000000004L48.77394999999996 86.61206000000004L49.24269999999996 87.33081000000004L49.39894999999996 89.45581000000004L50.18019999999996 91.95581000000004L51.08644999999996 92.92456000000004L52.39894999999996 92.83081000000004L54.46144999999996 93.48706000000004L54.86769999999996 93.42456000000004L54.24269999999996 92.26831000000004L52.36769999999996 90.39331000000004L52.14894999999996 89.54956000000004L52.24269999999996 88.67456000000004L51.58644999999996 88.17456000000004L51.05519999999996 86.08081000000004L51.39894999999996 82.20581000000004L52.55519999999996 80.23706000000004L51.39894999999996 80.51831000000004L51.39894999999996 77.48706000000004L53.52394999999996 79.51831000000004L54.49269999999996 80.26831000000004L53.39894999999996 80.04956000000004L54.02394999999996 81.76831000000004L56.77394999999996 80.70581000000004L57.64894999999996 81.23706000000004L57.89894999999996 80.14331000000004L58.77394999999996 80.01831000000004L58.77394999999996 78.92456000000004L60.43019999999996 81.45581000000004L59.89894999999996 78.58081000000004L60.27394999999996 78.45581000000004L60.33644999999996 78.42456000000004L61.52394999999996 80.86206000000004L62.14894999999996 81.39331000000004L62.89894999999996 80.98706000000004L62.68019999999996 78.86206000000004L63.21144999999996 79.42456000000004L63.14894999999996 79.86206000000004L64.52394999999996 80.86206000000004L65.11769999999996 83.01831000000004L65.99269999999996 81.73706000000004L66.64894999999996 82.86206000000004L68.58644999999996 82.92456000000004L66.80519999999996 80.39331000000004L64.96144999999996 78.76831000000004L66.14894999999996 77.58081000000004L64.68019999999996 76.51831000000004L66.11769999999996 75.51831000000004L65.43019999999996 72.98706000000004L64.68019999999996 73.04956000000004L64.77394999999996 71.58081000000004L63.83644999999996 70.29956000000004L64.21144999999996 69.76831000000004L64.52394999999996 70.39331000000004L65.21144999999996 71.45581000000004L65.11769999999996 72.26831000000004L65.86769999999996 72.51831000000004L65.58644999999996 72.83081000000004L65.96144999999996 73.95581000000004L67.11769999999996 73.67456000000004L67.77394999999996 74.17456000000004L68.58644999999996 74.33081000000004L69.61769999999996 73.61206000000004L71.61769999999996 72.64331000000004L72.21144999999996 71.98706000000004L73.11769999999996 68.79956000000004L74.08644999999996 68.26831000000004L74.58644999999996 66.67456000000004L72.24269999999996 66.29956000000004L71.99269999999996 65.95581000000004L72.74269999999996 63.64331000000004L71.77394999999996 62.79956000000004L71.83644999999996 62.36206000000004L72.93019999999996 61.70581000000004L72.68019999999996 59.51831000000004L72.96144999999996 57.86206000000004L72.30519999999996 57.26831000000004L69.80519999999996 56.58081000000004L69.39894999999996 56.51831000000004L68.93019999999996 57.23706000000004L69.86769999999996 58.08081000000004L69.71144999999996 58.48706000000004L68.86769999999996 58.64331000000004L68.08644999999996 58.33081000000004L66.89894999999996 58.83081000000004L66.11769999999996 58.54956000000004L66.74269999999996 57.89331000000004L66.39894999999996 57.08081000000004L66.68019999999996 55.36206000000004L66.46144999999996 52.73706000000004L67.68019999999996 52.36206000000004L68.24269999999996 50.23706000000004L68.86769999999996 49.61206000000004L66.33644999999996 48.73706000000004L65.36769999999996 45.98706000000004L65.55519999999996 45.17456000000004L65.27394999999996 44.86206000000004L61.46144999999996 43.89331000000004zM63.11769999999996 102.42456000000004L62.96144999999996 102.48706000000004L62.93019999999996 102.70581000000004L62.99269999999996 103.14331000000004L63.61769999999996 103.36206000000004L64.55519999999996 104.29956000000004L65.83644999999996 104.64331000000004L66.08644999999996 105.26831000000004L66.71144999999996 105.86206000000004L66.27394999999996 104.42456000000004L67.27394999999996 103.36206000000004L66.21144999999996 103.58081000000004L64.89894999999996 103.33081000000004L63.11769999999996 102.42456000000004zM41.58644999999996 104.14331000000004L41.18019999999996 104.29956000000004L40.89894999999996 106.04956000000004L40.27394999999996 106.61206000000004L40.14894999999996 108.36206000000004L40.89894999999996 110.45581000000004L42.30519999999996 112.08081000000004L41.33644999999996 113.48706000000004L43.49269999999996 115.54956000000004L45.96144999999996 115.67456000000004L47.55519999999996 114.95581000000004L48.86769999999996 116.01831000000004L49.71144999999996 115.95581000000004L50.86769999999996 116.61206000000004L52.61769999999996 116.54956000000004L54.21144999999996 117.36206000000004L54.64894999999996 117.42456000000004L55.02394999999996 117.23706000000004L55.71144999999996 116.67456000000004L57.18019999999996 113.54956000000004L56.05519999999996 112.95581000000004L53.83644999999996 113.08081000000004L52.43019999999996 112.08081000000004L51.99269999999996 112.11206000000004L49.96144999999996 110.73706000000004L48.71144999999996 107.11206000000004L47.86769999999996 107.33081000000004L45.80519999999996 106.79956000000004L44.83644999999996 106.01831000000004L43.99269999999996 106.01831000000004L43.71144999999996 106.36206000000004L43.64894999999996 105.48706000000004L42.43019999999996 105.14331000000004L41.58644999999996 104.14331000000004zM73.64894999999996 108.98706000000004L73.05519999999996 109.64331000000004L72.18019999999996 109.64331000000004L71.68019999999996 109.29956000000004L71.74269999999996 110.36206000000004L71.93019999999996 110.76831000000004L72.46144999999996 111.14331000000004L73.93019999999996 110.23706000000004L73.99269999999996 109.14331000000004L73.64894999999996 108.98706000000004z">
      <title id="t259">Deuxième circonscription du Morbihan</title>
      <desc id="d259">Cantons de : Auray, Belle-Ile, Belz, Pluvigner, Port-Louis, Quiberon</desc>
    </path><path class="circo" id="id-056-03" d="M57.23750000000001 48.11609999999996L56.4203 46.62914999999998L56.4674 43.07036000000005L55.70459999999997 42.61225000000002L53.93700000000001 42.34776999999997L52.821199999999976 41.605080000000044L53.55759999999998 41.156510000000026L54.88669999999996 42.00178000000005L55.61609999999996 41.595320000000015L55.66199999999998 38.18494999999996L54.95459999999997 37.77266999999995L56.0283 35.942519999999945L56.01869999999997 35.090119999999956L54.83299999999997 34.830280000000016L54.008699999999976 33.91277000000002L52.85329999999999 34.167440000000056L52.51819999999998 33.925460000000044L50.81509999999997 32.447599999999966L49.99709999999999 30.843219999999974L50.233900000000006 28.582790000000045L50.84499999999997 27.97559000000001L50.80559999999997 26.17166999999995L51.10649999999998 25.83511999999996L49.97629999999998 24.048149999999964L49.90629999999999 23.220770000000016L48.9049 22.42035999999996L47.64490000000001 22.45835999999997L48.18459999999999 21.310910000000035L47.988999999999976 20.477070000000026L48.97120000000001 19.100599999999986L50.381399999999985 18.116520000000037L51.8707 17.496250000000032L52.524 18.660150000000044L54.220699999999965 20.01814999999999L55.53159999999997 20.204700000000003L57.75319999999999 21.662689999999998L59.0865 21.610570000000052L59.85669999999999 22.03340000000003L61.18520000000001 19.51252999999997L62.03559999999999 19.455550000000017L62.6524 18.867849999999976L61.94999999999999 18.344079999999963L61.885699999999986 17.466229999999996L60.760699999999986 16.115969999999948L61.11779999999999 15.377680000000055L61.8621 15.498829999999998L61.89999999999998 14.294530000000009L62.623400000000004 13.972769999999969L63.21629999999999 15.11757L65.62029999999999 14.412130000000047L66.95209999999997 15.417260000000056L67.63319999999999 15.23248000000001L67.86840000000001 13.668810000000008L68.45279999999997 13.092809999999986L68.8406 13.225580000000036L70.18649999999997 10.759900000000016L70.89760000000001 9.834159999999997L71.512 10.390329999999949L72.49059999999997 9.098730000000046L72.6791 7.533980000000042L75.07209999999998 8.770470000000046L78.42079999999999 8.089830000000006L80.58299999999997 11.138860000000022L80.8902 11.814730000000054L80.70949999999999 12.570100000000025L81.16539999999998 13.244170000000054L81.40879999999999 15.66755999999998L82.53649999999999 14.381459999999947L83.4357 11.916330000000016L83.71100000000001 12.252200000000016L85.38619999999997 11.917479999999955L87.4667 12.435789999999997L87.60929999999996 11.633929999999964L89.82589999999999 9.96623999999997L90.65069999999997 9.885999999999967L91.88589999999999 11.475530000000049L91.51119999999997 12.113550000000032L91.90129999999999 12.667869999999994L91.56029999999998 13.439949999999953L91.8383 14.269710000000032L91.57149999999996 15.549600000000055L90.24239999999998 18.737480000000005L90.6103 19.526770000000056L90.4685 20.788599999999974L91.226 21.033480000000054L91.14139999999998 22.02475000000004L91.56559999999996 22.598700000000008L91.93599999999998 25.173649999999952L91.3535 25.73829999999998L91.8152 26.392849999999953L91.6397 27.645599999999945L92.02639999999997 28.404989999999998L93.46139999999997 29.03183999999999L93.59979999999996 30.670439999999985L93.23589999999996 31.139779999999973L93.65899999999999 31.14955999999995L93.7525 31.563139999999976L92.44209999999998 32.59280000000001L91.81979999999999 34.54048999999998L91.54429999999996 36.67102L91.87020000000001 37.48059999999998L93.36989999999997 36.65656000000001L94.2233 36.68700000000001L95.33779999999996 37.21501999999998L96.79449999999997 38.71182999999996L94.68209999999999 40.332419999999956L93.96729999999997 41.472369999999955L94.64869999999996 43.42465000000004L95.4273 44.40594999999996L96.14240000000001 44.026880000000006L97.44049999999999 44.04309999999998L98.27249999999998 45.01379999999995L99.12799999999999 45.17151000000001L98.8895 46.28213000000005L98.23320000000001 46.84622999999999L98.7835 48.91629999999998L98.96709999999996 49.30876000000001L99.822 49.41840000000002L100.59569999999997 50.44525999999996L100.52729999999997 51.30541000000005L99.7733 52.35324000000003L101.2312 52.93416000000002L100.53059999999999 54.789300000000026L102.01479999999998 56.04840999999999L101.40049999999997 57.05578000000003L101.93879999999996 57.757150000000024L101.53249999999997 59.47607000000005L102.88009999999997 60.58554000000004L102.73879999999997 61.345800000000054L101.50029999999998 62.35866999999996L101.6737 63.56960000000004L102.44309999999996 63.959929999999986L105.32239999999996 64.30501000000004L106.11449999999996 65.76523999999995L106.16239999999999 66.57087000000001L104.62880000000001 68.91621999999995L105.17689999999999 69.99153999999999L104.83449999999999 70.25919999999996L103.65389999999996 69.91493000000003L99.62009999999998 71.12257999999997L98.09729999999996 73.18856000000005L99.2321 73.75451999999996L97.82959999999997 75.34366999999997L97.11789999999996 73.37991L96.10739999999998 72.66758000000004L96.29019999999997 71.45012999999994L95.3476 70.62806L95.05629999999996 70.29819999999995L95.34960000000001 69.02452000000005L94.9776 68.79025000000001L93.67449999999997 68.62149L91.4026 69.84956L90.24489999999997 69.28503L89.45709999999997 68.38733000000002L89.3748 68.44338000000005L88.71859999999998 68.02049999999997L87.55489999999998 68.62427000000002L86.5079 67.85499000000004L86.20389999999998 67.56273999999996L86.3467 67.16606000000002L87.85109999999997 65.75324L88.2688 64.56507999999997L88.0496 64.20471999999995L85.0025 62.66165000000001L84.85359999999997 61.01685999999995L84.1705 60.55002000000002L83.22269999999997 61.260380000000055L82.315 63.13982999999996L80.31809999999996 63.11216000000002L79.98249999999996 64.36476000000005L81.27099999999996 65.56016L79.60929999999996 66.82326999999998L79.46600000000001 67.98351000000002L76.71010000000001 66.85433L74.59209999999996 66.66543999999999L72.233 66.29345999999998L71.9991 65.95983999999999L72.73059999999998 63.64804000000004L71.7627 62.80037000000004L71.84889999999996 62.37080000000003L72.93209999999999 61.69443000000001L72.6662 59.52436L72.9529 57.85640999999998L72.31059999999997 57.26657L69.8134 56.585500000000025L69.38739999999996 56.53314999999998L68.91909999999996 57.224590000000035L69.85829999999999 58.08284000000003L69.69810000000001 58.481719999999996L68.87689999999998 58.63594999999998L68.07489999999996 58.332539999999995L66.91109999999998 58.81520999999998L66.12700000000001 58.555169999999976L66.72989999999999 57.903569999999945L66.39269999999999 57.083349999999996L66.69069999999999 55.35659999999996L66.4597 52.72613999999999L67.68799999999999 52.35919000000001L68.2416 50.23729000000003L68.87029999999999 49.61297000000002L66.34809999999999 48.732849999999985L65.35719999999998 45.987139999999954L65.5557 45.174049999999966L65.28539999999998 44.854940000000056L61.45679999999999 43.90259000000003L60.11070000000001 45.029120000000034L59.51599999999996 46.21361000000002L59.2722 47.96175000000005L58.6737 48.554070000000024L57.23750000000001 48.11609999999996z">
      <title id="t260">Troisième circonscription du Morbihan</title>
      <desc id="d260">Cantons de : Baud, Elven, Grand-Champ, Locminé, Pontivy, Rohan, Saint-Jean-Brévelay</desc>
    </path><path class="circo" id="id-056-04" d="M138.53549999999996 72.95569999999998L138.46839999999997 72.54697999999996L139.21479999999997 72.24824999999998L139.23129999999998 71.83406000000002L137.75039999999996 71.3555L137.925 70.16052000000002L138.5317 69.02716999999996L138.47929999999997 67.74049000000002L136.8802 66.92213000000004L136.7602 65.63049999999998L137.1803 63.506939999999986L136.33569999999997 62.51597000000004L136.3911 61.706570000000056L137.9307 60.95101999999997L138.0027 60.20082000000002L142.21859999999998 59.892810000000054L142.0093 58.25541999999996L140.30359999999996 58.35289L139.78679999999997 56.82285999999999L136.373 56.97409000000005L136.67239999999998 55.80368999999996L137.8394 55.597669999999994L137.94819999999999 54.798790000000054L139.19619999999998 54.74983999999995L139.87439999999998 54.241570000000024L141.11079999999998 53.12558999999999L141.1746 52.27466000000004L141.31719999999996 50.64815999999996L143.3313 49.66233999999997L144.24289999999996 47.85577000000001L143.10409999999996 47.29845999999998L142.72269999999997 45.64045999999996L142.97789999999998 44.85760000000005L142.6569 43.380300000000034L141.41449999999998 45.52252999999996L139.21499999999997 46.615099999999984L138.0032 45.90785000000005L138.8823 43.92792999999995L137.60159999999996 42.108370000000036L137.579 40.77229999999997L138.4986 39.37485000000004L139.34179999999998 39.15436L140.3352 38.293120000000044L140.17469999999997 37.56925000000001L140.5958 36.952980000000025L138.9715 34.894739999999956L138.4094 32.83127999999999L137.85359999999997 31.929859999999962L137.1261 31.69223999999997L136.8945 31.32271000000003L135.54219999999998 29.307530000000042L134.8453 28.77367000000004L132.2844 29.267020000000002L131.0666 28.108060000000023L129.4722 27.39449000000002L129.08099999999996 27.59226000000001L127.05949999999996 26.81817000000001L122.86529999999999 27.812760000000026L122.88470000000001 26.51341000000002L123.80340000000001 25.61060999999995L123.29879999999997 24.451509999999985L123.46039999999999 24.04750999999999L124.07669999999996 22.785300000000007L126.08279999999996 20.66971000000001L126.69999999999999 20.04828999999995L131.04159999999996 20.06749000000002L132.7348 18.70110999999997L132.6988 17.38202000000001L132.98559999999998 17.045389999999998L131.8641 16.16342999999995L128.40159999999997 16.690939999999955L127.332 17.398810000000026L127.29469999999998 18.65061000000003L125.53620000000001 18.742700000000013L125.46429999999998 17.52233000000001L126.12759999999997 16.039120000000025L125.74779999999998 15.315200000000004L125.56399999999996 14.426510000000007L125.51819999999998 12.704150000000027L122.88749999999999 9.721319999999992L120.3671 9.674319999999966L119.8988 10.883289999999988L119.24599999999998 11.425870000000032L117.81200000000001 10.656240000000025L116.9162 12.57761000000005L116.52659999999997 12.284919999999943L115.5607 10.909650000000056L115.46909999999997 10.083150000000046L115.37099999999998 8.741179999999986L113.32829999999996 7.008270000000039L112.69599999999997 5.351890000000026L111.52859999999998 4.688480000000027L109.30789999999996 4.781150000000025L108.12059999999997 5.962480000000028L106.03339999999997 5.793999999999983L105.79199999999997 6.641809999999964L101.88619999999997 6.766300000000001L103.49459999999999 9.189550000000054L103.5367 10.041249999999991L103.02889999999996 11.199219999999968L101.8526 13.044949999999972L100.8397 13.88214000000005L100.40409999999997 14.559380000000033L100.6678 17.010920000000056L99.85079999999999 17.25454000000002L99.3204 17.929020000000037L98.07139999999998 17.86833999999999L97.92969999999997 18.276659999999993L96.96440000000001 19.734699999999975L94.32279999999997 22.044200000000046L92.6293 21.995769999999993L92.3707 21.63930000000005L91.56559999999996 22.598700000000008L91.93599999999998 25.173649999999952L91.3535 25.73829999999998L91.8152 26.392849999999953L91.6397 27.645599999999945L92.02639999999997 28.404989999999998L93.46139999999997 29.03183999999999L93.59979999999996 30.670439999999985L93.23589999999996 31.139779999999973L93.65899999999999 31.14955999999995L93.7525 31.563139999999976L92.44209999999998 32.59280000000001L91.81979999999999 34.54048999999998L91.54429999999996 36.67102L91.87020000000001 37.48059999999998L93.36989999999997 36.65656000000001L94.2233 36.68700000000001L95.33779999999996 37.21501999999998L96.79449999999997 38.71182999999996L94.68209999999999 40.332419999999956L93.96729999999997 41.472369999999955L94.64869999999996 43.42465000000004L95.4273 44.40594999999996L96.14240000000001 44.026880000000006L97.44049999999999 44.04309999999998L98.27249999999998 45.01379999999995L99.12799999999999 45.17151000000001L98.8895 46.28213000000005L98.23320000000001 46.84622999999999L98.7835 48.91629999999998L98.96709999999996 49.30876000000001L99.822 49.41840000000002L100.59569999999997 50.44525999999996L100.52729999999997 51.30541000000005L99.7733 52.35324000000003L101.2312 52.93416000000002L100.53059999999999 54.789300000000026L102.01479999999998 56.04840999999999L101.40049999999997 57.05578000000003L101.93879999999996 57.757150000000024L101.53249999999997 59.47607000000005L102.88009999999997 60.58554000000004L102.73879999999997 61.345800000000054L101.50029999999998 62.35866999999996L101.6737 63.56960000000004L102.44309999999996 63.959929999999986L105.32239999999996 64.30501000000004L106.11449999999996 65.76523999999995L106.16239999999999 66.57087000000001L104.62880000000001 68.91621999999995L105.17689999999999 69.99153999999999L104.83449999999999 70.25919999999996L103.65389999999996 69.91493000000003L99.62009999999998 71.12257999999997L98.09729999999996 73.18856000000005L99.2321 73.75451999999996L97.82959999999997 75.34366999999997L97.61809999999997 75.94690000000003L98.12729999999999 76.57289000000003L97.82319999999999 77.32588999999996L98.43899999999996 77.76003000000003L99.89569999999998 77.67381L101.38599999999997 77.20802000000003L102.56139999999999 77.29701999999997L102.40199999999999 75.08074999999997L103.90049999999997 74.44641999999999L105.05649999999997 74.54404L105.916 73.08424000000002L107.19029999999998 73.21505000000002L108.74009999999998 72.73632999999995L109.76299999999998 73.55195000000003L109.74099999999999 74.78251L110.0661 75.07281L111.3372 74.78592000000003L112.52449999999999 75.24455999999998L113.34359999999998 74.94922999999994L113.83850000000001 75.45338000000004L114.32659999999998 75.75903000000005L114.45599999999996 77.00820999999996L113.90780000000001 78.14774999999997L114.0994 78.48037L115.27569999999997 78.65908999999999L115.02139999999997 79.88504999999998L114.63099999999997 79.82771000000002L113.98320000000001 80.76680999999996L112.82959999999997 80.81759L111.6397 82.62044000000003L112.3245 83.32325000000003L112.63149999999996 83.00774999999999L113.47219999999999 83.25914L114.48239999999998 84.08518000000004L115.2355 86.98134000000005L116.83709999999996 88.97843L115.05349999999999 90.24801000000002L113.61719999999997 89.49724000000003L112.39189999999996 90.66231000000005L111.56709999999998 90.54882999999995L111.35589999999996 90.88572999999997L109.63229999999999 90.65300000000002L107.8442 91.81572000000006L105.59449999999998 90.44239000000005L104.77389999999997 91.18991000000005L105.68129999999996 93.40543000000002L105.02709999999996 95.02594999999997L105.33459999999997 96.31120999999996L106.37329999999997 97.10406999999998L107.4667 96.35307L108.33420000000001 96.46970999999996L109.07339999999999 94.52970000000005L109.86590000000001 94.22982000000002L111.3485 92.82354999999995L111.59839999999997 94.10898999999995L112.42109999999997 95.12325999999996L113.70249999999999 95.40713000000005L115.2113 94.62991L116.09309999999999 94.57533999999998L117.05250000000001 95.48204999999996L120.4348 94.66033000000004L120.66489999999999 92.07608000000005L121.76529999999997 90.18020000000001L121.96769999999998 87.99820999999997L122.05629999999996 87.95138999999995L123.55989999999997 88.56781000000001L125.2502 88.45442000000003L125.55519999999996 88.75305000000003L125.0788 89.87698L126.5421 90.74960999999996L128.87559999999996 89.05745999999999L130.4377 88.54528000000005L131.31119999999999 88.42070000000001L131.52769999999998 88.80591000000004L131.18149999999997 90.46441000000004L131.4672 90.80082000000004L133.185 91.09959000000003L134.1153 90.22032999999999L134.26759999999996 87.17367000000002L135.06989999999996 86.80435L138.9042 85.73580000000004L139.04739999999998 84.88265000000001L138.4758 83.76342L139.0845 80.80044999999996L138.3761 80.18268L138.7677 80.01634999999999L138.59199999999998 77.94393000000002L139.95569999999998 76.94140000000004L140.05609999999996 76.52774999999997L140.09879999999998 74.77468999999996L139.05849999999998 73.39730999999995L138.53549999999996 72.95569999999998z">
      <title id="t261">Quatrième circonscription du Morbihan</title>
      <desc id="d261">Cantons de : Allaire, La Gacilly, Guer, Josselin, Malestroit, Mauron, Ploërmel, Questembert, La Roche-Bernard, Rochefort-en-Terre, La Trinité-Porhoët</desc>
    </path><path class="circo" id="id-056-05" d="M36.77394999999996 52.67456000000004L34.68019999999996 54.70581000000004L33.46144999999996 54.36206000000004L32.21144999999996 54.73706000000004L31.711449999999957 55.86206000000004L31.555199999999957 56.70581000000004L32.18019999999996 56.76831000000004L32.99269999999996 59.33081000000004L34.86769999999996 58.67456000000004L34.49269999999996 56.17456000000004L35.11769999999996 57.64331000000004L36.61769999999996 56.33081000000004L36.86769999999996 55.33081000000004L37.77394999999996 55.61206000000004L37.93019999999996 54.89331000000004L37.05519999999996 54.08081000000004L37.27394999999996 52.92456000000004L36.77394999999996 52.67456000000004zM27.961449999999957 55.39331000000004L27.461449999999957 56.48706000000004L26.148949999999957 56.33081000000004L25.461449999999957 56.92456000000004L23.742699999999957 56.89331000000004L23.805199999999957 57.33081000000004L22.242699999999957 58.64331000000004L19.680199999999957 59.95581000000004L19.836449999999957 60.79956000000004L23.492699999999957 65.01831000000004L24.305199999999957 65.14331000000004L25.805199999999957 64.29956000000004L26.930199999999957 64.67456000000004L27.305199999999957 64.42456000000004L29.023949999999957 64.54956000000004L29.773949999999957 64.17456000000004L30.898949999999957 62.83081000000004L31.086449999999957 61.54956000000004L31.992699999999957 60.79956000000004L32.55519999999996 59.23706000000004L31.992699999999957 57.33081000000004L31.398949999999957 57.23706000000004L30.680199999999957 55.83081000000004L30.336449999999957 56.04956000000004L27.961449999999957 55.39331000000004zM19.773949999999957 70.64331000000004L18.711449999999957 70.98706000000004L18.711449999999957 71.64331000000004L19.305199999999957 72.33081000000004L20.367699999999957 73.14331000000004L20.992699999999957 73.39331000000004L21.211449999999957 73.76831000000004L22.086449999999957 74.01831000000004L22.992699999999957 74.67456000000004L23.211449999999957 74.67456000000004L24.305199999999957 74.36206000000004L25.023949999999957 73.86206000000004L25.523949999999957 74.26831000000004L25.961449999999957 74.36206000000004L26.461449999999957 74.83081000000004L26.898949999999957 73.14331000000004L25.586449999999957 71.95581000000004L24.242699999999957 71.83081000000004L20.430199999999957 70.64331000000004L19.773949999999957 70.64331000000004z">
      <title id="t262">Cinquième circonscription du Morbihan</title>
      <desc id="d262">Cantons de : Groix, Lanester, Lorient Centre, Lorient Nord, Lorient Sud, Ploemeur</desc>
    </path><path class="circo" id="id-056-06" d="M61.89999999999998 14.294530000000009L61.8621 15.498829999999998L61.11779999999999 15.377680000000055L60.760699999999986 16.115969999999948L61.885699999999986 17.466229999999996L61.94999999999999 18.344079999999963L62.6524 18.867849999999976L62.03559999999999 19.455550000000017L61.18520000000001 19.51252999999997L59.85669999999999 22.03340000000003L59.0865 21.610570000000052L57.75319999999999 21.662689999999998L55.53159999999997 20.204700000000003L54.220699999999965 20.01814999999999L52.524 18.660150000000044L51.8707 17.496250000000032L50.381399999999985 18.116520000000037L48.97120000000001 19.100599999999986L47.988999999999976 20.477070000000026L48.18459999999999 21.310910000000035L47.64490000000001 22.45835999999997L48.9049 22.42035999999996L49.90629999999999 23.220770000000016L49.97629999999998 24.048149999999964L51.10649999999998 25.83511999999996L50.80559999999997 26.17166999999995L50.84499999999997 27.97559000000001L50.233900000000006 28.582790000000045L49.99709999999999 30.843219999999974L50.81509999999997 32.447599999999966L52.51819999999998 33.925460000000044L52.85329999999999 34.167440000000056L54.008699999999976 33.91277000000002L54.83299999999997 34.830280000000016L56.01869999999997 35.090119999999956L56.0283 35.942519999999945L54.95459999999997 37.77266999999995L55.66199999999998 38.18494999999996L55.61609999999996 41.595320000000015L54.88669999999996 42.00178000000005L53.55759999999998 41.156510000000026L52.821199999999976 41.605080000000044L53.93700000000001 42.34776999999997L55.70459999999997 42.61225000000002L56.4674 43.07036000000005L56.4203 46.62914999999998L57.23750000000001 48.11609999999996L57.1035 48.53899999999999L55.78389999999996 48.68448000000001L54.61189999999999 49.99222999999995L52.709599999999966 51.08493999999996L52.43950000000001 51.87819999999999L51.420199999999966 54.19867999999997L49.66300000000001 56.023630000000026L47.8913 55.44664999999998L47.5009 54.76248999999996L46.27339999999998 54.93552999999997L45.12329999999997 54.65623000000005L45.214200000000005 53.52287000000001L44.1542 51.79948000000002L42.10999999999996 51.61864000000003L38.292100000000005 54.70455000000004L37.42579999999998 53.91948000000002L37.55019999999996 53.08016999999995L38.90639999999996 52.67476999999997L37.282899999999984 52.912019999999984L36.782399999999996 52.663130000000024L34.6943 54.708849999999984L33.45369999999997 54.37477000000001L32.212099999999964 54.75261999999998L31.711899999999957 55.853020000000015L31.0274 55.312329999999974L29.165999999999997 51.33009000000004L29.56970000000001 50.050460000000044L29.321799999999996 49.16976L29.25419999999997 48.47342000000003L28.951599999999985 49.25597000000005L29.341099999999983 50.012989999999945L29.106799999999964 50.78067999999996L27.970699999999965 51.00458000000003L28.81469999999996 51.183919999999944L29.97800000000001 53.46934999999996L29.651299999999992 54.13441999999998L30.35390000000001 54.37325999999996L30.795799999999986 55.334460000000036L30.6755 55.82051000000001L30.327200000000005 56.046389999999974L27.97229999999996 55.38139000000001L27.456099999999992 56.50039000000004L26.13889999999998 56.332829999999944L25.46909999999997 56.91516999999999L23.728399999999965 56.90151000000003L23.818299999999965 57.31892000000005L22.24509999999998 58.654030000000034L19.667899999999975 59.950309999999945L19.203299999999956 58.689550000000054L17.570899999999995 56.57779000000005L17.305199999999957 54.42398000000003L17.68209999999999 53.62256000000002L18.40519999999998 53.784239999999954L17.475199999999973 53.25464999999997L18.350599999999986 51.50676999999996L17.74000000000001 51.453359999999975L17.99799999999999 50.82395999999994L16.93919999999997 50.18831L16.996999999999957 49.43928000000005L16.559300000000007 49.14988000000005L16.57159999999999 47.63151000000005L17.818600000000004 46.316580000000044L17.84789999999998 45.86920999999995L18.16489999999999 45.92533000000003L18.192700000000002 47.14675L19.040399999999977 48.0942L20.56970000000001 48.91895999999997L21.003899999999987 48.88996999999995L22.114199999999983 47.556670000000054L23.40209999999996 47.45410000000004L24.14519999999999 45.956609999999955L24.065799999999967 44.32614000000001L26.50229999999999 43.40349000000003L27.564899999999966 44.08554000000004L28.440999999999974 44.10113000000001L27.972800000000007 43.432249999999954L28.0985 41.28098L27.338199999999972 38.81542999999999L27.769000000000005 37.22986000000003L28.99449999999996 36.825379999999996L29.321399999999983 35.995930000000044L28.219899999999996 34.09803999999997L28.883899999999983 32.972669999999994L28.880899999999997 32.158090000000016L28.191899999999976 31.72144000000003L28.0154 30.924350000000004L27.58639999999997 30.891719999999964L27.200400000000002 30.119670000000042L26.796400000000006 30.268350000000055L24.76509999999996 31.793030000000044L23.092299999999966 32.116070000000036L22.866199999999992 33.388419999999996L22.52170000000001 33.647050000000036L21.509799999999984 32.98104000000001L21.05340000000001 30.941869999999994L20.020099999999957 29.689359999999965L18.313099999999963 29.78255999999999L17.186199999999985 28.48526000000004L15.912599999999998 28.280399999999986L15.203299999999956 27.764999999999986L13.48230000000001 27.929480000000012L12.833699999999965 28.517129999999952L12.14889999999997 28.09396000000004L10.853399999999965 28.05370000000005L10.196799999999996 28.62621999999999L9.434499999999957 28.91641000000004L7.8145000000000095 28.538220000000024L7.137499999999989 25.968520000000012L6.125 24.501700000000028L4.961999999999989 19.753259999999955L2.6744999999999663 18.48819000000003L2.4875000000000114 18.07911999999999L2.7706000000000017 17.729940000000056L2.478999999999985 15.966969999999947L3.2274999999999636 14.863039999999955L2.119199999999978 14.253040000000055L0 14.49294999999995L0.27839999999997644 13.657609999999977L0.041400000000010095 12.369580000000042L1.0880999999999972 11.602610000000027L0.7772999999999683 10.912829999999985L1.7989000000000033 9.563769999999977L1.7024999999999864 8.697739999999953L2.863299999999981 8.172890000000052L3.141399999999976 7.393320000000017L5.220100000000002 7.46262999999999L6.774000000000001 6.8579200000000355L9.539499999999975 4.977430000000027L14.291799999999967 3.094879999999989L15.272099999999966 3.8717799999999443L17.034899999999993 4.040300000000002L20.083199999999977 3.4593700000000354L21.464699999999993 3.080600000000004L22.340100000000007 3.9453300000000127L24.00200000000001 4.006520000000023L24.369199999999978 3.781910000000039L24.469499999999982 2.94380000000001L26.42689999999999 4.675610000000006L25.079199999999958 6.341459999999984L25.442700000000002 7.128559999999993L26.807799999999986 8.206140000000005L27.967299999999966 6.991200000000049L29.1644 7.188189999999963L30.477899999999977 6.026579999999967L32.606299999999976 5.608060000000023L33.66469999999998 4.902489999999943L34.72949999999997 6.56880000000001L34.60919999999999 7.372169999999983L35.2525 7.803440000000023L35.49000000000001 6.987250000000017L36.73969999999997 7.011079999999993L37.50689999999997 7.329230000000052L38.10480000000001 8.44512999999995L39.26669999999996 8.857089999999971L39.388499999999965 8.455320000000029L40.81469999999996 7.759739999999965L42.04449999999997 7.609019999999987L44.32130000000001 8.611880000000042L44.043199999999956 7.40809999999999L45.18090000000001 6.184210000000007L45.9649 5.871610000000032L47.15459999999996 6.2299600000000055L47.5188 6.458949999999959L48.608000000000004 5.781129999999962L49.73410000000001 6.236970000000042L50.67779999999999 5.379929999999945L51.23519999999996 4.226289999999949L50.691100000000006 3.5416000000000167L50.73499999999996 2.659089999999992L51.26049999999998 1.446429999999964L52.08099999999996 1.1500499999999647L52.50029999999998 0.4141499999999496L54.01079999999996 0.5660599999999931L54.24689999999998 0.889630000000011L54.64789999999999 0.9402599999999666L55.35929999999996 0L55.762099999999975 0.014800000000036562L56.34609999999998 0.6108299999999645L57.6293 0.44845999999995456L58.35499999999996 0.9185800000000199L59.21170000000001 0.9425599999999577L59.68039999999996 1.6707499999999982L60.931899999999985 1.5332799999999907L60.74199999999996 2.4132600000000366L61.33349999999996 4.564210000000003L62.474699999999984 5.04970000000003L62.32549999999998 6.2860299999999825L64.0496 6.208549999999946L65.39999999999998 5.187099999999987L67.07560000000001 4.885279999999966L70.29489999999998 5.891489999999976L71.53120000000001 5.773360000000025L72.6791 7.533980000000042L72.49059999999997 9.098730000000046L71.512 10.390329999999949L70.89760000000001 9.834159999999997L70.18649999999997 10.759900000000016L68.8406 13.225580000000036L68.45279999999997 13.092809999999986L67.86840000000001 13.668810000000008L67.63319999999999 15.23248000000001L66.95209999999997 15.417260000000056L65.62029999999999 14.412130000000047L63.21629999999999 15.11757L62.623400000000004 13.972769999999969L61.89999999999998 14.294530000000009z">
      <title id="t263">Sixième circonscription du Morbihan</title>
      <desc id="d263">Cantons de : Cléguérec, Le Faouët, Gourin, Guémené-sur-Scorff, Hennebont, Plouay, Pont-Scorff</desc>
    </path></svg>