<svg xmlns="http://www.w3.org/2000/svg" version="1.1" xmlns:xlink="http://www.w3.org/1999/xlink" xmlns:svgjs="http://svgjs.dev/svgjs" viewBox="1157.8017 362.17056 148.4049 127.62443999999999"><path class="circo" id="057-01" d="M 1178.4128,410.99451 1178.4737,412.1028 1180.0623,412.48302 1179.4844,413.44638 1180.9948,413.73132 1181.676,413.15954 1182.561,414.2782 1181.6001,414.95181 1180.8164,416.1969 1180.4457,415.92925 1180.7724,415.12804 1180.4835,414.80681 1179.7495,414.77733 1179.2666,414.17494 1178.9593,414.43374 1178.9429,415.25918 1177.713,415.30956 1179.1109,417.27397 1177.6348,418.4671 1176.9723,418.87873 1175.9794,418.39922 1175.6629,418.63074 1175.2303,418.05206 1175.3945,417.72332 1175.973,417.40623 1176.0823,416.69816 1174.9851,415.65726 1175.6007,415.07637 1175.3834,414.70786 1176.0344,414.74292 1175.3192,414.08494 1175.8669,412.92503 1176.659,412.57888 1176.0664,411.49652 1174.3889,410.87394 1173.4685,409.75062 1171.8294,410.04923 1168.9092,409.37739 1167.7881,408.93344 1168.4702,407.86255 1169.509,407.13874 1168.3366,406.56618 1167.29,405.15862 1165.6031,404.88254 1165.1227,403.82177 1165.0582,403.57945 1165.6684,402.71895 1165.811,401.65926 1166.481,401.93639 1167.1619,401.74344 1166.9372,401.07932 1167.6758,400.07493 1168.4508,399.8365 1169.4775,398.60542 1169.5831,397.31174 1170.0189,397.34025 1170.8198,399.28958 1171.2514,399.3613 1171.3177,398.85327 1171.5319,397.08596 1172.036,396.37461 1173.9303,395.6366 1175.2155,395.51718 1175.8487,394.92353 1176.3301,394.65416 1177.3837,394.63736 1177.7622,394.84459 1178.744,394.04219 1179.923,393.78113 1180.2925,394.33386 1179.6364,394.81737 1179.8125,395.64585 1182.6581,395.54492 1182.454,396.40716 1181.6441,396.73648 1182.1316,397.48008 1182.953,397.7945 1182.7774,398.58732 1184.1923,400.2164 1184.03,400.62087 1183.7202,402.30576 1182.1374,404.83403 1182.7148,405.76537 1184.0751,405.76446 1184.6674,406.80982 1184.4187,408.39873 1184.0956,409.2369 1183.7652,410.22674 1183.0616,410.50103 1182.1379,409.9024 1181.3152,409.7757 1180.7482,410.39709 1179.9193,410.54495 1178.6886,410.32978 1178.4128,410.99451 z">
      <title id="t264">Première circonscription de la Moselle</title>
      <desc id="d264">Cantons de : Maizières-lès-Metz, Marange-Silvange, Metz III (partie non comprise dans la 3e circonscription), Rombas, Woippy</desc>
    </path><path class="circo" id="057-02" d="M 1169.7429,430.84451 1170.5548,431.79309 1172.3679,431.33552 1173.1179,431.62473 1172.8564,432.43256 1173.5945,433.44253 1173.7754,433.6616 1175.3302,432.91063 1176.5943,433.08634 1177.4786,434.55448 1177.3362,435.42602 1177.7645,435.43365 1177.5001,436.65785 1177.7667,436.99327 1179.3193,437.60493 1179.5902,437.50866 1179.8964,436.46697 1180.5878,436.16621 1180.9137,436.38078 1181.3498,436.36577 1181.7522,437.13199 1184.3645,436.94332 1184.3535,436.69823 1185.6179,436.87448 1185.9982,438.02905 1186.8209,438.21187 1187.0165,438.59481 1187.8836,438.60141 1189.1811,437.48485 1189.9185,437.51073 1190.4113,438.20203 1191.3259,438.23787 1191.3774,439.70821 1193.3139,439.09429 1193.2855,440.2993 1194.7025,441.18907 1194.8569,441.10359 1194.6658,439.96172 1196.063,439.06622 1195.4198,438.04678 1197.0223,436.20956 1197.3097,434.74464 1194.6467,433.62133 1193.9912,434.07019 1193.7368,433.20766 1194.0213,431.46789 1193.4228,430.79801 1193.0046,430.95888 1192.6463,430.4681 1191.8239,429.97547 1191.3014,429.17717 1193.0192,427.71921 1194.3505,427.69588 1194.9117,427.09923 1193.6359,425.90446 1193.2168,425.99649 1192.9525,424.74758 1192.0993,423.38964 1191.6577,423.37576 1191.4838,422.96947 1192.2029,420.06598 1191.4847,419.33419 1190.787,419.45214 1189.8402,418.69692 1189.0384,418.37522 1187.7924,418.74182 1187.1935,417.61455 1188.463,416.82018 1187.7985,415.78332 1188.3243,414.63904 1188.2168,413.79677 1187.4951,413.34975 1186.7022,413.16168 1185.4633,411.01621 1185.0357,411.12612 1184.2162,412.67903 1183.8075,412.84463 1184.1188,412.97085 1184.4586,414.10544 1184.1751,414.44852 1184.3085,414.79906 1184.1083,415.31046 1184.3061,415.79336 1184.2203,416.10255 1184.7928,417.55995 1184.7613,418.74585 1183.6517,419.4655 1184.1793,420.63928 1183.3502,420.90795 1182.3068,420.25164 1181.5427,420.67262 1180.8632,418.33343 1182.1015,418.29099 1181.4797,416.69504 1180.4457,415.92925 1180.7724,415.12804 1180.4835,414.80681 1179.7495,414.77733 1179.2666,414.17494 1178.9593,414.43374 1178.9429,415.25918 1177.713,415.30956 1179.1109,417.27397 1177.6348,418.4671 1176.9723,418.87873 1175.9794,418.39922 1175.6629,418.63074 1175.2303,418.05206 1175.3945,417.72332 1175.973,417.40623 1176.0823,416.69816 1174.9851,415.65726 1175.6007,415.07637 1175.3834,414.70786 1176.0344,414.74292 1175.3192,414.08494 1175.8669,412.92503 1176.659,412.57888 1176.0664,411.49652 1174.3889,410.87394 1173.4685,409.75062 1171.8294,410.04923 1168.9092,409.37739 1167.7881,408.93344 1167.0367,408.97711 1166.8259,408.66388 1166.0456,408.8552 1166.4619,409.5644 1165.3948,410.09562 1165.5106,410.48934 1166.2957,411.52094 1166.2132,412.74852 1167.045,413.76768 1167.2863,414.10169 1166.7743,414.82408 1164.5394,414.83862 1162.4277,414.76617 1161.0488,414.72409 1160.7271,415.95859 1160.5424,416.82771 1161.8989,418.43258 1161.3146,419.08557 1161.3552,419.5296 1162.7587,420.88136 1163.2562,422.67638 1164.0339,422.85146 1164.5269,423.47924 1165.6226,423.42504 1166.435,423.93775 1167.3256,424.41386 1167.9379,424.03474 1168.5194,425.68798 1170.6605,427.2633 1170.6849,427.71791 1170.5348,428.62626 1170.5951,430.29232 1169.7429,430.84451 z">
      <title id="t265">Deuxième circonscription de la Moselle</title>
      <desc id="d265">Cantons de : Ars-sur-Moselle, Metz IV, Montigny-lès-Metz (moins les communes de Chieulles, Mey, Saint-Julien-lès-Metz, Vantoux, Vany), Verny</desc>
    </path><path class="circo" id="057-03" d="M 1183.7652,410.22674 1183.0616,410.50103 1182.1379,409.9024 1181.3152,409.7757 1180.7482,410.39709 1179.9193,410.54495 1178.6886,410.32978 1178.4128,410.99451 1178.4737,412.1028 1180.0623,412.48302 1179.4844,413.44638 1180.9948,413.73132 1181.676,413.15954 1182.561,414.2782 1181.6001,414.95181 1180.8164,416.1969 1181.4797,416.69504 1182.1015,418.29099 1180.8632,418.33343 1181.5427,420.67262 1182.3068,420.25164 1183.3502,420.90795 1184.1793,420.63928 1183.6517,419.4655 1184.7613,418.74585 1184.7928,417.55995 1184.2203,416.10255 1184.3061,415.79336 1184.1083,415.31046 1184.3085,414.79906 1184.1751,414.44852 1184.4586,414.10544 1184.1188,412.97085 1183.8075,412.84463 1184.2162,412.67903 1185.0357,411.12612 1185.4633,411.01621 1186.7022,413.16168 1187.4951,413.34975 1188.2168,413.79677 1188.3243,414.63904 1187.7985,415.78332 1188.463,416.82018 1187.1935,417.61455 1187.7924,418.74182 1189.0384,418.37522 1189.8402,418.69692 1190.787,419.45214 1191.4847,419.33419 1192.2029,420.06598 1191.4838,422.96947 1191.6577,423.37576 1192.0993,423.38964 1192.9525,424.74758 1193.2168,425.99649 1193.6359,425.90446 1194.9117,427.09923 1194.3505,427.69588 1193.0192,427.71921 1191.3014,429.17717 1191.8239,429.97547 1192.6463,430.4681 1193.0046,430.95888 1193.4228,430.79801 1194.0213,431.46789 1193.7368,433.20766 1193.9912,434.07019 1194.6467,433.62133 1197.3097,434.74464 1197.0223,436.20956 1198.5889,436.35218 1199.1896,437.84209 1199.0127,438.20475 1199.3654,438.67179 1199.611,438.52159 1201.6724,437.00116 1201.611,436.13541 1201.457,435.31432 1202.0238,434.72497 1201.7924,434.00067 1202.2284,433.40188 1203.3287,432.62822 1203.3284,431.72134 1202.8419,430.98556 1204.2248,430.69957 1203.7309,430.16045 1203.6767,429.42696 1203.5459,427.88534 1202.8748,426.62319 1202.202,427.09327 1201.4111,427.09158 1201.4464,426.35359 1200.8502,425.85416 1202.6571,423.99091 1204.3403,424.48439 1204.9702,425.11525 1205.4423,424.48011 1205.0761,424.31351 1205.349,423.15142 1205.0118,421.99625 1207.99,421.50518 1208.8078,421.80766 1208.4175,420.52123 1207.9469,420.2096 1207.9229,419.46005 1209.0606,417.8509 1209.3087,415.6644 1209.032,415.30735 1207.957,415.95729 1205.0058,415.91016 1204.7503,416.53343 1203.9451,416.7249 1202.9068,416.03467 1202.789,415.60779 1203.3981,414.96704 1202.5798,413.43793 1203.3602,411.86105 1202.732,410.21205 1201.0867,410.86445 1200.7951,410.51624 1200.3366,409.27212 1201.1195,409.50709 1201.3865,409.1818 1201.4162,407.54317 1202.4709,406.97129 1202.0934,405.87967 1202.4964,405.30037 1203.3168,404.35647 1203.6513,403.155 1202.7662,401.65184 1201.6422,401.10196 1202.088,401.05446 1202.5037,400.97183 1203.1985,399.94465 1202.5302,398.49477 1200.8136,398.78232 1200.9034,397.91701 1199.6279,397.69569 1198.9989,397.10627 1199.0866,396.31106 1199.8789,395.95255 1200.6002,395.15628 1199.1515,395.33888 1198.5707,395.97013 1197.3363,396.42123 1196.1886,397.73019 1195.7467,397.68332 1195.5452,398.50297 1194.3596,399.69893 1192.3983,398.93124 1191.5254,399.05399 1191.3217,397.32476 1190.7047,396.17315 1191.0392,395.37613 1190.6466,394.75745 1190.9581,394.06369 1190.648,393.79181 1189.0758,393.4557 1188.93,394.35913 1187.5941,395.61525 1186.7642,395.68193 1186.3575,394.93863 1184.7609,396.47396 1184.1005,396.25259 1184.4871,395.21606 1183.4232,394.99816 1182.6581,395.54492 1182.454,396.40716 1181.6441,396.73648 1182.1316,397.48008 1182.953,397.7945 1182.7774,398.58732 1184.1923,400.2164 1184.03,400.62087 1183.7202,402.30576 1182.1374,404.83403 1182.7148,405.76537 1184.0751,405.76446 1184.6674,406.80982 1184.4187,408.39873 1184.0956,409.2369 1183.7652,410.22674 z">
      <title id="t266">Troisième circonscription de la Moselle</title>
      <desc id="d266">Cantons de : Metz I, Metz II, Metz III (moins la partie située à l'ouest de la voie ferrée de Nancy à Thionville), Pange, Vigy, Communes de : Chieulles, Mey, Saint-Julien-lès-Metz, Vantoux, Vany</desc>
    </path><path class="circo" id="057-04" d="M 1249.9449,437.54321 1248.9729,438.37139 1248.1722,438.26465 1247.3829,437.29775 1247.1391,437.31806 1246.8897,438.64061 1248.0457,439.23788 1248.7692,440.88271 1248.2423,442.5747 1249.5109,443.01582 1250.8429,442.93528 1255.6871,445.35682 1256.5411,446.35392 1256.1615,447.12787 1258.6017,446.48598 1259.8677,446.617 1260.261,447.73689 1259.3776,448.48897 1258.8098,448.59205 1256.2906,448.68402 1256.4399,450.09323 1255.8702,452.07316 1256.3222,452.82177 1257.9486,452.77324 1259.0937,453.19998 1259.3417,453.94046 1257.5418,454.82346 1257.7353,455.63536 1258.601,456.50626 1259.1359,455.81832 1260.7531,455.19484 1261.8231,454.87417 1262.6434,454.58833 1262.338,453.37733 1262.9014,452.70947 1263.7492,452.47852 1264.3911,451.86466 1263.9455,450.14695 1264.518,448.97917 1266.6137,449.31214 1266.907,448.61233 1267.5824,448.23295 1268.363,449.69946 1267.7775,450.31147 1269.157,451.25719 1269.8841,451.36358 1270.5649,452.27326 1270.3743,451.10845 1271.1709,451.06287 1272.7187,452.55662 1273.8046,451.87473 1274.1749,452.34001 1273.144,452.82022 1272.7107,453.44213 1273.7739,454.21214 1274.0381,455.0529 1274.8282,454.41346 1276.5922,455.52298 1276.5749,456.50509 1278.0954,458.88055 1278.4997,458.96309 1276.7229,460.92974 1276.251,463.59071 1276.1874,463.56751 1274.4857,466.21387 1274.3674,467.56968 1273.9771,468.30942 1273.1552,468.21631 1272.4579,468.64488 1273.7308,471.12466 1274.1099,471.2983 1274.4992,472.48228 1274.9147,472.47237 1277.7361,472.75137 1275.7266,475.70952 1274.585,476.39715 1275.3918,477.37238 1273.6813,480.50388 1274.4025,481.55959 1273.6497,481.95052 1272.3706,483.87 1270.5888,486.31739 1270.2742,486.61519 1268.9813,486.57153 1268.2922,487.01596 1267.7691,488.55294 1266.1879,489.65419 1266.1379,489.795 1264.8578,489.40813 1263.5955,489.69193 1261.6864,488.63087 1259.6508,489.50979 1258.6109,488.66257 1256.7302,488.30633 1258.8787,487.98498 1258.7375,487.57053 1256.7199,486.73179 1255.6654,485.34132 1254.776,483.01164 1253.496,482.94958 1251.4731,481.28507 1253.1534,479.96876 1253.2743,479.543 1252.6082,478.97297 1252.0139,479.42319 1251.2864,479.22071 1251.122,479.27483 1250.4773,478.89595 1248.5328,479.43 1246.743,478.55858 1246.9883,477.73707 1245.9155,475.92395 1245.1498,476.2019 1244.853,477.36865 1243.8234,477.94513 1242.7949,477.2803 1239.7498,477.80317 1238.9355,477.42973 1238.5057,476.67328 1238.2062,475.68225 1237.7793,474.8852 1236.029,474.4595 1233.3878,475.00163 1232.6643,474.33316 1232.9514,473.61816 1231.8004,473.79483 1231.7052,473.36725 1231.2785,472.23093 1231.4572,471.5336 1231.0506,471.50721 1228.5813,472.20931 1227.139,471.35301 1225.9038,471.10252 1225.4138,469.93542 1224.9902,470.04653 1223.7261,471.83388 1223.5101,471.3579 1223.8561,471.0993 1223.8782,469.37548 1224.2168,468.68055 1223.0982,466.84608 1222.0616,466.80603 1221.4692,467.31557 1220.0059,465.9409 1219.2798,465.73349 1217.7763,465.60762 1217.4767,464.0545 1216.971,463.44431 1216.1423,463.12224 1214.6497,460.39791 1213.4298,460.5262 1212.6479,461.00645 1212.2719,461.23786 1211.0159,460.83098 1210.3314,461.33558 1209.9232,461.38354 1210.0925,460.64352 1208.6083,459.23558 1206.0799,458.952 1205.4201,459.13667 1205.2222,457.43624 1204.4397,457.19063 1203.6781,456.14346 1200.428,457.99295 1199.9069,457.23888 1198.3882,456.71035 1197.3415,457.36465 1197.0771,455.76349 1196.3996,454.22917 1197.24,453.37153 1196.9484,453.06045 1195.7074,453.31331 1195.1378,452.83365 1195.2326,452.09627 1195.0429,451.73258 1193.1102,452.00667 1192.4583,451.60631 1193.9228,450.9473 1195.0828,451.41587 1195.7335,450.41361 1194.9134,450.12667 1193.7447,449.97041 1192.9928,450.3781 1191.3446,449.0989 1191.1285,448.35502 1192.3729,447.95599 1192.1478,446.15208 1193.2345,446.53857 1193.0504,445.0071 1193.0812,444.62906 1192.1411,444.08593 1193.3411,442.82733 1194.5598,442.34572 1194.7025,441.18907 1194.8569,441.10359 1194.6658,439.96172 1196.063,439.06622 1195.4198,438.04678 1197.0223,436.20956 1198.5889,436.35218 1199.1896,437.84209 1199.0127,438.20475 1199.3654,438.67179 1199.611,438.52159 1201.6724,437.00116 1201.611,436.13541 1201.457,435.31432 1202.0238,434.72497 1201.7924,434.00067 1202.2284,433.40188 1203.3287,432.62822 1203.3284,431.72134 1202.8419,430.98556 1204.2248,430.69957 1204.7246,431.55505 1205.2167,432.34593 1207.2531,433.26774 1208.4544,433.1402 1208.5297,433.09346 1211.0019,432.77001 1211.8547,434.10527 1212.2426,434.18567 1212.7624,433.63221 1212.7096,432.83721 1213.1505,432.17875 1213.7242,431.54249 1214.8807,432.54949 1216.1052,431.22479 1216.1989,430.28468 1216.764,429.25633 1216.9953,429.28548 1218.8073,429.63437 1220.3943,427.30464 1221.8682,428.08438 1222.0145,428.49358 1222.6737,428.54865 1221.4648,426.69149 1221.8549,424.96396 1223.4222,423.63511 1223.9579,424.33127 1226.0805,423.98248 1226.2207,422.45409 1227.8791,421.79197 1228.1188,421.15183 1230.8421,420.80819 1231.8985,420.77693 1233.3215,420.09309 1233.3706,419.69958 1235.9487,418.52277 1236.0031,418.57792 1236.4046,419.86474 1235.0516,421.06984 1237.3997,421.44071 1237.0449,422.51984 1237.2833,423.31715 1237.5067,423.27189 1239.6602,422.91137 1239.8549,424.62519 1239.0684,426.00699 1239.8596,426.34102 1240.063,427.18049 1241.6229,427.46962 1241.8153,427.84076 1241.416,428.43942 1241.7098,429.11291 1242.6551,430.51253 1242.9095,431.29822 1242.6743,430.94968 1241.4194,430.88531 1240.981,431.59947 1239.762,431.70748 1239.3823,431.91158 1239.248,432.76198 1237.5747,433.94966 1237.0908,434.65688 1237.9297,434.80031 1239.8266,433.84052 1241.5931,433.41456 1242.8892,432.13562 1242.4655,432.9039 1244.0196,434.41001 1245.5393,434.06604 1246.7675,433.90836 1248.4716,435.09065 1250.7441,435.40013 1250.3164,436.39346 1249.9449,437.54321 z">
      <title id="t267">Quatrième circonscription de la Moselle</title>
      <desc id="d267">Cantons de : Albestroff, Château-Salins, Delme, Dieuze, Fénétrange, Grostenquin, Lorquin, Phalsbourg, Réchicourt-le-Château, Sarrebourg, Vic-sur-Seille</desc>
    </path><path class="circo" id="057-05" d="M 1297.4701,437.4679 1296.7282,436.39825 1295.4876,436.22432 1293.2629,435.34279 1292.4911,433.86473 1290.7798,433.67532 1290.2548,433.02406 1288.352,433.94513 1286.2495,434.28884 1285.2126,434.99913 1284.159,435.19575 1283.1552,434.89156 1282.3891,434.51332 1282.0515,434.77558 1281.0521,435.55377 1280.2186,435.57771 1279.6484,436.20723 1277.9149,434.91616 1277.8312,434.49079 1276.533,434.50723 1276.7953,433.42324 1276.5526,433.13839 1276.8496,432.4222 1272.0946,430.47561 1269.657,431.45507 1268.5126,429.68282 1267.6937,429.68347 1266.6759,428.05082 1265.5894,428.57897 1265.4988,428.15655 1262.9112,428.18117 1262.2298,425.85235 1261.7296,424.81876 1262.0209,424.05185 1260.9058,422.99774 1260.5331,420.95673 1260.6389,420.53238 1261.4965,420.4814 1261.6454,419.72293 1260.8155,419.46343 1260.3094,418.77582 1259.4402,419.74927 1258.2194,419.5235 1257.903,419.83192 1257.6963,420.65758 1258.014,421.4542 1258.5514,422.34735 1256.5328,424.90614 1256.0664,426.55929 1256.3151,427.74824 1255.8473,428.88734 1255.1204,429.40765 1254.5586,430.64206 1255.0662,431.90653 1254.9782,432.35434 1254.2136,432.80484 1254.6038,434.56769 1254.0681,434.56704 1253.4605,434.35642 1251.229,433.98759 1250.7441,435.40013 1248.4716,435.09065 1246.7675,433.90836 1245.5393,434.06604 1244.0196,434.41001 1242.4655,432.9039 1242.8892,432.13562 1241.5931,433.41456 1239.8266,433.84052 1237.9297,434.80031 1237.0908,434.65688 1237.5747,433.94966 1239.248,432.76198 1239.3823,431.91158 1239.762,431.70748 1240.981,431.59947 1241.4194,430.88531 1242.6743,430.94968 1242.9095,431.29822 1242.6551,430.51253 1241.7098,429.11291 1241.416,428.43942 1241.8153,427.84076 1241.6229,427.46962 1240.063,427.18049 1239.8596,426.34102 1239.0684,426.00699 1239.8549,424.62519 1239.6602,422.91137 1240.6833,422.55758 1241.5144,421.58741 1244.0714,420.0988 1241.7438,419.44863 1241.7712,419.34249 1244.0632,418.25971 1243.9208,416.56887 1244.5058,416.02532 1245.3895,416.13476 1246.5468,418.00495 1247.2434,417.4919 1247.6663,417.51669 1247.7988,418.31785 1249.4385,418.00197 1249.6784,414.29168 1250.7237,413.02699 1250.8929,412.65318 1250.3332,410.89278 1249.9408,410.78753 1249.9604,409.60949 1250.5598,407.99007 1251.1982,407.50287 1251.6693,407.18515 1253.3577,406.10656 1253.5138,404.82687 1253.1775,404.0464 1253.5876,403.8565 1254.7302,404.43723 1254.2678,406.6412 1254.7674,408.83518 1255.7579,410.86549 1255.7462,412.21101 1255.7705,413.53833 1256.7973,414.27168 1257.5949,413.88261 1258.041,412.64408 1259.5174,411.71607 1258.8842,410.53924 1258.9381,409.24574 1260.2082,408.84844 1261.0609,408.98542 1261.2882,409.3705 1260.6726,410.01584 1260.7257,410.88186 1262.4841,410.55509 1263.0586,411.72685 1265.3634,413.20844 1265.8124,412.41002 1267.5802,412.05825 1268.5312,413.03868 1268.7238,413.93534 1269.81,412.67318 1272.7286,412.04759 1273.0401,412.34857 1275.6084,412.88438 1275.9788,413.62378 1276.8048,413.93768 1277.7155,412.77943 1278.5292,411.16068 1279.5721,410.26325 1282.7018,410.03832 1282.6717,409.60962 1282.9911,406.55032 1284.294,406.12633 1289.741,404.98826 1289.0388,407.51496 1290.0553,406.93567 1290.694,407.57462 1292.312,406.97233 1293.6304,407.00536 1293.9505,408.31594 1294.6484,408.89081 1294.6693,409.34256 1293.4808,411.16211 1294.2441,411.54732 1294.7868,412.77164 1295.8819,413.46845 1296.3944,415.15038 1297.0166,416.27821 1299.3695,418.1934 1300.1878,418.51433 1302.8474,418.11189 1305.1952,419.35884 1305.8659,421.85332 1306.2066,422.63851 1305.0969,424.50501 1303.4134,426.28023 1303.5737,427.52469 1301.9091,430.0357 1302.2151,430.83881 1301.3698,432.41689 1301.469,433.27408 1301.1602,433.84738 1298.9018,436.35813 1299.1984,437.12021 1297.4701,437.4679 z">
      <title id="t268">Cinquième circonscription de la Moselle</title>
      <desc id="d268">Cantons de: Bitche, Rohrbach-lès-Bitche, Sarralbe, Sarreguemines, Sarreguemines-Campagne, Volmunster</desc>
    </path><path class="circo" id="057-06" d="M 1239.1267,403.75375 1239.2138,402.8506 1238.0653,401.44548 1238.3025,401.05876 1239.8326,400.09588 1242.0735,401.46526 1242.8793,401.58366 1245.4301,399.90769 1246.3234,400.03081 1247.0682,401.11887 1247.9162,402.1218 1248.2577,402.4153 1249.8739,401.78599 1251.7637,403.65359 1252.5529,403.72409 1252.9768,404.38976 1253.1775,404.0464 1253.5138,404.82687 1253.3577,406.10656 1251.6693,407.18515 1251.1982,407.50287 1250.5598,407.99007 1249.9604,409.60949 1249.9408,410.78753 1250.3332,410.89278 1250.8929,412.65318 1250.7237,413.02699 1249.6784,414.29168 1249.4385,418.00197 1247.7988,418.31785 1247.6663,417.51669 1247.2434,417.4919 1246.5468,418.00495 1245.3895,416.13476 1244.5058,416.02532 1243.9208,416.56887 1244.0632,418.25971 1241.7712,419.34249 1241.7438,419.44863 1244.0714,420.0988 1241.5144,421.58741 1240.6833,422.55758 1239.6602,422.91137 1237.5067,423.27189 1237.2833,423.31715 1237.0449,422.51984 1237.3997,421.44071 1235.0516,421.06984 1236.4046,419.86474 1236.0031,418.57792 1235.9487,418.52277 1235.1284,417.00048 1234.0497,415.87797 1233.928,415.11013 1234.8827,413.06609 1235.0037,411.4934 1234.5381,410.84652 1233.3732,410.57523 1232.7956,409.99661 1232.7456,408.76942 1232.1584,408.19142 1232.6366,407.11807 1233.516,407.05255 1237.7941,409.23235 1238.5912,408.69456 1238.9193,408.44851 1238.7161,408.09341 1238.6649,406.43279 1239.858,406.06405 1240.0443,405.69048 1239.1267,403.75375 z">
      <title id="t269">Sixième circonscription de la Moselle</title>
      <desc id="d269">Cantons de : Behren-lès-Forbach, Forbach, Freyming-Merlebach, Stiring-Wendel</desc>
    </path><path class="circo" id="057-07" d="M 1207.957,415.95729 1205.0058,415.91016 1204.7503,416.53343 1203.9451,416.7249 1202.9068,416.03467 1202.789,415.60779 1203.3981,414.96704 1202.5798,413.43793 1203.3602,411.86105 1202.732,410.21205 1201.0867,410.86445 1200.7951,410.51624 1200.3366,409.27212 1201.1195,409.50709 1201.3865,409.1818 1201.4162,407.54317 1202.4709,406.97129 1202.0934,405.87967 1202.4964,405.30037 1203.3168,404.35647 1203.6513,403.155 1202.7662,401.65184 1201.6422,401.10196 1202.088,401.05446 1202.5037,400.97183 1203.1985,399.94465 1202.5302,398.49477 1200.8136,398.78232 1200.9034,397.91701 1199.6279,397.69569 1198.9989,397.10627 1199.0866,396.31106 1199.8789,395.95255 1200.6002,395.15628 1199.1515,395.33888 1198.7477,395.40817 1198.8165,394.61769 1198.1388,394.17611 1198.8371,393.58833 1199.249,390.92113 1199.8357,390.21926 1199.0185,389.08868 1201.8046,387.76009 1202.1276,386.64654 1202.8605,386.33797 1202.5069,385.85564 1202.3453,385.45194 1203.2372,384.50355 1205.0418,383.38031 1203.4656,382.74313 1205.0727,381.86821 1207.271,382.25609 1207.3231,383.33634 1207.0256,383.55333 1208.3821,384.35522 1209.9243,383.78989 1210.553,383.65471 1211.8256,382.39312 1214.1754,381.09434 1213.9865,380.71109 1213.1818,380.66188 1214.0185,379.24302 1213.7886,377.55481 1214.8806,378.33629 1215.7767,378.31461 1216.5052,378.83537 1216.6709,380.58277 1217.8071,381.19838 1216.7787,383.13956 1216.1274,382.52519 1215.2824,382.36232 1214.8889,382.57113 1214.9214,383.4603 1216.054,385.31367 1217.1937,385.50176 1217.2988,386.27889 1216.9194,387.00675 1219.2235,389.53856 1220.0398,389.72158 1220.564,390.40617 1222.2034,391.52936 1222.3888,392.34953 1223.6312,392.43775 1223.0944,395.44789 1225.0306,396.13252 1225.4111,396.89456 1225.0981,397.21734 1225.7627,400.62711 1226.1337,400.88465 1228.2442,400.38324 1228.9674,402.03723 1227.4557,404.26868 1228.0429,405.95496 1228.9275,406.92007 1229.5935,407.51795 1230.4347,407.34271 1231.7845,407.44463 1232.6366,407.11807 1232.1584,408.19142 1232.7456,408.76942 1232.7956,409.99661 1233.3732,410.57523 1234.5381,410.84652 1235.0037,411.4934 1234.8827,413.06609 1233.928,415.11013 1234.0497,415.87797 1235.1284,417.00048 1235.9487,418.52277 1233.3706,419.69958 1233.3215,420.09309 1231.8985,420.77693 1230.8421,420.80819 1228.1188,421.15183 1227.8791,421.79197 1226.2207,422.45409 1226.0805,423.98248 1223.9579,424.33127 1223.4222,423.63511 1221.8549,424.96396 1221.4648,426.69149 1222.6737,428.54865 1222.0145,428.49358 1221.8682,428.08438 1220.3943,427.30464 1218.8073,429.63437 1216.9953,429.28548 1216.764,429.25633 1216.1989,430.28468 1216.1052,431.22479 1214.8807,432.54949 1213.7242,431.54249 1213.1505,432.17875 1212.7096,432.83721 1212.7624,433.63221 1212.2426,434.18567 1211.8547,434.10527 1211.0019,432.77001 1208.5297,433.09346 1208.4544,433.1402 1207.2531,433.26774 1205.2167,432.34593 1204.7246,431.55505 1204.2248,430.69957 1203.7309,430.16045 1203.6767,429.42696 1203.5459,427.88534 1202.8748,426.62319 1202.202,427.09327 1201.4111,427.09158 1201.4464,426.35359 1200.8502,425.85416 1202.6571,423.99091 1204.3403,424.48439 1204.9702,425.11525 1205.4423,424.48011 1205.0761,424.31351 1205.349,423.15142 1205.0118,421.99625 1207.99,421.50518 1208.8078,421.80766 1208.4175,420.52123 1207.9469,420.2096 1207.9229,419.46005 1209.0606,417.8509 1209.3087,415.6644 1209.032,415.30735 1207.957,415.95729 z">
      <title id="t270">Septième circonscription de la Moselle</title>
      <desc id="d270">Cantons de : Boulay-Moselle, Bouzonville, Faulquemont, Saint-Avold I, Saint-Avold II</desc>
    </path><path class="circo" id="057-08" d="M 1170.2318,375.33575 1170.6336,375.21607 1170.6076,374.7955 1169.7429,373.93701 1170.1874,373.22779 1169.697,372.93255 1170.1701,372.24191 1170.4457,370.59226 1169.1767,370.26107 1169.0461,369.84213 1166.9511,369.57603 1165.3373,370.16628 1165.1046,369.77636 1165.6442,369.057 1164.6727,368.15916 1164.3298,365.04459 1163.067,364.63813 1162.2245,363.81205 1161.4396,363.77095 1160.6029,363.92343 1159.3654,363.55145 1157.8017,364.16817 1158.1098,366.23319 1158.7597,365.78991 1159.8523,366.03864 1160.8793,365.68262 1161.1037,366.37109 1161.7711,366.69488 1161.2672,367.40666 1161.9148,369.96099 1160.9778,370.75634 1161.9567,372.87387 1160.7668,373.382 1160.0387,374.47028 1159.939,375.2669 1159.3689,375.8557 1160.0541,376.24173 1160.8851,376.64627 1161.3409,379.32854 1160.469,380.35876 1161.2021,380.83001 1161.8482,381.96936 1163.1332,381.85438 1163.7671,383.80802 1165.0247,384.03857 1163.7023,384.03792 1162.0511,384.6344 1162.706,386.3098 1164.5066,387.73831 1165.6065,389.21435 1166.6184,388.03195 1167.3884,388.91163 1167.1137,391.31316 1166.9007,393.07736 1167.699,393.4759 1167.6988,394.30793 1167.5361,395.17712 1169.3424,396.39805 1169.0634,397.25067 1169.2323,398.576 1169.4775,398.60542 1169.5831,397.31174 1170.0189,397.34025 1170.8198,399.28958 1171.2514,399.3613 1171.3177,398.85327 1171.5319,397.08596 1172.036,396.37461 1173.9303,395.6366 1175.2155,395.51718 1175.8487,394.92353 1176.3301,394.65416 1177.3837,394.63736 1177.7622,394.84459 1178.744,394.04219 1179.923,393.78113 1180.2925,394.33386 1179.6364,394.81737 1179.8125,395.64585 1182.6581,395.54492 1183.4232,394.99816 1182.2494,393.44697 1182.8873,392.43657 1182.4729,391.7234 1182.2067,390.90132 1180.9317,389.74635 1180.8784,389.58823 1180.5809,388.80812 1181.6134,387.5594 1180.5723,386.97193 1179.8946,385.92516 1178.3101,385.57664 1179.5828,383.82368 1179.3711,383.43603 1177.934,382.48069 1176.7504,383.05122 1176.7319,383.93432 1175.2196,383.25257 1174.5769,383.5853 1173.8852,383.13447 1173.1399,383.33647 1171.9055,382.26718 1171.8459,382.20376 1173.26,379.58288 1172.025,379.29629 1171.8075,378.92364 1171.8564,378.14445 1173.5054,377.18559 1171.9238,376.52231 1170.7411,376.99332 1170.2318,375.33575 z">
      <title id="t271">Huitième circonscription de la Moselle</title>
      <desc id="d271">Cantons de : Algrange, Fameck, Florange, Fontoy, Hayange, Moyeuvre-Grande, Commune de Terville</desc>
    </path><path class="circo" id="057-09" d="M 1191.9916,366.15757 1194.0517,366.762 1195.2347,368.09703 1196.0548,367.90228 1196.3679,368.20978 1196.7197,368.07768 1197.8368,369.06537 1198.2165,369.02169 1198.1095,368.14294 1201.1357,368.21893 1202.7683,366.90354 1203.5704,367.10684 1204.3006,368.12594 1205.4487,368.48928 1206.6597,368.37902 1208.0803,369.98296 1209.4111,370.34201 1211.1063,371.89147 1212.3746,372.37641 1214.0085,374.35124 1212.6239,375.40212 1212.8089,376.69042 1213.5397,376.83384 1213.7886,377.55481 1214.0185,379.24302 1213.1818,380.66188 1213.9865,380.71109 1214.1754,381.09434 1211.8256,382.39312 1210.553,383.65471 1209.9243,383.78989 1208.3821,384.35522 1207.0256,383.55333 1207.3231,383.33634 1207.271,382.25609 1205.0727,381.86821 1203.4656,382.74313 1205.0418,383.38031 1203.2372,384.50355 1202.3453,385.45194 1202.5069,385.85564 1202.8605,386.33797 1202.1276,386.64654 1201.8046,387.76009 1199.0185,389.08868 1199.8357,390.21926 1199.249,390.92113 1198.8371,393.58833 1198.1388,394.17611 1198.8165,394.61769 1198.7477,395.40817 1199.1515,395.33888 1198.5707,395.97013 1197.3363,396.42123 1196.1886,397.73019 1195.7467,397.68332 1195.5452,398.50297 1194.3596,399.69893 1192.3983,398.93124 1191.5254,399.05399 1191.3217,397.32476 1190.7047,396.17315 1191.0392,395.37613 1190.6466,394.75745 1190.9581,394.06369 1190.648,393.79181 1189.0758,393.4557 1188.93,394.35913 1187.5941,395.61525 1186.7642,395.68193 1186.3575,394.93863 1184.7609,396.47396 1184.1005,396.25259 1184.4871,395.21606 1183.4232,394.99816 1182.2494,393.44697 1182.8873,392.43657 1182.4729,391.7234 1182.2067,390.90132 1180.9317,389.74635 1180.8784,389.58823 1180.5809,388.80812 1181.6134,387.5594 1180.5723,386.97193 1179.8946,385.92516 1178.3101,385.57664 1179.5828,383.82368 1179.3711,383.43603 1177.934,382.48069 1176.7504,383.05122 1176.7319,383.93432 1175.2196,383.25257 1174.5769,383.5853 1173.8852,383.13447 1173.1399,383.33647 1171.9055,382.26718 1171.8459,382.20376 1173.26,379.58288 1172.025,379.29629 1171.8075,378.92364 1171.8564,378.14445 1173.5054,377.18559 1171.9238,376.52231 1170.7411,376.99332 1170.2318,375.33575 1170.6336,375.21607 1170.6076,374.7955 1169.7429,373.93701 1170.1874,373.22779 1169.697,372.93255 1170.1701,372.24191 1170.4457,370.59226 1171.6521,368.29126 1172.9722,368.34031 1174.1954,369.55275 1175.4321,369.9283 1175.3637,368.11181 1176.0041,367.48763 1177.2465,367.10147 1177.8793,364.92472 1179.1551,365.36989 1180.2538,364.66051 1180.1881,363.3936 1181.7534,362.62182 1182.1321,362.84082 1185.2856,362.87237 1185.3083,362.45766 1186.8926,362.70874 1187.4923,362.17056 1190.3365,363.30211 1190.7118,364.52925 1191.4685,365.47064 1192.2981,365.30774 1191.9916,366.15757 z">
      <title id="t272">Neuvième circonscription de la Moselle</title>
      <desc id="d272">Cantons de : Cattenom, Metzervisse, Sierck-les-Bains, Thionville Est, Thionville Ouest, Yutz (moins la commune de Terville)</desc>
    </path></svg>