<svg xmlns="http://www.w3.org/2000/svg" version="1.1" xmlns:xlink="http://www.w3.org/1999/xlink" xmlns:svgjs="http://svgjs.dev/svgjs" viewBox="0 0 148.4049 127.62443999999999"><path class="circo" id="id-057-01" d="M20.61110000000008 48.82394999999997L20.672000000000025 49.93223999999998L22.260600000000068 50.31245999999999L21.682700000000068 51.27581999999995L23.19309999999996 51.56075999999996L23.87429999999995 50.98897999999997L24.75929999999994 52.10764L23.79840000000013 52.78125L23.014699999999948 54.026340000000005L22.644000000000005 53.75869L22.97070000000008 52.957479999999975L22.681800000000067 52.63624999999996L21.947799999999916 52.60676999999998L21.464899999999943 52.00437999999997L21.157600000000002 52.26317999999998L21.141200000000026 53.08861999999999L19.911299999999983 53.13899999999995L21.30919999999992 55.10341L19.83310000000006 56.29653999999999L19.170599999999922 56.708169999999996L18.17769999999996 56.22865999999999L17.861200000000053 56.46017999999998L17.42859999999996 55.88149999999996L17.592800000000125 55.55275999999998L18.171299999999974 55.23566999999997L18.28060000000005 54.52759999999995L17.18340000000012 53.486699999999985L17.798999999999978 52.905809999999974L17.581699999999955 52.53729999999996L18.232700000000023 52.57236L17.517499999999927 51.914379999999994L18.065200000000004 50.75446999999997L18.857300000000123 50.40832L18.264699999999948 49.32595999999995L16.58719999999994 48.70337999999998L15.666799999999967 47.58006L14.027700000000095 47.87867L11.107500000000073 47.20682999999997L9.986400000000003 46.762879999999996L10.668499999999995 45.691989999999976L11.707300000000032 44.96817999999996L10.534900000000107 44.39561999999995L9.488299999999981 42.98805999999996L7.801400000000058 42.71197999999998L7.320999999999913 41.65120999999999L7.25649999999996 41.408889999999985L7.866700000000037 40.54838999999998L8.00929999999994 39.488699999999994L8.679300000000012 39.765829999999994L9.360200000000077 39.57288L9.135500000000093 38.90875999999997L9.874099999999999 37.90436999999997L10.64910000000009 37.66593999999998L11.675799999999981 36.43485999999996L11.781400000000076 35.14117999999996L12.217200000000048 35.16969L13.018100000000004 37.11901999999998L13.44970000000012 37.190740000000005L13.516000000000076 36.682709999999986L13.730199999999968 34.91539999999998L14.234300000000076 34.204049999999995L16.128600000000006 33.466039999999964L17.413800000000037 33.34661999999997L18.047000000000025 32.752970000000005L18.52839999999992 32.48359999999997L19.582000000000107 32.46679999999998L19.96049999999991 32.67402999999996L20.942299999999932 31.871629999999982L22.12130000000002 31.610569999999996L22.490800000000036 32.16329999999999L21.83470000000011 32.64680999999996L22.010800000000017 33.47528999999997L24.85640000000012 33.37435999999997L24.65229999999997 34.23659999999995L23.842399999999998 34.56591999999995L24.329899999999952 35.309519999999964L25.151299999999992 35.623940000000005L24.97569999999996 36.416759999999954L26.39059999999995 38.04584L26.22829999999999 38.45031L25.918499999999995 40.1352L24.335700000000088 42.66346999999996L24.913099999999986 43.594809999999995L26.273400000000038 43.59389999999996L26.86570000000006 44.63925999999998L26.616999999999962 46.22816999999998L26.29390000000012 47.06633999999997L25.963500000000067 48.05617999999998L25.259900000000016 48.33046999999999L24.336199999999963 47.73183999999998L23.513500000000022 47.60513999999995L22.946500000000015 48.22652999999997L22.11760000000004 48.37438999999995L20.88689999999997 48.159220000000005L20.61110000000008 48.82394999999997z">
      <title id="t264">Première circonscription de la Moselle</title>
      <desc id="d264">Cantons de : Maizières-lès-Metz, Marange-Silvange, Metz III (partie non comprise dans la 3e circonscription), Rombas, Woippy</desc>
    </path><path class="circo" id="id-057-02" d="M11.94119999999998 68.67394999999999L12.753099999999904 69.62252999999998L14.56619999999998 69.16495999999995L15.31619999999998 69.45416999999998L15.054699999999912 70.262L15.792799999999943 71.27196999999995L15.973700000000008 71.49104L17.528500000000122 70.74007L18.792599999999993 70.91577999999998L19.676899999999932 72.38391999999999L19.53449999999998 73.25545999999997L19.962800000000016 73.26308999999998L19.698399999999992 74.48728999999997L19.964999999999918 74.82270999999997L21.51760000000013 75.43437L21.788500000000113 75.3381L22.094700000000103 74.29640999999998L22.786100000000033 73.99564999999996L23.11200000000008 74.21021999999999L23.548099999999977 74.19520999999997L23.95049999999992 74.96142999999995L26.562799999999925 74.77276L26.551799999999957 74.52767L27.81619999999998 74.70391999999998L28.196500000000015 75.85848999999996L29.019199999999955 76.04130999999995L29.21479999999997 76.42424999999997L30.081899999999905 76.43084999999996L31.379400000000032 75.31428999999997L32.11680000000001 75.34017L32.6096 76.03146999999996L33.524200000000064 76.06730999999996L33.5757000000001 77.53764999999999L35.51220000000012 76.92372999999998L35.483799999999974 78.12874L36.90080000000012 79.01850999999999L37.05520000000001 78.93302999999997L36.86410000000001 77.79115999999999L38.26130000000012 76.89565999999996L37.61809999999991 75.87621999999999L39.220600000000104 74.03899999999999L39.50800000000004 72.57407999999998L36.84500000000003 71.45076999999998L36.18949999999995 71.89963L35.93509999999992 71.03709999999995L36.21960000000013 69.29732999999999L35.62110000000007 68.62744999999995L35.2029 68.78832L34.84460000000013 68.29753999999997L34.02220000000011 67.80490999999995L33.499700000000075 67.00660999999997L35.21749999999997 65.54864999999995L36.54880000000003 65.52531999999997L37.11000000000013 64.92866999999995L35.83420000000001 63.73389999999995L35.41509999999994 63.82592999999997L35.15080000000012 62.577020000000005L34.2976000000001 61.21907999999996L33.855999999999995 61.20519999999999L33.68209999999999 60.79890999999998L34.40120000000002 57.89542L33.68299999999999 57.163629999999955L32.98530000000005 57.28157999999996L32.03850000000011 56.526359999999954L31.236699999999928 56.20465999999999L29.99070000000006 56.571259999999995L29.391800000000103 55.443989999999985L30.661299999999983 54.64961999999997L29.99680000000012 53.61275999999998L30.52260000000001 52.46848L30.41509999999994 51.62620999999996L29.69340000000011 51.17918999999995L28.900499999999965 50.99111999999997L27.661599999999908 48.84564999999998L27.233999999999924 48.95555999999999L26.41450000000009 50.50846999999999L26.00579999999991 50.67406999999997L26.317099999999982 50.80028999999996L26.65689999999995 51.934879999999964L26.373399999999947 52.27795999999995L26.506800000000112 52.628499999999974L26.306600000000117 53.139899999999955L26.504400000000032 53.622799999999984L26.41859999999997 53.931989999999985L26.99109999999996 55.38938999999999L26.95959999999991 56.575289999999995L25.84999999999991 57.29494L26.37760000000003 58.46871999999996L25.548500000000104 58.737390000000005L24.505100000000084 58.081079999999986L23.740999999999985 58.50205999999997L23.061500000000024 56.16287L24.299800000000005 56.12043L23.67800000000011 54.52447999999998L22.644000000000005 53.75869L22.97070000000008 52.957479999999975L22.681800000000067 52.63624999999996L21.947799999999916 52.60676999999998L21.464899999999943 52.00437999999997L21.157600000000002 52.26317999999998L21.141200000000026 53.08861999999999L19.911299999999983 53.13899999999995L21.30919999999992 55.10341L19.83310000000006 56.29653999999999L19.170599999999922 56.708169999999996L18.17769999999996 56.22865999999999L17.861200000000053 56.46017999999998L17.42859999999996 55.88149999999996L17.592800000000125 55.55275999999998L18.171299999999974 55.23566999999997L18.28060000000005 54.52759999999995L17.18340000000012 53.486699999999985L17.798999999999978 52.905809999999974L17.581699999999955 52.53729999999996L18.232700000000023 52.57236L17.517499999999927 51.914379999999994L18.065200000000004 50.75446999999997L18.857300000000123 50.40832L18.264699999999948 49.32595999999995L16.58719999999994 48.70337999999998L15.666799999999967 47.58006L14.027700000000095 47.87867L11.107500000000073 47.20682999999997L9.986400000000003 46.762879999999996L9.235000000000127 46.80654999999996L9.024200000000064 46.49331999999998L8.24389999999994 46.68464L8.660200000000032 47.393839999999955L7.5931000000000495 47.925059999999974L7.708900000000085 48.318780000000004L8.493999999999915 49.35037999999997L8.411499999999933 50.57795999999996L9.24330000000009 51.59711999999996L9.4846 51.931129999999996L8.972600000000057 52.65351999999996L6.737699999999904 52.66805999999997L4.625999999999976 52.595609999999965L3.247100000000046 52.55352999999997L2.9254000000000815 53.78802999999999L2.7407000000000608 54.65715L4.09719999999993 56.26201999999995L3.512899999999945 56.915009999999995L3.5534999999999854 57.35903999999999L4.957000000000107 58.71079999999995L5.454500000000053 60.50581999999997L6.232199999999921 60.68089999999995L6.725200000000086 61.30867999999998L7.820899999999938 61.25448L8.633299999999963 61.76718999999997L9.523899999999912 62.24329999999998L10.136199999999917 61.864179999999976L10.717699999999923 63.51741999999996L12.858799999999974 65.09273999999999L12.883199999999988 65.54735L12.733099999999922 66.45569999999998L12.79340000000002 68.12176L11.94119999999998 68.67394999999999z">
      <title id="t265">Deuxième circonscription de la Moselle</title>
      <desc id="d265">Cantons de : Ars-sur-Moselle, Metz IV, Montigny-lès-Metz (moins les communes de Chieulles, Mey, Saint-Julien-lès-Metz, Vantoux, Vany), Verny</desc>
    </path><path class="circo" id="id-057-03" d="M25.963500000000067 48.05617999999998L25.259900000000016 48.33046999999999L24.336199999999963 47.73183999999998L23.513500000000022 47.60513999999995L22.946500000000015 48.22652999999997L22.11760000000004 48.37438999999995L20.88689999999997 48.159220000000005L20.61110000000008 48.82394999999997L20.672000000000025 49.93223999999998L22.260600000000068 50.31245999999999L21.682700000000068 51.27581999999995L23.19309999999996 51.56075999999996L23.87429999999995 50.98897999999997L24.75929999999994 52.10764L23.79840000000013 52.78125L23.014699999999948 54.026340000000005L23.67800000000011 54.52447999999998L24.299800000000005 56.12043L23.061500000000024 56.16287L23.740999999999985 58.50205999999997L24.505100000000084 58.081079999999986L25.548500000000104 58.737390000000005L26.37760000000003 58.46871999999996L25.84999999999991 57.29494L26.95959999999991 56.575289999999995L26.99109999999996 55.38938999999999L26.41859999999997 53.931989999999985L26.504400000000032 53.622799999999984L26.306600000000117 53.139899999999955L26.506800000000112 52.628499999999974L26.373399999999947 52.27795999999995L26.65689999999995 51.934879999999964L26.317099999999982 50.80028999999996L26.00579999999991 50.67406999999997L26.41450000000009 50.50846999999999L27.233999999999924 48.95555999999999L27.661599999999908 48.84564999999998L28.900499999999965 50.99111999999997L29.69340000000011 51.17918999999995L30.41509999999994 51.62620999999996L30.52260000000001 52.46848L29.99680000000012 53.61275999999998L30.661299999999983 54.64961999999997L29.391800000000103 55.443989999999985L29.99070000000006 56.571259999999995L31.236699999999928 56.20465999999999L32.03850000000011 56.526359999999954L32.98530000000005 57.28157999999996L33.68299999999999 57.163629999999955L34.40120000000002 57.89542L33.68209999999999 60.79890999999998L33.855999999999995 61.20519999999999L34.2976000000001 61.21907999999996L35.15080000000012 62.577020000000005L35.41509999999994 63.82592999999997L35.83420000000001 63.73389999999995L37.11000000000013 64.92866999999995L36.54880000000003 65.52531999999997L35.21749999999997 65.54864999999995L33.499700000000075 67.00660999999997L34.02220000000011 67.80490999999995L34.84460000000013 68.29753999999997L35.2029 68.78832L35.62110000000007 68.62744999999995L36.21960000000013 69.29732999999999L35.93509999999992 71.03709999999995L36.18949999999995 71.89963L36.84500000000003 71.45076999999998L39.50800000000004 72.57407999999998L39.220600000000104 74.03899999999999L40.787199999999984 74.18161999999995L41.387899999999945 75.67152999999996L41.21100000000001 76.03418999999997L41.563699999999926 76.50122999999996L41.80930000000012 76.35102999999998L43.87069999999994 74.8306L43.80930000000012 73.96484999999996L43.655300000000125 73.14375999999999L44.222099999999955 72.55440999999996L43.99070000000006 71.83010999999999L44.42669999999998 71.23131999999998L45.527000000000044 70.45765999999998L45.52670000000012 69.55077999999997L45.04019999999991 68.815L46.42309999999998 68.52900999999997L45.92920000000004 67.98989L45.875 67.25639999999999L45.74420000000009 65.71477999999996L45.07310000000007 64.45263L44.400300000000016 64.92271L43.60940000000005 64.92102L43.64470000000006 64.18302999999997L43.048500000000104 63.683599999999956L44.85539999999992 61.82034999999996L46.53860000000009 62.313829999999996L47.168499999999995 62.94468999999998L47.64059999999995 62.30955L47.274400000000014 62.142949999999985L47.54729999999995 60.98085999999995L47.21010000000001 59.82568999999995L50.18830000000003 59.33461999999997L51.00610000000006 59.637099999999975L50.615800000000036 58.35066999999998L50.14519999999993 58.03904L50.121200000000044 57.28949L51.25890000000004 55.68034L51.50700000000006 53.49383999999998L51.23029999999994 53.13678999999996L50.155300000000125 53.78672999999998L47.204099999999926 53.739599999999996L46.94859999999994 54.36286999999999L46.14339999999993 54.55433999999997L45.10509999999999 53.86410999999998L44.987300000000005 53.43723L45.59640000000013 52.796479999999974L44.778099999999995 51.26736999999997L45.558500000000095 49.690489999999954L44.93029999999999 48.04148999999995L43.28500000000008 48.69388999999995L42.993400000000065 48.34567999999996L42.53490000000011 47.10155999999995L43.317800000000034 47.33652999999998L43.58480000000009 47.01123999999999L43.61449999999991 45.37260999999995L44.669200000000046 44.80072999999999L44.29169999999999 43.70910999999995L44.69470000000001 43.129809999999964L45.515100000000075 42.18590999999998L45.84960000000001 40.98443999999995L44.964500000000044 39.48127999999997L43.84050000000002 38.9314L44.28629999999998 38.88389999999998L44.702 38.80126999999999L45.396799999999985 37.77409L44.72849999999994 36.324209999999994L43.01189999999997 36.611760000000004L43.10169999999994 35.74644999999998L41.82619999999997 35.52512999999999L41.197200000000066 34.93570999999997L41.28490000000011 34.140499999999975L42.07719999999995 33.78198999999995L42.798500000000104 32.98571999999996L41.34979999999996 33.168319999999994L40.769000000000005 33.79956999999996L39.534599999999955 34.25066999999996L38.38689999999997 35.55962999999997L37.944999999999936 35.51275999999996L37.74350000000004 36.33240999999998L36.55790000000002 37.528369999999995L34.59660000000008 36.76067999999998L33.72370000000001 36.883429999999976L33.51999999999998 35.1542L32.90300000000002 34.00259L33.237499999999955 33.205569999999966L32.84490000000005 32.58688999999998L33.156400000000076 31.893129999999985L32.84629999999993 31.621249999999975L31.27410000000009 31.285139999999956L31.12830000000008 32.18856999999997L29.792400000000043 33.44468999999998L28.96250000000009 33.51137L28.55580000000009 32.768069999999966L26.95920000000001 34.303399999999954L26.29880000000003 34.082029999999975L26.685400000000072 33.045500000000004L25.62149999999997 32.82759999999996L24.85640000000012 33.37435999999997L24.65229999999997 34.23659999999995L23.842399999999998 34.56591999999995L24.329899999999952 35.309519999999964L25.151299999999992 35.623940000000005L24.97569999999996 36.416759999999954L26.39059999999995 38.04584L26.22829999999999 38.45031L25.918499999999995 40.1352L24.335700000000088 42.66346999999996L24.913099999999986 43.594809999999995L26.273400000000038 43.59389999999996L26.86570000000006 44.63925999999998L26.616999999999962 46.22816999999998L26.29390000000012 47.06633999999997L25.963500000000067 48.05617999999998z">
      <title id="t266">Troisième circonscription de la Moselle</title>
      <desc id="d266">Cantons de : Metz I, Metz II, Metz III (moins la partie située à l'ouest de la voie ferrée de Nancy à Thionville), Pange, Vigy, Communes de : Chieulles, Mey, Saint-Julien-lès-Metz, Vantoux, Vany</desc>
    </path><path class="circo" id="id-057-04" d="M92.14319999999998 75.37264999999996L91.1712 76.20083L90.37049999999999 76.09409L89.58120000000008 75.12718999999998L89.33740000000012 75.14749999999998L89.08799999999997 76.47004999999996L90.24399999999991 77.06732L90.96749999999997 78.71214999999995L90.4405999999999 80.40413999999998L91.70920000000001 80.84526L93.04120000000012 80.76471999999995L97.88540000000012 83.18626L98.73939999999993 84.18336L98.35979999999995 84.95730999999995L100.79999999999995 84.31541999999996L102.06600000000003 84.44644L102.45929999999998 85.56633L101.57590000000005 86.31840999999997L101.00810000000001 86.42148999999995L98.48890000000006 86.51345999999995L98.6382000000001 87.92266999999998L98.06850000000009 89.90259999999995L98.52050000000008 90.65120999999999L100.14689999999996 90.60267999999996L101.29199999999992 91.02941999999996L101.53999999999996 91.76989999999995L99.74009999999998 92.65289999999999L99.93360000000007 93.46479999999997L100.79930000000013 94.33569999999997L101.33420000000001 93.64776L102.95139999999992 93.02427999999998L104.02140000000009 92.70360999999997L104.84169999999995 92.41776999999996L104.53629999999998 91.20676999999995L105.09969999999998 90.53890999999999L105.94749999999999 90.30795999999998L106.58940000000007 89.69409999999999L106.14380000000006 87.97638999999998L106.71630000000005 86.80860999999999L108.81200000000013 87.14157999999998L109.10529999999994 86.44176999999996L109.78070000000002 86.06239L110.56130000000007 87.52889999999996L109.97579999999994 88.14090999999996L111.35529999999994 89.08662999999996L112.0824 89.19301999999999L112.7632000000001 90.10269999999997L112.57259999999997 88.93788999999998L113.36920000000009 88.89230999999995L114.91699999999992 90.38605999999999L116.00289999999995 89.70416999999998L116.3732 90.16944999999998L115.34230000000002 90.64965999999998L114.9090000000001 91.27157L115.97219999999993 92.04157999999995L116.2364 92.88234L117.02649999999994 92.24289999999996L118.79050000000007 93.35242L118.77320000000009 94.33452999999997L120.29369999999994 96.70999L120.69800000000009 96.79253L118.9212 98.75917999999996L118.4493 101.42014999999998L118.38570000000004 101.39695L116.68399999999997 104.04330999999996L116.5657000000001 105.39911999999998L116.17540000000008 106.13885999999997L115.35349999999994 106.04575L114.65620000000013 106.47431999999998L115.92910000000006 108.95409999999998L116.30819999999994 109.12773999999996L116.69749999999999 110.31171999999998L117.11300000000006 110.30180999999999L119.9344000000001 110.58080999999999L117.92489999999998 113.53895999999997L116.78330000000005 114.22658999999999L117.59010000000012 115.20182L115.87959999999998 118.33331999999996L116.60079999999994 119.38902999999999L115.84799999999996 119.77995999999996L114.56889999999999 121.69943999999998L112.78710000000001 124.14682999999997L112.47250000000008 124.44462999999996L111.17959999999994 124.40096999999997L110.49050000000011 124.84539999999998L109.9674 126.38237999999996L108.38619999999992 127.48363L108.33619999999996 127.62443999999999L107.05610000000001 127.23757L105.79379999999992 127.52136999999999L103.88470000000007 126.46030999999999L101.84909999999991 127.33922999999999L100.80919999999992 126.49201L98.92849999999999 126.13576999999998L101.077 125.81441999999998L100.93579999999997 125.39997L98.91820000000007 124.56122999999997L97.86370000000011 123.17075999999997L96.97430000000008 120.84107999999998L95.69430000000011 120.77902L93.67139999999995 119.11451L95.35169999999994 117.79819999999995L95.47260000000006 117.37243999999998L94.80649999999991 116.80240999999995L94.21219999999994 117.25262999999995L93.48469999999998 117.05014999999997L93.32030000000009 117.10426999999999L92.67560000000003 116.72539L90.73109999999997 117.25943999999998L88.94129999999996 116.38801999999998L89.1866 115.56651L88.11380000000008 113.75338999999997L87.34809999999993 114.03134L87.05130000000008 115.19808999999998L86.02170000000001 115.77456999999998L84.99320000000012 115.10973999999999L81.94810000000007 115.63261L81.13380000000006 115.25916999999998L80.70399999999995 114.50271999999995L80.4045000000001 113.51168999999999L79.97759999999994 112.71463999999997L78.22730000000001 112.28893999999997L75.58609999999999 112.83106999999995L74.86259999999993 112.1626L75.14969999999994 111.44759999999997L73.9987000000001 111.62426999999997L73.90350000000012 111.19668999999999L73.47679999999991 110.06036999999998L73.65550000000007 109.36303999999996L73.24890000000005 109.33664999999996L70.77960000000007 110.03875L69.33729999999991 109.18244999999996L68.10210000000006 108.93196L67.61210000000005 107.76486L67.18849999999998 107.87597L65.9244000000001 109.66332L65.70839999999998 109.18733999999995L66.05439999999999 108.92874L66.07650000000012 107.20491999999996L66.41509999999994 106.50998999999996L65.29649999999992 104.67551999999995L64.25990000000002 104.63547L63.66750000000002 105.14500999999996L62.20420000000013 103.77033999999998L61.47810000000004 103.56293L59.97460000000001 103.43705999999997L59.674999999999955 101.88394L59.16930000000002 101.27374999999995L58.340599999999995 100.95167999999995L56.847999999999956 98.22735L55.628099999999904 98.35564L54.84619999999995 98.83588999999995L54.47019999999998 99.06729999999999L53.21420000000012 98.66041999999999L52.52970000000005 99.16501999999997L52.12149999999997 99.21297999999996L52.29079999999999 98.47296L50.80660000000012 97.06502L48.27819999999997 96.78143999999998L47.618400000000065 96.96610999999996L47.42049999999995 95.26567999999997L46.63799999999992 95.02006999999998L45.8764000000001 93.97289999999998L42.62630000000013 95.82238999999998L42.10519999999997 95.06831999999997L40.586500000000115 94.53978999999998L39.539800000000014 95.19408999999996L39.27539999999999 93.59292999999997L38.59789999999998 92.05860999999999L39.43830000000003 91.20096999999998L39.14670000000001 90.88988999999998L37.905700000000024 91.14274999999998L37.33609999999999 90.66308999999995L37.430900000000065 89.92570999999998L37.241199999999935 89.56201999999996L35.308500000000095 89.83610999999996L34.656600000000026 89.43574999999998L36.12110000000007 88.77673999999996L37.281099999999924 89.24530999999996L37.93180000000007 88.24304999999998L37.11169999999993 87.95610999999997L35.942999999999984 87.79984999999999L35.191100000000006 88.20754L33.54289999999992 86.92833999999999L33.32680000000005 86.18446L34.57120000000009 85.78542999999996L34.34609999999998 83.98151999999999L35.43280000000004 84.36800999999997L35.2487000000001 82.83653999999996L35.2795000000001 82.45849999999996L34.33940000000007 81.91537L35.539400000000114 80.65677L36.75810000000001 80.17515999999995L36.90080000000012 79.01850999999999L37.05520000000001 78.93302999999997L36.86410000000001 77.79115999999999L38.26130000000012 76.89565999999996L37.61809999999991 75.87621999999999L39.220600000000104 74.03899999999999L40.787199999999984 74.18161999999995L41.387899999999945 75.67152999999996L41.21100000000001 76.03418999999997L41.563699999999926 76.50122999999996L41.80930000000012 76.35102999999998L43.87069999999994 74.8306L43.80930000000012 73.96484999999996L43.655300000000125 73.14375999999999L44.222099999999955 72.55440999999996L43.99070000000006 71.83010999999999L44.42669999999998 71.23131999999998L45.527000000000044 70.45765999999998L45.52670000000012 69.55077999999997L45.04019999999991 68.815L46.42309999999998 68.52900999999997L46.92290000000003 69.38448999999997L47.414999999999964 70.17536999999999L49.45139999999992 71.09717999999998L50.652700000000095 70.96963999999997L50.728000000000065 70.92289999999997L53.200199999999995 70.59944999999999L54.05300000000011 71.93471L54.440900000000056 72.01510999999999L54.96070000000009 71.46164999999996L54.90789999999993 70.66665L55.34879999999998 70.00818999999996L55.92250000000013 69.37192999999996L57.07899999999995 70.37892999999997L58.303499999999985 69.05422999999996L58.39720000000011 68.11411999999996L58.962299999999914 67.08576999999997L59.19360000000006 67.11491999999998L61.00559999999996 67.46380999999997L62.59259999999995 65.13407999999998L64.0664999999999 65.91381999999999L64.21280000000002 66.32301999999999L64.87200000000007 66.37808999999999L63.663099999999986 64.52092999999996L64.05320000000006 62.79339999999996L65.62049999999999 61.464549999999974L66.15620000000013 62.160709999999995L68.27880000000005 61.811919999999986L68.4190000000001 60.283529999999985L70.07740000000013 59.62140999999997L70.31709999999998 58.981269999999995L73.04040000000009 58.63763L74.09680000000003 58.60636999999997L75.51980000000003 57.922529999999995L75.56889999999999 57.52902L78.14699999999993 56.35220999999996L78.20139999999992 56.40735999999998L78.60290000000009 57.69417999999996L77.24990000000003 58.899279999999976L79.59799999999996 59.27015L79.24320000000012 60.349279999999965L79.48160000000007 61.14659L79.70499999999993 61.10132999999996L81.85850000000005 60.740809999999954L82.05320000000006 62.45462999999995L81.26670000000013 63.83642999999995L82.05790000000002 64.17045999999999L82.26130000000012 65.00993L83.82120000000009 65.29906L84.0136 65.67019999999997L83.61429999999996 66.26885999999996L83.9081000000001 66.94234999999998L84.85339999999997 68.34197L85.1078 69.12765999999999L84.87259999999992 68.77911999999998L83.61770000000001 68.71474999999998L83.17930000000001 69.42890999999997L81.96029999999996 69.53691999999995L81.5806 69.74101999999999L81.44630000000006 70.59141999999997L79.77299999999991 71.77909999999997L79.28909999999996 72.48631999999998L80.12799999999993 72.62975L82.02490000000012 71.66996L83.79140000000007 71.24399999999997L85.08750000000009 69.96506L84.66380000000004 70.73334L86.2179000000001 72.23944999999998L87.73759999999993 71.89547999999996L88.96579999999994 71.7378L90.6699000000001 72.92008999999996L92.9423999999999 73.22956999999997L92.51469999999995 74.22289999999998L92.14319999999998 75.37264999999996z">
      <title id="t267">Quatrième circonscription de la Moselle</title>
      <desc id="d267">Cantons de : Albestroff, Château-Salins, Delme, Dieuze, Fénétrange, Grostenquin, Lorquin, Phalsbourg, Réchicourt-le-Château, Sarrebourg, Vic-sur-Seille</desc>
    </path><path class="circo" id="id-057-05" d="M139.66840000000002 75.29733999999996L138.92650000000003 74.22769L137.68589999999995 74.05375999999995L135.46119999999996 73.17222999999996L134.68939999999998 71.69416999999999L132.97810000000004 71.50475999999998L132.45309999999995 70.8535L130.5503000000001 71.77456999999998L128.44779999999992 72.11827999999997L127.41090000000008 72.82856999999996L126.35730000000012 73.02518999999995L125.35349999999994 72.721L124.58740000000012 72.34276L124.24980000000005 72.60501999999997L123.25040000000013 73.38320999999996L122.41689999999994 73.40715L121.84670000000006 74.03666999999996L120.1132 72.74559999999997L120.0295000000001 72.32022999999998L118.73129999999992 72.33666999999997L118.99360000000001 71.25268L118.7509 70.96782999999999L119.04790000000003 70.25163999999995L114.29289999999992 68.30505L111.85529999999994 69.28450999999995L110.71090000000004 67.51225999999997L109.89200000000005 67.51290999999998L108.87419999999997 65.88025999999996L107.78770000000009 66.40841L107.69710000000009 65.98598999999996L105.10950000000003 66.01060999999999L104.42810000000009 63.68178999999998L103.92789999999991 62.648199999999974L104.2192 61.88128999999998L103.10410000000002 60.82718L102.73140000000012 58.78616999999997L102.83719999999994 58.361819999999966L103.69479999999999 58.310839999999985L103.84370000000013 57.552369999999996L103.01379999999995 57.29286999999999L102.50770000000011 56.60525999999999L101.63850000000002 57.57871L100.41769999999997 57.35293999999999L100.10130000000004 57.66136L99.89460000000008 58.48701999999997L100.21229999999991 59.28363999999999L100.74970000000008 60.17678999999998L98.73109999999997 62.73557999999997L98.26469999999995 64.38872999999995L98.51340000000005 65.57767999999999L98.04559999999992 66.71677999999997L97.31870000000004 67.23708999999997L96.75690000000009 68.47149999999999L97.2645 69.73596999999995L97.17650000000003 70.18377999999996L96.41190000000006 70.63427999999999L96.80210000000011 72.39713L96.26639999999998 72.39648L95.65879999999993 72.18585999999999L93.42730000000006 71.81702999999999L92.9423999999999 73.22956999999997L90.6699000000001 72.92008999999996L88.96579999999994 71.7378L87.73759999999993 71.89547999999996L86.2179000000001 72.23944999999998L84.66380000000004 70.73334L85.08750000000009 69.96506L83.79140000000007 71.24399999999997L82.02490000000012 71.66996L80.12799999999993 72.62975L79.28909999999996 72.48631999999998L79.77299999999991 71.77909999999997L81.44630000000006 70.59141999999997L81.5806 69.74101999999999L81.96029999999996 69.53691999999995L83.17930000000001 69.42890999999997L83.61770000000001 68.71474999999998L84.87259999999992 68.77911999999998L85.1078 69.12765999999999L84.85339999999997 68.34197L83.9081000000001 66.94234999999998L83.61429999999996 66.26885999999996L84.0136 65.67019999999997L83.82120000000009 65.29906L82.26130000000012 65.00993L82.05790000000002 64.17045999999999L81.26670000000013 63.83642999999995L82.05320000000006 62.45462999999995L81.85850000000005 60.740809999999954L82.88159999999993 60.38701999999995L83.71270000000004 59.416849999999954L86.26970000000006 57.92823999999996L83.94209999999998 57.27806999999996L83.96949999999993 57.171929999999975L86.26150000000007 56.08914999999996L86.11910000000012 54.39830999999998L86.70409999999993 53.85476L87.58780000000002 53.964200000000005L88.7451000000001 55.834389999999985L89.44170000000008 55.321339999999964L89.86460000000011 55.34612999999996L89.99710000000005 56.14729L91.6368 55.83140999999995L91.87670000000003 52.12111999999996L92.92200000000003 50.85642999999999L93.09120000000007 50.48262L92.53150000000005 48.72221999999999L92.1391000000001 48.61696999999998L92.15869999999995 47.43892999999997L92.75810000000001 45.81950999999998L93.39650000000006 45.33230999999995L93.86760000000004 45.01459L95.55600000000004 43.93599999999998L95.71209999999996 42.65630999999996L95.37580000000003 41.87583999999998L95.78590000000008 41.68593999999996L96.92849999999999 42.266669999999976L96.4661000000001 44.47064L96.96569999999997 46.66461999999996L97.95620000000008 48.69493L97.94450000000006 50.040449999999964L97.9688000000001 51.36776999999995L98.99559999999997 52.10111999999998L99.79320000000007 51.71204999999998L100.23929999999996 50.47351999999995L101.71569999999997 49.54550999999998L101.08249999999998 48.36867999999998L101.1364000000001 47.07517999999999L102.40650000000005 46.67787999999996L103.25919999999996 46.81485999999995L103.48649999999998 47.19993999999997L102.87090000000012 47.84528L102.92399999999998 48.711299999999994L104.68239999999992 48.384529999999984L105.25690000000009 49.55628999999999L107.56169999999997 51.03787999999997L108.01070000000004 50.23945999999995L109.77850000000012 49.887689999999964L110.72949999999992 50.868119999999976L110.9221 51.76477999999997L112.00829999999996 50.50261999999998L114.92689999999993 49.87702999999999L115.23839999999996 50.17800999999997L117.80670000000009 50.71382L118.17710000000011 51.45321999999999L119.0030999999999 51.76711999999998L119.91380000000004 50.60886999999997L120.72749999999996 48.99011999999999L121.77040000000011 48.092690000000005L124.90010000000007 47.867759999999976L124.87000000000012 47.439059999999984L125.18939999999998 44.379759999999976L126.49230000000011 43.95576999999997L131.9393 42.8177L131.23710000000005 45.34439999999995L132.2536 44.76510999999999L132.89229999999998 45.40405999999996L134.51029999999992 44.801769999999976L135.82870000000003 44.83479999999997L136.14879999999994 46.14537999999999L136.84670000000006 46.720249999999965L136.86760000000004 47.17199999999997L135.67910000000006 48.99154999999996L136.4423999999999 49.37675999999999L136.9851000000001 50.60107999999997L138.0802000000001 51.297889999999995L138.59269999999992 52.97981999999996L139.21489999999994 54.10764999999998L141.56780000000003 56.022839999999974L142.38609999999994 56.34376999999995L145.04570000000012 55.941329999999994L147.39350000000013 57.18827999999996L148.06420000000003 59.68275999999997L148.4049 60.46794999999997L147.29520000000002 62.334450000000004L145.61169999999993 64.10967L145.77199999999993 65.35413L144.1074000000001 67.86514L144.4133999999999 68.66825L143.56809999999996 70.24633L143.66730000000007 71.10352L143.35850000000005 71.67681999999996L141.1001000000001 74.18757L141.3967 74.94964999999996L139.66840000000002 75.29733999999996z">
      <title id="t268">Cinquième circonscription de la Moselle</title>
      <desc id="d268">Cantons de: Bitche, Rohrbach-lès-Bitche, Sarralbe, Sarreguemines, Sarreguemines-Campagne, Volmunster</desc>
    </path><path class="circo" id="id-057-06" d="M81.32500000000005 41.58319L81.41210000000001 40.68003999999996L80.2636 39.27491999999995L80.50080000000003 38.88819999999998L82.03089999999997 37.92532L84.27179999999998 39.29469999999998L85.07760000000007 39.413099999999986L87.62840000000006 37.73712999999998L88.52170000000001 37.86024999999995L89.26649999999995 38.94830999999999L90.11449999999991 39.951239999999984L90.45600000000013 40.24473999999998L92.07220000000007 39.61543L93.96199999999999 41.483029999999985L94.75119999999993 41.55352999999997L95.17509999999993 42.2192L95.37580000000003 41.87583999999998L95.71209999999996 42.65630999999996L95.55600000000004 43.93599999999998L93.86760000000004 45.01459L93.39650000000006 45.33230999999995L92.75810000000001 45.81950999999998L92.15869999999995 47.43892999999997L92.1391000000001 48.61696999999998L92.53150000000005 48.72221999999999L93.09120000000007 50.48262L92.92200000000003 50.85642999999999L91.87670000000003 52.12111999999996L91.6368 55.83140999999995L89.99710000000005 56.14729L89.86460000000011 55.34612999999996L89.44170000000008 55.321339999999964L88.7451000000001 55.834389999999985L87.58780000000002 53.964200000000005L86.70409999999993 53.85476L86.11910000000012 54.39830999999998L86.26150000000007 56.08914999999996L83.96949999999993 57.171929999999975L83.94209999999998 57.27806999999996L86.26970000000006 57.92823999999996L83.71270000000004 59.416849999999954L82.88159999999993 60.38701999999995L81.85850000000005 60.740809999999954L79.70499999999993 61.10132999999996L79.48160000000007 61.14659L79.24320000000012 60.349279999999965L79.59799999999996 59.27015L77.24990000000003 58.899279999999976L78.60290000000009 57.69417999999996L78.20139999999992 56.40735999999998L78.14699999999993 56.35220999999996L77.32670000000007 54.82991999999996L76.24800000000005 53.70740999999998L76.12630000000013 52.93957L77.08100000000013 50.89552999999995L77.202 49.322839999999985L76.7364 48.675959999999975L75.57150000000001 48.40466999999995L74.99389999999994 47.82604999999995L74.94389999999999 46.59886L74.35670000000005 46.02085999999997L74.83490000000006 44.947509999999966L75.7143000000001 44.88198999999997L79.99240000000009 47.061789999999974L80.78950000000009 46.524L81.11760000000004 46.277949999999976L80.91440000000011 45.92284999999998L80.8632 44.26222999999999L82.05629999999996 43.893489999999986L82.24260000000004 43.519919999999956L81.32500000000005 41.58319z">
      <title id="t269">Sixième circonscription de la Moselle</title>
      <desc id="d269">Cantons de : Behren-lès-Forbach, Forbach, Freyming-Merlebach, Stiring-Wendel</desc>
    </path><path class="circo" id="id-057-07" d="M50.155300000000125 53.78672999999998L47.204099999999926 53.739599999999996L46.94859999999994 54.36286999999999L46.14339999999993 54.55433999999997L45.10509999999999 53.86410999999998L44.987300000000005 53.43723L45.59640000000013 52.796479999999974L44.778099999999995 51.26736999999997L45.558500000000095 49.690489999999954L44.93029999999999 48.04148999999995L43.28500000000008 48.69388999999995L42.993400000000065 48.34567999999996L42.53490000000011 47.10155999999995L43.317800000000034 47.33652999999998L43.58480000000009 47.01123999999999L43.61449999999991 45.37260999999995L44.669200000000046 44.80072999999999L44.29169999999999 43.70910999999995L44.69470000000001 43.129809999999964L45.515100000000075 42.18590999999998L45.84960000000001 40.98443999999995L44.964500000000044 39.48127999999997L43.84050000000002 38.9314L44.28629999999998 38.88389999999998L44.702 38.80126999999999L45.396799999999985 37.77409L44.72849999999994 36.324209999999994L43.01189999999997 36.611760000000004L43.10169999999994 35.74644999999998L41.82619999999997 35.52512999999999L41.197200000000066 34.93570999999997L41.28490000000011 34.140499999999975L42.07719999999995 33.78198999999995L42.798500000000104 32.98571999999996L41.34979999999996 33.168319999999994L40.94599999999991 33.23760999999996L41.01479999999992 32.44712999999996L40.337099999999964 32.00554999999997L41.03539999999998 31.417769999999962L41.44730000000004 28.750569999999982L42.034000000000106 28.048699999999997L41.21679999999992 26.918119999999988L44.002899999999954 25.589529999999968L44.32590000000005 24.475979999999993L45.05880000000002 24.16740999999996L44.705200000000104 23.68507999999997L44.54359999999997 23.281379999999956L45.43550000000005 22.332989999999995L47.240099999999984 21.209749999999985L45.66390000000001 20.572569999999985L47.27099999999996 19.697649999999953L49.469299999999976 20.08552999999995L49.521400000000085 21.165779999999984L49.22389999999996 21.382769999999994L50.580400000000054 22.18465999999995L52.12259999999992 21.61932999999999L52.75130000000013 21.48415L54.02389999999991 20.222559999999987L56.3737000000001 18.923779999999965L56.184799999999996 18.54052999999999L55.380100000000084 18.491319999999973L56.21679999999992 17.072459999999978L55.986900000000105 15.384249999999952L57.078899999999976 16.165729999999996L57.97499999999991 16.144049999999993L58.703500000000076 16.66480999999999L58.86920000000009 18.41220999999996L60.00540000000001 19.027819999999963L58.97700000000009 20.968999999999994L58.3257000000001 20.354629999999986L57.48070000000007 20.191759999999988L57.08719999999994 20.40056999999996L57.119699999999966 21.289739999999995L58.252300000000105 23.14310999999998L59.39200000000005 23.331199999999967L59.497100000000046 24.108329999999967L59.11770000000001 24.836189999999988L61.421800000000076 27.367999999999995L62.23810000000003 27.551019999999994L62.762300000000096 28.23560999999995L64.40170000000012 29.358799999999974L64.58709999999996 30.178969999999993L65.82950000000005 30.26718999999997L65.29269999999997 33.27732999999995L67.22890000000007 33.961959999999976L67.60940000000005 34.72399999999999L67.29639999999995 35.046779999999956L67.96100000000001 38.45654999999999L68.33200000000011 38.71409L70.44250000000011 38.21267999999998L71.16570000000002 39.86667L69.654 42.098119999999994L70.24119999999994 43.784400000000005L71.12580000000003 44.74950999999999L71.79179999999997 45.34738999999996L72.63300000000004 45.17214999999999L73.9828 45.274069999999995L74.83490000000006 44.947509999999966L74.35670000000005 46.02085999999997L74.94389999999999 46.59886L74.99389999999994 47.82604999999995L75.57150000000001 48.40466999999995L76.7364 48.675959999999975L77.202 49.322839999999985L77.08100000000013 50.89552999999995L76.12630000000013 52.93957L76.24800000000005 53.70740999999998L77.32670000000007 54.82991999999996L78.14699999999993 56.35220999999996L75.56889999999999 57.52902L75.51980000000003 57.922529999999995L74.09680000000003 58.60636999999997L73.04040000000009 58.63763L70.31709999999998 58.981269999999995L70.07740000000013 59.62140999999997L68.4190000000001 60.283529999999985L68.27880000000005 61.811919999999986L66.15620000000013 62.160709999999995L65.62049999999999 61.464549999999974L64.05320000000006 62.79339999999996L63.663099999999986 64.52092999999996L64.87200000000007 66.37808999999999L64.21280000000002 66.32301999999999L64.0664999999999 65.91381999999999L62.59259999999995 65.13407999999998L61.00559999999996 67.46380999999997L59.19360000000006 67.11491999999998L58.962299999999914 67.08576999999997L58.39720000000011 68.11411999999996L58.303499999999985 69.05422999999996L57.07899999999995 70.37892999999997L55.92250000000013 69.37192999999996L55.34879999999998 70.00818999999996L54.90789999999993 70.66665L54.96070000000009 71.46164999999996L54.440900000000056 72.01510999999999L54.05300000000011 71.93471L53.200199999999995 70.59944999999999L50.728000000000065 70.92289999999997L50.652700000000095 70.96963999999997L49.45139999999992 71.09717999999998L47.414999999999964 70.17536999999999L46.92290000000003 69.38448999999997L46.42309999999998 68.52900999999997L45.92920000000004 67.98989L45.875 67.25639999999999L45.74420000000009 65.71477999999996L45.07310000000007 64.45263L44.400300000000016 64.92271L43.60940000000005 64.92102L43.64470000000006 64.18302999999997L43.048500000000104 63.683599999999956L44.85539999999992 61.82034999999996L46.53860000000009 62.313829999999996L47.168499999999995 62.94468999999998L47.64059999999995 62.30955L47.274400000000014 62.142949999999985L47.54729999999995 60.98085999999995L47.21010000000001 59.82568999999995L50.18830000000003 59.33461999999997L51.00610000000006 59.637099999999975L50.615800000000036 58.35066999999998L50.14519999999993 58.03904L50.121200000000044 57.28949L51.25890000000004 55.68034L51.50700000000006 53.49383999999998L51.23029999999994 53.13678999999996L50.155300000000125 53.78672999999998z">
      <title id="t270">Septième circonscription de la Moselle</title>
      <desc id="d270">Cantons de : Boulay-Moselle, Bouzonville, Faulquemont, Saint-Avold I, Saint-Avold II</desc>
    </path><path class="circo" id="id-057-08" d="M12.430100000000039 13.165189999999996L12.831899999999905 13.045509999999979L12.805900000000065 12.624939999999981L11.94119999999998 11.766449999999963L12.385700000000043 11.057230000000004L11.895299999999907 10.761989999999969L12.368400000000065 10.071349999999995L12.644000000000005 8.421699999999987L11.375 8.090509999999995L11.244400000000041 7.671569999999974L9.149400000000014 7.40546999999998L7.535599999999931 7.995719999999949L7.302899999999909 7.605799999999988L7.842499999999973 6.886439999999993L6.871000000000095 5.988599999999963L6.528099999999995 2.8740300000000047L5.265300000000025 2.4675699999999665L4.422800000000052 1.6414899999999761L3.637899999999945 1.6003900000000044L2.801200000000108 1.752869999999973L1.5636999999999261 1.3808899999999653L0 1.997609999999952L0.3080999999999676 4.062629999999956L0.9580000000000837 3.619349999999997L2.0506000000000313 3.8680799999999635L3.077600000000075 3.5120599999999627L3.3019999999999072 4.200529999999958L3.9693999999999505 4.524319999999989L3.46550000000002 5.236099999999965L4.113100000000031 7.790429999999958L3.1760999999999058 8.58578L4.154999999999973 10.703309999999988L2.9651000000001204 11.211439999999982L2.23700000000008 12.29971999999998L2.1373000000000957 13.096339999999998L1.567199999999957 13.68513999999999L2.2524000000000797 14.071169999999995L3.0833999999999833 14.475709999999992L3.539199999999937 17.157979999999952L2.6673000000000684 18.188199999999995L3.4003999999999905 18.659449999999993L4.046499999999924 19.79879999999997L5.3315000000000055 19.68381999999997L5.965400000000045 21.637459999999976L7.222999999999956 21.86800999999997L5.90059999999994 21.867359999999962L4.249399999999923 22.463840000000005L4.904299999999921 24.139239999999972L6.704899999999952 25.56774999999999L7.804800000000114 27.04379L8.816700000000083 25.86138999999997L9.586700000000064 26.74106999999998L9.312000000000126 29.14259999999996L9.098999999999933 30.906799999999976L9.897300000000087 31.30534L9.89709999999991 32.137369999999976L9.73440000000005 33.00655999999998L11.540700000000015 34.22748999999999L11.261700000000019 35.08010999999999L11.430599999999913 36.40544L11.675799999999981 36.43485999999996L11.781400000000076 35.14117999999996L12.217200000000048 35.16969L13.018100000000004 37.11901999999998L13.44970000000012 37.190740000000005L13.516000000000076 36.682709999999986L13.730199999999968 34.91539999999998L14.234300000000076 34.204049999999995L16.128600000000006 33.466039999999964L17.413800000000037 33.34661999999997L18.047000000000025 32.752970000000005L18.52839999999992 32.48359999999997L19.582000000000107 32.46679999999998L19.96049999999991 32.67402999999996L20.942299999999932 31.871629999999982L22.12130000000002 31.610569999999996L22.490800000000036 32.16329999999999L21.83470000000011 32.64680999999996L22.010800000000017 33.47528999999997L24.85640000000012 33.37435999999997L25.62149999999997 32.82759999999996L24.44769999999994 31.27641L25.085600000000113 30.266009999999994L24.6712 29.552840000000003L24.404999999999973 28.730759999999975L23.13000000000011 27.575789999999984L23.076700000000073 27.417669999999987L22.779199999999946 26.63755999999995L23.811699999999973 25.38883999999996L22.77060000000006 24.801369999999963L22.0929000000001 23.754599999999982L20.508399999999938 23.406079999999974L21.781099999999924 21.65312L21.569400000000087 21.265469999999993L20.132299999999987 20.31012999999996L18.948699999999917 20.880659999999978L18.930200000000013 21.76375999999999L17.417899999999918 21.08200999999997L16.77520000000004 21.414739999999995L16.083499999999958 20.96391L15.338199999999915 21.165909999999997L14.103800000000092 20.096619999999973L14.044200000000046 20.033199999999965L15.458300000000008 17.412319999999966L14.223300000000108 17.125729999999976L14.005799999999908 16.753079999999954L14.054699999999912 15.973889999999983L15.703700000000026 15.015029999999967L14.122100000000046 14.351749999999981L12.939399999999978 14.82275999999996L12.430100000000039 13.165189999999996z">
      <title id="t271">Huitième circonscription de la Moselle</title>
      <desc id="d271">Cantons de : Algrange, Fameck, Florange, Fontoy, Hayange, Moyeuvre-Grande, Commune de Terville</desc>
    </path><path class="circo" id="id-057-09" d="M34.18990000000008 3.987009999999998L36.25 4.591439999999977L37.43299999999999 5.926469999999995L38.253099999999904 5.731719999999996L38.56619999999998 6.03922L38.91800000000012 5.9071199999999635L40.03510000000006 6.89480999999995L40.414800000000014 6.851129999999955L40.30780000000004 5.972379999999987L43.33400000000006 6.048369999999977L44.96659999999997 4.732979999999998L45.76870000000008 4.936279999999954L46.49890000000005 5.955379999999991L47.646999999999935 6.318719999999985L48.85799999999995 6.208460000000002L50.2786000000001 7.812399999999968L51.60940000000005 8.171449999999993L53.30459999999994 9.720910000000003L54.57290000000012 10.205849999999998L56.20679999999993 12.180679999999995L54.822200000000066 13.231560000000002L55.00720000000001 14.519859999999994L55.738000000000056 14.663279999999986L55.986900000000105 15.384249999999952L56.21679999999992 17.072459999999978L55.380100000000084 18.491319999999973L56.184799999999996 18.54052999999999L56.3737000000001 18.923779999999965L54.02389999999991 20.222559999999987L52.75130000000013 21.48415L52.12259999999992 21.61932999999999L50.580400000000054 22.18465999999995L49.22389999999996 21.382769999999994L49.521400000000085 21.165779999999984L49.469299999999976 20.08552999999995L47.27099999999996 19.697649999999953L45.66390000000001 20.572569999999985L47.240099999999984 21.209749999999985L45.43550000000005 22.332989999999995L44.54359999999997 23.281379999999956L44.705200000000104 23.68507999999997L45.05880000000002 24.16740999999996L44.32590000000005 24.475979999999993L44.002899999999954 25.589529999999968L41.21679999999992 26.918119999999988L42.034000000000106 28.048699999999997L41.44730000000004 28.750569999999982L41.03539999999998 31.417769999999962L40.337099999999964 32.00554999999997L41.01479999999992 32.44712999999996L40.94599999999991 33.23760999999996L41.34979999999996 33.168319999999994L40.769000000000005 33.79956999999996L39.534599999999955 34.25066999999996L38.38689999999997 35.55962999999997L37.944999999999936 35.51275999999996L37.74350000000004 36.33240999999998L36.55790000000002 37.528369999999995L34.59660000000008 36.76067999999998L33.72370000000001 36.883429999999976L33.51999999999998 35.1542L32.90300000000002 34.00259L33.237499999999955 33.205569999999966L32.84490000000005 32.58688999999998L33.156400000000076 31.893129999999985L32.84629999999993 31.621249999999975L31.27410000000009 31.285139999999956L31.12830000000008 32.18856999999997L29.792400000000043 33.44468999999998L28.96250000000009 33.51137L28.55580000000009 32.768069999999966L26.95920000000001 34.303399999999954L26.29880000000003 34.082029999999975L26.685400000000072 33.045500000000004L25.62149999999997 32.82759999999996L24.44769999999994 31.27641L25.085600000000113 30.266009999999994L24.6712 29.552840000000003L24.404999999999973 28.730759999999975L23.13000000000011 27.575789999999984L23.076700000000073 27.417669999999987L22.779199999999946 26.63755999999995L23.811699999999973 25.38883999999996L22.77060000000006 24.801369999999963L22.0929000000001 23.754599999999982L20.508399999999938 23.406079999999974L21.781099999999924 21.65312L21.569400000000087 21.265469999999993L20.132299999999987 20.31012999999996L18.948699999999917 20.880659999999978L18.930200000000013 21.76375999999999L17.417899999999918 21.08200999999997L16.77520000000004 21.414739999999995L16.083499999999958 20.96391L15.338199999999915 21.165909999999997L14.103800000000092 20.096619999999973L14.044200000000046 20.033199999999965L15.458300000000008 17.412319999999966L14.223300000000108 17.125729999999976L14.005799999999908 16.753079999999954L14.054699999999912 15.973889999999983L15.703700000000026 15.015029999999967L14.122100000000046 14.351749999999981L12.939399999999978 14.82275999999996L12.430100000000039 13.165189999999996L12.831899999999905 13.045509999999979L12.805900000000065 12.624939999999981L11.94119999999998 11.766449999999963L12.385700000000043 11.057230000000004L11.895299999999907 10.761989999999969L12.368400000000065 10.071349999999995L12.644000000000005 8.421699999999987L13.850400000000036 6.120699999999999L15.170499999999947 6.169749999999965L16.39370000000008 7.38218999999998L17.63040000000001 7.757739999999956L17.562000000000126 5.941249999999968L18.202400000000125 5.317070000000001L19.444799999999987 4.930909999999983L20.077600000000075 2.754159999999956L21.353399999999965 3.199329999999975L22.452099999999973 2.489949999999965L22.386400000000094 1.223039999999969L23.951700000000073 0.45125999999999067L24.330400000000054 0.6702599999999848L27.48389999999995 0.7018099999999663L27.506599999999935 0.2870999999999526L29.09089999999992 0.5381799999999544L29.690599999999904 0L32.534799999999905 1.1315500000000043L32.91010000000006 2.3586899999999673L33.66679999999997 3.30007999999998L34.496399999999994 3.1371800000000007L34.18990000000008 3.987009999999998z">
      <title id="t272">Neuvième circonscription de la Moselle</title>
      <desc id="d272">Cantons de : Cattenom, Metzervisse, Sierck-les-Bains, Thionville Est, Thionville Ouest, Yutz (moins la commune de Terville)</desc>
    </path></svg>