<svg xmlns="http://www.w3.org/2000/svg" version="1.1" xmlns:xlink="http://www.w3.org/1999/xlink" xmlns:svgjs="http://svgjs.dev/svgjs" viewBox="0 0 117.78666999999996 116.96123"><path class="circo" id="id-058-01" d="M33.6789 54.179160000000024L33.28530000000001 54.88126L30.83789999999999 56.481070000000045L30.572199999999953 57.72568000000001L29.53729999999996 59.56524000000002L29.592499999999973 60.350200000000086L29.102499999999964 60.92578000000003L29.00720000000001 62.8275000000001L29.366300000000024 63.52295000000004L28.170600000000036 63.64154000000008L27.807199999999966 64.85436000000004L26.53970000000004 64.66640000000007L25.164800000000014 63.677110000000084L23.839899999999943 64.76263000000006L24.095699999999965 65.91010000000006L23.306100000000015 65.94716000000005L23.147699999999986 66.31314000000009L22.40549999999996 66.06720000000007L23.689499999999953 68.58728000000008L23.208399999999983 70.59193000000005L22.24159999999995 71.33370000000002L22.54570000000001 71.56535000000008L22.45240000000001 72.65394000000003L22.736599999999953 74.20860000000005L23.505199999999945 74.13569000000007L24.34979999999996 74.0507L25.67279999999994 72.99026000000003L26.514499999999998 72.83033L28.410099999999943 69.70354000000009L28.610199999999963 70.81887000000006L30.22059999999999 71.25054L30.963499999999954 70.88758000000007L31.801699999999983 70.47559000000001L34.51890000000003 68.7837300000001L35.07089999999994 67.69738000000007L36.66769999999997 68.29802000000007L37.937599999999975 68.2362700000001L38.47140000000002 68.89299000000005L40.554899999999975 68.53851000000009L40.94190000000003 68.36488000000008L41.89480000000003 66.50554L41.00229999999999 64.5872700000001L41.42459999999994 62.997780000000034L43.89269999999999 63.03111000000001L45.03570000000002 62.538490000000024L46.46479999999997 61.97903000000008L46.8433 66.73986000000002L47.42039999999997 67.32798000000003L49.31979999999999 68.09719000000007L49.80729999999994 69.24421000000007L51.4307 69.20168000000001L52.19560000000001 69.52383000000009L52.370199999999954 69.14643000000001L53.01819999999998 69.53543000000002L54.55709999999999 69.5818200000001L55.14869999999996 70.0234200000001L55.34259999999995 71.23707000000002L56.26480000000004 72.10057000000006L56.16369999999995 72.86436000000003L57.310499999999934 73.36108000000002L57.93089999999995 72.77262000000007L59.155200000000036 73.0593100000001L59.94909999999993 72.79318L60.434799999999996 73.88967000000002L60.10649999999998 74.61338L60.73289999999997 75.08792000000005L60.82339999999999 75.88949000000002L62.78390000000002 76.33229000000006L63.93290000000002 75.95727000000011L65.89739999999995 76.57598000000007L67.11889999999994 76.38835000000006L67.80639999999994 77.36977000000002L66.90980000000002 78.3393400000001L66.16419999999994 79.90089L64.17240000000004 80.65009000000009L65.21519999999998 81.9347600000001L66.37699999999995 82.38661000000002L66.5145 83.2204200000001L66.08889999999997 84.35999000000004L65.73950000000002 85.90433000000007L65.3732 86.06171000000006L64.87689999999998 87.57319000000007L64.3424 88.13125000000002L62.47429999999997 87.14632000000006L60.931100000000015 87.80926000000011L58.76769999999999 87.95428000000004L58.25729999999999 87.33488L57.48400000000004 87.26933000000008L58.29110000000003 84.44959000000006L56.94849999999997 83.43784000000005L55.31439999999998 83.77697L53.21230000000003 83.57474000000002L52.8279 83.3954L52.613699999999994 82.58839L51.83019999999999 82.2755800000001L51.93859999999995 81.86380000000008L50.25490000000002 82.86508000000003L50.77099999999996 84.28881000000001L50.75260000000003 84.96996000000001L49.958999999999946 85.71050000000002L49.237300000000005 86.8008900000001L48.47159999999997 86.78447000000006L47.4837 85.41501000000005L47.528299999999945 84.55822L47.0548 83.87902000000008L45.88199999999995 84.10290000000009L44.574499999999944 84.96498000000008L43.769199999999955 84.99372000000005L42.1268 83.86371000000008L41.88919999999996 83.5277000000001L42.19060000000002 82.7793200000001L41.08479999999997 83.2979600000001L39.54849999999999 83.3779800000001L38.470500000000015 84.57265000000007L36.76490000000001 85.56693000000007L35.67399999999998 84.87639000000001L34.854600000000005 85.83267000000001L34.67520000000002 87.07977000000005L34.67470000000003 87.93761000000006L35.427799999999934 89.44942000000003L34.94219999999996 90.15415000000007L33.82910000000004 89.59427000000005L31.148699999999963 87.43787000000009L28.797500000000014 88.42065000000002L28.251300000000015 89.60397L26.95870000000002 90.76098000000002L24.902199999999993 90.17716000000007L24.206199999999967 90.68639000000007L23.415300000000002 90.52179000000001L22.374000000000024 89.85526000000004L21.91509999999994 88.32526000000007L21.072400000000016 88.27838000000008L19.72720000000004 87.25789000000009L18.944399999999973 87.57630000000006L18.56600000000003 87.38675L18.356899999999996 86.46253000000002L17.4289 84.99783000000002L18.646600000000035 81.68977000000007L18.772100000000023 81.35464000000002L19.812999999999988 79.48685L19.903299999999945 78.63813000000005L19.244299999999953 78.11054000000001L18.597099999999955 76.55766000000006L18.712099999999964 74.03686000000005L19.422000000000025 72.14208000000008L19.515800000000013 69.94523000000004L18.567099999999982 67.92754000000002L17.746700000000033 67.6675600000001L15.049999999999955 65.74651000000006L14.754500000000007 64.93635000000006L15.073999999999955 63.685730000000035L15.82529999999997 62.09777000000008L15.730799999999931 60.3282200000001L15.709499999999935 60.17086000000006L15.563599999999951 57.65734000000009L15.281100000000038 57.32312000000002L14.619699999999966 56.23964000000001L14.798599999999965 54.17716000000007L14.514800000000037 53.82589000000007L12.967399999999998 48.603920000000016L12.63620000000003 47.87513000000001L11.37659999999994 45.07330000000002L11.612899999999968 42.01082000000008L11.747600000000034 41.245230000000106L10.91089999999997 39.95431000000008L8.192199999999957 38.048400000000015L6.642799999999966 36.082160000000044L5.760999999999967 35.145270000000096L4.612700000000018 34.59027000000003L3.164800000000014 33.928510000000074L2.4231999999999516 32.53897000000006L2.1300999999999704 30.87844000000007L2.9406000000000176 29.349109999999996L3.856400000000008 27.91079000000002L6.339799999999968 22.326720000000023L6.4553999999999405 20.699430000000007L7.341499999999996 19.360520000000065L7.3419999999999845 18.532350000000065L6.344899999999939 16.262350000000083L6.290499999999952 16.024740000000065L5.684099999999944 14.483800000000087L4.418099999999981 12.939980000000105L4.01279999999997 11.200040000000058L3.7730000000000246 10.094890000000078L2.502299999999991 8.501720000000091L0.5538000000000238 6.63306L0 5.415710000000104L0.9727000000000317 4.600030000000061L1.9886999999999944 5.280590000000075L2.8202999999999747 4.441590000000019L3.2474999999999454 4.435290000000009L4.444099999999935 4.230630000000019L5.456000000000017 3.5672200000000203L5.874500000000012 2.766300000000001L9.64530000000002 3.8483600000000706L10.591199999999958 6.245390000000043L10.427599999999984 7.111350000000016L10.873699999999985 9.679740000000038L10.35450000000003 10.39363000000003L10.497099999999932 11.172730000000001L11.809200000000033 11.95037000000002L12.047400000000039 12.170010000000048L11.791299999999978 12.747650000000021L12.129000000000019 13.480070000000069L13.372799999999984 13.124500000000012L14.210299999999961 13.278580000000034L15.394599999999969 16.013670000000047L16.643500000000017 16.13085000000001L17.822199999999953 15.000880000000052L18.563199999999938 15.43267000000003L19.84050000000002 15.5311200000001L20.3596 14.379420000000096L21.193499999999972 14.443680000000086L23.20920000000001 15.872610000000009L23.701299999999947 16.5229700000001L22.697099999999978 19.785620000000108L23.38530000000003 20.28306000000009L23.079700000000003 21.00987000000009L21.878600000000006 20.543390000000045L20.18889999999999 21.104600000000005L16.648699999999963 21.360750000000053L18.147899999999936 26.21821L18.06759999999997 26.645260000000007L16.769800000000032 26.66585000000009L16.555499999999938 27.42509000000007L17.084499999999935 28.006040000000098L18.01660000000004 27.149220000000014L20.572900000000004 27.630539999999996L20.899900000000002 29.340080000000057L21.585399999999936 30.450040000000058L23.748199999999997 31.867990000000077L23.005800000000022 32.25529000000006L21.69290000000001 36.16677000000004L23.403400000000033 36.502050000000054L24.069600000000037 37.03672000000006L25.37659999999994 37.022050000000036L25.98580000000004 39.01771000000008L26.242999999999938 40.29266000000007L28.32280000000003 40.84054000000003L30.118600000000015 39.67657000000008L30.539999999999964 39.79496000000006L30.76509999999996 41.01001000000008L31.181699999999978 41.147530000000074L30.65459999999996 41.52953000000002L30.177299999999946 43.596950000000106L30.5548 43.64641000000006L30.66070000000002 44.37930000000006L31.70780000000002 44.808050000000094L32.83579999999995 45.947220000000016L32.3297 47.337080000000014L33.29099999999994 46.59638000000007L35.905200000000036 47.7505000000001L34.891899999999964 48.548L37.13080000000002 52.676700000000096L35.960500000000025 52.9833900000001L35.04539999999997 53.83226000000002L34.98910000000001 54.61990000000003L33.6789 54.179160000000024z">
      <title id="t273">Première circonscription de la Nièvre</title>
      <desc id="d273">Cantons de : La Charité-sur-Loire, Cosne-Cours-sur-Loire Nord, Cosne-Cours-sur-Loire Sud, Imphy, Nevers Centre, Nevers Est, Nevers Nord, Nevers Sud, Pouilly-sur-Loire, Pougues-les-Eaux, Saint-Benin-d'Azy</desc>
    </path><path class="circo" id="id-058-02" d="M98.22569999999996 75.4034200000001L97.82169999999996 75.33663000000001L97.745 76.62581L98.9026 77.14193L99.3315 77.0879900000001L100.51739999999995 75.83791000000008L101.31907000000001 75.59269000000006L102.73956999999996 78.69617000000005L102.50226999999995 79.47801000000004L101.54256999999996 80.29150000000004L101.99236999999994 81.43992000000003L101.84106999999995 82.24272000000008L101.28671999999995 82.85400000000004L101.31256999999994 83.68700000000001L101.96027000000004 85.99129000000005L103.95966999999996 86.53120000000001L104.53536999999994 87.14495000000011L106.25707 89.5685400000001L106.73736999999994 91.22206000000006L105.89076999999997 91.44196000000011L102.27496999999994 93.85156000000006L101.82616999999993 94.39158000000009L102.06767000000002 94.68567000000007L103.01256999999998 95.82478000000003L103.12967000000003 96.58139000000006L103.43146999999999 99.59454000000005L103.44357000000002 100.35829000000001L102.86226999999997 101.33744000000002L102.11466999999993 101.2526600000001L101.43547000000001 100.19852000000003L99.78899999999999 101.36847L98.14390000000003 101.33396000000005L95.48619999999994 102.45742000000007L95.33439999999996 102.8500600000001L95.03559999999993 102.78268000000003L94.15369999999996 104.23344000000009L92.50130000000001 104.68279000000007L92.06240000000003 105.84042000000011L89.293 106.85708L88.74279999999999 107.47169000000008L87.65199999999993 106.97031000000004L87.2935 107.67543L85.70960000000002 107.88028000000008L84.98000000000002 108.24533000000008L84.32780000000002 109.71090000000004L83.41829999999993 110.4971700000001L81.84190000000001 110.37917000000004L80.70690000000002 110.71929L80.30219999999997 108.68016L79.44259999999997 107.26261L79.77289999999994 106.50200000000007L75.94499999999994 104.52821000000006L72.99839999999995 105.16363000000001L71.85410000000002 105.75545L69.3546 106.29240000000004L68.22839999999997 105.68450000000007L67.56420000000003 106.04421000000002L66.66200000000003 104.83849000000009L66.0349 104.29063000000008L64.35259999999994 104.52772000000004L63.53890000000001 103.14850000000001L62.29380000000003 104.81839000000002L63.810100000000034 107.80489L62.53250000000003 108.85820000000001L62.203899999999976 108.1311300000001L61.51649999999995 108.99917000000005L59.71709999999996 108.19263000000001L59.81719999999996 110.2831000000001L60.74829999999997 112.21257000000003L60.273000000000025 112.87972000000002L59.725900000000024 113.51967000000002L59.299999999999955 113.51670000000001L58.581699999999955 112.51765L57.400800000000004 112.80104000000006L54.54150000000004 115.85804000000007L54.52750000000003 116.69437000000005L54.22569999999996 116.96123L51.860900000000015 116.8689700000001L51.50199999999995 116.07862L50.73720000000003 115.67944L51.12059999999997 115.5032000000001L51.11080000000004 114.67998L51.70679999999993 114.09105L51.70500000000004 112.83598000000006L51.345500000000015 112.11318000000006L49.85400000000004 111.48437000000001L49.696000000000026 110.66884000000005L50.068700000000035 109.4565100000001L48.40219999999999 109.59486000000004L46.31479999999999 109.12538000000006L45.52099999999996 109.4430000000001L45.22019999999998 110.68495000000007L44.3057 112.1269400000001L43.497999999999934 112.40662000000009L42.747499999999945 112.85184000000004L40.19460000000004 112.40365000000008L39.04259999999999 110.61914000000002L38.49459999999999 109.00301000000002L37.24680000000001 109.09339L37.213300000000004 109.11558000000002L35.98630000000003 108.99743000000001L35.240800000000036 110.0218000000001L33.0684 111.29735000000005L32.669899999999984 111.41001000000006L32.449499999999944 112.21058000000005L31.5385 113.06037000000003L30.536100000000033 113.60441000000003L27.389999999999986 112.09075000000007L25.84579999999994 109.95275000000004L25.653799999999933 109.70569L24.129500000000007 107.56296000000009L22.05690000000004 106.85745000000009L20.255300000000034 106.28806000000009L17.3836 103.80253000000005L16.350900000000024 101.93828000000008L15.88530000000003 99.19748000000004L16.480199999999968 97.3708200000001L18.058899999999994 95.44365000000005L18.130899999999997 94.64157L17.79920000000004 93.74967000000004L19.05880000000002 92.0734000000001L18.56600000000003 87.38675L18.944399999999973 87.57630000000006L19.72720000000004 87.25789000000009L21.072400000000016 88.27838000000008L21.91509999999994 88.32526000000007L22.374000000000024 89.85526000000004L23.415300000000002 90.52179000000001L24.206199999999967 90.68639000000007L24.902199999999993 90.17716000000007L26.95870000000002 90.76098000000002L28.251300000000015 89.60397L28.797500000000014 88.42065000000002L31.148699999999963 87.43787000000009L33.82910000000004 89.59427000000005L34.94219999999996 90.15415000000007L35.427799999999934 89.44942000000003L34.67470000000003 87.93761000000006L34.67520000000002 87.07977000000005L34.854600000000005 85.83267000000001L35.67399999999998 84.87639000000001L36.76490000000001 85.56693000000007L38.470500000000015 84.57265000000007L39.54849999999999 83.3779800000001L41.08479999999997 83.2979600000001L42.19060000000002 82.7793200000001L41.88919999999996 83.5277000000001L42.1268 83.86371000000008L43.769199999999955 84.99372000000005L44.574499999999944 84.96498000000008L45.88199999999995 84.10290000000009L47.0548 83.87902000000008L47.528299999999945 84.55822L47.4837 85.41501000000005L48.47159999999997 86.78447000000006L49.237300000000005 86.8008900000001L49.958999999999946 85.71050000000002L50.75260000000003 84.96996000000001L50.77099999999996 84.28881000000001L50.25490000000002 82.86508000000003L51.93859999999995 81.86380000000008L51.83019999999999 82.2755800000001L52.613699999999994 82.58839L52.8279 83.3954L53.21230000000003 83.57474000000002L55.31439999999998 83.77697L56.94849999999997 83.43784000000005L58.29110000000003 84.44959000000006L57.48400000000004 87.26933000000008L58.25729999999999 87.33488L58.76769999999999 87.95428000000004L60.931100000000015 87.80926000000011L62.47429999999997 87.14632000000006L64.3424 88.13125000000002L64.87689999999998 87.57319000000007L65.3732 86.06171000000006L65.73950000000002 85.90433000000007L66.08889999999997 84.35999000000004L66.5145 83.2204200000001L66.37699999999995 82.38661000000002L65.21519999999998 81.9347600000001L64.17240000000004 80.65009000000009L66.16419999999994 79.90089L66.90980000000002 78.3393400000001L67.80639999999994 77.36977000000002L67.11889999999994 76.38835000000006L65.89739999999995 76.57598000000007L63.93290000000002 75.95727000000011L62.78390000000002 76.33229000000006L60.82339999999999 75.88949000000002L60.73289999999997 75.08792000000005L60.10649999999998 74.61338L60.434799999999996 73.88967000000002L59.94909999999993 72.79318L59.155200000000036 73.0593100000001L57.93089999999995 72.77262000000007L57.310499999999934 73.36108000000002L56.16369999999995 72.86436000000003L56.26480000000004 72.10057000000006L55.34259999999995 71.23707000000002L55.14869999999996 70.0234200000001L54.55709999999999 69.5818200000001L53.01819999999998 69.53543000000002L52.370199999999954 69.14643000000001L52.19560000000001 69.52383000000009L51.4307 69.20168000000001L49.80729999999994 69.24421000000007L49.31979999999999 68.09719000000007L47.42039999999997 67.32798000000003L46.8433 66.73986000000002L46.46479999999997 61.97903000000008L45.03570000000002 62.538490000000024L43.89269999999999 63.03111000000001L41.42459999999994 62.997780000000034L41.00229999999999 64.5872700000001L41.89480000000003 66.50554L40.94190000000003 68.36488000000008L40.554899999999975 68.53851000000009L38.47140000000002 68.89299000000005L37.937599999999975 68.2362700000001L36.66769999999997 68.29802000000007L35.07089999999994 67.69738000000007L34.51890000000003 68.7837300000001L31.801699999999983 70.47559000000001L30.963499999999954 70.88758000000007L30.22059999999999 71.25054L28.610199999999963 70.81887000000006L28.410099999999943 69.70354000000009L26.514499999999998 72.83033L25.67279999999994 72.99026000000003L24.34979999999996 74.0507L23.505199999999945 74.13569000000007L22.736599999999953 74.20860000000005L22.45240000000001 72.65394000000003L22.54570000000001 71.56535000000008L22.24159999999995 71.33370000000002L23.208399999999983 70.59193000000005L23.689499999999953 68.58728000000008L22.40549999999996 66.06720000000007L23.147699999999986 66.31314000000009L23.306100000000015 65.94716000000005L24.095699999999965 65.91010000000006L23.839899999999943 64.76263000000006L25.164800000000014 63.677110000000084L26.53970000000004 64.66640000000007L27.807199999999966 64.85436000000004L28.170600000000036 63.64154000000008L29.366300000000024 63.52295000000004L29.00720000000001 62.8275000000001L29.102499999999964 60.92578000000003L29.592499999999973 60.350200000000086L29.53729999999996 59.56524000000002L30.572199999999953 57.72568000000001L30.83789999999999 56.481070000000045L33.28530000000001 54.88126L33.6789 54.179160000000024L34.98910000000001 54.61990000000003L35.04539999999997 53.83226000000002L35.960500000000025 52.9833900000001L37.13080000000002 52.676700000000096L34.891899999999964 48.548L35.905200000000036 47.7505000000001L33.29099999999994 46.59638000000007L32.3297 47.337080000000014L32.83579999999995 45.947220000000016L31.70780000000002 44.808050000000094L30.66070000000002 44.37930000000006L30.5548 43.64641000000006L30.177299999999946 43.596950000000106L30.65459999999996 41.52953000000002L31.181699999999978 41.147530000000074L30.76509999999996 41.01001000000008L30.539999999999964 39.79496000000006L30.118600000000015 39.67657000000008L28.32280000000003 40.84054000000003L26.242999999999938 40.29266000000007L25.98580000000004 39.01771000000008L25.37659999999994 37.022050000000036L24.069600000000037 37.03672000000006L23.403400000000033 36.502050000000054L21.69290000000001 36.16677000000004L23.005800000000022 32.25529000000006L23.748199999999997 31.867990000000077L21.585399999999936 30.450040000000058L20.899900000000002 29.340080000000057L20.572900000000004 27.630539999999996L18.01660000000004 27.149220000000014L17.084499999999935 28.006040000000098L16.555499999999938 27.42509000000007L16.769800000000032 26.66585000000009L18.06759999999997 26.645260000000007L18.147899999999936 26.21821L16.648699999999963 21.360750000000053L20.18889999999999 21.104600000000005L21.878600000000006 20.543390000000045L23.079700000000003 21.00987000000009L23.38530000000003 20.28306000000009L22.697099999999978 19.785620000000108L23.701299999999947 16.5229700000001L23.20920000000001 15.872610000000009L21.193499999999972 14.443680000000086L20.3596 14.379420000000096L19.84050000000002 15.5311200000001L18.563199999999938 15.43267000000003L17.822199999999953 15.000880000000052L16.643500000000017 16.13085000000001L15.394599999999969 16.013670000000047L14.210299999999961 13.278580000000034L13.372799999999984 13.124500000000012L12.129000000000019 13.480070000000069L11.791299999999978 12.747650000000021L12.047400000000039 12.170010000000048L11.809200000000033 11.95037000000002L10.497099999999932 11.172730000000001L10.35450000000003 10.39363000000003L10.873699999999985 9.679740000000038L10.427599999999984 7.111350000000016L10.591199999999958 6.245390000000043L9.64530000000002 3.8483600000000706L10.043900000000008 3.0498700000000554L11.165099999999939 2.330530000000067L12.420099999999934 2.5037600000000566L14.608499999999935 3.792060000000106L15.78189999999995 3.4465400000000272L16.43100000000004 2.8810600000000477L18.147500000000036 2.4149400000000014L19.27699999999993 1.053790000000049L20.64179999999999 0.11822000000006483L21.483299999999986 0L22.64409999999998 0.5075100000000248L23.38390000000004 1.1380900000000338L23.65930000000003 1.4833399999999983L23.050299999999993 2.6312500000000227L23.616999999999962 6.109160000000088L24.392600000000016 5.8225700000000415L24.77539999999999 6.0215200000000095L25.85979999999995 7.358609999999999L26.95079999999996 8.050840000000107L27.201099999999997 8.869370000000004L28.36500000000001 8.621540000000095L28.98180000000002 8.102950000000078L30.543900000000008 8.15318000000002L33.13729999999998 12.375310000000013L34.43729999999994 12.529910000000086L35.195100000000025 12.089630000000056L36.50810000000001 12.08384000000001L37.40649999999994 10.57621000000006L38.33949999999993 12.003330000000005L39.179899999999975 11.868340000000103L41.69219999999996 13.403860000000009L42.019499999999994 13.680430000000001L41.894000000000005 14.527810000000045L42.60900000000004 14.88406000000009L42.545099999999934 14.013210000000072L42.85130000000004 13.702060000000074L44.246099999999956 12.76640000000009L45.49310000000003 12.602490000000103L46.40009999999995 11.115490000000023L46.423599999999965 10.246900000000096L47.626499999999965 9.97774000000004L48.20079999999996 10.081550000000107L49.89999999999998 10.149510000000078L51.12059999999997 9.778030000000058L51.37119999999993 10.584760000000074L52.06319999999994 11.012440000000083L52.47019999999998 10.922980000000052L53.858100000000036 11.838530000000105L54.66409999999996 11.847960000000057L55.21399999999994 8.39309000000003L54.98339999999996 3.518970000000081L55.52109999999993 3.407750000000078L56.53679999999997 4.714760000000069L56.86699999999996 7.6456300000000965L57.87549999999999 8.375220000000013L59.18190000000004 9.279160000000047L60.09280000000001 10.642520000000104L62.07479999999998 11.236650000000054L62.45690000000002 11.326610000000073L62.501499999999965 11.717750000000024L62.09450000000004 13.189030000000002L62.13189999999997 13.319590000000062L62.73929999999996 15.914100000000076L63.129999999999995 15.866070000000036L63.58299999999997 16.3900900000001L64.61559999999997 15.322650000000067L65.45600000000002 15.369930000000068L65.77850000000001 16.549620000000004L66.5992 16.768860000000018L67.0643 16.596010000000092L68.88559999999995 17.509390000000053L70.48479999999995 17.41888000000006L70.73689999999999 17.754870000000096L70.90649999999994 17.706480000000056L70.40340000000003 19.16838000000007L70.55819999999994 19.52500000000009L71.29470000000003 19.386530000000107L72.79309999999998 20.314850000000092L73.71539999999993 21.830690000000004L73.9176 22.783410000000003L74.74889999999994 23.707989999999995L75.96749999999997 24.040390000000002L78.82979999999998 23.255010000000084L79.0027 22.863160000000107L79.74209999999994 22.992650000000026L79.6078 24.14901000000009L79.93989999999997 24.857690000000048L81.18200000000002 24.941440000000057L82.32949999999994 26.10599000000002L83.54629999999997 25.895970000000034L83.63940000000002 24.638970000000086L83.06619999999998 23.5228800000001L83.58899999999994 22.89067L84.43899999999996 22.874840000000063L84.71860000000004 22.55331000000001L85.55909999999994 20.17840000000001L85.52260000000001 19.171140000000037L86.63400000000001 19.329230000000052L87.58050000000003 20.0229700000001L87.95399999999995 19.8970700000001L88.13440000000003 20.70559000000003L88.8297 21.15334000000007L89.10029999999995 22.349460000000022L87.91560000000004 23.65336000000002L86.38519999999994 24.47410000000002L87.23140000000001 27.76308000000006L88.59590000000003 27.925100000000043L90.40890000000002 25.894840000000045L92.88549999999998 26.174780000000055L93.27059999999994 25.999790000000075L93.96219999999994 24.5149100000001L94.80529999999999 25.426060000000007L95.73019999999997 26.830910000000017L95.10159999999996 27.928240000000073L95.8628 31.799380000000042L96.6721 33.355230000000006L97.1046 33.32563000000005L98.22810000000004 34.64016000000004L99.91409999999996 34.6167200000001L100.32650000000001 34.48207000000002L100.87189999999998 32.8614L101.16772000000003 32.54123000000004L101.54986999999994 32.74828000000002L102.24747000000002 31.230920000000083L103.90137000000004 31.396620000000098L104.70167000000004 31.080020000000104L106.33797000000004 31.53171000000009L107.17936999999995 31.26567L107.26136999999994 31.67897000000005L107.67336999999998 31.760500000000093L108.58167000000003 30.897000000000048L109.29016999999999 29.381230000000073L110.05016999999998 29.07695000000001L110.34426999999994 29.379470000000083L108.79076999999995 31.715340000000083L108.68317000000002 32.480530000000044L109.24667 33.60865000000001L107.96887000000004 35.24292000000003L108.69047 35.6865600000001L109.42806999999993 35.249070000000074L107.90197 37.11417000000006L108.81736999999998 42.513990000000035L109.64976999999999 44.034270000000106L113.26866999999993 42.10900000000004L114.03557 43.06081000000006L114.51636999999994 44.270880000000034L116.79457000000002 46.28251L117.61797000000001 48.23772000000008L117.78666999999996 49.08294000000001L116.19667000000004 51.070850000000064L115.96847000000002 52.70545000000004L115.99816999999996 54.28628000000003L114.67716999999993 55.13161000000002L113.97937000000002 54.68328000000008L113.62387000000001 54.8985100000001L110.41417000000001 55.82562000000007L107.94277 55.44244000000003L107.66687000000002 55.75251000000003L108.07667000000004 56.84969000000001L107.41626999999994 57.317370000000096L107.42156999999997 57.73255000000006L108.01927 58.2943600000001L107.85046999999997 58.818410000000085L106.46447 57.938440000000014L106.04196999999999 57.99666000000002L106.22276999999997 58.38506000000007L105.79377 59.08098000000007L103.29417000000001 58.619410000000016L102.83646999999996 59.308310000000006L102.29767000000004 59.95455000000004L102.51486999999997 62.00150000000008L101.58757000000003 62.89067L101.46437000000003 63.73878000000002L102.53957000000003 64.44424000000004L104.20826999999997 66.4712300000001L103.06606999999997 68.80681000000004L103.15417000000002 69.67162000000008L103.31976999999995 70.92461000000003L103.03507000000002 71.71796000000006L101.27152000000001 73.42639000000008L98.22569999999996 75.4034200000001z">
      <title id="t274">Deuxième circonscription de la Nièvre</title>
      <desc id="d274">Cantons de : Brinon-sur-Beuvron, Château-Chinon (Ville), Châtillon-en-Bazois, Clamecy, Corbigny, Decize, Donzy, Dornes, Fours, Guérigny, Lormes, Luzy, La Machine, Montsauche-les-Settons, Moulins-Engilbert, Prémery, Saint-Amand-en-Puisaye, Saint-Pierre-le-Moûtier, Saint-Saulge, Tannay, Varzy</desc>
    </path></svg>