<svg xmlns="http://www.w3.org/2000/svg" version="1.1" xmlns:xlink="http://www.w3.org/1999/xlink" xmlns:svgjs="http://svgjs.dev/svgjs" viewBox="898.69623 609.30383 117.78666999999996 116.96123"><path class="circo" id="id-058-01" d="M 932.37513,663.48299 931.98153,664.18509 929.53413,665.7849 929.26843,667.02951 928.23353,668.86907 928.28873,669.65403 927.79873,670.22961 927.70343,672.13133 928.06253,672.82678 926.86683,672.94537 926.50343,674.15819 925.23593,673.97023 923.86103,672.98094 922.53613,674.06646 922.79193,675.21393 922.00233,675.25099 921.84393,675.61697 921.10173,675.37103 922.38573,677.89111 921.90463,679.89576 920.93783,680.63753 921.24193,680.86918 921.14863,681.95777 921.43283,683.51243 922.20143,683.43952 923.04603,683.35453 924.36903,682.29409 925.21073,682.13416 927.10633,679.00737 927.30643,680.1227 928.91683,680.55437 929.65973,680.19141 930.49793,679.77942 933.21513,678.08756 933.76713,677.00121 935.36393,677.60185 936.63383,677.5401 937.16763,678.19682 939.25113,677.84234 939.63813,677.66871 940.59103,675.80937 939.69853,673.8911 940.12083,672.30161 942.58893,672.33494 943.73193,671.84232 945.16103,671.28286 945.53953,676.04369 946.11663,676.63181 948.01603,677.40102 948.50353,678.54804 950.12693,678.50551 950.89183,678.82766 951.06643,678.45026 951.71443,678.83926 953.25333,678.88565 953.84493,679.32725 954.03883,680.5409 954.96103,681.4044 954.85993,682.16819 956.00673,682.66491 956.62713,682.07645 957.85143,682.36314 958.64533,682.09701 959.13103,683.1935 958.80273,683.91721 959.42913,684.39175 959.51963,685.19332 961.48013,685.63612 962.62913,685.2611 964.59363,685.87981 965.81513,685.69218 966.50263,686.6736 965.60603,687.64317 964.86043,689.20472 962.86863,689.95392 963.91143,691.23859 965.07323,691.69044 965.21073,692.52425 964.78513,693.66382 964.43573,695.20816 964.06943,695.36554 963.57313,696.87702 963.03863,697.43508 961.17053,696.45015 959.62733,697.11309 957.46393,697.25811 956.95353,696.63871 956.18023,696.57316 956.98733,693.75342 955.64473,692.74167 954.01063,693.0808 951.90853,692.87857 951.52413,692.69923 951.30993,691.89222 950.52643,691.57941 950.63483,691.16763 948.95113,692.16891 949.46723,693.59264 949.44883,694.27379 948.65523,695.01433 947.93353,696.10472 947.16783,696.0883 946.17993,694.71884 946.22453,693.86205 945.75103,693.18285 944.57823,693.40673 943.27073,694.26881 942.46543,694.29755 940.82303,693.16754 940.58543,692.83153 940.88683,692.08315 939.78103,692.60179 938.24473,692.68181 937.16673,693.87648 935.46113,694.87076 934.37023,694.18022 933.55083,695.1365 933.37143,696.3836 933.37093,697.24144 934.12403,698.75325 933.63843,699.45798 932.52533,698.8981 929.84493,696.7417 927.49373,697.72448 926.94753,698.9078 925.65493,700.06481 923.59843,699.48099 922.90243,699.99022 922.11153,699.82562 921.07023,699.15909 920.61133,697.62909 919.76863,697.58221 918.42343,696.56172 917.64063,696.88013 917.26223,696.69058 917.05313,695.76636 916.12513,694.30166 917.34283,690.9936 917.46833,690.65847 918.50923,688.79068 918.59953,687.94196 917.94053,687.41437 917.29333,685.86149 917.40833,683.34069 918.11823,681.44591 918.21203,679.24906 917.26333,677.23137 916.44293,676.97139 913.74623,675.05034 913.45073,674.24018 913.77023,672.98956 914.52153,671.4016 914.42703,669.63205 914.40573,669.47469 914.25983,666.96117 913.97733,666.62695 913.31593,665.54347 913.49483,663.48099 913.21103,663.12972 911.66363,657.90775 911.33243,657.17896 910.07283,654.37713 910.30913,651.31465 910.44383,650.54906 909.60713,649.25814 906.88843,647.35223 905.33903,645.38599 904.45723,644.4491 903.30893,643.8941 901.86103,643.23234 901.11943,641.8428 900.82633,640.18227 901.63683,638.65294 902.55263,637.21462 905.03603,631.63055 905.15163,630.00326 906.03773,628.66435 906.03823,627.83618 905.04113,625.56618 904.98673,625.32857 904.38033,623.78763 903.11433,622.24381 902.70903,620.50387 902.46923,619.39872 901.19853,617.80555 899.25003,615.93689 898.69623,614.71954 899.66893,613.90386 900.68493,614.58442 901.51653,613.74542 901.94373,613.73912 903.14033,613.53446 904.15223,612.87105 904.57073,612.07013 908.34153,613.15219 909.28743,615.54922 909.12383,616.41518 909.56993,618.98357 909.05073,619.69746 909.19333,620.47656 910.50543,621.2542 910.74363,621.47384 910.48753,622.05148 910.82523,622.7839 912.06903,622.42833 912.90653,622.58241 914.09083,625.3175 915.33973,625.43468 916.51843,624.30471 917.25943,624.7365 918.53673,624.83495 919.05583,623.68325 919.88973,623.74751 921.90543,625.17644 922.39753,625.8268 921.39333,629.08945 922.08153,629.58689 921.77593,630.3137 920.57483,629.84722 918.88513,630.40843 915.34493,630.66458 916.84413,635.52204 916.76383,635.94909 915.46603,635.96968 915.25173,636.72892 915.78073,637.30987 916.71283,636.45305 919.26913,636.93437 919.59613,638.64391 920.28163,639.75387 922.44443,641.17182 921.70203,641.55912 920.38913,645.4706 922.09963,645.80588 922.76583,646.34055 924.07283,646.32588 924.68203,648.32154 924.93923,649.59649 927.01903,650.14437 928.81483,648.9804 929.23623,649.09879 929.46133,650.31384 929.87793,650.45136 929.35083,650.83336 928.87353,652.90078 929.25103,652.95024 929.35693,653.68313 930.40403,654.11188 931.53203,655.25105 931.02593,656.64091 931.98723,655.90021 934.60143,657.05433 933.58813,657.85183 935.82703,661.98053 934.65673,662.28722 933.74163,663.13609 933.68533,663.92373 932.37513,663.48299 z">
      <title id="t273">Première circonscription de la Nièvre</title>
      <desc id="d273">Cantons de : La Charité-sur-Loire, Cosne-Cours-sur-Loire Nord, Cosne-Cours-sur-Loire Sud, Imphy, Nevers Centre, Nevers Est, Nevers Nord, Nevers Sud, Pouilly-sur-Loire, Pougues-les-Eaux, Saint-Benin-d'Azy</desc>
    </path><path class="circo" id="id-058-02" d="M 996.92193,684.70725 996.51793,684.64046 996.44123,685.92964 997.59883,686.44576 998.02773,686.39182 999.21363,685.14174 1000.0153,684.89652 1001.4358,688 1001.1985,688.78184 1000.2388,689.59533 1000.6886,690.74375 1000.5373,691.54655 999.98295,692.15783 1000.0088,692.99083 1000.6565,695.29512 1002.6559,695.83503 1003.2316,696.44878 1004.9533,698.87237 1005.4336,700.52589 1004.587,700.74579 1000.9712,703.15539 1000.5224,703.69541 1000.7639,703.9895 1001.7088,705.12861 1001.8259,705.88522 1002.1277,708.89837 1002.1398,709.66212 1001.5585,710.64127 1000.8109,710.55649 1000.1317,709.50235 998.48523,710.6723 996.84013,710.63779 994.18243,711.76125 994.03063,712.15389 993.73183,712.08651 992.84993,713.53727 991.19753,713.98662 990.75863,715.14425 987.98923,716.16091 987.43903,716.77552 986.34823,716.27414 985.98973,716.97926 984.40583,717.18411 983.67623,717.54916 983.02403,719.01473 982.11453,719.801 980.53813,719.683 979.40313,720.02312 978.99843,717.98399 978.13883,716.56644 978.46913,715.80583 974.64123,713.83204 971.69463,714.46746 970.55033,715.05928 968.05083,715.59623 966.92463,714.98833 966.26043,715.34804 965.35823,714.14232 964.73113,713.59446 963.04883,713.83155 962.23513,712.45233 960.99003,714.12222 962.50633,717.10872 961.22873,718.16203 960.90013,717.43496 960.21273,718.303 958.41333,717.49646 958.51343,719.58693 959.44453,721.5164 958.96923,722.18355 958.42213,722.8235 957.99623,722.82053 957.27793,721.82148 956.09703,722.10487 953.23773,725.16187 953.22373,725.9982 952.92193,726.26506 950.55713,726.1728 950.19823,725.38245 949.43343,724.98327 949.81683,724.80703 949.80703,723.98381 950.40303,723.39488 950.40123,722.13981 950.04173,721.41701 948.55023,720.7882 948.39223,719.97267 948.76493,718.76034 947.09843,718.89869 945.01103,718.42921 944.21723,718.74683 943.91643,719.98878 943.00193,721.43077 942.19423,721.71045 941.44373,722.15567 938.89083,721.70748 937.73883,719.92297 937.19083,718.30684 935.94303,718.39722 935.90953,718.41941 934.68253,718.30126 933.93703,719.32563 931.76463,720.60118 931.36613,720.71384 931.14573,721.51441 930.23473,722.3642 929.23233,722.90824 926.08623,721.39458 924.54203,719.25658 924.35003,719.00952 922.82573,716.86679 920.75313,716.16128 918.95153,715.59189 916.07983,713.10636 915.04713,711.24211 914.58153,708.50131 915.17643,706.67465 916.75513,704.74748 916.82713,703.9454 916.49543,703.0535 917.75503,701.37723 917.26223,696.69058 917.64063,696.88013 918.42343,696.56172 919.76863,697.58221 920.61133,697.62909 921.07023,699.15909 922.11153,699.82562 922.90243,699.99022 923.59843,699.48099 925.65493,700.06481 926.94753,698.9078 927.49373,697.72448 929.84493,696.7417 932.52533,698.8981 933.63843,699.45798 934.12403,698.75325 933.37093,697.24144 933.37143,696.3836 933.55083,695.1365 934.37023,694.18022 935.46113,694.87076 937.16673,693.87648 938.24473,692.68181 939.78103,692.60179 940.88683,692.08315 940.58543,692.83153 940.82303,693.16754 942.46543,694.29755 943.27073,694.26881 944.57823,693.40673 945.75103,693.18285 946.22453,693.86205 946.17993,694.71884 947.16783,696.0883 947.93353,696.10472 948.65523,695.01433 949.44883,694.27379 949.46723,693.59264 948.95113,692.16891 950.63483,691.16763 950.52643,691.57941 951.30993,691.89222 951.52413,692.69923 951.90853,692.87857 954.01063,693.0808 955.64473,692.74167 956.98733,693.75342 956.18023,696.57316 956.95353,696.63871 957.46393,697.25811 959.62733,697.11309 961.17053,696.45015 963.03863,697.43508 963.57313,696.87702 964.06943,695.36554 964.43573,695.20816 964.78513,693.66382 965.21073,692.52425 965.07323,691.69044 963.91143,691.23859 962.86863,689.95392 964.86043,689.20472 965.60603,687.64317 966.50263,686.6736 965.81513,685.69218 964.59363,685.87981 962.62913,685.2611 961.48013,685.63612 959.51963,685.19332 959.42913,684.39175 958.80273,683.91721 959.13103,683.1935 958.64533,682.09701 957.85143,682.36314 956.62713,682.07645 956.00673,682.66491 954.85993,682.16819 954.96103,681.4044 954.03883,680.5409 953.84493,679.32725 953.25333,678.88565 951.71443,678.83926 951.06643,678.45026 950.89183,678.82766 950.12693,678.50551 948.50353,678.54804 948.01603,677.40102 946.11663,676.63181 945.53953,676.04369 945.16103,671.28286 943.73193,671.84232 942.58893,672.33494 940.12083,672.30161 939.69853,673.8911 940.59103,675.80937 939.63813,677.66871 939.25113,677.84234 937.16763,678.19682 936.63383,677.5401 935.36393,677.60185 933.76713,677.00121 933.21513,678.08756 930.49793,679.77942 929.65973,680.19141 928.91683,680.55437 927.30643,680.1227 927.10633,679.00737 925.21073,682.13416 924.36903,682.29409 923.04603,683.35453 922.20143,683.43952 921.43283,683.51243 921.14863,681.95777 921.24193,680.86918 920.93783,680.63753 921.90463,679.89576 922.38573,677.89111 921.10173,675.37103 921.84393,675.61697 922.00233,675.25099 922.79193,675.21393 922.53613,674.06646 923.86103,672.98094 925.23593,673.97023 926.50343,674.15819 926.86683,672.94537 928.06253,672.82678 927.70343,672.13133 927.79873,670.22961 928.28873,669.65403 928.23353,668.86907 929.26843,667.02951 929.53413,665.7849 931.98153,664.18509 932.37513,663.48299 933.68533,663.92373 933.74163,663.13609 934.65673,662.28722 935.82703,661.98053 933.58813,657.85183 934.60143,657.05433 931.98723,655.90021 931.02593,656.64091 931.53203,655.25105 930.40403,654.11188 929.35693,653.68313 929.25103,652.95024 928.87353,652.90078 929.35083,650.83336 929.87793,650.45136 929.46133,650.31384 929.23623,649.09879 928.81483,648.9804 927.01903,650.14437 924.93923,649.59649 924.68203,648.32154 924.07283,646.32588 922.76583,646.34055 922.09963,645.80588 920.38913,645.4706 921.70203,641.55912 922.44443,641.17182 920.28163,639.75387 919.59613,638.64391 919.26913,636.93437 916.71283,636.45305 915.78073,637.30987 915.25173,636.72892 915.46603,635.96968 916.76383,635.94909 916.84413,635.52204 915.34493,630.66458 918.88513,630.40843 920.57483,629.84722 921.77593,630.3137 922.08153,629.58689 921.39333,629.08945 922.39753,625.8268 921.90543,625.17644 919.88973,623.74751 919.05583,623.68325 918.53673,624.83495 917.25943,624.7365 916.51843,624.30471 915.33973,625.43468 914.09083,625.3175 912.90653,622.58241 912.06903,622.42833 910.82523,622.7839 910.48753,622.05148 910.74363,621.47384 910.50543,621.2542 909.19333,620.47656 909.05073,619.69746 909.56993,618.98357 909.12383,616.41518 909.28743,615.54922 908.34153,613.15219 908.74013,612.3537 909.86133,611.63436 911.11633,611.80759 913.30473,613.09589 914.47813,612.75037 915.12723,612.18489 916.84373,611.71877 917.97323,610.35762 919.33803,609.42205 920.17953,609.30383 921.34033,609.81134 922.08013,610.44192 922.35553,610.78717 921.74653,611.93508 922.31323,615.41299 923.08883,615.1264 923.47163,615.32535 924.55603,616.66244 925.64703,617.35467 925.89733,618.1732 927.06123,617.92537 927.67803,617.40678 929.24013,617.45701 931.83353,621.67914 933.13353,621.83374 933.89133,621.39346 935.20433,621.38767 936.10273,619.88004 937.03573,621.30716 937.87613,621.17217 940.38843,622.70769 940.71573,622.98426 940.59023,623.83164 941.30523,624.18789 941.24133,623.31704 941.54753,623.00589 942.94233,622.07023 944.18933,621.90632 945.09633,620.41932 945.11983,619.55073 946.32273,619.28157 946.89703,619.38538 948.59623,619.45334 949.81683,619.08186 950.06743,619.88859 950.75943,620.31627 951.16643,620.22681 952.55433,621.14236 953.36033,621.15179 953.91023,617.69692 953.67963,612.8228 954.21733,612.71158 955.23303,614.01859 955.56323,616.94946 956.57173,617.67905 957.87813,618.58299 958.78903,619.94635 960.77103,620.54048 961.15313,620.63044 961.19773,621.02158 960.79073,622.49286 960.82813,622.62342 961.43553,625.21793 961.82623,625.1699 962.27923,625.69392 963.31183,624.62648 964.15223,624.67376 964.47473,625.85345 965.29543,626.07269 965.76053,625.89984 967.58183,626.81322 969.18103,626.72271 969.43313,627.0587 969.60273,627.01031 969.09963,628.47221 969.25443,628.82883 969.99093,628.69036 971.48933,629.61868 972.41163,631.13452 972.61383,632.08724 973.44513,633.01182 974.66373,633.34422 977.52603,632.55884 977.69893,632.16699 978.43833,632.29648 978.30403,633.45284 978.63613,634.16152 979.87823,634.24527 981.02573,635.40982 982.24253,635.1998 982.33563,633.9428 981.76243,632.82671 982.28523,632.1945 983.13523,632.17867 983.41483,631.85714 984.25533,629.48223 984.21883,628.47497 985.33023,628.63306 986.27673,629.3268 986.65023,629.2009 986.83063,630.00942 987.52593,630.45717 987.79653,631.65329 986.61183,632.95719 985.08143,633.77793 985.92763,637.06691 987.29213,637.22893 989.10513,635.19867 991.58173,635.47861 991.96683,635.30362 992.65843,633.81874 993.50153,634.72989 994.42643,636.13474 993.79783,637.23207 994.55903,641.10321 995.36833,642.65906 995.80083,642.62946 996.92433,643.94399 998.61033,643.92055 999.02273,643.7859 999.56813,642.16523 999.86395,641.84506 1000.2461,642.05211 1000.9437,640.53475 1002.5976,640.70045 1003.3979,640.38385 1005.0342,640.83554 1005.8756,640.5695 1005.9576,640.9828 1006.3696,641.06433 1007.2779,640.20083 1007.9864,638.68506 1008.7464,638.38078 1009.0405,638.6833 1007.487,641.01917 1007.3794,641.78436 1007.9429,642.91248 1006.6651,644.54675 1007.3867,644.99039 1008.1243,644.5529 1006.5982,646.418 1007.5136,651.81782 1008.346,653.3381 1011.9649,651.41283 1012.7318,652.36464 1013.2126,653.57471 1015.4908,655.58634 1016.3142,657.54155 1016.4829,658.38677 1014.8929,660.37468 1014.6647,662.00928 1014.6944,663.59011 1013.3734,664.43544 1012.6756,663.98711 1012.3201,664.20234 1009.1104,665.12945 1006.639,664.74627 1006.3631,665.05634 1006.7729,666.15352 1006.1125,666.6212 1006.1178,667.03638 1006.7155,667.59819 1006.5467,668.12224 1005.1607,667.24227 1004.7382,667.30049 1004.919,667.68889 1004.49,668.38481 1001.9904,667.92324 1001.5327,668.61214 1000.9939,669.25838 1001.2111,671.30533 1000.2838,672.1945 1000.1606,673.04261 1001.2358,673.74807 1002.9045,675.77506 1001.7623,678.11064 1001.8504,678.97545 1002.016,680.22844 1001.7313,681.02179 999.96775,682.73022 996.92193,684.70725 z">
      <title id="t274">Deuxième circonscription de la Nièvre</title>
      <desc id="d274">Cantons de : Brinon-sur-Beuvron, Château-Chinon (Ville), Châtillon-en-Bazois, Clamecy, Corbigny, Decize, Donzy, Dornes, Fours, Guérigny, Lormes, Luzy, La Machine, Montsauche-les-Settons, Moulins-Engilbert, Prémery, Saint-Amand-en-Puisaye, Saint-Pierre-le-Moûtier, Saint-Saulge, Tannay, Varzy</desc>
    </path></svg>