<svg xmlns="http://www.w3.org/2000/svg" version="1.1" xmlns:xlink="http://www.w3.org/1999/xlink" xmlns:svgjs="http://svgjs.dev/svgjs" viewBox="1512.0946 1031.7213 183.8108000000002 153.08230000000003"><path class="circo" id="059-01" d="M 1614.432,1078.2018 1616.9166,1082.5021 1619.744,1085.0557 1621.2078,1085.2178 1623.2947,1082.7876 1624.2318,1082.7953 1625.5219,1083.7623 1626.0578,1086.9122 1627.0934,1088.0168 1630.065,1088.3718 1629.631,1086.019 1627.0639,1081.2485 1628.6799,1078.9989 1628.4194,1076.8984 1626.9313,1074.4327 1625.5591,1072.9492 1623.9699,1072.8981 1621.9403,1073.3985 1623.2779,1075.8187 1623.8167,1077.6064 1623.1185,1078.6158 1623.087,1079.2217 1622.1731,1081.4331 1621.29,1081.6017 1619.8881,1080.4849 1618.6122,1077.129 1617.2499,1076.2168 1614.7737,1076.7858 1614.432,1078.2018 z">
      <title id="t275">Première circonscription du Nord</title>
      <desc id="d275">Cantons de : Lille Centre, Lille Sud, Lille Sud-Est (moins les communes de Lezennes et Ronchin), commune de Loos</desc>
    </path><path class="circo" id="059-02" d="M 1630.9023,1072.2622 1632.3521,1073.5551 1631.9426,1075.3879 1629.4805,1074.6793 1626.9313,1074.4327 1628.4194,1076.8984 1628.6799,1078.9989 1627.0639,1081.2485 1629.631,1086.019 1629.9476,1085.1773 1631.6726,1084.9581 1634.3812,1080.4436 1637.5024,1083.0681 1638.2507,1082.6815 1644.1426,1082.4793 1645.3644,1080.538 1644.7131,1079.9058 1645.2438,1078.21 1648.0836,1075.9555 1648.9789,1075.815 1649.3542,1076.642 1649.9194,1073.8655 1649.7438,1073.8148 1648.1744,1073.7872 1647.6789,1075.4285 1646.8006,1075.3884 1645.4592,1074.3043 1646.3029,1072.9064 1645.2248,1068.7437 1643.5521,1068.9995 1642.3049,1067.9228 1641.3671,1066.5155 1639.805,1065.8693 1639.8295,1064.1777 1638.2457,1063.5959 1637.9587,1066.078 1636.4386,1068.9051 1635.0135,1068.7647 1635.1182,1070.1367 1632.3977,1069.1349 1630.9023,1072.2622 z">
      <title id="t276">Deuxième circonscription du Nord</title>
      <desc id="d276">Cantons de : Lille Est, Villeneuve-d'Ascq Nord, Villeneuve-d'Ascq Sud, Communes de Lezennes, Mons-en-Barœul et Ronchin</desc>
    </path><path class="circo" id="059-04" d="M 1625.5591,1072.9492 1623.9699,1072.8981 1621.9403,1073.3985 1621.0133,1072.5249 1619.855,1073.4132 1615.5004,1069.1143 1612.2956,1066.7586 1610.1128,1067.5884 1607.0055,1063.3159 1608.2926,1061.6998 1609.8919,1061.3678 1611.9896,1058.1162 1609.4539,1053.7471 1607.2203,1052.6515 1606.2649,1050.322 1604.4677,1048.4748 1605.547,1047.4817 1604.5483,1045.147 1604.9667,1044.4045 1607.8282,1042.4243 1610.3228,1043.0988 1612.2285,1041.2607 1616.7061,1038.3674 1617.6064,1036.8876 1620.9751,1037.8124 1621.8852,1036.3708 1624.9245,1035.0025 1625.2924,1039.4789 1624.6954,1042.099 1625.7153,1043.5961 1624.7146,1045.1773 1623.07,1045.9492 1621.5874,1046.5639 1620.9323,1048.0067 1623.2075,1050.2859 1624.6923,1049.8909 1626.1157,1051.3065 1627.1815,1053.7801 1627.4755,1059.8115 1629.2472,1061.1288 1626.6482,1065.3628 1629.0959,1069.3265 1627.726,1071.3826 1625.5591,1072.9492 z">
      <title id="t278">Quatrième circonscription du Nord</title>
      <desc id="d278">Cantons de : Lille Nord, Lille Ouest, Quesnoy-sur-Deûle</desc>
    </path><path class="circo" id="059-07" d="M 1645.2034,1068.7689 1643.5307,1069.0248 1642.2835,1067.948 1641.3456,1066.5407 1639.7836,1065.8945 1639.8081,1064.2029 1638.2243,1063.6211 1637.9373,1066.1032 1636.4172,1068.9303 1634.9921,1068.7899 1634.0777,1065.3442 1634.8465,1062.7555 1634.1706,1060.2333 1637.161,1058.6481 1639.0658,1058.2463 1642.2367,1056.5247 1644.9152,1058.5232 1645.0124,1059.8401 1643.6746,1061.0186 1642.919,1062.301 1641.8726,1063.1897 1644.1823,1064.3144 1647.9855,1064.7546 1648.5714,1064.1532 1650.6997,1061.7951 1651.0791,1060.2923 1651.2911,1059.3085 1657.7055,1058.8415 1659.0758,1062.871 1656.0573,1064.5196 1655.758,1065.336 1656.2563,1069.3844 1652.7786,1067.8617 1652.1903,1068.4056 1650.0023,1071.2311 1649.7224,1073.84 1648.1529,1073.8124 1646.2815,1072.9316 1645.2034,1068.7689 z">
      <title id="t281">Septième circonscription du Nord</title>
      <desc id="d281">Cantons de : Lannoy (moins les communes de Anstaing, Baisieux, Chéreng, Forest-sur-Marque, Gruson, Sailly-lez-Lannoy, Tressin et Willems), Roubaix Ouest</desc>
    </path><path class="circo" id="059-08" d="M 1644.3361,1052.7402 1648.0565,1046.6407 1648.5087,1047.4481 1647.3633,1049.8783 1650.5136,1053.0963 1656.735,1053.8154 1658.7509,1056.8235 1658.6096,1058.6609 1657.7055,1058.8415 1651.2911,1059.3085 1650.6997,1061.7951 1647.9855,1064.7546 1644.1823,1064.3144 1641.8726,1063.1897 1642.919,1062.301 1643.6746,1061.0186 1645.0124,1059.8401 1644.9152,1058.5232 1642.2367,1056.5247 1644.3361,1052.7402 z">
      <title id="t282">Huitième circonscription du Nord</title>
      <desc id="d282">Cantons de : Roubaix Centre, Roubaix Est, Roubaix Nord</desc>
    </path><path class="circo" id="059-09" d="M 1635.1304,1049.4377 1633.7731,1050.5208 1632.1918,1050.1849 1631.0326,1048.9074 1629.3247,1048.7957 1627.7431,1050.8499 1626.1157,1051.3065 1627.1815,1053.7801 1627.4755,1059.8115 1629.2472,1061.1288 1626.6482,1065.3628 1629.0959,1069.3265 1627.726,1071.3826 1625.5591,1072.9492 1626.9313,1074.4327 1629.4805,1074.6793 1631.9426,1075.3879 1632.3521,1073.5551 1630.9023,1072.2622 1632.3977,1069.1349 1635.1182,1070.1367 1635.0135,1068.7647 1634.0991,1065.319 1634.868,1062.7303 1634.192,1060.2081 1637.1825,1058.6229 1639.0872,1058.2211 1642.2581,1056.4995 1648.078,1046.6155 1646.7024,1045.7724 1644.6074,1049.1153 1642.9907,1049.6062 1641.3938,1051.7206 1639.1902,1052.5351 1637.4901,1052.3437 1637.3599,1050.6458 1635.1304,1049.4377 z">
      <title id="t283">Neuvième circonscription du Nord</title>
      <desc id="d283">Cantons de : Lille Nord-Est (moins la commune de Mons-en-Barœul), Marcq-en-Barœul, Tourcoing Sud.</desc>
    </path><path class="circo" id="059-10" d="M 1624.6954,1042.099 1625.7153,1043.5961 1624.7146,1045.1773 1623.07,1045.9492 1621.5874,1046.5639 1620.9323,1048.0067 1623.2075,1050.2859 1624.6923,1049.8909 1626.1157,1051.3065 1627.7431,1050.8499 1629.3247,1048.7957 1631.0326,1048.9074 1632.1918,1050.1849 1633.7731,1050.5208 1635.1304,1049.4377 1637.3599,1050.6458 1637.4901,1052.3437 1639.1902,1052.5351 1641.3938,1051.7206 1642.9907,1049.6062 1644.6074,1049.1153 1646.7024,1045.7724 1646.0509,1043.4251 1642.2321,1037.2494 1639.7933,1032.555 1636.2032,1033.1219 1633.9212,1031.7213 1632.321,1034.9407 1630.2164,1036.6835 1628.6134,1037.0901 1624.9245,1035.0025 1625.2924,1039.4789 1624.6954,1042.099 z">
      <title id="t284">Dixième circonscription du Nord</title>
      <desc id="d284">Cantons de : Tourcoing Nord, Tourcoing Nord-Est</desc>
    </path><path class="vide" d="M 1600.8647,1075.1787 1600.0834,1076.8037 1599.0209,1077.6787 1598.2084,1077.8975 1596.3334,1076.835 1594.8022,1077.5225 1594.3334,1078.2412 1592.6459,1077.7725 1592.1772,1078.5225 1589.9272,1079.9912 1588.9584,1080.9287 1587.7084,1080.585 1586.2397,1081.585 1586.0522,1081.96 1586.5522,1083.1475 1585.9897,1083.6475 1586.8959,1084.585 1587.3959,1085.7412 1588.5209,1086.3037 1589.8022,1088.5225 1588.7397,1090.1475 1587.9272,1090.335 1587.2709,1091.1475 1588.8647,1093.3037 1589.9584,1092.8662 1591.5834,1094.0537 1593.7709,1096.2412 1594.3647,1095.7725 1594.8334,1096.2412 1595.4897,1097.46 1595.7709,1098.3662 1595.4272,1098.8662 1595.3959,1099.1787 1594.9584,1100.2725 1594.4897,1100.3662 1593.8022,1099.8037 1593.1459,1098.1162 1592.4584,1097.6475 1591.2084,1097.9287 1591.0209,1098.6475 1592.3022,1100.835 1593.7084,1102.1162 1594.4584,1102.21 1595.5209,1100.96 1595.9897,1100.9912 1596.6459,1101.46 1596.8959,1103.0537 1597.4272,1103.6162 1598.9272,1103.8037 1598.7084,1102.6162 1598.8647,1102.1787 1599.7397,1102.0537 1601.1147,1099.8037 1602.6772,1101.1162 1603.0522,1100.9287 1606.0522,1100.8037 1606.6459,1099.835 1606.3334,1099.5225 1606.6147,1098.6475 1608.0209,1097.5225 1608.4897,1097.46 1608.6772,1097.8662 1608.9584,1096.46 1608.8647,1096.4287 1609.0209,1095.1162 1610.1147,1093.6787 1610.4272,1093.4287 1612.1772,1094.1787 1611.9272,1092.1475 1612.0834,1091.7412 1613.5834,1090.8975 1612.8959,1088.8662 1613.3647,1088.7725 1613.4272,1087.835 1612.4272,1086.335 1609.2709,1085.96 1607.6772,1084.335 1608.2709,1083.1162 1608.0209,1082.71 1607.3334,1082.2725 1607.0209,1081.085 1605.0834,1077.96 1603.8334,1075.585 1602.0209,1075.8975 z M 1607.1459,1095.9912 1608.0834,1096.4287 1607.8334,1097.2412 1607.3959,1097.2412 1606.7084,1096.6787 z" id="059-00"></path><path class="circo" id="059-03" d="M 1670.0812,1163.8337 1669.8176,1163.5705 1669.1958,1164.5517 1665.7079,1167.3811 1665.2635,1166.4489 1666.0363,1165.5885 1665.1147,1165.6199 1663.9402,1164.8783 1664.2707,1163.6328 1663.6445,1162.9984 1662.4592,1162.6523 1662.4812,1161.3672 1661.7657,1161.7349 1660.527,1164.0171 1660.278,1163.9764 1658.444,1162.9527 1657.9304,1161.7956 1659.4844,1160.7237 1660.3667,1159.6091 1661.2388,1159.2833 1661.1165,1158.4704 1661.8705,1158.5296 1662.4034,1159.056 1663.7323,1160.0224 1665.3925,1160.0059 1665.6858,1159.7006 1665.6861,1159.6708 1665.9216,1158.9061 1666.7213,1158.9221 1666.8881,1158.5569 1666.6981,1158.2222 1667.5217,1156.9705 1668.2836,1156.6717 1668.9976,1155.2695 1668.9504,1154.935 1670.5733,1155.3583 1670.6541,1155.7706 1672.2001,1155.454 1672.8061,1155.1907 1673.0494,1154.5378 1674.3942,1154.6629 1674.973,1155.3629 1675.0343,1153.6774 1675.8168,1152.1748 1675.2694,1151.3256 1674.6061,1150.7936 1674.0055,1149.2229 1673.0216,1148.4028 1672.6521,1148.5451 1669.9799,1146.1985 1670.2158,1145.8849 1668.9264,1145.2488 1668.019,1145.2479 1667.3451,1145.8672 1666.3762,1144.8675 1665.1609,1144.7046 1664.5425,1145.283 1662.8598,1145.0594 1661.8749,1145.7499 1661.4656,1145.372 1661.1972,1145.6414 1660.2966,1146.6075 1659.0007,1146.6623 1657.3311,1146.937 1655.3383,1145.1695 1655.3023,1145.1979 1655.1627,1145.3507 1653.284,1144.2749 1652.8955,1143.5212 1653.0742,1142.7298 1652.9685,1142.4409 1652.0949,1141.2931 1652.0651,1141.2928 1651.7296,1140.7056 1652.2691,1140.0807 1652.0629,1138.8945 1653.101,1139.688 1653.5409,1139.5438 1653.3769,1137.551 1653.7758,1136.8241 1653.8226,1135.9027 1654.4787,1134.7274 1656.2451,1134.7264 1656.409,1134.3058 1657.7321,1134.034 1659.0524,1134.2889 1659.8298,1133.8555 1660.5505,1134.2946 1660.3342,1135.1523 1661.1955,1135.0106 1661.4724,1134.1931 1662.756,1133.9566 1664.236,1134.7513 1665.3533,1135.9761 1666.6328,1135.872 1666.8978,1136.6976 1666.6584,1137.5259 1667.9156,1137.4731 1669.5265,1136.8439 1673.0971,1134.7267 1673.5505,1134.8101 1673.5691,1135.7264 1673.9724,1134.9373 1675.2275,1135.4755 1675.767,1134.7767 1677.5075,1134.2929 1678.4874,1133.4193 1679.5407,1135.4162 1680.7783,1135.9802 1682.8969,1138.3965 1683.0473,1139.7719 1683.0726,1139.8416 1684.7875,1139.5128 1685.5612,1140.6099 1686.4043,1140.8263 1686.9735,1142.5297 1686.8848,1144.7514 1687.7162,1144.5831 1688.1044,1146.2413 1687.8151,1146.5703 1690.2548,1146.8088 1690.524,1145.5089 1689.269,1144.1923 1689.982,1143.0035 1690.8498,1143.045 1691.6079,1144.2186 1692.0276,1144.4244 1693.8516,1144.7852 1695.1149,1147.2059 1693.7311,1149.0314 1693.2643,1149.0469 1691.9313,1150.1509 1690.4913,1152.4167 1689.1676,1152.6393 1689.9884,1154.6612 1689.6249,1155.3725 1689.6534,1156.2718 1689.0977,1157.5286 1689.524,1158.784 1689.3671,1159.6814 1688.2979,1160.5655 1687.1324,1163.0576 1688.766,1163.8481 1690.209,1163.0391 1692.94,1163.1003 1693.6316,1165.6569 1693.1449,1166.4352 1693.7381,1167.0859 1693.8009,1167.9533 1695.6849,1170.3791 1695.9054,1171.6817 1695.4103,1172.4044 1693.431,1173.3954 1692.5468,1174.3857 1690.8844,1174.7056 1690.0104,1174.6368 1688.0203,1178.0455 1687.855,1178.9165 1688.8562,1180.3913 1690.0303,1180.9502 1690.1484,1181.3807 1689.6281,1182.6155 1688.3199,1183.7328 1685.2635,1184.6831 1683.5215,1184.8036 1683.138,1183.5755 1681.028,1182.8605 1679.6916,1182.813 1678.9891,1183.2954 1678.1765,1182.76 1677.3131,1182.769 1676.831,1181.5597 1674.7117,1181.7741 1674.6558,1180.4537 1675.9387,1177.1617 1675.4551,1175.4546 1674.8401,1175.0462 1675.2858,1173.4334 1677.5178,1172.2321 1678.4007,1172.1924 1679.6737,1172.253 1682.0703,1171.4191 1683.1145,1170.1807 1680.4331,1169.8993 1680.4498,1168.5525 1681.0308,1167.3416 1680.431,1166.7407 1679.6787,1167.176 1678.8313,1166.9887 1677.745,1167.7364 1677.3081,1167.6581 1676.8725,1166.9051 1675.6678,1169.8281 1674.4286,1171.3128 1672.5615,1169.8242 1673.1923,1169.1763 1673.3245,1168.2615 1674.4234,1167.4015 1674.8374,1166.5663 1674.9024,1165.6337 1674.25,1165.1005 1673.4021,1165.3008 1672.1431,1164.8415 1671.7163,1164.0909 1671.2483,1163.859 1671.1022,1164.4695 1670.1114,1164.1699 1670.0812,1163.8337 z">
      <title id="t277">Troisième circonscription du Nord</title>
      <desc id="d277">Cantons de : Avesnes-sur-Helpe Nord, Bavay, Maubeuge Nord, Maubeuge Sud, Solre-le-Château, Trélon</desc>
    </path><path class="circo" id="059-05" d="M 1573.4122,1103.3478 1573.6663,1102.9158 1575.0578,1100.046 1576.7701,1098.5609 1577.0083,1098.3982 1577.8492,1097.3839 1579.6098,1097.395 1581.1187,1100.6602 1582.2369,1099.6502 1582.6492,1100.4321 1583.8305,1100.9464 1584.604,1102.4801 1585.5115,1101.5769 1585.3232,1101.2958 1585.9354,1101.0933 1588.8347,1100.4065 1588.7217,1099.6528 1589.1387,1099.0191 1589.37,1098.6524 1591.0343,1098.6557 1592.2894,1100.828 1593.7177,1102.118 1594.4572,1102.1999 1595.5114,1100.9722 1595.9848,1100.9761 1596.6365,1101.4646 1596.9072,1103.0559 1597.4304,1103.6138 1598.9315,1103.7932 1598.7123,1102.6047 1598.8722,1102.1794 1599.7436,1102.0687 1601.1119,1099.7881 1602.6886,1101.1139 1603.0666,1100.9187 1602.6519,1102.9694 1600.6701,1104.5906 1599.4274,1104.9578 1599.4978,1105.1273 1597.8584,1105.8689 1597.1987,1106.918 1596.7062,1110.3066 1595.5353,1110.6527 1594.6824,1112.0191 1592.5658,1110.1366 1591.9828,1110.7246 1591.2347,1110.6465 1591.3736,1111.3703 1592.1836,1112.4514 1592.1835,1113.8144 1592.4885,1114.1492 1592.0505,1115.4241 1590.8508,1114.9035 1588.3415,1112.7496 1588.2017,1113.0941 1587.1486,1112.8666 1585.1246,1113.4141 1583.7032,1114.4797 1583.2517,1113.9956 1582.9805,1114.3222 1582.1584,1114.1493 1581.7411,1113.4109 1581.3175,1113.4212 1581.7399,1110.0485 1581.733,1109.4232 1581.3538,1109.6482 1579.6159,1110.478 1578.7747,1110.6343 1576.4464,1111.034 1575.5623,1110.6976 1574.6614,1110.8606 1574.2886,1110.6382 1574.4459,1109.4195 1573.8709,1107.8784 1574.6629,1107.6134 1575.4598,1107.8647 1575.6199,1105.6355 1575.0408,1103.9109 1573.4122,1103.3478 z">
      <title id="t279">Cinquième circonscription du Nord</title>
      <desc id="d279">Cantons de : La Bassée, Haubourdin (moins la commune de Loos), Seclin Nord, Seclin Sud.</desc>
    </path><path class="circo" id="059-06" d="M 1610.4215,1093.4187 1610.109,1093.7 1609.0153,1095.1062 1608.859,1096.45 1608.9528,1096.45 1608.6715,1097.8562 1608.484,1097.45 1608.0465,1097.5125 1606.609,1098.6687 1606.3278,1099.5125 1606.6715,1099.825 1606.0465,1100.825 1603.0778,1100.9187 1602.6403,1102.9812 1600.6715,1104.575 1599.4215,1104.95 1599.484,1105.1375 1597.859,1105.8562 1597.2028,1106.9187 1596.7028,1110.2937 1595.5465,1110.6375 1594.6715,1112.0125 1592.5778,1110.1375 1591.984,1110.7312 1591.234,1110.6375 1591.359,1111.3562 1592.1715,1112.45 1592.1715,1113.825 1592.484,1114.1375 1592.0465,1115.4187 1592.2653,1115.7625 1593.4528,1116.95 1592.8278,1118.075 1592.734,1118.7 1592.0465,1120.3562 1592.7653,1120.8562 1592.734,1122.2 1593.8903,1121.825 1594.609,1122.1687 1594.8903,1121.8562 1595.2653,1121.075 1596.3278,1120.325 1596.984,1119.9812 1597.109,1121.5437 1598.2965,1121.9812 1599.109,1121.1375 1600.2653,1120.825 1601.5153,1121.2312 1601.9215,1122.0125 1602.7653,1122.1375 1602.6715,1123.0125 1603.5153,1123.2312 1603.7965,1122.9187 1604.3903,1123.0125 1606.609,1122.3562 1607.8903,1122.9187 1608.6715,1124.075 1609.5778,1124.325 1610.4528,1123.325 1610.234,1122.075 1610.6715,1120.825 1612.1403,1121.075 1612.7965,1121.6062 1613.2028,1122.7937 1616.6091,1122.8875 1617.4215,1123.2 1617.8278,1123.1062 1617.7341,1121.7937 1618.5465,1121.825 1617.7341,1120.2625 1618.3903,1120.7 1619.5465,1120.575 1619.6403,1120.325 1621.2965,1119.7312 1621.8591,1119.0437 1621.8903,1118.1687 1621.5153,1117.5125 1621.1091,1117.6687 1620.1403,1116.7 1619.4528,1114.5437 1619.7965,1113.3875 1619.2965,1113.3562 1618.6091,1112.1375 1615.7028,1110.7625 1615.1091,1109.1375 1615.2965,1107.3875 1614.7965,1106.6375 1615.5153,1106.1687 1614.9841,1105.5125 1615.2965,1104.2625 1614.8278,1103.5437 1614.9841,1101.8562 1614.3591,1100.3562 1614.2341,1099.4812 1613.1091,1098.1375 1613.3278,1097.2937 1612.6403,1096.2312 1612.1091,1095.6062 1612.4841,1094.8562 1612.1715,1094.2 1610.4215,1093.4187 z M 1607.1403,1095.9812 1606.7028,1096.7 1607.3903,1097.2312 1607.8278,1097.2625 1608.0778,1096.4187 1607.1403,1095.9812 z">
      <title id="t280">Sixième circonscription du Nord</title>
      <desc id="d280">Cantons de : Cysoing, Orchies, Pont-à-Marcq. , Communes de : Anstaing, Baisieux, Chéreng, Forest-sur-Marque, Gruson, Sailly-lez-Lannoy, Tressin, Willems.</desc>
    </path><path class="circo" id="059-11" d="M 1577.2753,1090.7354 1575.7922,1089.9899 1575.1777,1091.5971 1575.1218,1091.7826 1576.1493,1092.8682 1577.35,1093.1662 1578.2086,1094.0754 1580.2687,1096.9141 1579.6098,1097.395 1581.1187,1100.6602 1582.2369,1099.6502 1582.6492,1100.4321 1583.8305,1100.9464 1584.604,1102.4801 1585.5115,1101.5769 1585.3232,1101.2958 1585.9354,1101.0933 1588.8347,1100.4065 1588.7217,1099.6528 1589.1387,1099.0191 1589.37,1098.6524 1591.0343,1098.6557 1591.2069,1097.9403 1592.4578,1097.6529 1593.146,1098.1137 1593.7905,1099.809 1594.4987,1100.3732 1594.9448,1100.288 1595.4065,1099.1709 1595.4224,1098.8648 1595.7751,1098.3549 1595.5029,1097.4518 1594.8272,1096.2292 1594.3589,1095.7879 1593.7738,1096.2366 1591.574,1094.065 1589.9551,1092.875 1588.8524,1093.2942 1587.2827,1091.1358 1587.9329,1090.3195 1588.7408,1090.1518 1589.8005,1088.5091 1588.5195,1086.3021 1587.3912,1085.7486 1586.9086,1084.5718 1586.0007,1083.6387 1585.4148,1084.279 1585.3972,1086.0982 1584.7389,1087.2972 1583.874,1087.2054 1583.6856,1088.4302 1582.8776,1088.5745 1581.5038,1086.8821 1580.3056,1087.2826 1579.1183,1089.5483 1577.2753,1090.7354 z">
      <title id="t285">Onzième circonscription du Nord</title>
      <desc id="d285">Cantons de : Armentières, Lille Sud-Ouest, Lomme</desc>
    </path><path class="circo" id="059-12" d="M 1669.1958,1164.5517 1665.7079,1167.3811 1665.2635,1166.4489 1666.0363,1165.5885 1665.1147,1165.6199 1663.9402,1164.8783 1664.2707,1163.6328 1663.6445,1162.9984 1662.4592,1162.6523 1662.4812,1161.3672 1661.7657,1161.7349 1660.527,1164.0171 1660.278,1163.9764 1658.444,1162.9527 1657.9304,1161.7956 1659.4844,1160.7237 1660.3667,1159.6091 1661.2388,1159.2833 1661.1165,1158.4704 1661.8705,1158.5296 1662.4034,1159.056 1663.7323,1160.0224 1665.3925,1160.0059 1665.6858,1159.7006 1665.6861,1159.6708 1665.9216,1158.9061 1666.7213,1158.9221 1666.8881,1158.5569 1666.6981,1158.2222 1667.5217,1156.9705 1668.2836,1156.6717 1668.9976,1155.2695 1668.9504,1154.935 1670.5733,1155.3583 1670.6541,1155.7706 1672.2001,1155.454 1672.8061,1155.1907 1673.0494,1154.5378 1674.3942,1154.6629 1674.973,1155.3629 1675.0343,1153.6774 1675.8168,1152.1748 1675.2694,1151.3256 1674.6061,1150.7936 1674.0055,1149.2229 1673.0216,1148.4028 1672.6521,1148.5451 1669.9799,1146.1985 1670.2158,1145.8849 1668.9264,1145.2488 1668.019,1145.2479 1667.3451,1145.8672 1666.3762,1144.8675 1665.1609,1144.7046 1664.5425,1145.283 1662.8598,1145.0594 1661.8749,1145.7499 1661.4656,1145.372 1661.1972,1145.6414 1660.2966,1146.6075 1659.0007,1146.6623 1657.3311,1146.937 1655.3383,1145.1695 1655.3023,1145.1979 1655.1627,1145.3507 1653.284,1144.2749 1652.8955,1143.5212 1653.0742,1142.7298 1652.9685,1142.4409 1652.0949,1141.2931 1652.0651,1141.2928 1651.7296,1140.7056 1651.5301,1140.4815 1650.0644,1138.7093 1649.5615,1137.4593 1648.6053,1136.4779 1647.0764,1137.2373 1646.7288,1138.0378 1645.9406,1138.3588 1645.9531,1137.9848 1644.8963,1137.6176 1644.4525,1137.6536 1643.8994,1138.8684 1642.9333,1139.7321 1642.4774,1139.4968 1641.4021,1140.6514 1638.6181,1141.2095 1638.1885,1141.8098 1638.5314,1142.5219 1637.8556,1143.5981 1636.6722,1144.0618 1636.0009,1143.9904 1634.8719,1144.1561 1633.3203,1143.9312 1632.9971,1144.1812 1632.6595,1144.4586 1633.0681,1145.2314 1632.1471,1147.6553 1632.0687,1148.2289 1631.7978,1148.3442 1630.6357,1146.9824 1628.4138,1146.614 1626.0696,1148.9362 1624.9342,1148.6857 1622.7387,1151.1464 1622.1527,1152.0824 1621.744,1151.9709 1620.7191,1152.6558 1619.1001,1152.3756 1620.0658,1155.4935 1620.5247,1156.3348 1619.13,1158.4005 1618.7068,1158.4046 1618.7468,1159.3963 1617.1543,1159.7391 1616.9019,1160.503 1617.4581,1161.0936 1617.3278,1161.8948 1616.9343,1161.6753 1615.8528,1162.4718 1616.5734,1162.8924 1616.1868,1164.0271 1616.5374,1165.2107 1618.1885,1165.9113 1618.8178,1165.278 1619.2627,1165.3704 1619.705,1165.2103 1620.286,1165.3914 1621.6178,1165.7187 1624.0824,1165.4732 1625.0817,1163.6397 1626.0671,1162.5443 1626.6302,1163.2036 1627.4355,1162.9553 1629.0858,1163.4991 1628.9784,1161.8883 1630.862,1163.5619 1630.9079,1163.2334 1631.5557,1163.3396 1632.2461,1163.2736 1632.6093,1161.9609 1634.9929,1160.5596 1637.7512,1162.184 1637.9361,1162.9333 1638.6115,1163.4847 1638.1825,1164.2116 1638.7028,1164.8558 1639.0161,1164.8843 1639.6393,1164.2386 1641.3016,1163.6161 1642.1875,1163.4799 1642.9133,1163.9094 1643.3645,1163.6128 1646.0492,1165.1261 1647.2414,1166.2539 1648.0768,1166.4347 1648.7227,1167.5328 1649.1539,1167.4926 1649.5126,1168.2847 1650.5309,1169.0778 1650.0654,1170.2149 1651.7234,1172.1258 1652.1337,1171.7571 1654.7319,1173.8363 1657.2376,1174.4312 1657.4671,1174.8401 1659.2439,1174.6498 1660.6885,1175.7596 1662.4932,1174.5992 1663.4338,1175.5627 1665.1888,1175.9491 1666.3405,1176.6431 1666.4256,1177.0863 1666.0008,1177.2359 1666.7126,1177.8144 1666.7632,1179.6426 1669.7875,1177.4516 1671.9497,1177.0161 1672.0794,1177.3684 1674.8401,1175.0462 1675.2858,1173.4334 1677.5178,1172.2321 1678.4007,1172.1924 1679.6737,1172.253 1682.0703,1171.4191 1683.1145,1170.1807 1680.4331,1169.8993 1680.4498,1168.5525 1681.0308,1167.3416 1680.431,1166.7407 1679.6787,1167.176 1678.8313,1166.9887 1677.745,1167.7364 1677.3081,1167.6581 1676.8725,1166.9051 1675.6678,1169.8281 1674.4286,1171.3128 1672.5615,1169.8242 1673.1923,1169.1763 1673.3245,1168.2615 1674.4234,1167.4015 1674.8374,1166.5663 1674.9024,1165.6337 1674.25,1165.1005 1673.4021,1165.3008 1672.1431,1164.8415 1671.7163,1164.0909 1671.4528,1163.9781 1671.2483,1163.859 1671.1022,1164.4695 1670.643,1164.3398 1670.1114,1164.1699 1670.0812,1163.8337 1669.8176,1163.5705 1669.7457,1163.6791 1669.1958,1164.5517 z">
      <title id="t286">Douzième circonscription du Nord</title>
      <desc id="d286">Cantons de : Avesnes-sur-Helpe Sud, Berlaimont, Carnières, Hautmont, Landrecies, Le Quesnoy Est, Le Quesnoy Ouest, Solesmes</desc>
    </path><path class="circo" id="059-13" d="M 1533.5939,1047.3268 1533.3006,1047.6419 1533.3678,1047.7248 1530.8301,1049.9626 1530.4584,1050.5279 1526.7878,1044.4503 1526.7565,1042.0698 1528.7988,1041.2768 1532.0454,1040.3886 1536.1246,1039.141 1537.5858,1040.3237 1538.9709,1040.6596 1539.989,1040.3901 1540.8605,1042.4856 1542.9707,1045.3792 1544.557,1049.1127 1543.371,1050.8504 1542.3291,1050.7114 1539.5959,1047.5477 1538.282,1049.7796 1537.8248,1049.8388 1536.4988,1048.5355 1536.158,1047.1948 1533.5939,1047.3268 z">
      <title id="t287">Treizième circonscription du Nord</title>
      <desc id="d287">Cantons de : Coudekerque-Branche, Dunkerque Ouest, Grande-Synthe</desc>
    </path><path class="circo" id="059-14" d="M 1533.3006,1047.6419 1533.3678,1047.7248 1530.8301,1049.9626 1530.4584,1050.5279 1526.7878,1044.4503 1526.7565,1042.0698 1524.0752,1042.8757 1522.7949,1041.8193 1522.01,1041.8118 1520.8275,1041.2577 1521.8704,1042.0022 1522.6396,1042.0101 1522.8279,1043.5176 1521.2667,1044.1786 1522.4648,1044.8886 1521.6374,1045.1807 1521.6652,1046.3595 1520.8646,1045.4856 1521.2156,1045.1839 1520.6081,1044.2013 1519.4516,1044.5748 1519.1053,1042.9433 1518.4442,1044.1929 1516.8573,1045.3268 1515.7595,1046.6902 1516.5794,1048.3735 1515.1504,1046.5832 1513.4427,1046.1497 1512.0946,1046.4042 1513.8962,1046.8059 1515.6954,1048.9417 1515.6271,1049.4209 1516.6532,1050.1252 1516.9756,1051.3156 1517.8699,1052.2658 1518.3938,1054.3736 1519.2012,1056.3844 1520.411,1059.2046 1522.3848,1064.1915 1522.5182,1064.6324 1522.6865,1066.0045 1523.6467,1067.5495 1523.5644,1068.461 1524.0298,1069.1146 1524.3052,1071.6111 1524.4809,1072.82 1525.61,1073.1867 1526.9739,1074.7072 1528.0003,1075.8484 1529.6028,1076.4934 1530.7871,1076.012 1530.8687,1077.3262 1532.9115,1075.9593 1533.2913,1075.2225 1533.2852,1074.238 1533.2055,1071.8321 1534.2491,1071.9583 1534.952,1069.7731 1534.5377,1068.9217 1537.6417,1066.8319 1538.9618,1067.2538 1539.6913,1066.7275 1542.3477,1065.7012 1543.4833,1068.307 1544.6318,1067.695 1544.881,1067.157 1546.7698,1069.87 1547.8148,1069.438 1548.8497,1067.0305 1550.5028,1065.6682 1551.4744,1067.7644 1552.3315,1066.6456 1552.3225,1065.7057 1553.1076,1064.5557 1554.8243,1061.1026 1557.7413,1059.9192 1557.9058,1059.0634 1556.6685,1058.6259 1556.4914,1058.2011 1558.1059,1056.5924 1559.898,1054.5982 1559.8656,1054.1227 1557.8909,1048.7808 1555.4947,1047.2802 1555.0007,1045.5139 1555.2585,1045.1319 1554.4578,1041.0607 1553.8737,1037.8135 1552.7528,1035.1964 1548.3391,1037.3868 1546.5689,1038.1361 1546.0291,1038.3012 1543.0881,1039.5056 1539.989,1040.3901 1540.8605,1042.4856 1542.9707,1045.3792 1544.557,1049.1127 1543.371,1050.8504 1542.3291,1050.7114 1539.5959,1047.5477 1538.282,1049.7796 1537.8248,1049.8388 1536.4988,1048.5355 1536.158,1047.1948 1533.5939,1047.3268 1533.3006,1047.6419 z">
      <title id="t288">Quatorzième circonscription du Nord</title>
      <desc id="d288">Cantons de : Bergues, Bourbourg, Dunkerque Est, Gravelines, Hondschoote, Wormhout</desc>
    </path><path class="circo" id="059-15" d="M 1570.4568,1077.6536 1569.1179,1076.8487 1567.9668,1074.8138 1567.8436,1072.9607 1567.5258,1072.6178 1564.3229,1072.3657 1563.3053,1071.409 1562.6375,1072.0479 1561.9363,1072.4566 1560.3139,1072.5231 1559.4504,1069.387 1558.7849,1068.7369 1558.5841,1067.8248 1557.2649,1067.5355 1557.2698,1067.068 1558.311,1065.6796 1557.9616,1064.4682 1558.0965,1061.2752 1557.7413,1059.9192 1554.8243,1061.1026 1553.1076,1064.5557 1552.3225,1065.7057 1552.3315,1066.6456 1551.4744,1067.7644 1550.5028,1065.6682 1548.8497,1067.0305 1547.8148,1069.438 1546.7698,1069.87 1544.881,1067.157 1544.6318,1067.695 1543.4833,1068.307 1542.3477,1065.7012 1539.6913,1066.7275 1538.9618,1067.2538 1537.6417,1066.8319 1534.5377,1068.9217 1534.952,1069.7731 1534.2491,1071.9583 1533.2055,1071.8321 1533.2852,1074.238 1533.2913,1075.2225 1532.9115,1075.9593 1533.4596,1076.6 1535.2875,1076.8063 1536.968,1077.5476 1537.4263,1077.5367 1537.7212,1076.6695 1538.1568,1076.5212 1539.196,1077.2608 1540.708,1078.0526 1540.6494,1078.4233 1541.3155,1078.7113 1538.8202,1080.2894 1537.2488,1080.7492 1535.4263,1082.2094 1535.2127,1083.5562 1535.8961,1083.9409 1536.5698,1085.5088 1537.4815,1086.3748 1537.4816,1086.399 1539.164,1087.8646 1537.2394,1089.7341 1537.9066,1090.7472 1538.4104,1091.4728 1540.2201,1090.285 1540.6529,1090.3684 1541.5733,1091.7747 1541.7113,1092.2575 1542.1701,1092.2998 1542.9059,1093.4689 1544.6598,1093.9184 1546.5606,1095.9085 1548.1102,1096.8016 1549.3903,1096.4795 1550.2727,1096.2215 1550.9044,1095.5393 1551.7966,1095.4979 1552.0997,1096.8456 1552.3884,1097.2106 1552.7784,1097.4609 1554.0889,1097.3958 1554.3058,1097.807 1554.5997,1096.7303 1555.4801,1096.7219 1556.0647,1096.1331 1556.4576,1096.0301 1556.7111,1096.7996 1558.4572,1096.5202 1558.6858,1097.403 1559.9342,1098.6752 1563.4357,1097.568 1563.843,1096.2711 1564.3069,1096.2163 1565.6805,1097.1754 1567.4218,1097.146 1568.0562,1099.2251 1569.8511,1100.3768 1570.2197,1100.1569 1570.1186,1099.2797 1570.9542,1096.8674 1571.3252,1096.6125 1573.0299,1097.1621 1573.6988,1096.5698 1570.8708,1094.2887 1570.9005,1094.1923 1571.7644,1092.5533 1574.0497,1092.6422 1575.1218,1091.7826 1575.1777,1091.5971 1575.7922,1089.9899 1577.2753,1090.7354 1579.1183,1089.5483 1580.3056,1087.2826 1578.4692,1084.7527 1575.4692,1085.3987 1573.5949,1083.9782 1572.8135,1081.2699 1570.8984,1079.2767 1571.0219,1078.3719 1570.4568,1077.6536 z">
      <title id="t289">Quinzième circonscription du Nord</title>
      <desc id="d289">Cantons de : Bailleul Nord-Est, Bailleul Sud-Ouest, Cassel, Hazebrouck Nord, Hazebrouck Sud, Merville, Steenvoorde</desc>
    </path><path class="circo" id="059-16" d="M 1603.409,1126.4454 1604.131,1126.0637 1604.2528,1124.2184 1603.8049,1122.9046 1604.4032,1123.0147 1606.6018,1122.3533 1607.8981,1122.9134 1608.6609,1124.0869 1609.5645,1124.3194 1610.4656,1123.3371 1610.2313,1122.0822 1610.6687,1120.83 1612.1499,1121.0633 1612.7983,1121.6203 1613.1948,1122.8064 1616.6187,1122.8831 1617.4131,1123.2097 1617.8197,1123.0927 1617.7185,1121.7959 1618.562,1121.8401 1618.7214,1122.8855 1619.1417,1124.4013 1620.2991,1124.417 1621.1814,1125.0545 1621.2769,1125.6071 1620.5915,1125.8495 1621.1302,1126.3595 1620.8825,1127.0229 1620.8835,1127.0698 1621.3657,1128.7204 1621.2864,1130.9866 1620.8247,1131.7791 1620.9869,1133.1318 1620.4946,1134.4225 1620.4344,1134.8241 1619.266,1134.7546 1618.9117,1135.3547 1617.7876,1135.2293 1616.7705,1135.1955 1616.3943,1135.6509 1615.2175,1136.5983 1614.5511,1136.8996 1614.6426,1137.695 1613.8548,1137.972 1613.8248,1138.4106 1613.108,1138.897 1612.2704,1139.1502 1611.9556,1138.8408 1611.2256,1139.4183 1609.5878,1139.067 1609.4495,1138.2133 1609.0769,1137.9863 1608.4408,1138.2846 1606.9236,1137.6474 1605.8142,1137.4381 1605.1339,1137.818 1605.0951,1136.9429 1604.0222,1136.2484 1602.881,1136.3254 1602.3338,1137.7136 1602.0417,1137.7706 1601.8265,1137.3937 1600.564,1137.3476 1600.307,1136.9982 1599.6252,1135.8841 1599.3503,1135.4449 1599.4421,1134.4811 1599.1101,1133.7644 1599.7661,1131.9265 1599.5511,1130.099 1600.6273,1128.5996 1601.8147,1128.0722 1602.1258,1128.4138 1602.0587,1129.3092 1603.5618,1128.4558 1604.0417,1127.8007 1603.409,1126.4454 z">
      <title id="t290">Seizième circonscription du Nord</title>
      <desc id="d290">Canton de Marchiennes, Communes de : Anhiers, Aniche, Auberchicourt, Dechy, Ecaillon, Flines-lez-Râches, Guesnain, Lallaing, Lewarde, Loffre, Masny, Montigny-en-Ostrevent, Sin-le-Noble, Waziers</desc>
    </path><path class="circo" id="059-17" d="M 1600.484,1145.3093 1597.927,1144.5385 1596.6251,1144.8764 1596.5953,1144.8407 1595.9859,1144.4103 1595.2714,1144.2988 1594.4349,1145.1975 1594.2609,1145.5473 1592.926,1145.8645 1592.382,1145.3879 1592.6396,1143.2862 1594.4134,1142.785 1595.1075,1143.3754 1596.0246,1143.4836 1596.0337,1142.4909 1595.3884,1141.947 1596.3065,1140.8258 1596.8898,1140.1546 1597.7835,1140.165 1598.5075,1139.6387 1598.0099,1138.9809 1596.4725,1137.2786 1596.5361,1136.7646 1595.3102,1135.0287 1594.6399,1135.2675 1592.4853,1133.2169 1592.0987,1133.3305 1591.8912,1132.9847 1592.1381,1132.6869 1591.5787,1131.688 1590.8257,1130.2377 1590.5271,1128.4807 1589.6852,1127.4225 1590.638,1127.5804 1590.9556,1127.815 1592.5842,1127.3434 1593.8502,1126.2674 1594.6546,1124.7146 1597.1655,1124.3857 1597.6928,1122.6516 1598.2933,1121.9729 1599.1199,1121.1278 1600.2676,1120.8285 1601.5135,1121.2329 1601.9102,1122.0147 1602.7798,1122.1456 1602.6744,1123.0069 1603.5115,1123.2215 1603.8049,1122.9046 1604.2528,1124.2184 1604.131,1126.0637 1603.409,1126.4454 1604.0417,1127.8007 1603.5618,1128.4558 1602.0587,1129.3092 1602.1258,1128.4138 1601.8147,1128.0722 1600.6273,1128.5996 1599.5511,1130.099 1599.7661,1131.9265 1599.1101,1133.7644 1599.4421,1134.4811 1599.3503,1135.4449 1599.6252,1135.8841 1600.307,1136.9982 1600.564,1137.3476 1601.8265,1137.3937 1602.0417,1137.7706 1602.3338,1137.7136 1602.881,1136.3254 1604.0222,1136.2484 1605.0951,1136.9429 1605.1339,1137.818 1605.8142,1137.4381 1606.9236,1137.6474 1608.4408,1138.2846 1609.0769,1137.9863 1609.4495,1138.2133 1609.5878,1139.067 1611.2256,1139.4183 1610.8987,1140.7844 1612.3543,1141.2978 1612.9642,1142.4955 1612.7788,1143.8268 1612.0748,1144.2688 1610.91,1144.2497 1610.8291,1145.033 1611.312,1145.6528 1611.0456,1145.9457 1609.2222,1146.5949 1607.919,1146.3887 1606.8755,1146.595 1605.1716,1146.7238 1604.0143,1146.1186 1603.0851,1145.7504 1602.6329,1145.6194 1600.484,1145.3093 z">
      <title id="t291">Dix-septième circonscription du Nord</title>
      <desc id="d291">Cantons de : Arleux, Douai Nord (moins les communes de Anhiers, Flines-lez-Raches, Lallaing, Sin-le-Noble, Waziers), Douai Nord-Est, Douai Sud (moins les communes de Aniche, Auberchicourt, Dechy, Ecaillon, Guesnain, Lewarde, Loffre, Masny, Montigny-en-Ostreven), Douai Sud-Ouest.</desc>
    </path><path class="circo" id="059-18" d="M 1613.2965,1145.7 1612.1403,1146.2937 1611.0465,1145.95 1609.234,1146.6062 1607.9215,1146.3875 1606.8903,1146.6062 1605.1715,1146.7312 1604.0153,1146.1062 1603.859,1148.2937 1606.2028,1148.9187 1606.484,1149.7312 1607.234,1149.7937 1606.984,1150.95 1606.4528,1151.5125 1606.5465,1151.8875 1603.484,1151.8562 1602.609,1154.075 1602.484,1154.4812 1603.484,1154.8875 1603.609,1155.6375 1604.6403,1156.8562 1603.8278,1157.2312 1603.0153,1158.825 1601.1715,1158.8562 1600.1403,1159.3562 1599.9215,1159.4812 1601.1715,1161.2937 1602.859,1161.825 1602.859,1162.2937 1599.484,1164.45 1599.2965,1164.825 1600.2028,1166.1687 1600.234,1167.075 1600.6715,1167.0437 1601.0465,1168.7 1600.1715,1170.2 1598.8903,1170.0437 1598.7965,1170.9187 1599.6715,1171.8562 1598.6403,1172.4187 1598.6403,1173.6062 1599.0153,1173.825 1599.484,1174.8875 1600.9528,1175.7312 1601.0465,1176.4812 1601.859,1177.7 1604.0153,1177.575 1603.859,1178.45 1605.5465,1178.1375 1606.0153,1179.325 1608.6403,1178.5437 1610.8278,1176.9187 1611.2341,1177.1687 1612.0778,1176.825 1612.1403,1176.8875 1613.0778,1177.575 1613.3278,1176.7625 1613.7341,1176.8562 1614.3591,1177.0125 1614.9528,1178.075 1614.5778,1178.2312 1615.1715,1178.9187 1616.8903,1178.6062 1617.6403,1178.3562 1619.2028,1178.825 1619.9841,1178.6375 1620.5465,1177.45 1621.2341,1176.9812 1621.1091,1176.575 1621.3591,1176.2 1623.1403,1176.1062 1624.7028,1176.7937 1625.2028,1176.3562 1626.2341,1177.2 1627.0465,1177.1687 1627.7653,1177.6375 1627.7028,1178.0125 1633.0153,1178.4187 1634.4528,1176.5125 1634.5465,1176.2312 1636.3903,1175.7937 1637.3903,1174.0437 1638.6403,1173.7937 1639.6091,1173.9187 1640.5778,1174.7 1641.8591,1175.1062 1643.0778,1176.95 1643.5465,1177.6062 1644.4841,1176.8562 1646.0153,1176.0437 1647.2341,1176.6062 1647.6091,1175.7937 1646.9215,1175.325 1647.2965,1174.5125 1647.7653,1173.825 1648.5778,1173.4812 1651.7341,1172.1375 1650.0778,1170.2 1650.5153,1169.075 1649.5153,1168.2937 1649.1403,1167.4812 1648.7341,1167.5437 1648.0778,1166.45 1647.2341,1166.2625 1646.0465,1165.1375 1643.3591,1163.6062 1642.9215,1163.9187 1642.2028,1163.4812 1641.2965,1163.6062 1639.6403,1164.2312 1639.0153,1164.8875 1638.7028,1164.8562 1638.1715,1164.2 1638.6091,1163.4812 1637.9215,1162.9187 1637.7653,1162.1687 1634.9841,1160.575 1632.6091,1161.95 1632.2341,1163.2625 1631.5465,1163.325 1630.9215,1163.2312 1630.8591,1163.575 1628.9841,1161.8875 1629.0778,1163.5125 1627.4215,1162.95 1626.6403,1163.2 1626.0778,1162.5437 1625.0778,1163.6375 1624.0778,1165.4812 1621.6091,1165.7312 1620.2965,1165.3875 1619.7028,1165.2 1619.2653,1165.3562 1618.8278,1165.2625 1618.2028,1165.9187 1616.5465,1165.2 1616.1715,1164.0125 1616.5778,1162.8875 1615.8591,1162.4812 1616.9215,1161.6687 1617.3278,1161.8875 1617.4528,1161.1062 1616.8903,1160.5125 1617.1403,1159.7312 1618.7341,1159.3875 1618.7028,1158.4187 1619.1403,1158.3875 1620.5153,1156.325 1620.0778,1155.4812 1619.1091,1152.3875 1620.7341,1152.6687 1621.7341,1151.9812 1622.1403,1152.075 1622.7341,1151.1375 1622.1091,1150.5125 1621.7028,1149.2 1621.0153,1148.6687 1620.8278,1147.7937 1619.6715,1147.1062 1618.0465,1147.9812 1617.2341,1147.7937 1617.2653,1147.2937 1616.4841,1147.1375 1615.9215,1147.7312 1615.7341,1147.3562 1615.3591,1147.5125 1614.9841,1147.575 1614.3591,1146.5437 1613.2965,1145.7 z M 1596.6715,1157.8875 1596.4528,1158.7 1594.7653,1159.7625 1594.7028,1160.575 1593.5778,1160.9187 1592.984,1160.575 1592.0153,1161.2312 1591.6715,1161.0437 1590.8903,1162.6375 1591.5465,1163.7 1591.3903,1165.0125 1592.234,1165.9812 1593.4215,1165.5125 1594.484,1163.6375 1595.7965,1163.3875 1597.0465,1163.8875 1597.484,1163.6062 1597.109,1161.3875 1599.484,1159.325 1599.3278,1158.95 1598.984,1158.1687 1596.6715,1157.8875 z">
      <title id="t292">Dix-huitième circonscription du Nord</title>
      <desc id="d292">Cantons de : Cambrai Est, Cambrai Ouest, Le Cateau-Cambrésis, Clary, Marcoing</desc>
    </path><path class="circo" id="059-19" d="M 1622.0944,1150.517 1621.7147,1149.2133 1621.0008,1148.66 1620.8344,1147.7987 1619.6588,1147.1025 1618.0612,1147.9876 1617.2431,1147.7886 1617.2533,1147.304 1616.4896,1147.1448 1615.9125,1147.7346 1615.7484,1147.3568 1615.3669,1147.5118 1614.9727,1147.569 1614.3524,1146.5545 1613.3074,1145.7141 1612.1519,1146.2953 1611.0456,1145.9457 1611.312,1145.6528 1610.8291,1145.033 1610.91,1144.2497 1612.0748,1144.2688 1612.7788,1143.8268 1612.9642,1142.4955 1612.3543,1141.2978 1610.8987,1140.7844 1611.2256,1139.4183 1611.9556,1138.8408 1612.2704,1139.1502 1613.108,1138.897 1613.8248,1138.4106 1613.8548,1137.972 1614.6426,1137.695 1614.5511,1136.8996 1615.2175,1136.5983 1616.3943,1135.6509 1616.7705,1135.1955 1617.7876,1135.2293 1618.9117,1135.3547 1619.266,1134.7546 1620.4344,1134.8241 1620.4946,1134.4225 1620.9869,1133.1318 1620.8247,1131.7791 1621.2864,1130.9866 1621.3657,1128.7204 1620.8835,1127.0698 1621.1054,1127.6478 1622.0886,1128.0449 1621.9446,1128.4764 1622.6217,1128.932 1621.9934,1130.6153 1622.947,1133.6372 1623.0134,1134.9769 1622.6508,1135.2492 1622.7582,1135.741 1623.8273,1134.8827 1623.7859,1134.0621 1626.1071,1131.9672 1627.2015,1133.936 1627.9406,1133.1386 1628.9698,1132.7759 1628.7621,1131.9373 1627.951,1131.6696 1627.8686,1130.7885 1628.1155,1130.6008 1628.218,1130.6324 1629.3915,1131.394 1629.9702,1132.6524 1631.1396,1133.4188 1631.389,1132.8055 1631.8946,1132.8492 1632.1125,1133.713 1633.4074,1134.9433 1632.9287,1135.5956 1633.6807,1136.0548 1634.5242,1135.7911 1634.8718,1136.0648 1635.3232,1135.9721 1637.4429,1136.913 1638.8286,1137.0482 1639.4542,1138.4285 1638.4275,1138.989 1638.1293,1139.7125 1638.6181,1141.2095 1638.1885,1141.8098 1638.5314,1142.5219 1637.8556,1143.5981 1636.6722,1144.0618 1636.0009,1143.9904 1634.8719,1144.1561 1633.3203,1143.9312 1632.9971,1144.1812 1632.6595,1144.4586 1633.0681,1145.2314 1632.1471,1147.6553 1632.0687,1148.2289 1631.7978,1148.3442 1630.6357,1146.9824 1628.4138,1146.614 1626.0696,1148.9362 1624.9342,1148.6857 1622.7387,1151.1464 1622.0944,1150.517 z">
      <title id="t293">Dix-neuvième circonscription du Nord</title>
      <desc id="d293">Cantons de : Bouchain, Denain, Valenciennes Sud (moins la commune de Valenciennes)</desc>
    </path><path class="circo" id="059-20" d="M 1640.1495,1127.0244 1639.3534,1127.1479 1639.3471,1127.1958 1638.8923,1127.1758 1638.3356,1127.8986 1638.0159,1130.1084 1637.6701,1130.4051 1637.3222,1129.79 1636.6,1129.9897 1635.9212,1131.1962 1634.6031,1132.4116 1633.7137,1132.5147 1633.0086,1131.9372 1633.4589,1131.2772 1631.5077,1129.3121 1630.5352,1130.295 1629.697,1129.9263 1629.7597,1128.5621 1628.3554,1129.7212 1628.218,1130.6324 1628.1155,1130.6008 1627.252,1127.1415 1626.701,1127.7074 1625.2263,1126.7981 1623.3888,1128.0258 1622.0886,1128.0449 1621.1054,1127.6478 1620.8835,1127.0698 1620.8825,1127.0229 1621.1302,1126.3595 1620.5915,1125.8495 1621.2769,1125.6071 1621.1814,1125.0545 1620.2991,1124.417 1619.1417,1124.4013 1618.7214,1122.8855 1618.562,1121.8401 1617.7256,1120.2753 1618.3969,1120.6914 1619.546,1120.5691 1619.6533,1120.3359 1621.303,1119.7415 1621.8488,1119.0475 1621.8839,1118.1689 1621.5281,1117.5223 1621.1006,1117.6702 1620.153,1116.6949 1619.454,1114.5451 1619.7926,1113.4021 1621.9651,1113.9635 1623.4094,1115.6615 1624.5029,1114.8896 1625.814,1114.6204 1628.3708,1113.2377 1628.6949,1113.4915 1629.5994,1113.4917 1630.1075,1111.6829 1631.2913,1110.2401 1631.7079,1110.0218 1634.3852,1110.6746 1635.19,1111.1562 1635.3823,1111.5847 1635.3039,1112.0486 1633.7471,1114.3085 1633.6377,1114.766 1633.7503,1115.6975 1634.041,1116.0652 1634.4739,1115.8844 1635.6662,1115.1786 1638.8265,1114.6689 1639.6738,1114.4422 1640.9245,1115.6581 1640.5958,1116.9399 1640.8667,1121.7294 1641.7324,1121.9864 1643.0977,1123.1266 1642.6771,1124.3968 1642.9177,1124.0141 1643.3405,1124.1743 1643.9013,1124.8733 1644.1728,1127.1064 1643.4032,1127.4979 1643.0737,1127.1889 1641.3858,1126.4852 1640.6759,1126.3961 1640.1495,1127.0244 z">
      <title id="t294">Vingtième circonscription du Nord</title>
      <desc id="d294">Cantons de : Anzin (moins la commune de Saint-Saulve), Saint-Amand-les-Eaux-Rive droite, Saint-Amand-les-Eaux-Rive gauche, Communes de : Escautpont, Fresnes-sur-Escaut, Hergnies, Odomez, Vicq, Vieux-Condé</desc>
    </path><path class="circo" id="059-21" d="M 1643.0153,1114.9187 1640.9215,1115.6687 1640.6091,1116.95 1640.8591,1121.7312 1641.7341,1121.9812 1643.1091,1123.1375 1642.6715,1124.3875 1642.9215,1124.0125 1643.3278,1124.1687 1643.8903,1124.8875 1644.1715,1127.1062 1643.3903,1127.5125 1643.0778,1127.2 1641.3903,1126.4812 1640.6715,1126.3875 1640.1403,1127.0125 1639.3591,1127.1375 1639.3591,1127.2 1638.8903,1127.1687 1638.3278,1127.8875 1638.0153,1130.1062 1637.6715,1130.4187 1637.3278,1129.7937 1636.6091,1129.9812 1635.9215,1131.2 1634.6091,1132.4187 1633.7028,1132.5125 1633.0153,1131.95 1633.4528,1131.2625 1631.5153,1129.325 1630.5465,1130.2937 1629.7028,1129.9187 1629.7653,1128.575 1628.3591,1129.7312 1628.2028,1130.6375 1629.3903,1131.3875 1629.9841,1132.6375 1631.1403,1133.4187 1631.3903,1132.7937 1631.8903,1132.8562 1632.1091,1133.7 1633.4215,1134.95 1632.9215,1135.6062 1633.6715,1136.0437 1634.5153,1135.7937 1634.8591,1136.075 1635.3278,1135.9812 1637.4528,1136.9187 1638.8278,1137.0437 1639.4528,1138.4187 1638.4215,1138.9812 1638.1403,1139.7 1638.6091,1141.2 1641.3903,1140.6375 1642.4841,1139.4812 1642.9215,1139.7312 1643.8903,1138.8562 1644.4528,1137.6687 1644.8903,1137.6062 1645.9528,1137.9812 1645.9528,1138.3562 1646.7341,1138.0437 1647.0778,1137.2312 1648.6091,1136.4812 1648.7965,1135.6062 1647.8903,1134.6062 1647.9841,1132.825 1647.2653,1131.7312 1647.8903,1130.4812 1648.5465,1129.2625 1648.5778,1126.5125 1648.2028,1122.95 1647.4841,1121.8562 1647.5153,1120.1375 1646.9215,1119.45 1646.0465,1119.3875 1644.8591,1116.95 1643.0153,1114.9187 z M 1625.2341,1126.7937 1623.3903,1128.0125 1622.0778,1128.0437 1621.9528,1128.4812 1622.6091,1128.9187 1621.9841,1130.6062 1622.9528,1133.6375 1623.0153,1134.9812 1622.6403,1135.2625 1622.7653,1135.7312 1623.8278,1134.8875 1623.7965,1134.075 1626.1091,1131.9812 1627.2028,1133.95 1627.9528,1133.1375 1628.9841,1132.7625 1628.7653,1131.95 1627.9528,1131.6687 1627.8591,1130.7937 1628.1091,1130.6062 1627.2653,1127.1375 1626.7028,1127.7 1625.2341,1126.7937 z">
      <title id="t295">Vingt-et-unième circonscription du Nord</title>
      <desc id="d295">Cantons de : Condé-sur-l'Escaut (moins les communes de Escautpont, Fresnes-sur-Escaut, Hergnies, Odomez, Vicq, Vieux-Condé), Valenciennes Est, Valenciennes Nord, Commune de Valenciennes (partie comprise dans le canton de Valenciennes Sud), Commune de Saint-Saulve</desc>
    </path></svg>