<svg xmlns="http://www.w3.org/2000/svg" version="1.1" xmlns:xlink="http://www.w3.org/1999/xlink" xmlns:svgjs="http://svgjs.dev/svgjs" viewBox="800.38533 329.36594 125.58190000000002 91.67159999999996"><path class="circo" id="060-01" d="M 846.37163,337.24583 844.31303,337.71383 843.17683,337.15383 843.01773,337.02437 840.07833,337.25963 839.36593,337.7066 838.59963,338.71029 837.39713,339.10618 837.52723,339.69031 837.09963,340.94169 836.08153,341.66711 836.29193,342.06846 835.12203,342.1596 833.85313,341.32694 833.50923,342.62081 833.09793,342.76368 832.04473,342.0728 830.61913,343.00936 829.91543,344.84191 827.96073,346.19676 826.64783,347.28769 825.00413,348.12719 824.24993,347.63227 823.59403,346.03939 821.79493,347.38782 822.16493,347.62453 822.34703,349.37299 820.78733,349.92693 820.69433,350.68962 820.32033,350.92937 819.12153,351.0213 818.78213,352.65463 817.62943,353.24342 816.96333,353.99628 820.16933,355.46766 821.27613,356.01675 821.57813,356.20467 820.92343,357.03789 821.13193,357.51308 822.02773,358.1275 822.26383,359.72183 822.05933,361.81839 822.77413,362.36301 822.60143,362.78296 820.82093,364.12694 821.04623,364.47559 821.86173,364.49758 822.32713,365.1829 821.77253,365.54915 822.20983,366.14893 821.63673,366.52821 821.48533,366.69371 820.86083,367.33249 821.39713,369.02627 821.24973,369.9181 823.04153,370.61919 824.15723,369.99107 825.48253,369.79637 826.18383,369.18202 827.36503,368.50628 830.10253,369.97694 830.32453,370.69816 829.98583,371.36975 830.22973,372.1529 830.83693,372.64122 831.53333,373.20505 832.66073,373.08322 833.15673,372.34757 834.17493,373.00921 834.45383,373.40785 835.90503,373.51277 837.56043,374.28891 838.73593,374.02456 840.34343,376.50742 841.28983,375.98895 841.07903,377.20648 841.36323,377.51341 842.14803,377.78689 842.91393,377.47253 843.22003,377.75711 843.55623,378.47327 844.46943,378.96516 846.98413,380.8697 847.72373,380.76044 849.43503,378.93461 850.38883,378.41164 850.62213,378.31801 850.13493,377.01461 850.60663,372.89047 850.44723,371.85578 849.06673,369.17614 851.91053,368.55179 852.48183,368.20232 852.63083,366.62777 854.10913,366.1857 855.87843,367.42641 857.17073,367.48043 857.33833,367.89992 856.95813,368.72011 858.22323,369.95105 858.83383,371.13783 859.15623,371.01416 860.25083,370.88107 860.66333,369.66037 860.96103,369.34784 861.34343,369.54713 862.58323,369.03359 863.83743,369.53693 865.50773,369.05739 865.75393,369.40133 865.17223,371.38661 865.77843,371.96179 865.97613,371.5844 867.86963,372.31302 868.72093,371.52741 869.43843,371.96101 869.90743,373.15055 870.28983,373.05175 871.23263,372.63717 871.69163,372.21028 872.37243,372.63155 873.52243,372.56371 873.70603,372.92105 874.66793,372.52908 875.06833,372.71481 875.88643,371.25588 877.58353,371.57486 878.23203,371.71133 878.13293,372.02911 879.82903,372.44961 881.14293,371.32961 881.03323,370.89885 882.03673,369.43702 882.46273,369.55968 883.14873,367.17983 882.72823,366.46803 883.06553,365.53986 882.97853,365.48033 881.19593,364.4379 880.96963,363.18155 881.74533,361.68144 881.19393,361.16374 881.19553,360.74132 881.65293,358.57825 882.65893,357.77196 882.65933,356.24712 882.53303,355.81547 881.70473,355.47172 882.34683,354.60081 882.07333,354.36527 880.56993,353.4014 880.21733,352.59012 880.46903,350.89199 879.92993,349.72769 880.17033,349.35882 880.06033,349.22725 879.16883,349.13962 878.39633,349.57369 877.23233,349.04674 877.50653,349.3377 876.79723,349.6903 876.29023,350.75258 875.44343,351.04595 874.38343,349.58549 874.91483,348.96724 875.00453,348.16616 873.30663,348.54598 871.61493,346.80019 871.16773,347.1213 869.84543,345.90303 869.82263,345.4502 867.49493,347.9359 866.53343,347.11566 867.09063,346.02929 866.42733,345.67885 865.67843,346.05659 865.35063,345.26512 865.03353,344.47933 864.72923,343.71104 861.90593,342.62711 861.03943,342.721 859.91213,343.32437 858.63653,343.30953 857.62983,341.90404 857.03013,342.25232 856.62403,342.38312 855.34833,341.25128 855.09913,340.03175 853.67303,338.87401 853.59563,339.31982 852.83463,339.80225 851.55323,339.60242 851.01473,338.89766 848.97673,338.13842 848.25893,337.94564 847.86323,337.31877 846.61323,337.26121 846.37163,337.24583 z">
      <title id="t296">Première circonscription de l'Oise</title>
      <desc id="d296">Cantons de : Beauvais Nord-Est, Beauvais Nord-Ouest, Breteuil, Crèvecoeur-le-Grand, Froissy, Maignelay-Montigny, Marseille-en-Beauvaisis, Nivillers, Saint-Just-en-Chaussée</desc>
    </path><path class="circo" id="060-02" d="M 829.41423,389.82143 828.67363,389.74622 827.85843,387.90456 825.64913,391.73539 825.76913,392.527 825.33543,393.22601 826.79843,393.09833 826.86543,393.88105 827.57103,394.26912 828.74763,394.79314 829.98383,394.47571 830.76613,394.47324 830.86233,395.2847 830.08223,395.55885 828.90683,396.71721 827.77393,396.66929 827.19323,397.74425 826.38063,398.00033 826.20913,399.28646 826.00113,399.81568 825.20313,400.00153 825.17993,400.83598 826.31213,401.32915 825.94693,401.51054 825.47683,403.42089 823.97393,403.80291 823.69373,404.49199 824.65053,405.08047 823.68253,406.21318 822.43473,406.69971 821.53493,406.71297 821.23683,406.37675 816.87133,407.78742 816.37803,406.12165 816.18523,406.25414 814.02423,406.74833 812.74883,407.44632 812.96733,406.61078 812.50923,405.90437 811.29783,406.0487 809.66383,404.84235 809.30733,405.47566 807.89133,404.83221 807.84503,404.84924 806.12383,406.17756 804.98183,405.53756 804.66343,403.92648 803.55523,403.68936 803.46703,402.84526 802.67723,402.53994 802.67933,402.0989 804.24103,401.35062 804.39523,400.05515 804.79123,399.86045 802.27163,398.04616 801.72353,398.71997 801.43623,398.49177 801.49073,397.4047 801.47403,396.16977 802.34253,394.5114 803.65743,394.43741 804.33983,393.88053 805.64833,394.05535 806.00393,393.79663 807.05663,395.24641 807.03893,396.13773 809.04973,396.84872 809.02743,395.92181 810.07893,393.35043 809.36353,392.9244 809.53413,391.62032 808.52803,390.77112 807.99763,391.1496 807.50593,390.71429 807.67953,389.01815 807.09413,387.3745 807.35843,386.55434 807.64313,385.23422 806.25123,382.45028 806.39673,380.98718 805.59443,380.56685 804.98883,379.35126 803.05513,377.45594 804.78493,376.09764 803.97793,375.93801 802.84643,376.35681 802.53733,375.63492 803.22353,374.03227 803.56933,371.86611 803.75033,371.46361 804.19073,371.4542 804.74573,370.39692 805.74883,369.79336 805.38463,369.07034 806.90933,368.22325 807.79333,367.24066 807.76503,365.48412 808.02093,365.12258 808.88663,365.05519 808.79453,362.9496 807.13903,362.19046 806.06163,362.91936 805.54143,364.60279 805.16653,364.84764 804.79573,364.02892 803.51673,363.79307 802.98693,363.38274 802.73253,363.17632 803.04583,362.59943 804.65003,361.07077 805.22183,358.63785 805.16823,358.59044 803.59493,358.21658 803.88853,355.73763 803.08643,354.64918 802.23713,353.64628 801.15653,354.30511 800.89303,353.21484 803.00073,352.98581 803.19023,352.13069 803.06503,352.01963 802.30163,352.33851 801.80123,351.27191 800.81923,350.52319 802.70783,348.8333 803.19593,347.6038 802.81903,346.33614 801.72833,345.44692 801.24083,344.84388 802.03923,344.60772 803.28883,342.57196 803.40383,341.2388 805.78833,340.03543 805.62813,338.08376 805.30653,337.85392 805.01693,337.4912 804.15153,337.72473 802.80583,339.56274 802.01203,339.98183 800.38533,338.36155 801.79213,336.83129 802.57383,336.58813 802.63693,335.75434 802.42003,333.57084 802.67333,333.21222 803.50343,333.38423 804.99843,332.46558 805.21643,332.46322 804.77483,330.92654 804.98393,330.58514 805.59303,329.36594 806.76093,330.00373 808.56463,329.92004 809.19373,330.1953 809.04783,330.51909 809.84593,330.75393 810.66903,330.45423 811.59163,332.40022 812.95763,332.24278 813.30923,333.07426 813.11273,333.49548 811.60033,334.56966 811.74883,334.96449 812.58603,335.01458 813.21953,335.55452 813.07963,336.37992 814.01673,337.31943 815.24803,337.02871 816.74193,337.81502 817.90773,337.56125 819.68823,335.74238 821.16373,334.92123 822.52603,337.42943 824.42823,334.91321 824.95653,336.04276 826.25203,336.2139 827.00853,335.77551 828.04893,336.45695 829.27333,336.12636 829.30313,336.14963 829.74463,336.13819 830.07843,336.95734 831.85613,338.17824 831.86973,339.02945 830.99363,339.11078 831.18323,339.31627 832.49423,339.56984 833.93083,338.58008 834.30943,338.83302 834.93273,338.46339 836.28423,338.34289 837.39713,339.10618 837.52723,339.69031 837.09963,340.94169 836.08153,341.66711 836.29193,342.06846 835.12203,342.1596 833.85313,341.32694 833.50923,342.62081 833.09793,342.76368 832.04473,342.0728 830.61913,343.00936 829.91543,344.84191 827.96073,346.19676 826.64783,347.28769 825.00413,348.12719 824.24993,347.63227 823.59403,346.03939 821.79493,347.38782 822.16493,347.62453 822.34703,349.37299 820.78733,349.92693 820.69433,350.68962 820.32033,350.92937 819.12153,351.0213 818.78213,352.65463 817.62943,353.24342 816.96333,353.99628 820.16933,355.46766 821.27613,356.01675 821.57813,356.20467 820.92343,357.03789 821.13193,357.51308 822.02773,358.1275 822.26383,359.72183 822.05933,361.81839 822.77413,362.36301 822.60143,362.78296 820.82093,364.12694 821.04623,364.47559 821.86173,364.49758 822.32713,365.1829 821.77253,365.54915 822.20983,366.14893 821.63673,366.52821 821.48533,366.69371 820.86083,367.33249 821.39713,369.02627 821.24973,369.9181 823.04153,370.61919 824.15723,369.99107 825.48253,369.79637 826.18383,369.18202 827.36503,368.50628 830.10253,369.97694 830.32453,370.69816 829.98583,371.36975 830.22973,372.1529 831.53333,373.20505 832.66073,373.08322 833.15673,372.34757 834.17493,373.00921 834.45383,373.40785 835.90503,373.51277 837.56043,374.28891 838.73593,374.02456 840.34343,376.50742 841.28983,375.98895 841.07903,377.20648 841.36323,377.51341 842.14803,377.78689 842.91393,377.47253 843.22003,377.75711 843.55623,378.47327 844.46943,378.96516 846.98413,380.8697 847.72373,380.76044 849.43503,378.93461 850.38883,378.41164 850.53673,380.90063 850.01863,381.55784 849.77793,384.00008 848.93293,383.93641 848.64113,384.24641 848.16613,385.83164 849.90413,387.80598 849.57753,388.12205 850.77073,389.14121 850.09223,389.69942 849.75313,390.94694 847.76513,392.70772 848.81363,393.53986 848.15483,394.14341 846.91343,394.50554 846.93883,395.80617 846.24303,396.16065 845.60233,395.70928 844.42063,395.9166 843.84593,396.12263 842.34673,396.54064 841.65133,393.77748 840.89283,393.50325 840.54473,393.71899 840.35863,393.35317 839.84183,392.63958 838.56273,392.94746 837.73503,392.66837 837.79993,392.29754 837.27023,391.83247 835.08983,391.6744 835.31723,389.38213 833.84653,388.12049 832.97183,390.37502 831.29703,390.91996 830.72573,391.60755 830.29593,390.64378 829.88653,390.51644 829.41423,389.82143 z">
      <title id="t297">Deuxième circonscription de l'Oise</title>
      <desc id="d297">Cantons de : Auneuil, Beauvais Sud-Ouest, Chaumont-en-Vexin, Le Coudray-Saint-Germer, Formerie, Grandvilliers, Noailles, Songeons</desc>
    </path><path class="circo" id="060-03" d="M 837.92743,404.11377 836.70593,404.47235 835.00293,404.20287 834.52393,402.20142 833.71883,401.97334 833.72913,401.55087 832.79273,402.47541 831.14493,403.0694 830.11473,403.89825 830.10343,403.9335 828.70503,404.38339 826.80613,406.08732 824.65053,405.08047 823.69373,404.49199 823.97393,403.80291 825.47683,403.42089 825.94693,401.51054 826.31213,401.32915 825.17993,400.83598 825.20313,400.00153 826.00113,399.81568 826.20913,399.28646 826.38063,398.00033 827.19323,397.74425 827.77393,396.66929 828.90683,396.71721 830.08223,395.55885 830.86233,395.2847 830.76613,394.47324 829.98383,394.47571 828.74763,394.79314 827.57103,394.26912 826.86543,393.88105 826.79843,393.09833 825.33543,393.22601 825.76913,392.527 825.64913,391.73539 827.85843,387.90456 828.67363,389.74622 829.41423,389.82143 829.88653,390.51644 830.29593,390.64378 830.72573,391.60755 831.29703,390.91996 832.97183,390.37502 833.84653,388.12049 835.31723,389.38213 835.08983,391.6744 837.27023,391.83247 837.79993,392.29754 837.73503,392.66837 838.56273,392.94746 839.84183,392.63958 840.35863,393.35317 840.54473,393.71899 840.89283,393.50325 841.65133,393.77748 842.34673,396.54064 843.84593,396.12263 844.42063,395.9166 845.60233,395.70928 846.24303,396.16065 846.93883,395.80617 846.91343,394.50554 848.15483,394.14341 848.81363,393.53986 847.76513,392.70772 849.75313,390.94694 850.09223,389.69942 850.77073,389.14121 851.03993,389.44001 852.28253,389.10302 853.04233,389.39399 855.04963,388.66405 856.58633,390.921 857.86603,392.00018 859.11623,391.29191 859.13213,391.689 860.19713,391.17462 861.58853,390.40239 862.35043,391.53666 863.64453,391.9865 863.85963,392.33403 864.81763,393.88379 865.99013,394.57015 865.66963,396.17083 866.85303,395.12298 868.56733,394.45816 868.96403,393.2621 869.18213,394.51036 870.45363,395.65458 870.33923,397.34689 868.25843,398.11386 865.69013,396.79898 865.58383,396.51738 865.39423,397.04338 862.81553,401.17275 862.21283,402.1715 860.67333,402.33985 860.14283,402.35793 858.78713,404.80685 858.38563,404.89541 858.30143,406.18328 858.62883,406.46126 858.57263,408.19844 857.39433,409.7562 854.20513,404.93481 853.25443,404.87759 852.45573,405.00621 852.31193,405.88201 851.39863,406.84987 851.19913,408.12214 849.50893,408.57602 849.14193,408.33283 848.56373,408.93422 847.38843,409.20714 845.24443,408.84259 846.69453,407.33946 845.57743,405.61558 844.46393,406.18094 842.78053,406.39209 841.86333,405.96094 842.09853,406.72298 841.15673,407.49377 840.78773,407.31892 840.26143,406.48518 840.74283,405.82077 839.86093,405.00127 839.03083,404.79033 838.73343,405.10465 837.92743,404.11377 z">
      <title id="t298">Troisième circonscription de l'Oise</title>
      <desc id="d298">Cantons de : Creil Sud, Méru, Montataire, Neuilly-en-Thelle</desc>
    </path><path class="circo" id="060-04" d="M 908.01803,417.72942 907.25113,417.45322 906.97383,418.65189 906.57603,418.76194 906.23383,418.50317 905.40913,418.7221 903.48363,417.80469 902.92653,418.88236 902.51443,418.6916 900.97083,419.62964 899.62293,419.79533 898.67573,417.86842 897.84903,418.1128 897.03743,417.83338 895.64183,416.22602 894.15223,417.18571 893.49413,417.38118 893.85333,418.12941 892.16373,418.07932 893.60353,419.09388 891.52593,420.70739 889.33113,421.03754 888.42533,418.44257 886.61683,420.4827 885.50693,420.11606 885.60313,419.71904 885.69083,418.9475 884.51213,417.75849 882.18703,415.87407 881.31213,415.9434 880.68303,414.81862 879.50083,416.62417 878.73353,416.56264 878.40713,417.39286 877.04923,418.54691 876.41093,418.41726 875.86763,416.88677 874.41033,416.21538 873.99013,413.51625 873.74513,413.22571 872.93493,413.45923 872.98023,413.04089 872.23493,413.42482 871.99493,415.95859 868.49863,415.08026 869.43563,413.78755 869.28883,413.01427 867.39983,412.27336 867.45073,411.87118 866.06563,411.15159 866.04553,410.74999 865.64793,410.69658 863.86323,411.49769 864.16143,410.51663 864.33113,409.95697 861.73763,409.14047 860.40583,409.44029 858.57263,408.19844 858.62883,406.46126 858.30143,406.18328 858.38563,404.89541 858.78713,404.80685 860.14283,402.35793 860.67333,402.33985 862.21283,402.1715 862.81553,401.17275 865.39423,397.04338 865.58383,396.51738 865.69013,396.79898 868.25843,398.11386 870.33923,397.34689 870.45363,395.65458 869.18213,394.51036 868.96403,393.2621 869.01013,393.18576 870.05503,392.55488 870.27073,391.36568 870.59353,390.64665 871.57093,389.99154 873.44753,389.79771 875.88053,389.4185 875.96833,389.01502 878.16163,388.49612 878.11983,385.76721 878.13773,385.59712 878.53243,384.80126 879.24313,385.7136 879.96223,385.71595 880.38683,386.52186 881.24623,386.29858 882.43763,386.85717 884.00223,387.27369 885.37183,388.06051 886.72273,388.00835 888.41853,388.34097 889.44103,385.86399 890.26623,384.30172 891.15103,384.19566 890.64933,384.9068 891.00033,386.13098 891.18873,386.93111 892.48603,386.84634 892.42653,387.6928 891.91783,388.40577 891.18153,388.41385 890.87873,391.35369 890.47743,392.98668 889.64823,392.99879 890.14253,394.16829 889.60993,394.81998 891.43553,396.22967 890.61393,398.12844 891.32923,399.63112 894.06113,399.41857 894.07523,402.99343 894.12873,403.38394 894.88033,403.60533 895.59963,404.52268 896.44803,404.8854 896.48383,405.7447 896.81653,405.4516 898.07093,405.48398 899.29033,404.27739 900.11763,404.59967 901.63033,404.2242 901.14043,403.36781 902.00343,403.42036 903.15473,402.84331 903.51423,401.15505 904.39373,401.14347 905.42173,400.32233 905.78913,400.17449 905.72313,399.40582 906.39943,398.99333 906.38053,398.5967 907.53543,398.16164 908.51023,398.7848 908.82523,398.75785 908.34843,399.44838 909.37933,401.21347 909.26273,401.6171 909.45983,404.53257 910.27253,404.92987 911.15143,403.95574 913.21603,405.51441 913.78103,406.70569 915.07713,406.91422 914.83663,405.04145 914.38083,404.99919 914.10593,404.15956 912.53303,404.6924 912.21593,404.37546 911.74603,401.66108 912.28373,400.9907 913.19023,400.78731 914.45453,401.30365 914.81693,402.15888 915.54603,401.73342 916.28773,402.04855 917.06073,402.37068 916.76973,403.15526 917.23093,403.84909 918.04173,403.47096 918.82133,403.86925 919.12363,404.70684 918.75693,406.44722 918.97353,407.74712 919.85953,408.47737 919.23253,406.42082 920.56413,403.26089 921.59263,404.11013 921.28693,406.73897 921.51253,407.12379 922.64073,407.82564 923.96073,408.00554 923.71103,408.82894 922.63093,409.60533 922.65583,410.05274 920.95983,409.91591 921.79133,410.88433 921.18363,411.48976 919.83853,410.43789 919.76313,412.14203 919.25803,412.89243 918.40323,413.04089 917.96603,413.62677 916.64313,415.65713 916.67853,416.45554 917.47233,417.8252 914.78113,417.38469 914.45293,417.61793 912.94613,417.10056 912.19193,417.36768 911.19823,417.95589 910.84713,419.49145 909.69763,419.17199 909.42703,417.3377 909.07903,417.11964 908.01803,417.72942 z">
      <title id="t299">Quatrième circonscription de l'Oise</title>
      <desc id="d299">Cantons de : Betz, Chantilly, Nanteuil-le-Haudouin, Pont-Sainte-Maxence, Senlis</desc>
    </path><path class="circo" id="060-05" d="M 919.49848,360.94829 918.37348,361.63579 918.18598,362.51079 916.87348,363.66704 916.65473,364.07329 915.87348,364.44829 915.15473,364.01079 914.84223,364.29204 914.27973,364.85454 914.87348,365.29204 914.84223,366.01079 914.06098,365.72954 912.49848,366.32329 911.12348,364.69829 909.77973,365.16704 909.18598,367.76079 906.90473,369.16704 905.99848,371.13579 906.27973,371.94829 904.93598,373.60454 905.93598,374.91704 905.81098,375.22954 905.37348,375.29204 903.74848,377.41704 902.18598,378.32329 901.06098,377.10454 896.71723,375.76079 896.09223,374.82329 894.18598,372.79204 892.59223,371.91704 892.65473,371.66704 891.37348,371.47954 889.81098,369.94829 888.99848,369.79204 888.49848,368.22954 887.84223,367.57329 886.81098,367.04204 885.96723,366.85454 885.12348,365.82329 883.87348,365.29204 883.06098,365.54204 882.71723,366.47954 883.15473,367.16704 882.46723,369.57329 882.02973,369.44829 881.02973,370.88579 881.15473,371.32329 879.84223,372.44829 878.12348,372.04204 877.93598,373.32329 878.84223,374.26079 878.93598,375.54204 879.43598,375.63579 879.15473,376.44829 879.62348,377.19829 880.65473,378.82329 880.62348,378.01079 881.99848,377.44829 880.90473,382.79204 881.84223,382.54204 880.77973,383.22954 880.62348,385.35454 879.96723,385.72954 880.37348,386.51079 881.24848,386.29204 882.43598,386.85454 883.99848,387.26079 885.37348,388.07329 886.71723,388.01079 888.40473,388.35454 889.43598,385.85454 890.27973,384.29204 891.15473,384.19829 890.65473,384.91704 890.99848,386.13579 891.18598,386.91704 892.49848,386.85454 892.43598,387.69829 891.90473,388.41704 891.18598,388.41704 890.87348,391.35454 890.46723,392.97954 889.65473,393.01079 890.15473,394.16704 889.62348,394.82329 891.43598,396.22954 890.62348,398.13579 891.34223,399.63579 894.06098,399.41704 894.06098,402.97954 894.12348,403.38579 894.87348,403.60454 895.59223,404.51079 896.43598,404.88579 896.49848,405.72954 896.81098,405.44829 898.06098,405.47954 899.27973,404.29204 900.12348,404.60454 901.62348,404.22954 901.15473,403.35454 901.99848,403.41704 903.15473,402.85454 903.52973,401.16704 904.40473,401.13579 905.43598,400.32329 905.77973,400.16704 905.71723,399.41704 906.40473,398.97954 906.37348,398.60454 907.52973,398.16704 908.49848,398.79204 908.81098,398.76079 911.99848,398.26079 912.96723,399.10454 912.56098,399.85454 913.31098,400.35454 914.15473,400.29204 915.18598,398.94829 914.68598,397.26079 914.68598,397.19829 914.12348,395.01079 914.46723,394.19829 914.18598,393.60454 914.18598,393.16704 914.84223,392.57329 914.93598,392.13579 914.81098,391.72954 914.40473,391.51079 913.99848,391.60454 913.49848,392.32329 913.06098,392.26079 913.37348,391.41704 913.02973,391.16704 911.31098,391.38579 910.93598,390.32329 909.31098,389.54204 909.59223,389.29204 910.02973,388.66704 908.81098,387.10454 911.09223,385.69829 911.99848,384.66704 912.93598,385.04204 914.52973,385.76079 914.93598,386.54204 915.93598,385.10454 917.68598,383.72954 918.02973,383.63579 918.40473,382.66704 918.43598,380.51079 918.74848,380.19829 919.87348,379.63579 919.56098,377.07329 919.99848,377.10454 919.96723,374.07329 919.90473,373.60454 919.87348,372.35454 920.37348,371.69829 921.24848,371.82329 922.18598,372.69829 922.62348,372.66704 925.90473,371.51079 925.62348,371.26079 925.96723,370.69829 925.06098,369.76079 922.87348,368.72954 920.96723,367.91704 920.87348,367.10454 922.34223,366.29204 922.15473,364.60454 920.96723,363.29204 920.15473,362.29204 920.02973,361.41704 919.49848,360.94829 z M 911.65473,399.85454 911.46723,399.94829 911.31098,399.97954 911.24848,399.97954 911.21723,399.88579 911.06098,399.97954 910.87348,400.04204 910.93598,400.22954 910.96723,400.38579 910.93598,400.38579 910.56098,400.54204 910.31098,400.72954 910.31098,400.76079 910.59223,400.79204 910.59223,400.94829 910.68598,400.94829 910.62348,401.19829 910.74848,401.32329 910.81098,401.29204 910.87348,401.29204 910.77973,401.47954 910.87348,401.44829 911.02973,401.51079 911.15473,401.47954 911.21723,401.32329 911.40473,401.29204 911.43598,401.44829 911.46723,401.44829 911.46723,401.32329 911.59223,401.07329 911.68598,401.10454 911.74848,400.94829 911.84223,400.91704 911.81098,400.82329 911.71723,400.79204 911.65473,400.72954 911.65473,400.63579 911.68598,400.44829 911.71723,400.41704 912.09223,400.44829 912.06098,400.35454 911.90473,399.94829 911.68598,399.85454 911.65473,399.85454 z">
      <title id="t300">Cinquième circonscription de l'Oise</title>
      <desc id="d300">Cantons de : Attichy, Compiègne Sud-Est, Compiègne Sud-Ouest, Crépy-en-Valois, Estrées-Saint-Denis</desc>
    </path><path class="circo" id="060-06" d="M 902.20073,378.31357 901.05933,377.09803 896.73023,375.75173 896.07813,374.81588 894.20143,372.78865 892.59763,371.90245 892.66843,371.68022 891.38843,371.4925 889.82393,369.93576 889.00423,369.7846 888.49033,368.23476 887.83033,367.58586 886.81903,367.05699 885.96353,366.84154 885.13413,365.83466 883.88773,365.2953 883.06553,365.53986 882.97853,365.48033 881.19593,364.4379 880.96963,363.18155 881.74533,361.68144 881.19393,361.16374 881.19553,360.74132 881.65293,358.57825 882.65893,357.77196 882.65933,356.24712 882.53303,355.81547 881.70473,355.47172 882.34683,354.60081 882.07333,354.36527 883.86633,353.09934 883.73643,350.6748 884.15353,350.66012 884.13823,350.35019 885.30203,348.33436 885.41433,347.29754 886.21013,347.21893 886.52763,347.52783 887.39953,347.38782 888.08923,347.9006 888.49793,347.41931 890.12503,347.35724 891.24733,347.91254 891.42853,348.33764 892.81443,348.71194 893.68153,348.97131 894.42793,348.45533 894.73743,348.1209 894.54353,346.77473 894.03113,345.1332 894.32543,343.4277 895.05483,342.95277 894.89163,342.60978 898.22423,342.6883 898.54003,342.98152 899.11923,342.47885 898.73463,341.3821 898.88853,341.19533 899.79203,340.41114 899.98333,340.06013 899.68033,339.80106 900.00943,339.52057 901.27523,339.66719 901.49183,340.48142 902.40303,341.38538 902.63903,341.06043 902.37143,339.89697 902.23023,339.05665 900.48223,337.20679 901.63293,336.51163 901.80023,335.73896 901.97803,335.71622 902.70043,337.70765 903.93883,337.36832 904.49573,336.28462 906.31193,340.60556 906.62603,340.32195 907.30783,340.80784 907.88523,341.92978 908.12203,340.38474 907.51433,339.78425 907.62883,338.48192 909.28413,337.98402 909.93843,336.91988 910.36003,337.01898 911.20673,336.52872 912.22903,337.2963 912.56333,338.49125 912.99543,338.5174 913.30013,339.31075 914.26163,340.15393 914.70203,339.75745 915.29853,338.19348 916.55823,338.32174 916.75003,336.98862 916.31273,335.72463 918.93803,335.89224 918.58783,338.6304 919.00233,338.58362 919.72403,337.58438 920.12423,336.76294 921.94143,336.76768 922.55893,337.99453 921.73993,340.01678 922.65803,341.53721 922.36443,342.63433 921.85463,342.04351 921.06133,342.17562 921.00143,342.97089 920.30343,343.24138 920.05413,344.01853 920.86083,344.24499 921.27153,344.99104 921.44103,346.55281 920.06513,347.58399 919.80973,347.7051 920.52593,348.59151 922.27123,350.39636 922.41113,351.15323 923.59043,353.47048 923.66973,353.82994 922.64943,354.21467 922.59163,355.1121 923.05313,355.87837 923.03183,358.08493 922.55953,358.29138 922.72753,359.65595 922.26553,360.92634 920.04353,361.4222 919.48553,360.93904 918.38543,361.62868 918.18153,362.49562 916.86313,363.68025 916.64943,364.06007 915.88443,364.44536 915.16223,364.00156 914.85123,364.29669 914.28803,364.83979 914.88003,365.27986 914.85273,365.99729 914.04963,365.72527 912.48763,366.33406 911.10983,364.70997 909.79163,365.17492 909.17943,367.76428 906.89093,369.15613 905.98323,371.13012 906.26973,371.94415 904.92183,373.61462 905.94903,374.92093 905.82283,375.22038 905.36963,375.28192 902.20073,378.31357 z">
      <title id="t301">Sixième circonscription de l'Oise</title>
      <desc id="d301">Cantons de: Compiègne Nord, Guiscard, Lassigny, Noyon, Ressons-sur-Matz, Ribécourt-Dreslincourt</desc>
    </path><path class="circo" id="060-07" d="M 858.22323,369.95105 856.95813,368.72011 857.33833,367.89992 857.17073,367.48043 855.87843,367.42641 854.10913,366.1857 852.63083,366.62777 852.48183,368.20232 851.91053,368.55179 849.06673,369.17614 850.44723,371.85578 850.60663,372.89047 850.13493,377.01461 850.62213,378.31801 850.38883,378.41164 850.53673,380.90063 850.01863,381.55784 849.77793,384.00008 848.93293,383.93641 848.64113,384.24641 848.16613,385.83164 849.90413,387.80598 849.57753,388.12205 850.77073,389.14121 851.03993,389.44001 852.28253,389.10302 853.04233,389.39399 855.04963,388.66405 856.58633,390.921 857.86603,392.00018 859.11623,391.29191 859.13213,391.689 860.19713,391.17462 861.58853,390.40239 862.35043,391.53666 863.64453,391.9865 863.85963,392.33403 864.81763,393.88379 865.99013,394.57015 865.66963,396.17083 866.85303,395.12298 868.56733,394.45816 868.96403,393.2621 869.01013,393.18576 870.05503,392.55488 870.27073,391.36568 870.59353,390.64665 871.57093,389.99154 873.44753,389.79771 875.88053,389.4185 875.96833,389.01502 878.16163,388.49612 878.11983,385.76721 878.13773,385.59712 878.53243,384.80126 879.24313,385.7136 879.96223,385.71595 880.63853,385.34576 880.79373,383.22595 881.85253,382.5372 880.90873,382.79728 881.99033,377.45529 880.61973,378.01334 880.64343,378.81252 879.61863,377.20452 879.16203,376.46118 879.43303,375.62395 878.94083,375.52884 878.85743,374.27153 877.93913,373.32463 878.13293,372.02911 878.23203,371.71133 877.58353,371.57486 875.88643,371.25588 875.06833,372.71481 874.66793,372.52908 873.70603,372.92105 873.52243,372.56371 872.37243,372.63155 871.69163,372.21028 871.23263,372.63717 870.28983,373.05175 869.90743,373.15055 869.43843,371.96101 868.72093,371.52741 867.86963,372.31302 865.97613,371.5844 865.77843,371.96179 865.17223,371.38661 865.75393,369.40133 865.50773,369.05739 863.83743,369.53693 862.58323,369.03359 861.34343,369.54713 860.96103,369.34784 860.66333,369.66037 860.25083,370.88107 859.15623,371.01416 858.83383,371.13783 858.22323,369.95105 z">
      <title id="t302">Septième circonscription de l'Oise</title>
      <desc id="d302">Cantons de Clermont, Creil-Nogent-sur-Oise, Liancourt Mouy</desc>
    </path></svg>