<svg xmlns="http://www.w3.org/2000/svg" version="1.1" xmlns:xlink="http://www.w3.org/1999/xlink" xmlns:svgjs="http://svgjs.dev/svgjs" viewBox="0 0 125.58190000000002 91.67159999999996"><path class="circo" id="id-060-01" d="M45.98630000000003 7.879889999999989L43.92770000000007 8.34788999999995L42.79150000000004 7.787890000000004L42.632400000000075 7.658429999999953L39.6930000000001 7.893689999999992L38.980600000000095 8.340659999999957L38.214300000000094 9.344349999999963L37.011799999999994 9.740239999999972L37.14190000000008 10.324369999999988L36.714300000000094 11.575749999999971L35.69620000000009 12.301169999999956L35.906600000000026 12.702519999999993L34.73670000000004 12.793659999999988L33.46780000000001 11.960999999999956L33.12390000000005 13.254869999999983L32.712600000000066 13.397739999999999L31.659400000000005 12.70685999999995L30.233800000000087 13.643419999999992L29.53010000000006 15.475969999999961L27.57540000000006 16.83081999999996L26.262500000000045 17.921749999999975L24.61880000000008 18.76124999999996L23.864599999999996 18.266329999999982L23.20870000000002 16.673450000000003L21.40960000000007 18.021879999999953L21.779600000000073 18.25858999999997L21.961700000000064 20.007049999999992L20.402000000000044 20.560990000000004L20.309000000000083 21.323679999999968L19.93500000000006 21.563429999999983L18.736200000000053 21.655359999999973L18.3968000000001 23.288689999999974L17.244100000000003 23.87747999999999L16.578000000000088 24.63033999999999L19.783999999999992 26.10172L20.890800000000013 26.65080999999998L21.192800000000034 26.838729999999998L20.5381000000001 27.67194999999998L20.746600000000058 28.14713999999998L21.642400000000066 28.761559999999974L21.87850000000003 30.355889999999988L21.674000000000092 32.45245L22.38880000000006 32.99706999999995L22.216100000000097 33.41701999999998L20.435600000000022 34.76099999999997L20.660900000000083 35.10964999999999L21.476400000000012 35.131640000000004L21.941800000000057 35.816959999999995L21.387200000000007 36.183209999999974L21.824500000000057 36.782989999999984L21.25139999999999 37.16226999999998L21.100000000000023 37.32776999999999L20.47550000000001 37.966549999999984L21.011799999999994 39.66032999999999L20.864400000000046 40.55215999999996L22.656200000000013 41.25324999999998L23.771900000000073 40.625129999999956L25.097200000000043 40.43043L25.79849999999999 39.81608L26.979700000000093 39.14033999999998L29.717200000000048 40.61099999999999L29.939200000000028 41.33221999999995L29.60050000000001 42.00380999999999L29.844400000000064 42.786959999999965L30.4516000000001 43.27527999999995L31.148000000000025 43.839110000000005L32.27539999999999 43.71727999999996L32.771400000000085 42.981629999999996L33.789600000000064 43.64326999999997L34.068500000000085 44.04190999999997L35.51970000000006 44.146829999999966L37.17510000000004 44.922969999999964L38.3506000000001 44.658619999999985L39.95810000000006 47.14148L40.9045000000001 46.623009999999965L40.693700000000035 47.840539999999976L40.97790000000009 48.14747L41.762699999999995 48.420950000000005L42.5286000000001 48.10658999999998L42.8347 48.39116999999999L43.170900000000074 49.10732999999999L44.084100000000035 49.59922L46.5988000000001 51.50376L47.33840000000009 51.394499999999994L49.04970000000003 49.56867L50.00350000000003 49.045699999999954L50.23680000000002 48.95206999999999L49.7496000000001 47.64866999999998L50.22130000000004 43.52452999999997L50.06190000000004 42.48983999999996L48.68140000000005 39.81019999999995L51.52520000000004 39.18584999999996L52.09649999999999 38.83637999999996L52.24549999999999 37.261829999999975L53.7238000000001 36.819759999999974L55.49310000000003 38.06046999999995L56.785400000000095 38.11448999999999L56.95300000000009 38.533979999999985L56.57280000000003 39.354169999999954L57.83789999999999 40.585109999999986L58.44850000000008 41.771889999999985L58.7709000000001 41.64821999999998L59.8655 41.51513L60.27800000000002 40.29442999999998L60.5757000000001 39.981899999999996L60.95810000000006 40.18118999999996L62.197900000000004 39.66764999999998L63.45210000000009 40.17098999999996L65.12240000000008 39.691449999999975L65.36860000000001 40.03538999999995L64.78690000000006 42.020669999999996L65.3931 42.595849999999984L65.59080000000006 42.21845999999999L67.48430000000008 42.94707999999997L68.3356 42.16146999999995L69.05310000000009 42.595069999999964L69.52210000000002 43.78460999999999L69.9045000000001 43.685810000000004L70.84730000000002 43.27123L71.30630000000008 42.84433999999999L71.98710000000005 43.26560999999998L73.13710000000003 43.19776999999999L73.3207000000001 43.55510999999996L74.2826 43.16314L74.68299999999999 43.34886999999998L75.50110000000006 41.88993999999997L77.19820000000004 42.20891999999998L77.84670000000006 42.34538999999995L77.74760000000003 42.66316999999998L79.44370000000004 43.083669999999984L80.75760000000002 41.96366999999998L80.64790000000005 41.53290999999996L81.65140000000008 40.071079999999995L82.07740000000001 40.19373999999999L82.76340000000005 37.81388999999996L82.3429000000001 37.102089999999976L82.68020000000001 36.17391999999995L82.59320000000002 36.11438999999996L80.81060000000002 35.07195999999999L80.5843000000001 33.81560999999999L81.36000000000001 32.315499999999986L80.80860000000007 31.797799999999995L80.81020000000001 31.37537999999995L81.26760000000002 29.212310000000002L82.2736000000001 28.406019999999955L82.274 26.881179999999972L82.1477000000001 26.44952999999998L81.31940000000009 26.10577999999998L81.9615 25.23487L81.6880000000001 24.999329999999986L80.18460000000005 24.03546L79.832 23.22417999999999L80.08370000000002 21.526049999999998L79.54460000000006 20.361749999999972L79.78500000000008 19.992879999999957L79.67500000000007 19.861310000000003L78.7835 19.773679999999956L78.01100000000008 20.207749999999976L76.8470000000001 19.680799999999977L77.12120000000004 19.97175999999996L76.41190000000006 20.324359999999956L75.9049 21.38664L75.05810000000008 21.68000999999998L73.99810000000002 20.21954999999997L74.5295000000001 19.60129999999998L74.61920000000009 18.800219999999968L72.92130000000009 19.180039999999963L71.2296 17.434249999999963L70.78240000000005 17.755359999999996L69.46010000000001 16.537089999999978L69.43730000000005 16.084259999999972L67.1096 18.56995999999998L66.1481 17.749719999999968L66.70530000000008 16.66334999999998L66.04200000000003 16.312909999999988L65.2931000000001 16.690650000000005L64.96530000000007 15.899180000000001L64.64820000000009 15.113389999999981L64.34390000000008 14.345100000000002L61.52060000000006 13.261169999999993L60.654100000000085 13.35505999999998L59.526800000000094 13.958429999999964L58.25120000000004 13.943589999999972L57.244500000000016 12.538099999999986L56.64480000000003 12.886379999999974L56.238699999999994 13.017179999999996L54.96300000000008 11.885339999999985L54.71379999999999 10.665809999999965L53.287700000000086 9.508069999999975L53.210300000000075 9.95387999999997L52.449299999999994 10.436309999999992L51.16790000000003 10.236479999999972L50.62940000000003 9.53171999999995L48.59140000000002 8.772479999999973L47.87360000000001 8.579700000000003L47.47790000000009 7.952829999999949L46.22790000000009 7.895269999999982L45.98630000000003 7.879889999999989z">
      <title id="t296">Première circonscription de l'Oise</title>
      <desc id="d296">Cantons de : Beauvais Nord-Est, Beauvais Nord-Ouest, Breteuil, Crèvecoeur-le-Grand, Froissy, Maignelay-Montigny, Marseille-en-Beauvaisis, Nivillers, Saint-Just-en-Chaussée</desc>
    </path><path class="circo" id="id-060-02" d="M29.02890000000002 60.45549L28.28830000000005 60.38027999999997L27.473100000000045 58.53861999999998L25.26380000000006 62.36944999999997L25.383800000000065 63.161059999999964L24.95010000000002 63.86006999999995L26.4131000000001 63.73238999999995L26.480099999999993 64.51510999999999L27.185699999999997 64.90317999999996L28.362300000000005 65.42719999999997L29.598500000000058 65.10976999999997L30.380800000000022 65.10729999999995L30.47700000000009 65.91875999999996L29.696900000000028 66.19290999999998L28.52150000000006 67.35127L27.388599999999997 67.30334999999997L26.807900000000018 68.37831L25.995300000000043 68.63439L25.823800000000006 69.92051999999995L25.615800000000036 70.44973999999996L24.817800000000034 70.63558999999998L24.79460000000006 71.47003999999998L25.92680000000007 71.96321L25.5616 72.14459999999997L25.091499999999996 74.05494999999996L23.588600000000042 74.43696999999997L23.308400000000006 75.12604999999996L24.26520000000005 75.71452999999997L23.29720000000009 76.84724L22.04939999999999 77.33376999999996L21.149600000000078 77.34702999999996L20.8515000000001 77.01080999999999L16.48599999999999 78.42147999999997L15.992700000000013 76.75570999999997L15.799900000000093 76.88819999999998L13.638900000000035 77.38238999999999L12.363500000000045 78.08037999999999L12.581999999999994 77.24483999999995L12.123900000000049 76.53842999999995L10.912500000000023 76.68275999999997L9.278500000000008 75.47640999999999L8.922000000000025 76.10971999999998L7.5060000000000855 75.46626999999995L7.459699999999998 75.48329999999999L5.738500000000045 76.81162L4.596499999999992 76.17161999999996L4.278099999999995 74.56054L3.169900000000098 74.32342L3.081700000000069 73.47931999999997L2.291900000000055 73.17399999999998L2.2940000000000964 72.73295999999999L3.85570000000007 71.98467999999997L4.009900000000016 70.68921L4.405900000000088 70.49450999999999L1.8863000000000056 68.68021999999996L1.338200000000029 69.35402999999997L1.0509000000000697 69.12582999999995L1.1054000000000315 68.03875999999997L1.088700000000017 66.80383L1.9572000000000571 65.14545999999996L3.272100000000023 65.07146999999998L3.9545000000000528 64.51459L5.263000000000034 64.68940999999995L5.618600000000015 64.43068999999997L6.6713000000000875 65.88047L6.653600000000097 66.77178999999995L8.6644 67.48277999999999L8.642100000000028 66.55586999999997L9.69360000000006 63.984489999999994L8.978200000000015 63.55845999999997L9.148800000000051 62.25437999999997L8.14269999999999 61.40517999999997L7.612300000000005 61.78366L7.120600000000081 61.34834999999998L7.294200000000046 59.65220999999997L6.7087999999999965 58.00855999999999L6.973100000000045 57.1884L7.257800000000088 55.86827999999997L5.8659000000000106 53.08434L6.011400000000094 51.62124L5.209100000000035 51.200909999999965L4.603500000000054 49.98532L2.6698000000000093 48.089999999999975L4.399600000000078 46.73169999999999L3.5926000000000613 46.57207L2.4611000000001013 46.99086999999997L2.1520000000000437 46.26898L2.838200000000029 44.66632999999996L3.1840000000000828 42.50016999999997L3.365000000000009 42.097669999999994L3.805400000000077 42.08825999999999L4.360400000000027 41.03098L5.363500000000045 40.427419999999984L4.999300000000062 39.704399999999964L6.524000000000001 38.857309999999984L7.4080000000000155 37.87471999999997L7.379700000000071 36.118179999999995L7.635600000000068 35.756640000000004L8.501300000000015 35.68924999999996L8.409200000000055 33.58365999999995L6.753700000000094 32.82451999999995L5.676300000000083 33.55341999999996L5.156100000000038 35.236850000000004L4.7812000000000126 35.48169999999999L4.410400000000095 34.662980000000005L3.1314000000000988 34.42712999999998L2.601600000000076 34.01679999999999L2.3472000000000435 33.81037999999995L2.66050000000007 33.23348999999996L4.264700000000062 31.70482999999996L4.836500000000001 29.27190999999999L4.782900000000041 29.224499999999978L3.209600000000023 28.85064L3.5031999999999925 26.37169L2.7010999999999967 25.283239999999978L1.8518000000000256 24.280339999999967L0.7712000000000216 24.93916999999999L0.5076999999999998 23.848899999999958L2.6154000000000224 23.61986999999999L2.8049000000000888 22.764749999999992L2.6797000000000253 22.653689999999983L1.916300000000092 22.972569999999962L1.4159000000000788 21.905969999999968L0.4338999999999942 21.157249999999976L2.322499999999991 19.467359999999985L2.810600000000022 18.237859999999955L2.4337000000000444 16.970199999999977L1.3430000000000746 16.080979999999954L0.8555000000000064 15.47793999999999L1.6539000000000215 15.241779999999949L2.903500000000008 13.206019999999967L3.0185000000000173 11.872860000000003L5.40300000000002 10.669489999999996L5.242800000000102 8.71781999999996L4.921199999999999 8.487979999999993L4.631600000000049 8.125259999999969L3.766200000000026 8.358789999999999L2.420500000000061 10.196799999999996L1.626700000000028 10.615889999999979L0 8.99561L1.4068000000000893 7.465350000000001L2.18850000000009 7.222189999999955L2.251600000000053 6.38839999999999L2.0347000000000435 4.204899999999952L2.288000000000011 3.846279999999979L3.1181000000000267 4.018289999999979L4.613100000000031 3.0996399999999653L4.831099999999992 3.097279999999955L4.389499999999998 1.5605999999999653L4.598600000000033 1.2192000000000007L5.207700000000045 0L6.375600000000077 0.6377899999999954L8.179300000000012 0.5540999999999485L8.808400000000006 0.8293599999999515L8.662500000000023 1.1531499999999824L9.4606 1.387990000000002L10.283700000000067 1.0882899999999722L11.206300000000056 3.034279999999967L12.572300000000041 2.8768399999999588L12.923900000000003 3.708319999999958L12.727400000000102 4.129539999999963L11.215000000000032 5.203719999999976L11.363500000000045 5.598549999999989L12.200700000000097 5.64864L12.83420000000001 6.188580000000002L12.694299999999998 7.013980000000004L13.631400000000099 7.953489999999988L14.862700000000018 7.662769999999966L16.35660000000007 8.44907999999998L17.52240000000006 8.19530999999995L19.302900000000022 6.376440000000002L20.778400000000033 5.555289999999957L22.140700000000038 8.063490000000002L24.04290000000003 5.547269999999969L24.57120000000009 6.676819999999964L25.866700000000037 6.8479600000000005L26.623199999999997 6.409569999999974L27.663600000000088 7.091009999999983L28.888000000000034 6.760419999999954L28.917800000000057 6.783689999999979L29.359300000000076 6.7722499999999854L29.693100000000072 7.591399999999965L31.470800000000054 8.812299999999993L31.48440000000005 9.663509999999974L30.6083000000001 9.744839999999954L30.797900000000027 9.950329999999951L32.10890000000006 10.203899999999976L33.54550000000006 9.214139999999986L33.92410000000007 9.467079999999953L34.54740000000004 9.09744999999998L35.898900000000026 8.976949999999988L37.011799999999994 9.740239999999972L37.14190000000008 10.324369999999988L36.714300000000094 11.575749999999971L35.69620000000009 12.301169999999956L35.906600000000026 12.702519999999993L34.73670000000004 12.793659999999988L33.46780000000001 11.960999999999956L33.12390000000005 13.254869999999983L32.712600000000066 13.397739999999999L31.659400000000005 12.70685999999995L30.233800000000087 13.643419999999992L29.53010000000006 15.475969999999961L27.57540000000006 16.83081999999996L26.262500000000045 17.921749999999975L24.61880000000008 18.76124999999996L23.864599999999996 18.266329999999982L23.20870000000002 16.673450000000003L21.40960000000007 18.021879999999953L21.779600000000073 18.25858999999997L21.961700000000064 20.007049999999992L20.402000000000044 20.560990000000004L20.309000000000083 21.323679999999968L19.93500000000006 21.563429999999983L18.736200000000053 21.655359999999973L18.3968000000001 23.288689999999974L17.244100000000003 23.87747999999999L16.578000000000088 24.63033999999999L19.783999999999992 26.10172L20.890800000000013 26.65080999999998L21.192800000000034 26.838729999999998L20.5381000000001 27.67194999999998L20.746600000000058 28.14713999999998L21.642400000000066 28.761559999999974L21.87850000000003 30.355889999999988L21.674000000000092 32.45245L22.38880000000006 32.99706999999995L22.216100000000097 33.41701999999998L20.435600000000022 34.76099999999997L20.660900000000083 35.10964999999999L21.476400000000012 35.131640000000004L21.941800000000057 35.816959999999995L21.387200000000007 36.183209999999974L21.824500000000057 36.782989999999984L21.25139999999999 37.16226999999998L21.100000000000023 37.32776999999999L20.47550000000001 37.966549999999984L21.011799999999994 39.66032999999999L20.864400000000046 40.55215999999996L22.656200000000013 41.25324999999998L23.771900000000073 40.625129999999956L25.097200000000043 40.43043L25.79849999999999 39.81608L26.979700000000093 39.14033999999998L29.717200000000048 40.61099999999999L29.939200000000028 41.33221999999995L29.60050000000001 42.00380999999999L29.844400000000064 42.786959999999965L31.148000000000025 43.839110000000005L32.27539999999999 43.71727999999996L32.771400000000085 42.981629999999996L33.789600000000064 43.64326999999997L34.068500000000085 44.04190999999997L35.51970000000006 44.146829999999966L37.17510000000004 44.922969999999964L38.3506000000001 44.658619999999985L39.95810000000006 47.14148L40.9045000000001 46.623009999999965L40.693700000000035 47.840539999999976L40.97790000000009 48.14747L41.762699999999995 48.420950000000005L42.5286000000001 48.10658999999998L42.8347 48.39116999999999L43.170900000000074 49.10732999999999L44.084100000000035 49.59922L46.5988000000001 51.50376L47.33840000000009 51.394499999999994L49.04970000000003 49.56867L50.00350000000003 49.045699999999954L50.15140000000008 51.534689999999955L49.63330000000008 52.191899999999976L49.392600000000016 54.63414L48.5476000000001 54.57047L48.25580000000002 54.88047L47.7808 56.46569999999997L49.518800000000056 58.440039999999954L49.19220000000007 58.75610999999998L50.385400000000004 59.77526999999998L49.70690000000002 60.33347999999995L49.3678000000001 61.58099999999996L47.379800000000046 63.34177999999997L48.428300000000036 64.17391999999995L47.769499999999994 64.77747L46.528099999999995 65.13959999999997L46.5535000000001 66.44022999999999L45.85770000000002 66.79470999999995L45.2170000000001 66.34333999999996L44.03530000000001 66.55066L43.4606 66.75668999999999L41.961400000000026 67.17469999999997L41.266000000000076 64.41154L40.50750000000005 64.13730999999996L40.159400000000005 64.35305L39.973299999999995 63.987229999999954L39.456500000000005 63.27364L38.177400000000034 63.581519999999955L37.3497000000001 63.30242999999996L37.414600000000064 62.9316L36.884900000000016 62.46652999999998L34.70450000000005 62.30845999999997L34.93190000000004 60.016189999999995L33.461200000000076 58.754549999999995L32.5865 61.00907999999998L30.911699999999996 61.55401999999998L30.340400000000045 62.24160999999998L29.910600000000045 61.27783999999997L29.50120000000004 61.150499999999965L29.02890000000002 60.45549z">
      <title id="t297">Deuxième circonscription de l'Oise</title>
      <desc id="d297">Cantons de : Auneuil, Beauvais Sud-Ouest, Chaumont-en-Vexin, Le Coudray-Saint-Germer, Formerie, Grandvilliers, Noailles, Songeons</desc>
    </path><path class="circo" id="id-060-03" d="M37.542100000000005 74.74782999999996L36.32060000000001 75.10640999999998L34.61760000000004 74.83693L34.1386 72.83547999999996L33.33350000000007 72.60739999999998L33.3438000000001 72.18492999999995L32.40740000000005 73.10946999999999L30.75960000000009 73.70345999999995L29.729400000000055 74.53231L29.71810000000005 74.56755999999996L28.31970000000001 75.01745L26.4208000000001 76.72137999999995L24.26520000000005 75.71452999999997L23.308400000000006 75.12604999999996L23.588600000000042 74.43696999999997L25.091499999999996 74.05494999999996L25.5616 72.14459999999997L25.92680000000007 71.96321L24.79460000000006 71.47003999999998L24.817800000000034 70.63558999999998L25.615800000000036 70.44973999999996L25.823800000000006 69.92051999999995L25.995300000000043 68.63439L26.807900000000018 68.37831L27.388599999999997 67.30334999999997L28.52150000000006 67.35127L29.696900000000028 66.19290999999998L30.47700000000009 65.91875999999996L30.380800000000022 65.10729999999995L29.598500000000058 65.10976999999997L28.362300000000005 65.42719999999997L27.185699999999997 64.90317999999996L26.480099999999993 64.51510999999999L26.4131000000001 63.73238999999995L24.95010000000002 63.86006999999995L25.383800000000065 63.161059999999964L25.26380000000006 62.36944999999997L27.473100000000045 58.53861999999998L28.28830000000005 60.38027999999997L29.02890000000002 60.45549L29.50120000000004 61.150499999999965L29.910600000000045 61.27783999999997L30.340400000000045 62.24160999999998L30.911699999999996 61.55401999999998L32.5865 61.00907999999998L33.461200000000076 58.754549999999995L34.93190000000004 60.016189999999995L34.70450000000005 62.30845999999997L36.884900000000016 62.46652999999998L37.414600000000064 62.9316L37.3497000000001 63.30242999999996L38.177400000000034 63.581519999999955L39.456500000000005 63.27364L39.973299999999995 63.987229999999954L40.159400000000005 64.35305L40.50750000000005 64.13730999999996L41.266000000000076 64.41154L41.961400000000026 67.17469999999997L43.4606 66.75668999999999L44.03530000000001 66.55066L45.2170000000001 66.34333999999996L45.85770000000002 66.79470999999995L46.5535000000001 66.44022999999999L46.528099999999995 65.13959999999997L47.769499999999994 64.77747L48.428300000000036 64.17391999999995L47.379800000000046 63.34177999999997L49.3678000000001 61.58099999999996L49.70690000000002 60.33347999999995L50.385400000000004 59.77526999999998L50.65460000000007 60.07406999999995L51.8972 59.73707999999999L52.65700000000004 60.02804999999995L54.664300000000026 59.29810999999995L56.20100000000002 61.55505999999997L57.48070000000007 62.63423999999998L58.73090000000002 61.92596999999995L58.74680000000001 62.32306L59.81180000000006 61.80867999999998L61.20320000000004 61.03645L61.96510000000001 62.17071999999996L63.25920000000008 62.620559999999955L63.474300000000085 62.96808999999996L64.43230000000005 64.51784999999995L65.60480000000007 65.20420999999999L65.28430000000003 66.80489L66.46770000000004 65.75703999999996L68.18200000000002 65.09222L68.57870000000003 63.89615999999995L68.79680000000008 65.14441999999997L70.06830000000002 66.28863999999999L69.95390000000009 67.98094999999995L67.87310000000002 68.74791999999997L65.3048 67.43303999999995L65.19850000000008 67.15143999999998L65.00890000000004 67.67743999999999L62.43020000000001 71.80680999999998L61.8275000000001 72.80555999999996L60.28800000000001 72.97390999999999L59.75750000000005 72.99198999999999L58.401800000000094 75.44090999999997L58.00030000000004 75.52947L57.91610000000003 76.81734L58.24350000000004 77.09531999999996L58.18730000000005 78.83249999999998L57.009000000000015 80.39025999999996L53.8198000000001 75.56887L52.8691 75.51164999999997L52.07040000000006 75.64026999999999L51.92660000000001 76.51606999999996L51.01330000000007 77.48392999999999L50.813800000000015 78.75619999999998L49.12360000000001 79.21008L48.75660000000005 78.96688999999998L48.17840000000001 79.56827999999996L47.00310000000002 79.84119999999996L44.85910000000001 79.47664999999995L46.30920000000003 77.97351999999995L45.192100000000096 76.24964L44.07860000000005 76.815L42.395200000000045 77.02614999999997L41.478000000000065 76.59499999999997L41.71320000000003 77.35703999999998L40.771400000000085 78.12782999999996L40.40240000000006 77.95297999999997L39.876100000000065 77.11923999999999L40.35750000000007 76.45482999999996L39.4756000000001 75.63532999999995L38.645500000000084 75.42438999999996L38.348100000000045 75.73870999999997L37.542100000000005 74.74782999999996z">
      <title id="t298">Troisième circonscription de l'Oise</title>
      <desc id="d298">Cantons de : Creil Sud, Méru, Montataire, Neuilly-en-Thelle</desc>
    </path><path class="circo" id="id-060-04" d="M107.6327 88.36347999999998L106.86580000000004 88.08727999999996L106.58850000000007 89.28594999999996L106.19069999999999 89.39599999999996L105.84850000000006 89.13722999999999L105.02380000000005 89.35615999999999L103.0983 88.43874999999997L102.5412 89.51641999999998L102.1291 89.32565999999997L100.58550000000002 90.26369999999997L99.23760000000004 90.42938999999996L98.29040000000009 88.50247999999999L97.46370000000002 88.74685999999997L96.65210000000002 88.46743999999995L95.25650000000007 86.86007999999998L93.76690000000008 87.81976999999995L93.10880000000009 88.01523999999995L93.46800000000007 88.76346999999998L91.77840000000003 88.71337999999997L93.21820000000002 89.72793999999999L91.14060000000006 91.34144999999995L88.94580000000008 91.67159999999996L88.04000000000008 89.07662999999997L86.2315000000001 91.11676L85.12160000000006 90.75011999999998L85.21780000000001 90.35309999999998L85.30550000000005 89.58155999999997L84.1268 88.39254999999997L81.8017000000001 86.50813L80.92680000000007 86.57745999999997L80.29770000000008 85.45267999999999L79.1155 87.25822999999997L78.34820000000002 87.19669999999996L78.0218000000001 88.02691999999996L76.66390000000001 89.18097L76.02560000000005 89.05131999999998L75.48230000000001 87.52082999999999L74.02500000000009 86.84943999999996L73.60480000000007 84.15030999999999L73.35980000000006 83.85976999999997L72.54960000000005 84.09328999999997L72.59490000000005 83.67494999999997L71.84960000000001 84.05887999999999L71.6096 86.59264999999999L68.1133000000001 85.71431999999999L69.0503 84.42160999999999L68.90350000000001 83.64832999999999L67.0145 82.90742L67.06540000000007 82.50523999999996L65.6803000000001 81.78564999999998L65.66020000000003 81.38405L65.26260000000002 81.33063999999996L63.47790000000009 82.13174999999995L63.77610000000004 81.15069L63.94580000000008 80.59102999999999L61.352300000000014 79.77452999999997L60.020500000000084 80.07434999999998L58.18730000000005 78.83249999999998L58.24350000000004 77.09531999999996L57.91610000000003 76.81734L58.00030000000004 75.52947L58.401800000000094 75.44090999999997L59.75750000000005 72.99198999999999L60.28800000000001 72.97390999999999L61.8275000000001 72.80555999999996L62.43020000000001 71.80680999999998L65.00890000000004 67.67743999999999L65.19850000000008 67.15143999999998L65.3048 67.43303999999995L67.87310000000002 68.74791999999997L69.95390000000009 67.98094999999995L70.06830000000002 66.28863999999999L68.79680000000008 65.14441999999997L68.57870000000003 63.89615999999995L68.62480000000005 63.81981999999999L69.66970000000003 63.18894L69.8854 61.999739999999974L70.20820000000003 61.28071L71.18560000000002 60.62559999999996L73.06220000000008 60.43176999999997L75.49520000000007 60.05255999999997L75.58300000000008 59.64907999999997L77.77629999999999 59.130179999999996L77.73450000000003 56.401269999999954L77.75240000000008 56.231179999999995L78.14710000000002 55.43531999999999L78.8578 56.34765999999996L79.57690000000002 56.35001L80.00150000000008 57.15591999999998L80.86090000000002 56.93263999999999L82.05230000000006 57.49122999999997L83.6169000000001 57.907749999999965L84.98650000000009 58.69457L86.3374 58.642409999999984L88.03320000000008 58.975030000000004L89.0557 56.49804999999998L89.8809 54.935779999999966L90.76570000000004 54.82971999999995L90.26400000000001 55.54085999999995L90.61500000000001 56.76504L90.80340000000001 57.565169999999966L92.10070000000007 57.480399999999975L92.0412 58.326859999999954L91.53250000000003 59.039829999999995L90.7962 59.04791L90.49340000000007 61.98774999999995L90.09210000000007 63.620739999999955L89.26290000000006 63.63284999999996L89.75720000000001 64.80234999999999L89.22460000000001 65.45403999999996L91.05020000000002 66.86372999999998L90.22860000000003 68.76249999999999L90.9439000000001 70.26517999999999L93.6758000000001 70.05262999999997L93.68990000000008 73.62748999999997L93.74340000000007 74.01799999999997L94.495 74.23938999999996L95.2143000000001 75.15673999999996L96.06270000000006 75.51945999999998L96.09850000000006 76.37876L96.43119999999999 76.08565999999996L97.68560000000002 76.11803999999995L98.90500000000009 74.91145L99.73230000000001 75.23372999999998L101.245 74.85825999999997L100.75510000000008 74.00187L101.61810000000003 74.05442L102.76940000000002 73.47736999999995L103.12890000000004 71.78911L104.00840000000005 71.77752999999996L105.03640000000007 70.95639L105.40380000000005 70.80854999999997L105.33780000000002 70.03987999999998L106.0141000000001 69.62738999999999L105.99520000000007 69.23075999999998L107.15010000000007 68.79569999999995L108.12490000000003 69.41886L108.43990000000008 69.39191L107.96310000000005 70.08243999999996L108.99400000000003 71.84752999999995L108.87740000000008 72.25115999999997L109.07450000000006 75.16663L109.8872 75.56392999999997L110.76610000000005 74.58979999999997L112.83070000000009 76.14846999999997L113.39570000000003 77.33974999999998L114.69180000000006 77.54827999999998L114.45130000000006 75.67550999999997L113.99549999999999 75.63324999999998L113.72059999999999 74.79361999999998L112.1477000000001 75.32646L111.8306 75.00951999999995L111.36070000000007 72.29514L111.89840000000004 71.62475999999998L112.80490000000009 71.42136999999997L114.06920000000002 71.93770999999998L114.4316 72.79293999999999L115.16070000000002 72.36748L115.90240000000006 72.68260999999995L116.67540000000008 73.00473999999997L116.38440000000003 73.78931999999998L116.84559999999999 74.48314999999997L117.65640000000008 74.10501999999997L118.43600000000004 74.50331L118.7383000000001 75.34089999999998L118.37160000000006 77.08127999999999L118.58820000000003 78.38117999999997L119.4742 79.11142999999998L118.84720000000004 77.05487999999997L120.17880000000002 73.89495L121.20730000000003 74.74419L120.90160000000003 77.37302999999997L121.12720000000002 77.75784999999996L122.25540000000001 78.4597L123.57540000000006 78.63959999999997L123.3257000000001 79.46299999999997L122.24560000000008 80.23938999999996L122.27050000000008 80.68679999999995L120.57450000000006 80.54996999999997L121.40600000000006 81.51838999999995L120.79830000000004 82.12381999999997L119.45320000000004 81.07194999999996L119.3778000000001 82.77608999999995L118.87270000000001 83.52648999999997L118.01790000000005 83.67494999999997L117.58070000000009 84.26083L116.25780000000009 86.29118999999997L116.29320000000007 87.08959999999996L117.0870000000001 88.45925999999997L114.39580000000001 88.01874999999995L114.06760000000008 88.25198999999998L112.56080000000009 87.73461999999995L111.8066 88.00173999999998L110.81290000000001 88.58994999999999L110.46180000000004 90.12550999999996L109.31230000000005 89.80604999999997L109.04169999999999 87.97175999999996L108.69370000000004 87.75369999999998L107.6327 88.36347999999998z">
      <title id="t299">Quatrième circonscription de l'Oise</title>
      <desc id="d299">Cantons de : Betz, Chantilly, Nanteuil-le-Haudouin, Pont-Sainte-Maxence, Senlis</desc>
    </path><path class="circo" id="id-060-05" d="M119.11315000000002 31.582349999999963L117.98815000000002 32.26984999999996L117.80065000000002 33.14484999999996L116.48815000000002 34.30109999999996L116.26940000000002 34.70734999999996L115.48815000000002 35.08234999999996L114.76940000000002 34.64484999999996L114.45690000000002 34.92609999999996L113.89440000000002 35.48859999999996L114.48815000000002 35.92609999999996L114.45690000000002 36.64484999999996L113.67565000000002 36.36359999999996L112.11315000000002 36.95734999999996L110.73815000000002 35.33234999999996L109.39440000000002 35.80109999999996L108.80065000000002 38.39484999999996L106.51940000000002 39.80109999999996L105.61315000000002 41.76984999999996L105.89440000000002 42.58234999999996L104.55065000000002 44.23859999999996L105.55065000000002 45.55109999999996L105.42565000000002 45.86359999999996L104.98815000000002 45.92609999999996L103.36315000000002 48.05109999999996L101.80065000000002 48.95734999999996L100.67565000000002 47.73859999999996L96.33190000000002 46.39484999999996L95.70690000000002 45.45734999999996L93.80065000000002 43.42609999999996L92.20690000000002 42.55109999999996L92.26940000000002 42.30109999999996L90.98815000000002 42.11359999999996L89.42565000000002 40.58234999999996L88.61315000000002 40.42609999999996L88.11315000000002 38.86359999999996L87.45690000000002 38.20734999999996L86.42565000000002 37.67609999999996L85.58190000000002 37.48859999999996L84.73815000000002 36.45734999999996L83.48815000000002 35.92609999999996L82.67565000000002 36.17609999999996L82.33190000000002 37.11359999999996L82.76940000000002 37.80109999999996L82.08190000000002 40.20734999999996L81.64440000000002 40.08234999999996L80.64440000000002 41.51984999999996L80.76940000000002 41.95734999999996L79.45690000000002 43.08234999999996L77.73815000000002 42.67609999999996L77.55065000000002 43.95734999999996L78.45690000000002 44.89484999999996L78.55065000000002 46.17609999999996L79.05065000000002 46.26984999999996L78.76940000000002 47.08234999999996L79.23815000000002 47.83234999999996L80.26940000000002 49.45734999999996L80.23815000000002 48.64484999999996L81.61315000000002 48.08234999999996L80.51940000000002 53.42609999999996L81.45690000000002 53.17609999999996L80.39440000000002 53.86359999999996L80.23815000000002 55.98859999999996L79.58190000000002 56.36359999999996L79.98815000000002 57.14484999999996L80.86315000000002 56.92609999999996L82.05065000000002 57.48859999999996L83.61315000000002 57.89484999999996L84.98815000000002 58.70734999999996L86.33190000000002 58.64484999999996L88.01940000000002 58.98859999999996L89.05065000000002 56.48859999999996L89.89440000000002 54.92609999999996L90.76940000000002 54.83234999999996L90.26940000000002 55.55109999999996L90.61315000000002 56.76984999999996L90.80065000000002 57.55109999999996L92.11315000000002 57.48859999999996L92.05065000000002 58.33234999999996L91.51940000000002 59.05109999999996L90.80065000000002 59.05109999999996L90.48815000000002 61.98859999999996L90.08190000000002 63.61359999999996L89.26940000000002 63.64484999999996L89.76940000000002 64.80109999999996L89.23815000000002 65.45734999999996L91.05065000000002 66.86359999999996L90.23815000000002 68.76984999999996L90.95690000000002 70.26984999999996L93.67565000000002 70.05109999999996L93.67565000000002 73.61359999999996L93.73815000000002 74.01984999999996L94.48815000000002 74.23859999999996L95.20690000000002 75.14484999999996L96.05065000000002 75.51984999999996L96.11315000000002 76.36359999999996L96.42565000000002 76.08234999999996L97.67565000000002 76.11359999999996L98.89440000000002 74.92609999999996L99.73815000000002 75.23859999999996L101.23815000000002 74.86359999999996L100.76940000000002 73.98859999999996L101.61315000000002 74.05109999999996L102.76940000000002 73.48859999999996L103.14440000000002 71.80109999999996L104.01940000000002 71.76984999999996L105.05065000000002 70.95734999999996L105.39440000000002 70.80109999999996L105.33190000000002 70.05109999999996L106.01940000000002 69.61359999999996L105.98815000000002 69.23859999999996L107.14440000000002 68.80109999999996L108.11315000000002 69.42609999999996L108.42565000000002 69.39484999999996L111.61315000000002 68.89484999999996L112.58190000000002 69.73859999999996L112.17565000000002 70.48859999999996L112.92565000000002 70.98859999999996L113.76940000000002 70.92609999999996L114.80065000000002 69.58234999999996L114.30065000000002 67.89484999999996L114.30065000000002 67.83234999999996L113.73815000000002 65.64484999999996L114.08190000000002 64.83234999999996L113.80065000000002 64.23859999999996L113.80065000000002 63.80109999999996L114.45690000000002 63.20734999999996L114.55065000000002 62.76984999999996L114.42565000000002 62.36359999999996L114.01940000000002 62.14484999999996L113.61315000000002 62.23859999999996L113.11315000000002 62.95734999999996L112.67565000000002 62.89484999999996L112.98815000000002 62.05109999999996L112.64440000000002 61.80109999999996L110.92565000000002 62.01984999999996L110.55065000000002 60.95734999999996L108.92565000000002 60.17609999999996L109.20690000000002 59.92609999999996L109.64440000000002 59.30109999999996L108.42565000000002 57.73859999999996L110.70690000000002 56.33234999999996L111.61315000000002 55.30109999999996L112.55065000000002 55.67609999999996L114.14440000000002 56.39484999999996L114.55065000000002 57.17609999999996L115.55065000000002 55.73859999999996L117.30065000000002 54.36359999999996L117.64440000000002 54.26984999999996L118.01940000000002 53.30109999999996L118.05065000000002 51.14484999999996L118.36315000000002 50.83234999999996L119.48815000000002 50.26984999999996L119.17565000000002 47.70734999999996L119.61315000000002 47.73859999999996L119.58190000000002 44.70734999999996L119.51940000000002 44.23859999999996L119.48815000000002 42.98859999999996L119.98815000000002 42.33234999999996L120.86315000000002 42.45734999999996L121.80065000000002 43.33234999999996L122.23815000000002 43.30109999999996L125.51940000000002 42.14484999999996L125.23815000000002 41.89484999999996L125.58190000000002 41.33234999999996L124.67565000000002 40.39484999999996L122.48815000000002 39.36359999999996L120.58190000000002 38.55109999999996L120.48815000000002 37.73859999999996L121.95690000000002 36.92609999999996L121.76940000000002 35.23859999999996L120.58190000000002 33.92609999999996L119.76940000000002 32.92609999999996L119.64440000000002 32.05109999999996L119.11315000000002 31.582349999999963zM111.26940000000002 70.48859999999996L111.08190000000002 70.58234999999996L110.92565000000002 70.61359999999996L110.86315000000002 70.61359999999996L110.83190000000002 70.51984999999996L110.67565000000002 70.61359999999996L110.48815000000002 70.67609999999996L110.55065000000002 70.86359999999996L110.58190000000002 71.01984999999996L110.55065000000002 71.01984999999996L110.17565000000002 71.17609999999996L109.92565000000002 71.36359999999996L109.92565000000002 71.39484999999996L110.20690000000002 71.42609999999996L110.20690000000002 71.58234999999996L110.30065000000002 71.58234999999996L110.23815000000002 71.83234999999996L110.36315000000002 71.95734999999996L110.42565000000002 71.92609999999996L110.48815000000002 71.92609999999996L110.39440000000002 72.11359999999996L110.48815000000002 72.08234999999996L110.64440000000002 72.14484999999996L110.76940000000002 72.11359999999996L110.83190000000002 71.95734999999996L111.01940000000002 71.92609999999996L111.05065000000002 72.08234999999996L111.08190000000002 72.08234999999996L111.08190000000002 71.95734999999996L111.20690000000002 71.70734999999996L111.30065000000002 71.73859999999996L111.36315000000002 71.58234999999996L111.45690000000002 71.55109999999996L111.42565000000002 71.45734999999996L111.33190000000002 71.42609999999996L111.26940000000002 71.36359999999996L111.26940000000002 71.26984999999996L111.30065000000002 71.08234999999996L111.33190000000002 71.05109999999996L111.70690000000002 71.08234999999996L111.67565000000002 70.98859999999996L111.51940000000002 70.58234999999996L111.30065000000002 70.48859999999996L111.26940000000002 70.48859999999996z">
      <title id="t300">Cinquième circonscription de l'Oise</title>
      <desc id="d300">Cantons de : Attichy, Compiègne Sud-Est, Compiègne Sud-Ouest, Crépy-en-Valois, Estrées-Saint-Denis</desc>
    </path><path class="circo" id="id-060-06" d="M101.81540000000007 48.947630000000004L100.67400000000009 47.73208999999997L96.34490000000005 46.385789999999986L95.69280000000003 45.44993999999997L93.8161 43.422709999999995L92.21230000000003 42.536509999999964L92.28309999999999 42.31428L91.00310000000002 42.126559999999984L89.43860000000006 40.56981999999999L88.61890000000005 40.41865999999999L88.10500000000002 38.86881999999997L87.44500000000005 38.21992L86.43370000000004 37.69104999999996L85.57820000000004 37.475599999999986L84.74880000000007 36.46871999999996L83.50240000000008 35.929359999999974L82.68020000000001 36.17391999999995L82.59320000000002 36.11438999999996L80.81060000000002 35.07195999999999L80.5843000000001 33.81560999999999L81.36000000000001 32.315499999999986L80.80860000000007 31.797799999999995L80.81020000000001 31.37537999999995L81.26760000000002 29.212310000000002L82.2736000000001 28.406019999999955L82.274 26.881179999999972L82.1477000000001 26.44952999999998L81.31940000000009 26.10577999999998L81.9615 25.23487L81.6880000000001 24.999329999999986L83.481 23.73339999999996L83.35110000000009 21.30885999999998L83.76820000000009 21.294179999999983L83.75290000000007 20.984249999999975L84.91669999999999 18.96841999999998L85.029 17.931600000000003L85.8248000000001 17.852989999999977L86.14230000000009 18.16188999999997L87.01420000000007 18.021879999999953L87.70390000000009 18.534659999999974L88.11260000000004 18.053369999999973L89.73970000000008 17.991299999999967L90.86200000000008 18.546599999999955L91.04320000000007 18.9717L92.42910000000006 19.346000000000004L93.2962 19.605369999999994L94.0426 19.08938999999998L94.35210000000006 18.754959999999983L94.15820000000008 17.408789999999954L93.64580000000001 15.767259999999965L93.94010000000003 14.061759999999992L94.66950000000008 13.586829999999964L94.50630000000001 13.243839999999977L97.83890000000008 13.322360000000003L98.15470000000005 13.615579999999966L98.73390000000006 13.11291L98.34930000000008 12.016159999999957L98.50319999999999 11.82938999999999L99.4067 11.045199999999966L99.59800000000007 10.694189999999992L99.29500000000007 10.435119999999984L99.6241 10.154629999999997L100.88990000000001 10.301249999999982L101.1065000000001 11.115479999999991L102.01769999999999 12.019439999999975L102.2537000000001 11.694489999999973L101.98610000000008 10.531029999999987L101.84490000000005 9.690709999999967L100.0969 7.840849999999989L101.24760000000003 7.145690000000002L101.4149000000001 6.373019999999997L101.59270000000004 6.350279999999998L102.31510000000003 8.341709999999978L103.5535000000001 8.00237999999996L104.11040000000003 6.918679999999995L105.92660000000001 11.239620000000002L106.24070000000006 10.956009999999992L106.92250000000001 11.441899999999976L107.49990000000003 12.56383999999997L107.73670000000004 11.018799999999999L107.12900000000002 10.418309999999963L107.24350000000004 9.115979999999979L108.89880000000005 8.618079999999964L109.55310000000009 7.553939999999955L109.9747000000001 7.653039999999976L110.82140000000004 7.162779999999998L111.84370000000001 7.930359999999951L112.178 9.125309999999956L112.6101000000001 9.151459999999986L112.91480000000001 9.944809999999961L113.87630000000001 10.78798999999998L114.31670000000008 10.391509999999982L114.91320000000007 8.827539999999999L116.17290000000003 8.955799999999954L116.36470000000008 7.622680000000003L115.92740000000003 6.358689999999967L118.55270000000007 6.526299999999992L118.2025000000001 9.264459999999985L118.61700000000008 9.217679999999973L119.33870000000002 8.218439999999987L119.73890000000006 7.396999999999991L121.55610000000001 7.401739999999961L122.17360000000008 8.628589999999974L121.3546 10.65083999999996L122.2727000000001 12.171269999999993L121.97910000000002 13.268389999999954L121.46930000000009 12.677570000000003L120.67600000000004 12.809679999999958L120.61610000000007 13.604949999999974L119.9181000000001 13.87543999999997L119.66880000000003 14.652589999999975L120.47550000000001 14.87904999999995L120.88620000000003 15.625099999999975L121.0557 17.18687L119.6798 18.21804999999995L119.42439999999999 18.339159999999993L120.14060000000006 19.225570000000005L121.88589999999999 21.030419999999992L122.0258 21.787289999999985L123.20510000000002 24.104539999999986L123.2844 24.464L122.2641000000001 24.84872999999999L122.20630000000006 25.746159999999975L122.66780000000006 26.512429999999995L122.64650000000006 28.718989999999962L122.17420000000004 28.92543999999998L122.34220000000005 30.290009999999995L121.88020000000006 31.56039999999996L119.65820000000008 32.05625999999995L119.10020000000009 31.573099999999954L118.00010000000009 32.26273999999995L117.7962 33.12967999999995L116.4778 34.31430999999998L116.2641000000001 34.69412999999997L115.4991 35.07941999999997L114.77690000000007 34.63561999999996L114.46590000000003 34.93074999999999L113.9027000000001 35.47384999999997L114.49470000000008 35.91391999999996L114.4674 36.63135L113.66430000000003 36.35933L112.10230000000001 36.96812L110.72450000000003 35.344029999999975L109.4063000000001 35.80897999999996L108.79410000000007 38.39833999999996L106.50560000000007 39.790189999999996L105.5979000000001 41.76417999999995L105.88440000000003 42.578209999999956L104.53650000000005 44.24867999999998L105.56370000000004 45.554989999999975L105.4375 45.854439999999954L104.98430000000008 45.91597999999999L101.81540000000007 48.947630000000004z">
      <title id="t301">Sixième circonscription de l'Oise</title>
      <desc id="d301">Cantons de: Compiègne Nord, Guiscard, Lassigny, Noyon, Ressons-sur-Matz, Ribécourt-Dreslincourt</desc>
    </path><path class="circo" id="id-060-07" d="M57.83789999999999 40.585109999999986L56.57280000000003 39.354169999999954L56.95300000000009 38.533979999999985L56.785400000000095 38.11448999999999L55.49310000000003 38.06046999999995L53.7238000000001 36.819759999999974L52.24549999999999 37.261829999999975L52.09649999999999 38.83637999999996L51.52520000000004 39.18584999999996L48.68140000000005 39.81019999999995L50.06190000000004 42.48983999999996L50.22130000000004 43.52452999999997L49.7496000000001 47.64866999999998L50.23680000000002 48.95206999999999L50.00350000000003 49.045699999999954L50.15140000000008 51.534689999999955L49.63330000000008 52.191899999999976L49.392600000000016 54.63414L48.5476000000001 54.57047L48.25580000000002 54.88047L47.7808 56.46569999999997L49.518800000000056 58.440039999999954L49.19220000000007 58.75610999999998L50.385400000000004 59.77526999999998L50.65460000000007 60.07406999999995L51.8972 59.73707999999999L52.65700000000004 60.02804999999995L54.664300000000026 59.29810999999995L56.20100000000002 61.55505999999997L57.48070000000007 62.63423999999998L58.73090000000002 61.92596999999995L58.74680000000001 62.32306L59.81180000000006 61.80867999999998L61.20320000000004 61.03645L61.96510000000001 62.17071999999996L63.25920000000008 62.620559999999955L63.474300000000085 62.96808999999996L64.43230000000005 64.51784999999995L65.60480000000007 65.20420999999999L65.28430000000003 66.80489L66.46770000000004 65.75703999999996L68.18200000000002 65.09222L68.57870000000003 63.89615999999995L68.62480000000005 63.81981999999999L69.66970000000003 63.18894L69.8854 61.999739999999974L70.20820000000003 61.28071L71.18560000000002 60.62559999999996L73.06220000000008 60.43176999999997L75.49520000000007 60.05255999999997L75.58300000000008 59.64907999999997L77.77629999999999 59.130179999999996L77.73450000000003 56.401269999999954L77.75240000000008 56.231179999999995L78.14710000000002 55.43531999999999L78.8578 56.34765999999996L79.57690000000002 56.35001L80.25319999999999 55.97981999999996L80.40840000000003 53.86000999999999L81.46720000000005 53.17125999999996L80.52340000000004 53.43133999999998L81.60500000000002 48.08934999999997L80.23440000000005 48.647400000000005L80.25810000000001 49.44657999999998L79.2333000000001 47.83857999999998L78.7767 47.09523999999999L79.04770000000008 46.258009999999956L78.55550000000005 46.16289999999998L78.47210000000007 44.90558999999996L77.55380000000002 43.95868999999999L77.74760000000003 42.66316999999998L77.84670000000006 42.34538999999995L77.19820000000004 42.20891999999998L75.50110000000006 41.88993999999997L74.68299999999999 43.34886999999998L74.2826 43.16314L73.3207000000001 43.55510999999996L73.13710000000003 43.19776999999999L71.98710000000005 43.26560999999998L71.30630000000008 42.84433999999999L70.84730000000002 43.27123L69.9045000000001 43.685810000000004L69.52210000000002 43.78460999999999L69.05310000000009 42.595069999999964L68.3356 42.16146999999995L67.48430000000008 42.94707999999997L65.59080000000006 42.21845999999999L65.3931 42.595849999999984L64.78690000000006 42.020669999999996L65.36860000000001 40.03538999999995L65.12240000000008 39.691449999999975L63.45210000000009 40.17098999999996L62.197900000000004 39.66764999999998L60.95810000000006 40.18118999999996L60.5757000000001 39.981899999999996L60.27800000000002 40.29442999999998L59.8655 41.51513L58.7709000000001 41.64821999999998L58.44850000000008 41.771889999999985L57.83789999999999 40.585109999999986z">
      <title id="t302">Septième circonscription de l'Oise</title>
      <desc id="d302">Cantons de Clermont, Creil-Nogent-sur-Oise, Liancourt Mouy</desc>
    </path></svg>