<svg xmlns="http://www.w3.org/2000/svg" version="1.1" xmlns:xlink="http://www.w3.org/1999/xlink" xmlns:svgjs="http://svgjs.dev/svgjs" viewBox="0 0 156.13049999999998 101.81568999999996"><path class="circo" id="id-061-01" d="M81.9176 72.01607000000001L81.58500000000004 72.31765000000001L80.24559999999997 72.30946L80.25440000000003 72.42444999999998L78.85879999999997 72.94549L77.76400000000001 74.81212L78.44749999999999 75.89395000000002L78.24969999999996 76.28968000000003L76.5059 76.22953000000001L75.09500000000003 76.255L73.5788 75.04726L73.41930000000002 74.23401000000001L71.41840000000002 74.49835999999999L71.25419999999997 75.28484000000003L68.7636 76.51709L68.91060000000004 76.90433000000002L68.49760000000003 76.02514000000002L68.25829999999996 75.24502999999999L68.57179999999994 74.55290000000002L68.23839999999996 69.99671000000001L68.43909999999994 69.80430000000001L68.82330000000002 67.24114000000003L67.8161 66.48189000000002L67.02089999999998 66.53701000000001L66.7142 67.28869000000003L66.30380000000002 67.35430000000002L63.93089999999995 67.56999000000002L61.41599999999994 66.9556L60.472099999999955 66.19004000000001L60.54129999999998 64.54608000000002L60.08360000000005 63.86255L60.36810000000003 63.605200000000025L59.91949999999997 62.170799999999986L59.75909999999999 61.38159000000002L58.89689999999996 60.52454L58.50509999999997 60.63166000000001L58.96569999999997 59.01900999999998L60.77449999999999 58.19078999999999L60.84119999999996 57.34460999999999L57.89610000000005 55.56078000000002L56.83579999999995 54.273180000000025L56.48410000000001 53.72895L55.50800000000004 52.88065L54.36019999999996 53.177340000000015L53.121099999999956 52.78996999999998L52.50800000000004 52.176890000000014L51.94240000000002 53.70801L51.247100000000046 54.237360000000024L50.983100000000036 54.59985999999998L52.47239999999999 56.149670000000015L51.81110000000001 57.302509999999984L50.31910000000005 58.25418000000002L50.05049999999994 59.94978000000003L48.88310000000001 59.7962L48.83230000000003 58.95960000000002L48.474199999999996 58.74119999999999L46.870900000000006 58.55421999999999L45.91179999999997 57.96375999999998L44.659400000000005 59.74051000000003L44.50189999999998 60.5951L43.059999999999945 61.355290000000025L43.11410000000001 62.98698000000002L42.03779999999995 62.50297999999998L41.8451 61.789480000000026L41.19309999999996 61.40620999999999L39.69749999999999 60.768280000000004L39.81190000000004 60.026369999999986L39.33109999999999 59.55729000000002L38.66579999999999 60.07936000000001L36.96870000000001 59.96118999999999L37.05160000000001 59.85482999999999L35.14670000000001 58.98937000000001L34.81989999999996 59.26139999999998L33.511799999999994 59.299260000000004L32.48490000000004 60.70440000000002L31.255199999999945 60.63409999999999L29.841699999999946 59.77156000000002L29.047900000000027 61.21983L27.664499999999975 61.989959999999996L26.113200000000006 64.37286L25.702199999999948 64.47453000000002L25.16980000000001 63.87396000000001L24.54219999999998 64.89082000000002L22.70889999999997 64.64531L22.61500000000001 64.43017000000003L20.97289999999998 65.95661999999999L17.523000000000025 68.01580999999999L17.549300000000017 66.81538999999998L17.187000000000012 64.13193999999999L16.279899999999998 62.642769999999985L16.259599999999978 63.04917999999998L15.856700000000046 63.00096000000002L15.019300000000044 63.86358000000001L15.024400000000014 64.66467L14.652000000000044 64.82531L13.830799999999954 64.98966999999999L13.353399999999965 64.38286L12.18999999999994 64.71249L11.48479999999995 64.30824000000001L10.841499999999996 64.8757L10.634199999999964 65.72717L12.278099999999995 67.20193L8.830000000000041 68.99063999999998L8.106300000000033 68.94220999999999L7.343899999999962 68.25043L6.892100000000028 67.5127L7.011700000000019 65.34132L5.689899999999966 65.35991000000001L4.047799999999938 66.68619999999999L3.5498000000000047 64.95429000000001L3.768799999999942 64.60068999999999L3.2618999999999687 63.97397999999998L2.017500000000041 62.769859999999994L1.2355999999999767 61.183910000000026L0 60.718770000000006L0.3691000000000031 59.78426999999999L1.0920999999999594 58.23031000000003L2.802099999999996 56.84415000000001L4.373299999999972 54.76177999999999L4.6521000000000186 54.52050000000003L5.932800000000043 54.22271999999998L7.195500000000038 52.96836999999999L7.296899999999937 51.22484000000003L7.9202999999999975 49.17561999999998L8.678499999999985 48.74007L9.239599999999996 47.62414000000001L9.125699999999938 45.53984000000003L9.403999999999996 45.223130000000026L10.233100000000036 45.27404999999999L9.92840000000001 44.52071999999998L8.32039999999995 43.99752999999998L7.441500000000019 41.20942000000002L7.400999999999954 40.77217999999999L8.383799999999951 39.934799999999996L8.811900000000037 38.70666L10.140800000000013 37.67423000000002L10.548400000000015 37.83812L10.982600000000048 39.07981000000001L11.918900000000008 39.96955000000003L13.670399999999972 36.18220000000002L16.907500000000027 37.40812L17.290399999999977 37.439009999999996L17.22079999999994 35.85730000000001L17.56359999999995 35.16881000000001L17.31970000000001 34.39499000000001L18.106499999999983 34.55561L19.396100000000047 34.68621000000002L20.96640000000002 35.42214000000001L23.27520000000004 36.54326000000003L22.13429999999994 37.763829999999984L21.49879999999996 39.28820000000002L23.695699999999988 41.59323999999998L24.035300000000007 42.333140000000014L23.32439999999997 43.03269999999998L26.46690000000001 45.38001000000003L27.281600000000026 45.03757000000002L27.56669999999997 44.20961L28.393699999999967 43.904920000000004L28.494100000000003 43.02370000000002L29.293000000000006 42.93815999999998L30.139599999999973 43.80151000000001L32.2672 46.07602000000003L33.582899999999995 44.911159999999995L34.43769999999995 45.10854999999998L36.49509999999998 42.84849000000003L37.300700000000006 42.70672999999999L39.40989999999999 43.121590000000026L40.03610000000003 42.53628000000003L42.099399999999946 42.067859999999996L43.14440000000002 40.20789000000002L45.19719999999995 39.65848L46.19349999999997 38.264099999999985L47.29589999999996 39.40082000000001L46.29549999999995 41.27813000000003L43.41650000000004 43.14319999999998L42.23419999999999 44.39674000000002L42.3809 44.66951L43.58450000000005 45.20524999999998L44.39300000000003 44.858299999999986L45.70339999999999 44.975329999999985L46.28409999999997 43.84512000000001L47.588499999999954 43.86775L48.79039999999998 42.70004L49.90949999999998 44.96683999999999L50.07420000000002 46.269270000000006L49.566799999999944 46.975599999999986L49.5684 47.850509999999986L50.57730000000004 47.07947999999999L51.41139999999996 45.61532L52.238200000000006 45.82080000000002L52.61279999999999 46.652660000000026L53.69659999999999 46.205370000000016L54.35889999999995 47.13656000000003L54.65390000000002 46.361710000000016L55.90139999999997 46.36054999999999L56.87559999999996 45.65080999999998L57.540899999999965 44.48354999999998L58.71199999999999 43.80884000000003L59.86770000000001 43.31774999999999L60.385599999999954 43.971929999999986L61.313499999999976 43.21008999999998L61.864900000000034 42.14699000000002L62.601999999999975 42.45008999999999L62.69539999999995 42.85518000000002L62.053499999999985 44.374360000000024L64.2074 46.755769999999984L65.4099 46.75808000000001L66.04549999999995 47.79086000000001L66.79830000000004 46.52782000000002L67.46879999999999 46.11279999999999L69.39980000000003 46.63157000000001L70.03570000000002 46.1533L70.88329999999996 47.13321000000002L70.75189999999998 48.37416000000002L71.26779999999997 49.07512000000003L72.0566 48.73595999999998L73.00329999999997 46.81143000000003L75.09839999999997 46.249210000000005L75.50660000000005 47.01147000000003L76.29489999999998 47.386720000000025L76.57979999999998 46.33677L78.23950000000002 46.44130000000001L79.6132 47.45355999999998L80.2844 46.91608000000002L81.61569999999995 44.076239999999984L81.93539999999996 43.75997000000001L82.78219999999999 44.06234999999998L83.43949999999995 42.45895999999999L81.67560000000003 40.63603999999998L81.29589999999996 39.85552999999999L81.73029999999994 39.10504000000003L82.73080000000004 39.99374999999998L83.61869999999999 39.85822999999999L85.67349999999999 40.75983000000002L86.96789999999999 40.75713000000002L86.6055 39.44162L89.14679999999998 39.64445999999998L91.01409999999998 38.68606L92.28769999999997 38.67229000000003L92.60619999999994 37.67281000000003L93.08439999999996 37.0059L95.13260000000002 36.831169999999986L95.56060000000002 38.04795999999999L96.53610000000003 38.90269999999998L96.58100000000002 39.33440000000002L97.54999999999995 39.93918000000002L98.43060000000003 38.63702000000001L99.44960000000003 39.22062L99.97550000000001 38.620029999999986L101.17880000000002 38.47367000000003L102.23609999999996 37.86669999999998L103.37170000000003 37.553859999999986L103.83950000000004 39.28278999999998L104.71870000000001 38.70202999999998L105.95659999999998 39.95231000000001L106.30089999999996 39.676890000000014L107.12009999999998 41.728459999999984L108.6209 42.469899999999996L108.12270000000001 43.19130999999999L108.56870000000004 43.94762000000003L109.97159999999997 43.54054000000002L111.57839999999999 45.08566000000002L109.21370000000002 47.59715L108.93510000000003 47.85962999999998L108.9375 49.38420000000002L109.01070000000004 49.54482999999999L108.73080000000004 52.34773000000001L109.09630000000004 52.597050000000024L109.45770000000005 54.24736999999999L109.94330000000002 54.79554999999999L109.78149999999994 54.99610999999999L107.8406 57.96786000000003L107.8714 58.41730000000001L107.03610000000003 58.54421000000002L106.56499999999994 59.24241000000001L105.73209999999995 59.130269999999996L105.25580000000002 59.59309000000002L104.60749999999996 59.386000000000024L104.17880000000002 59.96388999999999L103.60180000000003 59.75116000000003L102.75810000000001 60.06819999999999L102.36940000000004 60.15518000000003L101.85860000000002 62.35934000000003L99.8863 64.34363000000002L98.45579999999995 63.49454000000003L97.23569999999995 63.285000000000025L96.4253 63.41451999999998L95.81200000000001 62.884000000000015L95.4651 63.10392999999999L95.37369999999999 63.55608999999998L94.33320000000003 64.18105000000003L92.29769999999996 64.38632000000001L91.66070000000002 64.26580000000001L89.70399999999995 65.55500999999998L89.44920000000002 65.73486000000003L87.78110000000004 65.54425000000003L87.6078 66.39397000000002L87.89329999999995 67.20398L87.09270000000004 67.26972L86.09759999999994 66.46690000000001L85.36680000000001 66.68261000000001L86.29819999999995 67.91906L86.59029999999996 68.20379000000003L86.1653 68.86162000000002L83.82420000000002 69.34463L83.48919999999998 69.11351000000002L82.61850000000004 69.58254L81.9176 72.01607000000001z">
      <title id="t303">Première circonscription de l'Orne</title>
      <desc id="d303">Cantons de : Alençon I, Alençon II, Alençon III, Carrouges, Courtomer, Domfront, La Ferté-Macé, Juvigny-sous-Andaine, Le Mêle-sur-Sarthe, Passais, Sées.</desc>
    </path><path class="circo" id="id-061-02" d="M109.45770000000005 54.24736999999999L109.09630000000004 52.597050000000024L108.73080000000004 52.34773000000001L109.01070000000004 49.54482999999999L108.9375 49.38420000000002L108.93510000000003 47.85962999999998L109.21370000000002 47.59715L111.57839999999999 45.08566000000002L109.97159999999997 43.54054000000002L108.56870000000004 43.94762000000003L108.12270000000001 43.19130999999999L108.6209 42.469899999999996L107.12009999999998 41.728459999999984L106.30089999999996 39.676890000000014L105.95659999999998 39.95231000000001L104.71870000000001 38.70202999999998L103.83950000000004 39.28278999999998L103.37170000000003 37.553859999999986L102.23609999999996 37.86669999999998L101.17880000000002 38.47367000000003L99.97550000000001 38.620029999999986L99.44960000000003 39.22062L98.43060000000003 38.63702000000001L97.54999999999995 39.93918000000002L96.58100000000002 39.33440000000002L96.53610000000003 38.90269999999998L95.56060000000002 38.04795999999999L95.13260000000002 36.831169999999986L93.08439999999996 37.0059L92.60619999999994 37.67281000000003L89.5738 37.12783000000002L87.54949999999997 36.221090000000004L87.45979999999997 35.78041999999999L87.93610000000001 34.29581000000002L88.34720000000004 34.381849999999986L89.13350000000003 33.41469000000001L89.52559999999994 31.78883000000002L89.29899999999998 31.433940000000007L89.95029999999997 31.37479000000002L91.28039999999999 31.18484000000001L93.49969999999996 28.898000000000025L93.23419999999999 27.425610000000006L94.89390000000003 26.035169999999994L94.69539999999995 24.718860000000006L94.33109999999999 24.459949999999992L93.3442 23.87914999999998L92.21159999999998 23.96314000000001L90.96450000000004 22.41297000000003L90.97149999999999 21.131680000000017L91.53740000000005 19.539780000000007L91.23850000000004 19.40861000000001L91.6834 16.442380000000014L92.42549999999994 16.087289999999996L91.94190000000003 15.420729999999992L91.20669999999996 15.869889999999998L89.98979999999995 15.449279999999987L89.02850000000001 14.58963L89.06290000000001 14.155759999999987L88.74350000000004 13.94398000000001L88.36339999999996 14.76224000000002L86.68359999999996 16.280399999999986L85.87339999999995 16.08418999999998L85.46759999999995 15.952429999999993L85.23479999999995 14.706430000000012L87.25980000000004 13.176269999999988L87.1798 12.757029999999986L85.56550000000004 12.879290000000026L83.95439999999996 13.285590000000013L83.01070000000004 12.494410000000016L82.31409999999994 10.347059999999999L80.84709999999995 11.116530000000012L81.04380000000003 8.954499999999996L80.54319999999996 7.333210000000008L79.83100000000002 6.966110000000015L78.55089999999996 7.219769999999983L78.72299999999996 6.007400000000018L79.99450000000002 4.47556000000003L81.75660000000005 4.717800000000011L83.78499999999997 2.9302900000000136L83.97979999999995 2.633230000000026L84.71770000000004 2.8684200000000146L85.54539999999997 4.14855L85.957 5.874270000000024L86.32619999999997 6.135600000000011L87.65030000000002 5.897040000000004L88.36119999999994 5.521059999999977L89.05520000000001 4.075690000000009L91.40739999999994 3.3795499999999947L92.22619999999995 4.177410000000009L93.43989999999997 3.8912799999999947L93.90750000000003 1.8134299999999826L95.37350000000004 1.0471299999999815L96.61239999999998 0.9295700000000124L96.77909999999997 2.905050000000017L97.16409999999996 3.061800000000005L99.375 2.3733100000000036L101.45830000000001 3.8546499999999924L103.44669999999996 2.968999999999994L105.21669999999995 0L107.50509999999997 1.2708499999999958L107.14689999999996 2.563850000000002L108.22310000000004 2.839429999999993L106.72699999999998 5.648250000000019L106.35400000000004 5.882940000000019L105.95349999999996 8.024920000000009L108.65930000000003 9.586680000000001L108.97720000000004 10.87220000000002L109.36180000000002 11.108519999999999L110.2541 11.227190000000007L111.38729999999998 10.550560000000019L110.79819999999995 11.808480000000031L112.00940000000003 12.00533999999999L112.15689999999995 10.96656999999999L113.45539999999994 11.061980000000005L115.34029999999996 12.13226000000003L117.40890000000002 11.871430000000032L119.87289999999996 12.658290000000022L120.20640000000003 12.380420000000015L122.26769999999999 10.209240000000023L123.76390000000004 10.936840000000018L123.84730000000002 11.351929999999982L122.94290000000001 12.15527000000003L123.25289999999995 12.930600000000027L124.88829999999996 12.530730000000005L124.58280000000002 13.815539999999999L125.04020000000003 15.06765999999999L125.78679999999997 15.495920000000012L127.00490000000002 15.071020000000033L124.80319999999995 18.11265000000003L126.57960000000003 19.059110000000032L128.13070000000005 20.38909000000001L129.2346 20.787050000000022L131.79899999999998 23.073129999999992L132.95449999999994 23.399190000000033L133.75620000000004 23.782129999999995L134.02620000000002 24.114469999999983L135.22900000000004 24.165560000000028L135.98680000000002 25.205820000000017L137.3746 26.15949999999998L137.46090000000004 26.63280000000003L136.97479999999996 27.398529999999994L139.01260000000002 30.385400000000004L138.04359999999997 31.287289999999985L137.60180000000003 32.54621000000003L136.34000000000003 33.00888000000003L135.07949999999994 34.31666999999999L135.27089999999998 34.705280000000016L136.9841 34.68621000000002L138.35529999999994 35.73649999999998L138.3913 36.07157999999998L137.962 36.782370000000014L138.08640000000003 38.324220000000025L138.4533 38.96822000000003L139.46609999999998 39.50018L139.62210000000005 39.50853999999998L140.83569999999997 38.42860999999999L142.39440000000002 39.03951999999998L141.98019999999997 39.80378999999999L143.13779999999997 41.549109999999985L143.0743 43.52111000000002L143.83460000000002 43.76742999999999L142.745 45.686170000000004L143.03859999999997 46.92405000000002L145.0371 46.90604999999999L145.32640000000004 49.87173999999999L146.85400000000004 51.412919999999986L149.03520000000003 51.684889999999996L150.50779999999997 52.673220000000015L151.82050000000004 53.24875000000003L152.79200000000003 54.66766000000001L151.6916 56.02411999999998L152.34159999999997 56.523360000000025L155.39300000000003 57.84158000000002L154.28099999999995 60.30682999999999L153.16719999999998 61.073469999999986L154.34389999999996 61.84733L154.14480000000003 63.45094L152.6703 64.04681L152.88570000000004 64.85120999999998L153.09079999999994 66.14825000000002L154.3592 67.91906L155.9706 68.34780999999998L156.13049999999998 68.75540000000001L153.48479999999995 71.40172000000001L153.74749999999995 73.51078000000001L152.14279999999997 74.92604L151.89 75.75522000000001L150.2595 77.54784999999998L149.62019999999995 77.16640999999998L149.3279 77.44485000000003L148.25 79.25966L147.00279999999998 79.19429000000002L145.71540000000005 80.23318999999998L144.53719999999998 79.74740000000003L144.56309999999996 80.52838000000003L143.50350000000003 81.10312000000005L142.69920000000002 80.19405L140.11699999999996 81.22960000000006L139.89639999999997 81.34290000000004L139.5489 82.33326000000005L138.54269999999997 83.71950999999996L138.49109999999996 84.57696000000004L137.466 86.45227000000006L137.7727 86.75063000000006L139.3143 86.24232999999998L140.92110000000002 87.60487000000006L141.73540000000003 87.82359000000002L140.62829999999997 88.53973000000002L139.94309999999996 90.19030000000004L140.41369999999995 90.95305000000002L140.05700000000002 91.43647000000004L143.01350000000002 96.27231L143.6377 97.82716999999997L141.6975 98.73849999999999L141.70770000000005 99.60264999999998L140.93539999999996 99.98354999999998L137.66740000000004 101.81568999999996L137.3374 101.55766999999997L135.91819999999996 100.65603000000004L135.36469999999997 99.51159999999999L134.64369999999997 99.51402000000002L134.35670000000005 98.92419999999998L134.00189999999998 97.65776999999997L133.06229999999994 96.72051000000005L132.44870000000003 95.07070000000004L131.563 94.07423999999997L131.26729999999998 92.387L130.42629999999997 92.26929000000001L128.59429999999998 91.18824999999998L127.76819999999998 91.42433999999997L126.84640000000002 92.28983999999997L127.40520000000004 94.73417999999998L126.84649999999999 94.86014000000006L126.70159999999998 94.07410999999996L126.04319999999996 93.54595L125.25080000000003 93.82496999999995L123.60109999999997 93.59368999999998L122.3655 93.61092000000002L119.61170000000004 92.87695000000002L118.80769999999995 92.99502999999999L118.74170000000004 91.64906000000002L118.21019999999999 90.9187L116.70269999999994 90.65118000000001L115.15999999999997 88.62136000000004L115.44749999999999 87.81540999999999L116.1291 87.32214000000005L114.91859999999997 85.59621999999996L113.59299999999996 86.50593999999995L112.51189999999997 85.83673000000005L110.77229999999997 85.91941000000003L109.68089999999995 85.40285999999998L109.48429999999996 84.613L108.45399999999995 83.76540000000006L107.86180000000002 84.42575000000005L106.7396 83.79084000000006L105.76589999999999 82.30857999999995L105.48760000000004 81.00669999999997L106.06989999999996 80.46354000000002L105.48109999999997 77.65367000000003L105.31979999999999 75.86785000000003L104.91219999999998 75.38941L104.81150000000002 72.42407000000003L105.39229999999998 71.81103999999999L105.58039999999994 70.54702000000003L105.09479999999996 69.83901000000003L104.39739999999995 68.88788L104.00609999999995 67.11657000000002L103.12929999999994 66.07429000000002L102.89109999999994 66.20798000000002L102.11839999999995 65.90984000000003L100.71820000000002 64.50915000000003L99.8863 64.34363000000002L101.85860000000002 62.35934000000003L102.36940000000004 60.15518000000003L102.75810000000001 60.06819999999999L103.60180000000003 59.75116000000003L104.17880000000002 59.96388999999999L104.60749999999996 59.386000000000024L105.25580000000002 59.59309000000002L105.73209999999995 59.130269999999996L106.56499999999994 59.24241000000001L107.03610000000003 58.54421000000002L107.8714 58.41730000000001L107.8406 57.96786000000003L109.78149999999994 54.99610999999999L109.94330000000002 54.79554999999999L109.45770000000005 54.24736999999999z">
      <title id="t304">Deuxième circonscription de l'Orne</title>
      <desc id="d304">Cantons de : L'Aigle Est, L'Aigle Ouest, Bazoches-sur-Hoëne, Bellême, La Ferté-Frênel, Gacé, Longny-au-Perche, Le Merlerault, Mortagne-au-Perche, Moulins-la-Marche, Nocé, Pervenchères, Rémalard, Le Theil, Tourouvre, Vimoutiers.</desc>
    </path><path class="circo" id="id-061-03" d="M29.78340000000003 16.371080000000006L29.299099999999953 15.82868000000002L28.591000000000008 15.811500000000024L26.411299999999983 16.33271000000002L25.458200000000033 17.87684999999999L24.696699999999964 18.36703L23.807199999999966 17.58784000000003L22.142799999999966 17.798720000000003L21.58669999999995 17.931089999999983L20.04880000000003 18.824900000000014L18.27049999999997 18.79313000000002L18.439300000000003 17.020489999999995L17.633199999999988 17.341560000000015L15.076999999999998 16.845610000000022L14.375099999999975 16.337750000000028L13.163699999999949 17.55749000000003L14.411600000000021 19.159040000000005L15.146600000000035 19.48838999999998L12.911200000000008 21.570249999999987L12.383500000000026 22.323669999999993L11.472899999999981 22.42252000000002L9.895999999999958 23.34899999999999L6.777699999999982 24.029060000000015L6.414199999999937 24.73421000000002L5.7047000000000025 25.228259999999977L5.496599999999944 26.07799L4.43139999999994 27.452049999999986L2.97849999999994 28.43504999999999L1.651299999999992 28.468439999999987L0.7300000000000182 29.326120000000003L0.8776000000000295 31.027350000000013L1.5258000000000038 31.531749999999988L2.426399999999944 31.37646000000001L2.6679000000000315 31.008410000000026L3.52170000000001 31.151459999999986L4.512399999999957 32.04563999999999L5.393100000000004 34.02981L6.954600000000028 35.025210000000015L7.762899999999945 35.85034000000002L9.808899999999994 36.47502000000003L10.501800000000003 36.97190999999998L10.548400000000015 37.83812L10.982600000000048 39.07981000000001L11.918900000000008 39.96955000000003L13.670399999999972 36.18220000000002L16.907500000000027 37.40812L17.290399999999977 37.439009999999996L17.22079999999994 35.85730000000001L17.56359999999995 35.16881000000001L17.31970000000001 34.39499000000001L18.106499999999983 34.55561L19.396100000000047 34.68621000000002L20.96640000000002 35.42214000000001L23.27520000000004 36.54326000000003L22.13429999999994 37.763829999999984L21.49879999999996 39.28820000000002L23.695699999999988 41.59323999999998L24.035300000000007 42.333140000000014L23.32439999999997 43.03269999999998L26.46690000000001 45.38001000000003L27.281600000000026 45.03757000000002L27.56669999999997 44.20961L28.393699999999967 43.904920000000004L28.494100000000003 43.02370000000002L29.293000000000006 42.93815999999998L30.139599999999973 43.80151000000001L32.2672 46.07602000000003L33.582899999999995 44.911159999999995L34.43769999999995 45.10854999999998L36.49509999999998 42.84849000000003L37.300700000000006 42.70672999999999L39.40989999999999 43.121590000000026L40.03610000000003 42.53628000000003L42.099399999999946 42.067859999999996L43.14440000000002 40.20789000000002L45.19719999999995 39.65848L46.19349999999997 38.264099999999985L47.29589999999996 39.40082000000001L46.29549999999995 41.27813000000003L43.41650000000004 43.14319999999998L42.23419999999999 44.39674000000002L42.3809 44.66951L43.58450000000005 45.20524999999998L44.39300000000003 44.858299999999986L45.70339999999999 44.975329999999985L46.28409999999997 43.84512000000001L47.588499999999954 43.86775L48.79039999999998 42.70004L49.90949999999998 44.96683999999999L50.07420000000002 46.269270000000006L49.566799999999944 46.975599999999986L49.5684 47.850509999999986L50.57730000000004 47.07947999999999L51.41139999999996 45.61532L52.238200000000006 45.82080000000002L52.61279999999999 46.652660000000026L53.69659999999999 46.205370000000016L54.35889999999995 47.13656000000003L54.65390000000002 46.361710000000016L55.90139999999997 46.36054999999999L56.87559999999996 45.65080999999998L57.540899999999965 44.48354999999998L58.71199999999999 43.80884000000003L59.86770000000001 43.31774999999999L60.385599999999954 43.971929999999986L61.313499999999976 43.21008999999998L61.864900000000034 42.14699000000002L62.601999999999975 42.45008999999999L62.69539999999995 42.85518000000002L62.053499999999985 44.374360000000024L64.2074 46.755769999999984L65.4099 46.75808000000001L66.04549999999995 47.79086000000001L66.79830000000004 46.52782000000002L67.46879999999999 46.11279999999999L69.39980000000003 46.63157000000001L70.03570000000002 46.1533L70.88329999999996 47.13321000000002L70.75189999999998 48.37416000000002L71.26779999999997 49.07512000000003L72.0566 48.73595999999998L73.00329999999997 46.81143000000003L75.09839999999997 46.249210000000005L75.50660000000005 47.01147000000003L76.29489999999998 47.386720000000025L76.57979999999998 46.33677L78.23950000000002 46.44130000000001L79.6132 47.45355999999998L80.2844 46.91608000000002L81.61569999999995 44.076239999999984L81.93539999999996 43.75997000000001L82.78219999999999 44.06234999999998L83.43949999999995 42.45895999999999L81.67560000000003 40.63603999999998L81.29589999999996 39.85552999999999L81.73029999999994 39.10504000000003L82.73080000000004 39.99374999999998L83.61869999999999 39.85822999999999L85.67349999999999 40.75983000000002L86.96789999999999 40.75713000000002L86.6055 39.44162L89.14679999999998 39.64445999999998L91.01409999999998 38.68606L92.28769999999997 38.67229000000003L92.60619999999994 37.67281000000003L89.5738 37.12783000000002L87.54949999999997 36.221090000000004L87.45979999999997 35.78041999999999L87.93610000000001 34.29581000000002L88.34720000000004 34.381849999999986L89.13350000000003 33.41469000000001L89.52559999999994 31.78883000000002L89.29899999999998 31.433940000000007L89.95029999999997 31.37479000000002L91.28039999999999 31.18484000000001L93.49969999999996 28.898000000000025L93.23419999999999 27.425610000000006L94.89390000000003 26.035169999999994L94.69539999999995 24.718860000000006L94.33109999999999 24.459949999999992L93.3442 23.87914999999998L92.21159999999998 23.96314000000001L90.96450000000004 22.41297000000003L90.97149999999999 21.131680000000017L91.53740000000005 19.539780000000007L91.23850000000004 19.40861000000001L91.6834 16.442380000000014L92.42549999999994 16.087289999999996L91.94190000000003 15.420729999999992L91.20669999999996 15.869889999999998L89.98979999999995 15.449279999999987L89.02850000000001 14.58963L89.06290000000001 14.155759999999987L88.74350000000004 13.94398000000001L88.36339999999996 14.76224000000002L86.68359999999996 16.280399999999986L85.87339999999995 16.08418999999998L85.46759999999995 15.952429999999993L85.23479999999995 14.706430000000012L87.25980000000004 13.176269999999988L87.1798 12.757029999999986L85.56550000000004 12.879290000000026L83.95439999999996 13.285590000000013L83.01070000000004 12.494410000000016L82.31409999999994 10.347059999999999L80.84709999999995 11.116530000000012L81.04380000000003 8.954499999999996L80.54319999999996 7.333210000000008L79.83100000000002 6.966110000000015L78.55089999999996 7.219769999999983L78.06359999999995 8.379799999999989L77.93100000000004 9.058589999999981L77.3945 9.482469999999978L75.15660000000003 10.01348999999999L72.29459999999995 11.483519999999999L72.6078 12.979060000000004L72.56730000000005 13.008520000000033L72.00059999999996 12.411440000000027L70.49209999999994 12.784559999999999L70.51419999999996 13.301359999999988L68.11720000000003 15.399929999999983L67.62710000000004 16.63391999999999L67.21730000000002 16.798729999999978L66.75559999999996 17.058460000000025L66.04869999999994 16.582780000000014L64.06039999999996 17.192260000000033L63.37130000000002 17.055620000000033L62.52660000000003 16.183519999999987L62.274099999999976 17.42111L61.043000000000006 17.732860000000016L60.821699999999964 18.11587000000003L62.408199999999965 20.167700000000025L60.51940000000002 19.400599999999997L60.232099999999946 19.693280000000016L58.331500000000005 18.727280000000007L57.79309999999998 17.613530000000026L56.22149999999999 17.009900000000016L55.73490000000004 16.299649999999986L54.862300000000005 17.04786999999999L53.78369999999995 16.721240000000023L52.54169999999999 15.944560000000024L51.56669999999997 15.913810000000012L50.35069999999996 15.439849999999979L49.05060000000003 15.541650000000004L47.75559999999996 15.959670000000017L46.999900000000025 14.85539L45.207899999999995 14.869349999999997L44.593200000000024 16.32677000000001L45.07370000000003 16.944680000000005L45.11099999999999 17.720849999999984L43.77170000000001 19.488519999999994L43.62429999999995 19.400599999999997L41.706800000000044 17.720460000000003L41.77660000000003 16.90942000000001L42.594100000000026 16.66982999999999L42.24419999999998 15.963930000000005L42.03769999999997 16.017020000000002L40.51120000000003 16.24061999999998L39.02340000000004 14.696480000000008L38.20950000000005 13.27203000000003L36.98680000000002 13.72417999999999L36.78110000000004 12.93628000000001L36.075199999999995 13.242689999999982L33.6268 13.139569999999992L33.23519999999996 13.520910000000015L32.53520000000003 14.641700000000014L30.87990000000002 15.10460999999998L31.011099999999942 15.974519999999984L29.78340000000003 16.371080000000006z">
      <title id="t305">Troisième circonscription de l'Orne</title>
      <desc id="d305">Cantons de : Argentan Est, Argentan-Ouest, Athis-de-l'Orne, Briouze, Ecouché, Exmes, Flers Nord, Flers Sud, Messei, Mortrée, Putanges-Pont-Ecrepin, Tinchebray, Trun</desc>
    </path></svg>