<svg xmlns="http://www.w3.org/2000/svg" version="1.1" xmlns:xlink="http://www.w3.org/1999/xlink" xmlns:svgjs="http://svgjs.dev/svgjs" viewBox="583.71573 432.43023 156.13049999999998 101.81568999999996"><path class="circo" id="id-061-01" d="M 665.63333,504.4463 665.30073,504.74788 663.96133,504.73969 663.97013,504.85468 662.57453,505.37572 661.47973,507.24235 662.16323,508.32418 661.96543,508.71991 660.22163,508.65976 658.81073,508.68523 657.29453,507.47749 657.13503,506.66424 655.13413,506.92859 654.96993,507.71507 652.47933,508.94732 652.62633,509.33456 652.21333,508.45537 651.97403,507.67526 652.28753,506.98313 651.95413,502.42694 652.15483,502.23453 652.53903,499.67137 651.53183,498.91212 650.73663,498.96724 650.42993,499.71892 650.01953,499.78453 647.64663,500.00022 645.13173,499.38583 644.18783,498.62027 644.25703,496.97631 643.79933,496.29278 644.08383,496.03543 643.63523,494.60103 643.47483,493.81182 642.61263,492.95477 642.22083,493.06189 642.68143,491.44924 644.49023,490.62102 644.55693,489.77484 641.61183,487.99101 640.55153,486.70341 640.19983,486.15918 639.22373,485.31088 638.07593,485.60757 636.83683,485.2202 636.22373,484.60712 635.65813,486.13824 634.96283,486.66759 634.69883,487.03009 636.18813,488.5799 635.52683,489.73274 634.03483,490.68441 633.76623,492.38001 632.59883,492.22643 632.54803,491.38983 632.18993,491.17143 630.58663,490.98445 629.62753,490.39399 628.37513,492.17074 628.21763,493.02533 626.77573,493.78552 626.82983,495.41721 625.75353,494.93321 625.56083,494.21971 624.90883,493.83644 623.41323,493.19851 623.52763,492.4566 623.04683,491.98752 622.38153,492.50959 620.68443,492.39142 620.76733,492.28506 618.86243,491.4196 618.53563,491.69163 617.22753,491.72949 616.20063,493.13463 614.97093,493.06433 613.55743,492.20179 612.76363,493.65006 611.38023,494.42019 609.82893,496.80309 609.41793,496.90476 608.88553,496.30419 608.25793,497.32105 606.42463,497.07554 606.33073,496.8604 604.68863,498.38685 601.23873,500.44604 601.26503,499.24562 600.90273,496.56217 599.99563,495.073 599.97533,495.47941 599.57243,495.43119 598.73503,496.29381 598.74013,497.0949 598.36773,497.25554 597.54653,497.4199 597.06913,496.81309 595.90573,497.14272 595.20053,496.73847 594.55723,497.30593 594.34993,498.1574 595.99383,499.63216 592.54573,501.42087 591.82203,501.37244 591.05963,500.68066 590.60783,499.94293 590.72743,497.77155 589.40563,497.79014 587.76353,499.11643 587.26553,497.38452 587.48453,497.03092 586.97763,496.40421 585.73323,495.20009 584.95133,493.61414 583.71573,493.149 584.08483,492.2145 584.80783,490.66054 586.51783,489.27438 588.08903,487.19201 588.36783,486.95073 589.64853,486.65295 590.91123,485.3986 591.01263,483.65507 591.63603,481.60585 592.39423,481.1703 592.95533,480.05437 592.84143,477.97007 593.11973,477.65336 593.94883,477.70428 593.64413,476.95095 592.03613,476.42776 591.15723,473.63965 591.11673,473.20241 592.09953,472.36503 592.52763,471.13689 593.85653,470.10446 594.26413,470.26835 594.69833,471.51004 595.63463,472.39978 597.38613,468.61243 600.62323,469.83835 601.00613,469.86924 600.93653,468.28753 601.27933,467.59904 601.03543,466.82522 601.82223,466.98584 603.11183,467.11644 604.68213,467.85237 606.99093,468.97349 605.85003,470.19406 605.21453,471.71843 607.41143,474.02347 607.75103,474.76337 607.04013,475.46293 610.18263,477.81024 610.99733,477.4678 611.28243,476.63984 612.10943,476.33515 612.20983,475.45393 613.00873,475.36839 613.85533,476.23174 615.98293,478.50625 617.29863,477.34139 618.15343,477.53878 620.21083,475.27872 621.01643,475.13696 623.12563,475.55182 623.75183,474.96651 625.81513,474.49809 626.86013,472.63812 628.91293,472.08871 629.90923,470.69433 631.01163,471.83105 630.01123,473.70836 627.13223,475.57343 625.94993,476.82697 626.09663,477.09974 627.30023,477.63548 628.10873,477.28853 629.41913,477.40556 629.99983,476.27535 631.30423,476.29798 632.50613,475.13027 633.62523,477.39707 633.78993,478.6995 633.28253,479.40583 633.28413,480.28074 634.29303,479.50971 635.12713,478.04555 635.95393,478.25103 636.32853,479.08289 637.41233,478.6356 638.07463,479.56679 638.36963,478.79194 639.61713,478.79078 640.59133,478.08104 641.25663,476.91378 642.42773,476.23907 643.58343,475.74798 644.10133,476.40216 645.02923,475.64032 645.58063,474.57722 646.31773,474.88032 646.41113,475.28541 645.76923,476.80459 647.92313,479.186 649.12563,479.18831 649.76123,480.22109 650.51403,478.95805 651.18453,478.54303 653.11553,479.0618 653.75143,478.58353 654.59903,479.56344 654.46763,480.80439 654.98353,481.50535 655.77233,481.16619 656.71903,479.24166 658.81413,478.67944 659.22233,479.4417 660.01063,479.81695 660.29553,478.767 661.95523,478.87153 663.32893,479.88379 664.00013,479.34631 665.33143,476.50647 665.65113,476.1902 666.49793,476.49258 667.15523,474.88919 665.39133,473.06627 665.01163,472.28576 665.44603,471.53527 666.44653,472.42398 667.33443,472.28846 669.38923,473.19006 670.68363,473.18736 670.32123,471.87185 672.86253,472.07469 674.72983,471.11629 676.00343,471.10252 676.32193,470.10304 676.80013,469.43613 678.84833,469.2614 679.27633,470.47819 680.25183,471.33293 680.29673,471.76463 681.26573,472.36941 682.14633,471.06725 683.16533,471.65085 683.69123,471.05026 684.89453,470.9039 685.95183,470.29693 687.08743,469.98409 687.55523,471.71302 688.43443,471.13226 689.67233,472.38254 690.01663,472.10712 690.83583,474.15869 692.33663,474.90013 691.83843,475.62154 692.28443,476.37785 693.68733,475.97077 695.29413,477.51589 692.92943,480.02738 692.65083,480.28986 692.65323,481.81443 692.72643,481.97506 692.44653,484.77796 692.81203,485.02728 693.17343,486.6776 693.65903,487.22578 693.49723,487.42634 691.55633,490.39809 691.58713,490.84753 690.75183,490.97444 690.28073,491.67264 689.44783,491.5605 688.97153,492.02332 688.32323,491.81623 687.89453,492.39412 687.31753,492.18139 686.47383,492.49843 686.08513,492.58541 685.57433,494.78957 683.60203,496.77386 682.17153,495.92477 680.95143,495.71523 680.14103,495.84475 679.52773,495.31423 679.18083,495.53416 679.08943,495.98632 678.04893,496.61128 676.01343,496.81655 675.37643,496.69603 673.41973,497.98524 673.16493,498.16509 671.49683,497.97448 671.32353,498.8242 671.60903,499.63421 670.80843,499.69995 669.81333,498.89713 669.08253,499.11284 670.01393,500.34929 670.30603,500.63402 669.88103,501.29185 667.53993,501.77486 667.20493,501.54374 666.33423,502.01277 665.63333,504.4463 z">
      <title id="t303">Première circonscription de l'Orne</title>
      <desc id="d303">Cantons de : Alençon I, Alençon II, Alençon III, Carrouges, Courtomer, Domfront, La Ferté-Macé, Juvigny-sous-Andaine, Le Mêle-sur-Sarthe, Passais, Sées.</desc>
    </path><path class="circo" id="id-061-02" d="M 693.17343,486.6776 692.81203,485.02728 692.44653,484.77796 692.72643,481.97506 692.65323,481.81443 692.65083,480.28986 692.92943,480.02738 695.29413,477.51589 693.68733,475.97077 692.28443,476.37785 691.83843,475.62154 692.33663,474.90013 690.83583,474.15869 690.01663,472.10712 689.67233,472.38254 688.43443,471.13226 687.55523,471.71302 687.08743,469.98409 685.95183,470.29693 684.89453,470.9039 683.69123,471.05026 683.16533,471.65085 682.14633,471.06725 681.26573,472.36941 680.29673,471.76463 680.25183,471.33293 679.27633,470.47819 678.84833,469.2614 676.80013,469.43613 676.32193,470.10304 673.28953,469.55806 671.26523,468.65132 671.17553,468.21065 671.65183,466.72604 672.06293,466.81208 672.84923,465.84492 673.24133,464.21906 673.01473,463.86417 673.66603,463.80502 674.99613,463.61507 677.21543,461.32823 676.94993,459.85584 678.60963,458.4654 678.41113,457.14909 678.04683,456.89018 677.05993,456.30938 675.92733,456.39337 674.68023,454.8432 674.68723,453.56191 675.25313,451.97001 674.95423,451.83884 675.39913,448.87261 676.14123,448.51752 675.65763,447.85096 674.92243,448.30012 673.70553,447.87951 672.74423,447.01986 672.77863,446.58599 672.45923,446.37421 672.07913,447.19247 670.39933,448.71063 669.58913,448.51442 669.18333,448.38266 668.95053,447.13666 670.97553,445.6065 670.89553,445.18726 669.28123,445.30952 667.67013,445.71582 666.72643,444.92464 666.02983,442.77729 664.56283,443.54676 664.75953,441.38473 664.25893,439.76344 663.54673,439.39634 662.26663,439.65 662.43873,438.43763 663.71023,436.90579 665.47233,437.14803 667.50073,435.36052 667.69553,435.06346 668.43343,435.29865 669.26113,436.57878 669.67273,438.3045 670.04193,438.56583 671.36603,438.32727 672.07693,437.95129 672.77093,436.50592 675.12313,435.80978 675.94193,436.60764 677.15563,436.32151 677.62323,434.24366 679.08923,433.47736 680.32813,433.3598 680.49483,435.33528 680.87983,435.49203 683.09073,434.80354 685.17403,436.28488 687.16243,435.39923 688.93243,432.43023 691.22083,433.70108 690.86263,434.99408 691.93883,435.26966 690.44273,438.07848 690.06973,438.31317 689.66923,440.45515 692.37503,442.01691 692.69293,443.30243 693.07753,443.53875 693.96983,443.65742 695.10303,442.98079 694.51393,444.23871 695.72513,444.43557 695.87263,443.3968 697.17113,443.49221 699.05603,444.56249 701.12463,444.30166 703.58863,445.08852 703.92213,444.81065 705.98343,442.63947 707.47963,443.36707 707.56303,443.78216 706.65863,444.5855 706.96863,445.36083 708.60403,444.96096 708.29853,446.24577 708.75593,447.49789 709.50253,447.92615 710.72063,447.50125 708.51893,450.54288 710.29533,451.48934 711.84643,452.81932 712.95033,453.21728 715.51473,455.50336 716.67023,455.82942 717.47193,456.21236 717.74193,456.5447 718.94473,456.59579 719.70253,457.63605 721.09033,458.58973 721.17663,459.06303 720.69053,459.82876 722.72833,462.81563 721.75933,463.71752 721.31753,464.97644 720.05573,465.43911 718.79523,466.7469 718.98663,467.13551 720.69983,467.11644 722.07103,468.16673 722.10703,468.50181 721.67773,469.2126 721.80213,470.75445 722.16903,471.39845 723.18183,471.93041 723.33783,471.93877 724.55143,470.85884 726.11013,471.46975 725.69593,472.23402 726.85353,473.97934 726.79003,475.95134 727.55033,476.19766 726.46073,478.1164 726.75433,479.35428 728.75283,479.33628 729.04213,482.30197 730.56973,483.84315 732.75093,484.11512 734.22353,485.10345 735.53623,485.67898 736.50773,487.09789 735.40733,488.45435 736.05733,488.95359 739.10873,490.27181 737.99673,492.73706 736.88293,493.5037 738.05963,494.27756 737.86053,495.88117 736.38603,496.47704 736.60143,497.28144 736.80653,498.57848 738.07493,500.34929 739.68633,500.77804 739.84623,501.18563 737.20053,503.83195 737.46323,505.94101 735.85853,507.35627 735.60573,508.18545 733.97523,509.97808 733.33593,509.59664 733.04363,509.87508 731.96573,511.68989 730.71853,511.62452 729.43113,512.66342 728.25293,512.17763 728.27883,512.95861 727.21923,513.53335 726.41493,512.62428 723.83273,513.65983 723.61213,513.77313 723.26463,514.76349 722.25843,516.14974 722.20683,517.00719 721.18173,518.8825 721.48843,519.18086 723.03003,518.67256 724.63683,520.0351 725.45113,520.25382 724.34403,520.96996 723.65883,522.62053 724.12943,523.38328 723.77273,523.8667 726.72923,528.70254 727.35343,530.2574 725.41323,531.16873 725.42343,532.03288 724.65113,532.41378 721.38313,534.24592 721.05313,533.9879 719.63393,533.08626 719.08043,531.94183 718.35943,531.94425 718.07243,531.35443 717.71763,530.088 716.77803,529.15074 716.16443,527.50093 715.27873,526.50447 714.98303,524.81723 714.14203,524.69952 712.31003,523.61848 711.48393,523.85457 710.56213,524.72007 711.12093,527.16441 710.56223,527.29037 710.41733,526.50434 709.75893,525.97618 708.96653,526.2552 707.31683,526.02392 706.08123,526.04115 703.32743,525.30718 702.52343,525.42526 702.45743,524.07929 701.92593,523.34893 700.41843,523.08141 698.87573,521.05159 699.16323,520.24564 699.84483,519.75237 698.63433,518.02645 697.30873,518.93617 696.22763,518.26696 694.48803,518.34964 693.39663,517.83309 693.20003,517.04323 692.16973,516.19563 691.57753,516.85598 690.45533,516.22107 689.48163,514.73881 689.20333,513.43693 689.78563,512.89377 689.19683,510.0839 689.03553,508.29808 688.62793,507.81964 688.52723,504.8543 689.10803,504.24127 689.29613,502.97725 688.81053,502.26924 688.11313,501.31811 687.72183,499.5468 686.84503,498.50452 686.60683,498.63821 685.83413,498.34007 684.43393,496.93938 683.60203,496.77386 685.57433,494.78957 686.08513,492.58541 686.47383,492.49843 687.31753,492.18139 687.89453,492.39412 688.32323,491.81623 688.97153,492.02332 689.44783,491.5605 690.28073,491.67264 690.75183,490.97444 691.58713,490.84753 691.55633,490.39809 693.49723,487.42634 693.65903,487.22578 693.17343,486.6776 z">
      <title id="t304">Deuxième circonscription de l'Orne</title>
      <desc id="d304">Cantons de : L'Aigle Est, L'Aigle Ouest, Bazoches-sur-Hoëne, Bellême, La Ferté-Frênel, Gacé, Longny-au-Perche, Le Merlerault, Mortagne-au-Perche, Moulins-la-Marche, Nocé, Pervenchères, Rémalard, Le Theil, Tourouvre, Vimoutiers.</desc>
    </path><path class="circo" id="id-061-03" d="M 613.49913,448.80131 613.01483,448.25891 612.30673,448.24173 610.12703,448.76294 609.17393,450.30708 608.41243,450.79726 607.52293,450.01807 605.85853,450.22895 605.30243,450.36132 603.76453,451.25513 601.98623,451.22336 602.15503,449.45072 601.34893,449.77179 598.79273,449.27584 598.09083,448.76798 596.87943,449.98772 598.12733,451.58927 598.86233,451.91862 596.62693,454.00048 596.09923,454.7539 595.18863,454.85275 593.61173,455.77923 590.49343,456.45929 590.12993,457.16444 589.42043,457.65849 589.21233,458.50822 588.14713,459.88228 586.69423,460.86528 585.36703,460.89867 584.44573,461.75635 584.59333,463.45758 585.24153,463.96198 586.14213,463.80669 586.38363,463.43864 587.23743,463.58169 588.22813,464.47587 589.10883,466.46004 590.67033,467.45544 591.47863,468.28057 593.52463,468.90525 594.21753,469.40214 594.26413,470.26835 594.69833,471.51004 595.63463,472.39978 597.38613,468.61243 600.62323,469.83835 601.00613,469.86924 600.93653,468.28753 601.27933,467.59904 601.03543,466.82522 601.82223,466.98584 603.11183,467.11644 604.68213,467.85237 606.99093,468.97349 605.85003,470.19406 605.21453,471.71843 607.41143,474.02347 607.75103,474.76337 607.04013,475.46293 610.18263,477.81024 610.99733,477.4678 611.28243,476.63984 612.10943,476.33515 612.20983,475.45393 613.00873,475.36839 613.85533,476.23174 615.98293,478.50625 617.29863,477.34139 618.15343,477.53878 620.21083,475.27872 621.01643,475.13696 623.12563,475.55182 623.75183,474.96651 625.81513,474.49809 626.86013,472.63812 628.91293,472.08871 629.90923,470.69433 631.01163,471.83105 630.01123,473.70836 627.13223,475.57343 625.94993,476.82697 626.09663,477.09974 627.30023,477.63548 628.10873,477.28853 629.41913,477.40556 629.99983,476.27535 631.30423,476.29798 632.50613,475.13027 633.62523,477.39707 633.78993,478.6995 633.28253,479.40583 633.28413,480.28074 634.29303,479.50971 635.12713,478.04555 635.95393,478.25103 636.32853,479.08289 637.41233,478.6356 638.07463,479.56679 638.36963,478.79194 639.61713,478.79078 640.59133,478.08104 641.25663,476.91378 642.42773,476.23907 643.58343,475.74798 644.10133,476.40216 645.02923,475.64032 645.58063,474.57722 646.31773,474.88032 646.41113,475.28541 645.76923,476.80459 647.92313,479.186 649.12563,479.18831 649.76123,480.22109 650.51403,478.95805 651.18453,478.54303 653.11553,479.0618 653.75143,478.58353 654.59903,479.56344 654.46763,480.80439 654.98353,481.50535 655.77233,481.16619 656.71903,479.24166 658.81413,478.67944 659.22233,479.4417 660.01063,479.81695 660.29553,478.767 661.95523,478.87153 663.32893,479.88379 664.00013,479.34631 665.33143,476.50647 665.65113,476.1902 666.49793,476.49258 667.15523,474.88919 665.39133,473.06627 665.01163,472.28576 665.44603,471.53527 666.44653,472.42398 667.33443,472.28846 669.38923,473.19006 670.68363,473.18736 670.32123,471.87185 672.86253,472.07469 674.72983,471.11629 676.00343,471.10252 676.32193,470.10304 673.28953,469.55806 671.26523,468.65132 671.17553,468.21065 671.65183,466.72604 672.06293,466.81208 672.84923,465.84492 673.24133,464.21906 673.01473,463.86417 673.66603,463.80502 674.99613,463.61507 677.21543,461.32823 676.94993,459.85584 678.60963,458.4654 678.41113,457.14909 678.04683,456.89018 677.05993,456.30938 675.92733,456.39337 674.68023,454.8432 674.68723,453.56191 675.25313,451.97001 674.95423,451.83884 675.39913,448.87261 676.14123,448.51752 675.65763,447.85096 674.92243,448.30012 673.70553,447.87951 672.74423,447.01986 672.77863,446.58599 672.45923,446.37421 672.07913,447.19247 670.39933,448.71063 669.58913,448.51442 669.18333,448.38266 668.95053,447.13666 670.97553,445.6065 670.89553,445.18726 669.28123,445.30952 667.67013,445.71582 666.72643,444.92464 666.02983,442.77729 664.56283,443.54676 664.75953,441.38473 664.25893,439.76344 663.54673,439.39634 662.26663,439.65 661.77933,440.81003 661.64673,441.48882 661.11023,441.9127 658.87233,442.44372 656.01033,443.91375 656.32353,445.40929 656.28303,445.43875 655.71633,444.84167 654.20783,445.21479 654.22993,445.73159 651.83293,447.83016 651.34283,449.06415 650.93303,449.22896 650.47133,449.48869 649.76443,449.01301 647.77613,449.62249 647.08703,449.48585 646.24233,448.61375 645.98983,449.85134 644.75873,450.16309 644.53743,450.5461 646.12393,452.59793 644.23513,451.83083 643.94783,452.12351 642.04723,451.15751 641.50883,450.04376 639.93723,449.44013 639.45063,448.72988 638.57803,449.4781 637.49943,449.15147 636.25743,448.37479 635.28243,448.34404 634.06643,447.87008 632.76633,447.97188 631.47133,448.3899 630.71563,447.28562 628.92363,447.29958 628.30893,448.757 628.78943,449.37491 628.82673,450.15108 627.48743,451.91875 627.34003,451.83083 625.42253,450.15069 625.49233,449.33965 626.30983,449.10006 625.95993,448.39416 625.75343,448.44725 624.22693,448.67085 622.73913,447.12671 621.92523,445.70226 620.70253,446.15441 620.49683,445.36651 619.79093,445.67292 617.34253,445.5698 616.95093,445.95114 616.25093,447.07193 614.59563,447.53484 614.72683,448.40475 613.49913,448.80131 z">
      <title id="t305">Troisième circonscription de l'Orne</title>
      <desc id="d305">Cantons de : Argentan Est, Argentan-Ouest, Athis-de-l'Orne, Briouze, Ecouché, Exmes, Flers Nord, Flers Sud, Messei, Mortrée, Putanges-Pont-Ecrepin, Tinchebray, Trun</desc>
    </path></svg>