<svg xmlns="http://www.w3.org/2000/svg" version="1.1" xmlns:xlink="http://www.w3.org/1999/xlink" xmlns:svgjs="http://svgjs.dev/svgjs" viewBox="789.10933 163.46501 138.6291 131.73275"><path class="circo" id="062-01" d="M 873.00633,245.43627 873.03763,244.85554 872.12203,243.24577 871.09343,242.98606 871.44933,242.19832 871.09063,240.94642 870.67953,241.11548 869.22903,240.13027 868.27993,238.75729 867.95773,238.83258 868.12193,239.46404 867.23303,239.29027 865.00993,237.14356 864.20653,236.95036 862.81263,240.37302 862.56453,242.22194 862.02853,242.41151 861.60703,242.11401 860.73343,242.35548 860.19523,241.64452 858.10343,242.35921 857.74763,242.07705 857.46633,241.56193 856.81353,241.63077 856.08073,240.69529 855.79893,240.85582 854.55593,240.93334 853.48983,241.55713 853.31673,240.88664 852.51373,240.59788 851.86123,241.2325 849.68603,242.03449 849.65123,242.65763 849.44113,242.7961 848.12933,243.00126 847.28193,241.81409 844.99203,242.88454 844.33313,241.84318 843.73643,242.36548 843.84103,244.09845 844.72213,245.27719 843.52233,245.75615 842.40093,246.98497 842.58373,248.73386 842.63363,248.84101 842.27313,249.05531 842.69993,250.64442 842.82493,252.12511 842.55483,252.41601 844.36073,254.35861 843.93163,255.54636 843.04873,255.93907 841.91133,256.48391 840.64853,258.23125 840.91993,259.4482 840.52863,260.07109 839.82113,260.18856 839.44263,259.99553 838.69493,260.36562 837.68253,258.86557 838.50703,257.33428 837.70083,256.95829 837.22183,256.21782 836.82643,256.13502 836.27553,255.0535 836.06183,255.44917 834.36253,256.0232 833.82893,256.98797 831.14763,256.4115 831.05993,257.0472 831.36523,257.16539 832.11503,259.69779 830.23593,261.23023 828.50453,260.59588 827.02963,258.97068 827.06423,260.29857 826.35423,261.41963 827.12783,262.12877 827.86063,262.45033 829.08343,262.23929 830.06413,262.96988 830.99023,263.9389 832.32793,264.09126 833.46833,265.00774 832.33723,266.09169 832.27783,266.90502 832.62883,267.10143 832.67483,267.88368 833.96003,269.22857 834.13923,271.34715 835.06783,270.60186 836.59113,271.10214 837.21763,270.11588 838.38743,270.49308 838.89533,271.15539 839.58323,272.75291 841.58393,270.43491 842.02603,270.51367 842.08413,270.15294 842.81143,270.19664 843.81043,269.83336 843.84593,269.46675 845.92963,269.17636 845.78723,270.30621 846.47243,270.07045 848.39553,269.53183 849.74883,267.80954 851.56223,269.01469 852.49793,269.76137 853.91713,268.93897 854.32443,268.99157 854.66033,269.74264 855.01473,268.59674 854.12273,267.12017 853.73533,267.31205 853.60923,266.90981 855.14873,266.29038 855.46983,266.83419 857.60133,270.54222 858.11893,270.41764 859.35143,268.01973 859.56743,268.10636 859.95953,268.19272 861.45043,266.92615 862.33333,267.7237 863.98703,267.86082 865.28003,267.46871 865.92033,268.8853 867.27343,270.39692 868.09683,270.44633 868.41333,270.83666 868.93403,271.5417 868.98813,272.2043 868.11103,272.63209 867.13483,272.98897 865.17413,274.33397 864.28203,274.06849 862.62703,274.84922 862.11623,275.05202 862.08933,276.23801 861.13203,276.15468 860.75423,277.26339 859.98533,277.39075 860.16693,278.76174 859.67383,279.51961 859.13663,282.20431 858.76833,283.52045 860.41973,283.39679 860.63243,283.88559 862.08743,284.6614 862.54083,286.2681 863.37523,286.31315 864.77563,282.43617 865.10393,281.51345 865.53353,280.615 866.75343,280.2876 867.31233,279.86098 868.59683,279.75488 870.62523,279.33592 872.10283,282.74941 873.44223,281.55336 873.15313,281.2264 873.26693,279.96694 873.71763,279.21881 874.14953,279.15554 875.16613,279.98007 875.85153,279.54043 876.21003,279.73512 876.71863,279.79427 875.27433,281.75143 875.24983,282.04323 875.78673,282.98085 876.91563,283.18564 877.25153,283.87896 879.28373,283.38552 880.46673,283.78341 880.45973,284.07034 880.89603,284.74555 881.89623,285.48825 882.65953,284.71016 883.98183,285.59121 884.85803,285.40067 885.64513,285.79856 886.68303,287.26643 887.96953,286.38482 886.14883,284.40669 886.25753,283.96113 887.50423,283.39705 886.96083,281.24417 887.29853,281.01545 888.89913,281.31935 890.56573,283.05084 891.81063,283.33038 893.00723,282.89707 893.23153,283.26914 892.99723,284.82307 893.31123,285.92536 892.68443,287.49996 891.49123,288.77037 891.77353,289.96705 889.95393,291.63397 890.79163,292.6513 891.62673,292.81859 892.79293,292.32306 893.23313,291.5883 894.38853,291.36286 894.49013,291.20216 895.46703,289.72037 895.74903,290.07761 896.79433,289.25823 897.51023,289.62649 898.07713,288.46445 899.56553,287.66341 899.67523,289.91475 900.35733,290.05629 901.33183,292.13061 900.80143,293.36186 899.52793,293.70394 899.56623,294.53703 899.64743,294.86608 900.90643,295.19776 901.53373,294.74171 901.29393,294.41411 901.88443,293.8581 903.02843,293.14932 904.79823,293.2851 905.07033,291.5564 905.54153,292.10281 906.31913,291.99984 906.75733,291.30753 907.51113,290.93011 908.60813,291.35161 909.23553,291.8079 909.43613,292.51273 911.33283,291.31508 912.43663,290.75985 912.87313,290.30574 913.97343,290.82089 914.44073,290.37988 917.08673,291.45156 918.18763,291.99216 919.52753,290.87477 919.15533,290.66281 919.15183,289.48666 920.19513,288.92889 919.30773,287.9846 919.40843,287.10919 920.67293,287.27014 921.55063,285.75669 921.17433,284.11381 920.74703,284.13356 920.72093,283.23959 919.81203,281.87884 920.01313,281.49807 923.35933,279.34627 923.37673,278.88656 921.67653,278.35492 920.44393,276.53974 920.00623,276.37614 917.61833,278.45149 918.00713,280.66247 917.57583,280.93828 916.29723,280.45508 915.00383,280.69363 913.94993,282.57575 912.75913,283.05044 911.90083,282.08247 912.05873,280.77624 911.40673,279.69016 912.17413,278.09758 912.52093,278.29297 913.48573,277.6261 914.09033,277.98362 915.21553,277.63738 915.28963,276.83086 916.96703,275.74875 917.18753,274.96349 919.51083,275.23158 920.00193,276.36597 920.43743,276.53046 921.68603,275.91012 923.54473,275.87017 924.33433,274.30556 925.14813,273.92925 924.12453,272.68759 924.00213,271.94803 923.00753,271.54927 923.12483,271.13932 923.99333,268.92714 927.06133,268.94893 926.95283,268.56566 927.50603,267.99794 927.73843,266.8423 926.98413,266.78928 926.70863,265.97951 924.36523,265.34099 924.52873,263.17944 923.59953,262.81124 923.14733,262.68026 920.99843,262.37015 918.44143,261.59932 917.13953,261.93727 917.10973,261.90149 916.50033,261.47111 915.78583,261.35965 914.94933,262.2583 914.77533,262.60818 913.44043,262.92533 912.89643,262.44874 913.15403,260.34699 914.92783,259.84586 915.62193,260.43626 916.53903,260.5444 916.54813,259.55171 915.90283,259.0078 916.82093,257.88658 917.40423,257.21543 918.29793,257.22581 919.02193,256.69954 918.52433,256.04171 916.98693,254.33944 917.05053,253.82544 915.82463,252.08955 915.15433,252.32837 912.99973,250.27776 912.61313,250.39128 912.40563,250.04552 911.33683,251.19744 909.17703,251.73496 907.36223,252.36979 906.13193,251.60295 904.46733,253.02161 904.03003,253.23377 904.57153,254.47059 904.45443,255.37435 903.63483,255.81274 903.02363,256.01562 902.57363,256.37715 901.95023,257.97681 902.50253,259.22215 903.19893,259.74329 902.48923,259.94005 902.50083,260.59947 900.75753,260.87442 899.36633,262.13795 899.22223,262.09406 897.54293,262.54156 897.13493,263.2648 898.41813,265.56124 897.72773,266.63911 896.18273,267.00761 895.98963,267.36959 895.97073,267.41384 894.72623,265.13761 892.74833,266.10006 891.83553,266.51206 891.04253,266.36653 889.63463,267.07153 888.56813,266.97373 888.16083,267.25199 887.48643,265.67674 885.28923,264.43665 885.04783,264.20719 885.81313,263.55958 885.94343,262.44515 885.16633,261.65531 884.88183,260.79887 885.86703,259.93739 883.51253,259.48944 883.90703,258.6874 883.55453,257.86209 883.66403,256.14674 882.98753,255.41216 883.23353,254.68323 882.05973,254.24357 881.97323,253.82917 881.23063,253.07808 881.88943,251.35424 881.91793,249.9725 882.57823,249.84165 882.69813,249.13167 882.02343,248.47425 881.57983,246.68955 879.89513,246.05348 879.77943,246.32333 877.60183,246.01214 877.43233,246.48104 875.97713,247.10495 874.89293,246.37132 874.04203,246.61423 873.11383,245.43214 873.00633,245.43627 z">
      <title id="t306">Première circonscription du Pas-de-Calais</title>
      <desc id="d306">Cantons de : Aubigny-en-Artois, Auxi-le-Château, Avesnes-le-Comte, Bapaume, Beaumetz-lès-Loges, Bertincourt, Croisilles, Marquion, Pas-en-Artois, Saint-Pol-sur-Ternoise, Vitry-en-Artois</desc>
    </path><path class="circo" id="062-02" d="M 891.04253,266.36653 889.63463,267.07153 888.56813,266.97373 888.16083,267.25199 887.48643,265.67674 885.28923,264.43665 885.04783,264.20719 885.81313,263.55958 885.94343,262.44515 885.16633,261.65531 884.88183,260.79887 885.86703,259.93739 883.51253,259.48944 883.90703,258.6874 883.55453,257.86209 883.66403,256.14674 882.98753,255.41216 883.23353,254.68323 882.05973,254.24357 881.97323,253.82917 881.23063,253.07808 881.88943,251.35424 881.91793,249.9725 882.57823,249.84165 882.69813,249.13167 882.02343,248.47425 881.57983,246.68955 882.08263,245.94041 882.26223,246.08561 882.73183,245.35587 883.51023,245.63135 883.87683,244.8146 883.17253,243.6946 883.37973,243.29859 883.78503,243.10998 884.80213,243.92134 886.55053,244.02457 888.56433,244.55603 889.22403,244.03897 891.55303,245.42387 892.67783,244.24969 893.96443,244.04737 894.86803,245.83348 898.62683,246.97764 899.20903,247.46113 900.29623,247.43407 900.36873,246.55917 901.87853,245.72241 902.72523,246.00614 903.18343,246.7918 904.79683,246.52544 905.88753,247.66614 907.23473,247.35396 907.81593,247.42527 908.26013,247.9959 909.50943,247.41741 911.34013,247.2985 912.09313,248.74879 912.65253,249.74771 912.40563,250.04552 911.33683,251.19744 909.17703,251.73496 907.36223,252.36979 906.13193,251.60295 904.46733,253.02161 904.03003,253.23377 904.57153,254.47059 904.45443,255.37435 903.63483,255.81274 903.02363,256.01562 902.57363,256.37715 901.95023,257.97681 902.50253,259.22215 903.19893,259.74329 902.48923,259.94005 902.50083,260.59947 900.75753,260.87442 899.36633,262.13795 899.22223,262.09406 897.54293,262.54156 897.13493,263.2648 898.41813,265.56124 897.72773,266.63911 896.18273,267.00761 895.98963,267.36959 895.97073,267.41384 894.72623,265.13761 892.74833,266.10006 891.83553,266.51206 891.04253,266.36653 z">
      <title id="t307">Deuxième circonscription du Pas-de-Calais</title>
      <desc id="d307">Cantons de : Arras Nord, Arras Ouest, Arras Sud, Dainville, Vimy</desc>
    </path><path class="circo" id="062-03" d="M 892.41163,239.72443 891.08423,239.34752 891.35553,238.99556 891.12453,237.68534 891.76833,237.15958 891.98963,236.0035 893.14933,234.29903 894.01013,235.14424 894.67013,235.6496 895.86703,235.24628 896.12763,236.72484 896.25723,237.47013 897.41933,237.09229 898.34243,238.45655 900.11133,237.23208 899.92183,236.87879 900.46953,236.3157 901.75513,235.05142 901.74583,233.67853 902.03363,233.42391 903.12733,233.8733 904.31143,232.94121 905.27733,233.8192 904.55093,234.35833 904.21633,235.68232 904.37183,235.7085 906.46633,235.7125 906.82923,236.55366 904.90553,238.49446 904.81083,239.3885 905.18983,239.64689 905.56873,239.78662 904.94713,241.81289 905.40743,243.50213 905.19423,244.06871 904.65503,243.41903 902.58443,243.44318 902.54853,242.48528 902.27603,242.37069 901.50733,242.64243 901.52283,242.91941 902.15853,242.91916 902.18953,243.04997 901.58773,244.02659 901.10633,244.38205 900.50223,244.62341 900.13043,244.61293 899.90463,244.45289 899.71153,245.26788 900.31743,245.60499 899.20903,247.46113 898.62683,246.97764 894.86803,245.83348 893.96443,244.04737 895.23703,242.98325 896.35073,242.7973 896.78063,242.21193 895.19843,241.87186 893.75363,239.38049 892.41163,239.72443 z">
      <title id="t308">Troisième circonscription du Pas-de-Calais</title>
      <desc id="d308">Cantons de : Avion, Harnes, Lens Est, Lens Nord-Est, Lens Nord-Ouest, Noyelles-sous-Lens</desc>
    </path><path class="circo" id="062-04" d="M 816.89983,255.77134 816.25813,255.1636 815.72913,253.60013 814.28423,252.72182 814.24733,252.47608 812.45933,252.05864 811.71503,251.49318 810.25053,250.25204 809.16873,250.27096 806.60993,249.98529 806.03243,250.59259 804.78153,250.92953 803.90713,251.82154 800.91373,253.01269 800.71763,252.47648 799.41873,253.68695 798.14693,254.00135 798.31883,253.59187 797.24083,252.8891 796.80493,252.85354 796.38373,251.245 795.51513,250.13306 795.68783,249.63472 795.24683,248.83115 794.36393,248.57021 793.85303,248.90592 793.16103,248.23474 792.95223,247.83515 792.57583,248.41627 792.17663,247.70892 791.54373,247.82929 791.51823,248.13971 790.90033,247.35969 790.43093,246.1508 789.10933,245.03397 790.21003,239.53998 790.65833,235.37129 790.83423,233.18317 790.99513,228.95104 791.62293,226.70466 792.07013,226.60529 792.50863,227.43308 793.76013,228.07464 795.81643,230.00456 796.30573,230.34407 798.19083,230.65254 795.75303,229.58924 794.61783,227.14852 793.64123,226.2161 791.22743,222.94579 790.87423,221.621 791.05003,220.73234 795.42833,220.56823 796.34983,218.95987 796.67983,218.70184 797.62913,219.47631 798.39303,219.1401 799.61073,218.70492 800.72903,219.35447 801.43783,218.72741 802.48173,219.30279 803.90713,218.79651 804.98393,219.58088 807.14593,219.26302 808.42553,217.9787 809.02513,216.27189 810.38423,216.066 811.98453,217.0026 812.43373,217.78933 813.36383,216.29212 815.34673,215.18218 817.30143,213.89154 816.88623,213.46202 817.04683,211.14871 818.55303,211.50411 820.15023,211.77558 820.90663,212.08055 821.72753,212.27867 822.49843,213.40761 823.87753,213.65514 824.16313,214.03024 825.27793,213.42034 826.10843,213.63692 826.49473,212.88143 827.11353,213.14908 827.47413,213.96966 828.33393,214.24504 829.33603,215.66611 828.58613,217.284 827.44233,217.84531 828.49603,218.42223 828.57893,218.82503 829.81433,218.21359 829.59533,218.62618 830.43803,221.21383 832.26663,222.64309 833.44343,224.64317 834.96513,224.1812 835.03353,224.51193 838.01023,223.92004 838.12653,223.49362 839.65143,222.72981 839.74083,222.69408 839.68003,223.05392 840.31853,223.28126 841.08063,222.97042 843.13643,223.12083 844.35093,224.18803 843.20943,224.9958 843.84063,225.71105 845.05443,225.80441 845.03163,227.00395 843.36383,228.39741 843.23813,231.44399 844.73083,232.97248 845.67243,233.6072 845.44353,234.41163 846.26263,235.88184 844.38333,236.84875 843.52333,236.6729 842.86423,237.21419 842.66553,237.06879 841.49173,236.96237 840.41203,237.49643 841.17243,238.31158 841.05193,238.6688 841.18203,239.10607 842.06253,239.31963 843.04233,240.25839 843.73643,242.36548 843.84103,244.09845 844.72213,245.27719 843.52233,245.75615 842.40093,246.98497 842.58373,248.73386 842.63363,248.84101 842.27313,249.05531 842.69993,250.64442 842.82493,252.12511 842.55483,252.41601 844.36073,254.35861 843.93163,255.54636 843.04873,255.93907 841.91133,256.48391 840.64853,258.23125 840.91993,259.4482 840.52863,260.07109 839.82113,260.18856 839.44263,259.99553 838.69493,260.36562 837.68253,258.86557 838.50703,257.33428 837.70083,256.95829 837.22183,256.21782 836.82643,256.13502 836.27553,255.0535 836.06183,255.44917 834.36253,256.0232 833.82893,256.98797 831.14763,256.4115 831.05993,257.0472 831.36523,257.16539 832.11503,259.69779 830.23593,261.23023 828.50453,260.59588 827.02963,258.97068 827.06423,260.29857 826.35423,261.41963 824.28083,260.52325 823.44253,259.45432 822.54823,260.02533 822.23323,259.81925 821.28213,258.27529 823.41723,256.61914 823.78763,255.78585 823.30053,254.73556 822.27973,253.99709 821.47733,254.35462 820.01033,256.50361 818.25813,256.41429 818.12603,255.74445 817.78303,255.77081 816.89983,255.77134 z">
      <title id="t309">Quatrième circonscription du Pas-de-Calais</title>
      <desc id="d309">Cantons de : Berck, Campagne-lès-Hesdin, Etaples, Fruges, Hesdin, Hucqueliers, Le Parcq, Montreuil</desc>
    </path><path class="circo" id="062-05" d="M 791.72893,201.40667 791.30303,201.58418 792.03733,200.8443 791.64813,200.45365 791.02813,201.06614 790.74133,202.02444 790.88743,202.33391 790.76483,202.46145 790.42303,202.10016 790.61283,200.96395 790.33253,201.41499 789.62233,201.3496 790.56503,202.64457 789.57483,204.8213 789.67373,205.77098 790.48663,209.54975 791.03733,212.88264 791.01033,217.25347 791.05003,220.73234 795.42833,220.56823 796.34983,218.95987 796.67983,218.70184 797.62913,219.47631 798.39303,219.1401 799.61073,218.70492 800.72903,219.35447 801.43783,218.72741 802.48173,219.30279 803.90713,218.79651 804.98393,219.58088 807.14593,219.26302 808.42553,217.9787 809.02513,216.27189 810.38423,216.066 811.98453,217.0026 812.43373,217.78933 813.36383,216.29212 815.34673,215.18218 817.30143,213.89154 816.88623,213.46202 815.12583,213.74453 811.13013,213.2622 810.34253,213.22239 809.51233,213.13997 808.47653,211.86271 807.96053,210.37737 807.83063,209.66092 807.47373,209.55579 806.28343,209.27833 806.52623,208.45727 805.57803,207.77883 804.67303,206.74708 805.57713,205.74763 805.20583,204.45049 805.73633,203.20127 805.67133,201.82519 805.41073,201.60405 805.38683,200.92836 805.62693,200.15322 805.06233,199.56804 804.34823,197.83273 803.39283,197.78906 801.75273,195.94924 800.64433,195.32832 798.32543,196.841 797.40063,196.27553 797.33863,195.03544 797.64553,194.75761 797.57103,193.84095 798.58123,192.88759 797.41973,190.53482 796.62453,190.63301 795.16533,191.09999 794.36103,191.15379 793.63603,190.7164 793.20053,190.87135 793.28603,195.92747 792.39983,198.03895 792.48743,198.50754 792.30533,200.23206 792.15863,200.63132 792.73373,201.00423 793.06123,201.85755 792.58653,201.03821 791.72893,201.40667 z">
      <title id="t310">Cinquième circonscription du Pas-de-Calais</title>
      <desc id="d310">Cantons de : Boulogne-sur-Mer Nord-Est, Boulogne-sur-Mer-Nord Ouest, Boulogne-sur-Mer Sud, Outreau, Le Portel, Samer</desc>
    </path><path class="circo" id="062-06" d="M 823.18593,180.74352 822.54443,180.19115 821.79623,180.5735 819.95333,180.41844 816.80043,178.67338 816.81543,178.62837 816.65533,176.85437 816.14053,176.10591 814.94663,175.45296 814.34583,174.87019 814.78483,175.77951 815.30023,175.97042 812.49513,180.18293 811.17513,181.47903 809.54753,179.30983 806.73843,180.71092 804.67633,179.52879 804.38783,179.0534 803.48143,178.17205 802.62773,178.03121 800.73063,175.76333 798.54433,178.88738 795.93153,180.93037 793.95153,181.51729 791.61613,181.68216 791.26743,182.00017 791.02873,183.87626 791.89283,187.06168 792.34613,188.91541 792.84253,190.49998 793.63603,190.7164 794.36103,191.15379 795.16533,191.09999 796.62453,190.63301 797.41973,190.53482 798.58123,192.88759 797.57103,193.84095 797.64553,194.75761 797.33863,195.03544 797.40063,196.27553 798.32543,196.841 800.64433,195.32832 801.75273,195.94924 803.39283,197.78906 804.34823,197.83273 805.06233,199.56804 805.62693,200.15322 805.38683,200.92836 805.41073,201.60405 805.67133,201.82519 805.73633,203.20127 805.20583,204.45049 805.57713,205.74763 804.67303,206.74708 805.57803,207.77883 806.52623,208.45727 806.28343,209.27833 807.47373,209.55579 807.83063,209.66092 807.96053,210.37737 808.47653,211.86271 809.51233,213.13997 810.34253,213.22239 811.13013,213.2622 815.12583,213.74453 816.88623,213.46202 817.04683,211.14871 818.55303,211.50411 820.15023,211.77558 820.90663,212.08055 821.72753,212.27867 822.49843,213.40761 823.87753,213.65514 824.16313,214.03024 825.27793,213.42034 826.10843,213.63692 826.49473,212.88143 827.11353,213.14908 827.47413,213.96966 828.33393,214.24504 829.33603,215.66611 828.58613,217.284 827.44233,217.84531 828.49603,218.42223 828.57893,218.82503 829.81433,218.21359 829.59533,218.62618 830.43803,221.21383 832.26663,222.64309 833.44343,224.64317 834.96513,224.1812 835.03353,224.51193 838.01023,223.92004 838.12653,223.49362 839.65143,222.72981 839.74083,222.69408 839.68003,223.05392 840.31853,223.28126 841.08063,222.97042 843.13643,223.12083 844.35093,224.18803 843.20943,224.9958 843.84063,225.71105 845.05443,225.80441 845.03163,227.00395 843.36383,228.39741 843.23813,231.44399 844.73083,232.97248 845.67243,233.6072 845.44353,234.41163 846.26263,235.88184 844.38333,236.84875 843.52333,236.6729 842.86423,237.21419 842.66553,237.06879 841.49173,236.96237 840.41203,237.49643 841.17243,238.31158 841.05193,238.6688 841.18203,239.10607 842.06253,239.31963 843.04233,240.25839 843.73643,242.36548 844.33313,241.84318 844.99203,242.88454 847.28193,241.81409 848.12933,243.00126 849.44113,242.7961 849.65123,242.65763 849.68603,242.03449 851.86123,241.2325 852.51373,240.59788 853.31673,240.88664 853.48983,241.55713 854.55593,240.93334 855.79893,240.85582 856.08073,240.69529 856.81353,241.63077 857.46633,241.56193 857.74763,242.07705 858.10343,242.35921 860.19523,241.64452 860.73343,242.35548 861.60703,242.11401 862.02853,242.41151 862.56453,242.22194 862.81263,240.37302 864.20653,236.95036 864.10513,236.82285 864.24883,236.67557 863.22083,235.8582 862.91753,234.09679 863.22413,233.83203 865.01083,232.29854 863.73763,229.88199 863.28163,230.19236 862.50673,230.09251 861.97723,229.04529 860.80193,230.12446 859.99603,229.88706 859.31613,228.93968 858.56163,226.30156 858.38253,226.06041 857.20173,224.99059 857.29213,225.80749 856.68103,226.32751 855.28333,226.69209 854.59463,225.38106 854.17733,225.31257 853.76743,224.57654 853.97463,222.89695 854.34733,220.967 853.99793,220.18174 852.81623,219.74395 852.48573,217.19279 852.19633,216.88044 851.81423,215.3029 850.23853,214.78692 847.28733,217.30945 846.92843,217.00996 846.72683,215.63181 847.39833,213.4907 846.12723,212.19194 845.91213,211.77786 844.05223,211.77116 843.98843,211.02577 844.39613,210.39601 845.16083,210.18858 845.50783,209.11042 846.32833,208.93755 846.16403,208.58643 846.79533,207.69311 845.75523,205.57587 846.42813,204.63596 843.77023,201.91367 845.04233,201.14657 844.70703,200.53892 843.18793,200.188 842.76033,199.50787 842.63523,198.09766 842.90793,197.95619 842.72653,197.15274 841.39143,195.74254 840.74103,195.7627 837.82003,198.08772 836.79243,198.01477 836.58673,198.32202 835.44983,196.9919 833.11913,197.9918 833.11693,197.90501 835.20703,196.04331 836.96403,195.39149 838.29683,194.08858 836.89853,193.83383 839.34143,191.77889 843.04503,189.97067 844.81963,188.67188 844.54423,186.1754 844.07883,185.52188 843.16903,185.3633 841.48573,186.12223 838.78743,185.4193 838.74153,183.74323 837.82403,181.82494 836.13453,184.62864 834.22103,185.31726 833.42133,185.12004 831.57093,186.92939 830.25133,187.15306 829.64663,188.42458 829.41033,188.39484 829.83233,186.36236 828.84563,185.65716 827.67203,182.54672 828.04643,182.32086 827.62363,182.24153 826.92043,179.61206 826.47893,177.78483 825.49903,176.79492 823.18593,180.74352 z">
      <title id="t311">Sixième circonscription du Pas-de-Calais</title>
      <desc id="d311">Cantons de : Ardres, Desvres, Fauquembergues, Guînes, Heuchin, Lumbres, Marquise</desc>
    </path><path class="circo" id="062-07" d="M 826.47893,177.78483 825.49903,176.79492 823.18593,180.74352 822.54443,180.19115 821.79623,180.5735 819.95333,180.41844 816.80043,178.67338 816.81543,178.62837 816.65533,176.85437 816.14053,176.10591 814.94663,175.45296 814.34583,174.87019 814.78483,175.77951 815.30023,175.97042 812.49513,180.18293 811.17513,181.47903 809.54753,179.30983 806.73843,180.71092 804.67633,179.52879 804.38783,179.0534 803.48143,178.17205 802.62773,178.03121 800.73063,175.76333 801.85093,174.62706 803.89243,172.67118 807.25723,170.88349 812.27083,169.41961 813.03643,169.25698 813.56163,168.76245 813.92193,169.28397 813.28833,169.88156 814.50013,169.27547 813.88183,168.68754 815.44683,168.60183 814.22623,168.20309 816.64013,167.76018 817.47353,168.02571 819.40573,166.69321 821.95313,165.95718 824.55013,165.74476 830.16703,164.69379 831.21223,163.7907 832.60903,163.46501 834.41063,163.86675 836.20983,166.00255 836.14153,166.48177 837.16763,167.18601 837.49003,168.37641 838.38433,169.32662 838.90823,171.43438 839.71563,173.44527 840.92543,176.2654 842.89923,181.25233 843.03263,181.6932 843.20093,183.06535 844.16113,184.61033 844.07883,185.52188 843.16903,185.3633 841.48573,186.12223 838.78743,185.4193 838.74153,183.74323 837.82403,181.82494 836.13453,184.62864 834.22103,185.31726 833.42133,185.12004 831.57093,186.92939 830.25133,187.15306 829.64663,188.42458 829.41033,188.39484 829.83233,186.36236 828.84563,185.65716 827.67203,182.54672 828.04643,182.32086 827.62363,182.24153 826.92043,179.61206 826.47893,177.78483 z">
      <title id="t312">Septième circonscription du Pas-de-Calais</title>
      <desc id="d312">Cantons de : Audruicq, Calais Centre, Calais Est, Calais Nord-Ouest, Calais Sud-Est</desc>
    </path><path class="circo" id="062-08" d="M 862.22573,209.31829 862.08773,208.83549 861.16733,207.42925 860.73453,207.34581 858.92483,208.53358 858.42103,207.80807 857.75383,206.79497 859.67843,204.92544 857.99603,203.4598 857.99593,203.43564 857.08423,202.56965 856.41053,201.00168 855.72713,200.61708 855.94073,199.27026 857.76323,197.81002 859.33463,197.35025 861.82993,195.77211 861.16383,195.48409 861.22243,195.1134 859.71043,194.32168 858.67123,193.58202 858.23563,193.73031 857.94073,194.59752 857.48243,194.60841 855.80193,193.86717 853.97403,193.6608 853.42593,193.02016 851.38313,194.38701 851.30153,193.07287 850.11723,193.55419 848.51473,192.90924 847.48833,191.768 846.12443,190.2475 844.99533,189.88081 844.81963,188.67188 843.04503,189.97067 839.34143,191.77889 836.89853,193.83383 838.29683,194.08858 836.96403,195.39149 835.20703,196.04331 833.11693,197.90501 833.11913,197.9918 835.44983,196.9919 836.58673,198.32202 836.79243,198.01477 837.82003,198.08772 840.74103,195.7627 841.39143,195.74254 842.72653,197.15274 842.90793,197.95619 842.63523,198.09766 842.76033,199.50787 843.18793,200.188 844.70703,200.53892 845.04233,201.14657 843.77023,201.91367 846.42813,204.63596 845.75523,205.57587 846.79533,207.69311 846.16403,208.58643 846.32833,208.93755 845.50783,209.11042 845.16083,210.18858 844.39613,210.39601 843.98843,211.02577 844.05223,211.77116 845.91213,211.77786 846.12723,212.19194 847.39833,213.4907 846.72683,215.63181 846.92843,217.00996 847.28733,217.30945 850.23853,214.78692 851.81423,215.3029 852.19633,216.88044 852.48573,217.19279 852.81623,219.74395 853.99793,220.18174 854.34733,220.967 853.97463,222.89695 853.76743,224.57654 854.17733,225.31257 854.59463,225.38106 855.28333,226.69209 856.68103,226.32751 857.29213,225.80749 857.20173,224.99059 858.38253,226.06041 858.56163,226.30156 859.31613,228.93968 859.99603,229.88706 860.80193,230.12446 861.97723,229.04529 862.50673,230.09251 863.28163,230.19236 863.73763,229.88199 865.01083,232.29854 865.63453,232.01954 865.85993,232.28184 866.59213,231.77193 867.37123,232.17093 868.16783,231.81068 868.51263,230.17204 868.93563,230.27256 870.03573,229.58523 870.09013,229.08821 868.96613,228.29366 867.76683,229.01668 867.05803,228.96735 867.21333,227.67498 868.00373,226.62549 866.07183,225.42721 864.38253,226.9851 864.09463,226.73997 863.89203,226.53374 863.89213,226.38368 863.98333,224.88825 864.43563,224.14896 865.62633,223.51623 865.18533,222.2641 865.30363,221.53173 864.54573,220.57706 864.72763,220.20343 867.76523,219.44967 867.64583,219.16688 866.80653,219.28069 866.37453,218.67064 867.37673,217.79857 868.60363,214.88835 866.74593,213.99513 866.61733,213.6014 867.07503,212.96935 865.17423,210.97925 863.42033,210.52969 862.68453,209.36067 862.22573,209.31829 z">
      <title id="t313">Huitième circonscription du Pas-de-Calais</title>
      <desc id="d313">Cantons de : Aire-sur-la-Lys, Arques, Auchel, Norrent-Fontes, Saint-Omer Nord, Saint-Omer Sud</desc>
    </path><path class="circo" id="062-09" d="M 895.62348,208.85454 894.56098,209.69829 892.27973,209.60454 891.40473,211.26079 891.37348,211.35454 894.21723,213.63579 893.52973,214.22954 891.84223,213.66704 891.46723,213.91704 890.62348,216.35454 890.74848,217.22954 892.24848,220.38579 892.77973,221.38579 893.49848,222.94829 894.37348,224.94829 895.18598,224.66704 895.96723,224.91704 896.12348,222.69829 895.56098,220.97954 893.93598,220.41704 894.18598,219.97954 895.56098,217.10454 897.27973,215.63579 897.52973,215.44829 898.37348,214.44829 900.12348,214.44829 900.77973,213.97954 898.71723,211.13579 897.87348,210.22954 896.65473,209.91704 895.62348,208.85454 z M 872.31098,212.57329 871.40473,212.60454 870.77973,213.29204 869.90473,213.54204 868.62348,213.85454 867.06098,212.97954 866.62348,213.60454 866.74848,213.97954 868.59223,214.88579 867.37348,217.79204 866.37348,218.66704 866.81098,219.29204 867.65473,219.16704 867.77973,219.44829 864.71723,220.19829 864.56098,220.57329 865.31098,221.54204 865.18598,222.26079 865.62348,223.51079 864.43598,224.13579 863.99848,224.88579 863.90473,226.38579 863.90473,226.54204 864.09223,226.72954 864.37348,226.97954 866.06098,225.41704 867.99848,226.63579 867.21723,227.66704 867.06098,228.97954 867.77973,229.01079 868.96723,228.29204 870.09223,229.07329 870.02973,229.57329 871.84223,231.69829 872.93598,231.01079 873.09223,229.72954 873.81098,230.13579 875.71723,230.13579 876.31098,229.44829 876.74848,229.47954 877.77973,229.66704 877.96723,230.63579 878.71723,231.01079 880.21723,229.97954 880.59223,230.69829 880.49848,231.91704 882.18598,233.29204 882.65473,233.04204 883.56098,232.85454 884.02973,231.69829 884.02973,230.19829 882.87348,229.19829 882.96723,227.16704 883.93598,226.41704 884.43598,225.72954 884.34223,224.51079 886.09223,223.04204 887.24848,224.54204 887.84223,224.38579 888.09223,223.47954 889.49848,222.32329 889.56098,221.88579 887.84223,220.47954 888.90473,219.57329 889.62348,217.88579 887.90473,218.47954 888.31098,217.76079 888.02973,216.97954 888.56098,216.29204 887.93598,214.19829 886.18598,214.22954 884.81098,213.29204 884.34223,213.32329 883.93598,214.63579 880.43598,215.72954 879.18598,214.44829 878.96723,213.57329 877.21723,213.85454 876.96723,213.10454 876.59223,213.19829 875.99848,213.79204 875.12348,213.79204 874.81098,214.85454 874.59223,214.44829 873.27973,214.51079 872.90473,214.26079 872.62348,213.91704 872.31098,212.57329 z">
      <title id="t314">Neuvième circonscription du Pas-de-Calais</title>
      <desc id="d314">Cantons de : Béthune Est, Béthune Nord, Béthune Sud, Laventie, Lillers</desc>
    </path><path class="circo" id="062-10" d="M 870.67953,241.11548 869.22903,240.13027 868.27993,238.75729 867.95773,238.83258 868.12193,239.46404 867.23303,239.29027 865.00993,237.14356 864.20653,236.95036 864.10513,236.82285 864.24883,236.67557 863.22083,235.8582 862.91753,234.09679 863.22413,233.83203 865.01083,232.29854 865.63453,232.01954 865.85993,232.28184 866.59213,231.77193 867.37123,232.17093 868.16783,231.81068 868.51263,230.17204 868.93563,230.27256 870.03573,229.58523 871.83363,231.68694 872.92303,231.00632 873.09033,229.74324 873.81053,230.12793 875.73093,230.14237 876.30173,229.45784 876.74583,229.49032 877.76503,229.66263 877.95303,230.62996 878.70743,231.01487 880.21353,229.98063 880.60103,230.70333 880.48823,231.93228 882.17253,233.28336 882.64613,233.02712 883.55083,232.85771 884.02433,231.69349 884.01703,230.19757 882.86053,229.19582 882.97863,227.17553 883.95113,226.42367 884.43913,225.72295 884.33723,224.51433 886.10743,223.04335 887.24603,224.54497 886.95343,225.38173 888.27243,226.29541 888.51473,228.48859 887.49223,229.02497 887.97503,230.20639 886.75863,233.5249 887.09223,233.82227 886.66093,234.26991 885.92363,234.71029 885.16553,235.88464 886.33983,236.92285 886.71433,237.9964 886.04203,239.06309 886.50863,239.85442 887.69043,240.56171 889.47553,240.65125 889.55043,241.26919 889.25523,241.59595 889.61673,243.26777 889.22403,244.03897 888.56433,244.55603 886.55053,244.02457 884.80213,243.92134 883.78503,243.10998 883.37973,243.29859 883.17253,243.6946 883.87683,244.8146 883.51023,245.63135 882.73183,245.35587 882.26223,246.08561 882.08263,245.94041 881.57983,246.68955 879.89513,246.05348 879.77943,246.32333 877.60183,246.01214 877.43233,246.48104 875.97713,247.10495 874.89293,246.37132 874.04203,246.61423 873.11383,245.43214 873.00633,245.43627 873.03763,244.85554 872.12203,243.24577 871.09343,242.98606 871.44933,242.19832 871.09063,240.94642 870.67953,241.11548 z">
      <title id="t315">Dixième circonscription du Pas-de-Calais</title>
      <desc id="d315">Cantons de : Barlin, Bruay-la-Buissière, Divion, Houdain, Nœux-les-Mines, Sains-en-Gohelle</desc>
    </path><path class="circo" id="062-11" d="M 904.21633,235.68232 904.55093,234.35833 905.27733,233.8192 904.31143,232.94121 904.21763,231.54048 905.63903,230.47492 907.66303,229.92743 908.71613,230.15493 908.85593,229.81047 911.36523,231.96435 912.56493,232.48493 912.77783,232.81829 913.96513,234.0141 913.33823,235.14704 913.25323,235.74763 912.55843,237.41472 913.27193,237.92057 913.24533,239.25183 914.39373,238.88437 915.12373,239.23821 915.39273,238.92922 915.78033,238.12656 916.85523,237.37107 917.51043,237.05757 917.62033,238.61674 918.80773,239.03373 918.20723,239.71242 917.67993,241.44652 915.16903,241.7754 914.36463,243.3282 913.09863,244.40426 911.47003,244.87581 911.15243,244.64124 910.19963,244.48334 911.04153,245.54148 911.34013,247.2985 909.50943,247.41741 908.26013,247.9959 907.81593,247.42527 907.23473,247.35396 905.88753,247.66614 904.79683,246.52544 903.18343,246.7918 902.72523,246.00614 901.87853,245.72241 900.36873,246.55917 900.29623,247.43407 899.20903,247.46113 900.31743,245.60499 899.71153,245.26788 899.90463,244.45289 900.13043,244.61293 900.50223,244.62341 901.10633,244.38205 901.58773,244.02659 902.18953,243.04997 902.15853,242.91916 901.52283,242.91941 901.50733,242.64243 902.27603,242.37069 902.54853,242.48528 902.58443,243.44318 904.65503,243.41903 905.19423,244.06871 905.40743,243.50213 904.94713,241.81289 905.56873,239.78662 905.18983,239.64689 904.81083,239.3885 904.90553,238.49446 906.82923,236.55366 906.46633,235.7125 904.37183,235.7085 904.21633,235.68232 z">
      <title id="t316">Onzième circonscription du Pas-de-Calais</title>
      <desc id="d316">Cantons de : Carvin, Courrières, Hénin-Beaumont, Leforest, Montigny-en-Gohelle, Rouvroy</desc>
    </path><path class="circo" id="062-12" d="M 886.75863,233.5249 887.97503,230.20639 887.49223,229.02497 888.51473,228.48859 888.27243,226.29541 886.95343,225.38173 887.24603,224.54497 887.83463,224.37948 888.08183,223.49362 889.49953,222.32606 889.57473,221.87062 887.82793,220.4855 888.89843,219.58181 889.62383,217.87397 887.89993,218.4845 888.29773,217.76549 888.02873,216.97554 888.57063,216.28596 890.36553,217.43763 890.73413,217.2177 892.24663,220.38576 892.77553,221.39949 893.49263,222.93857 894.38533,224.93922 894.96033,226.48038 894.80303,227.69905 895.17583,227.92141 896.07673,227.75842 896.96083,228.09484 899.28913,227.69517 900.13033,227.53886 901.86823,226.70907 902.24743,226.48399 902.25433,227.10933 901.83193,230.482 902.25553,230.47171 902.67283,231.21012 903.49493,231.38305 903.76613,231.05643 904.21763,231.54048 904.31143,232.94121 903.12733,233.8733 902.03363,233.42391 901.74583,233.67853 901.75513,235.05142 900.46953,236.3157 899.92183,236.87879 900.11133,237.23208 898.34243,238.45655 897.41933,237.09229 896.25723,237.47013 896.12763,236.72484 895.86703,235.24628 894.67013,235.6496 894.01013,235.14424 893.14933,234.29903 891.98963,236.0035 891.76833,237.15958 891.12453,237.68534 891.35553,238.99556 891.08423,239.34752 892.41163,239.72443 893.75363,239.38049 895.19843,241.87186 896.78063,242.21193 896.35073,242.7973 895.23703,242.98325 893.96443,244.04737 892.67783,244.24969 891.55303,245.42387 889.22403,244.03897 889.61673,243.26777 889.25523,241.59595 889.55043,241.26919 889.47553,240.65125 887.69043,240.56171 886.50863,239.85442 886.04203,239.06309 886.71433,237.9964 886.33983,236.92285 885.16553,235.88464 885.92363,234.71029 886.66093,234.26991 887.09223,233.82227 886.75863,233.5249 z">
      <title id="t317">Douzième circonscription du Pas-de-Calais</title>
      <desc id="d317">Cantons de : Bully-les-Mines, Cambrin, Douvrin, Liévin Nord, Liévin Sud, Wingles</desc>
    </path></svg>