<svg xmlns="http://www.w3.org/2000/svg" version="1.1" xmlns:xlink="http://www.w3.org/1999/xlink" xmlns:svgjs="http://svgjs.dev/svgjs" viewBox="0 0 138.6291 131.73275"><path class="circo" id="id-062-01" d="M83.89700000000005 81.97126L83.92830000000004 81.39052999999998L83.0127 79.78075999999999L81.98410000000001 79.52105L82.34000000000003 78.73330999999999L81.98130000000003 77.48140999999998L81.5702 77.65046999999998L80.11969999999997 76.66525999999999L79.17060000000004 75.29228L78.84839999999997 75.36757L79.01260000000002 75.99903L78.12369999999999 75.82525999999999L75.90060000000005 73.67855L75.09720000000004 73.48534999999998L73.70330000000001 76.90800999999999L73.45519999999999 78.75692999999998L72.91920000000005 78.94649999999999L72.49770000000001 78.649L71.6241 78.89047L71.08590000000004 78.17951L68.9941 78.89419999999998L68.63829999999996 78.61204000000001L68.35699999999997 78.09691999999998L67.70420000000001 78.16576L66.97140000000002 77.23028L66.68960000000004 77.39080999999999L65.44659999999999 77.46832999999998L64.38049999999998 78.09212L64.2074 77.42163L63.40440000000001 77.13287L62.75189999999998 77.76748999999998L60.57669999999996 78.56948L60.541900000000055 79.19262L60.331800000000044 79.33108999999999L59.01999999999998 79.53625L58.17259999999999 78.34907999999999L55.8827 79.41952999999998L55.22379999999998 78.37816999999998L54.62710000000004 78.90046999999998L54.731700000000046 80.63344000000001L55.61279999999999 81.81217999999998L54.41300000000001 82.29113999999998L53.29160000000002 83.51996L53.474399999999946 85.26884999999999L53.52430000000004 85.376L53.16380000000004 85.59029999999998L53.590599999999995 87.17940999999999L53.715599999999995 88.6601L53.44550000000004 88.951L55.25139999999999 90.89359999999999L54.82230000000004 92.08134999999999L53.93939999999998 92.47405999999998L52.80200000000002 93.01889999999997L51.53920000000005 94.76623999999998L51.81060000000002 95.98318999999998L51.41930000000002 96.60608000000002L50.71180000000004 96.72354999999999L50.33330000000001 96.53051999999997L49.5856 96.90060999999997L48.57320000000004 95.40055999999998L49.397699999999986 93.86926999999997L48.591499999999996 93.49327999999997L48.112499999999955 92.75281000000001L47.71709999999996 92.67000999999999L47.1662 91.58849000000001L46.952499999999986 91.98416L45.25319999999999 92.55818999999997L44.719600000000014 93.52296000000001L42.03830000000005 92.94648999999998L41.95060000000001 93.58218999999997L42.2559 93.70038L43.00570000000005 96.23277999999999L41.12660000000005 97.76522L39.395200000000045 97.13087000000002L37.9203 95.50567000000001L37.95489999999995 96.83355999999998L37.24490000000003 97.95461999999998L38.01850000000002 98.66375999999997L38.751300000000015 98.98532L39.97410000000002 98.77427999999998L40.95479999999998 99.50486999999998L41.8809 100.47388999999998L43.21860000000004 100.62624999999997L44.35900000000004 101.54273L43.22789999999998 102.62668000000002L43.168499999999995 103.44000999999997L43.519499999999994 103.63641999999999L43.56550000000004 104.41867000000002L44.85069999999996 105.76355999999998L45.0299 107.88213999999999L45.95849999999996 107.13684999999998L47.48180000000002 107.63713000000001L48.108299999999986 106.65087L49.278099999999995 107.02807000000001L49.785999999999945 107.69038L50.47389999999996 109.28789999999998L52.47460000000001 106.9699L52.91669999999999 107.04865999999998L52.97479999999996 106.68793L53.70209999999997 106.73163L54.7011 106.36835000000002L54.73659999999995 106.00173999999998L56.820299999999975 105.71134999999998L56.67790000000002 106.84120000000001L57.36310000000003 106.60543999999999L59.28620000000001 106.06682L60.6395 104.34453000000002L62.4529 105.54967999999997L63.3886 106.29635999999999L64.80780000000004 105.47395999999998L65.2151 105.52656000000002L65.55100000000004 106.27762999999999L65.90539999999999 105.13173L65.01340000000005 103.65515999999997L64.62599999999998 103.84703999999999L64.49990000000003 103.44479999999999L66.0394 102.82537000000002L66.3605 103.36917999999997L68.49199999999996 107.07720999999998L69.00959999999998 106.95263L70.24210000000005 104.55471999999997L70.45809999999994 104.64134999999999L70.85019999999997 104.72771L72.34109999999998 103.46114L73.22400000000005 104.25869L74.8777 104.39580999999998L76.17070000000001 104.00369999999998L76.81100000000004 105.42028999999997L78.16409999999996 106.93191000000002L78.98749999999995 106.98131999999998L79.30399999999997 107.37164999999999L79.8247 108.07668999999999L79.87879999999996 108.73928999999998L79.00170000000003 109.16708L78.02549999999997 109.52395999999999L76.06479999999999 110.86896000000002L75.17269999999996 110.60347999999999L73.51769999999999 111.38421L73.00689999999997 111.58701000000002L72.98000000000002 112.77299999999997L72.02269999999999 112.68966999999998L71.6449 113.79838000000001L70.87599999999998 113.92574000000002L71.05759999999998 115.29672999999997L70.56449999999995 116.0546L70.02729999999997 118.73930000000001L69.65899999999999 120.05543999999998L71.31039999999996 119.93178L71.5231 120.42057999999997L72.97810000000004 121.19639000000001L73.43150000000003 122.80309L74.26589999999999 122.84814L75.66629999999998 118.97116L75.99459999999999 118.04843999999997L76.42420000000004 117.14999L77.64409999999998 116.82258999999999L78.20299999999997 116.39596999999998L79.48749999999995 116.28987000000001L81.51589999999999 115.87090999999998L82.99350000000004 119.2844L84.3329 118.08834999999999L84.04380000000003 117.76139L84.1576 116.50193000000002L84.60829999999999 115.75380000000001L85.04020000000003 115.69052999999997L86.05679999999995 116.51506L86.74220000000003 116.07542000000001L87.10069999999996 116.27010999999999L87.60929999999996 116.32925999999998L86.16499999999996 118.28642000000002L86.14049999999997 118.57821999999999L86.67740000000003 119.51583999999997L87.80629999999996 119.72062999999997L88.1422 120.41395L90.17439999999999 119.92050999999998L91.35739999999998 120.3184L91.35040000000004 120.60532999999998L91.7867 121.28053999999997L92.78689999999995 122.02323999999999L93.55020000000002 121.24514999999997L94.87249999999995 122.12619999999998L95.74869999999999 121.93565999999998L96.5358 122.33355L97.57370000000003 123.80142000000001L98.86019999999996 122.91980999999998L97.03949999999998 120.94168000000002L97.14819999999997 120.49612000000002L98.3949 119.93203999999997L97.85149999999999 117.77915999999999L98.18920000000003 117.55043999999998L99.78980000000001 117.85433999999998L101.45640000000003 119.58582999999999L102.70129999999995 119.86536999999998L103.89790000000005 119.43205999999998L104.12220000000002 119.80412999999999L103.88789999999995 121.35805999999997L104.20190000000002 122.46035L103.57510000000002 124.03494999999998L102.38189999999997 125.30536000000001L102.66420000000005 126.50203999999997L100.84460000000001 128.16895999999997L101.68230000000005 129.18628999999999L102.51739999999995 129.35357999999997L103.68359999999996 128.85805L104.12379999999996 128.12329L105.27919999999995 127.89785L105.38080000000002 127.73714999999999L106.35770000000002 126.25536L106.63969999999995 126.61259999999999L107.68499999999995 125.79322000000002L108.40089999999998 126.16147999999998L108.96780000000001 124.99943999999999L110.45619999999997 124.19839999999999L110.56590000000006 126.44974000000002L111.24800000000005 126.59127999999998L112.22249999999997 128.66559999999998L111.69209999999998 129.89684999999997L110.41859999999997 130.23892999999998L110.45690000000002 131.07202L110.53809999999999 131.40107L111.7971 131.73275L112.42439999999999 131.2767L112.18460000000005 130.9491L112.77509999999995 130.39308999999997L113.91909999999996 129.68430999999998L115.68889999999999 129.82009L115.96100000000001 128.09139L116.43219999999997 128.63779999999997L117.20979999999997 128.53483L117.64800000000002 127.84251999999998L118.40179999999998 127.4651L119.49879999999996 127.88659999999999L120.12620000000004 128.34289L120.32680000000005 129.04771999999997L122.22349999999994 127.85007000000002L123.32730000000004 127.29483999999997L123.76379999999995 126.84073000000001L124.86410000000001 127.35588000000001L125.33140000000003 126.91487000000001L127.97739999999999 127.98654999999997L129.0783 128.52715L130.41819999999996 127.40976L130.04600000000005 127.19779999999997L130.04250000000002 126.02164999999997L131.08579999999995 125.46388000000002L130.1984 124.51959L130.29909999999995 123.64418L131.56359999999995 123.80513000000002L132.44129999999996 122.29167999999999L132.06500000000005 120.6488L131.6377 120.66854999999998L131.61159999999995 119.77458000000001L130.70270000000005 118.41383000000002L130.90380000000005 118.03305999999998L134.25 115.88126L134.26739999999995 115.42154999999997L132.56719999999996 114.88990999999999L131.33460000000002 113.07472999999999L130.89689999999996 112.91113000000001L128.50900000000001 114.98647999999997L128.89779999999996 117.19745999999998L128.4665 117.47327000000001L127.18790000000001 116.99007L125.8945 117.22861999999998L124.8406 119.11074000000002L123.64980000000003 119.58542999999997L122.79150000000004 118.61746L122.94939999999997 117.31122999999997L122.29740000000004 116.22514999999999L123.06479999999999 114.63256999999999L123.41160000000002 114.82796000000002L124.37639999999999 114.16109L124.981 114.51860999999997L126.10619999999994 114.17237L126.18029999999999 113.36584999999997L127.85770000000002 112.28373999999997L128.07820000000004 111.49847999999997L130.40150000000006 111.76657L130.89260000000002 112.90096L131.32809999999995 113.06545L132.57669999999996 112.44511L134.43539999999996 112.40515999999997L135.22500000000002 110.84055000000001L136.03880000000004 110.46424000000002L135.01520000000005 109.22258L134.89279999999997 108.48302000000001L133.89819999999997 108.08425999999997L134.01549999999997 107.67430999999999L134.88400000000001 105.46213L137.952 105.48392000000001L137.84349999999995 105.10064999999997L138.3967 104.53293000000002L138.6291 103.37729000000002L137.87480000000005 103.32427000000001L137.59929999999997 102.5145L135.2559 101.87597999999997L135.4194 99.71443L134.49019999999996 99.34622999999999L134.038 99.21524999999997L131.88909999999998 98.90514000000002L129.33209999999997 98.13430999999997L128.03020000000004 98.47226L128.0004 98.43648000000002L127.39099999999996 98.0061L126.67650000000003 97.89463999999998L125.84000000000003 98.79329000000001L125.66600000000005 99.14317L124.33109999999999 99.46031999999997L123.78710000000001 98.98372999999998L124.04470000000003 96.88198L125.81849999999997 96.38085000000001L126.51260000000002 96.97125L127.42970000000003 97.07938999999999L127.43880000000001 96.08670000000001L126.7935 95.54278999999997L127.71159999999998 94.42156999999997L128.29489999999998 93.75042000000002L129.18859999999995 93.76080000000002L129.9126 93.23453L129.41499999999996 92.57670000000002L127.87760000000003 90.87442999999999L127.94119999999998 90.36042999999998L126.71529999999996 88.62454L126.04499999999996 88.86336L123.8904 86.81275L123.50379999999996 86.92626999999999L123.29629999999997 86.58051L122.22749999999996 87.73243L120.06769999999995 88.26995L118.25289999999995 88.90477999999999L117.02260000000001 88.13793999999999L115.35799999999995 89.5566L114.92070000000001 89.76875999999999L115.46220000000005 91.00557999999998L115.3451 91.90933999999999L114.52549999999997 92.34772999999998L113.91430000000003 92.55061L113.46429999999998 92.91213999999997L112.84090000000003 94.5118L113.39319999999998 95.75713999999999L114.08960000000002 96.27828L113.37990000000002 96.47503999999998L113.39149999999995 97.13445999999999L111.64819999999997 97.40940999999998L110.25699999999995 98.67293999999998L110.11289999999997 98.62905L108.43359999999996 99.07655L108.02560000000005 99.79978999999997L109.30880000000002 102.09622999999999L108.61839999999995 103.17410000000001L107.07339999999999 103.5426L106.88030000000003 103.90458000000001L106.8614 103.94882999999999L105.61689999999999 101.67259999999999L103.63900000000001 102.63504999999998L102.72619999999995 103.04705000000001L101.93320000000006 102.90152L100.52530000000002 103.60651999999999L99.4588 103.50871999999998L99.05150000000003 103.78697999999997L98.37710000000004 102.21172999999999L96.17989999999998 100.97163999999998L95.93849999999998 100.74218000000002L96.7038 100.09456999999998L96.83410000000003 98.98014L96.05700000000002 98.19029999999998L95.77250000000004 97.33386000000002L96.7577 96.47237999999999L94.40319999999997 96.02443L94.79769999999996 95.22239000000002L94.4452 94.39708000000002L94.55470000000003 92.68173000000002L93.87819999999999 91.94715L94.12419999999997 91.21822L92.95039999999995 90.77856L92.86389999999994 90.36416L92.12130000000002 89.61307L92.78009999999995 87.88923L92.80859999999996 86.50748999999999L93.46889999999996 86.37663999999998L93.58879999999999 85.66666000000001L92.91409999999996 85.00924L92.47050000000002 83.22453999999999L90.7858 82.58847L90.67010000000005 82.85831999999999L88.49249999999995 82.54712999999998L88.32299999999998 83.01603L86.86779999999999 83.63994L85.78359999999998 82.90630999999999L84.93269999999995 83.14921999999999L84.00450000000001 81.96713L83.89700000000005 81.97126z">
      <title id="t306">Première circonscription du Pas-de-Calais</title>
      <desc id="d306">Cantons de : Aubigny-en-Artois, Auxi-le-Château, Avesnes-le-Comte, Bapaume, Beaumetz-lès-Loges, Bertincourt, Croisilles, Marquion, Pas-en-Artois, Saint-Pol-sur-Ternoise, Vitry-en-Artois</desc>
    </path><path class="circo" id="id-062-02" d="M101.93320000000006 102.90152L100.52530000000002 103.60651999999999L99.4588 103.50871999999998L99.05150000000003 103.78697999999997L98.37710000000004 102.21172999999999L96.17989999999998 100.97163999999998L95.93849999999998 100.74218000000002L96.7038 100.09456999999998L96.83410000000003 98.98014L96.05700000000002 98.19029999999998L95.77250000000004 97.33386000000002L96.7577 96.47237999999999L94.40319999999997 96.02443L94.79769999999996 95.22239000000002L94.4452 94.39708000000002L94.55470000000003 92.68173000000002L93.87819999999999 91.94715L94.12419999999997 91.21822L92.95039999999995 90.77856L92.86389999999994 90.36416L92.12130000000002 89.61307L92.78009999999995 87.88923L92.80859999999996 86.50748999999999L93.46889999999996 86.37663999999998L93.58879999999999 85.66666000000001L92.91409999999996 85.00924L92.47050000000002 83.22453999999999L92.9733 82.47540000000001L93.15290000000005 82.6206L93.62249999999995 81.89086L94.40089999999998 82.16633999999999L94.76750000000004 81.34959L94.06320000000005 80.22959L94.2704 79.83357999999998L94.6757 79.64497L95.69280000000003 80.45632999999998L97.44119999999998 80.55956L99.45500000000004 81.09101999999999L100.11469999999997 80.57396L102.44370000000004 81.95885999999999L103.56849999999997 80.78467999999998L104.8551 80.58236L105.75869999999998 82.36847L109.51750000000004 83.51263L110.09969999999998 83.99611999999999L111.18690000000004 83.96905999999998L111.25940000000003 83.09415999999999L112.76919999999996 82.25739999999999L113.61590000000001 82.54112999999998L114.07410000000004 83.32678999999999L115.6875 83.06043L116.77819999999997 84.20113L118.12540000000001 83.88895L118.70659999999998 83.96026L119.1508 84.53089L120.40009999999995 83.95239999999998L122.23080000000004 83.83348999999998L122.98379999999997 85.28378000000001L123.54319999999996 86.2827L123.29629999999997 86.58051L122.22749999999996 87.73243L120.06769999999995 88.26995L118.25289999999995 88.90477999999999L117.02260000000001 88.13793999999999L115.35799999999995 89.5566L114.92070000000001 89.76875999999999L115.46220000000005 91.00557999999998L115.3451 91.90933999999999L114.52549999999997 92.34772999999998L113.91430000000003 92.55061L113.46429999999998 92.91213999999997L112.84090000000003 94.5118L113.39319999999998 95.75713999999999L114.08960000000002 96.27828L113.37990000000002 96.47503999999998L113.39149999999995 97.13445999999999L111.64819999999997 97.40940999999998L110.25699999999995 98.67293999999998L110.11289999999997 98.62905L108.43359999999996 99.07655L108.02560000000005 99.79978999999997L109.30880000000002 102.09622999999999L108.61839999999995 103.17410000000001L107.07339999999999 103.5426L106.88030000000003 103.90458000000001L106.8614 103.94882999999999L105.61689999999999 101.67259999999999L103.63900000000001 102.63504999999998L102.72619999999995 103.04705000000001L101.93320000000006 102.90152z">
      <title id="t307">Deuxième circonscription du Pas-de-Calais</title>
      <desc id="d307">Cantons de : Arras Nord, Arras Ouest, Arras Sud, Dainville, Vimy</desc>
    </path><path class="circo" id="id-062-03" d="M103.30229999999995 76.25942L101.97490000000005 75.88251L102.24620000000004 75.53055L102.01520000000005 74.22032999999999L102.65899999999999 73.69457L102.88030000000003 72.53849L104.03999999999996 70.83401999999998L104.9008 71.67922999999999L105.56079999999997 72.18458999999999L106.7577 71.78127L107.01829999999995 73.25983L107.14790000000005 74.00512L108.30999999999995 73.62727999999998L109.23310000000004 74.99153999999999L111.00199999999995 73.76706999999999L110.8125 73.41378L111.36019999999996 72.85068999999999L112.64580000000001 71.58641L112.63649999999996 70.21351999999999L112.92430000000002 69.9589L114.01800000000003 70.40829L115.20209999999997 69.4762L116.168 70.35418999999999L115.4416 70.89331999999999L115.10699999999997 72.21731L115.26250000000005 72.24348999999998L117.35699999999997 72.24749L117.71990000000005 73.08865L115.7962 75.02945L115.70150000000001 75.92348999999999L116.08050000000003 76.18188L116.45939999999996 76.32160999999999L115.83780000000002 78.34788L116.29809999999998 80.03711999999999L116.08489999999995 80.6037L115.54570000000001 79.95401999999999L113.4751 79.97817L113.43920000000003 79.02026999999998L113.16669999999999 78.90567999999999L112.39800000000002 79.17741999999998L112.4135 79.45439999999999L113.04920000000004 79.45415L113.08019999999999 79.58496L112.47839999999997 80.56157999999999L111.99699999999996 80.91703999999999L111.39290000000005 81.1584L111.02110000000005 81.14792L110.7953 80.98787999999999L110.60220000000004 81.80286999999998L111.20809999999994 82.13997999999998L110.09969999999998 83.99611999999999L109.51750000000004 83.51263L105.75869999999998 82.36847L104.8551 80.58236L106.1277 79.51823999999999L107.2414 79.33229L107.67129999999997 78.74691999999999L106.08910000000003 78.40684999999999L104.64430000000004 75.91548L103.30229999999995 76.25942z">
      <title id="t308">Troisième circonscription du Pas-de-Calais</title>
      <desc id="d308">Cantons de : Avion, Harnes, Lens Est, Lens Nord-Est, Lens Nord-Ouest, Noyelles-sous-Lens</desc>
    </path><path class="circo" id="id-062-04" d="M27.790499999999952 92.30633L27.14880000000005 91.69859L26.619800000000055 90.13512L25.17489999999998 89.25681L25.138000000000034 89.01106999999999L23.350000000000023 88.59362999999999L22.605699999999956 88.02816999999999L21.141200000000026 86.78702999999999L20.059399999999982 86.80595L17.500599999999963 86.52027999999999L16.923099999999977 87.12758L15.672199999999975 87.46452L14.797800000000052 88.35652999999999L11.804399999999987 89.54767999999999L11.608299999999986 89.01147L10.309399999999982 90.22193999999999L9.037599999999998 90.53634L9.209500000000048 90.12686L8.13149999999996 89.42409L7.695600000000013 89.38853L7.274400000000014 87.77999L6.405799999999999 86.66805L6.578499999999963 86.16970999999998L6.1375000000000455 85.36614L5.254599999999982 85.1052L4.74369999999999 85.44091L4.0516999999999825 84.76972999999998L3.842899999999986 84.37013999999999L3.4664999999999964 84.95125999999999L3.0673000000000457 84.24391L2.4343999999999824 84.36427999999998L2.408900000000017 84.6747L1.7910000000000537 83.89468L1.3215999999999894 82.68579L0 81.56896L1.1006999999999607 76.07497000000001L1.5489999999999782 71.90627999999998L1.7249000000000478 69.71815999999998L1.8858000000000175 65.48603L2.5135999999999967 63.23964999999998L2.9607999999999493 63.14027999999999L3.3993000000000393 63.96806999999998L4.650800000000004 64.60962999999998L6.7070999999999685 66.53954999999999L7.19640000000004 66.87905999999998L9.081500000000005 67.18752999999998L6.643699999999967 66.12422999999998L5.508500000000026 63.683509999999984L4.5318999999999505 62.751090000000005L2.1181000000000267 59.48077999999998L1.7649000000000115 58.15599L1.9406999999999925 57.26732999999999L6.31899999999996 57.10321999999999L7.240499999999997 55.49485999999999L7.570500000000038 55.23683L8.519800000000032 56.011300000000006L9.283699999999953 55.67508999999998L10.50139999999999 55.23990999999998L11.619699999999966 55.889459999999985L12.328499999999963 55.262399999999985L13.37239999999997 55.83777999999998L14.797800000000052 55.331500000000005L15.874599999999987 56.11587L18.03660000000002 55.798010000000005L19.31619999999998 54.51369L19.91579999999999 52.80688000000001L21.274900000000002 52.600989999999996L22.87519999999995 53.537589999999994L23.32439999999997 54.32432L24.254500000000007 52.827110000000005L26.23739999999998 51.71716999999998L28.192099999999982 50.426529999999985L27.776899999999955 49.99700999999999L27.9375 47.68369999999999L29.443700000000035 48.03909999999999L31.040899999999965 48.310569999999984L31.79729999999995 48.61553999999998L32.6182 48.81366L33.389099999999985 49.9426L34.76819999999998 50.19012999999998L35.053800000000024 50.565229999999985L36.16859999999997 49.955330000000004L36.9991 50.17191L37.385400000000004 49.41641999999999L38.00419999999997 49.68406999999999L38.364799999999946 50.50465L39.22460000000001 50.78002999999998L40.22670000000005 52.2011L39.476800000000026 53.818989999999985L38.33299999999997 54.380300000000005L39.38670000000002 54.95722000000001L39.469600000000014 55.36001999999999L40.70500000000004 54.748580000000004L40.48599999999999 55.16117L41.328700000000026 57.748819999999995L43.157299999999964 59.178079999999994L44.334100000000035 61.17815999999999L45.855800000000045 60.71618999999998L45.92420000000004 61.04692L48.90089999999998 60.455029999999994L49.0172 60.028609999999986L50.542100000000005 59.26479999999998L50.63149999999996 59.22907000000001L50.57069999999999 59.58891L51.20920000000001 59.81625L51.97130000000004 59.50540999999998L54.02710000000002 59.655820000000006L55.24159999999995 60.72301999999999L54.1001 61.530789999999996L54.73130000000003 62.246039999999994L55.945100000000025 62.33939999999998L55.92229999999995 63.53894L54.25450000000001 64.9324L54.128799999999956 67.97898L55.62149999999997 69.50746999999998L56.56309999999996 70.14219L56.33420000000001 70.94662L57.153299999999945 72.41683L55.274 73.38373999999999L54.41399999999999 73.20788999999999L53.75490000000002 73.74918L53.55619999999999 73.60378L52.38239999999996 73.49735999999999L51.30269999999996 74.03142L52.06309999999996 74.84656999999999L51.94259999999997 75.20379L52.072700000000054 75.64105999999998L52.95320000000004 75.85461999999998L53.93299999999999 76.79337999999998L54.62710000000004 78.90046999999998L54.731700000000046 80.63344000000001L55.61279999999999 81.81217999999998L54.41300000000001 82.29113999999998L53.29160000000002 83.51996L53.474399999999946 85.26884999999999L53.52430000000004 85.376L53.16380000000004 85.59029999999998L53.590599999999995 87.17940999999999L53.715599999999995 88.6601L53.44550000000004 88.951L55.25139999999999 90.89359999999999L54.82230000000004 92.08134999999999L53.93939999999998 92.47405999999998L52.80200000000002 93.01889999999997L51.53920000000005 94.76623999999998L51.81060000000002 95.98318999999998L51.41930000000002 96.60608000000002L50.71180000000004 96.72354999999999L50.33330000000001 96.53051999999997L49.5856 96.90060999999997L48.57320000000004 95.40055999999998L49.397699999999986 93.86926999999997L48.591499999999996 93.49327999999997L48.112499999999955 92.75281000000001L47.71709999999996 92.67000999999999L47.1662 91.58849000000001L46.952499999999986 91.98416L45.25319999999999 92.55818999999997L44.719600000000014 93.52296000000001L42.03830000000005 92.94648999999998L41.95060000000001 93.58218999999997L42.2559 93.70038L43.00570000000005 96.23277999999999L41.12660000000005 97.76522L39.395200000000045 97.13087000000002L37.9203 95.50567000000001L37.95489999999995 96.83355999999998L37.24490000000003 97.95461999999998L35.17150000000004 97.05824000000001L34.33320000000003 95.98930999999999L33.43889999999999 96.56031999999999L33.12390000000005 96.35424L32.17280000000005 94.81027999999998L34.30790000000002 93.15413000000001L34.678300000000036 92.32084L34.19119999999998 91.27054999999999L33.17039999999997 90.53207999999998L32.36800000000005 90.88961L30.900999999999954 93.03859999999997L29.14880000000005 92.94927999999999L29.016700000000014 92.27944L28.673700000000053 92.3058L27.790499999999952 92.30633z">
      <title id="t309">Quatrième circonscription du Pas-de-Calais</title>
      <desc id="d309">Cantons de : Berck, Campagne-lès-Hesdin, Etaples, Fruges, Hesdin, Hucqueliers, Le Parcq, Montreuil</desc>
    </path><path class="circo" id="id-062-05" d="M2.6195999999999913 37.941659999999985L2.1937000000000353 38.11917L2.9279999999999973 37.37929L2.5388000000000375 36.988640000000004L1.918800000000033 37.60112999999998L1.6319999999999482 38.55942999999999L1.778099999999995 38.8689L1.655499999999961 38.99644000000001L1.3137000000000398 38.63514999999998L1.503500000000031 37.498940000000005L1.2232000000000198 37.94997999999998L0.5130000000000337 37.88459L1.455699999999979 39.17955999999998L0.46550000000002 41.35629L0.5643999999999778 42.30597L1.377299999999991 46.08473999999998L1.9279999999999973 49.41763L1.9009999999999536 53.788459999999986L1.9406999999999925 57.26732999999999L6.31899999999996 57.10321999999999L7.240499999999997 55.49485999999999L7.570500000000038 55.23683L8.519800000000032 56.011300000000006L9.283699999999953 55.67508999999998L10.50139999999999 55.23990999999998L11.619699999999966 55.889459999999985L12.328499999999963 55.262399999999985L13.37239999999997 55.83777999999998L14.797800000000052 55.331500000000005L15.874599999999987 56.11587L18.03660000000002 55.798010000000005L19.31619999999998 54.51369L19.91579999999999 52.80688000000001L21.274900000000002 52.600989999999996L22.87519999999995 53.537589999999994L23.32439999999997 54.32432L24.254500000000007 52.827110000000005L26.23739999999998 51.71716999999998L28.192099999999982 50.426529999999985L27.776899999999955 49.99700999999999L26.01649999999995 50.27951999999999L22.02080000000001 49.79719L21.23320000000001 49.75737999999998L20.40300000000002 49.67496L19.367200000000025 48.397699999999986L18.85119999999995 46.91236000000001L18.721300000000042 46.19591L18.364400000000046 46.090779999999995L17.174099999999953 45.813320000000004L17.416900000000055 44.99225999999999L16.468700000000013 44.31381999999999L15.56370000000004 43.282070000000004L16.46780000000001 42.28261999999998L16.096499999999992 40.985479999999995L16.626999999999953 39.73625999999999L16.562000000000012 38.360179999999986L16.301399999999944 38.139039999999994L16.277500000000032 37.46334999999999L16.517600000000016 36.68821L15.952999999999975 36.10302999999999L15.238899999999944 34.36771999999999L14.283500000000004 34.32405L12.643400000000042 32.48423L11.534999999999968 31.863309999999984L9.216099999999983 33.37599L8.291299999999978 32.81052L8.229299999999967 31.570429999999988L8.536200000000008 31.292599999999993L8.46169999999995 30.375939999999986L9.471900000000005 29.422579999999982L8.310399999999959 27.06980999999999L7.51520000000005 27.168000000000006L6.05600000000004 27.634979999999985L5.251700000000028 27.68877999999998L4.526700000000005 27.251389999999986L4.091199999999958 27.40634L4.1766999999999825 32.46245999999999L3.290499999999952 34.57393999999999L3.3781000000000176 35.04253L3.1960000000000264 36.76704999999998L3.0493000000000166 37.16630999999998L3.624400000000037 37.53922L3.9519000000000233 38.39254L3.477200000000039 37.573199999999986L2.6195999999999913 37.941659999999985z">
      <title id="t310">Cinquième circonscription du Pas-de-Calais</title>
      <desc id="d310">Cantons de : Boulogne-sur-Mer Nord-Est, Boulogne-sur-Mer-Nord Ouest, Boulogne-sur-Mer Sud, Outreau, Le Portel, Samer</desc>
    </path><path class="circo" id="id-062-06" d="M34.076599999999985 17.278509999999983L33.435100000000034 16.726139999999987L32.68690000000004 17.10848999999999L30.84400000000005 16.953429999999997L27.691100000000006 15.208370000000002L27.706099999999992 15.163359999999983L27.54600000000005 13.389359999999982L27.031200000000013 12.640899999999988L25.837300000000027 11.987949999999984L25.236499999999978 11.405180000000001L25.675500000000056 12.314499999999981L26.190900000000056 12.505409999999983L23.385800000000017 16.717919999999992L22.065799999999967 18.014019999999988L20.43820000000005 15.844819999999999L17.629099999999994 17.24590999999998L15.567000000000007 16.06377999999998L15.278500000000008 15.588390000000004L14.372100000000046 14.707040000000006L13.518400000000042 14.56619999999998L11.62130000000002 12.29831999999999L9.434999999999945 15.42237L6.8221999999999525 17.465360000000004L4.842200000000048 18.052279999999996L2.5067999999999984 18.217150000000004L2.1580999999999904 18.53515999999999L1.919399999999996 20.411249999999995L2.7835000000000036 23.59666999999999L3.2368000000000166 25.450400000000002L3.7332000000000107 27.034969999999987L4.526700000000005 27.251389999999986L5.251700000000028 27.68877999999998L6.05600000000004 27.634979999999985L7.51520000000005 27.168000000000006L8.310399999999959 27.06980999999999L9.471900000000005 29.422579999999982L8.46169999999995 30.375939999999986L8.536200000000008 31.292599999999993L8.229299999999967 31.570429999999988L8.291299999999978 32.81052L9.216099999999983 33.37599L11.534999999999968 31.863309999999984L12.643400000000042 32.48423L14.283500000000004 34.32405L15.238899999999944 34.36771999999999L15.952999999999975 36.10302999999999L16.517600000000016 36.68821L16.277500000000032 37.46334999999999L16.301399999999944 38.139039999999994L16.562000000000012 38.360179999999986L16.626999999999953 39.73625999999999L16.096499999999992 40.985479999999995L16.46780000000001 42.28261999999998L15.56370000000004 43.282070000000004L16.468700000000013 44.31381999999999L17.416900000000055 44.99225999999999L17.174099999999953 45.813320000000004L18.364400000000046 46.090779999999995L18.721300000000042 46.19591L18.85119999999995 46.91236000000001L19.367200000000025 48.397699999999986L20.40300000000002 49.67496L21.23320000000001 49.75737999999998L22.02080000000001 49.79719L26.01649999999995 50.27951999999999L27.776899999999955 49.99700999999999L27.9375 47.68369999999999L29.443700000000035 48.03909999999999L31.040899999999965 48.310569999999984L31.79729999999995 48.61553999999998L32.6182 48.81366L33.389099999999985 49.9426L34.76819999999998 50.19012999999998L35.053800000000024 50.565229999999985L36.16859999999997 49.955330000000004L36.9991 50.17191L37.385400000000004 49.41641999999999L38.00419999999997 49.68406999999999L38.364799999999946 50.50465L39.22460000000001 50.78002999999998L40.22670000000005 52.2011L39.476800000000026 53.818989999999985L38.33299999999997 54.380300000000005L39.38670000000002 54.95722000000001L39.469600000000014 55.36001999999999L40.70500000000004 54.748580000000004L40.48599999999999 55.16117L41.328700000000026 57.748819999999995L43.157299999999964 59.178079999999994L44.334100000000035 61.17815999999999L45.855800000000045 60.71618999999998L45.92420000000004 61.04692L48.90089999999998 60.455029999999994L49.0172 60.028609999999986L50.542100000000005 59.26479999999998L50.63149999999996 59.22907000000001L50.57069999999999 59.58891L51.20920000000001 59.81625L51.97130000000004 59.50540999999998L54.02710000000002 59.655820000000006L55.24159999999995 60.72301999999999L54.1001 61.530789999999996L54.73130000000003 62.246039999999994L55.945100000000025 62.33939999999998L55.92229999999995 63.53894L54.25450000000001 64.9324L54.128799999999956 67.97898L55.62149999999997 69.50746999999998L56.56309999999996 70.14219L56.33420000000001 70.94662L57.153299999999945 72.41683L55.274 73.38373999999999L54.41399999999999 73.20788999999999L53.75490000000002 73.74918L53.55619999999999 73.60378L52.38239999999996 73.49735999999999L51.30269999999996 74.03142L52.06309999999996 74.84656999999999L51.94259999999997 75.20379L52.072700000000054 75.64105999999998L52.95320000000004 75.85461999999998L53.93299999999999 76.79337999999998L54.62710000000004 78.90046999999998L55.22379999999998 78.37816999999998L55.8827 79.41952999999998L58.17259999999999 78.34907999999999L59.01999999999998 79.53625L60.331800000000044 79.33108999999999L60.541900000000055 79.19262L60.57669999999996 78.56948L62.75189999999998 77.76748999999998L63.40440000000001 77.13287L64.2074 77.42163L64.38049999999998 78.09212L65.44659999999999 77.46832999999998L66.68960000000004 77.39080999999999L66.97140000000002 77.23028L67.70420000000001 78.16576L68.35699999999997 78.09691999999998L68.63829999999996 78.61204000000001L68.9941 78.89419999999998L71.08590000000004 78.17951L71.6241 78.89047L72.49770000000001 78.649L72.91920000000005 78.94649999999999L73.45519999999999 78.75692999999998L73.70330000000001 76.90800999999999L75.09720000000004 73.48534999999998L74.99580000000003 73.35783999999998L75.1395 73.21055999999999L74.11149999999998 72.39319L73.80820000000006 70.63177999999999L74.11479999999995 70.36702L75.90150000000006 68.83353L74.62829999999997 66.41698L74.17229999999995 66.72735L73.39739999999995 66.6275L72.86789999999996 65.58027999999999L71.69259999999997 66.65944999999999L70.88670000000002 66.42204999999998L70.20680000000004 65.47467L69.45230000000004 62.83654999999999L69.27319999999997 62.595399999999984L68.0924 61.52557999999999L68.18280000000004 62.342479999999995L67.57169999999996 62.86249999999998L66.17399999999998 63.22708L65.48530000000005 61.916049999999984L65.06799999999998 61.84755999999999L64.65809999999999 61.11152999999999L64.86530000000005 59.43194L65.23800000000006 57.501990000000006L64.8886 56.716729999999984L63.70690000000002 56.278940000000006L63.37639999999999 53.727779999999996L63.08699999999999 53.415429999999986L62.70489999999995 51.83788999999999L61.12919999999997 51.32191L58.178 53.84443999999999L57.81910000000005 53.54495L57.61749999999995 52.166799999999995L58.28899999999999 50.02569L57.017900000000054 48.72692999999998L56.80280000000005 48.31285L54.94290000000001 48.30615L54.879099999999994 47.56075999999999L55.28679999999997 46.93099999999998L56.05150000000003 46.723569999999995L56.39850000000001 45.64541L57.21900000000005 45.47253999999998L57.054700000000025 45.12142L57.686000000000035 44.22809999999998L56.64589999999998 42.11086L57.31880000000001 41.170950000000005L54.66089999999997 38.44865999999999L55.93299999999999 37.68155999999999L55.59770000000003 37.073909999999984L54.07860000000005 36.72298999999998L53.650999999999954 36.04285999999999L53.52589999999998 34.632649999999984L53.798599999999965 34.491179999999986L53.617200000000025 33.68772999999999L52.282100000000014 32.277529999999985L51.63170000000002 32.29768999999999L48.710699999999974 34.622709999999984L47.68309999999997 34.54975999999999L47.47739999999999 34.85701L46.34050000000002 33.52688999999998L44.00980000000004 34.526790000000005L44.007600000000025 34.44L46.09770000000003 32.578299999999984L47.85469999999998 31.926479999999998L49.1875 30.62357L47.78920000000005 30.36882L50.232099999999946 28.313879999999983L53.9357 26.505660000000006L55.71029999999996 25.20686999999998L55.43489999999997 22.71038999999999L54.96950000000004 22.056870000000004L54.05970000000002 21.898290000000003L52.37639999999999 22.657219999999995L49.67809999999997 21.954289999999986L49.63220000000001 20.278220000000005L48.71469999999999 18.35992999999999L47.02520000000004 21.163629999999984L45.11170000000004 21.852249999999998L44.31200000000001 21.655029999999982L42.461599999999976 23.464380000000006L41.14200000000005 23.688050000000004L40.53729999999996 24.959569999999985L40.301000000000045 24.92982999999998L40.722999999999956 22.89734999999999L39.73630000000003 22.192149999999998L38.56269999999995 19.081709999999987L38.93709999999999 18.855850000000004L38.51430000000005 18.776520000000005L37.81110000000001 16.147050000000007L37.36959999999999 14.319819999999993L36.38969999999995 13.329909999999984L34.076599999999985 17.278509999999983z">
      <title id="t311">Sixième circonscription du Pas-de-Calais</title>
      <desc id="d311">Cantons de : Ardres, Desvres, Fauquembergues, Guînes, Heuchin, Lumbres, Marquise</desc>
    </path><path class="circo" id="id-062-07" d="M37.36959999999999 14.319819999999993L36.38969999999995 13.329909999999984L34.076599999999985 17.278509999999983L33.435100000000034 16.726139999999987L32.68690000000004 17.10848999999999L30.84400000000005 16.953429999999997L27.691100000000006 15.208370000000002L27.706099999999992 15.163359999999983L27.54600000000005 13.389359999999982L27.031200000000013 12.640899999999988L25.837300000000027 11.987949999999984L25.236499999999978 11.405180000000001L25.675500000000056 12.314499999999981L26.190900000000056 12.505409999999983L23.385800000000017 16.717919999999992L22.065799999999967 18.014019999999988L20.43820000000005 15.844819999999999L17.629099999999994 17.24590999999998L15.567000000000007 16.06377999999998L15.278500000000008 15.588390000000004L14.372100000000046 14.707040000000006L13.518400000000042 14.56619999999998L11.62130000000002 12.29831999999999L12.741599999999949 11.162049999999994L14.78309999999999 9.206169999999986L18.14790000000005 7.418479999999988L23.161500000000046 5.954599999999999L23.927099999999996 5.791969999999992L24.452300000000037 5.297439999999995L24.812599999999975 5.818960000000004L24.178999999999974 6.416550000000001L25.390800000000013 5.810460000000006L24.772500000000036 5.222530000000006L26.337499999999977 5.13682L25.116899999999987 4.7380799999999965L27.5308 4.295169999999985L28.364199999999983 4.560699999999997L30.29639999999995 3.228199999999987L32.84379999999999 2.4921699999999873L35.44079999999997 2.279750000000007L41.057699999999954 1.2287800000000004L42.10289999999998 0.3256899999999803L43.49969999999996 0L45.30129999999997 0.40173999999998955L47.10050000000001 2.537540000000007L47.03219999999999 3.016760000000005L48.05830000000003 3.7210000000000036L48.38070000000005 4.911399999999986L49.27499999999998 5.861609999999985L49.7989 7.969369999999998L50.60630000000003 9.980259999999987L51.816100000000006 12.800389999999993L53.78989999999999 17.787319999999994L53.92330000000004 18.228189999999984L54.09159999999997 19.60033999999999L55.05179999999996 21.145319999999998L54.96950000000004 22.056870000000004L54.05970000000002 21.898290000000003L52.37639999999999 22.657219999999995L49.67809999999997 21.954289999999986L49.63220000000001 20.278220000000005L48.71469999999999 18.35992999999999L47.02520000000004 21.163629999999984L45.11170000000004 21.852249999999998L44.31200000000001 21.655029999999982L42.461599999999976 23.464380000000006L41.14200000000005 23.688050000000004L40.53729999999996 24.959569999999985L40.301000000000045 24.92982999999998L40.722999999999956 22.89734999999999L39.73630000000003 22.192149999999998L38.56269999999995 19.081709999999987L38.93709999999999 18.855850000000004L38.51430000000005 18.776520000000005L37.81110000000001 16.147050000000007L37.36959999999999 14.319819999999993z">
      <title id="t312">Septième circonscription du Pas-de-Calais</title>
      <desc id="d312">Cantons de : Audruicq, Calais Centre, Calais Est, Calais Nord-Ouest, Calais Sud-Est</desc>
    </path><path class="circo" id="id-062-08" d="M73.1164 45.853279999999984L72.97839999999997 45.370479999999986L72.05799999999999 43.96423999999999L71.62519999999995 43.880799999999994L69.81550000000004 45.068569999999994L69.31169999999997 44.34305999999998L68.6445 43.32996L70.56910000000005 41.46043L68.88670000000002 39.994789999999995L68.88660000000004 39.97063L67.97490000000005 39.10463999999999L67.3012 37.53666999999999L66.61779999999999 37.15206999999998L66.83140000000003 35.80525L68.65390000000002 34.34501L70.22529999999995 33.88523999999998L72.72059999999999 32.30709999999999L72.05449999999996 32.01908L72.11310000000003 31.648390000000006L70.60109999999997 30.85666999999998L69.56190000000004 30.117009999999993L69.12630000000001 30.265299999999996L68.83140000000003 31.132509999999996L68.37310000000002 31.143399999999986L66.69259999999997 30.40215999999998L64.86469999999997 30.195789999999988L64.3166 29.555149999999998L62.27380000000005 30.921999999999997L62.19219999999996 29.607859999999988L61.00789999999995 30.08918L59.405399999999986 29.444230000000005L58.37900000000002 28.302989999999994L57.01509999999996 26.782489999999996L55.88599999999997 26.41579999999999L55.71029999999996 25.20686999999998L53.9357 26.505660000000006L50.232099999999946 28.313879999999983L47.78920000000005 30.36882L49.1875 30.62357L47.85469999999998 31.926479999999998L46.09770000000003 32.578299999999984L44.007600000000025 34.44L44.00980000000004 34.526790000000005L46.34050000000002 33.52688999999998L47.47739999999999 34.85701L47.68309999999997 34.54975999999999L48.710699999999974 34.622709999999984L51.63170000000002 32.29768999999999L52.282100000000014 32.277529999999985L53.617200000000025 33.68772999999999L53.798599999999965 34.491179999999986L53.52589999999998 34.632649999999984L53.650999999999954 36.04285999999999L54.07860000000005 36.72298999999998L55.59770000000003 37.073909999999984L55.93299999999999 37.68155999999999L54.66089999999997 38.44865999999999L57.31880000000001 41.170950000000005L56.64589999999998 42.11086L57.686000000000035 44.22809999999998L57.054700000000025 45.12142L57.21900000000005 45.47253999999998L56.39850000000001 45.64541L56.05150000000003 46.723569999999995L55.28679999999997 46.93099999999998L54.879099999999994 47.56075999999999L54.94290000000001 48.30615L56.80280000000005 48.31285L57.017900000000054 48.72692999999998L58.28899999999999 50.02569L57.61749999999995 52.166799999999995L57.81910000000005 53.54495L58.178 53.84443999999999L61.12919999999997 51.32191L62.70489999999995 51.83788999999999L63.08699999999999 53.415429999999986L63.37639999999999 53.727779999999996L63.70690000000002 56.278940000000006L64.8886 56.716729999999984L65.23800000000006 57.501990000000006L64.86530000000005 59.43194L64.65809999999999 61.11152999999999L65.06799999999998 61.84755999999999L65.48530000000005 61.916049999999984L66.17399999999998 63.22708L67.57169999999996 62.86249999999998L68.18280000000004 62.342479999999995L68.0924 61.52557999999999L69.27319999999997 62.595399999999984L69.45230000000004 62.83654999999999L70.20680000000004 65.47467L70.88670000000002 66.42204999999998L71.69259999999997 66.65944999999999L72.86789999999996 65.58027999999999L73.39739999999995 66.6275L74.17229999999995 66.72735L74.62829999999997 66.41698L75.90150000000006 68.83353L76.52520000000004 68.55453L76.75059999999996 68.81682999999998L77.4828 68.30691999999999L78.26189999999997 68.70591999999999L79.05849999999998 68.34566999999998L79.40329999999994 66.70703L79.82629999999995 66.80754999999999L80.92639999999994 66.12021999999999L80.98080000000004 65.6232L79.85680000000002 64.82864999999998L78.65750000000003 65.55167L77.94870000000003 65.50234L78.10400000000004 64.20997L78.89440000000002 63.16048000000001L76.96249999999998 61.962199999999996L75.27319999999997 63.52008999999998L74.98530000000005 63.27495999999999L74.78269999999998 63.06872999999999L74.78279999999995 62.91866999999999L74.87400000000002 61.42323999999999L75.32629999999995 60.68394999999998L76.51700000000005 60.05122L76.07600000000002 58.79909000000001L76.1943 58.066720000000004L75.43640000000005 57.11204999999998L75.61829999999998 56.73841999999999L78.65589999999997 55.98465999999999L78.53650000000005 55.701869999999985L77.69719999999995 55.815679999999986L77.26520000000005 55.205629999999985L78.26739999999995 54.333560000000006L79.49429999999995 51.423339999999996L77.63660000000004 50.53011999999998L77.50800000000004 50.136390000000006L77.96569999999997 49.504339999999985L76.06489999999997 47.51424L74.31100000000004 47.06467999999998L73.5752 45.89565999999999L73.1164 45.853279999999984z">
      <title id="t313">Huitième circonscription du Pas-de-Calais</title>
      <desc id="d313">Cantons de : Aire-sur-la-Lys, Arques, Auchel, Norrent-Fontes, Saint-Omer Nord, Saint-Omer Sud</desc>
    </path><path class="circo" id="id-062-09" d="M106.51414999999997 45.38952999999998L105.45164999999997 46.23327999999998L103.17039999999997 46.13952999999998L102.29539999999997 47.79577999999998L102.26414999999997 47.88952999999998L105.10789999999997 50.17077999999998L104.42039999999997 50.76452999999998L102.73289999999997 50.20202999999998L102.35789999999997 50.45202999999998L101.51414999999997 52.88952999999998L101.63914999999997 53.76452999999998L103.13914999999997 56.92077999999998L103.67039999999997 57.92077999999998L104.38914999999997 59.48327999999998L105.26414999999997 61.48327999999998L106.07664999999997 61.20202999999998L106.85789999999997 61.45202999999998L107.01414999999997 59.23327999999998L106.45164999999997 57.51452999999998L104.82664999999997 56.95202999999998L105.07664999999997 56.51452999999998L106.45164999999997 53.63952999999998L108.17039999999997 52.17077999999998L108.42039999999997 51.98327999999998L109.26414999999997 50.98327999999998L111.01414999999997 50.98327999999998L111.67039999999997 50.51452999999998L109.60789999999997 47.67077999999998L108.76414999999997 46.76452999999998L107.54539999999997 46.45202999999998L106.51414999999997 45.38952999999998zM83.20164999999997 49.10827999999998L82.29539999999997 49.13952999999998L81.67039999999997 49.82702999999998L80.79539999999997 50.07702999999998L79.51414999999997 50.38952999999998L77.95164999999997 49.51452999999998L77.51414999999997 50.13952999999998L77.63914999999997 50.51452999999998L79.48289999999997 51.42077999999998L78.26414999999997 54.32702999999998L77.26414999999997 55.20202999999998L77.70164999999997 55.82702999999998L78.54539999999997 55.70202999999998L78.67039999999997 55.98327999999998L75.60789999999997 56.73327999999998L75.45164999999997 57.10827999999998L76.20164999999997 58.07702999999998L76.07664999999997 58.79577999999998L76.51414999999997 60.04577999999998L75.32664999999997 60.67077999999998L74.88914999999997 61.42077999999998L74.79539999999997 62.92077999999998L74.79539999999997 63.07702999999998L74.98289999999997 63.26452999999998L75.26414999999997 63.51452999999998L76.95164999999997 61.95202999999998L78.88914999999997 63.17077999999998L78.10789999999997 64.20202999999998L77.95164999999997 65.51452999999998L78.67039999999997 65.54577999999998L79.85789999999997 64.82702999999998L80.98289999999997 65.60827999999998L80.92039999999997 66.10827999999998L82.73289999999997 68.23327999999998L83.82664999999997 67.54577999999998L83.98289999999997 66.26452999999998L84.70164999999997 66.67077999999998L86.60789999999997 66.67077999999998L87.20164999999997 65.98327999999998L87.63914999999997 66.01452999999998L88.67039999999997 66.20202999999998L88.85789999999997 67.17077999999998L89.60789999999997 67.54577999999998L91.10789999999997 66.51452999999998L91.48289999999997 67.23327999999998L91.38914999999997 68.45202999999998L93.07664999999997 69.82702999999998L93.54539999999997 69.57702999999998L94.45164999999997 69.38952999999998L94.92039999999997 68.23327999999998L94.92039999999997 66.73327999999998L93.76414999999997 65.73327999999998L93.85789999999997 63.70202999999998L94.82664999999997 62.95202999999998L95.32664999999997 62.26452999999998L95.23289999999997 61.04577999999998L96.98289999999997 59.57702999999998L98.13914999999997 61.07702999999998L98.73289999999997 60.92077999999998L98.98289999999997 60.01452999999998L100.38914999999997 58.85827999999998L100.45164999999997 58.42077999999998L98.73289999999997 57.01452999999998L99.79539999999997 56.10827999999998L100.51414999999997 54.42077999999998L98.79539999999997 55.01452999999998L99.20164999999997 54.29577999999998L98.92039999999997 53.51452999999998L99.45164999999997 52.82702999999998L98.82664999999997 50.73327999999998L97.07664999999997 50.76452999999998L95.70164999999997 49.82702999999998L95.23289999999997 49.85827999999998L94.82664999999997 51.17077999999998L91.32664999999997 52.26452999999998L90.07664999999997 50.98327999999998L89.85789999999997 50.10827999999998L88.10789999999997 50.38952999999998L87.85789999999997 49.63952999999998L87.48289999999997 49.73327999999998L86.88914999999997 50.32702999999998L86.01414999999997 50.32702999999998L85.70164999999997 51.38952999999998L85.48289999999997 50.98327999999998L84.17039999999997 51.04577999999998L83.79539999999997 50.79577999999998L83.51414999999997 50.45202999999998L83.20164999999997 49.10827999999998z">
      <title id="t314">Neuvième circonscription du Pas-de-Calais</title>
      <desc id="d314">Cantons de : Béthune Est, Béthune Nord, Béthune Sud, Laventie, Lillers</desc>
    </path><path class="circo" id="id-062-10" d="M81.5702 77.65046999999998L80.11969999999997 76.66525999999999L79.17060000000004 75.29228L78.84839999999997 75.36757L79.01260000000002 75.99903L78.12369999999999 75.82525999999999L75.90060000000005 73.67855L75.09720000000004 73.48534999999998L74.99580000000003 73.35783999999998L75.1395 73.21055999999999L74.11149999999998 72.39319L73.80820000000006 70.63177999999999L74.11479999999995 70.36702L75.90150000000006 68.83353L76.52520000000004 68.55453L76.75059999999996 68.81682999999998L77.4828 68.30691999999999L78.26189999999997 68.70591999999999L79.05849999999998 68.34566999999998L79.40329999999994 66.70703L79.82629999999995 66.80754999999999L80.92639999999994 66.12021999999999L82.72429999999997 68.22192999999999L83.81370000000004 67.54130999999998L83.981 66.27822999999998L84.70119999999997 66.66291999999999L86.62159999999994 66.67736L87.19240000000002 65.99283L87.63649999999996 66.02530999999999L88.65570000000002 66.19762L88.84370000000001 67.16495L89.59810000000004 67.54986L91.10419999999999 66.51561999999998L91.49170000000004 67.23831999999999L91.37890000000004 68.46726999999998L93.06320000000005 69.81834999999998L93.53679999999997 69.56210999999999L94.44150000000002 69.39269999999999L94.91499999999996 68.22847999999999L94.90769999999998 66.73256L93.75120000000004 65.73080999999999L93.86929999999995 63.71052L94.84180000000003 62.95865999999998L95.32979999999998 62.25793999999999L95.22789999999998 61.049319999999994L96.99810000000002 59.57834L98.13670000000002 61.07996L97.84410000000003 61.91672L99.16309999999999 62.8304L99.40539999999999 65.02357999999998L98.38289999999995 65.55995999999999L98.86569999999995 66.74137999999999L97.64930000000004 70.05989L97.98289999999997 70.35726L97.55160000000001 70.8049L96.8143 71.24527999999998L96.05619999999999 72.41962999999998L97.2305 73.45784L97.60500000000002 74.53138999999999L96.93269999999995 75.59807999999998L97.39930000000004 76.38941L98.58109999999999 77.0967L100.36620000000005 77.18624L100.4411 77.80418L100.14589999999998 78.13093999999998L100.50739999999996 79.80276L100.11469999999997 80.57396L99.45500000000004 81.09101999999999L97.44119999999998 80.55956L95.69280000000003 80.45632999999998L94.6757 79.64497L94.2704 79.83357999999998L94.06320000000005 80.22959L94.76750000000004 81.34959L94.40089999999998 82.16633999999999L93.62249999999995 81.89086L93.15290000000005 82.6206L92.9733 82.47540000000001L92.47050000000002 83.22453999999999L90.7858 82.58847L90.67010000000005 82.85831999999999L88.49249999999995 82.54712999999998L88.32299999999998 83.01603L86.86779999999999 83.63994L85.78359999999998 82.90630999999999L84.93269999999995 83.14921999999999L84.00450000000001 81.96713L83.89700000000005 81.97126L83.92830000000004 81.39052999999998L83.0127 79.78075999999999L81.98410000000001 79.52105L82.34000000000003 78.73330999999999L81.98130000000003 77.48140999999998L81.5702 77.65046999999998z">
      <title id="t315">Dixième circonscription du Pas-de-Calais</title>
      <desc id="d315">Cantons de : Barlin, Bruay-la-Buissière, Divion, Houdain, Nœux-les-Mines, Sains-en-Gohelle</desc>
    </path><path class="circo" id="id-062-11" d="M115.10699999999997 72.21731L115.4416 70.89331999999999L116.168 70.35418999999999L115.20209999999997 69.4762L115.10829999999999 68.07547L116.52970000000005 67.00990999999999L118.55370000000005 66.46241999999998L119.60680000000002 66.68992L119.74659999999994 66.34546L122.2559 68.49933999999999L123.4556 69.01991999999998L123.6685 69.35327999999998L124.85580000000004 70.54909L124.22889999999995 71.68203L124.14390000000003 72.28261999999998L123.44910000000004 73.94970999999998L124.1626 74.45555999999999L124.13599999999997 75.78682L125.2844 75.41935999999998L126.01440000000002 75.7732L126.28340000000003 75.46420999999998L126.67100000000005 74.66155L127.7459 73.90606L128.40110000000004 73.59255999999999L128.51099999999997 75.15172999999999L129.6984 75.56871999999998L129.09789999999998 76.24741L128.5706 77.98150999999999L126.05970000000002 78.31038999999998L125.25530000000003 79.86319L123.98929999999996 80.93924999999999L122.36069999999995 81.4108L122.04309999999998 81.17623L121.09029999999996 81.01832999999999L121.93219999999997 82.07647L122.23080000000004 83.83348999999998L120.40009999999995 83.95239999999998L119.1508 84.53089L118.70659999999998 83.96026L118.12540000000001 83.88895L116.77819999999997 84.20113L115.6875 83.06043L114.07410000000004 83.32678999999999L113.61590000000001 82.54112999999998L112.76919999999996 82.25739999999999L111.25940000000003 83.09415999999999L111.18690000000004 83.96905999999998L110.09969999999998 83.99611999999999L111.20809999999994 82.13997999999998L110.60220000000004 81.80286999999998L110.7953 80.98787999999999L111.02110000000005 81.14792L111.39290000000005 81.1584L111.99699999999996 80.91703999999999L112.47839999999997 80.56157999999999L113.08019999999999 79.58496L113.04920000000004 79.45415L112.4135 79.45439999999999L112.39800000000002 79.17741999999998L113.16669999999999 78.90567999999999L113.43920000000003 79.02026999999998L113.4751 79.97817L115.54570000000001 79.95401999999999L116.08489999999995 80.6037L116.29809999999998 80.03711999999999L115.83780000000002 78.34788L116.45939999999996 76.32160999999999L116.08050000000003 76.18188L115.70150000000001 75.92348999999999L115.7962 75.02945L117.71990000000005 73.08865L117.35699999999997 72.24749L115.26250000000005 72.24348999999998L115.10699999999997 72.21731z">
      <title id="t316">Onzième circonscription du Pas-de-Calais</title>
      <desc id="d316">Cantons de : Carvin, Courrières, Hénin-Beaumont, Leforest, Montigny-en-Gohelle, Rouvroy</desc>
    </path><path class="circo" id="id-062-12" d="M97.64930000000004 70.05989L98.86569999999995 66.74137999999999L98.38289999999995 65.55995999999999L99.40539999999999 65.02357999999998L99.16309999999999 62.8304L97.84410000000003 61.91672L98.13670000000002 61.07996L98.72529999999995 60.914469999999994L98.97249999999997 60.028609999999986L100.39020000000005 58.861050000000006L100.46540000000005 58.405609999999996L98.71860000000004 57.020489999999995L99.78909999999996 56.116799999999984L100.5145 54.40896000000001L98.79060000000004 55.01948999999999L99.1884 54.30047999999999L98.9194 53.51052999999999L99.46130000000005 52.82094999999998L101.25620000000004 53.972620000000006L101.62480000000005 53.75269L103.13729999999998 56.92075L103.6662 57.93447999999998L104.38329999999996 59.47355999999999L105.27599999999995 61.47421L105.851 63.01536999999999L105.69370000000004 64.23404L106.06650000000002 64.4564L106.9674 64.29341L107.85149999999999 64.62983L110.1798 64.23015999999998L111.02099999999996 64.07385L112.75890000000004 63.24405999999999L113.13810000000001 63.01898L113.14499999999998 63.64431999999999L112.72260000000006 67.01698999999999L113.14620000000002 67.0067L113.56349999999998 67.74510999999998L114.38559999999995 67.91803999999999L114.65679999999998 67.59142L115.10829999999999 68.07547L115.20209999999997 69.4762L114.01800000000003 70.40829L112.92430000000002 69.9589L112.63649999999996 70.21351999999999L112.64580000000001 71.58641L111.36019999999996 72.85068999999999L110.8125 73.41378L111.00199999999995 73.76706999999999L109.23310000000004 74.99153999999999L108.30999999999995 73.62727999999998L107.14790000000005 74.00512L107.01829999999995 73.25983L106.7577 71.78127L105.56079999999997 72.18458999999999L104.9008 71.67922999999999L104.03999999999996 70.83401999999998L102.88030000000003 72.53849L102.65899999999999 73.69457L102.01520000000005 74.22032999999999L102.24620000000004 75.53055L101.97490000000005 75.88251L103.30229999999995 76.25942L104.64430000000004 75.91548L106.08910000000003 78.40684999999999L107.67129999999997 78.74691999999999L107.2414 79.33229L106.1277 79.51823999999999L104.8551 80.58236L103.56849999999997 80.78467999999998L102.44370000000004 81.95885999999999L100.11469999999997 80.57396L100.50739999999996 79.80276L100.14589999999998 78.13093999999998L100.4411 77.80418L100.36620000000005 77.18624L98.58109999999999 77.0967L97.39930000000004 76.38941L96.93269999999995 75.59807999999998L97.60500000000002 74.53138999999999L97.2305 73.45784L96.05619999999999 72.41962999999998L96.8143 71.24527999999998L97.55160000000001 70.8049L97.98289999999997 70.35726L97.64930000000004 70.05989z">
      <title id="t317">Douzième circonscription du Pas-de-Calais</title>
      <desc id="d317">Cantons de : Bully-les-Mines, Cambrin, Douvrin, Liévin Nord, Liévin Sud, Wingles</desc>
    </path></svg>