<svg xmlns="http://www.w3.org/2000/svg" version="1.1" xmlns:xlink="http://www.w3.org/1999/xlink" xmlns:svgjs="http://svgjs.dev/svgjs" viewBox="0 0 135.80050000000006 118.15457000000004"><path class="circo" id="id-063-01" d="M63.40160000000003 60.695850000000064L62.653099999999995 60.97437000000002L61.822200000000066 59.572040000000015L60.559799999999996 59.38198L60.94290000000001 59.828539999999975L59.60430000000008 59.82276999999999L59.66650000000004 58.671550000000025L59.75780000000009 57.43277999999998L59.04340000000002 57.438870000000065L58.76980000000003 57.62599L58.03480000000002 57.68374000000006L57.71109999999999 58.12119000000007L57.35760000000005 57.70342000000005L56.54259999999999 57.605050000000006L58.64230000000009 55.20256000000006L58.34260000000006 55.05513000000008L57.71250000000009 53.353360000000066L56.02320000000009 53.56522000000007L55.27089999999998 51.71069L52.8673 51.47157000000004L52.496200000000044 50.304610000000025L53.27170000000001 49.41021999999998L55.297300000000064 49.287810000000036L55.61650000000009 50.485810000000015L55.70170000000007 50.85834L56.455100000000016 50.93789000000004L58.18260000000009 50.48215000000005L59.164600000000064 50.84248000000002L63.729600000000005 50.03138000000001L63.80079999999998 50.00515000000007L65.21519999999998 49.83845000000008L65.94069999999999 50.196000000000026L68.11260000000004 52.51134000000002L68.86099999999999 52.68236000000002L69.10480000000007 52.38313000000005L69.89430000000004 53.20467000000008L69.98970000000008 53.95721000000003L69.52790000000005 56.02145000000007L69.18900000000008 56.28407000000004L67.91550000000007 56.18871999999999L67.71710000000007 57.29372000000001L65.84019999999998 58.56831999999997L65.92060000000004 59.37949000000003L66.62940000000003 60.36419000000001L67.94710000000009 61.37104999999997L69.207 61.27651000000003L70.59050000000002 60.390390000000025L71.27640000000008 61.09462000000008L70.62490000000003 61.37471000000005L70.9651 62.90250000000003L70.38170000000002 63.93407000000002L69.78120000000001 64.91823L69.1712 65.43523000000005L67.86090000000002 64.53503L67.04700000000003 65.33806000000004L66.52120000000002 65.44763999999998L65.64790000000005 64.39755000000002L65.01210000000003 63.10334L64.9326000000001 61.26141000000007L63.40160000000003 60.695850000000064z">
      <title id="t318">Première circonscription du Puy-de-Dôme</title>
      <desc id="d318">Cantons de : Clermont-Ferrand Centre, Clermont-Ferrand Est, Clermont-Ferrand Nord, Clermont-Ferrand Nord-Ouest, Clermont-Ferrand Sud, Cournon-d'Auvergne, Gerzat, Montferrand</desc>
    </path><path class="circo" id="id-063-02" d="M72.6259 23.773810000000026L71.8324 23.62692000000004L71.7849 22.93398000000002L71.04939999999999 22.884360000000015L70.8791 23.219330000000014L70.2537000000001 22.29403000000002L69.5358 22.575720000000047L67.27380000000005 22.476350000000025L67.26420000000007 23.3193L65.62570000000005 23.336689999999976L62.886400000000094 22.71724000000006L62.07710000000009 21.848610000000008L61.629999999999995 21.497160000000008L60.591800000000035 21.393120000000067L60.47280000000001 19.760580000000004L59.751100000000065 17.784700000000043L59.334100000000035 17.70586000000003L57.92130000000009 18.656180000000063L56.30000000000007 19.131849999999986L55.34430000000009 18.30555000000004L54.23919999999998 18.863740000000007L53.457899999999995 18.921969999999988L52.781400000000076 17.443579999999997L51.532100000000014 16.379040000000032L50.33000000000004 16.216909999999984L49.61790000000008 16.563850000000002L48.99330000000009 15.659600000000069L48.22250000000008 13.311509999999998L47.94979999999998 10.473839999999996L47.21410000000003 10.80144000000007L44.85360000000003 10.129279999999994L44.43430000000001 9.573800000000006L45.13900000000001 9.113060000000019L45.21199999999999 8.246240000000057L44.59910000000002 6.210990000000038L44.86400000000003 5.382240000000024L45.548200000000065 4.852790000000027L46.60970000000009 4.386190000000056L46.83440000000007 4.033090000000016L46.26550000000009 2.9691300000000638L47.427200000000084 1.8328599999999824L46.64280000000008 1.6541600000000471L45.72090000000003 0.8857000000000426L44.00420000000008 0.9682999999999993L42.35509999999999 0.4247300000000678L40.629800000000046 0.679930000000013L40.099000000000046 0L36.64820000000009 1.8189700000000357L36.52190000000007 3.008950000000027L37.00060000000008 4.501550000000066L36.6327 4.69148000000007L36.49090000000001 6.3366399999999885L35.90370000000007 7.418480000000045L33.89570000000003 7.119580000000042L32.44069999999999 5.6338100000000395L31.605300000000057 5.724829999999997L30.464699999999993 4.511629999999968L29.28989999999999 4.077440000000024L28.404899999999998 5.486530000000016L29.07740000000001 7.409639999999968L28.440500000000043 8.415930000000003L28.48300000000006 9.22282000000007L26.748699999999985 9.285550000000057L25.248300000000086 9.935820000000035L24.527199999999993 10.36656000000005L24.40840000000003 12.033639999999991L23.888000000000034 12.680090000000064L23.468400000000088 14.261830000000032L23.280500000000075 14.592930000000024L22.640800000000013 16.126520000000028L21.999200000000087 16.679370000000063L21.181100000000015 16.846520000000055L20.03430000000003 16.427850000000035L18.1789 15.43416000000002L17.28640000000007 15.939000000000078L15.855400000000031 14.326239999999984L15.075900000000047 13.944950000000063L14.847700000000032 14.495290000000068L14.551400000000058 14.473690000000033L14.304200000000037 16.336239999999975L13.813100000000077 16.89889000000005L13.85080000000005 19.271349999999984L13.991500000000087 20.03219999999999L13.820300000000088 20.884149999999977L14.172800000000052 22.14564000000007L15.752800000000093 25.726499999999987L18.248000000000047 27.446980000000053L17.873199999999997 29.604000000000042L17.43590000000006 31.952440000000024L17.746000000000095 33.104330000000004L18.817499999999995 34.39987000000008L18.59940000000006 35.578250000000025L15.359300000000076 36.62376000000006L15.11970000000008 36.961959999999976L15.326099999999997 37.783300000000054L13.907800000000066 38.65416000000005L13.920100000000048 39.464290000000005L13.271600000000035 40.006200000000035L13.104400000000055 41.26376000000005L13.249300000000062 41.66233L14.435100000000034 42.113290000000006L14.04040000000009 42.30473000000006L10.527699999999982 45.28992000000005L9.686500000000024 45.386390000000006L9.653999999999996 46.64894000000004L8.857700000000023 48.08861999999999L8.06630000000007 48.03222000000005L7.332300000000032 47.218110000000024L6.566200000000094 47.194669999999974L6.218000000000075 47.72363000000007L4.709500000000048 47.75720000000001L4.707899999999995 48.94655999999998L5.240099999999984 49.52970000000005L5.083399999999983 50.31106999999997L3.977800000000002 50.40015000000005L3.7969000000000506 51.14312000000007L3.255700000000047 51.71618000000001L1.1977000000000544 51.37225000000001L0 52.56135000000006L3.6417999999999893 57.287750000000074L3.9184999999999945 59.57421999999997L4.900200000000041 60.908090000000016L5.6725999999999885 60.63382999999999L6.713700000000017 61.29272000000003L7.075300000000084 62.05921999999998L8.263700000000085 62.37495999999999L8.849300000000085 63.49539000000004L11.346700000000055 66.70110999999997L11.213300000000004 68.29452000000003L11.802200000000084 68.69978000000003L11.60940000000005 69.49977000000001L11.956800000000044 70.2482L11.0702 70.81781999999998L10.754200000000083 71.47158999999999L10.756799999999998 72.24595L11.751100000000065 73.47859000000005L11.128700000000094 74.51936999999998L11.297400000000039 75.16426999999999L10.706600000000094 75.44816000000003L8.35290000000009 75.28026L7.990700000000061 75.96252000000004L7.685200000000009 79.27963999999997L6.583900000000085 80.11410000000001L6.413600000000088 80.88760000000002L7.332300000000032 82.79006000000004L8.517300000000091 84.00476000000003L9.203500000000076 85.48401999999999L10.868400000000065 85.84189000000003L12.028500000000008 83.42518000000007L12.433500000000095 82.78859999999997L13.703200000000038 82.00353000000007L16.01520000000005 79.51729999999998L18.050700000000006 78.98703999999998L19.04810000000009 78.20614999999998L20.14930000000004 77.89334000000008L20.58490000000006 77.26414L22.12570000000005 77.13117L22.285600000000045 76.76822000000004L21.698399999999992 76.23665000000005L24.058400000000006 75.72388000000001L24.247900000000072 75.35089000000005L23.877000000000066 74.60364000000004L25.304700000000025 73.84657000000004L27.720500000000015 75.17424000000005L28.450300000000084 74.79174L28.522000000000048 74.38416000000007L28.527600000000007 71.92993999999999L27.80340000000001 70.93133L28.226400000000012 69.79910000000007L28.645700000000033 69.78449999999998L30.004999999999995 69.00524000000007L30.49420000000009 67.93840999999998L26.67259999999999 67.27773000000002L26.103200000000015 66.63319000000001L25.785799999999995 65.37362000000007L26.65790000000004 63.94040000000007L27.655399999999986 63.20528999999999L27.890800000000013 62.403710000000046L28.880899999999997 60.67465000000004L29.03950000000009 58.77013999999997L30.35730000000001 56.61994000000004L31.567300000000046 56.93227999999999L32.871000000000095 55.95682999999997L34.42490000000009 55.90208000000007L35.17470000000003 55.111710000000016L35.51660000000004 55.75102000000004L35.03470000000004 58.58988999999997L37.75980000000004 59.740189999999984L39.474000000000046 58.72932000000003L39.20220000000006 56.18653000000006L41.15870000000007 55.46387000000004L41.39760000000001 54.25894000000005L43.42990000000009 54.80613000000005L44.80130000000008 55.78284000000008L46.032800000000066 56.069360000000074L47.265300000000025 55.036230000000046L48.12620000000004 54.21429999999998L49.27210000000002 53.90733L48.49270000000001 51.719600000000014L50.21930000000009 50.77403000000004L52.08440000000007 51.65164000000004L52.8673 51.47157000000004L52.496200000000044 50.304610000000025L53.27170000000001 49.41021999999998L55.297300000000064 49.287810000000036L55.61650000000009 50.485810000000015L55.70170000000007 50.85834L56.455100000000016 50.93789000000004L58.18260000000009 50.48215000000005L59.164600000000064 50.84248000000002L63.729600000000005 50.03138000000001L63.80079999999998 50.00515000000007L65.21519999999998 49.83845000000008L65.32190000000003 47.38548000000003L66.46040000000005 47.37791000000004L66.89980000000003 46.35762L67.67140000000006 46.33405000000005L67.07310000000007 43.38219000000004L66.4144 42.76688999999999L66.22649999999999 42.38585999999998L66.75639999999999 40.772910000000024L67.11890000000005 40.55259000000001L66.23160000000007 39.49302L66.88330000000008 37.97657000000004L67.27500000000009 37.99063000000001L67.73290000000009 37.35649999999998L68.80230000000006 37.58366000000001L68.94130000000007 36.811199999999985L69.08810000000005 36.91721000000007L69.57940000000008 37.51079000000004L71.15970000000004 37.43365000000006L71.8864000000001 37.724249999999984L72.88850000000002 37.30673999999999L73.26970000000006 37.178L73.83080000000007 37.73574000000008L76.16910000000007 37.158070000000066L76.14650000000006 39.48397L78.22990000000004 39.432390000000055L79.87290000000007 39.25309000000004L80.23590000000002 37.176289999999995L80.36120000000005 36.86964999999998L82.02780000000007 36.49036000000001L82.35380000000009 35.25747000000001L84.16579999999999 34.183250000000044L84.25120000000004 33.76173000000006L85.202 33.997690000000034L85.39750000000004 33.33663999999999L88.24090000000001 33.629009999999994L89.50660000000005 32.09143000000006L92.56690000000003 31.086830000000077L92.24070000000006 30.156850000000077L91.47320000000002 30.47077999999999L91.74990000000003 28.05853000000002L91.38650000000007 26.88544999999999L92.12160000000006 26.547970000000078L91.16820000000007 25.290610000000015L90.89200000000005 24.199250000000006L90.57620000000009 23.660120000000006L89.82720000000006 24.08937000000003L88.99189999999999 24.024080000000026L88.03219999999999 23.156110000000012L87.6988 22.36325999999997L86.24890000000005 23.291360000000054L84.56730000000005 23.56529999999998L83.39700000000005 24.80069000000003L80.2451000000001 26.07271000000003L80.30830000000003 24.914840000000027L78.96640000000002 24.232079999999996L77.6608 23.791200000000003L77.72379999999998 23.417550000000006L76.95069999999998 23.735580000000027L76.19200000000001 23.395250000000033L75.4606 23.765480000000025L73.82890000000009 23.414730000000077L72.6259 23.773810000000026z">
      <title id="t319">Deuxième circonscription du Puy-de-Dôme</title>
      <desc id="d319">Cantons de : Aigueperse, Bourg-Lastic, Combronde, Herment, Manzat, Menat, Montaigut, Pionsat, Pontaumur, Pontgibaud, Randan, Riom Est, Riom Ouest, Saint-Gervais-d'Auvergne</desc>
    </path><path class="circo" id="id-063-03" d="M51.82350000000008 117.30468000000008L49.29830000000004 115.76002000000005L47.65280000000007 115.48879999999997L46.245900000000006 112.97433999999998L45.60380000000009 110.98000000000002L45.6164 110.53575999999998L45.25240000000008 109.07316000000003L45.451400000000035 108.35621000000003L44.67310000000009 108.55196999999998L43.95600000000002 108.18137000000002L42.921800000000076 107.00920000000008L41.87189999999998 106.54205999999999L41.269499999999994 107.47690999999998L40.20310000000006 106.87716999999998L39.47160000000008 105.42360000000008L37.4058 105.61532999999997L36.32440000000008 104.44816000000003L34.14589999999998 105.64389000000006L33.7568 106.36319000000003L33.36650000000009 106.23563000000001L31.796600000000012 106.13117999999997L30.77150000000006 105.55129L30.027900000000045 105.34879000000001L28.92330000000004 105.73406L27.753700000000094 106.73969L26.907500000000027 105.82738000000006L26.47950000000003 104.68349999999998L24.967399999999998 103.39425000000006L24.814100000000053 101.74833999999998L25.671699999999987 100.63902000000007L25.5385 99.93172000000004L24.322700000000054 99.87986999999998L23.155700000000024 100.28290000000004L22.38499999999999 99.31981000000007L21.26780000000008 98.95393000000001L20.10419999999999 99.17975999999999L19.734000000000037 96.34222999999997L18.50870000000009 98.00810000000001L17.74560000000008 98.29455000000007L16.547300000000064 98.11643000000004L15.120100000000093 96.64003000000002L13.575800000000072 96.90520000000004L12.559200000000033 97.53210999999999L13.255499999999984 94.92824000000007L11.325000000000045 94.51508000000001L10.233400000000074 94.98570000000007L10.699299999999994 93.24804000000006L10.283300000000054 92.35188000000005L10.331800000000044 91.55433000000005L11.079400000000078 90.08596999999997L10.78309999999999 89.36022000000003L11.041000000000054 88.61025000000006L10.791900000000055 87.40643999999998L11.061199999999985 87.09330999999997L10.868400000000065 85.84189000000003L12.028500000000008 83.42518000000007L12.433500000000095 82.78859999999997L13.703200000000038 82.00353000000007L16.01520000000005 79.51729999999998L18.050700000000006 78.98703999999998L19.04810000000009 78.20614999999998L20.14930000000004 77.89334000000008L20.58490000000006 77.26414L22.12570000000005 77.13117L22.285600000000045 76.76822000000004L21.698399999999992 76.23665000000005L24.058400000000006 75.72388000000001L24.247900000000072 75.35089000000005L23.877000000000066 74.60364000000004L25.304700000000025 73.84657000000004L27.720500000000015 75.17424000000005L28.450300000000084 74.79174L28.522000000000048 74.38416000000007L28.527600000000007 71.92993999999999L27.80340000000001 70.93133L28.226400000000012 69.79910000000007L28.645700000000033 69.78449999999998L30.004999999999995 69.00524000000007L30.49420000000009 67.93840999999998L26.67259999999999 67.27773000000002L26.103200000000015 66.63319000000001L25.785799999999995 65.37362000000007L26.65790000000004 63.94040000000007L27.655399999999986 63.20528999999999L27.890800000000013 62.403710000000046L28.880899999999997 60.67465000000004L29.03950000000009 58.77013999999997L30.35730000000001 56.61994000000004L31.567300000000046 56.93227999999999L32.871000000000095 55.95682999999997L34.42490000000009 55.90208000000007L35.17470000000003 55.111710000000016L35.51660000000004 55.75102000000004L35.03470000000004 58.58988999999997L37.75980000000004 59.740189999999984L39.474000000000046 58.72932000000003L39.20220000000006 56.18653000000006L41.15870000000007 55.46387000000004L41.39760000000001 54.25894000000005L43.42990000000009 54.80613000000005L44.80130000000008 55.78284000000008L46.032800000000066 56.069360000000074L47.265300000000025 55.036230000000046L48.12620000000004 54.21429999999998L49.27210000000002 53.90733L48.49270000000001 51.719600000000014L50.21930000000009 50.77403000000004L52.08440000000007 51.65164000000004L52.8673 51.47157000000004L55.27089999999998 51.71069L56.02320000000009 53.56522000000007L57.71250000000009 53.353360000000066L58.34260000000006 55.05513000000008L58.64230000000009 55.20256000000006L56.54259999999999 57.605050000000006L57.35760000000005 57.70342000000005L57.71109999999999 58.12119000000007L58.03480000000002 57.68374000000006L58.76980000000003 57.62599L59.04340000000002 57.438870000000065L59.75780000000009 57.43277999999998L59.60430000000008 59.82276999999999L59.682000000000016 60.953899999999976L60.38280000000009 61.169669999999996L60.64230000000009 60.88921000000005L60.648000000000025 62.358029999999985L60.937400000000025 62.591049999999996L59.6001 62.88106000000005L59.494800000000055 63.223190000000045L58.13160000000005 65.66485L55.66280000000006 66.03034000000002L54.80150000000003 66.64609000000007L55.88170000000002 67.20446000000004L56.60630000000003 66.91122000000007L57.402000000000044 67.83252000000005L59.434600000000046 68.23562000000004L60.57230000000004 67.73284000000001L60.51710000000003 66.50281000000007L60.676000000000045 66.11824000000001L61.09019999999998 66.09255000000007L61.93780000000004 67.01017999999999L62.03860000000009 68.25984000000005L61.565900000000056 68.85093000000006L61.545600000000036 70.08905000000004L62.179700000000025 71.10226L62.556100000000015 73.33837000000005L63.298200000000065 75.39150000000006L62.803100000000086 76.57398L62.10419999999999 77.05228L63.01220000000001 79.47332000000006L64.52730000000008 80.44528000000003L67.37959999999998 78.59442000000001L68.5163 80.24166000000002L68.48329999999999 80.35537999999997L68.35590000000002 81.18534L68.86110000000008 83.64947000000006L68.20710000000008 83.70799999999997L67.51290000000006 83.70302000000004L67.05490000000009 84.31973000000005L66.18790000000001 83.60392999999999L65.6835000000001 84.52128000000005L65.8949 85.57227999999998L65.80520000000001 86.30777L65.07090000000005 86.30632000000003L64.7387 87.46639000000005L65.47149999999999 88.65782000000002L65.48110000000008 88.71788000000004L64.19010000000003 89.65286000000003L63.83699999999999 90.42237L61.976 91.40672000000006L60.447 92.79705999999999L60.023700000000076 92.75608L59.71760000000006 92.92063000000007L59.896400000000085 93.56718999999998L60.5684 93.21105999999997L61.58080000000007 93.72554000000002L63.07720000000006 93.67983000000004L63.61930000000007 94.23102000000006L64.31950000000006 94.52478000000008L64.37540000000001 94.90265999999997L64.20320000000004 95.61400000000003L63.822400000000016 95.64067L63.78590000000008 96.04334000000006L64.16740000000004 96.17388000000005L64.8741 95.78769999999997L66.47890000000007 95.73424999999997L67.01870000000008 96.14805999999999L65.99450000000002 97.47067000000004L65.8356 99.09604000000002L66.86270000000002 99.8107L68.0453 99.46325000000002L68.76640000000009 99.80318999999997L69.11810000000003 100.89702L68.43550000000005 101.30858L69.12990000000002 102.67669999999998L68.851 104.24272000000008L67.93299999999999 105.56812000000002L70.05619999999999 107.38034000000005L70.36800000000005 108.12644L69.99580000000003 108.46533999999997L69.3791 108.01053000000002L67.61130000000003 108.92678000000001L67.08330000000001 109.56166000000007L67.41610000000003 110.26724000000002L64.87670000000003 110.40997000000004L63.831999999999994 110.00391000000002L63.13880000000006 110.38396L60.817300000000046 110.01782000000003L60.21879999999999 110.30025999999998L59.533300000000054 111.78920000000005L57.973299999999995 112.21123L57.390100000000075 112.79974000000004L57.607900000000086 114.44698000000005L56.85540000000003 115.40418999999997L57.06880000000001 115.76570000000004L55.14200000000005 116.80925000000002L54.04770000000008 117.13092000000006L53.57569999999998 118.15457000000004L51.951400000000035 117.71150999999998L51.82350000000008 117.30468000000008z">
      <title id="t320">Troisième circonscription du Puy-de-Dôme</title>
      <desc id="d320">Cantons de : Ardes, Beaumont, Besse-et-Saint-Anastaise, Chamalières, Champeix, Clermont-Ferrand Ouest, Clermont-Ferrand Sud-Ouest, Rochefort-Montagne, Royat, Saint-Amant-Tallande, Tauves, La Tour-d'Auvergne</desc>
    </path><path class="circo" id="id-063-04" d="M69.1712 65.43523000000005L67.86090000000002 64.53503L67.04700000000003 65.33806000000004L66.52120000000002 65.44763999999998L65.64790000000005 64.39755000000002L65.01210000000003 63.10334L64.9326000000001 61.26141000000007L63.40160000000003 60.695850000000064L62.653099999999995 60.97437000000002L61.822200000000066 59.572040000000015L60.559799999999996 59.38198L60.94290000000001 59.828539999999975L59.60430000000008 59.82276999999999L59.682000000000016 60.953899999999976L60.38280000000009 61.169669999999996L60.64230000000009 60.88921000000005L60.648000000000025 62.358029999999985L60.937400000000025 62.591049999999996L59.6001 62.88106000000005L59.494800000000055 63.223190000000045L58.13160000000005 65.66485L55.66280000000006 66.03034000000002L54.80150000000003 66.64609000000007L55.88170000000002 67.20446000000004L56.60630000000003 66.91122000000007L57.402000000000044 67.83252000000005L59.434600000000046 68.23562000000004L60.57230000000004 67.73284000000001L60.51710000000003 66.50281000000007L60.676000000000045 66.11824000000001L61.09019999999998 66.09255000000007L61.93780000000004 67.01017999999999L62.03860000000009 68.25984000000005L61.565900000000056 68.85093000000006L61.545600000000036 70.08905000000004L62.179700000000025 71.10226L62.556100000000015 73.33837000000005L63.298200000000065 75.39150000000006L62.803100000000086 76.57398L62.10419999999999 77.05228L63.01220000000001 79.47332000000006L64.52730000000008 80.44528000000003L67.37959999999998 78.59442000000001L68.5163 80.24166000000002L68.48329999999999 80.35537999999997L68.35590000000002 81.18534L68.86110000000008 83.64947000000006L68.20710000000008 83.70799999999997L67.51290000000006 83.70302000000004L67.05490000000009 84.31973000000005L66.18790000000001 83.60392999999999L65.6835000000001 84.52128000000005L65.8949 85.57227999999998L65.80520000000001 86.30777L65.07090000000005 86.30632000000003L64.7387 87.46639000000005L65.47149999999999 88.65782000000002L65.48110000000008 88.71788000000004L64.19010000000003 89.65286000000003L63.83699999999999 90.42237L61.976 91.40672000000006L60.447 92.79705999999999L60.023700000000076 92.75608L59.71760000000006 92.92063000000007L59.896400000000085 93.56718999999998L60.5684 93.21105999999997L61.58080000000007 93.72554000000002L63.07720000000006 93.67983000000004L63.61930000000007 94.23102000000006L64.31950000000006 94.52478000000008L64.37540000000001 94.90265999999997L64.20320000000004 95.61400000000003L63.822400000000016 95.64067L63.78590000000008 96.04334000000006L64.16740000000004 96.17388000000005L64.8741 95.78769999999997L66.47890000000007 95.73424999999997L67.01870000000008 96.14805999999999L65.99450000000002 97.47067000000004L65.8356 99.09604000000002L66.86270000000002 99.8107L68.0453 99.46325000000002L68.76640000000009 99.80318999999997L69.11810000000003 100.89702L68.43550000000005 101.30858L69.12990000000002 102.67669999999998L68.851 104.24272000000008L67.93299999999999 105.56812000000002L70.05619999999999 107.38034000000005L70.36800000000005 108.12644L70.60570000000007 108.18924000000004L70.95860000000005 106.65389000000005L72.09480000000008 105.14664000000005L73.00549999999998 105.76189999999997L74.13570000000004 105.61629000000005L76.45990000000006 104.54416000000003L76.81960000000004 103.93822999999998L77.16050000000007 102.27030000000002L77.50690000000009 102.04480999999998L78.28320000000008 102.26364000000001L79.15359999999998 103.11007000000006L80.09300000000007 104.83420999999998L81.02230000000009 102.71012000000007L80.99310000000003 101.90953999999999L81.67040000000009 102.11868000000004L82.27640000000008 101.74725000000001L83.2473 103.10498000000007L84.32150000000001 104.35627L85.10930000000008 104.10712000000001L85.85400000000004 104.46195999999998L86.57730000000004 104.09708L87.74040000000002 104.83796000000007L88.35270000000003 104.29623000000004L90.76820000000009 104.45591000000002L91.17190000000005 104.35469999999998L91.42310000000009 103.57986000000005L92.77010000000007 102.03960000000006L94.6278000000001 101.15039999999999L94.57190000000003 100.86649999999997L95.29610000000002 99.32429000000002L95.16750000000002 99.04092000000003L94.81420000000003 99.52418999999998L92.01210000000003 99.36282000000006L90.56730000000005 98.75971000000004L91.0847 97.85057000000006L92.78770000000009 96.79345999999998L93.89610000000005 97.31979999999999L94.10950000000003 96.58888000000002L96.08580000000006 96.28841999999997L96.21019999999999 95.90395000000001L95.1481 94.25187000000005L95.41830000000004 94.03206L95.31460000000004 93.22440000000006L95.96109999999999 92.72091L94.94400000000007 91.44529L94.94100000000003 89.85595L94.21789999999999 89.00241000000005L94.6278000000001 87.91335000000004L94.44600000000003 87.54722000000004L92.94560000000001 87.99466000000007L89.9185 86.89062999999999L89.69299999999998 85.92638L89.9257 84.44418000000007L89.85059999999999 83.25736000000006L90.14080000000001 82.07020999999997L88.5 80.88420000000008L88.39430000000004 80.47771999999998L89.08140000000003 79.45970999999997L88.83040000000005 78.29730000000006L88.00710000000004 77.42602999999997L86.81450000000007 77.05532000000005L86.4326000000001 74.29892000000007L86.04669999999999 73.57320000000004L86.21440000000007 72.35505L84.91980000000001 70.76028000000008L83.33050000000003 70.87743999999998L82.85910000000001 71.51939000000004L82.15100000000007 71.65526999999997L81.8605 72.40539999999999L81.81380000000001 72.60232000000008L80.27280000000007 72.50806L79.34910000000002 71.73860000000002L76.92780000000005 71.65466000000004L76.04669999999999 70.14405L75.63600000000008 67.98162000000002L76.17500000000007 66.36354000000006L76.19479999999999 65.07531000000006L76.17849999999999 65.04791L76.0739000000001 64.66593L77.42770000000007 63.30455000000006L78.13830000000007 63.57821000000001L79.36590000000001 62.49835000000007L79.78010000000006 62.53952000000004L80.77390000000003 63.288470000000075L81.18630000000007 63.241949999999974L81.92370000000005 64.08422000000007L83.48860000000002 61.80901000000006L83.1413 60.75738000000001L84.18400000000008 59.52682000000004L86.26859999999999 59.75225999999998L86.86450000000002 59.15404000000001L87.03840000000002 55.364490000000046L86.24430000000007 55.06172000000004L84.98360000000002 55.25524000000007L84.54250000000002 56.392690000000016L83.90629999999999 56.957269999999994L82.98540000000003 56.36892L80.95339999999999 56.86913000000004L80.25030000000004 56.497299999999996L79.03219999999999 56.82817L78.71360000000004 56.04521999999997L79.2296 54.557230000000004L79.02510000000007 53.40544L78.1993 52.10499000000004L78.11509999999998 50.91922999999997L77.75120000000004 50.70569999999998L76.07560000000001 53.16137000000003L75.35149999999999 53.615710000000036L75.33680000000004 54.04624000000001L76.45530000000008 56.55045000000007L76.01760000000002 57.14049L74.04880000000003 57.62333000000001L74.13120000000004 58.83206000000007L73.69330000000002 59.97184000000004L71.27640000000008 61.09462000000008L70.62490000000003 61.37471000000005L70.9651 62.90250000000003L70.38170000000002 63.93407000000002L69.78120000000001 64.91823L69.1712 65.43523000000005z">
      <title id="t321">Quatrième circonscription du Puy-de-Dôme</title>
      <desc id="d321">Cantons de : Aubière, Clermont-Ferrand Sud-Est, Issoire, Jumeaux, Saint-Germain-Lembron, Sauxillanges, Vertaizon, Veyre-Monton, Vic-le-Comte, Commune de Pérignat-sur-Allier</desc>
    </path><path class="circo" id="id-063-05" d="M119.55680000000007 71.30943000000002L118.11630000000002 69.22974999999997L117.96940000000006 68.06000000000006L118.52390000000003 66.66362000000004L118.06790000000001 65.70418000000006L118.39970000000005 65.07811000000004L117.30500000000006 64.59141L116.26780000000008 62.406510000000026L115.8614 62.376300000000015L115.42730000000006 63.06875000000002L113.82550000000003 61.31392000000005L114.10850000000005 60.731790000000046L114.33570000000009 60.53854999999999L114.7491 59.827080000000024L113.94130000000007 58.82412999999997L111.5548 57.904660000000035L110.95960000000002 57.285799999999995L111.10620000000006 56.54606000000001L112.5951 55.74248L113.80730000000005 52.20832000000007L113.14700000000005 49.79268999999999L113.28620000000001 49.66321000000005L113.83190000000002 49.046159999999986L113.94650000000001 48.25255000000004L113.24540000000002 48.36802L112.84100000000001 47.28818000000001L114.41860000000008 47.20479999999998L115.245 46.36714000000006L115.3999 45.63074000000006L116.1431 45.40251000000001L114.94130000000007 42.74808000000007L113.98570000000007 41.967899999999986L113.33620000000008 40.91772000000003L111.01290000000006 39.941670000000045L111.00220000000002 39.914049999999975L110.03590000000008 38.74327000000005L109.65269999999998 36.85852L108.68560000000002 36.22257000000002L106.34990000000005 35.70005000000003L105.74070000000006 36.233580000000075L105.22040000000004 33.464969999999994L104.16840000000002 31.777590000000032L103.11930000000007 29.640350000000012L102.03010000000006 28.511010000000056L101.13220000000001 29.28710000000001L99.1594 29.220019999999977L99.02710000000002 29.60374999999999L98.66060000000004 29.531780000000026L97.99900000000002 29.564590000000067L97.77970000000005 28.859890000000064L97.40680000000009 28.74923000000001L96.28120000000001 28.97765000000004L96.25780000000009 29.704979999999978L93.38810000000001 29.718560000000025L92.24070000000006 30.156850000000077L92.56690000000003 31.086830000000077L89.50660000000005 32.09143000000006L88.24090000000001 33.629009999999994L85.39750000000004 33.33663999999999L85.202 33.997690000000034L84.25120000000004 33.76173000000006L84.16579999999999 34.183250000000044L82.35380000000009 35.25747000000001L82.02780000000007 36.49036000000001L80.36120000000005 36.86964999999998L80.23590000000002 37.176289999999995L79.87290000000007 39.25309000000004L78.22990000000004 39.432390000000055L76.14650000000006 39.48397L76.16910000000007 37.158070000000066L73.83080000000007 37.73574000000008L73.26970000000006 37.178L72.88850000000002 37.30673999999999L71.8864000000001 37.724249999999984L71.15970000000004 37.43365000000006L69.57940000000008 37.51079000000004L69.08810000000005 36.91721000000007L68.94130000000007 36.811199999999985L68.80230000000006 37.58366000000001L67.73290000000009 37.35649999999998L67.27500000000009 37.99063000000001L66.88330000000008 37.97657000000004L66.23160000000007 39.49302L67.11890000000005 40.55259000000001L66.75639999999999 40.772910000000024L66.22649999999999 42.38585999999998L66.4144 42.76688999999999L67.07310000000007 43.38219000000004L67.67140000000006 46.33405000000005L66.89980000000003 46.35762L66.46040000000005 47.37791000000004L65.32190000000003 47.38548000000003L65.21519999999998 49.83845000000008L65.94069999999999 50.196000000000026L68.11260000000004 52.51134000000002L68.86099999999999 52.68236000000002L69.10480000000007 52.38313000000005L69.89430000000004 53.20467000000008L69.98970000000008 53.95721000000003L69.52790000000005 56.02145000000007L69.18900000000008 56.28407000000004L67.91550000000007 56.18871999999999L67.71710000000007 57.29372000000001L65.84019999999998 58.56831999999997L65.92060000000004 59.37949000000003L66.62940000000003 60.36419000000001L67.94710000000009 61.37104999999997L69.207 61.27651000000003L70.59050000000002 60.390390000000025L71.27640000000008 61.09462000000008L73.69330000000002 59.97184000000004L74.13120000000004 58.83206000000007L74.04880000000003 57.62333000000001L76.01760000000002 57.14049L76.45530000000008 56.55045000000007L75.33680000000004 54.04624000000001L75.35149999999999 53.615710000000036L76.07560000000001 53.16137000000003L77.75120000000004 50.70569999999998L78.11509999999998 50.91922999999997L78.1993 52.10499000000004L79.02510000000007 53.40544L79.2296 54.557230000000004L78.71360000000004 56.04521999999997L79.03219999999999 56.82817L80.25030000000004 56.497299999999996L80.95339999999999 56.86913000000004L82.98540000000003 56.36892L83.90629999999999 56.957269999999994L84.54250000000002 56.392690000000016L84.98360000000002 55.25524000000007L86.24430000000007 55.06172000000004L87.03840000000002 55.364490000000046L86.86450000000002 59.15404000000001L86.26859999999999 59.75225999999998L84.18400000000008 59.52682000000004L83.1413 60.75738000000001L83.48860000000002 61.80901000000006L81.92370000000005 64.08422000000007L81.18630000000007 63.241949999999974L80.77390000000003 63.288470000000075L79.78010000000006 62.53952000000004L79.36590000000001 62.49835000000007L78.13830000000007 63.57821000000001L77.42770000000007 63.30455000000006L76.0739000000001 64.66593L76.17849999999999 65.04791L76.19479999999999 65.07531000000006L76.17500000000007 66.36354000000006L75.63600000000008 67.98162000000002L76.04669999999999 70.14405L76.92780000000005 71.65466000000004L79.34910000000002 71.73860000000002L80.27280000000007 72.50806L81.81380000000001 72.60232000000008L81.8605 72.40539999999999L82.15100000000007 71.65526999999997L82.85910000000001 71.51939000000004L83.33050000000003 70.87743999999998L84.91980000000001 70.76028000000008L86.21440000000007 72.35505L86.04669999999999 73.57320000000004L86.4326000000001 74.29892000000007L86.81450000000007 77.05532000000005L88.00710000000004 77.42602999999997L88.83040000000005 78.29730000000006L89.08140000000003 79.45970999999997L88.39430000000004 80.47771999999998L88.5 80.88420000000008L90.14080000000001 82.07020999999997L89.85059999999999 83.25736000000006L89.9257 84.44418000000007L89.69299999999998 85.92638L89.9185 86.89062999999999L92.94560000000001 87.99466000000007L94.44600000000003 87.54722000000004L94.6278000000001 87.91335000000004L94.21789999999999 89.00241000000005L94.94100000000003 89.85595L94.94400000000007 91.44529L95.96109999999999 92.72091L95.31460000000004 93.22440000000006L95.41830000000004 94.03206L95.1481 94.25187000000005L96.21019999999999 95.90395000000001L96.08580000000006 96.28841999999997L94.10950000000003 96.58888000000002L93.89610000000005 97.31979999999999L92.78770000000009 96.79345999999998L91.0847 97.85057000000006L90.56730000000005 98.75971000000004L92.01210000000003 99.36282000000006L94.81420000000003 99.52418999999998L95.16750000000002 99.04092000000003L95.29610000000002 99.32429000000002L94.57190000000003 100.86649999999997L94.6278000000001 101.15039999999999L95.10630000000003 103.16105000000005L96.37390000000005 104.23883999999998L98.61200000000008 104.73590999999999L99.26580000000001 105.23755000000006L100.00229999999999 104.93867999999998L100.41270000000009 104.21887000000004L101.41669999999999 106.58164L102.00830000000008 107.65829000000008L101.73400000000004 108.33612000000005L102.23860000000002 109.68964000000005L104.53539999999998 111.97809000000007L105.34570000000008 111.88968999999997L106.49570000000006 110.73593000000005L106.87740000000008 109.59105L108.39160000000004 108.97723000000008L108.7464 107.33400000000006L109.19500000000005 106.69587999999999L109.97220000000004 106.60996L110.22379999999998 106.91299000000004L111.08660000000009 107.73451999999997L111.86120000000005 107.93961999999999L111.41399999999999 109.02187000000004L112.0711 109.25220999999999L113.10820000000001 109.22777000000008L114.24560000000008 109.40609000000006L115.0992 110.18087000000003L116.2749 110.07661000000007L116.52590000000009 109.82632999999998L118.01430000000005 110.60325L118.34140000000002 110.35167000000001L119.10310000000004 109.51508000000001L118.93010000000004 107.90961000000004L119.29110000000003 106.33970999999997L120.52920000000006 105.50977999999998L121.54680000000008 106.17644000000007L121.95990000000006 106.87826000000007L123.10710000000006 106.54267000000004L123.19320000000005 108.57470999999998L123.86660000000006 108.14713000000006L124.5086 109.14769000000001L126.35700000000008 109.89129000000003L128.3016 109.68988000000002L127.85430000000008 108.14544000000001L128.0557 106.46195L127.70310000000006 105.26333L128.39790000000005 103.30780000000004L129.12380000000007 102.92795999999998L129.7030000000001 101.80272000000002L130.08860000000004 101.91413999999997L131.69350000000009 100.86529000000007L133.899 100.08472000000006L133.9017 99.95389L133.63420000000008 99.23487999999998L134.90610000000004 98.65042000000005L134.39480000000003 98.03852000000006L134.7378 97.30186000000003L134.264 95.82904000000008L135.80050000000006 94.05558000000008L135.6627000000001 92.97824000000003L134.7048000000001 92.36352L134.1046 92.31137000000001L134.03340000000003 91.98937999999998L133.4992000000001 90.70707000000004L132.46850000000006 87.11395000000005L133.15230000000008 85.60603000000003L132.31460000000004 84.76507000000004L131.87970000000007 83.66755999999998L131.25620000000004 82.74804000000006L129.2092 80.64366000000007L126.96050000000002 79.79323L125.8587 78.63306L125.19960000000003 78.35441000000003L124.85540000000003 77.20373000000006L123.17680000000007 76.95905000000005L122.05520000000001 76.33536000000004L121.78140000000008 75.69531000000006L121.52800000000002 74.56606999999997L120.48300000000006 73.42848000000004L119.55680000000007 71.30943000000002z">
      <title id="t322">Cinquième circonscription du Puy-de-Dôme</title>
      <desc id="d322">Cantons de : Ambert, Arlanc, Billom (moins la commune de Pérignat-sur-Allier), Châteldon, Courpière, Cunlhat, Ennezat, Lezoux, Maringues, Olliergues, Pont-du-Château, Saint-Amant-Roche-Savine, Saint-Anthème, Saint-Germain-l'Herm, Saint-Dier-d'Auvergne, Saint-Rémy-sur-Durolle, Thiers, Viverols</desc>
    </path></svg>