<svg xmlns="http://www.w3.org/2000/svg" version="1.1" xmlns:xlink="http://www.w3.org/1999/xlink" xmlns:svgjs="http://svgjs.dev/svgjs" viewBox="0 0 154.25149999999996 95.33330000000001"><path class="circo" id="id-064-01" d="M107.2781 32.485999999999876L108.80709999999999 35.173499999999876L110.3714 34.667399999999816L111.70450000000005 35.888299999999845L112.41250000000002 36.121999999999844L112.26970000000006 35.42169999999987L112.83519999999999 35.003600000000006L112.7301 34.662199999999984L112.58259999999996 33.972299999999905L113.5589 32.97429999999986L114.82249999999999 33.59109999999987L115.41510000000005 34.5465999999999L116.72059999999999 35.219699999999875L117.32360000000006 35.572099999999864L119.05930000000001 35.38879999999995L119.05939999999998 36.05229999999983L119.60400000000004 36.41789999999992L119.49289999999996 39.97439999999983L119.327 41.972499999999854L120.59860000000003 43.494699999999966L121.96379999999999 42.98779999999988L122.98180000000002 43.00540000000001L123.50930000000005 42.55869999999982L124.14570000000003 43.63149999999996L125.66010000000006 41.52659999999992L125.32270000000005 40.19290000000001L124.43299999999999 39.55160000000001L123.6662 38.32389999999987L123.48850000000004 38.182199999999966L123.02650000000006 37.50799999999981L123.02769999999998 37.04009999999994L121.18510000000003 36.27449999999999L120.99440000000004 35.92930000000001L121.30039999999997 35.681699999999864L121.09469999999999 34.76109999999994L121.8528 34.4393L121.8415 33.92829999999981L120.85249999999996 33.70909999999981L121.21720000000005 32.54859999999985L121.54190000000006 31.877299999999877L121.19529999999997 31.80419999999981L121.11500000000001 31.05989999999997L122.81470000000002 31.67919999999981L123.35419999999999 30.68529999999987L122.75710000000004 29.233099999999922L123.17820000000006 28.575399999999945L122.65510000000006 27.982899999999972L122.00490000000002 28.407399999999825L120.49630000000002 28.59809999999993L120.63599999999997 29.293099999999868L119.52330000000006 29.270299999999907L119.51560000000006 28.32659999999987L119.15269999999998 28.32849999999985L118.08360000000005 27.78509999999983L119.02240000000006 26.014699999999948L119.11950000000002 23.72199999999998L121.09529999999995 23.485599999999977L121.69320000000005 22.952199999999948L121.14840000000004 21.097999999999956L120.38909999999998 20.25799999999981L120.00990000000002 20.303699999999935L119.24519999999995 20.371399999999994L118.31380000000001 19.6884L116.86630000000002 19.24409999999989L116.42250000000001 20.228799999999865L115.15009999999995 20.867999999999938L114.42759999999998 20.286299999999983L115.19820000000004 19.433699999999817L115.06320000000005 18.69529999999986L115.61929999999995 17.66009999999983L116.29870000000005 16.726899999999887L116.65650000000005 16.885299999999916L117.24009999999998 16.432999999999993L114.18330000000003 14.906199999999899L113.52880000000005 15.708999999999833L112.82960000000003 15.606799999999794L113.21320000000003 16.618199999999888L112.50900000000001 18.008299999999963L112.60130000000004 20.79119999999989L112.73789999999997 21.730399999999918L110.70759999999996 22.93269999999984L109.98540000000003 22.599099999999908L109.87030000000004 22.894999999999982L108.97149999999999 23.082400000000007L108.55679999999995 23.649799999999914L109.01470000000006 24.152899999999818L108.69500000000005 25.229899999999816L107.47569999999996 25.962699999999813L107.41510000000005 26.985799999999927L106.92899999999997 27.496099999999842L108.03809999999999 28.42229999999995L107.41100000000006 29.981899999999996L106.60350000000005 31.04099999999994L107.34000000000003 31.82659999999987L107.2781 32.485999999999876z">
      <title id="t323">Première circonscription des Pyrénées-Atlantiques</title>
      <desc id="d323">Cantons : Billère, Lescar, Pau Centre, Pau Nord, Pau Ouest</desc>
    </path><path class="circo" id="id-064-02" d="M142.05640000000005 32.18029999999999L142.07799999999997 30.968599999999924L142.59410000000003 30.337999999999965L144.39660000000003 30.800399999999854L144.14509999999996 27.818499999999858L143.03160000000003 27.90859999999998L142.69579999999996 26.487199999999802L142.4918 25.99409999999989L141.7346 24.32029999999986L139.0181 25.701699999999846L138.26970000000006 25.535899999999856L138.11829999999998 24.002399999999852L137.34720000000004 23.748099999999795L136.75350000000003 22.65449999999987L135.81180000000006 21.8454999999999L135.9379 23.38469999999984L134.9167 23.90859999999998L133.70029999999997 23.0007999999998L132.7948 21.564999999999827L132.48770000000002 20.288999999999987L132.16729999999995 19.128099999999904L130.03840000000002 19.995799999999917L129.5226 20.550399999999854L128.54290000000003 20.42359999999985L127.48789999999997 20.936499999999796L125.57540000000006 19.44329999999991L124.2296 20.035499999999956L123.89250000000004 21.159299999999803L124.38829999999996 22.26369999999997L124.30150000000003 23.048999999999978L124.8184 23.55919999999992L124.75890000000004 24.744399999999814L123.5276 24.662799999999834L122.88700000000006 24.20439999999985L122.80050000000006 23.124199999999973L121.69320000000005 22.952199999999948L121.09529999999995 23.485599999999977L119.11950000000002 23.72199999999998L119.02240000000006 26.014699999999948L118.08360000000005 27.78509999999983L119.15269999999998 28.32849999999985L119.51560000000006 28.32659999999987L119.52330000000006 29.270299999999907L120.63599999999997 29.293099999999868L120.49630000000002 28.59809999999993L122.00490000000002 28.407399999999825L122.65510000000006 27.982899999999972L123.17820000000006 28.575399999999945L122.75710000000004 29.233099999999922L123.35419999999999 30.68529999999987L122.81470000000002 31.67919999999981L121.11500000000001 31.05989999999997L121.19529999999997 31.80419999999981L121.54190000000006 31.877299999999877L121.21720000000005 32.54859999999985L120.85249999999996 33.70909999999981L121.8415 33.92829999999981L121.8528 34.4393L121.09469999999999 34.76109999999994L121.30039999999997 35.681699999999864L120.99440000000004 35.92930000000001L121.18510000000003 36.27449999999999L123.02769999999998 37.04009999999994L123.02650000000006 37.50799999999981L123.48850000000004 38.182199999999966L123.6662 38.32389999999987L124.43299999999999 39.55160000000001L125.32270000000005 40.19290000000001L125.66010000000006 41.52659999999992L124.14570000000003 43.63149999999996L123.13160000000005 45.36609999999996L123.17370000000005 45.77170000000001L124.1413 46.41519999999991L124.06489999999997 46.76279999999997L124.69150000000002 47.09009999999989L124.69939999999997 47.65019999999981L123.52369999999996 47.30009999999993L122.78449999999998 47.5791999999999L122.4692 49.17829999999981L121.67100000000005 50.0800999999999L122.1232 50.8110999999999L124.03139999999996 52.7367999999999L123.89480000000003 53.86259999999993L124.77729999999997 55.5469999999998L123.9162 56.285699999999906L124.82180000000005 56.98439999999982L125.85850000000005 57.2509L125.57280000000003 58.31209999999987L126.24850000000004 58.664999999999964L126.17600000000004 59.48019999999997L126.83780000000002 59.95219999999995L127.02880000000005 60.729899999999816L126.0838 62.92619999999988L126.05290000000002 63.33369999999991L126.12490000000003 63.735999999999876L126.37620000000004 64.05839999999989L127.72370000000001 64.97779999999989L129.21230000000003 64.60069999999996L129.67129999999997 65.25789999999984L131.72119999999995 65.16279999999983L132.77840000000003 65.79129999999986L134.8161 64.64670000000001L135.60299999999995 63.74889999999982L136.38149999999996 63.59789999999998L134.95630000000006 62.3300999999999L134.98030000000006 61.530899999999974L135.8886 59.74889999999982L135.7464 58.965799999999945L135.02150000000006 58.07939999999985L135.5005 57.52859999999987L135.3383 56.326699999999846L136.79229999999995 56.79919999999993L137.64890000000003 55.577L139.37779999999998 54.793699999999944L140.03340000000003 52.356799999999794L140.35580000000004 52.05239999999981L141.07540000000006 51.27379999999994L141.16359999999997 50.223399999999856L141.9339 48.83929999999987L142.31770000000006 48.946899999999914L143.14300000000003 50.265699999999924L144.05769999999995 49.11439999999993L146.04539999999997 49.092099999999846L145.52710000000002 43.8146999999999L145.8596 43.62209999999982L146.56470000000002 43.91599999999994L147.61710000000005 44.40019999999981L147.84069999999997 43.6574999999998L147.99429999999995 42.482699999999795L149.62969999999996 40.19999999999982L150.24099999999999 38.329299999999876L150.235 37.92699999999991L149.60559999999998 37.429999999999836L149.77689999999996 37.06489999999985L148.32759999999996 36.65829999999983L148.07420000000002 35.9532999999999L148.04110000000003 34.411099999999806L148.90300000000002 33.63539999999989L149.45979999999997 31.999599999999873L149.65830000000005 31.29449999999997L151.55010000000004 31.038900000000012L152.53650000000005 31.706199999999853L152.90020000000004 31.53769999999986L153.87040000000002 30.242700000000013L153.98590000000002 30.05419999999981L154.25149999999996 29.307599999999866L152.2695 27.387399999999843L152.2192 26.361899999999878L151.85630000000003 26.529399999999896L151.41930000000002 25.90599999999995L151.92489999999998 24.82329999999979L151.71259999999995 24.536599999999908L152.04020000000003 23.904799999999796L151.45010000000002 23.84109999999987L151.78160000000003 23.505099999999857L151.49130000000002 23.292899999999918L152.63559999999995 20.467099999999846L151.40740000000005 19.364299999999957L151.60379999999998 17.788499999999885L150.4094 17.92179999999985L149.70590000000004 19.549699999999802L149.09220000000005 19.12649999999985L148.57270000000005 20.857899999999972L148.1612 21.87039999999979L146.0965 21.84629999999993L145.9148 21.71010000000001L144.48360000000002 24.311899999999923L144.3293 24.769799999999805L143.90150000000006 26.11959999999999L144.85590000000002 26.597999999999956L145.1173 27.142499999999927L145.20140000000004 27.14969999999994L146.33370000000002 28.489699999999857L146.45360000000005 29.202699999999822L146.27530000000002 29.96089999999981L146.0321 31.452799999999797L145.90859999999998 32.512699999999995L145.89390000000003 33.294799999999896L145.4361 33.92039999999997L145.36900000000003 33.94419999999991L143.6164 33.23259999999982L142.96760000000006 33.26099999999997L142.47699999999998 33.25909999999999L142.28359999999998 33.750299999999925L142.53769999999997 33.70529999999985L144.22530000000006 34.63040000000001L143.75599999999997 36.59069999999997L144.6114 37.415899999999965L145.0462 38.065200000000004L144.9198 39.23129999999992L144.16629999999998 40.12459999999987L143.80140000000006 39.978200000000015L142.98940000000005 40.71100000000001L143.05320000000006 41.43009999999981L142.89679999999998 41.418499999999995L141.7514 41.598199999999906L141.26610000000005 41.02080000000001L139.86329999999998 38.06209999999987L140.14890000000003 36.91749999999979L140.13959999999997 36.41859999999997L140.78629999999998 35.95229999999992L141.42600000000004 34.58739999999989L141.80010000000004 33.89639999999986L142.2794 33.74969999999985L142.47299999999996 33.25879999999984L142.32140000000004 32.88239999999996L142.05640000000005 32.18029999999999z">
      <title id="t324">Deuxième circonscription des Pyrénées-Atlantiques</title>
      <desc id="d324">Cantons de : Montaner, Morlaàs, Nay-Bourdettes Est, Nay-Bourdettes Ouest, Pau Est, Pau Sud, Pontacq</desc>
    </path><path class="circo" id="id-064-03" d="M104.06590000000006 5.1802000000000135L103.61239999999998 4.530999999999949L100.81010000000003 6.825199999999995L99.59230000000002 6.9348999999999705L99.54740000000004 6.113200000000006L98.15459999999996 5.438999999999851L97.94450000000006 5.0134999999997945L97.17290000000003 5.128399999999829L95.89269999999999 4.351199999999835L97.3243 2.5844999999999345L95.5974 3.292499999999791L93.25999999999999 4.676999999999907L92.2731 4.079999999999927L91.66639999999995 4.570199999999886L91.61530000000005 6.514199999999846L90.51089999999999 6.505199999999832L89.8868 6.06049999999982L89.41570000000002 4.820399999999836L86.33709999999996 2.0728999999998905L85.31730000000005 2.506599999999935L85.36379999999997 3.6341999999999643L84.30880000000002 3.8571999999999207L83.5281 4.768699999999853L82.03219999999999 4.183099999999968L80.21609999999998 5.012199999999893L80.17380000000003 6.266199999999799L79.07720000000006 6.444599999999809L78.3759 6.178899999999885L77.73800000000006 6.028599999999869L75.84900000000005 5.4625999999998385L74.29370000000006 5.689899999999852L73.68259999999998 6.191499999999905L73.29960000000005 7.298699999999826L72.93209999999999 7.442599999999857L72.28150000000005 6.994599999999991L71.58590000000004 6.9987999999998465L71.09360000000004 7.5759999999997945L70.02800000000002 7.227099999999837L67.81550000000004 6.6440000000000055L66.7147 7.023099999999886L67.67050000000006 7.651699999999892L67.73540000000003 9.210299999999961L67.34199999999998 10.296699999999873L67.46000000000004 10.88409999999999L65.28240000000005 10.657199999999875L64.79960000000005 11.155999999999949L64.52470000000005 10.882799999999861L64.03470000000004 10.2670999999998L62.89639999999997 10.00149999999985L60.947599999999966 10.365999999999985L61.42870000000005 11.971099999999979L62.002700000000004 13.135299999999916L61.40549999999996 15.063599999999951L61.730500000000006 16.21259999999984L63.32720000000006 17.284400000000005L63.65560000000005 19.72460000000001L64.2142 20.79139999999984L65.31650000000002 20.383899999999812L66.36500000000001 19.844299999999976L67.32169999999996 19.06809999999996L67.16240000000005 18.76299999999992L67.76580000000001 17.55749999999989L68.12890000000004 17.714299999999866L68.81770000000006 17.325999999999794L70.37030000000004 17.54189999999994L72.09289999999999 18.284299999999803L72.9529 18.2507999999998L73.4108 18.776299999999992L74.43970000000002 18.908500000000004L75.22140000000002 19.568699999999808L75.55010000000004 19.481799999999794L77.13880000000006 19.271399999999858L77.6753 18.25389999999993L79.04809999999998 17.573699999999917L78.71569999999997 16.50999999999999L79.13520000000005 15.865999999999985L79.34709999999995 15.360799999999927L80.13130000000001 16.74759999999992L81.01660000000004 17.512199999999893L80.75329999999997 19.41039999999998L81.05060000000003 20.146499999999833L81.7151 20.94380000000001L83.05470000000003 21.760899999999992L84.22760000000005 21.669399999999996L85.07720000000006 22.461000000000013L86.2595 22.50319999999988L88.05320000000006 23.28469999999993L88.66859999999997 24.020299999999907L89.73310000000004 26.026799999999866L91.10299999999995 26.481199999999944L90.49019999999996 26.930399999999963L89.75559999999996 26.9704999999999L90.07439999999997 27.615499999999884L89.47289999999998 28.566499999999905L90.36770000000001 29.590399999999818L90.95330000000001 29.083699999999908L91.31489999999997 29.233999999999924L91.79759999999999 30.558599999999842L92.16610000000003 30.544399999999996L92.29859999999996 31.270699999999806L93.64769999999999 30.696899999999914L94.04190000000006 32.58939999999984L94.71280000000002 33.53859999999986L94.4103 34.67719999999986L94.05690000000004 34.853599999999915L93.69029999999998 35.51229999999987L92.5652 35.653499999999894L93.45069999999998 36.39639999999986L93.35710000000006 37.49329999999986L94.91020000000003 37.344899999999825L96.481 38.51229999999987L96.51300000000003 39.294999999999845L97.06470000000002 39.8590999999999L96.99549999999999 41.03929999999991L96.96320000000003 41.15639999999985L97.72410000000002 41.288299999999936L97.94270000000006 40.96289999999999L98.40710000000001 41.98169999999982L98.95299999999997 41.579299999999876L99.28819999999996 40.57289999999989L100.25020000000006 38.95759999999996L100.59910000000002 37.50869999999986L101.28840000000002 36.58659999999986L101.6114 36.84529999999995L103.08759999999995 38.8436999999999L102.62930000000006 39.732699999999795L103.71680000000003 40.97699999999986L103.88130000000001 42.21139999999991L104.54370000000006 42.88319999999999L104.49789999999996 43.21409999999992L103.11000000000001 44.88609999999994L104.83759999999995 45.770699999999806L105.1816 44.97079999999983L106.19860000000006 45.39019999999982L106.90150000000006 46.72239999999988L108.74950000000001 48.295199999999795L111.3614 48.63689999999997L112.02599999999995 49.55829999999992L111.99180000000001 50.23149999999987L113.44129999999996 50.81709999999998L115.36469999999997 51.102300000000014L116.49620000000004 50.02170000000001L116.89229999999998 50.018100000000004L117.50310000000002 50.436499999999796L117.01779999999997 51.03679999999986L118.04640000000006 50.6712L118.47320000000002 48.89509999999996L119.0942 48.69619999999986L120.05079999999998 49.01099999999997L121.67100000000005 50.0800999999999L122.4692 49.17829999999981L122.78449999999998 47.5791999999999L123.52369999999996 47.30009999999993L124.69939999999997 47.65019999999981L124.69150000000002 47.09009999999989L124.06489999999997 46.76279999999997L124.1413 46.41519999999991L123.17370000000005 45.77170000000001L123.13160000000005 45.36609999999996L124.14570000000003 43.63149999999996L123.50930000000005 42.55869999999982L122.98180000000002 43.00540000000001L121.96379999999999 42.98779999999988L120.59860000000003 43.494699999999966L119.327 41.972499999999854L119.49289999999996 39.97439999999983L119.60400000000004 36.41789999999992L119.05939999999998 36.05229999999983L119.05930000000001 35.38879999999995L117.32360000000006 35.572099999999864L116.72059999999999 35.219699999999875L115.41510000000005 34.5465999999999L114.82249999999999 33.59109999999987L113.5589 32.97429999999986L112.58259999999996 33.972299999999905L112.7301 34.662199999999984L112.83519999999999 35.003600000000006L112.26970000000006 35.42169999999987L112.41250000000002 36.121999999999844L111.70450000000005 35.888299999999845L110.3714 34.667399999999816L108.80709999999999 35.173499999999876L107.2781 32.485999999999876L107.34000000000003 31.82659999999987L106.60350000000005 31.04099999999994L107.41100000000006 29.981899999999996L108.03809999999999 28.42229999999995L106.92899999999997 27.496099999999842L107.41510000000005 26.985799999999927L107.47569999999996 25.962699999999813L108.69500000000005 25.229899999999816L109.01470000000006 24.152899999999818L108.55679999999995 23.649799999999914L108.97149999999999 23.082400000000007L109.87030000000004 22.894999999999982L109.98540000000003 22.599099999999908L110.70759999999996 22.93269999999984L112.73789999999997 21.730399999999918L112.60130000000004 20.79119999999989L112.50900000000001 18.008299999999963L113.21320000000003 16.618199999999888L112.82960000000003 15.606799999999794L113.52880000000005 15.708999999999833L114.18330000000003 14.906199999999899L117.24009999999998 16.432999999999993L116.65650000000005 16.885299999999916L116.29870000000005 16.726899999999887L115.61929999999995 17.66009999999983L115.06320000000005 18.69529999999986L115.19820000000004 19.433699999999817L114.42759999999998 20.286299999999983L115.15009999999995 20.867999999999938L116.42250000000001 20.228799999999865L116.86630000000002 19.24409999999989L118.31380000000001 19.6884L119.24519999999995 20.371399999999994L120.00990000000002 20.303699999999935L120.38909999999998 20.25799999999981L121.14840000000004 21.097999999999956L121.69320000000005 22.952199999999948L122.80050000000006 23.124199999999973L122.88700000000006 24.20439999999985L123.5276 24.662799999999834L124.75890000000004 24.744399999999814L124.8184 23.55919999999992L124.30150000000003 23.048999999999978L124.38829999999996 22.26369999999997L123.89250000000004 21.159299999999803L124.2296 20.035499999999956L125.57540000000006 19.44329999999991L127.48789999999997 20.936499999999796L128.54290000000003 20.42359999999985L129.5226 20.550399999999854L130.03840000000002 19.995799999999917L132.16729999999995 19.128099999999904L132.48770000000002 20.288999999999987L132.7948 21.564999999999827L133.70029999999997 23.0007999999998L134.9167 23.90859999999998L135.9379 23.38469999999984L135.81180000000006 21.8454999999999L136.75350000000003 22.65449999999987L137.34720000000004 23.748099999999795L138.11829999999998 24.002399999999852L138.26970000000006 25.535899999999856L139.0181 25.701699999999846L141.7346 24.32029999999986L142.4918 25.99409999999989L142.69579999999996 26.487199999999802L143.90150000000006 26.11959999999999L144.3293 24.769799999999805L144.48360000000002 24.311899999999923L145.9148 21.71010000000001L146.0965 21.84629999999993L147.28279999999995 20.432599999999866L145.89840000000004 19.062799999999925L146.13509999999997 17.93529999999987L146.5466 16.789199999999937L146.2256 15.633499999999913L149.08569999999997 15.33479999999986L149.81680000000006 15.382599999999911L150.20780000000002 14.86369999999988L149.5716 14.302699999999959L148.87890000000004 14.214499999999816L148.7419 12.669299999999794L147.64099999999996 12.304699999999912L147.84130000000005 11.556299999999965L148.06680000000006 10.58420000000001L148.4035 9.878999999999905L148.03830000000005 9.323199999999815L148.10030000000006 8.662199999999984L147.63 7.86869999999999L147.0398 7.4840999999998985L145.88760000000002 5.875599999999849L144.40920000000006 6.3884999999997945L144.03700000000003 6.366199999999935L143.75030000000004 5.707999999999856L144.18449999999996 4.324299999999994L143.8623 3.8869999999999436L143.99739999999997 3.141199999999799L143.58810000000005 1.6929999999999836L141.4262 1.3399999999999181L140.85699999999997 1.8316999999999553L140.04880000000003 1.8427999999998974L138.981 1.334999999999809L138.39959999999996 1.8052999999999884L138.0353 1.7797999999997955L136.80679999999995 0L134.38840000000005 1.5057999999999083L133.91280000000006 0.4218999999998232L132.36609999999996 0.8434999999999491L131.5068 1.618600000000015L131.17309999999998 1.3903999999999996L130.81349999999998 1.6597999999999047L130.423 1.6632999999999356L129.98879999999997 1.0133999999998196L127.73159999999996 1.486599999999953L127.40539999999999 2.608699999999999L126.79899999999998 3.3936999999998534L126.21180000000004 2.9957999999999174L126.17359999999996 3.6692999999997937L125.80539999999996 4.382999999999811L123.20939999999996 5.350399999999809L122.16300000000001 4.770599999999831L121.75829999999996 4.111799999999903L118.74599999999998 3.3618999999998778L117.75620000000004 3.9445999999998094L117.3003 3.356699999999819L114.6078 5.164299999999912L113.58820000000003 5.509899999999789L112.67750000000001 3.7920999999998912L113.63200000000006 3.3000999999999294L115.11789999999996 1.559099999999944L114.29420000000005 0.3933999999999287L113.6291 0.06629999999995562L112.55590000000007 1.0837999999998829L112.26760000000002 0.8481999999999061L108.66290000000004 3.2387999999998556L108.69209999999998 3.328499999999849L108.22789999999998 3.994699999999966L107.15200000000004 4.5858999999998105L104.82860000000005 6.296999999999798L104.4538 6.339399999999841L104.06590000000006 5.1802000000000135z">
      <title id="t325">Troisième circonscription des Pyrénées-Atlantiques</title>
      <desc id="d325">Cantons de: Arthez-de-Béarn, Arzacq-Arraziguet, Garlin, Jurançon, Lagor, Lasseube, Lembeye, Monein, Orthez, Salies-de-Béarn, Thèze</desc>
    </path><path class="circo" id="id-064-04" d="M96.04809999999998 86.05089999999996L95.48609999999996 84.71569999999997L94.0607 83.30160000000001L92.50450000000001 83.68889999999988L90.72799999999995 82.75139999999988L89.87490000000003 81.89449999999988L89.34050000000002 79.96419999999989L90.11360000000002 79.04769999999985L89.58960000000002 78.00450000000001L89.68740000000003 76.83019999999988L89.48500000000001 75.96269999999981L88.8732 75.64779999999996L87.8247 73.54679999999985L86.66020000000003 73.36289999999985L85.18690000000004 73.82589999999982L82.80269999999996 75.36639999999989L80.76329999999996 75.12049999999999L78.31299999999999 75.40369999999984L76.7604 74.86839999999984L75.52520000000004 74.83849999999984L75.25649999999996 74.10099999999989L74.4615 73.91349999999989L73.27970000000005 74.98579999999993L71.26409999999998 74.91529999999989L69.36929999999995 74.13839999999982L67.04340000000002 72.4695999999999L66.21310000000005 71.03869999999984L65.92290000000003 70.74270000000001L65.55920000000003 70.54249999999979L60.664300000000026 69.88799999999992L59.63059999999996 69.23929999999996L59.70849999999996 68.4427999999998L58.53499999999997 68.18049999999994L57.25689999999997 67.1927999999998L54.97580000000005 68.72289999999998L54.5299 68.0752L54.436199999999985 66.86149999999998L52.06110000000001 65.33349999999996L51.92750000000001 65.7081999999998L51.1952 65.7346L48.75720000000001 63.73199999999997L47.19410000000005 63.33389999999986L45.77369999999996 64.7829999999999L44.575000000000045 64.6393999999998L43.67640000000006 63.287399999999934L40.591499999999996 61.45009999999979L41.541000000000054 58.760499999999865L42.899400000000014 56.96759999999995L43.845800000000054 55.91339999999991L39.59940000000006 56.58919999999989L38.57050000000004 57.170199999999795L37.46990000000005 58.88259999999991L37.783000000000015 60.47569999999996L37.550500000000056 63.33929999999987L36.85630000000003 66.13179999999988L36.503600000000006 66.34209999999985L35.71109999999999 66.12729999999988L29.43470000000002 64.3648999999998L28.047800000000052 62.35269999999991L26.745000000000005 60.27369999999996L26.67100000000005 59.46109999999999L27.340000000000032 58.44989999999984L30.511100000000056 55.959899999999834L30.541600000000017 55.55119999999988L31.449799999999982 54.83600000000001L31.892200000000003 53.31899999999996L31.643599999999992 52.217299999999796L32.17349999999999 51.62909999999988L32.56619999999998 51.544099999999844L32.80930000000001 48.763999999999896L34.09050000000002 47.80919999999992L34.19730000000004 43.822599999999966L34.620000000000005 43.13369999999986L34.6318 42.32489999999984L34.26750000000004 40.341399999999794L32.39740000000006 38.23329999999987L31.688999999999965 37.8587L33.344100000000026 36.76559999999995L34.00720000000001 35.83109999999988L35.50430000000006 35.33639999999991L35.92730000000006 34.66159999999991L36.634000000000015 34.33619999999996L38.84649999999999 34.85269999999991L39.45069999999998 34.339499999999816L38.877200000000016 32.8451L37.320299999999975 32.723599999999806L36.97519999999997 31.996399999999994L35.95090000000005 31.455299999999852L35.87430000000006 30.65409999999997L36.9144 29.631799999999885L35.99549999999999 26.130899999999883L34.28409999999997 23.8929999999998L33.72799999999995 23.1241L33.603500000000054 22.376199999999926L34.637699999999995 21.285199999999804L33.79380000000003 20.010099999999966L34.445100000000025 19.703599999999824L35.44190000000003 18.342499999999973L38.172300000000064 19.007699999999886L39.78390000000002 19.033899999999903L42.17399999999998 18.631999999999834L43.44709999999998 17.64709999999991L44.71950000000004 18.41859999999997L45.45460000000003 18.328199999999924L45.75459999999998 18.610500000000002L44.69839999999999 19.060999999999922L43.8451 19.899299999999812L43.213300000000004 21.759799999999814L42.40269999999998 23.552799999999934L43.44360000000006 24.080999999999904L43.57860000000005 25.258100000000013L44.2432 26.231399999999894L44.632600000000025 27.47759999999994L44.555000000000064 30.98739999999998L45.666000000000054 30.872499999999945L46.14639999999997 30.30329999999981L46.37810000000002 29.242099999999937L46.99860000000001 28.895899999999983L47.98090000000002 28.562799999999925L48.99000000000001 28.830999999999904L49.47789999999998 28.19829999999979L50.610000000000014 27.89670000000001L52.33720000000005 26.23849999999993L51.04150000000004 24.285499999999956L50.45339999999999 23.234499999999798L50.404300000000035 21.314499999999953L48.616300000000024 18.787599999999884L49.79269999999997 17.726899999999887L51.24260000000004 18.152699999999868L53.11159999999995 18.598799999999983L55.484500000000025 18.939799999999877L59.356899999999996 17.92509999999993L59.61940000000004 18.16469999999981L60.32320000000004 16.996299999999792L60.628900000000044 17.175700000000006L60.714200000000005 17.710199999999986L60.57709999999997 18.476699999999937L59.85120000000006 18.74739999999997L59.59820000000002 19.483999999999924L58.93629999999996 19.893699999999853L59.67370000000005 21.213399999999865L60.0403 21.37559999999985L62.17730000000006 21.694099999999935L62.36189999999999 22.38649999999984L64.2142 20.79139999999984L65.31650000000002 20.383899999999812L66.36500000000001 19.844299999999976L67.32169999999996 19.06809999999996L67.16240000000005 18.76299999999992L67.76580000000001 17.55749999999989L68.12890000000004 17.714299999999866L68.81770000000006 17.325999999999794L70.37030000000004 17.54189999999994L72.09289999999999 18.284299999999803L72.9529 18.2507999999998L73.4108 18.776299999999992L74.43970000000002 18.908500000000004L75.22140000000002 19.568699999999808L75.55010000000004 19.481799999999794L77.13880000000006 19.271399999999858L77.6753 18.25389999999993L79.04809999999998 17.573699999999917L78.71569999999997 16.50999999999999L79.13520000000005 15.865999999999985L79.34709999999995 15.360799999999927L80.13130000000001 16.74759999999992L81.01660000000004 17.512199999999893L80.75329999999997 19.41039999999998L81.05060000000003 20.146499999999833L81.7151 20.94380000000001L83.05470000000003 21.760899999999992L84.22760000000005 21.669399999999996L85.07720000000006 22.461000000000013L86.2595 22.50319999999988L88.05320000000006 23.28469999999993L88.66859999999997 24.020299999999907L89.73310000000004 26.026799999999866L91.10299999999995 26.481199999999944L90.49019999999996 26.930399999999963L89.75559999999996 26.9704999999999L90.07439999999997 27.615499999999884L89.47289999999998 28.566499999999905L90.36770000000001 29.590399999999818L90.95330000000001 29.083699999999908L91.31489999999997 29.233999999999924L91.79759999999999 30.558599999999842L92.16610000000003 30.544399999999996L92.29859999999996 31.270699999999806L93.64769999999999 30.696899999999914L94.04190000000006 32.58939999999984L94.71280000000002 33.53859999999986L94.4103 34.67719999999986L94.05690000000004 34.853599999999915L93.69029999999998 35.51229999999987L92.5652 35.653499999999894L93.45069999999998 36.39639999999986L93.35710000000006 37.49329999999986L94.91020000000003 37.344899999999825L96.481 38.51229999999987L96.51300000000003 39.294999999999845L97.06470000000002 39.8590999999999L96.99549999999999 41.03929999999991L96.96320000000003 41.15639999999985L97.72410000000002 41.288299999999936L97.94270000000006 40.96289999999999L98.40710000000001 41.98169999999982L98.95299999999997 41.579299999999876L99.28819999999996 40.57289999999989L100.25020000000006 38.95759999999996L100.59910000000002 37.50869999999986L101.28840000000002 36.58659999999986L101.6114 36.84529999999995L103.08759999999995 38.8436999999999L102.62930000000006 39.732699999999795L103.71680000000003 40.97699999999986L103.88130000000001 42.21139999999991L104.54370000000006 42.88319999999999L104.49789999999996 43.21409999999992L103.11000000000001 44.88609999999994L104.83759999999995 45.770699999999806L105.1816 44.97079999999983L106.19860000000006 45.39019999999982L106.90150000000006 46.72239999999988L108.74950000000001 48.295199999999795L111.3614 48.63689999999997L112.02599999999995 49.55829999999992L111.99180000000001 50.23149999999987L113.44129999999996 50.81709999999998L115.36469999999997 51.102300000000014L116.49620000000004 50.02170000000001L116.89229999999998 50.018100000000004L117.50310000000002 50.436499999999796L117.01779999999997 51.03679999999986L118.04640000000006 50.6712L118.47320000000002 48.89509999999996L119.0942 48.69619999999986L120.05079999999998 49.01099999999997L121.67100000000005 50.0800999999999L122.1232 50.8110999999999L124.03139999999996 52.7367999999999L123.89480000000003 53.86259999999993L124.77729999999997 55.5469999999998L123.9162 56.285699999999906L124.82180000000005 56.98439999999982L125.85850000000005 57.2509L125.57280000000003 58.31209999999987L126.24850000000004 58.664999999999964L126.17600000000004 59.48019999999997L126.83780000000002 59.95219999999995L127.02880000000005 60.729899999999816L126.0838 62.92619999999988L126.05290000000002 63.33369999999991L126.12490000000003 63.735999999999876L126.37620000000004 64.05839999999989L127.72370000000001 64.97779999999989L129.21230000000003 64.60069999999996L129.67129999999997 65.25789999999984L129.97609999999997 67.16390000000001L129.3134 68.5444L127.3623 69.0619999999999L126.97260000000006 70.62039999999979L127.19630000000006 74.22519999999986L127.68870000000004 74.8454999999999L128.07619999999997 76.40559999999982L127.5942 77.8155999999999L126.50239999999997 77.72539999999981L125.20709999999997 79.16629999999986L124.02970000000005 79.36339999999996L124.24660000000006 80.9346999999998L124.95389999999998 81.89589999999998L124.96410000000003 83.08179999999993L125.69410000000005 84.9197999999999L125.17150000000004 87.19299999999998L124.0797 88.8741L123.3116 88.60499999999979L122.13220000000001 88.83780000000002L120.79160000000002 90.90189999999984L118.76030000000003 92.85269999999991L116.89610000000005 92.14289999999983L114.29060000000004 93.2772L109.74549999999999 90.75699999999983L109.20330000000001 89.68369999999982L108.47029999999995 90.00540000000001L107.26099999999997 91.60739999999987L107.02620000000002 93.54499999999985L105.54020000000003 93.99959999999987L104.74720000000002 95.33330000000001L103.55500000000006 95.13089999999988L103.34029999999996 93.9846L103.7387 93.2824999999998L103.68960000000004 92.49109999999996L103.05600000000004 92.05789999999979L101.52560000000005 92.49879999999985L100.78960000000006 92.17059999999992L100.61390000000006 89.42899999999986L98.97370000000001 88.32019999999989L97.74000000000001 86.74379999999996L96.04809999999998 86.05089999999996z">
      <title id="t326">Quatrième circonscription des Pyrénées-Atlantiques</title>
      <desc id="d326">Cantons de : Accous, Aramits, Arudy, Hasparren, Liholdy, Laruns, Mauléon-Licharre, Navarrenx, Oloron-Sainte-Marie Est, Oloron-Sainte-Marie Ouest, Saint-Etienne-de-Baïgorry, Saint-Jean-Pied-de-Port, Saint-Palais, Sauveterre-de-Béarn, Tardets-Sorholus</desc>
    </path><path class="circo" id="id-064-05" d="M27.233100000000036 9.419799999999896L27.412599999999998 7.471000000000004L26.044899999999984 6.763699999999972L24.191100000000006 8.197799999999916L22.197599999999966 7.874899999999798L20.07650000000001 12.020699999999806L21.298700000000053 13.0945999999999L21.286399999999958 15.947299999999814L22.464900000000057 16.254199999999855L22.865999999999985 16.9074999999998L24.715299999999957 17.089499999999816L25.621800000000007 16.461599999999862L26.48980000000006 17.251999999999953L26.476 18.458599999999933L27.64110000000005 18.802799999999934L28.129999999999995 20.24219999999991L30.90330000000006 20.789999999999964L31.642299999999977 20.493199999999888L32.34370000000001 19.558499999999867L33.79380000000003 20.010099999999966L34.445100000000025 19.703599999999824L35.44190000000003 18.342499999999973L38.172300000000064 19.007699999999886L39.78390000000002 19.033899999999903L42.17399999999998 18.631999999999834L43.44709999999998 17.64709999999991L44.71950000000004 18.41859999999997L45.45460000000003 18.328199999999924L45.75459999999998 18.610500000000002L44.69839999999999 19.060999999999922L43.8451 19.899299999999812L43.213300000000004 21.759799999999814L42.40269999999998 23.552799999999934L43.44360000000006 24.080999999999904L43.57860000000005 25.258100000000013L44.2432 26.231399999999894L44.632600000000025 27.47759999999994L44.555000000000064 30.98739999999998L45.666000000000054 30.872499999999945L46.14639999999997 30.30329999999981L46.37810000000002 29.242099999999937L46.99860000000001 28.895899999999983L47.98090000000002 28.562799999999925L48.99000000000001 28.830999999999904L49.47789999999998 28.19829999999979L50.610000000000014 27.89670000000001L52.33720000000005 26.23849999999993L51.04150000000004 24.285499999999956L50.45339999999999 23.234499999999798L50.404300000000035 21.314499999999953L48.616300000000024 18.787599999999884L49.79269999999997 17.726899999999887L51.24260000000004 18.152699999999868L53.11159999999995 18.598799999999983L55.484500000000025 18.939799999999877L59.356899999999996 17.92509999999993L59.61940000000004 18.16469999999981L60.32320000000004 16.996299999999792L60.628900000000044 17.175700000000006L60.714200000000005 17.710199999999986L60.57709999999997 18.476699999999937L59.85120000000006 18.74739999999997L59.59820000000002 19.483999999999924L58.93629999999996 19.893699999999853L59.67370000000005 21.213399999999865L60.0403 21.37559999999985L62.17730000000006 21.694099999999935L62.36189999999999 22.38649999999984L64.2142 20.79139999999984L63.65560000000005 19.72460000000001L63.32720000000006 17.284400000000005L61.730500000000006 16.21259999999984L61.40549999999996 15.063599999999951L62.002700000000004 13.135299999999916L61.42870000000005 11.971099999999979L60.947599999999966 10.365999999999985L60.50959999999998 9.050799999999981L59.92020000000002 8.66099999999983L59.197 9.962699999999813L57.68920000000003 9.677999999999884L56.92430000000002 10.9545999999998L55.50890000000004 11.3907999999999L55.11410000000001 11.426499999999805L54.8519 12.56880000000001L54.47659999999996 12.692999999999984L53.74300000000005 11.800700000000006L52.729799999999955 12.378999999999905L52.39080000000001 12.173099999999977L52.375999999999976 11.693599999999833L52.206999999999994 10.740699999999833L52.79390000000001 10.376999999999953L55.12180000000001 10.225599999999986L55.67520000000002 9.721299999999928L55.41930000000002 8.991199999999935L53.72230000000002 7.917799999999943L53.25329999999997 6.823899999999867L52.006399999999985 5.958099999999831L50.18470000000002 5.952599999999848L49.481899999999996 6.636799999999994L48.31560000000002 7.7672999999999774L45.516899999999964 9.381999999999834L44.724500000000035 9.812599999999975L42.044399999999996 11.545399999999972L39.406799999999976 10.776499999999942L38.39710000000002 11.013899999999921L38.34299999999996 10.987300000000005L35.391399999999976 11.939399999999978L31.603200000000015 11.683299999999917L31.310600000000022 11.718699999999899L30.35450000000003 9.919199999999819L27.99720000000002 9.250699999999824L27.233100000000036 9.419799999999896z">
      <title id="t327">Cinquième circonscription des Pyrénées-Atlantiques</title>
      <desc id="d327">Cantons de : Anglet Nord, Anglet Sud, Bayonne Est, Bayonne Nord, Bayonne Ouest, Bidache, Labastide-Clairence, Saint-Pierre-d'Irube</desc>
    </path><path class="circo" id="id-064-06" d="M17.679100000000062 15.596099999999979L15.005899999999997 19.8440999999998L14.388299999999958 19.904599999999846L14.012100000000032 20.372899999999845L12.043999999999983 22.27839999999992L9.753299999999967 22.9708999999998L10.542900000000031 23.960399999999936L9.911100000000033 24.452299999999923L8.765099999999961 24.00709999999981L8.836500000000001 23.614799999999832L8.460199999999986 23.488599999999906L4.437000000000012 25.164399999999887L2.8688999999999965 24.832299999999805L2.0550999999999817 25.762599999999793L0.5778999999999996 26.447799999999916L1.1902000000000044 27.251599999999826L0 28.857999999999947L1.2775000000000318 29.76209999999992L2.0452000000000226 29.611400000000003L2.13130000000001 29.594499999999925L2.8093000000000075 29.99479999999994L2.95210000000003 30.799399999999878L4.011000000000024 31.361999999999853L3.9367000000000303 32.97649999999999L4.671899999999994 34.86909999999989L6.228200000000015 34.58409999999981L7.044899999999984 33.67829999999981L7.750499999999988 33.33609999999999L8.461300000000051 33.68419999999992L9.912000000000035 33.0967999999998L11.082400000000007 33.269399999999905L12.030700000000024 33.967099999999846L12.784200000000055 33.724699999999984L12.810399999999959 33.72309999999993L13.84310000000005 34.326499999999896L13.305200000000013 36.71329999999989L14.04970000000003 39.08389999999986L14.830600000000004 40.03919999999994L15.208200000000033 40.20959999999991L18.06619999999998 40.288699999999835L19.251300000000015 37.66919999999982L19.06389999999999 36.10939999999982L21.82140000000004 35.52369999999996L23.813499999999976 35.53969999999981L24.82529999999997 36.813899999999876L25.628000000000043 36.88259999999991L26.949700000000007 37.82569999999987L28.89459999999997 38.39689999999996L30.38340000000005 38.61259999999993L31.688999999999965 37.8587L33.344100000000026 36.76559999999995L34.00720000000001 35.83109999999988L35.50430000000006 35.33639999999991L35.92730000000006 34.66159999999991L36.634000000000015 34.33619999999996L38.84649999999999 34.85269999999991L39.45069999999998 34.339499999999816L38.877200000000016 32.8451L37.320299999999975 32.723599999999806L36.97519999999997 31.996399999999994L35.95090000000005 31.455299999999852L35.87430000000006 30.65409999999997L36.9144 29.631799999999885L35.99549999999999 26.130899999999883L34.28409999999997 23.8929999999998L33.72799999999995 23.1241L33.603500000000054 22.376199999999926L34.637699999999995 21.285199999999804L33.79380000000003 20.010099999999966L32.34370000000001 19.558499999999867L31.642299999999977 20.493199999999888L30.90330000000006 20.789999999999964L28.129999999999995 20.24219999999991L27.64110000000005 18.802799999999934L26.476 18.458599999999933L26.48980000000006 17.251999999999953L25.621800000000007 16.461599999999862L24.715299999999957 17.089499999999816L22.865999999999985 16.9074999999998L22.464900000000057 16.254199999999855L21.286399999999958 15.947299999999814L21.298700000000053 13.0945999999999L20.07650000000001 12.020699999999806L18.377500000000055 13.411599999999908L18.351200000000063 14.195399999999836L17.679100000000062 15.596099999999979z">
      <title id="t328">Sixième circonscription des Pyrénées-Atlantiques</title>
      <desc id="d328">Cantons de : Biarritz Est, Biarritz Ouest, Espelette, Hendaye, Saint-Jean-de-Luz, Ustaritz</desc>
    </path></svg>