<svg xmlns="http://www.w3.org/2000/svg" version="1.1" xmlns:xlink="http://www.w3.org/1999/xlink" xmlns:svgjs="http://svgjs.dev/svgjs" viewBox="505.03373 1094.4199 154.25149999999996 95.33330000000001"><path class="circo" id="id-064-01" d="M 612.31183,1126.9059 613.84083,1129.5934 615.40513,1129.0873 616.73823,1130.3082 617.44623,1130.5419 617.30343,1129.8416 617.86893,1129.4235 617.76383,1129.0821 617.61633,1128.3922 618.59263,1127.3942 619.85623,1128.011 620.44883,1128.9665 621.75433,1129.6396 622.35733,1129.992 624.09303,1129.8087 624.09313,1130.4722 624.63773,1130.8378 624.52663,1134.3943 624.36073,1136.3924 625.63233,1137.9146 626.99753,1137.4077 628.01553,1137.4253 628.54303,1136.9786 629.17943,1138.0514 630.69383,1135.9465 630.35643,1134.6128 629.46673,1133.9715 628.69993,1132.7438 628.52223,1132.6021 628.06023,1131.9279 628.06143,1131.46 626.21883,1130.6944 626.02813,1130.3492 626.33413,1130.1016 626.12843,1129.181 626.88653,1128.8592 626.87523,1128.3482 625.88623,1128.129 626.25093,1126.9685 626.57563,1126.2972 626.22903,1126.2241 626.14873,1125.4798 627.84843,1126.0991 628.38793,1125.1052 627.79083,1123.653 628.21193,1122.9953 627.68883,1122.4028 627.03863,1122.8273 625.53003,1123.018 625.66973,1123.713 624.55703,1123.6902 624.54933,1122.7465 624.18643,1122.7484 623.11733,1122.205 624.05613,1120.4346 624.15323,1118.1419 626.12903,1117.9055 626.72693,1117.3721 626.18213,1115.5179 625.42283,1114.6779 625.04363,1114.7236 624.27893,1114.7913 623.34753,1114.1083 621.90003,1113.664 621.45623,1114.6487 620.18383,1115.2879 619.46133,1114.7062 620.23193,1113.8536 620.09693,1113.1152 620.65303,1112.08 621.33243,1111.1468 621.69023,1111.3052 622.27383,1110.8529 619.21703,1109.3261 618.56253,1110.1289 617.86333,1110.0267 618.24693,1111.0381 617.54273,1112.4282 617.63503,1115.2111 617.77163,1116.1503 615.74133,1117.3526 615.01913,1117.019 614.90403,1117.3149 614.00523,1117.5023 613.59053,1118.0697 614.04843,1118.5728 613.72873,1119.6498 612.50943,1120.3826 612.44883,1121.4057 611.96273,1121.916 613.07183,1122.8422 612.44473,1124.4018 611.63723,1125.4609 612.37373,1126.2465 612.31183,1126.9059 z">
      <title id="t323">Première circonscription des Pyrénées-Atlantiques</title>
      <desc id="d323">Cantons : Billère, Lescar, Pau Centre, Pau Nord, Pau Ouest</desc>
    </path><path class="circo" id="id-064-02" d="M 647.09013,1126.6002 647.11173,1125.3885 647.62783,1124.7579 649.43033,1125.2203 649.17883,1122.2384 648.06533,1122.3285 647.72953,1120.9071 647.52553,1120.414 646.76833,1118.7402 644.05183,1120.1216 643.30343,1119.9558 643.15203,1118.4223 642.38093,1118.168 641.78723,1117.0744 640.84553,1116.2654 640.97163,1117.8046 639.95043,1118.3285 638.73403,1117.4207 637.82853,1115.9849 637.52143,1114.7089 637.20103,1113.548 635.07213,1114.4157 634.55633,1114.9703 633.57663,1114.8435 632.52163,1115.3564 630.60913,1113.8632 629.26333,1114.4554 628.92623,1115.5792 629.42203,1116.6836 629.33523,1117.4689 629.85213,1117.9791 629.79263,1119.1643 628.56133,1119.0827 627.92073,1118.6243 627.83423,1117.5441 626.72693,1117.3721 626.12903,1117.9055 624.15323,1118.1419 624.05613,1120.4346 623.11733,1122.205 624.18643,1122.7484 624.54933,1122.7465 624.55703,1123.6902 625.66973,1123.713 625.53003,1123.018 627.03863,1122.8273 627.68883,1122.4028 628.21193,1122.9953 627.79083,1123.653 628.38793,1125.1052 627.84843,1126.0991 626.14873,1125.4798 626.22903,1126.2241 626.57563,1126.2972 626.25093,1126.9685 625.88623,1128.129 626.87523,1128.3482 626.88653,1128.8592 626.12843,1129.181 626.33413,1130.1016 626.02813,1130.3492 626.21883,1130.6944 628.06143,1131.46 628.06023,1131.9279 628.52223,1132.6021 628.69993,1132.7438 629.46673,1133.9715 630.35643,1134.6128 630.69383,1135.9465 629.17943,1138.0514 628.16533,1139.786 628.20743,1140.1916 629.17503,1140.8351 629.09863,1141.1827 629.72523,1141.51 629.73313,1142.0701 628.55743,1141.72 627.81823,1141.9991 627.50293,1143.5982 626.70473,1144.5 627.15693,1145.231 629.06513,1147.1567 628.92853,1148.2825 629.81103,1149.9669 628.94993,1150.7056 629.85553,1151.4043 630.89223,1151.6708 630.60653,1152.732 631.28223,1153.0849 631.20973,1153.9001 631.87153,1154.3721 632.06253,1155.1498 631.11753,1157.3461 631.08663,1157.7536 631.15863,1158.1559 631.40993,1158.4783 632.75743,1159.3977 634.24603,1159.0206 634.70503,1159.6778 636.75493,1159.5827 637.81213,1160.2112 639.84983,1159.0666 640.63673,1158.1688 641.41523,1158.0178 639.99003,1156.75 640.01403,1155.9508 640.92233,1154.1688 640.78013,1153.3857 640.05523,1152.4993 640.53423,1151.9485 640.37203,1150.7466 641.82603,1151.2191 642.68263,1149.9969 644.41153,1149.2136 645.06713,1146.7767 645.38953,1146.4723 646.10913,1145.6937 646.19733,1144.6433 646.96763,1143.2592 647.35143,1143.3668 648.17673,1144.6856 649.09143,1143.5343 651.07913,1143.512 650.56083,1138.2346 650.89333,1138.042 651.59843,1138.3359 652.65083,1138.8201 652.87443,1138.0774 653.02803,1136.9026 654.66343,1134.6199 655.27473,1132.7492 655.26873,1132.3469 654.63933,1131.8499 654.81063,1131.4848 653.36133,1131.0782 653.10793,1130.3732 653.07483,1128.831 653.93673,1128.0553 654.49353,1126.4195 654.69203,1125.7144 656.58383,1125.4588 657.57023,1126.1261 657.93393,1125.9576 658.90413,1124.6626 659.01963,1124.4741 659.28523,1123.7275 657.30323,1121.8073 657.25293,1120.7818 656.89003,1120.9493 656.45303,1120.3259 656.95863,1119.2432 656.74633,1118.9565 657.07393,1118.3247 656.48383,1118.261 656.81533,1117.925 656.52503,1117.7128 657.66933,1114.887 656.44113,1113.7842 656.63753,1112.2084 655.44313,1112.3417 654.73963,1113.9696 654.12593,1113.5464 653.60643,1115.2778 653.19493,1116.2903 651.13023,1116.2662 650.94853,1116.13 649.51733,1118.7318 649.36303,1119.1897 648.93523,1120.5395 649.88963,1121.0179 650.15103,1121.5624 650.23513,1121.5696 651.36743,1122.9096 651.48733,1123.6226 651.30903,1124.3808 651.06583,1125.8727 650.94233,1126.9326 650.92763,1127.7147 650.46983,1128.3403 650.40273,1128.3641 648.65013,1127.6525 648.00133,1127.6809 647.51073,1127.679 647.31733,1128.1702 647.57143,1128.1252 649.25903,1129.0503 648.78973,1131.0106 649.64513,1131.8358 650.07993,1132.4851 649.95353,1133.6512 649.20003,1134.5445 648.83513,1134.3981 648.02313,1135.1309 648.08693,1135.85 647.93053,1135.8384 646.78513,1136.0181 646.29983,1135.4407 644.89703,1132.482 645.18263,1131.3374 645.17333,1130.8385 645.82003,1130.3722 646.45973,1129.0073 646.83383,1128.3163 647.31313,1128.1696 647.50673,1127.6787 647.35513,1127.3023 647.09013,1126.6002 z">
      <title id="t324">Deuxième circonscription des Pyrénées-Atlantiques</title>
      <desc id="d324">Cantons de : Montaner, Morlaàs, Nay-Bourdettes Est, Nay-Bourdettes Ouest, Pau Est, Pau Sud, Pontacq</desc>
    </path><path class="circo" id="id-064-03" d="M 609.09963,1099.6001 608.64613,1098.9509 605.84383,1101.2451 604.62603,1101.3548 604.58113,1100.5331 603.18833,1099.8589 602.97823,1099.4334 602.20663,1099.5483 600.92643,1098.7711 602.35803,1097.0044 600.63113,1097.7124 598.29373,1099.0969 597.30683,1098.4999 596.70013,1098.9901 596.64903,1100.9341 595.54463,1100.9251 594.92053,1100.4804 594.44943,1099.2403 591.37083,1096.4928 590.35103,1096.9265 590.39753,1098.0541 589.34253,1098.2771 588.56183,1099.1886 587.06593,1098.603 585.24983,1099.4321 585.20753,1100.6861 584.11093,1100.8645 583.40963,1100.5988 582.77173,1100.4485 580.88273,1099.8825 579.32743,1100.1098 578.71633,1100.6114 578.33333,1101.7186 577.96583,1101.8625 577.31523,1101.4145 576.61963,1101.4187 576.12733,1101.9959 575.06173,1101.647 572.84923,1101.0639 571.74843,1101.443 572.70423,1102.0716 572.76913,1103.6302 572.37573,1104.7166 572.49373,1105.304 570.31613,1105.0771 569.83333,1105.5759 569.55843,1105.3027 569.06843,1104.687 567.93013,1104.4214 565.98133,1104.7859 566.46243,1106.391 567.03643,1107.5552 566.43923,1109.4835 566.76423,1110.6325 568.36093,1111.7043 568.68933,1114.1445 569.24793,1115.2113 570.35023,1114.8038 571.39873,1114.2642 572.35543,1113.488 572.19613,1113.1829 572.79953,1111.9774 573.16263,1112.1342 573.85143,1111.7459 575.40403,1111.9618 577.12663,1112.7042 577.98663,1112.6707 578.44453,1113.1962 579.47343,1113.3284 580.25513,1113.9886 580.58383,1113.9017 582.17253,1113.6913 582.70903,1112.6738 584.08183,1111.9936 583.74943,1110.9299 584.16893,1110.2859 584.38083,1109.7807 585.16503,1111.1675 586.05033,1111.9321 585.78703,1113.8303 586.08433,1114.5664 586.74883,1115.3637 588.08843,1116.1808 589.26133,1116.0893 590.11093,1116.8809 591.29323,1116.9231 593.08693,1117.7046 593.70233,1118.4402 594.76683,1120.4467 596.13673,1120.9011 595.52393,1121.3503 594.78933,1121.3904 595.10813,1122.0354 594.50663,1122.9864 595.40143,1124.0103 595.98703,1123.5036 596.34863,1123.6539 596.83133,1124.9785 597.19983,1124.9643 597.33233,1125.6906 598.68143,1125.1168 599.07563,1127.0093 599.74653,1127.9585 599.44403,1129.0971 599.09063,1129.2735 598.72403,1129.9322 597.59893,1130.0734 598.48443,1130.8163 598.39083,1131.9132 599.94393,1131.7648 601.51473,1132.9322 601.54673,1133.7149 602.09843,1134.279 602.02923,1135.4592 601.99693,1135.5763 602.75783,1135.7082 602.97643,1135.3828 603.44083,1136.4016 603.98673,1135.9992 604.32193,1134.9928 605.28393,1133.3775 605.63283,1131.9286 606.32213,1131.0065 606.64513,1131.2652 608.12133,1133.2636 607.66303,1134.1526 608.75053,1135.3969 608.91503,1136.6313 609.57743,1137.3031 609.53163,1137.634 608.14373,1139.306 609.87133,1140.1906 610.21533,1139.3907 611.23233,1139.8101 611.93523,1141.1423 613.78323,1142.7151 616.39513,1143.0568 617.05973,1143.9782 617.02553,1144.6514 618.47503,1145.237 620.39843,1145.5222 621.52993,1144.4416 621.92603,1144.438 622.53683,1144.8564 622.05153,1145.4567 623.08013,1145.0911 623.50693,1143.315 624.12793,1143.1161 625.08453,1143.4309 626.70473,1144.5 627.50293,1143.5982 627.81823,1141.9991 628.55743,1141.72 629.73313,1142.0701 629.72523,1141.51 629.09863,1141.1827 629.17503,1140.8351 628.20743,1140.1916 628.16533,1139.786 629.17943,1138.0514 628.54303,1136.9786 628.01553,1137.4253 626.99753,1137.4077 625.63233,1137.9146 624.36073,1136.3924 624.52663,1134.3943 624.63773,1130.8378 624.09313,1130.4722 624.09303,1129.8087 622.35733,1129.992 621.75433,1129.6396 620.44883,1128.9665 619.85623,1128.011 618.59263,1127.3942 617.61633,1128.3922 617.76383,1129.0821 617.86893,1129.4235 617.30343,1129.8416 617.44623,1130.5419 616.73823,1130.3082 615.40513,1129.0873 613.84083,1129.5934 612.31183,1126.9059 612.37373,1126.2465 611.63723,1125.4609 612.44473,1124.4018 613.07183,1122.8422 611.96273,1121.916 612.44883,1121.4057 612.50943,1120.3826 613.72873,1119.6498 614.04843,1118.5728 613.59053,1118.0697 614.00523,1117.5023 614.90403,1117.3149 615.01913,1117.019 615.74133,1117.3526 617.77163,1116.1503 617.63503,1115.2111 617.54273,1112.4282 618.24693,1111.0381 617.86333,1110.0267 618.56253,1110.1289 619.21703,1109.3261 622.27383,1110.8529 621.69023,1111.3052 621.33243,1111.1468 620.65303,1112.08 620.09693,1113.1152 620.23193,1113.8536 619.46133,1114.7062 620.18383,1115.2879 621.45623,1114.6487 621.90003,1113.664 623.34753,1114.1083 624.27893,1114.7913 625.04363,1114.7236 625.42283,1114.6779 626.18213,1115.5179 626.72693,1117.3721 627.83423,1117.5441 627.92073,1118.6243 628.56133,1119.0827 629.79263,1119.1643 629.85213,1117.9791 629.33523,1117.4689 629.42203,1116.6836 628.92623,1115.5792 629.26333,1114.4554 630.60913,1113.8632 632.52163,1115.3564 633.57663,1114.8435 634.55633,1114.9703 635.07213,1114.4157 637.20103,1113.548 637.52143,1114.7089 637.82853,1115.9849 638.73403,1117.4207 639.95043,1118.3285 640.97163,1117.8046 640.84553,1116.2654 641.78723,1117.0744 642.38093,1118.168 643.15203,1118.4223 643.30343,1119.9558 644.05183,1120.1216 646.76833,1118.7402 647.52553,1120.414 647.72953,1120.9071 648.93523,1120.5395 649.36303,1119.1897 649.51733,1118.7318 650.94853,1116.13 651.13023,1116.2662 652.31653,1114.8525 650.93213,1113.4827 651.16883,1112.3552 651.58033,1111.2091 651.25933,1110.0534 654.11943,1109.7547 654.85053,1109.8025 655.24153,1109.2836 654.60533,1108.7226 653.91263,1108.6344 653.77563,1107.0892 652.67473,1106.7246 652.87503,1105.9762 653.10053,1105.0041 653.43723,1104.2989 653.07203,1103.7431 653.13403,1103.0821 652.66373,1102.2886 652.07353,1101.904 650.92133,1100.2955 649.44293,1100.8084 649.07073,1100.7861 648.78403,1100.1279 649.21823,1098.7442 648.89603,1098.3069 649.03113,1097.5611 648.62183,1096.1129 646.45993,1095.7599 645.89073,1096.2516 645.08253,1096.2627 644.01473,1095.7549 643.43333,1096.2252 643.06903,1096.1997 641.84053,1094.4199 639.42213,1095.9257 638.94653,1094.8418 637.39983,1095.2634 636.54053,1096.0385 636.20683,1095.8103 635.84723,1096.0797 635.45673,1096.0832 635.02253,1095.4333 632.76533,1095.9065 632.43913,1097.0286 631.83273,1097.8136 631.24553,1097.4157 631.20733,1098.0892 630.83913,1098.8029 628.24313,1099.7703 627.19673,1099.1905 626.79203,1098.5317 623.77973,1097.7818 622.78993,1098.3645 622.33403,1097.7766 619.64153,1099.5842 618.62193,1099.9298 617.71123,1098.212 618.66573,1097.72 620.15163,1095.979 619.32793,1094.8133 618.66283,1094.4862 617.58963,1095.5037 617.30133,1095.2681 613.69663,1097.6587 613.72583,1097.7484 613.26163,1098.4146 612.18573,1099.0058 609.86233,1100.7169 609.48753,1100.7593 609.09963,1099.6001 z">
      <title id="t325">Troisième circonscription des Pyrénées-Atlantiques</title>
      <desc id="d325">Cantons de: Arthez-de-Béarn, Arzacq-Arraziguet, Garlin, Jurançon, Lagor, Lasseube, Lembeye, Monein, Orthez, Salies-de-Béarn, Thèze</desc>
    </path><path class="circo" id="id-064-04" d="M 601.08183,1180.4708 600.51983,1179.1356 599.09443,1177.7215 597.53823,1178.1088 595.76173,1177.1713 594.90863,1176.3144 594.37423,1174.3841 595.14733,1173.4676 594.62333,1172.4244 594.72113,1171.2501 594.51873,1170.3826 593.90693,1170.0677 592.85843,1167.9667 591.69393,1167.7828 590.22063,1168.2458 587.83643,1169.7863 585.79703,1169.5404 583.34673,1169.8236 581.79413,1169.2883 580.55893,1169.2584 580.29023,1168.5209 579.49523,1168.3334 578.31343,1169.4057 576.29783,1169.3352 574.40303,1168.5583 572.07713,1166.8895 571.24683,1165.4586 570.95663,1165.1626 570.59293,1164.9624 565.69803,1164.3079 564.66433,1163.6592 564.74223,1162.8627 563.56873,1162.6004 562.29063,1161.6127 560.00953,1163.1428 559.56363,1162.4951 559.46993,1161.2814 557.09483,1159.7534 556.96123,1160.1281 556.22893,1160.1545 553.79093,1158.1519 552.22783,1157.7538 550.80743,1159.2029 549.60873,1159.0593 548.71013,1157.7073 545.62523,1155.87 546.57473,1153.1804 547.93313,1151.3875 548.87953,1150.3333 544.63313,1151.0091 543.60423,1151.5901 542.50363,1153.3025 542.81673,1154.8956 542.58423,1157.7592 541.89003,1160.5517 541.53733,1160.762 540.74483,1160.5472 534.46843,1158.7848 533.08153,1156.7726 531.77873,1154.6936 531.70473,1153.881 532.37373,1152.8698 535.54483,1150.3798 535.57533,1149.9711 536.48353,1149.2559 536.92593,1147.7389 536.67733,1146.6372 537.20723,1146.049 537.59993,1145.964 537.84303,1143.1839 539.12423,1142.2291 539.23103,1138.2425 539.65373,1137.5536 539.66553,1136.7448 539.30123,1134.7613 537.43113,1132.6532 536.72273,1132.2786 538.37783,1131.1855 539.04093,1130.251 540.53803,1129.7563 540.96103,1129.0815 541.66773,1128.7561 543.88023,1129.2726 544.48443,1128.7594 543.91093,1127.265 542.35403,1127.1435 542.00893,1126.4163 540.98463,1125.8752 540.90803,1125.074 541.94813,1124.0517 541.02923,1120.5508 539.31783,1118.3129 538.76173,1117.544 538.63723,1116.7961 539.67143,1115.7051 538.82753,1114.43 539.47883,1114.1235 540.47563,1112.7624 543.20603,1113.4276 544.81763,1113.4538 547.20773,1113.0519 548.48083,1112.067 549.75323,1112.8385 550.48833,1112.7481 550.78833,1113.0304 549.73213,1113.4809 548.87883,1114.3192 548.24703,1116.1797 547.43643,1117.9727 548.47733,1118.5009 548.61233,1119.678 549.27693,1120.6513 549.66633,1121.8975 549.58873,1125.4073 550.69973,1125.2924 551.18013,1124.7232 551.41183,1123.662 552.03233,1123.3158 553.01463,1122.9827 554.02373,1123.2509 554.51163,1122.6182 555.64373,1122.3166 557.37093,1120.6584 556.07523,1118.7054 555.48713,1117.6544 555.43803,1115.7344 553.65003,1113.2075 554.82643,1112.1468 556.27633,1112.5726 558.14533,1113.0187 560.51823,1113.3597 564.39063,1112.345 564.65313,1112.5846 565.35693,1111.4162 565.66263,1111.5956 565.74793,1112.1301 565.61083,1112.8966 564.88493,1113.1673 564.63193,1113.9039 563.97003,1114.3136 564.70743,1115.6333 565.07403,1115.7955 567.21103,1116.114 567.39563,1116.8064 569.24793,1115.2113 570.35023,1114.8038 571.39873,1114.2642 572.35543,1113.488 572.19613,1113.1829 572.79953,1111.9774 573.16263,1112.1342 573.85143,1111.7459 575.40403,1111.9618 577.12663,1112.7042 577.98663,1112.6707 578.44453,1113.1962 579.47343,1113.3284 580.25513,1113.9886 580.58383,1113.9017 582.17253,1113.6913 582.70903,1112.6738 584.08183,1111.9936 583.74943,1110.9299 584.16893,1110.2859 584.38083,1109.7807 585.16503,1111.1675 586.05033,1111.9321 585.78703,1113.8303 586.08433,1114.5664 586.74883,1115.3637 588.08843,1116.1808 589.26133,1116.0893 590.11093,1116.8809 591.29323,1116.9231 593.08693,1117.7046 593.70233,1118.4402 594.76683,1120.4467 596.13673,1120.9011 595.52393,1121.3503 594.78933,1121.3904 595.10813,1122.0354 594.50663,1122.9864 595.40143,1124.0103 595.98703,1123.5036 596.34863,1123.6539 596.83133,1124.9785 597.19983,1124.9643 597.33233,1125.6906 598.68143,1125.1168 599.07563,1127.0093 599.74653,1127.9585 599.44403,1129.0971 599.09063,1129.2735 598.72403,1129.9322 597.59893,1130.0734 598.48443,1130.8163 598.39083,1131.9132 599.94393,1131.7648 601.51473,1132.9322 601.54673,1133.7149 602.09843,1134.279 602.02923,1135.4592 601.99693,1135.5763 602.75783,1135.7082 602.97643,1135.3828 603.44083,1136.4016 603.98673,1135.9992 604.32193,1134.9928 605.28393,1133.3775 605.63283,1131.9286 606.32213,1131.0065 606.64513,1131.2652 608.12133,1133.2636 607.66303,1134.1526 608.75053,1135.3969 608.91503,1136.6313 609.57743,1137.3031 609.53163,1137.634 608.14373,1139.306 609.87133,1140.1906 610.21533,1139.3907 611.23233,1139.8101 611.93523,1141.1423 613.78323,1142.7151 616.39513,1143.0568 617.05973,1143.9782 617.02553,1144.6514 618.47503,1145.237 620.39843,1145.5222 621.52993,1144.4416 621.92603,1144.438 622.53683,1144.8564 622.05153,1145.4567 623.08013,1145.0911 623.50693,1143.315 624.12793,1143.1161 625.08453,1143.4309 626.70473,1144.5 627.15693,1145.231 629.06513,1147.1567 628.92853,1148.2825 629.81103,1149.9669 628.94993,1150.7056 629.85553,1151.4043 630.89223,1151.6708 630.60653,1152.732 631.28223,1153.0849 631.20973,1153.9001 631.87153,1154.3721 632.06253,1155.1498 631.11753,1157.3461 631.08663,1157.7536 631.15863,1158.1559 631.40993,1158.4783 632.75743,1159.3977 634.24603,1159.0206 634.70503,1159.6778 635.00983,1161.5838 634.34713,1162.9643 632.39603,1163.4819 632.00633,1165.0403 632.23003,1168.6451 632.72243,1169.2654 633.10993,1170.8255 632.62793,1172.2355 631.53613,1172.1453 630.24083,1173.5862 629.06343,1173.7833 629.28033,1175.3546 629.98763,1176.3158 629.99783,1177.5017 630.72783,1179.3397 630.20523,1181.6129 629.11343,1183.294 628.34533,1183.0249 627.16593,1183.2577 625.82533,1185.3218 623.79403,1187.2726 621.92983,1186.5628 619.32433,1187.6971 614.77923,1185.1769 614.23703,1184.1036 613.50403,1184.4253 612.29473,1186.0273 612.05993,1187.9649 610.57393,1188.4195 609.78093,1189.7532 608.58873,1189.5508 608.37403,1188.4045 608.77243,1187.7024 608.72333,1186.911 608.08973,1186.4778 606.55933,1186.9187 605.82333,1186.5905 605.64763,1183.8489 604.00743,1182.7401 602.77373,1181.1637 601.08183,1180.4708 z">
      <title id="t326">Quatrième circonscription des Pyrénées-Atlantiques</title>
      <desc id="d326">Cantons de : Accous, Aramits, Arudy, Hasparren, Liholdy, Laruns, Mauléon-Licharre, Navarrenx, Oloron-Sainte-Marie Est, Oloron-Sainte-Marie Ouest, Saint-Etienne-de-Baïgorry, Saint-Jean-Pied-de-Port, Saint-Palais, Sauveterre-de-Béarn, Tardets-Sorholus</desc>
    </path><path class="circo" id="id-064-05" d="M 532.26683,1103.8397 532.44633,1101.8909 531.07863,1101.1836 529.22483,1102.6177 527.23133,1102.2948 525.11023,1106.4406 526.33243,1107.5145 526.32013,1110.3672 527.49863,1110.6741 527.89973,1111.3274 529.74903,1111.5094 530.65553,1110.8815 531.52353,1111.6719 531.50973,1112.8785 532.67483,1113.2227 533.16373,1114.6621 535.93703,1115.2099 536.67603,1114.9131 537.37743,1113.9784 538.82753,1114.43 539.47883,1114.1235 540.47563,1112.7624 543.20603,1113.4276 544.81763,1113.4538 547.20773,1113.0519 548.48083,1112.067 549.75323,1112.8385 550.48833,1112.7481 550.78833,1113.0304 549.73213,1113.4809 548.87883,1114.3192 548.24703,1116.1797 547.43643,1117.9727 548.47733,1118.5009 548.61233,1119.678 549.27693,1120.6513 549.66633,1121.8975 549.58873,1125.4073 550.69973,1125.2924 551.18013,1124.7232 551.41183,1123.662 552.03233,1123.3158 553.01463,1122.9827 554.02373,1123.2509 554.51163,1122.6182 555.64373,1122.3166 557.37093,1120.6584 556.07523,1118.7054 555.48713,1117.6544 555.43803,1115.7344 553.65003,1113.2075 554.82643,1112.1468 556.27633,1112.5726 558.14533,1113.0187 560.51823,1113.3597 564.39063,1112.345 564.65313,1112.5846 565.35693,1111.4162 565.66263,1111.5956 565.74793,1112.1301 565.61083,1112.8966 564.88493,1113.1673 564.63193,1113.9039 563.97003,1114.3136 564.70743,1115.6333 565.07403,1115.7955 567.21103,1116.114 567.39563,1116.8064 569.24793,1115.2113 568.68933,1114.1445 568.36093,1111.7043 566.76423,1110.6325 566.43923,1109.4835 567.03643,1107.5552 566.46243,1106.391 565.98133,1104.7859 565.54333,1103.4707 564.95393,1103.0809 564.23073,1104.3826 562.72293,1104.0979 561.95803,1105.3745 560.54263,1105.8107 560.14783,1105.8464 559.88563,1106.9887 559.51033,1107.1129 558.77673,1106.2206 557.76353,1106.7989 557.42453,1106.593 557.40973,1106.1135 557.24073,1105.1606 557.82763,1104.7969 560.15553,1104.6455 560.70893,1104.1412 560.45303,1103.4111 558.75603,1102.3377 558.28703,1101.2438 557.04013,1100.378 555.21843,1100.3725 554.51563,1101.0567 553.34933,1102.1872 550.55063,1103.8019 549.75823,1104.2325 547.07813,1105.9653 544.44053,1105.1964 543.43083,1105.4338 543.37673,1105.4072 540.42513,1106.3593 536.63693,1106.1032 536.34433,1106.1386 535.38823,1104.3391 533.03093,1103.6706 532.26683,1103.8397 z">
      <title id="t327">Cinquième circonscription des Pyrénées-Atlantiques</title>
      <desc id="d327">Cantons de : Anglet Nord, Anglet Sud, Bayonne Est, Bayonne Nord, Bayonne Ouest, Bidache, Labastide-Clairence, Saint-Pierre-d'Irube</desc>
    </path><path class="circo" id="id-064-06" d="M 522.71283,1110.016 520.03963,1114.264 519.42203,1114.3245 519.04583,1114.7928 517.07773,1116.6983 514.78703,1117.3908 515.57663,1118.3803 514.94483,1118.8722 513.79883,1118.427 513.87023,1118.0347 513.49393,1117.9085 509.47073,1119.5843 507.90263,1119.2522 507.08883,1120.1825 505.61163,1120.8677 506.22393,1121.6715 505.03373,1123.2779 506.31123,1124.182 507.07893,1124.0313 507.16503,1124.0144 507.84303,1124.4147 507.98583,1125.2193 509.04473,1125.7819 508.97043,1127.3964 509.70563,1129.289 511.26193,1129.004 512.07863,1128.0982 512.78423,1127.756 513.49503,1128.1041 514.94573,1127.5167 516.11613,1127.6893 517.06443,1128.387 517.81793,1128.1446 517.84413,1128.143 518.87683,1128.7464 518.33893,1131.1332 519.08343,1133.5038 519.86433,1134.4591 520.24193,1134.6295 523.09993,1134.7086 524.28503,1132.0891 524.09763,1130.5293 526.85513,1129.9436 528.84723,1129.9596 529.85903,1131.2338 530.66173,1131.3025 531.98343,1132.2456 533.92833,1132.8168 535.41713,1133.0325 536.72273,1132.2786 538.37783,1131.1855 539.04093,1130.251 540.53803,1129.7563 540.96103,1129.0815 541.66773,1128.7561 543.88023,1129.2726 544.48443,1128.7594 543.91093,1127.265 542.35403,1127.1435 542.00893,1126.4163 540.98463,1125.8752 540.90803,1125.074 541.94813,1124.0517 541.02923,1120.5508 539.31783,1118.3129 538.76173,1117.544 538.63723,1116.7961 539.67143,1115.7051 538.82753,1114.43 537.37743,1113.9784 536.67603,1114.9131 535.93703,1115.2099 533.16373,1114.6621 532.67483,1113.2227 531.50973,1112.8785 531.52353,1111.6719 530.65553,1110.8815 529.74903,1111.5094 527.89973,1111.3274 527.49863,1110.6741 526.32013,1110.3672 526.33243,1107.5145 525.11023,1106.4406 523.41123,1107.8315 523.38493,1108.6153 522.71283,1110.016 z">
      <title id="t328">Sixième circonscription des Pyrénées-Atlantiques</title>
      <desc id="d328">Cantons de : Biarritz Est, Biarritz Ouest, Espelette, Hendaye, Saint-Jean-de-Luz, Ustaritz</desc>
    </path></svg>