<svg xmlns="http://www.w3.org/2000/svg" version="1.1" xmlns:xlink="http://www.w3.org/1999/xlink" xmlns:svgjs="http://svgjs.dev/svgjs" viewBox="629.06098 1092.7608 82.69565 109.03669999999988"><path class="circo" id="065-01" d="M 661.25533,1152.4285 661.71293,1153.4182 662.51803,1154.3823 661.72193,1156.1904 661.85363,1156.2505 663.19193,1156.322 663.37543,1156.6597 662.73403,1158.8383 663.12853,1161.1879 663.73753,1162.6322 663.01173,1162.9343 661.99323,1162.3708 661.29143,1161.4145 660.50943,1161.3037 662.11363,1163.062 662.63823,1164.1104 662.64213,1166.0179 662.31913,1166.7484 661.57103,1166.999 661.39043,1168.5562 660.89643,1169.1904 661.09393,1169.5456 663.93573,1171.096 665.11383,1171.0264 666.51183,1171.8463 668.43793,1171.5637 668.72353,1171.8334 668.83423,1172.9984 669.28293,1173.6359 669.21003,1174.7624 670.14343,1177.2804 671.61043,1177.7599 671.56033,1178.5696 669.96273,1180.4169 667.98853,1180.7652 667.34853,1181.2633 666.65013,1182.041 666.62453,1183.3647 665.98503,1184.1224 665.83753,1186.1695 665.35183,1187.2602 666.64983,1188.7633 666.42203,1190.7776 668.54193,1193.221 668.07263,1194.3315 668.45713,1196.328 670.38473,1196.1654 671.74973,1194.7701 674.35843,1195.5213 675.86693,1196.7712 678.93923,1197.0808 679.53553,1198.5847 679.45333,1199.7779 681.96983,1201.7975 684.10753,1200.6279 684.70473,1198.2957 686.17033,1197.6019 687.45793,1196.0994 688.65393,1197.1668 690.22303,1197.3934 690.50353,1198.9545 693.03623,1199.974 696.16193,1199.6351 697.45843,1198.912 697.90983,1198.2742 697.79563,1197.5172 695.20993,1195.0775 696.13033,1194.3751 696.08213,1193.5833 696.24393,1192.0275 695.54043,1190.7034 695.60823,1189.5854 696.11953,1188.5634 696.21643,1188.4779 696.24153,1187.0587 695.93703,1186.7579 695.62423,1185.2961 695.84703,1184.5695 696.30063,1182.7049 696.58723,1181.9176 695.97003,1181.3376 697.02713,1180.4617 696.95933,1179.313 697.42503,1178.265 699.28953,1178.6929 699.69213,1179.3624 700.08173,1179.3178 701.52123,1179.505 702.25513,1180.2352 703.35643,1179.846 703.94343,1180.3703 704.64893,1180.2931 705.80443,1179.1254 705.95093,1178.4436 706.11293,1177.7186 706.63103,1176.3968 707.19463,1174.7499 707.46703,1174.5724 707.64503,1173.6481 707.86593,1172.4894 708.32983,1171.7942 709.15583,1171.4683 710.11353,1170.8835 711.03183,1169.6324 711.41933,1169.603 711.75663,1168.6201 711.55043,1168.3399 710.93963,1167.798 710.87113,1167.7374 709.56033,1167.3307 709.03103,1166.2166 709.20843,1165.9499 708.82263,1165.4891 709.92853,1165.1973 710.17873,1164.1588 709.97703,1163.8584 709.18563,1162.8396 709.25093,1161.7539 709.18033,1161.6253 708.53403,1160.1739 707.27373,1160.0062 707.22453,1161.1011 707.15513,1161.5269 706.63853,1161.4047 706.55603,1161.7755 705.08543,1161.7162 704.56333,1162.2575 703.24853,1163.6936 702.92183,1164.0093 702.27853,1163.8327 701.64063,1163.0903 702.30403,1162.1386 702.33503,1159.8201 702.74973,1159.2054 703.46333,1159.0125 704.67913,1159.8914 705.03633,1159.7768 704.91773,1159.3755 704.35193,1156.8171 704.02153,1156.6557 704.59533,1155.7123 704.77753,1155.4931 702.08633,1154.3434 702.12403,1153.2089 701.25003,1153.36 699.73993,1153.0359 699.35553,1151.6379 698.60213,1151.4848 698.43943,1150.7283 696.34973,1151.1747 695.34813,1151.0341 696.27603,1150.3062 695.50423,1149.4267 694.44803,1148.8961 694.39453,1148.8894 695.64823,1147.2742 695.91283,1146.7949 699.28953,1143.8509 701.10553,1141.6303 699.83973,1140.878 700.82753,1139.4006 702.22273,1139.9045 703.17313,1139.3228 703.75923,1139.7779 705.31953,1138.8205 705.54143,1136.9828 703.68123,1136.6445 705.02693,1134.7429 705.81093,1134.6442 705.87083,1134.0016 707.57783,1132.2715 709.09103,1131.7631 709.15263,1131.446 709.45933,1130.2934 710.62993,1130.0026 710.88673,1129.2749 708.42893,1127.9027 707.82413,1127.5795 706.12203,1126.6979 705.39333,1126.8572 703.35073,1125.6922 702.72333,1126.0052 702.49643,1125.9534 700.59943,1125.279 699.85693,1125.2972 699.15603,1126.1377 698.80063,1126.1975 697.63413,1125.367 697.05273,1125.3794 696.04603,1124.9027 694.67293,1124.4148 694.50213,1125.9119 692.44233,1125.894 690.49443,1125.1736 690.30813,1124.8001 690.73663,1123.1636 689.02603,1122.7047 687.77893,1123.3819 686.27263,1123.5494 685.73623,1124.0599 685.01413,1124.1907 684.50893,1120.4351 683.38033,1121.3304 682.43373,1120.8219 682.24383,1118.8208 679.90093,1119.5176 677.60073,1120.6758 678.77853,1123.2772 679.61853,1123.5564 679.99723,1123.8052 680.06413,1124.593 679.62373,1126.0451 679.63853,1126.4747 677.69833,1128.2713 676.74673,1127.8136 676.50823,1126.8083 675.57523,1126.3795 675.79013,1126.1131 675.51883,1125.9071 674.52823,1125.8433 674.49043,1125.872 674.02223,1126.5039 673.25473,1126.6701 671.72133,1126.3443 671.62173,1125.1676 670.20153,1125.9889 668.54253,1125.907 668.33323,1125.8873 667.58613,1125.8073 667.47743,1126.8251 667.38253,1127.9634 665.94873,1128.3283 665.57513,1130.1419 665.26223,1130.4089 664.55853,1130.1858 663.48373,1131.2621 663.64443,1133.2918 662.97013,1133.6583 662.90653,1134.4318 662.33963,1134.9541 660.48753,1135.3921 661.14303,1136.8975 664.46873,1137.0313 664.76743,1138.5827 665.87753,1139.388 666.56023,1139.4952 666.03883,1141.5422 665.03223,1141.2686 664.61563,1142.6545 664.94163,1143.3634 664.58673,1144.3427 664.86313,1145.0101 665.79333,1145.0114 665.90363,1146.2576 665.68703,1146.9357 666.41223,1148.3109 665.85723,1148.7906 665.14183,1148.8798 664.66653,1149.4477 663.91963,1149.5308 663.87143,1151.567 661.57833,1151.1726 661.36293,1151.3629 661.25533,1152.4285 z">
      <title id="t329">Première circonscription des Hautes-Pyrénées</title>
      <desc id="d329">Cantons de : Arreau, Aureilhan, Bagnères-de-Bigorre, La Barthe-de-Neste, Bordères-Louron, Campan, Castelnau-Magnoac, Galan, Lannemezan, Mauléon-Barousse, Pouyastruc, Saint-Laurent-de-Neste, Séméac, Tarbes I, Tarbes III, Tarbes IV, Tournay, Trie-sur-Baïse, Vieille-Aure</desc>
    </path><path class="circo" id="065-02" d="M 653.09223,1092.7608 652.09223,1093.292 650.52973,1093.3233 650.43598,1094.8858 648.56098,1095.292 648.62348,1096.1045 649.02973,1097.5733 648.90473,1098.292 649.21723,1098.7295 648.77973,1100.1358 649.06098,1100.792 649.43598,1100.8233 650.93598,1100.292 652.06098,1101.917 652.65473,1102.292 653.12348,1103.0733 653.06098,1103.7295 653.43598,1104.292 653.09223,1105.0107 652.87348,1105.9795 652.68598,1106.7295 653.77973,1107.1045 653.90473,1108.6357 654.59223,1108.7295 655.24848,1109.292 654.84223,1109.792 654.12348,1109.7607 651.24848,1110.042 651.59223,1111.1983 651.15473,1112.3545 650.93598,1113.4795 652.31098,1114.8545 651.12348,1116.2607 653.18598,1116.292 653.59223,1115.292 654.12348,1113.542 654.74848,1113.9795 655.43598,1112.3545 656.62348,1112.1983 656.43598,1113.792 657.65473,1114.8857 656.52973,1117.6983 656.81098,1117.917 656.49848,1118.2607 657.06098,1118.3233 656.74848,1118.9483 656.96723,1119.2295 656.46723,1120.3233 656.90473,1120.9483 657.24848,1120.792 657.31098,1121.792 659.27973,1123.7295 659.02973,1124.4795 658.90473,1124.667 657.93598,1125.9483 657.56098,1126.1357 656.59223,1125.4483 654.68598,1125.7295 654.49848,1126.417 653.93598,1128.042 653.06098,1128.8233 653.12348,1130.3857 653.37348,1131.0733 654.81098,1131.4795 654.65473,1131.8545 655.27973,1132.3545 655.27973,1132.7607 654.65473,1134.6045 653.02973,1136.917 652.87348,1138.0733 652.65473,1138.8233 651.59223,1138.3233 650.90473,1138.042 650.56098,1138.2295 651.09223,1143.5107 649.09223,1143.542 648.18598,1144.6983 647.34223,1143.3545 646.96723,1143.2607 646.18598,1144.6357 646.12348,1145.6983 645.40473,1146.4795 645.06098,1146.792 644.40473,1149.1983 642.68598,1150.0107 641.81098,1151.2295 640.37348,1150.7607 640.52973,1151.9483 640.06098,1152.5107 640.77973,1153.3857 640.93598,1154.167 639.99848,1155.9483 639.99848,1156.7607 641.40473,1158.0107 640.62348,1158.167 639.84223,1159.0733 637.81098,1160.1983 636.74848,1159.5733 634.71723,1159.667 634.99848,1161.5733 634.34223,1162.9795 632.40473,1163.4795 631.99848,1165.042 632.21723,1168.6357 632.71723,1169.2607 633.12348,1170.8233 632.62348,1172.2295 631.52973,1172.1357 630.24848,1173.5733 629.06098,1173.792 629.27973,1175.3545 629.99848,1176.3233 629.99848,1177.5107 630.71723,1179.3545 630.21723,1181.6045 630.90473,1182.542 633.18598,1183.1983 633.46723,1183.8857 635.09223,1185.0107 636.15473,1184.667 636.56098,1185.2607 636.74848,1186.4483 638.81098,1187.667 639.99848,1187.9483 641.31098,1188.8857 642.09223,1188.7295 643.37348,1187.8233 643.68598,1189.3545 644.31098,1190.3545 644.18598,1190.7607 645.18598,1191.417 646.37348,1193.0733 647.37348,1194.8545 647.52973,1195.2295 647.56098,1196.0733 647.84223,1196.3545 650.99848,1197.042 651.46723,1199.0107 651.93598,1199.6357 656.27973,1200.667 657.71723,1199.917 658.15473,1198.8233 658.93598,1198.6357 661.24848,1199.2295 662.68598,1198.542 663.59223,1197.2295 664.37348,1196.9795 665.81098,1197.667 666.62348,1197.667 668.12348,1197.0733 668.46723,1196.3233 668.06098,1194.3233 668.52973,1193.2295 666.43598,1190.792 666.65473,1188.7607 665.34223,1187.2607 665.84223,1186.167 665.99848,1184.1357 666.62348,1183.3545 666.65473,1182.042 667.34223,1181.2607 667.99848,1180.7607 669.96723,1180.417 671.56098,1178.5733 671.62348,1177.7607 670.15473,1177.292 669.21723,1174.7607 669.27973,1173.6357 668.84223,1173.0107 668.71723,1171.8233 668.43598,1171.5733 666.49848,1171.8545 665.12348,1171.0107 663.93598,1171.1045 661.09223,1169.542 660.90473,1169.1983 661.40473,1168.542 661.56098,1167.0107 662.31098,1166.7607 662.65473,1166.0107 662.62348,1164.1045 662.12348,1163.0733 660.49848,1161.292 661.27973,1161.417 661.99848,1162.3857 662.99848,1162.9483 663.74848,1162.6357 663.12348,1161.1983 662.74848,1158.8233 663.37348,1156.667 663.18598,1156.3233 661.84223,1156.2607 661.71723,1156.1983 662.52973,1154.3857 661.71723,1153.417 661.24848,1152.417 661.37348,1151.3545 661.59223,1151.167 663.87348,1151.5733 663.90473,1149.542 664.65473,1149.4483 665.15473,1148.8857 665.84223,1148.792 666.40473,1148.3233 665.68598,1146.9483 665.90473,1146.2607 665.77973,1145.0107 664.87348,1145.0107 664.59223,1144.3545 664.93598,1143.3545 664.62348,1142.667 665.02973,1141.2607 666.02973,1141.542 666.56098,1139.5107 665.87348,1139.3857 664.77973,1138.5733 664.46723,1137.042 661.15473,1136.8857 660.49848,1135.3857 662.34223,1134.9483 662.90473,1134.417 662.96723,1133.667 663.65473,1133.292 663.49848,1131.2607 664.56098,1130.1983 665.24848,1130.417 665.56098,1130.1357 665.93598,1128.3233 667.37348,1127.9483 667.46723,1126.8233 667.59223,1125.792 668.34223,1125.8857 668.52973,1125.917 670.18598,1125.9795 671.62348,1125.167 671.71723,1126.3545 673.24848,1126.667 674.02973,1126.5107 674.49848,1125.8857 674.52973,1125.8545 675.52973,1125.917 675.77973,1126.1045 675.56098,1126.3857 676.49848,1126.8233 676.74848,1127.8233 677.68598,1128.2607 679.62348,1126.4795 679.62348,1126.042 680.06098,1124.6045 679.99848,1123.792 679.62348,1123.542 678.77973,1123.292 677.59223,1120.667 676.52973,1121.2607 675.84223,1121.0107 674.37348,1121.2607 673.68598,1120.417 672.31098,1120.8545 671.81098,1119.7607 672.15473,1119.917 671.62348,1117.167 670.18598,1117.6045 669.46723,1116.8857 669.12348,1115.7295 668.27973,1114.8545 668.59223,1113.6045 668.52973,1113.5107 670.96723,1112.5107 670.06098,1110.8233 670.06098,1110.6983 669.43598,1109.8233 669.12348,1110.0107 668.46723,1109.7607 667.96723,1108.8233 667.65473,1106.8857 667.90473,1106.5733 667.68598,1105.8857 666.40473,1103.7295 664.65473,1104.5733 663.81098,1103.7295 663.68598,1102.9795 662.59223,1103.5107 661.40473,1103.5733 660.24848,1101.4483 659.40473,1100.542 658.18598,1100.6983 657.65473,1099.0108 656.71723,1098.1045 656.27973,1094.8858 655.56098,1093.3858 653.99848,1093.4795 653.96723,1093.167 653.62348,1093.3233 653.09223,1092.7608 z M 648.93598,1120.542 647.71723,1120.917 648.06098,1122.3233 649.18598,1122.2295 649.43598,1125.2295 647.62348,1124.7607 647.12348,1125.3857 647.09223,1126.6045 647.49848,1127.667 648.65473,1127.667 650.40473,1128.3545 650.46723,1128.3545 650.93598,1127.7295 650.93598,1126.917 651.06098,1125.8857 651.31098,1124.3857 651.49848,1123.6357 651.37348,1122.917 650.24848,1121.5733 650.15473,1121.5733 649.90473,1121.0107 648.93598,1120.542 z M 647.56098,1128.1357 646.84223,1128.3233 646.46723,1129.0107 645.81098,1130.3857 645.18598,1130.8233 645.18598,1131.3233 644.90473,1132.4795 646.31098,1135.4483 646.77973,1136.0107 647.93598,1135.8233 648.09223,1135.8545 648.02973,1135.1357 648.84223,1134.3857 649.18598,1134.542 649.96723,1133.6357 650.09223,1132.4795 649.65473,1131.8233 648.77973,1131.0107 649.24848,1129.042 647.56098,1128.1357 z">
      <title id="t330">Deuxième circonscription des Hautes-Pyrénées</title>
      <desc id="d330">Cantons de : Argelès-Gazost, Aucun, Bordères-sur-l'Echez, Castelnau-Rivière-Basse, Laloubère, Lourdes Est, Lourdes Ouest, Luz-Saint-Sauveur, Maubourguet, Ossun, Rabastens-de-Bigorre, Saint-Pé-de-Bigorre, Tarbes II, Tarbes V, Vic-en-Bigorre</desc>
    </path></svg>