<svg xmlns="http://www.w3.org/2000/svg" version="1.1" xmlns:xlink="http://www.w3.org/1999/xlink" xmlns:svgjs="http://svgjs.dev/svgjs" viewBox="0 0 82.69565 109.03669999999988"><path class="circo" id="id-065-01" d="M32.194349999999986 59.66769999999997L32.651950000000056 60.65740000000005L33.45704999999998 61.62149999999997L32.66095000000007 63.42959999999994L32.79264999999998 63.489700000000084L34.130949999999984 63.56119999999987L34.31445000000008 63.89889999999991L33.67304999999999 66.07749999999987L34.06754999999998 68.42709999999988L34.67655000000002 69.8714L33.95074999999997 70.17349999999988L32.93225000000007 69.6099999999999L32.23045000000002 68.65370000000007L31.44844999999998 68.54289999999992L33.05264999999997 70.30119999999988L33.57725000000005 71.34960000000001L33.58114999999998 73.25710000000004L33.25815 73.98759999999993L32.51004999999998 74.2382L32.329450000000065 75.79539999999997L31.835450000000037 76.42959999999994L32.03295000000003 76.7847999999999L34.87475000000006 78.33519999999999L36.052850000000035 78.26559999999995L37.45085000000006 79.08549999999991L39.37695000000008 78.80289999999991L39.66255000000001 79.07259999999997L39.773250000000075 80.23759999999993L40.22194999999999 80.87509999999997L40.14904999999999 82.00160000000005L41.082449999999994 84.51960000000008L42.54944999999998 84.9991L42.49935000000005 85.80880000000002L40.90174999999999 87.65609999999992L38.92755 88.00440000000003L38.28755000000001 88.50250000000005L37.58915000000002 89.28019999999992L37.56355000000008 90.60390000000007L36.92405000000008 91.36159999999995L36.77655000000004 93.40869999999995L36.29084999999998 94.49939999999992L37.58884999999998 96.00250000000005L37.36104999999998 98.01679999999988L39.48095000000001 100.46019999999999L39.01165000000003 101.57069999999999L39.396150000000034 103.56719999999996L41.32375000000002 103.40460000000007L42.68875000000003 102.00929999999994L45.297450000000026 102.76050000000009L46.80595000000005 104.01039999999989L49.87824999999998 104.31999999999994L50.47455000000002 105.8239000000001L50.39235000000008 107.01710000000003L52.90885000000003 109.03669999999988L55.046550000000025 107.86709999999994L55.64375000000007 105.53489999999988L57.10935000000006 104.84109999999987L58.39695000000006 103.33860000000004L59.59294999999997 104.40599999999995L61.16205000000002 104.63259999999991L61.44254999999998 106.19370000000004L63.975250000000074 107.21319999999992L67.10095000000001 106.87429999999995L68.39745000000005 106.15120000000002L68.84885000000008 105.51340000000005L68.73464999999999 104.75639999999999L66.14895000000001 102.31670000000008L67.06934999999999 101.61429999999996L67.02115000000003 100.82249999999999L67.18295 99.2666999999999L66.47945000000004 97.94260000000008L66.54725000000008 96.82459999999992L67.05855000000008 95.80259999999998L67.15544999999997 95.71710000000007L67.18055000000004 94.29790000000003L66.87605000000008 93.99710000000005L66.56325000000004 92.5353L66.78605000000005 91.80870000000004L67.23964999999998 89.94409999999993L67.52625 89.15679999999998L66.90904999999998 88.57680000000005L67.96615000000008 87.70090000000005L67.89835000000005 86.55220000000008L68.36405000000002 85.50420000000008L70.22855000000004 85.93209999999999L70.63115000000005 86.60159999999996L71.02075000000002 86.55700000000002L72.46024999999997 86.74420000000009L73.19415000000004 87.47440000000006L74.29545000000007 87.08519999999999L74.88245000000006 87.60950000000003L75.58794999999998 87.53230000000008L76.74345000000005 86.36459999999988L76.88995 85.68280000000004L77.05195000000003 84.9577999999999L77.57005000000004 83.63599999999997L78.13364999999999 81.98910000000001L78.40605000000005 81.8116L78.58405000000005 80.8873000000001L78.80495000000008 79.72859999999991L79.26885000000004 79.03340000000003L80.09485000000006 78.70749999999998L81.05255 78.1226999999999L81.97085000000004 76.87159999999994L82.35834999999997 76.84220000000005L82.69565 75.85930000000008L82.48945000000003 75.57909999999993L81.87865 75.03719999999998L81.81015000000002 74.97659999999996L80.49935000000005 74.56989999999996L79.97005000000001 73.45579999999995L80.14745000000005 73.18910000000005L79.76165000000003 72.72829999999999L80.86755000000005 72.43650000000002L81.11775 71.39799999999991L80.91605000000004 71.09760000000006L80.12464999999997 70.0788L80.18995000000007 68.99309999999991L80.11935000000005 68.86449999999991L79.47305000000006 67.41309999999999L78.21275000000003 67.24540000000002L78.16354999999999 68.34030000000007L78.09415000000001 68.76610000000005L77.57754999999997 68.64390000000003L77.49504999999999 69.01469999999995L76.02445 68.95540000000005L75.50234999999998 69.49669999999992L74.18754999999999 70.93280000000004L73.86085000000003 71.24849999999992L73.21755000000007 71.07189999999991L72.57965000000002 70.32950000000005L73.24305000000004 69.37779999999998L73.27404999999999 67.0592999999999L73.68875000000003 66.44460000000004L74.40235000000007 66.25170000000003L75.61815000000001 67.13059999999996L75.97535000000005 67.01600000000008L75.85675000000003 66.61470000000008L75.29095000000007 64.05629999999996L74.96055000000001 63.89490000000001L75.53435000000002 62.951499999999896L75.71654999999998 62.732299999999896L73.02535 61.58259999999996L73.06304999999998 60.44810000000007L72.18905000000007 60.59919999999988L70.67894999999999 60.275100000000066L70.29455000000007 58.87709999999993L69.54115000000002 58.72399999999993L69.37845000000004 57.96749999999997L67.28875000000005 58.41390000000001L66.28715 58.27330000000006L67.21505000000002 57.54539999999997L66.44325000000003 56.665899999999965L65.38705000000004 56.135299999999916L65.33355000000006 56.128600000000006L66.58725000000004 54.51340000000005L66.85185000000001 54.03410000000008L70.22855000000004 51.09009999999989L72.04455000000007 48.869500000000016L70.77875000000006 48.11719999999991L71.76655000000005 46.63979999999992L73.16174999999998 47.14370000000008L74.11215000000004 46.5619999999999L74.69825000000003 47.01710000000003L76.25855000000001 46.05970000000002L76.48045000000002 44.22199999999998L74.62025000000006 43.88370000000009L75.96595000000002 41.982099999999946L76.74995000000001 41.88339999999994L76.80984999999998 41.240800000000036L78.51684999999998 39.51070000000004L80.03005000000007 39.00229999999988L80.09165000000007 38.685199999999895L80.39835000000005 37.5326L81.56894999999997 37.24180000000001L81.82574999999997 36.51409999999987L79.36795000000006 35.14190000000008L78.76315 34.818700000000035L77.06105000000002 33.93709999999987L76.33235000000002 34.0963999999999L74.28975000000003 32.93139999999994L73.66235000000006 33.24440000000004L73.43545000000006 33.192600000000084L71.53845000000001 32.51819999999998L70.79595000000006 32.53639999999996L70.09505000000001 33.37689999999998L69.73964999999998 33.43669999999997L68.57315000000006 32.606199999999944L67.99175000000002 32.618600000000015L66.98505 32.14190000000008L65.61194999999998 31.653999999999996L65.44115 33.15110000000004L63.38135 33.13319999999999L61.43344999999999 32.41280000000006L61.24715000000003 32.03929999999991L61.67565000000002 30.40280000000007L59.96505000000002 29.943899999999985L58.71794999999997 30.62110000000007L57.21165000000008 30.788600000000088L56.675250000000005 31.299099999999953L55.95315000000005 31.42990000000009L55.44794999999999 27.674299999999903L54.319349999999986 28.569600000000037L53.372749999999996 28.061099999999897L53.18285000000003 26.059999999999945L50.839950000000044 26.756799999999885L48.539750000000026 27.914999999999964L49.717550000000074 30.516399999999976L50.55754999999999 30.795599999999922L50.93624999999997 31.044399999999996L51.003150000000005 31.832200000000057L50.56275000000005 33.28430000000003L50.577549999999974 33.71389999999997L48.63735000000008 35.51050000000009L47.685749999999985 35.052799999999934L47.447250000000054 34.0474999999999L46.51425000000006 33.61869999999999L46.729150000000004 33.352300000000014L46.45785000000001 33.14629999999988L45.467250000000035 33.08249999999998L45.429449999999974 33.11120000000005L44.961250000000064 33.74309999999991L44.19375000000002 33.90930000000003L42.660349999999994 33.58349999999996L42.560749999999985 32.406799999999976L41.140550000000076 33.22810000000004L39.481550000000084 33.14619999999991L39.272249999999985 33.12650000000008L38.52515000000005 33.046499999999924L38.416450000000054 34.0643L38.32155 35.202600000000075L36.88774999999998 35.56749999999988L36.51414999999997 37.38110000000006L36.20125000000007 37.648099999999886L35.49755000000005 37.424999999999955L34.422750000000065 38.5012999999999L34.583450000000084 40.53099999999995L33.90915000000007 40.897500000000036L33.84555 41.67100000000005L33.278650000000084 42.19329999999991L31.42655000000002 42.63130000000001L32.08204999999998 44.13670000000002L35.40775000000008 44.270500000000084L35.70645000000002 45.821899999999914L36.81655000000001 46.6271999999999L37.499250000000075 46.73440000000005L36.97784999999999 48.781400000000076L35.971250000000055 48.50780000000009L35.55465000000004 49.89370000000008L35.88065000000006 50.60259999999994L35.525750000000016 51.581899999999905L35.80214999999998 52.24929999999995L36.73235 52.25060000000008L36.84265000000005 53.496799999999894L36.62605000000008 54.17489999999998L37.35125000000005 55.55009999999993L36.796249999999986 56.02980000000002L36.080850000000055 56.118999999999915L35.605549999999994 56.68689999999992L34.85865000000001 56.76999999999998L34.81045000000006 58.80619999999999L32.51735000000008 58.411800000000085L32.30195000000003 58.602100000000064L32.194349999999986 59.66769999999997z">
      <title id="t329">Première circonscription des Hautes-Pyrénées</title>
      <desc id="d329">Cantons de : Arreau, Aureilhan, Bagnères-de-Bigorre, La Barthe-de-Neste, Bordères-Louron, Campan, Castelnau-Magnoac, Galan, Lannemezan, Mauléon-Barousse, Pouyastruc, Saint-Laurent-de-Neste, Séméac, Tarbes I, Tarbes III, Tarbes IV, Tournay, Trie-sur-Baïse, Vieille-Aure</desc>
    </path><path class="circo" id="id-065-02" d="M24.03125 0L23.03125 0.5311999999998989L21.46875 0.5625L21.375 2.125L19.5 2.531199999999899L19.5625 3.343699999999899L19.96875 4.8125L19.84375 5.531199999999899L20.15625 5.968699999999899L19.71875 7.375L20 8.031199999999899L20.375 8.0625L21.875 7.531199999999899L23 9.156199999999899L23.59375 9.531199999999899L24.0625 10.3125L24 10.968699999999899L24.375 11.531199999999899L24.03125 12.249900000000025L23.8125 13.218699999999899L23.625 13.968699999999899L24.71875 14.343699999999899L24.84375 15.874900000000025L25.53125 15.968699999999899L26.1875 16.5311999999999L25.78125 17.0311999999999L25.0625 16.999900000000025L22.1875 17.2811999999999L22.53125 18.4375L22.09375 19.5936999999999L21.875 20.7186999999999L23.25 22.0936999999999L22.0625 23.499900000000025L24.125 23.5311999999999L24.53125 22.5311999999999L25.0625 20.7811999999999L25.6875 21.2186999999999L26.375 19.5936999999999L27.5625 19.4375L27.375 21.0311999999999L28.59375 22.124900000000025L27.46875 24.9375L27.75 25.1561999999999L27.4375 25.499900000000025L28 25.5625L27.6875 26.1875L27.90625 26.4686999999999L27.40625 27.5625L27.84375 28.1875L28.1875 28.0311999999999L28.25 29.0311999999999L30.21875 30.9686999999999L29.96875 31.7186999999999L29.84375 31.9061999999999L28.875 33.1875L28.5 33.374900000000025L27.53125 32.6875L25.625 32.9686999999999L25.4375 33.6561999999999L24.875 35.2811999999999L24 36.0625L24.0625 37.624900000000025L24.3125 38.3125L25.75 38.7186999999999L25.59375 39.0936999999999L26.21875 39.5936999999999L26.21875 39.999900000000025L25.59375 41.8436999999999L23.96875 44.1561999999999L23.8125 45.3125L23.59375 46.0625L22.53125 45.5625L21.84375 45.2811999999999L21.5 45.4686999999999L22.03125 50.749900000000025L20.03125 50.7811999999999L19.125 51.9375L18.28125 50.5936999999999L17.90625 50.499900000000025L17.125 51.874900000000025L17.0625 52.9375L16.34375 53.7186999999999L16 54.0311999999999L15.34375 56.4375L13.625 57.249900000000025L12.75 58.4686999999999L11.3125 57.999900000000025L11.46875 59.1875L11 59.749900000000025L11.71875 60.624900000000025L11.875 61.4061999999999L10.9375 63.1875L10.9375 63.999900000000025L12.34375 65.24990000000003L11.5625 65.4061999999999L10.78125 66.3125L8.75 67.4375L7.6875 66.8125L5.65625 66.9061999999999L5.9375 68.8125L5.28125 70.2186999999999L3.34375 70.7186999999999L2.9375 72.2811999999999L3.15625 75.87490000000003L3.65625 76.49990000000003L4.0625 78.0625L3.5625 79.4686999999999L2.46875 79.37490000000003L1.1875 80.8125L0 81.0311999999999L0.21875 82.5936999999999L0.9375 83.5625L0.9375 84.74990000000003L1.65625 86.5936999999999L1.15625 88.8436999999999L1.84375 89.7811999999999L4.125 90.4375L4.40625 91.12490000000003L6.03125 92.24990000000003L7.09375 91.9061999999999L7.5 92.49990000000003L7.6875 93.6875L9.75 94.9061999999999L10.9375 95.1875L12.25 96.12490000000003L13.03125 95.9686999999999L14.3125 95.0625L14.625 96.5936999999999L15.25 97.5936999999999L15.125 97.99990000000003L16.125 98.6561999999999L17.3125 100.3125L18.3125 102.0936999999999L18.46875 102.4686999999999L18.5 103.3125L18.78125 103.5936999999999L21.9375 104.2811999999999L22.40625 106.24990000000003L22.875 106.87490000000003L27.21875 107.9061999999999L28.65625 107.1561999999999L29.09375 106.0625L29.875 105.87490000000003L32.1875 106.4686999999999L33.625 105.7811999999999L34.53125 104.4686999999999L35.3125 104.2186999999999L36.75 104.9061999999999L37.5625 104.9061999999999L39.0625 104.3125L39.40625 103.5625L39 101.5625L39.46875 100.4686999999999L37.375 98.0311999999999L37.59375 95.99990000000003L36.28125 94.49990000000003L36.78125 93.4061999999999L36.9375 91.37490000000003L37.5625 90.5936999999999L37.59375 89.2811999999999L38.28125 88.49990000000003L38.9375 87.99990000000003L40.90625 87.6561999999999L42.5 85.8125L42.5625 84.99990000000003L41.09375 84.5311999999999L40.15625 81.99990000000003L40.21875 80.87490000000003L39.78125 80.24990000000003L39.65625 79.0625L39.375 78.8125L37.4375 79.0936999999999L36.0625 78.24990000000003L34.875 78.3436999999999L32.03125 76.7811999999999L31.84375 76.4375L32.34375 75.7811999999999L32.5 74.24990000000003L33.25 73.99990000000003L33.59375 73.24990000000003L33.5625 71.3436999999999L33.0625 70.3125L31.4375 68.5311999999999L32.21875 68.6561999999999L32.9375 69.62490000000003L33.9375 70.1875L34.6875 69.87490000000003L34.0625 68.4375L33.6875 66.0625L34.3125 63.9061999999999L34.125 63.5625L32.78125 63.499900000000025L32.65625 63.4375L33.46875 61.624900000000025L32.65625 60.6561999999999L32.1875 59.6561999999999L32.3125 58.5936999999999L32.53125 58.4061999999999L34.8125 58.8125L34.84375 56.7811999999999L35.59375 56.6875L36.09375 56.124900000000025L36.78125 56.0311999999999L37.34375 55.5625L36.625 54.1875L36.84375 53.499900000000025L36.71875 52.249900000000025L35.8125 52.249900000000025L35.53125 51.5936999999999L35.875 50.5936999999999L35.5625 49.9061999999999L35.96875 48.499900000000025L36.96875 48.7811999999999L37.5 46.749900000000025L36.8125 46.624900000000025L35.71875 45.8125L35.40625 44.2811999999999L32.09375 44.124900000000025L31.4375 42.624900000000025L33.28125 42.1875L33.84375 41.6561999999999L33.90625 40.9061999999999L34.59375 40.5311999999999L34.4375 38.499900000000025L35.5 37.4375L36.1875 37.6561999999999L36.5 37.374900000000025L36.875 35.5625L38.3125 35.1875L38.40625 34.0625L38.53125 33.0311999999999L39.28125 33.124900000000025L39.46875 33.1561999999999L41.125 33.2186999999999L42.5625 32.4061999999999L42.65625 33.5936999999999L44.1875 33.9061999999999L44.96875 33.749900000000025L45.4375 33.124900000000025L45.46875 33.0936999999999L46.46875 33.1561999999999L46.71875 33.3436999999999L46.5 33.624900000000025L47.4375 34.0625L47.6875 35.0625L48.625 35.499900000000025L50.5625 33.7186999999999L50.5625 33.2811999999999L51 31.8436999999999L50.9375 31.0311999999999L50.5625 30.7811999999999L49.71875 30.5311999999999L48.53125 27.9061999999999L47.46875 28.499900000000025L46.78125 28.249900000000025L45.3125 28.499900000000025L44.625 27.6561999999999L43.25 28.0936999999999L42.75 26.999900000000025L43.09375 27.1561999999999L42.5625 24.4061999999999L41.125 24.8436999999999L40.40625 24.124900000000025L40.0625 22.9686999999999L39.21875 22.0936999999999L39.53125 20.8436999999999L39.46875 20.749900000000025L41.90625 19.749900000000025L41 18.0625L41 17.9375L40.375 17.0625L40.0625 17.249900000000025L39.40625 16.999900000000025L38.90625 16.0625L38.59375 14.124900000000025L38.84375 13.8125L38.625 13.124900000000025L37.34375 10.968699999999899L35.59375 11.8125L34.75 10.968699999999899L34.625 10.218699999999899L33.53125 10.749900000000025L32.34375 10.8125L31.1875 8.6875L30.34375 7.781199999999899L29.125 7.9375L28.59375 6.25L27.65625 5.343699999999899L27.21875 2.125L26.5 0.625L24.9375 0.7186999999998989L24.90625 0.40619999999989886L24.5625 0.5625L24.03125 0zM19.875 27.7811999999999L18.65625 28.1561999999999L19 29.5625L20.125 29.4686999999999L20.375 32.4686999999999L18.5625 31.999900000000025L18.0625 32.624900000000025L18.03125 33.8436999999999L18.4375 34.9061999999999L19.59375 34.9061999999999L21.34375 35.5936999999999L21.40625 35.5936999999999L21.875 34.9686999999999L21.875 34.1561999999999L22 33.124900000000025L22.25 31.624900000000025L22.4375 30.874900000000025L22.3125 30.1561999999999L21.1875 28.8125L21.09375 28.8125L20.84375 28.249900000000025L19.875 27.7811999999999zM18.5 35.374900000000025L17.78125 35.5625L17.40625 36.249900000000025L16.75 37.624900000000025L16.125 38.0625L16.125 38.5625L15.84375 39.7186999999999L17.25 42.6875L17.71875 43.249900000000025L18.875 43.0625L19.03125 43.0936999999999L18.96875 42.374900000000025L19.78125 41.624900000000025L20.125 41.7811999999999L20.90625 40.874900000000025L21.03125 39.7186999999999L20.59375 39.0625L19.71875 38.249900000000025L20.1875 36.2811999999999L18.5 35.374900000000025z">
      <title id="t330">Deuxième circonscription des Hautes-Pyrénées</title>
      <desc id="d330">Cantons de : Argelès-Gazost, Aucun, Bordères-sur-l'Echez, Castelnau-Rivière-Basse, Laloubère, Lourdes Est, Lourdes Ouest, Luz-Saint-Sauveur, Maubourguet, Ossun, Rabastens-de-Bigorre, Saint-Pé-de-Bigorre, Tarbes II, Tarbes V, Vic-en-Bigorre</desc>
    </path></svg>