<svg xmlns="http://www.w3.org/2000/svg" version="1.1" xmlns:xlink="http://www.w3.org/1999/xlink" xmlns:svgjs="http://svgjs.dev/svgjs" viewBox="0 0 123.3655 67.56590000000006"><path class="circo" id="id-066-01" d="M102.18669999999997 30.435400000000072L102.52549999999997 30.670900000000074L100.52749999999992 30.8599999999999L99.49659999999994 30.2795000000001L99.11259999999993 30.38079999999991L98.77609999999993 31.08159999999998L98.86869999999999 32.86110000000008L99.34039999999993 33.441100000000006L99.14009999999996 33.777900000000045L98.31859999999995 34.58089999999993L97.17809999999997 34.40519999999992L96.3347 33.221500000000106L96.19389999999999 32.084299999999985L94.34749999999997 32.19810000000007L93.31849999999997 31.656999999999925L92.5358 31.64949999999999L92.17289999999991 30.963600000000042L91.43509999999992 30.689000000000078L91.3279 30.479299999999967L91.09839999999997 29.80230000000006L92.23479999999995 28.73630000000003L92.61659999999995 27.702099999999973L93.78899999999999 27.654800000000023L93.75429999999994 26.4987000000001L94.75429999999994 27.120499999999993L94.98829999999998 28.00389999999993L95.5471 27.717499999999973L96.39049999999997 27.45309999999995L96.83439999999996 26.77870000000007L97.49720000000002 26.41080000000011L98.24950000000001 26.01389999999992L99.10399999999993 25.9233999999999L99.42279999999994 26.331899999999905L100.07839999999999 26.11310000000003L100.64699999999993 25.80670000000009L100.97149999999999 25.764699999999948L100.97500000000002 25.416300000000092L100.34730000000002 25.383499999999913L99.95129999999995 24.677099999999882L97.40319999999997 25.36239999999998L97.77519999999993 24.6733999999999L98.04949999999997 23.997299999999996L99.63519999999994 23.828199999999924L100.37709999999993 23.708799999999883L101.10149999999999 23.535699999999906L101.30059999999992 22.80079999999998L101.93020000000001 22.386999999999944L102.04899999999998 21.768800000000056L102.78539999999998 20.932600000000093L103.50720000000001 21.092200000000048L104.4846 20.67319999999995L104.8392 20.76260000000002L105.07189999999991 21.4534000000001L104.8963 22.679100000000062L105.1309 23.319799999999987L106.1893 23.77800000000002L106.95309999999995 23.716499999999996L106.49720000000002 24.316700000000083L106.26170000000002 26.497499999999945L105.19169999999997 26.866999999999962L107.0824 27.808199999999943L106.65899999999999 28.422700000000077L105.55799999999999 28.469900000000052L105.38639999999998 29.116500000000087L102.49839999999995 29.3137999999999L102.18669999999997 30.435400000000072z">
      <title id="t331">Première circonscription des Pyrénées-Orientales</title>
      <desc id="d331">Cantons de : Perpignan III, Perpignan IV, Perpignan V, Perpignan VII, Perpignan IX, Toulouges</desc>
    </path><path class="circo" id="id-066-02" d="M75.81369999999993 25.100200000000086L74.41409999999996 24.734899999999925L72.76609999999994 23.687799999999925L72.21640000000002 22.64519999999993L70.02959999999996 22.721900000000005L70.33039999999994 24.58330000000001L68.67070000000001 26.069600000000037L67.79419999999993 25.882499999999936L68.10809999999992 26.573200000000043L68.02089999999998 28.091499999999996L68.46730000000002 29.142900000000054L68.24159999999995 29.83739999999989L68.55679999999995 30.607600000000048L67.38909999999998 30.637500000000045L66.10719999999992 31.460199999999986L65.6653 30.826000000000022L63.751499999999965 30.587099999999964L62.57459999999992 28.503999999999905L61.07420000000002 27.223400000000083L58.74810000000002 27.56880000000001L58.20989999999995 27.219299999999976L55.45679999999993 26.719700000000103L55.51329999999996 26.007000000000062L54.86349999999993 25.71569999999997L54.27089999999998 24.829300000000103L53.98939999999993 25.123800000000074L50.87209999999993 24.360599999999977L52.606199999999944 22.649200000000064L53.66489999999999 22.053699999999935L53.81689999999992 20.853599999999915L53.51389999999992 19.679100000000062L53.42059999999992 19.548700000000053L53.25459999999998 18.668499999999995L53.411699999999996 17.96239999999989L52.643100000000004 16.721399999999903L52.719999999999914 15.974099999999908L52.69399999999996 13.580799999999954L51.9289 13.4529L51.653299999999945 11.538000000000011L50.82409999999993 10.736400000000003L51.08889999999997 9.64390000000003L52.02859999999998 9.005300000000034L54.98270000000002 8.351300000000037L55.94479999999999 8.105999999999995L57.57560000000001 8.638599999999997L62.29049999999995 9.379999999999882L62.74759999999992 9.254799999999932L65.99929999999995 7.878099999999904L66.70719999999994 7.949800000000096L67.25559999999996 8.455200000000104L67.5367 8.723400000000083L70.94219999999996 8.449100000000044L72.11529999999993 8.696999999999889L74.46780000000001 9.48219999999992L77.72609999999997 9.772799999999961L79.93079999999998 9.463799999999992L79.99829999999997 9.475099999999884L81.43219999999997 10.163299999999936L85.293 9.736000000000104L86.71259999999995 9.073499999999967L87.58089999999993 7.730099999999993L88.22370000000001 5.223199999999906L90.37049999999999 2.7771000000000186L92.32279999999992 2.3118999999999232L94.68489999999997 0.6995999999999185L97.00999999999999 0L98.62009999999998 2.2130999999999403L100.5566 2.6299999999998818L101.41660000000002 3.8851999999999407L106.47309999999993 5.5914000000000215L107.51850000000002 6.2346L109.53099999999995 7.653800000000047L112.16059999999993 9.301899999999932L111.74389999999994 16.08829999999989L111.76459999999997 20.282600000000002L111.88589999999999 22.60609999999997L111.73349999999994 24.5782999999999L111.0412 24.8608999999999L111.68349999999998 25.29690000000005L111.47699999999998 30.445600000000013L111.49900000000002 32.14650000000006L112.1268 36.84609999999998L110.84929999999997 37.289800000000014L110.39739999999995 36.800700000000006L109.45600000000002 37.483600000000024L108.6762 37.48759999999993L107.62299999999993 35.44239999999991L107.21010000000001 34.81420000000003L107.4819 32.94990000000007L106.83420000000001 33.40599999999995L105.65030000000002 33.46149999999989L105.22149999999999 32.950599999999895L105.1671 31.706100000000106L102.52549999999997 30.670900000000074L102.50469999999996 30.670900000000074L102.18669999999997 30.435400000000072L102.49839999999995 29.3137999999999L105.38639999999998 29.116500000000087L105.55799999999999 28.469900000000052L106.65899999999999 28.422700000000077L107.0824 27.808199999999943L105.19169999999997 26.866999999999962L106.26170000000002 26.497499999999945L106.49720000000002 24.316700000000083L106.95309999999995 23.716499999999996L106.1893 23.77800000000002L105.1309 23.319799999999987L104.8963 22.679100000000062L105.07189999999991 21.4534000000001L104.8392 20.76260000000002L104.4846 20.67319999999995L103.50720000000001 21.092200000000048L102.78539999999998 20.932600000000093L102.04899999999998 21.768800000000056L101.93020000000001 22.386999999999944L101.30059999999992 22.80079999999998L101.10149999999999 23.535699999999906L100.37709999999993 23.708799999999883L99.63519999999994 23.828199999999924L98.04949999999997 23.997299999999996L97.77519999999993 24.6733999999999L97.17539999999997 24.167899999999918L95.92719999999997 21.701499999999896L94.67779999999993 21.11909999999989L93.93679999999995 20.81269999999995L94.16489999999999 18.84310000000005L93.90099999999995 17.65280000000007L92.22609999999997 17.371399999999994L89.60829999999999 17.570799999999963L88.31409999999994 16.678100000000086L86.7536 16.647699999999986L86.0059 16.403299999999945L85.57339999999999 17.062799999999925L85.40300000000002 18.214899999999943L86.08600000000001 19.629200000000083L84.66499999999996 21.004799999999932L84.98349999999994 21.344900000000052L83.00439999999992 22.194999999999936L81.56399999999996 22.066299999999956L80.51400000000001 22.35680000000002L80.15629999999999 23.318500000000085L79.63059999999996 23.75870000000009L78.92930000000001 23.61719999999991L77.53729999999996 24.70830000000001L76.43779999999992 24.721700000000055L75.81369999999993 25.100200000000086z">
      <title id="t332">Deuxième circonscription des Pyrénées-Orientales</title>
      <desc id="d332">Cantons de : Canet-en-Roussillon, La Côte-Radieuse, Latour-de-France, Perpignan I, Rivesaltes, Saint-Laurent-de-la-Salanque, Saint-Paul-de-Fenouillet, Sournia</desc>
    </path><path class="circo" id="id-066-03" d="M77.86019999999996 33.05819999999994L76.79499999999996 33.015499999999975L76.60399999999993 33.33629999999994L77.32459999999992 35.641599999999926L76.50599999999997 36.456300000000056L75.74019999999996 36.39869999999996L75.98489999999993 37.35680000000002L77.22640000000001 38.33809999999994L77.89670000000001 37.912599999999884L79.06790000000001 37.77449999999999L79.99649999999997 39.96550000000002L81.14549999999997 40.28019999999992L79.67319999999995 40.74299999999994L78.73230000000001 41.42039999999997L78.95119999999997 43.715999999999894L78.44849999999997 44.28870000000006L77.5276 43.13339999999994L75.63699999999994 43.03240000000005L75.08679999999993 43.574499999999944L74.08190000000002 43.06310000000008L74.15109999999993 42.65930000000003L73.7781 42.67769999999996L73.51829999999995 41.98829999999998L71.1925 40.85329999999999L70.91599999999994 41.49610000000007L70.42509999999993 42.98540000000003L70.70079999999996 43.67979999999989L70.46719999999993 46.78449999999998L67.49270000000001 48.51019999999994L65.21359999999993 48.00330000000008L63.278999999999996 48.41509999999994L62.946699999999964 49.05780000000004L62.27369999999996 49.2355L61.93229999999994 49.88550000000009L60.87709999999993 50.31670000000008L58.907100000000014 52.0963999999999L55.1866 55.247299999999996L51.803 56.71730000000002L50.55359999999996 57.034400000000005L49.861299999999915 56.63879999999995L48.44560000000001 57.26819999999998L45.31229999999994 55.4824000000001L44.23669999999993 56.59719999999993L42.69819999999993 56.94560000000001L40.57489999999996 57.99559999999997L36.800700000000006 57.22250000000008L34.77940000000001 58.26299999999992L34.03530000000001 59.03899999999999L33.80790000000002 60.1105L33.22619999999995 60.54639999999995L33.121099999999956 62.02070000000003L31.071500000000015 62.9387999999999L30.76419999999996 64.08609999999999L29.981400000000008 64.01350000000002L28.54989999999998 64.67470000000003L25.45690000000002 65.06590000000006L24.94769999999994 65.702L24.54639999999995 65.7358999999999L22.529999999999973 64.39779999999996L20.890199999999936 62.600999999999885L19.722699999999918 58.774799999999914L19.913900000000012 57.15560000000005L18.511499999999955 56.40730000000008L18.60559999999998 54.79809999999998L17.836400000000026 53.67650000000003L16.514999999999986 54.54269999999997L14.982700000000023 54.15910000000008L13.865199999999959 54.163299999999936L13.34699999999998 53.122699999999895L12.36259999999993 52.4840999999999L11.238999999999919 52.57490000000007L10.597599999999943 52.11920000000009L10.145099999999957 51.02759999999989L9.13779999999997 50.34310000000005L7.581199999999967 50.153999999999996L6.905300000000011 49.70209999999997L3.7088999999999714 49.92139999999995L1.9202999999999975 48.990999999999985L0.7182000000000244 49.17290000000003L0.47849999999994 48.844100000000026L0 46.059099999999944L0.7986999999999398 44.64519999999993L1.193399999999997 42.24790000000007L2.2758999999999787 41.078899999999976L3.8754000000000133 40.95309999999995L5.279800000000023 39.90079999999989L6.433999999999969 40.05120000000011L8.561199999999985 39.02170000000001L9.702299999999923 38.70170000000007L12.012299999999982 39.17750000000001L12.790599999999927 39.0014000000001L12.707099999999969 38.2177999999999L13.823999999999955 37.91859999999997L14.326599999999985 37.32179999999994L14.408599999999979 36.156799999999976L14.985199999999963 35.134000000000015L15.874599999999987 35.924400000000105L17.081199999999967 35.86940000000004L17.817299999999932 36.21139999999991L18.53800000000001 35.87149999999997L19.24929999999995 34.89830000000006L20.829700000000003 34.922000000000025L21.45029999999997 34.4215999999999L21.429499999999962 33.686500000000024L22.675200000000018 31.4679000000001L23.28589999999997 29.81919999999991L23.63779999999997 29.799199999999928L25.025699999999915 30.656799999999976L25.759199999999964 30.776599999999917L27.137699999999995 30.212999999999965L27.456399999999917 29.508599999999888L28.647699999999986 29.710599999999886L29.740299999999934 29.273500000000013L32.516700000000014 29.364000000000033L34.33019999999999 28.53189999999995L35.62569999999994 29.47810000000004L36.405700000000024 29.683700000000044L37.57470000000001 29.47070000000008L38.427599999999984 30.73160000000007L38.43229999999994 30.779399999999896L38.438699999999926 31.20640000000003L39.81129999999996 30.875299999999925L39.794399999999996 30.032600000000002L42.04689999999994 28.487100000000055L44.23860000000002 27.631000000000085L45.278299999999945 25.49890000000005L45.94029999999998 25.05379999999991L45.960899999999924 24.253799999999956L46.86799999999994 24.95990000000006L47.9905 25.221199999999953L50.87209999999993 24.360599999999977L53.98939999999993 25.123800000000074L54.27089999999998 24.829300000000103L54.86349999999993 25.71569999999997L55.51329999999996 26.007000000000062L55.45679999999993 26.719700000000103L58.20989999999995 27.219299999999976L58.74810000000002 27.56880000000001L61.07420000000002 27.223400000000083L62.57459999999992 28.503999999999905L63.751499999999965 30.587099999999964L65.6653 30.826000000000022L66.10719999999992 31.460199999999986L67.38909999999998 30.637500000000045L68.55679999999995 30.607600000000048L68.24159999999995 29.83739999999989L68.46730000000002 29.142900000000054L68.02089999999998 28.091499999999996L68.10809999999992 26.573200000000043L67.79419999999993 25.882499999999936L68.67070000000001 26.069600000000037L70.33039999999994 24.58330000000001L70.02959999999996 22.721900000000005L72.21640000000002 22.64519999999993L72.76609999999994 23.687799999999925L74.41409999999996 24.734899999999925L75.81369999999993 25.100200000000086L76.43779999999992 24.721700000000055L77.53729999999996 24.70830000000001L78.92930000000001 23.61719999999991L79.63059999999996 23.75870000000009L80.15629999999999 23.318500000000085L80.51400000000001 22.35680000000002L81.56399999999996 22.066299999999956L83.00439999999992 22.194999999999936L84.98349999999994 21.344900000000052L84.66499999999996 21.004799999999932L86.08600000000001 19.629200000000083L85.40300000000002 18.214899999999943L85.57339999999999 17.062799999999925L86.0059 16.403299999999945L86.7536 16.647699999999986L88.31409999999994 16.678100000000086L89.60829999999999 17.570799999999963L92.22609999999997 17.371399999999994L93.90099999999995 17.65280000000007L94.16489999999999 18.84310000000005L93.93679999999995 20.81269999999995L94.67779999999993 21.11909999999989L95.92719999999997 21.701499999999896L97.17539999999997 24.167899999999918L97.77519999999993 24.6733999999999L97.40319999999997 25.36239999999998L99.95129999999995 24.677099999999882L100.34730000000002 25.383499999999913L100.97500000000002 25.416300000000092L100.97149999999999 25.764699999999948L100.64699999999993 25.80670000000009L100.07839999999999 26.11310000000003L99.42279999999994 26.331899999999905L99.10399999999993 25.9233999999999L98.24950000000001 26.01389999999992L96.83439999999996 26.77870000000007L96.39049999999997 27.45309999999995L95.5471 27.717499999999973L94.98829999999998 28.00389999999993L94.75429999999994 27.120499999999993L93.75429999999994 26.4987000000001L93.78899999999999 27.654800000000023L92.61659999999995 27.702099999999973L92.23479999999995 28.73630000000003L91.09839999999997 29.80230000000006L89.15159999999992 29.417999999999893L86.50019999999995 30.24720000000002L85.30139999999994 30.266800000000103L84.88249999999994 30.109300000000076L83.34859999999992 28.884399999999914L82.9017 29.00759999999991L82.8519 29.799800000000005L80.75630000000001 31.614100000000008L80.38529999999992 32.744899999999916L79.50040000000001 33.49240000000009L79.13990000000001 32.924800000000005L78.51789999999994 32.70839999999998L77.86019999999996 33.05819999999994z">
      <title id="t333">Troisième circonscription des Pyrénées-Orientales</title>
      <desc id="d333">Cantons de : Millas, Mont-Louis, Olette, Perpignan II, Perpignan VI, Perpignan VIII, Prades, Saillagouse, Saint-Estève, Vinça</desc>
    </path><path class="circo" id="id-066-04" d="M111.1395 51.33220000000006L109.44349999999997 52.18730000000005L108.54049999999995 51.507699999999886L107.33600000000001 51.49849999999992L106.78499999999997 52.03929999999991L105.62079999999992 52.19620000000009L103.96439999999996 50.49189999999999L102.75419999999997 51.34860000000003L102.05409999999995 53.12349999999992L101.70749999999998 53.29690000000005L98.81470000000002 52.95959999999991L97.47619999999995 52.20460000000003L97.11410000000001 52.37910000000011L96.72399999999993 53.50980000000004L96.35590000000002 53.6699000000001L95.24069999999995 53.23289999999997L94.85050000000001 53.12079999999992L94.05149999999992 54.9387999999999L92.65639999999996 55.6264000000001L91.32249999999999 57.622299999999996L90.96209999999996 57.80950000000007L89.0915 58.498800000000074L88.11389999999994 57.79169999999999L87.77139999999997 57.053699999999935L87.37009999999998 56.99289999999996L85.28789999999992 57.30919999999992L84.99810000000002 57.29780000000005L82.23039999999992 59.198900000000094L80.74649999999997 59.372499999999945L80.4574 61.25150000000008L80.15639999999996 61.48849999999993L79.03649999999993 61.33200000000011L78.95569999999998 61.70479999999998L79.48569999999995 62.25170000000003L79.76139999999998 63.83590000000004L80.8614 65.00679999999988L80.87360000000001 66.22880000000009L80.63599999999997 66.56150000000002L79.84259999999995 66.70229999999992L75.85140000000001 66.13040000000001L73.58399999999995 65.22080000000005L73.4008 64.8547000000001L71.21999999999991 64.84889999999996L70.65319999999997 65.3587L70.34969999999998 66.5130999999999L69.54719999999998 67.36930000000007L69.18679999999995 67.54189999999994L68.7885 67.56590000000006L65.82759999999996 66.51549999999997L64.67610000000002 66.80829999999992L63.94629999999995 65.93029999999999L63.1472 64.57410000000004L61.96029999999996 63.50060000000008L60.55189999999993 62.780500000000075L60.294899999999984 60.83979999999997L58.339399999999955 60.81690000000003L56.108799999999974 59.88840000000005L53.74329999999998 59.42100000000005L53.05219999999997 59.00450000000001L52.77379999999994 58.2512999999999L51.24419999999998 57.9507000000001L50.55359999999996 57.034400000000005L51.803 56.71730000000002L55.1866 55.247299999999996L58.907100000000014 52.0963999999999L60.87709999999993 50.31670000000008L61.93229999999994 49.88550000000009L62.27369999999996 49.2355L62.946699999999964 49.05780000000004L63.278999999999996 48.41509999999994L65.21359999999993 48.00330000000008L67.49270000000001 48.51019999999994L70.46719999999993 46.78449999999998L70.70079999999996 43.67979999999989L70.42509999999993 42.98540000000003L70.91599999999994 41.49610000000007L71.1925 40.85329999999999L73.51829999999995 41.98829999999998L73.7781 42.67769999999996L74.15109999999993 42.65930000000003L74.08190000000002 43.06310000000008L75.08679999999993 43.574499999999944L75.63699999999994 43.03240000000005L77.5276 43.13339999999994L78.44849999999997 44.28870000000006L78.95119999999997 43.715999999999894L78.73230000000001 41.42039999999997L79.67319999999995 40.74299999999994L81.14549999999997 40.28019999999992L79.99649999999997 39.96550000000002L79.06790000000001 37.77449999999999L77.89670000000001 37.912599999999884L77.22640000000001 38.33809999999994L75.98489999999993 37.35680000000002L75.74019999999996 36.39869999999996L76.50599999999997 36.456300000000056L77.32459999999992 35.641599999999926L76.60399999999993 33.33629999999994L76.79499999999996 33.015499999999975L77.86019999999996 33.05819999999994L78.51789999999994 32.70839999999998L79.13990000000001 32.924800000000005L79.50040000000001 33.49240000000009L80.38529999999992 32.744899999999916L80.75630000000001 31.614100000000008L82.8519 29.799800000000005L82.9017 29.00759999999991L83.34859999999992 28.884399999999914L84.88249999999994 30.109300000000076L85.30139999999994 30.266800000000103L86.50019999999995 30.24720000000002L89.15159999999992 29.417999999999893L91.09839999999997 29.80230000000006L91.3279 30.479299999999967L91.43509999999992 30.689000000000078L92.17289999999991 30.963600000000042L92.5358 31.64949999999999L93.31849999999997 31.656999999999925L94.34749999999997 32.19810000000007L96.19389999999999 32.084299999999985L96.3347 33.221500000000106L97.17809999999997 34.40519999999992L98.31859999999995 34.58089999999993L99.14009999999996 33.777900000000045L99.34039999999993 33.441100000000006L98.86869999999999 32.86110000000008L98.77609999999993 31.08159999999998L99.11259999999993 30.38079999999991L99.49659999999994 30.2795000000001L100.52749999999992 30.8599999999999L102.50469999999996 30.670900000000074L102.52549999999997 30.670900000000074L105.1671 31.706100000000106L105.22149999999999 32.950599999999895L105.65030000000002 33.46149999999989L106.83420000000001 33.40599999999995L107.4819 32.94990000000007L107.21010000000001 34.81420000000003L107.62299999999993 35.44239999999991L108.6762 37.48759999999993L109.45600000000002 37.483600000000024L110.39739999999995 36.800700000000006L110.84929999999997 37.289800000000014L112.1268 36.84609999999998L112.29189999999994 37.5800999999999L112.81889999999999 43.16280000000006L113.41340000000002 44.15789999999993L114.95370000000003 44.5014000000001L116.13049999999998 45.478399999999965L116.88639999999998 45.671100000000024L117.62419999999997 45.503099999999904L120.06970000000001 46.52070000000003L119.1599 47.771400000000085L119.88439999999991 48.60069999999996L119.76089999999999 48.97260000000006L119.44899999999996 49.6404L119.67499999999995 50.38779999999997L121.52159999999992 50.98900000000003L122.14949999999999 52.352499999999964L121.83039999999994 53.007499999999936L122.47949999999992 53.44270000000006L122.48410000000001 54.214300000000094L123.3655 55.48350000000005L123.25839999999994 55.862100000000055L120.51850000000002 56.058500000000095L118.97789999999998 55.84889999999996L118.73289999999997 55.537900000000036L117.65009999999995 56.0467000000001L116.8877 56.973199999999906L115.70389999999998 56.884900000000016L113.19029999999998 54.3420000000001L111.90009999999995 51.42679999999996L111.1395 51.33220000000006z">
      <title id="t334">Quatrième circonscription des Pyrénées-Orientales</title>
      <desc id="d334">Cantons de : Argelès-sur-Mer, Arles-sur-Tech, Céret, Côte-Vermeille, Elne, Prats-de-Mollo-la-Preste, Thuir</desc>
    </path></svg>