<svg xmlns="http://www.w3.org/2000/svg" version="1.1" xmlns:xlink="http://www.w3.org/1999/xlink" xmlns:svgjs="http://svgjs.dev/svgjs" viewBox="803.39363 1173.6123 123.3655 67.56590000000006"><path class="circo" id="id-066-01" d="M 905.58033,1204.0477 905.91913,1204.2832 903.92113,1204.4723 902.89023,1203.8918 902.50623,1203.9931 902.16973,1204.6939 902.26233,1206.4734 902.73403,1207.0534 902.53373,1207.3902 901.71223,1208.1932 900.57173,1208.0175 899.72833,1206.8338 899.58753,1205.6966 897.74113,1205.8104 896.71213,1205.2693 895.92943,1205.2618 895.56653,1204.5759 894.82873,1204.3013 894.72153,1204.0916 894.49203,1203.4146 895.62843,1202.3486 896.01023,1201.3144 897.18263,1201.2671 897.14793,1200.111 898.14793,1200.7328 898.38193,1201.6162 898.94073,1201.3298 899.78413,1201.0654 900.22803,1200.391 900.89083,1200.0231 901.64313,1199.6262 902.49763,1199.5357 902.81643,1199.9442 903.47203,1199.7254 904.04063,1199.419 904.36513,1199.377 904.36863,1199.0286 903.74093,1198.9958 903.34493,1198.2894 900.79683,1198.9747 901.16883,1198.2857 901.44313,1197.6096 903.02883,1197.4405 903.77073,1197.3211 904.49513,1197.148 904.69423,1196.4131 905.32383,1195.9993 905.44263,1195.3811 906.17903,1194.5449 906.90083,1194.7045 907.87823,1194.2855 908.23283,1194.3749 908.46553,1195.0657 908.28993,1196.2914 908.52453,1196.9321 909.58293,1197.3903 910.34673,1197.3288 909.89083,1197.929 909.65533,1200.1098 908.58533,1200.4793 910.47603,1201.4205 910.05263,1202.035 908.95163,1202.0822 908.78003,1202.7288 905.89203,1202.9261 905.58033,1204.0477 z">
      <title id="t331">Première circonscription des Pyrénées-Orientales</title>
      <desc id="d331">Cantons de : Perpignan III, Perpignan IV, Perpignan V, Perpignan VII, Perpignan IX, Toulouges</desc>
    </path><path class="circo" id="id-066-02" d="M 879.20733,1198.7125 877.80773,1198.3472 876.15973,1197.3001 875.61003,1196.2575 873.42323,1196.3342 873.72403,1198.1956 872.06433,1199.6819 871.18783,1199.4948 871.50173,1200.1855 871.41453,1201.7038 871.86093,1202.7552 871.63523,1203.4497 871.95043,1204.2199 870.78273,1204.2498 869.50083,1205.0725 869.05893,1204.4383 867.14513,1204.1994 865.96823,1202.1163 864.46783,1200.8357 862.14173,1201.1811 861.60353,1200.8316 858.85043,1200.332 858.90693,1199.6193 858.25713,1199.328 857.66453,1198.4416 857.38303,1198.7361 854.26573,1197.9729 855.99983,1196.2615 857.05853,1195.666 857.21053,1194.4659 856.90753,1193.2914 856.81423,1193.161 856.64823,1192.2808 856.80533,1191.5747 856.03673,1190.3337 856.11363,1189.5864 856.08763,1187.1931 855.32253,1187.0652 855.04693,1185.1503 854.21773,1184.3487 854.48253,1183.2562 855.42223,1182.6176 858.37633,1181.9636 859.33843,1181.7183 860.96923,1182.2509 865.68413,1182.9923 866.14123,1182.8671 869.39293,1181.4904 870.10083,1181.5621 870.64923,1182.0675 870.93033,1182.3357 874.33583,1182.0614 875.50893,1182.3093 877.86143,1183.0945 881.11973,1183.3851 883.32443,1183.0761 883.39193,1183.0874 884.82583,1183.7756 888.68663,1183.3483 890.10623,1182.6858 890.97453,1181.3424 891.61733,1178.8355 893.76413,1176.3894 895.71643,1175.9242 898.07853,1174.3119 900.40363,1173.6123 902.01373,1175.8254 903.95023,1176.2423 904.81023,1177.4975 909.86673,1179.2037 910.91213,1179.8469 912.92463,1181.2661 915.55423,1182.9142 915.13753,1189.7006 915.15823,1193.8949 915.27953,1196.2184 915.12713,1198.1906 914.43483,1198.4732 915.07713,1198.9092 914.87063,1204.0579 914.89263,1205.7588 915.52043,1210.4584 914.24293,1210.9021 913.79103,1210.413 912.84963,1211.0959 912.06983,1211.0999 911.01663,1209.0547 910.60373,1208.4265 910.87553,1206.5622 910.22783,1207.0183 909.04393,1207.0738 908.61513,1206.5629 908.56073,1205.3184 905.91913,1204.2832 905.89833,1204.2832 905.58033,1204.0477 905.89203,1202.9261 908.78003,1202.7288 908.95163,1202.0822 910.05263,1202.035 910.47603,1201.4205 908.58533,1200.4793 909.65533,1200.1098 909.89083,1197.929 910.34673,1197.3288 909.58293,1197.3903 908.52453,1196.9321 908.28993,1196.2914 908.46553,1195.0657 908.23283,1194.3749 907.87823,1194.2855 906.90083,1194.7045 906.17903,1194.5449 905.44263,1195.3811 905.32383,1195.9993 904.69423,1196.4131 904.49513,1197.148 903.77073,1197.3211 903.02883,1197.4405 901.44313,1197.6096 901.16883,1198.2857 900.56903,1197.7802 899.32083,1195.3138 898.07143,1194.7314 897.33043,1194.425 897.55853,1192.4554 897.29463,1191.2651 895.61973,1190.9837 893.00193,1191.1831 891.70773,1190.2904 890.14723,1190.26 889.39953,1190.0156 888.96703,1190.6751 888.79663,1191.8272 889.47963,1193.2415 888.05863,1194.6171 888.37713,1194.9572 886.39803,1195.8073 884.95763,1195.6786 883.90763,1195.9691 883.54993,1196.9308 883.02423,1197.371 882.32293,1197.2295 880.93093,1198.3206 879.83143,1198.334 879.20733,1198.7125 z">
      <title id="t332">Deuxième circonscription des Pyrénées-Orientales</title>
      <desc id="d332">Cantons de : Canet-en-Roussillon, La Côte-Radieuse, Latour-de-France, Perpignan I, Rivesaltes, Saint-Laurent-de-la-Salanque, Saint-Paul-de-Fenouillet, Sournia</desc>
    </path><path class="circo" id="id-066-03" d="M 881.25383,1206.6705 880.18863,1206.6278 879.99763,1206.9486 880.71823,1209.2539 879.89963,1210.0686 879.13383,1210.011 879.37853,1210.9691 880.62003,1211.9504 881.29033,1211.5249 882.46153,1211.3868 883.39013,1213.5778 884.53913,1213.8925 883.06683,1214.3553 882.12593,1215.0327 882.34483,1217.3283 881.84213,1217.901 880.92123,1216.7457 879.03063,1216.6447 878.48043,1217.1868 877.47553,1216.6754 877.54473,1216.2716 877.17173,1216.29 876.91193,1215.6006 874.58613,1214.4656 874.30963,1215.1084 873.81873,1216.5977 874.09443,1217.2921 873.86083,1220.3968 870.88633,1222.1225 868.60723,1221.6156 866.67263,1222.0274 866.34033,1222.6701 865.66733,1222.8478 865.32593,1223.4978 864.27073,1223.929 862.30073,1225.7087 858.58023,1228.8596 855.19663,1230.3296 853.94723,1230.6467 853.25493,1230.2511 851.83923,1230.8805 848.70593,1229.0947 847.63033,1230.2095 846.09183,1230.5579 843.96853,1231.6079 840.19433,1230.8348 838.17303,1231.8753 837.42893,1232.6513 837.20153,1233.7228 836.61983,1234.1587 836.51473,1235.633 834.46513,1236.5511 834.15783,1237.6984 833.37503,1237.6258 831.94353,1238.287 828.85053,1238.6782 828.34133,1239.3143 827.94003,1239.3482 825.92363,1238.0101 824.28383,1236.2133 823.11633,1232.3871 823.30753,1230.7679 821.90513,1230.0196 821.99923,1228.4104 821.23003,1227.2888 819.90863,1228.155 818.37633,1227.7714 817.25883,1227.7756 816.74063,1226.735 815.75623,1226.0964 814.63263,1226.1872 813.99123,1225.7315 813.53873,1224.6399 812.53143,1223.9554 810.97483,1223.7663 810.29893,1223.3144 807.10253,1223.5337 805.31393,1222.6033 804.11183,1222.7852 803.87213,1222.4564 803.39363,1219.6714 804.19233,1218.2575 804.58703,1215.8602 805.66953,1214.6912 807.26903,1214.5654 808.67343,1213.5131 809.82763,1213.6635 811.95483,1212.634 813.09593,1212.314 815.40593,1212.7898 816.18423,1212.6137 816.10073,1211.8301 817.21763,1211.5309 817.72023,1210.9341 817.80223,1209.7691 818.37883,1208.7463 819.26823,1209.5367 820.47483,1209.4817 821.21093,1209.8237 821.93163,1209.4838 822.64293,1208.5106 824.22333,1208.5343 824.84393,1208.0339 824.82313,1207.2988 826.06883,1205.0802 826.67953,1203.4315 827.03143,1203.4115 828.41933,1204.2691 829.15283,1204.3889 830.53133,1203.8253 830.85003,1203.1209 832.04133,1203.3229 833.13393,1202.8858 835.91033,1202.9763 837.72383,1202.1442 839.01933,1203.0904 839.79933,1203.296 840.96833,1203.083 841.82123,1204.3439 841.82593,1204.3917 841.83233,1204.8187 843.20493,1204.4876 843.18803,1203.6449 845.44053,1202.0994 847.63223,1201.2433 848.67193,1199.1112 849.33393,1198.6661 849.35453,1197.8661 850.26163,1198.5722 851.38413,1198.8335 854.26573,1197.9729 857.38303,1198.7361 857.66453,1198.4416 858.25713,1199.328 858.90693,1199.6193 858.85043,1200.332 861.60353,1200.8316 862.14173,1201.1811 864.46783,1200.8357 865.96823,1202.1163 867.14513,1204.1994 869.05893,1204.4383 869.50083,1205.0725 870.78273,1204.2498 871.95043,1204.2199 871.63523,1203.4497 871.86093,1202.7552 871.41453,1201.7038 871.50173,1200.1855 871.18783,1199.4948 872.06433,1199.6819 873.72403,1198.1956 873.42323,1196.3342 875.61003,1196.2575 876.15973,1197.3001 877.80773,1198.3472 879.20733,1198.7125 879.83143,1198.334 880.93093,1198.3206 882.32293,1197.2295 883.02423,1197.371 883.54993,1196.9308 883.90763,1195.9691 884.95763,1195.6786 886.39803,1195.8073 888.37713,1194.9572 888.05863,1194.6171 889.47963,1193.2415 888.79663,1191.8272 888.96703,1190.6751 889.39953,1190.0156 890.14723,1190.26 891.70773,1190.2904 893.00193,1191.1831 895.61973,1190.9837 897.29463,1191.2651 897.55853,1192.4554 897.33043,1194.425 898.07143,1194.7314 899.32083,1195.3138 900.56903,1197.7802 901.16883,1198.2857 900.79683,1198.9747 903.34493,1198.2894 903.74093,1198.9958 904.36863,1199.0286 904.36513,1199.377 904.04063,1199.419 903.47203,1199.7254 902.81643,1199.9442 902.49763,1199.5357 901.64313,1199.6262 900.22803,1200.391 899.78413,1201.0654 898.94073,1201.3298 898.38193,1201.6162 898.14793,1200.7328 897.14793,1200.111 897.18263,1201.2671 896.01023,1201.3144 895.62843,1202.3486 894.49203,1203.4146 892.54523,1203.0303 889.89383,1203.8595 888.69503,1203.8791 888.27613,1203.7216 886.74223,1202.4967 886.29533,1202.6199 886.24553,1203.4121 884.14993,1205.2264 883.77893,1206.3572 882.89403,1207.1047 882.53353,1206.5371 881.91153,1206.3207 881.25383,1206.6705 z">
      <title id="t333">Troisième circonscription des Pyrénées-Orientales</title>
      <desc id="d333">Cantons de : Millas, Mont-Louis, Olette, Perpignan II, Perpignan VI, Perpignan VIII, Prades, Saillagouse, Saint-Estève, Vinça</desc>
    </path><path class="circo" id="id-066-04" d="M 914.53313,1224.9445 912.83713,1225.7996 911.93413,1225.12 910.72963,1225.1108 910.17863,1225.6516 909.01443,1225.8085 907.35803,1224.1042 906.14783,1224.9609 905.44773,1226.7358 905.10113,1226.9092 902.20833,1226.5719 900.86983,1225.8169 900.50773,1225.9914 900.11763,1227.1221 899.74953,1227.2822 898.63433,1226.8452 898.24413,1226.7331 897.44513,1228.5511 896.05003,1229.2387 894.71613,1231.2346 894.35573,1231.4218 892.48513,1232.1111 891.50753,1231.404 891.16503,1230.666 890.76373,1230.6052 888.68153,1230.9215 888.39173,1230.9101 885.62403,1232.8112 884.14013,1232.9848 883.85103,1234.8638 883.55003,1235.1008 882.43013,1234.9443 882.34933,1235.3171 882.87933,1235.864 883.15503,1237.4482 884.25503,1238.6191 884.26723,1239.8411 884.02963,1240.1738 883.23623,1240.3146 879.24503,1239.7427 876.97763,1238.8331 876.79443,1238.467 874.61363,1238.4612 874.04683,1238.971 873.74333,1240.1254 872.94083,1240.9816 872.58043,1241.1542 872.18213,1241.1782 869.22123,1240.1278 868.06973,1240.4206 867.33993,1239.5426 866.54083,1238.1864 865.35393,1237.1129 863.94553,1236.3928 863.68853,1234.4521 861.73303,1234.4292 859.50243,1233.5007 857.13693,1233.0333 856.44583,1232.6168 856.16743,1231.8636 854.63783,1231.563 853.94723,1230.6467 855.19663,1230.3296 858.58023,1228.8596 862.30073,1225.7087 864.27073,1223.929 865.32593,1223.4978 865.66733,1222.8478 866.34033,1222.6701 866.67263,1222.0274 868.60723,1221.6156 870.88633,1222.1225 873.86083,1220.3968 874.09443,1217.2921 873.81873,1216.5977 874.30963,1215.1084 874.58613,1214.4656 876.91193,1215.6006 877.17173,1216.29 877.54473,1216.2716 877.47553,1216.6754 878.48043,1217.1868 879.03063,1216.6447 880.92123,1216.7457 881.84213,1217.901 882.34483,1217.3283 882.12593,1215.0327 883.06683,1214.3553 884.53913,1213.8925 883.39013,1213.5778 882.46153,1211.3868 881.29033,1211.5249 880.62003,1211.9504 879.37853,1210.9691 879.13383,1210.011 879.89963,1210.0686 880.71823,1209.2539 879.99763,1206.9486 880.18863,1206.6278 881.25383,1206.6705 881.91153,1206.3207 882.53353,1206.5371 882.89403,1207.1047 883.77893,1206.3572 884.14993,1205.2264 886.24553,1203.4121 886.29533,1202.6199 886.74223,1202.4967 888.27613,1203.7216 888.69503,1203.8791 889.89383,1203.8595 892.54523,1203.0303 894.49203,1203.4146 894.72153,1204.0916 894.82873,1204.3013 895.56653,1204.5759 895.92943,1205.2618 896.71213,1205.2693 897.74113,1205.8104 899.58753,1205.6966 899.72833,1206.8338 900.57173,1208.0175 901.71223,1208.1932 902.53373,1207.3902 902.73403,1207.0534 902.26233,1206.4734 902.16973,1204.6939 902.50623,1203.9931 902.89023,1203.8918 903.92113,1204.4723 905.89833,1204.2832 905.91913,1204.2832 908.56073,1205.3184 908.61513,1206.5629 909.04393,1207.0738 910.22783,1207.0183 910.87553,1206.5622 910.60373,1208.4265 911.01663,1209.0547 912.06983,1211.0999 912.84963,1211.0959 913.79103,1210.413 914.24293,1210.9021 915.52043,1210.4584 915.68553,1211.1924 916.21253,1216.7751 916.80703,1217.7702 918.34733,1218.1137 919.52413,1219.0907 920.28003,1219.2834 921.01783,1219.1154 923.46333,1220.133 922.55353,1221.3837 923.27803,1222.213 923.15453,1222.5849 922.84263,1223.2527 923.06863,1224.0001 924.91523,1224.6013 925.54313,1225.9648 925.22403,1226.6198 925.87313,1227.055 925.87773,1227.8266 926.75913,1229.0958 926.65203,1229.4744 923.91213,1229.6708 922.37153,1229.4612 922.12653,1229.1502 921.04373,1229.659 920.28133,1230.5855 919.09753,1230.4972 916.58393,1227.9543 915.29373,1225.0391 914.53313,1224.9445 z">
      <title id="t334">Quatrième circonscription des Pyrénées-Orientales</title>
      <desc id="d334">Cantons de : Argelès-sur-Mer, Arles-sur-Tech, Céret, Côte-Vermeille, Elne, Prats-de-Mollo-la-Preste, Thuir</desc>
    </path></svg>