<svg xmlns="http://www.w3.org/2000/svg" version="1.1" xmlns:xlink="http://www.w3.org/1999/xlink" xmlns:svgjs="http://svgjs.dev/svgjs" viewBox="0 0 117.11239999999998 122.94860000000017"><path class="circo" id="id-067-01" d="M90.21249999999986 81.2944L89.07369999999992 80.10200000000009L89.73849999999993 77.44230000000016L87.38399999999979 73.01909999999998L86.95839999999998 68.79870000000005L92.24139999999989 71.99520000000007L97.33589999999981 70.43610000000012L97.45939999999996 68.77200000000016L100.02969999999982 68.33820000000014L101.26949999999988 70.10980000000018L102.69529999999986 70.8279L104.07589999999982 69.36670000000004L106.11789999999996 70.8777L107.38219999999978 70.99410000000012L105.80869999999982 74.70749999999998L101.4985999999999 73.08650000000011L99.42899999999986 74.75610000000006L99.39179999999988 76.0634L96.55429999999978 77.3007L95.63619999999992 81.14769999999999L93.94729999999981 79.89679999999998L90.21249999999986 81.2944z">
      <title id="t335">Première circonscription du Bas-Rhin</title>
      <desc id="d335">Cantons de : Strasbourg I, Strasbourg II, Strasbourg IV, Strasbourg VI (partie située au sud d'une ligne définie par l'axe de la route d'Oberhausbergen et à l'ouest d'une ligne définie par l'axe de la voie de chemin de fer de Hausbergen à Graffenstaden), Strasbourg IX</desc>
    </path><path class="circo" id="id-067-02" d="M89.81369999999993 100.33640000000014L89.50859999999989 98.49050000000011L90.64469999999983 96.86670000000004L89.95869999999991 96.12920000000008L89.19839999999999 95.42370000000005L89.92239999999993 93.5277000000001L88.57629999999995 88.75790000000006L90.62339999999995 88.9525000000001L93.34899999999993 87.55619999999999L93.75699999999983 86.6092000000001L92.72879999999986 83.89949999999999L95.56969999999978 83.27600000000007L95.71199999999999 81.16350000000011L96.55429999999978 77.3007L99.39179999999988 76.0634L99.42899999999986 74.75610000000006L101.4985999999999 73.08650000000011L105.80869999999982 74.70749999999998L107.38219999999978 70.99410000000012L109.5134999999998 71.26470000000018L109.82299999999987 73.41180000000008L110.90209999999979 80.91020000000003L110.8397 94.87270000000012L108.55819999999994 98.5145L103.9701 101.35550000000012L101.1389999999999 101.12290000000007L94.3617999999999 99.18360000000007L92.7398999999998 100.46160000000009L89.81369999999993 100.33640000000014z">
      <title id="t336">Deuxième circonscription du Bas-Rhin</title>
      <desc id="d336">Cantons de : Strasbourg III, Strasbourg VII, Strasbourg VIII, Strasbourg X, Commune de Illkirch-Graffenstaden</desc>
    </path><path class="circo" id="id-067-03" d="M106.11789999999996 70.8777L104.07589999999982 69.36670000000004L102.69529999999986 70.8279L101.26949999999988 70.10980000000018L100.02969999999982 68.33820000000014L97.45939999999996 68.77200000000016L97.33589999999981 70.43610000000012L92.24139999999989 71.99520000000007L86.95839999999998 68.79870000000005L91.15959999999995 67.00740000000019L90.49629999999979 66.41740000000004L89.64709999999991 64.99630000000002L89.93009999999981 63.2650000000001L93.0514999999998 63.25200000000018L93.01209999999992 62.05420000000004L92.8594999999998 61.26390000000015L93.6552999999999 61.17010000000005L93.29129999999986 60.06930000000011L95.28059999999982 56.377100000000155L97.14519999999993 55.79970000000003L96.6275999999998 54.89800000000014L95.61809999999991 55.134700000000066L95.64809999999989 52.13000000000011L96.77619999999979 50.52070000000003L98.70909999999981 51.03500000000008L101.80529999999999 48.440200000000004L102.63549999999987 51.23350000000005L106.5166999999999 52.548500000000104L106.72029999999995 55.92039999999997L108.2367999999999 57.89260000000013L108.44259999999986 57.06000000000017L109.1375999999998 55.291800000000194L111.12519999999995 54.75410000000011L115.02709999999979 57.92990000000009L117.11239999999998 57.83550000000014L115.99929999999995 62.03480000000013L109.5134999999998 71.26470000000018L106.11789999999996 70.8777z">
      <title id="t337">Troisième circonscription du Bas-Rhin</title>
      <desc id="d337">Cantons de : Bischheim, Schiltigheim, Strasbourg V, Strasbourg VI (partie non comprise dans la 1re circonscription), Communes de : Reichstett et Souffelweyersheim</desc>
    </path><path class="circo" id="id-067-04" d="M55.32569999999987 76.19460000000004L55.44999999999982 74.92700000000013L54.93719999999985 73.29590000000007L55.0333999999998 72.81010000000015L54.57359999999994 71.15510000000017L54.6860999999999 69.84890000000019L53.950399999999945 68.83080000000018L54.66519999999991 68.57850000000008L54.880499999999984 67.88869999999997L54.62369999999987 67.14589999999998L53.53839999999991 66.71940000000018L53.875699999999824 65.05600000000004L54.269399999999905 64.89380000000006L54.86929999999984 64.4402L54.60299999999984 64.17579999999998L52.40169999999989 64.01650000000018L51.24759999999992 63.66960000000017L50.78939999999989 62.12049999999999L50.57979999999998 61.36480000000006L51.45219999999995 58.78340000000003L50.21889999999985 58.71330000000012L49.95859999999993 57.91390000000001L49.754199999999855 57.16390000000001L47.998999999999796 55.52170000000001L46.02719999999999 54.952200000000175L46.49069999999983 54.34100000000012L46.18179999999984 54.040500000000065L45.68079999999986 53.701300000000174L46.254399999999805 53.20880000000011L47.5152999999998 51.469299999999976L47.1893 50.693300000000136L46.75869999999986 50.63740000000007L47.101199999999835 50.41100000000006L49.0625 50.90390000000002L49.29159999999979 50.13170000000014L49.04009999999994 49.81680000000006L49.80049999999983 49.10290000000009L50.62839999999983 49.049600000000055L51.99569999999994 48.14700000000016L53.079499999999825 46.73009999999999L54.30959999999982 46.73310000000015L55.11669999999981 47.62290000000007L55.92879999999991 47.447400000000016L55.98439999999982 47.56670000000008L56.06029999999987 48.39060000000018L59.10409999999979 48.9697000000001L60.0954999999999 50.09450000000015L61.23969999999986 50.21210000000019L61.801299999999856 50.613200000000006L63.40949999999998 52.578700000000026L63.48309999999992 52.83830000000012L63.523299999999836 53.27210000000014L65.04099999999994 54.11770000000001L66.32149999999979 54.3592000000001L66.41639999999984 54.78340000000003L67.08369999999991 55.01130000000012L67.07119999999986 56.263800000000174L67.49199999999996 56.165100000000166L67.70769999999993 56.54100000000017L66.93049999999994 56.7817L66.10129999999981 58.32069999999999L66.25299999999993 58.7795000000001L65.92129999999997 58.81860000000006L65.98489999999993 59.14810000000011L66.0012999999999 59.64740000000006L64.7002 59.65280000000007L64.58219999999983 60.37440000000015L64.93619999999987 60.96680000000015L65.21269999999981 61.21270000000004L63.46149999999989 61.95940000000019L63.63889999999992 63.71860000000015L64.62029999999982 65.56240000000003L64.3431999999998 66.67110000000002L64.81789999999978 67.1681000000001L66.37469999999985 66.58550000000014L67.0786999999998 67.1070000000002L67.05099999999993 67.99410000000012L65.86679999999978 68.25400000000013L66.29539999999997 69.38350000000014L66.12529999999992 69.77830000000017L64.98919999999998 70.36030000000005L64.13589999999999 70.27920000000017L64.69699999999989 72.26740000000018L64.39519999999993 73.05770000000007L64.71209999999996 73.35180000000014L64.9980999999998 73.65920000000006L64.52449999999999 74.33609999999999L64.65169999999989 75.10550000000012L65.8714 75.15769999999998L66.5474999999999 74.625L69.37249999999995 75.43340000000012L70.55259999999998 75.53030000000012L70.16099999999983 76.25330000000008L70.10099999999989 79.18020000000001L69.01779999999985 82.94360000000006L67.8585999999998 82.40240000000017L68.05599999999981 81.5494000000001L65.15369999999984 80.72700000000009L64.36239999999998 80.96270000000004L64.07409999999982 80.87260000000015L64.09949999999981 77.43600000000015L64.2960999999998 76.86080000000015L62.30239999999981 76.20460000000003L61.528099999999995 76.39780000000019L60.28559999999993 77.53989999999999L59.448199999999815 77.39910000000009L58.94159999999988 76.70490000000018L58.293899999999894 77.23990000000003L57.0487999999998 77.49140000000011L56.668499999999995 77.7302000000002L55.32569999999987 76.19460000000004z">
      <title id="t338">Quatrième circonscription du Bas-Rhin</title>
      <desc id="d338">Cantons de : Geispolsheim, Mundolsheim (moins les communes de Reichstett et de Souffelweyersheim), Truchtersheim, Communes de : Lingolsheim et Ostwald</desc>
    </path><path class="circo" id="id-067-05" d="M31.848799999999983 83.75670000000014L30.639699999999948 83.98480000000018L30.123099999999795 84.61779999999999L29.159099999999853 85.9960000000001L28.052399999999807 86.46540000000005L27.61999999999989 87.6590000000001L27.809699999999793 88.76840000000016L26.083399999999983 89.84429999999998L25.7491 89.7536L24.85069999999996 90.66440000000011L22.481399999999894 91.68550000000005L21.82199999999989 92.2636L21.870099999999866 93.04880000000003L21.55619999999999 93.35360000000014L19.48609999999985 93.65250000000015L18.964999999999918 94.16540000000009L19.38649999999984 94.75800000000004L20.571499999999787 95.26690000000008L20.190099999999802 96.50800000000004L21.1574999999998 97.23670000000016L21.829799999999977 98.82730000000015L22.260999999999967 98.9022L23.536399999999958 98.77470000000017L25.821099999999888 99.73940000000016L27.03819999999996 99.50120000000015L28.294399999999996 99.51760000000013L28.96479999999997 100.60070000000019L29.69399999999996 100.95350000000008L29.667999999999893 101.34920000000011L30.471799999999803 102.35660000000007L29.80379999999991 103.47790000000009L29.9541999999999 103.90039999999999L31.22349999999983 104.18849999999998L33.36479999999983 103.67780000000016L33.14429999999993 103.97289999999998L32.4224999999999 104.85840000000007L31.69049999999993 104.96420000000012L31.593599999999924 106.27850000000012L32.633099999999786 107.13270000000011L34.85479999999984 106.87689999999998L38.868999999999915 108.81150000000002L39.74759999999992 109.81290000000013L40.19339999999988 109.75400000000013L41.990999999999985 110.65300000000002L42.7833999999998 110.79079999999999L43.27629999999999 111.44190000000003L45.5166999999999 112.48050000000012L45.22729999999979 113.22030000000018L45.16139999999996 115.19770000000017L44.9384 118.00860000000011L49.20499999999993 119.36869999999999L48.781499999999824 121.4534000000001L49.057199999999966 122.1373000000001L51.944099999999935 122.88000000000011L54.09479999999985 122.94860000000017L55.88319999999999 121.16120000000001L55.934299999999894 118.58750000000009L57.14929999999981 116.79910000000018L58.47039999999993 115.06830000000014L59.13299999999981 113.45820000000003L59.53419999999983 112.42200000000003L61.59979999999996 110.24009999999998L62.74039999999991 106.01830000000018L62.8431999999998 105.61700000000019L63.96169999999984 99.89520000000016L64.90869999999995 98.9348L67.3771999999999 97.83640000000014L68.01499999999987 97.1985000000002L68.32189999999991 96.35400000000004L68.17489999999998 95.01050000000009L67.54559999999992 92.16309999999999L67.10919999999987 89.65370000000007L67.32859999999982 87.54420000000005L69.01779999999985 82.94360000000006L67.8585999999998 82.40240000000017L68.05599999999981 81.5494000000001L65.15369999999984 80.72700000000009L64.36239999999998 80.96270000000004L64.07409999999982 80.87260000000015L64.09949999999981 77.43600000000015L64.2960999999998 76.86080000000015L62.30239999999981 76.20460000000003L61.528099999999995 76.39780000000019L60.28559999999993 77.53989999999999L59.448199999999815 77.39910000000009L58.94159999999988 76.70490000000018L58.293899999999894 77.23990000000003L57.0487999999998 77.49140000000011L56.668499999999995 77.7302000000002L55.40769999999998 78.53110000000015L55.27649999999994 78.60890000000018L55.225099999999884 81.40110000000004L55.29329999999982 81.67190000000005L55.060399999999845 81.95620000000008L55.006399999999985 81.99350000000004L54.19619999999986 82.7844L53.57999999999993 83.70680000000016L52.94909999999982 84.00840000000017L51.604899999999816 85.46800000000007L51.54049999999984 85.56820000000016L50.97439999999983 87.85350000000017L50.08789999999999 87.92690000000016L49.07509999999979 88.76390000000015L47.29559999999992 88.6884L46.01499999999987 89.12620000000015L45.5157999999999 88.27430000000004L45.85259999999994 87.5458000000001L46.70529999999985 86.97260000000006L46.804099999999835 86.24440000000004L45.88079999999991 84.81510000000003L44.22649999999999 84.29510000000005L44.28599999999983 84.0168000000001L44.19289999999978 83.52560000000017L42.21469999999999 84.25970000000007L40.97919999999999 83.20330000000013L40.421499999999924 82.94560000000001L39.48109999999997 83.04989999999998L38.38519999999994 84.37950000000001L37.12099999999987 83.89350000000013L35.78659999999991 84.0951L34.48519999999985 83.7161000000001L31.848799999999983 83.75670000000014z">
      <title id="t339">Cinquième circonscription du Bas-Rhin</title>
      <desc id="d339">Cantons de : Barr, Benfeld, Erstein, Marckolsheim, Sélestat, Villé</desc>
    </path><path class="circo" id="id-067-06" d="M53.950399999999945 68.83080000000018L54.66519999999991 68.57850000000008L54.880499999999984 67.88869999999997L54.62369999999987 67.14589999999998L53.53839999999991 66.71940000000018L53.875699999999824 65.05600000000004L54.269399999999905 64.89380000000006L54.86929999999984 64.4402L54.60299999999984 64.17579999999998L52.40169999999989 64.01650000000018L51.24759999999992 63.66960000000017L50.78939999999989 62.12049999999999L50.57979999999998 61.36480000000006L51.45219999999995 58.78340000000003L50.21889999999985 58.71330000000012L49.95859999999993 57.91390000000001L49.754199999999855 57.16390000000001L47.998999999999796 55.52170000000001L46.02719999999999 54.952200000000175L45.56829999999991 55.40260000000012L44.69649999999979 54.42669999999998L43.02819999999997 54.268400000000156L40.28619999999978 54.95670000000018L38.88539999999989 54.020300000000134L37.89949999999999 54.33159999999998L37.85929999999985 55.2011L36.1583999999998 56.475200000000086L33.83849999999984 55.41620000000012L32.802999999999884 56.13560000000007L31.945899999999938 55.95990000000006L31.5936999999999 53.85770000000002L30.846399999999903 53.97550000000001L28.836899999999787 56.933700000000044L27.69529999999986 57.62130000000002L28.502099999999928 58.59660000000008L26.79159999999979 61.72810000000004L27.51279999999997 62.783800000000156L26.75999999999999 63.17470000000003L25.480899999999792 65.0942L23.699099999999817 67.54160000000002L23.38449999999989 67.83940000000007L22.09159999999997 67.79570000000012L21.402499999999918 68.24009999999998L20.879399999999805 69.77710000000002L19.29819999999995 70.87840000000006L19.248199999999997 71.01920000000018L17.968099999999822 70.63229999999999L16.705799999999954 70.91610000000014L14.796699999999873 69.85500000000002L12.761099999999942 70.73400000000015L11.721199999999953 69.88670000000002L10.533299999999826 71.44170000000008L11.52949999999987 72.4643000000001L11.836499999999887 72.94839999999999L12.067799999999806 72.57420000000002L13.792799999999943 72.33699999999999L15.444699999999784 72.81640000000016L15.974699999999984 74.36620000000016L15.639299999999821 74.6110000000001L13.935599999999795 74.51490000000013L12.986999999999853 73.76520000000005L12.71089999999981 74.4476000000002L12.936999999999898 75.9349000000002L15.074599999999919 76.64840000000004L14.905099999999948 77.9806000000001L13.840199999999868 80.43780000000015L14.004199999999855 81.73710000000005L14.16359999999986 82.2152000000001L14.273299999999836 82.4067L13.574199999999792 82.84000000000015L13.108999999999924 83.97790000000009L13.118999999999915 86.74160000000006L12.199299999999994 87.64660000000003L12.876099999999951 88.1223L13.789499999999862 88.91360000000009L14.040199999999913 90.43950000000018L13.545499999999947 90.73649999999998L12.25689999999986 92.47680000000014L11.43249999999989 93.44350000000009L13.983199999999897 94.52800000000002L14.93119999999999 95.80330000000004L16.987899999999854 96.07370000000014L17.548699999999826 95.91320000000019L18.8128999999999 95.4639000000002L19.38649999999984 94.75800000000004L18.964999999999918 94.16540000000009L19.48609999999985 93.65250000000015L21.55619999999999 93.35360000000014L21.870099999999866 93.04880000000003L21.82199999999989 92.2636L22.481399999999894 91.68550000000005L24.85069999999996 90.66440000000011L25.7491 89.7536L26.083399999999983 89.84429999999998L27.809699999999793 88.76840000000016L27.61999999999989 87.6590000000001L28.052399999999807 86.46540000000005L29.159099999999853 85.9960000000001L30.123099999999795 84.61779999999999L30.639699999999948 83.98480000000018L31.848799999999983 83.75670000000014L34.48519999999985 83.7161000000001L35.78659999999991 84.0951L37.12099999999987 83.89350000000013L38.38519999999994 84.37950000000001L39.48109999999997 83.04989999999998L40.421499999999924 82.94560000000001L40.97919999999999 83.20330000000013L42.21469999999999 84.25970000000007L44.19289999999978 83.52560000000017L44.28599999999983 84.0168000000001L44.22649999999999 84.29510000000005L45.88079999999991 84.81510000000003L46.804099999999835 86.24440000000004L46.70529999999985 86.97260000000006L45.85259999999994 87.5458000000001L45.5157999999999 88.27430000000004L46.01499999999987 89.12620000000015L47.29559999999992 88.6884L49.07509999999979 88.76390000000015L50.08789999999999 87.92690000000016L50.97439999999983 87.85350000000017L51.54049999999984 85.56820000000016L51.604899999999816 85.46800000000007L52.94909999999982 84.00840000000017L53.57999999999993 83.70680000000016L54.19619999999986 82.7844L55.006399999999985 81.99350000000004L55.060399999999845 81.95620000000008L55.29329999999982 81.67190000000005L55.225099999999884 81.40110000000004L55.27649999999994 78.60890000000018L55.40769999999998 78.53110000000015L56.668499999999995 77.7302000000002L55.32569999999987 76.19460000000004L55.44999999999982 74.92700000000013L54.93719999999985 73.29590000000007L55.0333999999998 72.81010000000015L54.57359999999994 71.15510000000017L54.6860999999999 69.84890000000019L53.950399999999945 68.83080000000018z">
      <title id="t340">Sixième circonscription du Bas-Rhin</title>
      <desc id="d340">Cantons de : Molsheim, Obernai, Rosheim, Saales, Schirmeck, Wasselonne</desc>
    </path><path class="circo" id="id-067-07" d="M48.47829999999999 24.105000000000018L48.22069999999985 23.75590000000011L46.96219999999994 23.89580000000001L46.2491 23.406900000000178L46.34009999999989 22.599100000000135L47.38149999999996 21.9538L46.91289999999981 21.226900000000114L47.10349999999994 20.835800000000063L48.6096 19.99220000000014L47.753299999999854 19.013200000000097L48.59789999999998 17.448500000000195L46.3732 16.567000000000007L45.601399999999785 15.088900000000194L43.89009999999985 14.899499999999989L43.365099999999984 14.248199999999997L41.462299999999914 15.169300000000021L39.35979999999995 15.513000000000147L38.32289999999989 16.22330000000011L37.26929999999993 16.419900000000098L36.265499999999975 16.11570000000006L35.49939999999992 15.737500000000182L35.16179999999986 15.99980000000005L34.162399999999934 16.777900000000045L33.328899999999976 16.80190000000016L32.75869999999986 17.431400000000167L31.025199999999813 16.140300000000025L30.941499999999905 15.715000000000146L29.643299999999954 15.731400000000122L29.905599999999822 14.647400000000061L29.66289999999981 14.362600000000157L29.959899999999834 13.646400000000085L25.204899999999952 11.699800000000096L22.767299999999977 12.679200000000037L21.622899999999845 10.907000000000153L20.80399999999986 10.907600000000002L19.78619999999978 9.275000000000091L18.699699999999893 9.803100000000086L18.6090999999999 9.38070000000016L16.021499999999833 9.405300000000125L15.340099999999893 7.076500000000124L14.839899999999943 6.042900000000145L15.131199999999808 5.276000000000067L14.016099999999824 4.221900000000005L13.643399999999929 2.180900000000065L13.749199999999973 1.7566000000001623L14.606799999999794 1.705600000000004L14.755699999999933 0.9471000000000913L13.925799999999981 0.6875999999999749L13.41969999999992 0L12.550499999999829 0.9734000000000833L11.329700000000003 0.7477000000001226L11.013299999999845 1.056100000000015L10.80659999999989 1.881800000000112L11.124299999999948 2.6784000000000106L11.661699999999882 3.5715000000000146L9.643100000000004 6.130300000000034L9.176699999999983 7.783500000000004L9.425399999999854 8.972400000000107L8.957599999999957 10.111499999999978L8.230699999999842 10.631800000000112L7.668899999999894 11.866200000000163L8.176499999999805 13.13070000000016L8.08849999999984 13.578500000000076L7.323899999999867 14.028999999999996L7.714099999999917 15.791900000000169L7.178399999999783 15.791200000000117L6.570799999999963 15.580600000000004L4.3392999999998665 15.21180000000004L3.8543999999999414 16.624300000000176L3.4266999999999825 17.61760000000004L3.055199999999786 18.76740000000018L2.083199999999806 19.595600000000104L1.2824999999998 19.488800000000083L0.49319999999988795 18.521900000000187L0.24939999999992324 18.542200000000093L0 19.86480000000006L1.155999999999949 20.46210000000019L1.87949999999978 22.106899999999996L1.3525999999999385 23.798900000000003L2.621199999999817 24.24000000000001L3.9531999999999243 24.15949999999998L8.797399999999925 26.58100000000013L9.651399999999967 27.578100000000177L9.271799999999985 28.35200000000009L11.711999999999989 27.710199999999986L12.977999999999838 27.84120000000007L13.371299999999792 28.961099999999988L12.487899999999854 29.713100000000168L11.92009999999982 29.81619999999998L9.400899999999865 29.90820000000008L9.550199999999904 31.317400000000134L8.980499999999893 33.29730000000018L9.43249999999989 34.045900000000074L11.058899999999994 33.9974000000002L12.20399999999995 34.424200000000155L12.451999999999998 35.164600000000064L10.652099999999791 36.0476000000001L10.845599999999877 36.859500000000025L11.711299999999937 37.730400000000145L12.246199999999817 37.04250000000002L13.863399999999956 36.419000000000096L14.933399999999892 36.09830000000011L15.75369999999998 35.8125L15.44829999999979 34.60149999999999L16.01169999999979 33.93360000000007L16.859499999999798 33.70270000000005L17.501399999999876 33.08879999999999L17.055799999999863 31.37110000000007L17.628299999999854 30.203300000000127L19.723999999999933 30.536299999999983L20.017299999999977 29.836500000000115L20.69269999999983 29.457100000000082L21.47329999999988 30.92360000000008L20.88779999999997 31.53560000000016L22.267299999999977 32.48140000000012L22.994399999999814 32.587800000000016L23.675199999999904 33.4974000000002L23.4846 32.332600000000184L24.2811999999999 32.287000000000035L25.82899999999995 33.7808L26.91489999999999 33.098900000000185L27.285199999999804 33.56420000000003L26.25429999999983 34.044399999999996L25.820999999999913 34.66630000000009L26.884199999999964 35.436300000000074L27.14839999999981 36.27710000000002L27.938499999999976 35.63760000000002L29.702499999999873 36.74720000000002L29.685199999999895 37.729300000000194L31.20569999999998 40.10470000000009L31.6099999999999 40.18730000000005L29.833199999999806 42.15390000000002L29.3612999999998 44.81490000000008L29.29769999999985 44.79169999999999L27.596000000000004 47.4380000000001L27.477699999999913 48.79390000000012L27.08739999999989 49.53359999999998L26.265499999999975 49.440500000000156L25.568199999999933 49.86910000000012L26.84109999999987 52.34879999999998L27.220199999999977 52.522500000000036L27.609499999999798 53.706500000000005L28.024999999999864 53.696500000000015L30.846399999999903 53.97550000000001L31.5936999999999 53.85770000000002L31.945899999999938 55.95990000000006L32.802999999999884 56.13560000000007L33.83849999999984 55.41620000000012L36.1583999999998 56.475200000000086L37.85929999999985 55.2011L37.89949999999999 54.33159999999998L38.88539999999989 54.020300000000134L40.28619999999978 54.95670000000018L43.02819999999997 54.268400000000156L44.69649999999979 54.42669999999998L45.56829999999991 55.40260000000012L46.02719999999999 54.952200000000175L46.49069999999983 54.34100000000012L46.18179999999984 54.040500000000065L45.68079999999986 53.701300000000174L46.254399999999805 53.20880000000011L47.5152999999998 51.469299999999976L47.1893 50.693300000000136L46.75869999999986 50.63740000000007L47.101199999999835 50.41100000000006L49.0625 50.90390000000002L49.29159999999979 50.13170000000014L49.04009999999994 49.81680000000006L49.80049999999983 49.10290000000009L50.62839999999983 49.049600000000055L51.99569999999994 48.14700000000016L53.079499999999825 46.73009999999999L54.30959999999982 46.73310000000015L55.11669999999981 47.62290000000007L55.92879999999991 47.447400000000016L55.98439999999982 47.56670000000008L56.06029999999987 48.39060000000018L59.10409999999979 48.9697000000001L60.24569999999994 47.971700000000055L60.197999999999865 47.091499999999996L59.581899999999905 46.95990000000006L59.88869999999997 45.67669999999998L60.53359999999998 45.1228000000001L62.1090999999999 45.81060000000002L62.20209999999997 44.53200000000015L62.08589999999981 44.46010000000001L61.35409999999979 44.48160000000007L61.31659999999988 44.115999999999985L60.285499999999956 42.96330000000012L59.897199999999884 42.969299999999976L59.12819999999988 42.7346L58.50279999999998 41.7047L58.13729999999987 41.87480000000005L57.93709999999987 39.692800000000034L58.24549999999999 39.94569999999999L58.94549999999981 39.684799999999996L59.45719999999983 38.705200000000104L59.35019999999986 37.56450000000018L58.94639999999981 37.49420000000009L58.16119999999978 36.05650000000014L57.438499999999976 35.70820000000003L57.19809999999984 35.516200000000026L57.5474999999999 35.15190000000007L57.25469999999996 34.82550000000015L57.620299999999816 32.71400000000017L57.661099999999806 31.458900000000085L59.19329999999991 32.11440000000016L59.2965999999999 31.718000000000075L60.99709999999982 30.614500000000135L61.13109999999983 29.818300000000136L60.764199999999846 29.921100000000024L57.632499999999936 29.70490000000018L57.385099999999966 29.6695000000002L56.273099999999886 29.556600000000117L54.16079999999988 29.205200000000104L53.710399999999936 28.085000000000036L51.7799 27.348000000000184L51.309099999999944 26.694500000000062L51.338199999999915 26.02670000000012L52.985999999999876 25.614500000000135L53.979899999999816 23.787000000000035L53.14279999999985 24.024900000000116L51.99259999999981 23.450300000000198L51.25189999999998 23.932800000000043L50.67169999999987 23.317000000000007L48.47829999999999 24.105000000000018z">
      <title id="t341">Septième circonscription du Bas-Rhin</title>
      <desc id="d341">Cantons : Bouxwiller, Drulingen, Hochfelden, Marmoutier, La Petite-Pierre, Sarre-Union, Saverne.</desc>
    </path><path class="circo" id="id-067-08" d="M90.27209999999991 41.27940000000012L88.53219999999988 40.980600000000095L87.44889999999987 41.606899999999996L87.23239999999987 45.0154L86.72569999999996 46.243400000000065L83.56869999999981 50.07170000000019L82.8572999999999 49.5467000000001L82.38259999999991 48.339100000000144L79.37129999999979 47.624700000000075L78.76469999999995 46.96950000000015L78.9731999999999 46.665500000000065L79.46879999999987 45.51890000000003L79.38439999999991 44.68910000000005L80.13479999999981 43.69620000000009L81.7935 43.615999999999985L82.5145 42.543499999999995L83.24339999999984 42.16620000000012L83.16989999999987 41.782900000000154L81.85409999999979 40.95700000000011L83.66429999999991 38.54930000000013L83.88319999999999 38.701300000000174L84.64419999999996 36.183100000000195L84.55959999999982 35.29060000000004L85.94369999999981 33.094299999999976L86.32249999999999 31.45550000000003L87.11949999999979 31.106500000000096L89.13449999999989 31.849699999999984L89.7235999999998 31.34140000000002L90.49759999999992 28.847400000000107L88.98029999999994 29.586700000000064L86.77839999999992 29.441600000000108L86.38239999999996 29.239700000000084L86.51769999999988 27.47160000000008L85.64509999999996 27.20360000000005L81.56459999999993 24.331100000000106L77.98329999999987 23.830400000000054L76.7063999999998 23.45810000000006L75.70129999999995 22.646000000000186L73.55169999999998 22.748400000000174L73.01169999999979 24.333500000000186L74.24659999999994 24.863200000000006L73.60439999999994 25.99090000000001L70.64809999999989 25.16560000000004L69.48299999999995 25.810100000000148L68.54309999999987 27.15390000000002L66.44829999999979 27.068500000000085L66.14909999999986 26.769900000000007L65.41299999999978 26.616400000000112L65.08529999999996 25.56860000000006L65.02049999999986 25.66260000000011L63.99589999999989 27.00200000000018L64.60059999999999 28.117300000000114L64.00859999999989 29.271400000000085L62.41729999999984 28.748299999999972L61.781499999999824 27.60590000000002L59.446699999999964 28.09159999999997L59.1271999999999 28.156600000000026L59.31359999999995 28.757700000000114L59.573199999999815 29.555000000000064L60.764199999999846 29.921100000000024L57.632499999999936 29.70490000000018L57.385099999999966 29.6695000000002L56.273099999999886 29.556600000000117L54.16079999999988 29.205200000000104L53.710399999999936 28.085000000000036L51.7799 27.348000000000184L51.309099999999944 26.694500000000062L51.338199999999915 26.02670000000012L52.985999999999876 25.614500000000135L53.979899999999816 23.787000000000035L53.14279999999985 24.024900000000116L51.99259999999981 23.450300000000198L51.25189999999998 23.932800000000043L50.67169999999987 23.317000000000007L48.47829999999999 24.105000000000018L48.22069999999985 23.75590000000011L46.96219999999994 23.89580000000001L46.2491 23.406900000000178L46.34009999999989 22.599100000000135L47.38149999999996 21.9538L46.91289999999981 21.226900000000114L47.10349999999994 20.835800000000063L48.6096 19.99220000000014L47.753299999999854 19.013200000000097L48.59789999999998 17.448500000000195L49.83849999999984 17.622400000000198L50.58039999999983 18.692099999999982L52.30869999999982 18.344400000000178L52.01209999999992 17.582300000000032L54.270499999999856 15.07159999999999L54.579299999999876 14.498299999999972L54.48009999999999 13.641100000000051L55.325399999999945 12.063000000000102L55.019399999999905 11.259900000000016L56.68399999999997 8.748900000000049L56.52369999999996 7.504400000000032L58.20719999999983 5.729199999999992L59.316899999999805 3.8627000000001317L58.976199999999835 3.0775000000001L62.01909999999998 4.140600000000177L64.22859999999991 3.6508000000001175L64.1241 2.801100000000133L66.23199999999997 3.2636999999999716L67.0782999999999 3.040000000000191L67.21669999999995 4.349800000000187L67.99089999999978 4.024900000000116L70.1257999999998 4.048800000000028L71.13999999999987 2.6277999999999793L72.02139999999986 2.503800000000183L72.52529999999979 1.7643000000000484L72.97169999999983 1.7811000000001513L75.77779999999984 3.914800000000014L77.00049999999987 4.435200000000123L77.69409999999993 5.5094000000001415L78.70709999999985 5.7590000000000146L80.20209999999997 4.031700000000001L80.63519999999994 3.8845000000001164L82.77559999999994 4.667500000000018L84.62599999999998 2.810000000000173L87.03799999999978 4.852399999999989L87.96479999999997 6.4319000000000415L89.75149999999985 6.468200000000024L91.72659999999996 7.589000000000169L94.32449999999994 8.446700000000192L95.76949999999988 10.18950000000018L97.74489999999992 11.491500000000087L100.59579999999983 12.058300000000145L101.27139999999986 12.551800000000185L103.78899999999999 13.024800000000141L106.42719999999986 13.147200000000112L106.78949999999986 13.956500000000005L107.2219 14.069000000000187L108.79989999999998 13.306600000000117L109.43299999999999 13.904200000000174L109.55339999999978 14.335800000000063L109.22599999999989 14.641800000000103L106.75689999999986 15.6554000000001L105.88569999999982 17.21460000000002L104.30119999999988 19.874000000000024L102.01139999999987 23.551400000000058L100.30079999999998 27.575000000000045L99.09839999999986 32.294000000000096L98.56889999999999 33.92000000000007L97.37429999999995 35.70140000000015L95.2829999999999 37.35620000000017L93.51139999999987 37.15750000000003L92.6855999999998 37.490600000000086L91.46339999999987 40.766000000000076L90.27209999999991 41.27940000000012z">
      <title id="t342">Huitième circonscription du Bas-Rhin</title>
      <desc id="d342">Cantons de : Bischwiller (moins les communes de Bischwiller, Oberhoffen-sur-Moder, Rohrwiller, Schirrheim, Schirrhoffen), Lauterbourg, Niederbronn-les-Bains, Seltz, Soultz-sous-Forêts, Wissembourg, Woerth</desc>
    </path><path class="circo" id="id-067-09" d="M81.85409999999979 40.95700000000011L83.16989999999987 41.782900000000154L83.24339999999984 42.16620000000012L82.5145 42.543499999999995L81.7935 43.615999999999985L80.13479999999981 43.69620000000009L79.38439999999991 44.68910000000005L79.46879999999987 45.51890000000003L78.9731999999999 46.665500000000065L78.76469999999995 46.96950000000015L79.37129999999979 47.624700000000075L82.38259999999991 48.339100000000144L82.8572999999999 49.5467000000001L83.56869999999981 50.07170000000019L81.1588999999999 53.07470000000012L79.86109999999985 54.21990000000005L76.80609999999979 55.86419999999998L76.0308 57.3895L75.16159999999991 57.42890000000011L73.53509999999983 56.10509999999999L72.70659999999998 56.32920000000013L72.41689999999994 57.06630000000018L72.33109999999988 57.41330000000016L71.69899999999984 56.59130000000005L71.61409999999978 55.18579999999997L69.99629999999979 54.63760000000002L69.65019999999981 53.47330000000011L68.3596 54.55490000000009L67.55389999999989 54.34050000000002L67.08369999999991 55.01130000000012L66.41639999999984 54.78340000000003L66.32149999999979 54.3592000000001L65.04099999999994 54.11770000000001L63.523299999999836 53.27210000000014L63.48309999999992 52.83830000000012L63.40949999999998 52.578700000000026L61.801299999999856 50.613200000000006L61.23969999999986 50.21210000000019L60.0954999999999 50.09450000000015L59.10409999999979 48.9697000000001L60.24569999999994 47.971700000000055L60.197999999999865 47.091499999999996L59.581899999999905 46.95990000000006L59.88869999999997 45.67669999999998L60.53359999999998 45.1228000000001L62.1090999999999 45.81060000000002L62.20209999999997 44.53200000000015L62.08589999999981 44.46010000000001L61.35409999999979 44.48160000000007L61.31659999999988 44.115999999999985L60.285499999999956 42.96330000000012L59.897199999999884 42.969299999999976L59.12819999999988 42.7346L58.50279999999998 41.7047L58.13729999999987 41.87480000000005L57.93709999999987 39.692800000000034L58.24549999999999 39.94569999999999L58.94549999999981 39.684799999999996L59.45719999999983 38.705200000000104L59.35019999999986 37.56450000000018L58.94639999999981 37.49420000000009L58.16119999999978 36.05650000000014L57.438499999999976 35.70820000000003L57.19809999999984 35.516200000000026L57.5474999999999 35.15190000000007L57.25469999999996 34.82550000000015L57.620299999999816 32.71400000000017L57.661099999999806 31.458900000000085L59.19329999999991 32.11440000000016L59.2965999999999 31.718000000000075L60.99709999999982 30.614500000000135L61.13109999999983 29.818300000000136L60.764199999999846 29.921100000000024L59.573199999999815 29.555000000000064L59.31359999999995 28.757700000000114L59.1271999999999 28.156600000000026L59.446699999999964 28.09159999999997L61.781499999999824 27.60590000000002L62.41729999999984 28.748299999999972L64.00859999999989 29.271400000000085L64.60059999999999 28.117300000000114L63.99589999999989 27.00200000000018L65.02049999999986 25.66260000000011L65.08529999999996 25.56860000000006L65.41299999999978 26.616400000000112L66.14909999999986 26.769900000000007L66.44829999999979 27.068500000000085L68.54309999999987 27.15390000000002L69.48299999999995 25.810100000000148L70.64809999999989 25.16560000000004L73.60439999999994 25.99090000000001L74.24659999999994 24.863200000000006L73.01169999999979 24.333500000000186L73.55169999999998 22.748400000000174L75.70129999999995 22.646000000000186L76.7063999999998 23.45810000000006L77.98329999999987 23.830400000000054L81.56459999999993 24.331100000000106L85.64509999999996 27.20360000000005L86.51769999999988 27.47160000000008L86.38239999999996 29.239700000000084L86.77839999999992 29.441600000000108L88.98029999999994 29.586700000000064L90.49759999999992 28.847400000000107L89.7235999999998 31.34140000000002L89.13449999999989 31.849699999999984L87.11949999999979 31.106500000000096L86.32249999999999 31.45550000000003L85.94369999999981 33.094299999999976L84.55959999999982 35.29060000000004L84.64419999999996 36.183100000000195L83.88319999999999 38.701300000000174L83.66429999999991 38.54930000000013L81.85409999999979 40.95700000000011z">
      <title id="t343">Neuvième circonscription du Bas-Rhin</title>
      <desc id="d343">Cantons de : Brumath, Haguenau., Communes de : Bischwiller, Oberhoffen-sur-Moder, Rohrwiller, Schirrheim, Schirrhoffen (issues du canton de Bischwiller)</desc>
    </path></svg>