<svg xmlns="http://www.w3.org/2000/svg" version="1.1" xmlns:xlink="http://www.w3.org/1999/xlink" xmlns:svgjs="http://svgjs.dev/svgjs" viewBox="1632.2233 1254.5257 117.11239999999998 122.94860000000017"><path class="circo" id="id-067-01" d="M 1722.4358,1335.8201 1721.297,1334.6277 1721.9618,1331.968 1719.6073,1327.5448 1719.1817,1323.3244 1724.4647,1326.5209 1729.5592,1324.9618 1729.6827,1323.2977 1732.253,1322.8639 1733.4928,1324.6355 1734.9186,1325.3536 1736.2992,1323.8924 1738.3412,1325.4034 1739.6055,1325.5198 1738.032,1329.2332 1733.7219,1327.6122 1731.6523,1329.2818 1731.6151,1330.5891 1728.7776,1331.8264 1727.8595,1335.6734 1726.1706,1334.4225 1722.4358,1335.8201 z">
      <title id="t335">Première circonscription du Bas-Rhin</title>
      <desc id="d335">Cantons de : Strasbourg I, Strasbourg II, Strasbourg IV, Strasbourg VI (partie située au sud d'une ligne définie par l'axe de la route d'Oberhausbergen et à l'ouest d'une ligne définie par l'axe de la voie de chemin de fer de Hausbergen à Graffenstaden), Strasbourg IX</desc>
    </path><path class="circo" id="id-067-02" d="M 1722.037,1354.8621 1721.7319,1353.0162 1722.868,1351.3924 1722.182,1350.6549 1721.4217,1349.9494 1722.1457,1348.0534 1720.7996,1343.2836 1722.8467,1343.4782 1725.5723,1342.0819 1725.9803,1341.1349 1724.9521,1338.4252 1727.793,1337.8017 1727.9353,1335.6892 1728.7776,1331.8264 1731.6151,1330.5891 1731.6523,1329.2818 1733.7219,1327.6122 1738.032,1329.2332 1739.6055,1325.5198 1741.7368,1325.7904 1742.0463,1327.9375 1743.1254,1335.4359 1743.063,1349.3984 1740.7815,1353.0402 1736.1934,1355.8812 1733.3623,1355.6486 1726.5851,1353.7093 1724.9632,1354.9873 1722.037,1354.8621 z">
      <title id="t336">Deuxième circonscription du Bas-Rhin</title>
      <desc id="d336">Cantons de : Strasbourg III, Strasbourg VII, Strasbourg VIII, Strasbourg X, Commune de Illkirch-Graffenstaden</desc>
    </path><path class="circo" id="id-067-03" d="M 1738.3412,1325.4034 1736.2992,1323.8924 1734.9186,1325.3536 1733.4928,1324.6355 1732.253,1322.8639 1729.6827,1323.2977 1729.5592,1324.9618 1724.4647,1326.5209 1719.1817,1323.3244 1723.3829,1321.5331 1722.7196,1320.9431 1721.8704,1319.522 1722.1534,1317.7907 1725.2748,1317.7777 1725.2354,1316.5799 1725.0828,1315.7896 1725.8786,1315.6958 1725.5146,1314.595 1727.5039,1310.9028 1729.3685,1310.3254 1728.8509,1309.4237 1727.8414,1309.6604 1727.8714,1306.6557 1728.9995,1305.0464 1730.9324,1305.5607 1734.0286,1302.9659 1734.8588,1305.7592 1738.74,1307.0742 1738.9436,1310.4461 1740.4601,1312.4183 1740.6659,1311.5857 1741.3609,1309.8175 1743.3485,1309.2798 1747.2504,1312.4556 1749.3357,1312.3612 1748.2226,1316.5605 1741.7368,1325.7904 1738.3412,1325.4034 z">
      <title id="t337">Troisième circonscription du Bas-Rhin</title>
      <desc id="d337">Cantons de : Bischheim, Schiltigheim, Strasbourg V, Strasbourg VI (partie non comprise dans la 1re circonscription), Communes de : Reichstett et Souffelweyersheim</desc>
    </path><path class="vide" d="M 1701.869,1307.9895 1700.5877,1309.0832 1699.7753,1308.8645 1699.3065,1309.552 1699.3065,1310.802 1699.7127,1310.677 1699.9315,1311.052 1699.1503,1311.302 1698.3377,1312.8332 1698.4627,1313.302 1698.1503,1313.3332 1698.2127,1313.677 1698.2127,1314.177 1696.9315,1314.177 1696.8065,1314.8957 1697.1503,1315.4895 1697.4315,1315.7395 1695.6815,1316.4895 1695.869,1318.2395 1696.8377,1320.0832 1696.5565,1321.2082 1697.0565,1321.7082 1698.5877,1321.1145 1699.3065,1321.6457 1699.6815,1320.0207 1699.3377,1321.6457 1699.2753,1322.5207 1698.0877,1322.7707 1698.5253,1323.8957 1698.3377,1324.302 1697.2127,1324.8957 1696.369,1324.802 1696.9315,1326.802 1696.619,1327.5832 1696.9315,1327.8645 1697.2127,1328.177 1696.744,1328.8645 1696.869,1329.6457 1698.0877,1329.677 1698.7753,1329.1457 1701.5877,1329.9582 1702.7753,1330.052 1704.6815,1328.8645 1705.6503,1327.3645 1705.6503,1321.5207 1705.2127,1318.3957 1705.0877,1317.5207 1707.7753,1313.677 1708.244,1311.927 1707.4003,1311.9582 1705.744,1310.6457 1704.9315,1310.8645 1704.6503,1311.5832 1704.5565,1311.927 1703.9315,1311.1145 1703.8377,1309.7082 1702.2127,1309.177 1701.869,1307.9895 z" id="067-00"></path><path class="circo" id="id-067-04" d="M 1687.549,1330.7203 1687.6733,1329.4527 1687.1605,1327.8216 1687.2567,1327.3358 1686.7969,1325.6808 1686.9094,1324.3746 1686.1737,1323.3565 1686.8885,1323.1042 1687.1038,1322.4144 1686.847,1321.6716 1685.7617,1321.2451 1686.099,1319.5817 1686.4927,1319.4195 1687.0926,1318.9659 1686.8263,1318.7015 1684.625,1318.5422 1683.4709,1318.1953 1683.0127,1316.6462 1682.8031,1315.8905 1683.6755,1313.3091 1682.4422,1313.239 1682.1819,1312.4396 1681.9775,1311.6896 1680.2223,1310.0474 1678.2505,1309.4779 1678.714,1308.8667 1678.4051,1308.5662 1677.9041,1308.227 1678.4777,1307.7345 1679.7386,1305.995 1679.4126,1305.219 1678.982,1305.1631 1679.3245,1304.9367 1681.2858,1305.4296 1681.5149,1304.6574 1681.2634,1304.3425 1682.0238,1303.6286 1682.8517,1303.5753 1684.219,1302.6727 1685.3028,1301.2558 1686.5329,1301.2588 1687.34,1302.1486 1688.1521,1301.9731 1688.2077,1302.0924 1688.2836,1302.9163 1691.3274,1303.4954 1692.3188,1304.6202 1693.463,1304.7378 1694.0246,1305.1389 1695.6328,1307.1044 1695.7064,1307.364 1695.7466,1307.7978 1697.2643,1308.6434 1698.5448,1308.8849 1698.6397,1309.3091 1699.307,1309.537 1699.2945,1310.7895 1699.7153,1310.6908 1699.931,1311.0667 1699.1538,1311.3074 1698.3246,1312.8464 1698.4763,1313.3052 1698.1446,1313.3443 1698.2082,1313.6738 1698.2246,1314.1731 1696.9235,1314.1785 1696.8055,1314.9001 1697.1595,1315.4925 1697.436,1315.7384 1695.6848,1316.4851 1695.8622,1318.2443 1696.8436,1320.0881 1696.5665,1321.1968 1697.0412,1321.6938 1698.598,1321.1112 1699.302,1321.6327 1699.2743,1322.5198 1698.0901,1322.7797 1698.5187,1323.9092 1698.3486,1324.304 1697.2125,1324.886 1696.3592,1324.8049 1696.9203,1326.7931 1696.6185,1327.5834 1696.9354,1327.8775 1697.2214,1328.1849 1696.7478,1328.8618 1696.875,1329.6312 1698.0947,1329.6834 1698.7708,1329.1507 1701.5958,1329.9591 1702.7759,1330.056 1702.3843,1330.779 1702.3243,1333.7059 1701.2411,1337.4693 1700.0819,1336.9281 1700.2793,1336.0751 1697.377,1335.2527 1696.5857,1335.4884 1696.2974,1335.3983 1696.3228,1331.9617 1696.5194,1331.3865 1694.5257,1330.7303 1693.7514,1330.9235 1692.5089,1332.0656 1691.6715,1331.9248 1691.1649,1331.2306 1690.5172,1331.7656 1689.2721,1332.0171 1688.8918,1332.2559 1687.549,1330.7203 z">
      <title id="t338">Quatrième circonscription du Bas-Rhin</title>
      <desc id="d338">Cantons de : Geispolsheim, Mundolsheim (moins les communes de Reichstett et de Souffelweyersheim), Truchtersheim, Communes de : Lingolsheim et Ostwald</desc>
    </path><path class="circo" id="id-067-05" d="M 1664.0721,1338.2824 1662.863,1338.5105 1662.3464,1339.1435 1661.3824,1340.5217 1660.2757,1340.9911 1659.8433,1342.1847 1660.033,1343.2941 1658.3067,1344.37 1657.9724,1344.2793 1657.074,1345.1901 1654.7047,1346.2112 1654.0453,1346.7893 1654.0934,1347.5745 1653.7795,1347.8793 1651.7094,1348.1782 1651.1883,1348.6911 1651.6098,1349.2837 1652.7948,1349.7926 1652.4134,1351.0337 1653.3808,1351.7624 1654.0531,1353.353 1654.4843,1353.4279 1655.7597,1353.3004 1658.0444,1354.2651 1659.2615,1354.0269 1660.5177,1354.0433 1661.1881,1355.1264 1661.9173,1355.4792 1661.8913,1355.8749 1662.6951,1356.8823 1662.0271,1358.0036 1662.1775,1358.4261 1663.4468,1358.7142 1665.5881,1358.2035 1665.3676,1358.4986 1664.6458,1359.3841 1663.9138,1359.4899 1663.8169,1360.8042 1664.8564,1361.6584 1667.0781,1361.4026 1671.0923,1363.3372 1671.9709,1364.3386 1672.4167,1364.2797 1674.2143,1365.1787 1675.0067,1365.3165 1675.4996,1365.9676 1677.74,1367.0062 1677.4506,1367.746 1677.3847,1369.7234 1677.1617,1372.5343 1681.4283,1373.8944 1681.0048,1375.9791 1681.2805,1376.663 1684.1674,1377.4057 1686.3181,1377.4743 1688.1065,1375.6869 1688.1576,1373.1132 1689.3726,1371.3248 1690.6937,1369.594 1691.3563,1367.9839 1691.7575,1366.9477 1693.8231,1364.7658 1694.9637,1360.544 1695.0665,1360.1427 1696.185,1354.4209 1697.132,1353.4605 1699.6005,1352.3621 1700.2383,1351.7242 1700.5452,1350.8797 1700.3982,1349.5362 1699.7689,1346.6888 1699.3325,1344.1794 1699.5519,1342.0699 1701.2411,1337.4693 1700.0819,1336.9281 1700.2793,1336.0751 1697.377,1335.2527 1696.5857,1335.4884 1696.2974,1335.3983 1696.3228,1331.9617 1696.5194,1331.3865 1694.5257,1330.7303 1693.7514,1330.9235 1692.5089,1332.0656 1691.6715,1331.9248 1691.1649,1331.2306 1690.5172,1331.7656 1689.2721,1332.0171 1688.8918,1332.2559 1687.631,1333.0568 1687.4998,1333.1346 1687.4484,1335.9268 1687.5166,1336.1976 1687.2837,1336.4819 1687.2297,1336.5192 1686.4195,1337.3101 1685.8033,1338.2325 1685.1724,1338.5341 1683.8282,1339.9937 1683.7638,1340.0939 1683.1977,1342.3792 1682.3112,1342.4526 1681.2984,1343.2896 1679.5189,1343.2141 1678.2383,1343.6519 1677.7391,1342.8 1678.0759,1342.0715 1678.9286,1341.4983 1679.0274,1340.7701 1678.1041,1339.3408 1676.4498,1338.8208 1676.5093,1338.5425 1676.4162,1338.0513 1674.438,1338.7854 1673.2025,1337.729 1672.6448,1337.4713 1671.7044,1337.5756 1670.6085,1338.9052 1669.3443,1338.4192 1668.0099,1338.6208 1666.7085,1338.2418 1664.0721,1338.2824 z">
      <title id="t339">Cinquième circonscription du Bas-Rhin</title>
      <desc id="d339">Cantons de : Barr, Benfeld, Erstein, Marckolsheim, Sélestat, Villé</desc>
    </path><path class="circo" id="id-067-06" d="M 1686.1737,1323.3565 1686.8885,1323.1042 1687.1038,1322.4144 1686.847,1321.6716 1685.7617,1321.2451 1686.099,1319.5817 1686.4927,1319.4195 1687.0926,1318.9659 1686.8263,1318.7015 1684.625,1318.5422 1683.4709,1318.1953 1683.0127,1316.6462 1682.8031,1315.8905 1683.6755,1313.3091 1682.4422,1313.239 1682.1819,1312.4396 1681.9775,1311.6896 1680.2223,1310.0474 1678.2505,1309.4779 1677.7916,1309.9283 1676.9198,1308.9524 1675.2515,1308.7941 1672.5095,1309.4824 1671.1087,1308.546 1670.1228,1308.8573 1670.0826,1309.7268 1668.3817,1311.0009 1666.0618,1309.9419 1665.0263,1310.6613 1664.1692,1310.4856 1663.817,1308.3834 1663.0697,1308.5012 1661.0602,1311.4594 1659.9186,1312.147 1660.7254,1313.1223 1659.0149,1316.2538 1659.7361,1317.3095 1658.9833,1317.7004 1657.7042,1319.6199 1655.9224,1322.0673 1655.6078,1322.3651 1654.3149,1322.3214 1653.6258,1322.7658 1653.1027,1324.3028 1651.5215,1325.4041 1651.4715,1325.5449 1650.1914,1325.158 1648.9291,1325.4418 1647.02,1324.3807 1644.9844,1325.2597 1643.9445,1324.4124 1642.7566,1325.9674 1643.7528,1326.99 1644.0598,1327.4741 1644.2911,1327.0999 1646.0161,1326.8627 1647.668,1327.3421 1648.198,1328.8919 1647.8626,1329.1367 1646.1589,1329.0406 1645.2103,1328.2909 1644.9342,1328.9733 1645.1603,1330.4606 1647.2979,1331.1741 1647.1284,1332.5063 1646.0635,1334.9635 1646.2275,1336.2628 1646.3869,1336.7409 1646.4966,1336.9324 1645.7975,1337.3657 1645.3323,1338.5036 1645.3423,1341.2673 1644.4226,1342.1723 1645.0994,1342.648 1646.0128,1343.4393 1646.2635,1344.9652 1645.7688,1345.2622 1644.4802,1347.0025 1643.6558,1347.9692 1646.2065,1349.0537 1647.1545,1350.329 1649.2112,1350.5994 1649.772,1350.4389 1651.0362,1349.9896 1651.6098,1349.2837 1651.1883,1348.6911 1651.7094,1348.1782 1653.7795,1347.8793 1654.0934,1347.5745 1654.0453,1346.7893 1654.7047,1346.2112 1657.074,1345.1901 1657.9724,1344.2793 1658.3067,1344.37 1660.033,1343.2941 1659.8433,1342.1847 1660.2757,1340.9911 1661.3824,1340.5217 1662.3464,1339.1435 1662.863,1338.5105 1664.0721,1338.2824 1666.7085,1338.2418 1668.0099,1338.6208 1669.3443,1338.4192 1670.6085,1338.9052 1671.7044,1337.5756 1672.6448,1337.4713 1673.2025,1337.729 1674.438,1338.7854 1676.4162,1338.0513 1676.5093,1338.5425 1676.4498,1338.8208 1678.1041,1339.3408 1679.0274,1340.7701 1678.9286,1341.4983 1678.0759,1342.0715 1677.7391,1342.8 1678.2383,1343.6519 1679.5189,1343.2141 1681.2984,1343.2896 1682.3112,1342.4526 1683.1977,1342.3792 1683.7638,1340.0939 1683.8282,1339.9937 1685.1724,1338.5341 1685.8033,1338.2325 1686.4195,1337.3101 1687.2297,1336.5192 1687.2837,1336.4819 1687.5166,1336.1976 1687.4484,1335.9268 1687.4998,1333.1346 1687.631,1333.0568 1688.8918,1332.2559 1687.549,1330.7203 1687.6733,1329.4527 1687.1605,1327.8216 1687.2567,1327.3358 1686.7969,1325.6808 1686.9094,1324.3746 1686.1737,1323.3565 z">
      <title id="t340">Sixième circonscription du Bas-Rhin</title>
      <desc id="d340">Cantons de : Molsheim, Obernai, Rosheim, Saales, Schirmeck, Wasselonne</desc>
    </path><path class="circo" id="id-067-07" d="M 1680.7016,1278.6307 1680.444,1278.2816 1679.1855,1278.4215 1678.4724,1277.9326 1678.5634,1277.1248 1679.6048,1276.4795 1679.1362,1275.7526 1679.3268,1275.3615 1680.8329,1274.5179 1679.9766,1273.5389 1680.8212,1271.9742 1678.5965,1271.0927 1677.8247,1269.6146 1676.1134,1269.4252 1675.5884,1268.7739 1673.6856,1269.695 1671.5831,1270.0387 1670.5462,1270.749 1669.4926,1270.9456 1668.4888,1270.6414 1667.7227,1270.2632 1667.3851,1270.5255 1666.3857,1271.3036 1665.5522,1271.3276 1664.982,1271.9571 1663.2485,1270.666 1663.1648,1270.2407 1661.8666,1270.2571 1662.1289,1269.1731 1661.8862,1268.8883 1662.1832,1268.1721 1657.4282,1266.2255 1654.9906,1267.2049 1653.8462,1265.4327 1653.0273,1265.4333 1652.0095,1263.8007 1650.923,1264.3288 1650.8324,1263.9064 1648.2448,1263.931 1647.5634,1261.6022 1647.0632,1260.5686 1647.3545,1259.8017 1646.2394,1258.7476 1645.8667,1256.7066 1645.9725,1256.2823 1646.8301,1256.2313 1646.979,1255.4728 1646.1491,1255.2133 1645.643,1254.5257 1644.7738,1255.4991 1643.553,1255.2734 1643.2366,1255.5818 1643.0299,1256.4075 1643.3476,1257.2041 1643.885,1258.0972 1641.8664,1260.656 1641.4,1262.3092 1641.6487,1263.4981 1641.1809,1264.6372 1640.454,1265.1575 1639.8922,1266.3919 1640.3998,1267.6564 1640.3118,1268.1042 1639.5472,1268.5547 1639.9374,1270.3176 1639.4017,1270.3169 1638.7941,1270.1063 1636.5626,1269.7375 1636.0777,1271.15 1635.65,1272.1433 1635.2785,1273.2931 1634.3065,1274.1213 1633.5058,1274.0145 1632.7165,1273.0476 1632.4727,1273.0679 1632.2233,1274.3905 1633.3793,1274.9878 1634.1028,1276.6326 1633.5759,1278.3246 1634.8445,1278.7657 1636.1765,1278.6852 1641.0207,1281.1067 1641.8747,1282.1038 1641.4951,1282.8777 1643.9353,1282.2359 1645.2013,1282.3669 1645.5946,1283.4868 1644.7112,1284.2388 1644.1434,1284.3419 1641.6242,1284.4339 1641.7735,1285.8431 1641.2038,1287.823 1641.6558,1288.5716 1643.2822,1288.5231 1644.4273,1288.9499 1644.6753,1289.6903 1642.8754,1290.5733 1643.0689,1291.3852 1643.9346,1292.2561 1644.4695,1291.5682 1646.0867,1290.9447 1647.1567,1290.624 1647.977,1290.3382 1647.6716,1289.1272 1648.235,1288.4593 1649.0828,1288.2284 1649.7247,1287.6145 1649.2791,1285.8968 1649.8516,1284.729 1651.9473,1285.062 1652.2406,1284.3622 1652.916,1283.9828 1653.6966,1285.4493 1653.1111,1286.0613 1654.4906,1287.0071 1655.2177,1287.1135 1655.8985,1288.0231 1655.7079,1286.8583 1656.5045,1286.8127 1658.0523,1288.3065 1659.1382,1287.6246 1659.5085,1288.0899 1658.4776,1288.5701 1658.0443,1289.192 1659.1075,1289.962 1659.3717,1290.8028 1660.1618,1290.1633 1661.9258,1291.2729 1661.9085,1292.255 1663.429,1294.6304 1663.8333,1294.713 1662.0565,1296.6796 1661.5846,1299.3406 1661.521,1299.3174 1659.8193,1301.9637 1659.701,1303.3196 1659.3107,1304.0593 1658.4888,1303.9662 1657.7915,1304.3948 1659.0644,1306.8745 1659.4435,1307.0482 1659.8328,1308.2322 1660.2483,1308.2222 1663.0697,1308.5012 1663.817,1308.3834 1664.1692,1310.4856 1665.0263,1310.6613 1666.0618,1309.9419 1668.3817,1311.0009 1670.0826,1309.7268 1670.1228,1308.8573 1671.1087,1308.546 1672.5095,1309.4824 1675.2515,1308.7941 1676.9198,1308.9524 1677.7916,1309.9283 1678.2505,1309.4779 1678.714,1308.8667 1678.4051,1308.5662 1677.9041,1308.227 1678.4777,1307.7345 1679.7386,1305.995 1679.4126,1305.219 1678.982,1305.1631 1679.3245,1304.9367 1681.2858,1305.4296 1681.5149,1304.6574 1681.2634,1304.3425 1682.0238,1303.6286 1682.8517,1303.5753 1684.219,1302.6727 1685.3028,1301.2558 1686.5329,1301.2588 1687.34,1302.1486 1688.1521,1301.9731 1688.2077,1302.0924 1688.2836,1302.9163 1691.3274,1303.4954 1692.469,1302.4974 1692.4213,1301.6172 1691.8052,1301.4856 1692.112,1300.2024 1692.7569,1299.6485 1694.3324,1300.3363 1694.4254,1299.0577 1694.3092,1298.9858 1693.5774,1299.0073 1693.5399,1298.6417 1692.5088,1297.489 1692.1205,1297.495 1691.3515,1297.2603 1690.7261,1296.2304 1690.3606,1296.4005 1690.1604,1294.2185 1690.4688,1294.4714 1691.1688,1294.2105 1691.6805,1293.2309 1691.5735,1292.0902 1691.1697,1292.0199 1690.3845,1290.5822 1689.6618,1290.2339 1689.4214,1290.0419 1689.7708,1289.6776 1689.478,1289.3512 1689.8436,1287.2397 1689.8844,1285.9846 1691.4166,1286.6401 1691.5199,1286.2437 1693.2204,1285.1402 1693.3544,1284.344 1692.9875,1284.4468 1689.8558,1284.2306 1689.6084,1284.1952 1688.4964,1284.0823 1686.3841,1283.7309 1685.9337,1282.6107 1684.0032,1281.8737 1683.5324,1281.2202 1683.5615,1280.5524 1685.2093,1280.1402 1686.2032,1278.3127 1685.3661,1278.5506 1684.2159,1277.976 1683.4752,1278.4585 1682.895,1277.8427 1680.7016,1278.6307 z">
      <title id="t341">Septième circonscription du Bas-Rhin</title>
      <desc id="d341">Cantons : Bouxwiller, Drulingen, Hochfelden, Marmoutier, La Petite-Pierre, Sarre-Union, Saverne.</desc>
    </path><path class="circo" id="id-067-08" d="M 1722.4954,1295.8051 1720.7555,1295.5063 1719.6722,1296.1326 1719.4557,1299.5411 1718.949,1300.7691 1715.792,1304.5974 1715.0806,1304.0724 1714.6059,1302.8648 1711.5946,1302.1504 1710.988,1301.4952 1711.1965,1301.1912 1711.6921,1300.0446 1711.6077,1299.2148 1712.3581,1298.2219 1714.0168,1298.1417 1714.7378,1297.0692 1715.4667,1296.6919 1715.3932,1296.3086 1714.0774,1295.4827 1715.8876,1293.075 1716.1065,1293.227 1716.8675,1290.7088 1716.7829,1289.8163 1718.167,1287.62 1718.5458,1285.9812 1719.3428,1285.6322 1721.3578,1286.3754 1721.9469,1285.8671 1722.7209,1283.3731 1721.2036,1284.1124 1719.0017,1283.9673 1718.6057,1283.7654 1718.741,1281.9973 1717.8684,1281.7293 1713.7879,1278.8568 1710.2066,1278.3561 1708.9297,1277.9838 1707.9246,1277.1717 1705.775,1277.2741 1705.235,1278.8592 1706.4699,1279.3889 1705.8277,1280.5166 1702.8714,1279.6913 1701.7063,1280.3358 1700.7664,1281.6796 1698.6716,1281.5942 1698.3724,1281.2956 1697.6363,1281.1421 1697.3086,1280.0943 1697.2438,1280.1883 1696.2192,1281.5277 1696.8239,1282.643 1696.2319,1283.7971 1694.6406,1283.274 1694.0048,1282.1316 1691.67,1282.6173 1691.3505,1282.6823 1691.5369,1283.2834 1691.7965,1284.0807 1692.9875,1284.4468 1689.8558,1284.2306 1689.6084,1284.1952 1688.4964,1284.0823 1686.3841,1283.7309 1685.9337,1282.6107 1684.0032,1281.8737 1683.5324,1281.2202 1683.5615,1280.5524 1685.2093,1280.1402 1686.2032,1278.3127 1685.3661,1278.5506 1684.2159,1277.976 1683.4752,1278.4585 1682.895,1277.8427 1680.7016,1278.6307 1680.444,1278.2816 1679.1855,1278.4215 1678.4724,1277.9326 1678.5634,1277.1248 1679.6048,1276.4795 1679.1362,1275.7526 1679.3268,1275.3615 1680.8329,1274.5179 1679.9766,1273.5389 1680.8212,1271.9742 1682.0618,1272.1481 1682.8037,1273.2178 1684.532,1272.8701 1684.2354,1272.108 1686.4938,1269.5973 1686.8026,1269.024 1686.7034,1268.1668 1687.5487,1266.5887 1687.2427,1265.7856 1688.9073,1263.2746 1688.747,1262.0301 1690.4305,1260.2549 1691.5402,1258.3884 1691.1995,1257.6032 1694.2424,1258.6663 1696.4519,1258.1765 1696.3474,1257.3268 1698.4553,1257.7894 1699.3016,1257.5657 1699.44,1258.8755 1700.2142,1258.5506 1702.3491,1258.5745 1703.3633,1257.1535 1704.2447,1257.0295 1704.7486,1256.29 1705.195,1256.3068 1708.0011,1258.4405 1709.2238,1258.9609 1709.9174,1260.0351 1710.9304,1260.2847 1712.4254,1258.5574 1712.8585,1258.4102 1714.9989,1259.1932 1716.8493,1257.3357 1719.2613,1259.3781 1720.1881,1260.9576 1721.9748,1260.9939 1723.9499,1262.1147 1726.5478,1262.9724 1727.9928,1264.7152 1729.9682,1266.0172 1732.8191,1266.584 1733.4947,1267.0775 1736.0123,1267.5505 1738.6505,1267.6729 1739.0128,1268.4822 1739.4452,1268.5947 1741.0232,1267.8323 1741.6563,1268.4299 1741.7767,1268.8615 1741.4493,1269.1675 1738.9802,1270.1811 1738.109,1271.7403 1736.5245,1274.3997 1734.2347,1278.0771 1732.5241,1282.1007 1731.3217,1286.8197 1730.7922,1288.4457 1729.5976,1290.2271 1727.5063,1291.8819 1725.7347,1291.6832 1724.9089,1292.0163 1723.6867,1295.2917 1722.4954,1295.8051 z">
      <title id="t342">Huitième circonscription du Bas-Rhin</title>
      <desc id="d342">Cantons de : Bischwiller (moins les communes de Bischwiller, Oberhoffen-sur-Moder, Rohrwiller, Schirrheim, Schirrhoffen), Lauterbourg, Niederbronn-les-Bains, Seltz, Soultz-sous-Forêts, Wissembourg, Woerth</desc>
    </path><path class="circo" id="id-067-09" d="M 1714.0774,1295.4827 1715.3932,1296.3086 1715.4667,1296.6919 1714.7378,1297.0692 1714.0168,1298.1417 1712.3581,1298.2219 1711.6077,1299.2148 1711.6921,1300.0446 1711.1965,1301.1912 1710.988,1301.4952 1711.5946,1302.1504 1714.6059,1302.8648 1715.0806,1304.0724 1715.792,1304.5974 1713.3822,1307.6004 1712.0844,1308.7456 1709.0294,1310.3899 1708.2541,1311.9152 1707.3849,1311.9546 1705.7584,1310.6308 1704.9299,1310.8549 1704.6402,1311.592 1704.5544,1311.939 1703.9223,1311.117 1703.8374,1309.7115 1702.2196,1309.1633 1701.8735,1307.999 1700.5829,1309.0806 1699.7772,1308.8662 1699.307,1309.537 1698.6397,1309.3091 1698.5448,1308.8849 1697.2643,1308.6434 1695.7466,1307.7978 1695.7064,1307.364 1695.6328,1307.1044 1694.0246,1305.1389 1693.463,1304.7378 1692.3188,1304.6202 1691.3274,1303.4954 1692.469,1302.4974 1692.4213,1301.6172 1691.8052,1301.4856 1692.112,1300.2024 1692.7569,1299.6485 1694.3324,1300.3363 1694.4254,1299.0577 1694.3092,1298.9858 1693.5774,1299.0073 1693.5399,1298.6417 1692.5088,1297.489 1692.1205,1297.495 1691.3515,1297.2603 1690.7261,1296.2304 1690.3606,1296.4005 1690.1604,1294.2185 1690.4688,1294.4714 1691.1688,1294.2105 1691.6805,1293.2309 1691.5735,1292.0902 1691.1697,1292.0199 1690.3845,1290.5822 1689.6618,1290.2339 1689.4214,1290.0419 1689.7708,1289.6776 1689.478,1289.3512 1689.8436,1287.2397 1689.8844,1285.9846 1691.4166,1286.6401 1691.5199,1286.2437 1693.2204,1285.1402 1693.3544,1284.344 1692.9875,1284.4468 1691.7965,1284.0807 1691.5369,1283.2834 1691.3505,1282.6823 1691.67,1282.6173 1694.0048,1282.1316 1694.6406,1283.274 1696.2319,1283.7971 1696.8239,1282.643 1696.2192,1281.5277 1697.2438,1280.1883 1697.3086,1280.0943 1697.6363,1281.1421 1698.3724,1281.2956 1698.6716,1281.5942 1700.7664,1281.6796 1701.7063,1280.3358 1702.8714,1279.6913 1705.8277,1280.5166 1706.4699,1279.3889 1705.235,1278.8592 1705.775,1277.2741 1707.9246,1277.1717 1708.9297,1277.9838 1710.2066,1278.3561 1713.7879,1278.8568 1717.8684,1281.7293 1718.741,1281.9973 1718.6057,1283.7654 1719.0017,1283.9673 1721.2036,1284.1124 1722.7209,1283.3731 1721.9469,1285.8671 1721.3578,1286.3754 1719.3428,1285.6322 1718.5458,1285.9812 1718.167,1287.62 1716.7829,1289.8163 1716.8675,1290.7088 1716.1065,1293.227 1715.8876,1293.075 1714.0774,1295.4827 z">
      <title id="t343">Neuvième circonscription du Bas-Rhin</title>
      <desc id="d343">Cantons de : Brumath, Haguenau., Communes de : Bischwiller, Oberhoffen-sur-Moder, Rohrwiller, Schirrheim, Schirrhoffen (issues du canton de Bischwiller)</desc>
    </path></svg>