<svg xmlns="http://www.w3.org/2000/svg" version="1.1" xmlns:xlink="http://www.w3.org/1999/xlink" xmlns:svgjs="http://svgjs.dev/svgjs" viewBox="1238.519 517.55051 66.23090000000002 112.74045000000001"><path class="circo" id="id-068-01" d="M 1295.9469,540.91315 1295.6712,540.22925 1296.0947,538.14449 1291.8281,536.78444 1291.2922,537.00782 1290.4736,536.70187 1289.7224,534.66404 1289.139,534.05904 1288.3255,534.32789 1288.1391,535.18245 1286.4425,534.81956 1285.2463,534.72625 1285.0182,535.06034 1284.6688,536.17683 1285.9875,537.00731 1285.8627,537.40003 1285.0897,537.60823 1284.2939,537.32167 1284.0052,537.65805 1283.1184,540.59235 1281.4967,541.28526 1281.5062,541.13206 1280.0695,541.77334 1279.8594,542.64424 1279.4156,545.94751 1279.5405,546.34084 1278.7315,548.19859 1279.5111,549.15729 1279.3209,549.52282 1281.688,550.42931 1281.8516,551.69092 1281.6138,552.09025 1281.4316,553.61643 1281.8139,553.62278 1281.8649,554.00357 1281.3114,554.95456 1282.9069,557.45102 1283.7214,557.75042 1286.3042,557.65083 1287.3158,558.48482 1289.6814,559.52697 1290.0222,560.24441 1290.0156,560.34142 1289.8894,562.62741 1292.0749,563.04994 1293.4529,564.11345 1296.4975,564.11979 1296.3305,564.68549 1295.4662,565.58392 1293.2925,565.61399 1293.0236,566.85758 1293.0034,567.15376 1296.0508,567.02641 1299.5178,567.43572 1301.2504,567.22086 1301.3904,566.06386 1303.1507,563.69479 1304.7499,560.50902 1303.5961,557.12238 1301.0354,554.00154 1300.1966,552.54575 1300.6043,549.58374 1300.2582,546.90692 1300.8255,545.22405 1301.1474,543.57689 1300.9845,541.72445 1298.8338,541.65581 1295.9469,540.91315 z">
      <title id="t344">Première circonscription du Haut-Rhin</title>
      <desc id="d344">Cantons de : Andolsheim, Colmar Nord, Colmar Sud, Neuf-Brisach</desc>
    </path><path class="circo" id="id-068-02" d="M 1272.336,568.46047 1271.381,570.31641 1270.3329,569.78366 1269.2991,570.3282 1268.8064,570.18874 1268.219,570.80525 1267.3079,569.91919 1267.7365,570.62523 1267.3924,570.86293 1265.4,570.3036 1266.073,569.44347 1266.7977,569.33328 1266.0636,568.99383 1263.7008,569.99349 1261.6557,569.47365 1261.4902,568.66971 1260.3148,569.54072 1260.3023,569.56291 1259.2842,569.18087 1258.6196,569.43206 1257.7987,569.22385 1257.4198,568.46034 1256.1618,568.53035 1255.0578,566.99001 1255.4671,565.37978 1255.1392,564.6129 1254.7221,564.58689 1254.3042,563.77297 1252.5155,562.62259 1251.4008,561.30088 1250.436,559.39617 1250.2959,555.96677 1250.9617,554.84985 1252.0832,554.20946 1253.2269,552.43757 1252.6938,551.71279 1253.4473,550.16557 1253.8507,549.98448 1253.9422,549.10679 1254.7856,547.5797 1256.2555,546.66136 1257.8494,543.62794 1258.3855,543.36774 1259.0192,540.72747 1257.6952,540.53262 1256.8842,539.45904 1258.5325,536.29547 1258.4577,535.4143 1258.9494,534.5831 1259.2601,533.77908 1260.9,532.43317 1260.8376,531.64852 1261.7583,530.79809 1262.6443,528.50656 1263.1408,526.24333 1264.5069,523.49718 1265.2739,523.09022 1265.3379,522.98538 1265.5809,521.78885 1266.6747,520.4991 1266.523,519.26289 1268.3225,518.68278 1268.7195,517.60317 1269.1507,517.67806 1270.4261,517.55051 1272.7108,518.51525 1273.9279,518.27705 1275.1841,518.29341 1275.8545,519.37648 1276.5837,519.72937 1276.5577,520.12504 1277.3615,521.13245 1276.6935,522.25374 1276.8439,522.67621 1278.1132,522.96431 1280.2545,522.45361 1280.034,522.74874 1279.3122,523.63419 1278.5802,523.74004 1278.4833,525.05429 1279.5228,525.90853 1281.7445,525.65273 1285.7587,527.58733 1286.6373,528.58873 1287.0831,528.52978 1288.8807,529.42886 1289.6731,529.56664 1290.166,530.21773 1292.4064,531.25635 1292.117,531.99616 1292.0511,533.97349 1291.8281,536.78444 1291.2922,537.00782 1290.4736,536.70187 1289.7224,534.66404 1289.139,534.05904 1288.3255,534.32789 1288.1391,535.18245 1286.4425,534.81956 1285.2463,534.72625 1285.0182,535.06034 1284.6688,536.17683 1285.9875,537.00731 1285.8627,537.40003 1285.0897,537.60823 1284.2939,537.32167 1284.0052,537.65805 1283.1184,540.59235 1281.4967,541.28526 1281.5062,541.13206 1280.0695,541.77334 1279.8594,542.64424 1279.4156,545.94751 1279.5405,546.34084 1278.7315,548.19859 1279.5111,549.15729 1279.3209,549.52282 1281.688,550.42931 1281.8516,551.69092 1281.6138,552.09025 1281.4316,553.61643 1281.8139,553.62278 1281.8649,554.00357 1281.3114,554.95456 1280.9647,556.54664 1281.0876,558.03037 1280.4374,559.64849 1280.3356,562.04707 1281.0661,562.9545 1281.057,563.74099 1280.3191,563.67969 1279.7807,565.14252 1280.1803,567.02603 1279.8791,567.07347 1278.1565,567.03834 1275.6524,567.62978 1274.7861,567.44321 1272.336,568.46047 z">
      <title id="t345">Deuxième circonscription du Haut-Rhin</title>
      <desc id="d345">Cantons de : Guebwiller, Kaysersberg, Lapoutroie, Munster, Ribeauvillé, Rouffach, Sainte-Marie-aux-Mines, Wintzenheim</desc>
    </path><path class="circo" id="id-068-03" d="M 1286.6623,609.03362 1285.0618,606.52112 1284.0185,606.92332 1283.2848,606.66763 1282.3836,605.97427 1281.4985,605.99684 1280.5913,605.65462 1280.4136,605.23898 1279.5332,603.57489 1280.8295,602.53188 1278.8007,600.73121 1279.0822,599.23121 1277.8202,598.74094 1276.2223,597.68644 1275.6041,596.65462 1275.9993,595.68465 1276.779,594.9314 1276.0796,592.83793 1275.2549,592.63817 1273.2115,592.3554 1272.1499,593.45636 1272.0616,593.79202 1271.7729,595.07097 1272.2533,595.80727 1272.0955,596.33716 1271.0494,595.82445 1269.9511,595.7997 1268.881,597.50766 1268.2518,597.41271 1267.34,596.93506 1267.4851,596.14269 1266.3389,595.02423 1265.5934,594.97801 1265.3789,595.30248 1264.1504,594.29264 1262.5565,594.58115 1261.6439,593.86504 1261.629,593.93263 1260.0598,593.45902 1258.3209,594.49348 1257.6341,593.27962 1255.8532,592.50108 1255.0457,592.44031 1254.2082,594.4854 1255.1506,596.1 1254.9543,596.14572 1255.1491,596.68606 1255.7536,597.2679 1255.0643,598.30202 1255.4063,598.64728 1255.7142,598.90429 1254.8603,600.25733 1255.2009,601.42587 1253.5486,601.39004 1253.2733,602.1004 1253.0292,604.05257 1252.7598,603.97966 1252.4311,604.44836 1252.2946,605.31086 1252.7163,607.18467 1252.6482,607.85848 1253.3413,608.17097 1253.5278,609.22683 1253.9592,609.13974 1254.0256,608.70352 1255.5301,607.78549 1258.1577,607.9234 1258.1859,607.92491 1258.5285,608.17778 1259.1233,608.65739 1259.2114,609.60491 1259.4216,609.8339 1259.886,611.12208 1260.7983,611.82497 1261.0056,613.00066 1260.8937,613.91331 1261.9613,614.38343 1263.0495,615.30432 1263.1516,615.38453 1263.5857,616.51728 1263.9501,617.2264 1263.4779,619.33668 1262.9448,619.99479 1264.4892,620.64428 1265.3915,621.52555 1266.2224,621.6965 1268.7096,621.18349 1269.0622,621.42013 1268.2967,621.76254 1267.8226,622.45613 1266.9949,624.38695 1267.0169,625.64048 1266.4993,627.22888 1266.7177,627.58495 1269.3945,628.56256 1270.8485,627.98222 1271.9173,628.31273 1272.0915,629.13091 1272.8728,630.29096 1277.7038,628.13981 1279.4536,628.05222 1280.6733,627.84863 1281.7134,628.5711 1284.7013,628.92974 1285.8953,628.50023 1287.7826,626.94608 1288.4218,625.49729 1289.6597,625.16588 1290.4124,623.69947 1288.5147,622.70794 1287.6702,622.87018 1288.821,620.63157 1290.5088,621.70581 1292.2851,622.84541 1293.1402,622.65712 1294.4453,621.49774 1295.0396,620.8501 1295.2266,619.55401 1294.1791,617.70447 1294.661,618.42202 1295.9397,618.33656 1296.3598,618.23135 1296.9176,617.06276 1296.8597,616.63373 1296.1482,616.17283 1294.5743,616.7454 1294.2839,615.94105 1294.7491,614.96749 1295.0358,614.74208 1295.8422,614.61464 1298.7668,612.39628 1299.155,612.20303 1299.551,611.02985 1300.7246,610.78894 1301.5291,610.84261 1302.2746,607.67822 1300.684,605.78942 1300.0916,603.77987 1296.4636,600.1893 1296.0747,600.34668 1296.373,601.9919 1297.152,603.49946 1295.128,603.93918 1292.0772,605.78425 1290.8559,606.80165 1290.6624,606.81678 1289.6617,607.42395 1289.7706,607.80402 1288.5828,608.3177 1288.0872,608.52958 1287.1041,609.19582 1286.727,609.0713 1286.6623,609.03362 z">
      <title id="t346">Troisième circonscription du Haut-Rhin</title>
      <desc id="d346">Cantons de : Altkirch, Dannemarie, Ferrette, Hirsingue, Huningue</desc>
    </path><path class="circo" id="id-068-04" d="M 1268.2518,597.41271 1267.34,596.93506 1267.4851,596.14269 1266.3389,595.02423 1265.5934,594.97801 1265.3789,595.30248 1264.1504,594.29264 1262.5565,594.58115 1261.6439,593.86504 1261.629,593.93263 1260.0598,593.45902 1258.3209,594.49348 1257.6341,593.27962 1255.8532,592.50108 1255.0457,592.44031 1254.5919,591.85552 1253.6162,590.81242 1253.2063,589.67182 1252.8584,589.90352 1251.7312,589.37337 1249.685,588.64304 1246.6332,586.17056 1245.3583,586.30854 1245.2654,586.05206 1244.0063,585.34084 1243.5427,585.50135 1242.659,585.26153 1240.3863,584.46901 1239.0398,582.36209 1239.0158,581.49885 1238.519,580.79588 1238.79,579.61721 1239.9687,579.37603 1240.598,578.81021 1243.0322,578.34741 1243.1174,578.11771 1243.9772,576.69387 1245.069,576.1548 1244.9719,575.1728 1244.0112,574.34524 1243.9714,573.49387 1243.9704,572.2433 1243.2227,571.28797 1244.9338,570.05587 1244.813,569.64545 1245.4696,569.1058 1245.7035,568.31641 1245.2485,567.65831 1244.4143,567.52425 1245.477,566.15304 1245.0972,564.02018 1245.3899,563.19882 1245.5374,562.33826 1246.0036,560.82758 1247.0851,559.65522 1247.1084,558.18025 1247.0632,557.32411 1247.4112,557.07373 1247.7793,556.85535 1248.5882,557.11121 1249.5018,556.21059 1250.2959,555.96677 1250.436,559.39617 1251.4008,561.30088 1252.5155,562.62259 1254.3042,563.77297 1254.7221,564.58689 1255.1392,564.6129 1255.4671,565.37978 1255.0578,566.99001 1256.1618,568.53035 1257.4198,568.46034 1257.7987,569.22385 1258.6196,569.43206 1259.2842,569.18087 1260.3023,569.56291 1260.3148,569.54072 1261.4902,568.66971 1261.6557,569.47365 1263.7008,569.99349 1266.0636,568.99383 1266.7977,569.33328 1266.073,569.44347 1265.4,570.3036 1267.3924,570.86293 1267.7365,570.62523 1267.3079,569.91919 1268.219,570.80525 1268.8064,570.18874 1269.2991,570.3282 1270.3329,569.78366 1271.381,570.31641 1272.336,568.46047 1274.7861,567.44321 1275.6524,567.62978 1278.1565,567.03834 1279.8791,567.07347 1280.1803,567.02603 1279.7807,565.14252 1280.3191,563.67969 1281.057,563.74099 1281.0661,562.9545 1280.3356,562.04707 1280.4374,559.64849 1281.0876,558.03037 1280.9647,556.54664 1281.3114,554.95456 1282.9069,557.45102 1283.7214,557.75042 1286.3042,557.65083 1287.3158,558.48482 1289.6814,559.52697 1290.0222,560.24441 1290.0156,560.34142 1289.8894,562.62741 1292.0749,563.04994 1293.4529,564.11345 1296.4975,564.11979 1296.3305,564.68549 1295.4662,565.58392 1293.2925,565.61399 1293.0236,566.85758 1293.0034,567.15376 1296.0508,567.02641 1299.5178,567.43572 1301.2504,567.22086 1301.3803,570.07501 1300.9635,570.8576 1299.2734,572.27004 1299.096,573.58954 1299.7528,576.0432 1299.0012,575.71069 1297.9548,577.93258 1294.6644,577.17603 1291.793,577.93688 1291.1306,579.37046 1289.3793,579.41515 1288.1064,578.20888 1287.7805,578.99063 1285.5086,577.93992 1285.3669,578.33944 1283.6889,578.51646 1279.859,578.38781 1278.6847,577.95119 1278.3155,577.9184 1277.9084,578.54089 1276.3826,579.3797 1276.1249,580.69259 1274.1859,583.49484 1273.3584,584.20954 1273.6034,584.89545 1273.7946,585.20803 1273.3002,586.11833 1272.0726,586.26871 1269.7369,585.8674 1268.9557,585.6625 1268.2576,586.63294 1267.4669,586.47801 1267.3152,587.32593 1267.8577,587.98281 1267.9638,589.26238 1269.392,590.81507 1267.9998,591.2842 1267.7893,592.21602 1268.6957,593.70713 1269.2502,594.23087 1269.1109,594.9943 1269.9511,595.7997 1268.881,597.50766 1268.2518,597.41271 z">
      <title id="t347">Quatrième circonscription du Haut-Rhin</title>
      <desc id="d347">Cantons de : Cernay, Ensisheim, Masevaux, Saint-Amarin, Soultz-Haut-Rhin, Thann</desc>
    </path><path class="circo" id="id-068-05" d="M 1283.9098,594.9487 1284.124,596.10367 1283.481,596.42316 1281.8703,596.55347 1280.7504,597.16992 1279.8196,597.9859 1279.0822,599.23121 1277.8202,598.74094 1276.2223,597.68644 1275.6041,596.65462 1275.9993,595.68465 1276.779,594.9314 1276.0796,592.83793 1275.2549,592.63817 1273.2115,592.3554 1272.1499,593.45636 1272.0616,593.79202 1271.7729,595.07097 1272.2533,595.80727 1272.0955,596.33716 1271.0494,595.82445 1269.9511,595.7997 1269.1109,594.9943 1269.2502,594.23087 1268.6957,593.70713 1267.7893,592.21602 1267.9998,591.2842 1269.392,590.81507 1272.2962,590.11095 1273.7904,589.27679 1275.8963,589.38652 1275.9777,588.95228 1277.0556,588.18372 1277.9331,588.0722 1278.6864,588.43862 1279.3431,588.16272 1279.8504,588.33356 1279.9812,588.74696 1280.5895,588.48743 1280.873,588.55813 1281.5943,587.34477 1283.1684,587.62814 1283.4818,587.36513 1284.1877,587.77368 1285.362,585.86133 1289.7745,586.85387 1289.6679,587.19442 1290.4879,589.42457 1290.6023,589.67144 1291.5488,592.32507 1291.7395,593.49313 1287.7225,593.71471 1286.9339,594.0736 1284.7287,595.10368 1283.9098,594.9487 z">
      <title id="t348">Cinquième circonscription du Haut-Rhin</title>
      <desc id="d348">Cantons de : Mulhouse Est, Mulhouse Ouest, Mulhouse Sud, Habsheim</desc>
    </path><path class="circo" id="id-068-06" d="M 1296.0747,600.34668 1296.4636,600.1893 1296.0695,599.42471 1296.0492,597.25779 1295.3971,595.65724 1295.5352,594.80775 1297.3368,593.30451 1298.0967,592.31067 1298.4966,590.6897 1297.7535,588.29688 1297.2029,586.81846 1296.9357,584.61614 1297.8565,582.08444 1298.2635,580.92018 1299.6707,577.32877 1299.7528,576.0432 1299.0012,575.71069 1297.9548,577.93258 1294.6644,577.17603 1291.793,577.93688 1291.1306,579.37046 1289.3793,579.41515 1288.1064,578.20888 1287.7805,578.99063 1285.5086,577.93992 1285.3669,578.33944 1283.6889,578.51646 1279.859,578.38781 1278.6847,577.95119 1278.3155,577.9184 1277.9084,578.54089 1276.3826,579.3797 1276.1249,580.69259 1274.1859,583.49484 1273.3584,584.20954 1273.6034,584.89545 1273.7946,585.20803 1273.3002,586.11833 1272.0726,586.26871 1269.7369,585.8674 1268.9557,585.6625 1268.2576,586.63294 1267.4669,586.47801 1267.3152,587.32593 1267.8577,587.98281 1267.9638,589.26238 1269.392,590.81507 1272.2962,590.11095 1273.7904,589.27679 1275.8963,589.38652 1275.9777,588.95228 1277.0556,588.18372 1277.9331,588.0722 1278.6864,588.43862 1279.3431,588.16272 1279.8504,588.33356 1279.9812,588.74696 1280.5895,588.48743 1280.873,588.55813 1281.5943,587.34477 1283.1684,587.62814 1283.4818,587.36513 1284.1877,587.77368 1285.362,585.86133 1289.7745,586.85387 1289.6679,587.19442 1290.4879,589.42457 1290.6023,589.67144 1291.5488,592.32507 1291.7395,593.49313 1287.7225,593.71471 1286.9339,594.0736 1284.7287,595.10368 1283.9098,594.9487 1284.124,596.10367 1283.481,596.42316 1281.8703,596.55347 1280.7504,597.16992 1279.8196,597.9859 1279.0822,599.23121 1278.8007,600.73121 1280.8295,602.53188 1279.5332,603.57489 1280.4136,605.23898 1280.5913,605.65462 1281.4985,605.99684 1282.3836,605.97427 1283.2848,606.66763 1284.0185,606.92332 1285.0618,606.52112 1286.6623,609.03362 1286.727,609.0713 1287.1041,609.19582 1288.0872,608.52958 1288.5828,608.3177 1289.7706,607.80402 1289.6617,607.42395 1290.6624,606.81678 1290.8559,606.80165 1292.0772,605.78425 1295.128,603.93918 1297.152,603.49946 1296.373,601.9919 1296.0747,600.34668 z">
      <title id="t349">Sixième circonscription du Haut-Rhin</title>
      <desc id="d349">Cantons de : Illzach, Mulhouse Nord, Sierentz, Wittenheim</desc>
    </path></svg>