<svg xmlns="http://www.w3.org/2000/svg" version="1.1" xmlns:xlink="http://www.w3.org/1999/xlink" xmlns:svgjs="http://svgjs.dev/svgjs" viewBox="0 0 66.23090000000002 112.74045000000001"><path class="circo" id="id-068-01" d="M57.42789999999991 23.362639999999942L57.15219999999999 22.678739999999948L57.5757000000001 20.593979999999988L53.309099999999944 19.233929999999987L52.77320000000009 19.457310000000007L51.95460000000003 19.151359999999954L51.2034000000001 17.11352999999997L50.61999999999989 16.50852999999995L49.806499999999915 16.777379999999994L49.62010000000009 17.631939999999986L47.923500000000104 17.269049999999993L46.727300000000014 17.17574000000002L46.49919999999997 17.509829999999965L46.149799999999914 18.626319999999964L47.46849999999995 19.45679999999993L47.3436999999999 19.849519999999984L46.57069999999999 20.057720000000018L45.77489999999989 19.77116000000001L45.48620000000005 20.10753999999997L44.59940000000006 23.04183999999998L42.97769999999991 23.734749999999963L42.98720000000003 23.581549999999993L41.550500000000056 24.22282999999993L41.340400000000045 25.093729999999937L40.896600000000035 28.396999999999935L41.02150000000006 28.790329999999926L40.21250000000009 30.648079999999936L40.99209999999994 31.606779999999958L40.80189999999993 31.972309999999993L43.169000000000096 32.878799999999956L43.33259999999996 34.140409999999974L43.09480000000008 34.53973999999994L42.912599999999884 36.065920000000006L43.2949000000001 36.07227L43.34590000000003 36.45305999999994L42.79240000000004 37.404049999999984L44.387899999999945 39.90050999999994L45.2023999999999 40.19990999999993L47.78520000000003 40.10032000000001L48.796800000000076 40.93430999999998L51.162399999999934 41.976459999999975L51.503200000000106 42.693899999999985L51.496599999999944 42.79090999999994L51.37040000000002 45.07690000000002L53.555900000000065 45.49942999999996L54.933899999999994 46.56293999999991L57.97849999999994 46.569279999999935L57.811500000000024 47.13497999999993L56.947200000000066 48.03341L54.77350000000001 48.06347999999991L54.50459999999998 49.30706999999995L54.48440000000005 49.60325L57.531799999999976 49.475900000000024L60.998800000000074 49.885209999999915L62.731399999999894 49.670349999999985L62.871399999999994 48.513349999999946L64.63169999999991 46.14427999999998L66.23090000000002 42.95850999999993L65.07709999999997 39.57186999999999L62.516399999999976 36.451029999999946L61.677599999999984 34.99523999999997L62.08529999999996 32.03323L61.73919999999998 29.356409999999983L62.306499999999915 27.673540000000003L62.628400000000056 26.026380000000017L62.46550000000002 24.173940000000016L60.314800000000105 24.105299999999943L57.42789999999991 23.362639999999942z">
      <title id="t344">Première circonscription du Haut-Rhin</title>
      <desc id="d344">Cantons de : Andolsheim, Colmar Nord, Colmar Sud, Neuf-Brisach</desc>
    </path><path class="circo" id="id-068-02" d="M33.81700000000001 50.909959999999955L32.86200000000008 52.76589999999999L31.813900000000103 52.23315000000002L30.780099999999948 52.77769000000001L30.287399999999934 52.63823000000002L29.700000000000045 53.25473999999997L28.788900000000012 52.36867999999993L29.217499999999973 53.07471999999996L28.873399999999947 53.312419999999975L26.881000000000085 52.75308999999993L27.554000000000087 51.892960000000016L28.27870000000007 51.782769999999914L27.544599999999946 51.44331999999997L25.181800000000067 52.44297999999992L23.13670000000002 51.92313999999999L22.971199999999953 51.11919999999998L21.7958000000001 51.990209999999934L21.783300000000054 52.01239999999996L20.76520000000005 51.630359999999996L20.100599999999986 51.88154999999995L19.279700000000048 51.67333999999994L18.90079999999989 50.90982999999994L17.64280000000008 50.97983999999997L16.538800000000037 49.43949999999995L16.948100000000068 47.82926999999995L16.620200000000068 47.06238999999994L16.20309999999995 47.03638000000001L15.785200000000032 46.222459999999955L13.996499999999969 45.072079999999914L12.881799999999885 43.750369999999975L11.916999999999916 41.84565999999995L11.776900000000069 38.416259999999966L12.442700000000059 37.299339999999916L13.564200000000028 36.658950000000004L14.707899999999881 34.88706000000002L14.174800000000005 34.16228000000001L14.928300000000036 32.61505999999997L15.331699999999955 32.43396999999993L15.423199999999952 31.556280000000015L16.266599999999926 30.02918999999997L17.736499999999978 29.110849999999914L19.330400000000054 26.077429999999936L19.866500000000087 25.817229999999995L20.50019999999995 23.176960000000008L19.176200000000108 22.98210999999992L18.36519999999996 21.908529999999928L20.013500000000022 18.744959999999992L19.938699999999926 17.863789999999995L20.430399999999963 17.032589999999914L20.74109999999996 16.22856999999999L22.381000000000085 14.882659999999987L22.31860000000006 14.098009999999931L23.239299999999957 13.24757999999997L24.125299999999925 10.956050000000005L24.621799999999894 8.692819999999983L25.98790000000008 5.946669999999926L26.754899999999907 5.539710000000014L26.818899999999985 5.434869999999933L27.061899999999923 4.238339999999994L28.155700000000024 2.9485899999999674L28.003999999999905 1.7123799999999392L29.803499999999985 1.1322699999999486L30.20049999999992 0.052659999999946194L30.63169999999991 0.12754999999992833L31.9070999999999 0L34.19180000000006 0.9647400000000061L35.4088999999999 0.72654L36.66509999999994 0.7428999999999633L37.33549999999991 1.8259699999999839L38.0646999999999 2.178859999999986L38.03870000000006 2.5745299999999816L38.84249999999997 3.5819399999999177L38.17450000000008 4.703229999999962L38.32490000000007 5.125699999999938L39.5942 5.413799999999924L41.7355 4.903099999999995L41.5150000000001 5.198229999999967L40.79320000000007 6.0836799999999585L40.0612000000001 6.189529999999991L39.964300000000094 7.503780000000006L41.003799999999956 8.35802000000001L43.22550000000001 8.102219999999988L47.239700000000084 10.03681999999992L48.11830000000009 11.038220000000024L48.56410000000005 10.979269999999929L50.36169999999993 11.878349999999955L51.15409999999997 12.016129999999976L51.646999999999935 12.66721999999993L53.88740000000007 13.705839999999966L53.597999999999956 14.44565L53.5320999999999 16.42297999999994L53.309099999999944 19.233929999999987L52.77320000000009 19.457310000000007L51.95460000000003 19.151359999999954L51.2034000000001 17.11352999999997L50.61999999999989 16.50852999999995L49.806499999999915 16.777379999999994L49.62010000000009 17.631939999999986L47.923500000000104 17.269049999999993L46.727300000000014 17.17574000000002L46.49919999999997 17.509829999999965L46.149799999999914 18.626319999999964L47.46849999999995 19.45679999999993L47.3436999999999 19.849519999999984L46.57069999999999 20.057720000000018L45.77489999999989 19.77116000000001L45.48620000000005 20.10753999999997L44.59940000000006 23.04183999999998L42.97769999999991 23.734749999999963L42.98720000000003 23.581549999999993L41.550500000000056 24.22282999999993L41.340400000000045 25.093729999999937L40.896600000000035 28.396999999999935L41.02150000000006 28.790329999999926L40.21250000000009 30.648079999999936L40.99209999999994 31.606779999999958L40.80189999999993 31.972309999999993L43.169000000000096 32.878799999999956L43.33259999999996 34.140409999999974L43.09480000000008 34.53973999999994L42.912599999999884 36.065920000000006L43.2949000000001 36.07227L43.34590000000003 36.45305999999994L42.79240000000004 37.404049999999984L42.44569999999999 38.996129999999994L42.56860000000006 40.47985999999992L41.91840000000002 42.09798000000001L41.81660000000011 44.49655999999993L42.5471 45.40399000000002L42.53800000000001 46.19047999999998L41.80009999999993 46.12918000000002L41.26170000000002 47.59200999999996L41.66129999999998 49.47551999999996L41.3601000000001 49.52296000000001L39.637500000000045 49.48782999999992L37.13339999999994 50.07926999999995L36.26710000000003 49.89269999999999L33.81700000000001 50.909959999999955z">
      <title id="t345">Deuxième circonscription du Haut-Rhin</title>
      <desc id="d345">Cantons de : Guebwiller, Kaysersberg, Lapoutroie, Munster, Ribeauvillé, Rouffach, Sainte-Marie-aux-Mines, Wintzenheim</desc>
    </path><path class="circo" id="id-068-03" d="M48.143299999999954 91.48311000000001L46.54279999999994 88.97060999999997L45.4994999999999 89.37280999999996L44.7657999999999 89.11712L43.86459999999988 88.42376000000002L42.979499999999916 88.44632999999999L42.07230000000004 88.10410999999999L41.89460000000008 87.68846999999994L41.01420000000007 86.02437999999995L42.31050000000005 84.98136999999997L40.2817 83.1807L40.56320000000005 81.6807L39.30120000000011 81.19042999999999L37.7032999999999 80.13592999999992L37.08510000000001 79.10410999999999L37.48029999999994 78.13414L38.25999999999999 77.38089000000002L37.56060000000002 75.28742L36.7358999999999 75.08765999999991L34.69249999999988 74.80489L33.63089999999988 75.90584999999999L33.54259999999999 76.24150999999995L33.25389999999993 77.52045999999996L33.734300000000076 78.25675999999999L33.576499999999896 78.78665000000001L32.5304000000001 78.27393999999993L31.43209999999999 78.24919L30.36200000000008 79.95714999999996L29.732799999999997 79.86219999999992L28.820999999999913 79.38454999999999L28.966100000000097 78.59217999999998L27.81989999999996 77.47371999999996L27.07439999999997 77.42750000000001L26.859899999999925 77.75196999999991L25.631399999999985 76.74212999999997L24.03749999999991 77.03063999999995L23.124900000000025 76.31452999999999L23.1099999999999 76.38211999999999L21.54079999999999 75.90850999999998L19.801899999999932 76.94296999999995L19.115099999999984 75.72910999999999L17.33420000000001 74.95056999999997L16.52669999999989 74.88979999999992L15.689200000000028 76.93489L16.631599999999935 78.54948999999999L16.435300000000097 78.59520999999995L16.630100000000084 79.13554999999997L17.2346 79.71739000000002L16.545299999999997 80.75150999999994L16.887300000000096 81.09676999999999L17.195199999999886 81.35377999999992L16.341300000000047 82.70682L16.68190000000004 83.87536L15.029600000000073 83.83952999999997L14.754300000000057 84.54989L14.51019999999994 86.50205999999991L14.240800000000036 86.42914999999994L13.91210000000001 86.89784999999995L13.77559999999994 87.76035000000002L14.197300000000041 89.63415999999995L14.129200000000083 90.30796999999995L14.822300000000041 90.62045999999998L15.008800000000065 91.67631999999992L15.440200000000004 91.58922999999993L15.506599999999935 91.15301L17.011099999999942 90.23497999999995L19.63869999999997 90.37288999999998L19.66689999999994 90.37439999999992L20.00949999999989 90.62726999999995L20.604299999999967 91.10687999999993L20.692399999999907 92.05439999999999L20.902599999999893 92.28338999999994L21.366999999999962 93.57156999999995L22.27929999999992 94.27445999999998L22.486599999999953 95.45015000000001L22.374700000000075 96.3628L23.442299999999932 96.83291999999994L24.530500000000075 97.75380999999993L24.63259999999991 97.83402000000001L25.066700000000083 98.96677L25.431100000000015 99.67588999999998L24.958900000000085 101.78616999999997L24.42579999999998 102.44427999999994L25.970199999999977 103.09376999999995L26.872499999999945 103.97503999999992L27.7034000000001 104.14598999999998L30.190599999999904 103.63297999999998L30.54320000000007 103.86961999999994L29.777700000000095 104.21202999999991L29.30359999999996 104.90562L28.47589999999991 106.83643999999993L28.497900000000072 108.08997L27.980299999999943 109.67836999999997L28.198699999999917 110.03444000000002L30.875500000000102 111.01204999999993L32.32950000000005 110.43170999999995L33.39830000000006 110.76221999999996L33.57249999999999 111.58039999999994L34.35380000000009 112.74045000000001L39.184799999999996 110.58929999999998L40.934600000000046 110.50171L42.15429999999992 110.29811999999993L43.19440000000009 111.02058999999997L46.18229999999994 111.37923L47.3762999999999 110.94971999999996L49.2636 109.39557000000002L49.90280000000007 107.94677999999999L51.140699999999924 107.61536999999998L51.89339999999993 106.14895999999999L49.99569999999994 105.15742999999998L49.15120000000002 105.31966999999997L50.30199999999991 103.08105999999998L51.98980000000006 104.15530000000001L53.76610000000005 105.29489999999998L54.621200000000044 105.10660999999993L55.92630000000008 103.94722999999999L56.52060000000006 103.29958999999997L56.70759999999996 102.00349999999992L55.66010000000006 100.15395999999998L56.14200000000005 100.87150999999994L57.4206999999999 100.78604999999993L57.840799999999945 100.68083999999999L58.39859999999999 99.51225L58.34069999999997 99.08321999999998L57.62920000000008 98.62231999999995L56.05529999999999 99.19488999999999L55.7648999999999 98.39053999999999L56.23009999999999 97.41697999999997L56.5168000000001 97.19156999999996L57.32320000000004 97.06412999999998L60.2478000000001 94.84577000000002L60.63599999999997 94.65251999999998L61.031999999999925 93.47933999999998L62.205600000000004 93.23843L63.010099999999966 93.2921L63.75559999999996 90.12770999999998L62.164999999999964 88.23890999999992L61.572599999999966 86.22935999999993L57.94460000000004 82.63878999999997L57.55569999999989 82.79616999999996L57.85400000000004 84.44138999999996L58.63300000000004 85.94894999999997L56.608999999999924 86.38866999999993L53.55819999999994 88.23374000000001L52.336900000000014 89.25113999999996L52.14339999999993 89.26626999999996L51.142700000000104 89.87343999999996L51.25160000000005 90.25351L50.0637999999999 90.76718999999991L49.56819999999993 90.97906999999998L48.58510000000001 91.64531L48.208000000000084 91.52078999999992L48.143299999999954 91.48311000000001z">
      <title id="t346">Troisième circonscription du Haut-Rhin</title>
      <desc id="d346">Cantons de : Altkirch, Dannemarie, Ferrette, Hirsingue, Huningue</desc>
    </path><path class="circo" id="id-068-04" d="M29.732799999999997 79.86219999999992L28.820999999999913 79.38454999999999L28.966100000000097 78.59217999999998L27.81989999999996 77.47371999999996L27.07439999999997 77.42750000000001L26.859899999999925 77.75196999999991L25.631399999999985 76.74212999999997L24.03749999999991 77.03063999999995L23.124900000000025 76.31452999999999L23.1099999999999 76.38211999999999L21.54079999999999 75.90850999999998L19.801899999999932 76.94296999999995L19.115099999999984 75.72910999999999L17.33420000000001 74.95056999999997L16.52669999999989 74.88979999999992L16.07289999999989 74.30500999999992L15.09719999999993 73.26190999999994L14.68730000000005 72.12131L14.339400000000069 72.35300999999993L13.212199999999939 71.82285999999999L11.16599999999994 71.09253000000001L8.114199999999983 68.62004999999999L6.839300000000094 68.75802999999996L6.746399999999994 68.50154999999995L5.487300000000005 67.79032999999993L5.0236999999999625 67.95083999999997L4.1400000000001 67.71101999999996L1.8672999999998865 66.9185L0.5208000000000084 64.81157999999994L0.49679999999989377 63.94833999999992L0 63.24536999999998L0.27099999999995816 62.06669999999997L1.4496999999998934 61.82551999999998L2.078999999999951 61.25969999999995L4.513200000000097 60.79689999999994L4.598400000000083 60.56719999999996L5.4582000000000335 59.143359999999916L6.5499999999999545 58.60428999999999L6.4529 57.62229000000002L5.492199999999912 56.79472999999996L5.452399999999898 55.943359999999984L5.451399999999921 54.692789999999945L4.703700000000026 53.73745999999994L6.414800000000014 52.505359999999996L6.294000000000096 52.09493999999995L6.950599999999895 51.555290000000014L7.184500000000071 50.76589999999999L6.729499999999916 50.1078L5.8952999999999065 49.97374000000002L6.958000000000084 48.60253L6.578199999999924 46.46966999999995L6.870899999999892 45.648309999999924L7.018399999999929 44.78774999999996L7.4846 43.27706999999998L8.566100000000006 42.104709999999955L8.589400000000069 40.62973999999997L8.544200000000046 39.77359999999999L8.892200000000003 39.523219999999924L9.260299999999916 39.30484000000001L10.06919999999991 39.5607L10.982799999999997 38.660079999999994L11.776900000000069 38.416259999999966L11.916999999999916 41.84565999999995L12.881799999999885 43.750369999999975L13.996499999999969 45.072079999999914L15.785200000000032 46.222459999999955L16.20309999999995 47.03638000000001L16.620200000000068 47.06238999999994L16.948100000000068 47.82926999999995L16.538800000000037 49.43949999999995L17.64280000000008 50.97983999999997L18.90079999999989 50.90982999999994L19.279700000000048 51.67333999999994L20.100599999999986 51.88154999999995L20.76520000000005 51.630359999999996L21.783300000000054 52.01239999999996L21.7958000000001 51.990209999999934L22.971199999999953 51.11919999999998L23.13670000000002 51.92313999999999L25.181800000000067 52.44297999999992L27.544599999999946 51.44331999999997L28.27870000000007 51.782769999999914L27.554000000000087 51.892960000000016L26.881000000000085 52.75308999999993L28.873399999999947 53.312419999999975L29.217499999999973 53.07471999999996L28.788900000000012 52.36867999999993L29.700000000000045 53.25473999999997L30.287399999999934 52.63823000000002L30.780099999999948 52.77769000000001L31.813900000000103 52.23315000000002L32.86200000000008 52.76589999999999L33.81700000000001 50.909959999999955L36.26710000000003 49.89269999999999L37.13339999999994 50.07926999999995L39.637500000000045 49.48782999999992L41.3601000000001 49.52296000000001L41.66129999999998 49.47551999999996L41.26170000000002 47.59200999999996L41.80009999999993 46.12918000000002L42.53800000000001 46.19047999999998L42.5471 45.40399000000002L41.81660000000011 44.49655999999993L41.91840000000002 42.09798000000001L42.56860000000006 40.47985999999992L42.44569999999999 38.996129999999994L42.79240000000004 37.404049999999984L44.387899999999945 39.90050999999994L45.2023999999999 40.19990999999993L47.78520000000003 40.10032000000001L48.796800000000076 40.93430999999998L51.162399999999934 41.976459999999975L51.503200000000106 42.693899999999985L51.496599999999944 42.79090999999994L51.37040000000002 45.07690000000002L53.555900000000065 45.49942999999996L54.933899999999994 46.56293999999991L57.97849999999994 46.569279999999935L57.811500000000024 47.13497999999993L56.947200000000066 48.03341L54.77350000000001 48.06347999999991L54.50459999999998 49.30706999999995L54.48440000000005 49.60325L57.531799999999976 49.475900000000024L60.998800000000074 49.885209999999915L62.731399999999894 49.670349999999985L62.86130000000003 52.52449999999999L62.44450000000006 53.30709000000002L60.75440000000003 54.71952999999996L60.577 56.039030000000025L61.233799999999974 58.492689999999925L60.48219999999992 58.16017999999997L59.43579999999997 60.38207L56.14539999999988 59.62551999999994L53.27399999999989 60.38636999999994L52.61159999999995 61.81994999999995L50.86030000000005 61.86464000000001L49.58739999999989 60.65836999999999L49.26150000000007 61.44011999999998L46.98959999999988 60.38941L46.84789999999998 60.78892999999994L45.1699000000001 60.96595000000002L41.33999999999992 60.837299999999914L40.165700000000015 60.400679999999966L39.796499999999924 60.36788999999999L39.38940000000002 60.99037999999996L37.863599999999906 61.829189999999926L37.60590000000002 63.142079999999964L35.66689999999994 65.94432999999992L34.83940000000007 66.65902999999992L35.08439999999996 67.34493999999995L35.27559999999994 67.65751999999998L34.7811999999999 68.56781999999998L33.55359999999996 68.71820000000002L31.2179000000001 68.31688999999994L30.436699999999973 68.11198999999999L29.738599999999906 69.08242999999993L28.94789999999989 68.92750000000001L28.7962 69.77541999999994L29.338700000000017 70.43229999999994L29.444799999999987 71.71186999999998L30.873000000000047 73.26455999999996L29.480800000000045 73.73369000000002L29.270299999999907 74.66550999999993L30.176699999999983 76.15661999999998L30.731199999999944 76.68035999999995L30.591899999999896 77.44378999999992L31.43209999999999 78.24919L30.36200000000008 79.95714999999996L29.732799999999997 79.86219999999992z">
      <title id="t347">Quatrième circonscription du Haut-Rhin</title>
      <desc id="d347">Cantons de : Cernay, Ensisheim, Masevaux, Saint-Amarin, Soultz-Haut-Rhin, Thann</desc>
    </path><path class="circo" id="id-068-05" d="M45.3907999999999 77.39819L45.60500000000002 78.55315999999993L44.96199999999999 78.87265000000002L43.35130000000004 79.00295999999992L42.231399999999894 79.61941000000002L41.30060000000003 80.43538999999998L40.56320000000005 81.6807L39.30120000000011 81.19042999999999L37.7032999999999 80.13592999999992L37.08510000000001 79.10410999999999L37.48029999999994 78.13414L38.25999999999999 77.38089000000002L37.56060000000002 75.28742L36.7358999999999 75.08765999999991L34.69249999999988 74.80489L33.63089999999988 75.90584999999999L33.54259999999999 76.24150999999995L33.25389999999993 77.52045999999996L33.734300000000076 78.25675999999999L33.576499999999896 78.78665000000001L32.5304000000001 78.27393999999993L31.43209999999999 78.24919L30.591899999999896 77.44378999999992L30.731199999999944 76.68035999999995L30.176699999999983 76.15661999999998L29.270299999999907 74.66550999999993L29.480800000000045 73.73369000000002L30.873000000000047 73.26455999999996L33.77719999999999 72.56043999999997L35.271400000000085 71.72627999999997L37.377300000000105 71.83600999999999L37.45869999999991 71.40176999999994L38.53659999999991 70.63320999999996L39.41409999999996 70.52168999999992L40.16740000000004 70.88810999999998L40.824100000000044 70.61221L41.33140000000003 70.78305L41.46219999999994 71.19644999999991L42.07050000000004 70.93691999999999L42.35400000000004 71.00761999999997L43.07529999999997 69.79426000000001L44.649400000000014 70.07763L44.962800000000016 69.81461999999999L45.668699999999944 70.22316999999998L46.843000000000075 68.31081999999992L51.255499999999984 69.30336L51.14889999999991 69.64391L51.968900000000076 71.87405999999999L52.08330000000001 72.12092999999993L53.02980000000002 74.77455999999995L53.2204999999999 75.94261999999992L49.203500000000076 76.16419999999994L48.41489999999999 76.52309000000002L46.209699999999884 77.55317000000002L45.3907999999999 77.39819z">
      <title id="t348">Cinquième circonscription du Haut-Rhin</title>
      <desc id="d348">Cantons de : Mulhouse Est, Mulhouse Ouest, Mulhouse Sud, Habsheim</desc>
    </path><path class="circo" id="id-068-06" d="M57.55569999999989 82.79616999999996L57.94460000000004 82.63878999999997L57.550500000000056 81.87419999999997L57.53019999999992 79.70727999999997L56.878099999999904 78.10672999999997L57.016200000000026 77.25724000000002L58.817800000000034 75.75400000000002L59.57770000000005 74.76015999999993L59.97759999999994 73.13918999999999L59.234500000000025 70.74636999999996L58.683899999999994 69.26794999999993L58.41669999999999 67.06562999999994L59.33750000000009 64.53392999999994L59.744500000000016 63.36966999999993L61.15169999999989 59.77825999999993L61.233799999999974 58.492689999999925L60.48219999999992 58.16017999999997L59.43579999999997 60.38207L56.14539999999988 59.62551999999994L53.27399999999989 60.38636999999994L52.61159999999995 61.81994999999995L50.86030000000005 61.86464000000001L49.58739999999989 60.65836999999999L49.26150000000007 61.44011999999998L46.98959999999988 60.38941L46.84789999999998 60.78892999999994L45.1699000000001 60.96595000000002L41.33999999999992 60.837299999999914L40.165700000000015 60.400679999999966L39.796499999999924 60.36788999999999L39.38940000000002 60.99037999999996L37.863599999999906 61.829189999999926L37.60590000000002 63.142079999999964L35.66689999999994 65.94432999999992L34.83940000000007 66.65902999999992L35.08439999999996 67.34493999999995L35.27559999999994 67.65751999999998L34.7811999999999 68.56781999999998L33.55359999999996 68.71820000000002L31.2179000000001 68.31688999999994L30.436699999999973 68.11198999999999L29.738599999999906 69.08242999999993L28.94789999999989 68.92750000000001L28.7962 69.77541999999994L29.338700000000017 70.43229999999994L29.444799999999987 71.71186999999998L30.873000000000047 73.26455999999996L33.77719999999999 72.56043999999997L35.271400000000085 71.72627999999997L37.377300000000105 71.83600999999999L37.45869999999991 71.40176999999994L38.53659999999991 70.63320999999996L39.41409999999996 70.52168999999992L40.16740000000004 70.88810999999998L40.824100000000044 70.61221L41.33140000000003 70.78305L41.46219999999994 71.19644999999991L42.07050000000004 70.93691999999999L42.35400000000004 71.00761999999997L43.07529999999997 69.79426000000001L44.649400000000014 70.07763L44.962800000000016 69.81461999999999L45.668699999999944 70.22316999999998L46.843000000000075 68.31081999999992L51.255499999999984 69.30336L51.14889999999991 69.64391L51.968900000000076 71.87405999999999L52.08330000000001 72.12092999999993L53.02980000000002 74.77455999999995L53.2204999999999 75.94261999999992L49.203500000000076 76.16419999999994L48.41489999999999 76.52309000000002L46.209699999999884 77.55317000000002L45.3907999999999 77.39819L45.60500000000002 78.55315999999993L44.96199999999999 78.87265000000002L43.35130000000004 79.00295999999992L42.231399999999894 79.61941000000002L41.30060000000003 80.43538999999998L40.56320000000005 81.6807L40.2817 83.1807L42.31050000000005 84.98136999999997L41.01420000000007 86.02437999999995L41.89460000000008 87.68846999999994L42.07230000000004 88.10410999999999L42.979499999999916 88.44632999999999L43.86459999999988 88.42376000000002L44.7657999999999 89.11712L45.4994999999999 89.37280999999996L46.54279999999994 88.97060999999997L48.143299999999954 91.48311000000001L48.208000000000084 91.52078999999992L48.58510000000001 91.64531L49.56819999999993 90.97906999999998L50.0637999999999 90.76718999999991L51.25160000000005 90.25351L51.142700000000104 89.87343999999996L52.14339999999993 89.26626999999996L52.336900000000014 89.25113999999996L53.55819999999994 88.23374000000001L56.608999999999924 86.38866999999993L58.63300000000004 85.94894999999997L57.85400000000004 84.44138999999996L57.55569999999989 82.79616999999996z">
      <title id="t349">Sixième circonscription du Haut-Rhin</title>
      <desc id="d349">Cantons de : Illzach, Mulhouse Nord, Sierentz, Wittenheim</desc>
    </path></svg>