<svg xmlns="http://www.w3.org/2000/svg" version="1.1" xmlns:xlink="http://www.w3.org/1999/xlink" xmlns:svgjs="http://svgjs.dev/svgjs" viewBox="0 0 109.16350000000011 104.97163999999998"><path class="circo" id="id-069-01" d="M77.19049999999993 27.979190000000017L75.5603000000001 27.618499999999926L74.55700000000002 26.689629999999966L76.3886 25.467359999999985L77.14460000000008 23.35033999999996L78.54340000000002 20.386089999999967L79.80179999999996 20.257529999999974L80.41609999999991 20.836130000000026L80.83570000000009 22.700539999999933L81.63689999999997 23.339619999999968L83.00610000000006 22.932140000000004L83.48070000000007 22.44754999999998L84.40370000000007 22.561019999999985L84.7967000000001 23.21348999999998L83.0317 26.628669999999943L85.01960000000008 27.90265999999997L87.51260000000002 28.557559999999967L88.17599999999993 29.647519999999986L89.24029999999993 29.669199999999933L90.02649999999994 28.947450000000003L91.10770000000002 29.677999999999997L89.88360000000011 31.448660000000018L89.27170000000001 32.006149999999934L88.95530000000008 34.405790000000025L86.37709999999993 34.88033999999993L86.54840000000013 37.353830000000016L83.5 35.71887000000004L83.08760000000007 34.650800000000004L82.78970000000004 33.102359999999976L81.80279999999993 29.341519999999946L82.67190000000005 27.203120000000013L81.83480000000009 27.44452000000001L80.32590000000005 26.683649999999943L77.19049999999993 27.979190000000017z">
      <title id="t350">Première circonscription du Rhône</title>
      <desc id="d350">Cantons de : Lyon I [partie située au sud d'une ligne définie par la voie ferrée de Paris à Marseille], Lyon IV [partie située au sud-ouest d'une ligne définie par l'axe des voies ci-après : rue Marietton, grande rue de Vaise, rue saint-Pierre-de-Vaise, boulevard Antoine-de-Saint-Exupéry, montée de l'Observance], Lyon V, Lyon X [partie située au sud d'une ligne définie par la voie ferrée de Paris à Marseille], Lyon XII [partie située au sud d'une ligne définie par l'axe de la rue Marius-Berliet et à l'ouest d'une ligne définie par l'axe des voies ci-après : avenue Berthelot à partir de la place du 11-Novembre-1918, rue Paul-Cazeneuve et avenue Francis-de-Pressensé])</desc>
    </path><path class="circo" id="id-069-02" d="M83.48070000000007 22.44754999999998L83.00610000000006 22.932140000000004L81.63689999999997 23.339619999999968L80.83570000000009 22.700539999999933L80.41609999999991 20.836130000000026L79.80179999999996 20.257529999999974L78.54340000000002 20.386089999999967L77.12699999999995 17.674300000000017L77.5118 17.014800000000037L79.95090000000005 16.471959999999967L80.57150000000001 16.996809999999982L82.66609999999991 14.55619999999999L85.92059999999992 12.354299999999967L86.71199999999999 13.538490000000024L82.82549999999992 17.001570000000015L83.90910000000008 18.33626000000004L86.98469999999998 19.741989999999987L86.40779999999995 21.125599999999963L86.41070000000013 22.823710000000005L86.44450000000006 23.501649999999927L86.20309999999995 25.202959999999962L84.76600000000008 27.74630000000002L83.0317 26.628669999999943L84.7967000000001 23.21348999999998L84.40370000000007 22.561019999999985L83.48070000000007 22.44754999999998z">
      <title id="t351">Deuxième circonscription du Rhône</title>
      <desc id="d351">Cantons de : Lyon I [partie non comprise dans la 1re circonscription], Lyon II, Lyon III, Lyon IV [partie non comprise dans la 1re circonscription])</desc>
    </path><path class="circo" id="id-069-03" d="M84.76600000000008 27.74630000000002L86.20309999999995 25.202959999999962L86.44450000000006 23.501649999999927L88.32920000000013 23.438679999999977L88.68900000000008 24.54347999999993L89.72090000000003 25.125800000000027L89.9221 26.996939999999995L92.49829999999997 28.373309999999947L92.33870000000002 31.497099999999932L94.63850000000002 32.889009999999985L94.63419999999996 33.725149999999985L93.82560000000012 33.91926000000001L89.27170000000001 32.006149999999934L89.88360000000011 31.448660000000018L91.10770000000002 29.677999999999997L90.02649999999994 28.947450000000003L89.24029999999993 29.669199999999933L88.17599999999993 29.647519999999986L87.51260000000002 28.557559999999967L84.76600000000008 27.74630000000002z">
      <title id="t352">Troisième circonscription du Rhône</title>
      <desc id="d352">Cantons de : Lyon VIII, Lyon IX, Lyon X [partie non comprise dans la 1re circonscription], Lyon XII [partie non comprise dans la 1re circonscription], Lyon XIV [partie située à l'ouest d'une ligne définie par l'axe des voies ci-après : rue Feuillat, rue Maryse-Bastié, avenue Paul-Santy, passage Comtois et avenue du Général-Frère])</desc>
    </path><path class="circo" id="id-069-04" d="M86.40779999999995 21.125599999999963L86.41070000000013 22.823710000000005L86.44450000000006 23.501649999999927L88.32920000000013 23.438679999999977L88.68900000000008 24.54347999999993L89.72090000000003 25.125800000000027L89.9221 26.996939999999995L92.49829999999997 28.373309999999947L92.33870000000002 31.497099999999932L94.63850000000002 32.889009999999985L95.56089999999995 29.62704999999994L96.73260000000005 26.273739999999975L92.8134 25.581699999999955L91.67969999999991 23.465439999999944L89.68029999999999 20.97748999999999L90.00649999999996 17.78146000000004L88.45319999999992 17.933840000000032L86.98469999999998 19.741989999999987L86.40779999999995 21.125599999999963z">
      <title id="t353">Quatrième circonscription du Rhône</title>
      <desc id="d353">Cantons de : Lyon VI, Lyon VII, Lyon XI, Lyon XIII, Lyon XIV [partie non comprise dans la 3e circonscription])</desc>
    </path><path class="circo" id="id-069-06" d="M96.73260000000005 26.273739999999975L92.8134 25.581699999999955L91.67969999999991 23.465439999999944L89.68029999999999 20.97748999999999L90.00649999999996 17.78146000000004L91.51569999999992 17.22090000000003L93.18779999999992 15.354709999999955L93.40959999999995 15.47488999999996L94.08960000000002 16.96282999999994L97.98209999999995 18.496599999999944L97.62840000000006 20.994230000000016L100.40599999999995 23.963319999999953L99.96849999999995 27.312469999999962L96.73260000000005 26.273739999999975z">
      <title id="t355">Sixième circonscription du Rhône</title>
      <desc id="d355">Cantons de Villeurbanne Centre, Villeurbanne Nord, Villeurbanne Sud</desc>
    </path><path class="circo" id="id-069-07" d="M94.63850000000002 32.889009999999985L95.56089999999995 29.62704999999994L96.73260000000005 26.273739999999975L99.96849999999995 27.312469999999962L100.40599999999995 23.963319999999953L97.62840000000006 20.994230000000016L97.98209999999995 18.496599999999944L94.08960000000002 16.96282999999994L93.40959999999995 15.47488999999996L93.18779999999992 15.354709999999955L90.89170000000013 10.749140000000011L91.01929999999993 10.673389999999927L90.89640000000009 6.4622699999999895L90.67010000000005 6.150769999999966L91.1273000000001 4.850940000000037L93.03459999999995 2.0493099999999913L96.37570000000005 1.7577099999999746L97.00379999999996 0L98.84899999999993 1.608159999999998L100.58300000000008 6.2157700000000204L100.07729999999992 11.994190000000003L101.05020000000013 13.40005999999994L104.19749999999999 12.14688000000001L105.87830000000008 12.208869999999933L107.99829999999997 11.680809999999951L109.16350000000011 12.553959999999961L103.47849999999994 21.442999999999984L102.5784000000001 28.36334999999997L103.16789999999992 32.853579999999965L98.56880000000001 34.89206999999999L94.63850000000002 32.889009999999985z">
      <title id="t356">Septième circonscription du Rhône</title>
      <desc id="d356">Cantons de : Bron, Rillieux-la-Pape, Vaulx-en-Velin</desc>
    </path><path class="circo" id="id-069-12" d="M75.72949999999992 34.45345999999995L76.02299999999991 33.653279999999995L74.56860000000006 32.18207999999993L68.2840000000001 33.03323999999998L66.69350000000009 30.66504999999995L66.86619999999994 29.93380000000002L71.18319999999994 26.832179999999994L69.75430000000006 26.269990000000007L69.71350000000007 25.484069999999974L67.97759999999994 21.743939999999952L64.71000000000004 22.430409999999938L64.12779999999998 22.176950000000033L64.15080000000012 20.90881999999999L66.7382 20.178049999999985L69.58010000000013 21.862549999999942L72.72900000000004 21.721209999999928L74.60879999999997 23.27040999999997L78.17149999999992 21.07039999999995L77.14460000000008 23.35033999999996L76.3886 25.467359999999985L74.55700000000002 26.689629999999966L75.5603000000001 27.618499999999926L77.19049999999993 27.979190000000017L80.32590000000005 26.683649999999943L81.83480000000009 27.44452000000001L82.67190000000005 27.203120000000013L81.80279999999993 29.341519999999946L82.78970000000004 33.102359999999976L83.08760000000007 34.650800000000004L83.5 35.71887000000004L86.54840000000013 37.353830000000016L87.15949999999998 39.57646L86.12830000000008 41.45961L85.76520000000005 42.639350000000036L84.71000000000004 49.15788999999995L84.46600000000012 50.82016999999996L81.5802000000001 53.73384999999996L80.99350000000004 55.33156999999994L80.85809999999992 55.77500999999995L79.77520000000004 55.89837L78.7786000000001 55.07002L76.4837 54.77328L74.05240000000003 51.78284999999994L75.66049999999996 51.30067999999994L77.66609999999991 48.86131L77.57799999999997 48.02406999999994L78.08889999999997 47.78205000000003L78.20499999999993 46.118619999999964L82.5304000000001 42.040880000000016L83.07060000000001 40.465329999999994L81.04060000000004 39.836599999999976L80.41560000000004 38.483280000000036L75.72949999999992 34.45345999999995z">
      <title id="t361">Douzième circonscription du Rhône</title>
      <desc id="d361">Cantons de : Irigny, Oullins, Sainte-Foy-lès-Lyon, Tassin-la-Demi-Lune</desc>
    </path><path class="circo" id="id-069-14" d="M86.37709999999993 34.88033999999993L86.54840000000013 37.353830000000016L87.15949999999998 39.57646L86.12830000000008 41.45961L85.76520000000005 42.639350000000036L84.71000000000004 49.15788999999995L84.46600000000012 50.82016999999996L81.5802000000001 53.73384999999996L80.99350000000004 55.33156999999994L83.1282000000001 54.209499999999935L83.48800000000006 55.78198999999995L85.78449999999998 56.48150999999996L88.20420000000013 55.62505999999996L89.02749999999992 54.07118000000003L89.49489999999992 48.82766000000004L94.80880000000002 48.19978000000003L96.24450000000002 49.91581999999994L95.56850000000009 53.870180000000005L99.91270000000009 52.27424999999994L100.19569999999999 49.46842000000004L102.43090000000007 46.89413999999999L102.8411000000001 43.475149999999985L106.08410000000003 43.69656999999995L107.29989999999998 44.32364999999993L108.20219999999995 42.08012999999994L109.0340000000001 40.909059999999954L108.78970000000004 39.67818999999997L107.76199999999994 40.26647000000003L103.17419999999993 40.10780999999997L102.87969999999996 38.163749999999936L103.85100000000011 37.13170000000002L103.47960000000012 35.03931L101.94250000000011 33.39544000000001L98.56880000000001 34.89206999999999L94.63850000000002 32.889009999999985L94.63419999999996 33.725149999999985L93.82560000000012 33.91926000000001L89.27170000000001 32.006149999999934L88.95530000000008 34.405790000000025L88.14630000000011 34.60938999999996L88.05240000000003 34.61387000000002L86.37709999999993 34.88033999999993z">
      <title id="t363">Quatorzième circonscription du Rhône</title>
      <desc id="d363">Cantons de : Saint-Fons, Vénissieux Nord, Vénissieux Sud, Saint-Priest (partie non comprise dans la 13e circonscription)</desc>
    </path><path class="circo" id="id-069-05" d="M41.33310000000006 52.246039999999994L41.06680000000006 49.82547999999997L41.6395 49.36491000000001L41.68360000000007 49.35489999999993L43.98250000000007 46.889909999999986L43.9701 46.46141L45.03800000000001 45.96028000000001L45.40429999999992 46.11392999999998L46.33940000000007 47.86009999999999L47.93450000000007 48.19588999999996L48.18229999999994 49.54633000000001L47.62329999999997 50.97381999999993L47.71499999999992 51.18597999999997L51.44990000000007 49.16565000000003L51.78850000000011 49.88008000000002L53.325399999999945 50.33132999999998L53.40249999999992 51.52684999999997L54.134500000000116 51.083380000000034L54.40039999999999 53.18079L56.54160000000002 53.898829999999975L55.82349999999997 55.914570000000026L55.51690000000008 56.77229999999997L53.88650000000007 56.914589999999976L52.95589999999993 58.281729999999925L52.7328 58.91602L52.843200000000024 59.06803000000002L52.90319999999997 61.12297000000001L52.84089999999992 61.15993000000003L53.96139999999991 63.407359999999926L53.145300000000134 64.31801999999993L52.40890000000013 64.59155999999996L51.65090000000009 64.66592000000003L50.93430000000012 65.54826000000003L49.433500000000095 64.86229000000003L48.90470000000005 64.21099000000004L50.80120000000011 62.521079999999984L50.41509999999994 61.94322L48.827 63.01769999999999L47.804800000000114 64.20866999999998L47.50199999999995 63.952549999999974L47.044000000000096 62.91856999999993L46.03559999999993 62.29598999999996L45.766599999999926 61.54957000000002L45.5 62.308059999999955L44.78670000000011 62.62801999999999L44.54970000000003 60.54120999999998L42.738200000000006 58.22291999999993L41.836500000000115 58.382139999999936L41.702600000000075 56.64806999999996L41.07999999999993 56.958650000000034L40.00590000000011 57.63748999999996L38.76350000000002 57.89847999999995L38.619500000000016 55.77945999999997L38.70659999999998 55.39546999999993L40.57140000000004 54.047289999999975L41.15100000000007 53.55417L41.345800000000054 52.466339999999946L41.33310000000006 52.246039999999994z">
      <title id="t354">Cinquième circonscription du Rhône</title>
      <desc id="d354">Cantons de : Caluire-et-Cuire, Limonest, Neuville-sur-Saône</desc>
    </path><path class="circo" id="id-069-08" d="M6.620300000000043 45.72546999999997L5.792799999999943 45.60482999999999L4.256200000000035 44.21190999999999L4.822599999999966 43.61009999999999L4.583399999999983 42.801219999999944L3.823699999999917 41.79409999999996L2.7117000000000644 41.22852999999998L1.2864999999999327 40.81556999999998L0.35730000000012296 40.13639999999998L0 38.831680000000006L1.898300000000063 38.81233999999995L2.3329000000001088 39.451889999999935L3.9036000000000968 39.045439999999985L4.7818999999999505 39.870919999999956L5.794399999999996 37.88429999999994L5.652000000000044 37.53147999999999L5.270600000000059 35.869429999999966L5.204400000000078 35.883749999999964L3.7312999999999192 36.26517999999999L3.075399999999945 35.847639999999956L2.2169000000001233 34.42578000000003L1.481800000000021 34.00040999999999L0.6113000000000284 32.388439999999946L0.8369999999999891 32.09093999999993L3.5283999999999196 31.968819999999937L4.546900000000051 30.743380000000002L5.0207000000000335 29.67981999999995L4.894900000000007 28.904069999999933L5.658300000000054 28.505069999999932L5.747700000000123 26.89620000000002L5.296700000000101 26.22077999999999L5.563800000000128 25.038189999999986L6.449499999999944 24.202670000000012L6.653600000000097 22.587999999999965L7.5569000000000415 21.910549999999944L10.008800000000065 21.548180000000002L10.658100000000104 20.55961000000002L11.727699999999913 20.17385999999999L13.97479999999996 21.719679999999926L14.74980000000005 21.859519999999975L15.284900000000107 19.962080000000014L15.923099999999977 19.448669999999993L16.554300000000012 17.93817999999999L19.082599999999957 16.062220000000025L20.116800000000012 15.807469999999967L20.078199999999924 14.270610000000033L21.77839999999992 15.949520000000007L22.63090000000011 17.31021999999996L22.40599999999995 18.998309999999947L22.059600000000046 19.658140000000003L22.258600000000115 20.374709999999936L21.693300000000136 20.855659999999943L23.723799999999983 23.169359999999983L24.332300000000032 23.700379999999996L24.48479999999995 24.92256999999995L25.973400000000083 27.269319999999993L26.097600000000057 28.06436999999994L25.241300000000138 30.345230000000015L25.22330000000011 30.42106000000001L24.85979999999995 32.604979999999955L23.751800000000003 34.07350999999994L23.106500000000096 34.41831000000002L23.125999999999976 35.23798999999997L24.69080000000008 35.70489999999995L25.21199999999999 36.312670000000026L25.894900000000007 37.97852999999998L25.717100000000073 38.69462999999996L25.98700000000008 38.65816999999993L27.03780000000006 39.12851999999998L27.324100000000044 39.86920999999995L29.326299999999947 39.982009999999946L30.58789999999999 41.029030000000034L31.804000000000087 41.17066999999997L33.54639999999995 40.86414000000002L33.65750000000003 41.22668999999996L34.38000000000011 41.44453999999996L34.32179999999994 42.86761999999999L33.52009999999996 42.88167999999996L32.81459999999993 43.77016000000003L33.33320000000003 44.802779999999984L33.97460000000001 45.25986L35.42800000000011 44.61205999999993L35.61180000000013 44.69421999999997L35.646200000000135 44.833709999999996L35.32770000000005 46.51800000000003L35.02600000000007 47.46600999999998L34.760099999999966 47.53530000000001L33.602100000000064 47.88198L34.36809999999991 49.71259999999995L34.24479999999994 49.99942999999996L34.18100000000004 51.22371999999996L34.06050000000005 52.00875999999994L34.8266000000001 52.913509999999974L35.062400000000025 54.47995000000003L35.3741 54.72410000000002L35.58889999999997 55.40255000000002L36.186500000000024 55.798869999999965L36.48649999999998 55.915179999999964L36.25700000000006 56.14451999999994L36.684600000000046 57.68250999999998L37.72330000000011 58.294779999999946L38.76350000000002 57.89847999999995L40.00590000000011 57.63748999999996L41.07999999999993 56.958650000000034L41.702600000000075 56.64806999999996L41.836500000000115 58.382139999999936L42.738200000000006 58.22291999999993L44.54970000000003 60.54120999999998L44.78670000000011 62.62801999999999L45.5 62.308059999999955L45.766599999999926 61.54957000000002L46.03559999999993 62.29598999999996L47.044000000000096 62.91856999999993L47.50199999999995 63.952549999999974L46.31179999999995 64.21744999999999L46.124000000000024 64.53926999999999L46.815200000000004 65.86257L46.633600000000115 66.19650000000001L44.89519999999993 67.27005999999994L43.977800000000116 66.51408000000004L43.47160000000008 65.95946000000004L43.24260000000004 64.09456999999998L41.48230000000012 64.46295999999995L40.45510000000013 63.335789999999974L39.34069999999997 63.64643000000001L38.12900000000013 64.11443999999995L36.983799999999974 63.82199000000003L35.141200000000026 64.01459999999997L33.66100000000006 65.62711000000002L32.49649999999997 67.72124999999994L31.764200000000073 68.28547000000003L29.744699999999966 68.19934L29.217300000000023 67.06925999999999L27.869300000000067 66.08961999999997L27.59940000000006 66.90072999999995L25.901499999999942 68.81382999999994L23.881900000000087 67.94592L24.24070000000006 66.80945999999994L24.034200000000055 66.45204999999999L23.223400000000083 66.34968000000003L22.776000000000067 65.65611999999999L21.27500000000009 66.00175000000002L20.57639999999992 65.73825999999997L21.832499999999982 64.11870999999996L21.785700000000134 63.70276000000001L21.372499999999945 62.51877000000002L20.07680000000005 61.50590999999997L19.710700000000088 60.76526000000001L18.072400000000016 59.588930000000005L17.482700000000023 58.546359999999936L16.721000000000004 58.81256999999994L16.3266000000001 58.70204000000001L15.016700000000128 59.61771999999996L12.475000000000136 58.37029999999993L11.836000000000013 57.333650000000034L12.476200000000063 56.80756999999994L12.945899999999938 55.64300000000003L12.804000000000087 54.990819999999985L9.966900000000123 54.868510000000015L8.38370000000009 53.55819999999994L7.913400000000138 51.93914999999993L7.002799999999979 51.05920000000003L6.74759999999992 50.26279999999997L8.702099999999973 48.81170999999995L7.968200000000024 48.49770000000001L8.685500000000047 47.079219999999964L6.620300000000043 45.72546999999997z">
      <title id="t357">Huitième circonscription du Rhône</title>
      <desc id="d357">Cantons de : Amplepuis, L'Arbresle, Le Bois-d'Oingt, Ecully, Lamure-sur-Azergues, Tarare, Thizy</desc>
    </path><path class="circo" id="id-069-09" d="M33.602100000000064 47.88198L34.760099999999966 47.53530000000001L35.02600000000007 47.46600999999998L35.32770000000005 46.51800000000003L35.646200000000135 44.833709999999996L35.61180000000013 44.69421999999997L35.42800000000011 44.61205999999993L33.97460000000001 45.25986L33.33320000000003 44.802779999999984L32.81459999999993 43.77016000000003L33.52009999999996 42.88167999999996L34.32179999999994 42.86761999999999L34.38000000000011 41.44453999999996L33.65750000000003 41.22668999999996L33.54639999999995 40.86414000000002L31.804000000000087 41.17066999999997L30.58789999999999 41.029030000000034L29.326299999999947 39.982009999999946L27.324100000000044 39.86920999999995L27.03780000000006 39.12851999999998L25.98700000000008 38.65816999999993L25.717100000000073 38.69462999999996L25.894900000000007 37.97852999999998L25.21199999999999 36.312670000000026L24.69080000000008 35.70489999999995L23.125999999999976 35.23798999999997L23.106500000000096 34.41831000000002L23.751800000000003 34.07350999999994L24.85979999999995 32.604979999999955L25.22330000000011 30.42106000000001L25.241300000000138 30.345230000000015L26.097600000000057 28.06436999999994L25.973400000000083 27.269319999999993L24.48479999999995 24.92256999999995L24.332300000000032 23.700379999999996L23.723799999999983 23.169359999999983L21.693300000000136 20.855659999999943L22.258600000000115 20.374709999999936L22.059600000000046 19.658140000000003L22.40599999999995 18.998309999999947L22.63090000000011 17.31021999999996L21.77839999999992 15.949520000000007L20.078199999999924 14.270610000000033L20.116800000000012 15.807469999999967L19.082599999999957 16.062220000000025L16.554300000000012 17.93817999999999L16.11130000000003 17.32764999999995L14.490800000000036 16.441460000000006L13.814399999999978 16.175049999999942L12.948900000000094 15.318179999999984L13.008100000000013 14.526279999999929L15.226000000000113 13.609270000000038L15.123299999999972 13.131740000000036L13.847400000000107 11.584319999999934L12.260700000000043 11.563800000000015L12.102399999999989 10.84077000000002L12.560400000000072 9.384630000000016L12.047199999999975 8.32298000000003L12.27819999999997 8.107880000000023L13.02539999999999 5.784829999999943L12.964899999999943 4.833539999999971L13.168300000000045 3.630959999999959L13.876800000000003 2.5955999999999904L13.768199999999979 2.1869199999999864L15.356999999999971 2.1468099999999595L15.572300000000041 1.3541099999999915L16.304800000000114 1.7751399999999649L16.627500000000055 2.556600000000003L18.219800000000077 2.202670000000012L19.686500000000024 3.6303500000000213L20.793699999999944 3.1792900000000373L22.114299999999957 5.744129999999927L25.00389999999993 5.360360000000014L25.722600000000057 4.9103999999999814L25.87149999999997 3.732560000000035L26.686699999999973 2.3725600000000213L27.71199999999999 2.520430000000033L27.859500000000025 2.8757100000000264L27.970299999999952 4.4730899999999565L29.12779999999998 5.552919999999972L31.852499999999964 6.032590000000027L32.13560000000007 5.248820000000023L31.72109999999998 4.086040000000025L33.31560000000013 2.6965999999999894L33.566100000000006 1.527219999999943L34.80110000000013 1.318179999999984L35.76070000000004 2.1196199999999408L37.055900000000065 1.1464099999999462L38.216699999999946 1.4162400000000162L38.25479999999993 2.374529999999936L39.050899999999956 3.5638099999999895L39.410499999999956 3.583849999999984L39.42800000000011 5.4351199999999835L38.83380000000011 5.702570000000037L38.22320000000013 5.196439999999939L37.78909999999996 5.826270000000022L37.06750000000011 5.654609999999934L37.35509999999999 7.235479999999939L37.966499999999996 7.808809999999994L39.219299999999976 7.743910000000028L39.531099999999924 8.025279999999952L40.53369999999995 8.556389999999965L41.85010000000011 9.915750000000003L41.581100000000106 10.614929999999958L40.47620000000006 10.493290000000002L40.60529999999994 11.203219999999988L41.80770000000007 12.557379999999966L40.96939999999995 13.271389999999997L40.60130000000004 14.382730000000038L40.846700000000055 15.921029999999973L41.24479999999994 16.520269999999982L43.07369999999992 17.249450000000024L44.146600000000035 16.978290000000015L45.19180000000006 16.807169999999928L45.593000000000075 16.858240000000023L45.771999999999935 17.477030000000013L46.57290000000012 18.462499999999977L47.49170000000004 19.342409999999973L46.93010000000004 21.462429999999927L46.21119999999996 22.476879999999937L44.900699999999915 24.103219999999965L44.479499999999916 25.464240000000018L43.889900000000125 26.18534999999997L42.856700000000046 27.323859999999968L42.99209999999994 28.419649999999933L43.557000000000016 28.841819999999984L44.024000000000115 30.254929999999945L43.79690000000005 31.018889999999942L42.1422 32.69879000000003L42.65560000000005 34.19816000000003L42.72230000000013 35.10834L42.538099999999986 36.38661000000002L42.93880000000013 38.05232000000001L42.89650000000006 38.17151000000001L42.988000000000056 38.95611999999994L43.41669999999999 41.71593999999993L43.03919999999994 42.85527000000002L42.89409999999998 43.109860000000026L41.37419999999997 44.53871000000004L41.44119999999998 45.68867999999998L42.55340000000001 46.16453000000001L43.9701 46.46141L43.98250000000007 46.889909999999986L41.68360000000007 49.35489999999993L41.6395 49.36491000000001L41.06680000000006 49.82547999999997L41.33310000000006 52.246039999999994L41.345800000000054 52.466339999999946L41.15100000000007 53.55417L40.57140000000004 54.047289999999975L38.70659999999998 55.39546999999993L38.619500000000016 55.77945999999997L38.76350000000002 57.89847999999995L37.72330000000011 58.294779999999946L36.684600000000046 57.68250999999998L36.25700000000006 56.14451999999994L36.48649999999998 55.915179999999964L36.186500000000024 55.798869999999965L35.58889999999997 55.40255000000002L35.3741 54.72410000000002L35.062400000000025 54.47995000000003L34.8266000000001 52.913509999999974L34.06050000000005 52.00875999999994L34.18100000000004 51.22371999999996L34.24479999999994 49.99942999999996L34.36809999999991 49.71259999999995L33.602100000000064 47.88198z">
      <title id="t358">Neuvième circonscription du Rhône</title>
      <desc id="d358">Cantons de: Anse, Beaujeu, Belleville, Monsols, Villefranche-sur-Saône</desc>
    </path><path class="circo" id="id-069-10" d="M42.08140000000003 78.48241999999993L40.93579999999997 78.13620000000003L41.22360000000003 76.20613000000003L39.62390000000005 75.30959999999993L39.43160000000012 75.16075000000001L38.66540000000009 75.32177000000001L36.60500000000002 77.69312000000002L35.64460000000008 78.33241999999996L34.91139999999996 80.18259L33.431100000000015 78.80197999999996L30.23129999999992 78.65076999999997L29.207499999999982 79.88109999999995L29.82639999999992 80.43031999999994L29.534900000000107 81.62371999999993L28.47309999999993 83.31154000000004L28.429000000000087 83.71244000000002L28.817600000000084 83.81664L28.195999999999913 84.29233999999997L27.769500000000107 85.38833999999997L26.70600000000013 85.82143999999994L26.573699999999917 86.61663999999996L25.441700000000083 87.72573999999997L25.791500000000042 89.69294000000002L23.60850000000005 90.57024000000001L22.970199999999977 90.08434L22.18010000000004 90.13163999999995L22.073599999999942 88.96244000000002L19.038299999999936 89.01343999999995L19.608099999999922 87.92563999999993L18.445600000000013 87.16103999999996L17.513599999999997 86.59663999999998L17.27500000000009 85.08863999999994L16.80060000000003 84.48123999999996L15.181800000000067 83.67783999999995L14.148100000000113 83.38764000000003L14.027100000000019 82.77133000000003L12.645800000000008 80.76571999999999L12.936899999999923 80.22771L12.640800000000127 79.68795999999998L10.377099999999928 78.63276999999994L10.61609999999996 78.32245L10.3746000000001 77.19186000000002L11.016900000000078 76.24531999999999L10.342699999999923 75.30303000000004L10.954500000000053 74.73707999999999L11.160700000000134 73.49425999999994L11.980600000000095 72.54368L12.529899999999998 70.5113L13.522600000000011 69.77528999999993L13.066100000000006 68.81272999999999L12.481500000000096 68.41619000000003L11.001899999999978 69.10228999999993L9.802500000000009 68.90044L8.947400000000016 66.45510000000002L9.72829999999999 65.51144999999997L11.272200000000112 64.87861999999996L11.201399999999921 62.39805000000001L11.521600000000035 62.11491000000001L12.240299999999934 62.57448999999997L11.597899999999981 60.81355999999994L11.783400000000029 60.46973000000003L11.236900000000105 59.914139999999975L11.622299999999996 59.853880000000004L11.888300000000072 58.79499999999996L12.475000000000136 58.37029999999993L15.016700000000128 59.61771999999996L16.3266000000001 58.70204000000001L16.721000000000004 58.81256999999994L17.482700000000023 58.546359999999936L18.072400000000016 59.588930000000005L19.710700000000088 60.76526000000001L20.07680000000005 61.50590999999997L21.372499999999945 62.51877000000002L21.785700000000134 63.70276000000001L21.832499999999982 64.11870999999996L20.57639999999992 65.73825999999997L21.27500000000009 66.00175000000002L22.776000000000067 65.65611999999999L23.223400000000083 66.34968000000003L24.034200000000055 66.45204999999999L24.24070000000006 66.80945999999994L23.881900000000087 67.94592L25.901499999999942 68.81382999999994L27.59940000000006 66.90072999999995L27.869300000000067 66.08961999999997L29.217300000000023 67.06925999999999L29.744699999999966 68.19934L31.764200000000073 68.28547000000003L32.49649999999997 67.72124999999994L33.66100000000006 65.62711000000002L35.141200000000026 64.01459999999997L36.983799999999974 63.82199000000003L38.12900000000013 64.11443999999995L39.34069999999997 63.64643000000001L40.45510000000013 63.335789999999974L41.48230000000012 64.46295999999995L43.24260000000004 64.09456999999998L43.47160000000008 65.95946000000004L43.977800000000116 66.51408000000004L42.441299999999956 66.58304999999996L41.05449999999996 65.76104999999995L39.79189999999994 66.11765000000003L39.780700000000024 66.73646999999994L40.06470000000013 66.86015999999995L41.65930000000003 66.52517L42.506399999999985 68.35028L42.52629999999999 68.73379L43.22350000000006 69.00812999999994L41.11699999999996 70.52166L41.03269999999998 70.87848999999994L41.808700000000044 72.03412000000003L44.8755000000001 71.61876999999993L45.58529999999996 72.33668999999998L45.44209999999998 72.72716000000003L47.72870000000012 74.69362999999998L48.03379999999993 75.35401999999999L49.02430000000004 75.66083000000003L48.76080000000002 76.42966999999999L46.65000000000009 78.41952000000003L46.593399999999974 79.23123999999996L46.34400000000005 79.34933999999998L46.38709999999992 79.75788999999997L45.408300000000054 80.94825000000003L44.623600000000124 81.18354999999997L43.66689999999994 82.33073999999999L43.26749999999993 82.22982999999999L42.90370000000007 81.05975999999998L43.14969999999994 80.15278999999998L42.08140000000003 78.48241999999993z">
      <title id="t359">Dixième circonscription du Rhône</title>
      <desc id="d359">Cantons de : Saint-Genis-Laval, Saint-Laurent-de-Chamousset, Saint-Symphorien-sur-Coise, Vaugneray</desc>
    </path><path class="circo" id="id-069-11" d="M50.79880000000003 99.34773999999993L49.355600000000095 100.03503999999998L48.430900000000065 101.33733999999993L47.38349999999991 101.92473999999993L47.20060000000012 102.02753999999993L45.574499999999944 103.10094000000004L45.68689999999992 104.53894000000003L45.530300000000125 104.87153999999998L45.22790000000009 104.97163999999998L44.62220000000002 104.62414000000001L43.61439999999993 104.79043999999999L42.05079999999998 102.72083999999995L42.43730000000005 102.56564000000003L42.02019999999993 100.99063999999998L40.630100000000084 100.10064L38.774400000000014 102.05963999999994L37.23860000000013 101.86943999999994L36.877300000000105 101.71323999999993L36.32159999999999 102.26373999999998L35.56040000000007 101.04434000000003L34.87850000000003 100.91314L34.57580000000007 99.77084000000002L34.856500000000096 99.46554000000003L34.48649999999998 97.42153999999994L34.59140000000002 95.78354000000002L35.51459999999997 94.97663999999997L35.827800000000025 94.22363999999993L35.92630000000008 94.19844L37.51459999999997 92.77714000000003L37.712099999999964 92.35824000000002L36.71389999999997 91.06723999999997L36.30300000000011 90.96123999999998L35.25450000000001 91.68273999999997L34.462800000000016 91.54463999999996L34.36789999999996 92.80553999999995L35.32369999999992 94.15613999999994L34.07439999999997 94.50483999999994L33.94319999999993 94.20813999999996L33.33470000000011 93.60293999999999L32.4674 91.15863999999999L31.537399999999934 90.26134000000002L30.517700000000104 90.87693999999999L29.178800000000138 90.83884L27.77539999999999 89.43804L25.791500000000042 89.69294000000002L25.441700000000083 87.72573999999997L26.573699999999917 86.61663999999996L26.70600000000013 85.82143999999994L27.769500000000107 85.38833999999997L28.195999999999913 84.29233999999997L28.817600000000084 83.81664L28.429000000000087 83.71244000000002L28.47309999999993 83.31154000000004L29.534900000000107 81.62371999999993L29.82639999999992 80.43031999999994L29.207499999999982 79.88109999999995L30.23129999999992 78.65076999999997L33.431100000000015 78.80197999999996L34.91139999999996 80.18259L35.64460000000008 78.33241999999996L36.60500000000002 77.69312000000002L38.66540000000009 75.32177000000001L39.43160000000012 75.16075000000001L39.62390000000005 75.30959999999993L41.22360000000003 76.20613000000003L40.93579999999997 78.13620000000003L42.08140000000003 78.48241999999993L43.14969999999994 80.15278999999998L42.90370000000007 81.05975999999998L43.26749999999993 82.22982999999999L43.66689999999994 82.33073999999999L44.623600000000124 81.18354999999997L45.81009999999992 82.64282000000003L46.92990000000009 82.78761999999995L47.41620000000012 83.19183999999996L47.94470000000001 83.13163999999995L48.01080000000002 82.91525999999999L49.05250000000001 82.36770000000001L49.228000000000065 83.13504L50.34860000000003 83.47644000000003L51.52940000000012 83.05846999999994L51.93119999999999 82.30021999999997L52.15930000000003 79.74146999999994L54.752300000000105 79.43508999999995L55.452999999999975 80.27247L55.12300000000005 82.20210999999995L57.24299999999994 81.42333999999994L57.381000000000085 80.05416000000002L58.47180000000003 78.79795999999999L58.672000000000025 77.12955999999997L60.25440000000003 77.23761000000002L61.67380000000003 77.96892000000003L62.323900000000094 77.43398000000002L63.515499999999975 77.87171999999998L63.99700000000007 78.48983999999996L65.21530000000007 78.76742999999999L66.50330000000008 78.92653999999993L68.86760000000004 79.98265000000004L69.21109999999999 80.79891999999995L67.78970000000004 81.63928999999996L67.43640000000005 82.38909999999998L67.38110000000006 83.60533999999996L67.98500000000013 84.69074L67.17750000000001 85.58284000000003L64.51530000000002 84.55223999999998L63.37830000000008 85.02584000000002L64.42370000000005 85.58654000000001L64.17959999999994 86.83033999999998L64.13349999999991 86.88393999999994L61.85660000000007 85.71223999999995L58.557399999999916 86.39004L58.07690000000002 86.58723999999995L56.47849999999994 86.46843999999999L55.041099999999915 87.09474L54.73029999999994 87.09054000000003L54.30989999999997 87.06524000000002L54.149000000000115 87.45533999999998L52.356700000000046 88.39624000000003L52.1699000000001 90.13463999999999L51.40980000000013 89.72183999999993L49.70029999999997 88.77283999999997L48.19450000000006 88.53124000000003L45.331100000000106 88.81384000000003L45.6726000000001 89.57963999999993L47.992500000000064 90.64103999999998L48.63580000000002 91.49153999999999L49.03430000000003 92.31863999999996L50.38090000000011 93.98334L52.98520000000008 95.04164000000003L53.46049999999991 95.67153999999994L53.37930000000006 96.06853999999998L52.48790000000008 97.37724000000003L51.13239999999996 98.95474000000002L50.79880000000003 99.34773999999993z">
      <title id="t360">Onzième circonscription du Rhône</title>
      <desc id="d360">Cantons de : Condrieu, Givors, Mornant, Saint-Symphorien-d'Ozon</desc>
    </path><path class="circo" id="id-069-13" d="M64.37789999999995 61.70700999999997L63.67329999999993 61.99004000000002L62.60419999999999 62.228920000000016L61.75720000000001 62.04065000000003L58.98299999999995 66.37832000000003L58.54379999999992 69.75531000000001L58.831500000000005 71.94645000000003L58.233400000000074 72.21087L58.983600000000024 73.01303999999993L59.16470000000004 74.03408999999999L58.690700000000106 74.53770999999995L58.834499999999935 75.48636999999997L61.07330000000002 75.56378999999993L61.57470000000012 75.27671999999995L61.69399999999996 75.87735999999995L61.288099999999986 76.44881999999996L60.84780000000001 77.54360999999994L61.67380000000003 77.96892000000003L62.323900000000094 77.43398000000002L63.515499999999975 77.87171999999998L63.99700000000007 78.48983999999996L65.21530000000007 78.76742999999999L66.50330000000008 78.92653999999993L68.86760000000004 79.98265000000004L71.0353 78.02122999999995L71.85449999999992 77.89726999999993L73.3768 76.55682999999999L73.1395 75.33041000000003L75.44229999999993 74.50325999999995L76.18920000000003 74.84699L76.93970000000013 74.57677999999999L77.36550000000011 75.15637000000004L77.81150000000002 73.26623999999993L76.71370000000002 72.71303L75.64440000000013 71.05727000000002L75.0435 70.55063999999993L72.31040000000007 70.31935999999996L71.91530000000012 68.71453999999994L72.22649999999999 67.08095000000003L70.16980000000012 67.03526L69.34190000000012 65.12641999999994L69.29639999999995 63.933899999999994L71.64480000000003 64.74027000000001L71.98810000000003 64.50671999999997L72.86630000000014 61.30980999999997L72.14300000000003 61.49811L69.21890000000008 61.730789999999956L68.50890000000004 61.454079999999976L67.48950000000013 61.92309999999998L66.74119999999994 61.77297999999996L65.69420000000014 62.256849999999986L64.37789999999995 61.70700999999997z">
      <title id="t362">Treizième circonscription du Rhône</title>
      <desc id="d362">Cantons de : Décines-Charpieu, Meyzieu, Commune de Saint-Priest (partie située à l'est d'une ligne définie par les voies ci-après : autoroute A43, rue de l'Aviation, avenue Hélène-Boucher, avenue Salvador-Allende, rue Alfred-de-Vigny, avenue Jean-Jaurès, boulevard Frédéric-Reymond, montée de la Carnière, rue du Grisard, rue Jules-Verne, autoroute A46 vers Heyrieux)</desc>
    </path></svg>