<svg xmlns="http://www.w3.org/2000/svg" version="1.1" xmlns:xlink="http://www.w3.org/1999/xlink" xmlns:svgjs="http://svgjs.dev/svgjs" viewBox="1661.0943 911.94096 109.16350000000011 104.97163999999998"><path class="circo" id="id-069-01" d="M 1738.2848,939.92015 1736.6546,939.55946 1735.6513,938.63059 1737.4829,937.40832 1738.2389,935.2913 1739.6377,932.32705 1740.8961,932.19849 1741.5104,932.77709 1741.93,934.6415 1742.7312,935.28058 1744.1004,934.8731 1744.575,934.38851 1745.498,934.50198 1745.891,935.15445 1744.126,938.56963 1746.1139,939.84362 1748.6069,940.49852 1749.2703,941.58848 1750.3346,941.61016 1751.1208,940.88841 1752.202,941.61896 1750.9779,943.38962 1750.366,943.94711 1750.0496,946.34675 1747.4714,946.8213 1747.6427,949.29479 1744.5943,947.65983 1744.1819,946.59176 1743.884,945.04332 1742.8971,941.28248 1743.7662,939.14408 1742.9291,939.38548 1741.4202,938.62461 1738.2848,939.92015 z">
      <title id="t350">Première circonscription du Rhône</title>
      <desc id="d350">Cantons de : Lyon I [partie située au sud d'une ligne définie par la voie ferrée de Paris à Marseille], Lyon IV [partie située au sud-ouest d'une ligne définie par l'axe des voies ci-après : rue Marietton, grande rue de Vaise, rue saint-Pierre-de-Vaise, boulevard Antoine-de-Saint-Exupéry, montée de l'Observance], Lyon V, Lyon X [partie située au sud d'une ligne définie par la voie ferrée de Paris à Marseille], Lyon XII [partie située au sud d'une ligne définie par l'axe de la rue Marius-Berliet et à l'ouest d'une ligne définie par l'axe des voies ci-après : avenue Berthelot à partir de la place du 11-Novembre-1918, rue Paul-Cazeneuve et avenue Francis-de-Pressensé])</desc>
    </path><path class="circo" id="id-069-02" d="M 1744.575,934.38851 1744.1004,934.8731 1742.7312,935.28058 1741.93,934.6415 1741.5104,932.77709 1740.8961,932.19849 1739.6377,932.32705 1738.2213,929.61526 1738.6061,928.95576 1741.0452,928.41292 1741.6658,928.93777 1743.7604,926.49716 1747.0149,924.29526 1747.8063,925.47945 1743.9198,928.94253 1745.0034,930.27722 1748.079,931.68295 1747.5021,933.06656 1747.505,934.76467 1747.5388,935.44261 1747.2974,937.14392 1745.8603,939.68726 1744.126,938.56963 1745.891,935.15445 1745.498,934.50198 1744.575,934.38851 z">
      <title id="t351">Deuxième circonscription du Rhône</title>
      <desc id="d351">Cantons de : Lyon I [partie non comprise dans la 1re circonscription], Lyon II, Lyon III, Lyon IV [partie non comprise dans la 1re circonscription])</desc>
    </path><path class="circo" id="id-069-03" d="M 1745.8603,939.68726 1747.2974,937.14392 1747.5388,935.44261 1749.4235,935.37964 1749.7833,936.48444 1750.8152,937.06676 1751.0164,938.9379 1753.5926,940.31427 1753.433,943.43806 1755.7328,944.82997 1755.7285,945.66611 1754.9199,945.86022 1750.366,943.94711 1750.9779,943.38962 1752.202,941.61896 1751.1208,940.88841 1750.3346,941.61016 1749.2703,941.58848 1748.6069,940.49852 1745.8603,939.68726 z">
      <title id="t352">Troisième circonscription du Rhône</title>
      <desc id="d352">Cantons de : Lyon VIII, Lyon IX, Lyon X [partie non comprise dans la 1re circonscription], Lyon XII [partie non comprise dans la 1re circonscription], Lyon XIV [partie située à l'ouest d'une ligne définie par l'axe des voies ci-après : rue Feuillat, rue Maryse-Bastié, avenue Paul-Santy, passage Comtois et avenue du Général-Frère])</desc>
    </path><path class="circo" id="id-069-04" d="M 1747.5021,933.06656 1747.505,934.76467 1747.5388,935.44261 1749.4235,935.37964 1749.7833,936.48444 1750.8152,937.06676 1751.0164,938.9379 1753.5926,940.31427 1753.433,943.43806 1755.7328,944.82997 1756.6552,941.56801 1757.8269,938.2147 1753.9077,937.52266 1752.774,935.4064 1750.7746,932.91845 1751.1008,929.72242 1749.5475,929.8748 1748.079,931.68295 1747.5021,933.06656 z">
      <title id="t353">Quatrième circonscription du Rhône</title>
      <desc id="d353">Cantons de : Lyon VI, Lyon VII, Lyon XI, Lyon XIII, Lyon XIV [partie non comprise dans la 3e circonscription])</desc>
    </path><path class="circo" id="id-069-06" d="M 1757.8269,938.2147 1753.9077,937.52266 1752.774,935.4064 1750.7746,932.91845 1751.1008,929.72242 1752.61,929.16186 1754.2821,927.29567 1754.5039,927.41585 1755.1839,928.90379 1759.0764,930.43756 1758.7227,932.93519 1761.5003,935.90428 1761.0628,939.25343 1757.8269,938.2147 z">
      <title id="t355">Sixième circonscription du Rhône</title>
      <desc id="d355">Cantons de Villeurbanne Centre, Villeurbanne Nord, Villeurbanne Sud</desc>
    </path><path class="circo" id="id-069-07" d="M 1755.7328,944.82997 1756.6552,941.56801 1757.8269,938.2147 1761.0628,939.25343 1761.5003,935.90428 1758.7227,932.93519 1759.0764,930.43756 1755.1839,928.90379 1754.5039,927.41585 1754.2821,927.29567 1751.986,922.6901 1752.1136,922.61435 1751.9907,918.40323 1751.7644,918.09173 1752.2216,916.7919 1754.1289,913.99027 1757.47,913.69867 1758.0981,911.94096 1759.9433,913.54912 1761.6773,918.15673 1761.1716,923.93515 1762.1445,925.34102 1765.2918,924.08784 1766.9726,924.14983 1769.0926,923.62177 1770.2578,924.49492 1764.5728,933.38396 1763.6727,940.30431 1764.2622,944.79454 1759.6631,946.83303 1755.7328,944.82997 z">
      <title id="t356">Septième circonscription du Rhône</title>
      <desc id="d356">Cantons de : Bron, Rillieux-la-Pape, Vaulx-en-Velin</desc>
    </path><path class="circo" id="id-069-12" d="M 1736.8238,946.39442 1737.1173,945.59424 1735.6629,944.12304 1729.3783,944.9742 1727.7878,942.60601 1727.9605,941.87476 1732.2775,938.77314 1730.8486,938.21095 1730.8078,937.42503 1729.0719,933.6849 1725.8043,934.37137 1725.2221,934.11791 1725.2451,932.84978 1727.8325,932.11901 1730.6744,933.80351 1733.8233,933.66217 1735.7031,935.21137 1739.2658,933.01136 1738.2389,935.2913 1737.4829,937.40832 1735.6513,938.63059 1736.6546,939.55946 1738.2848,939.92015 1741.4202,938.62461 1742.9291,939.38548 1743.7662,939.14408 1742.8971,941.28248 1743.884,945.04332 1744.1819,946.59176 1744.5943,947.65983 1747.6427,949.29479 1748.2538,951.51742 1747.2226,953.40057 1746.8595,954.58031 1745.8043,961.09885 1745.5603,962.76113 1742.6745,965.67481 1742.0878,967.27253 1741.9524,967.71597 1740.8695,967.83933 1739.8729,967.01098 1737.578,966.71424 1735.1467,963.72381 1736.7548,963.24164 1738.7604,960.80227 1738.6723,959.96503 1739.1832,959.72301 1739.2993,958.05958 1743.6247,953.98184 1744.1649,952.40629 1742.1349,951.77756 1741.5099,950.42424 1736.8238,946.39442 z">
      <title id="t361">Douzième circonscription du Rhône</title>
      <desc id="d361">Cantons de : Irigny, Oullins, Sainte-Foy-lès-Lyon, Tassin-la-Demi-Lune</desc>
    </path><path class="circo" id="id-069-14" d="M 1747.4714,946.8213 1747.6427,949.29479 1748.2538,951.51742 1747.2226,953.40057 1746.8595,954.58031 1745.8043,961.09885 1745.5603,962.76113 1742.6745,965.67481 1742.0878,967.27253 1744.2225,966.15046 1744.5823,967.72295 1746.8788,968.42247 1749.2985,967.56602 1750.1218,966.01214 1750.5892,960.76862 1755.9031,960.14074 1757.3388,961.85678 1756.6628,965.81114 1761.007,964.21521 1761.29,961.40938 1763.5252,958.8351 1763.9354,955.41611 1767.1784,955.63753 1768.3942,956.26461 1769.2965,954.02109 1770.1283,952.85002 1769.884,951.61915 1768.8563,952.20743 1764.2685,952.04877 1763.974,950.10471 1764.9453,949.07266 1764.5739,946.98027 1763.0368,945.3364 1759.6631,946.83303 1755.7328,944.82997 1755.7285,945.66611 1754.9199,945.86022 1750.366,943.94711 1750.0496,946.34675 1749.2406,946.55035 1749.1467,946.55483 1747.4714,946.8213 z">
      <title id="t363">Quatorzième circonscription du Rhône</title>
      <desc id="d363">Cantons de : Saint-Fons, Vénissieux Nord, Vénissieux Sud, Saint-Priest (partie non comprise dans la 13e circonscription)</desc>
    </path><path class="circo" id="id-069-05" d="M 1702.4274,964.187 1702.1611,961.76644 1702.7338,961.30587 1702.7779,961.29586 1705.0768,958.83087 1705.0644,958.40237 1706.1323,957.90124 1706.4986,958.05489 1707.4337,959.80106 1709.0288,960.13685 1709.2766,961.48729 1708.7176,962.91478 1708.8093,963.12694 1712.5442,961.10661 1712.8828,961.82104 1714.4197,962.27229 1714.4968,963.46781 1715.2288,963.02434 1715.4947,965.12175 1717.6359,965.83979 1716.9178,967.85553 1716.6112,968.71326 1714.9808,968.85555 1714.0502,970.22269 1713.8271,970.85698 1713.9375,971.00899 1713.9975,973.06393 1713.9352,973.10089 1715.0557,975.34832 1714.2396,976.25898 1713.5032,976.53252 1712.7452,976.60688 1712.0286,977.48922 1710.5278,976.80325 1709.999,976.15195 1711.8955,974.46204 1711.5094,973.88418 1709.9213,974.95866 1708.8991,976.14963 1708.5963,975.89351 1708.1383,974.85953 1707.1299,974.23695 1706.8609,973.49053 1706.5943,974.24902 1705.881,974.56898 1705.644,972.48217 1703.8325,970.16388 1702.9308,970.3231 1702.7969,968.58903 1702.1743,968.89961 1701.1002,969.57845 1699.8578,969.83944 1699.7138,967.72042 1699.8009,967.33643 1701.6657,965.98825 1702.2453,965.49513 1702.4401,964.4073 1702.4274,964.187 z">
      <title id="t354">Cinquième circonscription du Rhône</title>
      <desc id="d354">Cantons de : Caluire-et-Cuire, Limonest, Neuville-sur-Saône</desc>
    </path><path class="circo" id="id-069-08" d="M 1667.7146,957.66643 1666.8871,957.54579 1665.3505,956.15287 1665.9169,955.55106 1665.6777,954.74218 1664.918,953.73506 1663.806,953.16949 1662.3808,952.75653 1661.4516,952.07736 1661.0943,950.77264 1662.9926,950.7533 1663.4272,951.39285 1664.9979,950.9864 1665.8762,951.81188 1666.8887,949.82526 1666.7463,949.47244 1666.3649,947.81039 1666.2987,947.82471 1664.8256,948.20614 1664.1697,947.7886 1663.3112,946.36674 1662.5761,945.94137 1661.7056,944.3294 1661.9313,944.0319 1664.6227,943.90978 1665.6412,942.68434 1666.115,941.62078 1665.9892,940.84503 1666.7526,940.44603 1666.842,938.83716 1666.391,938.16174 1666.6581,936.97915 1667.5438,936.14363 1667.7479,934.52896 1668.6512,933.85151 1671.1031,933.48914 1671.7524,932.50057 1672.822,932.11482 1675.0691,933.66064 1675.8441,933.80048 1676.3792,931.90304 1677.0174,931.38963 1677.6486,929.87914 1680.1769,928.00318 1681.2111,927.74843 1681.1725,926.21157 1682.8727,927.89048 1683.7252,929.25118 1683.5003,930.93927 1683.1539,931.5991 1683.3529,932.31567 1682.7876,932.79662 1684.8181,935.11032 1685.4266,935.64134 1685.5791,936.86353 1687.0677,939.21028 1687.1919,940.00533 1686.3356,942.28619 1686.3176,942.36202 1685.9541,944.54594 1684.8461,946.01447 1684.2008,946.35927 1684.2203,947.17895 1685.7851,947.64586 1686.3063,948.25363 1686.9892,949.91949 1686.8114,950.63559 1687.0813,950.59913 1688.1321,951.06948 1688.4184,951.81017 1690.4206,951.92297 1691.6822,952.96999 1692.8983,953.11163 1694.6407,952.8051 1694.7518,953.16765 1695.4743,953.3855 1695.4161,954.80858 1694.6144,954.82264 1693.9089,955.71112 1694.4275,956.74374 1695.0689,957.20082 1696.5223,956.55302 1696.7061,956.63518 1696.7405,956.77467 1696.422,958.45896 1696.1203,959.40697 1695.8544,959.47626 1694.6964,959.82294 1695.4624,961.65356 1695.3391,961.94039 1695.2753,963.16468 1695.1548,963.94972 1695.9209,964.85447 1696.1567,966.42091 1696.4684,966.66506 1696.6832,967.34351 1697.2808,967.73983 1697.5808,967.85614 1697.3513,968.08548 1697.7789,969.62347 1698.8176,970.23574 1699.8578,969.83944 1701.1002,969.57845 1702.1743,968.89961 1702.7969,968.58903 1702.9308,970.3231 1703.8325,970.16388 1705.644,972.48217 1705.881,974.56898 1706.5943,974.24902 1706.8609,973.49053 1707.1299,974.23695 1708.1383,974.85953 1708.5963,975.89351 1707.4061,976.15841 1707.2183,976.48023 1707.9095,977.80353 1707.7279,978.13746 1705.9895,979.21102 1705.0721,978.45504 1704.5659,977.90042 1704.3369,976.03553 1702.5766,976.40392 1701.5494,975.27675 1700.435,975.58739 1699.2233,976.0554 1698.0781,975.76295 1696.2355,975.95556 1694.7553,977.56807 1693.5908,979.66221 1692.8585,980.22643 1690.839,980.1403 1690.3116,979.01022 1688.9636,978.03058 1688.6937,978.84169 1686.9958,980.75479 1684.9762,979.88688 1685.335,978.75042 1685.1285,978.39301 1684.3177,978.29064 1683.8703,977.59708 1682.3693,977.94271 1681.6707,977.67922 1682.9268,976.05967 1682.88,975.64372 1682.4668,974.45973 1681.1711,973.44687 1680.805,972.70622 1679.1667,971.52989 1678.577,970.48732 1677.8153,970.75353 1677.4209,970.643 1676.111,971.55868 1673.5693,970.31126 1672.9303,969.27461 1673.5705,968.74853 1674.0402,967.58396 1673.8983,966.93178 1671.0612,966.80947 1669.478,965.49916 1669.0077,963.88011 1668.0971,963.00016 1667.8419,962.20376 1669.7964,960.75267 1669.0625,960.43866 1669.7798,959.02018 1667.7146,957.66643 z">
      <title id="t357">Huitième circonscription du Rhône</title>
      <desc id="d357">Cantons de : Amplepuis, L'Arbresle, Le Bois-d'Oingt, Ecully, Lamure-sur-Azergues, Tarare, Thizy</desc>
    </path><path class="circo" id="id-069-09" d="M 1694.6964,959.82294 1695.8544,959.47626 1696.1203,959.40697 1696.422,958.45896 1696.7405,956.77467 1696.7061,956.63518 1696.5223,956.55302 1695.0689,957.20082 1694.4275,956.74374 1693.9089,955.71112 1694.6144,954.82264 1695.4161,954.80858 1695.4743,953.3855 1694.7518,953.16765 1694.6407,952.8051 1692.8983,953.11163 1691.6822,952.96999 1690.4206,951.92297 1688.4184,951.81017 1688.1321,951.06948 1687.0813,950.59913 1686.8114,950.63559 1686.9892,949.91949 1686.3063,948.25363 1685.7851,947.64586 1684.2203,947.17895 1684.2008,946.35927 1684.8461,946.01447 1685.9541,944.54594 1686.3176,942.36202 1686.3356,942.28619 1687.1919,940.00533 1687.0677,939.21028 1685.5791,936.86353 1685.4266,935.64134 1684.8181,935.11032 1682.7876,932.79662 1683.3529,932.31567 1683.1539,931.5991 1683.5003,930.93927 1683.7252,929.25118 1682.8727,927.89048 1681.1725,926.21157 1681.2111,927.74843 1680.1769,928.00318 1677.6486,929.87914 1677.2056,929.26861 1675.5851,928.38242 1674.9087,928.11601 1674.0432,927.25914 1674.1024,926.46724 1676.3203,925.55023 1676.2176,925.0727 1674.9417,923.52528 1673.355,923.50476 1673.1967,922.78173 1673.6547,921.32559 1673.1415,920.26394 1673.3725,920.04884 1674.1197,917.72579 1674.0592,916.7745 1674.2626,915.57192 1674.9711,914.53656 1674.8625,914.12788 1676.4513,914.08777 1676.6666,913.29507 1677.3991,913.7161 1677.7218,914.49756 1679.3141,914.14363 1680.7808,915.57131 1681.888,915.12025 1683.2086,917.68509 1686.0982,917.30132 1686.8169,916.85136 1686.9658,915.67352 1687.781,914.31352 1688.8063,914.46139 1688.9538,914.81667 1689.0646,916.41405 1690.2221,917.49388 1692.9468,917.97355 1693.2299,917.18978 1692.8154,916.027 1694.4099,914.63756 1694.6604,913.46818 1695.8954,913.25914 1696.855,914.06058 1698.1502,913.08737 1699.311,913.3572 1699.3491,914.31549 1700.1452,915.50477 1700.5048,915.52481 1700.5223,917.37608 1699.9281,917.64353 1699.3175,917.1374 1698.8834,917.76723 1698.1618,917.59557 1698.4494,919.17644 1699.0608,919.74977 1700.3136,919.68487 1700.6254,919.96624 1701.628,920.49735 1702.9444,921.85671 1702.6754,922.55589 1701.5705,922.43425 1701.6996,923.14418 1702.902,924.49834 1702.0637,925.21235 1701.6956,926.32369 1701.941,927.86199 1702.3391,928.46123 1704.168,929.19041 1705.2409,928.91925 1706.2861,928.74813 1706.6873,928.7992 1706.8663,929.41799 1707.6672,930.40346 1708.586,931.28337 1708.0244,933.40339 1707.3055,934.41784 1705.995,936.04418 1705.5738,937.4052 1704.9842,938.12631 1703.951,939.26482 1704.0864,940.36061 1704.6513,940.78278 1705.1183,942.19589 1704.8912,942.95985 1703.2365,944.63975 1703.7499,946.13912 1703.8166,947.0493 1703.6324,948.32757 1704.0331,949.99328 1703.9908,950.11247 1704.0823,950.89708 1704.511,953.6569 1704.1335,954.79623 1703.9884,955.05082 1702.4685,956.47967 1702.5355,957.62964 1703.6477,958.10549 1705.0644,958.40237 1705.0768,958.83087 1702.7779,961.29586 1702.7338,961.30587 1702.1611,961.76644 1702.4274,964.187 1702.4401,964.4073 1702.2453,965.49513 1701.6657,965.98825 1699.8009,967.33643 1699.7138,967.72042 1699.8578,969.83944 1698.8176,970.23574 1697.7789,969.62347 1697.3513,968.08548 1697.5808,967.85614 1697.2808,967.73983 1696.6832,967.34351 1696.4684,966.66506 1696.1567,966.42091 1695.9209,964.85447 1695.1548,963.94972 1695.2753,963.16468 1695.3391,961.94039 1695.4624,961.65356 1694.6964,959.82294 z">
      <title id="t358">Neuvième circonscription du Rhône</title>
      <desc id="d358">Cantons de: Anse, Beaujeu, Belleville, Monsols, Villefranche-sur-Saône</desc>
    </path><path class="circo" id="id-069-10" d="M 1703.1757,990.42338 1702.0301,990.07716 1702.3179,988.14709 1700.7182,987.25056 1700.5259,987.10171 1699.7597,987.26273 1697.6993,989.63408 1696.7389,990.27338 1696.0057,992.12355 1694.5254,990.74294 1691.3256,990.59173 1690.3018,991.82206 1690.9207,992.37128 1690.6292,993.56468 1689.5674,995.2525 1689.5233,995.6534 1689.9119,995.7576 1689.2903,996.2333 1688.8638,997.3293 1687.8003,997.7624 1687.668,998.5576 1686.536,999.6667 1686.8858,1001.6339 1684.7028,1002.5112 1684.0645,1002.0253 1683.2744,1002.0726 1683.1679,1000.9034 1680.1326,1000.9544 1680.7024,999.8666 1679.5399,999.102 1678.6079,998.5376 1678.3693,997.0296 1677.8949,996.4222 1676.2761,995.6188 1675.2424,995.3286 1675.1214,994.71229 1673.7401,992.70668 1674.0312,992.16867 1673.7351,991.62892 1671.4714,990.57373 1671.7104,990.26341 1671.4689,989.13282 1672.1112,988.18628 1671.437,987.24399 1672.0488,986.67804 1672.255,985.43522 1673.0749,984.48464 1673.6242,982.45226 1674.6169,981.71625 1674.1604,980.75369 1673.5758,980.35715 1672.0962,981.04325 1670.8968,980.8414 1670.0417,978.39606 1670.8226,977.45241 1672.3665,976.81958 1672.2957,974.33901 1672.6159,974.05587 1673.3346,974.51545 1672.6922,972.75452 1672.8777,972.41069 1672.3312,971.8551 1672.7166,971.79484 1672.9826,970.73596 1673.5693,970.31126 1676.111,971.55868 1677.4209,970.643 1677.8153,970.75353 1678.577,970.48732 1679.1667,971.52989 1680.805,972.70622 1681.1711,973.44687 1682.4668,974.45973 1682.88,975.64372 1682.9268,976.05967 1681.6707,977.67922 1682.3693,977.94271 1683.8703,977.59708 1684.3177,978.29064 1685.1285,978.39301 1685.335,978.75042 1684.9762,979.88688 1686.9958,980.75479 1688.6937,978.84169 1688.9636,978.03058 1690.3116,979.01022 1690.839,980.1403 1692.8585,980.22643 1693.5908,979.66221 1694.7553,977.56807 1696.2355,975.95556 1698.0781,975.76295 1699.2233,976.0554 1700.435,975.58739 1701.5494,975.27675 1702.5766,976.40392 1704.3369,976.03553 1704.5659,977.90042 1705.0721,978.45504 1703.5356,978.52401 1702.1488,977.70201 1700.8862,978.05861 1700.875,978.67743 1701.159,978.80112 1702.7536,978.46613 1703.6007,980.29124 1703.6206,980.67475 1704.3178,980.94909 1702.2113,982.46262 1702.127,982.81945 1702.903,983.97508 1705.9698,983.55973 1706.6796,984.27765 1706.5364,984.66812 1708.823,986.63459 1709.1281,987.29498 1710.1186,987.60179 1709.8551,988.37063 1707.7443,990.36048 1707.6877,991.1722 1707.4383,991.2903 1707.4814,991.69885 1706.5026,992.88921 1705.7179,993.12451 1704.7612,994.2717 1704.3618,994.17079 1703.998,993.00072 1704.244,992.09375 1703.1757,990.42338 z">
      <title id="t359">Dixième circonscription du Rhône</title>
      <desc id="d359">Cantons de : Saint-Genis-Laval, Saint-Laurent-de-Chamousset, Saint-Symphorien-sur-Coise, Vaugneray</desc>
    </path><path class="circo" id="id-069-11" d="M 1711.8931,1011.2887 1710.4499,1011.976 1709.5252,1013.2783 1708.4778,1013.8657 1708.2949,1013.9685 1706.6688,1015.0419 1706.7812,1016.4799 1706.6246,1016.8125 1706.3222,1016.9126 1705.7165,1016.5651 1704.7087,1016.7314 1703.1451,1014.6618 1703.5316,1014.5066 1703.1145,1012.9316 1701.7244,1012.0416 1699.8687,1014.0006 1698.3329,1013.8104 1697.9716,1013.6542 1697.4159,1014.2047 1696.6547,1012.9853 1695.9728,1012.8541 1695.6701,1011.7118 1695.9508,1011.4065 1695.5808,1009.3625 1695.6857,1007.7245 1696.6089,1006.9176 1696.9221,1006.1646 1697.0206,1006.1394 1698.6089,1004.7181 1698.8064,1004.2992 1697.8082,1003.0082 1697.3973,1002.9022 1696.3488,1003.6237 1695.5571,1003.4856 1695.4622,1004.7465 1696.418,1006.0971 1695.1687,1006.4458 1695.0375,1006.1491 1694.429,1005.5439 1693.5617,1003.0996 1692.6317,1002.2023 1691.612,1002.8179 1690.2731,1002.7798 1688.8697,1001.379 1686.8858,1001.6339 1686.536,999.6667 1687.668,998.5576 1687.8003,997.7624 1688.8638,997.3293 1689.2903,996.2333 1689.9119,995.7576 1689.5233,995.6534 1689.5674,995.2525 1690.6292,993.56468 1690.9207,992.37128 1690.3018,991.82206 1691.3256,990.59173 1694.5254,990.74294 1696.0057,992.12355 1696.7389,990.27338 1697.6993,989.63408 1699.7597,987.26273 1700.5259,987.10171 1700.7182,987.25056 1702.3179,988.14709 1702.0301,990.07716 1703.1757,990.42338 1704.244,992.09375 1703.998,993.00072 1704.3618,994.17079 1704.7612,994.2717 1705.7179,993.12451 1706.9044,994.58378 1708.0242,994.72858 1708.5105,995.1328 1709.039,995.0726 1709.1051,994.85622 1710.1468,994.30866 1710.3223,995.076 1711.4429,995.4174 1712.6237,994.99943 1713.0255,994.24118 1713.2536,991.68243 1715.8466,991.37605 1716.5473,992.21343 1716.2173,994.14307 1718.3373,993.3643 1718.4753,991.99512 1719.5661,990.73892 1719.7663,989.07052 1721.3487,989.17857 1722.7681,989.90988 1723.4182,989.37494 1724.6098,989.81268 1725.0913,990.4308 1726.3096,990.70839 1727.5976,990.8675 1729.9619,991.92361 1730.3054,992.73988 1728.884,993.58025 1728.5307,994.33006 1728.4754,995.5463 1729.0793,996.6317 1728.2718,997.5238 1725.6096,996.4932 1724.4726,996.9668 1725.518,997.5275 1725.2739,998.7713 1725.2278,998.8249 1722.9509,997.6532 1719.6517,998.331 1719.1712,998.5282 1717.5728,998.4094 1716.1354,999.0357 1715.8246,999.0315 1715.4042,999.0062 1715.2433,999.3963 1713.451,1000.3372 1713.2642,1002.0756 1712.5041,1001.6628 1710.7946,1000.7138 1709.2888,1000.4722 1706.4254,1000.7548 1706.7669,1001.5206 1709.0868,1002.582 1709.7301,1003.4325 1710.1286,1004.2596 1711.4752,1005.9243 1714.0795,1006.9826 1714.5548,1007.6125 1714.4736,1008.0095 1713.5822,1009.3182 1712.2267,1010.8957 1711.8931,1011.2887 z">
      <title id="t360">Onzième circonscription du Rhône</title>
      <desc id="d360">Cantons de : Condrieu, Givors, Mornant, Saint-Symphorien-d'Ozon</desc>
    </path><path class="circo" id="id-069-13" d="M 1725.4722,973.64797 1724.7676,973.931 1723.6985,974.16988 1722.8515,973.98161 1720.0773,978.31928 1719.6381,981.69627 1719.9258,983.88741 1719.3277,984.15183 1720.0779,984.954 1720.259,985.97505 1719.785,986.47867 1719.9288,987.42733 1722.1676,987.50475 1722.669,987.21768 1722.7883,987.81832 1722.3824,988.38978 1721.9421,989.48457 1722.7681,989.90988 1723.4182,989.37494 1724.6098,989.81268 1725.0913,990.4308 1726.3096,990.70839 1727.5976,990.8675 1729.9619,991.92361 1732.1296,989.96219 1732.9488,989.83823 1734.4711,988.49779 1734.2338,987.27137 1736.5366,986.44422 1737.2835,986.78795 1738.034,986.51774 1738.4598,987.09733 1738.9058,985.2072 1737.808,984.65399 1736.7387,982.99823 1736.1378,982.4916 1733.4047,982.26032 1733.0096,980.6555 1733.3208,979.02191 1731.2641,978.97622 1730.4362,977.06738 1730.3907,975.87486 1732.7391,976.68123 1733.0824,976.44768 1733.9606,973.25077 1733.2373,973.43907 1730.3132,973.67175 1729.6032,973.39504 1728.5838,973.86406 1727.8355,973.71394 1726.7885,974.19781 1725.4722,973.64797 z">
      <title id="t362">Treizième circonscription du Rhône</title>
      <desc id="d362">Cantons de : Décines-Charpieu, Meyzieu, Commune de Saint-Priest (partie située à l'est d'une ligne définie par les voies ci-après : autoroute A43, rue de l'Aviation, avenue Hélène-Boucher, avenue Salvador-Allende, rue Alfred-de-Vigny, avenue Jean-Jaurès, boulevard Frédéric-Reymond, montée de la Carnière, rue du Grisard, rue Jules-Verne, autoroute A46 vers Heyrieux)</desc>
    </path><path class="vide" d="M 1716.9054,967.87877 1716.5929,968.72252 1714.9679,968.87877 1714.0304,970.22252 1713.8117,970.87877 1713.9367,971.03502 1713.9991,973.06627 1713.9367,973.12877 1715.0617,975.34752 1714.2179,976.28502 1713.4991,976.53502 1712.7491,976.62877 1712.0304,977.50377 1710.5304,976.81627 1709.9991,976.16002 1711.8741,974.47252 1711.4991,973.91002 1709.9054,974.97252 1708.9054,976.16002 1708.5929,975.91002 1707.4054,976.16002 1707.2179,976.50377 1707.9054,977.81627 1707.7179,978.16002 1705.9679,979.22252 1705.0617,978.47252 1703.5304,978.53502 1702.1554,977.72252 1700.8741,978.06627 1700.8741,978.69127 1701.1554,978.81627 1702.7491,978.47252 1703.5929,980.31627 1703.6241,980.69127 1704.3117,980.97252 1702.2179,982.47252 1702.1241,982.84752 1702.9054,984.00377 1705.9679,983.56627 1706.6867,984.28502 1706.5304,984.69127 1708.8117,986.66002 1709.1241,987.31627 1710.1241,987.62877 1709.8429,988.37877 1707.7491,990.37877 1707.6867,991.19127 1707.4367,991.31627 1707.4679,991.72252 1706.4991,992.91002 1705.7179,993.12877 1706.9054,994.59752 1708.0304,994.75377 1708.4991,995.16 1709.0304,995.0975 1709.0929,994.87877 1710.1554,994.31627 1710.3117,995.0975 1711.4367,995.4413 1712.6241,995.0038 1713.0304,994.25377 1713.2491,991.69127 1715.8429,991.37877 1716.5304,992.22252 1716.2179,994.16002 1718.3429,993.37877 1718.4679,992.00377 1719.5617,990.75377 1719.7491,989.09752 1721.3429,989.19127 1721.9367,989.50377 1722.3741,988.41002 1722.7804,987.81627 1722.6554,987.22252 1722.1554,987.50377 1719.9367,987.44127 1719.7804,986.50377 1720.2491,986.00377 1720.0617,984.97252 1719.3117,984.16002 1719.9054,983.91002 1719.6241,981.72252 1720.0617,978.34752 1722.8429,974.00377 1722.2804,973.56627 1721.2491,973.81627 1720.4367,973.78502 1718.8741,974.41002 1718.4054,973.72252 1718.6554,970.91002 1717.8117,968.66002 z" id="069-00"></path></svg>