<svg xmlns="http://www.w3.org/2000/svg" version="1.1" xmlns:xlink="http://www.w3.org/1999/xlink" xmlns:svgjs="http://svgjs.dev/svgjs" viewBox="1113.3625 554.10347 123.59930000000008 97.26302999999996"><path class="circo" id="id-070-01" d="M 1175.7826,571.76901 1174.2859,569.87076 1173.8703,569.87393 1173.1663,570.29511 1170.21,570.14487 1170.1299,568.58297 1171.3141,567.72528 1173.0907,566.55276 1173.3101,564.89193 1173.0575,563.09348 1172.1739,563.16303 1172.2385,560.57949 1173.7378,558.93518 1174.9481,558.40048 1175.6711,557.29528 1176.452,557.13166 1176.4978,556.1106 1176.148,555.57949 1174.1346,555.45446 1173.0017,555.18812 1169.9963,556.97883 1168.7588,558.73743 1168.8181,559.96113 1167.6645,561.2468 1167.6083,562.06548 1167.055,562.73936 1164.3788,562.59784 1164.2193,563.84112 1162.4116,565.26559 1161.136,565.04419 1161.5557,563.43247 1163.4374,561.4112 1162.403,559.74068 1160.6907,560.41544 1160.1756,560.84332 1159.8962,563.84733 1159.0041,563.93782 1157.8023,565.05218 1158.0959,565.84222 1157.0642,566.55149 1157.5614,568.59489 1157.2145,569.52082 1156.9336,569.82334 1155.7285,569.7176 1154.2252,569.10352 1153.9589,569.41925 1153.6954,570.22386 1151.7204,573.76999 1151.9598,575.00051 1152.2866,575.9444 1150.3404,576.53061 1149.5692,576.60128 1149.7673,575.46759 1147.3127,575.37385 1146.5635,575.0076 1145.9017,575.98253 1145.1195,576.33618 1145.4836,578.75298 1145.2769,579.53479 1144.7814,580.12397 1144.0335,580.28955 1143.7427,580.186 1142.522,579.79154 1141.2146,579.5653 1140.1361,580.90207 1139.374,585.15831 1139.853,585.6348 1139.6594,586.32069 1141.647,586.37052 1141.982,586.60524 1142.0256,587.38903 1141.9011,588.70449 1142.1628,589.48423 1140.4821,590.88029 1140.4092,591.32274 1141.0131,591.98302 1140.1038,592.29677 1140.0195,593.61264 1140.7857,594.66375 1140.8355,596.39891 1140.4086,597.08595 1138.861,597.32547 1138.6124,596.99744 1137.9384,597.11676 1137.3891,598.04764 1135.3743,598.10053 1134.17,598.53001 1133.3798,598.29457 1132.591,598.74372 1131.6093,596.35433 1131.4726,595.05215 1130.3992,594.30502 1130.0898,594.26422 1126.9621,598.44555 1125.2369,598.41753 1124.9248,598.11089 1122.897,597.10287 1121.7554,598.34153 1120.0641,598.75357 1118.7698,598.79295 1117.6691,598.13841 1116.4126,598.49428 1115.7742,601.0877 1116.3387,601.71167 1114.8253,603.21526 1113.7295,605.08916 1113.658,607.20912 1114.6356,607.70532 1114.9366,608.38198 1115.8447,608.13946 1118.037,603.73723 1119.276,604.02772 1121.9009,606.74542 1122.5394,607.10272 1123.2133,610.47695 1122.8638,612.13614 1123.6214,612.39603 1124.076,614.44312 1123.2059,616.98156 1121.96,616.91975 1120.4572,619.53073 1119.8955,620.85375 1118.9582,621.5814 1118.2228,620.81324 1115.7947,620.49971 1115.1084,621.86557 1114.7816,622.74139 1116.5109,623.24497 1114.1217,624.63428 1113.3625,624.84124 1114.2865,625.49754 1114.1249,626.59312 1116.255,625.27664 1117.0479,625.41079 1117.4051,626.57539 1118.566,626.88172 1118.8899,626.6268 1119.3483,627.09615 1119.1305,627.38825 1118.5259,628.51946 1118.4475,630.26307 1119.4704,632.06074 1118.6882,633.88466 1120.2299,634.95801 1122.4908,633.66969 1124.0997,634.38325 1123.6725,636.34937 1123.4116,638.48644 1123.5171,638.67628 1123.937,640.2963 1123.6844,641.52086 1123.4274,641.85158 1122.6134,641.77395 1122.1285,642.44312 1122.1766,643.57401 1124.2336,643.70904 1125.1358,644.4773 1125.9374,644.96695 1126.258,644.75936 1127.1869,647.18018 1129.1045,648.1123 1129.0536,649.37564 1130.2146,649.30173 1130.6057,650.31422 1130.8415,651.3665 1131.484,651.11114 1132.9735,650.47779 1133.7808,650.6207 1134.8441,651.25166 1136.4578,650.98077 1136.8369,650.64162 1137.3979,649.87632 1138.2458,649.74705 1139.3768,648.53403 1140.0075,649.0453 1140.6538,648.96349 1141.2537,649.87657 1142.3294,649.17896 1144.3538,650.07273 1145.9743,648.88582 1146.2457,648.45748 1147.0818,648.48567 1147.7344,647.97035 1148.6523,646.60185 1149.4629,646.78306 1151.1404,646.10117 1152.516,645.65372 1153.6932,645.37997 1154.3801,644.12089 1155.3095,643.48499 1156.0914,643.65689 1156.8923,642.78031 1157.9217,644.00856 1158.5375,643.61112 1158.083,641.84694 1158.7285,641.35104 1160.6101,642.09751 1160.9688,641.86676 1160.5053,640.69481 1160.6324,639.87919 1161.6422,640.17336 1161.913,639.94944 1162.0133,640.3126 1163.7653,640.81911 1163.8033,640.82727 1165.0401,641.9948 1165.4095,641.78624 1165.7638,641.73984 1165.8567,642.0856 1166.1875,641.91404 1166.5781,640.49286 1167.2904,640.72002 1167.7548,641.33324 1168.865,641.4357 1169.4532,640.78148 1170.169,639.85987 1171.1979,639.35492 1171.2964,638.936 1171.5329,639.05481 1171.7537,639.26233 1172.9781,639.15744 1173.6237,638.63776 1173.8646,637.86041 1173.8343,636.49685 1175.4255,636.62387 1175.5744,637.80105 1175.6245,637.81549 1176.3364,637.71133 1177.0377,636.90576 1175.9276,635.83511 1176.3667,635.62398 1175.8806,635.05066 1176.7573,633.80606 1177.0475,633.51098 1178.228,634.5432 1179.8043,634.68871 1180.1196,634.21714 1180.4931,634.40748 1181.2171,633.98536 1181.5431,633.22467 1181.2203,632.46716 1179.9614,631.30874 1179.7919,631.68557 1179.3716,631.64387 1178.7449,630.52224 1179.2557,628.03186 1178.346,627.1453 1178.6329,626.82604 1177.5276,627.28708 1176.9312,626.5818 1177.7703,625.20158 1177.6114,623.19253 1176.8557,621.70304 1176.7025,619.7951 1175.6659,619.14088 1174.4484,619.20518 1173.9114,619.09457 1173.6412,617.79044 1174.025,616.99012 1173.8935,616.1299 1174.7976,615.56081 1176.2569,613.76016 1176.7436,611.62793 1177.1541,610.97353 1177.1841,610.9293 1179.5517,610.15297 1180.2629,608.78053 1181.9465,608.3748 1183.2256,609.52791 1184.4188,610.6686 1184.5757,611.93483 1186.5578,612.71611 1186.1505,609.30093 1184.6119,608.55567 1184.4815,608.14274 1183.8397,606.37663 1183.1793,605.96028 1184.6748,604.54648 1185.4789,604.43965 1186.2579,603.2227 1187.3734,603.56632 1188.2369,602.81561 1189.176,600.06954 1188.713,598.95301 1188.586,598.98078 1187.8859,597.34037 1187.9583,596.45952 1188.1018,595.64411 1189.6416,594.27988 1189.5727,593.86176 1189.161,593.91292 1188.8574,593.13104 1188.1748,592.6498 1187.0206,589.9623 1186.0827,588.96492 1185.6228,588.96542 1184.9768,590.50466 1184.284,590.9364 1182.8663,592.65788 1182.8179,592.62187 1183.366,591.49448 1182.8013,588.71953 1183.0644,588.38854 1183.2407,588.26704 1182.4318,584.44068 1182.5939,584.05305 1184.2937,583.91008 1184.7358,582.6744 1184.4179,582.41524 1182.8581,582.71198 1181.7022,582.31995 1181.775,582.00939 1180.9286,581.8579 1180.2368,582.93114 1179.4896,583.32061 1178.8947,582.25047 1177.4849,582.61037 1176.9388,580.51968 1177.6059,578.91213 1179.1694,578.30955 1179.4374,578.06022 1179.1163,576.95579 1179.2451,576.74529 1179.413,575.06917 1178.4868,573.63757 1176.9382,573.03045 1175.7826,571.76901 z">
      <title id="t364">Première circonscription de la Haute-Saône</title>
      <desc id="d364">Cantons de : Amance, Autrey-lès-Gray, Champlitte, Combeaufontaine, Dampierre-sur-Salon, Fresne-Saint-Marnès, Gray, Gy, Jussey, Marnay, Pesmes, Port-sur-Saône, Rioz, Scey-sur-Saône-et-Saint-Albin, Vesoul Est, Vesoul Ouest, Vitrey-sur-Mance</desc>
    </path><path class="circo" id="id-070-02" d="M 1232.3213,594.73461 1232.4491,593.57524 1231.3858,592.28224 1231.4294,590.21636 1231.2638,589.11384 1232.704,586.72981 1233.6955,584.7625 1236.0226,582.78639 1236.9618,581.30052 1236.8655,580.86929 1234.18,578.70322 1233.9285,578.11265 1234.203,577.32256 1233.5855,576.24524 1229.6084,574.66477 1229.5345,574.23082 1229.3605,574.30026 1227.224,572.91931 1226.6767,572.20958 1225.627,571.64974 1225.2451,571.34286 1221.7065,569.33683 1221.2527,568.58006 1221.3389,567.69624 1220.3535,566.28053 1218.9269,565.28348 1218.3727,564.21433 1217.9699,564.22563 1215.2043,565.47925 1214.3157,566.94181 1212.9352,569.53349 1209.6567,570.33022 1207.5161,571.70031 1207.2559,570.8609 1205.8618,569.1777 1205.8684,567.46439 1205.0937,567.02362 1203.577,564.29783 1201.5794,564.37562 1201.2468,563.15288 1199.8737,562.24078 1199.0524,562.41354 1197.888,561.91658 1194.2727,563.50176 1192.9418,563.41369 1191.7537,562.79572 1190.4368,563.02888 1189.2147,564.00228 1188.1785,564.89777 1187.4008,564.96971 1187.0922,565.68948 1185.53,565.3317 1185.0892,566.00157 1184.3072,565.79021 1184.555,564.48386 1184.463,564.0538 1182.3379,562.63236 1181.402,563.17762 1180.5691,562.45936 1180.4167,561.73759 1180.0599,561.68097 1179.577,561.12644 1180.6908,560.63827 1180.3939,558.25201 1179.8565,557.65731 1180.128,556.28149 1178.0318,554.10347 1176.5787,554.86751 1176.148,555.57949 1176.4978,556.1106 1176.452,557.13166 1175.6711,557.29528 1174.9481,558.40048 1173.7378,558.93518 1172.2385,560.57949 1172.1739,563.16303 1173.0575,563.09348 1173.3101,564.89193 1173.0907,566.55276 1171.3141,567.72528 1170.1299,568.58297 1170.21,570.14487 1173.1663,570.29511 1173.8703,569.87393 1174.2859,569.87076 1175.7826,571.76901 1176.9382,573.03045 1178.4868,573.63757 1179.413,575.06917 1179.2451,576.74529 1179.1163,576.95579 1179.4374,578.06022 1179.1694,578.30955 1177.6059,578.91213 1176.9388,580.51968 1177.4849,582.61037 1178.8947,582.25047 1179.4896,583.32061 1180.2368,582.93114 1180.9286,581.8579 1181.775,582.00939 1181.7022,582.31995 1182.8581,582.71198 1184.4179,582.41524 1184.7358,582.6744 1184.2937,583.91008 1182.5939,584.05305 1182.4318,584.44068 1183.2407,588.26704 1183.0644,588.38854 1182.8013,588.71953 1183.366,591.49448 1182.8179,592.62187 1182.8663,592.65788 1184.284,590.9364 1184.9768,590.50466 1185.6228,588.96542 1186.0827,588.96492 1187.0206,589.9623 1188.1748,592.6498 1188.8574,593.13104 1189.161,593.91292 1189.5727,593.86176 1189.6416,594.27988 1188.1018,595.64411 1187.9583,596.45952 1187.8859,597.34037 1188.586,598.98078 1188.713,598.95301 1189.176,600.06954 1188.2369,602.81561 1187.3734,603.56632 1186.2579,603.2227 1185.4789,604.43965 1184.6748,604.54648 1183.1793,605.96028 1183.8397,606.37663 1184.4815,608.14274 1184.6119,608.55567 1186.1505,609.30093 1186.5578,612.71611 1184.5757,611.93483 1184.4188,610.6686 1183.2256,609.52791 1181.9465,608.3748 1180.2629,608.78053 1179.5517,610.15297 1177.1841,610.9293 1177.1541,610.97353 1176.7436,611.62793 1176.2569,613.76016 1174.7976,615.56081 1173.8935,616.1299 1174.025,616.99012 1173.6412,617.79044 1173.9114,619.09457 1174.4484,619.20518 1175.6659,619.14088 1176.7025,619.7951 1176.8557,621.70304 1177.6114,623.19253 1177.7703,625.20158 1176.9312,626.5818 1177.5276,627.28708 1178.6329,626.82604 1178.346,627.1453 1179.2557,628.03186 1178.7449,630.52224 1179.3716,631.64387 1179.7919,631.68557 1179.9614,631.30874 1181.2203,632.46716 1181.5431,633.22467 1182.1304,632.69623 1182.921,632.64336 1182.9494,632.24737 1181.9817,632.10294 1181.6064,632.09352 1181.3542,631.4066 1181.961,630.93089 1182.7213,631.1609 1183.3957,631.0535 1183.3633,630.71156 1183.7542,630.70025 1183.87,629.53575 1184.4046,629.01531 1184.542,629.32768 1184.8506,629.70474 1185.9633,630.17475 1186.6433,631.20763 1187.3968,631.59626 1187.5791,631.22471 1186.7723,629.81857 1186.8348,629.03441 1188.1603,629.84747 1189.0343,629.36625 1189.1255,628.24927 1189.2529,627.15736 1190.679,627.42169 1191.4464,626.96782 1190.9068,626.47646 1191.8722,624.65691 1192.5104,624.16714 1192.2924,622.4867 1192.5766,621.44126 1193.3517,621.84896 1194.1115,621.91614 1195.0465,619.94144 1195.2939,619.62082 1196.501,619.67556 1198.1507,618.67788 1199.0526,618.94569 1199.9956,619.60069 1200.6085,618.06357 1201.8113,617.62001 1202.11,617.93003 1202.2854,617.71882 1203.2925,618.24683 1204.5184,618.52044 1205.3366,618.32045 1206.0207,618.80965 1206.943,622.00872 1207.3012,621.80242 1207.3093,620.97302 1209.4123,619.08563 1209.8937,620.10829 1210.8703,620.79462 1211.2692,620.72064 1211.8972,620.29652 1212.1608,619.58383 1213.1109,620.3023 1213.9401,621.59461 1214.3393,620.83388 1215.6126,620.94257 1216.4759,619.07368 1216.1306,617.11072 1216.2831,616.68887 1215.5042,616.78505 1215.2935,616.43973 1216.2965,615.21693 1216.2024,614.82343 1217.3937,615.04455 1218.4084,615.73771 1218.6244,616.38409 1219.386,616.47121 1220.1596,616.61913 1221.9546,615.82975 1222.4795,615.11658 1222.8798,614.50886 1223.8293,613.08682 1222.4279,611.40859 1222.947,610.31427 1223.4033,611.24165 1225.418,611.46062 1225.1104,612.42588 1228.0228,613.7628 1228.2573,612.89082 1228.5695,612.77166 1229.7737,613.22499 1230.517,614.2546 1231.3041,615.14315 1232.2551,615.62892 1233.2583,615.79852 1234.5787,614.18722 1234.9697,612.52389 1235.4601,612.46934 1235.6996,611.72595 1236.7112,611.14488 1236.6506,611.017 1236.5739,610.87021 1235.2137,609.91858 1235.0624,609.08554 1234.1253,608.24976 1234.2939,607.87285 1233.9586,607.18984 1233.8645,607.16714 1233.6443,606.34977 1232.9834,605.83859 1233.199,604.59655 1234.1062,604.39248 1234.8534,603.03613 1234.7231,602.23288 1234.0745,601.7422 1233.8013,601.26638 1233.2419,600.63782 1232.9297,599.45828 1233.0494,598.21049 1233.1774,596.45548 1233.0639,595.6489 1232.3213,594.73461 z">
      <title id="t365">Deuxième circonscription de la Haute-Saône</title>
      <desc id="d365">Cantons de : Champagney, Faucogney-et-la-Mer, Héricourt Est, Héricourt Ouest, Lure Nord, Lure Sud, Luxeuil-les-Bains, Mélisey, Montbozon, Noroy-le-Bourg, Saint-Loup-sur-Semouse, Saint-Sauveur, Saulx, Vauvillers, Villersexel</desc>
    </path></svg>