<svg xmlns="http://www.w3.org/2000/svg" version="1.1" xmlns:xlink="http://www.w3.org/1999/xlink" xmlns:svgjs="http://svgjs.dev/svgjs" viewBox="0 0 123.59930000000008 97.26302999999996"><path class="circo" id="id-070-01" d="M62.42010000000005 17.665539999999964L60.92340000000013 15.767290000000003L60.50780000000009 15.770459999999957L59.80380000000014 16.191640000000007L56.84750000000008 16.041399999999953L56.76739999999995 14.47950000000003L57.9516000000001 13.621809999999982L59.728200000000015 12.449290000000019L59.947599999999966 10.788459999999986L59.694999999999936 8.990009999999984L58.81140000000005 9.059560000000033L58.875999999999976 6.476019999999949L60.37530000000015 4.83170999999993L61.58560000000011 4.29701L62.30860000000007 3.1918100000000322L63.089500000000044 3.028189999999995L63.13530000000014 2.007129999999961L62.785499999999956 1.4760199999999486L60.77210000000014 1.3509900000000243L59.63920000000007 1.0846500000000106L56.633800000000065 2.8753600000000006L55.39630000000011 4.633960000000002L55.455600000000004 5.85766000000001L54.302000000000135 7.143329999999992L54.245800000000145 7.962009999999964L53.69250000000011 8.635890000000018L51.0163 8.494370000000004L50.85680000000002 9.73765000000003L49.04909999999995 11.162119999999959L47.77350000000001 10.940719999999942L48.19319999999993 9.32899999999995L50.07490000000007 7.307729999999992L49.040500000000065 5.637209999999982L47.32820000000015 6.311969999999974L46.81310000000008 6.739849999999933L46.53369999999995 9.74386000000004L45.64160000000015 9.834349999999972L44.439800000000105 10.948710000000005L44.733400000000074 11.738749999999982L43.70170000000007 12.448019999999929L44.198900000000094 14.491419999999948L43.85200000000009 15.417349999999942L43.571100000000115 15.719870000000014L42.365999999999985 15.614129999999932L40.86270000000013 15.000049999999987L40.59640000000013 15.315780000000018L40.33290000000011 16.12038999999993L38.35789999999997 19.66651999999999L38.59730000000013 20.897039999999947L38.92409999999995 21.840929999999958L36.97790000000009 22.42714000000001L36.206699999999955 22.49780999999996L36.40480000000002 21.364119999999957L33.950199999999995 21.270379999999932L33.20100000000002 20.90413000000001L32.53919999999994 21.87905999999998L31.757000000000062 22.232709999999997L32.12110000000007 24.649509999999964L31.914400000000114 25.431320000000028L31.41890000000012 26.02049999999997L30.67100000000005 26.186079999999947L30.38020000000006 26.08253000000002L29.15949999999998 25.68807000000004L27.852100000000064 25.461829999999964L26.773599999999988 26.798599999999965L26.01150000000007 31.054840000000013L26.49050000000011 31.531330000000025L26.29690000000005 32.21722L28.28449999999998 32.26705000000004L28.619500000000016 32.501769999999965L28.663099999999986 33.28556000000003L28.538600000000088 34.60101999999995L28.800300000000107 35.38076000000001L27.11959999999999 36.77681999999993L27.0467000000001 37.21926999999994L27.65059999999994 37.879549999999995L26.741300000000138 38.19330000000002L26.657000000000153 39.50917000000004L27.42319999999995 40.560280000000034L27.472999999999956 42.295439999999985L27.046100000000024 42.98248000000001L25.49850000000015 43.22199999999998L25.249900000000025 42.89396999999997L24.575900000000047 43.013289999999984L24.026600000000144 43.944169999999986L22.011799999999994 43.99706000000003L20.80750000000012 44.42653999999993L20.017299999999977 44.191100000000006L19.22849999999994 44.64025000000004L18.24680000000012 42.25085999999999L18.110100000000102 40.94867999999997L17.03670000000011 40.20155L16.727300000000014 40.16075000000001L13.59960000000001 44.34208000000001L11.87440000000015 44.31406000000004L11.56230000000005 44.007420000000025L9.53449999999998 42.99940000000004L8.392900000000054 44.23806000000002L6.701600000000099 44.65009999999995L5.4073000000000775 44.68948L4.306600000000117 44.034940000000006L3.050100000000157 44.39080999999999L2.41170000000011 46.984230000000025L2.9762000000000626 47.60820000000001L1.4628000000000156 49.11178999999993L0.3669999999999618 50.98568999999998L0.29549999999994725 53.10564999999997L1.2731000000001131 53.60185000000001L1.574100000000044 54.27850999999998L2.482200000000148 54.03598999999997L4.67450000000008 49.63375999999994L5.913500000000113 49.92425000000003L8.538400000000138 52.64194999999995L9.176899999999932 52.99924999999996L9.850799999999936 56.37347999999997L9.501300000000128 58.03266999999994L10.25890000000004 58.29255999999998L10.713500000000067 60.339650000000006L9.843399999999974 62.87808999999993L8.597500000000082 62.816280000000006L7.094700000000103 65.42725999999993L6.533000000000129 66.75027999999998L5.595700000000079 67.47793000000001L4.860300000000052 66.70976999999993L2.432199999999966 66.39624000000003L1.7459000000001197 67.76210000000003L1.4191000000000713 68.63792000000001L3.148400000000038 69.14149999999995L0.7591999999999643 70.53080999999997L0 70.73776999999995L0.9239999999999782 71.39406999999994L0.7624000000000706 72.48964999999998L2.8925000000001546 71.17317000000003L3.6854000000000724 71.30732L4.042599999999993 72.47191999999995L5.203500000000076 72.77824999999996L5.527399999999943 72.52332999999999L5.985800000000154 72.99267999999995L5.768000000000029 73.28477999999996L5.163400000000138 74.41598999999997L5.085000000000036 76.15959999999995L6.107899999999972 77.95727L5.325700000000097 79.78119000000004L6.867400000000089 80.85453999999993L9.128300000000081 79.56621999999993L10.73720000000003 80.27977999999996L10.309999999999945 82.2459L10.049099999999953 84.38297L10.154600000000073 84.57281L10.574499999999944 86.19282999999996L10.321900000000142 87.41738999999995L10.06490000000008 87.74811L9.250900000000001 87.67048L8.766000000000076 88.33965L8.814100000000053 89.47054000000003L10.87110000000007 89.60556999999994L11.773300000000063 90.37383L12.57490000000007 90.86347999999998L12.895500000000084 90.65589L13.824399999999969 93.07670999999993L15.741999999999962 94.00882999999999L15.691100000000006 95.27216999999996L16.852100000000064 95.19826L17.243200000000115 96.21074999999996L17.479000000000042 97.26302999999996L18.12149999999997 97.00766999999996L19.611000000000104 96.37432000000001L20.418300000000045 96.51723000000004L21.48160000000007 97.14819L23.095299999999952 96.87729999999999L23.47440000000006 96.53814999999997L24.03539999999998 95.77284999999995L24.883299999999963 95.64357999999993L26.01430000000005 94.43056000000001L26.644999999999982 94.94182999999998L27.291300000000092 94.86001999999996L27.891200000000026 95.7731L28.966900000000123 95.07548999999995L30.991300000000138 95.96925999999996L32.61180000000013 94.78234999999995L32.88319999999999 94.35401000000002L33.719299999999976 94.38220000000001L34.371900000000096 93.86688000000004L35.289800000000014 92.49838L36.100400000000036 92.67958999999996L37.777900000000045 91.99770000000001L39.15350000000012 91.55025L40.33069999999998 91.27649999999994L41.01760000000013 90.01742000000002L41.947000000000116 89.38152000000002L42.72890000000007 89.55341999999996L43.52980000000002 88.67683999999997L44.559200000000146 89.90508999999997L45.174999999999955 89.50765000000001L44.72050000000013 87.74347L45.365999999999985 87.24757L47.24760000000015 87.99404000000004L47.60630000000015 87.76328999999998L47.14280000000008 86.59133999999995L47.26990000000001 85.77571999999998L48.27970000000005 86.06988999999999L48.550500000000056 85.84596999999997L48.65080000000012 86.20912999999996L50.40280000000007 86.71564000000001L50.44080000000008 86.72379999999998L51.677599999999984 87.89133000000004L52.047000000000025 87.68277L52.40129999999999 87.63636999999994L52.49420000000009 87.98212999999998L52.825000000000045 87.81056999999998L53.215599999999995 86.38938999999993L53.927900000000136 86.61654999999996L54.39229999999998 87.22977000000003L55.502500000000055 87.33222999999998L56.09069999999997 86.67800999999997L56.80650000000014 85.75639999999999L57.835399999999936 85.25144999999998L57.933899999999994 84.83253000000002L58.17039999999997 84.95133999999996L58.391200000000026 85.15886L59.615600000000086 85.05396999999994L60.261200000000144 84.53428999999994L60.502100000000155 83.75693999999999L60.47180000000003 82.39337999999998L62.0630000000001 82.5204L62.211900000000014 83.69758000000002L62.261999999999944 83.71201999999994L62.97389999999996 83.60785999999996L63.67520000000013 82.80228999999997L62.56510000000003 81.73163999999997L63.00420000000008 81.52050999999994L62.518100000000004 80.94718999999998L63.39480000000003 79.70258999999999L63.684999999999945 79.40751L64.86550000000011 80.43972999999994L66.44180000000006 80.58524L66.75710000000004 80.11366999999996L67.13059999999996 80.30400999999995L67.85460000000012 79.88189L68.18060000000014 79.12119999999993L67.8578 78.36369000000002L66.59889999999996 77.20526999999993L66.42939999999999 77.58209999999997L66.00909999999999 77.54039999999998L65.38239999999996 76.41877L65.89319999999998 73.92839000000004L64.98350000000005 73.04183L65.27040000000011 72.72257000000002L64.16509999999994 73.18360999999993L63.568700000000035 72.47833000000003L64.40779999999995 71.09811000000002L64.24890000000005 69.08906000000002L63.493200000000115 67.59956999999997L63.340000000000146 65.69163000000003L62.30340000000001 65.03741000000002L61.08590000000004 65.10171000000003L60.5489 64.99109999999996L60.27870000000007 63.686969999999974L60.662500000000136 62.88665000000003L60.53099999999995 62.026430000000005L61.43510000000015 61.45733999999993L62.89440000000013 59.656690000000026L63.38110000000006 57.524459999999976L63.79160000000002 56.87005999999997L63.82159999999999 56.825829999999996L66.18920000000003 56.049499999999966L66.90039999999999 54.67705999999998L68.58400000000006 54.271330000000034L69.86310000000003 55.424440000000004L71.05629999999996 56.565129999999954L71.21320000000014 57.83136000000002L73.19530000000009 58.61263999999994L72.78800000000001 55.19745999999998L71.24940000000015 54.45219999999995L71.11900000000014 54.03926999999999L70.47720000000004 52.27315999999996L69.81680000000006 51.856809999999996L71.31230000000005 50.44300999999996L72.11640000000011 50.33618000000001L72.89540000000011 49.119230000000016L74.01089999999999 49.46285L74.87440000000015 48.71213999999998L75.81349999999998 45.966069999999945L75.35050000000001 44.849539999999934L75.22350000000006 44.877309999999966L74.52340000000004 43.23689999999999L74.59580000000005 42.35604999999998L74.73929999999996 41.54063999999994L76.27909999999997 40.17641000000003L76.21019999999999 39.75828999999999L75.7985000000001 39.80944999999997L75.49490000000014 39.02756999999997L74.81230000000005 38.54633000000001L73.6581000000001 35.85883000000001L72.72019999999998 34.86144999999999L72.26030000000014 34.86194999999998L71.61429999999996 36.40118999999993L70.92150000000015 36.83293000000003L69.50379999999996 38.55440999999996L69.45540000000005 38.51839999999993L70.00350000000003 37.39100999999994L69.43880000000013 34.61605999999995L69.70190000000002 34.28507000000002L69.8782000000001 34.163569999999936L69.06930000000011 30.337210000000027L69.23140000000012 29.94957999999997L70.93119999999999 29.806609999999978L71.37329999999997 28.570929999999976L71.05539999999996 28.311770000000024L69.49559999999997 28.608510000000024L68.3397 28.216479999999933L68.41250000000014 27.905920000000037L67.5661 27.754429999999957L66.87429999999995 28.827670000000012L66.12710000000015 29.217139999999972L65.5322000000001 28.146999999999935L64.12239999999997 28.506899999999973L63.57629999999995 26.416209999999978L64.24340000000007 24.80866000000003L65.80690000000004 24.20607999999993L66.07490000000007 23.956749999999943L65.75379999999996 22.852319999999963L65.88260000000014 22.64181999999994L66.05050000000006 20.96569999999997L65.12429999999995 19.534099999999967L63.5757000000001 18.926979999999958L62.42010000000005 17.665539999999964z">
      <title id="t364">Première circonscription de la Haute-Saône</title>
      <desc id="d364">Cantons de : Amance, Autrey-lès-Gray, Champlitte, Combeaufontaine, Dampierre-sur-Salon, Fresne-Saint-Marnès, Gray, Gy, Jussey, Marnay, Pesmes, Port-sur-Saône, Rioz, Scey-sur-Saône-et-Saint-Albin, Vesoul Est, Vesoul Ouest, Vitrey-sur-Mance</desc>
    </path><path class="circo" id="id-070-02" d="M118.95880000000011 40.63113999999996L119.08660000000009 39.47176999999999L118.02330000000006 38.178769999999986L118.06690000000003 36.11288999999999L117.90129999999999 35.010369999999966L119.3415 32.62634000000003L120.33300000000008 30.65903000000003L122.66010000000006 28.682919999999967L123.59930000000008 27.19704999999999L123.50300000000016 26.765819999999962L120.81750000000011 24.599749999999972L120.56600000000003 24.009180000000015L120.84050000000002 23.219089999999937L120.22299999999996 22.14176999999995L116.24590000000012 20.56129999999996L116.17200000000003 20.12734999999998L115.99800000000005 20.196789999999964L113.86149999999998 18.81583999999998L113.31420000000003 18.106109999999944L112.2645 17.546269999999936L111.88260000000014 17.239389999999958L108.34400000000005 15.233359999999948L107.89020000000005 14.476589999999987L107.97640000000001 13.592769999999973L106.99099999999999 12.177059999999983L105.56439999999998 11.180010000000038L105.01019999999994 10.110860000000002L104.6074000000001 10.122160000000008L101.84180000000015 11.375779999999963L100.95320000000015 12.838340000000017L99.57269999999994 15.430020000000013L96.29420000000005 16.226750000000038L94.1536000000001 17.59683999999993L93.89340000000016 16.75743L92.49929999999995 15.074229999999943L92.50590000000011 13.360919999999965L91.73119999999994 12.920150000000035L90.21450000000004 10.19435999999996L88.21690000000012 10.27215000000001L87.88429999999994 9.049409999999966L86.51120000000014 8.137309999999957L85.68990000000008 8.310069999999996L84.52549999999997 7.813109999999938L80.91020000000003 9.398289999999974L79.5793000000001 9.310219999999958L78.39120000000003 8.692249999999945L77.0743 8.925409999999943L75.85220000000004 9.898810000000026L74.81600000000003 10.794300000000021L74.03829999999994 10.866239999999948L73.7297000000001 11.586009999999987L72.16750000000002 11.22822999999994L71.72669999999994 11.8981L70.94470000000001 11.686739999999986L71.19250000000011 10.380390000000034L71.10050000000001 9.950330000000008L68.97540000000004 8.528889999999933L68.03950000000009 9.074150000000031L67.20659999999998 8.355889999999931L67.05420000000004 7.634119999999939L66.69740000000002 7.577499999999986L66.21450000000004 7.022969999999987L67.32830000000013 6.534800000000018L67.03140000000008 4.148540000000025L66.49400000000014 3.5538400000000365L66.76549999999997 2.1780199999999468L64.66930000000002 0L63.21620000000007 0.7640400000000227L62.785499999999956 1.4760199999999486L63.13530000000014 2.007129999999961L63.089500000000044 3.028189999999995L62.30860000000007 3.1918100000000322L61.58560000000011 4.29701L60.37530000000015 4.83170999999993L58.875999999999976 6.476019999999949L58.81140000000005 9.059560000000033L59.694999999999936 8.990009999999984L59.947599999999966 10.788459999999986L59.728200000000015 12.449290000000019L57.9516000000001 13.621809999999982L56.76739999999995 14.47950000000003L56.84750000000008 16.041399999999953L59.80380000000014 16.191640000000007L60.50780000000009 15.770459999999957L60.92340000000013 15.767290000000003L62.42010000000005 17.665539999999964L63.5757000000001 18.926979999999958L65.12429999999995 19.534099999999967L66.05050000000006 20.96569999999997L65.88260000000014 22.64181999999994L65.75379999999996 22.852319999999963L66.07490000000007 23.956749999999943L65.80690000000004 24.20607999999993L64.24340000000007 24.80866000000003L63.57629999999995 26.416209999999978L64.12239999999997 28.506899999999973L65.5322000000001 28.146999999999935L66.12710000000015 29.217139999999972L66.87429999999995 28.827670000000012L67.5661 27.754429999999957L68.41250000000014 27.905920000000037L68.3397 28.216479999999933L69.49559999999997 28.608510000000024L71.05539999999996 28.311770000000024L71.37329999999997 28.570929999999976L70.93119999999999 29.806609999999978L69.23140000000012 29.94957999999997L69.06930000000011 30.337210000000027L69.8782000000001 34.163569999999936L69.70190000000002 34.28507000000002L69.43880000000013 34.61605999999995L70.00350000000003 37.39100999999994L69.45540000000005 38.51839999999993L69.50379999999996 38.55440999999996L70.92150000000015 36.83293000000003L71.61429999999996 36.40118999999993L72.26030000000014 34.86194999999998L72.72019999999998 34.86144999999999L73.6581000000001 35.85883000000001L74.81230000000005 38.54633000000001L75.49490000000014 39.02756999999997L75.7985000000001 39.80944999999997L76.21019999999999 39.75828999999999L76.27909999999997 40.17641000000003L74.73929999999996 41.54063999999994L74.59580000000005 42.35604999999998L74.52340000000004 43.23689999999999L75.22350000000006 44.877309999999966L75.35050000000001 44.849539999999934L75.81349999999998 45.966069999999945L74.87440000000015 48.71213999999998L74.01089999999999 49.46285L72.89540000000011 49.119230000000016L72.11640000000011 50.33618000000001L71.31230000000005 50.44300999999996L69.81680000000006 51.856809999999996L70.47720000000004 52.27315999999996L71.11900000000014 54.03926999999999L71.24940000000015 54.45219999999995L72.78800000000001 55.19745999999998L73.19530000000009 58.61263999999994L71.21320000000014 57.83136000000002L71.05629999999996 56.565129999999954L69.86310000000003 55.424440000000004L68.58400000000006 54.271330000000034L66.90039999999999 54.67705999999998L66.18920000000003 56.049499999999966L63.82159999999999 56.825829999999996L63.79160000000002 56.87005999999997L63.38110000000006 57.524459999999976L62.89440000000013 59.656690000000026L61.43510000000015 61.45733999999993L60.53099999999995 62.026430000000005L60.662500000000136 62.88665000000003L60.27870000000007 63.686969999999974L60.5489 64.99109999999996L61.08590000000004 65.10171000000003L62.30340000000001 65.03741000000002L63.340000000000146 65.69163000000003L63.493200000000115 67.59956999999997L64.24890000000005 69.08906000000002L64.40779999999995 71.09811000000002L63.568700000000035 72.47833000000003L64.16509999999994 73.18360999999993L65.27040000000011 72.72257000000002L64.98350000000005 73.04183L65.89319999999998 73.92839000000004L65.38239999999996 76.41877L66.00909999999999 77.54039999999998L66.42939999999999 77.58209999999997L66.59889999999996 77.20526999999993L67.8578 78.36369000000002L68.18060000000014 79.12119999999993L68.76790000000005 78.59276L69.5585000000001 78.53989000000001L69.58690000000001 78.14390000000003L68.61920000000009 77.99946999999997L68.24389999999994 77.99005L67.99170000000004 77.30313000000001L68.59850000000006 76.82741999999996L69.35879999999997 77.05742999999995L70.03320000000008 76.95002999999997L70.00080000000003 76.60808999999995L70.39170000000013 76.59677999999997L70.50749999999994 75.43227999999999L71.04210000000012 74.91183999999998L71.17949999999996 75.22420999999997L71.48810000000003 75.60127L72.60079999999994 76.07128L73.2808 77.10415999999998L74.03430000000003 77.49279000000001L74.21659999999997 77.12123999999994L73.40980000000013 75.7151L73.47230000000013 74.93093999999996L74.79780000000005 75.74400000000003L75.67180000000008 75.26278000000002L75.76300000000015 74.14580000000001L75.8904 73.05389000000002L77.31650000000013 73.31822L78.08390000000009 72.86434999999994L77.54430000000002 72.37298999999996L78.50970000000007 70.55344000000002L79.14789999999994 70.06367L78.92990000000009 68.38323000000003L79.21410000000014 67.33779000000004L79.98919999999998 67.74549000000002L80.74900000000002 67.81267000000003L81.68399999999997 65.83796999999993L81.93139999999994 65.51734999999996L83.13850000000002 65.57209L84.78819999999996 64.57440999999994L85.69010000000003 64.84222L86.63310000000001 65.49721999999997L87.2460000000001 63.96010000000001L88.44880000000012 63.516539999999964L88.74749999999995 63.82655999999997L88.92290000000003 63.615350000000035L89.93000000000006 64.14336000000003L91.15589999999997 64.41696999999999L91.97410000000013 64.21698000000004L92.65820000000008 64.70618000000002L93.58050000000003 67.90525000000002L93.93870000000015 67.69894999999997L93.94679999999994 66.86955L96.0498 64.98216000000002L96.53120000000013 66.00482L97.50780000000009 66.69115L97.9067 66.61716999999999L98.53470000000016 66.19304999999997L98.79830000000015 65.48036000000002L99.74839999999995 66.19882999999993L100.57760000000007 67.49113999999997L100.97680000000014 66.73041L102.25009999999997 66.83910000000003L103.11339999999996 64.97020999999995L102.7681 63.00725L102.92060000000015 62.585399999999936L102.14170000000013 62.68157999999994L101.93100000000004 62.33626000000004L102.93399999999997 61.11346000000003L102.83989999999994 60.719960000000015L104.03120000000013 60.94107999999994L105.04590000000007 61.63423999999998L105.26189999999997 62.28062L106.02350000000001 62.367740000000026L106.7971 62.515660000000025L108.59210000000007 61.726279999999974L109.11699999999996 61.01310999999998L109.51729999999998 60.40539000000001L110.46680000000015 58.98334999999997L109.06539999999995 57.30511999999999L109.58449999999993 56.21079999999995L110.04079999999999 57.138180000000034L112.05549999999994 57.35714999999993L111.74790000000007 58.32240999999999L114.6603 59.659329999999954L114.89480000000003 58.78734999999995L115.20700000000011 58.66818999999998L116.41120000000001 59.12152000000003L117.1545000000001 60.15112999999997L117.94160000000011 61.039679999999976L118.89260000000013 61.52544999999998L119.89580000000001 61.69505000000004L121.21620000000007 60.08375000000001L121.60720000000015 58.420420000000036L122.09760000000006 58.36586999999997L122.33709999999996 57.622479999999996L123.34870000000001 57.04140999999993L123.28809999999999 56.91353000000004L123.21140000000014 56.76674000000003L121.85120000000006 55.815110000000004L121.69990000000007 54.98207000000002L120.76279999999997 54.14629000000002L120.93139999999994 53.769379999999956L120.59609999999998 53.08636999999999L120.50199999999995 53.06367L120.28179999999998 52.24630000000002L119.62090000000012 51.73511999999994L119.83650000000011 50.49307999999996L120.74369999999999 50.28900999999996L121.49090000000001 48.93265999999994L121.36059999999998 48.12941000000001L120.71199999999999 47.63873000000001L120.43880000000013 47.16291000000001L119.87940000000003 46.53435000000002L119.56719999999996 45.35480999999993L119.68690000000015 44.107020000000034L119.81490000000008 42.35200999999995L119.70140000000015 41.54543000000001L118.95880000000011 40.63113999999996z">
      <title id="t365">Deuxième circonscription de la Haute-Saône</title>
      <desc id="d365">Cantons de : Champagney, Faucogney-et-la-Mer, Héricourt Est, Héricourt Ouest, Lure Nord, Lure Sud, Luxeuil-les-Bains, Mélisey, Montbozon, Noroy-le-Bourg, Saint-Loup-sur-Semouse, Saint-Sauveur, Saulx, Vauvillers, Villersexel</desc>
    </path></svg>