<svg xmlns="http://www.w3.org/2000/svg" version="1.1" xmlns:xlink="http://www.w3.org/1999/xlink" xmlns:svgjs="http://svgjs.dev/svgjs" viewBox="0 0 156.5155699999999 123.67354999999998"><path class="circo" id="id-071-01" d="M93.39496999999994 115.58087L93.26587000000006 114.87094000000002L94.37076999999988 114.99257999999998L94.63976999999988 114.29340000000002L93.32336999999995 112.93403999999998L92.32076999999992 112.40292999999997L92.00896999999998 112.12156000000004L90.75617 112.18646000000001L90.14477 111.61313000000007L89.85716999999988 110.03226000000006L90.57876999999996 110.20392000000004L91.01286999999991 109.57409000000007L91.62346999999988 110.08022000000005L92.21766999999988 109.81277L92.20016999999996 107.9615L91.84056999999996 107.94146L91.04446999999993 106.75218000000007L91.00636999999995 105.79389000000003L89.84557000000007 105.52405999999996L88.55037000000004 106.49727000000007L87.5907699999999 105.69583L86.35577 105.90487000000007L86.1052699999999 107.07425L84.51076999999998 108.46369000000004L84.92527000000007 109.62647000000004L84.64216999999996 110.41024000000004L81.91746999999998 109.93056999999999L80.75996999999995 108.85073999999997L80.64917000000003 107.25336000000004L80.50166999999999 106.89808000000005L79.47636999999997 106.75021000000004L78.66116999999997 108.11021000000005L78.51227000000006 109.28805L77.79356999999993 109.73801000000003L74.90396999999996 110.12178000000006L73.58336999999995 107.55694000000005L72.47617000000002 108.00800000000004L71.00946999999985 106.58032000000003L69.41717000000006 106.93425000000002L69.09446999999989 106.15278999999998L68.36197000000004 105.73176000000001L68.96627000000001 104.38616999999999L67.34516999999994 104.77246000000002L66.18386999999996 104.35381000000007L65.72807 103.63740000000007L65.73707000000002 102.37387000000001L64.15306999999996 99.91089L65.84467000000006 98.65183999999999L66.98466999999994 96.85269000000005L69.57066999999995 98.73447999999996L70.30757000000006 98.34537999999998L70.19437000000005 96.67354999999998L71.15156999999988 95.80563000000006L71.29566999999986 94.95041000000003L72.85467000000006 92.99248999999998L72.9150699999999 92.12656000000004L73.13387 92.50036L75.12336999999991 93.28538000000003L76.07667000000004 92.39101000000005L76.20267000000001 90.78773999999999L75.65396999999996 89.20099000000005L75.84596999999997 87.96152000000006L76.61027000000001 88.35629000000006L77.01306999999986 88.20418000000006L78.08156999999994 86.95824000000005L78.36377000000005 86.18259L77.58467000000007 85.85287000000005L78.00347 83.40098L75.53286999999989 83.23739999999998L73.22826999999995 82.25736000000006L72.87076999999988 81.75358000000006L74.87007000000006 81.02736000000004L75.62536999999986 80.02080999999998L76.47527000000002 79.88036999999997L77.30847000000006 78.93641000000002L77.44866999999988 77.88333L76.79266999999993 77.55899999999997L76.31597 75.35499000000004L76.65357000000006 75.10545000000002L78.73536999999999 75.27305000000001L79.14766999999995 73.42633999999998L79.33127000000002 73.06371000000001L79.72697000000005 73.14841000000001L80.15097000000003 70.51054999999997L80.13526999999988 70.46564999999998L79.94537000000003 69.34012000000007L80.53276999999991 68.39021000000002L84.00427000000002 69.19352000000003L84.19167000000004 68.55674999999997L84.67717000000005 68.27700000000004L84.52397000000008 67.99748999999997L85.32546999999988 67.86793999999998L86.20877000000007 67.10618L86.74986999999999 66.08528000000001L86.72026999999991 65.31329000000005L87.35536999999988 64.96866999999997L87.95326999999986 65.44722000000002L88.99337000000003 64.97757999999999L89.95676999999989 65.81979000000001L89.58037000000002 67.53484000000003L89.38136999999995 69.17100000000005L91.03867000000002 70.46194000000003L91.75946999999985 70.86849000000007L92.93766999999991 71.89434000000006L93.9295699999999 72.07427000000007L95.55397000000005 73.22703999999999L96.11136999999997 72.61476000000005L97.24597000000006 73.40630999999996L97.6478699999999 73.99874L96.98507000000006 75.75173000000007L96.54976999999997 76.27079000000003L96.92856999999992 76.89584000000002L98.78497000000004 77.71666000000005L98.63866999999993 79.33564999999999L100.69347000000005 79.34924000000001L101.36996999999985 79.15444000000002L102.04857000000004 78.19653000000005L102.33037000000002 79.34689000000003L102.72586999999987 79.36282000000006L103.45326999999986 79.70461L105.19326999999987 78.99792000000002L106.16547000000003 79.44040000000007L105.81196999999986 80.97944000000007L103.5219699999999 81.52267000000006L104.03517 82.2844L104.28607 81.93880000000001L106.98427000000004 83.15814999999998L107.82567000000006 83.10937999999999L109.79986999999994 83.88328000000001L109.79296999999985 86.09868000000006L108.09256999999991 88.17012999999997L107.96016999999995 88.51579000000004L107.86757 89.01129000000003L107.84496999999999 90.37167L107.60277000000008 91.61427000000003L107.56246999999996 93.39768000000004L106.34786999999994 95.6155L105.64846999999997 96.75203999999997L105.03976999999998 97.70631000000003L104.40406999999993 99.63725L104.5400699999999 100.81288000000006L104.43566999999996 102.87070000000006L103.56806999999992 104.62738000000002L102.86336999999992 106.14935000000003L102.31616999999994 108.99180000000001L101.46607000000006 110.3356L100.98406999999986 111.66992000000005L100.76147000000003 113.68522000000007L100.12756999999999 114.72888999999998L99.8815699999999 115.35738000000003L99.68286999999998 115.89846L99.44707000000005 117.44982000000005L99.4123699999999 118.25331000000006L98.45926999999995 119.59539000000007L98.38267000000008 121.23589000000004L97.98147000000006 121.18482000000006L96.93627000000004 121.35594000000003L95.86336999999992 121.62710000000004L94.03446999999994 120.89792L93.63637000000006 120.29867999999999L93.39097000000004 118.76038000000005L93.75906999999995 117.64904000000001L94.59737000000007 116.93502999999998L93.39496999999994 115.58087z">
      <title id="t366">Première circonscription de Saône-et-Loire</title>
      <desc id="d366">Cantons de : La Chapelle-de-Guinchay, Cluny, Lugny, Mâcon Centre, Mâcon Nord, Mâcon Sud, Matour, Saint-Gengoux-le-National, Tramayes</desc>
    </path><path class="circo" id="id-071-02" d="M9.499399999999923 68.60030000000006L8.227499999999964 68.39467000000002L7.7047999999999774 67.74148000000002L8.536899999999946 66.25027L8.575399999999945 65.81707000000006L7.939599999999928 65.23505999999998L7.332499999999982 64.66439000000003L6.954099999999926 63.47361999999998L6.529099999999971 62.642510000000016L6.50789999999995 62.27434000000005L6.217199999999934 61.46661000000006L4.026299999999992 60.108040000000074L4.245799999999917 58.88387L2.7767000000000053 58.20324000000005L2.4085999999999785 56.16019000000006L1.2613999999999805 55.75795000000005L1.264699999999948 53.68601000000001L0 51.614419999999996L0.5629000000000133 50.55221000000006L1.4651000000000067 51.75792999999999L2.129299999999944 51.39822000000004L3.2554999999999836 52.00612000000001L5.7549999999999955 51.46916999999996L6.899299999999926 50.87734999999998L9.845899999999915 50.241930000000025L13.673799999999915 52.21572000000003L13.343499999999949 52.97632999999996L14.20309999999995 54.39387999999997L14.607799999999997 56.43300999999997L15.742799999999988 56.09289000000001L17.31919999999991 56.21089000000006L17.735199999999963 58.66021999999998L19.463899999999967 59.76872000000003L19.815999999999917 60.52884000000006L20.606899999999996 60.70152000000007L20.300499999999943 63.006560000000036L19.753499999999917 64.05541000000005L20.57949999999994 65.24719000000005L22.76019999999994 65.58474000000001L24.11839999999995 63.60251000000005L24.91160000000002 63.72879999999998L25.976299999999924 64.95864000000006L27.16809999999998 64.62836000000004L27.312999999999988 63.3836L27.886499999999955 62.26542000000006L28.916600000000017 61.66019000000006L29.84280000000001 62.91939000000002L30.18649999999991 62.27025000000003L30.433299999999917 61.458060000000046L35.53576999999996 59.38182000000006L38.006869999999935 59.797590000000014L39.083669999999984 60.42701999999997L40.65746999999999 59.92457000000002L41.64017000000001 58.59728000000007L41.91426999999999 57.377050000000054L41.60946999999999 56.58929999999998L42.24567000000002 56.051360000000045L43.41696999999999 55.53123000000005L43.52266999999995 54.675320000000056L43.96076999999991 53.077150000000074L44.66566999999998 52.75905999999998L45.524369999999976 53.646079999999984L45.738669999999956 54.89191000000005L46.73937000000001 55.63126999999997L47.16066999999998 55.585030000000074L48.40596999999991 55.43082000000004L48.82646999999997 56.178409999999985L48.806569999999965 57.86556000000007L48.98296999999991 58.26222000000007L49.41566999999998 58.25986999999998L50.155869999999936 58.232110000000034L50.78006999999991 56.989630000000034L51.48036999999999 56.74162999999999L53.43966999999998 57.518080000000054L58.50816999999995 58.25454000000002L58.85546999999997 59.040230000000065L59.283869999999865 59.031810000000064L60.26317000000006 60.19412999999997L59.830969999999866 60.830460000000016L59.87506999999994 61.91309000000001L59.776770000000056 62.738969999999995L57.67816999999991 64.69421999999997L57.88896999999997 65.05334000000005L59.686669999999935 65.46789999999999L59.76276999999993 65.83600999999999L64.16557 66.37972000000002L65.28266999999994 65.14420000000007L66.43016999999998 62.91790000000003L67.13786999999991 62.50233000000003L66.07166999999993 61.93910000000005L65.06536999999992 60.67984000000001L67.44797000000005 60.51472000000001L70.05227000000002 59.17987000000005L70.09176999999988 58.35590000000002L69.49067000000002 57.21557000000007L69.86277000000007 56.45780000000002L70.5708699999999 56.072310000000016L71.35827000000006 56.33582999999999L73.39066999999989 55.95195000000001L74.52677000000006 55.65978000000007L74.93956999999989 54.198350000000005L76.04736999999989 55.28367000000003L77.22357 55.237300000000005L79.66177000000005 55.58540000000005L79.82166999999993 57.80435L80.38567 58.425910000000044L81.25286999999992 58.503600000000006L81.86256999999989 58.944330000000036L81.38457000000005 60.71428000000003L81.31466999999986 60.81882000000007L81.94097 61.30324000000007L81.90416999999991 62.03421000000003L82.82276999999988 64.22292000000004L83.66026999999997 65.23778000000004L84.30127000000005 66.61090999999999L84.21226999999988 67.76040999999998L84.52397000000008 67.99748999999997L84.67717000000005 68.27700000000004L84.19167000000004 68.55674999999997L84.00427000000002 69.19352000000003L80.53276999999991 68.39021000000002L79.94537000000003 69.34012000000007L80.13526999999988 70.46564999999998L80.15097000000003 70.51054999999997L79.72697000000005 73.14841000000001L79.33127000000002 73.06371000000001L79.14766999999995 73.42633999999998L78.73536999999999 75.27305000000001L76.65357000000006 75.10545000000002L76.31597 75.35499000000004L76.79266999999993 77.55899999999997L77.44866999999988 77.88333L77.30847000000006 78.93641000000002L76.47527000000002 79.88036999999997L75.62536999999986 80.02080999999998L74.87007000000006 81.02736000000004L72.87076999999988 81.75358000000006L73.22826999999995 82.25736000000006L75.53286999999989 83.23739999999998L78.00347 83.40098L77.58467000000007 85.85287000000005L78.36377000000005 86.18259L78.08156999999994 86.95824000000005L77.01306999999986 88.20418000000006L76.61027000000001 88.35629000000006L75.84596999999997 87.96152000000006L75.65396999999996 89.20099000000005L76.20267000000001 90.78773999999999L76.07667000000004 92.39101000000005L75.12336999999991 93.28538000000003L73.13387 92.50036L72.9150699999999 92.12656000000004L72.85467000000006 92.99248999999998L71.29566999999986 94.95041000000003L71.15156999999988 95.80563000000006L70.19437000000005 96.67354999999998L70.30757000000006 98.34537999999998L69.57066999999995 98.73447999999996L66.98466999999994 96.85269000000005L65.84467000000006 98.65183999999999L64.15306999999996 99.91089L65.73707000000002 102.37387000000001L65.72807 103.63740000000007L66.18386999999996 104.35381000000007L67.34516999999994 104.77246000000002L68.96627000000001 104.38616999999999L68.36197000000004 105.73176000000001L68.14666999999997 106.52445999999998L66.55786999999998 106.56457L66.66647 106.97325000000001L65.95797000000005 108.00860999999998L65.75456999999994 109.21118999999999L65.81506999999999 110.16248000000007L65.06786999999997 112.48553000000004L64.83686999999998 112.70063000000005L65.35007000000007 113.76228000000003L64.89206999999999 115.21842000000004L65.05037000000004 115.94145000000003L65.07896999999991 116.76513999999997L63.91897000000006 117.20391000000006L62.948569999999904 118.54866000000004L63.81086999999991 119.93833000000006L63.582070000000044 120.29597999999999L62.53697 120.49892999999997L61.52816999999993 119.93649000000005L60.53026999999986 120.61383999999998L59.82806999999991 120.22711000000004L58.95826999999997 121.89531L58.56907000000001 121.90868999999998L57.80736999999999 121.52461000000005L56.73726999999997 122.13932999999997L56.07006999999999 123.67354999999998L53.584569999999985 123.55070999999998L53.19936999999993 122.41057999999998L53.60307 122.38161000000002L54.32576999999992 121.42027000000007L54.00567000000001 120.26983000000007L52.91946999999993 119.81788000000006L51.32236999999998 121.02792999999997L51.18766999999991 121.11865L50.72566999999992 120.20157000000006L49.59146999999996 119.04835000000003L48.14756999999997 119.76729L47.78216999999995 119.58495000000005L47.77546999999993 120.84415000000001L47.93706999999995 121.24129000000005L47.204369999999926 121.60292000000004L44.24536999999998 121.31936000000007L43.43997000000002 121.15732000000003L43.40136999999993 121.15683000000001L43.33666999999991 120.74790000000007L40.888669999999934 118.56352000000004L39.16656999999998 119.45736999999997L37.80466999999999 119.99946999999997L37.16046999999992 119.78952000000004L36.29846999999995 120.71328000000005L34.71049999999991 121.81331999999998L34.399299999999926 122.10545000000002L33.59649999999999 121.80767000000003L31.087599999999952 122.07304999999997L29.63990000000001 119.64044999999999L29.73109999999997 118.40521999999999L29.1019 118.02033000000006L26.64059999999995 117.61121000000003L25.01649999999995 117.89517000000001L24.36629999999991 117.39872000000003L22.723700000000008 116.59231L23.35069999999996 115.07159000000001L23.34069999999997 113.81327999999996L24.19189999999992 112.98075000000006L24.30709999999999 110.92307000000005L23.883399999999938 109.27711L23.522899999999936 109.04271000000006L22.935799999999972 107.94281000000001L23.730199999999968 106.92169999999999L26.251300000000015 106.54439000000002L27.630499999999984 105.62802999999997L27.63009999999997 105.38970000000006L27.72879999999998 103.69979999999998L29.437799999999925 103.53327000000002L30.67879999999991 103.86682000000008L32.45129999999995 102.69873000000007L31.58299999999997 102.67658000000006L30.84319999999991 102.54979000000003L30.990799999999922 99.83294000000001L31.343899999999962 97.41041000000007L30.52159999999992 95.59380999999996L30.15599999999995 94.02767000000006L31.041799999999967 92.82212000000004L30.75649999999996 91.73387000000002L30.712699999999927 91.34140000000002L31.664099999999962 90.67034999999998L31.15229999999997 89.20456999999999L32.29149999999993 88.77138000000002L32.42829999999992 88.37540999999999L31.852899999999977 87.28384000000005L32.19369999999992 86.51922000000002L31.954099999999926 85.76056000000005L30.285199999999918 84.64043000000004L29.881599999999935 83.95068000000003L29.100199999999973 84.14448000000004L28.00559999999996 84.04659000000004L28.504099999999994 82.58974L26.474199999999996 82.54750999999999L24.96429999999998 81.90929000000006L23.813199999999938 82.44973000000005L23.459699999999998 83.22950000000003L22.93029999999999 83.78823L20.609699999999975 82.70617000000004L20.197599999999966 81.97559999999999L20.487799999999993 79.86246000000006L19.749500000000012 79.53625L18.956999999999994 79.83022000000005L18.89059999999995 79.81182000000001L18.472999999999956 79.14875000000006L18.997099999999932 78.46252000000004L18.208499999999958 77.52391L16.060699999999997 78.88539000000003L15.298799999999915 79.00002000000006L14.588700000000017 78.05050000000006L13.41879999999992 77.92422999999997L13.171399999999949 77.14075000000003L12.53329999999994 76.61595L11.303099999999972 76.96231999999998L10.119100000000003 76.54267000000004L9.339799999999968 75.52927L9.474999999999909 74.71139000000005L10.047599999999989 73.98761000000002L9.999199999999973 72.04546000000005L9.878499999999917 71.06439999999998L9.499399999999923 68.60030000000006z">
      <title id="t367">Deuxième circonscription de Saône-et-Loire</title>
      <desc id="d367">Cantons de : Bourbon-Lancy, Charolles, Chauffailles, La Clayette, Digoin, Gueugnon, La Guiche, Marcigny, Mont-Saint-Vincent, Palinges, Paray-le-Monial, Saint-Bonnet-de-Joux, Semur-en-Brionnais, Toulon-sur-Arroux</desc>
    </path><path class="circo" id="id-071-03" d="M61.95977000000005 34.03102000000001L61.052769999999896 35.84748000000002L61.620070000000055 36.283739999999966L58.66777000000002 36.78462000000002L56.582469999999944 36.351620000000025L56.220770000000016 36.49571000000003L56.23307 37.66008999999997L55.86946999999998 38.342449999999985L56.16566999999998 39.065740000000005L55.97326999999996 41.37527L56.90697 44.158739999999966L54.73626999999999 45.71447999999998L55.09196999999995 46.398739999999975L55.26006999999993 48.625580000000014L53.50797 49.89033000000006L54.06836999999996 52.324370000000044L53.290469999999914 53.85638000000006L53.23906999999997 54.71760000000006L51.53336999999999 55.91314999999997L51.48036999999999 56.74162999999999L50.78006999999991 56.989630000000034L50.155869999999936 58.232110000000034L49.41566999999998 58.25986999999998L48.98296999999991 58.26222000000007L48.806569999999965 57.86556000000007L48.82646999999997 56.178409999999985L48.40596999999991 55.43082000000004L47.16066999999998 55.585030000000074L46.73937000000001 55.63126999999997L45.738669999999956 54.89191000000005L45.524369999999976 53.646079999999984L44.66566999999998 52.75905999999998L43.96076999999991 53.077150000000074L43.52266999999995 54.675320000000056L43.41696999999999 55.53123000000005L42.24567000000002 56.051360000000045L41.60946999999999 56.58929999999998L41.91426999999999 57.377050000000054L41.64017000000001 58.59728000000007L40.65746999999999 59.92457000000002L39.083669999999984 60.42701999999997L38.006869999999935 59.797590000000014L35.53576999999996 59.38182000000006L30.433299999999917 61.458060000000046L30.18649999999991 62.27025000000003L29.84280000000001 62.91939000000002L28.916600000000017 61.66019000000006L27.886499999999955 62.26542000000006L27.312999999999988 63.3836L27.16809999999998 64.62836000000004L25.976299999999924 64.95864000000006L24.91160000000002 63.72879999999998L24.11839999999995 63.60251000000005L22.76019999999994 65.58474000000001L20.57949999999994 65.24719000000005L19.753499999999917 64.05541000000005L20.300499999999943 63.006560000000036L20.606899999999996 60.70152000000007L19.815999999999917 60.52884000000006L19.463899999999967 59.76872000000003L17.735199999999963 58.66021999999998L17.31919999999991 56.21089000000006L18.228700000000003 55.424620000000004L18.880899999999997 53.95905000000005L19.610500000000002 53.59400000000005L21.194399999999973 53.38914999999997L21.55289999999991 52.68403000000001L22.643699999999967 53.18541000000005L23.193899999999985 52.57079999999996L25.963300000000004 51.554140000000075L26.402199999999993 50.396510000000035L28.054599999999937 49.94716000000005L28.93649999999991 48.496399999999994L29.23529999999994 48.563780000000065L29.38709999999992 48.17114000000004L32.04480000000001 47.047680000000014L33.689899999999966 47.08218999999997L35.33636999999999 45.91224L36.01556999999991 46.96638000000007L36.763169999999946 47.05115999999998L37.34447 46.07200999999998L37.33236999999997 45.30826000000002L37.03057000000001 42.29511000000002L36.91346999999996 41.5385L35.96857 40.39939000000004L35.72706999999991 40.10530000000006L36.17586999999992 39.56528000000003L39.791669999999954 37.155680000000075L40.63826999999992 36.93578000000002L40.15796999999998 35.282260000000065L38.43626999999992 32.858670000000075L37.86056999999994 32.24491999999998L35.861170000000016 31.705010000000016L35.213469999999916 29.40071999999998L35.187619999999924 28.56772000000001L35.741969999999924 27.956440000000043L35.893269999999916 27.153639999999996L35.443469999999934 26.00522000000001L36.40316999999993 25.191730000000007L36.64046999999994 24.40989000000002L35.21996999999999 21.306410000000028L34.41829999999993 21.551630000000046L33.232399999999984 22.80171000000007L32.803499999999985 22.85564999999997L31.645899999999983 22.339529999999968L31.722599999999943 21.05034999999998L32.12659999999994 21.117140000000063L35.17241999999999 19.14011000000005L36.93597 17.43168000000003L37.22066999999993 16.638329999999996L37.05507 15.385340000000042L36.96696999999995 14.520530000000008L38.10916999999995 12.184950000000072L36.440470000000005 10.157960000000003L35.36527000000001 9.452499999999986L35.48847000000001 8.604389999999967L36.41576999999995 7.715220000000045L36.19857000000002 5.668270000000007L36.73736999999994 5.0220299999999725L37.19506999999999 4.333129999999983L39.694669999999974 4.794700000000034L40.12366999999995 4.098780000000033L39.94286999999997 3.7103799999999865L40.365369999999984 3.6521599999999808L41.75136999999995 4.532130000000052L41.920169999999985 4.008080000000064L42.80367000000001 3.1444199999999682L43.752669999999966 4.456180000000018L44.814269999999965 5.168920000000071L45.678769999999986 4.243569999999977L46.31236999999999 4.766970000000015L46.996869999999944 4.888500000000022L46.89266999999995 4.046690000000012L47.921069999999986 2.615509999999972L48.065369999999916 1.2932700000000068L47.52476999999999 0.6122300000000678L47.880269999999996 0.3970000000000482L48.57806999999991 0.8453299999999899L49.89906999999994 0L50.28036999999995 0.15899999999999181L50.364169999999945 0.9840699999999742L50.70506999999998 1.2177800000000616L51.92586999999992 1.340379999999982L52.62496999999996 0.897829999999999L52.71636999999998 2.7940700000000334L53.45357000000001 2.9869899999999916L54.13996999999995 5.1732900000000654L55.57626999999991 5.92516999999998L57.462369999999964 5.41847000000007L57.73836999999992 6.0213300000000345L58.393569999999954 6.465170000000057L61.23476999999991 6.682829999999967L61.761269999999854 7.303440000000023L61.32477000000006 10.364770000000021L62.45286999999996 11.542710000000056L62.86626999999987 11.410439999999994L63.539069999999924 9.81510000000003L64.17196999999999 9.245040000000017L66.30736999999988 9.135560000000055L67.43676999999991 9.766169999999988L66.65537000000006 10.73431000000005L66.34086999999988 12.368110000000001L66.59767 13.16359L68.3824699999999 14.359500000000025L70.94596999999987 14.39179999999999L72.1496699999999 15.596850000000018L73.68347000000006 15.407789999999977L74.46546999999998 16.20988L74.46866999999986 16.926230000000032L75.00157000000002 17.393400000000042L75.59616999999992 17.902180000000044L76.86667 17.885099999999966L79.22276999999997 16.898300000000063L79.38876999999991 18.52947000000006L78.61737000000005 19.981269999999995L79.21566999999993 20.564250000000015L80.02607 20.37047000000007L80.35626999999988 20.531849999999963L80.32217000000003 21.575919999999996L80.82526999999993 22.71464000000003L82.38526999999988 23.44037000000003L82.18116999999995 24.69583L82.70776999999987 25.357970000000023L84.18106999999998 25.74572999999998L84.55256999999995 26.383609999999976L84.28196999999989 26.663869999999974L85.56826999999987 26.944860000000062L87.30237 26.702959999999962L87.51137000000006 27.02242000000001L89.73126999999988 28.063740000000053L89.80857000000003 28.474620000000073L89.00957000000005 29.271290000000022L88.69257000000005 30.31686000000002L90.30796999999995 31.73176000000001L92.68606999999986 31.05034999999998L93.28816999999992 30.171519999999987L93.13876999999991 29.388270000000034L93.74356999999998 29.163880000000063L93.95546999999999 29.43966999999998L95.33117000000004 28.80993000000001L96.28466999999989 29.699770000000058L97.58996999999988 29.635920000000056L98.30796999999995 29.5009L99.28517 28.67899L99.11307 27.83992999999998L100.59426999999994 27.721300000000042L100.80497000000003 28.038970000000063L101.43866999999989 27.745200000000068L101.47347000000002 27.394030000000043L106.07986999999991 25.854810000000043L107.97676999999987 25.440410000000043L107.79896999999994 24.694709999999986L108.26076999999998 23.61787000000004L109.81896999999992 23.415460000000053L112.99306999999988 23.76161000000002L113.25936999999988 23.98356000000001L117.44006999999999 24.616999999999962L117.54526999999996 24.48063000000002L116.82896999999991 24.241499999999974L117.35467000000006 22.86936000000003L118.62557000000004 22.85017000000005L119.53096999999991 21.914189999999962L121.25597000000005 21.692920000000072L121.91167000000007 22.461869999999976L122.66956999999991 23.508260000000064L123.08407 23.48210000000006L123.43556999999998 24.237390000000005L125.43756999999994 24.727970000000028L125.65866999999992 25.077030000000036L125.35557000000006 26.264580000000024L125.83686999999998 25.777240000000006L126.07577000000003 24.74054000000001L127.28016999999988 23.98431000000005L129.22447 24.04147999999998L129.85397 23.588600000000042L131.0590699999999 23.854900000000043L132.50677000000007 22.535120000000006L133.45897000000002 22.967769999999973L134.19457 21.491319999999973L134.54746999999986 21.353140000000053L135.10246999999993 21.87257999999997L134.75806999999998 22.628180000000043L135.60766999999998 24.522350000000074L135.48057000000006 25.34762999999998L136.47807 25.937739999999962L136.9041699999999 27.914369999999963L136.30127000000005 28.45010000000002L135.58397000000002 28.360360000000014L136.00536999999997 29.43381999999997L134.75646999999992 30.46008000000006L133.33726999999988 28.89940999999999L133.18447000000003 27.674240000000054L131.33606999999995 28.68360000000007L130.48186999999996 28.69939999999997L129.76186999999993 30.237719999999968L129.84516999999994 31.034670000000006L130.01086999999995 31.801180000000045L128.79166999999995 33.808040000000005L128.89976999999988 34.521119999999996L130.09056999999996 34.62197000000003L129.07606999999996 37.24829L124.57776999999999 36.757889999999975L123.38017000000002 36.33099000000004L122.61806999999988 37.64666999999997L123.22766999999988 38.95563000000004L121.93267000000003 39.50252999999998L121.31706999999994 37.89812000000006L119.85546999999985 35.84152000000006L119.01086999999995 35.912630000000036L117.88226999999995 35.29804999999999L116.99266999999998 34.8039L115.8090699999999 37.35059000000001L114.69547 36.89264000000003L113.95077000000003 37.26134000000002L114.01597000000004 38.72834L113.78137000000004 39.504890000000046L112.93216999999993 40.37678000000005L112.43286999999998 39.67501000000004L112.16656999999998 38.02204000000006L110.16917000000001 37.33269000000007L108.93936999999994 37.60951L107.62266999999986 36.52654000000007L106.46006999999997 34.71933999999999L105.72586999999987 34.27191000000005L104.98716999999999 34.68552L104.93216999999993 36.79394000000002L104.31227000000001 37.912289999999985L103.88666999999998 37.88319999999999L102.68836999999996 37.441080000000056L102.19936999999993 36.240729999999985L102.09307000000001 37.80117000000007L100.94267000000002 38.14061000000004L100.98916999999994 38.54577000000006L100.21337000000005 38.513329999999996L99.64236999999991 39.043120000000044L99.92396999999994 40.15188999999998L99.75296999999989 41.347440000000006L100.46746999999993 41.90084999999999L99.83127000000002 42.41769999999997L99.52327000000002 42.13214000000005L99.35506999999996 42.51756999999998L99.31556999999987 43.770560000000046L99.8018699999999 44.40112999999997L99.86927000000003 44.822059999999965L98.77436999999998 46.11770000000001L99.24556999999993 47.21388000000002L98.54497000000003 48.13912000000005L98.81687 48.92761000000007L99.19267000000002 49.10604999999998L99.43766999999991 48.76965000000007L100.73067000000003 49.76366000000007L99.53656999999987 50.896079999999984L98.80886999999996 50.91530999999998L98.2230699999999 51.40926000000002L98.38657 52.56013000000007L97.08387000000005 54.00394000000006L97.81626999999992 54.953899999999976L97.11056999999994 54.90456000000006L95.11547000000007 53.96674000000007L95.39087000000006 52.93651999999997L92.36647000000005 52.54848000000004L90.97406999999987 51.64146000000005L91.28976999999998 50.83281999999997L91.00376999999992 48.79521L88.3688699999999 48.644070000000056L88.52276999999992 48.26508000000001L87.57246999999995 46.98314000000005L85.69447000000002 47.21338000000003L85.07436999999993 47.45763999999997L84.22987 46.03724999999997L79.98607000000004 47.83630000000005L79.25016999999991 46.10590000000002L78.30966999999998 46.67419000000007L77.97967000000006 46.511330000000044L77.62436999999989 46.32662000000005L76.40897000000007 47.35041000000001L75.80857000000003 47.51759000000004L72.90156999999988 48.11950999999999L70.41257000000007 45.81515999999999L70.08197000000007 45.54974000000004L68.0518699999999 45.88841000000002L66.47597000000007 45.14337999999998L65.56066999999996 44.20581000000004L65.29847000000007 43.39602000000002L65.89197000000001 41.164949999999976L65.10197000000005 40.99536999999998L64.94367 40.61111000000005L65.27256999999997 39.407350000000065L67.03926999999987 37.79471000000001L65.76687000000004 36.67957000000001L65.38007000000005 35.069380000000024L64.16107 34.815090000000055L62.88796999999988 33.16564000000005L61.95977000000005 34.03102000000001z">
      <title id="t368">Troisième circonscription de Saône-et-Loire</title>
      <desc id="d368">Cantons de : Autun Nord, Autun Sud, Chagny, Couches, Le Creusot Est, Le Creusot Ouest, Epinac, Givry, Issy-l'Evêque, Lucenay-l'Evêque, Mesvres, Saint-Léger-sous-Beuvray, Verdun-sur-le-Doubs</desc>
    </path><path class="circo" id="id-071-04" d="M135.9531699999999 20.79568000000006L135.10937 21.85818000000006L134.7655699999999 22.63943000000006L135.60937 24.51443000000006L135.48437 25.35818000000006L136.48437 25.95193000000006L136.8905699999999 27.92068000000006L136.29687 28.45193000000006L135.5781699999999 28.35818000000006L136.0155699999999 29.42068000000006L134.7655699999999 30.45193000000006L133.3281699999999 28.88943000000006L133.17187 27.67068000000006L131.3281699999999 28.67068000000006L130.48437 28.70193000000006L129.7655699999999 30.23318000000006L129.85937 31.04568000000006L130.0155699999999 31.79568000000006L128.79687 33.79568000000006L128.8905699999999 34.51443000000006L130.0781699999999 34.60818000000006L129.0781699999999 37.23318000000006L124.57816999999989 36.76443000000006L123.39056999999991 36.32693000000006L122.60937000000001 37.63943000000006L123.23437000000001 38.95193000000006L121.92187000000001 39.51443000000006L121.32816999999989 37.88943000000006L119.85937000000001 35.82693000000006L119.01556999999991 35.92068000000006L117.89056999999991 35.29568000000006L116.98437000000001 34.79568000000006L115.79687000000001 37.35818000000006L114.70316999999989 36.88943000000006L113.95316999999989 37.26443000000006L114.01556999999991 38.73318000000006L113.79687000000001 39.51443000000006L112.92187000000001 40.38943000000006L112.42187000000001 39.67068000000006L112.17187000000001 38.01443000000006L110.17187000000001 37.32693000000006L108.95316999999989 37.60818000000006L107.60937000000001 36.51443000000006L106.45316999999989 34.73318000000006L105.73437000000001 34.26443000000006L104.98437000000001 34.67068000000006L104.92187000000001 36.79568000000006L104.29687000000001 37.92068000000006L103.89056999999991 37.88943000000006L102.70316999999989 37.45193000000006L102.20316999999989 36.23318000000006L102.07816999999989 37.79568000000006L100.95316999999989 38.13943000000006L100.98437000000001 38.54568000000006L100.20316999999989 38.51443000000006L99.64056999999991 39.04568000000006L99.92187000000001 40.13943000000006L99.76556999999991 41.35818000000006L100.45316999999989 41.88943000000006L99.82816999999989 42.42068000000006L100.42187000000001 43.04568000000006L102.73437000000001 44.20193000000006L103.14056999999991 43.51443000000006L103.85937000000001 43.54568000000006L104.07816999999989 44.45193000000006L104.60937000000001 43.63943000000006L104.92187000000001 44.42068000000006L105.26556999999991 43.85818000000006L105.39056999999991 45.42068000000006L105.98437000000001 46.17068000000006L107.04687000000001 45.29568000000006L106.95316999999989 44.57693000000006L107.85937000000001 43.95193000000006L109.23437000000001 44.67068000000006L110.39056999999991 43.35818000000006L110.73437000000001 44.13943000000006L112.70316999999989 45.63943000000006L112.67187000000001 46.04568000000006L113.48437000000001 46.88943000000006L114.23437000000001 47.04568000000006L114.07816999999989 48.63943000000006L113.29687000000001 49.76443000000006L112.10937000000001 49.76443000000006L110.67187000000001 50.57693000000006L110.73437000000001 53.10818000000006L109.32816999999989 53.88943000000006L110.79687000000001 54.95193000000006L111.42187000000001 55.48318000000006L112.17187000000001 57.38943000000006L112.29687000000001 58.20193000000006L111.42187000000001 58.42068000000006L108.76556999999991 57.01443000000006L107.98437000000001 56.98318000000006L106.42187000000001 58.29568000000006L105.89056999999991 57.10818000000006L104.67187000000001 56.76443000000006L103.51556999999991 57.10818000000006L101.42187000000001 56.57693000000006L101.23437000000001 56.92068000000006L100.51556999999991 57.92068000000006L99.73437000000001 58.20193000000006L99.32816999999989 58.95193000000006L98.20316999999989 59.45193000000006L97.51556999999991 59.88943000000006L97.10937000000001 59.76443000000006L97.35937000000001 60.54568000000006L98.51556999999991 62.70193000000006L98.32816999999989 63.38943000000006L97.92187000000001 63.35818000000006L97.48437000000001 64.07693000000006L94.45316999999989 66.04568000000006L93.70316999999989 67.01443000000006L92.29687000000001 67.85818000000006L92.45316999999989 68.23318000000006L92.17187000000001 70.17068000000006L91.76556999999991 70.85818000000006L92.95316999999989 71.88943000000006L93.92187000000001 72.07693000000006L95.54687000000001 73.23318000000006L96.10937000000001 72.60818000000006L97.23437000000001 73.42068000000006L97.64056999999991 73.98318000000006L96.98437000000001 75.76443000000006L96.54687000000001 76.26443000000006L96.92187000000001 76.88943000000006L98.79687000000001 77.70193000000006L98.64056999999991 79.32693000000006L100.70316999999989 79.35818000000006L101.35937000000001 79.13943000000006L102.04687000000001 78.20193000000006L102.32816999999989 79.35818000000006L102.73437000000001 79.35818000000006L103.45316999999989 79.70193000000006L105.20316999999989 78.98318000000006L106.17187000000001 79.45193000000006L105.79687000000001 80.98318000000006L103.51556999999991 81.51443000000006L104.04687000000001 82.29568000000006L104.29687000000001 81.95193000000006L106.98437000000001 83.17068000000006L107.82816999999989 83.10818000000006L109.79687000000001 83.88943000000006L109.79687000000001 83.73318000000006L109.85937000000001 82.88943000000006L110.85937000000001 81.51443000000006L111.07816999999989 80.92068000000006L111.42187000000001 79.88943000000006L111.57816999999989 79.67068000000006L112.57816999999989 79.73318000000006L112.54687000000001 80.54568000000006L113.14056999999991 80.92068000000006L113.89056999999991 80.60818000000006L114.54687000000001 79.67068000000006L115.39056999999991 79.54568000000006L117.60937000000001 80.23318000000006L117.95316999999989 80.04568000000006L118.26556999999991 81.35818000000006L121.73437000000001 83.35818000000006L123.14056999999991 83.17068000000006L125.17187000000001 81.73318000000006L126.67187000000001 82.26443000000006L128.4531699999999 81.26443000000006L128.67187 80.45193000000006L129.04687 80.35818000000006L131.0155699999999 80.82693000000006L131.17187 79.23318000000006L132.1405699999999 80.01443000000006L134.17187 80.45193000000006L134.35937 80.82693000000006L134.10937 81.10818000000006L134.85937 82.38943000000006L134.6405699999999 83.13943000000006L135.17187 83.70193000000006L135.35937 85.32693000000006L136.17187 85.32693000000006L137.1405699999999 86.63943000000006L138.1405699999999 86.45193000000006L138.85937 87.35818000000006L140.3281699999999 87.76443000000006L143.4531699999999 87.98318000000006L143.7031699999999 87.29568000000006L144.42187 87.17068000000006L144.54687 86.79568000000006L144.54687 86.04568000000006L148.8281699999999 86.29568000000006L149.04687 85.98318000000006L149.8281699999999 85.07693000000006L150.8905699999999 85.54568000000006L152.23437 84.88943000000006L152.7655699999999 83.88943000000006L152.73437 83.73318000000006L152.85937 81.35818000000006L151.73437 81.35818000000006L150.4531699999999 80.42068000000006L150.0155699999999 79.73318000000006L147.60937 78.95193000000006L147.60937 78.51443000000006L147.67187 78.42068000000006L147.8905699999999 75.04568000000006L147.4531699999999 73.95193000000006L148.3281699999999 73.17068000000006L147.85937 71.88943000000006L148.98437 71.51443000000006L151.54687 71.32693000000006L152.0781699999999 69.26443000000006L150.9531699999999 67.48318000000006L152.23437 67.26443000000006L153.92187 65.63943000000006L154.5155699999999 64.38943000000006L152.3281699999999 62.35818000000006L153.35937 61.60818000000006L153.17187 61.48318000000006L152.9531699999999 60.01443000000006L150.67187 58.54568000000006L151.7655699999999 56.88943000000006L151.6405699999999 56.20193000000006L150.7031699999999 55.51443000000006L150.7031699999999 54.76443000000006L150.29687 53.42068000000006L150.5155699999999 53.13943000000006L147.8281699999999 52.57693000000006L148.23437 50.20193000000006L148.6405699999999 50.29568000000006L149.7655699999999 49.04568000000006L150.23437 47.92068000000006L149.67187 47.32693000000006L148.8281699999999 47.13943000000006L148.5781699999999 46.32693000000006L147.23437 45.38943000000006L146.10937 45.42068000000006L145.3281699999999 44.57693000000006L144.98437 42.67068000000006L145.60937 41.70193000000006L146.3905699999999 41.67068000000006L146.92187 42.29568000000006L148.9531699999999 40.92068000000006L149.54687 40.82693000000006L151.92187 40.23318000000006L152.48437 40.95193000000006L156.4531699999999 40.73318000000006L156.10937 40.45193000000006L156.5155699999999 39.29568000000006L155.98437 38.67068000000006L156.10937 37.42068000000006L154.92187 36.88943000000006L154.54687 36.92068000000006L154.67187 37.51443000000006L153.7031699999999 36.76443000000006L153.2031699999999 36.82693000000006L152.35937 36.60818000000006L151.42187 35.70193000000006L151.10937 33.98318000000006L151.3905699999999 33.13943000000006L150.35937 32.57693000000006L149.60937 32.88943000000006L149.17187 33.10818000000006L147.7031699999999 33.79568000000006L146.8905699999999 32.82693000000006L146.0781699999999 33.07693000000006L145.5781699999999 33.76443000000006L145.0155699999999 33.17068000000006L144.8281699999999 31.98318000000006L143.5781699999999 30.38943000000006L143.42187 29.20193000000006L143.2031699999999 27.32693000000006L141.92187 26.79568000000006L141.1405699999999 26.95193000000006L140.10937 28.20193000000006L139.3281699999999 28.45193000000006L139.42187 27.20193000000006L138.48437 26.32693000000006L138.67187 25.95193000000006L139.10937 25.95193000000006L139.42187 25.20193000000006L138.7655699999999 21.88943000000006L135.9531699999999 20.79568000000006z">
      <title id="t369">Quatrième circonscription de Saône-et-Loire</title>
      <desc id="d369">Cantons de : Beaurepaire-en-Bresse, Chalon-sur-Saône Nord, Cuiseaux, Cuisery, Louhans, Montpont-en-Bresse, Montret, Pierre-de-Bresse, Saint-Germain-du-Bois, Saint-Germain-du-Plain, Saint-Martin-en-Bresse, Sennecey-le-Grand, Tournus</desc>
    </path><path class="circo" id="id-071-05" d="M90.97406999999987 51.64146000000005L92.36647000000005 52.54848000000004L95.39087000000006 52.93651999999997L95.11547000000007 53.96674000000007L97.11056999999994 54.90456000000006L97.81626999999992 54.953899999999976L97.08387000000005 54.00394000000006L98.38657 52.56013000000007L98.2230699999999 51.40926000000002L98.80886999999996 50.91530999999998L99.53656999999987 50.896079999999984L100.73067000000003 49.76366000000007L99.43766999999991 48.76965000000007L99.19267000000002 49.10604999999998L98.81687 48.92761000000007L98.54497000000003 48.13912000000005L99.24556999999993 47.21388000000002L98.77436999999998 46.11770000000001L99.86927000000003 44.822059999999965L99.8018699999999 44.40112999999997L99.31556999999987 43.770560000000046L99.35506999999996 42.51756999999998L99.52327000000002 42.13214000000005L99.83127000000002 42.41769999999997L100.42216999999994 43.05871000000002L102.73257000000001 44.21487000000002L103.13846999999998 43.522839999999974L103.86676999999997 43.54892000000007L104.06966999999997 44.45049000000006L104.60726999999986 43.629710000000046L104.93367 44.42667000000006L105.25427000000002 43.86532L105.38506999999993 45.41976L105.99697000000003 46.17938000000004L107.03446999999994 45.30379000000005L106.9657699999999 44.58540000000005L107.8670699999999 43.952729999999974L109.22196999999994 44.67989L110.39316999999994 43.36744999999996L110.7447699999999 44.132169999999974L112.70787000000007 45.634160000000065L112.66087000000005 46.05227000000002L113.48406999999986 46.882220000000075L114.24736999999993 47.061090000000036L114.07927000000007 48.62967000000003L113.31166999999994 49.75497000000007L112.11937 49.770110000000045L110.67367000000002 50.58830999999998L110.72376999999994 53.10530000000006L109.31677000000002 53.877340000000004L110.78656999999987 54.96294999999998L111.43196999999998 55.47445000000005L112.18547000000001 57.37977999999998L112.28616999999997 58.21488999999997L111.42897000000005 58.42034000000001L108.77307000000008 56.999419999999986L107.97456999999997 56.98244L106.41766999999993 58.305720000000065L105.90396999999996 57.11158999999998L104.66287 56.75067999999999L103.50166999999999 57.11295000000007L101.40727000000004 56.589920000000006L101.24746999999991 56.913290000000075L100.50587000000007 57.914139999999975L99.72586999999987 58.20882000000006L99.34197000000006 58.952260000000024L98.21607000000006 59.45119999999997L97.50666999999987 59.888149999999996L97.10586999999998 59.75646000000006L97.34827000000007 60.56079999999997L98.51346999999998 62.69972000000007L98.33346999999992 63.383730000000014L97.91367000000002 63.36874L97.49227000000008 64.06618000000003L94.45807000000002 66.03330000000005L93.70756999999992 67.02227000000005L92.30397000000005 67.86646000000007L92.43807000000004 68.23827000000006L92.17206999999996 70.17461000000003L91.75946999999985 70.86849000000007L91.03867000000002 70.46194000000003L89.38136999999995 69.17100000000005L89.58037000000002 67.53484000000003L89.95676999999989 65.81979000000001L88.99337000000003 64.97757999999999L87.95326999999986 65.44722000000002L87.35536999999988 64.96866999999997L86.72026999999991 65.31329000000005L86.74986999999999 66.08528000000001L86.20877000000007 67.10618L85.32546999999988 67.86793999999998L84.52397000000008 67.99748999999997L84.21226999999988 67.76040999999998L84.30127000000005 66.61090999999999L83.66026999999997 65.23778000000004L82.82276999999988 64.22292000000004L81.90416999999991 62.03421000000003L81.94097 61.30324000000007L81.31466999999986 60.81882000000007L81.38457000000005 60.71428000000003L81.86256999999989 58.944330000000036L81.25286999999992 58.503600000000006L80.38567 58.425910000000044L79.82166999999993 57.80435L79.66177000000005 55.58540000000005L77.22357 55.237300000000005L76.04736999999989 55.28367000000003L74.93956999999989 54.198350000000005L74.52677000000006 55.65978000000007L73.39066999999989 55.95195000000001L71.35827000000006 56.33582999999999L70.5708699999999 56.072310000000016L69.86277000000007 56.45780000000002L69.49067000000002 57.21557000000007L70.09176999999988 58.35590000000002L70.05227000000002 59.17987000000005L67.44797000000005 60.51472000000001L65.06536999999992 60.67984000000001L66.07166999999993 61.93910000000005L67.13786999999991 62.50233000000003L66.43016999999998 62.91790000000003L65.28266999999994 65.14420000000007L64.16557 66.37972000000002L59.76276999999993 65.83600999999999L59.686669999999935 65.46789999999999L57.88896999999997 65.05334000000005L57.67816999999991 64.69421999999997L59.776770000000056 62.738969999999995L59.87506999999994 61.91309000000001L59.830969999999866 60.830460000000016L60.26317000000006 60.19412999999997L59.283869999999865 59.031810000000064L58.85546999999997 59.040230000000065L58.50816999999995 58.25454000000002L53.43966999999998 57.518080000000054L51.48036999999999 56.74162999999999L51.53336999999999 55.91314999999997L53.23906999999997 54.71760000000006L53.290469999999914 53.85638000000006L54.06836999999996 52.324370000000044L53.50797 49.89033000000006L55.26006999999993 48.625580000000014L55.09196999999995 46.398739999999975L54.73626999999999 45.71447999999998L56.90697 44.158739999999966L55.97326999999996 41.37527L56.16566999999998 39.065740000000005L55.86946999999998 38.342449999999985L56.23307 37.66008999999997L56.220770000000016 36.49571000000003L56.582469999999944 36.351620000000025L58.66777000000002 36.78462000000002L61.620070000000055 36.283739999999966L61.052769999999896 35.84748000000002L61.95977000000005 34.03102000000001L62.88796999999988 33.16564000000005L64.16107 34.815090000000055L65.38007000000005 35.069380000000024L65.76687000000004 36.67957000000001L67.03926999999987 37.79471000000001L65.27256999999997 39.407350000000065L64.94367 40.61111000000005L65.10197000000005 40.99536999999998L65.89197000000001 41.164949999999976L65.29847000000007 43.39602000000002L65.56066999999996 44.20581000000004L66.47597000000007 45.14337999999998L68.0518699999999 45.88841000000002L70.08197000000007 45.54974000000004L70.41257000000007 45.81515999999999L72.90156999999988 48.11950999999999L75.80857000000003 47.51759000000004L76.40897000000007 47.35041000000001L77.62436999999989 46.32662000000005L77.97967000000006 46.511330000000044L78.30966999999998 46.67419000000007L79.25016999999991 46.10590000000002L79.98607000000004 47.83630000000005L84.22987 46.03724999999997L85.07436999999993 47.45763999999997L85.69447000000002 47.21338000000003L87.57246999999995 46.98314000000005L88.52276999999992 48.26508000000001L88.3688699999999 48.644070000000056L91.00376999999992 48.79521L91.28976999999998 50.83281999999997L90.97406999999987 51.64146000000005z">
      <title id="t370">Cinquième circonscription de Saône-et-Loire</title>
      <desc id="d370">Cantons de : Buxy, Chalon-sur-Saône Centre, Chalon-sur-Saône Ouest, Chalon-sur-Saône Sud, Montceau-les-Mines Nord, Montceau-les-Mines Sud, Montcenis, Montchanin</desc>
    </path></svg>