<svg xmlns="http://www.w3.org/2000/svg" version="1.1" xmlns:xlink="http://www.w3.org/1999/xlink" xmlns:svgjs="http://svgjs.dev/svgjs" viewBox="0 0 115.99120000000005 116.43388999999996"><path class="circo" id="id-072-01" d="M54.442300000000046 27.732699999999966L55.35030000000006 28.31995999999998L55.317800000000034 29.087820000000022L54.9597 29.851129999999955L54.1164 30.143200000000036L53.896600000000035 32.24246999999997L54.78240000000005 33.579049999999995L54.051199999999994 34.66074999999995L54.1006000000001 35.439979999999935L53.6409000000001 37.065120000000036L52.966600000000085 37.573770000000025L50.462800000000016 37.684699999999964L51.00330000000008 38.839519999999936L49.2573000000001 40.144799999999975L47.49660000000006 40.27455000000003L46.93140000000005 39.587289999999996L46.080600000000004 39.414309999999944L45.51830000000007 40.08693999999997L44.26010000000008 40.314959999999985L44.58540000000005 42.27768999999995L44.982000000000085 43.04531000000003L46.66880000000003 42.85102999999998L47.93430000000001 43.117800000000045L48.092700000000036 44.83018999999996L47.76700000000005 46.08855999999997L48.47070000000008 46.265690000000006L49.44150000000002 45.10197999999997L50.616100000000074 46.03507999999994L51.33800000000008 45.76473000000004L51.494800000000055 47.45477999999997L53.56600000000003 47.87897000000004L53.6101000000001 48.667070000000024L54.27430000000004 49.159159999999986L53.8981 49.342190000000016L53.70760000000007 50.15695999999997L52.56810000000007 50.59077999999994L52.903099999999995 52.64788000000004L53.74180000000001 53.52609000000001L55.26290000000006 53.368750000000034L55.57810000000006 54.50276000000002L53.10270000000003 56.16092999999995L53.75070000000005 57.01808L53.58070000000009 57.370979999999975L54.516500000000065 59.07837000000001L54.872400000000084 59.50694000000004L55.05320000000006 60.008470000000045L54.98950000000002 60.54816999999997L55.1255000000001 60.67211000000003L55.604400000000055 60.24885999999998L55.706800000000044 61.56904000000003L55.99700000000007 61.656409999999994L56.210500000000025 62.10126999999994L56.81350000000009 62.252189999999985L57.09540000000004 62.15505999999999L57.124700000000075 62.54663999999997L56.293100000000095 62.84337999999997L55.125 62.76093999999995L53.98520000000008 62.245870000000025L54.4851000000001 61.547729999999945L54.62040000000002 61.14703000000003L54.24650000000008 60.905190000000005L53.8343000000001 60.90303L52.71810000000005 60.61364999999995L52.11990000000003 60.63799999999998L51.1613000000001 60.43138000000005L50.426000000000045 59.89384000000001L49.99300000000005 59.97479000000004L48.235000000000014 60.28723999999994L46.73520000000008 60.44987999999995L45.96440000000007 59.37397000000004L46.25020000000006 59.07963999999998L45.80340000000001 58.44149999999996L46.79830000000004 56.22297999999995L46.19870000000003 56.400720000000035L45.23720000000003 57.844359999999995L43.696300000000065 57.03855000000004L43.1875 57.68941000000001L41.53100000000006 57.85682000000003L41.009000000000015 57.17583999999994L40.8284000000001 55.91986000000003L39.82670000000007 55.11610000000002L40.192800000000034 53.434770000000015L39.85520000000008 53.690300000000036L37.8497000000001 53.56387000000001L37.589500000000044 53.89788000000004L38.14600000000007 54.994399999999985L37.51100000000008 55.49961999999999L36.21510000000001 54.330809999999985L35.39470000000006 54.10812000000004L33.207500000000095 55.24745999999999L32.566200000000094 54.72849000000002L31.474800000000073 56.34553999999997L30.65370000000007 56.046880000000044L27.672300000000064 56.203400000000045L26.536200000000008 54.874480000000005L25.358800000000087 55.33023999999995L22.79950000000008 55.028989999999965L22.61189999999999 54.31161000000003L23.5159000000001 53.67249999999996L22.180900000000065 54.128589999999974L21.79740000000004 53.481960000000015L20.785100000000057 52.79684000000003L19.620499999999993 53.031030000000044L18.863699999999994 52.73666999999995L19.085900000000038 51.880870000000016L17.9919000000001 51.164919999999995L18.049000000000092 49.84910999999994L18.128199999999993 49.41154999999998L19.512100000000032 48.31383999999997L19.68640000000005 47.453760000000045L19.14530000000002 46.96791000000002L19.121399999999994 46.24073000000004L17.576400000000035 45.70206999999999L17.253700000000094 44.581060000000036L16.499500000000012 44.48259999999999L17.767900000000054 42.91932000000003L16.967200000000048 42.141099999999994L16.80510000000004 41.75768999999997L17.109100000000012 41.47314L18.40160000000003 40.39728999999994L22.271100000000047 38.50499999999994L22.88340000000005 37.61916000000002L24.071600000000103 36.44243L25.592300000000023 35.754380000000026L25.108900000000062 34.62859999999995L25.71390000000008 33.59921000000003L24.391900000000078 31.44243L24.084100000000035 28.84435000000002L25.325700000000097 26.66146999999995L25.235000000000014 26.514470000000017L25.501700000000028 25.291539999999998L26.29169999999999 24.272940000000006L25.977800000000002 22.551570000000027L25.46010000000001 21.851830000000007L24.90840000000003 21.82895000000002L24.643599999999992 19.215139999999963L24.84080000000006 18.46107999999998L25.487600000000043 17.984959999999944L27.684799999999996 18.731029999999976L26.787400000000048 17.78456L26.486500000000092 15.608220000000017L28.08490000000006 14.899540000000002L28.539600000000064 14.133839999999964L30.227400000000102 14.086880000000008L31.376300000000015 14.651309999999967L32.18040000000008 13.672889999999995L32.96670000000006 13.717049999999972L33.43850000000009 13.141140000000007L33.8515000000001 14.020330000000001L33.70450000000005 13.633089999999982L36.195100000000025 12.400840000000017L36.359300000000076 11.614359999999976L38.36020000000008 11.350009999999997L38.51970000000006 12.16325999999998L40.03590000000008 13.370999999999981L41.44680000000005 13.345529999999997L43.19060000000002 13.405680000000018L43.38840000000005 13.009950000000003L42.704900000000066 11.928119999999979L43.79970000000003 10.061489999999992L45.19530000000009 9.540449999999964L45.186500000000024 9.425459999999987L46.52590000000009 9.43365L46.85850000000005 9.132069999999999L47.559400000000096 6.69853999999998L48.43010000000004 6.229510000000005L48.765100000000075 6.4606299999999806L51.10620000000006 5.977620000000002L51.33450000000005 6.312020000000018L50.79340000000002 6.903509999999983L51.65650000000005 8.298839999999984L51.02380000000005 8.769000000000005L50.9516000000001 9.606269999999995L49.34780000000001 9.688739999999996L49.302099999999996 9.729589999999973L50.770399999999995 11.785509999999988L50.914600000000064 12.187070000000006L50.4774000000001 12.83780999999999L51.13850000000002 13.873940000000005L53.48180000000002 13.361009999999965L55.19100000000003 11.442439999999976L57.25940000000003 14.688670000000002L56.90380000000005 14.93153000000001L56.98880000000008 16.17469L56.955400000000054 16.20474999999999L56.4149000000001 17.388080000000002L55.09630000000004 16.625229999999988L54.53570000000002 17.74835999999999L53.33600000000001 18.13317999999998L52.43060000000003 20.066290000000038L53.69830000000002 20.12215999999995L54.24840000000006 20.682489999999973L54.391200000000026 20.277999999999963L55.67650000000003 20.310599999999965L56.40380000000005 20.75893000000002L56.7663 20.529849999999954L56.90370000000007 21.828829999999982L56.28890000000001 23.952489999999955L55.1386 24.179670000000044L54.442300000000046 27.732699999999966z">
      <title id="t371">Première circonscription de la Sarthe</title>
      <desc id="d371">Cantons de : Beaumont-sur-Sarthe, Conlie, Fresnay-sur-Sarthe, Le Mans Centre, Le Mans Nord-Ouest, Saint-Paterne, Sillé-le-Guillaume</desc>
    </path><path class="circo" id="id-072-02" d="M89.76050000000009 68.58526L90.27980000000002 67.33539999999999L90.91340000000002 66.80774000000002L91.5503 65.24317000000002L91.97660000000008 65.24862999999999L93.57720000000006 67.72085999999996L93.918 65.61237999999997L93.37880000000007 63.56824L94.14100000000008 63.16829999999999L94.46620000000007 62.36835000000002L95.2713 62.137549999999976L95.57130000000006 61.326930000000004L93.91100000000006 61.05937L92.41650000000004 60.314689999999985L90.57360000000006 60.737419999999986L88.93240000000003 60.46932999999996L88.0512 59.513499999999965L88.23200000000008 59.115610000000004L87.89470000000006 58.30779000000001L87.26400000000001 57.71597000000003L85.5625 57.33945L84.7360000000001 57.50813999999997L83.33490000000006 55.572859999999935L80.71440000000007 54.455700000000036L80.91600000000005 53.786329999999964L79.8682 53.61805999999996L79.03200000000004 52.73882999999995L77.15740000000005 52.360499999999945L76.7931000000001 52.14650999999998L76.7691000000001 50.90444999999994L75.78960000000006 50.1044L74.9529 49.98387999999994L74.77050000000008 48.72702999999996L75.78510000000006 47.91461999999996L76.60530000000006 45.91524999999996L76.54290000000003 45.041229999999985L77.23210000000006 43.929659999999956L77.6631000000001 43.85832999999997L77.33460000000002 43.09716999999995L76.63390000000004 42.61048999999997L75.49880000000007 42.94211999999999L74.01570000000004 42.77254999999997L73.1685 42.00768999999997L72.58180000000004 42.88159999999999L72.28250000000003 42.682729999999935L71.73310000000004 43.32711999999998L69.577 43.51808L67.3868 46.78049000000004L66.77840000000003 47.27794L66.1721 46.751720000000034L65.05610000000001 47.17824999999999L64.0195 47.00955000000005L63.467700000000036 47.65325999999999L63.37049999999999 48.921899999999994L62.95440000000008 49.01762000000002L62.26420000000007 48.518779999999936L59.7659000000001 48.770429999999976L57.963300000000004 50.48490999999996L59.1862000000001 50.79730999999998L60.23230000000001 52.67383000000001L59.32470000000001 54.093620000000044L57.15930000000003 54.892289999999946L56.978000000000065 55.25484L57.4516000000001 55.93307999999996L56.88620000000003 56.60668000000004L56.61570000000006 58.75213000000002L56.63220000000001 59.15550999999999L57.419000000000096 58.94696000000005L58.4276000000001 59.60143999999997L58.81190000000004 59.46445L59.46590000000003 59.96678000000003L58.1699000000001 62.18695999999994L56.293100000000095 62.84337999999997L55.125 62.76093999999995L53.98520000000008 62.245870000000025L53.40730000000008 62.48956000000004L53.223299999999995 63.40447L52.18100000000004 64.21873L50.87150000000008 64.31598000000002L52.75080000000003 66.02042L53.2287 67.63100000000003L52.9276000000001 69.08867000000004L53.64440000000002 71.01665999999994L52.168300000000045 72.44504L52.442800000000034 73.18199999999996L53.17150000000004 73.59666999999996L54.00580000000002 73.49255999999997L54.832899999999995 72.51403999999997L55.68290000000002 72.43350000000004L56.73670000000004 71.70178000000004L56.51260000000002 70.99458999999996L56.86850000000004 70.78324000000003L56.52760000000001 70.06072999999998L56.754600000000096 69.29169999999993L57.91870000000006 68.89641999999998L58.721900000000005 69.84529000000003L60.90989999999999 70.99700000000001L62.83030000000008 71.13515000000001L63.63510000000008 71.32454000000001L63.96480000000008 70.57417000000004L65.2600000000001 70.61324999999994L66.86110000000008 72.06327000000005L68.59890000000007 72.37592000000001L68.99630000000002 74.05150999999995L69.10400000000004 74.93041999999997L70.25880000000006 75.36336L71.59000000000003 79.08511000000004L72.32720000000006 79.40083999999996L74.9846 75.51687999999996L77.2120000000001 73.78700999999995L77.14760000000001 73.48534000000001L77.9643000000001 73.21472L79.22670000000005 73.53389999999996L80.46780000000001 73.14610999999996L81.0725000000001 73.69444000000004L81.91910000000007 73.75556L82.13460000000009 74.13012999999995L81.67960000000005 75.26663000000002L84.41210000000001 77.35845999999998L85.54180000000008 77.94863000000004L87.01280000000008 76.95149999999995L87.89640000000009 76.85809L88.63030000000003 75.51395999999994L89.3678000000001 75.17991999999998L89.73630000000003 74.45636999999994L88.8139000000001 73.53808999999995L87.55490000000009 73.31401999999997L87.19420000000002 72.54067000000003L87.2505000000001 71.66297000000003L89.41370000000006 71.58076999999997L89.3279 71.15163999999999L89.50070000000005 70.99331999999998L90.06600000000003 69.34955999999994L89.76050000000009 68.58526z">
      <title id="t372">Deuxième circonscription de la Sarthe</title>
      <desc id="d372">Cantons de: Bouloire, Le Mans Est-Campagne, Le Mans Sud-Est, Le Mans Sud-Ouest, Le Mans-Ville Est, Montfort-le-Gesnois</desc>
    </path><path class="circo" id="id-072-03" d="M90.30180000000007 100.58017999999998L89.4611000000001 101.53144000000003L89.04040000000009 101.49078000000003L88.55520000000001 100.81873000000002L88.28010000000006 99.19289999999995L87.40190000000007 98.28590000000003L87.41830000000004 98.22854000000001L88.57230000000004 96.93945000000002L89.8171000000001 96.65336999999994L90.06150000000002 96.29436000000004L89.98200000000008 95.80176L90.601 95.22076999999996L90.76670000000001 94.01501999999999L91.3134 93.35992000000005L93.34850000000006 92.90830999999997L93.42730000000006 92.88440999999995L95.44910000000004 91.15732999999994L97.35050000000001 91.73691000000002L97.79920000000004 91.04401999999999L96.8112000000001 89.70847999999995L96.87400000000002 89.29090000000002L97.39890000000003 88.63419000000005L97.80310000000009 88.51653000000005L98.58660000000009 88.82509999999996L98.66550000000007 88.41050000000001L100.44760000000008 86.23283999999995L100.99920000000009 85.61759L101.62930000000006 83.68350000000004L102.58960000000002 82.95607000000001L103.39070000000004 83.26958999999994L103.88570000000004 82.08013999999997L103.85300000000007 80.79470999999995L102.6046 79.70780999999994L102.98850000000004 78.52545000000003L102.44950000000006 76.48241000000002L102.65970000000004 74.78258999999997L103.3614 74.36318L104.97040000000004 73.05049000000002L105.57180000000005 73.59769L105.89440000000002 74.79869000000002L107.20090000000005 75.87385L107.50670000000002 75.57670999999999L106.97250000000008 73.49573000000004L107.11450000000002 70.97048999999998L107.46540000000005 70.19319000000002L109.9172000000001 69.31581L110.18790000000001 68.96799000000004L109.94950000000006 67.70283999999998L108.14600000000007 64.16816L105.6354 65.74010000000004L104.39330000000007 65.41151999999994L104.01060000000007 64.64956000000001L103.17420000000004 64.65501999999998L99.42340000000002 62.521540000000016L98.36130000000003 61.15478000000002L98.38970000000006 60.719379999999944L96.64300000000003 60.53933999999998L95.57130000000006 61.326930000000004L95.2713 62.137549999999976L94.46620000000007 62.36835000000002L94.14100000000008 63.16829999999999L93.37880000000007 63.56824L93.918 65.61237999999997L93.57720000000006 67.72085999999996L91.97660000000008 65.24862999999999L91.5503 65.24317000000002L90.91340000000002 66.80774000000002L90.27980000000002 67.33539999999999L89.76050000000009 68.58526L90.06600000000003 69.34955999999994L89.50070000000005 70.99331999999998L89.3279 71.15163999999999L89.41370000000006 71.58076999999997L87.2505000000001 71.66297000000003L87.19420000000002 72.54067000000003L87.55490000000009 73.31401999999997L88.8139000000001 73.53808999999995L89.73630000000003 74.45636999999994L89.3678000000001 75.17991999999998L88.63030000000003 75.51395999999994L87.89640000000009 76.85809L87.01280000000008 76.95149999999995L85.54180000000008 77.94863000000004L84.41210000000001 77.35845999999998L81.67960000000005 75.26663000000002L82.13460000000009 74.13012999999995L81.91910000000007 73.75556L81.0725000000001 73.69444000000004L80.46780000000001 73.14610999999996L79.22670000000005 73.53389999999996L77.9643000000001 73.21472L77.14760000000001 73.48534000000001L77.2120000000001 73.78700999999995L74.9846 75.51687999999996L72.32720000000006 79.40083999999996L71.59000000000003 79.08511000000004L70.25880000000006 75.36336L69.10400000000004 74.93041999999997L68.99630000000002 74.05150999999995L68.59890000000007 72.37592000000001L66.86110000000008 72.06327000000005L65.2600000000001 70.61324999999994L63.96480000000008 70.57417000000004L63.63510000000008 71.32454000000001L62.83030000000008 71.13515000000001L60.90989999999999 70.99700000000001L58.721900000000005 69.84529000000003L57.91870000000006 68.89641999999998L56.754600000000096 69.29169999999993L56.52760000000001 70.06072999999998L56.86850000000004 70.78324000000003L56.51260000000002 70.99458999999996L56.73670000000004 71.70178000000004L55.68290000000002 72.43350000000004L54.832899999999995 72.51403999999997L54.00580000000002 73.49255999999997L53.17150000000004 73.59666999999996L52.442800000000034 73.18199999999996L51.147500000000036 74.07954000000001L51.88310000000001 74.43315999999999L51.865600000000086 75.66227999999995L52.752300000000105 77.12906000000004L52.836900000000014 77.55400000000003L52.20360000000005 78.13832999999994L51.793000000000006 78.10981999999996L49.98779999999999 82.18183000000005L48.864700000000084 82.88186999999999L48.77210000000002 82.05163999999996L46.253600000000006 81.46880000000004L45.73860000000002 80.76228999999995L45.844400000000064 79.89593999999994L45.21760000000006 79.27680000000004L44.907800000000066 79.01782999999995L43.39560000000006 79.16429999999997L40.84520000000009 81.14127000000002L39.31810000000007 83.29086000000001L39.41730000000007 83.72047000000003L40.678100000000086 84.08433999999994L41.539600000000064 85.08037999999993L40.10590000000002 86.34054999999995L40.331500000000005 87.08315999999996L39.325000000000045 87.87226000000004L39.59500000000003 88.64493999999996L40.206600000000094 89.77602999999993L38.706300000000056 91.91407999999996L38.664100000000076 93.22994999999997L37.80630000000008 93.32982999999996L36.32060000000001 92.50862999999998L34.6943 93.03019L34.628400000000056 93.82640999999995L33.59010000000001 94.95737000000003L32.32670000000007 95.00994999999995L31.394900000000007 94.19464999999997L29.317499999999995 96.39494999999994L28.111000000000104 96.15686999999997L26.526100000000042 91.90092999999996L24.875800000000027 92.03407999999996L23.087200000000053 94.40879000000001L22.343000000000075 94.81580000000002L22.191700000000083 94.01919000000004L20.91420000000005 93.81477999999998L20.610400000000027 93.01286999999996L18.92540000000008 91.72982999999994L18.41050000000007 91.16200999999995L16.8746000000001 91.12610000000001L16.44220000000007 92.37650000000002L15.695100000000025 92.81980000000004L14.683100000000081 94.78862999999996L13.652700000000095 95.61837999999995L13.420900000000074 96.92239000000001L13.62480000000005 97.43285999999995L16.2568 98.82568999999995L17.948100000000068 99.26452L20.871600000000058 96.66056999999995L21.620000000000005 96.90104000000002L22.387800000000084 97.82022999999998L23.172800000000052 97.78851000000003L23.333799999999997 98.15527000000003L22.47919999999999 98.31722999999994L22.403400000000033 99.16801000000004L20.781100000000038 100.62197999999995L19.5698000000001 100.75899999999996L19.72700000000009 102.00605999999999L21.35730000000001 104.55387999999999L21.354000000000042 106.15694000000002L21.654899999999998 106.42317999999995L23.31280000000004 106.79374000000001L24.5625 106.53433000000001L25.533900000000017 107.91136999999998L26.640800000000013 108.37065999999999L27.206500000000005 107.83795000000003L28.375 107.99386999999996L28.397500000000036 106.75197999999995L29.107500000000073 105.26781L29.654300000000035 104.67339999999996L30.03640000000007 104.82319999999999L30.217500000000086 106.03340999999995L31.740400000000022 105.2167L33.62150000000008 106.32791000000003L35.80040000000008 106.62214999999998L36.34940000000006 107.79884999999996L37.69060000000002 106.45320999999996L39.175800000000095 108.84984000000003L38.91720000000009 109.46972999999997L40.980999999999995 110.14479999999998L42.51610000000005 111.68284L43.36430000000007 111.90321L44.11040000000003 111.44379999999995L46.21460000000002 112.04832000000005L47.4774000000001 111.72368999999998L47.90440000000001 111.75798000000003L48.30400000000009 112.97183000000001L49.48490000000004 113.17060999999995L50.01730000000009 114.30794999999995L50.69560000000001 114.82476000000003L51.77010000000007 113.42383000000001L53.053600000000074 113.17212L53.71220000000005 112.59215L53.87010000000009 110.38123999999999L55.23650000000009 110.50292999999994L55.460500000000025 111.71460999999994L55.87340000000006 111.77146999999997L56.14670000000001 110.98169999999999L56.54550000000006 110.85737999999998L57.62450000000001 111.40875L57.854600000000005 111.09404L60.09910000000002 110.91663999999997L61.48440000000005 112.58080999999999L65.4534000000001 113.06788L66.6776000000001 114.23409999999996L66.89870000000008 115.02108000000004L70.24580000000003 116.43388999999996L71.48340000000007 115.33861999999993L72.29380000000003 115.17569999999995L71.65690000000006 113.15031000000005L70.57990000000007 111.20940999999999L69.79939999999999 110.78563000000003L69.06200000000001 109.68487999999996L70.61160000000007 107.03168999999997L71.7559 107.31530000000004L73.96160000000009 110.00065999999998L74.77280000000007 110.15816999999998L76.4448000000001 109.76194000000004L76.67880000000002 108.09490999999997L77.2749 106.94300000000004L78.48810000000003 106.55514999999997L78.74700000000007 106.89555999999999L80.44050000000004 106.82225999999997L81.99800000000005 105.37633999999997L82.76150000000007 105.66482000000002L84.42100000000005 105.25721000000004L85.6413 104.12020000000001L85.57240000000002 103.53690999999998L87.72250000000008 103.77181999999999L88.5091000000001 103.40450000000004L90.42050000000006 101.66023000000001L90.66300000000001 100.82630999999998L90.30180000000007 100.58017999999998z">
      <title id="t373">Troisième circonscription de la Sarthe</title>
      <desc id="d373">Cantons de : La Chartre-sur-le-Loir, Château-du-Loir, Ecommoy, La Flèche, Le Grand-Lucé, La Lude, Mayet, Pontvallain, Saint-Calais</desc>
    </path><path class="circo" id="id-072-04" d="M10.87360000000001 70.06351999999998L9.995900000000006 69.89262000000002L9.283200000000079 70.41875999999996L5.361400000000003 70.62859999999995L4.674100000000067 71.07426000000004L4.2724000000000615 72.22385000000003L2.9803000000000566 72.53230000000002L3.52030000000002 73.22283999999996L3.728800000000092 74.49655999999999L3.134400000000028 75.12870000000004L4.70390000000009 75.51308L4.821300000000065 75.91454000000004L6.041600000000017 76.15437000000003L6.548900000000003 77.69555999999994L5.943300000000022 78.75808999999998L6.200800000000072 79.91229000000004L3.050200000000018 79.91000000000003L3.1385999999999967 81.30288000000002L1.9056000000000495 80.96052000000003L1.3121000000001004 82.04518000000002L0 83.15208000000001L0.5846000000000231 83.72881999999998L1.1759000000000697 86.06135L2.628300000000081 86.86903999999998L5.075800000000072 86.53405000000004L5.16560000000004 86.66705999999994L5.766100000000051 89.44181999999995L6.12620000000004 91.52054000000004L5.628000000000043 92.19467000000003L6.028500000000008 92.24019000000004L5.797900000000027 93.37888000000004L6.407800000000066 94.39803999999998L6.301700000000096 94.81149999999997L7.617800000000102 95.81059999999997L6.977700000000027 97.81302L8.2269 98.02488999999997L9.71160000000009 97.20378L11.801700000000096 97.65951999999999L13.62480000000005 97.43285999999995L13.420900000000074 96.92239000000001L13.652700000000095 95.61837999999995L14.683100000000081 94.78862999999996L15.695100000000025 92.81980000000004L16.44220000000007 92.37650000000002L16.8746000000001 91.12610000000001L18.41050000000007 91.16200999999995L18.92540000000008 91.72982999999994L20.610400000000027 93.01286999999996L20.91420000000005 93.81477999999998L22.191700000000083 94.01919000000004L22.343000000000075 94.81580000000002L23.087200000000053 94.40879000000001L24.875800000000027 92.03407999999996L26.526100000000042 91.90092999999996L28.111000000000104 96.15686999999997L29.317499999999995 96.39494999999994L31.394900000000007 94.19464999999997L32.32670000000007 95.00994999999995L33.59010000000001 94.95737000000003L34.628400000000056 93.82640999999995L34.6943 93.03019L36.32060000000001 92.50862999999998L37.80630000000008 93.32982999999996L38.664100000000076 93.22994999999997L38.706300000000056 91.91407999999996L40.206600000000094 89.77602999999993L39.59500000000003 88.64493999999996L39.325000000000045 87.87226000000004L40.331500000000005 87.08315999999996L40.10590000000002 86.34054999999995L41.539600000000064 85.08037999999993L40.678100000000086 84.08433999999994L39.41730000000007 83.72047000000003L39.31810000000007 83.29086000000001L40.84520000000009 81.14127000000002L43.39560000000006 79.16429999999997L44.907800000000066 79.01782999999995L45.21760000000006 79.27680000000004L45.844400000000064 79.89593999999994L45.73860000000002 80.76228999999995L46.253600000000006 81.46880000000004L48.77210000000002 82.05163999999996L48.864700000000084 82.88186999999999L49.98779999999999 82.18183000000005L51.793000000000006 78.10981999999996L52.20360000000005 78.13832999999994L52.836900000000014 77.55400000000003L52.752300000000105 77.12906000000004L51.865600000000086 75.66227999999995L51.88310000000001 74.43315999999999L51.147500000000036 74.07954000000001L52.442800000000034 73.18199999999996L52.168300000000045 72.44504L53.64440000000002 71.01665999999994L52.9276000000001 69.08867000000004L53.2287 67.63100000000003L52.75080000000003 66.02042L50.87150000000008 64.31598000000002L52.18100000000004 64.21873L53.223299999999995 63.40447L53.40730000000008 62.48956000000004L53.98520000000008 62.245870000000025L54.4851000000001 61.547729999999945L54.62040000000002 61.14703000000003L54.24650000000008 60.905190000000005L53.8343000000001 60.90303L52.71810000000005 60.61364999999995L52.11990000000003 60.63799999999998L51.1613000000001 60.43138000000005L50.426000000000045 59.89384000000001L49.99300000000005 59.97479000000004L48.235000000000014 60.28723999999994L46.73520000000008 60.44987999999995L45.96440000000007 59.37397000000004L46.25020000000006 59.07963999999998L45.80340000000001 58.44149999999996L46.79830000000004 56.22297999999995L46.19870000000003 56.400720000000035L45.23720000000003 57.844359999999995L43.696300000000065 57.03855000000004L43.1875 57.68941000000001L41.53100000000006 57.85682000000003L41.009000000000015 57.17583999999994L40.8284000000001 55.91986000000003L39.82670000000007 55.11610000000002L40.192800000000034 53.434770000000015L39.85520000000008 53.690300000000036L37.8497000000001 53.56387000000001L37.589500000000044 53.89788000000004L38.14600000000007 54.994399999999985L37.51100000000008 55.49961999999999L36.21510000000001 54.330809999999985L35.39470000000006 54.10812000000004L33.207500000000095 55.24745999999999L32.566200000000094 54.72849000000002L31.474800000000073 56.34553999999997L30.65370000000007 56.046880000000044L27.672300000000064 56.203400000000045L26.536200000000008 54.874480000000005L25.358800000000087 55.33023999999995L22.79950000000008 55.028989999999965L22.61189999999999 54.31161000000003L23.5159000000001 53.67249999999996L22.180900000000065 54.128589999999974L21.79740000000004 53.481960000000015L20.785100000000057 52.79684000000003L19.620499999999993 53.031030000000044L18.863699999999994 52.73666999999995L18.443100000000072 54.35205000000002L17.68500000000006 53.96617999999995L14.763300000000072 53.65532000000002L13.757200000000012 54.42695999999995L14.03550000000007 54.694789999999955L13.670900000000074 54.959689999999966L11.173400000000015 56.02081000000004L9.992600000000039 55.44658999999996L9.130100000000084 56.24929000000003L9.642600000000016 57.735550000000046L9.329900000000066 60.307189999999935L11.80860000000007 61.13749999999999L11.848299999999995 61.13114999999999L11.514499999999998 61.713889999999935L11.550200000000018 62.56713999999994L12.612400000000093 64.81716999999998L12.533999999999992 66.08287999999999L13.563200000000052 66.76356000000004L14.25750000000005 67.20567L14.229199999999992 67.62071999999995L12.7573000000001 69.03334000000001L11.580700000000093 69.42797000000002L10.87360000000001 70.06351999999998z">
      <title id="t374">Quatrième circonscription de la Sarthe</title>
      <desc id="d374">Cantons de: Allonnes, Brûlon, Loué, Malicorne-sur-Sarthe, Le Mans Ouest, Sablé-sur-Sarthe, La Suze-sur-Sarthe</desc>
    </path><path class="circo" id="id-072-05" d="M64.0195 47.00955000000005L63.467700000000036 47.65325999999999L63.37049999999999 48.921899999999994L62.95440000000008 49.01762000000002L62.26420000000007 48.518779999999936L59.7659000000001 48.770429999999976L57.963300000000004 50.48490999999996L59.1862000000001 50.79730999999998L60.23230000000001 52.67383000000001L59.32470000000001 54.093620000000044L57.15930000000003 54.892289999999946L56.978000000000065 55.25484L57.4516000000001 55.93307999999996L56.88620000000003 56.60668000000004L56.61570000000006 58.75213000000002L56.63220000000001 59.15550999999999L57.419000000000096 58.94696000000005L58.4276000000001 59.60143999999997L58.81190000000004 59.46445L59.46590000000003 59.96678000000003L58.1699000000001 62.18695999999994L57.124700000000075 62.54663999999997L57.09540000000004 62.15505999999999L56.81350000000009 62.252189999999985L56.210500000000025 62.10126999999994L55.99700000000007 61.656409999999994L55.706800000000044 61.56904000000003L55.604400000000055 60.24885999999998L55.1255000000001 60.67211000000003L54.98950000000002 60.54816999999997L55.05320000000006 60.008470000000045L54.872400000000084 59.50694000000004L54.516500000000065 59.07837000000001L53.58070000000009 57.370979999999975L53.75070000000005 57.01808L53.10270000000003 56.16092999999995L55.57810000000006 54.50276000000002L55.26290000000006 53.368750000000034L53.74180000000001 53.52609000000001L52.903099999999995 52.64788000000004L52.56810000000007 50.59077999999994L53.70760000000007 50.15695999999997L53.8981 49.342190000000016L54.27430000000004 49.159159999999986L53.6101000000001 48.667070000000024L53.56600000000003 47.87897000000004L51.494800000000055 47.45477999999997L51.33800000000008 45.76473000000004L50.616100000000074 46.03507999999994L49.44150000000002 45.10197999999997L48.47070000000008 46.265690000000006L47.76700000000005 46.08855999999997L48.092700000000036 44.83018999999996L47.93430000000001 43.117800000000045L46.66880000000003 42.85102999999998L44.982000000000085 43.04531000000003L44.58540000000005 42.27768999999995L44.26010000000008 40.314959999999985L45.51830000000007 40.08693999999997L46.080600000000004 39.414309999999944L46.93140000000005 39.587289999999996L47.49660000000006 40.27455000000003L49.2573000000001 40.144799999999975L51.00330000000008 38.839519999999936L50.462800000000016 37.684699999999964L52.966600000000085 37.573770000000025L53.6409000000001 37.065120000000036L54.1006000000001 35.439979999999935L54.051199999999994 34.66074999999995L54.78240000000005 33.579049999999995L53.896600000000035 32.24246999999997L54.1164 30.143200000000036L54.9597 29.851129999999955L55.317800000000034 29.087820000000022L55.35030000000006 28.31995999999998L54.442300000000046 27.732699999999966L55.1386 24.179670000000044L56.28890000000001 23.952489999999955L56.90370000000007 21.828829999999982L56.7663 20.529849999999954L56.40380000000005 20.75893000000002L55.67650000000003 20.310599999999965L54.391200000000026 20.277999999999963L54.24840000000006 20.682489999999973L53.69830000000002 20.12215999999995L52.43060000000003 20.066290000000038L53.33600000000001 18.13317999999998L54.53570000000002 17.74835999999999L55.09630000000004 16.625229999999988L56.4149000000001 17.388080000000002L56.955400000000054 16.20474999999999L56.98880000000008 16.17469L56.90380000000005 14.93153000000001L57.25940000000003 14.688670000000002L55.19100000000003 11.442439999999976L53.48180000000002 13.361009999999965L51.13850000000002 13.873940000000005L50.4774000000001 12.83780999999999L50.914600000000064 12.187070000000006L50.770399999999995 11.785509999999988L49.302099999999996 9.729589999999973L49.34780000000001 9.688739999999996L50.9516000000001 9.606269999999995L51.02380000000005 8.769000000000005L51.65650000000005 8.298839999999984L50.79340000000002 6.903509999999983L51.33450000000005 6.312020000000018L51.10620000000006 5.977620000000002L51.53120000000001 5.319790000000012L51.23910000000001 5.035059999999987L50.30770000000007 3.7986099999999965L51.0385 3.582899999999995L52.03360000000009 4.385719999999992L52.83420000000001 4.319979999999987L52.54870000000005 3.50997000000001L52.722000000000094 2.660250000000019L54.390100000000075 2.8508600000000115L54.64490000000001 2.671009999999967L56.601600000000076 1.3817999999999984L57.23860000000002 1.5023199999999974L59.27410000000009 1.297050000000013L60.31460000000004 0.6720899999999688L60.40600000000006 0.21992999999997664L60.75290000000007 0L61.36620000000005 0.5305199999999672L62.17660000000001 0.40100000000001046L63.39670000000001 0.6105400000000145L64.82720000000006 1.4596300000000042L65.65910000000008 1.6251500000000192L67.05930000000001 3.0258400000000165L67.832 3.323980000000006L68.0702 3.1902900000000045L68.947 4.23257000000001L69.3383 6.003879999999981L70.03570000000002 6.955010000000016L70.5213 7.663020000000017L70.33320000000003 8.927039999999977L69.75240000000008 9.540070000000014L69.85310000000004 12.505409999999983L70.26070000000004 12.983850000000018L70.42200000000003 14.76967000000002L71.01080000000002 17.57954000000001L70.4285000000001 18.122699999999952L70.70680000000004 19.424579999999935L71.68050000000005 20.906840000000045L72.80270000000007 21.541750000000036L73.3949 20.881400000000042L74.42520000000002 21.728999999999985L74.62180000000001 22.51885999999996L75.71320000000003 23.035410000000013L77.45280000000002 22.95273000000003L78.53390000000002 23.621939999999938L79.85950000000003 22.712219999999945L81.07000000000005 24.438140000000033L80.38840000000005 24.93140999999997L80.10090000000002 25.737360000000024L81.64359999999999 27.767179999999996L83.15110000000004 28.034699999999987L83.6826000000001 28.765060000000005L83.74860000000001 30.11102999999997L84.5526000000001 29.992950000000008L87.30640000000005 30.726920000000007L88.54200000000003 30.709689999999966L90.19170000000008 30.940969999999936L90.98410000000001 30.66194999999999L91.64250000000004 31.190109999999947L91.78740000000005 31.976140000000044L92.34610000000009 31.850179999999966L91.78730000000007 29.405839999999955L92.70910000000003 28.540339999999958L93.53520000000003 28.304249999999968L95.36720000000003 29.385289999999998L96.20820000000003 29.502999999999986L96.50390000000004 31.19023999999996L97.38960000000009 32.18670000000003L98.00319999999999 33.83651000000003L98.94280000000003 34.773769999999956L99.2976000000001 36.04019999999997L99.58460000000002 36.63002L100.30560000000003 36.62759999999997L100.85910000000001 37.77203000000003L102.27830000000006 38.67366999999996L102.6083000000001 38.931689999999946L105.87630000000001 37.099549999999965L105.8655 37.90208999999999L107.03110000000004 38.341309999999964L108.44380000000001 39.83062000000001L109.18330000000003 40.52154999999999L109.5245000000001 40.787530000000004L111.2306000000001 40.64453999999995L113.2555000000001 41.25740000000002L115.55040000000008 43.152840000000026L115.39280000000008 43.590430000000026L115.99120000000005 44.17537999999996L115.79460000000006 44.569339999999954L110.3574000000001 44.92189000000002L110.75150000000008 46.09657999999996L109.57920000000001 48.74395999999996L108.88400000000001 49.262639999999976L107.59770000000003 49.42873000000003L107.44850000000008 49.81666000000001L108.64980000000003 50.26119L109.90160000000003 50.05374999999998L109.73270000000002 52.614930000000015L108.94270000000006 52.952669999999955L106.37840000000006 52.747739999999965L105.5652 53.022509999999954L105.9493 53.77780999999999L105.6404 55.884889999999984L105.86750000000006 57.11570999999998L106.68320000000006 57.194789999999955L107.20460000000003 57.85210999999998L109.32710000000009 57.70530000000002L109.5236000000001 59.43103000000002L109.11660000000006 60.68798999999996L108.67290000000003 62.35170999999997L107.80830000000003 63.36922999999996L108.14600000000007 64.16816L105.6354 65.74010000000004L104.39330000000007 65.41151999999994L104.01060000000007 64.64956000000001L103.17420000000004 64.65501999999998L99.42340000000002 62.521540000000016L98.36130000000003 61.15478000000002L98.38970000000006 60.719379999999944L96.64300000000003 60.53933999999998L95.57130000000006 61.326930000000004L93.91100000000006 61.05937L92.41650000000004 60.314689999999985L90.57360000000006 60.737419999999986L88.93240000000003 60.46932999999996L88.0512 59.513499999999965L88.23200000000008 59.115610000000004L87.89470000000006 58.30779000000001L87.26400000000001 57.71597000000003L85.5625 57.33945L84.7360000000001 57.50813999999997L83.33490000000006 55.572859999999935L80.71440000000007 54.455700000000036L80.91600000000005 53.786329999999964L79.8682 53.61805999999996L79.03200000000004 52.73882999999995L77.15740000000005 52.360499999999945L76.7931000000001 52.14650999999998L76.7691000000001 50.90444999999994L75.78960000000006 50.1044L74.9529 49.98387999999994L74.77050000000008 48.72702999999996L75.78510000000006 47.91461999999996L76.60530000000006 45.91524999999996L76.54290000000003 45.041229999999985L77.23210000000006 43.929659999999956L77.6631000000001 43.85832999999997L77.33460000000002 43.09716999999995L76.63390000000004 42.61048999999997L75.49880000000007 42.94211999999999L74.01570000000004 42.77254999999997L73.1685 42.00768999999997L72.58180000000004 42.88159999999999L72.28250000000003 42.682729999999935L71.73310000000004 43.32711999999998L69.577 43.51808L67.3868 46.78049000000004L66.77840000000003 47.27794L66.1721 46.751720000000034L65.05610000000001 47.17824999999999L64.0195 47.00955000000005z">
      <title id="t375">Cinquième circonscription de la Sarthe</title>
      <desc id="d375">Cantons de : Ballon, Bonnétable, La Ferté-Bernard, La Fresnaye-sur-Chédouet, Mamers, Le Mans Nord-Campagne, Le Mans Nord-Ville, Marolles-les-Braults, Montmirail, Tuffé, Vibraye</desc>
    </path></svg>