<svg xmlns="http://www.w3.org/2000/svg" version="1.1" xmlns:xlink="http://www.w3.org/1999/xlink" xmlns:svgjs="http://svgjs.dev/svgjs" viewBox="0 0 132.64229999999998 107.45421999999996"><path class="circo" id="id-073-01" d="M24.668100000000095 16.407950000000028L23.88259999999991 15.461419999999976L23.808199999999943 13.78597000000002L22.161699999999882 13.691310000000044L21.797900000000027 13.482349999999997L21.887300000000096 13.072220000000016L21.233099999999922 12.560179999999946L21.22309999999993 12.140970000000038L21.66319999999996 9.498179999999934L21.44939999999997 9.166899999999941L20.661399999999958 4.859339999999975L20.569999999999936 4.2010799999999335L20.30510000000004 2.6667700000000423L20.575399999999945 2.3859899999999925L20.260600000000068 0.7404299999999466L18.013400000000047 0.6865299999999479L17.636199999999917 0L16.865999999999985 1.0020899999999529L17.480999999999995 2.990670000000023L17.218900000000076 4.248230000000035L16.269999999999982 7.483539999999948L15.621499999999969 9.505260000000021L15.076099999999997 11.316850000000045L14.62909999999988 13.268749999999955L13.871200000000044 14.07066999999995L13.6721 17.241319999999973L13.399400000000014 19.238429999999994L13.54079999999999 20.25926000000004L13.232299999999896 21.50436000000002L13.587199999999939 23.580619999999954L13.318099999999959 23.8587L12.404500000000098 24.115080000000034L12.972899999999981 25.685589999999934L11.863200000000006 26.83692999999994L11.320999999999913 27.96300999999994L10.641599999999926 28.41958999999997L9.144000000000005 27.848700000000008L8.839699999999993 27.956549999999993L6.532500000000027 27.873659999999973L6.798399999999901 29.309669999999983L7.263599999999997 30.91876000000002L5.260999999999967 33.098209999999995L5.135700000000043 33.92687000000001L5.4483000000000175 34.724289999999996L5.453199999999924 35.90110000000004L4.470199999999977 36.61901999999998L2.4710999999999785 36.786789999999996L2.0894000000000688 37.914139999999975L1.246499999999969 38.446500000000015L1.0731000000000677 39.130499999999984L0.7197000000001026 39.84784000000002L0 39.63226999999995L0.028900000000021464 40.83411000000001L1.1821999999999662 42.504620000000045L1.8826999999998861 43.31718999999998L1.9688000000001011 44.03566999999998L4.0289000000000215 45.94105000000002L4.034400000000005 46.74847999999997L4.372100000000046 46.97984999999994L4.147699999999986 47.68520000000001L4.820799999999963 47.99239L4.87259999999992 48.36158999999998L4.215200000000095 48.10964000000001L4.045599999999922 48.93706999999995L4.537900000000036 49.62293L5.7258999999999105 49.999079999999935L5.7379000000000815 50.73735999999997L6.114800000000059 50.96118999999999L6.570600000000013 51.23706000000004L7.668599999999969 53.68773999999996L8.15989999999988 55.395970000000034L9.586900000000014 56.794309999999996L9.217300000000023 59.113950000000045L9.880699999999933 60.94802000000004L11.382699999999886 61.26999999999998L11.641100000000051 61.09581000000003L11.869699999999966 60.75006999999994L13.49109999999996 60.521349999999984L14.672700000000077 60.88950999999997L15.947599999999966 62.42588999999998L17.92529999999988 63.05335000000002L17.97980000000007 63.04984000000002L19.597800000000007 63.57213999999999L20.0467000000001 64.29975000000002L21.721000000000004 64.66733999999997L22.68380000000002 65.51649999999995L22.717300000000023 66.80155000000002L23.009700000000066 66.95078000000001L24.407799999999952 66.20722999999998L25.479900000000043 63.93322999999998L24.02260000000001 64.28945999999996L23.692199999999957 63.54295000000002L23.897300000000087 61.866679999999974L23.860799999999927 61.58699999999999L24.598500000000058 61.196230000000014L25.23219999999992 60.12058000000002L25.627500000000055 57.63802999999996L24.788600000000088 56.238399999999956L22.962099999999964 53.78597000000002L21.135999999999967 54.10695999999996L20.857700000000023 53.82246999999995L20.5308 54.03892999999994L19.911599999999908 53.031889999999976L20.202099999999973 51.47082999999998L19.587299999999914 50.51496999999995L19.00579999999991 51.59468000000004L17.945199999999886 51.06334000000004L16.314499999999953 51.02451999999994L16.489199999999983 50.76950999999997L16.573699999999917 50.69161999999994L17.526100000000042 47.39522999999997L16.726899999999887 45.25531000000001L16.455600000000004 43.745540000000005L17.549800000000005 44.22900000000004L18.76649999999995 43.99716999999998L19.542899999999918 45.33386999999993L21.06230000000005 44.81042000000002L21.36220000000003 43.18978000000004L22.38020000000006 42.52332000000001L22.766200000000026 41.39369999999997L22.160000000000082 39.43345999999997L23.313000000000102 39.2722L23.842599999999948 38.60948999999994L23.664399999999887 36.91832999999997L24.28710000000001 36.673L24.53970000000004 36.03922L26.06320000000005 39.27985000000001L26.77080000000001 39.62279000000001L28.299299999999903 35.69196999999997L29.051099999999906 35.825469999999996L29.13460000000009 33.30486999999994L29.513999999999896 33.148199999999974L29.960399999999936 31.998659999999973L29.799399999999878 31.19336999999996L30.24630000000002 31.224519999999984L31.768100000000004 32.07395999999994L32.2636 32.23418000000004L33.396999999999935 31.07705999999996L33.556100000000015 29.45704999999998L34.703700000000026 27.261330000000044L34.9070999999999 26.033720000000017L35.573900000000094 24.304719999999975L32.624000000000024 22.909310000000005L31.455799999999954 23.277439999999956L31.494500000000016 21.386300000000006L29.775100000000066 20.719280000000026L29.79009999999994 19.939110000000028L30.467499999999973 18.95541000000003L30.32899999999995 17.36945000000003L28.417999999999893 17.522460000000024L28.81899999999996 15.34996000000001L27.55919999999992 15.620199999999954L26.38259999999991 15.122269999999958L26.173700000000053 15.91238999999996L24.668100000000095 16.407950000000028z">
      <title id="t376">Première circonscription de Savoie</title>
      <desc id="d376">Cantons de : Aix-les-Bains Centre, Aix-les-Bains Nord-Grésy, Aix-les-Bains Sud, Albens, Les Echelles, La Motte-Servolex, Le Pont-de-Beauvoisin, Ruffieux, Saint-Genix-sur-Guiers, Yenne</desc>
    </path><path class="circo" id="id-073-02" d="M59.87030000000004 34.00627999999995L58.42859999999996 32.50496999999996L58.15869999999995 29.940789999999993L59.810199999999895 29.946749999999952L61.40840000000003 26.197850000000017L61.82529999999997 25.521929999999998L61.8273999999999 25.500130000000013L61.981899999999996 25.156479999999988L61.535699999999906 24.559139999999957L63.470800000000054 22.639239999999972L63.82719999999995 21.44002999999998L62.86449999999991 20.80908999999997L65.41059999999993 18.74344999999994L67.69329999999991 16.62706000000003L68.07089999999994 16.432450000000017L68.71659999999997 14.422680000000014L69.73949999999991 13.075510000000008L70.21139999999991 12.081180000000018L69.81420000000003 11.435709999999972L70.58850000000007 10.145419999999945L70.29770000000008 9.421889999999962L71.02379999999994 8.992840000000001L72.0897 6.617709999999988L74.08979999999997 5.794880000000035L75.42399999999998 3.5928499999999985L75.84300000000007 4.316270000000031L77.27359999999999 5.066239999999993L79.2931000000001 5.522780000000012L79.50669999999991 6.310719999999947L80.49219999999991 7.062059999999974L80.68129999999996 7.440439999999967L80.14879999999994 8.05785000000003L80.2799 9.287500000000023L77.4864 9.341819999999984L78.23849999999993 10.865220000000022L78.96479999999997 13.690330000000017L80.05600000000004 14.987619999999993L80.35750000000007 14.716499999999996L81.09259999999995 14.98738000000003L81.69080000000008 16.82946000000004L82.91360000000009 17.83370000000002L83.12689999999998 17.50392999999997L85.0601999999999 17.386160000000018L86.12889999999993 16.89468999999997L88.02909999999997 16.883960000000002L88.32549999999992 17.69898999999998L90.48579999999993 20.397449999999935L90.37999999999988 22.504620000000045L91.35120000000006 23.787810000000036L90.59979999999996 25.655149999999935L92.49990000000003 26.294520000000034L94.92039999999997 23.43506000000002L95.12999999999988 22.612679999999955L96.38570000000004 20.90522999999996L98.42489999999998 20.528329999999983L100.19820000000004 19.539359999999988L100.59930000000008 23.311180000000036L101.33649999999989 24.34502999999995L100.78279999999995 25.934229999999957L102.32279999999992 28.457689999999957L103.65699999999993 29.430150000000026L103.90460000000007 30.232240000000047L106.10809999999992 31.481239999999957L108.60030000000006 31.62528999999995L108.94440000000009 31.874810000000025L109.02269999999999 32.72442000000001L108.66660000000002 33.49522000000002L109.75569999999993 33.83991000000003L109.74530000000004 34.95557999999994L111.30870000000004 35.57839999999999L114.15779999999995 34.69753000000003L115.00810000000001 35.62959000000001L116.91039999999998 36.60527999999999L116.75849999999991 37.428409999999985L115.72739999999999 38.79409999999996L115.19069999999988 42.62414000000001L116.45849999999996 44.301379999999995L116.55510000000004 44.722380000000044L116.55619999999999 45.15477999999996L116.18090000000007 45.93267000000003L116.56619999999998 48.04713000000004L116.30600000000004 49.315200000000004L117.39059999999995 51.133820000000014L116.98250000000007 52.80156999999997L118.82590000000005 53.76171999999997L121.32420000000002 53.83739000000003L121.75459999999998 54.517780000000016L120.91509999999994 55.91097000000002L121.19859999999994 56.69503999999995L123.64239999999995 56.62243000000001L125.63879999999995 57.19952000000001L125.452 58.42904999999996L125.56510000000003 58.831609999999955L126.74530000000004 60.53418999999997L126.63380000000006 61.35843L124.13550000000009 61.6105L123.02510000000007 62.22676999999999L120.62339999999995 61.577549999999974L120.26659999999993 61.80709000000002L119.56870000000004 63.35028999999997L118.53179999999998 64.07574999999997L117.79009999999994 65.55075999999997L117.65560000000005 67.62612000000001L116.83030000000008 69.53921000000003L115.96990000000005 69.48247000000003L114.37979999999993 68.15072999999995L112.31790000000001 67.87022000000002L111.60580000000004 67.42970000000003L110.77430000000004 67.50920999999994L110.07279999999992 67.11308999999994L109.9498000000001 63.400300000000016L108.72019999999998 62.42963999999995L107.64730000000009 62.78049999999996L107.1690000000001 63.50141999999994L105.6699000000001 64.34236999999996L102.28780000000006 64.92025999999998L101.76610000000005 65.58683999999994L100.55050000000006 65.91417000000001L99.60500000000002 66.76112L99.37660000000005 67.55422999999996L99.8918000000001 68.69296999999995L99.43779999999992 69.41169000000002L98.21929999999998 70.59087999999997L97.39059999999995 70.76156000000003L95.69380000000001 72.00414L95.7967000000001 73.66377999999997L95.02219999999988 74.64819999999997L95.09400000000005 75.49625000000003L94.14959999999996 77.85910000000001L93.0507 78.44105000000002L92.21080000000006 78.34257000000002L90.24579999999992 78.94937000000004L89.88120000000004 80.13791000000003L90.20939999999996 81.31718999999998L88.42110000000002 81.27068999999995L87.62339999999995 81.06148999999994L86.77160000000003 80.18900999999994L86.40190000000007 80.37117L85.58629999999994 80.47831999999994L85.03539999999998 79.85293999999999L84.33339999999998 80.27683000000002L83.82220000000007 81.82444999999996L80.16259999999988 81.77613999999994L77.34950000000003 83.37751000000003L76.30230000000006 82.65579000000002L75.12380000000007 80.92899L74.79240000000004 79.27002000000005L70.2328 77.92943000000002L69.96160000000009 76.00575000000003L68.73399999999992 75.04341L68.34079999999994 75.06988000000001L67.8596 73.08748000000003L67.27309999999989 72.50603999999998L66.61369999999988 72.45669999999996L65.83660000000009 71.57948999999996L65.63439999999991 71.50426000000004L66.1078 69.10956999999996L65.17329999999993 67.35151999999994L64.98900000000003 66.55268999999998L65.3266000000001 65.83077000000003L66.88400000000001 63.021499999999946L66.96399999999994 62.22387000000003L66.4423999999999 62.10952999999995L64.53649999999993 61.54146000000003L62.12950000000001 60.107369999999946L63.0630000000001 57.601549999999975L64.04150000000004 54.929539999999974L63.778999999999996 54.13690999999994L63.98299999999995 53.77189999999996L64.5012999999999 52.24739999999997L65.53430000000003 51.05205999999998L66.36249999999995 48.797879999999964L66.23029999999994 48.11838L65.36239999999998 47.482380000000035L64.14679999999998 45.997870000000034L62.965400000000045 45.33556999999996L63.93290000000002 43.46609000000001L64.83210000000008 42.112139999999954L65.1531 40.859140000000025L61.89709999999991 38.207059999999956L62.086900000000014 37.38477L61.61200000000008 36.68624999999997L61.37699999999995 36.69051000000002L59.63619999999992 34.97515999999996L60.18540000000007 34.35604999999998L59.87030000000004 34.00627999999995z">
      <title id="t377">Deuxième circonscription de Savoie</title>
      <desc id="d377">Cantons de : Aime, Albertville Nord, Albertville Sud, Beaufort, Bourg-Saint-Maurice, Bozel, Moûtiers, Ugine</desc>
    </path><path class="circo" id="id-073-03" d="M50.18820000000005 43.58645000000001L48.63650000000007 44.43373999999994L47.64390000000003 45.19460000000004L47.857299999999896 45.55448000000001L46.684400000000096 46.71279000000004L44.74350000000004 47.561270000000036L44.89059999999995 47.83618999999999L41.98070000000007 49.22515999999996L41.162199999999984 50.83623L39.27800000000002 52.20943L38.29729999999995 50.97732999999994L37.838199999999915 50.42579999999998L35.219299999999976 51.569330000000036L34.83639999999991 51.496669999999995L34.20710000000008 49.117399999999975L33.3139000000001 48.53185999999994L32.3909000000001 47.34703999999999L31.871900000000096 47.925520000000006L31.870400000000018 46.66981999999996L31.377899999999954 45.53517999999997L29.74479999999994 46.21942999999999L29.728200000000015 44.688139999999976L29.53489999999988 44.37557000000004L27.756399999999985 44.776899999999955L26.903499999999894 45.07098999999994L26.922000000000025 45.866019999999935L26.573599999999942 46.058689999999956L26.032899999999927 47.55678L25.63650000000007 48.48914000000002L26.08919999999989 49.18729999999994L25.72070000000008 51.54701L24.689599999999928 52.86511999999993L23.466699999999946 53.121509999999944L22.962099999999964 53.78597000000002L24.788600000000088 56.238399999999956L24.827399999999898 56.219010000000026L29.518499999999904 54.42587000000003L30.233999999999924 54.86164999999994L31.14910000000009 56.26301000000001L32.749700000000075 56.77842999999996L32.94810000000007 58.37402999999995L32.644399999999905 58.94551999999999L36.16750000000002 60.92088000000001L36.60770000000002 60.56569000000002L37.29009999999994 60.16855999999996L38.465999999999894 60.26135999999997L39.63390000000004 60.16965000000005L39.99700000000007 60.37391000000002L40.0157999999999 61.61801000000003L40.70029999999997 61.42116999999996L42.294399999999996 60.86310000000003L43.044799999999896 61.25752L44.39480000000003 63.890480000000025L46.89670000000001 66.21340999999995L48.155700000000024 69.37152000000003L47.27739999999994 70.29534000000001L46.433500000000095 70.39539000000002L46.9982 70.91749000000004L48.53729999999996 71.27734999999996L48.25409999999988 72.80596000000003L47.94640000000004 73.59763999999996L47.66110000000003 75.42408L45.394000000000005 76.10619999999994L44.97659999999996 77.15565000000004L43.98829999999998 77.74127999999996L44.08719999999994 78.15032999999994L43.10189999999989 79.46331999999995L43.834699999999884 82.62729000000002L42.66679999999997 84.32601L42.93039999999996 85.99752000000001L43.87089999999989 86.85720000000003L43.85549999999989 88.09299999999996L45.498800000000074 89.38514999999995L45.74579999999992 91.06688999999994L44.20479999999998 95.14804000000004L45.682199999999966 95.56460000000004L46.35050000000001 95.20047L47.36709999999994 93.90639999999996L49.64629999999988 94.89732000000004L50.85809999999992 96.59132L52.796299999999974 95.86073999999996L53.593599999999924 95.97727999999995L54.47419999999988 96.88378999999998L54.13110000000006 98.48743000000002L55.518499999999904 99.92277999999999L56.91709999999989 100.68124L58.93069999999989 100.28400999999997L60.27759999999989 99.35843999999997L60.392900000000054 98.95835999999997L63.0168000000001 101.48211000000003L63.824299999999994 103.85302000000001L62.9978000000001 105.31240000000003L65.7188000000001 106.29710999999998L66.50549999999998 106.02525000000003L67.71329999999989 106.39000999999996L68.94730000000004 106.17592000000002L70.49900000000002 107.45421999999996L73.38550000000009 106.96881999999994L73.52549999999997 105.31119999999999L72.93010000000004 102.87085000000002L75.36950000000002 100.63702999999998L76.67750000000001 101.65733L77.47499999999991 101.84506999999996L79.43959999999993 101.16840000000002L79.91589999999997 100.05672000000004L80.98880000000008 98.93933000000004L82.12869999999998 99.40926999999999L84.13380000000006 99.19713000000002L85.53269999999998 100.59801000000004L85.97160000000008 99.87784999999997L87.23559999999998 99.82894999999996L89.0177000000001 98.73271999999997L89.67290000000003 97.18854999999996L92.44329999999991 96.32907999999998L94.77739999999994 97.2065L95.49790000000007 96.80521999999996L97.39390000000003 94.57196999999996L99.71589999999992 95.33992999999998L103.73569999999995 97.57113000000004L104.1724999999999 98.29634999999996L104.59680000000003 98.27369999999996L108.0920000000001 96.89151000000004L107.3085000000001 94.94155999999998L107.8871999999999 93.81055000000003L112.00669999999991 93.20494999999994L112.32310000000007 92.92075999999997L112.13179999999988 92.54044999999996L112.85099999999989 92.11127999999997L113.06829999999991 90.90768000000003L113.99569999999994 90.06925999999999L114.11770000000001 88.88774000000001L116.1407999999999 88.36785999999995L117.09739999999988 87.56688999999994L119.14760000000001 87.63784999999996L120.5127 86.70248000000004L121.33510000000001 86.61099999999999L122.62889999999993 88.29993000000002L123.43730000000005 88.20363999999995L124.08780000000002 86.69029L126.45350000000008 84.28206999999998L127.7050999999999 84.10266000000001L128.46900000000005 83.08349999999996L128.11490000000003 80.99059L128.4813999999999 79.79314L127.35519999999997 77.98442L126.99240000000009 76.31893000000002L126.47910000000002 75.63913000000002L126.394 74.38995999999997L128.26279999999997 73.89266999999995L128.5148999999999 71.81123000000002L130.57330000000002 70.39067L130.62030000000004 68.71087999999997L131.1364000000001 67.54128000000003L132.08040000000005 66.69637L132.64229999999998 65.08127999999999L132.49829999999997 64.67629999999997L130.96949999999993 63.91166999999996L129.75929999999994 62.7088L126.63380000000006 61.35843L124.13550000000009 61.6105L123.02510000000007 62.22676999999999L120.62339999999995 61.577549999999974L120.26659999999993 61.80709000000002L119.56870000000004 63.35028999999997L118.53179999999998 64.07574999999997L117.79009999999994 65.55075999999997L117.65560000000005 67.62612000000001L116.83030000000008 69.53921000000003L115.96990000000005 69.48247000000003L114.37979999999993 68.15072999999995L112.31790000000001 67.87022000000002L111.60580000000004 67.42970000000003L110.77430000000004 67.50920999999994L110.07279999999992 67.11308999999994L109.9498000000001 63.400300000000016L108.72019999999998 62.42963999999995L107.64730000000009 62.78049999999996L107.1690000000001 63.50141999999994L105.6699000000001 64.34236999999996L102.28780000000006 64.92025999999998L101.76610000000005 65.58683999999994L100.55050000000006 65.91417000000001L99.60500000000002 66.76112L99.37660000000005 67.55422999999996L99.8918000000001 68.69296999999995L99.43779999999992 69.41169000000002L98.21929999999998 70.59087999999997L97.39059999999995 70.76156000000003L95.69380000000001 72.00414L95.7967000000001 73.66377999999997L95.02219999999988 74.64819999999997L95.09400000000005 75.49625000000003L94.14959999999996 77.85910000000001L93.0507 78.44105000000002L92.21080000000006 78.34257000000002L90.24579999999992 78.94937000000004L89.88120000000004 80.13791000000003L90.20939999999996 81.31718999999998L88.42110000000002 81.27068999999995L87.62339999999995 81.06148999999994L86.77160000000003 80.18900999999994L86.40190000000007 80.37117L85.58629999999994 80.47831999999994L85.03539999999998 79.85293999999999L84.33339999999998 80.27683000000002L83.82220000000007 81.82444999999996L80.16259999999988 81.77613999999994L77.34950000000003 83.37751000000003L76.30230000000006 82.65579000000002L75.12380000000007 80.92899L74.79240000000004 79.27002000000005L70.2328 77.92943000000002L69.96160000000009 76.00575000000003L68.73399999999992 75.04341L68.34079999999994 75.06988000000001L67.8596 73.08748000000003L67.27309999999989 72.50603999999998L66.61369999999988 72.45669999999996L65.83660000000009 71.57948999999996L65.63439999999991 71.50426000000004L66.1078 69.10956999999996L65.17329999999993 67.35151999999994L64.98900000000003 66.55268999999998L65.3266000000001 65.83077000000003L66.88400000000001 63.021499999999946L66.96399999999994 62.22387000000003L66.4423999999999 62.10952999999995L64.53649999999993 61.54146000000003L62.12950000000001 60.107369999999946L63.0630000000001 57.601549999999975L64.04150000000004 54.929539999999974L63.778999999999996 54.13690999999994L63.98299999999995 53.77189999999996L64.5012999999999 52.24739999999997L65.53430000000003 51.05205999999998L66.36249999999995 48.797879999999964L66.23029999999994 48.11838L65.36239999999998 47.482380000000035L64.14679999999998 45.997870000000034L62.965400000000045 45.33556999999996L62.20820000000003 45.54840999999999L61.52639999999997 45.058610000000044L59.11480000000006 44.43543999999997L57.05819999999994 44.548130000000015L56.115600000000086 43.97361000000001L57.02520000000004 42.71888000000001L55.580400000000054 41.51337000000001L54.95219999999995 43.16768000000002L53.8614 43.505559999999946L52.42579999999998 42.997389999999996L51.23389999999995 43.00856999999996L50.18820000000005 43.58645000000001z">
      <title id="t378">Troisième circonscription de Savoie</title>
      <desc id="d378">Cantons de : Aiguebelle, La Chambre, Chamoux-sur-Gelon, Lanslebourg-Mont-Cenis, Modane, Montmélian, La Ravoire, La Rochette, Saint-Jean-de-Maurienne, Saint-Michel-de-Maurienne</desc>
    </path><path class="circo" id="id-073-04" d="M21.06230000000005 44.81042000000002L19.542899999999918 45.33386999999993L18.76649999999995 43.99716999999998L17.549800000000005 44.22900000000004L16.455600000000004 43.745540000000005L16.726899999999887 45.25531000000001L17.526100000000042 47.39522999999997L16.573699999999917 50.69161999999994L16.489199999999983 50.76950999999997L16.314499999999953 51.02451999999994L17.945199999999886 51.06334000000004L19.00579999999991 51.59468000000004L19.587299999999914 50.51496999999995L20.202099999999973 51.47082999999998L19.911599999999908 53.031889999999976L20.5308 54.03892999999994L20.857700000000023 53.82246999999995L21.135999999999967 54.10695999999996L22.962099999999964 53.78597000000002L23.466699999999946 53.121509999999944L24.689599999999928 52.86511999999993L25.72070000000008 51.54701L26.08919999999989 49.18729999999994L25.63650000000007 48.48914000000002L26.032899999999927 47.55678L26.573599999999942 46.058689999999956L26.922000000000025 45.866019999999935L26.903499999999894 45.07098999999994L27.756399999999985 44.776899999999955L29.53489999999988 44.37557000000004L29.728200000000015 44.688139999999976L29.74479999999994 46.21942999999999L31.377899999999954 45.53517999999997L31.870400000000018 46.66981999999996L31.871900000000096 47.925520000000006L32.3909000000001 47.34703999999999L33.3139000000001 48.53185999999994L34.20710000000008 49.117399999999975L34.83639999999991 51.496669999999995L35.219299999999976 51.569330000000036L37.838199999999915 50.42579999999998L38.29729999999995 50.97732999999994L39.27800000000002 52.20943L41.162199999999984 50.83623L41.98070000000007 49.22515999999996L44.89059999999995 47.83618999999999L44.74350000000004 47.561270000000036L46.684400000000096 46.71279000000004L47.857299999999896 45.55448000000001L47.64390000000003 45.19460000000004L48.63650000000007 44.43373999999994L50.18820000000005 43.58645000000001L51.23389999999995 43.00856999999996L52.42579999999998 42.997389999999996L53.8614 43.505559999999946L54.95219999999995 43.16768000000002L55.580400000000054 41.51337000000001L57.02520000000004 42.71888000000001L56.115600000000086 43.97361000000001L57.05819999999994 44.548130000000015L59.11480000000006 44.43543999999997L61.52639999999997 45.058610000000044L62.20820000000003 45.54840999999999L62.965400000000045 45.33556999999996L63.93290000000002 43.46609000000001L64.83210000000008 42.112139999999954L65.1531 40.859140000000025L61.89709999999991 38.207059999999956L62.086900000000014 37.38477L61.61200000000008 36.68624999999997L61.37699999999995 36.69051000000002L59.63619999999992 34.97515999999996L60.18540000000007 34.35604999999998L59.87030000000004 34.00627999999995L58.42859999999996 32.50496999999996L58.15869999999995 29.940789999999993L55.80770000000007 30.93128999999999L54.13689999999997 30.709479999999985L53.92270000000008 31.081069999999954L52.7029 30.895759999999996L51.511600000000044 31.18886999999995L51.673500000000104 28.74870999999996L51.380100000000084 28.597419999999943L50.19769999999994 27.990519999999947L50.05760000000009 28.775729999999953L49.00420000000008 29.247229999999945L48.65820000000008 29.964759999999956L48.1271999999999 28.982399999999984L48.296100000000024 26.636049999999955L48.60439999999994 25.148450000000025L47.52710000000002 25.034580000000005L47.060199999999895 24.45586000000003L47.14539999999988 23.342970000000037L46.0791999999999 23.05305999999996L46.11259999999993 22.29898000000003L43.67959999999994 21.616340000000037L43.42560000000003 22.364889999999946L42.71640000000002 22.813080000000014L40.749000000000024 21.358389999999986L40.702600000000075 24.526989999999955L40.63239999999996 24.921569999999974L40.24229999999989 24.994029999999952L40.15390000000002 23.87099999999998L38.527900000000045 24.099129999999946L36.66429999999991 23.094600000000014L36.252500000000055 23.217989999999986L35.573900000000094 24.304719999999975L34.9070999999999 26.033720000000017L34.703700000000026 27.261330000000044L33.556100000000015 29.45704999999998L33.396999999999935 31.07705999999996L32.2636 32.23418000000004L31.768100000000004 32.07395999999994L30.24630000000002 31.224519999999984L29.799399999999878 31.19336999999996L29.960399999999936 31.998659999999973L29.513999999999896 33.148199999999974L29.13460000000009 33.30486999999994L29.051099999999906 35.825469999999996L28.299299999999903 35.69196999999997L26.77080000000001 39.62279000000001L26.06320000000005 39.27985000000001L24.53970000000004 36.03922L24.28710000000001 36.673L23.664399999999887 36.91832999999997L23.842599999999948 38.60948999999994L23.313000000000102 39.2722L22.160000000000082 39.43345999999997L22.766200000000026 41.39369999999997L22.38020000000006 42.52332000000001L21.36220000000003 43.18978000000004L21.06230000000005 44.81042000000002z">
      <title id="t379">Quatrième circonscription de Savoie</title>
      <desc id="d379"> Cantons de : Chambéry Est, Chambéry Nord, Chambéry Sud, Chambéry Sud-Ouest, Le Châtelard, Cognin, Grésy-sur-Isère, Saint-Alban-Leysse, Saint-Pierre-d'Albigny</desc>
    </path></svg>