<svg xmlns="http://www.w3.org/2000/svg" version="1.1" xmlns:xlink="http://www.w3.org/1999/xlink" xmlns:svgjs="http://svgjs.dev/svgjs" viewBox="1134.8804 814.00603 132.64229999999998 107.45421999999996"><path class="circo" id="id-073-01" d="M 1159.5485,830.41398 1158.763,829.46745 1158.6886,827.792 1157.0421,827.69734 1156.6783,827.48838 1156.7677,827.07825 1156.1135,826.56621 1156.1035,826.147 1156.5436,823.50421 1156.3298,823.17293 1155.5418,818.86537 1155.4504,818.20711 1155.1855,816.6728 1155.4558,816.39202 1155.141,814.74646 1152.8938,814.69256 1152.5166,814.00603 1151.7464,815.00812 1152.3614,816.9967 1152.0993,818.25426 1151.1504,821.48957 1150.5019,823.51129 1149.9565,825.32288 1149.5095,827.27478 1148.7516,828.0767 1148.5525,831.24735 1148.2798,833.24446 1148.4212,834.26529 1148.1127,835.51039 1148.4676,837.58665 1148.1985,837.86473 1147.2849,838.12111 1147.8533,839.69162 1146.7436,840.84296 1146.2014,841.96904 1145.522,842.42562 1144.0244,841.85473 1143.7201,841.96258 1141.4129,841.87969 1141.6788,843.3157 1142.144,844.92479 1140.1414,847.10424 1140.0161,847.9329 1140.3287,848.73032 1140.3336,849.90713 1139.3506,850.62505 1137.3515,850.79282 1136.9698,851.92017 1136.1269,852.45253 1135.9535,853.13653 1135.6001,853.85387 1134.8804,853.6383 1134.9093,854.84014 1136.0626,856.51065 1136.7631,857.32322 1136.8492,858.0417 1138.9093,859.94708 1138.9148,860.75451 1139.2525,860.98588 1139.0281,861.69123 1139.7012,861.99842 1139.753,862.36762 1139.0956,862.11567 1138.926,862.9431 1139.4183,863.62896 1140.6063,864.00511 1140.6183,864.74339 1140.9952,864.96722 1141.451,865.24309 1142.549,867.69377 1143.0403,869.402 1144.4673,870.80034 1144.0977,873.11998 1144.7611,874.95405 1146.2631,875.27603 1146.5215,875.10184 1146.7501,874.7561 1148.3715,874.52738 1149.5531,874.89554 1150.828,876.43192 1152.8057,877.05938 1152.8602,877.05587 1154.4782,877.57817 1154.9271,878.30578 1156.6014,878.67337 1157.5642,879.52253 1157.5977,880.80758 1157.8901,880.95681 1159.2882,880.21326 1160.3603,877.93926 1158.903,878.29549 1158.5726,877.54898 1158.7777,875.87271 1158.7412,875.59303 1159.4789,875.20226 1160.1126,874.12661 1160.5079,871.64406 1159.669,870.24443 1157.8425,867.792 1156.0164,868.11299 1155.7381,867.8285 1155.4112,868.04496 1154.792,867.03792 1155.0825,865.47686 1154.4677,864.521 1153.8862,865.60071 1152.8256,865.06937 1151.1949,865.03055 1151.3696,864.77554 1151.4541,864.69765 1152.4065,861.40126 1151.6073,859.26134 1151.336,857.75157 1152.4302,858.23503 1153.6469,858.0032 1154.4233,859.3399 1155.9427,858.81645 1156.2426,857.19581 1157.2606,856.52935 1157.6466,855.39973 1157.0404,853.43949 1158.1934,853.27823 1158.723,852.61552 1158.5448,850.92436 1159.1675,850.67903 1159.4201,850.04525 1160.9436,853.28588 1161.6512,853.62882 1163.1797,849.698 1163.9315,849.8315 1164.015,847.3109 1164.3944,847.15423 1164.8408,846.00469 1164.6798,845.1994 1165.1267,845.23055 1166.6485,846.07999 1167.144,846.24021 1168.2774,845.08309 1168.4365,843.46308 1169.5841,841.26736 1169.7875,840.03975 1170.4543,838.31075 1167.5044,836.91534 1166.3362,837.28347 1166.3749,835.39233 1164.6555,834.72531 1164.6705,833.94514 1165.3479,832.96144 1165.2094,831.37548 1163.2984,831.52849 1163.6994,829.35599 1162.4396,829.62623 1161.263,829.1283 1161.0541,829.91842 1159.5485,830.41398 z">
      <title id="t376">Première circonscription de Savoie</title>
      <desc id="d376">Cantons de : Aix-les-Bains Centre, Aix-les-Bains Nord-Grésy, Aix-les-Bains Sud, Albens, Les Echelles, La Motte-Servolex, Le Pont-de-Beauvoisin, Ruffieux, Saint-Genix-sur-Guiers, Yenne</desc>
    </path><path class="circo" id="id-073-02" d="M 1194.7507,848.01231 1193.309,846.511 1193.0391,843.94682 1194.6906,843.95278 1196.2888,840.20388 1196.7057,839.52796 1196.7078,839.50616 1196.8623,839.16251 1196.4161,838.56517 1198.3512,836.64527 1198.7076,835.44606 1197.7449,834.81512 1200.291,832.74948 1202.5737,830.63309 1202.9513,830.43848 1203.597,828.42871 1204.6199,827.08154 1205.0918,826.08721 1204.6946,825.44174 1205.4689,824.15145 1205.1781,823.42792 1205.9042,822.99887 1206.9701,820.62374 1208.9702,819.80091 1210.3044,817.59888 1210.7234,818.3223 1212.154,819.07227 1214.1735,819.52881 1214.3871,820.31675 1215.3726,821.06809 1215.5617,821.44647 1215.0292,822.06388 1215.1603,823.29353 1212.3668,823.34785 1213.1189,824.87125 1213.8452,827.69636 1214.9364,828.99365 1215.2379,828.72253 1215.973,828.99341 1216.5712,830.83549 1217.794,831.83973 1218.0073,831.50996 1219.9406,831.39219 1221.0093,830.90072 1222.9095,830.88999 1223.2059,831.70502 1225.3662,834.40348 1225.2604,836.51065 1226.2316,837.79384 1225.4802,839.66118 1227.3803,840.30055 1229.8008,837.44109 1230.0104,836.61871 1231.2661,834.91126 1233.3053,834.53436 1235.0786,833.54539 1235.4797,837.31721 1236.2169,838.35106 1235.6632,839.94026 1237.2032,842.46372 1238.5374,843.43618 1238.785,844.23827 1240.9885,845.48727 1243.4807,845.63132 1243.8248,845.88084 1243.9031,846.73045 1243.547,847.50125 1244.6361,847.84594 1244.6257,848.96161 1246.1891,849.58443 1249.0382,848.70356 1249.8885,849.63562 1251.7908,850.61131 1251.6389,851.43444 1250.6078,852.80013 1250.0711,856.63017 1251.3389,858.30741 1251.4355,858.72841 1251.4366,859.16081 1251.0613,859.9387 1251.4466,862.05316 1251.1864,863.32123 1252.271,865.13985 1251.8629,866.8076 1253.7063,867.76775 1256.2046,867.84342 1256.635,868.52381 1255.7955,869.917 1256.079,870.70107 1258.5228,870.62846 1260.5192,871.20555 1260.3324,872.43508 1260.4455,872.83764 1261.6257,874.54022 1261.5142,875.36446 1259.0159,875.61653 1257.9055,876.2328 1255.5038,875.58358 1255.147,875.81312 1254.4491,877.35632 1253.4122,878.08178 1252.6705,879.55679 1252.536,881.63215 1251.7107,883.54524 1250.8503,883.4885 1249.2602,882.15676 1247.1983,881.87625 1246.4862,881.43573 1245.6547,881.51524 1244.9532,881.11912 1244.8302,877.40633 1243.6006,876.43567 1242.5277,876.78653 1242.0494,877.50745 1240.5503,878.3484 1237.1682,878.92629 1236.6465,879.59287 1235.4309,879.9202 1234.4854,880.76715 1234.257,881.56026 1234.7722,882.699 1234.3182,883.41772 1233.0997,884.59691 1232.271,884.76759 1230.5742,886.01017 1230.6771,887.66981 1229.9026,888.65423 1229.9744,889.50228 1229.03,891.86513 1227.9311,892.44708 1227.0912,892.3486 1225.1262,892.9554 1224.7616,894.14394 1225.0898,895.32322 1223.3015,895.27672 1222.5038,895.06752 1221.652,894.19504 1221.2823,894.3772 1220.4667,894.48435 1219.9158,893.85897 1219.2138,894.28286 1218.7026,895.83048 1215.043,895.78217 1212.2299,897.38354 1211.1827,896.66182 1210.0042,894.93502 1209.6728,893.27605 1205.1132,891.93546 1204.842,890.01178 1203.6144,889.04944 1203.2212,889.07591 1202.74,887.09351 1202.1535,886.51207 1201.4941,886.46273 1200.717,885.58552 1200.5148,885.51029 1200.9882,883.1156 1200.0537,881.35755 1199.8694,880.55872 1200.207,879.8368 1201.7644,877.02753 1201.8444,876.2299 1201.3228,876.11556 1199.4169,875.54749 1197.0099,874.1134 1197.9434,871.60758 1198.9219,868.93557 1198.6594,868.14294 1198.8634,867.77793 1199.3817,866.25343 1200.4147,865.05809 1201.2429,862.80391 1201.1107,862.12441 1200.2428,861.48841 1199.0272,860.0039 1197.8458,859.3416 1198.8133,857.47212 1199.7125,856.11817 1200.0335,854.86517 1196.7775,852.21309 1196.9673,851.3908 1196.4924,850.69228 1196.2574,850.69654 1194.5166,848.98119 1195.0658,848.36208 1194.7507,848.01231 z">
      <title id="t377">Deuxième circonscription de Savoie</title>
      <desc id="d377">Cantons de : Aime, Albertville Nord, Albertville Sud, Beaufort, Bourg-Saint-Maurice, Bozel, Moûtiers, Ugine</desc>
    </path><path class="circo" id="id-073-03" d="M 1185.0686,857.59248 1183.5169,858.43977 1182.5243,859.20063 1182.7377,859.56051 1181.5648,860.71882 1179.6239,861.5673 1179.771,861.84222 1176.8611,863.23119 1176.0426,864.84226 1174.1584,866.21546 1173.1777,864.98336 1172.7186,864.43183 1170.0997,865.57536 1169.7168,865.5027 1169.0875,863.12343 1168.1943,862.53789 1167.2713,861.35307 1166.7523,861.93155 1166.7508,860.67585 1166.2583,859.54121 1164.6252,860.22546 1164.6086,858.69417 1164.4153,858.3816 1162.6368,858.78293 1161.7839,859.07702 1161.8024,859.87205 1161.454,860.06472 1160.9133,861.56281 1160.5169,862.49517 1160.9696,863.19333 1160.6011,865.55304 1159.57,866.87115 1158.3471,867.12754 1157.8425,867.792 1159.669,870.24443 1159.7078,870.22504 1164.3989,868.4319 1165.1144,868.86768 1166.0295,870.26904 1167.6301,870.78446 1167.8285,872.38006 1167.5248,872.95155 1171.0479,874.92691 1171.4881,874.57172 1172.1705,874.17459 1173.3464,874.26739 1174.5143,874.17568 1174.8774,874.37994 1174.8962,875.62404 1175.5807,875.4272 1177.1748,874.86913 1177.9252,875.26355 1179.2752,877.89651 1181.7771,880.21944 1183.0361,883.37755 1182.1578,884.30137 1181.3139,884.40142 1181.8786,884.92352 1183.4177,885.28338 1183.1345,886.81199 1182.8268,887.60367 1182.5415,889.43011 1180.2744,890.11223 1179.857,891.16168 1178.8687,891.74731 1178.9676,892.15636 1177.9823,893.46935 1178.7151,896.63332 1177.5472,898.33204 1177.8108,900.00355 1178.7513,900.86323 1178.7359,902.09903 1180.3792,903.39118 1180.6262,905.07292 1179.0852,909.15407 1180.5626,909.57063 1181.2309,909.2065 1182.2475,907.91243 1184.5267,908.90335 1185.7385,910.59735 1187.6767,909.86677 1188.474,909.98331 1189.3546,910.88982 1189.0115,912.49346 1190.3989,913.92881 1191.7975,914.68727 1193.8111,914.29004 1195.158,913.36447 1195.2733,912.96439 1197.8972,915.48814 1198.7047,917.85905 1197.8782,919.31843 1200.5992,920.30314 1201.3859,920.03128 1202.5937,920.39604 1203.8277,920.18195 1205.3794,921.46025 1208.2659,920.97485 1208.4059,919.31723 1207.8105,916.87688 1210.2499,914.64306 1211.5579,915.66336 1212.3554,915.8511 1214.32,915.17443 1214.7963,914.06275 1215.8692,912.94536 1217.0091,913.4153 1219.0142,913.20316 1220.4131,914.60404 1220.852,913.88388 1222.116,913.83498 1223.8981,912.73875 1224.5533,911.19458 1227.3237,910.33511 1229.6578,911.21253 1230.3783,910.81125 1232.2743,908.578 1234.5963,909.34596 1238.6161,911.57716 1239.0529,912.30238 1239.4772,912.27973 1242.9724,910.89754 1242.1889,908.94759 1242.7676,907.81658 1246.8871,907.21098 1247.2035,906.92679 1247.0122,906.54648 1247.7314,906.11731 1247.9487,904.91371 1248.8761,904.07529 1248.9981,902.89377 1251.0212,902.37389 1251.9778,901.57292 1254.028,901.64388 1255.3931,900.70851 1256.2155,900.61703 1257.5093,902.30596 1258.3177,902.20967 1258.9682,900.69632 1261.3339,898.2881 1262.5855,898.10869 1263.3494,897.08953 1262.9953,894.99662 1263.3618,893.79917 1262.2356,891.99045 1261.8728,890.32496 1261.3595,889.64516 1261.2744,888.39599 1263.1432,887.8987 1263.3953,885.81726 1265.4537,884.3967 1265.5007,882.71691 1266.0168,881.54731 1266.9608,880.7024 1267.5227,879.08731 1267.3787,878.68233 1265.8499,877.9177 1264.6397,876.71483 1261.5142,875.36446 1259.0159,875.61653 1257.9055,876.2328 1255.5038,875.58358 1255.147,875.81312 1254.4491,877.35632 1253.4122,878.08178 1252.6705,879.55679 1252.536,881.63215 1251.7107,883.54524 1250.8503,883.4885 1249.2602,882.15676 1247.1983,881.87625 1246.4862,881.43573 1245.6547,881.51524 1244.9532,881.11912 1244.8302,877.40633 1243.6006,876.43567 1242.5277,876.78653 1242.0494,877.50745 1240.5503,878.3484 1237.1682,878.92629 1236.6465,879.59287 1235.4309,879.9202 1234.4854,880.76715 1234.257,881.56026 1234.7722,882.699 1234.3182,883.41772 1233.0997,884.59691 1232.271,884.76759 1230.5742,886.01017 1230.6771,887.66981 1229.9026,888.65423 1229.9744,889.50228 1229.03,891.86513 1227.9311,892.44708 1227.0912,892.3486 1225.1262,892.9554 1224.7616,894.14394 1225.0898,895.32322 1223.3015,895.27672 1222.5038,895.06752 1221.652,894.19504 1221.2823,894.3772 1220.4667,894.48435 1219.9158,893.85897 1219.2138,894.28286 1218.7026,895.83048 1215.043,895.78217 1212.2299,897.38354 1211.1827,896.66182 1210.0042,894.93502 1209.6728,893.27605 1205.1132,891.93546 1204.842,890.01178 1203.6144,889.04944 1203.2212,889.07591 1202.74,887.09351 1202.1535,886.51207 1201.4941,886.46273 1200.717,885.58552 1200.5148,885.51029 1200.9882,883.1156 1200.0537,881.35755 1199.8694,880.55872 1200.207,879.8368 1201.7644,877.02753 1201.8444,876.2299 1201.3228,876.11556 1199.4169,875.54749 1197.0099,874.1134 1197.9434,871.60758 1198.9219,868.93557 1198.6594,868.14294 1198.8634,867.77793 1199.3817,866.25343 1200.4147,865.05809 1201.2429,862.80391 1201.1107,862.12441 1200.2428,861.48841 1199.0272,860.0039 1197.8458,859.3416 1197.0886,859.55444 1196.4068,859.06464 1193.9952,858.44147 1191.9386,858.55416 1190.996,857.97964 1191.9056,856.72491 1190.4608,855.5194 1189.8326,857.17371 1188.7418,857.51159 1187.3062,857.00342 1186.1143,857.0146 1185.0686,857.59248 z">
      <title id="t378">Troisième circonscription de Savoie</title>
      <desc id="d378">Cantons de : Aiguebelle, La Chambre, Chamoux-sur-Gelon, Lanslebourg-Mont-Cenis, Modane, Montmélian, La Ravoire, La Rochette, Saint-Jean-de-Maurienne, Saint-Michel-de-Maurienne</desc>
    </path><path class="circo" id="id-073-04" d="M 1155.9427,858.81645 1154.4233,859.3399 1153.6469,858.0032 1152.4302,858.23503 1151.336,857.75157 1151.6073,859.26134 1152.4065,861.40126 1151.4541,864.69765 1151.3696,864.77554 1151.1949,865.03055 1152.8256,865.06937 1153.8862,865.60071 1154.4677,864.521 1155.0825,865.47686 1154.792,867.03792 1155.4112,868.04496 1155.7381,867.8285 1156.0164,868.11299 1157.8425,867.792 1158.3471,867.12754 1159.57,866.87115 1160.6011,865.55304 1160.9696,863.19333 1160.5169,862.49517 1160.9133,861.56281 1161.454,860.06472 1161.8024,859.87205 1161.7839,859.07702 1162.6368,858.78293 1164.4153,858.3816 1164.6086,858.69417 1164.6252,860.22546 1166.2583,859.54121 1166.7508,860.67585 1166.7523,861.93155 1167.2713,861.35307 1168.1943,862.53789 1169.0875,863.12343 1169.7168,865.5027 1170.0997,865.57536 1172.7186,864.43183 1173.1777,864.98336 1174.1584,866.21546 1176.0426,864.84226 1176.8611,863.23119 1179.771,861.84222 1179.6239,861.5673 1181.5648,860.71882 1182.7377,859.56051 1182.5243,859.20063 1183.5169,858.43977 1185.0686,857.59248 1186.1143,857.0146 1187.3062,857.00342 1188.7418,857.51159 1189.8326,857.17371 1190.4608,855.5194 1191.9056,856.72491 1190.996,857.97964 1191.9386,858.55416 1193.9952,858.44147 1196.4068,859.06464 1197.0886,859.55444 1197.8458,859.3416 1198.8133,857.47212 1199.7125,856.11817 1200.0335,854.86517 1196.7775,852.21309 1196.9673,851.3908 1196.4924,850.69228 1196.2574,850.69654 1194.5166,848.98119 1195.0658,848.36208 1194.7507,848.01231 1193.309,846.511 1193.0391,843.94682 1190.6881,844.93732 1189.0173,844.71551 1188.8031,845.0871 1187.5833,844.90179 1186.392,845.1949 1186.5539,842.75474 1186.2605,842.60345 1185.0781,841.99655 1184.938,842.78176 1183.8846,843.25326 1183.5386,843.97079 1183.0076,842.98843 1183.1765,840.64208 1183.4848,839.15448 1182.4075,839.04061 1181.9406,838.46189 1182.0258,837.349 1180.9596,837.05909 1180.993,836.30501 1178.56,835.62237 1178.306,836.37092 1177.5968,836.81911 1175.6294,835.36442 1175.583,838.53302 1175.5128,838.9276 1175.1227,839.00006 1175.0343,837.87703 1173.4083,838.10516 1171.5447,837.10063 1171.1329,837.22402 1170.4543,838.31075 1169.7875,840.03975 1169.5841,841.26736 1168.4365,843.46308 1168.2774,845.08309 1167.144,846.24021 1166.6485,846.07999 1165.1267,845.23055 1164.6798,845.1994 1164.8408,846.00469 1164.3944,847.15423 1164.015,847.3109 1163.9315,849.8315 1163.1797,849.698 1161.6512,853.62882 1160.9436,853.28588 1159.4201,850.04525 1159.1675,850.67903 1158.5448,850.92436 1158.723,852.61552 1158.1934,853.27823 1157.0404,853.43949 1157.6466,855.39973 1157.2606,856.52935 1156.2426,857.19581 1155.9427,858.81645 z">
      <title id="t379">Quatrième circonscription de Savoie</title>
      <desc id="d379"> Cantons de : Chambéry Est, Chambéry Nord, Chambéry Sud, Chambéry Sud-Ouest, Le Châtelard, Cognin, Grésy-sur-Isère, Saint-Alban-Leysse, Saint-Pierre-d'Albigny</desc>
    </path></svg>