<svg xmlns="http://www.w3.org/2000/svg" version="1.1" xmlns:xlink="http://www.w3.org/1999/xlink" xmlns:svgjs="http://svgjs.dev/svgjs" viewBox="1150.3274 756.39004 105.11200000000008 88.80485999999996"><path class="circo" id="074-01" d="M 1161.0541,829.91842 1159.5485,830.41398 1158.763,829.46745 1158.6886,827.792 1157.0421,827.69734 1156.6783,827.48838 1156.7677,827.07825 1156.1135,826.56621 1156.1035,826.147 1156.5436,823.50421 1156.3298,823.17293 1155.5418,818.86537 1155.4504,818.20711 1155.1855,816.6728 1155.4558,816.39202 1155.141,814.74646 1156.0494,813.18802 1156.6788,813.08985 1157.8438,810.9842 1159.4664,811.98832 1160.019,812.90673 1160.1541,814.00774 1161.1914,814.01104 1161.195,812.72689 1163.5959,811.09915 1164.2601,810.63935 1165.8367,810.9502 1165.7777,810.24275 1166.1495,809.64848 1165.4106,807.24481 1164.984,806.57698 1165.0545,805.78463 1164.9519,805.38481 1166.0362,804.79182 1167.133,805.49642 1169.1649,805.51478 1169.9939,805.48382 1170.4946,804.81165 1171.278,804.59599 1173.024,805.78451 1173.4029,805.59421 1173.185,806.36541 1173.6316,807.03571 1174.0259,806.92877 1174.1859,806.12447 1174.9229,805.9682 1175.2667,807.97093 1176.1429,808.74517 1177.2588,808.45207 1177.6359,808.38883 1177.4591,807.27149 1177.8076,805.26609 1178.4181,805.14701 1179.5961,803.42036 1179.7006,802.59042 1181.444,801.57241 1183.34,800.89973 1183.2939,800.10757 1183.9231,799.10315 1183.8397,798.33688 1184.8264,798.34839 1185.4058,797.87621 1187.845,798.75598 1187.1981,799.26264 1187.2174,799.6774 1188.1895,801.88968 1188.3145,802.35387 1189.7625,803.16976 1190.9609,802.78166 1192.2075,802.85034 1196.2816,805.78928 1196.6072,807.47177 1194.7769,809.85603 1196.1285,812.58373 1195.4966,813.66096 1193.6076,812.82641 1191.6245,815.64469 1189.2504,817.42002 1188.3954,817.34171 1187.3842,819.22763 1189.0326,819.56325 1189.6904,820.63827 1189.5747,821.44891 1188.8486,822.48616 1188.7528,823.72208 1189.2315,824.31719 1189.0509,825.45577 1191.0914,827.26587 1191.1743,827.72454 1191.0675,828.13342 1190.6535,828.20745 1189.6614,827.52851 1188.8568,827.58853 1187.4715,829.06585 1187.3553,830.32387 1185.8121,830.77697 1185.1711,828.35809 1184.4111,826.50533 1183.1822,826.5423 1181.6227,824.68124 1180.7991,823.18062 1180.132,820.79824 1179.5305,819.04516 1177.8653,815.73401 1177.5243,815.49914 1177.4044,818.04372 1177.235,818.04654 1177.3283,818.37402 1176.4716,818.56536 1176.359,818.30801 1176.7032,817.59167 1176.024,816.69504 1174.9304,817.77491 1174.1595,817.73362 1174.0498,818.43822 1172.9545,818.38777 1172.3656,817.89915 1171.751,818.81309 1171.2213,819.345 1169.7163,819.62908 1168.7037,819.2578 1168.5817,821.04464 1169.2871,822.70553 1169.653,824.4872 1169.0398,824.84306 1168.1742,824.1456 1167.3115,824.89334 1166.3,826.39529 1166.2473,826.77374 1168.0959,827.26648 1168.1135,827.66721 1166.4254,828.64252 1163.9871,828.34248 1163.6994,829.35599 1162.4396,829.62623 1161.263,829.1283 1161.0541,829.91842 z">
      <title id="t380">Première circonscription de Haute-Savoie</title>
      <desc id="d380">Cantons de : Annecy Nord-Ouest, Annecy-le-Vieux, Rumilly, Thorens-Glières</desc>
    </path><path class="circo" id="074-02" d="M 1163.9871,828.34248 1163.6994,829.35599 1163.2984,831.52849 1165.2094,831.37548 1165.3479,832.96144 1164.6705,833.94514 1164.6555,834.72531 1166.3749,835.39233 1166.3362,837.28347 1167.5044,836.91534 1170.4543,838.31075 1171.1329,837.22402 1171.5447,837.10063 1173.4083,838.10516 1175.0343,837.87703 1175.1227,839.00006 1175.5128,838.9276 1175.583,838.53302 1175.6294,835.36442 1177.5968,836.81911 1178.306,836.37092 1178.56,835.62237 1180.993,836.30501 1180.9596,837.05909 1182.0258,837.349 1181.9406,838.46189 1182.4075,839.04061 1183.4848,839.15448 1183.1765,840.64208 1183.0076,842.98843 1183.5386,843.97079 1183.8846,843.25326 1184.938,842.78176 1185.0781,841.99655 1186.2605,842.60345 1186.5539,842.75474 1186.392,845.1949 1187.5833,844.90179 1188.8031,845.0871 1189.0173,844.71551 1190.6881,844.93732 1193.0391,843.94682 1194.6906,843.95278 1196.2888,840.20388 1196.7057,839.52796 1196.7078,839.50616 1196.8623,839.16251 1196.4161,838.56517 1198.3512,836.64527 1198.7076,835.44606 1197.7449,834.81512 1200.291,832.74948 1202.5737,830.63309 1202.9513,830.43848 1203.597,828.42871 1204.6199,827.08154 1205.0918,826.08721 1204.6946,825.44174 1205.4689,824.15145 1205.1781,823.42792 1205.9042,822.99887 1206.9701,820.62374 1208.9702,819.80091 1210.3044,817.59888 1210.6776,816.75979 1211.985,815.70163 1212.788,813.38336 1214.1038,811.88892 1212.6933,810.93027 1211.5079,808.70957 1209.8434,809.06639 1208.5947,808.74835 1205.9863,806.59742 1205.8541,806.57833 1202.4618,810.18453 1202.097,810.9502 1201.2745,812.88166 1201.6072,813.62331 1201.0051,814.70441 1199.7146,813.76193 1198.5423,814.08719 1196.6452,815.34896 1195.229,814.17507 1195.4966,813.66096 1193.6076,812.82641 1191.6245,815.64469 1189.2504,817.42002 1188.3954,817.34171 1187.3842,819.22763 1189.0326,819.56325 1189.6904,820.63827 1189.5747,821.44891 1188.8486,822.48616 1188.7528,823.72208 1189.2315,824.31719 1189.0509,825.45577 1191.0914,827.26587 1191.1743,827.72454 1191.0675,828.13342 1190.6535,828.20745 1189.6614,827.52851 1188.8568,827.58853 1187.4715,829.06585 1187.3553,830.32387 1185.8121,830.77697 1185.1711,828.35809 1184.4111,826.50533 1183.1822,826.5423 1181.6227,824.68124 1180.7991,823.18062 1180.132,820.79824 1179.5305,819.04516 1177.8653,815.73401 1177.5243,815.49914 1177.4044,818.04372 1177.235,818.04654 1177.3283,818.37402 1176.4716,818.56536 1176.359,818.30801 1176.7032,817.59167 1176.024,816.69504 1174.9304,817.77491 1174.1595,817.73362 1174.0498,818.43822 1172.9545,818.38777 1172.3656,817.89915 1171.751,818.81309 1171.2213,819.345 1169.7163,819.62908 1168.7037,819.2578 1168.5817,821.04464 1169.2871,822.70553 1169.653,824.4872 1169.0398,824.84306 1168.1742,824.1456 1167.3115,824.89334 1166.3,826.39529 1166.2473,826.77374 1168.0959,827.26648 1168.1135,827.66721 1166.4254,828.64252 1163.9871,828.34248 z">
      <title id="t381">Deuxième circonscription de Haute-Savoie</title>
      <desc id="d381">Cantons de: Alby-sur-Chéran, Annecy Centre, Annecy Nord-Est, Faverges, Seynod, Thônes</desc>
    </path><path class="circo" id="074-03" d="M 1196.8637,779.97248 1197.0145,778.31458 1197.4078,777.55381 1199.0345,777.00102 1200.0041,775.86065 1202.2593,774.83688 1203.0221,775.66348 1203.95,774.92061 1204.8293,774.99449 1204.8826,775.01342 1205.4188,774.46965 1206.0105,772.55829 1207.8676,772.73883 1208.7443,773.90604 1208.2996,774.9967 1208.4695,775.35223 1209.0564,776.49404 1208.4322,778.0526 1208.4198,778.51057 1208.8474,778.50295 1209.744,777.65015 1210.9681,777.6837 1211.6068,780.12444 1213.5907,780.13942 1214.2418,781.22183 1214.2863,782.07295 1213.5934,783.08101 1213.2836,784.67844 1211.5261,785.77559 1209.9093,786.25205 1208.3665,785.65358 1207.7798,786.25475 1207.4893,786.56943 1207.4665,787.83928 1209.3025,791.12191 1211.8167,793.45468 1212.9582,793.69387 1214.1272,793.49024 1213.658,794.20288 1214.3366,795.27875 1214.217,796.12405 1213.894,797.13786 1213.2833,797.52555 1212.4839,797.45534 1211.7769,797.26235 1210.6703,797.58828 1210.0165,798.95162 1209.9758,799.37497 1210.8306,800.27537 1209.8277,803.06619 1210.2045,803.82115 1207.7043,805.47758 1206.4654,805.87176 1205.9863,806.59742 1205.8541,806.57833 1202.4618,810.18453 1202.097,810.9502 1201.2745,812.88166 1201.6072,813.62331 1201.0051,814.70441 1199.7146,813.76193 1198.5423,814.08719 1196.6452,815.34896 1195.229,814.17507 1195.4966,813.66096 1196.1285,812.58373 1194.7769,809.85603 1196.6072,807.47177 1196.2816,805.78928 1192.2075,802.85034 1190.9609,802.78166 1189.7625,803.16976 1188.3145,802.35387 1188.1895,801.88968 1187.2174,799.6774 1187.1981,799.26264 1187.845,798.75598 1185.4058,797.87621 1184.8264,798.34839 1183.8397,798.33688 1183.9231,799.10315 1183.2939,800.10757 1183.34,800.89973 1181.444,801.57241 1179.7006,802.59042 1179.5961,803.42036 1178.4181,805.14701 1177.8076,805.26609 1177.4591,807.27149 1177.6359,808.38883 1177.2588,808.45207 1176.1429,808.74517 1175.2667,807.97093 1174.9229,805.9682 1174.1859,806.12447 1174.0259,806.92877 1173.6316,807.03571 1173.185,806.36541 1173.4029,805.59421 1173.024,805.78451 1171.278,804.59599 1170.4946,804.81165 1169.9939,805.48382 1169.1649,805.51478 1169.5417,804.86306 1168.053,804.25877 1167.9016,803.87355 1169.1515,802.29975 1169.0923,801.60559 1169.1242,799.64666 1168.9085,799.30172 1167.7498,799.10168 1168.3171,797.32386 1169.1605,796.59537 1170.2792,796.95981 1171.4293,796.6488 1171.2813,796.17479 1172.8352,795.79241 1173.3059,796.36964 1174.7714,796.92403 1174.8241,797.32362 1175.7729,798.22012 1177.2533,797.26835 1177.6445,796.78139 1177.6414,796.72061 1179.5548,794.25204 1179.9353,794.12479 1180.723,792.74098 1181.4276,791.84216 1181.6657,790.21379 1182.4812,789.30813 1183.2397,787.90591 1183.0523,787.55105 1184.1697,786.27807 1186.044,785.35801 1187.6793,785.79032 1187.4213,786.43566 1189.1441,788.10604 1190.7062,787.83487 1191.4862,788.10959 1191.5405,787.0181 1193.7719,786.70038 1196.022,785.97492 1196.589,783.20515 1196.6137,782.831 1196.4375,782.06546 1196.8998,780.55523 1196.9845,780.29973 1196.8637,779.97248 z">
      <title id="t382">Troisième circonscription de Haute-Savoie</title>
      <desc id="d382">Cantons de : Boëge, Bonneville, Cruseilles, Reignier, La Roche-sur-Foron, Saint-Jeoire</desc>
    </path><path class="circo" id="074-04" d="M 1185.0747,782.72478 1182.6824,784.63695 1182.8716,785.87918 1181.7636,787.08633 1179.8486,787.8653 1179.3624,788.5048 1178.3731,789.16411 1177.6262,789.27035 1175.178,788.66601 1174.6539,788.00407 1171.7116,787.96321 1171.0335,788.37143 1170.9273,789.21195 1169.8678,789.79784 1168.387,789.04547 1166.3115,788.85458 1165.4953,789.05014 1165.1936,789.83353 1163.2325,790.80524 1163.128,790.29732 1162.2069,790.80094 1161.5039,790.71938 1160.7363,790.7991 1160.0968,790.42611 1158.9404,791.46861 1158.093,791.80856 1157.7697,791.91279 1157.1918,793.05278 1157.7882,794.57039 1157.5119,795.80724 1155.4947,796.00505 1154.6213,795.86619 1153.1103,793.91957 1152.3829,793.53768 1151.6245,793.87274 1151.7062,795.47057 1150.8329,796.87599 1150.5486,799.02855 1151.0195,799.83235 1150.457,801.11441 1150.6561,802.44667 1150.9077,803.56653 1150.3274,804.554 1150.7595,805.48247 1150.7284,807.28861 1150.9068,808.11297 1152.7546,809.9019 1152.649,811.16322 1152.8202,812.30193 1152.544,813.42333 1152.0048,813.95249 1152.5166,814.00603 1152.8938,814.69256 1155.141,814.74646 1156.0494,813.18802 1156.6788,813.08985 1157.8438,810.9842 1159.4664,811.98832 1160.019,812.90673 1160.1541,814.00774 1161.1914,814.01104 1161.195,812.72689 1163.5959,811.09915 1164.2601,810.63935 1165.8367,810.9502 1165.7777,810.24275 1166.1495,809.64848 1165.4106,807.24481 1164.984,806.57698 1165.0545,805.78463 1164.9519,805.38481 1166.0362,804.79182 1167.133,805.49642 1169.1649,805.51478 1169.5417,804.86306 1168.053,804.25877 1167.9016,803.87355 1169.1515,802.29975 1169.0923,801.60559 1169.1242,799.64666 1168.9085,799.30172 1167.7498,799.10168 1168.3171,797.32386 1169.1605,796.59537 1170.2792,796.95981 1171.4293,796.6488 1171.2813,796.17479 1172.8352,795.79241 1173.3059,796.36964 1174.7714,796.92403 1174.8241,797.32362 1175.7729,798.22012 1177.2533,797.26835 1177.6445,796.78139 1177.6414,796.72061 1179.5548,794.25204 1179.9353,794.12479 1180.723,792.74098 1181.4276,791.84216 1181.6657,790.21379 1182.4812,789.30813 1183.2397,787.90591 1183.0523,787.55105 1184.1697,786.27807 1186.044,785.35801 1187.6793,785.79032 1187.4213,786.43566 1189.1441,788.10604 1190.7062,787.83487 1191.4862,788.10959 1191.5405,787.0181 1193.7719,786.70038 1196.022,785.97492 1196.589,783.20515 1196.6137,782.831 1196.4375,782.06546 1196.8998,780.55523 1196.9845,780.29973 1196.8637,779.97248 1197.0145,778.31458 1196.3789,777.78902 1195.862,775.04526 1195.6753,774.6805 1194.9013,774.54244 1194.5995,773.81161 1193.3775,774.08248 1192.1694,773.8378 1191.9285,774.02506 1191.9314,774.8584 1193.0889,775.20176 1193.1416,776.74157 1191.8935,778.89982 1190.3552,780.09016 1188.0269,781.21348 1186.7399,781.22466 1186.4231,781.52496 1185.0747,782.72478 z">
      <title id="t383">Quatrième circonscription de Haute-Savoie</title>
      <desc id="d383">Cantons de : Annemasse Nord, Annemasse Sud, Frangy, Saint-Julien-en-Genevois, Seyssel</desc>
    </path><path class="circo" id="074-05" d="M 1235.1676,781.57777 1236.6606,778.97673 1236.7526,778.12154 1237.7568,777.33616 1238.2993,776.17151 1239.5114,775.03064 1240.2824,772.15736 1240.267,771.72627 1239.5701,770.67075 1239.1901,770.86954 1237.5483,769.61593 1236.7919,768.10919 1234.9612,767.08178 1234.5587,765.88052 1233.7526,765.66521 1232.7119,763.85036 1232.4232,762.26658 1233.3547,761.4663 1234.1738,761.39694 1234.9414,760.42001 1235.3856,759.81505 1235.0194,758.79525 1235.306,758.08699 1234.0159,758.19914 1231.2525,757.03426 1227.8214,756.39004 1227.3726,756.41667 1221.1514,756.68825 1219.5277,756.92665 1219.0559,756.95056 1215.1647,757.57291 1213.1147,757.99345 1210.4751,756.76517 1208.1747,758.02044 1207.7844,759.6959 1207.2321,760.37221 1204.5115,761.79384 1203.335,762.30525 1202.0485,762.3725 1201.2334,763.36615 1200.7974,763.54829 1200.0798,764.62376 1199.6499,764.66525 1197.6838,763.78953 1196.5382,761.37181 1196.0652,761.09193 1194.6402,760.84493 1193.72,761.19911 1192.5733,761.52062 1191.6335,762.40822 1190.4368,763.62353 1189.7596,765.15454 1188.8065,766.6239 1188.1325,768.68559 1187.38,769.10925 1187.9755,769.5752 1188.2732,770.69511 1188.2072,771.11925 1187.1486,771.84705 1187.1633,772.70563 1189.0769,775.51609 1189.3459,775.84971 1189.7471,776.00041 1190.5104,775.62009 1191.9285,774.02506 1192.1694,773.8378 1193.3775,774.08248 1194.5995,773.81161 1194.9013,774.54244 1195.6753,774.6805 1195.862,775.04526 1196.3789,777.78902 1197.0145,778.31458 1197.4078,777.55381 1199.0345,777.00102 1200.0041,775.86065 1202.2593,774.83688 1203.0221,775.66348 1203.95,774.92061 1204.8293,774.99449 1204.8826,775.01342 1205.4188,774.46965 1206.0105,772.55829 1207.8676,772.73883 1208.7443,773.90604 1208.2996,774.9967 1208.4695,775.35223 1209.0564,776.49404 1208.4322,778.0526 1208.4198,778.51057 1208.8474,778.50295 1209.744,777.65015 1210.9681,777.6837 1211.6068,780.12444 1213.5907,780.13942 1214.2418,781.22183 1214.2863,782.07295 1214.5394,783.31639 1213.9524,784.39989 1214.1421,784.74375 1215.282,785.22028 1215.621,785.99247 1216.5771,785.38428 1217.4156,785.30633 1218.1072,783.41462 1219.1391,782.77685 1220.2979,783.01396 1221.421,782.51136 1222.3195,783.24481 1224.2819,782.7308 1224.6344,782.93206 1224.6104,783.06934 1225.7654,784.77701 1225.8973,786.81905 1227.5986,789.15012 1228.4107,789.01713 1229.0126,789.57985 1230.1581,788.34026 1231.361,788.52381 1232.7874,787.69609 1234.0505,787.57105 1234.3141,786.35011 1235.4883,784.68286 1235.8814,784.0112 1235.4695,782.45929 1235.1676,781.57777 z">
      <title id="t384">Cinquième circonscription de Haute-Savoie</title>
      <desc id="d384">Cantons de : Abondance, Le Biot, Douvaine, Evian-les-Bains, Thonon-les-Bains Est, Thonon-les-Bains Ouest</desc>
    </path><path class="circo" id="074-06" d="M 1248.7119,802.74248 1247.7108,800.40225 1246.5929,799.83933 1246.4427,798.61032 1245.2425,798.79114 1244.1753,800.11406 1242.3424,801.10523 1241.0386,800.10794 1241.7139,798.07702 1242.5192,797.10379 1242.0981,794.62224 1242.7842,793.52665 1243.1219,791.41196 1239.3428,790.95818 1237.8173,790.27868 1236.1577,790.63696 1235.6739,789.96994 1234.6298,789.539 1234.0505,787.57105 1232.7874,787.69609 1231.361,788.52381 1230.1581,788.34026 1229.0126,789.57985 1228.4107,789.01713 1227.5986,789.15012 1225.8973,786.81905 1225.7654,784.77701 1224.6104,783.06934 1224.6344,782.93206 1224.2819,782.7308 1222.3195,783.24481 1221.421,782.51136 1220.2979,783.01396 1219.1391,782.77685 1218.1072,783.41462 1217.4156,785.30633 1216.5771,785.38428 1215.621,785.99247 1215.282,785.22028 1214.1421,784.74375 1213.9524,784.39989 1214.5394,783.31639 1214.2863,782.07295 1213.5934,783.08101 1213.2836,784.67844 1211.5261,785.77559 1209.9093,786.25205 1208.3665,785.65358 1207.7798,786.25475 1207.4893,786.56943 1207.4665,787.83928 1209.3025,791.12191 1211.8167,793.45468 1212.9582,793.69387 1214.1272,793.49024 1213.658,794.20288 1214.3366,795.27875 1214.217,796.12405 1213.894,797.13786 1213.2833,797.52555 1212.4839,797.45534 1211.7769,797.26235 1210.6703,797.58828 1210.0165,798.95162 1209.9758,799.37497 1210.8306,800.27537 1209.8277,803.06619 1210.2045,803.82115 1207.7043,805.47758 1206.4654,805.87176 1205.9863,806.59742 1208.5947,808.74835 1209.8434,809.06639 1211.5079,808.70957 1212.6933,810.93027 1214.1038,811.88892 1212.788,813.38336 1211.985,815.70163 1210.6776,816.75979 1210.3044,817.59888 1210.7234,818.3223 1212.154,819.07227 1214.1735,819.52881 1214.3871,820.31675 1215.3726,821.06809 1215.5617,821.44647 1215.0292,822.06388 1215.1603,823.29353 1212.3668,823.34785 1213.1189,824.87125 1213.8452,827.69636 1214.9364,828.99365 1215.2379,828.72253 1215.973,828.99341 1216.5712,830.83549 1217.794,831.83973 1218.0073,831.50996 1219.9406,831.39219 1221.0093,830.90072 1222.9095,830.88999 1223.2059,831.70502 1225.3662,834.40348 1225.2604,836.51065 1226.2316,837.79384 1225.4802,839.66118 1227.3803,840.30055 1229.8008,837.44109 1230.0104,836.61871 1231.2661,834.91126 1233.3053,834.53436 1235.0786,833.54539 1235.1942,832.3015 1235.8584,831.22369 1235.8852,829.93878 1235.4658,829.22806 1235.2615,828.87072 1236.6994,826.39675 1238.2754,826.02584 1239.4412,826.37772 1240.0828,826.9371 1240.459,827.69685 1240.8133,827.44593 1241.1262,825.73337 1241.6242,825.05711 1244.085,825.70152 1246.5716,825.11483 1248.0317,823.52545 1251.2575,822.28961 1251.5669,821.98502 1252.1141,820.79958 1252.6232,818.28516 1253.6785,816.89822 1255.4394,815.67964 1254.9339,812.28225 1252.9499,810.66809 1252.9624,809.83622 1253.5762,808.76694 1252.6333,806.82917 1250.7436,805.85487 1250.2634,804.18398 1248.7119,802.74248 z">
      <title id="t385">Sixième circonscription de Haute-Savoie</title>
      <desc id="d385"> Cantons de : Chamonix-Mont-Blanc, Cluses, Saint-Gervais-les-Bains, Sallanches, Samoëns, Scionzier, Taninges</desc>
    </path></svg>