<svg xmlns="http://www.w3.org/2000/svg" version="1.1" xmlns:xlink="http://www.w3.org/1999/xlink" xmlns:svgjs="http://svgjs.dev/svgjs" viewBox="1436.5302 703.15783 143.95760000000018 77.32997"><path class="circo" id="id-075-01" d="M 1482.0591,737.91882 1478.2843,728.62381 1480.0449,725.07023 1482.2101,724.14433 1497.1063,720.01359 1498.5116,718.9732 1503.1121,720.9406 1504.4267,721.26738 1504.933,722.70589 1509.9718,723.65119 1509.3,731.51946 1513.002,732.72871 1511.0793,738.04141 1510.6319,739.28446 1507.3765,746.40927 1504.3096,743.2489 1500.4842,741.65504 1493.3772,738.27856 1482.0591,737.91882 z">
      <title id="t386">Première circonscription de Paris</title>
      <desc id="d386">1er, 2e et 8e arrondissements</desc>
    </path><path class="circo" id="id-075-02" d="M 1502.6854,759.20189 1502.7069,758.4905 1499.7355,753.86481 1499.9433,747.78725 1497.0391,748.4904 1493.2879,751.34338 1492.3473,748.55038 1489.7797,748.39191 1489.8102,746.54406 1484.4936,746.10022 1481.8617,748.70504 1475.128,742.71371 1478.5682,738.92658 1482.0591,737.91882 1493.3772,738.27856 1500.4842,741.65504 1504.3096,743.2489 1507.3765,746.40927 1519.0112,753.41128 1519.9754,754.53763 1517.3829,759.20958 1511.506,761.75926 1505.8964,760.44612 1502.6854,759.20189 z">
      <title id="t387">Deuxième circonscription de Paris</title>
      <desc id="d387">5e arrondissement</desc>
    </path><path class="circo" id="id-075-03" d="M 1496.3313,716.51383 1497.3003,711.34644 1504.3685,713.12011 1505.1491,709.91389 1506.0259,707.07206 1503.1446,707.19611 1501.7282,703.98503 1498.7949,704.18264 1492.8495,704.8132 1483.366,710.46141 1481.4101,711.7695 1483.3501,714.10378 1483.6002,714.11493 1487.1616,718.19476 1489.2201,719.70405 1490.3692,721.20401 1490.5707,721.84663 1497.1063,720.01359 1496.3313,716.51383 z">
      <title id="t388">Troisième circonscription de Paris</title>
      <desc id="d388">Partie du 17e arrondissement (quartiers de Batignolles et Epinettes)</desc>
    </path><path class="circo" id="id-075-04" d="M 1454.8175,728.18697 1458.7987,733.55231 1461.0165,733.50189 1460.4548,735.01797 1462.2112,738.3533 1463.7932,738.36057 1465.3675,737.32835 1467.9482,737.62071 1470.0095,734.01484 1473.0744,735.38284 1473.4692,738.26499 1476.48,741.18509 1478.5682,738.92658 1482.0591,737.91882 1478.2843,728.62381 1480.0449,725.07023 1482.2101,724.14433 1490.5707,721.84663 1490.3692,721.20401 1489.2201,719.70405 1487.1616,718.19476 1483.6002,714.11493 1483.3501,714.10378 1481.4101,711.7695 1477.5778,714.30852 1476.4232,714.45985 1471.9925,718.08505 1469.8814,720.60066 1469.3363,724.40483 1457.5866,722.95995 1454.8175,728.18697 z">
      <title id="t389">Quatrième circonscription de Paris</title>
      <desc id="d389">Partie du 16e arrondissement (quartier Chaillot et partie du quartier Porte Dauphine située au nord d'une ligne définie par les voies ci-après : rue de la Pompe, place Monnet et rue Saint-Didier)</desc>
    </path><path class="circo" id="id-075-05" d="M 1510.6319,739.28446 1511.0793,738.04141 1513.002,732.72871 1509.3,731.51946 1510.2869,719.78537 1515.5488,719.15875 1519.219,719.29014 1521.6106,719.49724 1522.4556,720.76302 1522.5748,725.33738 1523.7682,726.5413 1526.4839,730.36659 1518.7383,734.38096 1521.4216,744.84609 1518.7404,744.15721 1516.0586,742.58398 1514.6373,740.95355 1510.6319,739.28446 z">
      <title id="t390">Cinquième circonscription de Paris</title>
      <desc id="d390">3e et 10e arrondissements</desc>
    </path><path class="circo" id="id-075-06" d="M 1529.697,746.33759 1530.9486,749.54727 1539.472,751.68907 1539.0135,748.83145 1536.6787,743.97283 1538.7358,743.63435 1541.1329,741.89621 1540.2665,740.39072 1539.9492,738.28937 1539.0613,736.61322 1536.7168,732.22337 1534.2109,729.21011 1531.5276,731.01835 1529.981,729.09985 1526.4839,730.36659 1520.9748,733.24333 1523.7107,733.86953 1527.5665,740.88255 1529.0113,740.10252 1532.4571,745.36445 1529.697,746.33759 z">
      <title id="t391">Sixième circonscription de Paris</title>
      <desc id="d391">Partie du 11e arrondissement (partie des quartiers Folie-Méricourt, Saint-Ambroise, Roquette et Sainte-Marguerite située à l'est d'une ligne définie par l'axe des voies ci-après : rue de la Folie-Méricourt, rue de la Fontaine-au-Roi, avenue Parmentier, rue du Chemin-Vert, rue Saint-Maur, rue Léon-Frot, rue de Charonne, rue Faidherbe, rue du Faubourg-Saint-Antoine, place de la Nation, avenue du Trône)</desc>
    </path><path class="circo" id="id-075-07" d="M 1507.3765,746.40927 1510.6319,739.28446 1514.6373,740.95355 1516.0586,742.58398 1518.7404,744.15721 1521.4216,744.84609 1518.7383,734.38096 1520.9748,733.24333 1523.7107,733.86953 1527.5665,740.88255 1529.0113,740.10252 1532.4571,745.36445 1529.697,746.33759 1530.9486,749.54727 1529.9955,754.37223 1523.6193,758.8945 1519.0112,753.41128 1507.3765,746.40927 z">
      <title id="t392">Septième circonscription de Paris</title>
      <desc id="d392">4e arrondissement</desc>
    </path><path class="circo" id="id-075-08" d="M 1545.4563,772.32184 1541.9579,768.54864 1534.1707,771.72078 1523.6193,758.8945 1529.9955,754.37223 1530.9486,749.54727 1539.472,751.68907 1539.2857,750.15456 1543.7995,749.58017 1543.6686,747.60017 1549.087,746.00589 1549.6377,750.66371 1549.4223,752.99882 1548.3854,759.14877 1546.4897,764.13649 1548.3002,764.66607 1552.7392,762.87113 1552.1228,758.72156 1551.4059,757.09867 1552.0182,755.74203 1552.9304,755.08895 1554.3226,757.3415 1561.85,758.26997 1562.3168,755.05799 1563.8635,755.06901 1564.056,753.53332 1567.4118,753.64975 1567.3584,754.83234 1568.1903,754.62524 1579.6165,759.74394 1580.4878,763.90335 1578.0428,767.04426 1577.3668,771.09479 1577.5802,774.38988 1576.1271,778.59459 1574.054,780.4878 1568.8981,779.75328 1561.5182,779.19385 1557.206,774.31861 1551.7841,773.16407 1545.4563,772.32184 z">
      <title id="t393">Huitième circonscription de Paris</title>
      <desc id="d393">Partie du 12e arrondissement non comprise dans la 7e circonscription</desc>
    </path><path class="circo" id="id-075-09" d="M 1505.8964,760.44612 1505.2322,766.13124 1510.2786,768.22851 1513.9606,766.6868 1520.4706,779.18574 1534.1707,771.72078 1519.9754,754.53763 1517.3829,759.20958 1511.506,761.75926 1505.8964,760.44612 z">
      <title id="t394">Neuvième circonscription de Paris</title>
      <desc id="d394">Partie du 13e arrondissement (quartiers Salpêtrière, Gare, Croulebarbe)</desc>
    </path><path class="circo" id="id-075-10" d="M 1481.9205,772.22778 1487.5038,765.21733 1494.5533,768.41448 1492.6825,771.27141 1493.6418,771.57831 1493.9431,772.06578 1496.5155,772.8134 1499.4675,773.58623 1502.5358,773.16414 1504.5749,772.75099 1505.7045,771.17555 1505.2322,766.13124 1510.2786,768.22851 1513.9606,766.6868 1520.4706,779.18574 1518.9046,780.0448 1514.3208,780.42748 1512.2678,778.41035 1509.8374,779.72959 1508.5478,780.13969 1506.0335,779.97727 1499.9288,779.48592 1500.3859,778.3138 1489.4722,774.76653 1481.9205,772.22778 z">
      <title id="t395">Dixième circonscription de Paris</title>
      <desc id="d395">Partie du 13e arrondissement (quartier Maison-Blanche)</desc>
    </path><path class="circo" id="id-075-11" d="M 1490.9357,752.88163 1495.6615,755.77749 1487.5038,765.21733 1494.5533,768.41448 1492.6825,771.27141 1493.6418,771.57831 1493.9431,772.06578 1499.4675,773.58623 1502.5358,773.16414 1504.5749,772.75099 1505.7045,771.17555 1505.2322,766.13124 1505.8964,760.44612 1502.6854,759.20189 1502.7069,758.4905 1499.7355,753.86481 1499.9433,747.78725 1497.0391,748.4904 1493.2879,751.34338 1490.9357,752.88163 z">
      <title id="t396">Onzième circonscription de Paris</title>
      <desc id="d396">Partie du 6e arrondissement non comprise dans la 2e circonscription</desc>
    </path><path class="circo" id="id-075-12" d="M 1490.9357,752.88163 1495.6615,755.77749 1487.5038,765.21733 1486.5237,764.86353 1484.9909,762.24154 1483.6957,758.66518 1481.3567,759.64815 1480.4189,756.35874 1478.3445,756.53079 1473.2136,753.33218 1469.7006,750.08309 1475.128,742.71371 1481.8617,748.70504 1484.4936,746.10022 1489.8102,746.54406 1489.7797,748.39191 1492.3473,748.55038 1493.2879,751.34338 1490.9357,752.88163 z">
      <title id="t397">Douzième circonscription de Paris</title>
      <desc id="d397">Partie du 7e arrondissement (quartier Ecole-Militaire)</desc>
    </path><path class="circo" id="id-075-13" d="M 1462.0831,769.81496 1461.9287,766.68721 1463.645,765.52755 1462.2293,763.66045 1459.2399,764.35847 1469.7006,750.08309 1473.2136,753.33218 1478.3445,756.53079 1480.4189,756.35874 1481.3567,759.64815 1483.6957,758.66518 1484.9909,762.24154 1486.5237,764.86353 1487.5038,765.21733 1481.9205,772.22778 1474.9015,769.3464 1468.812,765.3927 1465.3232,769.75408 1462.0831,769.81496 z">
      <title id="t398">Treizième circonscription de Paris</title>
      <desc id="d398">Partie du 15e arrondissement non comprise dans la 12e circonscription</desc>
    </path><path class="circo" id="id-075-14" d="M 1452.2839,756.76815 1454.7524,763.45328 1459.2399,764.35847 1475.128,742.71371 1476.48,741.18509 1473.4692,738.26499 1473.0744,735.38284 1470.0095,734.01484 1467.9482,737.62071 1465.3675,737.32835 1463.7932,738.36057 1462.2112,738.3533 1460.4548,735.01797 1461.0165,733.50189 1458.7987,733.55231 1454.8175,728.18697 1449.1726,726.30089 1446.1237,730.13982 1440.9526,732.91759 1437.3855,741.56465 1436.5302,746.83607 1445.4408,749.87835 1447.0151,751.95539 1452.0768,753.98186 1453.0908,754.02024 1452.2839,756.76815 z">
      <title id="t399">Quatorzième circonscription de Paris</title>
      <desc id="d399">Partie du 16e arrondissement (quartiers Auteuil et La Muette et partie du quartier Porte Dauphine non comprise dans la 4e circonscription)</desc>
    </path><path class="circo" id="id-075-15" d="M 1536.6787,743.97283 1538.7358,743.63435 1541.1329,741.89621 1540.2665,740.39072 1539.9492,738.28937 1536.7168,732.22337 1534.2109,729.21011 1531.5276,731.01835 1529.981,729.09985 1531.3836,728.65137 1532.2805,727.95023 1533.2654,727.8302 1534.4276,727.28067 1536.581,727.37999 1539.3245,727.25283 1543.855,725.64802 1546.3131,724.49792 1547.8341,729.29247 1549.087,746.00589 1543.6686,747.60017 1543.7995,749.58017 1539.2857,750.15456 1539.0135,748.83145 1536.6787,743.97283 z">
      <title id="t400">Quinzième circonscription de Paris</title>
      <desc id="d400">Partie du 20e arrondissement non comprise dans les 6e et 8e circonscriptions</desc>
    </path><path class="circo" id="id-075-16" d="M 1529.9027,713.80962 1526.5033,711.01807 1524.3742,710.8098 1522.7036,710.20036 1523.4579,709.13607 1522.536,708.03217 1522.5235,703.74469 1531.0179,703.15783 1534.4595,704.18804 1537.0416,706.41088 1537.9566,708.63371 1539.2234,714.70407 1540.2166,719.77719 1546.3131,724.49792 1543.855,725.64802 1539.3245,727.25283 1536.581,727.37999 1534.4276,727.28067 1533.2654,727.8302 1532.2805,727.95023 1531.3836,728.65137 1526.4839,730.36659 1523.7682,726.5413 1524.7919,725.79853 1524.9699,723.30224 1524.3417,721.92863 1527.5762,719.09448 1529.4719,717.85212 1530.9888,717.18651 1530.9902,716.00704 1529.9027,713.80962 z">
      <title id="t401">Seizième circonscription de Paris</title>
      <desc id="d401">Partie du 19e arrondissement (quartiers Amérique et Pont de Flandre et partie du quartier Combat située au sud d'une ligne définie par l'axe des voies ci-après : avenue Secrétan, avenue Simon-Bolivar et rue Turot)</desc>
    </path><path class="circo" id="id-075-17" d="M 1524.3417,721.92863 1524.9699,723.30224 1524.7919,725.79853 1523.7682,726.5413 1522.5748,725.33738 1522.4556,720.76302 1521.6106,719.49724 1515.5488,719.15875 1510.3119,719.88642 1510.3569,718.24345 1511.5129,715.79191 1511.4256,713.46608 1512.3364,710.2798 1511.6826,703.85669 1519.9137,703.7823 1522.5235,703.74469 1522.536,708.03217 1523.4579,709.13607 1522.7036,710.20036 1524.3742,710.8098 1526.5033,711.01807 1529.9027,713.80962 1530.9902,716.00704 1530.9888,717.18651 1529.4719,717.85212 1524.3417,721.92863 z">
      <title id="t402">Dix-septième circonscription de Paris</title>
      <desc id="d402">Partie du 18e arrondissement (quartiers Goutte-d'Or et Chapelle)</desc>
    </path><path class="circo" id="id-075-18" d="M 1496.3313,716.51383 1497.1063,720.01359 1498.5116,718.9732 1503.1121,720.9406 1504.4267,721.26738 1504.933,722.70589 1509.9718,723.65119 1510.3119,719.88642 1510.3569,718.24345 1511.5129,715.79191 1511.4256,713.46608 1512.3364,710.2798 1511.6826,703.85669 1501.7282,703.98503 1503.1446,707.19611 1506.0259,707.07206 1505.1491,709.91389 1504.3685,713.12011 1497.3003,711.34644 1496.3313,716.51383 z">
      <title id="t403">Dix-huitième circonscription de Paris</title>
      <desc id="d403">Partie du 9e arrondissement non comprise dans la 1re circonscription</desc>
    </path></svg>