<svg xmlns="http://www.w3.org/2000/svg" version="1.1" xmlns:xlink="http://www.w3.org/1999/xlink" xmlns:svgjs="http://svgjs.dev/svgjs" viewBox="0 0 146.35000000000002 107.62916999999999"><path class="circo" id="id-076-01" d="M82.50250000000005 79.73669999999998L83.82310000000007 81.17838999999998L82.60340000000008 83.47719000000001L81.91370000000006 84.01506L82.58390000000009 84.76801L83.55700000000002 83.89429000000001L85.30810000000008 83.66658999999999L85.15860000000009 84.59667999999999L86.00310000000002 84.34674000000001L86.41080000000011 84.78354999999999L86.64020000000005 84.18846000000002L87.29110000000003 83.80701999999997L87.48160000000007 83.44849999999997L87.84840000000008 83.63751000000002L88.28090000000009 84.2278L88.65300000000002 85.012L88.85000000000002 84.13295999999997L89.24670000000003 83.96368999999999L91.4765000000001 84.26090999999997L91.2899000000001 83.94565999999998L91.61030000000005 83.76893999999999L90.71360000000004 82.91102999999998L91.3660000000001 82.29618999999997L91.70360000000005 81.04449L92.13130000000001 81.14139L91.2727000000001 79.82015000000001L89.29650000000004 81.52254999999997L88.2908000000001 81.18572L87.97540000000004 81.42252000000002L87.39520000000005 80.89463L87.26260000000002 80.49694999999997L87.97550000000001 79.47197L87.71940000000006 77.40123999999997L87.25570000000005 77.43237999999997L85.1739 78.06534999999997L85.00130000000001 78.92350999999996L84.57030000000009 78.84816999999998L83.3900000000001 77.78001L83.40100000000007 78.65364999999997L82.56740000000002 78.89787999999999L82.50250000000005 79.73669999999998z">
      <title id="t404">Première circonscription de Seine-Maritime</title>
      <desc id="d404">Cantons de : Mont-Saint-Aignan, Rouen I, Rouen II, Rouen III, Rouen IV, Rouen V, Rouen VII</desc>
    </path><path class="circo" id="id-076-02" d="M122.5580000000001 68.47408999999999L121.75760000000002 66.27253000000002L116.65350000000001 67.47431L116.97730000000001 64.58848L117.5888000000001 64.06864000000002L116.7736000000001 63.25385L116.63770000000011 63.09622999999999L116.33530000000007 62.24525999999997L115.2047 61.54867999999999L114.84620000000007 60.72478000000001L115.33310000000006 60.02161000000001L116.19690000000003 59.76853L115.56410000000005 59.16444999999999L114.69170000000008 59.29514L113.53590000000008 57.96438999999998L112.65410000000008 57.806640000000016L113.30460000000005 59.32191L112.15970000000004 60.49743999999998L111.04590000000007 60.369399999999985L110.49390000000005 60.970349999999996L108.08010000000002 61.64101999999997L107.6726000000001 61.88195999999999L106.84270000000004 61.38551000000001L106.59070000000008 62.64407L103.28580000000011 63.37068999999997L102.7600000000001 64.48293999999999L102.36530000000005 64.59766000000002L102.68540000000007 65.74901999999997L101.90410000000008 67.84541000000002L101.29810000000009 68.49007L101.0027 68.83110999999997L100.59340000000009 68.64468L99.3931 69.80081999999999L100.10170000000005 71.30734999999999L100.02790000000005 71.68700000000001L98.572 71.78077000000002L98.5621000000001 73.06516999999997L98.20570000000009 73.13443999999998L95.16660000000002 75.26204000000001L94.64710000000002 75.7387L94.08510000000001 75.48113999999998L93.4199000000001 74.92120999999997L93.18520000000001 74.06185999999997L91.09150000000011 73.35660999999999L90.00060000000008 72.59028L89.59860000000003 73.35557L89.62220000000002 74.64607000000001L90.68480000000011 75.32315999999997L90.47490000000005 76.12005999999997L89.1196000000001 77.19229000000001L87.90560000000005 76.99916000000002L87.71940000000006 77.40123999999997L87.97550000000001 79.47197L87.26260000000002 80.49694999999997L87.39520000000005 80.89463L87.97540000000004 81.42252000000002L88.2908000000001 81.18572L89.29650000000004 81.52254999999997L91.2727000000001 79.82015000000001L92.13130000000001 81.14139L91.70360000000005 81.04449L91.3660000000001 82.29618999999997L90.71360000000004 82.91102999999998L91.61030000000005 83.76893999999999L91.2899000000001 83.94565999999998L91.4765000000001 84.26090999999997L89.24670000000003 83.96368999999999L88.85000000000002 84.13295999999997L88.65300000000002 85.012L88.7229000000001 85.38745L89.27290000000005 88.26848999999999L89.68370000000004 89.34260999999998L89.7229000000001 92.13101999999998L89.82260000000008 92.92791999999997L90.0630000000001 93.98651000000001L90.12140000000011 94.72431999999998L89.2967000000001 97.68113L89.6400000000001 97.95672000000002L90.49200000000008 97.74059999999997L90.95080000000007 98.00301999999999L91.68010000000004 96.74146999999999L92.49260000000004 96.67545999999999L93.3836 95.90863999999999L93.64480000000003 96.68133L94.05590000000007 95.94921999999997L94.84570000000008 95.65411L95.0268000000001 96.40778L95.08570000000009 96.42982L96.4484000000001 96.33172000000002L96.14380000000006 94.40774999999996L96.36530000000005 94.11401000000001L96.32190000000003 94.52101999999996L97.12840000000006 94.53890000000001L97.35380000000009 94.88704000000001L100.2333000000001 95.17410000000001L102.44810000000007 95.19328000000002L102.4543000000001 94.29669999999999L103.64530000000002 93.15958999999998L103.89670000000001 91.52384999999998L103.63600000000008 90.03055L104.6001 89.0199L105.49580000000003 88.80205000000001L105.75330000000008 87.09607999999997L106.12330000000009 86.87203L105.63380000000006 84.56936000000002L107.26850000000002 84.25490000000002L108.04900000000009 84.54269999999997L108.00190000000009 83.24397999999997L108.96770000000004 83.65024999999997L109.06360000000006 83.30162999999999L108.39940000000001 82.69623999999999L108.56290000000001 82.27670999999998L110.65250000000003 81.64546000000001L112.16370000000006 80.05072999999999L112.64870000000008 80.26769999999999L111.8796000000001 81.35557999999997L111.94950000000006 81.79608999999999L114.33500000000004 81.05286000000001L116.38210000000004 81.13301999999999L117.55880000000002 81.78327999999999L119.79420000000005 81.61734999999999L121.0779 82.11680999999999L121.97410000000002 83.15627L124.15700000000004 82.82841000000002L124.97680000000003 84.39238999999998L126.08970000000011 83.03926999999999L128.29240000000004 83.08960000000002L128.22860000000003 83.45026000000001L129.04770000000008 84.17347000000001L129.9896000000001 86.01976000000002L130.9071 86.90559999999999L132.71270000000004 86.35125L132.69990000000007 86.76137L134.3578000000001 87.90001000000001L134.62530000000004 87.92822000000001L135.33360000000005 88.33771999999999L136.30190000000005 87.50275999999997L137.1636000000001 87.56232999999997L137.3016 87.97445999999997L138.33010000000002 88.99417L139.2427 87.09791000000001L140.00070000000005 87.11842000000001L140.68690000000004 85.51576999999997L141.0327000000001 83.34960999999998L141.21370000000002 82.94711000000001L141.65410000000008 82.9377L142.20910000000003 81.88042000000002L143.21220000000005 81.27686L142.84800000000007 80.55383999999998L144.3727 79.70675L145.25670000000002 78.72415999999998L145.22840000000008 76.96762000000001L145.48430000000008 76.60608000000002L146.35000000000002 76.53868999999997L146.25790000000006 74.43309999999997L144.6024000000001 73.67395999999997L143.5250000000001 74.40285999999998L143.00480000000005 76.08629000000002L142.62990000000002 76.33114L142.2591000000001 75.51242000000002L140.9801000000001 75.27656999999999L140.45030000000008 74.86624L140.19590000000005 74.65981999999997L140.50920000000008 74.08292999999998L142.11340000000007 72.55426999999997L142.6852 70.12135L142.63160000000005 70.07394L141.05830000000003 69.70008000000001L141.3519 67.22113000000002L140.5498 66.13268L139.70050000000003 65.12977999999998L138.61990000000003 65.78861L137.20420000000001 66.49061999999998L136.76300000000003 66.44619L135.6399 65.11628000000002L134.39480000000003 64.65915000000001L132.822 66.17318L133.0363000000001 67.02350000000001L131.9352 68.34305999999998L131.5671000000001 68.58152999999999L130.76330000000007 68.27663000000001L130.3882000000001 67.65908000000002L129.62760000000003 67.47942L129.16590000000008 66.75497000000001L129.7196 65.59055000000001L129.20420000000001 63.95954999999998L128.58010000000002 64.47992999999997L127.25400000000002 65.61151999999998L127.28410000000008 66.43099000000001L126.33050000000003 67.34012000000001L122.5580000000001 68.47408999999999z">
      <title id="t405">Deuxième circonscription de Seine-Maritime</title>
      <desc id="d405">Cantons de : Argueil, Bois-Guillaume, Boos, Buchy, Darnétal, Gournay-en-Bray</desc>
    </path><path class="circo" id="id-076-03" d="M82.86180000000002 93.44241999999997L81.67110000000002 94.68426L81.65560000000005 95.98809999999997L82.17630000000008 96.69880999999998L83.43100000000004 96.92448000000002L83.67150000000004 97.29257999999999L82.49840000000006 97.52109000000002L81.43910000000005 97.86072999999999L81.55100000000004 98.21794999999997L84.48470000000009 97.68660999999997L89.18730000000005 96.0335L89.93110000000001 94.89420999999999L90.0630000000001 93.98651000000001L89.82260000000008 92.92791999999997L89.7229000000001 92.13101999999998L89.68370000000004 89.34260999999998L89.27290000000005 88.26848999999999L88.7229000000001 85.38745L88.65300000000002 85.012L88.28090000000009 84.2278L87.84840000000008 83.63751000000002L87.48160000000007 83.44849999999997L87.29110000000003 83.80701999999997L86.64020000000005 84.18846000000002L86.41080000000011 84.78354999999999L86.00310000000002 84.34674000000001L85.15860000000009 84.59667999999999L85.30810000000008 83.66658999999999L83.55700000000002 83.89429000000001L82.58390000000009 84.76801L83.3388000000001 85.01945L84.51920000000007 86.86288000000002L85.38110000000006 86.99914999999999L84.31230000000005 89.31439999999998L84.70020000000011 91.43219999999997L84.24620000000004 92.63358L82.86180000000002 93.44241999999997z">
      <title id="t406">Troisième circonscription de Seine-Maritime</title>
      <desc id="d406">Cantons de : Le Petit-Quevilly, Rouen VI, Saint-Etienne-du-Rouvray, Sotteville-lès-Rouen Est, Sotteville-lès-Rouen Ouest</desc>
    </path><path class="circo" id="id-076-04" d="M78.8370000000001 106.94024999999999L79.17150000000004 106.31441999999998L78.2922000000001 106.18221L78.13890000000004 105.34514000000001L77.35900000000004 104.99613L76.99610000000007 104.18874999999997L75.55460000000005 105.10244L75.27110000000005 103.98743999999999L76.11610000000007 103.27179999999998L75.97520000000009 102.56167999999997L75.97000000000003 102.13639999999998L75.1744000000001 101.73861L73.98650000000009 98.76254L72.99880000000007 99.62223999999998L71.4901000000001 100.48874L71.59840000000008 101.35915999999997L70.8084 101.62754999999999L70.2845000000001 100.95688000000001L70.50710000000004 99.25923L68.2075000000001 98.31367L67.78970000000004 98.43182000000002L67.64840000000004 98.04971L66.09090000000003 97.92919999999998L66.43480000000011 97.24183999999997L67.36070000000007 95.45227L67.77170000000001 95.42356000000001L68.4081000000001 95.85802000000001L69.60120000000006 95.32727L72.52200000000005 96.33693999999997L73.55460000000005 95.5179L72.78750000000002 94.86342000000002L72.88200000000006 93.69338999999997L72.3293000000001 91.40870000000001L72.3542000000001 90.22224999999997L72.93870000000004 87.68552L73.42710000000011 86.65084000000002L75.11360000000002 87.36545999999998L77.16550000000007 89.83375999999998L77.83780000000002 86.44349L78.05460000000005 85.20083999999997L78.61030000000005 82.44484L80.79730000000006 82.34246999999999L80.96940000000006 80.22780999999998L80.95690000000002 79.82249999999999L81.24730000000011 78.58393000000001L80.65070000000003 77.94499000000002L80.81050000000005 77.53627L81.79560000000004 76.81988999999999L83.42730000000006 77.34393L83.3900000000001 77.78001L83.40100000000007 78.65364999999997L82.56740000000002 78.89787999999999L82.50250000000005 79.73669999999998L83.82310000000007 81.17838999999998L82.60340000000008 83.47719000000001L81.91370000000006 84.01506L82.58390000000009 84.76801L83.3388000000001 85.01945L84.51920000000007 86.86288000000002L85.38110000000006 86.99914999999999L84.31230000000005 89.31439999999998L84.70020000000011 91.43219999999997L84.24620000000004 92.63358L82.86180000000002 93.44241999999997L81.67110000000002 94.68426L81.65560000000005 95.98809999999997L82.17630000000008 96.69880999999998L83.43100000000004 96.92448000000002L83.67150000000004 97.29257999999999L82.49840000000006 97.52109000000002L81.43910000000005 97.86072999999999L81.55100000000004 98.21794999999997L84.48470000000009 97.68660999999997L89.18730000000005 96.0335L89.93110000000001 94.89420999999999L90.0630000000001 93.98651000000001L90.12140000000011 94.72431999999998L89.2967000000001 97.68113L89.6400000000001 97.95672000000002L90.49200000000008 97.74059999999997L90.95080000000007 98.00301999999999L90.70410000000004 100.08888000000002L90.33000000000004 100.08835999999997L87.3891000000001 100.10023000000001L85.41510000000005 100.55039999999997L83.40710000000001 101.64787999999999L84.84180000000003 103.82612999999998L84.93290000000002 104.25623999999999L83.83860000000004 104.93464L84.71850000000006 106.38072L84.5037000000001 106.67169000000001L83.82410000000004 106.43907000000002L83.6758000000001 106.7695L83.67070000000001 106.37250999999998L82.60530000000006 106.83357999999998L82.57910000000004 106.62336999999997L79.23860000000002 107.62916999999999L78.8370000000001 106.94024999999999z">
      <title id="t407">Quatrième circonscription de Seine-Maritime</title>
      <desc id="d407">Cantons de : Caudebec-lès-Elbeuf, Elbeuf, Grand-Couronne, Le Grand-Quevilly, Maromme</desc>
    </path><path class="circo" id="id-076-05" d="M62.29140000000007 84.74748999999997L62.39390000000003 86.37072L61.26060000000007 86.64679000000001L60.896400000000085 86.90494999999999L59.5639000000001 85.84296999999998L57.53530000000001 86.60341L57.06820000000005 87.26997L55.13190000000009 86.90533999999997L55.04740000000004 87.02292L54.607900000000086 87.01220999999998L54.287000000000035 87.82502999999997L53.86170000000004 87.94076000000001L52.624700000000075 87.53424000000001L51.34570000000008 87.85847000000001L50.4914 87.92142999999999L50.191200000000094 87.59564L49.549400000000105 87.16363000000001L50.20600000000002 86.11489L49.03090000000009 85.79867999999999L48.66700000000003 85.02821L47.822 85.18162999999998L48.26180000000011 83.89911999999998L49.18060000000003 82.91717L48.92920000000004 82.54028L46.550800000000095 84.4103L45.26460000000009 84.54582999999997L43.71980000000008 83.88553000000002L41.97640000000001 82.03731999999997L40.502200000000016 80.13128999999998L40.09640000000002 79.67588L40.01730000000009 79.54901000000001L38.69250000000011 77.91437000000002L37.59190000000001 77.31266L36.284000000000106 77.28113000000002L35.10400000000004 77.87774000000002L33.94580000000008 76.95008999999999L33.60110000000009 75.16544999999996L32.354200000000105 72.45475999999996L31.4054000000001 72.73993999999999L30.653800000000047 70.34926999999999L29.792500000000018 70.29962999999998L29.837400000000002 68.25567000000001L30.320100000000025 67.1311L30.763400000000047 67.10476L31.384100000000103 69.21812L33.474500000000035 69.86185999999998L34.6853000000001 67.86860000000001L34.96100000000001 67.63824L35.9448000000001 69.05829L35.84480000000008 70.34888000000001L37.63770000000011 71.56376999999998L38.074100000000044 71.55342000000002L38.20900000000006 71.13709L37.85910000000001 70.87725L38.44640000000004 70.28050000000002L39.63560000000007 70.68353000000002L40.62850000000003 69.82688000000002L41.468000000000075 68.29773L42.308200000000056 68.42363999999998L42.84640000000002 69.08082000000002L41.98350000000005 70.08506999999997L42.072 70.17426999999998L42.78690000000006 70.04734000000002L44.45710000000008 69.13020999999998L44.51210000000003 68.73507999999998L43.48160000000007 67.95508999999998L44.17680000000007 66.90870000000001L45.34980000000007 66.80451L45.96250000000009 66.19664L46.5797 64.72352000000001L47.7333000000001 64.39168999999998L48.236900000000105 65.00117999999998L49.002500000000055 64.89814000000001L50.4547 65.6397L50.983400000000074 66.74934000000002L52.04000000000008 65.55619999999999L52.99310000000003 66.28366999999997L53.79690000000005 66.36728999999997L53.07770000000005 65.31828999999999L53.27330000000006 64.92842000000002L54.516700000000014 64.88738999999998L56.2274000000001 63.727480000000014L56.62200000000007 63.79381999999998L57.04990000000009 64.94848000000002L58.51870000000008 66.43124999999998L58.87450000000001 67.12925999999999L59.24660000000006 66.95260000000002L60.63850000000002 65.26348999999999L62.55560000000003 64.34345000000002L62.263700000000085 63.61129999999997L62.068500000000085 63.31509L62.25520000000006 61.52834999999999L62.072500000000105 60.87905000000001L62.33590000000004 60.24306999999999L62.24090000000001 58.56018999999998L61.00060000000008 57.36683999999997L61.61710000000005 56.69112999999999L63.8057 58.74074999999999L65.37070000000006 60.13772L65.44680000000005 60.20988L67.11740000000009 61.40832999999998L67.94740000000002 59.91757000000001L68.21000000000004 59.80081000000001L69.20900000000006 62.23253999999997L70.9067 62.36736000000002L70.97120000000007 59.78794999999997L70.35940000000005 58.63184000000001L71.09320000000002 58.27017000000001L72.7274000000001 58.00862000000001L73.42700000000002 58.44313L74.66890000000001 58.481449999999995L75.26420000000007 57.30029999999999L76.60690000000011 57.49678L76.88330000000008 58.77789000000001L77.9529 59.53472999999997L77.88430000000005 61.228759999999966L77.7142 62.075019999999995L78.02650000000006 62.375879999999995L79.17230000000006 61.896259999999984L80.09360000000004 61.04052999999999L79.5974000000001 59.87139000000002L80.02100000000007 58.66714000000002L79.14470000000006 56.663689999999974L78.15380000000005 56.19689999999997L79.29450000000008 54.260699999999986L80.90910000000008 55.04840999999999L81.3284000000001 56.00432000000001L82.70830000000001 56.131519999999966L84.22620000000006 57.14042999999998L85.63920000000007 58.58983999999998L85.09120000000007 59.22244999999998L84.17590000000007 58.35323999999997L84.04140000000007 57.56738999999999L83.2849000000001 57.85034999999999L83.32820000000004 58.271619999999984L83.43970000000002 59.69256999999999L83.52010000000007 60.232969999999966L82.30310000000009 60.66654L79.99700000000007 62.57207999999997L79.14280000000008 63.56515000000002L79.68600000000004 64.36455999999998L81.52970000000005 65.58019000000002L82.81690000000003 65.88862L82.74220000000003 66.2416L83.79530000000011 66.35444999999999L83.70720000000006 67.45229L82.06560000000002 67.80649L82.44500000000005 68.99016L82.14740000000006 69.30025999999998L81.5 70.93684000000002L81.98750000000007 70.19222000000002L83.24380000000008 70.6166L83.9778 70.24054999999998L84.87140000000011 71.05916000000002L87.46570000000008 71.58341000000001L87.31870000000004 71.96370999999999L88.11670000000004 72.24577L89.3624000000001 71.95925999999997L90.00060000000008 72.59028L89.59860000000003 73.35557L89.62220000000002 74.64607000000001L90.68480000000011 75.32315999999997L90.47490000000005 76.12005999999997L89.1196000000001 77.19229000000001L87.90560000000005 76.99916000000002L87.71940000000006 77.40123999999997L87.25570000000005 77.43237999999997L85.1739 78.06534999999997L85.00130000000001 78.92350999999996L84.57030000000009 78.84816999999998L83.3900000000001 77.78001L83.42730000000006 77.34393L81.79560000000004 76.81988999999999L80.81050000000005 77.53627L80.65070000000003 77.94499000000002L81.24730000000011 78.58393000000001L80.95690000000002 79.82249999999999L80.96940000000006 80.22780999999998L80.79730000000006 82.34246999999999L78.61030000000005 82.44484L78.05460000000005 85.20083999999997L77.83780000000002 86.44349L77.16550000000007 89.83375999999998L75.11360000000002 87.36545999999998L73.42710000000011 86.65084000000002L72.93870000000004 87.68552L72.3542000000001 90.22224999999997L70.43090000000007 91.15634L70.19830000000002 91.96078999999997L69.3900000000001 91.62802999999997L69.03030000000001 91.87711999999999L69.51640000000009 90.71006999999997L68.8302000000001 89.65537999999998L68.9833000000001 88.81275999999997L67.76700000000005 89.26137999999997L67.48630000000003 88.92964999999998L66.33750000000009 89.35789L65.1246000000001 89.15271999999999L63.91860000000008 88.56016L63.13250000000005 87.44855000000001L62.5553000000001 84.75416000000001L62.29140000000007 84.74748999999997z">
      <title id="t408">Cinquième circonscription de Seine-Maritime</title>
      <desc id="d408">Cantons de : Caudebec-en-Caux, Duclair, Lillebonne, Notre-Dame-de-Bondeville, Pavilly</desc>
    </path><path class="circo" id="id-076-06" d="M143.2971 36.896169999999984L142.58900000000006 35.39177000000001L141.69360000000006 34.08409L141.04510000000005 30.59953999999999L140.44730000000004 29.488879999999995L140.51930000000004 27.735630000000015L140.40790000000004 27.20315999999997L139.8203000000001 26.087019999999995L139.8437 24.473610000000008L139.3411000000001 23.808519999999987L138.56270000000006 23.559410000000014L138.1064 22.84618999999998L137.36530000000005 21.08463999999998L137.0009 20.932979999999986L136.98430000000008 20.285739999999976L134.3728000000001 18.907870000000003L132.4031000000001 18.154119999999978L131.0344 17.15897000000001L129.97980000000007 16.343459999999993L129.1391000000001 14.791780000000017L128.4438 14.24633L128.13880000000006 12.951880000000017L127.024 12.333300000000008L124.10630000000003 9.921609999999987L123.9606 9.60714999999999L123.04640000000006 7.7957700000000045L121.62520000000006 6.898219999999981L121.22820000000002 7.028129999999976L120.6527000000001 6.427109999999971L119.5385 5.012760000000014L118.2727000000001 4.541639999999973L117.75720000000001 3.824169999999981L118.34280000000001 1.1987100000000055L117.84800000000007 0.9490999999999872L117.3266000000001 0.2504299999999944L116.03330000000005 0L115.19670000000008 0.28791000000001077L114.1024000000001 1.9169999999999732L111.5901 0.8655499999999847L110.69090000000006 1.0363699999999767L108.418 2.620519999999999L108.10760000000005 2.857879999999966L102.32730000000004 7.957279999999969L101.38560000000007 8.89303000000001L99.29740000000004 10.842659999999967L97.05240000000003 12.137009999999975L95.84920000000011 13.693960000000004L93.6558 14.802489999999977L91.86200000000008 15.854679999999973L89.1105 17.322879999999998L87.92540000000008 17.943479999999965L86.61410000000001 17.983499999999992L85.24830000000009 19.14409999999998L82.6952 20.006779999999992L81.50190000000009 20.494579999999985L76.95620000000008 20.139070000000004L75.5974000000001 20.202699999999993L73.34620000000007 21.789350000000013L70.68150000000003 22.635569999999973L71.85260000000005 23.86011000000002L67.99700000000007 25.66480999999999L66.80830000000003 25.161310000000014L66.46680000000003 25.29507000000001L66.4411 26.389849999999967L66.85140000000001 26.354899999999986L67.49060000000009 27.74552L68.41510000000005 27.673000000000002L69.94160000000011 28.728070000000002L72.16520000000003 29.173549999999977L72.2840000000001 28.303139999999985L72.90230000000008 27.768989999999974L73.23880000000008 28.57407999999998L75.83660000000009 27.87117999999998L75.45500000000004 28.96999999999997L77.61670000000004 28.818119999999965L78.3737000000001 29.224040000000002L80.2768000000001 28.889049999999997L80.51830000000007 29.192139999999995L81.17130000000009 30.691930000000013L83.04590000000007 29.694000000000017L83.69440000000009 31.181029999999964L84.09500000000003 31.287120000000016L84.21340000000009 30.09512000000001L84.96940000000006 30.188969999999983L85.66560000000004 29.77269000000001L85.8003000000001 29.338199999999972L86.39140000000009 28.821550000000002L87.78230000000008 29.573249999999973L88.91830000000004 31.040669999999977L90.21010000000001 31.228999999999985L90.95130000000006 29.906229999999994L92.48590000000002 29.002819999999986L92.91850000000011 29.111189999999965L93.78620000000001 28.984370000000013L94.25170000000003 29.548069999999996L95.07120000000009 29.53397000000001L96.03620000000001 30.09933000000001L97.39100000000008 31.72174000000001L96.8007 32.35332L95.28870000000006 31.709349999999972L94.96680000000003 31.98806000000002L95.23750000000007 33.751859999999965L96.05140000000006 34.80921999999998L96.19710000000009 35.61302999999998L97.43100000000004 35.85127L98.49480000000005 35.234249999999975L98.41100000000006 36.029049999999984L99.21710000000007 35.820449999999994L99.29750000000001 36.992549999999994L99.95040000000006 37.538689999999974L100.37470000000008 37.46298999999999L100.94060000000002 38.3544L101.32730000000004 38.39546999999999L101.51560000000006 38.806569999999965L102.81290000000001 38.95544000000001L103.38710000000003 39.651459999999986L104.65980000000002 38.22564999999997L105.32190000000003 39.28661999999997L106.15790000000004 39.44139999999999L106.57870000000003 40.596119999999985L107.3574000000001 40.94616000000002L106.81790000000001 41.97694000000001L107.04250000000002 43.28917999999999L106.09830000000011 44.23014999999998L106.09710000000007 44.67453999999998L107.25700000000006 45.295109999999966L105.29510000000005 45.85948000000002L106.75330000000008 46.88223999999997L106.46250000000009 48.11946999999998L107.37670000000003 48.958669999999984L108.2188000000001 49.796040000000005L108.85880000000009 49.2629L109.50720000000001 51.050189999999986L109.79530000000011 51.028899999999965L109.94410000000005 51.84393L110.75600000000009 51.99709999999999L111.21650000000011 53.14929000000001L112.50170000000003 52.56560999999999L114.7672 51.36036999999999L115.45400000000006 50.31455L116.73800000000006 50.15791999999999L117.94420000000002 50.71515999999997L117.42230000000006 51.36536000000001L118.4525000000001 52.02875999999998L118.74060000000009 53.288509999999974L119.5539 53.534760000000006L119.53060000000005 53.969569999999976L119.02730000000008 54.11034999999998L119.64390000000003 55.21003000000002L121.1517 55.97739999999999L121.02060000000006 57.67644999999999L118.44690000000003 59.365729999999985L116.2813000000001 59.86705999999998L116.19690000000003 59.76853L115.33310000000006 60.02161000000001L114.84620000000007 60.72478000000001L115.2047 61.54867999999999L116.33530000000007 62.24525999999997L116.63770000000011 63.09622999999999L116.7736000000001 63.25385L117.5888000000001 64.06864000000002L116.97730000000001 64.58848L116.65350000000001 67.47431L121.75760000000002 66.27253000000002L122.5580000000001 68.47408999999999L126.33050000000003 67.34012000000001L127.28410000000008 66.43099000000001L127.25400000000002 65.61151999999998L128.58010000000002 64.47992999999997L129.20420000000001 63.95954999999998L129.7196 65.59055000000001L129.16590000000008 66.75497000000001L129.62760000000003 67.47942L130.3882000000001 67.65908000000002L130.76330000000007 68.27663000000001L131.5671000000001 68.58152999999999L131.9352 68.34305999999998L133.0363000000001 67.02350000000001L132.822 66.17318L134.39480000000003 64.65915000000001L135.6399 65.11628000000002L136.76300000000003 66.44619L137.20420000000001 66.49061999999998L138.61990000000003 65.78861L138.3564 64.69833999999997L140.46410000000003 64.46931000000001L140.6536000000001 63.61419000000001L140.52840000000003 63.50313L139.7650000000001 63.82200999999998L139.2646000000001 62.75540999999998L138.2826 62.00668999999999L140.1712 60.3168L140.65930000000003 59.08729999999997L140.28240000000005 57.81963999999999L139.19170000000008 56.93041999999997L138.70420000000001 56.327380000000005L139.50260000000003 56.091219999999964L140.75220000000002 54.05545999999998L140.86720000000003 52.72230000000002L143.25170000000003 51.51893000000001L143.0915000000001 49.567259999999976L142.7699 49.33742000000001L142.48030000000006 48.974699999999984L141.61490000000003 49.208230000000015L140.26920000000007 51.04624000000001L139.47540000000004 51.465329999999994L137.8487 49.845050000000015L139.2555000000001 48.314790000000016L140.0372000000001 48.07162999999997L140.10030000000006 47.237840000000006L139.88340000000005 45.05433999999997L140.13670000000002 44.695719999999994L140.96680000000003 44.867729999999995L142.46180000000004 43.94907999999998L142.6798 43.94671999999997L142.2382 42.41003999999998L142.44730000000004 42.068640000000016L143.05640000000005 40.849440000000016L144.22430000000008 41.48723000000001L146.02800000000002 41.403539999999964L145.69510000000002 40.15053L145.07900000000006 38.975059999999985L143.8523 38.443119999999965L143.2971 36.896169999999984z">
      <title id="t409">Sixième circonscription de Seine-Maritime</title>
      <desc id="d409">Cantons de : Aumale, Blangy-sur-Bresle, Dieppe Est, Dieppe Ouest, Forges-les-Eaux, Envermeu, Eu, Londinières, Neufchâtel-en-Bray, Offranville</desc>
    </path><path class="circo" id="id-076-07" d="M0 72.80396999999999L0.24420000000009168 74.42079999999999L1.398300000000063 74.96413999999999L2.3407000000000835 75.92309999999998L2.096900000000005 76.85491999999999L2.8162000000000944 77.84510999999998L3.2999000000000933 77.61302L4.08260000000007 77.70803000000001L4.1358000000000175 77.30694L4.44640000000004 77.23431999999997L4.581900000000019 76.78231999999997L4.357900000000086 76.52713999999997L4.6299000000000206 76.27195999999998L3.120200000000068 76.07896L3.0405000000000655 75.47739999999999L5.0698000000001 74.59530000000001L5.334600000000023 75.45756999999998L6.744100000000003 75.43387999999999L6.108100000000036 73.82835999999998L5.136600000000044 74.03221000000002L4.5797000000000025 73.33092999999997L3.8891000000000986 73.24162999999999L3.9452 72.62414999999999L4.563800000000015 72.19549L5.144800000000032 71.72393L7.395800000000008 71.87766999999997L7.657700000000091 70.53841L8.462600000000066 70.57887999999997L9.836900000000014 72.00180999999998L10.22020000000009 71.81966L11.109300000000076 72.71702999999997L12.28920000000005 72.31477999999998L12.912000000000035 72.12673999999998L14.169300000000021 71.98347999999999L15.403700000000072 71.68581999999998L15.565300000000093 71.26688000000001L14.9910000000001 70.05376000000001L15.650800000000004 68.92689000000001L16.515700000000038 69.06995L17.54440000000011 69.9119L18.070100000000025 69.2493L17.51400000000001 68.58636999999999L17.719800000000077 67.29608999999999L17.06110000000001 66.97134L17.06600000000003 66.60111L16.389600000000087 66.14028000000002L17.007000000000062 65.53890000000001L16.609500000000025 63.458939999999984L15.77410000000009 63.81466999999998L14.890100000000075 63.61340000000001L14.567700000000059 63.40413000000001L14.547000000000025 62.98043999999999L15.675300000000107 62.42322999999999L14.383800000000065 62.348209999999995L13.328100000000063 61.55156999999997L12.112900000000081 62.71134999999998L11.28830000000005 62.86793L10.991700000000037 64.02341000000001L10.262700000000109 63.82069999999999L10.220500000000015 61.54041999999998L9.02430000000004 61.04302000000001L8.870600000000081 60.82330000000002L8.276800000000094 60.27258999999998L6.451000000000022 61.312839999999994L5.258800000000065 60.83969999999999L3.7866000000000213 63.590719999999976L0.944400000000087 70.01276000000001L0 72.80396999999999z">
      <title id="t410">Septième circonscription de Seine-Maritime</title>
      <desc id="d410">Cantons de : Le Havre I, Le Havre V, Le Havre VI, Le Havre VII, Montivilliers</desc>
    </path><path class="circo" id="id-076-08" d="M12.28920000000005 72.31477999999998L11.109300000000076 72.71702999999997L10.22020000000009 71.81966L9.836900000000014 72.00180999999998L8.462600000000066 70.57887999999997L7.657700000000091 70.53841L7.395800000000008 71.87766999999997L5.144800000000032 71.72393L3.9452 72.62414999999999L3.8891000000000986 73.24162999999999L4.5797000000000025 73.33092999999997L5.136600000000044 74.03221000000002L6.108100000000036 73.82835999999998L6.744100000000003 75.43387999999999L5.334600000000023 75.45756999999998L5.0698000000001 74.59530000000001L3.0405000000000655 75.47739999999999L3.120200000000068 76.07896L4.6299000000000206 76.27195999999998L4.357900000000086 76.52713999999997L4.581900000000019 76.78231999999997L4.44640000000004 77.23431999999997L4.1358000000000175 77.30694L4.08260000000007 77.70803000000001L3.2999000000000933 77.61302L2.8162000000000944 77.84510999999998L2.096900000000005 76.85491999999999L1.8489000000000715 77.3544L4.008300000000077 79.10323999999997L7.051900000000046 79.83465999999999L7.722600000000057 81.13707L7.999700000000075 80.39546999999999L9.510700000000043 80.53879999999998L9.706500000000005 81.32562999999999L10.17840000000001 80.91242L10.889499999999998 81.15393999999998L11.702800000000025 81.43664999999999L12.305900000000065 80.85082999999997L12.7346 81.36957000000001L14.524500000000103 81.51574999999997L15.829900000000066 75.91158000000001L15.344500000000039 74.67735999999996L15.568300000000022 74.29512999999997L18.285900000000083 73.20591999999999L18.22040000000004 72.73260999999997L17.155700000000024 72.16300999999999L16.3986000000001 72.37304999999998L15.403700000000072 71.68581999999998L14.169300000000021 71.98347999999999L12.912000000000035 72.12673999999998L12.28920000000005 72.31477999999998z">
      <title id="t411">Huitième circonscription de Seine-Maritime</title>
      <desc id="d411">Cantons de : Gonfreville-l'Orcher, Le Havre II, Le Havre III, Le Havre IV, Le Havre VIII, Le Havre IX</desc>
    </path><path class="circo" id="id-076-09" d="M34.6853000000001 67.86860000000001L33.474500000000035 69.86185999999998L31.384100000000103 69.21812L30.763400000000047 67.10476L30.320100000000025 67.1311L29.837400000000002 68.25567000000001L29.792500000000018 70.29962999999998L30.653800000000047 70.34926999999999L31.4054000000001 72.73993999999999L32.354200000000105 72.45475999999996L33.60110000000009 75.16544999999996L33.94580000000008 76.95008999999999L35.10400000000004 77.87774000000002L34.6182 78.27911999999998L31.31650000000002 80.42777000000001L30.523300000000063 80.84769L27.174000000000092 82.15028000000001L25.66050000000007 82.57819L23.126300000000015 82.97496000000001L19.427700000000073 83.38659999999999L18.331600000000094 82.46274999999997L18.64390000000003 81.82760000000002L21.032500000000027 81.86682000000002L20.090700000000083 81.72143L18.37530000000004 81.51587999999998L18.09590000000003 82.25801000000001L17.26150000000007 82.09758999999997L15.889400000000023 81.85374999999999L14.524500000000103 81.51574999999997L15.829900000000066 75.91158000000001L15.344500000000039 74.67735999999996L15.568300000000022 74.29512999999997L18.285900000000083 73.20591999999999L18.22040000000004 72.73260999999997L17.155700000000024 72.16300999999999L16.3986000000001 72.37304999999998L15.403700000000072 71.68581999999998L15.565300000000093 71.26688000000001L14.9910000000001 70.05376000000001L15.650800000000004 68.92689000000001L16.515700000000038 69.06995L17.54440000000011 69.9119L18.070100000000025 69.2493L17.51400000000001 68.58636999999999L17.719800000000077 67.29608999999999L17.06110000000001 66.97134L17.06600000000003 66.60111L16.389600000000087 66.14028000000002L17.007000000000062 65.53890000000001L16.609500000000025 63.458939999999984L15.77410000000009 63.81466999999998L14.890100000000075 63.61340000000001L14.567700000000059 63.40413000000001L14.547000000000025 62.98043999999999L15.675300000000107 62.42322999999999L14.383800000000065 62.348209999999995L13.328100000000063 61.55156999999997L12.112900000000081 62.71134999999998L11.28830000000005 62.86793L10.991700000000037 64.02341000000001L10.262700000000109 63.82069999999999L10.220500000000015 61.54041999999998L9.02430000000004 61.04302000000001L8.870600000000081 60.82330000000002L8.276800000000094 60.27258999999998L6.451000000000022 61.312839999999994L5.258800000000065 60.83969999999999L6.488700000000108 58.18630999999999L7.344400000000064 56.033199999999965L7.20920000000001 54.66158999999999L7.892600000000016 52.97080999999997L8.298000000000002 50.775859999999966L9.56090000000006 49.52296999999999L9.796600000000012 49.12583000000001L11.750900000000001 47.31184999999999L13.466600000000085 46.69923L16.827300000000037 45.238699999999994L17.281600000000026 44.97937999999999L19.28480000000002 43.81058999999999L19.7663 43.75153L21.54880000000003 43.566329999999994L23.119300000000067 42.720770000000016L24.545600000000036 41.70997999999997L25.51400000000001 40.15145000000001L27.220600000000104 39.564599999999984L30.73280000000011 37.66917000000001L35.41450000000009 34.77404999999999L37.05640000000005 33.414469999999994L37.88330000000008 33.274689999999964L38.87390000000005 32.51513L39.239700000000084 33.677160000000015L40.12030000000004 34.46424999999999L42.38900000000001 33.330420000000004L42.71730000000002 33.60206999999997L43.064500000000066 33.796249999999986L42.75520000000006 34.52918999999997L42.939500000000066 35.30365999999998L42.86160000000007 35.49437L43.364400000000046 36.53708999999998L43.08260000000007 36.84994999999998L43.41380000000004 38.035030000000006L41.55720000000008 38.82367999999997L42.16510000000005 39.75016999999997L42.714200000000005 40.764700000000005L43.33850000000007 41.74129999999997L43.97930000000008 42.95033000000001L43.2324000000001 43.321019999999976L42.56260000000009 44.391520000000014L43.530500000000075 45.31457999999998L44.596700000000055 47.235479999999995L44.4049 47.55333000000002L45.99050000000011 50.11126999999999L46.470300000000066 51.530489999999986L46.77290000000005 52.11428000000001L47.533300000000054 52.02744999999999L48.11880000000008 52.509389999999996L49.64710000000002 51.196410000000014L50.838800000000106 50.79372999999998L52.01800000000003 50.885170000000016L52.6812000000001 51.29205000000002L52.638700000000085 52.05372L54.95720000000006 51.93169L55.77060000000006 53.107789999999966L54.766200000000026 54.85329999999999L55.781400000000076 55.69369999999998L55.94160000000011 56.55894000000001L55.882600000000025 57.49153000000001L53.82770000000005 57.47222999999997L52.63560000000007 56.29653000000002L51.31370000000004 56.165520000000015L50.87080000000003 56.471389999999985L50.01890000000003 57.860720000000015L48.94920000000002 58.525019999999984L49.05000000000007 59.02812L49.844100000000026 60.33961999999997L49.830100000000016 60.78224L49.07690000000002 61.23401000000001L49.072500000000105 62.51121999999998L48.49530000000004 63.18054999999998L47.62510000000009 63.214909999999975L47.7333000000001 64.39168999999998L46.5797 64.72352000000001L45.96250000000009 66.19664L45.34980000000007 66.80451L44.17680000000007 66.90870000000001L43.48160000000007 67.95508999999998L44.51210000000003 68.73507999999998L44.45710000000008 69.13020999999998L42.78690000000006 70.04734000000002L42.072 70.17426999999998L41.98350000000005 70.08506999999997L42.84640000000002 69.08082000000002L42.308200000000056 68.42363999999998L41.468000000000075 68.29773L40.62850000000003 69.82688000000002L39.63560000000007 70.68353000000002L38.44640000000004 70.28050000000002L37.85910000000001 70.87725L38.20900000000006 71.13709L38.074100000000044 71.55342000000002L37.63770000000011 71.56376999999998L35.84480000000008 70.34888000000001L35.9448000000001 69.05829L34.96100000000001 67.63824L34.6853000000001 67.86860000000001z">
      <title id="t412">Neuvième circonscription de Seine-Maritime</title>
      <desc id="d412">Cantons de : Bolbec, Criquetot-l'Esneval, Fauville-en-Caux, Fécamp, Goderville, Saint-Romain-de-Colbosc, Valmont</desc>
    </path><path class="circo" id="id-076-10" d="M81.17130000000009 30.691930000000013L80.51830000000007 29.192139999999995L80.2768000000001 28.889049999999997L78.3737000000001 29.224040000000002L77.61670000000004 28.818119999999965L75.45500000000004 28.96999999999997L75.83660000000009 27.87117999999998L73.23880000000008 28.57407999999998L72.90230000000008 27.768989999999974L72.2840000000001 28.303139999999985L72.16520000000003 29.173549999999977L69.94160000000011 28.728070000000002L68.41510000000005 27.673000000000002L67.49060000000009 27.74552L66.85140000000001 26.354899999999986L66.4411 26.389849999999967L66.46680000000003 25.29507000000001L66.80830000000003 25.161310000000014L67.99700000000007 25.66480999999999L71.85260000000005 23.86011000000002L70.68150000000003 22.635569999999973L65.6749000000001 24.086119999999994L64.79130000000009 24.202879999999993L62.39760000000001 25.54028999999997L59.24440000000004 26.406729999999982L58.098100000000045 26.454740000000015L55.41160000000002 26.705190000000016L54.64200000000005 26.249779999999987L51.13790000000006 26.99743000000001L50.055000000000064 27.228740000000016L49.183400000000006 27.40886999999998L45.90680000000009 28.449749999999995L43.73280000000011 29.004410000000007L42.11220000000003 29.863650000000007L39.77330000000006 31.43511000000001L38.87390000000005 32.51513L39.239700000000084 33.677160000000015L40.12030000000004 34.46424999999999L42.38900000000001 33.330420000000004L42.71730000000002 33.60206999999997L43.064500000000066 33.796249999999986L42.75520000000006 34.52918999999997L42.939500000000066 35.30365999999998L42.86160000000007 35.49437L43.364400000000046 36.53708999999998L43.08260000000007 36.84994999999998L43.41380000000004 38.035030000000006L41.55720000000008 38.82367999999997L42.16510000000005 39.75016999999997L42.714200000000005 40.764700000000005L43.33850000000007 41.74129999999997L43.97930000000008 42.95033000000001L43.2324000000001 43.321019999999976L42.56260000000009 44.391520000000014L43.530500000000075 45.31457999999998L44.596700000000055 47.235479999999995L44.4049 47.55333000000002L45.99050000000011 50.11126999999999L46.470300000000066 51.530489999999986L46.77290000000005 52.11428000000001L47.533300000000054 52.02744999999999L48.11880000000008 52.509389999999996L49.64710000000002 51.196410000000014L50.838800000000106 50.79372999999998L52.01800000000003 50.885170000000016L52.6812000000001 51.29205000000002L52.638700000000085 52.05372L54.95720000000006 51.93169L55.77060000000006 53.107789999999966L54.766200000000026 54.85329999999999L55.781400000000076 55.69369999999998L55.94160000000011 56.55894000000001L55.882600000000025 57.49153000000001L53.82770000000005 57.47222999999997L52.63560000000007 56.29653000000002L51.31370000000004 56.165520000000015L50.87080000000003 56.471389999999985L50.01890000000003 57.860720000000015L48.94920000000002 58.525019999999984L49.05000000000007 59.02812L49.844100000000026 60.33961999999997L49.830100000000016 60.78224L49.07690000000002 61.23401000000001L49.072500000000105 62.51121999999998L48.49530000000004 63.18054999999998L47.62510000000009 63.214909999999975L47.7333000000001 64.39168999999998L48.236900000000105 65.00117999999998L49.002500000000055 64.89814000000001L50.4547 65.6397L50.983400000000074 66.74934000000002L52.04000000000008 65.55619999999999L52.99310000000003 66.28366999999997L53.79690000000005 66.36728999999997L53.07770000000005 65.31828999999999L53.27330000000006 64.92842000000002L54.516700000000014 64.88738999999998L56.2274000000001 63.727480000000014L56.62200000000007 63.79381999999998L57.04990000000009 64.94848000000002L58.51870000000008 66.43124999999998L58.87450000000001 67.12925999999999L59.24660000000006 66.95260000000002L60.63850000000002 65.26348999999999L62.55560000000003 64.34345000000002L62.263700000000085 63.61129999999997L62.068500000000085 63.31509L62.25520000000006 61.52834999999999L62.072500000000105 60.87905000000001L62.33590000000004 60.24306999999999L62.24090000000001 58.56018999999998L61.00060000000008 57.36683999999997L61.61710000000005 56.69112999999999L63.8057 58.74074999999999L65.37070000000006 60.13772L65.44680000000005 60.20988L67.11740000000009 61.40832999999998L67.94740000000002 59.91757000000001L68.21000000000004 59.80081000000001L69.20900000000006 62.23253999999997L70.9067 62.36736000000002L70.97120000000007 59.78794999999997L70.35940000000005 58.63184000000001L71.09320000000002 58.27017000000001L72.7274000000001 58.00862000000001L73.42700000000002 58.44313L74.66890000000001 58.481449999999995L75.26420000000007 57.30029999999999L76.60690000000011 57.49678L76.88330000000008 58.77789000000001L77.9529 59.53472999999997L77.88430000000005 61.228759999999966L77.7142 62.075019999999995L78.02650000000006 62.375879999999995L79.17230000000006 61.896259999999984L80.09360000000004 61.04052999999999L79.5974000000001 59.87139000000002L80.02100000000007 58.66714000000002L79.14470000000006 56.663689999999974L78.15380000000005 56.19689999999997L79.29450000000008 54.260699999999986L80.90910000000008 55.04840999999999L81.3284000000001 56.00432000000001L82.70830000000001 56.131519999999966L84.22620000000006 57.14042999999998L85.63920000000007 58.58983999999998L85.09120000000007 59.22244999999998L84.17590000000007 58.35323999999997L84.04140000000007 57.56738999999999L83.2849000000001 57.85034999999999L83.32820000000004 58.271619999999984L83.43970000000002 59.69256999999999L83.52010000000007 60.232969999999966L82.30310000000009 60.66654L79.99700000000007 62.57207999999997L79.14280000000008 63.56515000000002L79.68600000000004 64.36455999999998L81.52970000000005 65.58019000000002L82.81690000000003 65.88862L82.74220000000003 66.2416L83.79530000000011 66.35444999999999L83.70720000000006 67.45229L82.06560000000002 67.80649L82.44500000000005 68.99016L82.14740000000006 69.30025999999998L81.5 70.93684000000002L81.98750000000007 70.19222000000002L83.24380000000008 70.6166L83.9778 70.24054999999998L84.87140000000011 71.05916000000002L87.46570000000008 71.58341000000001L87.31870000000004 71.96370999999999L88.11670000000004 72.24577L89.3624000000001 71.95925999999997L90.00060000000008 72.59028L91.09150000000011 73.35660999999999L93.18520000000001 74.06185999999997L93.4199000000001 74.92120999999997L94.08510000000001 75.48113999999998L94.64710000000002 75.7387L95.16660000000002 75.26204000000001L98.20570000000009 73.13443999999998L98.5621000000001 73.06516999999997L98.572 71.78077000000002L100.02790000000005 71.68700000000001L100.10170000000005 71.30734999999999L99.3931 69.80081999999999L100.59340000000009 68.64468L101.0027 68.83110999999997L101.29810000000009 68.49007L101.90410000000008 67.84541000000002L102.68540000000007 65.74901999999997L102.36530000000005 64.59766000000002L102.7600000000001 64.48293999999999L103.28580000000011 63.37068999999997L106.59070000000008 62.64407L106.84270000000004 61.38551000000001L107.6726000000001 61.88195999999999L108.08010000000002 61.64101999999997L110.49390000000005 60.970349999999996L111.04590000000007 60.369399999999985L112.15970000000004 60.49743999999998L113.30460000000005 59.32191L112.65410000000008 57.806640000000016L113.53590000000008 57.96438999999998L114.69170000000008 59.29514L115.56410000000005 59.16444999999999L116.19690000000003 59.76853L116.2813000000001 59.86705999999998L118.44690000000003 59.365729999999985L121.02060000000006 57.67644999999999L121.1517 55.97739999999999L119.64390000000003 55.21003000000002L119.02730000000008 54.11034999999998L119.53060000000005 53.969569999999976L119.5539 53.534760000000006L118.74060000000009 53.288509999999974L118.4525000000001 52.02875999999998L117.42230000000006 51.36536000000001L117.94420000000002 50.71515999999997L116.73800000000006 50.15791999999999L115.45400000000006 50.31455L114.7672 51.36036999999999L112.50170000000003 52.56560999999999L111.21650000000011 53.14929000000001L110.75600000000009 51.99709999999999L109.94410000000005 51.84393L109.79530000000011 51.028899999999965L109.50720000000001 51.050189999999986L108.85880000000009 49.2629L108.2188000000001 49.796040000000005L107.37670000000003 48.958669999999984L106.46250000000009 48.11946999999998L106.75330000000008 46.88223999999997L105.29510000000005 45.85948000000002L107.25700000000006 45.295109999999966L106.09710000000007 44.67453999999998L106.09830000000011 44.23014999999998L107.04250000000002 43.28917999999999L106.81790000000001 41.97694000000001L107.3574000000001 40.94616000000002L106.57870000000003 40.596119999999985L106.15790000000004 39.44139999999999L105.32190000000003 39.28661999999997L104.65980000000002 38.22564999999997L103.38710000000003 39.651459999999986L102.81290000000001 38.95544000000001L101.51560000000006 38.806569999999965L101.32730000000004 38.39546999999999L100.94060000000002 38.3544L100.37470000000008 37.46298999999999L99.95040000000006 37.538689999999974L99.29750000000001 36.992549999999994L99.21710000000007 35.820449999999994L98.41100000000006 36.029049999999984L98.49480000000005 35.234249999999975L97.43100000000004 35.85127L96.19710000000009 35.61302999999998L96.05140000000006 34.80921999999998L95.23750000000007 33.751859999999965L94.96680000000003 31.98806000000002L95.28870000000006 31.709349999999972L96.8007 32.35332L97.39100000000008 31.72174000000001L96.03620000000001 30.09933000000001L95.07120000000009 29.53397000000001L94.25170000000003 29.548069999999996L93.78620000000001 28.984370000000013L92.91850000000011 29.111189999999965L92.48590000000002 29.002819999999986L90.95130000000006 29.906229999999994L90.21010000000001 31.228999999999985L88.91830000000004 31.040669999999977L87.78230000000008 29.573249999999973L86.39140000000009 28.821550000000002L85.8003000000001 29.338199999999972L85.66560000000004 29.77269000000001L84.96940000000006 30.188969999999983L84.21340000000009 30.09512000000001L84.09500000000003 31.287120000000016L83.69440000000009 31.181029999999964L83.04590000000007 29.694000000000017L81.17130000000009 30.691930000000013z">
      <title id="t413">Dixième circonscription de Seine-Maritime</title>
      <desc id="d413">Cantons de : Bacqueville-en-Caux, Bellencombre, Cany-Barville, Clères, Doudeville, Fontaine-le-Dun, Longueville-sur-Scie, Ourville-en-Caux, Saint-Saëns, Saint-Valery-en-Caux, Tôtes, Yerville, Yvetot</desc>
    </path></svg>