<svg xmlns="http://www.w3.org/2000/svg" version="1.1" xmlns:xlink="http://www.w3.org/1999/xlink" xmlns:svgjs="http://svgjs.dev/svgjs" viewBox="0 0 172.02800000000002 223.03800000000004"><path class="circo" id="id-077-01" d="M47.11850000000004 122.30807999999999L48.987100000000055 121.27189999999999L49.34900000000016 119.83104L47.88570000000004 117.13323L48.30210000000011 114.13263000000003L47.75260000000003 114.14045000000002L45.615800000000036 116.13998000000001L43.56470000000013 115.31123L43.32050000000004 113.85573000000002L40.09550000000013 113.06821L38.59879999999998 113.01428999999999L38.61570000000006 115.98969000000002L37.31809999999996 117.81183999999999L38.330799999999954 118.72019000000003L38.919200000000046 120.72249000000002L38.57950000000005 125.16283999999999L35.06809999999996 126.76655000000002L37.48009999999999 128.38525L38.068899999999985 129.74685000000002L37.314800000000105 130.88340000000002L35.41740000000004 132.51309L32.290100000000166 134.75764L30.812400000000025 135.13447L28.9045000000001 134.07604L27.650499999999965 132.13215L24.92100000000005 130.70874L23.160100000000057 130.34295L21.060300000000097 129.57978L20.29560000000015 128.31443L20.541300000000092 126.85994000000002L22.605000000000018 124.70144000000002L22.957800000000134 123.32851000000002L20.58789999999999 122.21844999999999L18.82899999999995 123.37298000000001L18.569500000000062 124.81584999999998L15.814399999999978 129.0875L17.313499999999976 129.15249000000003L15.562400000000025 134.82016000000002L16.93010000000004 135.14698L17.25890000000004 136.52048L17.960000000000036 136.54237000000003L17.70309999999995 139.69391L17.448399999999992 141.24738L16.279600000000073 142.184L16.79390000000012 147.33379L15.862800000000107 147.80296L15.611400000000003 148.20189000000002L16.516700000000128 149.07661L16.56809999999996 150.24976999999998L16.659400000000005 154.30996000000002L18.475599999999986 154.79601L22.874900000000025 160.64683L23.219800000000077 161.92126L26.99680000000012 164.35236L29.946800000000167 156.96260000000004L30.46029999999996 153.34717000000003L30.382500000000164 152.61964000000003L33.558899999999994 150.85506L35.19540000000006 148.46253L37.38890000000015 145.61364L35.20320000000015 140.70072000000002L35.739700000000084 139.34935L36.76670000000013 139.89452000000003L39.43550000000005 140.97271000000003L40.312000000000126 139.09204000000003L41.552000000000135 141.73041000000003L41.74420000000009 141.26009000000002L41.5159000000001 140.77926L44.378000000000156 138.77426L45.797000000000025 138.62228000000002L46.846900000000005 136.81735L49.92990000000009 136.71401L50.38550000000009 135.28471L48.63319999999999 132.91078000000002L47.23929999999996 132.34742000000003L47.43810000000008 130.85012000000003L48.59140000000002 130.14885999999998L48.41650000000004 128.84538L49.674600000000055 128.23827000000003L48.96100000000001 123.61208000000002L47.11850000000004 122.30807999999999z">
      <title id="t414">Première circonscription de Seine-et-Marne</title>
      <desc id="d414">Cantons de : Melun Nord, Melun Sud, Perthes</desc>
    </path><path class="circo" id="id-077-02" d="M8.788300000000163 194.23022L7.710000000000036 193.32854L7.064499999999953 193.61281L5.667500000000018 193.04536L4.339300000000094 191.24242999999998L4.101599999999962 190.61440000000002L4.1983000000000175 183.38179L1.5222000000001117 178.60865000000004L0.44820000000004256 177.48821L0 175.23812L1.3198999999999614 175.87253L4.084800000000087 174.95315000000002L6.130300000000034 175.53463000000002L5.614700000000084 172.65005L7.212200000000166 170.49245L5.539500000000089 169.4211L7.192800000000034 168.01751L8.616500000000087 168.27591000000004L8.498199999999997 166.81856000000002L13.322000000000116 164.87093000000002L12.046100000000024 163.10448L13.850599999999986 161.67004L16.874000000000024 162.09743L19.13720000000012 160.06369000000004L22.874900000000025 160.64683L23.219800000000077 161.92126L26.99680000000012 164.35236L29.946800000000167 156.96260000000004L30.46029999999996 153.34717000000003L30.382500000000164 152.61964000000003L33.558899999999994 150.85506L35.19540000000006 148.46253L37.38890000000015 145.61364L35.20320000000015 140.70072000000002L35.739700000000084 139.34935L36.76670000000013 139.89452000000003L39.43550000000005 140.97271000000003L40.312000000000126 139.09204000000003L41.552000000000135 141.73041000000003L41.74420000000009 141.26009000000002L42.89700000000016 142.3212L45.182199999999966 142.82984000000002L52.095800000000054 141.5932L52.68880000000013 141.81208L52.498600000000124 142.41669L54.580799999999954 142.8138L55.51279999999997 143.98695L55.992300000000114 147.20978L58.11740000000009 148.24513L58.66300000000001 149.58941000000002L59.94470000000001 150.26006000000004L62.68399999999997 150.10889L63.32940000000008 155.25487L61.23220000000015 155.06141L60.84960000000001 155.57954000000004L60.521400000000085 156.98355L58.547199999999975 157.87073999999998L53.48289999999997 158.4306L52.75829999999996 159.32880000000003L56.237100000000055 159.27624L56.7799 159.77767000000003L57.06950000000006 163.2793L57.423300000000154 165.57005L59.73880000000008 167.4806L60.624300000000176 169.39681L59.39910000000009 172.71946L48.54300000000012 171.46959999999999L50.11419999999998 177.98706L51.57809999999995 177.83804L52.35390000000007 175.91855999999999L55.046600000000126 174.87553L56.274400000000014 176.53092999999998L56.38200000000006 178.59374L57.74680000000012 180.8325L57.625099999999975 182.20515000000003L56.975400000000036 182.43702L60.75150000000008 183.67699000000002L61.08619999999996 185.05796999999998L63.89460000000008 184.75149000000002L66.06780000000003 186.59056999999999L68.52150000000006 187.41144L70.88490000000002 184.62590000000003L73.57280000000014 186.31366L78.33169999999996 176.29206000000002L77.32290000000012 175.15448L79.8442 171.61292L80.76950000000011 170.62911L80.77080000000001 174.91311L82.05220000000008 175.47059L82.11059999999998 176.19282L85.58799999999997 180.32287L85.13850000000002 178.14428L88.0489 177.58117000000001L90.6087 176.17437000000004L91.269 178.26948000000002L91.17070000000012 181.21048L92.17380000000003 181.58865L93.91650000000004 183.07327L92.81950000000006 184.02087000000003L94.25210000000015 186.45501L93.51580000000013 188.62800000000001L96.31780000000003 189.47294000000002L96.88890000000015 194.39167L94.68949999999995 194.60441L91.75009999999997 200.51842000000002L90.74030000000016 203.33181L89.42849999999999 204.01481000000004L88.22199999999998 203.42191L85.66450000000009 204.66626L85.55989999999997 206.71242000000004L83.26150000000007 207.08288000000002L80.20540000000005 210.12042L80.43669999999997 213.54203000000004L75.07370000000014 214.41948L70.77700000000004 215.07586L70.16060000000016 215.17275000000004L67.75630000000001 218.17265L63.36670000000004 221.01713000000004L60.632500000000164 220.61875L60.19990000000007 219.30392000000003L60.33990000000017 215.71006000000003L61.81950000000006 214.11267L61.893600000000106 213.39237L60.125 212.51482000000001L58.83560000000011 213.11879000000002L57.46600000000012 212.6616L56.324800000000096 213.55067L54.87630000000013 213.3753L53.577400000000125 213.98586000000003L50.87480000000005 212.89529000000002L53.51430000000005 216.08843L53.65380000000005 217.4741L48.81280000000015 219.30059000000003L46.45950000000016 222.09052L41.865800000000036 222.01277000000002L40.69560000000001 223.0103L40.27819999999997 223.03800000000004L36.56920000000014 218.95957L31.340599999999995 220.53988L27.430700000000115 220.54809000000003L26.35050000000001 218.54606000000004L21.46199999999999 218.61167000000003L19.128400000000056 221.29341000000002L19.200199999999995 222.0028L12.597800000000007 221.14163L9.846099999999979 221.91572L9.388400000000047 222.40731000000002L7.441299999999956 221.94253L7.672500000000127 220.617L10.162800000000061 219.12421000000003L11.789899999999989 216.83184000000003L11.753200000000106 215.49170999999998L13.437200000000075 213.29237000000003L16.851499999999987 215.08362000000002L18.12070000000017 213.22054L17.223400000000083 209.65470000000002L18.19399999999996 206.97419L18.91710000000012 206.7721L19.318700000000035 205.69772000000003L18.48940000000016 202.23268L18.003600000000006 202.23179000000002L18.185799999999972 199.44678000000002L17.001999999999953 198.9906L16.831500000000005 196.87021000000001L13.576300000000174 196.77317000000002L12.604500000000144 195.62701L12.48310000000015 194.14115999999999L11.344800000000077 193.15153L8.788300000000163 194.23022z">
      <title id="t415">Deuxième circonscription de Seine-et-Marne</title>
      <desc id="d415">Cantons de : La Chapelle-la-Reine, Château-Landon, Fontainebleau, Lorrez-le-Bocage-Préaux, Nemours</desc>
    </path><path class="circo" id="id-077-03" d="M45.182199999999966 142.82984000000002L42.89700000000016 142.3212L41.74420000000009 141.26009000000002L41.5159000000001 140.77926L44.378000000000156 138.77426L45.797000000000025 138.62228000000002L46.846900000000005 136.81735L49.92990000000009 136.71401L50.38550000000009 135.28471L48.63319999999999 132.91078000000002L47.23929999999996 132.34742000000003L47.43810000000008 130.85012000000003L48.59140000000002 130.14885999999998L48.41650000000004 128.84538L49.674600000000055 128.23827000000003L48.96100000000001 123.61208000000002L47.11850000000004 122.30807999999999L48.987100000000055 121.27189999999999L49.34900000000016 119.83104L47.88570000000004 117.13323L48.30210000000011 114.13263000000003L47.75260000000003 114.14045000000002L48.502500000000055 110.13565000000003L51.23630000000003 108.47785999999999L52.061300000000074 106.70997000000003L51.49720000000002 105.46555000000004L52.27800000000002 104.81262999999998L54.953899999999976 106.11106000000004L57.513800000000174 103.40571000000003L58.1893 103.04126L59.62630000000013 103.56107L60.933700000000044 104.55431999999999L62.41390000000001 104.79047L62.72649999999999 105.47429000000002L61.04020000000014 106.96197000000004L65.68990000000008 104.72891000000001L67.1844000000001 105.10833L67.48530000000005 103.9761L68.86509999999998 104.25952000000004L70.48919999999998 103.02447000000004L72.4353000000001 103.36563000000004L74.22929999999997 99.82057L74.91210000000001 99.65463000000003L77.17290000000003 104.59797L78.28860000000009 104.09744000000003L79.44129999999996 104.46477999999999L78.97829999999999 107.32004000000003L78.12630000000013 108.48817L79.25400000000013 110.33880000000002L81.94970000000012 109.03236000000001L83.35480000000007 109.58903000000001L84.17020000000002 110.87462000000002L87.8279 110.81307999999999L88.51620000000003 110.86724000000001L87.8623 112.06877L88.93180000000007 114.59357000000003L91.61370000000011 113.15520000000001L95.19600000000014 114.56046L95.13030000000003 117.84714L94.98720000000003 119.78789000000003L94.2192 119.84783000000002L92.58670000000006 122.34047000000001L87.42910000000006 123.40582000000003L86.16090000000008 124.2827L85.606 125.70177000000004L84.48870000000011 131.72419L82.16460000000006 133.67394L80.03660000000013 134.52299000000002L79.10410000000002 137.46978L79.33900000000017 138.20628000000002L80.84670000000006 138.46406L80.4964 141.11217000000002L82.55140000000006 140.65296000000004L86.02020000000016 141.82970000000003L88.89239999999995 146.87372000000002L89.25860000000011 148.99611000000002L91.89049999999997 147.6161L93.13350000000014 151.97501000000003L96.33950000000004 153.80294L98.94870000000014 153.39573L99.88370000000009 154.19853000000003L99.94219999999996 155.73617L102.18000000000006 160.54079L101.10010000000011 161.55156000000002L100.98350000000005 166.36551L103.63290000000006 167.02113L107.13220000000001 166.43897L107.96440000000007 167.9485L106.81500000000005 168.8878L105.14760000000001 172.20324000000002L104.58320000000003 171.73797L104.46119999999996 170.37050000000002L102.99400000000014 170.44485L101.77510000000007 169.68459L99.71820000000002 170.37741000000003L97.16710000000012 169.86309000000003L95.40039999999999 174.05416L95.85400000000004 176.78227L92.17380000000003 181.58865L91.17070000000012 181.21048L91.269 178.26948000000002L90.6087 176.17437000000004L88.0489 177.58117000000001L85.13850000000002 178.14428L85.58799999999997 180.32287L82.11059999999998 176.19282L82.05220000000008 175.47059L80.77080000000001 174.91311L80.76950000000011 170.62911L79.8442 171.61292L77.32290000000012 175.15448L78.33169999999996 176.29206000000002L73.57280000000014 186.31366L70.88490000000002 184.62590000000003L68.52150000000006 187.41144L66.06780000000003 186.59056999999999L63.89460000000008 184.75149000000002L61.08619999999996 185.05796999999998L60.75150000000008 183.67699000000002L56.975400000000036 182.43702L57.625099999999975 182.20515000000003L57.74680000000012 180.8325L56.38200000000006 178.59374L56.274400000000014 176.53092999999998L55.046600000000126 174.87553L52.35390000000007 175.91855999999999L51.57809999999995 177.83804L50.11419999999998 177.98706L48.54300000000012 171.46959999999999L59.39910000000009 172.71946L60.624300000000176 169.39681L59.73880000000008 167.4806L57.423300000000154 165.57005L57.06950000000006 163.2793L56.7799 159.77767000000003L56.237100000000055 159.27624L52.75829999999996 159.32880000000003L53.48289999999997 158.4306L58.547199999999975 157.87073999999998L60.521400000000085 156.98355L60.84960000000001 155.57954000000004L61.23220000000015 155.06141L63.32940000000008 155.25487L62.68399999999997 150.10889L59.94470000000001 150.26006000000004L58.66300000000001 149.58941000000002L58.11740000000009 148.24513L55.992300000000114 147.20978L55.51279999999997 143.98695L54.580799999999954 142.8138L52.498600000000124 142.41669L52.68880000000013 141.81208L52.095800000000054 141.5932L45.182199999999966 142.82984000000002z">
      <title id="t416">Troisième circonscription de Seine-et-Marne</title>
      <desc id="d416">Cantons de : Le Châtelet-en-Brie, Montereau-Fault-Yonne, Moret-sur-Loing, Mormant</desc>
    </path><path class="circo" id="id-077-04" d="M141.86080000000015 165.72524L141.06650000000013 166.92139L139.62080000000014 166.93521L138.67129999999997 167.17138000000003L136.68769999999995 166.33413L135.97090000000003 166.30317L135.79840000000013 166.99554000000003L131.72960000000012 165.10939L131.49919999999997 165.82764L130.10350000000017 165.79068000000004L126.97469999999998 168.73445L123.34609999999998 167.58988000000002L121.57339999999999 168.17977L120.08799999999997 168.93477L118.50770000000011 167.77932L117.20309999999995 168.06046L116.61730000000011 166.62933L115.26089999999999 165.93517L114.60910000000013 167.19565000000003L111.27449999999999 168.24431L110.53790000000004 167.06544L107.96440000000007 167.9485L107.13220000000001 166.43897L103.63290000000006 167.02113L100.98350000000005 166.36551L101.10010000000011 161.55156000000002L102.18000000000006 160.54079L99.94219999999996 155.73617L99.88370000000009 154.19853000000003L98.94870000000014 153.39573L96.33950000000004 153.80294L93.13350000000014 151.97501000000003L91.89049999999997 147.6161L89.25860000000011 148.99611000000002L88.89239999999995 146.87372000000002L86.02020000000016 141.82970000000003L82.55140000000006 140.65296000000004L80.4964 141.11217000000002L80.84670000000006 138.46406L79.33900000000017 138.20628000000002L79.10410000000002 137.46978L80.03660000000013 134.52299000000002L82.16460000000006 133.67394L84.48870000000011 131.72419L85.606 125.70177000000004L86.16090000000008 124.2827L87.42910000000006 123.40582000000003L92.58670000000006 122.34047000000001L94.2192 119.84783000000002L94.98720000000003 119.78789000000003L95.13030000000003 117.84714L95.19600000000014 114.56046L91.61370000000011 113.15520000000001L88.93180000000007 114.59357000000003L87.8623 112.06877L88.51620000000003 110.86724000000001L87.8279 110.81307999999999L84.17020000000002 110.87462000000002L83.35480000000007 109.58903000000001L81.94970000000012 109.03236000000001L79.25400000000013 110.33880000000002L78.12630000000013 108.48817L78.97829999999999 107.32004000000003L79.44129999999996 104.46477999999999L78.28860000000009 104.09744000000003L77.17290000000003 104.59797L74.91210000000001 99.65463000000003L74.49040000000014 98.17449000000002L68.33519999999999 97.82756000000003L65.70100000000002 99.4L64.11480000000006 97.81009000000003L62.55790000000002 97.68264000000002L63.38300000000004 93.87655000000004L65.78830000000016 91.98490999999999L67.30660000000012 88.35107000000002L67.50570000000016 87.30236L65.67800000000011 86.24123L62.868600000000015 86.0316L62.02320000000009 83.10319999999999L59.66110000000003 81.15816000000004L60.568899999999985 79.00525999999999L62.202999999999975 77.52396999999999L60.739900000000034 75.76559L59.72199999999998 72.87964000000002L56.86419999999998 69.47901000000002L56.11920000000009 67.36048000000002L58.018400000000156 65.20379L60.62810000000013 64.86774L60.727100000000064 64.96053L62.12779999999998 64.38320000000002L65.07550000000015 64.71612000000002L66.36329999999998 64.00422L67.61760000000004 64.73926L68.61519999999996 64.99174000000002L70.20270000000005 67.43929L71.44060000000013 68.21094000000002L73.47610000000009 65.13147000000001L73.98880000000008 63.01143000000002L76.22500000000014 62.721600000000024L77.80930000000012 63.534250000000014L77.68080000000009 65.89405000000002L79.66540000000009 66.66986L79.93780000000015 67.34004000000002L79.59640000000013 70.83831L80.30910000000017 70.64163000000002L80.44200000000001 75.68860000000004L80.93140000000017 76.13631000000001L83.24320000000012 75.29922000000002L84.73260000000005 75.46395000000004L85.74160000000006 77.48582000000002L87.22260000000006 77.26951L88.79230000000007 79.47280000000003L91.89190000000008 82.54565L92.87340000000017 82.93703000000002L95.13630000000012 82.58894000000001L97.07220000000007 83.81838000000002L97.51930000000016 86.07552999999999L98.85770000000002 86.85688999999999L99.02400000000011 87.61305999999999L101.69740000000002 88.16587999999999L102.41530000000012 88.06994L102.42409999999995 87.34407999999999L105.80880000000002 86.57192L107.51340000000005 80.07536999999999L108.97980000000007 80.30957000000004L109.76600000000008 81.56190000000001L112.05250000000001 79.84902000000002L110.26400000000012 77.44049000000004L110.08420000000001 74.44098L113.90290000000005 74.21002000000001L114.29169999999999 67.29894000000002L114.04989999999998 67.35708000000002L114.70190000000002 64.79497L114.20260000000007 63.56952000000001L113.69630000000006 62.94830000000002L110.9511 63.69061000000002L108.25480000000016 62.92022L108.18039999999996 61.37413000000001L106.07630000000017 57.391430000000014L106.21320000000014 56.00062L108.27999999999997 55.89652000000001L107.7219 55.45093L107.8311000000001 54.03378000000001L110.57670000000007 52.08888000000002L109.57619999999997 50.98887000000002L110.77650000000017 47.28689L112.81850000000009 46.14345L113.66840000000002 43.93951000000001L117.83590000000004 39.53188L122.07130000000006 41.77789000000001L120.91740000000004 44.5172L120.89589999999998 45.73731000000001L122.2813000000001 46.10137L125.28650000000016 47.00228000000001L127.17949999999996 48.11503000000002L129.79240000000004 47.29612L131.56799999999998 48.39288000000002L133.30280000000016 48.935250000000025L134.44849999999997 47.84913L136.1513 44.27236000000002L138.68330000000014 47.25517000000002L143.34120000000007 44.64502000000002L144.18859999999995 42.56433000000001L145.33169999999996 47.07047L144.61519999999996 50.105620000000016L146.18820000000005 51.84870000000001L146.39280000000008 54.97609L147.05830000000014 55.39989L149.8714 54.469750000000005L148.8424 56.59746000000001L150.26430000000005 57.207340000000016L152.4158 56.339170000000024L153.22289999999998 57.66365000000002L156.72910000000002 58.87199000000001L155.71320000000014 61.808700000000016L158.16710000000012 62.87775000000002L159.38620000000014 60.16493L161.60260000000017 59.859080000000006L162.50430000000006 63.627250000000004L161.61040000000003 65.79165L161.90070000000014 68.10810000000001L160.9719 68.78111000000001L160.07360000000017 67.16798L159.38840000000005 66.86681000000002L155.58300000000008 68.86846L153.41970000000015 68.59606000000002L151.4619 67.51499000000001L149.9145000000001 69.21966L150.11800000000017 69.95974000000001L152.1304 70.97593L155.0444 71.18584000000001L155.30550000000017 74.18131000000002L155.23900000000003 74.9177L153.22569999999996 75.80283L151.94939999999997 75.08759L150.4819 75.17263L148.58090000000016 80.18171000000004L148.87350000000015 81.61573999999999L150.33320000000003 82.09326999999999L153.1866 81.13191000000003L154.41710000000012 82.02441999999999L154.44870000000014 84.26153000000002L155.32490000000007 85.47263000000001L158.97170000000006 85.28785000000002L158.87599999999998 87.49762000000001L158.9366 88.82653000000002L158.91560000000004 92.71900000000002L160.5073 94.41136000000003L159.73490000000015 94.52360000000002L159.4842000000001 96.79901000000004L157.37509999999997 97.78791000000004L155.3194000000001 100.10496000000003L155.83450000000016 101.36071000000001L155.29930000000013 101.92964000000003L157.70190000000002 104.85719000000003L156.5607 108.57879L160.35550000000012 107.93500000000003L162.6304 105.82503L166.4398000000001 106.52198000000001L168.70810000000006 105.92506L166.56780000000003 108.12319L166.9366 108.80188999999999L169.87920000000008 109.59061L172.0172 111.79294000000002L172.02800000000002 112.53763000000001L165.05200000000013 115.09787000000003L164.61069999999995 115.70659000000003L166.0435 118.34461000000002L162.63390000000004 118.82775000000001L161.61990000000014 120.69745000000003L159.21220000000017 122.35366000000002L158.69360000000006 122.92759000000004L161.18520000000012 127.54735000000002L161.09349999999995 129.41361000000003L159.75350000000003 129.72897000000003L156.50369999999998 132.26926L154.4027000000001 132.29563L151.1119000000001 131.19717L149.80349999999999 132.41375000000002L152.67679999999996 135.90751000000003L154.16769999999997 139.371L154.12740000000008 140.84420000000003L152.0385000000001 140.73262000000003L149.5594000000001 141.79534000000004L146.6531 143.57113999999999L148.60699999999997 145.77601L148.5335 147.26642L149.85040000000004 149.08843L149.62090000000012 152.13796L148.52160000000003 153.19111999999998L147.95749999999998 155.34555000000003L150.75510000000008 156.21393000000003L149.73320000000012 157.51963000000003L152.06330000000003 157.52184000000003L152.09180000000015 158.95502000000002L151.19280000000003 163.1303L149.03840000000014 162.93881000000002L146.8134 161.21658L145.36879999999996 161.25578L144.02470000000017 162.86041000000003L143.6726000000001 166.45856L142.5507 167.23038L142.58130000000006 165.76242L141.86080000000015 165.72524z">
      <title id="t417">Quatrième circonscription de Seine-et-Marne</title>
      <desc id="d417">Cantons de : Bray-sur-Seine, Donnemarie-Dontilly, La Ferté-Gaucher, Nangis, Provins, Rebais, Rozay-en-Brie, Villiers-Saint-Georges</desc>
    </path><path class="circo" id="id-077-05" d="M106.07630000000017 57.391430000000014L106.21320000000014 56.00062L108.27999999999997 55.89652000000001L107.7219 55.45093L107.8311000000001 54.03378000000001L110.57670000000007 52.08888000000002L109.57619999999997 50.98887000000002L110.77650000000017 47.28689L112.81850000000009 46.14345L113.66840000000002 43.93951000000001L117.83590000000004 39.53188L122.07130000000006 41.77789000000001L120.91740000000004 44.5172L120.89589999999998 45.73731000000001L122.2813000000001 46.10137L125.28650000000016 47.00228000000001L127.17949999999996 48.11503000000002L129.79240000000004 47.29612L131.56799999999998 48.39288000000002L133.30280000000016 48.935250000000025L134.44849999999997 47.84913L136.1513 44.27236000000002L136.02459999999996 41.07579000000001L134.92000000000007 38.06904L131.8179 40.00714000000002L129.70450000000005 40.617230000000006L129.06590000000006 40.25478000000001L128.32920000000013 38.96451000000002L128.7319 38.032550000000015L127.5947000000001 35.07814000000002L126.75300000000016 32.33495000000002L124.04610000000002 31.767440000000022L123.74450000000002 29.13858000000002L123.10329999999999 29.38399000000001L122.87509999999997 28.680210000000017L120.80780000000004 27.92885000000001L120.5585000000001 26.645260000000007L119.2808 25.223120000000023L115.22559999999999 23.711300000000023L113.95960000000014 22.031959999999998L113.26340000000005 23.401049999999998L111.07159999999999 23.662380000000013L110.31619999999998 23.310420000000022L108.5752 23.625850000000014L109.0621000000001 25.031509999999997L108.65840000000003 27.25630000000001L109.44039999999995 28.45935L106.83850000000007 29.334630000000004L106.30590000000007 28.770580000000024L104.18520000000012 29.728290000000015L103.32110000000011 30.969420000000014L98.72690000000011 31.26884000000001L98.61720000000014 32.038700000000006L94.88380000000006 33.37955000000002L93.75700000000006 32.339890000000025L90.9411 31.457870000000014L89.88090000000011 32.52147000000002L90.0281 34.695010000000025L89.6364000000001 35.70360000000002L91.69569999999999 38.68239L90.50639999999999 41.33038000000002L89.38620000000014 42.31203000000002L87.92070000000012 40.72934000000001L85.75870000000009 40.359470000000016L85.53449999999998 39.65909000000002L85.30240000000003 39.78877L83.52629999999999 40.92518000000001L83.55910000000017 41.63563000000002L81.77130000000011 41.99713L80.89599999999996 42.96115L78.66120000000001 42.18396000000001L77.48340000000007 42.90759L77.25770000000011 45.19478000000001L76.00940000000014 45.86601000000002L75.91550000000007 46.564220000000006L74.53989999999999 46.75208000000001L70.0915 45.662150000000025L67.72050000000013 47.572400000000016L67.22780000000012 47.36294000000001L65.67730000000006 48.82682L64.49720000000002 47.87432000000001L63.81600000000003 48.209750000000014L61.25030000000015 45.72493L61.427400000000034 46.38625000000002L60.48530000000005 47.32739000000001L61.38740000000007 51.51449000000002L62.07950000000005 51.737390000000005L60.81510000000003 54.2157L60.3112000000001 57.42762000000002L58.26290000000017 57.98081000000002L56.164600000000064 59.308700000000016L56.496900000000096 60.05346L56.809400000000096 61.475480000000005L56.309600000000046 62.84270000000001L58.018400000000156 65.20379L60.62810000000013 64.86774L60.727100000000064 64.96053L62.12779999999998 64.38320000000002L65.07550000000015 64.71612000000002L66.36329999999998 64.00422L67.61760000000004 64.73926L68.61519999999996 64.99174000000002L70.20270000000005 67.43929L71.44060000000013 68.21094000000002L73.47610000000009 65.13147000000001L73.98880000000008 63.01143000000002L76.22500000000014 62.721600000000024L77.80930000000012 63.534250000000014L77.68080000000009 65.89405000000002L79.66540000000009 66.66986L79.93780000000015 67.34004000000002L79.59640000000013 70.83831L80.30910000000017 70.64163000000002L80.44200000000001 75.68860000000004L80.93140000000017 76.13631000000001L83.24320000000012 75.29922000000002L84.73260000000005 75.46395000000004L85.74160000000006 77.48582000000002L87.22260000000006 77.26951L88.79230000000007 79.47280000000003L91.89190000000008 82.54565L92.87340000000017 82.93703000000002L95.13630000000012 82.58894000000001L97.07220000000007 83.81838000000002L97.51930000000016 86.07552999999999L98.85770000000002 86.85688999999999L99.02400000000011 87.61305999999999L101.69740000000002 88.16587999999999L102.41530000000012 88.06994L102.42409999999995 87.34407999999999L105.80880000000002 86.57192L107.51340000000005 80.07536999999999L108.97980000000007 80.30957000000004L109.76600000000008 81.56190000000001L112.05250000000001 79.84902000000002L110.26400000000012 77.44049000000004L110.08420000000001 74.44098L113.90290000000005 74.21002000000001L114.29169999999999 67.29894000000002L114.04989999999998 67.35708000000002L114.70190000000002 64.79497L114.20260000000007 63.56952000000001L113.69630000000006 62.94830000000002L110.9511 63.69061000000002L108.25480000000016 62.92022L108.18039999999996 61.37413000000001L106.07630000000017 57.391430000000014z">
      <title id="t418">Cinquième circonscription de Seine-et-Marne</title>
      <desc id="d418">Cantons de : Coulommiers, Crécy-la-Chapelle, La Ferté-sous-Jouarre , Communes de : Bailly-Romainvilliers, Magny-le-Hongre, Serris</desc>
    </path><path class="circo" id="id-077-06" d="M56.040300000000116 23.197460000000007L54.70860000000016 23.426540000000017L53.60509999999999 24.143490000000014L53.557199999999966 26.945030000000003L53.392900000000054 28.633800000000008L52.49170000000004 28.64461L49.1889000000001 27.210770000000025L49.58900000000017 26.585080000000005L48.61630000000014 24.65682000000001L47.38180000000011 24.823440000000005L42.989700000000084 23.86121L42.57069999999999 23.252700000000004L42.980800000000045 21.113920000000007L41.00890000000004 19.06567000000001L41.776800000000094 18.90416000000002L42.69230000000016 16.807209999999998L46.20550000000003 15.113740000000007L45.94690000000014 11.927140000000009L49.093000000000075 8.377960000000002L50.669000000000096 12.892380000000003L54.487100000000055 12.318030000000022L58.10149999999999 9.511040000000008L55.59660000000008 7.746030000000019L58.53620000000001 7.833160000000021L57.91110000000003 6.531480000000016L59.05600000000004 6.191420000000022L61.64740000000006 4.521860000000004L64.07529999999997 7.318160000000006L65.48739999999998 7.804259999999999L66.92550000000006 7.37912L68.57330000000002 10.731330000000014L70.91820000000007 10.443080000000009L73.60370000000012 8.811180000000007L74.32050000000004 9.143050000000017L75.28970000000004 7.268259999999998L78.63959999999997 8.864260000000002L80.0743 8.483390000000014L80.66960000000017 8.933570000000003L81.36149999999998 8.742110000000025L81.84400000000005 6.656790000000001L83.17820000000006 7.137310000000014L85.02400000000011 6.076480000000004L85.62940000000003 6.45583000000002L86.10020000000009 9.64691000000002L88.09990000000016 10.202680000000015L88.71070000000009 7.531290000000013L90.43939999999998 6.507980000000003L91.75160000000005 6.043290000000013L94.37290000000007 6.943360000000013L94.94380000000001 6.53758000000002L99.62560000000008 7.303930000000008L98.24480000000017 4.9211500000000115L98.18299999999999 3.532180000000011L100.48440000000005 0L101.58339999999998 1.0898500000000126L106.78860000000009 2.349250000000012L107.7958000000001 1.9568800000000124L108.14750000000004 2.393979999999999L110.35239999999999 2.505340000000018L112.07940000000008 3.863080000000025L114.28819999999996 4.042169999999999L112.89499999999998 7.239350000000002L113.31979999999999 8.389240000000001L114.68029999999999 9.181670000000025L116.72490000000016 12.50648000000001L116.60050000000001 13.86569L118.0498 15.258810000000011L118.04200000000014 15.993220000000008L116.63059999999996 16.533560000000023L115.98710000000005 19.461030000000022L114.03320000000008 20.61262000000002L113.95960000000014 22.031959999999998L113.26340000000005 23.401049999999998L111.07159999999999 23.662380000000013L110.31619999999998 23.310420000000022L108.5752 23.625850000000014L109.0621000000001 25.031509999999997L108.65840000000003 27.25630000000001L109.44039999999995 28.45935L106.83850000000007 29.334630000000004L106.30590000000007 28.770580000000024L104.18520000000012 29.728290000000015L103.32110000000011 30.969420000000014L98.72690000000011 31.26884000000001L98.61720000000014 32.038700000000006L94.88380000000006 33.37955000000002L93.75700000000006 32.339890000000025L90.9411 31.457870000000014L89.88090000000011 32.52147000000002L90.0281 34.695010000000025L89.6364000000001 35.70360000000002L91.69569999999999 38.68239L90.50639999999999 41.33038000000002L89.38620000000014 42.31203000000002L87.92070000000012 40.72934000000001L85.75870000000009 40.359470000000016L85.53449999999998 39.65909000000002L85.30240000000003 39.78877L83.52629999999999 40.92518000000001L83.55910000000017 41.63563000000002L81.77130000000011 41.99713L80.89599999999996 42.96115L78.66120000000001 42.18396000000001L77.48340000000007 42.90759L77.25770000000011 45.19478000000001L76.00940000000014 45.86601000000002L75.91550000000007 46.564220000000006L74.53989999999999 46.75208000000001L70.0915 45.662150000000025L67.72050000000013 47.572400000000016L67.22780000000012 47.36294000000001L65.67730000000006 48.82682L64.49720000000002 47.87432000000001L63.81600000000003 48.209750000000014L61.25030000000015 45.72493L61.093399999999974 45.14661000000001L60.60850000000005 41.71328L58.858900000000176 42.52338L58.28189999999995 42.64041L57.77960000000007 40.4718L59.00570000000016 38.49033L59.102499999999964 33.83615L60.68340000000012 34.524970000000025L59.70939999999996 28.783890000000014L61.249500000000126 28.023960000000017L58.09820000000013 25.458240000000018L56.30670000000009 24.449640000000016L56.474300000000085 23.768110000000007L56.040300000000116 23.197460000000007z">
      <title id="t419">Sixième circonscription de Seine-et-Marne</title>
      <desc id="d419">Cantons de : Lizy-sur-Ourcq, Meaux Nord, Meaux Sud , Communes de : Cuisy, Forfry, Gesvres-le-Chapitre, Juilly, Marchémoret, Montgé-en-Goële, Monthyon, Oissery, Le Plessis-l'Evêque, Rouvres, Saint-Mard, Saint-Pathus, Saint-Soupplets, Vinantes</desc>
    </path><path class="circo" id="id-077-07" d="M49.080900000000156 48.405700000000024L47.012500000000045 48.162300000000016L45.94080000000008 47.01916L43.70230000000015 46.64950000000002L44.45600000000013 49.06009L44.747299999999996 51.888720000000006L46.059799999999996 53.38844L49.5924 52.81952000000001L50.649400000000014 52.93512000000001L49.901600000000144 53.016520000000014L49.877300000000105 55.995210000000014L49.56420000000003 58.09454000000002L46.88930000000005 56.97018L46.94849999999997 59.324870000000004L45.08619999999996 59.32576L42.872100000000046 60.466290000000015L39.92100000000005 60.252340000000004L40.37290000000007 57.52968000000001L39.8732 54.74385000000001L39.7025000000001 54.88413L38.59030000000007 54.16106000000002L38.36940000000004 52.89801L39.20600000000013 49.65417000000002L37.32380000000012 48.197840000000014L34.64890000000014 50.34450000000001L32.55040000000008 48.070700000000016L29.57490000000007 47.31300000000002L29.084100000000035 46.801590000000004L29.57120000000009 43.415340000000015L31.08770000000004 42.44009L31.058899999999994 41.09830000000002L30.102499999999964 40.35609000000002L29.50630000000001 37.93978000000001L25.72530000000006 32.10446000000002L25.65229999999997 31.329000000000008L27.130800000000136 30.89957000000001L27.741400000000112 29.47591L27.131399999999985 26.46359000000001L26.493200000000115 26.18317000000002L25.644900000000007 23.732940000000013L23.762500000000045 24.315269999999998L23.409000000000106 23.684690000000018L21.577200000000175 23.263540000000006L21.0938000000001 21.159700000000015L22.53300000000013 21.431010000000015L25.22790000000009 20.306580000000025L26.16949999999997 17.59993L27.690399999999954 16.041950000000014L29.886400000000094 15.89846L26.626999999999953 13.162530000000004L29.302200000000084 8.559480000000008L31.66450000000009 6.551790000000011L32.2324000000001 5.107470000000006L33.56719999999996 5.214520000000022L35.62390000000005 2.073440000000005L36.7183 4.030190000000005L38.24030000000016 3.9095800000000054L42.28539999999998 7.187880000000007L44.33590000000004 9.256380000000007L44.183300000000145 10.598620000000011L44.0159000000001 11.289300000000026L45.94690000000014 11.927140000000009L46.20550000000003 15.113740000000007L42.69230000000016 16.807209999999998L41.776800000000094 18.90416000000002L41.00890000000004 19.06567000000001L42.980800000000045 21.113920000000007L42.57069999999999 23.252700000000004L42.989700000000084 23.86121L47.38180000000011 24.823440000000005L48.61630000000014 24.65682000000001L49.58900000000017 26.585080000000005L49.1889000000001 27.210770000000025L52.49170000000004 28.64461L53.392900000000054 28.633800000000008L53.557199999999966 26.945030000000003L53.60509999999999 24.143490000000014L54.70860000000016 23.426540000000017L56.040300000000116 23.197460000000007L56.474300000000085 23.768110000000007L56.30670000000009 24.449640000000016L58.09820000000013 25.458240000000018L61.249500000000126 28.023960000000017L59.70939999999996 28.783890000000014L60.68340000000012 34.524970000000025L59.102499999999964 33.83615L59.00570000000016 38.49033L57.77960000000007 40.4718L58.28189999999995 42.64041L56.956699999999955 44.362360000000024L52.9837 43.781300000000016L51.749300000000176 43.92893000000001L50.39580000000001 44.127640000000014L49.585199999999986 48.41808L49.080900000000156 48.405700000000024z">
      <title id="t420">Septième circonscription de Seine-et-Marne</title>
      <desc id="d420">Cantons de : Claye-Souilly, Dammartin-en-Goële (moins les communes de Cuisy, Forfry, Gesvres-le-Chapitre, Juilly, Marchémoret, Montgé-en-Goële, Monthyon, Oissery, Le Plessis-l'Evêque, Rouvres, Saint-Mard, Saint-Pathus, Saint-Soupplets, Vinantes), Lagny-sur-Marne, Mitry-Mory</desc>
    </path><path class="circo" id="id-077-08" d="M40.35440000000017 82.23098000000002L38.20270000000005 82.80312L37.32439999999997 81.57245000000003L37.87270000000012 80.49867000000003L36.718700000000126 79.72920000000002L36.74520000000007 78.51436000000004L37.96659999999997 77.17483000000001L34.565000000000055 74.38914000000003L34.61980000000017 73.64193000000003L35.789400000000114 72.79861000000002L34.7636 70.87716L34.66300000000001 70.82732000000001L34.826500000000124 67.11253000000002L36.341499999999996 64.54787000000002L39.359699999999975 64.21921L36.280300000000125 61.30717000000001L35.040700000000015 58.66544000000002L36.496000000000095 58.24424000000002L39.7025000000001 54.88413L39.8732 54.74385000000001L40.37290000000007 57.52968000000001L39.92100000000005 60.252340000000004L42.872100000000046 60.466290000000015L45.08619999999996 59.32576L46.94849999999997 59.324870000000004L46.88930000000005 56.97018L49.56420000000003 58.09454000000002L49.877300000000105 55.995210000000014L49.901600000000144 53.016520000000014L50.649400000000014 52.93512000000001L49.5924 52.81952000000001L46.059799999999996 53.38844L44.747299999999996 51.888720000000006L44.45600000000013 49.06009L43.70230000000015 46.64950000000002L45.94080000000008 47.01916L47.012500000000045 48.162300000000016L49.080900000000156 48.405700000000024L49.585199999999986 48.41808L50.39580000000001 44.127640000000014L51.749300000000176 43.92893000000001L52.9837 43.781300000000016L56.956699999999955 44.362360000000024L58.28189999999995 42.64041L58.858900000000176 42.52338L60.60850000000005 41.71328L61.093399999999974 45.14661000000001L61.25030000000015 45.72493L61.427400000000034 46.38625000000002L60.48530000000005 47.32739000000001L61.38740000000007 51.51449000000002L62.07950000000005 51.737390000000005L60.81510000000003 54.2157L60.3112000000001 57.42762000000002L58.26290000000017 57.98081000000002L56.164600000000064 59.308700000000016L56.496900000000096 60.05346L56.809400000000096 61.475480000000005L56.309600000000046 62.84270000000001L58.018400000000156 65.20379L56.11920000000009 67.36048000000002L56.86419999999998 69.47901000000002L54.83770000000004 69.87263000000002L53.69530000000009 68.28280000000001L53.026600000000144 68.24642L52.5603000000001 70.41688000000002L50.46420000000012 70.98514L49.63440000000014 72.12473L50.65520000000015 75.76691000000002L49.9538 76.05194000000003L47.534599999999955 77.02920000000003L46.942600000000084 77.50154L47.57899999999995 80.43519L46.07580000000007 83.06531000000004L43.40750000000003 83.20279000000002L41.55709999999999 84.13210999999998L40.35440000000017 82.23098000000002z">
      <title id="t421">Huitième circonscription de Seine-et-Marne</title>
      <desc id="d421">Cantons de : Roissy-en-Brie, Thorigny-sur-Marne (moins les communes de Bailly-Romainvilliers, Magny-le-Hongre et Serris), Torcy</desc>
    </path><path class="circo" id="id-077-09" d="M27.801600000000008 96.30284000000003L26.512699999999995 95.7336L27.40240000000017 94.16713999999999L26.909800000000132 93.72238999999999L26.090400000000045 92.32797000000002L25.991800000000012 91.9356L27.806100000000015 88.79514000000003L29.916600000000017 86.81811000000002L28.89319999999998 84.06642000000002L30.637100000000146 82.57101000000003L30.34030000000007 80.36744000000002L32.89470000000006 80.24361000000002L31.655899999999974 77.50962999999999L29.379000000000133 77.72905L28.801100000000133 77.21545L30.528400000000147 73.00782000000001L29.4529 72.10900000000001L30.185600000000022 70.15463L29.56190000000015 69.84883000000002L30.081699999999955 68.31536L30.83789999999999 68.08945L34.66300000000001 70.82732000000001L34.7636 70.87716L35.789400000000114 72.79861000000002L34.61980000000017 73.64193000000003L34.565000000000055 74.38914000000003L37.96659999999997 77.17483000000001L36.74520000000007 78.51436000000004L36.718700000000126 79.72920000000002L37.87270000000012 80.49867000000003L37.32439999999997 81.57245000000003L38.20270000000005 82.80312L40.35440000000017 82.23098000000002L41.55709999999999 84.13210999999998L43.40750000000003 83.20279000000002L46.07580000000007 83.06531000000004L47.57899999999995 80.43519L46.942600000000084 77.50154L47.534599999999955 77.02920000000003L49.9538 76.05194000000003L50.65520000000015 75.76691000000002L49.63440000000014 72.12473L50.46420000000012 70.98514L52.5603000000001 70.41688000000002L53.026600000000144 68.24642L53.69530000000009 68.28280000000001L54.83770000000004 69.87263000000002L56.86419999999998 69.47901000000002L59.72199999999998 72.87964000000002L60.739900000000034 75.76559L62.202999999999975 77.52396999999999L60.568899999999985 79.00525999999999L59.66110000000003 81.15816000000004L62.02320000000009 83.10319999999999L62.868600000000015 86.0316L65.67800000000011 86.24123L67.50570000000016 87.30236L67.30660000000012 88.35107000000002L65.78830000000016 91.98490999999999L63.38300000000004 93.87655000000004L62.55790000000002 97.68264000000002L64.11480000000006 97.81009000000003L65.70100000000002 99.4L68.33519999999999 97.82756000000003L74.49040000000014 98.17449000000002L74.91210000000001 99.65463000000003L74.22929999999997 99.82057L72.4353000000001 103.36563000000004L70.48919999999998 103.02447000000004L68.86509999999998 104.25952000000004L67.48530000000005 103.9761L67.1844000000001 105.10833L65.68990000000008 104.72891000000001L61.04020000000014 106.96197000000004L62.72649999999999 105.47429000000002L62.41390000000001 104.79047L60.933700000000044 104.55431999999999L59.62630000000013 103.56107L58.1893 103.04126L57.513800000000174 103.40571000000003L54.953899999999976 106.11106000000004L52.27800000000002 104.81262999999998L51.49720000000002 105.46555000000004L52.061300000000074 106.70997000000003L51.23630000000003 108.47785999999999L48.502500000000055 110.13565000000003L47.75260000000003 114.14045000000002L45.615800000000036 116.13998000000001L43.56470000000013 115.31123L43.32050000000004 113.85573000000002L40.09550000000013 113.06821L38.68880000000013 111.58939000000001L37.317400000000134 111.80680000000004L36.18209999999999 111.00908999999999L35.05140000000006 110.73254L34.856700000000046 107.74681000000001L32.58180000000016 105.89956000000004L31.83960000000002 106.02601000000001L31.48960000000011 106.71019000000004L27.870300000000043 105.86933000000002L26.717800000000125 106.52174L23.859699999999975 106.21558000000002L23.00870000000009 105.21979000000002L20.907100000000128 103.51047000000003L22.934200000000146 100.23618000000002L24.338700000000017 100.02054000000001L25.558099999999968 100.80944000000002L26.95770000000016 99.26495000000003L28.348500000000058 99.06408000000002L27.801600000000008 96.30284000000003z">
      <title id="t422">Neuvième circonscription de Seine-et-Marne</title>
      <desc id="d422">Cantons de : Brie-Comte-Robert, Pontault-Combault, Tournan-en-Brie , Commune de Combs-la-Ville</desc>
    </path><path class="circo" id="id-077-10" d="M25.96659999999997 56.70424L26.3420000000001 53.84716L24.700600000000122 52.34366L25.747299999999996 51.239660000000015L28.63350000000014 50.13396L28.553100000000086 48.643490000000014L29.43450000000007 47.43696L29.57490000000007 47.31300000000002L32.55040000000008 48.070700000000016L34.64890000000014 50.34450000000001L37.32380000000012 48.197840000000014L39.20600000000013 49.65417000000002L38.36940000000004 52.89801L38.59030000000007 54.16106000000002L39.7025000000001 54.88413L36.496000000000095 58.24424000000002L35.040700000000015 58.66544000000002L36.280300000000125 61.30717000000001L39.359699999999975 64.21921L36.341499999999996 64.54787000000002L34.826500000000124 67.11253000000002L34.66300000000001 70.82732000000001L30.83789999999999 68.08945L30.081699999999955 68.31536L28.674800000000005 63.826070000000016L26.834500000000162 59.527590000000004L28.119000000000142 58.89402000000001L28.83030000000008 56.91533000000001L25.96659999999997 56.70424z">
      <title id="t423">Dixième circonscription de Seine-et-Marne</title>
      <desc id="d423">Cantons de : Champs-sur-Marne, Chelles, Noisiel, Vaires-sur-Marne</desc>
    </path><path class="circo" id="id-077-11" d="M20.58789999999999 122.21844999999999L19.135400000000118 122.31568000000001L18.61869999999999 120.07292000000004L22.045299999999997 117.02591000000004L22.202600000000075 114.36165000000003L19.790899999999965 112.96552L18.50310000000013 109.6611L19.082100000000082 109.19860000000003L21.929300000000012 108.76497000000003L22.19309999999996 106.48078999999998L23.00870000000009 105.21979000000002L23.859699999999975 106.21558000000002L26.717800000000125 106.52174L27.870300000000043 105.86933000000002L31.48960000000011 106.71019000000004L31.83960000000002 106.02601000000001L32.58180000000016 105.89956000000004L34.856700000000046 107.74681000000001L35.05140000000006 110.73254L36.18209999999999 111.00908999999999L37.317400000000134 111.80680000000004L38.68880000000013 111.58939000000001L40.09550000000013 113.06821L38.59879999999998 113.01428999999999L38.61570000000006 115.98969000000002L37.31809999999996 117.81183999999999L38.330799999999954 118.72019000000003L38.919200000000046 120.72249000000002L38.57950000000005 125.16283999999999L35.06809999999996 126.76655000000002L37.48009999999999 128.38525L38.068899999999985 129.74685000000002L37.314800000000105 130.88340000000002L35.41740000000004 132.51309L32.290100000000166 134.75764L30.812400000000025 135.13447L28.9045000000001 134.07604L27.650499999999965 132.13215L24.92100000000005 130.70874L23.160100000000057 130.34295L21.060300000000097 129.57978L20.29560000000015 128.31443L20.541300000000092 126.85994000000002L22.605000000000018 124.70144000000002L22.957800000000134 123.32851000000002L20.58789999999999 122.21844999999999z">
      <title id="t424">Onzième circonscription de Seine-et-Marne</title>
      <desc id="d424">Cantons de : Combs-la-Ville (moins la commune de Combs-la-Ville), Le Mée-sur-Seine, Savigny-le-Temple</desc>
    </path></svg>