<svg xmlns="http://www.w3.org/2000/svg" version="1.1" xmlns:xlink="http://www.w3.org/1999/xlink" xmlns:svgjs="http://svgjs.dev/svgjs" viewBox="1410.8988 182.86986 172.02800000000002 223.03800000000004"><path class="circo" id="077-01" d="M 1458.0173,305.17794 1459.8859,304.14176 1460.2478,302.7009 1458.7845,300.00309 1459.2009,297.00249 1458.6514,297.01031 1456.5146,299.00984 1454.4635,298.18109 1454.2193,296.72559 1450.9943,295.93807 1449.4976,295.88415 1449.5145,298.85955 1448.2169,300.6817 1449.2296,301.59005 1449.818,303.59235 1449.4783,308.0327 1445.9669,309.63641 1448.3789,311.25511 1448.9677,312.61671 1448.2136,313.75326 1446.3162,315.38295 1443.1889,317.6275 1441.7112,318.00433 1439.8033,316.9459 1438.5493,315.00201 1435.8198,313.5786 1434.0589,313.21281 1431.9591,312.44964 1431.1944,311.18429 1431.4401,309.7298 1433.5038,307.5713 1433.8566,306.19837 1431.4867,305.08831 1429.7278,306.24284 1429.4683,307.68571 1426.7132,311.95736 1428.2123,312.02235 1426.4612,317.69002 1427.8289,318.01684 1428.1577,319.39034 1428.8588,319.41223 1428.6019,322.56377 1428.3472,324.11724 1427.1784,325.05386 1427.6927,330.20365 1426.7616,330.67282 1426.5102,331.07175 1427.4155,331.94647 1427.4669,333.11963 1427.5582,337.17982 1429.3744,337.66587 1433.7737,343.51669 1434.1186,344.79112 1437.8956,347.22222 1440.8456,339.83246 1441.3591,336.21703 1441.2813,335.4895 1444.4577,333.72492 1446.0942,331.33239 1448.2877,328.4835 1446.102,323.57058 1446.6385,322.21921 1447.6655,322.76438 1450.3343,323.84257 1451.2108,321.9619 1452.4508,324.60027 1452.643,324.12995 1452.4147,323.64912 1455.2768,321.64412 1456.6958,321.49214 1457.7457,319.68721 1460.8287,319.58387 1461.2843,318.15457 1459.532,315.78064 1458.1381,315.21728 1458.3369,313.71998 1459.4902,313.01872 1459.3153,311.71524 1460.5734,311.10813 1459.8598,306.48194 1458.0173,305.17794 z">
      <title id="t414">Première circonscription de Seine-et-Marne</title>
      <desc id="d414">Cantons de : Melun Nord, Melun Sud, Perthes</desc>
    </path><path class="circo" id="077-02" d="M 1419.6871,377.10008 1418.6088,376.1984 1417.9633,376.48267 1416.5663,375.91522 1415.2381,374.11229 1415.0004,373.48426 1415.0971,366.25165 1412.421,361.47851 1411.347,360.35807 1410.8988,358.10798 1412.2187,358.74239 1414.9836,357.82301 1417.0291,358.40449 1416.5135,355.51991 1418.111,353.36231 1416.4383,352.29096 1418.0916,350.88737 1419.5153,351.14577 1419.397,349.68842 1424.2208,347.74079 1422.9449,345.97434 1424.7494,344.5399 1427.7728,344.96729 1430.036,342.93355 1433.7737,343.51669 1434.1186,344.79112 1437.8956,347.22222 1440.8456,339.83246 1441.3591,336.21703 1441.2813,335.4895 1444.4577,333.72492 1446.0942,331.33239 1448.2877,328.4835 1446.102,323.57058 1446.6385,322.21921 1447.6655,322.76438 1450.3343,323.84257 1451.2108,321.9619 1452.4508,324.60027 1452.643,324.12995 1453.7958,325.19106 1456.081,325.6997 1462.9946,324.46306 1463.5876,324.68194 1463.3974,325.28655 1465.4796,325.68366 1466.4116,326.85681 1466.8911,330.07964 1469.0162,331.11499 1469.5618,332.45927 1470.8435,333.12992 1473.5828,332.97875 1474.2282,338.12473 1472.131,337.93127 1471.7484,338.4494 1471.4202,339.85341 1469.446,340.7406 1464.3817,341.30046 1463.6571,342.19866 1467.1359,342.1461 1467.6787,342.64753 1467.9683,346.14916 1468.3221,348.43991 1470.6376,350.35046 1471.5231,352.26667 1470.2979,355.58932 1459.4418,354.33946 1461.013,360.85692 1462.4769,360.7079 1463.2527,358.78842 1465.9454,357.74539 1467.1732,359.40079 1467.2808,361.4636 1468.6456,363.70236 1468.5239,365.07501 1467.8742,365.30688 1471.6503,366.54685 1471.985,367.92783 1474.7934,367.62135 1476.9666,369.46043 1479.4203,370.2813 1481.7837,367.49576 1484.4716,369.18352 1489.2305,359.16192 1488.2217,358.02434 1490.743,354.48278 1491.6683,353.49897 1491.6696,357.78297 1492.951,358.34045 1493.0094,359.06268 1496.4868,363.19273 1496.0373,361.01414 1498.9477,360.45103 1501.5075,359.04423 1502.1678,361.13934 1502.0695,364.08034 1503.0726,364.45851 1504.8153,365.94313 1503.7183,366.89073 1505.1509,369.32487 1504.4146,371.49786 1507.2166,372.3428 1507.7877,377.26153 1505.5883,377.47427 1502.6489,383.38828 1501.6391,386.20167 1500.3273,386.88467 1499.1208,386.29177 1496.5633,387.53612 1496.4587,389.58228 1494.1603,389.95274 1491.1042,392.99028 1491.3355,396.41189 1485.9725,397.28934 1481.6758,397.94572 1481.0594,398.04261 1478.6551,401.04251 1474.2655,403.88699 1471.5313,403.48861 1471.0987,402.17378 1471.2387,398.57992 1472.7183,396.98253 1472.7924,396.26223 1471.0238,395.38468 1469.7344,395.98865 1468.3648,395.53146 1467.2236,396.42053 1465.7751,396.24516 1464.4762,396.85572 1461.7736,395.76515 1464.4131,398.95829 1464.5526,400.34396 1459.7116,402.17045 1457.3583,404.96038 1452.7646,404.88263 1451.5944,405.88016 1451.177,405.90786 1447.468,401.82943 1442.2394,403.40974 1438.3295,403.41795 1437.2493,401.41592 1432.3608,401.48153 1430.0272,404.16327 1430.099,404.87266 1423.4966,404.01149 1420.7449,404.78558 1420.2872,405.27717 1418.3401,404.81239 1418.5713,403.48686 1421.0616,401.99407 1422.6887,399.7017 1422.652,398.36157 1424.336,396.16223 1427.7503,397.95348 1429.0195,396.0904 1428.1222,392.52456 1429.0928,389.84405 1429.8159,389.64196 1430.2175,388.56758 1429.3882,385.10254 1428.9024,385.10165 1429.0846,382.31664 1427.9008,381.86046 1427.7303,379.74007 1424.4751,379.64303 1423.5033,378.49687 1423.3819,377.01102 1422.2436,376.02139 1419.6871,377.10008 z">
      <title id="t415">Deuxième circonscription de Seine-et-Marne</title>
      <desc id="d415">Cantons de : La Chapelle-la-Reine, Château-Landon, Fontainebleau, Lorrez-le-Bocage-Préaux, Nemours</desc>
    </path><path class="circo" id="077-03" d="M 1456.081,325.6997 1453.7958,325.19106 1452.643,324.12995 1452.4147,323.64912 1455.2768,321.64412 1456.6958,321.49214 1457.7457,319.68721 1460.8287,319.58387 1461.2843,318.15457 1459.532,315.78064 1458.1381,315.21728 1458.3369,313.71998 1459.4902,313.01872 1459.3153,311.71524 1460.5734,311.10813 1459.8598,306.48194 1458.0173,305.17794 1459.8859,304.14176 1460.2478,302.7009 1458.7845,300.00309 1459.2009,297.00249 1458.6514,297.01031 1459.4013,293.00551 1462.1351,291.34772 1462.9601,289.57983 1462.396,288.33541 1463.1768,287.68249 1465.8527,288.98092 1468.4126,286.27557 1469.0881,285.91112 1470.5251,286.43093 1471.8325,287.42418 1473.3127,287.66033 1473.6253,288.34415 1471.939,289.83183 1476.5887,287.59877 1478.0832,287.97819 1478.3841,286.84596 1479.7639,287.12938 1481.388,285.89433 1483.3341,286.23549 1485.1281,282.69043 1485.8109,282.52449 1488.0717,287.46783 1489.1874,286.9673 1490.3401,287.33464 1489.8771,290.1899 1489.0251,291.35803 1490.1528,293.20866 1492.8485,291.90222 1494.2536,292.45889 1495.069,293.74448 1498.7267,293.68294 1499.415,293.7371 1498.7611,294.93863 1499.8306,297.46343 1502.5125,296.02506 1506.0948,297.43032 1506.0291,300.717 1505.886,302.65775 1505.118,302.71769 1503.4855,305.21033 1498.3279,306.27568 1497.0597,307.15256 1496.5048,308.57163 1495.3875,314.59405 1493.0634,316.5438 1490.9354,317.39285 1490.0029,320.33964 1490.2378,321.07614 1491.7455,321.33392 1491.3952,323.98203 1493.4502,323.52282 1496.919,324.69956 1499.7912,329.74358 1500.1574,331.86597 1502.7893,330.48596 1504.0323,334.84487 1507.2383,336.6728 1509.8475,336.26559 1510.7825,337.06839 1510.841,338.60603 1513.0788,343.41065 1511.9989,344.42142 1511.8823,349.23537 1514.5317,349.89099 1518.031,349.30883 1518.8632,350.81836 1517.7138,351.75766 1516.0464,355.0731 1515.482,354.60783 1515.36,353.24036 1513.8928,353.31471 1512.6739,352.55445 1510.617,353.24727 1508.0659,352.73295 1506.2992,356.92402 1506.7528,359.65213 1503.0726,364.45851 1502.0695,364.08034 1502.1678,361.13934 1501.5075,359.04423 1498.9477,360.45103 1496.0373,361.01414 1496.4868,363.19273 1493.0094,359.06268 1492.951,358.34045 1491.6696,357.78297 1491.6683,353.49897 1490.743,354.48278 1488.2217,358.02434 1489.2305,359.16192 1484.4716,369.18352 1481.7837,367.49576 1479.4203,370.2813 1476.9666,369.46043 1474.7934,367.62135 1471.985,367.92783 1471.6503,366.54685 1467.8742,365.30688 1468.5239,365.07501 1468.6456,363.70236 1467.2808,361.4636 1467.1732,359.40079 1465.9454,357.74539 1463.2527,358.78842 1462.4769,360.7079 1461.013,360.85692 1459.4418,354.33946 1470.2979,355.58932 1471.5231,352.26667 1470.6376,350.35046 1468.3221,348.43991 1467.9683,346.14916 1467.6787,342.64753 1467.1359,342.1461 1463.6571,342.19866 1464.3817,341.30046 1469.446,340.7406 1471.4202,339.85341 1471.7484,338.4494 1472.131,337.93127 1474.2282,338.12473 1473.5828,332.97875 1470.8435,333.12992 1469.5618,332.45927 1469.0162,331.11499 1466.8911,330.07964 1466.4116,326.85681 1465.4796,325.68366 1463.3974,325.28655 1463.5876,324.68194 1462.9946,324.46306 1456.081,325.6997 z">
      <title id="t416">Troisième circonscription de Seine-et-Marne</title>
      <desc id="d416">Cantons de : Le Châtelet-en-Brie, Montereau-Fault-Yonne, Moret-sur-Loing, Mormant</desc>
    </path><path class="circo" id="077-04" d="M 1552.7596,348.5951 1551.9653,349.79125 1550.5196,349.80507 1549.5701,350.04124 1547.5865,349.20399 1546.8697,349.17303 1546.6972,349.8654 1542.6284,347.97925 1542.398,348.6975 1541.0023,348.66054 1537.8735,351.60431 1534.2449,350.45974 1532.4722,351.04963 1530.9868,351.80463 1529.4065,350.64918 1528.1019,350.93032 1527.5161,349.49919 1526.1597,348.80503 1525.5079,350.06551 1522.1733,351.11417 1521.4367,349.9353 1518.8632,350.81836 1518.031,349.30883 1514.5317,349.89099 1511.8823,349.23537 1511.9989,344.42142 1513.0788,343.41065 1510.841,338.60603 1510.7825,337.06839 1509.8475,336.26559 1507.2383,336.6728 1504.0323,334.84487 1502.7893,330.48596 1500.1574,331.86597 1499.7912,329.74358 1496.919,324.69956 1493.4502,323.52282 1491.3952,323.98203 1491.7455,321.33392 1490.2378,321.07614 1490.0029,320.33964 1490.9354,317.39285 1493.0634,316.5438 1495.3875,314.59405 1496.5048,308.57163 1497.0597,307.15256 1498.3279,306.27568 1503.4855,305.21033 1505.118,302.71769 1505.886,302.65775 1506.0291,300.717 1506.0948,297.43032 1502.5125,296.02506 1499.8306,297.46343 1498.7611,294.93863 1499.415,293.7371 1498.7267,293.68294 1495.069,293.74448 1494.2536,292.45889 1492.8485,291.90222 1490.1528,293.20866 1489.0251,291.35803 1489.8771,290.1899 1490.3401,287.33464 1489.1874,286.9673 1488.0717,287.46783 1485.8109,282.52449 1485.3892,281.04435 1479.234,280.69742 1476.5998,282.26986 1475.0136,280.67995 1473.4567,280.5525 1474.2818,276.74641 1476.6871,274.85477 1478.2054,271.22093 1478.4045,270.17222 1476.5768,269.11109 1473.7674,268.90146 1472.922,265.97306 1470.5599,264.02802 1471.4677,261.87512 1473.1018,260.39383 1471.6387,258.63545 1470.6208,255.7495 1467.763,252.34887 1467.018,250.23034 1468.9172,248.07365 1471.5269,247.7376 1471.6259,247.83039 1473.0266,247.25306 1475.9743,247.58598 1477.2621,246.87408 1478.5164,247.60912 1479.514,247.8616 1481.1015,250.30915 1482.3394,251.0808 1484.3749,248.00133 1484.8876,245.88129 1487.1238,245.59146 1488.7081,246.40411 1488.5796,248.76391 1490.5642,249.53972 1490.8366,250.2099 1490.4952,253.70817 1491.2079,253.51149 1491.3408,258.55846 1491.8302,259.00617 1494.142,258.16908 1495.6314,258.33381 1496.6404,260.35568 1498.1214,260.13937 1499.6911,262.34266 1502.7907,265.41551 1503.7722,265.80689 1506.0351,265.4588 1507.971,266.68824 1508.4181,268.94539 1509.7565,269.72675 1509.9228,270.48292 1512.5962,271.03574 1513.3141,270.9398 1513.3229,270.21394 1516.7076,269.44178 1518.4122,262.94523 1519.8786,263.17943 1520.6648,264.43176 1522.9513,262.71888 1521.1628,260.31035 1520.983,257.31084 1524.8017,257.07988 1525.1905,250.1688 1524.9487,250.22694 1525.6007,247.66483 1525.1014,246.43938 1524.5951,245.81816 1521.8499,246.56047 1519.1536,245.79008 1519.0792,244.24399 1516.9751,240.26129 1517.112,238.87048 1519.1788,238.76638 1518.6207,238.32079 1518.7299,236.90364 1521.4755,234.95874 1520.475,233.85873 1521.6753,230.15675 1523.7173,229.01331 1524.5672,226.80937 1528.7347,222.40174 1532.9701,224.64775 1531.8162,227.38706 1531.7947,228.60717 1533.1801,228.97123 1536.1853,229.87214 1538.0783,230.98489 1540.6912,230.16598 1542.4668,231.26274 1544.2016,231.80511 1545.3473,230.71899 1547.0501,227.14222 1549.5821,230.12503 1554.24,227.51488 1555.0874,225.43419 1556.2305,229.94033 1555.514,232.97548 1557.087,234.71856 1557.2916,237.84595 1557.9571,238.26975 1560.7702,237.33961 1559.7412,239.46732 1561.1631,240.0772 1563.3146,239.20903 1564.1217,240.53351 1567.6279,241.74185 1566.612,244.67856 1569.0659,245.74761 1570.285,243.03479 1572.5014,242.72894 1573.4031,246.49711 1572.5092,248.66151 1572.7995,250.97796 1571.8707,251.65097 1570.9724,250.03784 1570.2872,249.73667 1566.4818,251.73832 1564.3185,251.46592 1562.3607,250.38485 1560.8133,252.08952 1561.0168,252.8296 1563.0292,253.84579 1565.9432,254.0557 1566.2043,257.05117 1566.1378,257.78756 1564.1245,258.67269 1562.8482,257.95745 1561.3807,258.04249 1559.4797,263.05157 1559.7723,264.4856 1561.232,264.96313 1564.0854,264.00177 1565.3159,264.89428 1565.3475,267.13139 1566.2237,268.34249 1569.8705,268.15771 1569.7748,270.36748 1569.8354,271.69639 1569.8144,275.58886 1571.4061,277.28122 1570.6337,277.39346 1570.383,279.66887 1568.2739,280.65777 1566.2182,282.97482 1566.7333,284.23057 1566.1981,284.7995 1568.6007,287.72705 1567.4595,291.44865 1571.2543,290.80486 1573.5292,288.69489 1577.3386,289.39184 1579.6069,288.79492 1577.4666,290.99305 1577.8354,291.67175 1580.778,292.46047 1582.916,294.6628 1582.9268,295.40749 1575.9508,297.96773 1575.5095,298.57645 1576.9423,301.21447 1573.5327,301.69761 1572.5187,303.56731 1570.111,305.22352 1569.5924,305.79745 1572.084,310.41721 1571.9923,312.28347 1570.6523,312.59883 1567.4025,315.13912 1565.3015,315.16549 1562.0107,314.06703 1560.7023,315.28361 1563.5756,318.77737 1565.0665,322.24086 1565.0262,323.71406 1562.9373,323.60248 1560.4582,324.6652 1557.5519,326.441 1559.5058,328.64587 1559.4323,330.13628 1560.7492,331.95829 1560.5197,335.00782 1559.4204,336.06098 1558.8563,338.21541 1561.6539,339.08379 1560.632,340.38949 1562.9621,340.3917 1562.9906,341.82488 1562.0916,346.00016 1559.9372,345.80867 1557.7122,344.08644 1556.2676,344.12564 1554.9235,345.73027 1554.5714,349.32842 1553.4495,350.10024 1553.4801,348.63228 1552.7596,348.5951 z">
      <title id="t417">Quatrième circonscription de Seine-et-Marne</title>
      <desc id="d417">Cantons de : Bray-sur-Seine, Donnemarie-Dontilly, La Ferté-Gaucher, Nangis, Provins, Rebais, Rozay-en-Brie, Villiers-Saint-Georges</desc>
    </path><path class="circo" id="077-05" d="M 1516.9751,240.26129 1517.112,238.87048 1519.1788,238.76638 1518.6207,238.32079 1518.7299,236.90364 1521.4755,234.95874 1520.475,233.85873 1521.6753,230.15675 1523.7173,229.01331 1524.5672,226.80937 1528.7347,222.40174 1532.9701,224.64775 1531.8162,227.38706 1531.7947,228.60717 1533.1801,228.97123 1536.1853,229.87214 1538.0783,230.98489 1540.6912,230.16598 1542.4668,231.26274 1544.2016,231.80511 1545.3473,230.71899 1547.0501,227.14222 1546.9234,223.94565 1545.8188,220.9389 1542.7167,222.877 1540.6033,223.48709 1539.9647,223.12464 1539.228,221.83437 1539.6307,220.90241 1538.4935,217.948 1537.6518,215.20481 1534.9449,214.6373 1534.6433,212.00844 1534.0021,212.25385 1533.7739,211.55007 1531.7066,210.79871 1531.4573,209.51512 1530.1796,208.09298 1526.1244,206.58116 1524.8584,204.90182 1524.1622,206.27091 1521.9704,206.53224 1521.215,206.18028 1519.474,206.49571 1519.9609,207.90137 1519.5572,210.12616 1520.3392,211.32921 1517.7373,212.20449 1517.2047,211.64044 1515.084,212.59815 1514.2199,213.83928 1509.6257,214.1387 1509.516,214.90856 1505.7826,216.24941 1504.6558,215.20975 1501.8399,214.32773 1500.7797,215.39133 1500.9269,217.56487 1500.5352,218.57346 1502.5945,221.55225 1501.4052,224.20024 1500.285,225.18189 1498.8195,223.5992 1496.6575,223.22933 1496.4333,222.52895 1496.2012,222.65863 1494.4251,223.79504 1494.4579,224.50549 1492.6701,224.86699 1491.7948,225.83101 1489.56,225.05382 1488.3822,225.77745 1488.1565,228.06464 1486.9082,228.73587 1486.8143,229.43408 1485.4387,229.62194 1480.9903,228.53201 1478.6193,230.44226 1478.1266,230.2328 1476.5761,231.69668 1475.396,230.74418 1474.7148,231.07961 1472.1491,228.59479 1472.3262,229.25611 1471.3841,230.19725 1472.2862,234.38435 1472.9783,234.60725 1471.7139,237.08556 1471.21,240.29748 1469.1617,240.85067 1467.0634,242.17856 1467.3957,242.92332 1467.7082,244.34534 1467.2084,245.71256 1468.9172,248.07365 1471.5269,247.7376 1471.6259,247.83039 1473.0266,247.25306 1475.9743,247.58598 1477.2621,246.87408 1478.5164,247.60912 1479.514,247.8616 1481.1015,250.30915 1482.3394,251.0808 1484.3749,248.00133 1484.8876,245.88129 1487.1238,245.59146 1488.7081,246.40411 1488.5796,248.76391 1490.5642,249.53972 1490.8366,250.2099 1490.4952,253.70817 1491.2079,253.51149 1491.3408,258.55846 1491.8302,259.00617 1494.142,258.16908 1495.6314,258.33381 1496.6404,260.35568 1498.1214,260.13937 1499.6911,262.34266 1502.7907,265.41551 1503.7722,265.80689 1506.0351,265.4588 1507.971,266.68824 1508.4181,268.94539 1509.7565,269.72675 1509.9228,270.48292 1512.5962,271.03574 1513.3141,270.9398 1513.3229,270.21394 1516.7076,269.44178 1518.4122,262.94523 1519.8786,263.17943 1520.6648,264.43176 1522.9513,262.71888 1521.1628,260.31035 1520.983,257.31084 1524.8017,257.07988 1525.1905,250.1688 1524.9487,250.22694 1525.6007,247.66483 1525.1014,246.43938 1524.5951,245.81816 1521.8499,246.56047 1519.1536,245.79008 1519.0792,244.24399 1516.9751,240.26129 z">
      <title id="t418">Cinquième circonscription de Seine-et-Marne</title>
      <desc id="d418">Cantons de : Coulommiers, Crécy-la-Chapelle, La Ferté-sous-Jouarre , Communes de : Bailly-Romainvilliers, Magny-le-Hongre, Serris</desc>
    </path><path class="circo" id="077-06" d="M 1466.9391,206.06732 1465.6074,206.2964 1464.5039,207.01335 1464.456,209.81489 1464.2917,211.50366 1463.3905,211.51447 1460.0877,210.08063 1460.4878,209.45494 1459.5151,207.52668 1458.2806,207.6933 1453.8885,206.73107 1453.4695,206.12256 1453.8796,203.98378 1451.9077,201.93553 1452.6756,201.77402 1453.5911,199.67707 1457.1043,197.9836 1456.8457,194.797 1459.9918,191.24782 1461.5678,195.76224 1465.3859,195.18789 1469.0003,192.3809 1466.4954,190.61589 1469.435,190.70302 1468.8099,189.40134 1469.9548,189.06128 1472.5462,187.39172 1474.9741,190.18802 1476.3862,190.67412 1477.8243,190.24898 1479.4721,193.60119 1481.817,193.31294 1484.5025,191.68104 1485.2193,192.01291 1486.1885,190.13812 1489.5384,191.73412 1490.9731,191.35325 1491.5684,191.80343 1492.2603,191.61197 1492.7428,189.52665 1494.077,190.00717 1495.9228,188.94634 1496.5282,189.32569 1496.999,192.51677 1498.9987,193.07254 1499.6095,190.40115 1501.3382,189.37784 1502.6504,188.91315 1505.2717,189.81322 1505.8426,189.40744 1510.5244,190.17379 1509.1436,187.79101 1509.0818,186.40204 1511.3832,182.86986 1512.4822,183.95971 1517.6874,185.21911 1518.6946,184.82674 1519.0463,185.26384 1521.2512,185.3752 1522.9782,186.73294 1525.187,186.91203 1523.7938,190.10921 1524.2186,191.2591 1525.5791,192.05153 1527.6237,195.37634 1527.4993,196.73555 1528.9486,198.12867 1528.9408,198.86308 1527.5294,199.40342 1526.8859,202.33089 1524.932,203.48248 1524.8584,204.90182 1524.1622,206.27091 1521.9704,206.53224 1521.215,206.18028 1519.474,206.49571 1519.9609,207.90137 1519.5572,210.12616 1520.3392,211.32921 1517.7373,212.20449 1517.2047,211.64044 1515.084,212.59815 1514.2199,213.83928 1509.6257,214.1387 1509.516,214.90856 1505.7826,216.24941 1504.6558,215.20975 1501.8399,214.32773 1500.7797,215.39133 1500.9269,217.56487 1500.5352,218.57346 1502.5945,221.55225 1501.4052,224.20024 1500.285,225.18189 1498.8195,223.5992 1496.6575,223.22933 1496.4333,222.52895 1496.2012,222.65863 1494.4251,223.79504 1494.4579,224.50549 1492.6701,224.86699 1491.7948,225.83101 1489.56,225.05382 1488.3822,225.77745 1488.1565,228.06464 1486.9082,228.73587 1486.8143,229.43408 1485.4387,229.62194 1480.9903,228.53201 1478.6193,230.44226 1478.1266,230.2328 1476.5761,231.69668 1475.396,230.74418 1474.7148,231.07961 1472.1491,228.59479 1471.9922,228.01647 1471.5073,224.58314 1469.7577,225.39324 1469.1807,225.51027 1468.6784,223.34166 1469.9045,221.36019 1470.0013,216.70601 1471.5822,217.39483 1470.6082,211.65375 1472.1483,210.89382 1468.997,208.3281 1467.2055,207.3195 1467.3731,206.63797 1466.9391,206.06732 z">
      <title id="t419">Sixième circonscription de Seine-et-Marne</title>
      <desc id="d419">Cantons de : Lizy-sur-Ourcq, Meaux Nord, Meaux Sud , Communes de : Cuisy, Forfry, Gesvres-le-Chapitre, Juilly, Marchémoret, Montgé-en-Goële, Monthyon, Oissery, Le Plessis-l'Evêque, Rouvres, Saint-Mard, Saint-Pathus, Saint-Soupplets, Vinantes</desc>
    </path><path class="circo" id="077-07" d="M 1459.9797,231.27556 1457.9113,231.03216 1456.8396,229.88902 1454.6011,229.51936 1455.3548,231.92995 1455.6461,234.75858 1456.9586,236.2583 1460.4912,235.68938 1461.5482,235.80498 1460.8004,235.88638 1460.7761,238.86507 1460.463,240.9644 1457.7881,239.84004 1457.8473,242.19473 1455.985,242.19562 1453.7709,243.33615 1450.8198,243.1222 1451.2717,240.39954 1450.772,237.61371 1450.6013,237.75399 1449.4891,237.03092 1449.2682,235.76787 1450.1048,232.52403 1448.2226,231.0677 1445.5477,233.21436 1443.4492,230.94056 1440.4737,230.18286 1439.9829,229.67145 1440.47,226.2852 1441.9865,225.30995 1441.9577,223.96816 1441.0013,223.22595 1440.4051,220.80964 1436.6241,214.97432 1436.5511,214.19886 1438.0296,213.76943 1438.6402,212.34577 1438.0302,209.33345 1437.392,209.05303 1436.5437,206.6028 1434.6613,207.18513 1434.3078,206.55455 1432.476,206.1334 1431.9926,204.02956 1433.4318,204.30087 1436.1267,203.17644 1437.0683,200.46979 1438.5892,198.91181 1440.7852,198.76832 1437.5258,196.03239 1440.201,191.42934 1442.5633,189.42165 1443.1312,187.97733 1444.466,188.08438 1446.5227,184.9433 1447.6171,186.90005 1449.1391,186.77944 1453.1842,190.05774 1455.2347,192.12624 1455.0821,193.46848 1454.9147,194.15916 1456.8457,194.797 1457.1043,197.9836 1453.5911,199.67707 1452.6756,201.77402 1451.9077,201.93553 1453.8796,203.98378 1453.4695,206.12256 1453.8885,206.73107 1458.2806,207.6933 1459.5151,207.52668 1460.4878,209.45494 1460.0877,210.08063 1463.3905,211.51447 1464.2917,211.50366 1464.456,209.81489 1464.5039,207.01335 1465.6074,206.2964 1466.9391,206.06732 1467.3731,206.63797 1467.2055,207.3195 1468.997,208.3281 1472.1483,210.89382 1470.6082,211.65375 1471.5822,217.39483 1470.0013,216.70601 1469.9045,221.36019 1468.6784,223.34166 1469.1807,225.51027 1467.8555,227.23222 1463.8825,226.65116 1462.6481,226.79879 1461.2946,226.9975 1460.484,231.28794 1459.9797,231.27556 z">
      <title id="t420">Septième circonscription de Seine-et-Marne</title>
      <desc id="d420">Cantons de : Claye-Souilly, Dammartin-en-Goële (moins les communes de Cuisy, Forfry, Gesvres-le-Chapitre, Juilly, Marchémoret, Montgé-en-Goële, Monthyon, Oissery, Le Plessis-l'Evêque, Rouvres, Saint-Mard, Saint-Pathus, Saint-Soupplets, Vinantes), Lagny-sur-Marne, Mitry-Mory</desc>
    </path><path class="circo" id="077-08" d="M 1451.2532,265.10084 1449.1015,265.67298 1448.2232,264.44231 1448.7715,263.36853 1447.6175,262.59906 1447.644,261.38422 1448.8654,260.04469 1445.4638,257.259 1445.5186,256.51179 1446.6882,255.66847 1445.6624,253.74702 1445.5618,253.69718 1445.7253,249.98239 1447.2403,247.41773 1450.2585,247.08907 1447.1791,244.17703 1445.9395,241.5353 1447.3948,241.1141 1450.6013,237.75399 1450.772,237.61371 1451.2717,240.39954 1450.8198,243.1222 1453.7709,243.33615 1455.985,242.19562 1457.8473,242.19473 1457.7881,239.84004 1460.463,240.9644 1460.7761,238.86507 1460.8004,235.88638 1461.5482,235.80498 1460.4912,235.68938 1456.9586,236.2583 1455.6461,234.75858 1455.3548,231.92995 1454.6011,229.51936 1456.8396,229.88902 1457.9113,231.03216 1459.9797,231.27556 1460.484,231.28794 1461.2946,226.9975 1462.6481,226.79879 1463.8825,226.65116 1467.8555,227.23222 1469.1807,225.51027 1469.7577,225.39324 1471.5073,224.58314 1471.9922,228.01647 1472.1491,228.59479 1472.3262,229.25611 1471.3841,230.19725 1472.2862,234.38435 1472.9783,234.60725 1471.7139,237.08556 1471.21,240.29748 1469.1617,240.85067 1467.0634,242.17856 1467.3957,242.92332 1467.7082,244.34534 1467.2084,245.71256 1468.9172,248.07365 1467.018,250.23034 1467.763,252.34887 1465.7365,252.74249 1464.5941,251.15266 1463.9254,251.11628 1463.4591,253.28674 1461.363,253.855 1460.5332,254.99459 1461.554,258.63677 1460.8526,258.9218 1458.4334,259.89906 1457.8414,260.3714 1458.4778,263.30505 1456.9746,265.93517 1454.3063,266.07265 1452.4559,267.00197 1451.2532,265.10084 z">
      <title id="t421">Huitième circonscription de Seine-et-Marne</title>
      <desc id="d421">Cantons de : Roissy-en-Brie, Thorigny-sur-Marne (moins les communes de Bailly-Romainvilliers, Magny-le-Hongre et Serris), Torcy</desc>
    </path><path class="circo" id="077-09" d="M 1438.7004,279.1727 1437.4115,278.60346 1438.3012,277.037 1437.8086,276.59225 1436.9892,275.19783 1436.8906,274.80546 1438.7049,271.665 1440.8154,269.68797 1439.792,266.93628 1441.5359,265.44087 1441.2391,263.2373 1443.7935,263.11347 1442.5547,260.37949 1440.2778,260.59891 1439.6999,260.08531 1441.4272,255.87768 1440.3517,254.97886 1441.0844,253.02449 1440.4607,252.71869 1440.9805,251.18522 1441.7367,250.95931 1445.5618,253.69718 1445.6624,253.74702 1446.6882,255.66847 1445.5186,256.51179 1445.4638,257.259 1448.8654,260.04469 1447.644,261.38422 1447.6175,262.59906 1448.7715,263.36853 1448.2232,264.44231 1449.1015,265.67298 1451.2532,265.10084 1452.4559,267.00197 1454.3063,266.07265 1456.9746,265.93517 1458.4778,263.30505 1457.8414,260.3714 1458.4334,259.89906 1460.8526,258.9218 1461.554,258.63677 1460.5332,254.99459 1461.363,253.855 1463.4591,253.28674 1463.9254,251.11628 1464.5941,251.15266 1465.7365,252.74249 1467.763,252.34887 1470.6208,255.7495 1471.6387,258.63545 1473.1018,260.39383 1471.4677,261.87512 1470.5599,264.02802 1472.922,265.97306 1473.7674,268.90146 1476.5768,269.11109 1478.4045,270.17222 1478.2054,271.22093 1476.6871,274.85477 1474.2818,276.74641 1473.4567,280.5525 1475.0136,280.67995 1476.5998,282.26986 1479.234,280.69742 1485.3892,281.04435 1485.8109,282.52449 1485.1281,282.69043 1483.3341,286.23549 1481.388,285.89433 1479.7639,287.12938 1478.3841,286.84596 1478.0832,287.97819 1476.5887,287.59877 1471.939,289.83183 1473.6253,288.34415 1473.3127,287.66033 1471.8325,287.42418 1470.5251,286.43093 1469.0881,285.91112 1468.4126,286.27557 1465.8527,288.98092 1463.1768,287.68249 1462.396,288.33541 1462.9601,289.57983 1462.1351,291.34772 1459.4013,293.00551 1458.6514,297.01031 1456.5146,299.00984 1454.4635,298.18109 1454.2193,296.72559 1450.9943,295.93807 1449.5876,294.45925 1448.2162,294.67666 1447.0809,293.87895 1445.9502,293.6024 1445.7555,290.61667 1443.4806,288.76942 1442.7384,288.89587 1442.3884,289.58005 1438.7691,288.73919 1437.6166,289.3916 1434.7585,289.08544 1433.9075,288.08965 1431.8059,286.38033 1433.833,283.10604 1435.2375,282.8904 1436.4569,283.6793 1437.8565,282.13481 1439.2473,281.93394 1438.7004,279.1727 z">
      <title id="t422">Neuvième circonscription de Seine-et-Marne</title>
      <desc id="d422">Cantons de : Brie-Comte-Robert, Pontault-Combault, Tournan-en-Brie , Commune de Combs-la-Ville</desc>
    </path><path class="circo" id="077-10" d="M 1436.8654,239.5741 1437.2408,236.71702 1435.5994,235.21352 1436.6461,234.10952 1439.5323,233.00382 1439.4519,231.51335 1440.3333,230.30682 1440.4737,230.18286 1443.4492,230.94056 1445.5477,233.21436 1448.2226,231.0677 1450.1048,232.52403 1449.2682,235.76787 1449.4891,237.03092 1450.6013,237.75399 1447.3948,241.1141 1445.9395,241.5353 1447.1791,244.17703 1450.2585,247.08907 1447.2403,247.41773 1445.7253,249.98239 1445.5618,253.69718 1441.7367,250.95931 1440.9805,251.18522 1439.5736,246.69593 1437.7333,242.39745 1439.0178,241.76388 1439.7291,239.78519 1436.8654,239.5741 z">
      <title id="t423">Dixième circonscription de Seine-et-Marne</title>
      <desc id="d423">Cantons de : Champs-sur-Marne, Chelles, Noisiel, Vaires-sur-Marne</desc>
    </path><path class="circo" id="077-11" d="M 1431.4867,305.08831 1430.0342,305.18554 1429.5175,302.94278 1432.9441,299.89577 1433.1014,297.23151 1430.6897,295.83538 1429.4019,292.53096 1429.9809,292.06846 1432.8281,291.63483 1433.0919,289.35065 1433.9075,288.08965 1434.7585,289.08544 1437.6166,289.3916 1438.7691,288.73919 1442.3884,289.58005 1442.7384,288.89587 1443.4806,288.76942 1445.7555,290.61667 1445.9502,293.6024 1447.0809,293.87895 1448.2162,294.67666 1449.5876,294.45925 1450.9943,295.93807 1449.4976,295.88415 1449.5145,298.85955 1448.2169,300.6817 1449.2296,301.59005 1449.818,303.59235 1449.4783,308.0327 1445.9669,309.63641 1448.3789,311.25511 1448.9677,312.61671 1448.2136,313.75326 1446.3162,315.38295 1443.1889,317.6275 1441.7112,318.00433 1439.8033,316.9459 1438.5493,315.00201 1435.8198,313.5786 1434.0589,313.21281 1431.9591,312.44964 1431.1944,311.18429 1431.4401,309.7298 1433.5038,307.5713 1433.8566,306.19837 1431.4867,305.08831 z">
      <title id="t424">Onzième circonscription de Seine-et-Marne</title>
      <desc id="d424">Cantons de : Combs-la-Ville (moins la commune de Combs-la-Ville), Le Mée-sur-Seine, Savigny-le-Temple</desc>
    </path></svg>