<svg xmlns="http://www.w3.org/2000/svg" version="1.1" xmlns:xlink="http://www.w3.org/1999/xlink" xmlns:svgjs="http://svgjs.dev/svgjs" viewBox="0 0 115.33130000000006 144.53497000000002"><path class="circo" id="id-078-01" d="M91.85640000000012 73.71784L89.68090000000007 71.29413000000002L89.11830000000009 70.85708000000002L85.5118 73.90961000000001L83.39630000000011 72.53993L83.05189999999993 71.21022000000002L85.02999999999997 67.31242999999998L80.9067 64.20266000000001L86.18430000000012 64.7482L89.14689999999996 64.36071000000001L89.66250000000014 65.21466000000001L92.1232 66.29166999999998L93.6282000000001 59.59632000000002L94.91340000000014 58.090149999999994L95.30079999999998 58.659340000000014L96.61120000000005 58.58363L98.39679999999998 57.60184000000001L98.59270000000015 59.092600000000004L101.10789999999997 60.66628L101.85670000000005 60.649879999999996L102.50210000000015 58.50976L103.69090000000006 57.60588000000001L104.13300000000004 59.197040000000015L104.02620000000002 59.772009999999995L105.58349999999996 61.134720000000016L105.1422 61.51659000000001L105.94489999999996 62.91387L105.41790000000015 63.93147999999999L105.1558 64.32846L103.01480000000015 64.32459L100.9208000000001 63.470110000000005L100.41270000000009 64.67164L101.0897 65.01251000000002L100.89100000000008 65.56914L100.23950000000013 65.79393999999999L98.91160000000013 65.63430000000002L98.00680000000011 65.26422L96.83249999999998 68.12874000000002L97.33159999999998 68.32685999999998L96.74330000000009 73.76808000000003L94.7831000000001 74.56523999999999L93.35630000000015 74.34385L91.85640000000012 73.71784z">
      <title id="t425">Première circonscription des Yvelines</title>
      <desc id="d425">Cantons de : Montigny-le-Bretonneux, Versailles Nord, Versailles Nord-Ouest, Versailles Sud (partie située, depuis la limite du canton de Montigny-le-Bretonneux, à l'ouest d'une ligne définie par l'axe des voies ci-après : route de la minière, axe prolongeant la route de la minière jusqu'à la ligne de chemin de fer vers Paris, axe de l'Allée des Matelots, allée des matelots jusqu'à la limite du canton de Versailles Nord-Ouest)</desc>
    </path><path class="circo" id="id-078-02" d="M76.06500000000005 94.45651000000001L73.70140000000015 96.25627L71.36339999999996 94.56397000000001L70.61580000000004 93.19633000000002L72.15110000000004 89.6661L72.55040000000008 89.17913000000001L73.34609999999998 87.53418000000002L72.81920000000014 86.29968L73.14670000000001 84.34013000000002L72.50410000000011 83.94165999999998L72.49610000000007 82.43379000000002L67.46029999999996 81.41617L67.93090000000007 78.52195000000003L69.38429999999994 78.90916000000001L71.74240000000009 77.08196000000001L74.0268000000001 78.87843000000001L76.10300000000007 78.64122999999998L76.3456000000001 80.75534999999999L77.52459999999996 81.73805000000002L80.06079999999997 79.93284000000003L79.9253000000001 76.24976999999998L80.50829999999996 75.77029999999999L83.39630000000011 72.53993L85.5118 73.90961000000001L89.11830000000009 70.85708000000002L89.68090000000007 71.29413000000002L91.85640000000012 73.71784L93.35630000000015 74.34385L94.7831000000001 74.56523999999999L96.74330000000009 73.76808000000003L97.33159999999998 68.32685999999998L96.83249999999998 68.12874000000002L98.00680000000011 65.26422L98.91160000000013 65.63430000000002L100.23950000000013 65.79393999999999L100.89100000000008 65.56914L101.0897 65.01251000000002L100.41270000000009 64.67164L100.9208000000001 63.470110000000005L103.01480000000015 64.32459L105.1558 64.32846L105.41790000000015 63.93147999999999L105.94489999999996 62.91387L105.1422 61.51659000000001L105.58349999999996 61.134720000000016L107.87030000000004 60.85829000000001L109.2301 64.04282L108.78729999999996 64.62697L111.69970000000012 64.36296000000002L112.66280000000006 65.45352L112.79410000000007 66.91384000000002L114.88930000000005 67.49267L115.2478000000001 68.13701L115.23739999999998 69.36832000000001L115.33130000000006 70.12024L114.69569999999999 70.52794000000003L112.44749999999999 70.67354000000003L111.42150000000015 69.70110000000003L109.92949999999996 69.60729999999998L109.48040000000015 70.17296000000002L110.19690000000014 72.16551999999999L109.75990000000002 74.29046000000002L107.65000000000009 73.53772000000001L105.6563000000001 74.66843000000003L104.11540000000014 74.63431L102.28320000000008 75.98983999999999L102.27369999999996 76.76644000000002L101.69510000000014 78.10805000000002L99.14679999999998 77.15999000000002L97.21050000000014 77.92014000000003L96.58809999999994 78.36275000000003L98.07349999999997 80.99161000000001L97.65980000000013 82.46405000000001L98.05050000000006 83.20972000000003L96.10590000000002 86.3158L96.20479999999998 87.76962L94.94470000000001 86.87123L93.87220000000002 89.69074000000003L92.05099999999993 88.91213000000002L91.57030000000009 89.36728000000002L89.96530000000007 89.39238000000003L88.51289999999995 89.39372L88.0272 90.7578L87.30120000000011 90.86327000000003L86.70880000000011 91.21087000000003L86.00850000000014 94.55321999999998L85.7382 95.92002L83.69679999999994 95.48637L83.45849999999996 96.82844000000003L80.7052000000001 95.82419000000002L79.93280000000004 96.19045000000003L79.05060000000003 95.02586L76.06500000000005 94.45651000000001z">
      <title id="t426">Deuxième circonscription des Yvelines</title>
      <desc id="d426">Cantons de : Chevreuse (moins la commune du Mesnil-Saint-Denis), Vélizy-Villacoublay, Versailles Sud (partie non comprise dans la 1re circonscription), Viroflay</desc>
    </path><path class="circo" id="id-078-03" d="M99.44949999999994 53.162499999999994L98.13699999999994 52.77710000000002L98.09519999999998 54.77632L96.91620000000012 54.40377000000001L95.44260000000008 53.6326L93.71980000000008 52.07187000000002L92.21209999999996 51.73385999999999L93.67200000000003 47.97053L93.17620000000011 47.46489L91.05430000000001 46.36157L90.41560000000004 46.063860000000005L88.65700000000015 47.219359999999995L87.2355 46.55722L84.72950000000014 45.44550000000001L81.49410000000012 43.46576000000002L79.05619999999999 41.46588L77.53510000000006 43.01301000000001L74.89630000000011 42.50758999999999L74.32690000000002 45.65642L75.48490000000015 48.30439000000001L77.25430000000006 49.635670000000005L77.16120000000001 50.39295000000001L76.02390000000014 52.348540000000014L77.39380000000006 54.80238L77.11990000000014 56.18209000000002L77.31100000000015 56.17151000000001L76.83950000000004 59.111260000000016L79.73530000000005 64.07426000000001L80.9067 64.20266000000001L81.20839999999998 61.31706L81.79279999999994 60.875339999999994L85.40129999999999 61.34309000000002L86.8786 58.12724L88.79079999999999 58.00098L89.52530000000002 57.09909000000002L90.51800000000003 57.40237000000002L92.18669999999997 58.83700000000002L93.6282000000001 59.59632000000002L94.91340000000014 58.090149999999994L95.30079999999998 58.659340000000014L96.61120000000005 58.58363L98.39679999999998 57.60184000000001L98.59270000000015 59.092600000000004L101.10789999999997 60.66628L101.85670000000005 60.649879999999996L102.50210000000015 58.50976L103.69090000000006 57.60588000000001L103.30590000000007 55.71702000000002L103.92090000000007 53.52385000000001L105.37530000000015 53.28587000000002L103.97720000000004 50.86315999999999L104.4728 49.53564L103.97330000000011 48.083380000000005L101.24950000000013 48.05844000000002L100.12390000000005 47.29245L101.21240000000012 49.991720000000015L99.84210000000007 52.59844000000001L99.44949999999994 53.162499999999994z">
      <title id="t427">Troisième circonscription des Yvelines</title>
      <desc id="d427">Cantons de : La Celle-Saint-Cloud, Le Chesnay, Saint-Nom-la-Bretèche, commune de Les Clayes-sous-Bois</desc>
    </path><path class="circo" id="id-078-04" d="M103.16679999999997 45.269180000000006L101.7808 44.829319999999996L100.86439999999993 46.78475L99.21199999999999 43.60566L98.04060000000004 44.35727L97.57190000000014 43.91557L96.68430000000012 44.78523000000001L96.14560000000006 45.99665000000002L94.1893 46.31862000000001L93.17620000000011 47.46489L93.67200000000003 47.97053L92.21209999999996 51.73385999999999L93.71980000000008 52.07187000000002L95.44260000000008 53.6326L96.91620000000012 54.40377000000001L98.09519999999998 54.77632L98.13699999999994 52.77710000000002L99.44949999999994 53.162499999999994L99.84210000000007 52.59844000000001L101.21240000000012 49.991720000000015L100.12390000000005 47.29245L101.24950000000013 48.05844000000002L103.97330000000011 48.083380000000005L105.14580000000001 45.892979999999994L106.77760000000012 42.473630000000014L107.50810000000001 41.741659999999996L111.39750000000004 39.57928000000001L111.19039999999995 37.26433L111.99299999999994 36.19154L111.15149999999994 33.599050000000005L108.7786000000001 33.309529999999995L106.56550000000016 35.55146000000002L105.51909999999998 36.97112000000001L105.59680000000003 39.73272L102.81909999999993 40.52128000000002L101.50630000000001 38.91284000000002L100.3601000000001 39.807860000000005L101.84519999999998 40.20000000000002L103.30349999999999 42.96194L103.16679999999997 45.269180000000006z">
      <title id="t428">Quatrième circonscription des Yvelines</title>
      <desc id="d428">Cantons de : Chatou, Houilles, Marly-le-Roi</desc>
    </path><path class="circo" id="id-078-05" d="M100.64139999999998 31.811740000000015L99.8927000000001 32.04071999999999L99.81130000000007 34.32521L98.05340000000001 36.870990000000006L97.13280000000009 39.86637999999999L98.47530000000006 40.10598000000002L99.51580000000013 40.81057000000001L98.45440000000008 41.68228000000002L99.21199999999999 43.60566L100.86439999999993 46.78475L101.7808 44.829319999999996L103.16679999999997 45.269180000000006L103.30349999999999 42.96194L101.84519999999998 40.20000000000002L100.3601000000001 39.807860000000005L101.50630000000001 38.91284000000002L102.81909999999993 40.52128000000002L105.59680000000003 39.73272L105.51909999999998 36.97112000000001L106.56550000000016 35.55146000000002L108.7786000000001 33.309529999999995L111.15149999999994 33.599050000000005L112.21109999999999 32.3818L112.17640000000006 30.336929999999995L107.33820000000014 29.536190000000005L108.07210000000009 28.078429999999997L108.0797 27.235829999999993L107.30340000000001 27.156779999999998L103.54130000000009 26.84256000000002L101.61950000000002 28.96194L100.64139999999998 31.811740000000015z">
      <title id="t429">Cinquième circonscription des Yvelines</title>
      <desc id="d429">Cantons de Maisons-Laffitte, Sartrouville, Le Vésinet</desc>
    </path><path class="circo" id="id-078-06" d="M88.72450000000003 31.038560000000018L87.11590000000001 33.73680000000002L85.02150000000006 34.78077999999999L82.97770000000014 33.719449999999995L84.2346 36.11861000000002L83.00890000000004 36.87458000000001L81.45540000000005 35.139579999999995L79.12670000000003 35.01353L78.55380000000014 31.28758000000002L77.25999999999999 31.476490000000013L77.21939999999995 31.15315000000001L78.67340000000013 28.361739999999998L81.16540000000009 26.435779999999994L82.10750000000007 29.378990000000016L82.26240000000007 32.23231000000001L82.96550000000002 32.095860000000016L85.9099000000001 28.23788000000002L87.0594000000001 28.262200000000007L86.95749999999998 27.696210000000008L88.47140000000013 27.611070000000012L88.95900000000006 28.204560000000015L89.7527 26.005300000000005L92.73680000000013 22.438600000000008L95.01160000000004 21.712800000000016L100.58210000000008 21.481570000000005L104.30700000000002 22.14613L106.33449999999993 23.18828000000002L107.61660000000006 25.042730000000006L108.0797 27.235829999999993L107.30340000000001 27.156779999999998L103.54130000000009 26.84256000000002L101.61950000000002 28.96194L100.64139999999998 31.811740000000015L99.8927000000001 32.04071999999999L99.81130000000007 34.32521L98.05340000000001 36.870990000000006L97.13280000000009 39.86637999999999L98.47530000000006 40.10598000000002L99.51580000000013 40.81057000000001L98.45440000000008 41.68228000000002L99.21199999999999 43.60566L98.04060000000004 44.35727L97.57190000000014 43.91557L96.68430000000012 44.78523000000001L96.14560000000006 45.99665000000002L94.1893 46.31862000000001L93.17620000000011 47.46489L91.05430000000001 46.36157L90.41560000000004 46.063860000000005L88.65700000000015 47.219359999999995L87.2355 46.55722L84.72950000000014 45.44550000000001L81.49410000000012 43.46576000000002L81.0929000000001 42.82745L81.93020000000001 41.578810000000004L83.85630000000015 40.41757000000001L85.01240000000007 38.47071L85.73170000000005 38.694590000000005L87.63260000000014 37.736230000000006L88.38710000000015 36.377219999999994L89.80899999999997 35.79318000000001L91.08330000000001 32.279799999999994L92.10930000000008 31.109489999999994L88.981 28.680200000000013L88.72450000000003 31.038560000000018z">
      <title id="t430">Sixième circonscription des Yvelines</title>
      <desc id="d430">Cantons de : Le Pecq, Saint-Germain-en-Laye Nord, Saint-Germain-en-Laye Sud , Communes de Carrières-sous-Poissy, Médan et Villennes-sur-Seine</desc>
    </path><path class="circo" id="id-078-07" d="M92.33640000000014 18.628929999999997L91.26210000000015 17.163900000000012L88.61120000000005 18.59647000000001L85.64540000000011 18.855700000000013L85.22659999999996 19.487250000000017L82.86300000000006 17.157340000000005L82.45759999999996 16.742770000000007L80.53410000000008 14.277209999999997L79.00040000000013 14.66822000000002L76.87580000000003 13.783360000000016L75.38789999999995 14.099070000000012L75.07240000000002 13.48254L73.69119999999998 13.318610000000007L72.53700000000003 14.104700000000008L68.79150000000004 9.630770000000012L69.02940000000012 8.67807000000002L68.20730000000003 8.184200000000004L64.50160000000005 11.65843000000001L64.2699 14.608470000000011L62.29740000000015 14.94287L61.28520000000003 15.831230000000005L60.921600000000126 15.86506L59.76420000000007 15.233080000000001L59.75469999999996 16.678740000000005L61.743799999999965 21.291830000000004L63.36640000000011 20.735640000000018L64.14390000000003 20.41628L72.43340000000012 17.532700000000006L73.81860000000006 17.574849999999998L72.72720000000004 23.31716L74.25800000000004 23.568160000000006L74.87130000000002 25.78657000000001L75.1889000000001 28.74167L77.21939999999995 31.15315000000001L78.67340000000013 28.361739999999998L81.16540000000009 26.435779999999994L82.10750000000007 29.378990000000016L82.26240000000007 32.23231000000001L82.96550000000002 32.095860000000016L85.9099000000001 28.23788000000002L87.0594000000001 28.262200000000007L86.95749999999998 27.696210000000008L88.47140000000013 27.611070000000012L88.95900000000006 28.204560000000015L89.7527 26.005300000000005L92.73680000000013 22.438600000000008L95.01160000000004 21.712800000000016L100.58210000000008 21.481570000000005L99.71270000000004 20.16386L100.4869000000001 17.05994000000001L99.66579999999999 14.844999999999999L97.69219999999996 16.96956L94.29169999999999 15.704970000000003L92.33640000000014 18.628929999999997z">
      <title id="t431">Septième circonscription des Yvelines</title>
      <desc id="d431">Cantons de: Andrésy, Conflans-Sainte-Honorine, Meulan (moins les communes des Mureaux et de Chapet), Triel-sur-Seine</desc>
    </path><path class="circo" id="id-078-08" d="M44.93920000000003 8.138400000000019L42.64160000000015 8.035070000000019L42.11329999999998 7.644049999999993L40.84030000000007 8.871640000000014L36.434999999999945 6.231060000000014L34.89149999999995 7.5779500000000155L28.937900000000127 10.578239999999994L25.29430000000002 12.509620000000012L25.105000000000018 12.677220000000005L24.674800000000005 16.298630000000003L22.66430000000014 16.692949999999996L20.270500000000084 15.328670000000017L18.865299999999934 17.918849999999992L14.804800000000114 21.03379000000001L17.725799999999936 22.75137000000001L20.70140000000015 21.90929L22.802799999999934 22.937720000000013L27.179300000000012 21.877980000000008L29.19340000000011 22.90303L30.164199999999937 23.42935L30.61850000000004 23.063000000000017L32.017500000000155 25.85348000000002L32.33830000000012 25.710430000000002L32.32989999999995 25.811800000000005L33.66360000000009 27.644859999999994L37.27330000000006 28.532690000000002L37.72810000000004 27.206559999999996L40.21460000000002 27.702529999999996L40.85730000000012 27.35590000000002L41.805700000000115 26.161640000000006L42.17290000000003 23.995779999999996L45.02469999999994 26.36933000000002L46.67679999999996 26.493210000000005L50.08030000000008 26.21523000000002L51.01570000000015 25.832310000000007L53.1726000000001 25.544200000000018L54.76379999999995 24.539420000000007L56.349899999999934 23.192560000000014L60.289800000000014 21.799319999999994L61.743799999999965 21.291830000000004L59.75469999999996 16.678740000000005L59.76420000000007 15.233080000000001L60.921600000000126 15.86506L61.392700000000104 14.46099000000001L60.92890000000011 12.297850000000011L59.75040000000013 11.491530000000012L61.840599999999995 6.052330000000012L58.287700000000086 4.401499999999999L58.169399999999996 3.374079999999992L55.649400000000014 1.7185499999999934L54.43550000000005 1.7774699999999939L51.64859999999999 2.7210699999999974L52.07179999999994 4.070390000000003L51.316299999999956 5.888290000000012L50.58899999999994 5.964330000000018L47.83120000000008 5.982619999999997L46.15859999999998 4.740489999999994L44.96759999999995 6.593919999999997L44.93920000000003 8.138400000000019z">
      <title id="t432">Huitième circonscription des Yvelines</title>
      <desc id="d432">Cantons de: Limay, Mantes-la-Jolie, Mantes-la-Ville</desc>
    </path><path class="circo" id="id-078-09" d="M54.76379999999995 24.539420000000007L53.1726000000001 25.544200000000018L51.01570000000015 25.832310000000007L50.08030000000008 26.21523000000002L46.67679999999996 26.493210000000005L45.02469999999994 26.36933000000002L42.17290000000003 23.995779999999996L41.805700000000115 26.161640000000006L40.85730000000012 27.35590000000002L40.21460000000002 27.702529999999996L37.72810000000004 27.206559999999996L37.27330000000006 28.532690000000002L33.66360000000009 27.644859999999994L32.32989999999995 25.811800000000005L32.33830000000012 25.710430000000002L32.017500000000155 25.85348000000002L30.61850000000004 23.063000000000017L30.164199999999937 23.42935L29.19340000000011 22.90303L27.179300000000012 21.877980000000008L22.802799999999934 22.937720000000013L20.70140000000015 21.90929L17.725799999999936 22.75137000000001L14.804800000000114 21.03379000000001L18.865299999999934 17.918849999999992L20.270500000000084 15.328670000000017L22.66430000000014 16.692949999999996L24.674800000000005 16.298630000000003L25.105000000000018 12.677220000000005L25.29430000000002 12.509620000000012L28.937900000000127 10.578239999999994L34.89149999999995 7.5779500000000155L36.434999999999945 6.231060000000014L36.96100000000001 4.257949999999994L35.536600000000135 2.8079500000000053L33.05670000000009 1.2133300000000133L29.47460000000001 0.6694400000000087L25.564000000000078 2.3391200000000083L24.698700000000144 2.959210000000013L23.88429999999994 1.4428900000000056L23.190900000000056 0.11516000000000304L21.749500000000126 0.3459000000000003L18.481899999999996 1.6878499999999974L16.779700000000048 3.1438400000000115L14.674400000000105 2.687209999999993L10.952600000000075 3.5968599999999924L10.24610000000007 0.97920000000002L9.314499999999953 0L9.692000000000007 1.452619999999996L8.28410000000008 5.685169999999999L5.804599999999937 7.345770000000016L4.314800000000105 6.9017100000000084L2.095600000000104 4.732820000000004L0 6.945459999999997L0.5900000000001455 7.431049999999999L0.12889999999993051 8.884730000000019L1.3221000000000913 10.831320000000005L1.5499999999999545 13.084509999999995L3.6322000000000116 14.814340000000016L4.4090000000001055 15.67747L3.9580000000000837 16.82978L4.897600000000011 17.76039L3.505200000000059 21.016670000000005L2.1324999999999363 21.52373L3.4911999999999352 24.689009999999996L4.581300000000056 23.69117L6.890300000000025 23.667059999999992L8.964699999999993 22.671160000000015L9.791200000000117 23.859010000000012L10.515100000000075 23.890109999999993L7.089799999999968 26.732879999999994L7.958599999999933 29.617019999999997L9.422000000000025 29.473810000000014L8.02130000000011 32.29286999999999L8.061799999999948 32.29218L9.501200000000154 34.004220000000004L8.994400000000041 35.40044L9.855400000000145 36.624979999999994L11.19029999999998 35.93204L13.452199999999948 36.65088L13.788600000000088 37.373260000000016L13.957100000000082 37.98734999999999L14.353000000000065 39.10341L13.492400000000089 40.02788000000001L17.22199999999998 43.639610000000005L14.632299999999987 47.73018000000002L16.49700000000007 49.57047L16.60349999999994 48.89518000000001L18.453899999999976 49.64398L20.064300000000003 51.08859000000001L19.222500000000082 54.04089000000002L20.605199999999968 54.301090000000016L21.828500000000076 55.214879999999994L21.769800000000032 55.987750000000005L19.8913 57.306659999999994L21.176300000000083 60.11202L21.138000000000147 60.78349L19.542400000000043 62.00574L19.18470000000002 67.31491000000003L20.7491 69.92726000000002L20.059200000000146 71.28585000000001L20.35180000000014 72.24109999999999L23.35660000000007 72.84949000000003L26.27480000000014 75.44129000000001L25.941299999999956 77.43199999999999L25.579300000000103 78.36208000000002L24.807700000000068 78.51903000000001L21.10660000000007 83.54724999999999L20.79950000000008 84.02862999999999L21.82640000000015 84.34483000000003L19.995200000000068 85.46817000000001L19.94990000000007 87.31529000000003L24.25389999999993 89.01807L25.58940000000007 89.43987999999999L26.861900000000105 88.88971999999998L26.429200000000037 87.58526000000003L28.587999999999965 87.03188000000003L29.834100000000035 84.34168000000003L32.755499999999984 85.11233000000001L35.23160000000007 83.53265999999999L36.74070000000006 83.49345000000002L38.80120000000011 83.61670999999998L39.33989999999994 84.12609999999998L39.54549999999995 83.41298000000003L39.068700000000035 78.31322000000003L33.68830000000003 76.70410000000001L36.63499999999999 73.42285000000001L39.55410000000006 73.41522999999998L39.01040000000012 72.01563999999999L37.22309999999993 70.51716000000002L37.29520000000002 69.75919000000002L38.205000000000155 68.54317999999998L40.46630000000005 68.36299L41.34010000000012 67.1174L40.75810000000001 64.60699L41.37889999999993 64.39303000000001L37.82420000000002 64.09357L38.03530000000001 63.57719L38.13000000000011 61.36422000000002L39.34460000000013 60.511979999999994L38.90509999999995 56.78369000000001L40.16930000000002 53.09103999999999L39.80359999999996 51.66779L41.436300000000074 50.67502999999999L41.689600000000155 48.00424000000001L42.02089999999998 47.386210000000005L43.27369999999996 47.952320000000014L43.47530000000006 47.318299999999994L44.76970000000006 47.052989999999994L45.093200000000024 46.473569999999995L44.51930000000016 46.142799999999994L47.786800000000085 42.41605000000001L49.66070000000013 43.46306000000001L50.54480000000012 44.68944000000002L53.62689999999998 44.71935000000002L55.59220000000005 46.82746L56.90949999999998 46.324479999999994L57.837400000000116 47.99526L60.631599999999935 47.84124L63.200000000000045 46.69797L64.44830000000002 47.25872000000001L65.66740000000004 46.359790000000004L65.394 44.12270000000001L66.84989999999993 44.37526L67.4221 43.9041L68.7170000000001 41.26636000000002L67.46620000000007 40.38539L66.04230000000007 37.677490000000006L64.51850000000013 37.66872000000001L67.11540000000014 34.899640000000005L69.56310000000008 36.01958000000002L71.16059999999993 33.40656000000001L74.87530000000015 30.69810000000001L74.56510000000003 29.221820000000008L75.1889000000001 28.74167L74.87130000000002 25.78657000000001L74.25800000000004 23.568160000000006L72.72720000000004 23.31716L73.81860000000006 17.574849999999998L72.43340000000012 17.532700000000006L64.14390000000003 20.41628L63.36640000000011 20.735640000000018L61.743799999999965 21.291830000000004L60.289800000000014 21.799319999999994L56.349899999999934 23.192560000000014L54.76379999999995 24.539420000000007z">
      <title id="t433">Neuvième circonscription des Yvelines</title>
      <desc id="d433">Cantons de: Aubergenville, Bonnières-sur-Seine, Guerville, Houdan., Communes de : Les Mureaux, Chapet</desc>
    </path><path class="circo" id="id-078-10" d="M62.683500000000095 64.1892L58.33380000000011 63.86458000000002L59.24270000000001 61.151100000000014L56.44800000000009 61.47514000000001L53.81370000000015 60.64404000000002L52.85259999999994 61.690709999999996L52.67910000000006 61.00671L51.974500000000035 61.02760000000001L50.84130000000005 61.85485L49.379900000000134 60.322010000000006L49.89260000000013 59.87575000000001L49.97230000000013 57.19569000000001L48.91190000000006 56.74932000000001L48.230600000000095 56.869069999999994L46.409200000000055 54.78799000000001L43.29120000000012 55.51033000000001L42.23770000000013 53.64968000000002L40.16930000000002 53.09103999999999L38.90509999999995 56.78369000000001L39.34460000000013 60.511979999999994L38.13000000000011 61.36422000000002L38.03530000000001 63.57719L37.82420000000002 64.09357L41.37889999999993 64.39303000000001L40.75810000000001 64.60699L41.34010000000012 67.1174L40.46630000000005 68.36299L38.205000000000155 68.54317999999998L37.29520000000002 69.75919000000002L37.22309999999993 70.51716000000002L39.01040000000012 72.01563999999999L39.55410000000006 73.41522999999998L36.63499999999999 73.42285000000001L33.68830000000003 76.70410000000001L39.068700000000035 78.31322000000003L39.54549999999995 83.41298000000003L39.33989999999994 84.12609999999998L38.80120000000011 83.61670999999998L36.74070000000006 83.49345000000002L35.23160000000007 83.53265999999999L32.755499999999984 85.11233000000001L29.834100000000035 84.34168000000003L28.587999999999965 87.03188000000003L26.429200000000037 87.58526000000003L26.861900000000105 88.88971999999998L25.58940000000007 89.43987999999999L24.25389999999993 89.01807L23.50109999999995 91.10875000000001L22.98389999999995 94.69762L23.702600000000075 95.47650999999999L25.94769999999994 97.55749L28.97160000000008 97.33991L28.622800000000097 98.77351999999999L30.210399999999936 100.28637999999998L29.913600000000088 101.59609000000003L30.99929999999995 102.53157999999999L31.076099999999997 103.99337L32.39609999999993 105.75001999999998L34.72829999999999 104.59781999999998L36.01240000000007 104.95885999999999L34.89280000000008 105.43618000000001L35.76260000000002 106.2347L36.109100000000126 105.59297999999998L39.61090000000013 105.87550000000002L40.05160000000001 107.21026000000003L37.665500000000065 112.16959L38.89020000000005 113.00228000000001L38.73960000000011 113.72871L43.10630000000015 114.85027L44.49420000000009 114.25106000000002L46.458700000000135 115.14482999999998L46.97090000000003 117.25791999999998L48.932199999999966 119.40419L50.272899999999936 119.15421L48.65460000000007 125.16934L48.734699999999975 128.28130000000002L50.60990000000015 131.61382L50.18360000000007 133.05812L51.61740000000009 134.68211L51.231500000000096 135.89221999999998L52.25739999999996 136.89410999999998L52.474300000000085 138.27351000000002L53.71309999999994 138.71225L57.27060000000006 138.46436000000003L57.944999999999936 140.51701L59.14200000000005 143.04911L61.19319999999993 143.54265L62.409400000000005 144.42573000000002L63.90700000000015 144.38816L64.59870000000001 144.53497000000002L67.61349999999993 144.47843000000003L68.45389999999998 143.22326999999999L69.88760000000002 142.76624L70.22230000000013 140.61321999999998L69.3927000000001 139.34063L69.43499999999995 137.02441000000002L70.38699999999994 135.81116L71.8429000000001 135.29969000000003L72.0159000000001 132.09745L74.76850000000013 125.91150000000002L76.39409999999998 124.93778999999998L76.95360000000005 125.29825000000002L78.37069999999994 124.92821L78.19939999999997 123.43766000000002L76.12490000000003 123.34231000000003L71.99310000000014 120.29301000000001L72.5612000000001 117.35891999999998L76.2165 117.64782L78.72749999999996 119.02216999999999L79.21910000000003 118.46495000000002L84.33339999999998 118.29359000000002L84.97600000000011 113.69989999999999L87.0199 111.30379000000002L86.62170000000015 109.21885L86.91229999999996 107.73067999999998L89.84050000000002 107.03513999999998L90.24710000000005 104.95795999999999L88.03760000000011 102.91796000000002L87.88969999999995 102.80094L87.03729999999996 101.68625L86.87480000000005 99.54427999999999L84.73310000000015 99.39973999999998L83.45849999999996 96.82844000000003L80.7052000000001 95.82419000000002L79.93280000000004 96.19045000000003L79.05060000000003 95.02586L76.06500000000005 94.45651000000001L73.70140000000015 96.25627L71.36339999999996 94.56397000000001L70.61580000000004 93.19633000000002L72.15110000000004 89.6661L72.55040000000008 89.17913000000001L73.34609999999998 87.53418000000002L72.81920000000014 86.29968L73.14670000000001 84.34013000000002L72.50410000000011 83.94165999999998L72.49610000000007 82.43379000000002L67.46029999999996 81.41617L67.93090000000007 78.52195000000003L69.38429999999994 78.90916000000001L71.74240000000009 77.08196000000001L72.43640000000005 75.60409999999999L72.89010000000007 73.7277L74.6282000000001 73.12138000000002L74.64329999999995 71.82361L73.95090000000005 71.66141000000002L72.34519999999998 68.50840000000002L73.04520000000002 65.90290000000002L69.15190000000007 63.41374000000002L66.72399999999993 61.84386000000001L66.0141000000001 62.05785L66.0598 62.739750000000015L64.73939999999993 62.78465L64.86170000000016 63.03545L63.371599999999944 62.870630000000006L62.89859999999999 64.30729L62.683500000000095 64.1892z">
      <title id="t434">Dixième circonscription des Yvelines</title>
      <desc id="d434">Cantons de : Maurepas (moins les communes d'Elancourt et de La Verrière), Monfort-l'Amaury (partie non comprise dans la 12e circonscription), Rambouillet, Saint-Arnoult-en-Yvelines</desc>
    </path><path class="circo" id="id-078-11" d="M89.5440000000001 57.087320000000005L88.78279999999995 58.01152999999999L86.87990000000013 58.12026L85.41219999999998 61.32781L81.76960000000008 60.892889999999994L81.22590000000014 61.32781L80.89959999999996 64.20916L86.17319999999995 64.75281000000001L89.16319999999996 64.37225000000001L89.65260000000012 65.18773000000002L92.09899999999993 66.27502999999999L93.62120000000004 59.58812L92.20780000000013 58.82701L90.52260000000001 57.413520000000005L89.5440000000001 57.087320000000005zM80.89959999999996 64.20916L79.75819999999999 64.10043000000002L79.64959999999996 64.10043000000002L77.31169999999997 64.04606000000001L75.35450000000014 66.43814L73.07120000000009 65.89446000000001L72.36460000000011 68.50399000000002L73.9411 71.65718000000001L74.64779999999996 71.82027000000002L74.64779999999996 73.12503000000001L72.90820000000008 73.72306L72.41880000000015 75.62582999999998L71.76649999999995 77.09369000000001L74.0498 78.88773999999998L76.11560000000009 78.61591000000001L76.33310000000006 80.73614999999998L77.52909999999997 81.71472000000003L80.08429999999998 79.92069000000001L79.92110000000002 76.22386000000003L80.51919999999996 75.78891999999999L83.40059999999994 72.52702000000002L83.07439999999997 71.22226000000003L85.03150000000005 67.30796000000001L80.89959999999996 64.20916z">
      <title id="t435">Onzième circonscription des Yvelines</title>
      <desc id="d435">Cantons de : Saint-Cyr-l'Ecole, Trappes , Communes de : Elancourt et La Verrière (issues du canton de Maurepas), Le Mesnil-Saint-Denis (issue du canton de Chevreuse)</desc>
    </path><path class="circo" id="id-078-12" d="M48.91190000000006 56.74932000000001L48.230600000000095 56.869069999999994L46.409200000000055 54.78799000000001L43.29120000000012 55.51033000000001L42.23770000000013 53.64968000000002L40.16930000000002 53.09103999999999L39.80359999999996 51.66779L41.436300000000074 50.67502999999999L41.689600000000155 48.00424000000001L42.02089999999998 47.386210000000005L43.27369999999996 47.952320000000014L43.47530000000006 47.318299999999994L44.76970000000006 47.052989999999994L45.093200000000024 46.473569999999995L44.51930000000016 46.142799999999994L47.786800000000085 42.41605000000001L49.66070000000013 43.46306000000001L50.54480000000012 44.68944000000002L53.62689999999998 44.71935000000002L55.59220000000005 46.82746L56.90949999999998 46.324479999999994L57.837400000000116 47.99526L60.631599999999935 47.84124L63.200000000000045 46.69797L64.44830000000002 47.25872000000001L65.66740000000004 46.359790000000004L65.394 44.12270000000001L66.84989999999993 44.37526L67.4221 43.9041L68.7170000000001 41.26636000000002L67.46620000000007 40.38539L66.04230000000007 37.677490000000006L64.51850000000013 37.66872000000001L67.11540000000014 34.899640000000005L69.56310000000008 36.01958000000002L71.16059999999993 33.40656000000001L74.87530000000015 30.69810000000001L74.56510000000003 29.221820000000008L75.1889000000001 28.74167L77.21939999999995 31.15315000000001L77.25999999999999 31.476490000000013L78.55380000000014 31.28758000000002L79.12670000000003 35.01353L81.45540000000005 35.139579999999995L83.00890000000004 36.87458000000001L84.2346 36.11861000000002L82.97770000000014 33.719449999999995L85.02150000000006 34.78077999999999L87.11590000000001 33.73680000000002L88.72450000000003 31.038560000000018L88.981 28.680200000000013L92.10930000000008 31.109489999999994L91.08330000000001 32.279799999999994L89.80899999999997 35.79318000000001L88.38710000000015 36.377219999999994L87.63260000000014 37.736230000000006L85.73170000000005 38.694590000000005L85.01240000000007 38.47071L83.85630000000015 40.41757000000001L81.93020000000001 41.578810000000004L81.0929000000001 42.82745L81.49410000000012 43.46576000000002L79.05619999999999 41.46588L77.53510000000006 43.01301000000001L74.89630000000011 42.50758999999999L74.32690000000002 45.65642L75.48490000000015 48.30439000000001L77.25430000000006 49.635670000000005L77.16120000000001 50.39295000000001L76.02390000000014 52.348540000000014L77.39380000000006 54.80238L77.11990000000014 56.18209000000002L77.31100000000015 56.17151000000001L76.83950000000004 59.111260000000016L79.73530000000005 64.07426000000001L79.65460000000007 64.08346L77.30459999999994 64.0352L75.35660000000007 66.41310000000001L73.04520000000002 65.90290000000002L69.15190000000007 63.41374000000002L66.72399999999993 61.84386000000001L66.0141000000001 62.05785L66.0598 62.739750000000015L64.73939999999993 62.78465L64.86170000000016 63.03545L63.371599999999944 62.870630000000006L62.89859999999999 64.30729L62.683500000000095 64.1892L58.33380000000011 63.86458000000002L59.24270000000001 61.151100000000014L56.44800000000009 61.47514000000001L53.81370000000015 60.64404000000002L52.85259999999994 61.690709999999996L52.67910000000006 61.00671L51.974500000000035 61.02760000000001L50.84130000000005 61.85485L49.379900000000134 60.322010000000006L49.89260000000013 59.87575000000001L49.97230000000013 57.19569000000001L48.91190000000006 56.74932000000001z">
      <title id="t436">Douzième circonscription des Yvelines</title>
      <desc id="d436">Cantons de : Plaisir (moins la commune de Les Clayes-sous-Bois), Poissy Sud , Communes de : Auteuil, Autouillet, Beynes, Boissy-sans-Avoir, Flexanville, Goupillières, Marcq, Neauphle-le-Château, Neauphle-le-Vieux, Saint-Germain-de-la-Grange, Saulx-Marchais, Thoiry, Vicq, Villiers-le-Mahieu, Villiers-Saint-Fréderic (issues du canton de Montfort-L'Amaury) , Commune de Poissy (partie comprise dans le canton de Poissy Nord)</desc>
    </path></svg>