<svg xmlns="http://www.w3.org/2000/svg" version="1.1" xmlns:xlink="http://www.w3.org/1999/xlink" xmlns:svgjs="http://svgjs.dev/svgjs" viewBox="0 0 95.3003 140.72929999999997"><path class="circo" id="id-079-01" d="M43.48949999999991 82.53143999999998L43.43039999999996 84.07484L42.95359999999994 85.12577999999996L43.53139999999996 85.65647999999999L43.65909999999997 86.44223L44.38339999999994 86.77436L45.459199999999896 87.14715000000001L46.25049999999999 87.99756000000002L45.54139999999995 89.34303L46.71769999999992 90.34791999999993L46.58629999999994 90.72001999999998L46.42259999999999 92.16040999999996L46.86719999999991 92.80758000000003L46.7331999999999 93.58695L47.0619999999999 93.80382999999995L46.61559999999997 94.31229999999994L47.573299999999904 95.58546999999999L47.547399999999925 96.36329L49.86449999999991 97.10507999999993L48.970699999999965 97.86056999999994L48.65389999999991 99.02969999999993L49.422199999999975 99.8999L49.02119999999991 101.08884999999998L49.64119999999991 102.16910999999993L49.29239999999993 103.36442999999997L48.69709999999998 103.92039L51.043199999999956 105.60900000000004L50.65199999999993 105.76058L50.18859999999995 107.27679L50.373699999999985 108.08754999999996L52.08019999999999 108.34266000000002L53.8984999999999 109.39091999999994L52.13069999999993 111.0213L51.902999999999906 111.80912999999998L52.4061999999999 112.42124999999999L51.9369999999999 113.37051999999994L51.51139999999998 113.32188999999994L49.96109999999999 114.73376999999994L49.1336 116.22696999999994L48.31209999999999 116.14779999999996L47.50739999999996 115.16184999999996L46.43279999999993 113.851L46.201499999999896 113.52106000000003L45.7559 113.05652999999995L44.62099999999998 112.70223999999996L42.7183 111.17128000000002L43.15499999999997 110.03300000000002L39.67689999999993 109.31696L39.362699999999904 109.58100000000002L39.56359999999995 108.79142999999999L38.816599999999994 108.44749000000002L39.0569999999999 107.67818999999997L38.403499999999894 106.69321000000002L38.58259999999996 105.88548000000003L38.863399999999956 104.80162999999993L38.18319999999994 102.85738000000003L38.16029999999989 101.62458000000004L37.71769999999992 100.95095000000003L36.66539999999998 102.13712999999996L35.12059999999997 101.78633000000002L35.2355 99.35271999999998L32.005199999999945 99.45682L31.67629999999997 100.23799999999994L30.1801999999999 101.01935000000003L28.588899999999967 101.44399999999996L27.89309999999989 101.06301999999994L26.81499999999994 99.37092999999993L26.702699999999936 97.74757999999997L24.26139999999998 98.91882999999996L22.717599999999948 98.69830999999999L21.988099999999918 97.81453999999997L22.56129999999996 97.17449999999997L22.53679999999997 95.96713L24.05079999999998 95.32802000000004L25.009500000000003 94.46820000000002L25.448099999999954 92.87285999999995L27.523199999999974 93.31538999999998L29.123699999999985 92.70658000000003L29.319999999999936 92.32349999999997L30.976299999999924 89.56139999999994L29.970699999999965 88.79239999999993L28.322599999999966 88.56254999999999L28.037099999999896 87.80564000000004L27.220100000000002 87.61841000000004L25.582499999999982 86.33632999999998L24.75369999999998 86.28430000000003L23.913999999999987 89.06957L22.440999999999917 88.29324999999994L23.109699999999975 87.29791L22.33829999999989 86.32337999999993L22.55759999999998 83.91007000000002L23.9692 83.05778999999995L24.346399999999903 81.49033999999995L24.990999999999985 81.20829000000003L24.310499999999934 80.14402999999993L24.15939999999989 78.87608L23.261199999999917 78.03291000000002L23.518799999999942 75.95557999999994L22.769199999999955 74.97384999999997L21.918399999999906 74.21059000000002L22.401299999999992 73.17499999999995L22.09929999999997 72.49739999999997L23.29219999999998 72.07696999999996L24.9532999999999 72.08191L25.508199999999988 71.44497999999999L25.42579999999998 70.26806999999997L24.982899999999972 67.83501000000001L24.163099999999986 67.9574L23.589699999999993 65.98551999999995L24.54779999999994 64.72849999999994L24.079599999999914 64.06551000000002L24.269699999999943 63.33528000000001L23.38119999999992 62.50301999999999L24.502099999999928 60.70577000000003L27.024999999999977 61.04548999999997L26.99509999999998 60.31170999999995L27.288799999999924 60.09424999999999L28.135099999999966 59.99436000000003L29.410499999999956 61.12901999999997L28.820499999999925 59.55718000000002L31.873299999999972 56.63641999999993L33.74699999999996 58.09504000000004L35.676599999999894 57.47932000000003L36.5551999999999 56.562119999999936L36.63869999999997 53.66928999999993L36.311399999999935 52.04427999999996L35.64269999999999 51.57571999999993L36.367599999999925 50.205420000000004L38.49189999999999 49.91089999999997L39.57549999999992 49.24333999999999L40.618799999999965 50.576529999999934L41.74979999999994 51.18755999999996L41.67949999999996 52.47723999999994L42.23359999999991 52.39062999999999L42.934799999999996 52.77574000000004L43.18799999999999 53.93169L43.53839999999991 54.13535000000002L43.84399999999994 53.83865000000003L44.584499999999935 54.263439999999946L45.41279999999995 54.062760000000026L46.55589999999995 54.58775000000003L49.54939999999999 53.04720999999995L50.423799999999915 52.13152000000002L51.575399999999945 51.76941999999997L52.63009999999997 53.12117999999998L52.54989999999998 55.212170000000015L53.535499999999956 57.08964000000003L51.01019999999994 57.38050999999996L47.91029999999989 58.81124L49.55949999999996 59.02031999999997L49.8999 60.64241000000004L49.19539999999995 61.659149999999954L50.01529999999991 61.61905999999999L50.520399999999995 62.26681999999994L51.30899999999997 62.49350000000004L52.856199999999944 62.491269999999986L53.59119999999996 62.12391000000002L54.26509999999996 62.21189000000004L54.7559 61.739959999999996L55.560199999999895 63.08376999999996L58.07159999999999 64.38735999999994L58.543899999999894 63.70367999999996L59.4511 62.99779000000001L60.918699999999944 63.59370999999999L62.11019999999996 63.43300999999997L62.443899999999985 64.16310999999996L61.83889999999997 66.06107999999995L62.426599999999894 66.59007999999994L61.73899999999992 69.02643999999998L59.79669999999999 68.79998999999998L59.22119999999995 69.91832L59.09619999999995 72.01025000000004L60.34179999999992 72.10105999999996L61.27999999999997 72.91138000000001L62.44819999999993 73.04120999999998L61.961599999999976 73.72097999999994L61.91269999999997 75.37914999999998L61.280899999999974 76.90900999999997L60.690099999999916 77.44136000000003L60.53509999999994 79.09960000000001L59.787199999999984 79.35681L59.464599999999905 80.70006000000001L58.719999999999914 81.06516999999997L57.44019999999989 80.09442999999999L54.94509999999991 81.47603000000004L54.52089999999998 81.48465999999996L54.4298 79.83824000000004L52.8596 77.34061999999994L52.036899999999946 78.22596999999996L51.12829999999997 76.91234999999995L50.76279999999997 77.11123999999995L51.43169999999998 79.96325000000002L50.719299999999976 80.98286999999993L49.28469999999993 81.79494999999997L48.81129999999996 82.95343000000003L47.926199999999994 83.66907000000003L47.24169999999992 83.3347L46.581999999999994 83.69065999999998L44.59259999999995 82.90310999999997L43.83209999999997 81.88623999999993L43.48949999999991 82.53143999999998z">
      <title id="t437">Première circonscription des Deux-Sèvres</title>
      <desc id="d437">Cantons de : Champdeniers-Saint-Denis, Coulonges-sur-l'Autize, Mazières-en-Gâtine, Niort Est, Niort Nord, Niort Ouest, Prahecq, Secondigny</desc>
    </path><path class="circo" id="id-079-02" d="M32.060199999999895 121.19044999999994L31.911899999999946 120.40985L31.360199999999963 119.89940999999999L30.20649999999989 119.39077999999995L28.55499999999995 119.45984999999996L27.4461 118.85106999999994L27.12729999999999 119.91842999999994L25.49129999999991 119.54756999999995L24.341499999999996 120.05484000000001L23.29309999999998 119.42624L22.946899999999914 118.82296999999994L23.16249999999991 118.47672L25.465999999999894 117.95263999999997L24.58269999999993 117.22442999999998L23.7512999999999 117.29805999999996L22.74619999999993 116.70822999999996L21.98689999999999 116.79426999999998L20.980899999999906 116.18929000000003L19.80469999999991 114.53769999999997L18.1644 114.68196L17.874399999999923 113.54991999999993L17.48849999999993 113.39201000000003L17.607799999999997 112.99242000000004L18.41579999999999 113.09286999999995L18.683899999999994 112.78365999999994L18.35069999999996 110.81726000000003L17.958599999999933 110.12586999999996L16.94939999999997 109.48331999999994L12.814499999999953 106.96288000000004L12.598299999999995 106.15211L14.129399999999919 104.16619000000003L13.342699999999923 102.71803999999997L12.543099999999981 100.32979L12.89829999999995 99.68395999999996L14.957699999999932 99.81352000000004L15.626299999999901 99.54774999999995L15.377199999999903 98.78751999999997L15.79849999999999 98.12973L16.584999999999923 97.99275L17.415199999999913 97.10816L19.545799999999986 98.21218999999996L21.262699999999995 98.05786L21.988099999999918 97.81453999999997L22.717599999999948 98.69830999999999L24.26139999999998 98.91882999999996L26.702699999999936 97.74757999999997L26.81499999999994 99.37092999999993L27.89309999999989 101.06301999999994L28.588899999999967 101.44399999999996L30.1801999999999 101.01935000000003L31.67629999999997 100.23799999999994L32.005199999999945 99.45682L35.2355 99.35271999999998L35.12059999999997 101.78633000000002L36.66539999999998 102.13712999999996L37.71769999999992 100.95095000000003L38.16029999999989 101.62458000000004L38.18319999999994 102.85738000000003L38.863399999999956 104.80162999999993L38.58259999999996 105.88548000000003L38.403499999999894 106.69321000000002L39.0569999999999 107.67818999999997L38.816599999999994 108.44749000000002L39.56359999999995 108.79142999999999L39.362699999999904 109.58100000000002L39.67689999999993 109.31696L43.15499999999997 110.03300000000002L42.7183 111.17128000000002L44.62099999999998 112.70223999999996L45.7559 113.05652999999995L46.201499999999896 113.52106000000003L46.43279999999993 113.851L47.50739999999996 115.16184999999996L48.31209999999999 116.14779999999996L49.1336 116.22696999999994L49.96109999999999 114.73376999999994L51.51139999999998 113.32188999999994L51.9369999999999 113.37051999999994L52.4061999999999 112.42124999999999L51.902999999999906 111.80912999999998L52.13069999999993 111.0213L53.8984999999999 109.39091999999994L52.08019999999999 108.34266000000002L50.373699999999985 108.08754999999996L50.18859999999995 107.27679L50.65199999999993 105.76058L51.043199999999956 105.60900000000004L48.69709999999998 103.92039L49.29239999999993 103.36442999999997L49.64119999999991 102.16910999999993L49.02119999999991 101.08884999999998L49.422199999999975 99.8999L48.65389999999991 99.02969999999993L48.970699999999965 97.86056999999994L49.86449999999991 97.10507999999993L47.547399999999925 96.36329L47.573299999999904 95.58546999999999L46.61559999999997 94.31229999999994L47.0619999999999 93.80382999999995L46.7331999999999 93.58695L46.86719999999991 92.80758000000003L46.42259999999999 92.16040999999996L46.58629999999994 90.72001999999998L46.71769999999992 90.34791999999993L45.54139999999995 89.34303L46.25049999999999 87.99756000000002L45.459199999999896 87.14715000000001L44.38339999999994 86.77436L43.65909999999997 86.44223L43.53139999999996 85.65647999999999L42.95359999999994 85.12577999999996L43.43039999999996 84.07484L43.48949999999991 82.53143999999998L43.83209999999997 81.88623999999993L44.59259999999995 82.90310999999997L46.581999999999994 83.69065999999998L47.24169999999992 83.3347L47.926199999999994 83.66907000000003L48.81129999999996 82.95343000000003L49.28469999999993 81.79494999999997L50.719299999999976 80.98286999999993L51.43169999999998 79.96325000000002L50.76279999999997 77.11123999999995L51.12829999999997 76.91234999999995L52.036899999999946 78.22596999999996L52.8596 77.34061999999994L54.4298 79.83824000000004L54.52089999999998 81.48465999999996L54.94509999999991 81.47603000000004L57.44019999999989 80.09442999999999L58.719999999999914 81.06516999999997L59.464599999999905 80.70006000000001L59.787199999999984 79.35681L60.53509999999994 79.09960000000001L60.690099999999916 77.44136000000003L61.280899999999974 76.90900999999997L61.91269999999997 75.37914999999998L61.961599999999976 73.72097999999994L62.44819999999993 73.04120999999998L61.27999999999997 72.91138000000001L60.34179999999992 72.10105999999996L59.09619999999995 72.01025000000004L59.22119999999995 69.91832L59.79669999999999 68.79998999999998L61.73899999999992 69.02643999999998L62.426599999999894 66.59007999999994L61.83889999999997 66.06107999999995L62.443899999999985 64.16310999999996L62.11019999999996 63.43300999999997L60.918699999999944 63.59370999999999L59.4511 62.99779000000001L58.543899999999894 63.70367999999996L58.07159999999999 64.38735999999994L55.560199999999895 63.08376999999996L54.7559 61.739959999999996L54.26509999999996 62.21189000000004L53.59119999999996 62.12391000000002L52.856199999999944 62.491269999999986L51.30899999999997 62.49350000000004L50.520399999999995 62.26681999999994L50.01529999999991 61.61905999999999L49.19539999999995 61.659149999999954L49.8999 60.64241000000004L49.55949999999996 59.02031999999997L47.91029999999989 58.81124L51.01019999999994 57.38050999999996L53.535499999999956 57.08964000000003L52.54989999999998 55.212170000000015L52.63009999999997 53.12117999999998L51.575399999999945 51.76941999999997L50.423799999999915 52.13152000000002L49.54939999999999 53.04720999999995L46.55589999999995 54.58775000000003L45.41279999999995 54.062760000000026L44.584499999999935 54.263439999999946L43.84399999999994 53.83865000000003L43.53839999999991 54.13535000000002L43.18799999999999 53.93169L42.934799999999996 52.77574000000004L42.23359999999991 52.39062999999999L44.61889999999994 50.97438999999997L44.36669999999992 50.64779999999996L45.230999999999995 49.78854999999999L44.6952 47.802509999999984L44.89249999999993 47.43868999999995L45.498899999999935 45.84899999999993L44.40269999999998 44.027919999999995L45.91489999999999 43.33694000000003L47.580499999999915 43.07809999999995L50.03639999999996 40.23157000000003L51.98249999999996 41.81552999999997L54.0533999999999 42.28724999999997L54.25619999999992 42.66351999999995L53.840999999999894 43.40766999999994L53.909599999999955 44.25905L54.67949999999996 45.253349999999955L55.74039999999991 45.011709999999994L56.63429999999994 44.77030000000002L57.5610999999999 45.52810999999997L58.09009999999989 46.67105000000004L57.96079999999995 47.92911000000004L57.10659999999996 48.86248999999998L56.99789999999996 50.100310000000036L58.493799999999965 52.689250000000015L59.092199999999934 53.22649999999999L61.59689999999989 51.63297L63.989999999999895 51.92976999999996L64.46439999999996 50.757240000000024L64.12529999999992 48.27629000000002L64.88569999999993 48.24033999999995L66.3273999999999 47.378420000000006L65.0433999999999 45.64359000000002L67.59399999999994 44.25792999999999L67.5329999999999 43.41300000000001L67.83679999999993 43.115819999999985L68.49499999999989 42.24680000000001L69.1923999999999 41.80894999999998L70.58109999999999 42.602210000000014L71.5693 43.914390000000026L71.7038 45.09073000000001L74.04429999999991 44.320460000000026L74.26729999999998 43.50693000000001L73.89059999999995 41.84642999999994L74.4351999999999 41.19134999999994L74.83119999999997 41.34388999999999L74.87389999999994 42.55120999999997L75.61399999999992 44.07357000000002L76.52749999999992 43.213480000000004L78.74329999999998 45.73612000000003L79.50119999999993 46.040629999999965L79.79369999999994 47.27773000000002L79.40229999999997 47.44452000000001L78.6336 47.38189L77.0121999999999 48.62555999999995L76.6499 48.85158000000001L76.9165999999999 50.100310000000036L76.6905999999999 50.896060000000034L75.13029999999992 51.519949999999994L75.87399999999991 52.96084999999994L73.99959999999999 54.61128999999994L73.96669999999995 54.622679999999946L73.47079999999994 55.298L73.7467999999999 55.62114999999994L73.67149999999992 56.87826999999993L71.68779999999992 58.448009999999954L71.01329999999996 59.52499999999998L71.09619999999995 60.37161000000003L74.29429999999991 59.665610000000015L75.22809999999993 58.319009999999935L76.274 57.663189999999986L76.73109999999997 58.278279999999995L75.83359999999993 61.142259999999965L76.96109999999999 61.76927999999998L78.63329999999996 61.39805000000001L78.73029999999994 63.80141000000003L80.32179999999994 64.28865999999994L79.29149999999993 65.04747999999995L78.43459999999993 65.09546L76.40879999999993 66.69233999999994L75.83119999999997 68.70628999999997L77.29519999999991 69.95465999999999L76.15769999999998 72.59462999999994L74.02559999999994 72.47046999999998L74.04019999999991 74.53134L73.39309999999989 75.59129999999993L73.35559999999998 76.40711999999996L73.95559999999989 76.95814999999993L73.07499999999993 77.73528999999996L73.01339999999993 78.95889999999997L73.28189999999995 79.25215000000003L75.14729999999997 78.63095999999996L75.62519999999995 79.10194999999999L75.80089999999996 79.46554000000003L75.0548 81.32327999999995L75.79109999999991 81.74090999999999L75.60459999999989 84.70244000000002L74.97199999999998 87.16872000000001L76.01159999999993 88.38740999999993L76.0107999999999 89.24135999999999L76.726 88.83762999999999L77.92879999999991 89.02841000000001L78.61689999999999 90.42923999999994L79.59929999999997 91.15923999999995L77.8676999999999 93.18952000000002L79.36019999999996 94.52016000000003L78.64729999999997 94.97538999999995L77.97399999999993 96.97668999999996L79.1857 96.67904999999996L80.69939999999997 97.45168999999999L83.33929999999998 99.59979999999996L84.92989999999998 97.67804000000001L84.81029999999998 96.83057999999994L85.30679999999995 96.13567L86.71589999999992 95.17534999999998L87.17279999999994 94.44848999999999L88.3866999999999 94.12794999999994L89.9677999999999 94.88167999999996L91.76729999999998 96.74823000000004L90.79669999999999 98.10955000000001L91.09779999999989 98.89372000000003L90.71589999999992 99.52954L89.90729999999996 99.35469L89.69129999999996 99.70955000000004L91.33819999999992 102.84028L90.46479999999997 104.20467999999994L87.64199999999994 104.23837000000003L88.37479999999994 106.97333000000003L88.54609999999991 107.55958999999996L88.82009999999991 108.75996999999995L88.24069999999995 109.33906999999999L87.85289999999998 109.20366999999999L86.7242 110.88113999999996L86.33249999999998 111.00066000000004L85.8454999999999 114.21996000000001L88.55909999999994 115.00459000000001L88.88099999999997 115.76508000000001L89.28039999999999 115.86781999999994L89.8753999999999 117.75837999999999L91.30079999999998 117.92256999999995L91.72919999999999 118.62261000000001L92.56919999999991 118.72297000000003L93.54689999999994 117.41869999999994L94.82379999999989 117.52816999999993L95.2308999999999 117.57344999999998L95.3003 117.97901999999999L95.0773999999999 119.60326999999995L93.73799999999994 121.10865000000001L93.5616 121.47965999999997L93.94859999999994 121.61505999999997L93.69039999999995 122.63195999999994L92.7435999999999 123.38386000000003L92.90189999999996 124.18250999999998L93.4659999999999 125.31448999999998L91.78159999999991 126.82803000000001L91.10109999999997 126.97397999999998L90.93039999999996 126.66319999999996L88.23519999999996 124.27347999999995L86.81709999999998 125.06308000000001L85.67359999999996 125.01674000000003L84.91159999999991 124.1114L84.59699999999998 124.35942L85.15329999999994 125.81016999999997L84.9283999999999 126.13215000000002L83.97679999999991 125.61063000000001L82.89339999999993 125.51832999999999L81.17409999999995 127.21588999999994L81.92049999999995 128.16737L81.15779999999995 128.46313999999995L79.90379999999993 128.62499000000003L78.31779999999992 130.54836L77.1063999999999 129.73000000000002L76.47269999999992 130.22549000000004L74.46289999999999 130.11928999999998L73.3327999999999 130.51615000000004L73.56599999999992 131.71894999999995L74.76239999999996 133.35226999999998L74.03919999999994 134.34205999999995L72.82129999999995 134.49397L72.83459999999991 135.29755L72.29809999999998 136.78292L73.1069 137.48933L72.41149999999993 138.35641999999996L71.68729999999994 138.72415999999998L71.41949999999997 139.49850000000004L70.19169999999997 139.54413L67.94069999999999 140.72929999999997L66.71659999999997 139.77139L65.16329999999994 139.64345000000003L65.4194 138.53418L65.06009999999992 138.34124999999995L64.38259999999991 136.44627000000003L63.216699999999946 136.40148L62.7337 135.45581000000004L62.83829999999989 134.68934000000002L62.42049999999995 134.1413L62.706899999999905 132.64017L60.613899999999944 133.81822999999997L60.45729999999992 131.67939L60.0788 131.54138L60.2088 130.75351999999998L58.7838999999999 131.45614L57.215799999999945 131.15167999999994L56.88079999999991 131.08480999999995L53.48249999999996 129.99997999999994L52.887899999999945 127.60114999999996L51.76089999999999 126.41342999999995L50.9289 127.37274000000002L48.87919999999997 127.06258000000003L48.50879999999995 126.91932999999995L45.857399999999984 127.76657L45.93029999999999 126.71087L44.943899999999985 125.49823000000004L43.842199999999934 125.15329999999994L42.566299999999956 126.70082000000002L40.868799999999965 125.58696999999995L40.88539999999989 123.13972999999999L39.34629999999993 124.32962999999995L39.25189999999998 125.42872999999997L38.410499999999956 124.51756L36.41619999999989 124.19868999999994L33.88069999999993 123.87906999999996L32.795999999999935 123.24235999999996L33.34269999999992 122.70062999999993L32.63149999999996 121.79498000000001L33.24929999999995 121.31642L32.060199999999895 121.19044999999994z">
      <title id="t438">Deuxième circonscription des Deux-Sèvres</title>
      <desc id="d438">Cantons de : Beauvoir-sur-Niort, Brioux-sur-Boutonne, Celles-sur-Belle, Chef-Boutonne, Frontenay-Rohan-Rohan, Lezay, Mauzé-sur-le-Mignon, La Mothe-Saint-Héray, Melle, Ménigoutte, Parthenay, Saint-Maixent-l'Ecole I, Saint-Maixent-l'Ecole II, Sauzé-Vaussais, Thénezay</desc>
    </path><path class="circo" id="id-079-03" d="M72.80679999999995 34.419579999999996L73.64319999999998 34.40292999999997L74.40999999999997 33.41495999999995L75.78339999999992 32.51683000000003L76.99689999999998 32.81323999999995L77.9577999999999 34.13927000000001L78.10219999999993 34.06447000000003L79.56009999999992 31.689179999999965L78.70889999999997 31.70559000000003L77.5492999999999 31.126840000000016L76.83209999999997 30.64337999999998L76.00299999999993 29.65671999999995L74.78499999999997 29.200399999999945L73.95229999999992 29.41849000000002L73.6606999999999 29.095820000000003L74.2861999999999 28.568570000000022L74.71729999999991 26.639149999999972L75.91509999999994 24.99249999999995L75.51159999999993 23.257690000000025L74.80839999999989 21.23560999999995L74.07749999999999 20.779199999999946L74.00029999999992 19.902649999999994L72.8798999999999 18.570179999999937L72.75909999999999 17.698440000000005L73.87489999999991 15.98739999999998L73.39979999999991 14.861750000000029L71.98729999999989 14.194420000000036L70.7444999999999 14.417990000000032L69.33949999999993 15.358809999999949L68.83809999999994 12.866539999999986L68.8948999999999 12.084809999999948L69.6688999999999 12.262209999999982L69.77639999999997 11.889589999999998L69.18769999999995 10.403999999999996L69.01819999999998 9.449889999999982L68.92019999999991 8.801969999999983L68.00999999999999 5.444259999999986L65.7340999999999 6.763140000000021L65.0761 6.307109999999966L64.9722999999999 5.498410000000035L64.34399999999994 5.000620000000026L63.5637999999999 4.77773000000002L62.58149999999989 5.470460000000003L61.83609999999999 5.105819999999994L61.51299999999992 4.822030000000041L62.5175999999999 3.4241200000000163L64.71449999999993 1.455190000000016L64.68369999999993 0.5945799999999508L63.41739999999993 0.8523199999999633L60.9446999999999 0L60.5243999999999 1.0949500000000398L59.15719999999999 1.9009399999999914L56.25529999999992 0.4086300000000165L54.74579999999992 1.0156600000000253L54.3454999999999 0.36716999999998734L53.73269999999991 0.9035199999999577L52.92059999999992 1.0397600000000011L52.61959999999999 0.7585400000000391L51.04919999999993 1.24517000000003L50.11579999999992 2.043769999999995L47.77779999999996 2.639909999999986L46.535799999999995 1.674570000000017L46.16549999999995 1.8581100000000106L44.22479999999996 2.4801199999999426L43.82039999999995 2.4108300000000327L43.7894 2.001570000000015L43.02699999999993 2.2696200000000317L42.62329999999997 4.699849999999969L41.95569999999998 5.233730000000037L40.43819999999994 4.516889999999989L38.82589999999993 5.085479999999961L37.54079999999999 5.002489999999966L35.856899999999996 6.837750000000028L35.570499999999925 5.221009999999978L37.23969999999997 4.0383600000000115L37.30449999999996 3.314399999999978L34.887899999999945 3.1918100000000322L32.903299999999945 3.8054499999999507L29.11329999999998 5.83170999999993L29.418399999999906 6.137299999999982L29.423099999999977 7.838269999999966L30.494899999999916 9.148950000000013L30.193199999999933 9.94148999999993L28.95769999999993 9.84784000000002L28.513399999999933 11.053639999999973L27.38079999999991 11.669170000000008L26.77279999999996 12.761949999999956L26.212299999999914 13.145869999999945L26.072299999999927 13.78701000000001L23.973999999999933 14.353809999999953L22.846599999999967 13.916129999999953L21.61229999999989 14.200150000000008L19.650499999999965 13.403999999999996L18.85769999999991 14.368889999999965L18.873199999999997 15.064489999999978L17.3193 14.204020000000014L15.952999999999975 15.273709999999937L14.30759999999998 13.88122999999996L13.878399999999942 13.805079999999975L12.818799999999896 14.485659999999939L11.958299999999895 14.380729999999971L10.974599999999896 13.053879999999936L9.744699999999966 12.88611000000003L9.034599999999955 13.915750000000003L7.967499999999973 14.546969999999988L8.26159999999993 14.841559999999959L7.865799999999922 14.992219999999975L7.2835999999999785 14.366649999999936L6.855399999999918 14.381849999999986L5.7883999999999105 15.078570000000013L4.632399999999961 15.25177999999994L3.9991999999999734 16.27557999999999L4.078099999999949 17.066900000000032L3.6807999999999765 17.20641999999998L1.7118999999999005 16.48027000000002L0.8717999999998938 16.538569999999936L0 17.22523000000001L0.3009999999999309 17.540499999999952L1.5762999999999465 17.342570000000023L1.9146999999999252 18.514999999999986L2.99899999999991 18.742169999999987L3.134399999999914 19.58761000000004L2.014799999999923 19.484379999999987L1.682299999999941 19.779249999999934L1.8034999999999854 20.195259999999962L4.2820999999999 20.47753L4.214099999999917 21.21817999999996L6.087099999999964 22.102890000000002L6.618200000000002 23.277600000000007L7.846899999999891 23.52651000000003L7.51439999999991 24.239199999999983L6.959599999999909 24.861729999999966L7.134500000000003 25.658500000000004L5.929499999999962 27.876620000000003L7.37399999999991 28.607989999999972L9.221199999999953 31.219569999999976L9.813799999999901 31.95740999999998L10.267299999999977 33.05594999999994L10.968999999999937 33.394090000000006L12.262899999999945 34.517240000000015L13.90829999999994 34.8184L14.670199999999909 35.73076000000003L16.33549999999991 35.72815000000003L17.2654 37.307699999999954L15.849699999999984 38.195010000000025L15.436799999999948 39.73772999999994L15.05009999999993 40.52814000000001L14.930899999999951 42.28476999999998L15.509899999999902 43.90260000000001L16.527199999999993 44.65084000000002L17.338699999999903 44.41251999999997L17.572199999999953 45.18760999999995L17.35259999999994 46.357399999999984L18.152099999999905 47.6087L18.514899999999898 47.38486999999998L19.47449999999992 48.231899999999996L20.94329999999991 50.771619999999984L18.99499999999989 52.46324000000004L20.781399999999962 53.701130000000035L22.54499999999996 55.35671000000002L21.625299999999925 56.16732000000002L21.568499999999972 57.37432000000001L20.701999999999998 58.195820000000026L20.837799999999902 58.99407999999994L22.025999999999954 58.51609999999994L22.878799999999956 58.69981999999993L24.502099999999928 60.70577000000003L27.024999999999977 61.04548999999997L26.99509999999998 60.31170999999995L27.288799999999924 60.09424999999999L28.135099999999966 59.99436000000003L29.410499999999956 61.12901999999997L28.820499999999925 59.55718000000002L31.873299999999972 56.63641999999993L33.74699999999996 58.09504000000004L35.676599999999894 57.47932000000003L36.5551999999999 56.562119999999936L36.63869999999997 53.66928999999993L36.311399999999935 52.04427999999996L35.64269999999999 51.57571999999993L36.367599999999925 50.205420000000004L38.49189999999999 49.91089999999997L39.57549999999992 49.24333999999999L40.618799999999965 50.576529999999934L41.74979999999994 51.18755999999996L41.67949999999996 52.47723999999994L42.23359999999991 52.39062999999999L44.61889999999994 50.97438999999997L44.36669999999992 50.64779999999996L45.230999999999995 49.78854999999999L44.6952 47.802509999999984L44.89249999999993 47.43868999999995L45.498899999999935 45.84899999999993L44.40269999999998 44.027919999999995L45.91489999999999 43.33694000000003L47.580499999999915 43.07809999999995L50.03639999999996 40.23157000000003L51.98249999999996 41.81552999999997L54.0533999999999 42.28724999999997L54.25619999999992 42.66351999999995L53.840999999999894 43.40766999999994L53.909599999999955 44.25905L54.67949999999996 45.253349999999955L55.74039999999991 45.011709999999994L56.63429999999994 44.77030000000002L57.5610999999999 45.52810999999997L58.09009999999989 46.67105000000004L57.96079999999995 47.92911000000004L57.10659999999996 48.86248999999998L56.99789999999996 50.100310000000036L58.493799999999965 52.689250000000015L59.092199999999934 53.22649999999999L61.59689999999989 51.63297L63.989999999999895 51.92976999999996L64.46439999999996 50.757240000000024L64.12529999999992 48.27629000000002L64.88569999999993 48.24033999999995L66.3273999999999 47.378420000000006L65.0433999999999 45.64359000000002L67.59399999999994 44.25792999999999L67.5329999999999 43.41300000000001L67.83679999999993 43.115819999999985L68.49499999999989 42.24680000000001L69.1923999999999 41.80894999999998L70.58109999999999 42.602210000000014L71.5693 43.914390000000026L71.7038 45.09073000000001L74.04429999999991 44.320460000000026L74.26729999999998 43.50693000000001L73.89059999999995 41.84642999999994L74.4351999999999 41.19134999999994L74.83119999999997 41.34388999999999L75.18449999999996 41.136859999999956L74.62969999999996 40.09676000000002L74.76429999999993 39.709049999999934L76.09039999999993 38.18817999999999L77.2693999999999 37.09806000000003L77.25289999999995 36.691299999999956L76.3143 35.94367L74.83049999999992 36.56237999999996L72.5175999999999 35.54579000000001L72.83209999999997 35.42615000000001L72.80679999999995 34.419579999999996z">
      <title id="t439">Troisième circonscription des Deux-Sèvres</title>
      <desc id="d439">Cantons de : Airvault, Argenton-Château, Bressuire, Cerizay, Mauléon, Moncoutant, Saint-Loup-Lamairé, Saint-Varent, Thouars I, Thouars II</desc>
    </path></svg>