<svg xmlns="http://www.w3.org/2000/svg" version="1.1" xmlns:xlink="http://www.w3.org/1999/xlink" xmlns:svgjs="http://svgjs.dev/svgjs" viewBox="580.15803 669.46208 95.3003 140.72929999999997"><path class="circo" id="id-079-01" d="M 623.64753,751.99352 623.58843,753.53692 623.11163,754.58786 623.68943,755.11856 623.81713,755.90431 624.54143,756.23644 625.61723,756.60923 626.40853,757.45964 625.69943,758.80511 626.87573,759.81 626.74433,760.1821 626.58063,761.62249 627.02523,762.26966 626.89123,763.04903 627.22003,763.26591 626.77363,763.77438 627.73133,765.04755 627.70543,765.82537 630.02253,766.56716 629.12873,767.32265 628.81193,768.49178 629.58023,769.36198 629.17923,770.55093 629.79923,771.63119 629.45043,772.82651 628.85513,773.38247 631.20123,775.07108 630.81003,775.22266 630.34663,776.73887 630.53173,777.54963 632.23823,777.80474 634.05653,778.853 632.28873,780.48338 632.06103,781.27121 632.56423,781.88333 632.09503,782.8326 631.66943,782.78397 630.11913,784.19585 629.29163,785.68905 628.47013,785.60988 627.66543,784.62393 626.59083,783.31308 626.35953,782.98314 625.91393,782.51861 624.77903,782.16432 622.87633,780.63336 623.31303,779.49508 619.83493,778.77904 619.52073,779.04308 619.72163,778.25351 618.97463,777.90957 619.21503,777.14027 618.56153,776.15529 618.74063,775.34756 619.02143,774.26371 618.34123,772.31946 618.31833,771.08666 617.87573,770.41303 616.82343,771.59921 615.27863,771.24841 615.39353,768.8148 612.16323,768.9189 611.83433,769.70008 610.33823,770.48143 608.74693,770.90608 608.05113,770.5251 606.97303,768.83301 606.86073,767.20966 604.41943,768.38091 602.87563,768.16039 602.14613,767.27662 602.71933,766.63658 602.69483,765.42921 604.20883,764.7901 605.16753,763.93028 605.60613,762.33494 607.68123,762.77747 609.28173,762.16866 609.47803,761.78558 611.13433,759.02348 610.12873,758.25448 608.48063,758.02463 608.19513,757.26772 607.37813,757.08049 605.74053,755.79841 604.91173,755.74638 604.07203,758.53165 602.59903,757.75533 603.26773,756.75999 602.49633,755.78546 602.71563,753.37215 604.12723,752.51987 604.50443,750.95242 605.14903,750.67037 604.46853,749.60611 604.31743,748.33816 603.41923,747.49499 603.67683,745.41766 602.92723,744.43593 602.07643,743.67267 602.55933,742.63708 602.25733,741.95948 603.45023,741.53905 605.11133,741.54399 605.66623,740.90706 605.58383,739.73015 605.14093,737.29709 604.32113,737.41948 603.74773,735.4476 604.70583,734.19058 604.23763,733.52759 604.42773,732.79736 603.53923,731.9651 604.66013,730.16785 607.18303,730.50757 607.15313,729.77379 607.44683,729.55633 608.29313,729.45644 609.56853,730.5911 608.97853,729.01926 612.03133,726.0985 613.90503,727.55712 615.83463,726.9414 616.71323,726.0242 616.79673,723.13137 616.46943,721.50636 615.80073,721.0378 616.52563,719.6675 618.64993,719.37298 619.73353,718.70542 620.77683,720.03861 621.90783,720.64964 621.83753,721.93932 622.39163,721.85271 623.09283,722.23782 623.34603,723.39377 623.69643,723.59743 624.00203,723.30073 624.74253,723.72552 625.57083,723.52484 626.71393,724.04983 629.70743,722.50929 630.58183,721.5936 631.73343,721.2315 632.78813,722.58326 632.70793,724.67425 633.69353,726.55172 631.16823,726.84259 628.06833,728.27332 629.71753,728.4824 630.05793,730.10449 629.35343,731.12123 630.17333,731.08114 630.67843,731.7289 631.46703,731.95558 633.01423,731.95335 633.74923,731.58599 634.42313,731.67397 634.91393,731.20204 635.71823,732.54585 638.22963,733.84944 638.70193,733.16576 639.60913,732.45987 641.07673,733.05579 642.26823,732.89509 642.60193,733.62519 641.99693,735.52316 642.58463,736.05216 641.89703,738.48852 639.95473,738.26207 639.37923,739.3804 639.25423,741.47233 640.49983,741.56314 641.43803,742.37346 642.60623,742.50329 642.11963,743.18306 642.07073,744.84123 641.43893,746.37109 640.84813,746.90344 640.69313,748.56168 639.94523,748.81889 639.62263,750.16214 638.87803,750.52725 637.59823,749.55651 635.10313,750.93811 634.67893,750.94674 634.58783,749.30032 633.01763,746.8027 632.19493,747.68805 631.28633,746.37443 630.92083,746.57332 631.58973,749.42533 630.87733,750.44495 629.44273,751.25703 628.96933,752.41551 628.08423,753.13115 627.39973,752.79678 626.74003,753.15274 624.75063,752.36519 623.99013,751.34832 623.64753,751.99352 z">
      <title id="t437">Première circonscription des Deux-Sèvres</title>
      <desc id="d437">Cantons de : Champdeniers-Saint-Denis, Coulonges-sur-l'Autize, Mazières-en-Gâtine, Niort Est, Niort Nord, Niort Ouest, Prahecq, Secondigny</desc>
    </path><path class="circo" id="id-079-02" d="M 612.21823,790.65253 612.06993,789.87193 611.51823,789.36149 610.36453,788.85286 608.71303,788.92193 607.60413,788.31315 607.28533,789.38051 605.64933,789.00965 604.49953,789.51692 603.45113,788.88832 603.10493,788.28505 603.32053,787.9388 605.62403,787.41472 604.74073,786.68651 603.90933,786.76014 602.90423,786.17031 602.14493,786.25635 601.13893,785.65137 599.96273,783.99978 598.32243,784.14404 598.03243,783.012 597.64653,782.85409 597.76583,782.4545 598.57383,782.55495 598.84193,782.24574 598.50873,780.27934 598.11663,779.58795 597.10743,778.9454 592.97253,776.42496 592.75633,775.61419 594.28743,773.62827 593.50073,772.18012 592.70113,769.79187 593.05633,769.14604 595.11573,769.2756 595.78433,769.00983 595.53523,768.2496 595.95653,767.59181 596.74303,767.45483 597.57323,766.57024 599.70383,767.67427 601.42073,767.51994 602.14613,767.27662 602.87563,768.16039 604.41943,768.38091 606.86073,767.20966 606.97303,768.83301 608.05113,770.5251 608.74693,770.90608 610.33823,770.48143 611.83433,769.70008 612.16323,768.9189 615.39353,768.8148 615.27863,771.24841 616.82343,771.59921 617.87573,770.41303 618.31833,771.08666 618.34123,772.31946 619.02143,774.26371 618.74063,775.34756 618.56153,776.15529 619.21503,777.14027 618.97463,777.90957 619.72163,778.25351 619.52073,779.04308 619.83493,778.77904 623.31303,779.49508 622.87633,780.63336 624.77903,782.16432 625.91393,782.51861 626.35953,782.98314 626.59083,783.31308 627.66543,784.62393 628.47013,785.60988 629.29163,785.68905 630.11913,784.19585 631.66943,782.78397 632.09503,782.8326 632.56423,781.88333 632.06103,781.27121 632.28873,780.48338 634.05653,778.853 632.23823,777.80474 630.53173,777.54963 630.34663,776.73887 630.81003,775.22266 631.20123,775.07108 628.85513,773.38247 629.45043,772.82651 629.79923,771.63119 629.17923,770.55093 629.58023,769.36198 628.81193,768.49178 629.12873,767.32265 630.02253,766.56716 627.70543,765.82537 627.73133,765.04755 626.77363,763.77438 627.22003,763.26591 626.89123,763.04903 627.02523,762.26966 626.58063,761.62249 626.74433,760.1821 626.87573,759.81 625.69943,758.80511 626.40853,757.45964 625.61723,756.60923 624.54143,756.23644 623.81713,755.90431 623.68943,755.11856 623.11163,754.58786 623.58843,753.53692 623.64753,751.99352 623.99013,751.34832 624.75063,752.36519 626.74003,753.15274 627.39973,752.79678 628.08423,753.13115 628.96933,752.41551 629.44273,751.25703 630.87733,750.44495 631.58973,749.42533 630.92083,746.57332 631.28633,746.37443 632.19493,747.68805 633.01763,746.8027 634.58783,749.30032 634.67893,750.94674 635.10313,750.93811 637.59823,749.55651 638.87803,750.52725 639.62263,750.16214 639.94523,748.81889 640.69313,748.56168 640.84813,746.90344 641.43893,746.37109 642.07073,744.84123 642.11963,743.18306 642.60623,742.50329 641.43803,742.37346 640.49983,741.56314 639.25423,741.47233 639.37923,739.3804 639.95473,738.26207 641.89703,738.48852 642.58463,736.05216 641.99693,735.52316 642.60193,733.62519 642.26823,732.89509 641.07673,733.05579 639.60913,732.45987 638.70193,733.16576 638.22963,733.84944 635.71823,732.54585 634.91393,731.20204 634.42313,731.67397 633.74923,731.58599 633.01423,731.95335 631.46703,731.95558 630.67843,731.7289 630.17333,731.08114 629.35343,731.12123 630.05793,730.10449 629.71753,728.4824 628.06833,728.27332 631.16823,726.84259 633.69353,726.55172 632.70793,724.67425 632.78813,722.58326 631.73343,721.2315 630.58183,721.5936 629.70743,722.50929 626.71393,724.04983 625.57083,723.52484 624.74253,723.72552 624.00203,723.30073 623.69643,723.59743 623.34603,723.39377 623.09283,722.23782 622.39163,721.85271 624.77693,720.43647 624.52473,720.10988 625.38903,719.25063 624.85323,717.26459 625.05053,716.90077 625.65693,715.31108 624.56073,713.49 626.07293,712.79902 627.73853,712.54018 630.19443,709.69365 632.14053,711.27761 634.21143,711.74933 634.41423,712.1256 633.99903,712.86975 634.06763,713.72113 634.83753,714.71543 635.89843,714.47379 636.79233,714.23238 637.71913,714.99019 638.24813,716.13313 638.11883,717.39119 637.26463,718.32457 637.15593,719.56239 638.65183,722.15133 639.25023,722.68858 641.75493,721.09505 644.14803,721.39185 644.62243,720.21932 644.28333,717.73837 645.04373,717.70242 646.48543,716.8405 645.20143,715.10567 647.75203,713.72001 647.69103,712.87508 647.99483,712.5779 648.65303,711.70888 649.35043,711.27103 650.73913,712.06429 651.72733,713.37647 651.86183,714.55281 654.20233,713.78254 654.42533,712.96901 654.04863,711.30851 654.59323,710.65343 654.98923,710.80597 655.03193,712.01329 655.77203,713.53565 656.68553,712.67556 658.90133,715.1982 659.65923,715.50271 659.95173,716.73981 659.56033,716.9066 658.79163,716.84397 657.17023,718.08764 656.80793,718.31366 657.07463,719.56239 656.84863,720.35814 655.28833,720.98203 656.03203,722.42293 654.15763,724.07337 654.12473,724.08476 653.62883,724.76008 653.90483,725.08323 653.82953,726.34035 651.84583,727.91009 651.17133,728.98708 651.25423,729.83369 654.45233,729.12769 655.38613,727.78109 656.43203,727.12527 656.88913,727.74036 655.99163,730.60434 657.11913,731.23136 658.79133,730.86013 658.88833,733.26349 660.47983,733.75074 659.44953,734.50956 658.59263,734.55754 656.56683,736.15442 655.98923,738.16837 657.45323,739.41674 656.31573,742.05671 654.18363,741.93255 654.19823,743.99342 653.55113,745.05338 653.51363,745.8692 654.11363,746.42023 653.23303,747.19737 653.17143,748.42098 653.43993,748.71423 655.30533,748.09304 655.78323,748.56403 655.95893,748.92762 655.21283,750.78536 655.94913,751.20299 655.76263,754.16452 655.13003,756.6308 656.16963,757.84949 656.16883,758.70344 656.88403,758.29971 658.08683,758.49049 658.77493,759.89132 659.75733,760.62132 658.02573,762.6516 659.51823,763.98224 658.80533,764.43747 658.13203,766.43877 659.34373,766.14113 660.85743,766.91377 663.49733,769.06188 665.08793,767.14012 664.96833,766.29266 665.46483,765.59775 666.87393,764.63743 667.33083,763.91057 668.54473,763.59003 670.12583,764.34376 671.92533,766.21031 670.95473,767.57163 671.25583,768.3558 670.87393,768.99162 670.06533,768.81677 669.84933,769.17163 671.49623,772.30236 670.62283,773.66676 667.80003,773.70045 668.53283,776.43541 668.70413,777.02167 668.97813,778.22205 668.39873,778.80115 668.01093,778.66575 666.88223,780.34322 666.49053,780.46274 666.00353,783.68204 668.71713,784.46667 669.03903,785.22716 669.43843,785.3299 670.03343,787.22046 671.45883,787.38465 671.88723,788.08469 672.72723,788.18505 673.70493,786.88078 674.98183,786.99025 675.38893,787.03553 675.45833,787.4411 675.23543,789.06535 673.89603,790.57073 673.71963,790.94174 674.10663,791.07714 673.84843,792.09404 672.90163,792.84594 673.05993,793.64459 673.62403,794.77657 671.93963,796.29011 671.25913,796.43606 671.08843,796.12528 668.39323,793.73556 666.97513,794.52516 665.83163,794.47882 665.06963,793.57348 664.75503,793.8215 665.31133,795.27225 665.08643,795.59423 664.13483,795.07271 663.05143,794.98041 661.33213,796.67797 662.07853,797.62945 661.31583,797.92522 660.06183,798.08707 658.47583,800.01044 657.26443,799.19208 656.63073,799.68757 654.62093,799.58137 653.49083,799.97823 653.72403,801.18103 654.92043,802.81435 654.19723,803.80414 652.97933,803.95605 652.99263,804.75963 652.45613,806.245 653.26493,806.95141 652.56953,807.8185 651.84533,808.18624 651.57753,808.96058 650.34973,809.00621 648.09873,810.19138 646.87463,809.23347 645.32133,809.10553 645.57743,807.99626 645.21813,807.80333 644.54063,805.90835 643.37473,805.86356 642.89173,804.91789 642.99633,804.15142 642.57853,803.60338 642.86493,802.10225 640.77193,803.28031 640.61533,801.14147 640.23683,801.00346 640.36683,800.2156 638.94193,800.91822 637.37383,800.61376 637.03883,800.54689 633.64053,799.46206 633.04593,797.06323 631.91893,795.87551 631.08693,796.83482 629.03723,796.52466 628.66683,796.38141 626.01543,797.22865 626.08833,796.17295 625.10193,794.96031 624.00023,794.61538 622.72433,796.1629 621.02683,795.04905 621.04343,792.60181 619.50433,793.79171 619.40993,794.89081 618.56853,793.97964 616.57423,793.66077 614.03873,793.34115 612.95403,792.70444 613.50073,792.16271 612.78953,791.25706 613.40733,790.7785 612.21823,790.65253 z">
      <title id="t438">Deuxième circonscription des Deux-Sèvres</title>
      <desc id="d438">Cantons de : Beauvoir-sur-Niort, Brioux-sur-Boutonne, Celles-sur-Belle, Chef-Boutonne, Frontenay-Rohan-Rohan, Lezay, Mauzé-sur-le-Mignon, La Mothe-Saint-Héray, Melle, Ménigoutte, Parthenay, Saint-Maixent-l'Ecole I, Saint-Maixent-l'Ecole II, Sauzé-Vaussais, Thénezay</desc>
    </path><path class="circo" id="id-079-03" d="M 652.96483,703.88166 653.80123,703.86501 654.56803,702.87704 655.94143,701.97891 657.15493,702.27532 658.11583,703.60135 658.26023,703.52655 659.71813,701.15126 658.86693,701.16767 657.70733,700.58892 656.99013,700.10546 656.16103,699.1188 654.94303,698.66248 654.11033,698.88057 653.81873,698.5579 654.44423,698.03065 654.87533,696.10123 656.07313,694.45458 655.66963,692.71977 654.96643,690.69769 654.23553,690.24128 654.15833,689.36473 653.03793,688.03226 652.91713,687.16052 654.03293,685.44948 653.55783,684.32383 652.14533,683.6565 650.90253,683.88007 649.49753,684.82089 648.99613,682.32862 649.05293,681.54689 649.82693,681.72429 649.93443,681.35167 649.34573,679.86608 649.17623,678.91197 649.07823,678.26405 648.16803,674.90634 645.89213,676.22522 645.23413,675.76919 645.13033,674.96049 644.50203,674.4627 643.72183,674.23981 642.73953,674.93254 641.99413,674.5679 641.67103,674.28411 642.67563,672.8862 644.87253,670.91727 644.84173,670.05666 643.57543,670.3144 641.10273,669.46208 640.68243,670.55703 639.31523,671.36302 636.41333,669.87071 634.90383,670.47774 634.50353,669.82925 633.89073,670.3656 633.07863,670.50184 632.77763,670.22062 631.20723,670.70725 630.27383,671.50585 627.93583,672.10199 626.69383,671.13665 626.32353,671.32019 624.38283,671.9422 623.97843,671.87291 623.94743,671.46365 623.18503,671.7317 622.78133,674.16193 622.11373,674.69581 620.59623,673.97897 618.98393,674.54756 617.69883,674.46457 616.01493,676.29983 615.72853,674.68309 617.39773,673.50044 617.46253,672.77648 615.04593,672.65389 613.06133,673.26753 609.27133,675.29379 609.57643,675.59938 609.58113,677.30035 610.65293,678.61103 610.35123,679.40357 609.11573,679.30992 608.67143,680.51572 607.53883,681.13125 606.93083,682.22403 606.37033,682.60795 606.23033,683.24909 604.13203,683.81589 603.00463,683.37821 601.77033,683.66223 599.80853,682.86608 599.01573,683.83097 599.03123,684.52657 597.47733,683.6661 596.11103,684.73579 594.46563,683.34331 594.03643,683.26716 592.97683,683.94774 592.11633,683.84281 591.13263,682.51596 589.90273,682.34819 589.19263,683.37783 588.12553,684.00905 588.41963,684.30364 588.02383,684.4543 587.44163,683.82873 587.01343,683.84393 585.94643,684.54065 584.79043,684.71386 584.15723,685.73766 584.23613,686.52898 583.83883,686.6685 581.86993,685.94235 581.02983,686.00065 580.15803,686.68731 580.45903,687.00258 581.73433,686.80465 582.07273,687.97708 583.15703,688.20425 583.29243,689.04969 582.17283,688.94646 581.84033,689.24133 581.96153,689.65734 584.44013,689.93961 584.37213,690.68026 586.24513,691.56497 586.77623,692.73968 588.00493,692.98859 587.67243,693.70128 587.11763,694.32381 587.29253,695.12058 586.08753,697.3387 587.53203,698.07007 589.37923,700.68165 589.97183,701.41949 590.42533,702.51803 591.12703,702.85617 592.42093,703.97932 594.06633,704.28048 594.82823,705.19284 596.49353,705.19023 597.42343,706.76978 596.00773,707.65709 595.59483,709.19981 595.20813,709.99022 595.08893,711.74685 595.66793,713.36468 596.68523,714.11292 597.49673,713.8746 597.73023,714.64969 597.51063,715.81948 598.31013,717.07078 598.67293,716.84695 599.63253,717.69398 601.10133,720.2337 599.15303,721.92532 600.93943,723.16321 602.70303,724.81879 601.78333,725.6294 601.72653,726.8364 600.86003,727.6579 600.99583,728.45616 602.18403,727.97818 603.03683,728.1619 604.66013,730.16785 607.18303,730.50757 607.15313,729.77379 607.44683,729.55633 608.29313,729.45644 609.56853,730.5911 608.97853,729.01926 612.03133,726.0985 613.90503,727.55712 615.83463,726.9414 616.71323,726.0242 616.79673,723.13137 616.46943,721.50636 615.80073,721.0378 616.52563,719.6675 618.64993,719.37298 619.73353,718.70542 620.77683,720.03861 621.90783,720.64964 621.83753,721.93932 622.39163,721.85271 624.77693,720.43647 624.52473,720.10988 625.38903,719.25063 624.85323,717.26459 625.05053,716.90077 625.65693,715.31108 624.56073,713.49 626.07293,712.79902 627.73853,712.54018 630.19443,709.69365 632.14053,711.27761 634.21143,711.74933 634.41423,712.1256 633.99903,712.86975 634.06763,713.72113 634.83753,714.71543 635.89843,714.47379 636.79233,714.23238 637.71913,714.99019 638.24813,716.13313 638.11883,717.39119 637.26463,718.32457 637.15593,719.56239 638.65183,722.15133 639.25023,722.68858 641.75493,721.09505 644.14803,721.39185 644.62243,720.21932 644.28333,717.73837 645.04373,717.70242 646.48543,716.8405 645.20143,715.10567 647.75203,713.72001 647.69103,712.87508 647.99483,712.5779 648.65303,711.70888 649.35043,711.27103 650.73913,712.06429 651.72733,713.37647 651.86183,714.55281 654.20233,713.78254 654.42533,712.96901 654.04863,711.30851 654.59323,710.65343 654.98923,710.80597 655.34253,710.59894 654.78773,709.55884 654.92233,709.17113 656.24843,707.65026 657.42743,706.56014 657.41093,706.15338 656.47233,705.40575 654.98853,706.02446 652.67563,705.00787 652.99013,704.88823 652.96483,703.88166 z">
      <title id="t439">Troisième circonscription des Deux-Sèvres</title>
      <desc id="d439">Cantons de : Airvault, Argenton-Château, Bressuire, Cerizay, Mauléon, Moncoutant, Saint-Loup-Lamairé, Saint-Varent, Thouars I, Thouars II</desc>
    </path></svg>