<svg xmlns="http://www.w3.org/2000/svg" version="1.1" xmlns:xlink="http://www.w3.org/1999/xlink" xmlns:svgjs="http://svgjs.dev/svgjs" viewBox="774.12673 249.39619 154.96080000000006 104.96908000000002"><path class="circo" id="080-01" d="M 809.08593,279.01044 806.60223,279.56484 805.91513,279.90686 805.90113,280.30378 805.27513,279.99917 805.93043,280.5784 804.92863,281.36602 805.36593,283.03321 805.28723,283.91064 804.84683,283.91289 805.56103,286.29619 806.31033,286.17007 806.90043,286.64872 808.44183,287.49095 810.18083,286.20663 810.24203,287.43717 809.55443,288.41015 810.73533,288.91565 810.81443,289.76009 811.91363,290.30018 812.39853,291.00768 811.95823,291.70267 812.19173,292.89654 812.96063,292.38223 814.78123,292.0999 815.96573,290.85451 816.77063,290.41497 817.63703,290.62984 817.98513,290.84498 817.73753,291.62378 818.31833,292.21122 819.96973,292.63423 820.08403,291.45434 820.85923,291.78024 821.89833,292.43437 823.93963,292.77346 823.42213,293.45078 824.64553,295.19842 825.55053,294.42972 826.77653,294.27729 827.40283,294.88738 826.82753,297.75113 827.53823,300.10796 827.14643,300.21623 826.97283,301.19095 827.63393,301.69557 828.20863,303.26481 828.53363,304.36801 827.68453,305.27341 827.92813,306.87095 831.37113,306.4098 831.53563,307.20623 831.36413,309.08831 833.69843,309.89312 835.53613,310.94383 836.04493,310.66404 837.89673,308.64052 838.71683,308.36116 839.21073,309.08276 838.86613,310.34703 839.69033,311.12172 839.93573,311.84935 840.94743,312.38862 840.29783,313.88769 842.76723,314.30016 843.35183,314.15797 843.75343,312.84538 843.02933,313.24037 842.83973,312.04041 843.66903,311.98935 843.56133,310.80605 844.80803,310.62511 845.29403,307.63894 845.73823,307.82313 848.50653,308.64553 850.39933,309.50964 850.92953,310.41781 851.45783,311.23275 851.89703,311.37027 852.00723,310.94292 852.37603,310.88975 852.58233,309.82716 853.63393,309.85035 853.83193,309.53792 854.06463,310.21424 855.20973,309.69149 855.25453,308.43345 854.93773,308.16972 855.71813,307.47574 856.96763,307.94461 857.71443,308.45331 856.76373,310.48521 855.30033,311.51933 854.97883,312.3613 854.65673,312.73622 854.16703,312.48621 853.70293,313.21383 854.17253,313.83619 853.84183,314.21668 853.95743,314.72794 854.84513,314.47104 855.17283,314.99686 855.31263,314.97732 855.98713,316.04417 856.32273,315.90688 856.40343,316.12594 857.43143,315.85561 857.60093,315.49415 858.36103,315.69895 858.78703,315.03085 857.65793,313.46859 859.33743,313.18496 859.02793,312.45379 859.99113,309.06851 859.80573,308.34294 859.60123,308.35522 859.46433,307.92691 860.33073,306.92509 860.41153,305.59213 859.98063,304.32098 859.81183,303.91407 859.05163,303.57346 856.91253,305.69462 854.82363,306.03961 855.16773,305.32003 853.82893,303.60372 854.46943,301.96253 854.11193,301.69729 854.31503,300.38358 855.03623,300.1114 854.53933,299.46969 853.66373,299.69695 853.71623,300.15595 852.98813,300.71207 852.69153,301.58852 852.64453,302.972 850.33443,304.43829 850.03733,303.2804 847.88203,303.53567 847.28103,304.16918 846.23653,303.6098 845.84343,302.51334 844.11403,302.87713 843.86453,303.24764 843.18323,303.29018 842.63883,302.15746 842.70603,301.31506 841.71463,299.91363 843.10293,300.99996 843.98103,301.07054 844.73083,300.63078 844.98743,299.52733 845.35003,299.41574 845.96843,298.72068 845.80463,296.87164 846.43813,295.12592 846.91183,294.60675 847.63433,294.68177 848.71353,294.7642 849.99593,295.15145 852.17743,294.74184 852.80313,294.60556 852.29423,293.47037 853.40983,291.72014 854.63113,291.31362 854.53383,290.47613 856.10483,289.01192 855.27923,287.15953 854.27613,288.62655 853.45103,288.94664 853.18363,289.1666 852.68663,288.49411 851.90093,288.70813 851.02243,288.49597 850.56303,285.85063 847.86113,285.5023 847.51353,285.26883 847.77033,284.93663 846.50173,285.07272 845.69583,284.71162 844.97383,283.59162 843.65823,283.67512 843.69093,284.56161 843.09093,285.78518 841.95863,284.62827 841.12183,284.50728 840.78753,283.30626 839.51503,284.42087 839.17503,283.60329 839.64423,282.86128 838.42113,283.04964 838.30523,282.22698 838.58913,281.475 838.17083,280.68886 836.91033,280.33361 835.08273,281.59883 833.91273,281.77543 833.45643,280.615 833.63353,280.32831 833.18113,279.21868 832.37753,279.47359 833.18533,277.44236 832.85883,276.14977 831.87963,275.45467 831.08933,275.56071 830.89303,273.96708 827.86033,275.86619 827.67003,275.95086 826.84573,276.27716 825.54873,275.95643 824.79193,276.4405 824.24943,275.75764 824.15553,276.20696 822.42153,276.65413 822.28003,277.09091 821.39183,277.75704 820.94553,279.81443 820.11823,280.72851 819.27953,280.54233 819.29793,279.71311 818.59183,279.34056 817.88833,278.29855 817.47613,278.38304 816.84263,277.43997 817.24673,276.78004 814.32483,276.62666 814.13663,275.77967 813.71333,275.68572 813.68343,276.73015 813.86383,277.12673 813.11063,278.19216 812.80553,279.73579 811.90243,279.87676 810.85563,279.06336 810.40903,277.96572 809.33463,277.78795 809.08593,279.01044 z">
      <title id="t440">Première circonscription de la Somme</title>
      <desc id="d440">Cantons de : Abbeville Nord, Abbeville Sud, Ailly-le-Haut-Clocher, Amiens II Nord-Ouest, Amiens IV Est, Amiens VIII Nord, Domart-en-Ponthieu, Picquigny</desc>
    </path><path class="circo" id="080-02" d="M 843.56133,310.80605 843.66903,311.98935 842.83973,312.04041 843.02933,313.24037 843.75343,312.84538 843.35183,314.15797 842.76723,314.30016 843.10483,314.96029 842.62983,315.53266 842.58343,316.30686 843.66443,316.77666 842.38063,318.85902 842.50693,319.4284 844.27423,319.15571 846.32953,320.07786 846.53663,320.86073 847.42103,321.36471 847.77303,322.14018 848.53493,322.57925 848.21363,324.29928 847.77133,324.32365 847.00633,325.37817 846.57603,325.27823 846.75973,327.56645 847.13113,328.29602 849.20193,327.91447 850.62903,326.24544 851.03093,326.21568 852.42583,328.15585 853.73103,327.72822 855.27633,328.19152 856.09523,327.97054 857.32163,328.9834 858.39513,328.01568 858.69803,328.7298 860.30793,328.78942 860.92293,328.25022 861.24753,327.04387 862.37393,326.88406 862.69443,326.20041 863.02323,326.63802 863.36193,325.84533 865.02263,324.46232 864.95873,323.43096 865.35233,322.99867 865.31103,321.63428 865.74933,320.31256 866.22963,319.76105 867.00023,319.1602 867.83623,318.26415 868.70793,318.09515 869.17723,317.61003 869.13863,316.74448 868.37573,316.40232 868.05803,314.78013 867.36823,315.17922 865.60343,315.2267 865.29383,313.00224 864.50873,313.45699 863.63103,313.18351 861.82813,313.10436 861.25943,313.22823 859.33743,313.18496 857.65793,313.46859 858.78703,315.03085 858.36103,315.69895 857.60093,315.49415 857.43143,315.85561 856.40343,316.12594 856.32273,315.90688 855.98713,316.04417 855.80103,315.70359 855.31263,314.97732 855.17283,314.99686 854.84513,314.47104 853.95743,314.72794 853.84183,314.21668 854.17253,313.83619 853.70293,313.21383 854.16703,312.48621 854.65673,312.73622 854.97883,312.3613 855.30033,311.51933 856.76373,310.48521 857.71443,308.45331 856.96763,307.94461 855.71813,307.47574 854.93773,308.16972 855.25453,308.43345 855.20973,309.69149 854.06463,310.21424 853.83193,309.53792 853.63393,309.85035 852.58233,309.82716 852.37603,310.88975 852.00723,310.94292 851.89703,311.37027 851.45783,311.23275 850.39933,309.50964 848.50653,308.64553 845.73823,307.82313 845.29403,307.63894 844.80803,310.62511 843.56133,310.80605 z">
      <title id="t441">Deuxième circonscription de la Somme</title>
      <desc id="d441">Cantons de : Amiens I Ouest, Amiens III Nord-Est, Amiens V Sud-Est, Amiens VI Sud, Amiens VII Sud-Ouest, Boves</desc>
    </path><path class="circo" id="080-03" d="M 777.66703,286.19405 777.34943,286.39317 775.22443,287.99864 774.12673,289.38205 776.63903,290.4335 777.73333,288.80441 778.56993,288.5165 779.86323,288.76693 780.38463,289.4656 780.87943,289.71521 780.29383,292.34067 780.80933,293.05814 782.07513,293.52926 783.18933,294.94361 783.76483,295.54463 784.16183,295.41472 785.58303,296.31227 786.49723,298.12365 786.64293,298.43811 789.56063,300.8498 790.67543,301.46838 790.98043,302.76283 791.67573,303.30828 792.51643,304.85996 793.57103,305.67547 794.93973,306.67062 796.90943,307.42437 799.52093,308.80224 799.53753,309.44948 799.90193,309.60114 800.64303,311.36269 801.09933,312.07591 801.87773,312.32502 802.38033,312.99011 802.35693,314.60352 802.94453,315.71966 803.05593,316.25213 802.98393,318.00538 803.58173,319.11604 806.64133,318.19679 806.52993,317.79459 807.91343,316.90112 808.19813,316.89914 809.51013,315.2416 808.99113,314.682 809.78303,314.61764 810.08423,313.35923 810.83053,312.92005 810.91273,312.88324 811.82563,313.8675 812.17353,314.13726 813.29433,313.4368 813.56103,314.22102 813.96223,314.3396 817.51313,311.7971 817.35213,311.43659 818.80413,308.97597 820.05513,307.91978 820.24233,308.72012 821.19143,310.25121 820.02503,310.90859 819.61263,312.65698 819.56613,312.79986 821.03043,312.69326 821.62123,312.15428 821.94583,310.51847 822.60063,309.43667 822.90483,309.7243 823.06463,312.15745 822.32863,314.05416 823.39543,314.74505 824.64953,314.5935 825.22143,315.78638 824.97663,316.58916 825.75463,317.01266 825.36473,318.29579 823.70533,319.73139 824.52053,319.58326 825.24723,320.54 826.88533,320.21597 827.71483,321.02003 828.96363,319.75301 829.39043,319.90166 829.60603,321.1149 830.26503,321.62651 831.00123,321.19962 831.45733,321.82637 831.33583,322.23016 832.01633,322.6849 832.36253,324.31259 831.04843,325.42518 831.89213,325.24347 832.51263,325.83479 833.51363,325.08466 833.27163,323.7576 834.26453,322.2536 835.51103,321.75048 836.56483,320.98208 837.29483,321.44983 838.49223,320.94888 840.31173,321.3103 840.98373,320.2211 842.50693,319.4284 842.38063,318.85902 843.66443,316.77666 842.58343,316.30686 842.62983,315.53266 843.10483,314.96029 842.76723,314.30016 840.29783,313.88769 840.94743,312.38862 839.93573,311.84935 839.69033,311.12172 838.86613,310.34703 839.21073,309.08276 838.71683,308.36116 837.89673,308.64052 836.04493,310.66404 835.53613,310.94383 833.69843,309.89312 831.36413,309.08831 831.53563,307.20623 831.37113,306.4098 827.92813,306.87095 827.68453,305.27341 828.53363,304.36801 828.20863,303.26481 827.63393,301.69557 826.97283,301.19095 827.14643,300.21623 827.53823,300.10796 826.82753,297.75113 827.40283,294.88738 826.77653,294.27729 825.55053,294.42972 824.64553,295.19842 823.42213,293.45078 823.93963,292.77346 821.89833,292.43437 820.85923,291.78024 820.08403,291.45434 819.96973,292.63423 818.31833,292.21122 817.73753,291.62378 817.98513,290.84498 817.63703,290.62984 816.77063,290.41497 815.96573,290.85451 814.78123,292.0999 812.96063,292.38223 812.19173,292.89654 811.95823,291.70267 812.39853,291.00768 811.91363,290.30018 810.81443,289.76009 810.73533,288.91565 809.55443,288.41015 810.24203,287.43717 810.18083,286.20663 808.44183,287.49095 806.90043,286.64872 806.31033,286.17007 805.56103,286.29619 804.84683,283.91289 805.28723,283.91064 805.36593,283.03321 804.92863,281.36602 805.93043,280.5784 805.27513,279.99917 805.90113,280.30378 805.91513,279.90686 806.60223,279.56484 809.08593,279.01044 809.33463,277.78795 810.40903,277.96572 810.85563,279.06336 811.90243,279.87676 812.80553,279.73579 813.11063,278.19216 813.86383,277.12673 813.68343,276.73015 813.71333,275.68572 814.13663,275.77967 814.32483,276.62666 817.24673,276.78004 816.84263,277.43997 817.47613,278.38304 817.88833,278.29855 818.59183,279.34056 819.29793,279.71311 819.27953,280.54233 820.11823,280.72851 820.94553,279.81443 821.39183,277.75704 822.28003,277.09091 822.42153,276.65413 824.15553,276.20696 824.24943,275.75764 824.79193,276.4405 825.54873,275.95643 826.84573,276.27716 827.67003,275.95086 827.86033,275.86619 830.89303,273.96708 831.08933,275.56071 831.87963,275.45467 832.85883,276.14977 833.18533,277.44236 832.37753,279.47359 833.18113,279.21868 833.63353,280.32831 834.08493,280.33852 835.84743,278.96163 835.58543,277.02378 834.90033,275.92339 835.64743,273.57508 834.82993,273.82531 834.42833,273.73451 833.70883,272.28117 834.13923,271.34715 833.96003,269.22857 832.67483,267.88368 832.62883,267.10143 832.27783,266.90502 832.33723,266.09169 833.46833,265.00774 832.32793,264.09126 830.99023,263.9389 830.06413,262.96988 829.08343,262.23929 827.86063,262.45033 827.12783,262.12877 826.35423,261.41963 824.28083,260.52325 823.44253,259.45432 822.54823,260.02533 822.23323,259.81925 821.28213,258.27529 823.41723,256.61914 823.78763,255.78585 823.30053,254.73556 822.27973,253.99709 821.47733,254.35462 820.01033,256.50361 818.25813,256.41429 818.12603,255.74445 817.78303,255.77081 816.89983,255.77134 816.25813,255.1636 815.72913,253.60013 814.28423,252.72182 814.24733,252.47608 812.45933,252.05864 811.71503,251.49318 810.25053,250.25204 809.16873,250.27096 806.60993,249.98529 806.03243,250.59259 804.78153,250.92953 803.90713,251.82154 800.91373,253.01269 800.71763,252.47648 799.41873,253.68695 798.14693,254.00135 798.31883,253.59187 797.24083,252.8891 796.80493,252.85354 796.38373,251.245 796.23173,251.2847 795.06723,250.17197 795.10023,249.39619 793.98393,250.17543 793.06013,250.22406 790.38133,250.34877 790.66573,249.7693 789.16483,249.78102 788.33093,254.4682 787.92093,257.52406 787.61363,260.82148 788.61463,263.44364 789.87453,264.03662 792.19173,263.98052 792.43743,265.74891 794.29973,268.91173 794.96023,269.53848 796.22143,269.19921 798.07663,269.647 798.80223,270.77146 799.06663,272.49866 799.97553,273.73531 799.22673,274.7445 798.45863,274.44998 795.19153,272.93002 793.81403,272.76327 792.53483,273.31781 792.10933,273.13102 790.66233,272.0111 789.39893,270.02436 789.76123,269.73507 789.58703,269.31358 788.24083,269.60436 784.82403,271.93701 782.91533,275.11041 781.63573,279.56696 780.42093,283.42542 777.66703,286.19405 z">
      <title id="t442">Troisième circonscription de la Somme</title>
      <desc id="d442">Cantons de : Ault, Crécy-en-Ponthieu, Friville-Escarbotin, Gamaches, Hallencourt, Molliens-Dreuil, Moyenneville, Nouvion, Oisemont, Rue, Saint-Valéry-sur-Somme</desc>
    </path><path class="circo" id="080-04" d="M 857.32163,328.9834 856.09523,327.97054 855.27633,328.19152 853.73103,327.72822 852.42583,328.15585 851.03093,326.21568 850.62903,326.24544 849.20193,327.91447 847.13113,328.29602 846.75973,327.56645 846.57603,325.27823 847.00633,325.37817 847.77133,324.32365 848.21363,324.29928 848.53493,322.57925 847.77303,322.14018 847.42103,321.36471 846.53663,320.86073 846.32953,320.07786 844.27423,319.15571 842.50693,319.4284 840.98373,320.2211 840.31173,321.3103 838.49223,320.94888 837.29483,321.44983 836.56483,320.98208 835.51103,321.75048 834.26453,322.2536 833.27163,323.7576 833.51363,325.08466 832.51263,325.83479 831.89213,325.24347 831.04843,325.42518 832.36253,324.31259 832.01633,322.6849 831.33583,322.23016 831.45733,321.82637 831.00123,321.19962 830.26503,321.62651 829.60603,321.1149 829.39043,319.90166 828.96363,319.75301 827.71483,321.02003 826.88533,320.21597 825.24723,320.54 824.52053,319.58326 823.70533,319.73139 825.36473,318.29579 825.75463,317.01266 824.97663,316.58916 825.22143,315.78638 824.64953,314.5935 823.39543,314.74505 822.32863,314.05416 823.06463,312.15745 822.90483,309.7243 822.60063,309.43667 821.94583,310.51847 821.62123,312.15428 821.03043,312.69326 819.56613,312.79986 819.61263,312.65698 820.02503,310.90859 821.19143,310.25121 820.24233,308.72012 820.05513,307.91978 818.80413,308.97597 817.35213,311.43659 817.51313,311.7971 813.96223,314.3396 813.56103,314.22102 813.29433,313.4368 812.17353,314.13726 811.82563,313.8675 810.91273,312.88324 810.83053,312.92005 810.08423,313.35923 809.78303,314.61764 808.99113,314.682 809.51013,315.2416 808.19813,316.89914 807.91343,316.90112 806.52993,317.79459 806.64133,318.19679 803.58173,319.11604 804.23023,322.60059 805.12563,323.90827 805.83373,325.41267 806.38893,326.95962 807.61563,327.49156 808.23173,328.66703 808.56463,329.92004 809.19373,330.1953 809.04783,330.51909 809.84593,330.75393 810.66903,330.45423 811.59163,332.40022 812.95763,332.24278 813.30923,333.07426 813.11273,333.49548 811.60033,334.56966 811.74883,334.96449 812.58603,335.01458 813.21953,335.55452 813.07963,336.37992 814.01673,337.31943 815.24803,337.02871 816.74193,337.81502 817.90773,337.56125 819.68823,335.74238 821.16373,334.92123 822.52603,337.42943 824.42823,334.91321 824.95653,336.04276 826.25203,336.2139 827.00853,335.77551 828.04893,336.45695 829.27333,336.12636 829.30313,336.14963 829.74463,336.13819 830.07843,336.95734 831.85613,338.17824 831.86973,339.02945 830.99363,339.11078 831.18323,339.31627 832.49423,339.56984 833.93083,338.58008 834.30943,338.83302 834.93273,338.46339 836.28423,338.34289 837.39713,339.10618 838.59963,338.71029 839.36593,337.7066 840.07833,337.25963 843.01773,337.02437 843.17683,337.15383 844.31303,337.71383 846.37163,337.24583 846.61323,337.26121 847.86323,337.31877 848.25893,337.94564 848.97673,338.13842 851.01473,338.89766 851.55323,339.60242 852.83463,339.80225 853.59563,339.31982 853.67303,338.87401 855.09913,340.03175 855.34833,341.25128 856.62403,342.38312 857.03013,342.25232 857.62983,341.90404 858.63653,343.30953 859.91213,343.32437 861.03943,342.721 861.90593,342.62711 864.72923,343.71104 865.03353,344.47933 865.35063,345.26512 865.67843,346.05659 866.42733,345.67885 867.09063,346.02929 866.53343,347.11566 867.49493,347.9359 869.82263,345.4502 869.84543,345.90303 871.16773,347.1213 871.61493,346.80019 873.30663,348.54598 875.00453,348.16616 874.91483,348.96724 874.38343,349.58549 875.44343,351.04595 876.29023,350.75258 876.79723,349.6903 877.50653,349.3377 877.23233,349.04674 878.39633,349.57369 879.16883,349.13962 880.06033,349.22725 880.17033,349.35882 879.92993,349.72769 880.46903,350.89199 880.21733,352.59012 880.56993,353.4014 882.07333,354.36527 883.86633,353.09934 883.73643,350.6748 884.15353,350.66012 884.13823,350.35019 885.30203,348.33436 885.41433,347.29754 886.21013,347.21893 886.52763,347.52783 887.39953,347.38782 888.08923,347.9006 888.49793,347.41931 889.19043,345.31644 888.65473,344.14456 887.81663,343.67205 887.72803,341.59802 887.07353,341.55678 886.62503,340.89152 886.83973,339.76585 886.11443,339.42033 885.74793,338.72632 886.10903,337.6953 887.21513,337.78926 889.05783,334.62436 887.22393,333.46708 886.59463,333.10674 885.95553,332.69904 885.25503,333.15803 884.02653,332.70443 883.24573,333.09649 882.89583,332.83332 883.14513,331.60206 882.63413,330.91154 882.86833,330.55001 881.52193,329.72254 882.04813,327.94895 881.62573,327.91183 881.84563,325.3679 880.63533,324.8824 879.75533,323.90932 879.32863,321.82492 879.66013,321.02543 879.02263,321.01081 879.60853,318.38424 879.31773,317.59223 878.39403,317.11946 878.82373,314.16852 877.73253,312.88931 877.58523,310.9082 878.21323,310.69163 876.99743,309.92242 875.66733,308.8528 874.85253,308.85359 874.65173,308.68633 875.33723,308.17381 875.51033,306.92153 876.04503,306.28037 873.92873,306.72146 872.60503,306.52509 871.75853,306.02468 873.69243,304.48637 876.01783,303.16558 876.46323,303.23561 876.03413,300.45298 874.92253,299.41641 874.94223,298.89257 875.90703,297.69479 875.91953,296.49124 874.71743,296.37788 874.95823,295.98092 873.83913,292.94234 873.38283,292.54198 870.67933,294.1889 869.44643,294.69699 869.07803,293.59635 868.46813,293.13198 867.30353,294.66444 865.17303,294.8846 863.96403,293.6821 864.21143,295.64002 864.01153,296.02285 862.39973,296.4587 861.71473,295.48365 861.59323,294.59445 860.32583,294.06452 859.73593,293.35828 860.07343,292.69114 859.33193,291.56037 859.39383,290.21041 858.58683,289.23916 858.82933,288.85539 861.90643,288.25837 861.92563,287.80023 863.27413,286.6054 863.37523,286.31315 862.54083,286.2681 862.08743,284.6614 860.63243,283.88559 860.41973,283.39679 858.76833,283.52045 859.13663,282.20431 859.67383,279.51961 860.16693,278.76174 859.98533,277.39075 860.75423,277.26339 861.13203,276.15468 862.08933,276.23801 862.11623,275.05202 862.62703,274.84922 864.28203,274.06849 865.17413,274.33397 867.13483,272.98897 868.11103,272.63209 868.98813,272.2043 868.93403,271.5417 868.41333,270.83666 868.09683,270.44633 867.27343,270.39692 865.92033,268.8853 865.28003,267.46871 863.98703,267.86082 862.33333,267.7237 861.45043,266.92615 859.95953,268.19272 859.56743,268.10636 859.35143,268.01973 858.11893,270.41764 857.60133,270.54222 855.46983,266.83419 855.14873,266.29038 853.60923,266.90981 853.73533,267.31205 854.12273,267.12017 855.01473,268.59674 854.66033,269.74264 854.32443,268.99157 853.91713,268.93897 852.49793,269.76137 851.56223,269.01469 849.74883,267.80954 848.39553,269.53183 846.47243,270.07045 845.78723,270.30621 845.92963,269.17636 843.84593,269.46675 843.81043,269.83336 842.81143,270.19664 842.08413,270.15294 842.02603,270.51367 841.58393,270.43491 839.58323,272.75291 838.89533,271.15539 838.38743,270.49308 837.21763,270.11588 836.59113,271.10214 835.06783,270.60186 834.13923,271.34715 833.70883,272.28117 834.42833,273.73451 834.82993,273.82531 835.64743,273.57508 834.90033,275.92339 835.58543,277.02378 835.84743,278.96163 834.08493,280.33852 833.63353,280.32831 833.45643,280.615 833.91273,281.77543 835.08273,281.59883 836.91033,280.33361 838.17083,280.68886 838.58913,281.475 838.30523,282.22698 838.42113,283.04964 839.64423,282.86128 839.17503,283.60329 839.51503,284.42087 840.78753,283.30626 841.12183,284.50728 841.95863,284.62827 843.09093,285.78518 843.69093,284.56161 843.65823,283.67512 844.97383,283.59162 845.69583,284.71162 846.50173,285.07272 847.77033,284.93663 847.51353,285.26883 847.86113,285.5023 850.56303,285.85063 851.02243,288.49597 851.90093,288.70813 852.68663,288.49411 853.18363,289.1666 853.45103,288.94664 854.27613,288.62655 855.27923,287.15953 856.10483,289.01192 854.53383,290.47613 854.63113,291.31362 853.40983,291.72014 852.29423,293.47037 852.80313,294.60556 852.17743,294.74184 849.99593,295.15145 848.71353,294.7642 847.63433,294.68177 846.91183,294.60675 846.43813,295.12592 845.80463,296.87164 845.96843,298.72068 845.35003,299.41574 844.98743,299.52733 844.73083,300.63078 843.98103,301.07054 843.10293,300.99996 841.71463,299.91363 842.70603,301.31506 842.63883,302.15746 843.18323,303.29018 843.86453,303.24764 844.11403,302.87713 845.84343,302.51334 846.23653,303.6098 847.28103,304.16918 847.88203,303.53567 850.03733,303.2804 850.33443,304.43829 852.64453,302.972 852.69153,301.58852 852.98813,300.71207 853.71623,300.15595 853.66373,299.69695 854.53933,299.46969 855.03623,300.1114 854.31503,300.38358 854.11193,301.69729 854.46943,301.96253 853.82893,303.60372 855.16773,305.32003 854.82363,306.03961 856.91253,305.69462 859.05163,303.57346 859.81183,303.91407 859.98063,304.32098 860.41153,305.59213 860.33073,306.92509 859.46433,307.92691 859.60123,308.35522 859.80573,308.34294 859.99113,309.06851 859.02793,312.45379 859.33743,313.18496 861.25943,313.22823 861.82813,313.10436 863.63103,313.18351 864.50873,313.45699 865.29383,313.00224 865.60343,315.2267 867.36823,315.17922 868.05803,314.78013 868.37573,316.40232 869.13863,316.74448 869.17723,317.61003 868.70793,318.09515 867.83623,318.26415 867.00023,319.1602 866.22963,319.76105 865.74933,320.31256 865.31103,321.63428 865.35233,322.99867 864.95873,323.43096 865.02263,324.46232 863.36193,325.84533 863.02323,326.63802 862.69443,326.20041 862.37393,326.88406 861.24753,327.04387 860.92293,328.25022 860.30793,328.78942 858.69803,328.7298 858.39513,328.01568 857.32163,328.9834 z">
      <title id="t443">Quatrième circonscription de la Somme</title>
      <desc id="d443">Cantons de : Ailly-sur-Noye, Bernaville, Conty, Corbie, Doullens, Hornoy-le-Bourg, Montdidier, Moreuil, Poix-de-Picardie, Villers-Bocage</desc>
    </path><path class="circo" id="080-05" d="M 866.75343,280.2876 865.53353,280.615 865.10393,281.51345 864.77563,282.43617 863.37523,286.31315 863.27413,286.6054 861.92563,287.80023 861.90643,288.25837 858.82933,288.85539 858.58683,289.23916 859.39383,290.21041 859.33193,291.56037 860.07343,292.69114 859.73593,293.35828 860.32583,294.06452 861.59323,294.59445 861.71473,295.48365 862.39973,296.4587 864.01153,296.02285 864.21143,295.64002 863.96403,293.6821 865.17303,294.8846 867.30353,294.66444 868.46813,293.13198 869.07803,293.59635 869.44643,294.69699 870.67933,294.1889 873.38283,292.54198 873.83913,292.94234 874.95823,295.98092 874.71743,296.37788 875.91953,296.49124 875.90703,297.69479 874.94223,298.89257 874.92253,299.41641 876.03413,300.45298 876.46323,303.23561 876.01783,303.16558 873.69243,304.48637 871.75853,306.02468 872.60503,306.52509 873.92873,306.72146 876.04503,306.28037 875.51033,306.92153 875.33723,308.17381 874.65173,308.68633 874.85253,308.85359 875.66733,308.8528 876.99743,309.92242 878.21323,310.69163 877.58523,310.9082 877.73253,312.88931 878.82373,314.16852 878.39403,317.11946 879.31773,317.59223 879.60853,318.38424 879.02263,321.01081 879.66013,321.02543 879.32863,321.82492 879.75533,323.90932 880.63533,324.8824 881.84563,325.3679 881.62573,327.91183 882.04813,327.94895 881.52193,329.72254 882.86833,330.55001 882.63413,330.91154 883.14513,331.60206 882.89583,332.83332 883.24573,333.09649 884.02653,332.70443 885.25503,333.15803 885.95553,332.69904 886.59463,333.10674 887.22393,333.46708 889.05783,334.62436 887.21513,337.78926 886.10903,337.6953 885.74793,338.72632 886.11443,339.42033 886.83973,339.76585 886.62503,340.89152 887.07353,341.55678 887.72803,341.59802 887.81663,343.67205 888.65473,344.14456 889.19043,345.31644 888.49793,347.41931 890.12503,347.35724 891.24733,347.91254 891.42853,348.33764 892.81443,348.71194 893.68153,348.97131 894.42793,348.45533 894.73743,348.1209 894.54353,346.77473 894.03113,345.1332 894.32543,343.4277 895.05483,342.95277 894.89163,342.60978 898.22423,342.6883 898.54003,342.98152 899.11923,342.47885 898.73463,341.3821 898.88853,341.19533 899.79203,340.41114 899.98333,340.06013 899.68033,339.80106 900.00943,339.52057 901.27523,339.66719 901.49183,340.48142 902.40303,341.38538 902.63903,341.06043 902.37143,339.89697 902.23023,339.05665 900.48223,337.20679 901.63293,336.51163 901.80023,335.73896 901.97803,335.71622 902.70043,337.70765 903.93883,337.36832 904.49573,336.28462 906.31193,340.60556 906.62603,340.32195 907.30783,340.80784 907.88523,341.92978 908.12203,340.38474 907.51433,339.78425 907.62883,338.48192 909.28413,337.98402 909.93843,336.91988 910.36003,337.01898 911.20673,336.52872 912.22903,337.2963 912.56333,338.49125 912.99543,338.5174 913.30013,339.31075 914.26163,340.15393 914.70203,339.75745 915.29853,338.19348 916.55823,338.32174 916.75003,336.98862 916.31273,335.72463 918.93803,335.89224 918.58783,338.6304 919.00233,338.58362 919.72403,337.58438 920.12423,336.76294 921.94143,336.76768 922.08983,336.78095 921.51643,334.18493 920.41293,332.90382 920.08153,331.21452 919.90383,330.00386 920.39453,328.86351 918.12603,328.80192 917.40953,328.26562 917.54473,327.4676 917.06883,326.82969 919.16023,325.46547 919.17733,323.78776 918.68133,323.07375 919.08123,322.05402 918.87733,321.84428 918.18833,321.48487 917.01723,321.73125 916.87393,320.73687 916.70663,320.32363 918.11723,319.25443 918.45383,319.15057 919.14153,318.68596 919.02983,318.2855 918.61073,315.75869 917.88273,314.70469 918.14063,314.36373 918.87723,314.03384 918.92753,315.60611 919.32193,315.7215 921.98233,313.43575 921.87393,312.48045 922.27753,311.27309 921.85363,309.35298 922.36773,308.81768 923.57573,306.4617 925.87393,304.919 926.01303,304.56339 925.59323,304.4474 925.76583,302.8289 926.34123,302.21535 928.23713,300.95541 929.08753,299.90424 928.22063,299.45567 926.95053,299.74957 925.89573,299.03589 925.08913,299.07582 926.42543,296.66491 926.53623,296.39904 926.05053,295.2098 924.38153,295.50362 924.51473,294.64235 922.36013,294.74674 921.57133,293.54871 921.46103,292.79622 919.99683,291.9359 919.52753,290.87477 918.18763,291.99216 917.08673,291.45156 914.44073,290.37988 913.97343,290.82089 912.87313,290.30574 912.43663,290.75985 911.33283,291.31508 909.43613,292.51273 909.23553,291.8079 908.60813,291.35161 907.51113,290.93011 906.75733,291.30753 906.31913,291.99984 905.54153,292.10281 905.07033,291.5564 904.79823,293.2851 903.02843,293.14932 901.88443,293.8581 901.29393,294.41411 901.53373,294.74171 900.90643,295.19776 899.64743,294.86608 899.56623,294.53703 899.52793,293.70394 900.80143,293.36186 901.33183,292.13061 900.35733,290.05629 899.67523,289.91475 899.56553,287.66341 898.07713,288.46445 897.51023,289.62649 896.79433,289.25823 895.74903,290.07761 895.46703,289.72037 894.49013,291.20216 894.38853,291.36286 893.23313,291.5883 892.79293,292.32306 891.62673,292.81859 890.79163,292.6513 889.95393,291.63397 891.77353,289.96705 891.49123,288.77037 892.68443,287.49996 893.31123,285.92536 892.99723,284.82307 893.23153,283.26914 893.00723,282.89707 891.81063,283.33038 890.56573,283.05084 888.89913,281.31935 887.29853,281.01545 886.96083,281.24417 887.50423,283.39705 886.25753,283.96113 886.14883,284.40669 887.96953,286.38482 886.68303,287.26643 885.64513,285.79856 884.85803,285.40067 883.98183,285.59121 882.65953,284.71016 881.89623,285.48825 880.89603,284.74555 880.45973,284.07034 880.46673,283.78341 879.28373,283.38552 877.25153,283.87896 876.91563,283.18564 875.78673,282.98085 875.24983,282.04323 875.27433,281.75143 876.71863,279.79427 876.21003,279.73512 875.85153,279.54043 875.16613,279.98007 874.14953,279.15554 873.71763,279.21881 873.26693,279.96694 873.15313,281.2264 873.44223,281.55336 872.10283,282.74941 870.62523,279.33592 868.59683,279.75488 867.31233,279.86098 866.75343,280.2876 z">
      <title id="t444">Cinquième circonscription de la Somme</title>
      <desc id="d444">Cantons de : Acheux-en-Amiénois, Albert, Bray-sur-Somme, Chaulnes, Combles, Ham, Nesle, Péronne, Roisel, Rosières-en-Santerre, Roye</desc>
    </path></svg>