<svg xmlns="http://www.w3.org/2000/svg" version="1.1" xmlns:xlink="http://www.w3.org/1999/xlink" xmlns:svgjs="http://svgjs.dev/svgjs" viewBox="0 0 154.96080000000006 104.96908000000002"><path class="circo" id="id-080-01" d="M34.95920000000001 29.614250000000027L32.47550000000001 30.168650000000014L31.788400000000024 30.510670000000005L31.774400000000014 30.907590000000027L31.148400000000038 30.602980000000002L31.80370000000005 31.182209999999998L30.801900000000046 31.96983L31.239200000000096 33.63702000000001L31.16050000000007 34.51445000000001L30.720100000000002 34.516700000000014L31.434300000000007 36.900000000000034L32.18360000000007 36.77388000000002L32.773700000000076 37.252530000000036L34.31510000000003 38.09476000000001L36.05410000000006 36.81044000000003L36.11530000000005 38.04097999999999L35.42770000000007 39.01396L36.608600000000024 39.51946000000004L36.68770000000006 40.3639L37.78690000000006 40.90399000000002L38.2718000000001 41.61149L37.831500000000005 42.30648000000002L38.065000000000055 43.500350000000026L38.833900000000085 42.98604L40.6545000000001 42.70371L41.839000000000055 41.458320000000015L42.64390000000003 41.01877999999999L43.51030000000003 41.23365000000001L43.858400000000074 41.44879000000003L43.61080000000004 42.22759000000002L44.191599999999994 42.815030000000036L45.843000000000075 43.23804000000001L45.95730000000003 42.05815000000001L46.73250000000007 42.38405L47.771600000000035 43.03818000000001L49.81290000000001 43.37727000000001L49.295400000000086 44.05459000000002L50.518800000000056 45.80223000000001L51.42380000000003 45.033529999999985L52.64980000000003 44.8811L53.27610000000004 45.49119000000002L52.70080000000007 48.35494L53.411500000000046 50.71177L53.01970000000006 50.820040000000006L52.84610000000009 51.79476L53.50720000000001 52.299379999999985L54.08190000000002 53.86862000000002L54.406900000000064 54.97182000000004L53.55780000000004 55.87722000000002L53.80140000000006 57.47476L57.24440000000004 57.01361000000003L57.40890000000002 57.810040000000015L57.23740000000009 59.69211999999999L59.57170000000008 60.49693000000002L61.409400000000005 61.54764L61.91820000000007 61.26785000000001L63.770000000000095 59.24432999999999L64.5901 58.964969999999994L65.08400000000006 59.68657000000002L64.73940000000005 60.95084000000003L65.56360000000006 61.72552999999999L65.80900000000008 62.453160000000025L66.8207000000001 62.99243000000001L66.17110000000002 64.49150000000003L68.64050000000009 64.90397000000002L69.2251 64.76177999999999L69.62670000000003 63.44918999999999L68.9026 63.844179999999994L68.71300000000008 62.64422000000002L69.54230000000007 62.59316000000001L69.43460000000005 61.40986000000004L70.68130000000008 61.228920000000016L71.16730000000007 58.24275L71.61150000000009 58.42694L74.37980000000005 59.24934000000002L76.27260000000001 60.11345L76.80280000000005 61.021619999999984L77.33109999999999 61.83656000000002L77.77030000000002 61.974080000000015L77.8805000000001 61.546730000000025L78.24930000000006 61.49356L78.4556 60.43097L79.50720000000001 60.45416L79.7052000000001 60.141729999999995L79.93790000000001 60.81805000000003L81.08300000000008 60.2953L81.1278000000001 59.03726L80.81100000000004 58.773529999999994L81.59140000000002 58.07954999999998L82.84090000000003 58.54842000000002L83.58770000000004 59.05712L82.63700000000006 61.089020000000005L81.17360000000008 62.123140000000035L80.85210000000006 62.96511000000004L80.53000000000009 63.34003000000001L80.0403 63.09002000000004L79.57620000000009 63.81763999999998L80.0458000000001 64.44L79.7151 64.82049L79.83070000000009 65.33175L80.71840000000009 65.07485000000003L81.04610000000002 65.60067000000004L81.18590000000006 65.58113000000003L81.86040000000003 66.64798000000002L82.19600000000003 66.51069000000001L82.2767 66.72975000000002L83.30470000000003 66.45942000000002L83.4742 66.09796L84.23430000000008 66.30276000000003L84.6603 65.63466L83.53120000000001 64.07240000000002L85.21070000000009 63.78877L84.90120000000002 63.057600000000036L85.86440000000005 59.67232000000001L85.67900000000009 58.94675000000001L85.47450000000003 58.959029999999984L85.33760000000007 58.53072000000003L86.20400000000006 57.52890000000002L86.28480000000002 56.19594000000001L85.85390000000007 54.92479000000003L85.68510000000003 54.51787999999999L84.9249000000001 54.17727000000002L82.7858 56.298429999999996L80.69690000000003 56.64341999999999L81.04100000000005 55.923839999999984L79.70220000000006 54.20753000000002L80.34270000000004 52.566340000000025L79.98520000000008 52.30110000000002L80.18830000000003 50.987390000000005L80.9095000000001 50.71521000000001L80.4126 50.073500000000024L79.53700000000003 50.300760000000025L79.58950000000004 50.75976000000003L78.8614 51.31587999999999L78.56479999999999 52.19233000000003L78.51780000000008 53.57580999999999L76.20770000000005 55.042100000000005L75.91060000000004 53.884209999999996L73.75530000000003 54.13947999999999L73.15430000000003 54.77298999999999L72.10980000000006 54.21361000000002L71.71670000000006 53.11715000000004L69.9873 53.48094000000003L69.7378 53.85145L69.05650000000003 53.89399000000003L68.51210000000003 52.761270000000025L68.5793000000001 51.91887000000003L67.5879000000001 50.51744000000002L68.97620000000006 51.60377L69.85430000000008 51.674350000000004L70.60410000000002 51.234590000000026L70.86070000000007 50.131140000000016L71.2233 50.01955000000004L71.84170000000006 49.324490000000026L71.67790000000002 47.47545000000002L72.31140000000005 45.72973000000002L72.78510000000006 45.21055999999999L73.50760000000002 45.28557999999998L74.58680000000004 45.36801000000003L75.86920000000009 45.75526000000002L78.0507 45.345650000000035L78.67640000000006 45.209370000000035L78.16750000000002 44.07418000000001L79.2831000000001 42.323950000000025L80.50440000000003 41.917430000000024L80.40710000000001 41.07994000000002L81.97810000000004 39.615729999999985L81.15250000000003 37.76334000000003L80.14940000000001 39.23036000000002L79.3243 39.55045000000001L79.05690000000004 39.77041000000003L78.55990000000008 39.09791999999999L77.77420000000006 39.31193999999999L76.89570000000003 39.09978000000001L76.43630000000007 36.454440000000034L73.73440000000005 36.10611L73.3868 35.87263999999999L73.64359999999999 35.54043999999999L72.375 35.676530000000014L71.56910000000005 35.31542999999999L70.84710000000007 34.19542999999999L69.53150000000005 34.27893L69.56420000000003 35.16541999999998L68.9642 36.388990000000035L67.83190000000002 35.232079999999996L66.9951000000001 35.11108999999999L66.6608 33.91007000000002L65.38830000000007 35.02467999999999L65.04830000000004 34.207100000000025L65.51750000000004 33.46509000000003L64.2944 33.65345000000002L64.1785000000001 32.830790000000036L64.4624 32.07881000000003L64.04410000000007 31.292669999999987L62.78360000000009 30.93742000000003L60.95600000000002 32.20264000000003L59.78600000000006 32.37923999999998L59.3297 31.21881000000002L59.5068 30.932119999999998L59.0544000000001 29.822490000000016L58.25080000000003 30.07740000000001L59.05860000000007 28.046170000000018L58.73210000000006 26.75358L57.75290000000007 26.05848000000003L56.962600000000066 26.164519999999982L56.7663 24.57089000000002L53.733600000000024 26.470000000000027L53.543300000000045 26.554669999999987L52.71900000000005 26.88096999999999L51.422000000000025 26.56024000000002L50.66520000000003 27.044309999999996L50.12270000000001 26.36144999999999L50.02880000000005 26.81076999999999L48.29480000000001 27.25794000000002L48.15330000000006 27.694720000000018L47.265100000000075 28.360850000000028L46.81880000000001 30.418240000000026L45.99150000000009 31.33232000000004L45.15280000000007 31.146140000000003L45.1712 30.316919999999982L44.46510000000001 29.944369999999992L43.761600000000044 28.902359999999987L43.34940000000006 28.986850000000004L42.71590000000003 28.043780000000027L43.120000000000005 27.383849999999995L40.19810000000007 27.230470000000025L40.009900000000016 26.38348000000002L39.58660000000009 26.289530000000013L39.55670000000009 27.33395999999999L39.737100000000055 27.73054000000002L38.98390000000006 28.79597000000001L38.678800000000024 30.33960000000002L37.77570000000003 30.48057L36.72890000000007 29.66717L36.28230000000008 28.569529999999986L35.207899999999995 28.391760000000033L34.95920000000001 29.614250000000027z">
      <title id="t440">Première circonscription de la Somme</title>
      <desc id="d440">Cantons de : Abbeville Nord, Abbeville Sud, Ailly-le-Haut-Clocher, Amiens II Nord-Ouest, Amiens IV Est, Amiens VIII Nord, Domart-en-Ponthieu, Picquigny</desc>
    </path><path class="circo" id="id-080-02" d="M69.43460000000005 61.40986000000004L69.54230000000007 62.59316000000001L68.71300000000008 62.64422000000002L68.9026 63.844179999999994L69.62670000000003 63.44918999999999L69.2251 64.76177999999999L68.64050000000009 64.90397000000002L68.97810000000004 65.5641L68.50310000000002 66.13647000000003L68.45670000000007 66.91066999999998L69.53770000000009 67.38047L68.25390000000004 69.46283L68.38020000000006 70.03221000000002L70.14750000000004 69.75952000000001L72.20280000000002 70.68167L72.4099 71.46454L73.29430000000002 71.96852000000001L73.6463 72.74399L74.40820000000008 73.18306000000001L74.08690000000001 74.90309000000002L73.64460000000008 74.92746L72.8796000000001 75.98198000000002L72.4493 75.88204000000002L72.63300000000004 78.17025999999998L73.00440000000003 78.89983000000001L75.0752 78.51828L76.50229999999999 76.84924999999998L76.90420000000006 76.81949000000003L78.29910000000007 78.75966L79.60430000000008 78.33203000000003L81.14960000000008 78.79533000000004L81.96850000000006 78.57435000000004L83.19490000000008 79.58721000000003L84.26840000000004 78.61948999999998L84.57130000000006 79.33361000000002L86.1812000000001 79.39323000000002L86.7962 78.85403000000002L87.12080000000003 77.64768000000004L88.24720000000002 77.48786999999999L88.56770000000006 76.80421999999999L88.89650000000006 77.24183L89.23520000000008 76.44914L90.8959000000001 75.06612999999999L90.832 74.03477000000004L91.2256000000001 73.60248000000001L91.18430000000001 72.23809L91.62260000000003 70.91637000000003L92.10290000000009 70.36486000000002L92.87350000000004 69.76400999999998L93.70950000000005 68.86795999999998L94.58120000000008 68.69896L95.05050000000006 68.21384L95.01190000000008 67.34829000000002L94.24900000000002 67.00612999999998L93.93130000000008 65.38394L93.24150000000009 65.78303L91.47670000000005 65.83051L91.1671 63.60604999999998L90.38200000000006 64.06080000000003L89.50430000000006 63.78732000000002L87.70140000000004 63.708169999999996L87.1327 63.832040000000006L85.21070000000009 63.78877L83.53120000000001 64.07240000000002L84.6603 65.63466L84.23430000000008 66.30276000000003L83.4742 66.09796L83.30470000000003 66.45942000000002L82.2767 66.72975000000002L82.19600000000003 66.51069000000001L81.86040000000003 66.64798000000002L81.67430000000002 66.30740000000003L81.18590000000006 65.58113000000003L81.04610000000002 65.60067000000004L80.71840000000009 65.07485000000003L79.83070000000009 65.33175L79.7151 64.82049L80.0458000000001 64.44L79.57620000000009 63.81763999999998L80.0403 63.09002000000004L80.53000000000009 63.34003000000001L80.85210000000006 62.96511000000004L81.17360000000008 62.123140000000035L82.63700000000006 61.089020000000005L83.58770000000004 59.05712L82.84090000000003 58.54842000000002L81.59140000000002 58.07954999999998L80.81100000000004 58.773529999999994L81.1278000000001 59.03726L81.08300000000008 60.2953L79.93790000000001 60.81805000000003L79.7052000000001 60.141729999999995L79.50720000000001 60.45416L78.4556 60.43097L78.24930000000006 61.49356L77.8805000000001 61.546730000000025L77.77030000000002 61.974080000000015L77.33109999999999 61.83656000000002L76.27260000000001 60.11345L74.37980000000005 59.24934000000002L71.61150000000009 58.42694L71.16730000000007 58.24275L70.68130000000008 61.228920000000016L69.43460000000005 61.40986000000004z">
      <title id="t441">Deuxième circonscription de la Somme</title>
      <desc id="d441">Cantons de : Amiens I Ouest, Amiens III Nord-Est, Amiens V Sud-Est, Amiens VI Sud, Amiens VII Sud-Ouest, Boves</desc>
    </path><path class="circo" id="id-080-03" d="M3.540300000000002 36.797860000000014L3.2227000000000317 36.99698000000001L1.0977000000000317 38.60245000000003L0 39.98586L2.5123000000000957 41.03730999999999L3.6066000000000713 39.40822000000003L4.443200000000047 39.12031000000002L5.736500000000092 39.37074000000001L6.257900000000063 40.069410000000005L6.752700000000004 40.31902000000002L6.167100000000005 42.94448L6.682600000000093 43.66194999999999L7.948399999999992 44.13307000000003L9.062600000000089 45.54741999999999L9.638100000000009 46.148439999999994L10.035100000000057 46.01853L11.456300000000056 46.91608000000002L12.370499999999993 48.72746000000001L12.516200000000026 49.041920000000005L15.433899999999994 51.453610000000026L16.548700000000053 52.072190000000035L16.853700000000003 53.36664000000002L17.549000000000092 53.912090000000035L18.38970000000006 55.46377000000001L19.4443 56.27928000000003L20.813000000000102 57.274429999999995L22.78270000000009 58.02818000000002L25.39420000000007 59.40604999999999L25.410799999999995 60.053290000000004L25.77520000000004 60.20495L26.5163 61.966499999999996L26.972600000000057 62.67972000000003L27.75100000000009 62.928830000000005L28.253600000000006 63.593920000000026L28.23020000000008 65.20733000000001L28.817800000000034 66.32346999999999L28.929200000000037 66.85594000000003L28.857200000000034 68.60919000000001L29.45500000000004 69.71985000000001L32.51460000000009 68.80060000000003L32.40320000000008 68.39840000000004L33.786699999999996 67.50493L34.07140000000004 67.50295L35.38340000000005 65.84541000000002L34.864400000000046 65.28581000000003L35.6563000000001 65.22145L35.957500000000095 63.963040000000035L36.7038 63.52386000000001L36.78600000000006 63.48705000000001L37.698900000000094 64.47131000000002L38.046800000000076 64.74107000000004L39.16759999999999 64.04061000000002L39.43430000000001 64.82483000000002L39.835500000000025 64.94341000000003L43.386400000000094 62.40091000000001L43.225400000000036 62.040400000000034L44.677400000000034 59.57978000000003L45.92840000000001 58.52359000000001L46.115600000000086 59.32393000000002L47.064700000000016 60.855020000000025L45.89830000000006 61.512400000000014L45.485900000000015 63.260789999999986L45.43940000000009 63.403670000000034L46.90370000000007 63.29707000000002L47.494500000000016 62.75809000000004L47.81910000000005 61.12227999999999L48.47390000000007 60.04048L48.778099999999995 60.32811000000004L48.93790000000001 62.76125999999999L48.20190000000002 64.65797000000003L49.26870000000008 65.34886L50.522800000000075 65.19731000000002L51.0947000000001 66.39019000000002L50.84990000000005 67.19297L51.62790000000007 67.61646999999999L51.238000000000056 68.89960000000002L49.57860000000005 70.33519999999999L50.393800000000056 70.18707L51.12049999999999 71.14381000000003L52.7586 70.81978000000004L53.588100000000054 71.62384000000003L54.836900000000014 70.35682000000003L55.263700000000085 70.50547L55.47930000000008 71.71870999999999L56.13830000000007 72.23032L56.87450000000001 71.80342999999999L57.330600000000004 72.43018000000001L57.209100000000035 72.83397000000002L57.88960000000009 73.28871000000004L58.23580000000004 74.91640000000001L56.9217000000001 76.02899000000002L57.7654 75.84728000000001L58.38589999999999 76.43860000000001L59.38690000000008 75.68847L59.14490000000001 74.36141000000003L60.137800000000084 72.85741000000002L61.38430000000005 72.35428999999999L62.43810000000008 71.58589L63.168100000000095 72.05364000000003L64.3655 71.55268999999998L66.18500000000006 71.91411L66.85700000000008 70.82490999999999L68.38020000000006 70.03221000000002L68.25390000000004 69.46283L69.53770000000009 67.38047L68.45670000000007 66.91066999999998L68.50310000000002 66.13647000000003L68.97810000000004 65.5641L68.64050000000009 64.90397000000002L66.17110000000002 64.49150000000003L66.8207000000001 62.99243000000001L65.80900000000008 62.453160000000025L65.56360000000006 61.72552999999999L64.73940000000005 60.95084000000003L65.08400000000006 59.68657000000002L64.5901 58.964969999999994L63.770000000000095 59.24432999999999L61.91820000000007 61.26785000000001L61.409400000000005 61.54764L59.57170000000008 60.49693000000002L57.23740000000009 59.69211999999999L57.40890000000002 57.810040000000015L57.24440000000004 57.01361000000003L53.80140000000006 57.47476L53.55780000000004 55.87722000000002L54.406900000000064 54.97182000000004L54.08190000000002 53.86862000000002L53.50720000000001 52.299379999999985L52.84610000000009 51.79476L53.01970000000006 50.820040000000006L53.411500000000046 50.71177L52.70080000000007 48.35494L53.27610000000004 45.49119000000002L52.64980000000003 44.8811L51.42380000000003 45.033529999999985L50.518800000000056 45.80223000000001L49.295400000000086 44.05459000000002L49.81290000000001 43.37727000000001L47.771600000000035 43.03818000000001L46.73250000000007 42.38405L45.95730000000003 42.05815000000001L45.843000000000075 43.23804000000001L44.191599999999994 42.815030000000036L43.61080000000004 42.22759000000002L43.858400000000074 41.44879000000003L43.51030000000003 41.23365000000001L42.64390000000003 41.01877999999999L41.839000000000055 41.458320000000015L40.6545000000001 42.70371L38.833900000000085 42.98604L38.065000000000055 43.500350000000026L37.831500000000005 42.30648000000002L38.2718000000001 41.61149L37.78690000000006 40.90399000000002L36.68770000000006 40.3639L36.608600000000024 39.51946000000004L35.42770000000007 39.01396L36.11530000000005 38.04097999999999L36.05410000000006 36.81044000000003L34.31510000000003 38.09476000000001L32.773700000000076 37.252530000000036L32.18360000000007 36.77388000000002L31.434300000000007 36.900000000000034L30.720100000000002 34.516700000000014L31.16050000000007 34.51445000000001L31.239200000000096 33.63702000000001L30.801900000000046 31.96983L31.80370000000005 31.182209999999998L31.148400000000038 30.602980000000002L31.774400000000014 30.907590000000027L31.788400000000024 30.510670000000005L32.47550000000001 30.168650000000014L34.95920000000001 29.614250000000027L35.207899999999995 28.391760000000033L36.28230000000008 28.569529999999986L36.72890000000007 29.66717L37.77570000000003 30.48057L38.678800000000024 30.33960000000002L38.98390000000006 28.79597000000001L39.737100000000055 27.73054000000002L39.55670000000009 27.33395999999999L39.58660000000009 26.289530000000013L40.009900000000016 26.38348000000002L40.19810000000007 27.230470000000025L43.120000000000005 27.383849999999995L42.71590000000003 28.043780000000027L43.34940000000006 28.986850000000004L43.761600000000044 28.902359999999987L44.46510000000001 29.944369999999992L45.1712 30.316919999999982L45.15280000000007 31.146140000000003L45.99150000000009 31.33232000000004L46.81880000000001 30.418240000000026L47.265100000000075 28.360850000000028L48.15330000000006 27.694720000000018L48.29480000000001 27.25794000000002L50.02880000000005 26.81076999999999L50.12270000000001 26.36144999999999L50.66520000000003 27.044309999999996L51.422000000000025 26.56024000000002L52.71900000000005 26.88096999999999L53.543300000000045 26.554669999999987L53.733600000000024 26.470000000000027L56.7663 24.57089000000002L56.962600000000066 26.164519999999982L57.75290000000007 26.05848000000003L58.73210000000006 26.75358L59.05860000000007 28.046170000000018L58.25080000000003 30.07740000000001L59.0544000000001 29.822490000000016L59.5068 30.932119999999998L59.95820000000003 30.942330000000027L61.72070000000008 29.565440000000024L61.45870000000002 27.627589999999998L60.7736000000001 26.527199999999993L61.52070000000003 24.178890000000024L60.70320000000004 24.42912000000001L60.30160000000001 24.33832000000001L59.58210000000008 22.884979999999985L60.012500000000045 21.95096000000001L59.83330000000001 19.83238L58.54810000000009 18.487490000000037L58.50210000000004 17.705240000000003L58.15110000000004 17.50882999999999L58.210500000000025 16.695500000000038L59.341600000000085 15.611550000000022L58.201200000000085 14.695069999999987L56.863500000000045 14.54271L55.937400000000025 13.57369L54.95670000000007 12.843099999999993L53.73390000000006 13.054140000000018L53.001100000000065 12.732579999999984L52.22750000000008 12.023439999999994L50.154100000000085 11.127060000000029L49.31580000000008 10.058130000000006L48.42150000000004 10.629140000000007L48.106500000000096 10.42306000000002L47.1554000000001 8.879099999999994L49.290500000000065 7.222950000000026L49.66090000000008 6.3896600000000205L49.17380000000003 5.339370000000002L48.15300000000002 4.600899999999996L47.3506000000001 4.958430000000021L45.8836 7.1074199999999905L44.1314000000001 7.018100000000004L43.99930000000006 6.3482600000000105L43.6563000000001 6.3746200000000215L42.7731 6.375150000000019L42.1314000000001 5.767410000000012L41.6024000000001 4.203940000000017L40.15750000000003 3.325630000000018L40.12060000000008 3.079890000000006L38.33260000000007 2.662450000000007L37.588300000000004 2.0969900000000052L36.123800000000074 0.8558500000000038L35.04200000000003 0.8747700000000123L32.48320000000001 0.589100000000002L31.905700000000024 1.1964000000000112L30.654800000000023 1.5333400000000097L29.7804000000001 2.4253500000000088L26.787000000000035 3.616500000000002L26.590900000000033 3.0802900000000193L25.29200000000003 4.290760000000006L24.020200000000045 4.605160000000012L24.192100000000096 4.19568000000001L23.114100000000008 3.4929100000000233L22.67820000000006 3.4573500000000195L22.257000000000062 1.8488100000000145L22.105000000000018 1.8885099999999966L20.940500000000043 0.7757799999999975L20.973500000000058 0L19.857200000000034 0.7792400000000157L18.933400000000006 0.8278700000000185L16.254600000000096 0.9525800000000118L16.5390000000001 0.37310999999999694L15.0381000000001 0.3848300000000222L14.204200000000014 5.072010000000006L13.794200000000046 8.12787000000003L13.486899999999991 11.425290000000018L14.487900000000081 14.047450000000026L15.747800000000097 14.640430000000038L18.065000000000055 14.584330000000023L18.310699999999997 16.352720000000033L20.173000000000002 19.515539999999987L20.833500000000072 20.142290000000003L22.094700000000103 19.803020000000004L23.94990000000007 20.25081L24.675500000000056 21.37527L24.93990000000008 23.102469999999983L25.848800000000097 24.339120000000037L25.100000000000023 25.348310000000026L24.33190000000002 25.053789999999992L21.06479999999999 23.533830000000023L19.68730000000005 23.367079999999987L18.408100000000104 23.92162000000002L17.982600000000048 23.734829999999988L16.535600000000045 22.61491000000001L15.272199999999998 20.62817000000001L15.634500000000003 20.338880000000017L15.460300000000075 19.91739000000001L14.114100000000008 20.208169999999996L10.697300000000041 22.540819999999997L8.788600000000088 25.71422000000001L7.5090000000000146 30.170770000000005L6.294200000000046 34.029229999999984L3.540300000000002 36.797860000000014z">
      <title id="t442">Troisième circonscription de la Somme</title>
      <desc id="d442">Cantons de : Ault, Crécy-en-Ponthieu, Friville-Escarbotin, Gamaches, Hallencourt, Molliens-Dreuil, Moyenneville, Nouvion, Oisemont, Rue, Saint-Valéry-sur-Somme</desc>
    </path><path class="circo" id="id-080-04" d="M83.19490000000008 79.58721000000003L81.96850000000006 78.57435000000004L81.14960000000008 78.79533000000004L79.60430000000008 78.33203000000003L78.29910000000007 78.75966L76.90420000000006 76.81949000000003L76.50229999999999 76.84924999999998L75.0752 78.51828L73.00440000000003 78.89983000000001L72.63300000000004 78.17025999999998L72.4493 75.88204000000002L72.8796000000001 75.98198000000002L73.64460000000008 74.92746L74.08690000000001 74.90309000000002L74.40820000000008 73.18306000000001L73.6463 72.74399L73.29430000000002 71.96852000000001L72.4099 71.46454L72.20280000000002 70.68167L70.14750000000004 69.75952000000001L68.38020000000006 70.03221000000002L66.85700000000008 70.82490999999999L66.18500000000006 71.91411L64.3655 71.55268999999998L63.168100000000095 72.05364000000003L62.43810000000008 71.58589L61.38430000000005 72.35428999999999L60.137800000000084 72.85741000000002L59.14490000000001 74.36141000000003L59.38690000000008 75.68847L58.38589999999999 76.43860000000001L57.7654 75.84728000000001L56.9217000000001 76.02899000000002L58.23580000000004 74.91640000000001L57.88960000000009 73.28871000000004L57.209100000000035 72.83397000000002L57.330600000000004 72.43018000000001L56.87450000000001 71.80342999999999L56.13830000000007 72.23032L55.47930000000008 71.71870999999999L55.263700000000085 70.50547L54.836900000000014 70.35682000000003L53.588100000000054 71.62384000000003L52.7586 70.81978000000004L51.12049999999999 71.14381000000003L50.393800000000056 70.18707L49.57860000000005 70.33519999999999L51.238000000000056 68.89960000000002L51.62790000000007 67.61646999999999L50.84990000000005 67.19297L51.0947000000001 66.39019000000002L50.522800000000075 65.19731000000002L49.26870000000008 65.34886L48.20190000000002 64.65797000000003L48.93790000000001 62.76125999999999L48.778099999999995 60.32811000000004L48.47390000000007 60.04048L47.81910000000005 61.12227999999999L47.494500000000016 62.75809000000004L46.90370000000007 63.29707000000002L45.43940000000009 63.403670000000034L45.485900000000015 63.260789999999986L45.89830000000006 61.512400000000014L47.064700000000016 60.855020000000025L46.115600000000086 59.32393000000002L45.92840000000001 58.52359000000001L44.677400000000034 59.57978000000003L43.225400000000036 62.040400000000034L43.386400000000094 62.40091000000001L39.835500000000025 64.94341000000003L39.43430000000001 64.82483000000002L39.16759999999999 64.04061000000002L38.046800000000076 64.74107000000004L37.698900000000094 64.47131000000002L36.78600000000006 63.48705000000001L36.7038 63.52386000000001L35.957500000000095 63.963040000000035L35.6563000000001 65.22145L34.864400000000046 65.28581000000003L35.38340000000005 65.84541000000002L34.07140000000004 67.50295L33.786699999999996 67.50493L32.40320000000008 68.39840000000004L32.51460000000009 68.80060000000003L29.45500000000004 69.71985000000001L30.103500000000054 73.20440000000002L30.99890000000005 74.51208000000003L31.706999999999994 76.01648L32.26220000000001 77.56342999999998L33.48890000000006 78.09537L34.10500000000002 79.27084000000002L34.43790000000001 80.52384999999998L35.06700000000001 80.79910999999998L34.921100000000024 81.12290000000002L35.7192 81.35774000000004L36.54230000000007 81.05804L37.46490000000006 83.00403L38.83090000000004 82.84658999999999L39.182500000000005 83.67806999999999L38.986000000000104 84.09929L37.47360000000003 85.17347000000001L37.622100000000046 85.56830000000002L38.4593000000001 85.61839000000003L39.09280000000001 86.15833000000003L38.9529 86.98373000000004L39.8900000000001 87.92324000000002L41.12130000000002 87.63252L42.61520000000007 88.41883000000001L43.78100000000006 88.16505999999998L45.561500000000024 86.34619000000004L47.037000000000035 85.52503999999999L48.39930000000004 88.03324000000003L50.30150000000003 85.51702L50.82980000000009 86.64657L52.12530000000004 86.81771000000003L52.8818 86.37932L53.92220000000009 87.06076000000002L55.146600000000035 86.73016999999999L55.17640000000006 86.75344000000001L55.61790000000008 86.74200000000002L55.95170000000007 87.56115L57.729400000000055 88.78205000000003L57.74300000000005 89.63326L56.8669000000001 89.71458999999999L57.05650000000003 89.92007999999998L58.367500000000064 90.17365000000001L59.80410000000006 89.18389000000002L60.18270000000007 89.43682999999999L60.80600000000004 89.06720000000001L62.15750000000003 88.94670000000002L63.270399999999995 89.70999L64.4729000000001 89.3141L65.2392000000001 88.31040999999999L65.9516000000001 87.86344000000003L68.89100000000008 87.62817999999999L69.05010000000004 87.75764000000004L70.18630000000007 88.31763999999998L72.24490000000003 87.84964000000002L72.48650000000009 87.86502000000002L73.73650000000009 87.92257999999998L74.13220000000001 88.54945000000004L74.85000000000002 88.74223L76.88800000000003 89.50146999999998L77.42650000000003 90.20623L78.7079 90.40606000000002L79.46890000000008 89.92363L79.54630000000009 89.47782000000001L80.9724 90.63556L81.22160000000008 91.85509000000002L82.4973 92.98693000000003L82.90340000000003 92.85613000000001L83.50310000000002 92.50785000000002L84.50980000000004 93.91334L85.7854000000001 93.92818L86.91270000000009 93.32481000000001L87.77920000000006 93.23092000000003L90.60250000000008 94.31485000000004L90.90680000000009 95.08314000000001L91.22390000000007 95.86893000000003L91.5517000000001 96.66040000000004L92.30060000000003 96.28266000000002L92.96390000000008 96.63310000000001L92.4067 97.71947L93.3682 98.53971000000001L95.69590000000005 96.05401L95.71870000000001 96.50684000000001L97.04100000000005 97.72511000000003L97.4882 97.404L99.17990000000009 99.14979L100.8778000000001 98.76997L100.7881000000001 99.57105000000001L100.25670000000002 100.1893L101.31670000000008 101.64976000000001L102.1635 101.35639000000003L102.67050000000006 100.29410999999999L103.37980000000005 99.94151L103.1056000000001 99.65055000000001L104.26960000000008 100.17750000000001L105.0421 99.74342999999999L105.93360000000007 99.83106000000004L106.04360000000008 99.96262999999999L105.80320000000006 100.3315L106.34230000000002 101.49580000000003L106.0906 103.19393000000002L106.44320000000005 104.00521000000003L107.9466000000001 104.96908000000002L109.7396 103.70315L109.60970000000009 101.27861000000001L110.0268000000001 101.26393000000002L110.01150000000007 100.95400000000001L111.1753 98.93817000000001L111.2876 97.90135000000004L112.0834000000001 97.82274000000001L112.40090000000009 98.13164L113.27280000000007 97.99162999999999L113.96250000000009 98.50441000000001L114.37120000000004 98.02312L115.06370000000004 95.92025000000001L114.52800000000002 94.74837000000002L113.68990000000008 94.27586000000002L113.60130000000004 92.20183000000003L112.94680000000005 92.16059000000001L112.49830000000009 91.49533000000002L112.71300000000008 90.36966000000001L111.98770000000002 90.02413999999999L111.62120000000004 89.33013L111.98230000000001 88.29910999999998L113.08840000000009 88.39307000000002L114.93110000000001 85.22817000000003L113.09720000000004 84.07089000000002L112.4679000000001 83.71055000000001L111.8288 83.30285000000003L111.12830000000008 83.76184L109.89980000000003 83.30824000000001L109.11900000000003 83.70030000000003L108.7691000000001 83.43713000000002L109.01840000000004 82.20587L108.50740000000008 81.51535000000001L108.74160000000006 81.15382L107.39520000000005 80.32634999999999L107.92140000000006 78.55276000000003L107.49900000000002 78.51564000000002L107.71890000000008 75.97171000000003L106.5086 75.48621000000003L105.6286 74.51312999999999L105.20190000000002 72.42873000000003L105.53340000000003 71.62923999999998L104.8959000000001 71.61462L105.48180000000002 68.98804999999999L105.19100000000003 68.19603999999998L104.26730000000009 67.72327000000001L104.697 64.77233000000001L103.60580000000004 63.49312000000003L103.45850000000007 61.51201000000003L104.0865 61.295439999999985L102.87070000000006 60.52623L101.54060000000004 59.45661000000001L100.72580000000005 59.45740000000001L100.52500000000009 59.29014000000001L101.21050000000002 58.77762000000001L101.3836 57.52534000000003L101.91830000000004 56.884180000000015L99.80200000000002 57.32526999999999L98.4783000000001 57.12889999999999L97.6318 56.62849L99.56569999999999 55.09018000000003L101.89110000000005 53.76938999999999L102.3365 53.83942000000002L101.90740000000005 51.056790000000035L100.7958000000001 50.020219999999995L100.81550000000004 49.49637999999999L101.78030000000001 48.29860000000002L101.79280000000006 47.095050000000015L100.59070000000008 46.981690000000015L100.8315 46.584730000000036L99.7124 43.54615000000001L99.25610000000006 43.145790000000034L96.5526000000001 44.79271L95.31970000000001 45.30080000000004L94.95130000000006 44.20015999999998L94.34140000000002 43.73579000000001L93.17680000000007 45.26825000000002L91.04630000000009 45.48840999999999L89.83730000000003 44.28591L90.0847 46.24383L89.88480000000004 46.626660000000015L88.27300000000002 47.06251000000003L87.58800000000008 46.08746000000002L87.4665 45.198260000000005L86.19910000000004 44.668330000000026L85.6092000000001 43.96208999999999L85.94670000000008 43.29495000000003L85.2052000000001 42.16417999999999L85.26710000000003 40.814220000000034L84.46010000000001 39.84297000000004L84.70260000000007 39.45920000000001L87.77970000000005 38.86218000000002L87.7989 38.40404000000001L89.14740000000006 37.209209999999985L89.24850000000004 36.91696000000002L88.41410000000008 36.871910000000014L87.96070000000009 35.265210000000025L86.50570000000005 34.48939999999999L86.293 34.00060000000002L84.64160000000004 34.12425999999999L85.00990000000002 32.80812000000003L85.5471 30.12342000000001L86.04020000000003 29.365549999999985L85.85860000000002 27.994560000000035L86.62750000000005 27.867200000000025L87.00530000000003 26.758489999999995L87.96260000000007 26.841819999999984L87.98950000000002 25.655830000000037L88.50030000000004 25.453030000000012L90.15530000000001 24.672300000000007L91.04740000000004 24.937780000000032L93.00810000000001 23.592780000000005L93.98430000000008 23.235900000000015L94.8614 22.80811L94.80730000000005 22.14551L94.28660000000002 21.440470000000005L93.9701 21.05014L93.14670000000001 21.000730000000033L91.79360000000008 19.489109999999982L91.15330000000006 18.072519999999997L89.86030000000005 18.46463L88.2066000000001 18.327510000000018L87.32370000000003 17.529960000000017L85.83280000000002 18.79653000000002L85.44069999999999 18.710170000000005L85.2247000000001 18.62353999999999L83.99220000000003 21.021450000000016L83.47460000000001 21.146029999999996L81.34310000000005 17.437999999999988L81.02200000000005 16.894190000000037L79.48250000000007 17.513620000000003L79.60860000000002 17.91586000000001L79.9960000000001 17.723979999999983L80.88800000000003 19.20055000000002L80.53360000000009 20.346450000000004L80.19770000000005 19.595380000000034L79.79040000000009 19.542779999999993L78.37120000000004 20.36518000000001L77.43550000000005 19.618499999999983L75.62210000000005 18.413350000000037L74.26880000000006 20.135640000000024L72.34570000000008 20.674260000000004L71.66050000000007 20.91002000000003L71.80290000000002 19.78017L69.7192 20.07056L69.68370000000004 20.437170000000037L68.68470000000002 20.800450000000012L67.9574 20.75675000000001L67.89930000000004 21.11748L67.45720000000006 21.038720000000012L65.4565 23.356719999999996L64.76859999999999 21.75920000000002L64.26070000000004 21.09689000000003L63.09090000000003 20.719690000000014L62.46440000000007 21.70595000000003L60.941100000000006 21.205669999999998L60.012500000000045 21.95096000000001L59.58210000000008 22.884979999999985L60.30160000000001 24.33832000000001L60.70320000000004 24.42912000000001L61.52070000000003 24.178890000000024L60.7736000000001 26.527199999999993L61.45870000000002 27.627589999999998L61.72070000000008 29.565440000000024L59.95820000000003 30.942330000000027L59.5068 30.932119999999998L59.3297 31.21881000000002L59.78600000000006 32.37923999999998L60.95600000000002 32.20264000000003L62.78360000000009 30.93742000000003L64.04410000000007 31.292669999999987L64.4624 32.07881000000003L64.1785000000001 32.830790000000036L64.2944 33.65345000000002L65.51750000000004 33.46509000000003L65.04830000000004 34.207100000000025L65.38830000000007 35.02467999999999L66.6608 33.91007000000002L66.9951000000001 35.11108999999999L67.83190000000002 35.232079999999996L68.9642 36.388990000000035L69.56420000000003 35.16541999999998L69.53150000000005 34.27893L70.84710000000007 34.19542999999999L71.56910000000005 35.31542999999999L72.375 35.676530000000014L73.64359999999999 35.54043999999999L73.3868 35.87263999999999L73.73440000000005 36.10611L76.43630000000007 36.454440000000034L76.89570000000003 39.09978000000001L77.77420000000006 39.31193999999999L78.55990000000008 39.09791999999999L79.05690000000004 39.77041000000003L79.3243 39.55045000000001L80.14940000000001 39.23036000000002L81.15250000000003 37.76334000000003L81.97810000000004 39.615729999999985L80.40710000000001 41.07994000000002L80.50440000000003 41.917430000000024L79.2831000000001 42.323950000000025L78.16750000000002 44.07418000000001L78.67640000000006 45.209370000000035L78.0507 45.345650000000035L75.86920000000009 45.75526000000002L74.58680000000004 45.36801000000003L73.50760000000002 45.28557999999998L72.78510000000006 45.21055999999999L72.31140000000005 45.72973000000002L71.67790000000002 47.47545000000002L71.84170000000006 49.324490000000026L71.2233 50.01955000000004L70.86070000000007 50.131140000000016L70.60410000000002 51.234590000000026L69.85430000000008 51.674350000000004L68.97620000000006 51.60377L67.5879000000001 50.51744000000002L68.5793000000001 51.91887000000003L68.51210000000003 52.761270000000025L69.05650000000003 53.89399000000003L69.7378 53.85145L69.9873 53.48094000000003L71.71670000000006 53.11715000000004L72.10980000000006 54.21361000000002L73.15430000000003 54.77298999999999L73.75530000000003 54.13947999999999L75.91060000000004 53.884209999999996L76.20770000000005 55.042100000000005L78.51780000000008 53.57580999999999L78.56479999999999 52.19233000000003L78.8614 51.31587999999999L79.58950000000004 50.75976000000003L79.53700000000003 50.300760000000025L80.4126 50.073500000000024L80.9095000000001 50.71521000000001L80.18830000000003 50.987390000000005L79.98520000000008 52.30110000000002L80.34270000000004 52.566340000000025L79.70220000000006 54.20753000000002L81.04100000000005 55.923839999999984L80.69690000000003 56.64341999999999L82.7858 56.298429999999996L84.9249000000001 54.17727000000002L85.68510000000003 54.51787999999999L85.85390000000007 54.92479000000003L86.28480000000002 56.19594000000001L86.20400000000006 57.52890000000002L85.33760000000007 58.53072000000003L85.47450000000003 58.959029999999984L85.67900000000009 58.94675000000001L85.86440000000005 59.67232000000001L84.90120000000002 63.057600000000036L85.21070000000009 63.78877L87.1327 63.832040000000006L87.70140000000004 63.708169999999996L89.50430000000006 63.78732000000002L90.38200000000006 64.06080000000003L91.1671 63.60604999999998L91.47670000000005 65.83051L93.24150000000009 65.78303L93.93130000000008 65.38394L94.24900000000002 67.00612999999998L95.01190000000008 67.34829000000002L95.05050000000006 68.21384L94.58120000000008 68.69896L93.70950000000005 68.86795999999998L92.87350000000004 69.76400999999998L92.10290000000009 70.36486000000002L91.62260000000003 70.91637000000003L91.18430000000001 72.23809L91.2256000000001 73.60248000000001L90.832 74.03477000000004L90.8959000000001 75.06612999999999L89.23520000000008 76.44914L88.89650000000006 77.24183L88.56770000000006 76.80421999999999L88.24720000000002 77.48786999999999L87.12080000000003 77.64768000000004L86.7962 78.85403000000002L86.1812000000001 79.39323000000002L84.57130000000006 79.33361000000002L84.26840000000004 78.61948999999998L83.19490000000008 79.58721000000003z">
      <title id="t443">Quatrième circonscription de la Somme</title>
      <desc id="d443">Cantons de : Ailly-sur-Noye, Bernaville, Conty, Corbie, Doullens, Hornoy-le-Bourg, Montdidier, Moreuil, Poix-de-Picardie, Villers-Bocage</desc>
    </path><path class="circo" id="id-080-05" d="M92.62670000000003 30.891410000000008L91.40680000000009 31.21881000000002L90.97720000000004 32.11725999999999L90.64890000000003 33.039980000000014L89.24850000000004 36.91696000000002L89.14740000000006 37.209209999999985L87.7989 38.40404000000001L87.77970000000005 38.86218000000002L84.70260000000007 39.45920000000001L84.46010000000001 39.84297000000004L85.26710000000003 40.814220000000034L85.2052000000001 42.16417999999999L85.94670000000008 43.29495000000003L85.6092000000001 43.96208999999999L86.19910000000004 44.668330000000026L87.4665 45.198260000000005L87.58800000000008 46.08746000000002L88.27300000000002 47.06251000000003L89.88480000000004 46.626660000000015L90.0847 46.24383L89.83730000000003 44.28591L91.04630000000009 45.48840999999999L93.17680000000007 45.26825000000002L94.34140000000002 43.73579000000001L94.95130000000006 44.20015999999998L95.31970000000001 45.30080000000004L96.5526000000001 44.79271L99.25610000000006 43.145790000000034L99.7124 43.54615000000001L100.8315 46.584730000000036L100.59070000000008 46.981690000000015L101.79280000000006 47.095050000000015L101.78030000000001 48.29860000000002L100.81550000000004 49.49637999999999L100.7958000000001 50.020219999999995L101.90740000000005 51.056790000000035L102.3365 53.83942000000002L101.89110000000005 53.76938999999999L99.56569999999999 55.09018000000003L97.6318 56.62849L98.4783000000001 57.12889999999999L99.80200000000002 57.32526999999999L101.91830000000004 56.884180000000015L101.3836 57.52534000000003L101.21050000000002 58.77762000000001L100.52500000000009 59.29014000000001L100.72580000000005 59.45740000000001L101.54060000000004 59.45661000000001L102.87070000000006 60.52623L104.0865 61.295439999999985L103.45850000000007 61.51201000000003L103.60580000000004 63.49312000000003L104.697 64.77233000000001L104.26730000000009 67.72327000000001L105.19100000000003 68.19603999999998L105.48180000000002 68.98804999999999L104.8959000000001 71.61462L105.53340000000003 71.62923999999998L105.20190000000002 72.42873000000003L105.6286 74.51312999999999L106.5086 75.48621000000003L107.71890000000008 75.97171000000003L107.49900000000002 78.51564000000002L107.92140000000006 78.55276000000003L107.39520000000005 80.32634999999999L108.74160000000006 81.15382L108.50740000000008 81.51535000000001L109.01840000000004 82.20587L108.7691000000001 83.43713000000002L109.11900000000003 83.70030000000003L109.89980000000003 83.30824000000001L111.12830000000008 83.76184L111.8288 83.30285000000003L112.4679000000001 83.71055000000001L113.09720000000004 84.07089000000002L114.93110000000001 85.22817000000003L113.08840000000009 88.39307000000002L111.98230000000001 88.29910999999998L111.62120000000004 89.33013L111.98770000000002 90.02413999999999L112.71300000000008 90.36966000000001L112.49830000000009 91.49533000000002L112.94680000000005 92.16059000000001L113.60130000000004 92.20183000000003L113.68990000000008 94.27586000000002L114.52800000000002 94.74837000000002L115.06370000000004 95.92025000000001L114.37120000000004 98.02312L115.99830000000009 97.96105L117.12060000000008 98.51634999999999L117.30180000000007 98.94145000000003L118.68770000000006 99.31575000000004L119.5548 99.57512000000003L120.3012 99.05914000000001L120.61070000000007 98.72471000000002L120.41680000000008 97.37853999999999L119.90440000000001 95.73701L120.19870000000003 94.03151000000003L120.92810000000009 93.55658L120.76490000000001 93.21359000000001L124.09750000000008 93.29211000000004L124.41330000000005 93.58533L124.99250000000006 93.08266000000003L124.60790000000009 91.98590999999999L124.7618 91.79914000000002L125.6653 91.01495L125.85660000000007 90.66394000000003L125.55360000000007 90.40487000000002L125.8827 90.12438000000003L127.14850000000001 90.27100000000002L127.3651000000001 91.08523000000002L128.2763 91.98919000000001L128.5123000000001 91.66424L128.24470000000008 90.50078000000002L128.10350000000005 89.66046L126.3555 87.81060000000002L127.50620000000004 87.11544000000004L127.6735000000001 86.34277000000003L127.85130000000004 86.32003000000003L128.57370000000003 88.31146000000001L129.8121000000001 87.97212999999999L130.36900000000003 86.88843000000003L132.1852 91.20937000000004L132.49930000000006 90.92576000000003L133.18110000000001 91.41165000000001L133.75850000000003 92.53359L133.99530000000004 90.98855000000003L133.38760000000002 90.38806L133.50210000000004 89.08573000000001L135.15740000000005 88.58783L135.8117000000001 87.52368999999999L136.2333000000001 87.62279000000001L137.08000000000004 87.13253000000003L138.1023 87.90010999999998L138.4366 89.09505999999999L138.8687000000001 89.12121000000002L139.17340000000002 89.91456L140.13490000000002 90.75774000000001L140.57530000000008 90.36126000000002L141.17180000000008 88.79729000000003L142.43150000000003 88.92554999999999L142.62330000000009 87.59243000000004L142.18600000000004 86.32844L144.81130000000007 86.49605000000003L144.4611000000001 89.23421000000002L144.87560000000008 89.18743L145.59730000000002 88.18819000000002L145.99750000000006 87.36675000000002L147.81470000000002 87.37149L147.96310000000005 87.38476000000003L147.38970000000006 84.78874000000002L146.2862 83.50763L145.9548000000001 81.81833L145.77710000000002 80.60766999999998L146.26780000000008 79.46732000000003L143.99930000000006 79.40573L143.28280000000007 78.86943000000002L143.418 78.07141000000001L142.9421000000001 77.43350000000004L145.0335 76.06927999999999L145.05060000000003 74.39157L144.55460000000005 73.67756000000003L144.95450000000005 72.65782999999999L144.75060000000008 72.44809000000004L144.0616 72.08868000000001L142.8905000000001 72.33506L142.74720000000002 71.34068000000002L142.57990000000007 70.92743999999999L143.9905 69.85824000000002L144.3271000000001 69.75438000000003L145.01480000000004 69.28977000000003L144.9031 68.88931000000002L144.48400000000004 66.36250000000001L143.75600000000009 65.30850000000004L144.01390000000004 64.96753999999999L144.7505000000001 64.63765000000001L144.8008000000001 66.20992000000001L145.1952 66.32531L147.8556000000001 64.03956L147.74720000000002 63.08426000000003L148.1508 61.876900000000035L147.7269 59.95679000000001L148.2410000000001 59.421490000000006L149.44900000000007 57.06551000000002L151.74720000000002 55.52280999999999L151.8863 55.16720000000004L151.4665 55.051210000000026L151.6391000000001 53.432709999999986L152.21450000000004 52.81916000000001L154.11040000000003 51.55921999999998L154.96080000000006 50.508050000000026L154.09390000000008 50.05948000000001L152.8238 50.353380000000016L151.769 49.639700000000005L150.9624 49.67963000000003L152.29870000000005 47.26872000000003L152.4095000000001 47.002850000000024L151.92380000000003 45.81360999999998L150.25480000000005 46.10743000000002L150.38800000000003 45.24616000000003L148.23340000000007 45.35055L147.44460000000004 44.15252000000004L147.3343000000001 43.400030000000015L145.8701000000001 42.539710000000014L145.4008 41.47858000000002L144.06090000000006 42.59597000000002L142.96000000000004 42.05536999999998L140.31400000000008 40.983690000000024L139.84670000000006 41.42470000000003L138.7464 40.909550000000024L138.30990000000008 41.36365999999998L137.2061 41.91889000000003L135.3094000000001 43.116539999999986L135.1088000000001 42.41171000000003L134.4814 41.955420000000004L133.38440000000003 41.53392000000002L132.63060000000007 41.911339999999996L132.19240000000002 42.603650000000016L131.4148 42.70661999999999L130.94360000000006 42.160210000000006L130.67150000000004 43.88891000000001L128.9017 43.75313L127.7577 44.46190999999999L127.1672000000001 45.017920000000004L127.40700000000004 45.34552000000002L126.77970000000005 45.80157000000003L125.52070000000003 45.46989000000002L125.43950000000007 45.140840000000026L125.40120000000002 44.30775L126.67470000000003 43.96566999999999L127.20510000000002 42.73442L126.2306000000001 40.6601L125.5485000000001 40.518560000000036L125.43880000000001 38.26722000000001L123.95040000000006 39.06826000000001L123.38350000000003 40.2303L122.6676 39.862040000000036L121.6223 40.68142L121.34030000000007 40.32418000000001L120.36340000000007 41.80597L120.2618 41.96667000000002L119.10640000000001 42.192110000000014L118.6662 42.92687000000001L117.5 43.42239999999998L116.6649000000001 43.25511L115.82720000000006 42.23777999999999L117.6468000000001 40.57085999999998L117.36450000000002 39.374180000000024L118.55770000000007 38.10377L119.18450000000007 36.52917000000002L118.87049999999999 35.42687999999998L119.10480000000007 33.87295L118.8805000000001 33.500879999999995L117.6839 33.93419L116.43900000000008 33.654650000000004L114.77240000000006 31.923159999999996L113.17180000000008 31.619259999999997L112.83410000000003 31.847980000000007L113.37750000000005 34.00085999999999L112.13080000000002 34.564940000000036L112.02210000000002 35.010500000000036L113.84280000000001 36.98863L112.55630000000008 37.870240000000024L111.51840000000004 36.40237000000002L110.73130000000003 36.00448L109.8551 36.19502L108.53280000000007 35.31396999999998L107.7695 36.092060000000004L106.76930000000004 35.34935999999999L106.33300000000008 34.67415L106.34000000000003 34.38722000000001L105.15700000000004 33.989329999999995L103.12480000000005 34.482770000000016L102.78890000000001 33.78944999999999L101.66000000000008 33.584659999999985L101.12310000000002 32.647040000000004L101.14760000000001 32.35524000000004L102.59190000000001 30.398079999999993L102.08330000000001 30.338930000000005L101.72480000000007 30.144240000000025L101.0394 30.583880000000022L100.02280000000007 29.759349999999984L99.59090000000003 29.82262000000003L99.14020000000005 30.570750000000032L99.02640000000008 31.830210000000022L99.31550000000004 32.15717000000001L97.97610000000009 33.35322000000002L96.49850000000004 29.939729999999997L94.4701 30.358690000000024L93.18560000000002 30.464789999999994L92.62670000000003 30.891410000000008z">
      <title id="t444">Cinquième circonscription de la Somme</title>
      <desc id="d444">Cantons de : Acheux-en-Amiénois, Albert, Bray-sur-Somme, Chaulnes, Combles, Ham, Nesle, Péronne, Roisel, Rosières-en-Santerre, Roye</desc>
    </path></svg>