<svg xmlns="http://www.w3.org/2000/svg" version="1.1" xmlns:xlink="http://www.w3.org/1999/xlink" xmlns:svgjs="http://svgjs.dev/svgjs" viewBox="787.35003 1023.2016 119.0199 96.31689999999992"><path class="circo" id="id-081-01" d="M 869.27663,1053.4244 870.07693,1053.4034 872.51903,1054.7548 872.56083,1055.5565 873.35653,1055.6985 873.93123,1056.2581 873.84583,1057.827 873.69023,1058.5594 873.77523,1059.7406 875.83773,1060.8977 876.15213,1061.5552 874.80803,1062.7148 874.76153,1063.0843 874.82753,1064.5278 874.60783,1065.1167 877.04623,1068.3802 877.52653,1068.3173 877.83293,1068.5203 877.76733,1068.9267 878.63223,1069.7311 879.01923,1070.8897 879.91763,1071.7321 880.33793,1072.8585 882.67893,1074.923 882.94923,1075.6695 884.80193,1077.1823 885.96383,1077.2243 887.52993,1077.3645 889.80123,1078.8949 890.50553,1078.4797 893.28253,1077.9537 893.93283,1076.1193 896.08923,1075.0559 896.88303,1075.1006 897.89443,1076.2887 899.80893,1076.5095 899.83333,1076.5201 900.84383,1077.6946 903.57683,1077.3285 905.18873,1078.1325 904.98233,1078.482 905.54013,1081.649 906.36993,1082.9273 905.04773,1083.7419 904.89293,1086.885 903.99193,1087.6578 902.01113,1087.3401 901.62783,1087.4896 901.06713,1088.5889 898.68083,1088.8215 897.27133,1089.653 896.10923,1089.4326 894.99053,1090.5798 894.44333,1091.1539 893.29333,1091.0154 892.09583,1091.9876 890.98963,1092.3882 890.32703,1091.9297 889.61913,1090.5036 888.28193,1089.0414 885.27543,1088.0664 885.05403,1087.7291 883.96763,1088.1849 882.41403,1088.1746 882.08673,1087.0671 881.72153,1086.9228 880.78683,1090.9742 880.08313,1092.9129 879.29203,1093.8778 879.21303,1094.287 879.68453,1094.9458 880.08003,1094.9165 880.44203,1096.0531 879.26943,1098.1109 880.52723,1100.1164 884.31663,1104.1989 882.85733,1103.7928 882.07973,1103.5673 879.99423,1104.815 878.79303,1104.98 878.55833,1105.3175 879.30053,1107.6005 879.20883,1108.8245 878.86023,1109.0402 878.60813,1109.2427 878.11403,1108.9111 877.68683,1106.0726 878.03393,1104.4703 877.76023,1104.1574 873.34523,1103.1911 872.38343,1102.4236 871.26253,1100.8077 870.08383,1100.777 867.97053,1100.1458 868.43803,1098.7634 867.68623,1097.5113 866.35463,1096.7484 865.35423,1097.355 865.71223,1098.0249 865.37613,1098.249 864.26843,1097.7806 862.69333,1098.0042 862.37493,1097.7574 861.40573,1096.0122 862.01253,1094.977 862.76163,1094.6768 862.34983,1093.6153 862.60123,1093.3103 861.80433,1090.7458 860.69873,1090.3336 857.30733,1091.6928 856.10293,1091.8148 855.17963,1093.4378 855.11613,1094.0297 854.71453,1095.8137 854.00273,1095.6254 852.44283,1096.2865 850.92133,1095.1048 849.67663,1096.604 850.82573,1097.6671 851.38683,1099.1375 849.47503,1098.5725 848.43513,1099.0583 847.41353,1098.4548 847.45623,1097.6353 844.73783,1096.0309 845.72453,1094.7966 846.39433,1095.4803 847.58943,1093.946 847.76323,1092.1199 849.10493,1092.345 848.63733,1090.9358 849.22223,1090.3635 850.27413,1090.1414 850.22183,1088.9222 850.05433,1087.7684 846.78743,1085.7895 846.39893,1086.4668 845.63003,1086.2778 845.13733,1085.0506 845.71373,1084.6092 845.10933,1083.714 844.11803,1083.561 844.54693,1081.4386 844.85713,1081.2472 846.65943,1079.97 846.33743,1079.7139 845.66973,1077.3438 845.52253,1074.5009 845.30593,1074.0454 844.16503,1074.1797 843.44113,1075.134 841.97583,1074.591 840.52263,1073.9135 840.24143,1073.1803 839.65183,1072.7469 838.56543,1072.7503 837.92293,1072.6927 837.13293,1072.6708 836.12253,1073.2352 834.90573,1071.7085 833.88923,1071.0992 833.69853,1071.3272 832.82563,1070.1971 832.97383,1069.4989 832.68913,1069.2734 832.52783,1068.6709 831.27843,1066.2301 832.00503,1066.0125 832.68973,1064.6508 833.34943,1064.3863 833.35653,1063.2681 832.13993,1063.0342 832.16093,1062.6605 831.31093,1061.9639 831.42743,1059.1455 831.44853,1058.7852 832.20083,1057.3587 834.43183,1056.6369 838.31793,1056.3167 839.18643,1055.0682 840.45733,1054.2534 840.78863,1053.2035 840.24073,1052.7192 840.41403,1052.2349 840.86453,1052.1883 841.91813,1054.0561 842.65013,1053.7946 843.45283,1052.6558 845.42993,1052.4488 846.89503,1053.0497 847.81023,1054.4199 848.79823,1055.1244 849.88843,1054.6531 850.44293,1053.5824 850.74803,1053.3799 850.88103,1054.4943 851.22723,1054.6196 851.93823,1053.7421 852.68873,1053.5963 852.28713,1054.5209 852.33893,1054.87 852.68963,1054.9039 853.43063,1054.787 854.95973,1054.8291 856.09423,1053.7699 856.47103,1051.8317 857.50163,1050.6584 856.71883,1049.7591 855.93453,1049.7104 853.55013,1048.4049 854.66213,1047.9615 855.11493,1046.8665 854.96823,1046.0679 853.74583,1044.437 853.89203,1044.0548 855.07963,1044.3117 856.22073,1045.3659 856.36883,1043.4039 854.33913,1042.7709 854.91733,1040.9161 855.93593,1041.3344 856.21053,1041.0574 855.98393,1040.3366 855.18673,1039.647 855.92893,1037.6708 856.56663,1037.0158 857.26193,1034.9287 859.93753,1035.7553 859.93743,1036.1654 860.82913,1037.0033 861.78353,1038.7458 861.72213,1040.3357 866.02843,1040.9904 866.26363,1042.83 866.79843,1043.3553 868.06993,1044.0215 868.96333,1045.6146 868.65423,1046.5229 868.92843,1047.4697 869.50733,1048.5188 871.33123,1049.2846 871.31703,1050.1023 871.12933,1051.297 870.73153,1051.8787 869.68133,1052.272 869.27663,1053.4244 z">
      <title id="t445">Première circonscription du Tarn</title>
      <desc id="d445">Cantons de : Alban, Albi Centre, Albi Est, Albi Sud, Anglès, Brassac, Castres-Est, Castres Sud, Lacaune, Montredon-Labessonnié, Murat-sur-Vèbre, Réalmont, Rocquecourbe, Vabre, Valence-d'Albigeois, Villefranche-d'Albigeois</desc>
    </path><path class="circo" id="id-081-02" d="M 831.31093,1061.9639 831.42743,1059.1455 831.44853,1058.7852 832.20083,1057.3587 834.43183,1056.6369 838.31793,1056.3167 839.18643,1055.0682 840.45733,1054.2534 840.78863,1053.2035 840.24073,1052.7192 840.41403,1052.2349 840.86453,1052.1883 841.91813,1054.0561 842.65013,1053.7946 843.45283,1052.6558 845.42993,1052.4488 846.89503,1053.0497 847.81023,1054.4199 848.79823,1055.1244 849.88843,1054.6531 850.44293,1053.5824 850.74803,1053.3799 850.88103,1054.4943 851.22723,1054.6196 851.93823,1053.7421 852.68873,1053.5963 852.28713,1054.5209 852.33893,1054.87 852.68963,1054.9039 853.43063,1054.787 854.95973,1054.8291 856.09423,1053.7699 856.47103,1051.8317 857.50163,1050.6584 856.71883,1049.7591 855.93453,1049.7104 853.55013,1048.4049 854.66213,1047.9615 855.11493,1046.8665 854.96823,1046.0679 853.74583,1044.437 853.89203,1044.0548 855.07963,1044.3117 856.22073,1045.3659 856.36883,1043.4039 854.33913,1042.7709 854.91733,1040.9161 855.93593,1041.3344 856.21053,1041.0574 855.98393,1040.3366 855.18673,1039.647 855.92893,1037.6708 856.56663,1037.0158 857.26193,1034.9287 856.77313,1034.3583 855.78283,1033.7645 855.11173,1032.3869 854.33713,1032.2177 852.97413,1032.918 851.55833,1032.322 852.14763,1030.8628 851.06883,1029.7445 849.10803,1029.8223 847.03413,1031.0511 845.96673,1030.5371 843.16913,1030.4063 842.87233,1030.6867 842.48053,1030.6076 842.38303,1030.2194 843.30173,1029.4507 844.41603,1029.7263 847.05103,1028.1699 845.88173,1027.1746 844.33303,1026.7506 843.83973,1027.3827 843.09153,1027.5973 842.32493,1026.6431 842.22093,1025.8408 841.46863,1025.5734 840.29643,1025.7278 840.00573,1025.4834 840.34943,1024.8107 839.82913,1024.2796 839.53673,1023.2016 836.54903,1023.764 835.61993,1024.275 836.01643,1025.297 835.41743,1025.832 835.06033,1025.7474 834.75973,1025.0232 833.27223,1025.3948 832.59533,1024.4371 831.20363,1024.8241 831.82613,1026.5524 829.49773,1026.97 829.15593,1027.1855 829.42463,1028.2947 827.17573,1029.0544 826.01783,1029.2567 825.43953,1028.9166 824.18663,1029.8148 823.06683,1029.339 821.87163,1029.4456 821.13113,1028.5108 819.97353,1027.6424 819.18513,1027.5851 817.92223,1028.4847 819.91903,1030.3412 819.57613,1030.8279 818.63093,1031.4709 817.63503,1030.2226 816.88743,1030.5509 815.37473,1029.9712 814.13173,1030.9489 813.77803,1030.873 813.33953,1029.8825 812.97883,1029.9156 812.40873,1031.3207 813.29703,1033.4372 813.03453,1034.7273 812.00583,1034.1693 810.36403,1031.9815 809.89653,1033.0288 808.79393,1034.0624 809.30003,1035.0776 807.97923,1035.4954 805.30733,1033.3743 804.19263,1033.6692 803.23023,1032.9345 803.23553,1033.3255 801.61793,1033.1933 800.46803,1033.6013 798.89163,1033.2036 798.12243,1033.4414 797.84333,1033.1425 797.34353,1034.1049 797.36783,1035.5333 798.72563,1036.4734 798.28913,1038.4767 798.53373,1039.2628 799.68793,1039.3051 800.80233,1039.8327 801.71033,1041.6957 800.47973,1044.1904 799.04713,1044.8848 798.73623,1045.6283 798.33783,1045.5809 797.20283,1045.6066 797.74733,1047.0823 797.46963,1047.7677 796.69503,1047.898 796.00573,1047.5674 795.16933,1048.9039 794.43653,1050.149 794.78353,1051.5812 791.94433,1051.6167 789.99763,1051.0374 788.79703,1051.306 788.46403,1052.036 787.35003,1051.7038 787.71513,1052.3762 787.64483,1053.1586 789.95823,1053.5433 790.94153,1054.1661 790.63103,1054.9134 790.60283,1056.4117 790.27083,1056.6057 789.07973,1056.585 788.39173,1058.779 788.66373,1059.9398 789.40123,1060.8731 789.14683,1061.6028 789.79293,1062.0622 789.05383,1062.186 789.03453,1062.4624 790.52203,1064.7833 792.10703,1065.3998 792.27183,1065.4509 791.88243,1068.51 795.02013,1070.3203 796.65943,1070.5029 796.97933,1071.235 796.42963,1072.6878 796.51133,1073.0795 797.23223,1073.3754 798.07243,1072.5516 798.81943,1072.3885 799.89953,1072.2579 799.94193,1073.0858 800.31233,1073.2704 801.13453,1073.3119 802.19903,1073.9173 803.83653,1073.9224 804.34303,1073.9132 804.33223,1073.1039 805.11743,1071.681 806.26053,1071.5092 806.86573,1072.0507 807.26943,1072.0083 807.88523,1070.0984 808.57453,1069.7252 813.58193,1073.1502 814.31533,1074.1438 814.48283,1075.3616 813.52303,1075.7019 813.66063,1076.3777 814.38733,1076.7196 816.02953,1078.9564 816.18803,1080.1598 819.26583,1080.1027 819.89413,1080.5481 820.47323,1079.5431 820.69383,1079.3992 821.21523,1078.7995 822.80443,1078.3514 823.51013,1078.5147 823.87733,1079.9726 824.37333,1081.0552 825.99653,1080.7464 826.91183,1082.069 830.13153,1083.6095 830.30653,1083.2614 831.07573,1083.1452 830.95633,1081.6263 828.89983,1080.1476 829.64443,1080.0644 830.41533,1079.2675 830.25703,1078.1356 830.57913,1077.4573 831.16223,1074.7868 831.86073,1074.5888 832.30813,1073.949 831.44443,1073.2316 831.69503,1072.4604 833.57853,1071.7175 833.69853,1071.3272 832.82563,1070.1971 832.97383,1069.4989 832.68913,1069.2734 832.52783,1068.6709 831.27843,1066.2301 832.00503,1066.0125 832.68973,1064.6508 833.34943,1064.3863 833.35653,1063.2681 832.13993,1063.0342 832.16093,1062.6605 831.31093,1061.9639 z">
      <title id="t446">Deuxième circonscription du Tarn</title>
      <desc id="d446">Cantons de : Albi Nord-Est, Albi Nord-Ouest, Albi Ouest, Cadalen, Carmaux Nord, Carmaux Sud, Castelnau-de-Montmiral, Cordes-sur-Ciel, Gaillac, Graulhet, Lisle-sur-Tarn, Monestiés, Pampelonne, Rabastens, Salvagnac, Valderiès, Vaour</desc>
    </path><path class="circo" id="id-081-03" d="M 810.37583,1096.4693 809.74103,1096.0978 809.26883,1095.9762 807.52303,1094.9462 807.42523,1094.1397 806.78893,1093.6289 806.64163,1093.8372 805.18183,1093.6417 805.15483,1093.5365 804.81603,1093.3475 803.58773,1092.7006 803.31143,1092.0807 802.26303,1091.5843 801.19363,1091.6685 800.31313,1090.4425 800.64593,1089.3599 801.59003,1088.0958 803.41893,1087.3808 803.80413,1087.2879 803.94453,1086.5149 803.08483,1085.2216 803.11253,1083.6705 798.25623,1082.999 798.33113,1081.8751 798.04023,1081.6356 799.54693,1082.1307 800.74813,1081.1223 801.54483,1081.0848 801.90053,1080.3931 800.75953,1078.8072 800.39903,1078.953 799.60623,1078.096 797.93063,1077.3387 797.71623,1076.6414 797.10993,1076.2313 797.59223,1074.4319 797.23223,1073.3754 798.07243,1072.5516 798.81943,1072.3885 799.89953,1072.2579 799.94193,1073.0858 800.31233,1073.2704 801.13453,1073.3119 802.19903,1073.9173 803.83653,1073.9224 804.34303,1073.9132 804.33223,1073.1039 805.11743,1071.681 806.26053,1071.5092 806.86573,1072.0507 807.26943,1072.0083 807.88523,1070.0984 808.57453,1069.7252 813.58193,1073.1502 814.31533,1074.1438 814.48283,1075.3616 813.52303,1075.7019 813.66063,1076.3777 814.38733,1076.7196 816.02953,1078.9564 816.18803,1080.1598 819.26583,1080.1027 819.89413,1080.5481 820.47323,1079.5431 820.69383,1079.3992 821.21523,1078.7995 822.80443,1078.3514 823.51013,1078.5147 823.87733,1079.9726 824.37333,1081.0552 825.99653,1080.7464 826.91183,1082.069 830.13153,1083.6095 830.30653,1083.2614 831.07573,1083.1452 830.95633,1081.6263 828.89983,1080.1476 829.64443,1080.0644 830.41533,1079.2675 830.25703,1078.1356 830.57913,1077.4573 831.16223,1074.7868 831.86073,1074.5888 832.30813,1073.949 831.44443,1073.2316 831.69503,1072.4604 833.57853,1071.7175 833.69853,1071.3272 833.88923,1071.0992 834.90573,1071.7085 836.12253,1073.2352 837.13293,1072.6708 837.92293,1072.6927 838.56543,1072.7503 839.65183,1072.7469 840.24143,1073.1803 840.52263,1073.9135 841.97583,1074.591 843.44113,1075.134 844.16503,1074.1797 845.30593,1074.0454 845.52253,1074.5009 845.66973,1077.3438 846.33743,1079.7139 846.65943,1079.97 844.85713,1081.2472 844.54693,1081.4386 844.11803,1083.561 845.10933,1083.714 845.71373,1084.6092 845.13733,1085.0506 845.63003,1086.2778 846.39893,1086.4668 846.78743,1085.7895 850.05433,1087.7684 850.22183,1088.9222 850.27413,1090.1414 849.22223,1090.3635 848.63733,1090.9358 849.10493,1092.345 847.76323,1092.1199 847.58943,1093.946 846.39433,1095.4803 845.72453,1094.7966 844.73783,1096.0309 847.45623,1097.6353 847.41353,1098.4548 848.43513,1099.0583 849.47503,1098.5725 851.38683,1099.1375 850.82573,1097.6671 849.67663,1096.604 850.92133,1095.1048 852.44283,1096.2865 854.00273,1095.6254 854.71453,1095.8137 855.11613,1094.0297 855.17963,1093.4378 856.10293,1091.8148 857.30733,1091.6928 860.69873,1090.3336 861.80433,1090.7458 862.60123,1093.3103 862.34983,1093.6153 862.76163,1094.6768 862.01253,1094.977 861.40573,1096.0122 862.37493,1097.7574 862.69333,1098.0042 864.26843,1097.7806 865.37613,1098.249 865.71223,1098.0249 865.35423,1097.355 866.35463,1096.7484 867.68623,1097.5113 868.43803,1098.7634 867.97053,1100.1458 870.08383,1100.777 871.26253,1100.8077 872.38343,1102.4236 873.34523,1103.1911 877.76023,1104.1574 878.03393,1104.4703 877.68683,1106.0726 878.11403,1108.9111 878.60813,1109.2427 878.86023,1109.0402 879.20883,1108.8245 879.30053,1107.6005 878.55833,1105.3175 878.79303,1104.98 879.99423,1104.815 882.07973,1103.5673 882.85733,1103.7928 882.97543,1105.3698 882.54523,1106.4576 882.74213,1108.0104 883.63493,1109.285 883.34813,1110.0069 881.50503,1109.4418 881.21013,1109.695 881.64303,1110.7056 879.35593,1112.9757 878.60663,1112.7551 878.39633,1113.7409 878.04093,1113.8185 877.68443,1113.6571 876.09313,1114.7584 874.94653,1114.7983 874.92563,1114.8037 874.58073,1115.032 873.43873,1114.6004 870.96853,1114.7098 870.42043,1114.132 869.27283,1113.8453 868.87703,1113.1623 867.11853,1113.2118 866.76573,1113.3478 865.19833,1113.7135 863.19943,1113.4487 861.51393,1114.5343 861.26453,1114.8594 861.43623,1115.2319 860.74673,1115.4898 858.74373,1114.7936 858.07733,1114.7727 856.46703,1113.6496 853.52473,1112.7077 852.70403,1111.8754 852.32833,1112.0062 850.82493,1112.6602 849.41423,1111.2912 848.80903,1110.4488 848.67233,1111.2065 847.36813,1112.4905 847.19933,1112.8334 845.76623,1114.1754 845.83923,1115.4056 846.34723,1116.5176 845.13083,1119.5185 842.73193,1118.0917 841.33863,1115.6347 840.14493,1115.7442 838.61063,1117.0514 838.20593,1117.0685 837.65263,1117.5809 836.52773,1117.6346 836.29413,1117.9309 836.10033,1118.133 834.93803,1117.9294 834.64643,1118.2001 834.13743,1117.7093 833.04153,1117.9884 832.57283,1116.9255 832.79883,1116.6072 832.07183,1115.7136 831.36443,1113.9383 829.32973,1113.1669 828.75493,1112.0933 828.12113,1111.6893 828.49663,1109.2833 828.98653,1108.647 830.18393,1108.4014 830.95813,1107.4476 830.57433,1106.903 830.94143,1105.9761 830.46763,1104.495 830.16313,1105.5607 829.82623,1105.7599 828.97203,1104.9911 828.23923,1104.7103 827.91093,1104.9263 828.13563,1107.2799 827.92243,1107.6221 827.68823,1107.9538 825.77493,1108.2354 824.92363,1107.3716 823.11963,1106.4717 822.81643,1106.8953 820.10153,1105.1734 819.80483,1105.6034 817.45133,1103.8794 817.30913,1103.7907 816.12913,1101.8845 816.06593,1101.5013 816.68823,1101.0503 815.31343,1100.4939 814.16343,1100.0093 814.05643,1097.8567 813.18023,1096.6448 811.69413,1096.2551 810.37583,1096.4693 z">
      <title id="t447">Troisième circonscription du Tarn</title>
      <desc id="d447">Cantons de : Castres Nord, Castres Ouest, Cuq-Toulza, Dourgne, Labruguière, Lautrec, Lavaur, Mazamet Nord-Est, Mazamet Sud-Ouest, Puylaurens, Saint-Amans-Soult, Saint-Paul-Cap-de-Joux, Vielmur-sur-Agout</desc>
    </path></svg>