<svg xmlns="http://www.w3.org/2000/svg" version="1.1" xmlns:xlink="http://www.w3.org/1999/xlink" xmlns:svgjs="http://svgjs.dev/svgjs" viewBox="0 0 119.0199 96.31689999999992"><path class="circo" id="id-081-01" d="M81.92660000000001 30.22280000000012L82.7269 30.201799999999935L85.1690000000001 31.553199999999947L85.21080000000006 32.35489999999993L86.00650000000007 32.49689999999998L86.58120000000008 33.05650000000003L86.49580000000003 34.62540000000001L86.3402000000001 35.35780000000011L86.42520000000002 36.5390000000001L88.48770000000002 37.6961L88.80210000000011 38.35360000000003L87.45800000000008 39.51319999999998L87.41150000000005 39.8827L87.47750000000008 41.326200000000085L87.25780000000009 41.91510000000005L89.69620000000009 45.178600000000074L90.17650000000003 45.11569999999995L90.48290000000009 45.31869999999992L90.41730000000007 45.7251L91.2822000000001 46.529499999999985L91.66920000000005 47.68809999999996L92.56760000000008 48.53049999999996L92.98790000000008 49.656900000000064L95.32890000000009 51.72140000000002L95.5992 52.467899999999986L97.45190000000002 53.980699999999956L98.61380000000008 54.0227000000001L100.17990000000009 54.16289999999992L102.45120000000009 55.69330000000002L103.15550000000007 55.27810000000011L105.9325 54.75210000000004L106.58280000000002 52.91770000000008L108.7392000000001 51.85430000000008L109.53300000000002 51.899L110.54440000000011 53.08710000000008L112.45890000000009 53.307899999999904L112.4833000000001 53.31849999999997L113.49380000000008 54.49300000000005L116.22680000000003 54.12690000000009L117.83870000000002 54.93089999999995L117.6323000000001 55.280399999999986L118.19010000000003 58.4473999999999L119.0199 59.725700000000074L117.69770000000005 60.5403L117.54290000000003 63.683400000000006L116.64190000000008 64.45619999999997L114.66110000000003 64.13849999999991L114.27780000000007 64.28800000000012L113.71710000000007 65.38729999999998L111.33080000000007 65.61990000000003L109.92130000000009 66.45140000000004L108.75920000000008 66.23100000000011L107.64050000000009 67.37819999999999L107.0933 67.95230000000004L105.94330000000002 67.81380000000001L104.74580000000003 68.78599999999994L103.63960000000009 69.18660000000011L102.97700000000009 68.72809999999993L102.2691000000001 67.30200000000002L100.93190000000004 65.83980000000008L97.92540000000008 64.86479999999995L97.70400000000006 64.52750000000003L96.61760000000004 64.98329999999999L95.06400000000008 64.97300000000007L94.73670000000004 63.8655L94.37150000000008 63.72120000000007L93.43680000000006 67.77260000000012L92.73310000000004 69.71130000000005L91.94200000000001 70.6762L91.86300000000006 71.08540000000005L92.33450000000005 71.74419999999998L92.73000000000002 71.71490000000006L93.0920000000001 72.8515000000001L91.91940000000011 74.90929999999992L93.17720000000008 76.91480000000013L96.96660000000008 80.99730000000011L95.5073000000001 80.59119999999996L94.7297000000001 80.36569999999995L92.64420000000007 81.61340000000007L91.4430000000001 81.77840000000003L91.20830000000001 82.11590000000012L91.95050000000003 84.39890000000003L91.85880000000009 85.62289999999996L91.51020000000005 85.83859999999993L91.25810000000001 86.04110000000003L90.76400000000001 85.70950000000005L90.33680000000004 82.87099999999998L90.68390000000011 81.26869999999997L90.41020000000003 80.95580000000007L85.99520000000007 79.98950000000002L85.03340000000003 79.2220000000001L83.91250000000002 77.60610000000008L82.73380000000009 77.57540000000006L80.6205000000001 76.94420000000002L81.08800000000008 75.56180000000006L80.33620000000008 74.3096999999999L79.0046000000001 73.54679999999996L78.00420000000008 74.15340000000003L78.36220000000003 74.8232999999999L78.02610000000004 75.04740000000004L76.91840000000002 74.57900000000006L75.3433 74.8026000000001L75.0249 74.55579999999998L74.0557 72.81059999999991L74.66250000000002 71.7754000000001L75.41160000000002 71.47519999999997L74.99980000000005 70.41369999999995L75.25120000000004 70.10870000000011L74.4543000000001 67.54419999999993L73.34870000000001 67.13199999999995L69.95730000000003 68.49120000000005L68.75290000000007 68.61320000000012L67.82960000000003 70.23619999999994L67.76610000000005 70.82810000000006L67.36450000000002 72.61209999999994L66.6527000000001 72.42379999999991L65.09280000000001 73.08489999999995L63.571300000000065 71.90320000000008L62.3266000000001 73.40240000000006L63.475700000000074 74.4654999999999L64.03680000000008 75.93590000000006L62.125 75.3709L61.08510000000001 75.85669999999993L60.06350000000009 75.25319999999999L60.10620000000006 74.43369999999993L57.387800000000084 72.82929999999999L58.37450000000001 71.59499999999991L59.04430000000002 72.27869999999996L60.239400000000046 70.74439999999993L60.413200000000074 68.91829999999993L61.75490000000002 69.14340000000004L61.28730000000007 67.73419999999999L61.87220000000002 67.16189999999995L62.92410000000007 66.93979999999999L62.87180000000001 65.72059999999999L62.7043000000001 64.56679999999994L59.437400000000025 62.587900000000104L59.0489 63.265199999999936L58.280000000000086 63.076200000000085L57.78730000000007 61.849000000000046L58.36370000000011 61.407600000000116L57.75930000000005 60.51239999999996L56.76800000000003 60.35939999999994L57.19690000000003 58.236999999999966L57.50710000000004 58.045600000000036L59.309400000000096 56.76840000000004L58.98740000000009 56.51229999999998L58.31970000000001 54.142200000000116L58.172500000000014 51.29930000000002L57.95590000000004 50.84379999999999L56.815000000000055 50.97809999999993L56.0911000000001 51.93240000000003L54.62580000000003 51.38939999999991L53.1726000000001 50.71190000000013L52.89140000000009 49.9787L52.30180000000007 49.54530000000011L51.215400000000045 49.54869999999994L50.572900000000004 49.491100000000074L49.78290000000004 49.469200000000114L48.772500000000036 50.03360000000009L47.5557 48.50689999999997L46.53920000000005 47.897600000000125L46.34850000000006 48.12559999999996L45.4756000000001 46.995500000000106L45.623800000000074 46.297300000000064L45.33910000000003 46.07180000000005L45.17780000000005 45.46930000000009L43.92840000000001 43.02850000000001L44.655000000000086 42.81090000000006L45.33970000000011 41.449199999999905L45.99940000000004 41.18469999999991L46.006500000000074 40.06650000000002L44.7899000000001 39.83260000000007L44.81090000000006 39.45889999999997L43.96090000000004 38.76229999999998L44.07740000000001 35.9439000000001L44.09850000000006 35.58360000000005L44.85080000000005 34.157100000000014L47.081800000000044 33.435299999999984L50.9679000000001 33.1151000000001L51.836400000000026 31.86659999999995L53.10730000000001 31.05180000000007L53.438600000000065 30.00190000000009L52.89070000000004 29.517600000000016L53.06400000000008 29.03329999999994L53.5145 28.98670000000004L54.56810000000007 30.85450000000003L55.30010000000004 30.59299999999996L56.1028 29.454200000000014L58.079900000000066 29.247199999999907L59.54500000000007 29.848100000000045L60.4602000000001 31.218300000000113L61.44820000000004 31.92279999999994L62.538400000000024 31.45150000000001L63.0929000000001 30.380800000000022L63.398000000000025 30.178299999999922L63.53100000000006 31.29270000000008L63.877200000000016 31.418000000000006L64.58820000000003 30.540499999999952L65.33870000000002 30.394699999999943L64.9371000000001 31.3193L64.98890000000006 31.668399999999906L65.33960000000002 31.702300000000037L66.0806 31.58540000000005L67.60970000000009 31.62749999999994L68.74420000000009 30.568300000000022L69.1210000000001 28.63009999999997L70.15160000000003 27.456800000000044L69.36880000000008 26.557500000000005L68.58450000000005 26.50879999999995L66.20010000000002 25.203300000000013L67.3121000000001 24.759899999999902L67.76490000000001 23.664900000000102L67.6182 22.866300000000024L66.39580000000001 21.235399999999913L66.54200000000003 20.8531999999999L67.7296 21.11009999999999L68.87070000000006 22.164300000000026L69.01880000000006 20.202300000000037L66.98910000000001 19.5693L67.56730000000005 17.71449999999993L68.58590000000004 18.132799999999975L68.8605 17.85579999999993L68.63390000000004 17.135000000000105L67.83670000000006 16.44539999999995L68.57890000000009 14.469200000000114L69.21660000000008 13.814199999999914L69.91190000000006 11.72709999999995L72.58750000000009 12.553700000000049L72.5874 12.963800000000106L73.47910000000002 13.801700000000096L74.4335000000001 15.544199999999933L74.37210000000005 17.134100000000103L78.67840000000001 17.788799999999924L78.91360000000009 19.628399999999942L79.4484000000001 20.153699999999958L80.71990000000005 20.819900000000075L81.6133000000001 22.413000000000125L81.30420000000004 23.32129999999995L81.5784000000001 24.268100000000118L82.15730000000008 25.31720000000007L83.98120000000006 26.08299999999997L83.9670000000001 26.90070000000003L83.77930000000003 28.09540000000004L83.38150000000007 28.677099999999996L82.33130000000006 29.07039999999995L81.92660000000001 30.22280000000012z">
      <title id="t445">Première circonscription du Tarn</title>
      <desc id="d445">Cantons de : Alban, Albi Centre, Albi Est, Albi Sud, Anglès, Brassac, Castres-Est, Castres Sud, Lacaune, Montredon-Labessonnié, Murat-sur-Vèbre, Réalmont, Rocquecourbe, Vabre, Valence-d'Albigeois, Villefranche-d'Albigeois</desc>
    </path><path class="circo" id="id-081-02" d="M43.96090000000004 38.76229999999998L44.07740000000001 35.9439000000001L44.09850000000006 35.58360000000005L44.85080000000005 34.157100000000014L47.081800000000044 33.435299999999984L50.9679000000001 33.1151000000001L51.836400000000026 31.86659999999995L53.10730000000001 31.05180000000007L53.438600000000065 30.00190000000009L52.89070000000004 29.517600000000016L53.06400000000008 29.03329999999994L53.5145 28.98670000000004L54.56810000000007 30.85450000000003L55.30010000000004 30.59299999999996L56.1028 29.454200000000014L58.079900000000066 29.247199999999907L59.54500000000007 29.848100000000045L60.4602000000001 31.218300000000113L61.44820000000004 31.92279999999994L62.538400000000024 31.45150000000001L63.0929000000001 30.380800000000022L63.398000000000025 30.178299999999922L63.53100000000006 31.29270000000008L63.877200000000016 31.418000000000006L64.58820000000003 30.540499999999952L65.33870000000002 30.394699999999943L64.9371000000001 31.3193L64.98890000000006 31.668399999999906L65.33960000000002 31.702300000000037L66.0806 31.58540000000005L67.60970000000009 31.62749999999994L68.74420000000009 30.568300000000022L69.1210000000001 28.63009999999997L70.15160000000003 27.456800000000044L69.36880000000008 26.557500000000005L68.58450000000005 26.50879999999995L66.20010000000002 25.203300000000013L67.3121000000001 24.759899999999902L67.76490000000001 23.664900000000102L67.6182 22.866300000000024L66.39580000000001 21.235399999999913L66.54200000000003 20.8531999999999L67.7296 21.11009999999999L68.87070000000006 22.164300000000026L69.01880000000006 20.202300000000037L66.98910000000001 19.5693L67.56730000000005 17.71449999999993L68.58590000000004 18.132799999999975L68.8605 17.85579999999993L68.63390000000004 17.135000000000105L67.83670000000006 16.44539999999995L68.57890000000009 14.469200000000114L69.21660000000008 13.814199999999914L69.91190000000006 11.72709999999995L69.42310000000009 11.156700000000114L68.43280000000004 10.562900000000013L67.76170000000002 9.185299999999984L66.98710000000005 9.016099999999938L65.6241 9.716399999999908L64.20830000000001 9.120399999999904L64.7976000000001 7.661200000000122L63.7188000000001 6.5429000000000315L61.75800000000004 6.620700000000056L59.68410000000006 7.849499999999921L58.61670000000004 7.335500000000025L55.81910000000005 7.204700000000116L55.52230000000009 7.4850999999999885L55.1305000000001 7.406000000000063L55.033000000000015 7.017799999999966L55.95170000000007 6.249100000000112L57.06600000000003 6.524700000000053L59.70100000000002 4.968300000000113L58.5317 3.97300000000007L56.98300000000006 3.549000000000092L56.489700000000084 4.181100000000129L55.74150000000009 4.39569999999992L54.97490000000005 3.441500000000019L54.870900000000006 2.63919999999996L54.118600000000015 2.3718000000000075L52.94640000000004 2.5261999999999034L52.655700000000024 2.2818000000000893L52.99940000000004 1.6091000000000122L52.47910000000002 1.0780000000000882L52.18670000000009 0L49.19900000000007 0.5624000000000251L48.26990000000001 1.073400000000106L48.66640000000007 2.0954000000000406L48.06740000000002 2.6304000000001224L47.710300000000075 2.5457999999999856L47.40970000000004 1.8216000000001031L45.92220000000009 2.193200000000047L45.24530000000004 1.2355000000001155L43.85360000000003 1.6225000000000591L44.47610000000009 3.3508000000000493L42.1477000000001 3.7684000000000424L41.805900000000065 3.9839000000000624L42.07460000000003 5.093099999999936L39.8257000000001 5.852800000000002L38.66780000000006 6.055099999999925L38.089500000000044 5.715000000000032L36.83660000000009 6.61320000000012L35.716800000000035 6.137399999999957L34.521600000000035 6.244000000000028L33.78110000000004 5.309200000000033L32.623500000000035 4.440799999999967L31.83510000000001 4.383500000000026L30.572200000000066 5.28309999999999L32.569000000000074 7.139600000000087L32.22610000000009 7.626300000000015L31.280900000000088 8.269300000000044L30.285000000000082 7.021000000000072L29.537400000000048 7.349299999999971L28.024700000000053 6.7695999999999685L26.7817 7.747300000000109L26.427999999999997 7.671400000000062L25.98950000000002 6.680899999999951L25.62880000000007 6.7140000000000555L25.058700000000044 8.119100000000003L25.947000000000003 10.23560000000009L25.68450000000007 11.525700000000029L24.6558 10.967700000000036L23.01400000000001 8.779900000000112L22.546500000000037 9.827200000000062L21.4439000000001 10.86080000000004L21.950000000000045 11.87600000000009L20.629200000000083 12.293800000000033L17.957300000000032 10.172699999999963L16.84260000000006 10.467600000000061L15.880200000000059 9.732900000000086L15.885500000000093 10.123899999999935L14.267900000000054 9.991699999999923L13.118000000000052 10.399700000000053L11.541600000000017 10.002000000000066L10.772400000000061 10.239799999999946L10.49330000000009 9.940899999999942L9.99350000000004 10.903300000000058L10.01780000000008 12.331700000000069L11.375600000000077 13.271800000000098L10.939100000000053 15.275099999999952L11.183700000000044 16.061199999999985L12.337900000000104 16.103500000000054L13.452300000000037 16.631099999999947L14.360300000000052 18.494100000000003L13.12970000000007 20.98879999999997L11.697100000000091 21.683200000000056L11.38620000000003 22.426700000000096L10.987800000000107 22.379299999999944L9.852800000000002 22.405000000000086L10.397300000000087 23.880700000000047L10.119600000000105 24.56610000000012L9.345000000000027 24.696399999999926L8.655700000000024 24.365799999999922L7.819299999999998 25.702300000000037L7.086500000000001 26.947399999999902L7.433500000000095 28.379600000000096L4.594300000000089 28.415100000000052L2.6476000000000113 27.83579999999995L1.4470000000000027 28.104400000000055L1.1140000000000327 28.834400000000073L0 28.502200000000016L0.3651000000000977 29.17459999999994L0.2948000000000093 29.956999999999994L2.6082000000000107 30.34170000000006L3.5914999999999964 30.96449999999993L3.2810000000000628 31.711799999999926L3.252800000000093 33.210100000000125L2.9208000000000993 33.404100000000085L1.7297000000000935 33.38340000000005L1.0417000000001053 35.57740000000001L1.3137000000000398 36.73820000000012L2.051200000000108 37.67150000000004L1.7968000000000757 38.4011999999999L2.4429000000000087 38.86060000000009L1.703800000000001 38.98439999999994L1.684500000000071 39.260799999999904L3.1720000000000255 41.58170000000007L4.757000000000062 42.19819999999993L4.921800000000076 42.24930000000006L4.532400000000052 45.308400000000006L7.670100000000048 47.1187000000001L9.309400000000096 47.30129999999997L9.629300000000057 48.033399999999915L9.079600000000028 49.48619999999994L9.161300000000097 49.87790000000007L9.882200000000012 50.173799999999915L10.722400000000107 49.35000000000002L11.469400000000064 49.18690000000004L12.54950000000008 49.05630000000008L12.59190000000001 49.88420000000008L12.962300000000027 50.068800000000124L13.784500000000094 50.11029999999994L14.849000000000046 50.71570000000008L16.486500000000092 50.72079999999994L16.993000000000052 50.711599999999976L16.982200000000034 49.90230000000008L17.767400000000066 48.479400000000055L18.91050000000007 48.30759999999998L19.515700000000038 48.84910000000002L19.91940000000011 48.80669999999998L20.53520000000003 46.8968000000001L21.224500000000035 46.5236000000001L26.23190000000011 49.948600000000056L26.96530000000007 50.94220000000007L27.13280000000009 52.15999999999997L26.173000000000002 52.50030000000004L26.310600000000022 53.17610000000002L27.037300000000073 53.517999999999915L28.679500000000075 55.754800000000046L28.83800000000008 56.95819999999992L31.915800000000104 56.90109999999993L32.54410000000007 57.34649999999999L33.1232 56.34150000000011L33.3438000000001 56.19760000000008L33.86520000000007 55.597900000000095L35.45440000000008 55.14980000000003L36.16010000000006 55.31309999999996L36.52730000000008 56.77100000000007L37.02330000000006 57.85360000000003L38.64650000000006 57.54480000000001L39.56180000000006 58.867399999999975L42.78150000000005 60.40790000000004L42.956500000000005 60.05980000000011L43.725700000000074 59.94359999999995L43.60630000000003 58.424699999999916L41.549800000000005 56.946000000000026L42.29440000000011 56.86279999999999L43.06530000000009 56.06589999999994L42.90700000000004 54.93400000000008L43.22910000000002 54.25570000000005L43.812200000000075 51.5852000000001L44.51070000000004 51.38720000000001L44.95810000000006 50.747400000000084L44.094400000000064 50.030000000000086L44.34500000000003 49.25879999999995L46.228500000000054 48.51589999999999L46.34850000000006 48.12559999999996L45.4756000000001 46.995500000000106L45.623800000000074 46.297300000000064L45.33910000000003 46.07180000000005L45.17780000000005 45.46930000000009L43.92840000000001 43.02850000000001L44.655000000000086 42.81090000000006L45.33970000000011 41.449199999999905L45.99940000000004 41.18469999999991L46.006500000000074 40.06650000000002L44.7899000000001 39.83260000000007L44.81090000000006 39.45889999999997L43.96090000000004 38.76229999999998z">
      <title id="t446">Deuxième circonscription du Tarn</title>
      <desc id="d446">Cantons de : Albi Nord-Est, Albi Nord-Ouest, Albi Ouest, Cadalen, Carmaux Nord, Carmaux Sud, Castelnau-de-Montmiral, Cordes-sur-Ciel, Gaillac, Graulhet, Lisle-sur-Tarn, Monestiés, Pampelonne, Rabastens, Salvagnac, Valderiès, Vaour</desc>
    </path><path class="circo" id="id-081-03" d="M23.025800000000004 73.26769999999999L22.391000000000076 72.89620000000002L21.918800000000033 72.77460000000008L20.173000000000002 71.7446000000001L20.07520000000011 70.93809999999996L19.438900000000103 70.42729999999995L19.291600000000017 70.63559999999995L17.831800000000044 70.44009999999992L17.8048 70.33489999999995L17.466000000000008 70.1459000000001L16.237700000000018 69.49899999999991L15.961400000000026 68.8791L14.913000000000011 68.3827L13.843600000000038 68.46690000000001L12.963100000000054 67.24090000000012L13.295900000000074 66.15829999999994L14.240000000000009 64.89420000000007L16.0689000000001 64.17919999999992L16.45410000000004 64.08630000000005L16.59450000000004 63.31329999999991L15.734800000000064 62.020000000000095L15.762500000000045 60.46889999999996L10.906200000000013 59.79740000000004L10.981100000000083 58.67349999999999L10.690200000000004 58.43400000000008L12.196900000000028 58.92909999999995L13.3981 57.92070000000001L14.1948000000001 57.8832000000001L14.550500000000056 57.19150000000002L13.409500000000094 55.60559999999998L13.049000000000092 55.75139999999999L12.256200000000035 54.89440000000002L10.580600000000004 54.13710000000003L10.366200000000049 53.43979999999999L9.759900000000016 53.029699999999934L10.242200000000025 51.23030000000006L9.882200000000012 50.173799999999915L10.722400000000107 49.35000000000002L11.469400000000064 49.18690000000004L12.54950000000008 49.05630000000008L12.59190000000001 49.88420000000008L12.962300000000027 50.068800000000124L13.784500000000094 50.11029999999994L14.849000000000046 50.71570000000008L16.486500000000092 50.72079999999994L16.993000000000052 50.711599999999976L16.982200000000034 49.90230000000008L17.767400000000066 48.479400000000055L18.91050000000007 48.30759999999998L19.515700000000038 48.84910000000002L19.91940000000011 48.80669999999998L20.53520000000003 46.8968000000001L21.224500000000035 46.5236000000001L26.23190000000011 49.948600000000056L26.96530000000007 50.94220000000007L27.13280000000009 52.15999999999997L26.173000000000002 52.50030000000004L26.310600000000022 53.17610000000002L27.037300000000073 53.517999999999915L28.679500000000075 55.754800000000046L28.83800000000008 56.95819999999992L31.915800000000104 56.90109999999993L32.54410000000007 57.34649999999999L33.1232 56.34150000000011L33.3438000000001 56.19760000000008L33.86520000000007 55.597900000000095L35.45440000000008 55.14980000000003L36.16010000000006 55.31309999999996L36.52730000000008 56.77100000000007L37.02330000000006 57.85360000000003L38.64650000000006 57.54480000000001L39.56180000000006 58.867399999999975L42.78150000000005 60.40790000000004L42.956500000000005 60.05980000000011L43.725700000000074 59.94359999999995L43.60630000000003 58.424699999999916L41.549800000000005 56.946000000000026L42.29440000000011 56.86279999999999L43.06530000000009 56.06589999999994L42.90700000000004 54.93400000000008L43.22910000000002 54.25570000000005L43.812200000000075 51.5852000000001L44.51070000000004 51.38720000000001L44.95810000000006 50.747400000000084L44.094400000000064 50.030000000000086L44.34500000000003 49.25879999999995L46.228500000000054 48.51589999999999L46.34850000000006 48.12559999999996L46.53920000000005 47.897600000000125L47.5557 48.50689999999997L48.772500000000036 50.03360000000009L49.78290000000004 49.469200000000114L50.572900000000004 49.491100000000074L51.215400000000045 49.54869999999994L52.30180000000007 49.54530000000011L52.89140000000009 49.9787L53.1726000000001 50.71190000000013L54.62580000000003 51.38939999999991L56.0911000000001 51.93240000000003L56.815000000000055 50.97809999999993L57.95590000000004 50.84379999999999L58.172500000000014 51.29930000000002L58.31970000000001 54.142200000000116L58.98740000000009 56.51229999999998L59.309400000000096 56.76840000000004L57.50710000000004 58.045600000000036L57.19690000000003 58.236999999999966L56.76800000000003 60.35939999999994L57.75930000000005 60.51239999999996L58.36370000000011 61.407600000000116L57.78730000000007 61.849000000000046L58.280000000000086 63.076200000000085L59.0489 63.265199999999936L59.437400000000025 62.587900000000104L62.7043000000001 64.56679999999994L62.87180000000001 65.72059999999999L62.92410000000007 66.93979999999999L61.87220000000002 67.16189999999995L61.28730000000007 67.73419999999999L61.75490000000002 69.14340000000004L60.413200000000074 68.91829999999993L60.239400000000046 70.74439999999993L59.04430000000002 72.27869999999996L58.37450000000001 71.59499999999991L57.387800000000084 72.82929999999999L60.10620000000006 74.43369999999993L60.06350000000009 75.25319999999999L61.08510000000001 75.85669999999993L62.125 75.3709L64.03680000000008 75.93590000000006L63.475700000000074 74.4654999999999L62.3266000000001 73.40240000000006L63.571300000000065 71.90320000000008L65.09280000000001 73.08489999999995L66.6527000000001 72.42379999999991L67.36450000000002 72.61209999999994L67.76610000000005 70.82810000000006L67.82960000000003 70.23619999999994L68.75290000000007 68.61320000000012L69.95730000000003 68.49120000000005L73.34870000000001 67.13199999999995L74.4543000000001 67.54419999999993L75.25120000000004 70.10870000000011L74.99980000000005 70.41369999999995L75.41160000000002 71.47519999999997L74.66250000000002 71.7754000000001L74.0557 72.81059999999991L75.0249 74.55579999999998L75.3433 74.8026000000001L76.91840000000002 74.57900000000006L78.02610000000004 75.04740000000004L78.36220000000003 74.8232999999999L78.00420000000008 74.15340000000003L79.0046000000001 73.54679999999996L80.33620000000008 74.3096999999999L81.08800000000008 75.56180000000006L80.6205000000001 76.94420000000002L82.73380000000009 77.57540000000006L83.91250000000002 77.60610000000008L85.03340000000003 79.2220000000001L85.99520000000007 79.98950000000002L90.41020000000003 80.95580000000007L90.68390000000011 81.26869999999997L90.33680000000004 82.87099999999998L90.76400000000001 85.70950000000005L91.25810000000001 86.04110000000003L91.51020000000005 85.83859999999993L91.85880000000009 85.62289999999996L91.95050000000003 84.39890000000003L91.20830000000001 82.11590000000012L91.4430000000001 81.77840000000003L92.64420000000007 81.61340000000007L94.7297000000001 80.36569999999995L95.5073000000001 80.59119999999996L95.62540000000001 82.16819999999996L95.1952 83.25599999999997L95.39210000000003 84.8087999999999L96.2849000000001 86.0834000000001L95.99810000000002 86.8053000000001L94.15500000000009 86.24020000000007L93.8601000000001 86.49339999999995L94.293 87.50400000000002L92.0059 89.77409999999998L91.25660000000005 89.5535000000001L91.04630000000009 90.53930000000003L90.69090000000006 90.6169000000001L90.33440000000007 90.45549999999992L88.74310000000003 91.55679999999995L87.5965000000001 91.59669999999994L87.57560000000001 91.60209999999995L87.23070000000007 91.83039999999994L86.08870000000002 91.39880000000005L83.61850000000004 91.5082000000001L83.07040000000006 90.93040000000008L81.92280000000005 90.64369999999997L81.52700000000004 89.96069999999997L79.76850000000002 90.01020000000005L79.41570000000002 90.14620000000002L77.84830000000011 90.51190000000008L75.84940000000006 90.24709999999993L74.16390000000001 91.33270000000005L73.91450000000009 91.65780000000007L74.08620000000008 92.03030000000001L73.39670000000001 92.28820000000007L71.39370000000008 91.59199999999998L70.72730000000001 91.5711L69.11700000000008 90.44799999999998L66.17470000000003 89.50609999999995L65.35400000000004 88.67379999999991L64.9783000000001 88.80460000000005L63.47490000000005 89.45860000000005L62.06420000000003 88.0895999999999L61.45900000000006 87.2471999999999L61.32230000000004 88.00490000000002L60.018100000000004 89.28890000000013L59.849300000000085 89.6318L58.4162 90.9738000000001L58.489200000000096 92.20400000000006L58.99720000000002 93.31599999999992L57.7808 96.31689999999992L55.38190000000009 94.89009999999996L53.98860000000002 92.43310000000008L52.7949000000001 92.5426000000001L51.26060000000007 93.84980000000007L50.85590000000002 93.8669000000001L50.3026000000001 94.37929999999994L49.17770000000007 94.4330000000001L48.94410000000005 94.72930000000008L48.75030000000004 94.93140000000005L47.58800000000008 94.7278L47.29640000000006 94.99850000000004L46.78740000000005 94.5077L45.69150000000002 94.78679999999997L45.22280000000001 93.72390000000007L45.448800000000006 93.40559999999994L44.72180000000003 92.51200000000006L44.01440000000002 90.73670000000004L41.97970000000009 89.96529999999996L41.4049 88.89170000000001L40.77110000000005 88.48770000000002L41.146600000000035 86.08170000000007L41.63650000000007 85.44539999999995L42.833900000000085 85.19979999999998L43.608100000000036 84.24599999999998L43.224300000000085 83.70140000000004L43.59140000000002 82.7745000000001L43.11760000000004 81.2933999999999L42.81310000000008 82.35910000000001L42.47620000000006 82.55830000000003L41.62200000000007 81.78949999999998L40.88920000000007 81.50869999999998L40.56090000000006 81.7247000000001L40.785600000000045 84.07830000000001L40.572400000000016 84.42050000000006L40.33820000000003 84.75220000000002L38.42490000000009 85.03380000000004L37.573600000000056 84.16999999999996L35.76960000000008 83.27010000000007L35.46640000000002 83.69369999999992L32.75150000000008 81.97179999999992L32.45480000000009 82.40179999999998L30.101300000000037 80.67780000000005L29.959100000000035 80.58910000000003L28.779100000000085 78.6828999999999L28.715900000000033 78.29969999999992L29.33820000000003 77.84870000000012L27.963400000000092 77.29229999999995L26.8134 76.80769999999995L26.70640000000003 74.65510000000006L25.830200000000104 73.44320000000005L24.344100000000026 73.0535000000001L23.025800000000004 73.26769999999999z">
      <title id="t447">Troisième circonscription du Tarn</title>
      <desc id="d447">Cantons de : Castres Nord, Castres Ouest, Cuq-Toulza, Dourgne, Labruguière, Lautrec, Lavaur, Mazamet Nord-Est, Mazamet Sud-Ouest, Puylaurens, Saint-Amans-Soult, Saint-Paul-Cap-de-Joux, Vielmur-sur-Agout</desc>
    </path></svg>