<svg xmlns="http://www.w3.org/2000/svg" version="1.1" xmlns:xlink="http://www.w3.org/1999/xlink" xmlns:svgjs="http://svgjs.dev/svgjs" viewBox="719.65763 1000.2407 106.94529999999997 74.03160000000014"><path class="circo" id="id-082-01" d="M 798.77503,1012.4995 798.11533,1012.6743 797.90893,1013.3876 797.19253,1011.7898 795.73723,1011.986 797.10693,1013.3938 796.32723,1014.8256 795.54063,1014.9129 794.22883,1014.0146 794.26783,1011.6759 793.06703,1011.8543 792.57193,1011.2184 791.79213,1011.2291 790.62733,1011.2854 790.35373,1011.5898 790.77483,1013.1452 789.83403,1013.902 789.89773,1014.3049 790.86923,1015.0214 791.21943,1016.1981 791.65523,1017.2233 791.06163,1018.0833 790.55883,1019.0729 788.26683,1019.6863 787.53653,1019.6774 786.64103,1018.8525 785.89653,1017.0611 786.40513,1016.0109 785.13953,1014.5119 784.02483,1014.8143 783.27693,1014.6405 783.02863,1013.9099 782.10243,1013.2736 781.20463,1015.0451 780.49453,1015.4406 780.28153,1016.6372 778.04083,1018.281 777.81133,1018.1926 775.35553,1019.8284 773.91133,1020.5586 772.24593,1022.8695 770.84343,1020.408 770.23023,1019.8913 769.42223,1019.9875 768.73563,1019.6283 767.61013,1019.9077 765.76363,1019.0741 766.14423,1018.4633 766.02503,1017.0366 764.53153,1017.1515 765.06473,1018.2669 764.12153,1020.112 763.46293,1020.5495 763.42243,1021.7548 761.58233,1023.455 761.36473,1023.8111 761.34313,1024.2224 761.60663,1024.5421 764.39163,1026.3167 764.56063,1026.7002 763.68813,1027.5911 761.72173,1026.1744 760.71213,1026.8181 759.56463,1026.8997 758.37053,1028.5271 758.26643,1028.6724 757.00773,1030.1892 757.12323,1031.3329 760.01013,1033.499 760.67533,1033.0384 762.70393,1033.4053 763.18443,1034.0511 763.09243,1035.2703 764.43843,1036.6586 765.04933,1037.2076 765.52723,1038.7853 766.21673,1040.0429 766.54513,1040.7544 766.29493,1041.0559 766.48663,1042.9614 766.62493,1043.7673 767.65603,1044.4207 767.29233,1045.5107 767.63623,1046.665 768.29223,1047.153 768.30703,1047.9451 766.50313,1049.5675 766.65533,1049.9428 767.40543,1049.6437 769.26293,1050.3949 770.77233,1049.9195 770.92023,1050.7096 771.98773,1052.423 772.04273,1052.5706 772.73323,1054.0079 773.07643,1055.9611 774.42673,1056.7723 774.97273,1056.8663 778.59683,1057.6703 778.96203,1057.7778 781.79093,1059.0432 782.39703,1057.7678 783.30803,1058.5339 783.66433,1060.0719 784.06783,1060.0929 785.56023,1058.7809 785.64373,1058.0423 786.33463,1058.3214 787.00093,1057.384 787.22453,1056.2571 789.07973,1056.585 790.27083,1056.6057 790.60283,1056.4117 790.63103,1054.9134 790.94153,1054.1661 789.95823,1053.5433 787.64483,1053.1586 787.71513,1052.3762 787.35003,1051.7038 788.46403,1052.036 788.79703,1051.306 789.99763,1051.0374 791.94433,1051.6167 794.78353,1051.5812 794.43653,1050.149 795.16933,1048.9039 796.00573,1047.5674 796.69503,1047.898 797.46963,1047.7677 797.74733,1047.0823 797.20283,1045.6066 798.33783,1045.5809 798.73623,1045.6283 799.04713,1044.8848 800.47973,1044.1904 801.71033,1041.6957 800.80233,1039.8327 799.68793,1039.3051 798.53373,1039.2628 798.28913,1038.4767 798.72563,1036.4734 797.36783,1035.5333 797.34353,1034.1049 797.84333,1033.1425 798.12243,1033.4414 798.89163,1033.2036 800.46803,1033.6013 801.61793,1033.1933 803.23553,1033.3255 803.23023,1032.9345 804.19263,1033.6692 805.30733,1033.3743 807.97923,1035.4954 809.30003,1035.0776 808.79393,1034.0624 809.89653,1033.0288 810.36403,1031.9815 812.00583,1034.1693 813.03453,1034.7273 813.29703,1033.4372 812.40873,1031.3207 812.97883,1029.9156 813.33953,1029.8825 813.77803,1030.873 814.13173,1030.9489 815.37473,1029.9712 816.88743,1030.5509 817.63503,1030.2226 818.63093,1031.4709 819.57613,1030.8279 819.91903,1030.3412 817.92223,1028.4847 819.18513,1027.5851 819.97353,1027.6424 821.13113,1028.5108 821.87163,1029.4456 823.06683,1029.339 824.18663,1029.8148 825.43953,1028.9166 826.01783,1029.2567 826.60293,1028.218 824.79143,1027.4425 824.61123,1026.6618 825.15943,1026.0605 824.64153,1025.4719 823.50393,1025.154 822.30433,1025.3022 821.81353,1026.8494 821.27963,1026.2763 821.19283,1025.122 820.72533,1024.5179 819.29623,1024.99 819.45723,1024.6399 818.68593,1023.847 818.83723,1023.0967 817.53253,1022.3689 817.89733,1021.7468 819.06283,1021.7892 821.08703,1018.2076 822.01373,1017.6216 822.52213,1018.1477 823.62503,1018.2442 823.81093,1015.6073 824.35703,1014.2078 823.24233,1013.7479 822.04333,1013.7724 821.77623,1013.4714 818.47133,1013.8791 815.69923,1012.3449 816.66713,1011.0299 814.99403,1008.7931 816.31303,1007.2477 817.13133,1007.2093 816.83013,1006.638 814.25293,1007.5941 813.86763,1006.9076 812.71763,1007.2251 812.10243,1008.5971 810.62643,1007.8384 810.36073,1007.0465 809.31763,1007.3695 809.11833,1008.0796 808.43713,1008.0794 808.84573,1008.7952 808.37963,1009.4687 807.59873,1009.7012 806.41943,1008.6469 804.83383,1008.2752 804.16743,1009.2731 802.28733,1010.0021 801.54993,1009.6762 799.27443,1011.655 798.89633,1011.6058 798.83043,1012.1831 798.77503,1012.4995 z">
      <title id="t448">Première circonscription du Tarn-et-Garonne</title>
      <desc id="d448">Cantons de : Caussade, Caylus, Lafrançaise, Molières, Monclar-de-Quercy, Montauban I, Montauban II, Montauban III, Montauban IV, Montauban V, Montauban VI, Montpezat-de-Quercy, Nègrepelisse, Saint-Antonin-Noble-Val, Villebrumier)</desc>
    </path><path class="circo" id="id-082-02" d="M 729.40123,1041.9522 729.15453,1041.3031 727.96833,1041.3856 726.72533,1040.3667 725.99863,1040.7586 724.62733,1041.7423 721.79443,1043.4362 721.15843,1042.065 721.33963,1040.8949 720.88483,1040.2754 720.63333,1039.1909 719.91053,1039.2308 719.65763,1038.1036 720.40133,1036.7079 720.43063,1035.9067 720.97293,1034.5441 722.72893,1033.1138 723.31363,1033.5834 724.73043,1033.9167 724.26953,1032.9276 724.64353,1031.515 723.80773,1030.0497 724.55873,1029.7662 726.59303,1030.0327 729.56053,1031.4847 729.76483,1031.848 730.72343,1031.9734 731.65873,1031.3479 731.68933,1030.5856 731.99573,1030.3576 732.67633,1030.6924 732.78983,1029.9684 732.36053,1029.3325 732.09473,1027.8547 732.48323,1027.1913 732.50333,1026.7896 731.83983,1026.3539 730.82303,1026.9416 730.28313,1026.3992 729.40933,1026.2554 729.41303,1025.1337 729.92403,1024.1271 730.03493,1024.0984 733.61513,1024.4451 735.83613,1019.6784 734.97343,1018.727 736.13833,1017.1866 735.71223,1015.2688 736.82353,1015.6469 737.66783,1014.3592 735.46303,1012.7866 735.34953,1012.4005 734.74733,1011.1374 732.93143,1011.791 731.97363,1010.4863 730.75343,1010.2999 731.18513,1009.3019 731.07873,1008.5988 731.93353,1008.0278 733.02033,1005.9066 732.67163,1005.4684 732.78653,1004.7364 732.27293,1003.717 732.83723,1002.7094 733.23103,1001.7468 734.27263,1001.5391 735.03763,1001.3656 735.36073,1002.1282 736.52003,1003.2457 736.85743,1006.124 736.95333,1006.1215 737.10013,1004.9563 737.61923,1004.3197 740.41353,1004.3278 741.57083,1003.1814 743.44343,1003.8611 744.24873,1003.7637 745.83663,1003.9468 746.97053,1003.5484 747.00733,1002.3461 747.29823,1002.068 748.90303,1001.7021 750.54923,1000.4766 753.11193,1000.2407 753.27733,1002.55 752.97963,1002.8236 752.16413,1002.8131 750.64153,1003.4407 749.84003,1003.3454 749.42753,1004.5106 748.75513,1004.9359 749.24093,1005.578 750.03343,1005.5739 750.71063,1006.0177 751.51103,1006.9327 751.15633,1008.4659 752.08213,1009.2493 752.29483,1009.5395 752.94663,1009.3816 753.66343,1009.5775 754.72163,1010.5217 755.41913,1010.2229 756.22183,1010.9218 757.06523,1010.145 756.93543,1012.0131 757.52643,1012.9671 758.79443,1013.6756 759.13083,1013.4797 759.93203,1014.8511 760.59613,1013.9253 760.99373,1013.8886 762.07943,1014.3805 762.60763,1015.4311 763.14323,1014.9927 763.55643,1013.0989 763.81273,1013.4194 765.03243,1013.4608 765.88143,1012.5763 767.35103,1011.9917 767.69303,1012.0891 767.04613,1014.4133 767.60403,1015.7927 766.02503,1017.0366 764.53153,1017.1515 765.06473,1018.2669 764.12153,1020.112 763.46293,1020.5495 763.42243,1021.7548 761.58233,1023.455 761.36473,1023.8111 761.34313,1024.2224 761.60663,1024.5421 764.39163,1026.3167 764.56063,1026.7002 763.68813,1027.5911 761.72173,1026.1744 760.71213,1026.8181 759.56463,1026.8997 758.37053,1028.5271 758.26643,1028.6724 757.00773,1030.1892 757.12323,1031.3329 760.01013,1033.499 760.67533,1033.0384 762.70393,1033.4053 763.18443,1034.0511 763.09243,1035.2703 764.43843,1036.6586 765.04933,1037.2076 765.52723,1038.7853 766.21673,1040.0429 766.54513,1040.7544 766.29493,1041.0559 766.48663,1042.9614 766.62493,1043.7673 767.65603,1044.4207 767.29233,1045.5107 767.63623,1046.665 768.29223,1047.153 768.30703,1047.9451 766.50313,1049.5675 766.65533,1049.9428 767.40543,1049.6437 769.26293,1050.3949 770.77233,1049.9195 770.92023,1050.7096 771.98773,1052.423 772.04273,1052.5706 772.73323,1054.0079 773.07643,1055.9611 774.42673,1056.7723 774.97273,1056.8663 778.59683,1057.6703 778.96203,1057.7778 781.79093,1059.0432 780.79993,1060.3652 780.01043,1062.2467 779.91013,1061.8709 778.48633,1062.3492 777.39243,1062.0633 776.58383,1060.7719 775.82893,1060.5813 775.08873,1060.9106 772.89243,1059.976 772.10453,1060.8067 772.12773,1061.5684 771.54143,1062.0573 772.57673,1063.69 772.35463,1064.3493 770.35203,1064.4954 769.00173,1063.6911 767.31373,1064.5593 766.82663,1065.1607 767.61003,1065.3592 768.58003,1066.6303 770.04153,1066.1176 771.97743,1066.2412 772.45443,1068.5061 771.40453,1068.6754 771.03703,1069.2929 769.58833,1069.5303 768.34083,1070.4347 767.51293,1070.497 767.26923,1070.5585 765.80673,1070.975 765.47823,1070.342 764.53633,1070.6956 764.78433,1071.4596 765.43143,1071.8344 765.17103,1072.1432 759.93743,1074.2723 759.70503,1073.9396 759.44963,1073.2005 760.37783,1072.4461 760.19043,1071.6788 757.42253,1071.2313 756.75553,1070.016 755.70603,1069.4943 755.22773,1068.3742 754.14213,1067.9066 753.94503,1068.6949 752.52593,1069.4559 751.63323,1070.7951 751.28073,1070.9392 750.78113,1070.3681 751.03643,1070.0832 750.84983,1069.7484 750.10503,1069.5745 748.93213,1068.6094 748.83213,1068.7116 746.87733,1070.6987 745.67453,1070.5896 744.97653,1070.1765 741.88023,1070.7252 740.79503,1071.0519 740.36363,1071.6565 739.43953,1072.1138 738.79603,1071.7361 738.11623,1071.7898 737.93943,1072.0202 736.92753,1071.4911 735.36393,1071.6001 734.83353,1072.1981 733.69553,1072.382 733.12043,1071.8833 733.85963,1069.2778 734.60743,1068.345 735.48963,1066.7603 732.94603,1065.8329 732.95803,1064.7302 734.43003,1064.8204 733.69973,1063.351 732.16353,1062.0196 731.89433,1060.4175 732.13283,1059.7602 733.40463,1059.1177 733.74633,1058.8728 732.43533,1058.245 732.34743,1057.6112 731.25023,1057.2328 730.34823,1056.0111 729.61613,1056.2658 729.28253,1056.0678 729.04513,1056.7192 728.27923,1056.8581 726.54573,1055.7988 725.64083,1054.9345 722.30073,1056.1335 721.49703,1054.183 721.46003,1053.3997 723.47153,1052.2648 723.58713,1051.8894 724.18883,1050.938 724.12783,1050.5336 724.92703,1049.6264 725.23783,1049.6752 725.55953,1049.1631 725.61713,1049.0605 727.13463,1047.2356 726.98823,1046.4183 726.33153,1045.8672 726.76203,1045.2095 726.08733,1044.2427 726.54023,1043.6659 727.26953,1043.5307 728.25363,1044.0657 729.04093,1042.8648 729.76943,1042.8141 730.34703,1042.365 729.40123,1041.9522 z">
      <title id="t449">Deuxième circonscription du Tarn-et-Garonne</title>
      <desc id="d449">Cantons de : Auvillar, Beaumont-de-Lomagne, Bourg-de-Visa, Castelsarrasin I, Castelsarrasin II, Grisolles, Lauzerte, Lavit, Moissac I, Moissac II, Montech, Montaigu-de-Quercy, Saint-Nicolas-de-la-Grave, Valence, Verdun-sur-Garonne</desc>
    </path></svg>