<svg xmlns="http://www.w3.org/2000/svg" version="1.1" xmlns:xlink="http://www.w3.org/1999/xlink" xmlns:svgjs="http://svgjs.dev/svgjs" viewBox="0 0 108.53160000000003 96.51800000000003"><path class="circo" id="id-083-01" d="M23.105599999999868 82.25290000000018L23.301099999999906 81.06130000000007L22.448100000000068 80.23720000000003L21.67840000000001 80.46340000000009L21.12200000000007 81.05180000000018L19.586000000000013 80.90400000000022L19.622100000000046 80.42550000000006L20.420799999999872 79.77460000000019L21.214099999999917 79.55130000000008L20.79359999999997 79.35210000000006L21.18170000000009 78.75640000000021L22.07289999999989 78.85530000000017L21.800199999999904 78.35300000000007L22.12570000000005 78.2447000000002L22.154800000000023 77.79030000000012L21.945999999999913 77.64410000000021L22.403299999999945 76.85120000000006L23.20589999999993 76.69450000000006L24.212800000000016 76.56690000000003L24.919799999999896 76.75040000000013L25.33199999999988 76.92460000000005L26.371599999999944 76.6902L27.17229999999995 77.17270000000008L27.43820000000005 78.71460000000002L28.026200000000017 79.71620000000007L27.810799999999972 80.05600000000004L27.382699999999886 82.02270000000021L23.105599999999868 82.25290000000018z">
      <title id="t450">Première circonscription du Var</title>
      <desc id="d450">Cantons de : Toulon I, Toulon IV, Toulon V, Toulon VI, Toulon VII, Toulon VIII, Toulon IX</desc>
    </path><path class="circo" id="id-083-02" d="M12.238299999999981 75.91510000000017L12.69620000000009 74.79130000000009L15.054200000000037 73.41560000000004L16.83330000000001 71.24680000000012L16.297700000000077 69.30440000000021L17.224199999999882 68.61790000000019L17.98149999999987 69.5735000000002L20.02170000000001 69.62310000000002L21.994500000000016 69.11430000000018L24.027599999999893 69.27080000000001L23.149599999999964 67.58220000000006L24.74720000000002 66.5748000000001L26.633599999999888 66.47880000000009L26.629400000000032 65.6708000000001L28.029399999999896 64.93390000000022L28.715400000000045 63.95450000000005L29.392000000000053 64.39330000000018L30.59199999999987 64.49480000000017L30.53710000000001 65.25030000000015L31.172900000000027 66.09190000000012L30.7041999999999 67.51180000000022L32.12989999999991 68.78480000000013L33.93709999999987 69.34720000000016L34.247699999999895 70.48680000000013L34.854699999999866 70.99330000000009L35.62419999999997 70.8932000000002L37.14390000000003 71.35170000000016L37.35559999999987 72.51560000000018L36.98980000000006 73.66180000000008L36.316499999999905 75.1105L35.43399999999997 75.92560000000003L34.30490000000009 76.85390000000007L32.84719999999993 77.04170000000022L31.33829999999989 76.41180000000008L30.57680000000005 78.3226000000002L27.810799999999972 80.05600000000004L28.026200000000017 79.71620000000007L27.43820000000005 78.71460000000002L27.17229999999995 77.17270000000008L26.371599999999944 76.6902L25.33199999999988 76.92460000000005L24.919799999999896 76.75040000000013L24.212800000000016 76.56690000000003L23.20589999999993 76.69450000000006L22.403299999999945 76.85120000000006L21.945999999999913 77.64410000000021L22.154800000000023 77.79030000000012L22.12570000000005 78.2447000000002L21.803100000000086 78.33570000000009L22.076099999999997 78.85250000000019L21.18170000000009 78.75640000000021L20.79359999999997 79.35210000000006L21.214099999999917 79.55130000000008L20.420799999999872 79.77460000000019L19.622100000000046 80.42550000000006L19.586000000000013 80.90400000000022L19.43990000000008 80.78760000000011L16.346000000000004 80.2827000000002L14.11909999999989 80.4090000000001L14.371399999999994 78.0499000000002L13.665199999999913 77.16790000000015L13.531500000000051 75.99070000000006L12.238299999999981 75.91510000000017z">
      <title id="t451">Deuxième circonscription du Var</title>
      <desc id="d451">Cantons de : Ollioules (moins les communes de Sanary-sur-Mer et Bandol), Toulon II, Toulon III, Solliès-Pont, La Valette-du-Var</desc>
    </path><path class="circo" id="id-083-03" d="M38.86079999999993 67.92420000000016L38.14210000000003 68.89300000000003L38.01710000000003 70.51800000000003L37.14210000000003 71.36180000000013L37.36079999999993 72.51800000000003L36.98579999999993 73.67420000000016L36.32960000000003 75.11180000000013L35.4233999999999 75.92420000000016L34.2983999999999 76.86180000000013L32.86079999999993 77.04920000000016L31.329600000000028 76.42420000000016L30.579600000000028 78.33050000000003L27.7983999999999 80.04920000000016L27.392100000000028 82.01800000000003L28.579600000000028 82.20550000000003L29.767100000000028 82.42420000000016L31.017100000000028 83.29920000000016L31.235799999999927 83.64300000000003L30.704600000000028 84.67420000000016L30.7983999999999 85.08050000000003L31.9233999999999 85.39300000000003L33.51710000000003 85.20550000000003L36.07960000000003 84.26800000000003L38.4233999999999 84.64300000000003L39.82960000000003 85.39300000000003L40.36079999999993 88.58050000000003L39.73579999999993 89.61180000000013L37.76710000000003 89.64300000000003L37.11079999999993 90.08050000000003L37.6733999999999 91.08050000000003L39.07960000000003 90.36180000000013L39.39210000000003 90.64300000000003L40.5483999999999 90.42420000000016L41.48579999999993 91.17420000000016L41.89210000000003 91.23680000000013L43.0483999999999 90.83050000000003L43.1733999999999 90.51800000000003L42.14210000000003 89.86180000000013L41.89210000000003 88.26800000000003L42.32960000000003 85.42420000000016L43.14210000000003 83.54920000000016L44.48579999999993 82.01800000000003L46.26710000000003 80.98680000000013L49.07960000000003 81.26800000000003L52.26710000000003 80.33050000000003L53.4233999999999 78.20550000000003L53.98579999999993 73.36180000000013L56.36079999999993 72.86180000000013L56.6733999999999 72.58050000000003L56.73579999999993 71.33050000000003L55.32960000000003 70.58050000000003L53.73579999999993 71.04920000000016L50.5483999999999 70.70550000000003L49.64210000000003 69.36180000000013L46.64210000000003 70.54920000000016L43.01710000000003 70.83050000000003L40.61079999999993 70.33050000000003L41.14210000000003 69.76800000000003L40.86079999999993 69.04920000000016L40.32960000000003 68.48680000000013L38.86079999999993 67.92420000000016zM72.07960000000003 88.29920000000016L71.89210000000003 88.33050000000003L70.51710000000003 88.79920000000016L69.70460000000003 88.89300000000003L69.51710000000003 88.92420000000016L69.14210000000003 89.17420000000016L68.98579999999993 89.29920000000016L68.5483999999999 89.98680000000013L68.45460000000003 90.17420000000016L68.07960000000003 91.11180000000013L66.5483999999999 91.58050000000003L66.0483999999999 92.20550000000003L66.11079999999993 92.61180000000013L65.98579999999993 93.39300000000003L66.36079999999993 93.83050000000003L66.98579999999993 93.36180000000013L67.51710000000003 92.48680000000013L68.45460000000003 92.73680000000013L69.1733999999999 92.45550000000003L69.36079999999993 92.08050000000003L69.4233999999999 91.48680000000013L69.95460000000003 90.86180000000013L70.48579999999993 89.73680000000013L70.82960000000003 89.51800000000003L71.86079999999993 89.42420000000016L72.39210000000003 89.14300000000003L72.48579999999993 88.95550000000003L72.4233999999999 88.76800000000003L72.26710000000003 88.39300000000003L72.07960000000003 88.29920000000016zM49.73579999999993 91.51800000000003L49.5483999999999 91.58050000000003L49.07960000000003 92.95550000000003L48.76710000000003 93.20550000000003L47.76710000000003 93.01800000000003L47.4233999999999 93.73680000000013L46.95460000000003 94.11180000000013L46.14210000000003 94.23680000000013L44.48579999999993 93.48680000000013L43.89210000000003 93.64300000000003L43.73579999999993 93.76800000000003L43.14210000000003 94.33050000000003L43.0483999999999 94.48680000000013L43.20460000000003 94.54920000000016L45.45460000000003 95.48680000000013L45.76710000000003 95.76800000000003L45.86079999999993 96.36180000000013L46.01710000000003 96.51800000000003L46.82960000000003 96.39300000000003L47.4233999999999 95.61180000000013L48.5483999999999 95.23680000000013L49.4233999999999 94.73680000000013L50.20460000000003 94.64300000000003L50.36079999999993 94.51800000000003L50.5483999999999 93.92420000000016L50.20460000000003 92.36180000000013L49.9233999999999 92.08050000000003L49.73579999999993 91.51800000000003zM63.82960000000003 92.33050000000003L62.48579999999993 92.89300000000003L61.89210000000003 92.95550000000003L61.70460000000003 93.04920000000016L61.61079999999993 93.42420000000016L60.6733999999999 94.23680000000013L60.86079999999993 94.76800000000003L62.07960000000003 94.67420000000016L62.9233999999999 95.26800000000003L63.61079999999993 94.89300000000003L64.70460000000003 93.42420000000016L64.76710000000003 93.04920000000016L64.26710000000003 93.11180000000013L64.1733999999999 92.51800000000003L64.01710000000003 92.36180000000013L63.82960000000003 92.33050000000003z">
      <title id="t452">Troisième circonscription du Var</title>
      <desc id="d452">Cantons de : La Crau, La Garde, Hyères Est, Hyères Ouest</desc>
    </path><path class="circo" id="id-083-04" d="M40.854499999999916 58.513800000000174L40.975599999999986 57.30800000000022L40.63689999999997 55.72290000000021L41.03780000000006 53.75440000000003L40.923 52.577400000000125L41.70249999999987 52.411600000000135L43.27590000000009 51.25480000000016L44.05819999999994 51.18520000000012L44.29449999999997 50.15870000000018L42.52859999999987 49.52840000000015L43.52800000000002 47.496900000000096L43.30849999999987 46.73910000000001L43.406299999999874 46.026600000000144L44.051099999999906 45.68280000000004L44.83480000000009 43.3728000000001L45.42489999999998 42.804400000000214L45.81230000000005 42.67780000000016L46.14249999999993 41.939600000000155L49.13729999999987 40.76420000000007L47.12660000000005 39.43210000000022L46.99430000000007 37.45840000000021L47.36650000000009 36.7320000000002L48.32770000000005 37.42240000000015L49.11459999999988 37.48630000000003L49.25610000000006 38.267500000000155L49.58770000000004 38.48680000000013L49.975200000000086 38.57140000000004L50.57230000000004 38.05800000000022L52.02039999999988 38.527300000000196L53.56310000000008 38.53370000000018L53.863000000000056 38.27300000000014L53.82749999999987 37.17850000000021L54.95190000000002 36.10720000000015L55.49109999999996 34.628200000000106L56.88629999999989 34.03690000000006L60.071899999999914 34.542900000000145L60.75839999999994 34.129900000000134L62.42470000000003 35.280300000000125L63.60660000000007 35.52880000000005L63.784400000000005 35.162900000000036L65.75970000000007 36.49090000000001L66.04219999999987 36.427200000000084L67.47160000000008 35.83860000000004L67.43489999999997 36.610600000000204L68.07210000000009 37.065900000000056L72.24540000000002 38.08530000000019L73.52960000000007 38.40430000000015L74.10079999999994 39.930000000000064L74.13699999999994 41.94800000000009L74.89959999999996 42.845800000000054L74.49350000000004 45.65990000000011L74.81600000000003 47.2329000000002L75.3635999999999 47.57050000000004L75.31670000000008 48.10250000000019L76.43000000000006 48.48890000000006L78.28449999999998 47.846100000000206L78.52129999999988 47.53020000000015L77.95699999999988 46.496200000000044L78.99579999999992 45.32830000000013L79.92090000000007 46.11880000000019L82.11760000000004 47.1545000000001L82.97739999999999 48.026400000000194L84.43409999999994 49.99440000000004L84.78199999999993 51.16580000000022L85.54279999999994 52.095200000000204L85.34840000000008 54.098000000000184L87.14879999999994 54.67470000000003L86.00980000000004 55.805500000000166L85.7636 57.001000000000204L85.96280000000002 57.79210000000012L82.95219999999995 58.7958000000001L81.92619999999988 59.93910000000005L78.9194 61.88760000000002L79.0329999999999 63.05650000000014L78.88190000000009 63.34090000000015L79.66719999999987 63.87700000000018L82.17149999999992 63.50940000000014L83.90959999999995 62.54280000000017L85.70039999999995 63.436600000000226L86.16560000000004 62.350200000000086L86.86449999999991 62.14420000000018L88.3273999999999 63.52690000000007L87.73160000000007 65.03140000000008L86.77520000000004 65.78110000000015L85.71540000000005 66.19080000000008L85.47270000000003 68.20080000000007L85.71080000000006 69.79590000000007L86.80970000000002 70.96450000000004L86.78250000000003 71.37070000000017L85.22309999999993 71.69790000000012L83.93779999999992 72.66710000000012L83.64719999999988 74.23220000000015L84.12429999999995 74.88610000000017L83.04179999999997 74.45720000000006L81.9375 75.6255000000001L81.28289999999993 75.19250000000011L80.31490000000008 73.41540000000009L79.68589999999995 72.91960000000017L76.9034999999999 72.43600000000015L76.10750000000007 72.59940000000006L74.83649999999989 73.58860000000004L74.70100000000002 75.09900000000016L73.51929999999993 75.31760000000008L71.15859999999998 76.85630000000015L70.8279 76.62660000000005L68.72820000000002 76.16660000000002L67.2645 76.65090000000009L66.61869999999999 77.56140000000005L65.65570000000002 76.89630000000011L62.1271999999999 77.65060000000017L61.235099999999875 78.44910000000004L60.452999999999975 78.63380000000006L60.09590000000003 79.78540000000021L59.797000000000025 80.89450000000011L59.90899999999988 82.11830000000009L60.32089999999994 82.82040000000006L60.10269999999991 83.99940000000015L56.88239999999996 83.66120000000001L55.762899999999945 81.99270000000001L53.750299999999925 81.79500000000007L53.499700000000075 81.46900000000005L53.51729999999998 81.09350000000018L52.267900000000054 80.34000000000015L53.437799999999925 78.20050000000015L53.98880000000008 73.36650000000009L56.372499999999945 72.85280000000012L56.673 72.57050000000004L56.748800000000074 71.33620000000019L55.327999999999975 70.59280000000012L53.747299999999996 71.04620000000023L50.539800000000014 70.6976000000002L49.63339999999994 69.3552000000002L49.553100000000086 66.8932000000002L50.1579999999999 65.84990000000016L50.244899999999916 64.64720000000011L50.177200000000084 63.61880000000019L49.72829999999999 62.100400000000036L48.56960000000004 61.052000000000135L47.6241 58.87780000000021L47.059999999999945 58.31620000000021L47.131000000000085 57.186300000000074L46.385099999999966 56.94230000000016L43.18190000000004 57.464800000000196L42.53950000000009 58.48870000000011L41.78690000000006 58.75720000000001L40.854499999999916 58.513800000000174z">
      <title id="t453">Quatrième circonscription du Var</title>
      <desc id="d453">Cantons de : Besse-sur-Issole, Collobrières, Grimaud, Lorgues, Le Luc, Saint-Tropez</desc>
    </path><path class="circo" id="id-083-05" d="M95.19599999999991 30.918300000000045L94.8092999999999 30.352600000000166L93.64280000000008 30.11180000000013L92.38089999999988 29.28150000000005L91.39730000000009 29.957300000000032L88.62519999999995 30.09990000000016L86.23900000000003 29.777900000000045L84.07670000000007 30.831800000000158L83.89539999999988 31.866900000000214L83.59109999999987 32.05350000000021L82.52359999999999 31.488800000000083L80.11449999999991 31.237500000000182L79.26299999999992 32.562000000000126L78.54369999999994 32.646400000000085L78.22379999999998 33.36990000000014L79.23350000000005 35.11760000000004L79.3701000000001 37.09220000000005L76.58439999999996 37.44780000000014L73.52960000000007 38.40430000000015L74.10079999999994 39.930000000000064L74.13699999999994 41.94800000000009L74.89959999999996 42.845800000000054L74.49350000000004 45.65990000000011L74.81600000000003 47.2329000000002L75.3635999999999 47.57050000000004L75.31670000000008 48.10250000000019L76.43000000000006 48.48890000000006L78.28449999999998 47.846100000000206L78.52129999999988 47.53020000000015L77.95699999999988 46.496200000000044L78.99579999999992 45.32830000000013L79.92090000000007 46.11880000000019L82.11760000000004 47.1545000000001L82.97739999999999 48.026400000000194L84.43409999999994 49.99440000000004L84.78199999999993 51.16580000000022L85.54279999999994 52.095200000000204L85.34840000000008 54.098000000000184L87.14879999999994 54.67470000000003L89.83860000000004 54.102300000000014L90.19759999999997 52.64540000000011L89.89959999999996 51.50680000000011L91.27949999999987 49.14430000000016L91.13920000000007 48.37700000000018L91.66730000000007 46.864700000000084L92.64020000000005 45.58730000000014L94.07690000000002 44.90330000000017L96.12419999999997 46.72600000000011L99.5030999999999 45.71340000000009L100.28710000000001 45.85500000000002L101.77179999999998 46.38070000000016L102.21350000000007 45.72370000000001L102.28520000000003 44.123800000000074L102.66200000000003 43.97990000000004L103.62740000000008 44.66730000000007L104.82300000000009 44.49550000000022L105.49779999999987 43.142500000000155L107.47620000000006 41.76850000000013L107.75420000000008 39.339300000000094L108.53160000000003 38.40000000000009L106.99559999999997 38.05420000000004L106.70959999999991 36.925500000000056L105.99790000000007 36.64210000000003L104.3243 35.767500000000155L105.25769999999989 33.49410000000012L105.19990000000007 33.08570000000009L103.89120000000003 32.26060000000007L102.52289999999994 32.3284000000001L101.60899999999992 31.601200000000063L100.80999999999995 31.646600000000035L98.90269999999987 29.641700000000128L96.82850000000008 28.570200000000114L96.04849999999988 30.591700000000174L95.35059999999999 30.568700000000035L95.19599999999991 30.918300000000045z">
      <title id="t454">Cinquième circonscription du Var</title>
      <desc id="d454">Cantons de : Fréjus, Le Muy, Saint-Raphaël</desc>
    </path><path class="circo" id="id-083-06" d="M11.057299999999941 75.50290000000018L9.334100000000035 75.94550000000004L9.163099999999986 75.87560000000008L7.466300000000047 75.26340000000005L7.095499999999902 75.31760000000008L6.925700000000006 75.9965000000002L6.068899999999985 76.59910000000013L5.864499999999907 78.53070000000002L5.274899999999889 77.48180000000002L3.314200000000028 77.53280000000018L2.332400000000007 76.26080000000002L2.3179999999999836 75.85340000000019L3.1048000000000684 74.9322000000002L3.0157999999998992 74.13830000000007L2.457200000000057 73.56630000000018L1.271199999999908 73.55000000000018L1.618099999999913 72.22400000000016L1.8243999999999687 69.1822000000002L2.1673000000000684 66.9974000000002L4.045100000000048 66.27400000000011L3.7655999999999494 65.63220000000001L6.9133999999999105 63.88800000000015L8.840999999999894 63.27560000000017L8.999599999999873 61.52310000000011L8.03060000000005 60.83640000000014L6.8069000000000415 59.24100000000021L5.923099999999977 57.43450000000007L2.9003000000000156 57.94860000000017L2.108199999999897 57.23910000000001L1.0407999999999902 57.19540000000006L2.213600000000042 56.91030000000001L2.807700000000068 55.86310000000003L2.654199999999946 54.67240000000015L3.970299999999952 53.15190000000007L3.1667999999999665 51.80560000000014L2.7502999999999247 48.96810000000005L2.198899999999867 47.871000000000095L3.939300000000003 46.83850000000007L5.582599999999957 46.78240000000005L7.911599999999908 47.596500000000106L10.369899999999916 46.59490000000005L10.986100000000079 46.14590000000021L11.171800000000076 45.40240000000017L11.130400000000009 45.38510000000019L9.952099999999973 45.249700000000075L8.045799999999872 43.76240000000007L5.975200000000086 39.92100000000005L4.534200000000055 38.52570000000014L3.5601999999998952 38.152700000000095L3.9355000000000473 36.60990000000015L4.875600000000077 35.9217000000001L5.177899999999909 31.949600000000146L5.793300000000045 30.053700000000163L6.506599999999935 29.750100000000202L8.28469999999993 30.599800000000187L9.826499999999896 30.88630000000012L10.75890000000004 31.596900000000005L13.45959999999991 30.96460000000002L14.514699999999948 30.40800000000013L15.594800000000077 31.036200000000008L16.65840000000003 34.0154L16.587099999999964 36.4058L17.72180000000003 37.4661000000001L20.440399999999954 37.45180000000005L21.86259999999993 36.7659000000001L22.822799999999916 37.178100000000086L22.434099999999944 38.739500000000135L22.566900000000032 39.52690000000007L21.880100000000084 41.827200000000175L26.073000000000093 42.9041000000002L28.14390000000003 44.108000000000175L28.166500000000042 42.450000000000045L28.955799999999954 39.66080000000011L30.253099999999904 40.47380000000021L32.58310000000006 41.02850000000012L34.16560000000004 40.72180000000003L34.91650000000004 39.83790000000022L35.98890000000006 40.38810000000012L37.92169999999987 40.7487000000001L38.97630000000004 40.273800000000165L39.88830000000007 42.378600000000006L40.64599999999996 42.10410000000002L41.25610000000006 42.586900000000014L44.83349999999996 42.27970000000005L45.42489999999998 42.804400000000214L44.83480000000009 43.3728000000001L44.051099999999906 45.68280000000004L43.406299999999874 46.026600000000144L43.30849999999987 46.73910000000001L43.52800000000002 47.496900000000096L42.52859999999987 49.52840000000015L44.29449999999997 50.15870000000018L44.05819999999994 51.18520000000012L43.27590000000009 51.25480000000016L41.70249999999987 52.411600000000135L40.923 52.577400000000125L41.03780000000006 53.75440000000003L40.63689999999997 55.72290000000021L40.975599999999986 57.30800000000022L40.854499999999916 58.513800000000174L41.78690000000006 58.75720000000001L42.53950000000009 58.48870000000011L43.18190000000004 57.464800000000196L46.385099999999966 56.94230000000016L47.131000000000085 57.186300000000074L47.059999999999945 58.31620000000021L47.6241 58.87780000000021L48.56960000000004 61.052000000000135L49.72829999999999 62.100400000000036L50.177200000000084 63.61880000000019L50.244899999999916 64.64720000000011L50.1579999999999 65.84990000000016L49.553100000000086 66.8932000000002L49.63339999999994 69.3552000000002L46.63519999999994 70.55930000000012L43.031400000000076 70.82500000000005L40.61480000000006 70.32920000000013L41.141200000000026 69.77280000000019L40.8741 69.04080000000022L40.32210000000009 68.47270000000003L38.84529999999995 67.92370000000005L38.12799999999993 68.89820000000009L38.00369999999998 70.52270000000021L37.14390000000003 71.35170000000016L35.62419999999997 70.8932000000002L34.854699999999866 70.99330000000009L34.247699999999895 70.48680000000013L33.93709999999987 69.34720000000016L32.12989999999991 68.78480000000013L30.7041999999999 67.51180000000022L31.172900000000027 66.09190000000012L30.53710000000001 65.25030000000015L30.59199999999987 64.49480000000017L29.392000000000053 64.39330000000018L28.715400000000045 63.95450000000005L28.029399999999896 64.93390000000022L26.629400000000032 65.6708000000001L26.633599999999888 66.47880000000009L24.74720000000002 66.5748000000001L23.149599999999964 67.58220000000006L24.027599999999893 69.27080000000001L21.994500000000016 69.11430000000018L20.02170000000001 69.62310000000002L17.98149999999987 69.5735000000002L17.224199999999882 68.61790000000019L16.297700000000077 69.30440000000021L16.83330000000001 71.24680000000012L15.054200000000037 73.41560000000004L12.69620000000009 74.79130000000009L12.238299999999981 75.91510000000017L11.057299999999941 75.50290000000018z">
      <title id="t455">Sixième circonscription du Var</title>
      <desc id="d455">Cantons de : Le Beausset, Brignoles, Cuers, La Roquebrussanne, Saint-Maximin-la-Sainte-Beaume</desc>
    </path><path class="circo" id="id-083-07" d="M7.978399999999965 79.1431L7.76949999999988 78.81410000000005L5.864499999999907 78.53070000000002L6.068899999999985 76.59910000000013L6.925700000000006 75.9965000000002L7.095499999999902 75.31760000000008L7.466300000000047 75.26340000000005L9.163099999999986 75.87560000000008L9.334100000000035 75.94550000000004L11.057299999999941 75.50290000000018L12.238299999999981 75.91510000000017L13.531500000000051 75.99070000000006L13.665199999999913 77.16790000000015L14.371399999999994 78.0499000000002L14.11909999999989 80.4090000000001L16.346000000000004 80.2827000000002L19.43990000000008 80.78760000000011L19.418099999999868 82.30420000000004L21.275699999999915 82.78330000000005L21.383800000000065 83.16560000000004L20.320400000000063 84.80980000000022L20.992500000000064 85.24000000000001L21.972500000000082 84.64350000000013L23.046699999999873 85.0322000000001L23.779700000000048 84.71500000000015L24.510500000000093 85.02100000000019L24.779999999999973 85.32120000000009L24.917199999999866 85.70130000000017L24.84809999999993 86.09980000000019L24.557999999999993 86.38010000000008L23.383499999999913 86.14240000000018L21.847500000000082 86.62260000000015L20.965799999999945 85.88300000000004L20.37279999999987 85.37530000000015L19.59719999999993 85.52470000000017L18.35030000000006 86.55570000000012L17.311899999999923 88.72700000000009L16.176400000000058 88.68480000000022L15.866700000000037 88.94580000000019L14.711299999999937 88.61620000000016L13.415299999999888 87.10290000000009L11.97180000000003 86.37920000000008L11.80860000000007 86.0110000000002L12.575900000000047 85.08640000000014L13.01319999999987 83.52540000000022L12.832100000000082 82.74480000000017L13.242099999999937 82.04700000000003L12.779700000000048 80.95420000000013L11.634000000000015 81.16500000000019L9.705600000000004 80.8284000000001L10.443099999999959 79.03580000000011L9.640499999999975 78.24120000000016L7.978399999999965 79.1431z">
      <title id="t456">Septième circonscription du Var</title>
      <desc id="d456">Cantons de : Saint-Mandrier-sur-Mer, La Seyne-sur-Mer, Six-Fours-les-Plages, communes de Sanary-sur-Mer et Bandol</desc>
    </path><path class="circo" id="id-083-08" d="M48.2192 0.84050000000002L47.07050000000004 1.0968000000000302L45.17599999999993 3.630500000000211L44.81659999999988 4.870000000000118L43.537599999999884 6.500500000000102L41.11449999999991 8.16540000000009L40.09609999999998 8.26150000000007L38.58660000000009 7.207800000000134L37.26319999999987 9.106100000000197L36.837999999999965 9.181500000000142L36.96810000000005 9.555200000000013L36.47119999999995 10.62980000000016L35.147199999999884 12.007600000000139L34.44620000000009 12.099900000000162L33.96980000000008 12.579000000000178L33.54539999999997 12.8579000000002L32.10500000000002 13.44580000000019L32.45939999999996 14.987900000000081L31.01019999999994 16.316400000000158L30.113900000000058 15.486300000000028L29.5166999999999 13.965800000000172L28.123199999999997 13.127300000000105L27.847999999999956 10.884800000000041L27.05729999999994 10.83680000000004L26.24090000000001 9.927000000000135L25.070799999999963 10.056600000000117L24.40650000000005 9.586900000000014L24.026100000000042 8.88740000000007L24.209800000000087 8.091300000000047L23.913999999999987 6.900900000000092L22.865600000000086 6.414700000000039L22.8436999999999 6.005900000000111L22.588600000000042 5.820500000000038L21.087600000000066 6.380600000000186L20.92969999999991 8.412200000000212L19.695400000000063 9.488500000000158L18.535900000000083 9.885600000000068L16.901000000000067 9.861900000000105L16.33089999999993 10.451300000000174L15.820899999999938 8.489300000000185L14.866899999999987 7.183700000000044L10.576299999999947 6.042000000000144L8.535399999999981 9.130300000000034L8.22239999999988 9.69340000000011L9.820699999999988 9.980400000000145L10.808700000000044 10.664400000000114L10.739399999999932 11.856400000000122L11.195899999999938 12.974500000000035L13.288299999999936 13.875800000000027L12.551699999999983 14.872900000000072L12.094699999999875 17.29860000000008L9.619599999999991 17.236400000000003L5.274699999999939 18.4842000000001L4.507200000000012 19.445600000000013L3.7128999999999905 19.34310000000005L2.0370000000000346 23.05910000000017L2.7784999999998945 25.81820000000016L2.6059000000000196 26.189400000000205L0 27.237500000000182L1.0535999999999603 28.48570000000018L2.955400000000054 28.638200000000097L4.230800000000045 29.471900000000005L5.095399999999927 30.06230000000005L5.793300000000045 30.053700000000163L6.506599999999935 29.750100000000202L8.28469999999993 30.599800000000187L9.826499999999896 30.88630000000012L10.75890000000004 31.596900000000005L13.45959999999991 30.96460000000002L14.514699999999948 30.40800000000013L15.594800000000077 31.036200000000008L16.65840000000003 34.0154L16.587099999999964 36.4058L17.72180000000003 37.4661000000001L20.440399999999954 37.45180000000005L21.86259999999993 36.7659000000001L22.822799999999916 37.178100000000086L22.434099999999944 38.739500000000135L22.566900000000032 39.52690000000007L21.880100000000084 41.827200000000175L26.073000000000093 42.9041000000002L28.14390000000003 44.108000000000175L28.166500000000042 42.450000000000045L28.955799999999954 39.66080000000011L30.253099999999904 40.47380000000021L32.58310000000006 41.02850000000012L34.16560000000004 40.72180000000003L34.91650000000004 39.83790000000022L35.98890000000006 40.38810000000012L37.92169999999987 40.7487000000001L38.97630000000004 40.273800000000165L39.88830000000007 42.378600000000006L40.64599999999996 42.10410000000002L41.25610000000006 42.586900000000014L44.83349999999996 42.27970000000005L45.42489999999998 42.804400000000214L45.81230000000005 42.67780000000016L46.14249999999993 41.939600000000155L49.13729999999987 40.76420000000007L47.12660000000005 39.43210000000022L46.99430000000007 37.45840000000021L47.36650000000009 36.7320000000002L48.32770000000005 37.42240000000015L49.11459999999988 37.48630000000003L49.25610000000006 38.267500000000155L49.58770000000004 38.48680000000013L49.975200000000086 38.57140000000004L50.57230000000004 38.05800000000022L52.02039999999988 38.527300000000196L53.56310000000008 38.53370000000018L53.863000000000056 38.27300000000014L53.82749999999987 37.17850000000021L54.95190000000002 36.10720000000015L55.49109999999996 34.628200000000106L56.88629999999989 34.03690000000006L60.071899999999914 34.542900000000145L60.75839999999994 34.129900000000134L62.42470000000003 35.280300000000125L63.60660000000007 35.52880000000005L63.784400000000005 35.162900000000036L65.75970000000007 36.49090000000001L66.04219999999987 36.427200000000084L67.47160000000008 35.83860000000004L67.43489999999997 36.610600000000204L68.07210000000009 37.065900000000056L72.24540000000002 38.08530000000019L73.52960000000007 38.40430000000015L76.58439999999996 37.44780000000014L79.3701000000001 37.09220000000005L79.23350000000005 35.11760000000004L78.22379999999998 33.36990000000014L78.54369999999994 32.646400000000085L79.26299999999992 32.562000000000126L80.11449999999991 31.237500000000182L82.52359999999999 31.488800000000083L83.59109999999987 32.05350000000021L83.89539999999988 31.866900000000214L84.07670000000007 30.831800000000158L86.23900000000003 29.777900000000045L88.62519999999995 30.09990000000016L91.39730000000009 29.957300000000032L92.38089999999988 29.28150000000005L93.64280000000008 30.11180000000013L94.8092999999999 30.352600000000166L95.19599999999991 30.918300000000045L95.35059999999999 30.568700000000035L96.04849999999988 30.591700000000174L96.82850000000008 28.570200000000114L98.90269999999987 29.641700000000128L100.80999999999995 31.646600000000035L101.60899999999992 31.601200000000063L102.52289999999994 32.3284000000001L103.89120000000003 32.26060000000007L104.56989999999996 29.98920000000021L105.83359999999993 28.531200000000126L106.22890000000007 28.54340000000002L106.33040000000005 27.74640000000022L105.6911 26.314100000000053L106.68399999999997 24.532300000000077L105.19470000000001 23.04230000000007L104.2802999999999 23.573500000000195L102.66969999999992 23.731000000000222L101.99459999999999 23.355200000000195L101.68309999999997 23.58530000000019L100.4511 22.7170000000001L100.19749999999999 22.078500000000076L99.25659999999993 21.613800000000083L98.31950000000006 20.848900000000185L97.15329999999994 21.00830000000019L96.29320000000007 19.244300000000067L95.0438999999999 17.33750000000009L94.27590000000009 17.23090000000002L93.86079999999993 16.59810000000016L94.06099999999992 14.584600000000137L94.36979999999994 13.814600000000155L95.01430000000005 13.311800000000176L94.29109999999991 10.233700000000226L93.53240000000005 9.312800000000152L93.26819999999998 8.13650000000007L89.72270000000003 7.844100000000026L89.65190000000007 7.057400000000143L89.06410000000005 6.503000000000156L87.57349999999997 5.8922000000000025L87.17349999999988 5.8151000000000295L85.04520000000002 6.858600000000024L84.72289999999998 5.213100000000168L83.7213999999999 4.567600000000084L83.99219999999991 3.503800000000183L83.37729999999988 3.0639000000001033L83.25780000000009 2.1228000000000975L82.54019999999991 1.7970000000000255L82.16270000000009 0.29740000000015243L79.05150000000003 0.1951000000001386L78.56410000000005 1.039600000000064L76.25999999999999 2.7723000000000866L75.58120000000008 3.6971000000000913L75.19419999999991 3.6787000000001626L75.48049999999989 2.901500000000169L75.17270000000008 1.7028999999999996L74.93110000000001 1.3610000000001037L73.39650000000006 0L70.57889999999998 1.7298000000000684L69.11110000000008 1.1165000000000873L67.99469999999997 1.6307000000001608L66.46239999999989 1.0872000000001663L66.14910000000009 1.7778000000000702L64.51099999999997 1.993800000000192L64.25060000000008 5.2654L61.7645 8.538800000000037L61.37110000000007 7.9582000000000335L60.73700000000008 7.574900000000071L59.296800000000076 8.294400000000223L57.14650000000006 7.151800000000094L55.75209999999993 5.671500000000151L51.925199999999904 3.3477000000000317L51.017900000000054 1.104300000000194L50.381799999999885 0.6357000000000426L48.2192 0.84050000000002z">
      <title id="t457">Huitième circonscription du Var</title>
      <desc id="d457">Cantons de : Aups, Barjols, Callas, Comps-sur-Artuby, Cotignac, Draguignan, Fayence, Rians, Salernes, Tavernes</desc>
    </path></svg>