<svg xmlns="http://www.w3.org/2000/svg" version="1.1" xmlns:xlink="http://www.w3.org/1999/xlink" xmlns:svgjs="http://svgjs.dev/svgjs" viewBox="0 0 94.20579999999995 91.20790999999986"><path class="circo" id="id-084-01" d="M21.580799999999954 64.25241000000005L19.74389999999994 62.61340999999993L17.488799999999856 61.524310000000014L13.76299999999992 61.11360999999988L10.585800000000063 60.48040999999989L7.650200000000041 59.95801000000006L8.533400000000029 59.085109999999986L10.899599999999964 58.29030999999986L12.148599999999988 56.62880999999993L14.051600000000008 55.16400999999996L13.695400000000063 53.600310000000036L13.932399999999916 52.40831000000003L16.31029999999987 52.65490999999997L16.684600000000046 51.51180999999997L17.213600000000042 52.27740999999992L18.332300000000032 52.21230999999989L20.002199999999903 53.12420999999995L19.967899999999872 56.57020999999986L22.861799999999903 56.43710999999985L23.324100000000044 56.67901000000006L22.981700000000046 60.93050999999991L23.951099999999997 61.547109999999975L23.64059999999995 62.174510000000055L22.877299999999877 62.96731L23.20119999999997 64.35970999999995L21.580799999999954 64.25241000000005z">
      <title id="t458">Première circonscription du Vaucluse</title>
      <desc id="d458">Cantons de : Avignon Est, Avignon Nord, Avignon Ouest, Avignon Sud</desc>
    </path><path class="circo" id="id-084-02" d="M52.57439999999997 68.23510999999985L52.330999999999904 69.3146099999999L51.3744999999999 69.8952099999999L50.64859999999999 69.91790999999989L48.87469999999985 68.18040999999994L48.07140000000004 67.97510999999986L45.83929999999987 67.50410999999986L44.906999999999925 67.25431000000003L43.98849999999993 66.99971000000005L43.771799999999985 62.925309999999854L44.01859999999988 60.09380999999985L43.90159999999992 58.87391000000002L43.371399999999994 57.813609999999926L43.40789999999993 56.90050999999994L40.96329999999989 56.1896099999999L40.1860999999999 56.132409999999936L39.61869999999999 55.60270999999989L38.05989999999997 55.61301000000003L37.203399999999874 56.27490999999986L36.25499999999988 55.31851000000006L35.67660000000001 55.192710000000034L35.13879999999995 56.23320999999987L33.57359999999994 57.488110000000006L31.975799999999936 57.345710000000054L30.460000000000036 57.23140999999987L29.666500000000042 55.469010000000026L27.809499999999844 54.78630999999996L26.33569999999986 54.27100999999993L25.661299999999983 53.98840999999993L24.859899999999925 54.65120999999999L23.791099999999915 54.81311000000005L22.51149999999984 55.721610000000055L22.861799999999903 56.43710999999985L23.324100000000044 56.67901000000006L22.981700000000046 60.93050999999991L23.951099999999997 61.547109999999975L23.64059999999995 62.174510000000055L22.877299999999877 62.96731L23.20119999999997 64.35970999999995L23.923299999999927 64.64180999999985L27.25109999999995 66.36651000000006L29.108199999999897 68.6090099999999L29.630999999999858 69.30020999999988L32.1869999999999 71.21780999999987L32.83590000000004 72.21240999999986L33.4538 73.81910999999991L33.922599999999875 75.79460999999992L37.53729999999996 77.86841000000004L40.35259999999994 79.44091000000003L41.62799999999993 80.14180999999985L45.66339999999991 82.17620999999986L49.9233999999999 80.76860999999985L50.7032999999999 80.80781000000002L52.28009999999995 81.14960999999994L54.17449999999985 81.63121000000001L56.63189999999986 82.05160999999998L57.53430000000003 82.91371000000004L59.04589999999985 84.14450999999985L61.327 85.27161000000001L62.82230000000004 86.09481000000005L64.91229999999996 87.18530999999984L67.68159999999989 88.69200999999998L68.41010000000006 85.2231099999999L69.37279999999987 84.63070999999991L68.36480000000006 82.90490999999997L67.57510000000002 83.01810999999998L66.97019999999998 82.5121099999999L66.20270000000005 82.48730999999998L65.76279999999997 82.3753099999999L66.39729999999986 81.37060999999994L68.1105 80.3454099999999L70.02240000000006 80.17430999999988L70.21450000000004 78.04521L69.83819999999992 76.43290999999999L70.10249999999996 74.80120999999986L69.28980000000001 72.90710999999988L68.58780000000002 73.18750999999997L67.68090000000007 72.50691000000006L65.65459999999985 69.98840999999993L64.4493 70.26770999999985L64.1866 69.20171000000005L62.57420000000002 69.37330999999995L61.45779999999991 68.94070999999985L60.366199999999935 69.27071000000001L60.24039999999991 69.65950999999995L59.0175999999999 67.14180999999985L58.30140000000006 66.93160999999986L56.844299999999976 67.48920999999996L56.23890000000006 66.99811L56.93989999999985 66.6090099999999L56.278299999999945 64.84830999999986L55.29309999999987 66.12851L55.35459999999989 67.32771000000002L54.54539999999997 67.40391L52.57439999999997 68.23510999999985z">
      <title id="t459">Deuxième circonscription du Vaucluse</title>
      <desc id="d459">Cantons de : Bonnieux, Cadenet, Cavaillon, L'Isle-sur-la-Sorgue</desc>
    </path><path class="circo" id="id-084-03" d="M15.716300000000047 47.000009999999975L14.395600000000059 46.07840999999985L13.658500000000004 45.09470999999985L12.47869999999989 45.32750999999985L13.490199999999959 46.28961000000004L13.990099999999984 46.96750999999995L14.554899999999861 48.98020999999994L15.796599999999899 49.16330999999991L16.42190000000005 49.67911000000004L16.495300000000043 50.94150999999988L16.684600000000046 51.51180999999997L17.213600000000042 52.27740999999992L18.332300000000032 52.21230999999989L20.002199999999903 53.12420999999995L19.967899999999872 56.57020999999986L22.861799999999903 56.43710999999985L22.51149999999984 55.721610000000055L23.791099999999915 54.81311000000005L24.859899999999925 54.65120999999999L25.661299999999983 53.98840999999993L26.33569999999986 54.27100999999993L27.809499999999844 54.78630999999996L29.666500000000042 55.469010000000026L30.460000000000036 57.23140999999987L31.975799999999936 57.345710000000054L33.57359999999994 57.488110000000006L35.13879999999995 56.23320999999987L35.67660000000001 55.192710000000034L36.25499999999988 55.31851000000006L37.203399999999874 56.27490999999986L38.05989999999997 55.61301000000003L39.61869999999999 55.60270999999989L40.1860999999999 56.132409999999936L40.96329999999989 56.1896099999999L43.40789999999993 56.90050999999994L43.77340000000004 56.74801000000002L44.516399999999976 56.42080999999985L46.48720000000003 56.86360999999988L46.55160000000001 56.069009999999935L47.442999999999984 54.72361000000001L47.74429999999984 53.56871000000001L48.8261 53.01531L47.98969999999986 52.18441000000007L45.98779999999988 51.70811000000003L45.322599999999966 50.685309999999845L44.64909999999986 51.04331000000002L43.56759999999986 50.50490999999988L41.88040000000001 48.35931000000005L41.08439999999996 48.379109999999855L41.6706999999999 47.32761000000005L43.58789999999999 46.84340999999995L44.38480000000004 46.95371L45.65169999999989 46.67271000000005L45.06510000000003 45.62900999999988L44.08969999999999 44.94191000000001L43.37779999999998 43.49730999999997L44.05420000000004 41.625209999999925L43.35889999999995 40.649310000000014L42.69270000000006 40.9369099999999L40.85369999999989 40.89850999999999L39.791299999999865 41.24171000000001L38.48829999999998 41.61270999999988L36.77489999999989 42.65481L37.19489999999996 43.79701L36.32749999999987 43.85410999999999L35.130300000000034 44.252610000000004L34.22499999999991 44.315110000000004L33.52379999999994 44.51511000000005L31.93139999999994 45.772109999999884L31.123000000000047 43.93580999999995L29.767399999999952 44.24100999999996L29.106899999999996 42.86741000000006L28.039199999999937 43.292109999999866L24.934299999999894 44.60970999999995L24.60699999999997 42.63040999999998L24.145299999999907 42.02251000000001L22.61739999999986 38.74511000000007L19.273099999999886 37.572009999999864L19.24039999999991 37.16291000000001L18.840999999999894 37.072509999999966L16.605999999999995 38.80070999999998L16.22090000000003 39.519509999999855L16.191699999999855 41.55160999999998L18.340999999999894 44.13720999999987L18.13040000000001 46.73420999999985L15.716300000000047 47.000009999999975z">
      <title id="t460">Troisième circonscription du Vaucluse</title>
      <desc id="d460">Cantons de : Bédarrides, Carpentras Sud, Pernes-les-Fontaines</desc>
    </path><path class="circo" id="id-084-04" d="M27.3125 0L26.375 1.21875L25.75 1.1875L25.1875 1.78125L22.9061999999999 2.625L22.1875 4.125009999999975L22.343799999999874 4.968709999999987L21.9375 6.593709999999987L20.75 7.375009999999975L20.718799999999874 7.750009999999975L18.75 10.093709999999987L19.5625 10.062509999999975L20.9375 10.937509999999975L19.8125 12.437509999999975L20.5311999999999 13.812509999999975L20.4375 14.968709999999987L23.1875 14.406209999999987L28.125 15.781209999999987L28.718799999999874 16.312509999999975L29.1561999999999 13.937509999999975L29.593799999999874 13.281209999999987L30.968799999999874 12.406209999999987L30.593799999999874 11.437509999999975L31.6561999999999 10.187509999999975L31.968799999999874 8.187509999999975L34.343799999999874 7.750009999999975L35.8125 6.375009999999975L35.843799999999874 5.562509999999975L33.875 5.687509999999975L32.625 4.656209999999987L31.4061999999999 4.437509999999975L30.968799999999874 2.90625L31.343799999999874 2.71875L31.4375 1.65625L30.343799999999874 2.15625L28.875 0.8125L28.093799999999874 0.75L27.718799999999874 0.0625L27.3125 0zM0.125 11.906209999999987L0.34379999999987376 16.062509999999975L0.28119999999989886 16.500009999999975L0 18.968709999999987L0.21879999999987376 20.312509999999975L2.406199999999899 23.156209999999987L2.031199999999899 25.125009999999975L2.0937999999998738 25.562509999999975L2.781199999999899 25.937509999999975L4.3125 25.406209999999987L5.0625 25.718709999999987L5.218799999999874 26.500009999999975L4.656199999999899 27.593709999999987L5.031199999999899 28.312509999999975L6.125 28.750009999999975L6.031199999999899 29.937509999999975L5.718799999999874 30.156209999999874L5.8125 31.343709999999874L5.781199999999899 31.750009999999975L5.906199999999899 32.968709999999874L5.875 34.343709999999874L4.75 38.187509999999975L5.75 39.781209999999874L6 40.875009999999975L6.3125 41.593709999999874L6.6875 41.718709999999874L8.4375 40.687509999999975L9.25 40.593709999999874L9.4375 41.718709999999874L9.6875 42.125009999999975L11.718799999999874 43.375009999999975L11.75 44.500009999999975L12.468799999999874 45.312509999999975L13.656199999999899 45.093709999999874L14.406199999999899 46.093709999999874L15.718799999999874 47.000009999999975L18.125 46.718709999999874L18.343799999999874 44.125009999999975L16.1875 41.562509999999975L16.218799999999874 39.531209999999874L16.593799999999874 38.812509999999975L18.843799999999874 37.062509999999975L19.25 37.156209999999874L19.2811999999999 37.562509999999975L22.625 38.750009999999975L24.1875 36.500009999999975L25.593799999999874 35.718709999999874L25.75 33.343709999999874L27.0311999999999 34.187509999999975L28.5625 36.187509999999975L29.1561999999999 39.093709999999874L29.5311999999999 38.343709999999874L31.1561999999999 38.312509999999975L31.75 37.312509999999975L32.125 37.156209999999874L32.5311999999999 37.187509999999975L33.4061999999999 38.000009999999975L35.8125 38.406209999999874L35.1875 37.000009999999975L35.3125 35.875009999999975L35.875 35.343709999999874L37.0311999999999 35.312509999999975L37.6561999999999 35.625009999999975L39.593799999999874 34.375009999999975L41.093799999999874 34.375009999999975L41.6561999999999 34.937509999999975L41.9375 34.562509999999975L42.0311999999999 33.781209999999874L43.093799999999874 32.500009999999975L44.5 31.750009999999975L51.0311999999999 30.500009999999975L53.468799999999874 30.468709999999874L53.875 30.406209999999874L55.968799999999874 31.656209999999874L57.5625 32.093709999999874L57.593799999999874 32.093709999999874L60 32.031209999999874L61.3125 32.687509999999975L62.4061999999999 32.625009999999975L62.6875 29.781209999999874L62.25 28.218709999999874L62.4061999999999 27.437509999999975L62.5311999999999 27.187509999999975L61.843799999999874 26.718709999999987L60.0625 25.718709999999987L58.375 26.812509999999975L56.875 26.281209999999987L55.625 26.281209999999987L55.625 26.687509999999975L53.6875 24.968709999999987L51.625 23.750009999999975L50.968799999999874 23.625009999999975L50.2811999999999 23.656209999999987L50.0625 25.750009999999975L47.5625 25.593709999999987L44.75 24.843709999999987L44.093799999999874 24.312509999999975L42.593799999999874 23.125009999999975L42.75 22.781209999999987L43.5625 21.906209999999987L43.468799999999874 19.531209999999987L42.375 19.125009999999975L42.593799999999874 17.593709999999987L43.9061999999999 16.687509999999975L44.2811999999999 15.593709999999987L44.5311999999999 14.468709999999987L44.1875 13.781209999999987L43.968799999999874 13.687509999999975L42.843799999999874 14.250009999999975L42.5311999999999 15.375009999999975L39.1561999999999 17.750009999999975L37.1875 17.343709999999987L36.343799999999874 17.343709999999987L34.968799999999874 14.468709999999987L32.343799999999874 15.687509999999975L31.2811999999999 16.375009999999975L30.0311999999999 17.093709999999987L28.9375 17.156209999999987L27.4375 17.906209999999987L24.968799999999874 19.125009999999975L24.125 19.937509999999975L21.093799999999874 20.375009999999975L21.4375 19.687509999999975L19.6561999999999 20.000009999999975L17.6875 21.875009999999975L14.968799999999874 23.937509999999975L13.968799999999874 23.468709999999987L13.875 22.343709999999987L13.906199999999899 20.437509999999975L13.156199999999899 19.093709999999987L13.218799999999874 18.093709999999987L13.218799999999874 15.000009999999975L12.468799999999874 14.843709999999987L11.218799999999874 13.375009999999975L10.4375 13.375009999999975L9.6875 12.468709999999987L6.156199999999899 12.281209999999987L5.468799999999874 12.593709999999987L5.4375 13.000009999999975L2.625 13.000009999999975L0.125 11.906209999999987z">
      <title id="t461">Quatrième circonscription du Vaucluse</title>
      <desc id="d461">Cantons de : Beaumes-de-Venise, Bollène, Malaucène, Orange Est, Orange Ouest, Vaison-la-Romaine, Valréas</desc>
    </path><path class="circo" id="id-084-05" d="M58.30140000000006 66.93160999999986L56.844299999999976 67.48920999999996L56.23890000000006 66.99811L56.93989999999985 66.6090099999999L56.278299999999945 64.84830999999986L55.29309999999987 66.12851L55.35459999999989 67.32771000000002L54.54539999999997 67.40391L52.57439999999997 68.23510999999985L52.330999999999904 69.3146099999999L51.3744999999999 69.8952099999999L50.64859999999999 69.91790999999989L48.87469999999985 68.18040999999994L48.07140000000004 67.97510999999986L45.83929999999987 67.50410999999986L44.906999999999925 67.25431000000003L43.98849999999993 66.99971000000005L43.771799999999985 62.925309999999854L44.01859999999988 60.09380999999985L43.90159999999992 58.87391000000002L43.371399999999994 57.813609999999926L43.40789999999993 56.90050999999994L43.77340000000004 56.74801000000002L44.516399999999976 56.42080999999985L46.48720000000003 56.86360999999988L46.55160000000001 56.069009999999935L47.442999999999984 54.72361000000001L47.74429999999984 53.56871000000001L48.8261 53.01531L47.98969999999986 52.18441000000007L45.98779999999988 51.70811000000003L45.322599999999966 50.685309999999845L44.64909999999986 51.04331000000002L43.56759999999986 50.50490999999988L41.88040000000001 48.35931000000005L41.08439999999996 48.379109999999855L41.6706999999999 47.32761000000005L43.58789999999999 46.84340999999995L44.38480000000004 46.95371L45.65169999999989 46.67271000000005L45.06510000000003 45.62900999999988L44.08969999999999 44.94191000000001L43.37779999999998 43.49730999999997L44.05420000000004 41.625209999999925L43.35889999999995 40.649310000000014L42.69270000000006 40.9369099999999L40.85369999999989 40.89850999999999L39.791299999999865 41.24171000000001L38.48829999999998 41.61270999999988L36.77489999999989 42.65481L37.19489999999996 43.79701L36.32749999999987 43.85410999999999L35.130300000000034 44.252610000000004L34.22499999999991 44.315110000000004L33.52379999999994 44.51511000000005L31.93139999999994 45.772109999999884L31.123000000000047 43.93580999999995L29.767399999999952 44.24100999999996L29.106899999999996 42.86741000000006L28.039199999999937 43.292109999999866L24.934299999999894 44.60970999999995L24.60699999999997 42.63040999999998L24.145299999999907 42.02251000000001L22.61739999999986 38.74511000000007L24.190900000000056 36.49820999999997L25.58479999999986 35.72020999999995L25.751899999999978 33.33671000000004L27.020999999999958 34.191609999999855L28.54859999999985 36.17281000000003L29.151100000000042 39.08211000000006L29.521099999999933 38.34861000000001L31.14740000000006 38.302709999999934L31.753400000000056 37.32051000000001L32.134399999999914 37.16831000000002L32.54520000000002 37.181010000000015L33.3916999999999 38.01310999999987L35.80619999999999 38.41510999999991L35.1724999999999 37.012809999999945L35.3273999999999 35.87921000000006L35.866199999999935 35.34640999999988L37.04669999999987 35.31151L37.6576 35.63590999999997L39.59870000000001 34.37180999999987L41.096000000000004 34.38140999999996L41.642900000000054 34.94430999999986L41.95119999999997 34.54961000000003L42.02129999999988 33.7666099999999L43.08240000000001 32.50590999999986L44.50739999999996 31.751309999999876L51.01739999999995 30.486310000000003L53.47129999999993 30.471610000000055L53.87439999999992 30.392609999999877L55.970800000000054 31.66480999999999L57.54989999999998 32.097710000000006L57.59199999999987 32.108510000000024L59.98759999999993 32.03681000000006L61.32069999999999 32.679709999999886L62.4070999999999 32.61751000000004L63.572400000000016 32.966609999999946L65.17759999999998 32.69250999999986L66.1739 33.34391000000005L66.87099999999987 32.977210000000014L67.09310000000005 34.569209999999885L67.87529999999992 34.81221000000005L68.04039999999986 36.31131000000005L68.48260000000005 36.88810999999987L72.22879999999986 37.303609999999935L72.17589999999996 42.34841000000006L72.55600000000004 43.48971000000006L73.78839999999991 43.49171000000001L76.12279999999987 42.72730999999999L75.97569999999996 48.10140999999999L73.99530000000004 51.69870999999989L73.45129999999995 54.13851L73.00949999999989 55.97580999999991L73.40920000000006 57.4396099999999L74.84789999999998 57.36680999999999L76.15629999999987 58.18911000000003L78.08079999999995 57.76590999999985L79.41959999999995 60.92040999999995L81.38969999999995 60.900409999999965L80.00669999999991 64.30380999999988L78.51469999999995 67.10150999999996L77.54489999999987 67.81390999999985L76.46709999999985 68.93361000000004L76.13840000000005 72.51000999999997L76.66089999999986 72.53331000000003L77.75479999999993 72.14240999999993L78.42809999999986 71.13440999999989L80.77949999999987 71.3889099999999L83.18509999999992 70.95631000000003L83.49890000000005 71.21930999999995L84.82019999999989 71.50990999999999L85.46010000000001 71.62690999999995L85.91550000000007 72.73380999999995L87.16329999999994 73.71801000000005L87.99759999999992 75.82691L88.90740000000005 76.44420999999988L89.78700000000003 76.98120999999992L90.48479999999995 76.80800999999997L90.71569999999997 79.65530999999987L93.41390000000001 81.47280999999998L94.20579999999995 82.89350999999988L93.89279999999985 83.45660999999996L92.55240000000003 84.40530999999987L90.35459999999989 87.45210999999995L87.87210000000005 87.19551000000001L87.04690000000005 87.11561000000006L85.69029999999998 88.06340999999998L84.35310000000004 89.64471000000003L82.8596 90.33110999999985L81.42239999999993 91.20790999999986L78.58999999999992 90.82051000000001L76.56719999999996 91.08260999999993L74.92509999999993 91.14391L71.31870000000004 90.15490999999997L67.68159999999989 88.69200999999998L68.41010000000006 85.2231099999999L69.37279999999987 84.63070999999991L68.36480000000006 82.90490999999997L67.57510000000002 83.01810999999998L66.97019999999998 82.5121099999999L66.20270000000005 82.48730999999998L65.76279999999997 82.3753099999999L66.39729999999986 81.37060999999994L68.1105 80.3454099999999L70.02240000000006 80.17430999999988L70.21450000000004 78.04521L69.83819999999992 76.43290999999999L70.10249999999996 74.80120999999986L69.28980000000001 72.90710999999988L68.58780000000002 73.18750999999997L67.68090000000007 72.50691000000006L65.65459999999985 69.98840999999993L64.4493 70.26770999999985L64.1866 69.20171000000005L62.57420000000002 69.37330999999995L61.45779999999991 68.94070999999985L60.366199999999935 69.27071000000001L60.24039999999991 69.65950999999995L59.0175999999999 67.14180999999985L58.30140000000006 66.93160999999986z">
      <title id="t462">Cinquième circonscription du Vaucluse</title>
      <desc id="d462">Cantons de : Apt, Carpentras Nord, Gordes, Mormoiron, Pertuis, Sault</desc>
    </path></svg>