<svg xmlns="http://www.w3.org/2000/svg" version="1.1" xmlns:xlink="http://www.w3.org/1999/xlink" xmlns:svgjs="http://svgjs.dev/svgjs" viewBox="1052.0297 995.94829 94.20579999999995 91.20790999999986"><path class="circo" id="id-084-01" d="M 1073.6105,1060.2007 1071.7736,1058.5617 1069.5185,1057.4726 1065.7927,1057.0619 1062.6155,1056.4287 1059.6799,1055.9063 1060.5631,1055.0334 1062.9293,1054.2386 1064.1783,1052.5771 1066.0813,1051.1123 1065.7251,1049.5486 1065.9621,1048.3566 1068.34,1048.6032 1068.7143,1047.4601 1069.2433,1048.2257 1070.362,1048.1606 1072.0319,1049.0725 1071.9976,1052.5185 1074.8915,1052.3854 1075.3538,1052.6273 1075.0114,1056.8788 1075.9808,1057.4954 1075.6703,1058.1228 1074.907,1058.9156 1075.2309,1060.308 1073.6105,1060.2007 z">
      <title id="t458">Première circonscription du Vaucluse</title>
      <desc id="d458">Cantons de : Avignon Est, Avignon Nord, Avignon Ouest, Avignon Sud</desc>
    </path><path class="circo" id="id-084-02" d="M 1104.6041,1064.1834 1104.3607,1065.2629 1103.4042,1065.8435 1102.6783,1065.8662 1100.9044,1064.1287 1100.1011,1063.9234 1097.869,1063.4524 1096.9367,1063.2026 1096.0182,1062.948 1095.8015,1058.8736 1096.0483,1056.0421 1095.9313,1054.8222 1095.4011,1053.7619 1095.4376,1052.8488 1092.993,1052.1379 1092.2158,1052.0807 1091.6484,1051.551 1090.0896,1051.5613 1089.2331,1052.2232 1088.2847,1051.2668 1087.7063,1051.141 1087.1685,1052.1815 1085.6033,1053.4364 1084.0055,1053.294 1082.4897,1053.1797 1081.6962,1051.4173 1079.8392,1050.7346 1078.3654,1050.2193 1077.691,1049.9367 1076.8896,1050.5995 1075.8208,1050.7614 1074.5412,1051.6699 1074.8915,1052.3854 1075.3538,1052.6273 1075.0114,1056.8788 1075.9808,1057.4954 1075.6703,1058.1228 1074.907,1058.9156 1075.2309,1060.308 1075.953,1060.5901 1079.2808,1062.3148 1081.1379,1064.5573 1081.6607,1065.2485 1084.2167,1067.1661 1084.8656,1068.1607 1085.4835,1069.7674 1085.9523,1071.7429 1089.567,1073.8167 1092.3823,1075.3892 1093.6577,1076.0901 1097.6931,1078.1245 1101.9531,1076.7169 1102.733,1076.7561 1104.3098,1077.0979 1106.2042,1077.5795 1108.6616,1077.9999 1109.564,1078.862 1111.0756,1080.0928 1113.3567,1081.2199 1114.852,1082.0431 1116.942,1083.1336 1119.7113,1084.6403 1120.4398,1081.1714 1121.4025,1080.579 1120.3945,1078.8532 1119.6048,1078.9664 1118.9999,1078.4604 1118.2324,1078.4356 1117.7925,1078.3236 1118.427,1077.3189 1120.1402,1076.2937 1122.0521,1076.1226 1122.2442,1073.9935 1121.8679,1072.3812 1122.1322,1070.7495 1121.3195,1068.8554 1120.6175,1069.1358 1119.7106,1068.4552 1117.6843,1065.9367 1116.479,1066.216 1116.2163,1065.15 1114.6039,1065.3216 1113.4875,1064.889 1112.3959,1065.219 1112.2701,1065.6078 1111.0473,1063.0901 1110.3311,1062.8799 1108.874,1063.4375 1108.2686,1062.9464 1108.9696,1062.5573 1108.308,1060.7966 1107.3228,1062.0768 1107.3843,1063.276 1106.5751,1063.3522 1104.6041,1064.1834 z">
      <title id="t459">Deuxième circonscription du Vaucluse</title>
      <desc id="d459">Cantons de : Bonnieux, Cadenet, Cavaillon, L'Isle-sur-la-Sorgue</desc>
    </path><path class="circo" id="id-084-03" d="M 1067.746,1042.9483 1066.4253,1042.0267 1065.6882,1041.043 1064.5084,1041.2758 1065.5199,1042.2379 1066.0198,1042.9158 1066.5846,1044.9285 1067.8263,1045.1116 1068.4516,1045.6274 1068.525,1046.8898 1068.7143,1047.4601 1069.2433,1048.2257 1070.362,1048.1606 1072.0319,1049.0725 1071.9976,1052.5185 1074.8915,1052.3854 1074.5412,1051.6699 1075.8208,1050.7614 1076.8896,1050.5995 1077.691,1049.9367 1078.3654,1050.2193 1079.8392,1050.7346 1081.6962,1051.4173 1082.4897,1053.1797 1084.0055,1053.294 1085.6033,1053.4364 1087.1685,1052.1815 1087.7063,1051.141 1088.2847,1051.2668 1089.2331,1052.2232 1090.0896,1051.5613 1091.6484,1051.551 1092.2158,1052.0807 1092.993,1052.1379 1095.4376,1052.8488 1095.8031,1052.6963 1096.5461,1052.3691 1098.5169,1052.8119 1098.5813,1052.0173 1099.4727,1050.6719 1099.774,1049.517 1100.8558,1048.9636 1100.0194,1048.1327 1098.0175,1047.6564 1097.3523,1046.6336 1096.6788,1046.9916 1095.5973,1046.4532 1093.9101,1044.3076 1093.1141,1044.3274 1093.7004,1043.2759 1095.6176,1042.7917 1096.4145,1042.902 1097.6814,1042.621 1097.0948,1041.5773 1096.1194,1040.8902 1095.4075,1039.4456 1096.0839,1037.5735 1095.3886,1036.5976 1094.7224,1036.8852 1092.8834,1036.8468 1091.821,1037.19 1090.518,1037.561 1088.8046,1038.6031 1089.2246,1039.7453 1088.3572,1039.8024 1087.16,1040.2009 1086.2547,1040.2634 1085.5535,1040.4634 1083.9611,1041.7204 1083.1527,1039.8841 1081.7971,1040.1893 1081.1366,1038.8157 1080.0689,1039.2404 1076.964,1040.558 1076.6367,1038.5787 1076.175,1037.9708 1074.6471,1034.6934 1071.3028,1033.5203 1071.2701,1033.1112 1070.8707,1033.0208 1068.6357,1034.749 1068.2506,1035.4678 1068.2214,1037.4999 1070.3707,1040.0855 1070.1601,1042.6825 1067.746,1042.9483 z">
      <title id="t460">Troisième circonscription du Vaucluse</title>
      <desc id="d460">Cantons de : Bédarrides, Carpentras Sud, Pernes-les-Fontaines</desc>
    </path><path class="circo" id="id-084-04" d="M 1079.3422,995.94829 1078.4047,997.16704 1077.7797,997.13579 1077.2172,997.72954 1074.9359,998.57329 1074.2172,1000.0733 1074.3735,1000.917 1073.9672,1002.542 1072.7797,1003.3233 1072.7485,1003.6983 1070.7797,1006.042 1071.5922,1006.0108 1072.9672,1006.8858 1071.8422,1008.3858 1072.5609,1009.7608 1072.4672,1010.917 1075.2172,1010.3545 1080.1547,1011.7295 1080.7485,1012.2608 1081.1859,1009.8858 1081.6235,1009.2295 1082.9985,1008.3545 1082.6235,1007.3858 1083.6859,1006.1358 1083.9985,1004.1358 1086.3735,1003.6983 1087.8422,1002.3233 1087.8735,1001.5108 1085.9047,1001.6358 1084.6547,1000.6045 1083.4359,1000.3858 1082.9985,998.85454 1083.3735,998.66704 1083.4672,997.60454 1082.3735,998.10454 1080.9047,996.76079 1080.1235,996.69829 1079.7485,996.01079 1079.3422,995.94829 z M 1052.1547,1007.8545 1052.3735,1012.0108 1052.3109,1012.4483 1052.0297,1014.917 1052.2485,1016.2608 1054.4359,1019.1045 1054.0609,1021.0733 1054.1235,1021.5108 1054.8109,1021.8858 1056.3422,1021.3545 1057.0922,1021.667 1057.2485,1022.4483 1056.6859,1023.542 1057.0609,1024.2608 1058.1547,1024.6983 1058.0609,1025.8858 1057.7485,1026.1045 1057.8422,1027.292 1057.8109,1027.6983 1057.9359,1028.917 1057.9047,1030.292 1056.7797,1034.1358 1057.7797,1035.7295 1058.0297,1036.8233 1058.3422,1037.542 1058.7172,1037.667 1060.4672,1036.6358 1061.2797,1036.542 1061.4672,1037.667 1061.7172,1038.0733 1063.7485,1039.3233 1063.7797,1040.4483 1064.4985,1041.2608 1065.6859,1041.042 1066.4359,1042.042 1067.7485,1042.9483 1070.1547,1042.667 1070.3735,1040.0733 1068.2172,1037.5108 1068.2485,1035.4795 1068.6235,1034.7608 1070.8735,1033.0108 1071.2797,1033.1045 1071.3109,1033.5108 1074.6547,1034.6983 1076.2172,1032.4483 1077.6235,1031.667 1077.7797,1029.292 1079.0609,1030.1358 1080.5922,1032.1358 1081.1859,1035.042 1081.5609,1034.292 1083.1859,1034.2608 1083.7797,1033.2608 1084.1547,1033.1045 1084.5609,1033.1358 1085.4359,1033.9483 1087.8422,1034.3545 1087.2172,1032.9483 1087.3422,1031.8233 1087.9047,1031.292 1089.0609,1031.2608 1089.6859,1031.5733 1091.6235,1030.3233 1093.1235,1030.3233 1093.6859,1030.8858 1093.9672,1030.5108 1094.0609,1029.7295 1095.1235,1028.4483 1096.5297,1027.6983 1103.0609,1026.4483 1105.4985,1026.417 1105.9047,1026.3545 1107.9985,1027.6045 1109.5922,1028.042 1109.6235,1028.042 1112.0297,1027.9795 1113.3422,1028.6358 1114.4359,1028.5733 1114.7172,1025.7295 1114.2797,1024.167 1114.4359,1023.3858 1114.5609,1023.1358 1113.8735,1022.667 1112.0922,1021.667 1110.4047,1022.7608 1108.9047,1022.2295 1107.6547,1022.2295 1107.6547,1022.6358 1105.7172,1020.917 1103.6547,1019.6983 1102.9985,1019.5733 1102.3109,1019.6045 1102.0922,1021.6983 1099.5922,1021.542 1096.7797,1020.792 1096.1235,1020.2608 1094.6235,1019.0733 1094.7797,1018.7295 1095.5922,1017.8545 1095.4985,1015.4795 1094.4047,1015.0733 1094.6235,1013.542 1095.9359,1012.6358 1096.3109,1011.542 1096.5609,1010.417 1096.2172,1009.7295 1095.9985,1009.6358 1094.8735,1010.1983 1094.5609,1011.3233 1091.1859,1013.6983 1089.2172,1013.292 1088.3735,1013.292 1086.9985,1010.417 1084.3735,1011.6358 1083.3109,1012.3233 1082.0609,1013.042 1080.9672,1013.1045 1079.4672,1013.8545 1076.9985,1015.0733 1076.1547,1015.8858 1073.1235,1016.3233 1073.4672,1015.6358 1071.6859,1015.9483 1069.7172,1017.8233 1066.9985,1019.8858 1065.9985,1019.417 1065.9047,1018.292 1065.9359,1016.3858 1065.1859,1015.042 1065.2485,1014.042 1065.2485,1010.9483 1064.4985,1010.792 1063.2485,1009.3233 1062.4672,1009.3233 1061.7172,1008.417 1058.1859,1008.2295 1057.4985,1008.542 1057.4672,1008.9483 1054.6547,1008.9483 1052.1547,1007.8545 z">
      <title id="t461">Quatrième circonscription du Vaucluse</title>
      <desc id="d461">Cantons de : Beaumes-de-Venise, Bollène, Malaucène, Orange Est, Orange Ouest, Vaison-la-Romaine, Valréas</desc>
    </path><path class="circo" id="id-084-05" d="M 1110.3311,1062.8799 1108.874,1063.4375 1108.2686,1062.9464 1108.9696,1062.5573 1108.308,1060.7966 1107.3228,1062.0768 1107.3843,1063.276 1106.5751,1063.3522 1104.6041,1064.1834 1104.3607,1065.2629 1103.4042,1065.8435 1102.6783,1065.8662 1100.9044,1064.1287 1100.1011,1063.9234 1097.869,1063.4524 1096.9367,1063.2026 1096.0182,1062.948 1095.8015,1058.8736 1096.0483,1056.0421 1095.9313,1054.8222 1095.4011,1053.7619 1095.4376,1052.8488 1095.8031,1052.6963 1096.5461,1052.3691 1098.5169,1052.8119 1098.5813,1052.0173 1099.4727,1050.6719 1099.774,1049.517 1100.8558,1048.9636 1100.0194,1048.1327 1098.0175,1047.6564 1097.3523,1046.6336 1096.6788,1046.9916 1095.5973,1046.4532 1093.9101,1044.3076 1093.1141,1044.3274 1093.7004,1043.2759 1095.6176,1042.7917 1096.4145,1042.902 1097.6814,1042.621 1097.0948,1041.5773 1096.1194,1040.8902 1095.4075,1039.4456 1096.0839,1037.5735 1095.3886,1036.5976 1094.7224,1036.8852 1092.8834,1036.8468 1091.821,1037.19 1090.518,1037.561 1088.8046,1038.6031 1089.2246,1039.7453 1088.3572,1039.8024 1087.16,1040.2009 1086.2547,1040.2634 1085.5535,1040.4634 1083.9611,1041.7204 1083.1527,1039.8841 1081.7971,1040.1893 1081.1366,1038.8157 1080.0689,1039.2404 1076.964,1040.558 1076.6367,1038.5787 1076.175,1037.9708 1074.6471,1034.6934 1076.2206,1032.4465 1077.6145,1031.6685 1077.7816,1029.285 1079.0507,1030.1399 1080.5783,1032.1211 1081.1808,1035.0304 1081.5508,1034.2969 1083.1771,1034.251 1083.7831,1033.2688 1084.1641,1033.1166 1084.5749,1033.1293 1085.4214,1033.9614 1087.8359,1034.3634 1087.2022,1032.9611 1087.3571,1031.8275 1087.8959,1031.2947 1089.0764,1031.2598 1089.6873,1031.5842 1091.6284,1030.3201 1093.1257,1030.3297 1093.6726,1030.8926 1093.9809,1030.4979 1094.051,1029.7149 1095.1121,1028.4542 1096.5371,1027.6996 1103.0471,1026.4346 1105.501,1026.4199 1105.9041,1026.3409 1108.0005,1027.6131 1109.5796,1028.046 1109.6217,1028.0568 1112.0173,1027.9851 1113.3504,1028.628 1114.4368,1028.5658 1115.6021,1028.9149 1117.2073,1028.6408 1118.2036,1029.2922 1118.9007,1028.9255 1119.1228,1030.5175 1119.905,1030.7605 1120.0701,1032.2596 1120.5123,1032.8364 1124.2585,1033.2519 1124.2056,1038.2967 1124.5857,1039.438 1125.8181,1039.44 1128.1525,1038.6756 1128.0054,1044.0497 1126.025,1047.647 1125.481,1050.0868 1125.0392,1051.9241 1125.4389,1053.3879 1126.8776,1053.3151 1128.186,1054.1374 1130.1105,1053.7142 1131.4493,1056.8687 1133.4194,1056.8487 1132.0364,1060.2521 1130.5444,1063.0498 1129.5746,1063.7622 1128.4968,1064.8819 1128.1681,1068.4583 1128.6906,1068.4816 1129.7845,1068.0907 1130.4578,1067.0827 1132.8092,1067.3372 1135.2148,1066.9046 1135.5286,1067.1676 1136.8499,1067.4582 1137.4898,1067.5752 1137.9452,1068.6821 1139.193,1069.6663 1140.0273,1071.7752 1140.9371,1072.3925 1141.8167,1072.9295 1142.5145,1072.7563 1142.7454,1075.6036 1145.4436,1077.4211 1146.2355,1078.8418 1145.9225,1079.4049 1144.5821,1080.3536 1142.3843,1083.4004 1139.9018,1083.1438 1139.0766,1083.0639 1137.72,1084.0117 1136.3828,1085.593 1134.8893,1086.2794 1133.4521,1087.1562 1130.6197,1086.7688 1128.5969,1087.0309 1126.9548,1087.0922 1123.3484,1086.1032 1119.7113,1084.6403 1120.4398,1081.1714 1121.4025,1080.579 1120.3945,1078.8532 1119.6048,1078.9664 1118.9999,1078.4604 1118.2324,1078.4356 1117.7925,1078.3236 1118.427,1077.3189 1120.1402,1076.2937 1122.0521,1076.1226 1122.2442,1073.9935 1121.8679,1072.3812 1122.1322,1070.7495 1121.3195,1068.8554 1120.6175,1069.1358 1119.7106,1068.4552 1117.6843,1065.9367 1116.479,1066.216 1116.2163,1065.15 1114.6039,1065.3216 1113.4875,1064.889 1112.3959,1065.219 1112.2701,1065.6078 1111.0473,1063.0901 1110.3311,1062.8799 z">
      <title id="t462">Cinquième circonscription du Vaucluse</title>
      <desc id="d462">Cantons de : Apt, Carpentras Nord, Gordes, Mormoiron, Pertuis, Sault</desc>
    </path></svg>