<svg xmlns="http://www.w3.org/2000/svg" version="1.1" xmlns:xlink="http://www.w3.org/1999/xlink" xmlns:svgjs="http://svgjs.dev/svgjs" viewBox="0 0 158.19835 101.25308000000007"><path class="circo" id="id-085-01" d="M38.002950000000055 15.716530000000034L38.702350000000024 17.17673000000002L37.81845000000004 18.635110000000054L37.870250000000055 20.267900000000054L39.30495000000002 23.29595000000006L39.10495000000003 23.675479999999993L38.55815000000001 24.09143000000006L36.42765000000003 24.579240000000027L33.20365000000004 26.79871000000003L31.92035000000004 26.963700000000017L31.52615000000003 27.745930000000044L31.653750000000002 29.207970000000046L31.400350000000003 29.49445000000003L32.33405000000005 30.663599999999974L32.67265000000003 30.504170000000045L33.521750000000054 29.494699999999966L35.65255000000002 29.535460000000057L37.07095000000004 30.479440000000068L40.104850000000056 30.494850000000042L40.83915000000002 30.94554000000005L41.13955000000004 31.98598000000004L41.94915000000003 32.60900000000004L42.79555000000005 32.693970000000036L44.49475000000001 34.58064999999999L46.15305000000001 34.68745000000001L47.70145000000002 35.31791999999996L47.679250000000025 36.50765000000001L49.31745000000001 36.23910000000001L51.32505000000003 34.80467999999996L52.437050000000056 37.73838999999998L52.56805000000003 38.575829999999996L53.24365 39.08220000000006L53.168750000000045 42.00125000000003L52.94505000000004 42.360610000000065L52.10305000000005 42.290899999999965L51.84405000000004 41.95535000000007L52.47385000000003 43.534959999999955L54.85645000000005 44.58186999999998L56.13655 44.73166000000003L58.144450000000006 43.90614000000005L58.579350000000034 43.88791000000003L59.75475000000006 45.165520000000015L59.93844999999999 46.852089999999976L62.00504999999998 49.08450000000005L62.524650000000065 49.01337000000001L64.22514999999999 47.97371999999996L64.92875000000004 46.53475000000003L66.81005000000005 45.61447999999996L68.36325 45.814340000000016L68.85825 46.525570000000016L68.85655000000008 47.80354999999997L68.15775000000008 50.73688000000004L70.69655 50.56876L71.24565000000007 52.11338999999998L72.72845000000007 52.89999L72.81925000000001 53.31698000000006L72.26225 53.95114000000001L72.49435000000005 54.77418L73.49945000000002 55.53013999999996L74.61935000000005 54.96880999999996L75.99385000000007 52.794719999999984L77.58455000000004 52.66913999999997L78.23525000000006 53.014850000000024L83.00075000000004 51.34693000000004L84.07805000000008 51.52678000000003L84.72205000000008 50.69155000000001L85.11795000000006 50.35244L87.70505000000003 48.65146000000004L87.99615000000006 48.69117000000006L88.83474999999999 48.565380000000005L90.41584999999998 49.05908999999997L91.48554999999999 48.30958999999996L92.68825000000004 48.15751999999998L93.10694999999998 47.417080000000055L94.37585000000001 47.126409999999964L94.66365000000008 46.844780000000014L94.54624999999999 45.809259999999995L96.24925000000007 46.081140000000005L97.85895000000005 46.00737000000004L98.02505000000008 46.81887000000006L98.83865000000003 46.98845000000006L99.88755000000003 48.269930000000045L101.86935000000005 49.17384000000004L102.83245 47.756939999999986L104.10475000000008 47.41993000000002L104.76295000000005 46.33553000000006L105.14965000000007 46.14621999999997L105.93765000000008 46.469040000000064L106.24385000000007 46.20920000000001L107.91155000000003 46.56511999999998L108.96125000000006 47.85238000000004L109.05804999999998 49.09206000000006L111.73795000000007 46.91519000000005L113.37144999999998 46.94234000000006L113.54145000000005 46.54132000000004L112.94655 45.439790000000016L111.99095 44.64970000000005L110.88115000000005 43.53334000000007L110.71285 42.328730000000064L110.37665000000004 42.10136L110.03705000000002 41.87185999999997L109.25835000000006 42.12170000000003L109.25495000000001 41.69011999999998L110.39595000000008 40.51533000000006L109.75125000000003 38.04150000000004L110.15764999999999 35.549870000000055L108.77274999999997 34.84416999999996L108.55505000000005 33.70780000000002L106.62835000000007 33.24014999999997L105.24775 33.79908999999998L104.10125000000005 34.962890000000016L102.45715000000007 34.69092999999998L102.17225000000008 33.92789000000005L101.76945 33.80493000000001L100.55804999999998 33.25828999999999L99.58375000000001 31.884599999999978L99.23615000000007 32.04785000000004L99.13125000000002 33.322509999999966L97.03825000000006 33.661839999999984L96.19785000000002 33.45864000000006L95.05385000000001 35.30251999999996L93.81975 35.31047000000001L93.22145 34.713910000000055L92.03735000000006 34.96463000000006L91.29825000000005 34.615549999999985L90.92055000000005 34.30383000000006L90.54905000000008 34.10251000000005L90.25255000000004 32.868870000000015L90.74035000000003 31.745210000000043L89.78065000000004 31.006060000000048L86.55685000000005 28.074870000000033L85.55484999999999 26.81239000000005L85.88855000000001 26.036879999999996L86.60604999999998 25.569690000000037L86.59145000000001 24.78098L86.89285000000007 23.519239999999968L88.80525 22.569420000000036L89.69695000000002 21.089630000000056L90.03965000000005 18.50502000000006L89.28115000000003 18.754609999999957L88.59595000000002 17.85292000000004L87.07445000000007 17.37719000000004L87.17275000000006 16.481290000000058L86.79615000000001 16.27096000000006L85.72095000000002 16.985599999999977L83.59615000000008 17.44354999999996L79.95635000000004 19.748280000000022L78.81155000000001 18.83328000000006L79.93685000000005 15.964609999999993L78.94465000000002 14.57316000000003L78.51215000000002 12.885639999999967L78.75935000000004 12.067139999999995L79.57515000000001 11.753240000000005L79.56524999999999 10.943579999999997L79.04745000000003 10.284009999999967L78.53595000000007 7.817390000000046L78.69304999999997 6.631129999999985L78.05495000000008 6.093860000000063L77.54635000000007 5.488439999999969L76.76405 5.336270000000013L76.42225000000008 5.438049999999976L74.70934999999997 7.311019999999985L73.49104999999997 7.58920999999998L71.77945 8.643770000000018L72.69815000000006 10.040950000000066L72.08285000000001 11.580400000000054L71.79584999999997 13.171320000000037L72.75755000000004 15.289470000000051L72.65615000000003 15.707560000000058L73.54354999999998 17.145470000000046L74.57035000000008 17.85665000000006L74.70985000000007 18.691749999999956L74.14665000000002 19.821969999999965L72.50465000000008 19.79322000000002L73.87425000000007 21.94309999999996L76.11425000000008 23.820519999999988L76.34185000000002 25.02896999999996L74.11265000000003 26.225630000000024L73.27235000000007 26.03638000000001L72.47275000000002 26.324730000000045L72.28555000000006 27.927810000000022L69.78395 27.304970000000026L67.83474999999999 26.32547999999997L67.09265000000005 26.541580000000067L64.46744999999999 25.63846000000001L63.17605000000003 25.638580000000047L62.453550000000064 26.109739999999988L60.18455000000006 24.195410000000038L57.679250000000025 24.867039999999974L56.89865000000003 24.492179999999962L56.34775000000002 23.453809999999976L56.32645000000002 21.52938000000006L55.54755 20.611139999999978L55.742650000000026 20.245750000000044L55.121650000000045 19.184190000000058L52.61865 19.825330000000008L51.94235000000003 19.30182000000002L51.10795000000002 19.45927000000006L48.179250000000025 18.970590000000016L48.62555000000003 18.267240000000015L48.74735000000004 17.01648L48.25895000000003 16.333219999999983L44.80735000000004 16.345180000000028L42.83475000000004 15.431950000000029L41.288250000000005 13.973240000000033L40.82565000000005 12.317469999999958L40.98705000000001 11.489059999999995L39.44195000000002 11.097870000000057L39.099350000000015 11.319569999999999L38.85025000000002 12.480699999999956L37.55735000000004 13.412890000000061L37.48245000000003 14.185259999999971L38.35235 14.982200000000034L38.002950000000055 15.716530000000034z">
      <title id="t463">Première circonscription de Vendée</title>
      <desc id="d463">Cantons de : Challans, Les Essarts, Palluau, Le Poiré-sur-Vie, Rocheservière, La Roche-sur-Yon Nord</desc>
    </path><path class="circo" id="id-085-02" d="M110.53925000000004 62.84173999999996L109.74775 62.66786000000002L109.06695000000002 61.63070000000005L108.66375000000005 61.53026999999997L109.10985000000005 62.69123999999999L108.84625000000005 63.455460000000016L109.04915000000005 64.27981L109.29185000000007 64.63056000000006L110.01255000000003 65.07216000000005L110.63225 66.65263000000004L110.43505000000005 67.47967000000006L109.66764999999998 67.75932999999998L109.46075000000008 68.56448999999998L109.58585000000005 68.94343000000003L108.87585000000001 69.25688000000002L107.60295000000008 68.44129999999996L107.02095000000008 68.90859L106.65965000000006 68.79393000000005L106.07045000000005 69.77749000000006L106.14855 70.58982000000003L107.75225 70.95988L106.05785000000003 73.87729999999999L105.63015000000007 73.86766999999998L103.02385000000004 74.56803000000002L101.96455000000003 73.67605000000003L99.38995 73.86519999999996L98.60055 74.72715000000005L98.26954999999998 76.27314000000001L98.23104999999998 76.40322000000003L96.93415000000005 76.17736000000002L94.36914999999999 76.56378000000007L94.41515000000004 78.60199999999998L93.75445000000002 80.97630000000004L93.56085000000007 81.20717000000002L91.90155000000004 82.55574000000001L91.73325 81.82550000000003L90.53965000000005 81.93241999999998L89.48675000000003 83.7328L89.85565000000008 84.49734999999998L89.62705000000005 84.85456999999997L88.79655000000002 84.68372L87.36295000000007 85.41130999999996L86.93325000000004 86.11552000000006L87.49414999999999 87.66566999999998L87.23345000000006 88.86007000000006L87.98815000000002 89.21249999999998L88.08155 89.62169000000006L87.80335000000002 90.27916000000005L88.29764999999998 90.77043000000003L88.64544999999998 90.67227000000003L89.20545000000004 91.23320999999999L90.39295000000004 91.16769999999997L90.51605000000006 91.95934999999997L91.07465000000002 92.49926000000005L92.12215000000003 92.99577999999997L93.11995000000002 94.65499L93.81385 97.55231000000003L95.45915000000002 98.32685000000004L95.09845000000007 98.81236999999999L93.47154999999998 98.35760000000005L91.37695000000008 93.71607000000006L89.88405 92.14071999999999L88.72035000000005 91.55104000000006L86.95575000000008 91.24811999999997L87.23424999999997 91.62135L89.19355000000007 92.44655999999998L87.21105 91.88239999999996L85.07585000000006 92.1603L83.04385000000002 91.45253000000002L81.49275 92.14183000000003L79.35115000000008 91.92992000000004L78.82715000000007 91.27570000000003L77.97345000000007 88.36040000000003L75.96974999999998 84.95391000000006L74.85194999999999 84.26202999999998L72.74315000000001 83.78323L72.10235 84.20495000000005L70.94535000000008 84.03409999999997L65.85555 83.13943000000006L63.54415000000006 82.06349999999998L63.759250000000065 81.25206000000003L58.84105000000005 78.71303L58.19445000000002 77.59864000000005L59.008650000000046 76.62486999999999L58.90705000000003 75.77587000000005L59.28685000000007 75.03169000000003L61.24005 74.33272999999997L61.46015 72.21357L60.60334999999998 70.74050999999997L63.254350000000045 70.53175999999996L62.07415000000003 67.86585000000002L62.059150000000045 66.21805000000006L58.77815000000004 66.86743000000001L56.43505000000005 66.43398000000002L55.665250000000015 66.77474000000007L56.00275000000005 65.28368L55.548850000000016 64.62858000000006L56.09415000000001 63.11775L56.45165000000003 61.973929999999996L57.22175000000004 61.05070999999998L58.67905000000002 60.47672L59.97194999999999 59.35707000000002L59.796749999999975 58.54164000000003L59.142150000000015 58.01248999999996L54.904650000000004 56.34370999999999L53.667350000000056 56.40634L54.18885 55.26917000000003L54.84235000000001 54.750530000000026L54.50705000000005 53.67511999999999L54.75195000000002 52.87498000000005L54.34515000000005 52.26053000000002L53.80385000000001 52.77701000000002L53.05015000000003 52.76351L52.790350000000046 51.41066999999998L54.535150000000044 50.25097000000005L55.82705000000004 50.11369000000002L57.08705000000003 48.93790000000001L57.627350000000035 47.75967000000003L59.93844999999999 46.852089999999976L62.00504999999998 49.08450000000005L62.524650000000065 49.01337000000001L64.22514999999999 47.97371999999996L64.92875000000004 46.53475000000003L66.81005000000005 45.61447999999996L68.36325 45.814340000000016L68.85825 46.525570000000016L68.85655000000008 47.80354999999997L68.15775000000008 50.73688000000004L70.69655 50.56876L71.24565000000007 52.11338999999998L72.72845000000007 52.89999L72.81925000000001 53.31698000000006L72.26225 53.95114000000001L72.49435000000005 54.77418L73.49945000000002 55.53013999999996L74.61935000000005 54.96880999999996L75.99385000000007 52.794719999999984L77.58455000000004 52.66913999999997L78.23525000000006 53.014850000000024L83.00075000000004 51.34693000000004L84.07805000000008 51.52678000000003L84.72205000000008 50.69155000000001L85.11795000000006 50.35244L87.70505000000003 48.65146000000004L87.99615000000006 48.69117000000006L88.83474999999999 48.565380000000005L90.41584999999998 49.05908999999997L91.48554999999999 48.30958999999996L92.68825000000004 48.15751999999998L93.10694999999998 47.417080000000055L94.37585000000001 47.126409999999964L94.66365000000008 46.844780000000014L94.54624999999999 45.809259999999995L96.24925000000007 46.081140000000005L97.85895000000005 46.00737000000004L98.02505000000008 46.81887000000006L98.83865000000003 46.98845000000006L99.88755000000003 48.269930000000045L101.86935000000005 49.17384000000004L102.83245 47.756939999999986L104.10475000000008 47.41993000000002L104.76295000000005 46.33553000000006L105.14965000000007 46.14621999999997L105.93765000000008 46.469040000000064L106.24385000000007 46.20920000000001L107.91155000000003 46.56511999999998L108.96125000000006 47.85238000000004L109.05804999999998 49.09206000000006L111.73795000000007 46.91519000000005L113.37144999999998 46.94234000000006L113.54145000000005 46.54132000000004L112.94655 45.439790000000016L111.99095 44.64970000000005L110.88115000000005 43.53334000000007L110.71285 42.328730000000064L110.37665000000004 42.10136L111.37054999999998 41.39858000000004L112.66045000000008 40.33393000000001L113.49745000000007 40.17088000000001L114.58575000000008 40.822790000000055L118.75125000000003 41.587150000000065L120.00345000000004 38.931659999999965L116.22985000000006 37.98490000000004L116.15245000000004 37.647519999999986L118.93034999999998 34.913220000000024L120.17415000000005 35.27669000000003L120.62075000000004 36.50107000000003L121.73955000000001 37.787540000000035L121.54925000000003 38.55250000000001L120.48365000000001 39.165719999999965L121.61255000000006 39.769949999999994L122.89885000000004 39.802459999999996L123.87545 40.555529999999976L122.61604999999997 42.243889999999965L122.10225000000003 43.82515999999998L122.40195000000006 44.11410999999998L122.25615000000005 44.91853000000003L122.64634999999998 46.103950000000054L122.40295000000003 48.07633999999996L122.61315000000002 48.313800000000015L122.19695000000002 49.27880000000005L121.34035000000006 49.363309999999956L120.41755 50.809600000000046L121.33175000000006 51.586580000000026L121.51705000000004 52.81887000000006L120.05415000000005 56.367970000000014L117.71625000000006 57.43205999999998L117.02465000000007 56.38603999999998L113.94535000000008 54.93475999999998L112.26565000000005 56.75949000000003L111.77305000000001 57.92772000000002L113.52904999999998 59.65648999999996L112.53615000000002 60.436270000000036L111.55385000000001 61.13630999999998L110.53925000000004 62.84173999999996z">
      <title id="t464">Deuxième circonscription de Vendée</title>
      <desc id="d464">Cantons de : Chantonnay, Mareuil-sur-Lay-Dissais, La Mothe-Achard, Moutiers-les-Mauxfaits, La Roche-sur-Yon Sud, Talmont-Saint-Hilaire</desc>
    </path><path class="circo" id="id-085-03" d="M35.5625 6.908660000000054L34.28125 8.033660000000054L31.53125 9.314910000000054L30.125 12.939910000000054L30.0625 14.627410000000054L29 16.533660000000054L27.71875 17.752410000000054L27.84375 18.596160000000054L27.125 18.283660000000054L24.75 20.783660000000054L23.8125 22.689910000000054L24.5625 23.033660000000054L23.6875 23.939910000000054L20.78125 24.439910000000054L21.46875 28.221160000000054L21.84375 33.033660000000054L23.375 34.533660000000054L28.96875 38.502410000000054L35.34375 45.283660000000054L35.8125 47.408660000000054L36.5625 48.533660000000054L37.34375 48.533660000000054L38.5625 48.533660000000054L40.46875 51.314910000000054L42.53125 55.064910000000054L44.46875 56.752410000000054L44.90625 57.971160000000054L46.125 59.127410000000054L46.84375 62.064910000000054L49.34375 70.31491000000005L49.84375 73.22116000000005L50.90625 73.87741000000005L51.5625 73.34616000000005L52.375 73.25241000000005L53.46875 73.90866000000005L54.21875 74.93991000000005L54.65625 75.62741000000005L57.34375 77.56491000000005L58.1875 77.59616000000005L59 76.62741000000005L58.90625 75.78366000000005L59.28125 75.03366000000005L61.25 74.34616000000005L61.46875 72.22116000000005L60.59375 70.75241000000005L63.25 70.53366000000005L62.0625 67.87741000000005L62.0625 66.22116000000005L58.78125 66.87741000000005L56.4375 66.43991000000005L55.65625 66.78366000000005L56 65.28366000000005L55.5625 64.62741000000005L56.09375 63.127410000000054L56.4375 61.971160000000054L57.21875 61.064910000000054L58.6875 60.471160000000054L59.96875 59.346160000000054L59.78125 58.533660000000054L59.15625 58.002410000000054L54.90625 56.346160000000054L53.65625 56.408660000000054L54.1875 55.283660000000054L54.84375 54.752410000000054L54.5 53.689910000000054L54.75 52.877410000000054L54.34375 52.252410000000054L53.8125 52.783660000000054L53.0625 52.752410000000054L52.78125 51.408660000000054L54.53125 50.252410000000054L55.8125 50.127410000000054L57.09375 48.939910000000054L57.625 47.752410000000054L59.9375 46.846160000000054L59.75 45.158660000000054L58.59375 43.877410000000054L58.15625 43.908660000000054L56.125 44.721160000000054L54.84375 44.596160000000054L52.46875 43.533660000000054L51.84375 41.939910000000054L52.09375 42.283660000000054L52.9375 42.346160000000054L53.15625 42.002410000000054L53.25 39.096160000000054L52.5625 38.564910000000054L52.4375 37.752410000000054L51.3125 34.814910000000054L49.3125 36.252410000000054L47.6875 36.502410000000054L47.6875 35.314910000000054L46.15625 34.689910000000054L44.5 34.596160000000054L42.78125 32.689910000000054L41.9375 32.596160000000054L41.125 31.971160000000054L40.84375 30.939910000000054L40.09375 30.502410000000054L37.0625 30.471160000000054L35.65625 29.533660000000054L33.53125 29.502410000000054L32.6875 30.502410000000054L32.34375 30.658660000000054L31.40625 29.502410000000054L31.65625 29.221160000000054L31.53125 27.752410000000054L31.90625 26.971160000000054L33.21875 26.783660000000054L36.4375 24.564910000000054L38.5625 24.096160000000054L39.09375 23.689910000000054L39.3125 23.283660000000054L37.875 20.252410000000054L37.8125 18.627410000000054L38.6875 17.189910000000054L38 15.721160000000054L38.34375 14.971160000000054L37.46875 14.189910000000054L37.5625 13.408660000000054L38.84375 12.471160000000054L39.09375 11.314910000000054L38.1875 10.408660000000054L36.875 7.564910000000054L36.28125 6.939910000000054L35.5625 6.908660000000054zM10.4375 7.064910000000054L8.28125 7.408660000000054L9 9.346160000000054L8.25 10.908660000000054L8.25 11.783660000000054L9.71875 12.783660000000054L11.1875 15.002410000000054L12.21875 15.658660000000054L13.28125 14.877410000000054L15.03125 14.908660000000054L17.0625 16.596160000000054L18.65625 18.689910000000054L19.875 22.002410000000054L20.59375 23.096160000000054L20.96875 23.314910000000054L21.125 22.908660000000054L21.1875 18.096160000000054L20.3125 16.596160000000054L17.96875 15.346160000000054L15 13.658660000000054L14.15625 13.627410000000054L13.78125 12.908660000000054L13.96875 11.346160000000054L13.71875 11.033660000000054L12.9375 11.252410000000054L13.75 10.908660000000054L14.90625 11.471160000000054L15.25 11.189910000000054L15.0625 9.002410000000054L12.1875 7.127410000000054L10.4375 7.064910000000054zM2.1875 43.721160000000054L1.53125 43.783660000000054L0.875 44.346160000000054L0.09375 44.721160000000054L0 44.908660000000054L0 45.127410000000054L0.125 45.783660000000054L0.21875 45.971160000000054L0.53125 46.564910000000054L1.40625 47.189910000000054L1.53125 47.846160000000054L2.34375 47.689910000000054L3.09375 48.471160000000054L3.53125 48.502410000000054L4.09375 48.846160000000054L4.71875 48.689910000000054L5.625 49.596160000000054L6.96875 48.908660000000054L7.34375 48.377410000000054L9.25 48.783660000000054L9.78125 49.158660000000054L9.875 48.971160000000054L9.59375 48.377410000000054L8.65625 47.158660000000054L8 46.627410000000054L7.5 46.252410000000054L6.8125 45.408660000000054L5.09375 45.314910000000054L4.3125 44.283660000000054L2.1875 43.721160000000054z">
      <title id="t465">Troisième circonscription de Vendée</title>
      <desc id="d465">Cantons de : Beauvoir-sur-Mer, L'Ile-d'Yeu, Noirmoutier-en-l'Ile, Les Sables-d'Olonne, Saint-Gilles-Croix-de-Vie, Saint-Jean-de-Monts</desc>
    </path><path class="circo" id="id-085-04" d="M110.03705000000002 41.87185999999997L109.25835000000006 42.12170000000003L109.25495000000001 41.69011999999998L110.39595000000008 40.51533000000006L109.75125000000003 38.04150000000004L110.15764999999999 35.549870000000055L108.77274999999997 34.84416999999996L108.55505000000005 33.70780000000002L106.62835000000007 33.24014999999997L105.24775 33.79908999999998L104.10125000000005 34.962890000000016L102.45715000000007 34.69092999999998L102.17225000000008 33.92789000000005L101.76945 33.80493000000001L100.55804999999998 33.25828999999999L99.58375000000001 31.884599999999978L99.23615000000007 32.04785000000004L99.13125000000002 33.322509999999966L97.03825000000006 33.661839999999984L96.19785000000002 33.45864000000006L95.05385000000001 35.30251999999996L93.81975 35.31047000000001L93.22145 34.713910000000055L92.03735000000006 34.96463000000006L91.29825000000005 34.615549999999985L90.92055000000005 34.30383000000006L90.54905000000008 34.10251000000005L90.25255000000004 32.868870000000015L90.74035000000003 31.745210000000043L89.78065000000004 31.006060000000048L86.55685000000005 28.074870000000033L85.55484999999999 26.81239000000005L85.88855000000001 26.036879999999996L86.60604999999998 25.569690000000037L86.59145000000001 24.78098L86.89285000000007 23.519239999999968L88.80525 22.569420000000036L89.69695000000002 21.089630000000056L90.03965000000005 18.50502000000006L89.28115000000003 18.754609999999957L88.59595000000002 17.85292000000004L87.07445000000007 17.37719000000004L87.17275000000006 16.481290000000058L87.78575000000001 15.907069999999976L87.70685000000003 14.718770000000063L88.27805000000001 14.113140000000044L88.38935000000004 12.862210000000005L86.99644999999998 11.895800000000008L87.96275000000003 10.03958L87.85115000000008 9.620880000000056L87.72145 8.34654999999998L86.95415000000003 6.8139600000000655L88.08145000000002 5.544700000000034L89.37435000000005 5.589979999999969L89.52314999999999 4.809120000000007L90.31055000000003 5.016439999999989L91.88285000000008 6.234550000000013L93.51785000000007 6.1831600000000435L93.71695 5.431190000000015L93.35194999999999 5.276899999999955L93.47255000000007 4.8957000000000335L94.49054999999998 3.2394100000000208L94.23045000000002 1.7289799999999786L94.53545000000008 0.9819999999999709L95.30515000000003 0.8186100000000351L95.73175000000003 0.13706999999999425L96.13945000000001 0L97.78525000000002 1.9602300000000241L99.36535000000003 2.560230000000047L100.47665000000006 3.841540000000009L101.11455000000001 4.323729999999955L102.18445000000008 5.553179999999998L106.28134999999997 6.826800000000048L106.88454999999999 7.430230000000051L108.07235000000003 7.836599999999976L109.54984999999999 8.515610000000038L111.21154999999999 8.602129999999988L111.82915000000003 8.930759999999964L112.60265000000004 9.331300000000056L113.41375000000005 9.179089999999974L114.54795000000001 9.776950000000056L117.54084999999998 10.057149999999979L118.71775000000002 7.8572900000000345L120.07775000000004 8.895359999999982L120.83775000000003 8.72431000000006L122.38414999999998 10.745290000000068L123.94794999999999 10.234270000000038L124.44574999999998 9.56878000000006L126.14364999999998 11.079540000000065L127.30045000000007 11.578160000000025L128.09384999999997 13.523519999999962L127.22205000000008 14.210180000000037L127.52305000000001 14.525449999999978L128.79835000000003 14.32752000000005L129.13675 15.499950000000013L130.22105 15.727120000000014L130.35645 16.572560000000067L129.23685 16.469330000000014L128.90435000000002 16.76419999999996L129.02555000000007 17.180209999999988L131.50414999999998 17.462480000000028L131.43615 18.203129999999987L133.30915000000005 19.08784000000003L133.84025000000008 20.262550000000033L135.06894999999997 20.511460000000056L134.73645 21.22415000000001L134.18165 21.846679999999992L134.35655000000008 22.64345000000003L133.15155000000004 24.86157000000003L134.59605 25.59294L136.44325000000003 28.204520000000002L137.03584999999998 28.942360000000008L137.48935000000006 30.040899999999965L138.19105000000002 30.379040000000032L139.48495000000003 31.50219000000004L141.13035000000002 31.803350000000023L141.89225 32.71571000000006L143.55755 32.713100000000054L144.48745000000008 34.29264999999998L143.07175000000007 35.17996000000005L142.65885000000003 36.72267999999997L142.27215 37.513090000000034L142.15295000000003 39.26972000000001L142.73194999999998 40.88755000000003L141.61565000000007 41.51979000000006L141.10445000000004 42.68461000000002L139.39255000000003 42.78184999999996L137.80804999999998 45.35845000000006L139.19865000000004 46.06304L139.50155000000007 46.97717L136.82005000000004 47.97062000000005L135.44074999999998 49.34869000000003L133.95655 47.852250000000026L131.98025000000007 47.361920000000055L131.07105 49.138149999999996L131.39855 49.896240000000034L129.45905000000005 50.19484L128.63004999999998 50.99752999999998L128.01094999999998 50.430619999999976L125.13054999999997 49.868979999999965L124.66264999999999 49.14831000000004L123.39745000000005 48.94360000000006L122.84595000000002 48.31429000000003L122.61315000000002 48.313800000000015L122.40295000000003 48.07633999999996L122.64634999999998 46.103950000000054L122.25615000000005 44.91853000000003L122.40195000000006 44.11410999999998L122.10225000000003 43.82515999999998L122.61604999999997 42.243889999999965L123.87545 40.555529999999976L122.89885000000004 39.802459999999996L121.61255000000006 39.769949999999994L120.48365000000001 39.165719999999965L121.54925000000003 38.55250000000001L121.73955000000001 37.787540000000035L120.62075000000004 36.50107000000003L120.17415000000005 35.27669000000003L118.93034999999998 34.913220000000024L116.15245000000004 37.647519999999986L116.22985000000006 37.98490000000004L120.00345000000004 38.931659999999965L118.75125000000003 41.587150000000065L114.58575000000008 40.822790000000055L113.49745000000007 40.17088000000001L112.66045000000008 40.33393000000001L111.37054999999998 41.39858000000004L110.37665000000004 42.10136L110.03705000000002 41.87185999999997z">
      <title id="t466">Quatrième circonscription de Vendée</title>
      <desc id="d466">Cantons de : Les Herbiers, Montaigu, Mortagne-sur-Sèvre, Pouzauges, Saint-Fulgent</desc>
    </path><path class="circo" id="id-085-05" d="M121.14864999999998 90.71094000000005L120.75144999999998 90.89098999999999L117.41084999999998 90.66772000000003L114.59895000000006 91.86787000000004L114.34665000000007 91.09037000000001L112.67645000000005 93.88531999999998L112.09875 94.44020999999998L112.27175 94.81191999999999L110.80714999999998 95.45509000000004L109.20905000000005 95.09905000000003L108.92804999999998 94.33250999999996L108.55775000000006 94.33744000000002L108.37455 95.38580999999999L107.91055000000006 95.92839000000004L106.32905000000005 95.15049999999997L104.98905000000002 94.19699000000003L104.48805000000004 94.78841L101.73604999999998 95.21351000000004L102.25435000000004 97.12316999999996L101.26305000000002 99.30043L100.90005000000008 99.54174999999998L101.59694999999999 101.02706999999998L101.24755000000005 101.25308000000007L100.64055000000008 100.75003000000004L99.17495000000008 100.17340000000002L94.93675000000007 95.94648000000007L93.90944999999999 94.52416000000005L93.11995000000002 94.65499L92.12215000000003 92.99577999999997L91.07465000000002 92.49926000000005L90.51605000000006 91.95934999999997L90.39295000000004 91.16769999999997L89.20545000000004 91.23320999999999L88.64544999999998 90.67227000000003L88.29764999999998 90.77043000000003L87.80335000000002 90.27916000000005L88.08155 89.62169000000006L87.98815000000002 89.21249999999998L87.23345000000006 88.86007000000006L87.49414999999999 87.66566999999998L86.93325000000004 86.11552000000006L87.36295000000007 85.41130999999996L88.79655000000002 84.68372L89.62705000000005 84.85456999999997L89.85565000000008 84.49734999999998L89.48675000000003 83.7328L90.53965000000005 81.93241999999998L91.73325 81.82550000000003L91.90155000000004 82.55574000000001L93.56085000000007 81.20717000000002L93.75445000000002 80.97630000000004L94.41515000000004 78.60199999999998L94.36914999999999 76.56378000000007L96.93415000000005 76.17736000000002L98.23104999999998 76.40322000000003L98.26954999999998 76.27314000000001L98.60055 74.72715000000005L99.38995 73.86519999999996L101.96455000000003 73.67605000000003L103.02385000000004 74.56803000000002L105.63015000000007 73.86766999999998L106.05785000000003 73.87729999999999L107.75225 70.95988L106.14855 70.58982000000003L106.07045000000005 69.77749000000006L106.65965000000006 68.79393000000005L107.02095000000008 68.90859L107.60295000000008 68.44129999999996L108.87585000000001 69.25688000000002L109.58585000000005 68.94343000000003L109.46075000000008 68.56448999999998L109.66764999999998 67.75932999999998L110.43505000000005 67.47967000000006L110.63225 66.65263000000004L110.01255000000003 65.07216000000005L109.29185000000007 64.63056000000006L109.04915000000005 64.27981L108.84625000000005 63.455460000000016L109.10985000000005 62.69123999999999L108.66375000000005 61.53026999999997L109.06695000000002 61.63070000000005L109.74775 62.66786000000002L110.53925000000004 62.84173999999996L111.55385000000001 61.13630999999998L112.53615000000002 60.436270000000036L113.52904999999998 59.65648999999996L111.77305000000001 57.92772000000002L112.26565000000005 56.75949000000003L113.94535000000008 54.93475999999998L117.02465000000007 56.38603999999998L117.71625000000006 57.43205999999998L120.05415000000005 56.367970000000014L121.51705000000004 52.81887000000006L121.33175000000006 51.586580000000026L120.41755 50.809600000000046L121.34035000000006 49.363309999999956L122.19695000000002 49.27880000000005L122.61315000000002 48.313800000000015L122.84595000000002 48.31429000000003L123.39745000000005 48.94360000000006L124.66264999999999 49.14831000000004L125.13054999999997 49.868979999999965L128.01094999999998 50.430619999999976L128.63004999999998 50.99752999999998L129.45905000000005 50.19484L131.39855 49.896240000000034L131.07105 49.138149999999996L131.98025000000007 47.361920000000055L133.95655 47.852250000000026L135.44074999999998 49.34869000000003L136.82005000000004 47.97062000000005L139.50155000000007 46.97717L139.19865000000004 46.06304L137.80804999999998 45.35845000000006L139.39255000000003 42.78184999999996L141.10445000000004 42.68461000000002L141.61565000000007 41.51979000000006L142.73194999999998 40.88755000000003L143.74925000000007 41.63579000000004L144.56074999999998 41.39747L144.79425000000003 42.172559999999976L144.57465000000002 43.34235000000001L145.37415 44.593650000000025L145.73694999999998 44.369820000000004L146.69655 45.21685000000002L148.16535 47.75657000000001L146.21704999999997 49.44819000000007L148.00345000000004 50.68608000000006L149.76705000000004 52.34166000000005L148.84735 53.152270000000044L148.79055000000005 54.35927000000004L147.92405000000008 55.18077000000005L148.05984999999998 55.979029999999966L149.24805000000003 55.501049999999964L150.10085000000004 55.68476999999996L151.72415 57.690720000000056L150.60325 59.48797000000002L151.49175000000002 60.32023000000004L151.30165 61.050460000000044L151.76985000000002 61.713449999999966L150.81175000000007 62.97046999999998L151.38515000000007 64.94235000000003L152.20495000000005 64.81996000000004L152.64785000000006 67.25301999999999L152.73025000000007 68.42993000000001L152.17534999999998 69.06686000000002L150.51425000000006 69.06191999999999L149.32135000000005 69.48235L149.62335000000007 70.15994999999998L149.14045 71.19554000000005L149.99125000000004 71.9588L150.74085000000002 72.94052999999997L150.48325 75.01786000000004L151.38144999999997 75.86103000000003L151.53255000000001 77.12897999999996L152.21305000000007 78.19324000000006L151.56844999999998 78.47528999999997L151.19125000000008 80.04273999999998L149.77965000000006 80.89502000000005L149.56034999999997 83.30832999999996L150.33175000000006 84.28286000000003L149.66305 85.27819999999997L151.13605000000007 86.05452000000002L151.97575000000006 83.26925000000006L152.80455000000006 83.32128L154.44215000000008 84.60336000000007L155.25914999999998 84.79059000000007L155.54465000000005 85.54750000000001L157.19275000000005 85.77734999999996L158.19835 86.54634999999996L156.54205000000002 89.30845L156.34575000000007 89.69153000000006L154.74525000000006 90.30034L152.67015000000004 89.85780999999997L152.23155000000008 91.45315000000005L151.27285000000006 92.31297000000006L149.75885000000005 92.95208000000002L149.78335000000004 94.15944999999999L149.21015 94.79948999999999L148.48475000000008 95.04281000000003L146.76785000000007 95.19713999999999L144.63725 94.09311000000002L143.80705 94.97770000000003L143.02055000000007 95.11468000000002L142.59924999999998 95.77247L142.84834999999998 96.53269999999998L142.17975 96.79847000000007L140.12035000000003 96.66890999999998L139.31765000000007 95.69113000000004L138.48025000000007 95.59145000000001L137.96495000000004 94.92047000000002L135.67174999999997 94.08117000000004L135.30495000000008 93.33211000000006L136.10395000000005 92.45997999999997L136.00245000000007 92.05195000000003L133.75085 92.71717999999998L133.23685 92.04173000000003L132.44754999999998 92.30780000000004L131.77814999999998 93.37716999999998L132.09415 94.16413L131.74675000000002 94.93782999999996L130.55395 94.83763999999996L130.74165000000005 94.05839000000003L130.41494999999998 93.82587000000001L129.93785000000003 94.42962999999997L128.52845000000002 93.90661999999998L127.79944999999998 95.11998000000006L126.38315 95.62419L126.13175000000001 95.28156999999999L124.52814999999998 95.63908000000004L122.42275000000006 94.31984L123.87625000000003 92.25460999999996L124.50085000000001 89.79290000000003L125.08665000000008 88.45982000000004L123.03444999999999 89.66652999999997L121.92675000000008 89.14142000000004L121.14864999999998 90.71094000000005z">
      <title id="t467">Cinquième circonscription de Vendée</title>
      <desc id="d467">Cantons de : Chaillé-les-Marais, La Châtaigneraie, Fontenay-le-Comte, L'Hermenault, Luçon, Maillezais, Sainte-Hermine, Saint-Hilaire-des-Loges</desc>
    </path></svg>