<svg xmlns="http://www.w3.org/2000/svg" version="1.1" xmlns:xlink="http://www.w3.org/1999/xlink" xmlns:svgjs="http://svgjs.dev/svgjs" viewBox="452.93598 672.47713 158.19835 101.25308000000007"><path class="circo" id="085-01" d="M 490.93893,688.19366 491.63833,689.65386 490.75443,691.11224 490.80623,692.74503 492.24093,695.77308 492.04093,696.15261 491.49413,696.56856 489.36363,697.05637 486.13963,699.27584 484.85633,699.44083 484.46213,700.22306 484.58973,701.6851 484.33633,701.97158 485.27003,703.14073 485.60863,702.9813 486.45773,701.97183 488.58853,702.01259 490.00693,702.95657 493.04083,702.97198 493.77513,703.42267 494.07553,704.46311 494.88513,705.08613 495.73153,705.1711 497.43073,707.05778 499.08903,707.16458 500.63743,707.79505 500.61523,708.98478 502.25343,708.71623 504.26103,707.28181 505.37303,710.21552 505.50403,711.05296 506.17963,711.55933 506.10473,714.47838 505.88103,714.83774 505.03903,714.76803 504.78003,714.43248 505.40983,716.01209 507.79243,717.059 509.07253,717.20879 511.08043,716.38327 511.51533,716.36504 512.69073,717.64265 512.87443,719.32922 514.94103,721.56163 515.46063,721.4905 517.16113,720.45085 517.86473,719.01188 519.74603,718.09161 521.29923,718.29147 521.79423,719.0027 521.79253,720.28068 521.09373,723.21401 523.63253,723.04589 524.18163,724.59052 525.66443,725.37712 525.75523,725.79411 525.19823,726.42827 525.43033,727.25131 526.43543,728.00727 527.55533,727.44594 528.92983,725.27185 530.52053,725.14627 531.17123,725.49198 535.93673,723.82406 537.01403,724.00391 537.65803,723.16868 538.05393,722.82957 540.64103,721.12859 540.93213,721.1683 541.77073,721.04251 543.35183,721.53622 544.42153,720.78672 545.62423,720.63465 546.04293,719.89421 547.31183,719.60354 547.59963,719.32191 547.48223,718.28639 549.18523,718.55827 550.79493,718.4845 550.96103,719.296 551.77463,719.46558 552.82353,720.74706 554.80533,721.65097 555.76843,720.23407 557.04073,719.89706 557.69893,718.81266 558.08563,718.62335 558.87363,718.94617 559.17983,718.68633 560.84753,719.04225 561.89723,720.32951 561.99403,721.56919 564.67393,719.39232 566.30743,719.41947 566.47743,719.01845 565.88253,717.91692 564.92693,717.12683 563.81713,716.01047 563.64883,714.80586 563.31263,714.57849 562.97303,714.34899 562.19433,714.59883 562.19093,714.16725 563.33193,712.99246 562.68723,710.51863 563.09363,708.027 561.70873,707.3213 561.49103,706.18493 559.56433,705.71728 558.18373,706.27622 557.03723,707.44002 555.39313,707.16806 555.10823,706.40502 554.70543,706.28206 553.49403,705.73542 552.51973,704.36173 552.17213,704.52498 552.06723,705.79964 549.97423,706.13897 549.13383,705.93577 547.98983,707.77965 546.75573,707.7876 546.15743,707.19104 544.97333,707.44176 544.23423,707.09268 543.85653,706.78096 543.48503,706.57964 543.18853,705.346 543.67633,704.22234 542.71663,703.48319 539.49283,700.552 538.49083,699.28952 538.82453,698.51401 539.54203,698.04682 539.52743,697.25811 539.82883,695.99637 541.74123,695.04655 542.63293,693.56676 542.97563,690.98215 542.21713,691.23174 541.53193,690.33005 540.01043,689.85432 540.10873,688.95842 539.73213,688.74809 538.65693,689.46273 536.53213,689.92068 532.89233,692.22541 531.74753,691.31041 532.87283,688.44174 531.88063,687.05029 531.44813,685.36277 531.69533,684.54427 532.51113,684.23037 532.50123,683.42071 531.98343,682.76114 531.47193,680.29452 531.62903,679.10826 530.99093,678.57099 530.48233,677.96557 529.70003,677.8134 529.35823,677.91518 527.64533,679.78815 526.42703,680.06634 524.71543,681.1209 525.63413,682.51808 525.01883,684.05753 524.73183,685.64845 525.69353,687.7666 525.59213,688.18469 526.47953,689.6226 527.50633,690.33378 527.64583,691.16888 527.08263,692.2991 525.44063,692.27035 526.81023,694.42023 529.05023,696.29765 529.27783,697.5061 527.04863,698.70276 526.20833,698.51351 525.40873,698.80186 525.22153,700.40494 522.71993,699.7821 520.77073,698.80261 520.02863,699.01871 517.40343,698.11559 516.11203,698.11571 515.38953,698.58687 513.12053,696.67254 510.61523,697.34417 509.83463,696.96931 509.28373,695.93094 509.26243,694.00651 508.48353,693.08827 508.67863,692.72288 508.05763,691.66132 505.55463,692.30246 504.87833,691.77895 504.04393,691.9364 501.11523,691.44772 501.56153,690.74437 501.68333,689.49361 501.19493,688.81035 497.74333,688.82231 495.77073,687.90908 494.22423,686.45037 493.76163,684.7946 493.92303,683.96619 492.37793,683.575 492.03533,683.7967 491.78623,684.95783 490.49333,685.89002 490.41843,686.66239 491.28833,687.45933 490.93893,688.19366 z">
      <title id="t463">Première circonscription de Vendée</title>
      <desc id="d463">Cantons de : Challans, Les Essarts, Palluau, Le Poiré-sur-Vie, Rocheservière, La Roche-sur-Yon Nord</desc>
    </path><path class="circo" id="085-02" d="M 563.47523,735.31887 562.68373,735.14499 562.00293,734.10783 561.59973,734.0074 562.04583,735.16837 561.78223,735.93259 561.98513,736.75694 562.22783,737.10769 562.94853,737.54929 563.56823,739.12976 563.37103,739.9568 562.60363,740.23646 562.39673,741.04162 562.52183,741.42056 561.81183,741.73401 560.53893,740.91843 559.95693,741.38572 559.59563,741.27106 559.00643,742.25462 559.08453,743.06695 560.68823,743.43701 558.99383,746.35443 558.56613,746.3448 555.95983,747.04516 554.90053,746.15318 552.32593,746.34233 551.53653,747.20428 551.20553,748.75027 551.16703,748.88035 549.87013,748.65449 547.30513,749.04091 547.35113,751.07913 546.69043,753.45343 546.49683,753.6843 544.83753,755.03287 544.66923,754.30263 543.47563,754.40955 542.42273,756.20993 542.79163,756.97448 542.56303,757.3317 541.73253,757.16085 540.29893,757.88844 539.86923,758.59265 540.43013,760.1428 540.16943,761.3372 540.92413,761.68963 541.01753,762.09882 540.73933,762.75629 541.23363,763.24756 541.58143,763.1494 542.14143,763.71034 543.32893,763.64483 543.45203,764.43648 544.01063,764.97639 545.05813,765.47291 546.05593,767.13212 546.74983,770.02944 548.39513,770.80398 548.03443,771.2895 546.40753,770.83473 544.31293,766.1932 542.82003,764.61785 541.65633,764.02817 539.89173,763.72525 540.17023,764.09848 542.12953,764.92369 540.14703,764.35953 538.01183,764.63743 535.97983,763.92966 534.42873,764.61896 532.28713,764.40705 531.76313,763.75283 530.90943,760.83753 528.90573,757.43104 527.78793,756.73916 525.67913,756.26036 525.03833,756.68208 523.88133,756.51123 518.79153,755.61656 516.48013,754.54063 516.69523,753.72919 511.77703,751.19016 511.13043,750.07577 511.94463,749.102 511.84303,748.253 512.22283,747.50882 514.17603,746.80986 514.39613,744.6907 513.53933,743.21764 516.19033,743.00889 515.01013,740.34298 514.99513,738.69518 511.71413,739.34456 509.37103,738.91111 508.60123,739.25187 508.93873,737.76081 508.48483,737.10571 509.03013,735.59488 509.38763,734.45106 510.15773,733.52784 511.61503,732.95385 512.90793,731.8342 512.73273,731.01877 512.07813,730.48962 507.84063,728.82084 506.60333,728.88347 507.12483,727.7463 507.77833,727.22766 507.44303,726.15225 507.68793,725.35211 507.28113,724.73766 506.73983,725.25414 505.98613,725.24064 505.72633,723.8878 507.47113,722.7281 508.76303,722.59082 510.02303,721.41503 510.56333,720.2368 512.87443,719.32922 514.94103,721.56163 515.46063,721.4905 517.16113,720.45085 517.86473,719.01188 519.74603,718.09161 521.29923,718.29147 521.79423,719.0027 521.79253,720.28068 521.09373,723.21401 523.63253,723.04589 524.18163,724.59052 525.66443,725.37712 525.75523,725.79411 525.19823,726.42827 525.43033,727.25131 526.43543,728.00727 527.55533,727.44594 528.92983,725.27185 530.52053,725.14627 531.17123,725.49198 535.93673,723.82406 537.01403,724.00391 537.65803,723.16868 538.05393,722.82957 540.64103,721.12859 540.93213,721.1683 541.77073,721.04251 543.35183,721.53622 544.42153,720.78672 545.62423,720.63465 546.04293,719.89421 547.31183,719.60354 547.59963,719.32191 547.48223,718.28639 549.18523,718.55827 550.79493,718.4845 550.96103,719.296 551.77463,719.46558 552.82353,720.74706 554.80533,721.65097 555.76843,720.23407 557.04073,719.89706 557.69893,718.81266 558.08563,718.62335 558.87363,718.94617 559.17983,718.68633 560.84753,719.04225 561.89723,720.32951 561.99403,721.56919 564.67393,719.39232 566.30743,719.41947 566.47743,719.01845 565.88253,717.91692 564.92693,717.12683 563.81713,716.01047 563.64883,714.80586 563.31263,714.57849 564.30653,713.87571 565.59643,712.81106 566.43343,712.64801 567.52173,713.29992 571.68723,714.06428 572.93943,711.40879 569.16583,710.46203 569.08843,710.12465 571.86633,707.39035 573.11013,707.75382 573.55673,708.9782 574.67553,710.26467 574.48523,711.02963 573.41963,711.64285 574.54853,712.24708 575.83483,712.27959 576.81143,713.03266 575.55203,714.72102 575.03823,716.30229 575.33793,716.59124 575.19213,717.39566 575.58233,718.58108 575.33893,720.55347 575.54913,720.79093 575.13293,721.75593 574.27633,721.84044 573.35353,723.28673 574.26773,724.06371 574.45303,725.296 572.99013,728.8451 570.65223,729.90919 569.96063,728.86317 566.88133,727.41189 565.20163,729.23662 564.70903,730.40485 566.46503,732.13362 565.47213,732.9134 564.48983,733.61344 563.47523,735.31887 z">
      <title id="t464">Deuxième circonscription de Vendée</title>
      <desc id="d464">Cantons de : Chantonnay, Mareuil-sur-Lay-Dissais, La Mothe-Achard, Moutiers-les-Mauxfaits, La Roche-sur-Yon Sud, Talmont-Saint-Hilaire</desc>
    </path><path class="circo" id="085-03" d="M 488.49848,679.38579 487.21723,680.51079 484.46723,681.79204 483.06098,685.41704 482.99848,687.10454 481.93598,689.01079 480.65473,690.22954 480.77973,691.07329 480.06098,690.76079 477.68598,693.26079 476.74848,695.16704 477.49848,695.51079 476.62348,696.41704 473.71723,696.91704 474.40473,700.69829 474.77973,705.51079 476.31098,707.01079 481.90473,710.97954 488.27973,717.76079 488.74848,719.88579 489.49848,721.01079 490.27973,721.01079 491.49848,721.01079 493.40473,723.79204 495.46723,727.54204 497.40473,729.22954 497.84223,730.44829 499.06098,731.60454 499.77973,734.54204 502.27973,742.79204 502.77973,745.69829 503.84223,746.35454 504.49848,745.82329 505.31098,745.72954 506.40473,746.38579 507.15473,747.41704 507.59223,748.10454 510.27973,750.04204 511.12348,750.07329 511.93598,749.10454 511.84223,748.26079 512.21723,747.51079 514.18598,746.82329 514.40473,744.69829 513.52973,743.22954 516.18598,743.01079 514.99848,740.35454 514.99848,738.69829 511.71723,739.35454 509.37348,738.91704 508.59223,739.26079 508.93598,737.76079 508.49848,737.10454 509.02973,735.60454 509.37348,734.44829 510.15473,733.54204 511.62348,732.94829 512.90473,731.82329 512.71723,731.01079 512.09223,730.47954 507.84223,728.82329 506.59223,728.88579 507.12348,727.76079 507.77973,727.22954 507.43598,726.16704 507.68598,725.35454 507.27973,724.72954 506.74848,725.26079 505.99848,725.22954 505.71723,723.88579 507.46723,722.72954 508.74848,722.60454 510.02973,721.41704 510.56098,720.22954 512.87348,719.32329 512.68598,717.63579 511.52973,716.35454 511.09223,716.38579 509.06098,717.19829 507.77973,717.07329 505.40473,716.01079 504.77973,714.41704 505.02973,714.76079 505.87348,714.82329 506.09223,714.47954 506.18598,711.57329 505.49848,711.04204 505.37348,710.22954 504.24848,707.29204 502.24848,708.72954 500.62348,708.97954 500.62348,707.79204 499.09223,707.16704 497.43598,707.07329 495.71723,705.16704 494.87348,705.07329 494.06098,704.44829 493.77973,703.41704 493.02973,702.97954 489.99848,702.94829 488.59223,702.01079 486.46723,701.97954 485.62348,702.97954 485.27973,703.13579 484.34223,701.97954 484.59223,701.69829 484.46723,700.22954 484.84223,699.44829 486.15473,699.26079 489.37348,697.04204 491.49848,696.57329 492.02973,696.16704 492.24848,695.76079 490.81098,692.72954 490.74848,691.10454 491.62348,689.66704 490.93598,688.19829 491.27973,687.44829 490.40473,686.66704 490.49848,685.88579 491.77973,684.94829 492.02973,683.79204 491.12348,682.88579 489.81098,680.04204 489.21723,679.41704 488.49848,679.38579 z M 463.37348,679.54204 461.21723,679.88579 461.93598,681.82329 461.18598,683.38579 461.18598,684.26079 462.65473,685.26079 464.12348,687.47954 465.15473,688.13579 466.21723,687.35454 467.96723,687.38579 469.99848,689.07329 471.59223,691.16704 472.81098,694.47954 473.52973,695.57329 473.90473,695.79204 474.06098,695.38579 474.12348,690.57329 473.24848,689.07329 470.90473,687.82329 467.93598,686.13579 467.09223,686.10454 466.71723,685.38579 466.90473,683.82329 466.65473,683.51079 465.87348,683.72954 466.68598,683.38579 467.84223,683.94829 468.18598,683.66704 467.99848,681.47954 465.12348,679.60454 463.37348,679.54204 z M 455.12348,716.19829 454.46723,716.26079 453.81098,716.82329 453.02973,717.19829 452.93598,717.38579 452.93598,717.60454 453.06098,718.26079 453.15473,718.44829 453.46723,719.04204 454.34223,719.66704 454.46723,720.32329 455.27973,720.16704 456.02973,720.94829 456.46723,720.97954 457.02973,721.32329 457.65473,721.16704 458.56098,722.07329 459.90473,721.38579 460.27973,720.85454 462.18598,721.26079 462.71723,721.63579 462.81098,721.44829 462.52973,720.85454 461.59223,719.63579 460.93598,719.10454 460.43598,718.72954 459.74848,717.88579 458.02973,717.79204 457.24848,716.76079 455.12348,716.19829 z">
      <title id="t465">Troisième circonscription de Vendée</title>
      <desc id="d465">Cantons de : Beauvoir-sur-Mer, L'Ile-d'Yeu, Noirmoutier-en-l'Ile, Les Sables-d'Olonne, Saint-Gilles-Croix-de-Vie, Saint-Jean-de-Monts</desc>
    </path><path class="circo" id="085-04" d="M 562.97303,714.34899 562.19433,714.59883 562.19093,714.16725 563.33193,712.99246 562.68723,710.51863 563.09363,708.027 561.70873,707.3213 561.49103,706.18493 559.56433,705.71728 558.18373,706.27622 557.03723,707.44002 555.39313,707.16806 555.10823,706.40502 554.70543,706.28206 553.49403,705.73542 552.51973,704.36173 552.17213,704.52498 552.06723,705.79964 549.97423,706.13897 549.13383,705.93577 547.98983,707.77965 546.75573,707.7876 546.15743,707.19104 544.97333,707.44176 544.23423,707.09268 543.85653,706.78096 543.48503,706.57964 543.18853,705.346 543.67633,704.22234 542.71663,703.48319 539.49283,700.552 538.49083,699.28952 538.82453,698.51401 539.54203,698.04682 539.52743,697.25811 539.82883,695.99637 541.74123,695.04655 542.63293,693.56676 542.97563,690.98215 542.21713,691.23174 541.53193,690.33005 540.01043,689.85432 540.10873,688.95842 540.72173,688.3842 540.64283,687.1959 541.21403,686.59027 541.32533,685.33934 539.93243,684.37293 540.89873,682.51671 540.78713,682.09801 540.65743,680.82368 539.89013,679.29109 541.01743,678.02183 542.31033,678.06711 542.45913,677.28625 543.24653,677.49357 544.81883,678.71168 546.45383,678.66029 546.65293,677.90832 546.28793,677.75403 546.40853,677.37283 547.42653,675.71654 547.16643,674.20611 547.47143,673.45913 548.24113,673.29574 548.66773,672.6142 549.07543,672.47713 550.72123,674.43736 552.30133,675.03736 553.41263,676.31867 554.05053,676.80086 555.12043,678.03031 559.21733,679.30393 559.82053,679.90736 561.00833,680.31373 562.48583,680.99274 564.14753,681.07926 564.76513,681.40789 565.53863,681.80843 566.34973,681.65622 567.48393,682.25408 570.47683,682.53428 571.65373,680.33442 573.01373,681.37249 573.77373,681.20144 575.32013,683.22242 576.88393,682.7114 577.38173,682.04591 579.07963,683.55667 580.23643,684.05529 581.02983,686.00065 580.15803,686.68731 580.45903,687.00258 581.73433,686.80465 582.07273,687.97708 583.15703,688.20425 583.29243,689.04969 582.17283,688.94646 581.84033,689.24133 581.96153,689.65734 584.44013,689.93961 584.37213,690.68026 586.24513,691.56497 586.77623,692.73968 588.00493,692.98859 587.67243,693.70128 587.11763,694.32381 587.29253,695.12058 586.08753,697.3387 587.53203,698.07007 589.37923,700.68165 589.97183,701.41949 590.42533,702.51803 591.12703,702.85617 592.42093,703.97932 594.06633,704.28048 594.82823,705.19284 596.49353,705.19023 597.42343,706.76978 596.00773,707.65709 595.59483,709.19981 595.20813,709.99022 595.08893,711.74685 595.66793,713.36468 594.55163,713.99692 594.04043,715.16174 592.32853,715.25898 590.74403,717.83558 592.13463,718.54017 592.43753,719.4543 589.75603,720.44775 588.37673,721.82582 586.89253,720.32938 584.91623,719.83905 584.00703,721.61528 584.33453,722.37337 582.39503,722.67197 581.56603,723.47466 580.94693,722.90775 578.06653,722.34611 577.59863,721.62544 576.33343,721.42073 575.78193,720.79142 575.54913,720.79093 575.33893,720.55347 575.58233,718.58108 575.19213,717.39566 575.33793,716.59124 575.03823,716.30229 575.55203,714.72102 576.81143,713.03266 575.83483,712.27959 574.54853,712.24708 573.41963,711.64285 574.48523,711.02963 574.67553,710.26467 573.55673,708.9782 573.11013,707.75382 571.86633,707.39035 569.08843,710.12465 569.16583,710.46203 572.93943,711.40879 571.68723,714.06428 567.52173,713.29992 566.43343,712.64801 565.59643,712.81106 564.30653,713.87571 563.31263,714.57849 562.97303,714.34899 z">
      <title id="t466">Quatrième circonscription de Vendée</title>
      <desc id="d466">Cantons de : Les Herbiers, Montaigu, Mortagne-sur-Sèvre, Pouzauges, Saint-Fulgent</desc>
    </path><path class="circo" id="085-05" d="M 574.08463,763.18807 573.68743,763.36812 570.34683,763.14485 567.53493,764.345 567.28263,763.5675 565.61243,766.36245 565.03473,766.91734 565.20773,767.28905 563.74313,767.93222 562.14503,767.57618 561.86403,766.80964 561.49373,766.81457 561.31053,767.86294 560.84653,768.40552 559.26503,767.62763 557.92503,766.67412 557.42403,767.26554 554.67203,767.69064 555.19033,769.6003 554.19903,771.77756 553.83603,772.01888 554.53293,773.5042 554.18353,773.73021 553.57653,773.22716 552.11093,772.65053 547.87273,768.42361 546.84543,767.00129 546.05593,767.13212 545.05813,765.47291 544.01063,764.97639 543.45203,764.43648 543.32893,763.64483 542.14143,763.71034 541.58143,763.1494 541.23363,763.24756 540.73933,762.75629 541.01753,762.09882 540.92413,761.68963 540.16943,761.3372 540.43013,760.1428 539.86923,758.59265 540.29893,757.88844 541.73253,757.16085 542.56303,757.3317 542.79163,756.97448 542.42273,756.20993 543.47563,754.40955 544.66923,754.30263 544.83753,755.03287 546.49683,753.6843 546.69043,753.45343 547.35113,751.07913 547.30513,749.04091 549.87013,748.65449 551.16703,748.88035 551.20553,748.75027 551.53653,747.20428 552.32593,746.34233 554.90053,746.15318 555.95983,747.04516 558.56613,746.3448 558.99383,746.35443 560.68823,743.43701 559.08453,743.06695 559.00643,742.25462 559.59563,741.27106 559.95693,741.38572 560.53893,740.91843 561.81183,741.73401 562.52183,741.42056 562.39673,741.04162 562.60363,740.23646 563.37103,739.9568 563.56823,739.12976 562.94853,737.54929 562.22783,737.10769 561.98513,736.75694 561.78223,735.93259 562.04583,735.16837 561.59973,734.0074 562.00293,734.10783 562.68373,735.14499 563.47523,735.31887 564.48983,733.61344 565.47213,732.9134 566.46503,732.13362 564.70903,730.40485 565.20163,729.23662 566.88133,727.41189 569.96063,728.86317 570.65223,729.90919 572.99013,728.8451 574.45303,725.296 574.26773,724.06371 573.35353,723.28673 574.27633,721.84044 575.13293,721.75593 575.54913,720.79093 575.78193,720.79142 576.33343,721.42073 577.59863,721.62544 578.06653,722.34611 580.94693,722.90775 581.56603,723.47466 582.39503,722.67197 584.33453,722.37337 584.00703,721.61528 584.91623,719.83905 586.89253,720.32938 588.37673,721.82582 589.75603,720.44775 592.43753,719.4543 592.13463,718.54017 590.74403,717.83558 592.32853,715.25898 594.04043,715.16174 594.55163,713.99692 595.66793,713.36468 596.68523,714.11292 597.49673,713.8746 597.73023,714.64969 597.51063,715.81948 598.31013,717.07078 598.67293,716.84695 599.63253,717.69398 601.10133,720.2337 599.15303,721.92532 600.93943,723.16321 602.70303,724.81879 601.78333,725.6294 601.72653,726.8364 600.86003,727.6579 600.99583,728.45616 602.18403,727.97818 603.03683,728.1619 604.66013,730.16785 603.53923,731.9651 604.42773,732.79736 604.23763,733.52759 604.70583,734.19058 603.74773,735.4476 604.32113,737.41948 605.14093,737.29709 605.58383,739.73015 605.66623,740.90706 605.11133,741.54399 603.45023,741.53905 602.25733,741.95948 602.55933,742.63708 602.07643,743.67267 602.92723,744.43593 603.67683,745.41766 603.41923,747.49499 604.31743,748.33816 604.46853,749.60611 605.14903,750.67037 604.50443,750.95242 604.12723,752.51987 602.71563,753.37215 602.49633,755.78546 603.26773,756.75999 602.59903,757.75533 604.07203,758.53165 604.91173,755.74638 605.74053,755.79841 607.37813,757.08049 608.19513,757.26772 608.48063,758.02463 610.12873,758.25448 611.13433,759.02348 609.47803,761.78558 609.28173,762.16866 607.68123,762.77747 605.60613,762.33494 605.16753,763.93028 604.20883,764.7901 602.69483,765.42921 602.71933,766.63658 602.14613,767.27662 601.42073,767.51994 599.70383,767.67427 597.57323,766.57024 596.74303,767.45483 595.95653,767.59181 595.53523,768.2496 595.78433,769.00983 595.11573,769.2756 593.05633,769.14604 592.25363,768.16826 591.41623,768.06858 590.90093,767.3976 588.60773,766.5583 588.24093,765.80924 589.03993,764.93711 588.93843,764.52908 586.68683,765.19431 586.17283,764.51886 585.38353,764.78493 584.71413,765.8543 585.03013,766.64126 584.68273,767.41496 583.48993,767.31477 583.67763,766.53552 583.35093,766.303 582.87383,766.90676 581.46443,766.38375 580.73543,767.59711 579.31913,768.10132 579.06773,767.7587 577.46413,768.11621 575.35873,766.79697 576.81223,764.73174 577.43683,762.27003 578.02263,760.93695 575.97043,762.14366 574.86273,761.61855 574.08463,763.18807 z">
      <title id="t467">Cinquième circonscription de Vendée</title>
      <desc id="d467">Cantons de : Chaillé-les-Marais, La Châtaigneraie, Fontenay-le-Comte, L'Hermenault, Luçon, Maillezais, Sainte-Hermine, Saint-Hilaire-des-Loges</desc>
    </path></svg>