<svg xmlns="http://www.w3.org/2000/svg" version="1.1" xmlns:xlink="http://www.w3.org/1999/xlink" xmlns:svgjs="http://svgjs.dev/svgjs" viewBox="0 0 111.79399999999998 139.4240000000001"><path class="circo" id="id-086-01" d="M19.144999999999982 48.36712L18.48249999999996 48.88130000000001L16.90429999999992 48.46842000000004L17.07389999999998 50.48194999999998L16.73389999999995 50.72482000000002L15.161299999999983 50.27544L15.116999999999962 50.91668000000004L13.892599999999902 50.539660000000026L13.169399999999996 51.503630000000044L12.325899999999933 51.36205000000007L11.60349999999994 51.77389000000005L10.935999999999922 53.31939L11.491199999999935 54.45636000000002L11.783699999999953 55.69346000000007L11.392299999999977 55.860250000000065L10.62360000000001 55.79762000000005L9.002199999999903 57.041290000000004L8.639900000000011 57.267310000000066L8.906599999999912 58.51604000000009L8.680599999999913 59.31179000000009L7.120299999999929 59.93568000000005L7.863999999999919 61.37657999999999L5.989599999999996 63.02701999999999L7.253299999999967 62.929410000000075L8.555700000000002 61.86041L10.954700000000003 62.47589000000005L12.967199999999934 62.286339999999996L13.24619999999993 62.60509000000002L14.084499999999935 61.627230000000054L15.521399999999971 59.973730000000046L15.91459999999995 59.83071000000007L17.7586 60.79335000000003L18.285799999999995 60.14190000000008L19.340499999999906 58.87277000000006L19.89760000000001 58.237010000000055L21.525499999999965 57.96564999999998L22.350599999999986 58.927560000000085L22.604999999999905 60.21935000000008L21.323499999999967 61.721520000000055L21.92279999999994 64.68200000000002L25.067099999999982 65.24075000000005L25.564699999999903 64.59816000000001L26.063099999999963 64.94640000000004L26.74109999999996 65.27827000000002L26.759699999999953 66.44008000000008L26.22359999999992 67.00450000000001L27.91489999999999 67.29159000000004L29.131399999999985 68.4778L29.97759999999994 68.64674000000002L30.591399999999908 68.58510999999999L31.159299999999917 69.19650000000001L32.7509 69.67989L34.809999999999945 71.14195000000007L35.27869999999996 71.85493000000008L35.084499999999935 72.67854L37.047399999999925 73.61932999999999L38.03099999999995 73.46559000000002L38.3771999999999 73.14178000000004L39.089399999999955 73.67307000000005L39.8599999999999 73.35805000000005L40.27080000000001 74.52719000000002L40.12709999999993 75.20022000000006L41.159599999999955 76.11954000000003L42.540899999999965 77.38407000000007L42.11869999999999 75.75300000000004L42.39319999999998 74.50859000000003L44.03899999999999 74.30504000000008L45.15909999999997 75.45144000000005L45.18209999999999 76.26484000000005L45.95089999999993 76.55610000000001L47.26069999999993 77.06380000000001L45.93279999999993 78.56887000000006L46.148399999999924 79.78101000000004L46.92019999999991 81.14278999999999L47.69459999999992 81.48721L49.454599999999914 83.28115000000003L51.2894 84.31179000000009L51.97669999999994 82.18945000000008L52.32669999999996 82.95177000000001L54.074199999999905 84.00592000000006L54.835899999999924 85.00213000000008L56.83409999999992 85.58401000000003L56.4855 84.05989L58.4464999999999 83.23508000000004L59.713300000000004 83.17185000000006L59.94849999999997 82.81085000000007L60.21449999999993 81.55762000000004L59.56709999999998 80.47108000000003L60.55169999999998 79.34914000000003L60.174800000000005 79.21482000000003L59.927599999999984 78.45418000000006L60.80289999999991 77.19161000000008L61.82349999999997 75.46899000000008L61.619899999999916 75.11982L60.41149999999993 75.43943999999999L60.1173 75.14652999999998L60.60539999999992 74.02654000000007L60.34439999999995 73.69695999999999L61.4695999999999 73.18257000000006L61.76559999999995 71.97913000000005L63.77779999999996 69.30157000000008L63.08439999999996 66.98964999999998L62.6884 66.9090500000001L60.194099999999935 66.58964000000003L58.952499999999986 66.96315000000004L58.54139999999995 66.82747000000006L58.28279999999995 66.00227000000007L57.9982 65.01934000000006L56.84179999999992 63.54205999999999L55.33510000000001 64.23826000000008L53.21639999999991 64.1672900000001L51.716499999999996 64.78255999999999L50.56669999999997 62.15106000000003L50.51339999999993 61.522170000000074L52.01310000000001 59.57454000000007L51.69489999999996 58.40993000000003L50.30289999999991 57.478200000000015L50.79279999999994 56.03509000000008L49.400699999999915 54.63161000000002L48.35489999999993 55.29538000000002L47.14529999999991 55.53658000000007L45.7032999999999 57.01997000000006L44.5089999999999 56.62011000000007L43.69709999999998 56.85667999999998L43.57349999999997 56.446390000000065L42.76969999999994 56.21600999999998L43.467899999999986 52.50319999999999L42.60929999999996 52.51709000000005L41.56209999999999 51.20371L41.43589999999995 50.79085000000009L42.28699999999992 48.81365000000005L41.36079999999993 48.752700000000004L41.18039999999996 50.039010000000076L40.1155 51.84102000000007L38.86869999999999 52.14327000000003L37.78659999999991 51.439610000000016L37.142099999999914 50.601710000000026L37.05430000000001 49.91477000000009L37.6386 49.42201L37.1635 48.85212999999999L37.32339999999999 48.503430000000094L35.22769999999991 48.41354999999999L32.77609999999993 47.60408000000007L31.49219999999991 47.55678L31.108299999999986 47.35315000000003L31.16629999999998 46.48532L30.662199999999984 45.289980000000014L30.247299999999996 45.194720000000075L29.161599999999908 45.763180000000034L28.80759999999998 45.55738000000008L28.156499999999937 45.05661000000009L27.388599999999997 45.300790000000006L24.98249999999996 47.65623000000005L23.781099999999924 48.08406000000002L22.535499999999956 47.862570000000005L21.740599999999972 48.857720000000086L20.14289999999994 49.380930000000035L19.86889999999994 49.04988000000003L19.144999999999982 48.36712z">
      <title id="t468">Première circonscription de la Vienne</title>
      <desc id="d468">Cantons de : Mirebeau, Neuville-de-Poitou, Poitiers I, Poitiers II, Poitiers VII, Saint-Georges-lès-Baillargeaux, Saint-Julien-l'Ars</desc>
    </path><path class="circo" id="id-086-02" d="M53.336599999999976 94.10834L55.30029999999999 94.15791000000002L56.09559999999999 93.88220000000001L56.315200000000004 92.63561000000004L57.316599999999994 91.30675000000008L56.946899999999914 90.59361000000001L55.815599999999904 90.08299L54.43179999999995 88.08848L54.349899999999934 86.95140000000004L56.2826 86.93560000000002L56.83409999999992 85.58401000000003L54.835899999999924 85.00213000000008L54.074199999999905 84.00592000000006L52.32669999999996 82.95177000000001L51.97669999999994 82.18945000000008L51.2894 84.31179000000009L49.454599999999914 83.28115000000003L47.69459999999992 81.48721L46.92019999999991 81.14278999999999L46.148399999999924 79.78101000000004L45.93279999999993 78.56887000000006L47.26069999999993 77.06380000000001L45.95089999999993 76.55610000000001L45.18209999999999 76.26484000000005L45.15909999999997 75.45144000000005L44.03899999999999 74.30504000000008L42.39319999999998 74.50859000000003L42.11869999999999 75.75300000000004L42.540899999999965 77.38407000000007L40.12709999999993 75.20022000000006L40.27080000000001 74.52719000000002L39.8599999999999 73.35805000000005L39.089399999999955 73.67307000000005L38.3771999999999 73.14178000000004L38.03099999999995 73.46559000000002L37.047399999999925 73.61932999999999L35.084499999999935 72.67854L35.27869999999996 71.85493000000008L34.80539999999996 71.17004000000009L34.809999999999945 71.14195000000007L32.7509 69.67989L31.159299999999917 69.19650000000001L30.591399999999908 68.58510999999999L29.97759999999994 68.64674000000002L29.131399999999985 68.4778L27.91489999999999 67.29159000000004L26.22359999999992 67.00450000000001L26.759699999999953 66.44008000000008L26.74109999999996 65.27827000000002L26.063099999999963 64.94640000000004L25.564699999999903 64.59816000000001L25.067099999999982 65.24075000000005L21.92279999999994 64.68200000000002L21.323499999999967 61.721520000000055L22.604999999999905 60.21935000000008L22.350599999999986 58.927560000000085L21.525499999999965 57.96564999999998L19.89760000000001 58.237010000000055L19.340499999999906 58.87277000000006L18.285799999999995 60.14190000000008L17.7586 60.79335000000003L15.91459999999995 59.83071000000007L15.521399999999971 59.973730000000046L14.084499999999935 61.627230000000054L13.24619999999993 62.60509000000002L12.967199999999934 62.286339999999996L10.954700000000003 62.47589000000005L8.555700000000002 61.86041L7.253299999999967 62.929410000000075L5.989599999999996 63.02701999999999L5.956699999999955 63.03841L5.460799999999949 63.713730000000055L5.736799999999903 64.03688L5.661499999999933 65.29399999999998L3.677799999999934 66.86374L3.0032999999999674 67.94073000000003L3.0861999999999625 68.78734000000009L6.2842999999999165 68.08134000000007L7.218099999999936 66.73473999999999L8.26400000000001 66.07892000000004L8.721099999999979 66.69401000000005L7.823599999999942 69.55799000000002L8.951099999999997 70.18501000000003L10.623299999999972 69.81378000000007L10.720299999999952 72.21714000000009L12.311799999999948 72.70438999999999L11.281499999999937 73.46321L10.424599999999941 73.51119000000006L8.398799999999937 75.10807L7.821199999999976 77.12202000000002L9.285199999999918 78.37039000000004L8.147699999999986 81.01035999999999L8.779099999999971 81.56725000000006L10.396599999999921 81.56034L10.832699999999932 82.68474000000003L11.667100000000005 82.74674000000005L12.019499999999994 82.91595000000007L12.938799999999901 82.19143000000008L13.301499999999919 82.33693000000005L14.237899999999968 83.14777000000004L14.81110000000001 85.14708000000007L15.213799999999992 85.27227000000005L16.505199999999945 84.2620300000001L16.35559999999998 83.44972000000007L17.112899999999968 81.53316000000007L18.40599999999995 84.01296000000002L18.680399999999963 85.63944000000004L19.24989999999991 85.62857000000008L20.573099999999954 82.65856000000008L22.629500000000007 82.71315000000004L23.91969999999992 81.62507000000005L26.246599999999944 81.82036000000005L27.095299999999952 82.67276000000004L27.733299999999986 84.13348000000008L27.6558 84.99065000000007L24.83019999999999 85.89634999999998L24.074799999999982 87.38142000000005L24.045299999999997 89.04484000000002L25.240999999999985 90.07164L25.76769999999999 90.49085000000002L25.270299999999907 91.17993999999999L25.8531999999999 92.28276000000005L25.30919999999992 94.31314000000009L25.44749999999999 94.71594000000005L25.930599999999913 95.41298000000006L27.14009999999996 95.20464000000004L27.741199999999935 95.80313000000001L26.62119999999993 98.10824000000002L25.562799999999925 98.78645000000006L25.50019999999995 99.20832000000007L25.892200000000003 99.36972000000003L26.287199999999984 99.27571L27.28959999999995 99.9640300000001L29.32639999999992 98.59238000000005L30.80639999999994 99.40434000000005L31.199299999999994 99.24639000000002L33.523399999999924 100.19722999999999L34.06959999999992 102.03396000000009L34.4366 101.96364000000005L36.8916999999999 100.60263000000009L37.64459999999997 100.92018000000007L38.69970000000001 102.13741000000005L39.3463999999999 100.66533000000004L41.55039999999997 99.67045000000007L41.561199999999985 99.46040000000005L41.36959999999999 99.08819000000005L41.65459999999996 98.30169999999998L40.89709999999991 98.01816000000008L40.75189999999998 97.27579000000003L41.24069999999995 96.12572L43.018299999999954 95.07063000000005L45.039699999999925 95.19860000000006L46.752599999999916 95.20501000000002L49.61419999999998 95.96129000000008L50.85640000000001 95.75728000000004L51.82179999999994 96.56625000000008L52.143299999999954 97.77958999999998L52.557500000000005 96.58954000000006L53.51839999999993 95.77749000000006L53.336599999999976 94.10834z">
      <title id="t469">Deuxième circonscription de la Vienne</title>
      <desc id="d469">Cantons de : Poitiers III, Poitiers IV, Poitiers V, Poitiers VI, La Villedieu-du-Clain, Vivonne, Vouillé</desc>
    </path><path class="circo" id="id-086-03" d="M65.43899999999996 133.55309L63.09069999999997 134.20396000000005L61.429899999999975 134.02206999999999L60.839399999999955 134.5875900000001L60.4443 134.4439500000001L60.3069999999999 135.90880000000004L59.31479999999999 136.53629L58.904499999999985 135.49449000000004L57.480999999999995 135.86616000000004L56.5569999999999 134.52017999999998L55.71709999999996 134.40816000000007L54.57949999999994 134.95600000000002L54.34539999999993 133.72433L52.94359999999995 131.66876000000002L51.541099999999915 130.8083200000001L51.91999999999996 129.26925000000006L50.775800000000004 128.8590700000001L50.012899999999945 129.74208L48.82740000000001 129.49052000000006L48.03329999999994 131.79321000000004L47.4165999999999 132.34004000000004L47.02789999999993 132.20457L46.35859999999991 132.99287000000004L46.82899999999995 133.65238L46.566599999999994 133.9801500000001L46.713300000000004 134.77376000000004L48.36809999999991 134.72351000000003L49.1164 135.06495000000007L49.057399999999916 136.73282000000006L49.53699999999992 137.42284000000006L48.724199999999996 137.25794000000008L48.300199999999904 137.96909000000005L46.621399999999994 139.16116L43.81089999999995 139.4240000000001L42.917499999999905 137.70424000000003L41.81880000000001 137.21518000000003L41.1330999999999 137.67288000000008L38.691499999999905 137.46755000000007L38.00819999999999 137.62865L36.83439999999996 137.4707400000001L36.095899999999915 137.79269L35.4049 137.4641200000001L34.70830000000001 137.9438600000001L33.44439999999997 138.14292L32.219299999999976 137.93466999999998L32.00319999999999 137.18492000000003L30.91059999999993 136.6134800000001L30.51439999999991 135.8830700000001L29.0539 135.24854000000005L27.94889999999998 134.40166L27.368499999999926 133.8910400000001L25.455999999999904 133.73022000000003L24.891899999999964 132.59824000000003L24.73359999999991 131.79959000000008L25.680399999999963 131.04769L25.93859999999995 130.03079000000002L25.551600000000008 129.89539000000002L25.727999999999952 129.52438000000006L27.067399999999907 128.019L27.290300000000002 126.39475000000004L27.220899999999915 125.98918000000003L26.8137999999999 125.94389999999999L25.536899999999946 125.83443L24.55919999999992 127.13870000000009L23.7192 127.03834000000006L23.29079999999999 126.3383L21.86539999999991 126.17411000000004L21.270399999999995 124.28354999999999L20.87099999999998 124.18081000000006L20.549099999999953 123.42032000000006L17.83549999999991 122.63569000000007L18.32249999999999 119.41639000000009L18.714200000000005 119.29687000000001L19.842899999999986 117.61940000000004L20.230699999999956 117.75480000000005L20.81009999999992 117.1757L20.53609999999992 115.97532000000001L20.364799999999946 115.38906000000009L19.631999999999948 112.65410000000008L22.454799999999977 112.62040999999999L23.328199999999924 111.25601000000006L21.681299999999965 108.12528000000009L21.897299999999973 107.77042000000006L22.70589999999993 107.94527000000005L23.087799999999902 107.30945000000008L22.786699999999996 106.52528000000007L23.757299999999987 105.16396000000009L21.957799999999907 103.29741000000001L20.376699999999914 102.54368L19.162799999999947 102.86422000000005L18.70589999999993 103.59108000000003L17.296799999999962 104.55140000000006L16.800299999999993 105.24631L16.919899999999984 106.09377000000006L15.32929999999999 108.01553000000001L12.689399999999978 105.86742000000004L11.175700000000006 105.09478000000001L9.963999999999942 105.39242000000002L10.637299999999982 103.39112L11.350199999999973 102.93589000000009L9.857699999999909 101.60525000000007L11.58929999999998 99.57497000000001L10.606899999999996 98.84496999999999L9.91879999999992 97.44414000000006L8.716000000000008 97.25336000000004L8.000799999999913 97.65709000000004L8.00159999999994 96.80313999999998L6.961999999999989 95.58445000000006L7.5945999999999 93.11817000000008L7.781099999999924 90.15664000000004L7.044800000000009 89.73901000000001L7.790899999999965 87.88127000000009L7.615199999999959 87.51768000000004L7.137299999999982 87.04669000000001L5.27189999999996 87.66788000000008L5.003399999999942 87.37463000000002L5.064999999999941 86.15102000000002L5.945599999999899 85.37387999999999L5.34559999999999 84.82285000000002L5.383099999999899 84.00702999999999L6.0301999999999225 82.94707000000005L6.015599999999949 80.88620000000003L8.147699999999986 81.01035999999999L8.779099999999971 81.56725000000006L10.396599999999921 81.56034L10.832699999999932 82.68474000000003L11.667100000000005 82.74674000000005L12.019499999999994 82.91595000000007L12.938799999999901 82.19143000000008L13.301499999999919 82.33693000000005L14.237899999999968 83.14777000000004L14.81110000000001 85.14708000000007L15.213799999999992 85.27227000000005L16.505199999999945 84.2620300000001L16.35559999999998 83.44972000000007L17.112899999999968 81.53316000000007L18.40599999999995 84.01296000000002L18.680399999999963 85.63944000000004L19.24989999999991 85.62857000000008L20.573099999999954 82.65856000000008L22.629500000000007 82.71315000000004L23.91969999999992 81.62507000000005L26.246599999999944 81.82036000000005L27.095299999999952 82.67276000000004L27.733299999999986 84.13348000000008L27.6558 84.99065000000007L24.83019999999999 85.89634999999998L24.074799999999982 87.38142000000005L24.045299999999997 89.04484000000002L25.240999999999985 90.07164L25.76769999999999 90.49085000000002L25.270299999999907 91.17993999999999L25.8531999999999 92.28276000000005L25.30919999999992 94.31314000000009L25.44749999999999 94.71594000000005L25.930599999999913 95.41298000000006L27.14009999999996 95.20464000000004L27.741199999999935 95.80313000000001L26.62119999999993 98.10824000000002L25.562799999999925 98.78645000000006L25.50019999999995 99.20832000000007L25.892200000000003 99.36972000000003L26.287199999999984 99.27571L27.28959999999995 99.9640300000001L29.32639999999992 98.59238000000005L30.80639999999994 99.40434000000005L31.199299999999994 99.24639000000002L33.523399999999924 100.19722999999999L34.06959999999992 102.03396000000009L34.4366 101.96364000000005L36.8916999999999 100.60263000000009L37.64459999999997 100.92018000000007L38.69970000000001 102.13741000000005L39.3463999999999 100.66533000000004L41.55039999999997 99.67045000000007L41.561199999999985 99.46040000000005L41.36959999999999 99.08819000000005L41.65459999999996 98.30169999999998L40.89709999999991 98.01816000000008L40.75189999999998 97.27579000000003L41.24069999999995 96.12572L43.018299999999954 95.07063000000005L45.039699999999925 95.19860000000006L46.752599999999916 95.20501000000002L49.61419999999998 95.96129000000008L50.85640000000001 95.75728000000004L51.82179999999994 96.56625000000008L52.143299999999954 97.77958999999998L52.557500000000005 96.58954000000006L53.51839999999993 95.77749000000006L53.336599999999976 94.10834L55.30029999999999 94.15791000000002L56.09559999999999 93.88220000000001L56.315200000000004 92.63561000000004L57.316599999999994 91.30675000000008L56.946899999999914 90.59361000000001L55.815599999999904 90.08299L54.43179999999995 88.08848L54.349899999999934 86.95140000000004L56.2826 86.93560000000002L56.83409999999992 85.58401000000003L56.4855 84.05989L58.4464999999999 83.23508000000004L59.713300000000004 83.17185000000006L59.94849999999997 82.81085000000007L60.21449999999993 81.55762000000004L59.56709999999998 80.47108000000003L60.55169999999998 79.34914000000003L60.174800000000005 79.21482000000003L59.927599999999984 78.45418000000006L60.80289999999991 77.19161000000008L61.82349999999997 75.46899000000008L61.619899999999916 75.11982L60.41149999999993 75.43943999999999L60.1173 75.14652999999998L60.60539999999992 74.02654000000007L60.34439999999995 73.69695999999999L61.4695999999999 73.18257000000006L61.76559999999995 71.97913000000005L63.77779999999996 69.30157000000008L63.08439999999996 66.98964999999998L62.6884 66.9090500000001L60.194099999999935 66.58964000000003L58.952499999999986 66.96315000000004L58.54139999999995 66.82747000000006L58.28279999999995 66.00227000000007L57.9982 65.01934000000006L56.84179999999992 63.54205999999999L55.33510000000001 64.23826000000008L53.21639999999991 64.1672900000001L51.716499999999996 64.78255999999999L50.56669999999997 62.15106000000003L50.51339999999993 61.522170000000074L52.01310000000001 59.57454000000007L51.69489999999996 58.40993000000003L50.30289999999991 57.478200000000015L50.79279999999994 56.03509000000008L49.400699999999915 54.63161000000002L48.35489999999993 55.29538000000002L47.14529999999991 55.53658000000007L45.7032999999999 57.01997000000006L44.5089999999999 56.62011000000007L43.69709999999998 56.85667999999998L43.57349999999997 56.446390000000065L42.76969999999994 56.21600999999998L43.467899999999986 52.50319999999999L44.0080999999999 51.438120000000026L45.93559999999991 50.637210000000096L47.583099999999945 50.95726000000002L47.614599999999996 52.49650000000008L49.03499999999997 53.25885000000005L49.74039999999991 54.21064999999999L50.26889999999992 53.63286000000005L51.12119999999993 54.482900000000086L51.940200000000004 54.52954L52.170999999999935 54.181370000000015L51.671299999999974 53.487730000000056L51.68459999999993 52.67366000000004L52.338499999999954 51.567660000000046L53.65159999999992 50.477730000000065L53.66759999999999 49.63414L54.06039999999996 49.47092000000009L55.03800000000001 49.001960000000054L55.15279999999996 49.75875000000008L56.26869999999997 49.29702000000009L58.0945999999999 50.10156000000006L59.71119999999996 52.21846000000005L60.2050999999999 52.89065000000005L62.635599999999954 52.359030000000075L63.8694999999999 52.529870000000074L62.28729999999996 55.57292000000007L63.94869999999992 58.61012000000005L63.96679999999992 59.894660000000044L65.66159999999991 60.04523000000006L66.0127 59.79812000000004L66.18129999999996 58.53153000000009L67.3791 58.64817000000005L68.4665 57.994410000000016L70.17149999999992 57.94482000000005L70.899 56.99133000000006L71.52209999999991 57.451419999999985L72.60939999999994 57.16453000000001L73.19809999999995 57.66924000000006L75.14729999999997 55.56114000000002L75.34769999999992 56.395560000000046L76.62249999999995 58.11862000000008L78.16329999999994 57.560890000000086L79.4627999999999 58.51542000000006L80.65409999999997 58.15890999999999L82.26909999999998 58.69218000000001L82.46809999999994 58.31163000000004L84.5847 58.30159000000003L85.42319999999995 55.45932000000005L86.13229999999999 55.87265000000002L86.06709999999998 57.070550000000026L87.29179999999997 59.20210000000009L87.48910000000001 60.02181000000007L86.72589999999991 60.408090000000016L85.375 61.99644000000001L86.13789999999995 62.199250000000006L85.8066 63.38747999999998L86.51199999999994 65.33994000000007L85.83109999999999 65.82979L84.80169999999998 67.67385000000002L84.67769999999996 68.06958000000009L85.60609999999997 69.42830000000004L86.5311999999999 72.02849000000003L88.3922 72.30138L88.21629999999993 73.00681000000009L88.69899999999996 73.97683000000006L89.90859999999998 74.38085000000001L90.49000000000001 75.00841000000003L92.15419999999995 74.9176500000001L92.85449999999992 75.82854000000009L94.9378999999999 75.59857L95.78289999999993 77.83102000000008L95.41769999999997 79.38300000000004L99.2512999999999 79.12288000000001L100.49429999999995 79.50211999999999L101.34109999999998 79.32900000000006L102.53499999999997 79.84217999999998L104.19939999999997 81.21444000000008L106.36039999999991 83.69856000000004L105.31409999999994 84.36945000000003L105.25389999999993 84.77915000000007L106.68449999999996 87.32501000000002L106.45259999999996 87.64394000000004L105.20189999999991 87.56556L106.51119999999992 90.10655000000008L108.00789999999995 90.59386000000006L109.44939999999997 91.44046000000003L109.47609999999997 92.70060000000001L110.29549999999995 92.65632000000005L110.96809999999994 92.13772000000006L111.79399999999998 92.2299700000001L110.12329999999997 95.10576000000003L110.29239999999993 96.30655000000002L108.75209999999993 98.28679L107.02879999999993 97.63663000000008L106.3069999999999 99.13526000000002L106.35529999999994 99.9719100000001L104.61239999999998 100.9640300000001L104.72149999999999 101.36851999999999L104.54289999999992 102.60969L102.9858999999999 101.99689000000001L102.30279999999993 100.94605000000001L100.25279999999998 101.41631000000007L97.94639999999993 100.89505000000008L97.81719999999996 101.66264000000001L95.99180000000001 103.27661L95.9117 105.78151000000003L95.48309999999992 106.98728000000006L94.52469999999994 107.80401000000006L94.49489999999992 109.04054000000008L94.00149999999996 109.71014000000002L94.18329999999992 110.96415999999999L93.97029999999995 111.05604000000005L93.25889999999993 110.65754000000004L92.51389999999992 110.88815L91.34960000000001 110.40391L89.67059999999992 110.39087000000006L88.1848 109.70067000000006L88.08849999999995 110.92087000000004L85.28879999999992 110.16061000000002L84.30719999999997 112.49228000000005L81.92139999999995 113.31990000000008L82.06859999999995 113.70128L81.58909999999992 114.82942000000003L80.78869999999995 114.98639000000003L80.38419999999996 116.13890000000004L81.09359999999992 116.49812000000009L80.81020000000001 117.27745000000004L77.39639999999997 117.47564L76.6280999999999 119.01224000000002L76.23599999999999 119.19036000000006L76.73069999999996 119.64683000000002L76.70139999999992 120.73419000000001L77.81919999999991 121.19976000000008L78.48789999999997 122.69990000000007L79.51959999999997 123.29522000000009L79.12249999999995 124.33339000000001L79.30559999999991 124.90230000000008L79.92999999999995 125.12384000000009L79.43799999999999 126.27498000000003L79.72109999999998 127.52175L80.5800999999999 128.48063000000002L80.0924 129.05754000000002L79.51729999999998 129.69658000000004L78.6742999999999 129.68002L77.3854 128.67163000000005L75.42359999999996 129.37743L72.25239999999997 128.43757000000005L70.66579999999999 128.88544000000002L69.23109999999997 128.4075200000001L69.19329999999991 128.47388999999998L68.79279999999994 129.63035000000002L66.9577999999999 130.64411000000007L66.1801999999999 131.64914L67.11569999999995 133.52232000000004L65.43899999999996 133.55309z">
      <title id="t470">Troisième circonscription de la Vienne</title>
      <desc id="d470">Cantons de : Availles-Limouzine, Charroux, Chauvigny, Civray, Couhé, Gençay, L'Isle-Jourdain, Lusignan, Lussac-les-Châteaux, Montmorillon, Saint-Savin, La Trimouille, Vouneuil-sur-Vienne, commune de La Puye</desc>
    </path><path class="circo" id="id-086-04" d="M56.26869999999997 49.29702000000009L55.15279999999996 49.75875000000008L55.03800000000001 49.001960000000054L54.06039999999996 49.47092000000009L53.66759999999999 49.63414L53.65159999999992 50.477730000000065L52.338499999999954 51.567660000000046L51.68459999999993 52.67366000000004L51.671299999999974 53.487730000000056L52.170999999999935 54.181370000000015L51.940200000000004 54.52954L51.12119999999993 54.482900000000086L50.26889999999992 53.63286000000005L49.74039999999991 54.21064999999999L49.03499999999997 53.25885000000005L47.614599999999996 52.49650000000008L47.583099999999945 50.95726000000002L45.93559999999991 50.637210000000096L44.0080999999999 51.438120000000026L43.467899999999986 52.50319999999999L42.60929999999996 52.51709000000005L41.56209999999999 51.20371L41.43589999999995 50.79085000000009L42.28699999999992 48.81365000000005L41.36079999999993 48.752700000000004L41.18039999999996 50.039010000000076L40.1155 51.84102000000007L38.86869999999999 52.14327000000003L37.78659999999991 51.439610000000016L37.142099999999914 50.601710000000026L37.05430000000001 49.91477000000009L37.6386 49.42201L37.1635 48.85212999999999L37.32339999999999 48.503430000000094L35.22769999999991 48.41354999999999L32.77609999999993 47.60408000000007L31.49219999999991 47.55678L31.108299999999986 47.35315000000003L31.16629999999998 46.48532L30.662199999999984 45.289980000000014L30.247299999999996 45.194720000000075L29.161599999999908 45.763180000000034L28.80759999999998 45.55738000000008L28.156499999999937 45.05661000000009L27.388599999999997 45.300790000000006L24.98249999999996 47.65623000000005L23.781099999999924 48.08406000000002L22.535499999999956 47.862570000000005L21.740599999999972 48.857720000000086L20.14289999999994 49.380930000000035L19.86889999999994 49.04988000000003L19.144999999999982 48.36712L18.48249999999996 48.88130000000001L16.90429999999992 48.46842000000004L17.07389999999998 50.48194999999998L16.73389999999995 50.72482000000002L15.161299999999983 50.27544L15.116999999999962 50.91668000000004L13.892599999999902 50.539660000000026L13.169399999999996 51.503630000000044L12.325899999999933 51.36205000000007L11.60349999999994 51.77389000000005L10.935999999999922 53.31939L11.491199999999935 54.45636000000002L10.733299999999986 54.15185000000008L8.517499999999927 51.62921000000006L7.603999999999928 52.48930000000007L6.863899999999944 50.96694000000002L6.821199999999976 49.75962000000004L7.174499999999966 49.55259000000001L6.619699999999966 48.51249000000007L6.754299999999944 48.12477999999999L8.08039999999994 46.60391000000004L9.259399999999914 45.513790000000085L9.242899999999963 45.10703000000001L8.304300000000012 44.35940000000005L6.8204999999999245 44.978110000000015L4.507599999999911 43.961520000000064L4.822099999999978 43.84188000000006L4.796799999999962 42.83531000000005L5.633199999999988 42.81866000000002L6.399999999999977 41.830690000000004L7.773399999999924 40.93256000000008L8.986899999999991 41.228970000000004L9.947799999999916 42.555000000000064L10.092199999999934 42.48020000000008L11.55009999999993 40.10491000000002L10.69889999999998 40.12132000000008L9.539299999999912 39.54257000000007L8.822099999999978 39.05911000000003L7.992999999999938 38.07245L6.774999999999977 37.61613L5.942299999999932 37.83422000000007L5.650699999999915 37.51155000000006L6.276199999999903 36.984300000000076L6.707299999999918 35.054880000000026L7.905099999999948 33.40823L7.501599999999939 31.67342000000008L6.798399999999901 29.651340000000005L6.0674999999999955 29.19493L5.990299999999934 28.318380000000047L4.869899999999916 26.98590999999999L4.7490999999999985 26.11417000000006L5.8648999999999205 24.403130000000033L5.389799999999923 23.277480000000082L3.9772999999999 22.61015000000009L2.734499999999912 22.833720000000085L1.329499999999939 23.774540000000002L0.8280999999999494 21.28227000000004L0.8848999999999023 20.50054L1.6588999999999032 20.677940000000035L1.766399999999976 20.30532000000005L1.177699999999959 18.81973000000005L1.008199999999988 17.865620000000035L0.910199999999918 17.217700000000036L0 13.859990000000039L0.1251999999999498 11.391079999999988L0.34569999999996526 10.54665L1.409400000000005 9.41253000000006L2.5782999999998992 9.593970000000013L2.920599999999922 10.292820000000006L4.920099999999934 10.321910000000003L5.678699999999935 11.125060000000076L6.379500000000007 9.132810000000063L6.295099999999934 8.71408000000008L5.493099999999913 8.450199999999995L5.339899999999943 8.052160000000072L5.753099999999904 6.890510000000063L5.8128999999999 6.023760000000038L7.684199999999919 2.440140000000042L10.296899999999937 0L11.795199999999909 1.9248499999999922L12.637200000000007 1.1373500000000831L13.24860000000001 1.3937799999999925L14.200099999999907 3.70742000000007L14.541699999999992 3.961500000000001L15.343899999999962 3.6783000000000357L15.602699999999913 5.309090000000083L15.316799999999944 6.501500000000078L15.6875 7.244020000000091L16.347599999999943 6.736860000000092L17.581999999999994 6.8691499999999905L18.178699999999935 5.8196100000000115L19.021499999999946 5.975540000000024L19.90949999999998 6.79507000000001L20.63889999999992 6.39494000000002L20.083099999999945 7.559669999999983L20.151299999999992 8.421350000000075L22.443899999999985 9.453110000000038L22.761199999999917 8.636280000000056L24.124500000000012 7.54867999999999L24.561399999999935 9.20611000000008L25.719799999999964 10.505700000000047L23.714200000000005 12.747780000000034L23.615099999999984 14.369100000000003L24.009599999999978 14.526950000000056L25.20539999999994 14.085230000000024L26.37799999999993 15.303510000000074L28.382299999999987 14.05128000000002L28.669299999999907 13.316140000000019L29.410300000000007 13.09337000000005L31.082899999999995 13.398130000000037L31.139999999999986 16.152210000000082L31.43369999999993 16.449970000000008L32.63009999999997 16.089339999999993L34.0474999999999 15.211189999999988L34.855999999999995 16.054410000000075L34.68709999999999 17.24901L35.025800000000004 18.44751000000008L34.230999999999995 19.31151L34.876199999999926 21.951099999999997L35.09319999999991 22.27714000000003L34.23939999999993 23.10340000000008L33.4532999999999 23.155110000000036L34.74129999999991 24.56797000000006L34.02879999999993 25.52274L34.72550000000001 26.43590000000006L34.3537 27.508840000000077L35.0797 29.452640000000088L35.968099999999936 30.334150000000022L36.33619999999996 30.543639999999982L37.434099999999944 29.91314L38.26769999999999 29.8682L39.674999999999955 28.349390000000085L41.64619999999991 28.95438999999999L43.13729999999998 29.89758000000006L44.4443 29.865830000000074L45.971900000000005 30.713050000000067L46.48989999999992 29.272000000000048L50.44089999999994 27.50834000000009L51.62289999999996 26.936840000000075L52.27839999999992 27.44109000000003L54.56529999999998 26.89910000000009L55.788799999999924 27.115679999999998L56.98829999999998 27.464380000000006L59.52940000000001 27.370610000000056L59.826599999999985 27.06424000000004L59.580299999999966 25.066800000000057L57.444999999999936 24.012280000000032L57.51049999999998 22.82836000000009L56.87259999999992 21.625420000000076L56.93999999999994 21.15849000000003L57.70639999999992 21.36728000000005L58.87919999999997 21.10338999999999L61.25369999999998 21.00529000000006L61.692499999999995 21.641000000000076L61.542499999999905 22.014920000000075L61.720699999999965 22.729040000000055L62.89459999999997 23.780270000000087L63.65989999999999 23.40596000000005L64.43319999999994 23.78812000000005L64.82189999999991 24.56099000000006L67.34679999999992 25.05982000000006L67.78059999999994 25.780970000000025L67.7722 26.646270000000072L67.84079999999994 27.00434000000007L68.7074 29.900690000000054L68.45179999999993 31.180680000000052L68.94029999999998 32.18877000000009L68.5 33.22943000000009L68.5791999999999 34.03516000000002L70.68709999999999 36.485990000000015L71.20819999999992 37.52834000000007L71.88169999999991 37.92797000000007L72.7233 39.295810000000074L74.1599 38.82278000000008L74.28469999999993 39.21226999999999L73.82259999999997 39.884900000000016L74.2503999999999 40.49296000000004L75.9020999999999 40.33113000000003L76.39679999999998 40.94077000000004L75.63979999999992 41.28998999999999L75.56759999999997 41.70170000000007L76.2290999999999 42.73752999999999L77.36219999999992 43.203820000000064L77.5202999999999 44.84868000000006L77.5462 45.06058000000007L78.00819999999999 46.20218L77.81759999999997 47.85612000000003L78.90089999999998 48.45898L79.18119999999999 49.69458000000009L80.49399999999991 51.41354999999999L81.67459999999994 51.89313000000004L81.76069999999993 52.31883000000005L82.4174999999999 53.24980000000005L83.46589999999992 54.42473000000007L85.0403 54.79037000000005L85.42319999999995 55.45932000000005L84.5847 58.30159000000003L82.46809999999994 58.31163000000004L82.26909999999998 58.69218000000001L80.65409999999997 58.15890999999999L79.4627999999999 58.51542000000006L78.16329999999994 57.560890000000086L76.62249999999995 58.11862000000008L75.34769999999992 56.395560000000046L75.14729999999997 55.56114000000002L73.19809999999995 57.66924000000006L72.60939999999994 57.16453000000001L71.52209999999991 57.451419999999985L70.899 56.99133000000006L70.17149999999992 57.94482000000005L68.4665 57.994410000000016L67.3791 58.64817000000005L66.18129999999996 58.53153000000009L66.0127 59.79812000000004L65.66159999999991 60.04523000000006L63.96679999999992 59.894660000000044L63.94869999999992 58.61012000000005L62.28729999999996 55.57292000000007L63.8694999999999 52.529870000000074L62.635599999999954 52.359030000000075L60.2050999999999 52.89065000000005L59.71119999999996 52.21846000000005L58.0945999999999 50.10156000000006L56.26869999999997 49.29702000000009z">
      <title id="t471">Quatrième circonscription de la Vienne</title>
      <desc id="d471">Cantons de : Châtellerault Nord, Châtellerault Ouest, Châtellerault Sud, Dangé-Saint-Romain, Lencloître, Loudun, Moncontour, Monts-sur-Guesnes, Pleumartin (moins la commune de La Puye), Saint-Gervais-les-Trois-Clochers, Les Trois-Moutiers</desc>
    </path></svg>