<svg xmlns="http://www.w3.org/2000/svg" version="1.1" xmlns:xlink="http://www.w3.org/1999/xlink" xmlns:svgjs="http://svgjs.dev/svgjs" viewBox="648.16803 661.04635 111.79399999999998 139.4240000000001"><path class="circo" id="086-01" d="M 667.31303,709.41347 666.65053,709.92765 665.07233,709.51477 665.24193,711.5283 664.90193,711.77117 663.32933,711.32179 663.28503,711.96303 662.06063,711.58601 661.33743,712.54998 660.49393,712.4084 659.77153,712.82024 659.10403,714.36574 659.65923,715.50271 659.95173,716.73981 659.56033,716.9066 658.79163,716.84397 657.17023,718.08764 656.80793,718.31366 657.07463,719.56239 656.84863,720.35814 655.28833,720.98203 656.03203,722.42293 654.15763,724.07337 655.42133,723.97576 656.72373,722.90676 659.12273,723.52224 661.13523,723.33269 661.41423,723.65144 662.25253,722.67358 663.68943,721.02008 664.08263,720.87706 665.92663,721.8397 666.45383,721.18825 667.50853,719.91912 668.06563,719.28336 669.69353,719.012 670.51863,719.97391 670.77303,721.2657 669.49153,722.76787 670.09083,725.72835 673.23513,726.2871 673.73273,725.64451 674.23113,725.99275 674.90913,726.32462 674.92773,727.48643 674.39163,728.05085 676.08293,728.33794 677.29943,729.52415 678.14563,729.69309 678.75943,729.63146 679.32733,730.24285 680.91893,730.72624 682.97803,732.1883 683.44673,732.90128 683.25253,733.72489 685.21543,734.66568 686.19903,734.51194 686.54523,734.18813 687.25743,734.71942 688.02803,734.4044 688.43883,735.57354 688.29513,736.24657 689.32763,737.16589 690.70893,738.43042 690.28673,736.79935 690.56123,735.55494 692.20703,735.35139 693.32713,736.49779 693.35013,737.31119 694.11893,737.60245 695.42873,738.11015 694.10083,739.61522 694.31643,740.82736 695.08823,742.18914 695.86263,742.53356 697.62263,744.3275 699.45743,745.35814 700.14473,743.2358 700.49473,743.99812 702.24223,745.05227 703.00393,746.04848 705.00213,746.63036 704.65353,745.10624 706.61453,744.28143 707.88133,744.2182 708.11653,743.8572 708.38253,742.60397 707.73513,741.51743 708.71973,740.39549 708.34283,740.26117 708.09563,739.50053 708.97093,738.23796 709.99153,736.51534 709.78793,736.16617 708.57953,736.48579 708.28533,736.19288 708.77343,735.07289 708.51243,734.74331 709.63763,734.22892 709.93363,733.02548 711.94583,730.34792 711.25243,728.036 710.85643,727.9554 708.36213,727.63599 707.12053,728.0095 706.70943,727.87382 706.45083,727.04862 706.16623,726.06569 705.00983,724.58841 703.50313,725.28461 701.38443,725.21364 699.88453,725.82891 698.73473,723.19741 698.68143,722.56852 700.18113,720.62089 699.86293,719.45628 698.47093,718.52455 698.96083,717.08144 697.56873,715.67796 696.52293,716.34173 695.31333,716.58293 693.87133,718.06632 692.67703,717.66646 691.86513,717.90303 691.74153,717.49274 690.93773,717.26236 691.63593,713.54955 690.77733,713.56344 689.73013,712.25006 689.60393,711.8372 690.45503,709.86 689.52883,709.79905 689.34843,711.08536 688.28353,712.88737 687.03673,713.18962 685.95463,712.48596 685.31013,711.64806 685.22233,710.96112 685.80663,710.46836 685.33153,709.89848 685.49143,709.54978 683.39573,709.4599 680.94413,708.65043 679.66023,708.60313 679.27633,708.3995 679.33433,707.53167 678.83023,706.33633 678.41533,706.24107 677.32963,706.80953 676.97563,706.60373 676.32453,706.10296 675.55663,706.34714 673.15053,708.70258 671.94913,709.13041 670.70353,708.90892 669.90863,709.90407 668.31093,710.42728 668.03693,710.09623 667.31303,709.41347 z">
      <title id="t468">Première circonscription de la Vienne</title>
      <desc id="d468">Cantons de : Mirebeau, Neuville-de-Poitou, Poitiers I, Poitiers II, Poitiers VII, Saint-Georges-lès-Baillargeaux, Saint-Julien-l'Ars</desc>
    </path><path class="circo" id="086-02" d="M 701.50463,755.15469 703.46833,755.20426 704.26363,754.92855 704.48323,753.68196 705.48463,752.3531 705.11493,751.63996 703.98363,751.12934 702.59983,749.13483 702.51793,747.99775 704.45063,747.98195 705.00213,746.63036 703.00393,746.04848 702.24223,745.05227 700.49473,743.99812 700.14473,743.2358 699.45743,745.35814 697.62263,744.3275 695.86263,742.53356 695.08823,742.18914 694.31643,740.82736 694.10083,739.61522 695.42873,738.11015 694.11893,737.60245 693.35013,737.31119 693.32713,736.49779 692.20703,735.35139 690.56123,735.55494 690.28673,736.79935 690.70893,738.43042 688.29513,736.24657 688.43883,735.57354 688.02803,734.4044 687.25743,734.71942 686.54523,734.18813 686.19903,734.51194 685.21543,734.66568 683.25253,733.72489 683.44673,732.90128 682.97343,732.21639 682.97803,732.1883 680.91893,730.72624 679.32733,730.24285 678.75943,729.63146 678.14563,729.69309 677.29943,729.52415 676.08293,728.33794 674.39163,728.05085 674.92773,727.48643 674.90913,726.32462 674.23113,725.99275 673.73273,725.64451 673.23513,726.2871 670.09083,725.72835 669.49153,722.76787 670.77303,721.2657 670.51863,719.97391 669.69353,719.012 668.06563,719.28336 667.50853,719.91912 666.45383,721.18825 665.92663,721.8397 664.08263,720.87706 663.68943,721.02008 662.25253,722.67358 661.41423,723.65144 661.13523,723.33269 659.12273,723.52224 656.72373,722.90676 655.42133,723.97576 654.15763,724.07337 654.12473,724.08476 653.62883,724.76008 653.90483,725.08323 653.82953,726.34035 651.84583,727.91009 651.17133,728.98708 651.25423,729.83369 654.45233,729.12769 655.38613,727.78109 656.43203,727.12527 656.88913,727.74036 655.99163,730.60434 657.11913,731.23136 658.79133,730.86013 658.88833,733.26349 660.47983,733.75074 659.44953,734.50956 658.59263,734.55754 656.56683,736.15442 655.98923,738.16837 657.45323,739.41674 656.31573,742.05671 656.94713,742.6136 658.56463,742.60669 659.00073,743.73109 659.83513,743.79309 660.18753,743.9623 661.10683,743.23778 661.46953,743.38328 662.40593,744.19412 662.97913,746.19343 663.38183,746.31862 664.67323,745.30838 664.52363,744.49607 665.28093,742.57951 666.57403,745.05931 666.84843,746.68579 667.41793,746.67492 668.74113,743.70491 670.79753,743.7595 672.08773,742.67142 674.41463,742.86671 675.26333,743.71911 675.90133,745.17983 675.82383,746.037 672.99823,746.9427 672.24283,748.42777 672.21333,750.09119 673.40903,751.11799 673.93573,751.5372 673.43833,752.22629 674.02123,753.32911 673.47723,755.35949 673.61553,755.76229 674.09863,756.45933 675.30813,756.25099 675.90923,756.84948 674.78923,759.15459 673.73083,759.8328 673.66823,760.25467 674.06023,760.41607 674.45523,760.32206 675.45763,761.01038 677.49443,759.63873 678.97443,760.45069 679.36733,760.29274 681.69143,761.24358 682.23763,763.08031 682.60463,763.00999 685.05973,761.64898 685.81263,761.96653 686.86773,763.18376 687.51443,761.71168 689.71843,760.7168 689.72923,760.50675 689.53763,760.13454 689.82263,759.34805 689.06513,759.06451 688.91993,758.32214 689.40873,757.17207 691.18633,756.11698 693.20773,756.24495 694.92063,756.25136 697.78223,757.00764 699.02443,756.80363 699.98983,757.6126 700.31133,758.82594 700.72553,757.63589 701.68643,756.82384 701.50463,755.15469 z">
      <title id="t469">Deuxième circonscription de la Vienne</title>
      <desc id="d469">Cantons de : Poitiers III, Poitiers IV, Poitiers V, Poitiers VI, La Villedieu-du-Clain, Vivonne, Vouillé</desc>
    </path><path class="circo" id="086-03" d="M 713.60703,794.59944 711.25873,795.25031 709.59793,795.06842 709.00743,795.63394 708.61233,795.4903 708.47503,796.95515 707.48283,797.58264 707.07253,796.54084 705.64903,796.91251 704.72503,795.56653 703.88513,795.45451 702.74753,796.00235 702.51343,794.77068 701.11163,792.71511 699.70913,791.85467 700.08803,790.3156 698.94383,789.90542 698.18093,790.78843 696.99543,790.53687 696.20133,792.83956 695.58463,793.38639 695.19593,793.25092 694.52663,794.03922 694.99703,794.69873 694.73463,795.0265 694.88133,795.82011 696.53613,795.76986 697.28443,796.1113 697.22543,797.77917 697.70503,798.46919 696.89223,798.30429 696.46823,799.01544 694.78943,800.20751 691.97893,800.47035 691.08553,798.75059 689.98683,798.26153 689.30113,798.71923 686.85953,798.5139 686.17623,798.675 685.00243,798.51709 684.26393,798.83904 683.57293,798.51047 682.87633,798.99021 681.61243,799.18927 680.38733,798.98102 680.17123,798.23127 679.07863,797.65983 678.68243,796.92942 677.22193,796.29489 676.11693,795.44801 675.53653,794.93739 673.62403,794.77657 673.05993,793.64459 672.90163,792.84594 673.84843,792.09404 674.10663,791.07714 673.71963,790.94174 673.89603,790.57073 675.23543,789.06535 675.45833,787.4411 675.38893,787.03553 674.98183,786.99025 673.70493,786.88078 672.72723,788.18505 671.88723,788.08469 671.45883,787.38465 670.03343,787.22046 669.43843,785.3299 669.03903,785.22716 668.71713,784.46667 666.00353,783.68204 666.49053,780.46274 666.88223,780.34322 668.01093,778.66575 668.39873,778.80115 668.97813,778.22205 668.70413,777.02167 668.53283,776.43541 667.80003,773.70045 670.62283,773.66676 671.49623,772.30236 669.84933,769.17163 670.06533,768.81677 670.87393,768.99162 671.25583,768.3558 670.95473,767.57163 671.92533,766.21031 670.12583,764.34376 668.54473,763.59003 667.33083,763.91057 666.87393,764.63743 665.46483,765.59775 664.96833,766.29266 665.08793,767.14012 663.49733,769.06188 660.85743,766.91377 659.34373,766.14113 658.13203,766.43877 658.80533,764.43747 659.51823,763.98224 658.02573,762.6516 659.75733,760.62132 658.77493,759.89132 658.08683,758.49049 656.88403,758.29971 656.16883,758.70344 656.16963,757.84949 655.13003,756.6308 655.76263,754.16452 655.94913,751.20299 655.21283,750.78536 655.95893,748.92762 655.78323,748.56403 655.30533,748.09304 653.43993,748.71423 653.17143,748.42098 653.23303,747.19737 654.11363,746.42023 653.51363,745.8692 653.55113,745.05338 654.19823,743.99342 654.18363,741.93255 656.31573,742.05671 656.94713,742.6136 658.56463,742.60669 659.00073,743.73109 659.83513,743.79309 660.18753,743.9623 661.10683,743.23778 661.46953,743.38328 662.40593,744.19412 662.97913,746.19343 663.38183,746.31862 664.67323,745.30838 664.52363,744.49607 665.28093,742.57951 666.57403,745.05931 666.84843,746.68579 667.41793,746.67492 668.74113,743.70491 670.79753,743.7595 672.08773,742.67142 674.41463,742.86671 675.26333,743.71911 675.90133,745.17983 675.82383,746.037 672.99823,746.9427 672.24283,748.42777 672.21333,750.09119 673.40903,751.11799 673.93573,751.5372 673.43833,752.22629 674.02123,753.32911 673.47723,755.35949 673.61553,755.76229 674.09863,756.45933 675.30813,756.25099 675.90923,756.84948 674.78923,759.15459 673.73083,759.8328 673.66823,760.25467 674.06023,760.41607 674.45523,760.32206 675.45763,761.01038 677.49443,759.63873 678.97443,760.45069 679.36733,760.29274 681.69143,761.24358 682.23763,763.08031 682.60463,763.00999 685.05973,761.64898 685.81263,761.96653 686.86773,763.18376 687.51443,761.71168 689.71843,760.7168 689.72923,760.50675 689.53763,760.13454 689.82263,759.34805 689.06513,759.06451 688.91993,758.32214 689.40873,757.17207 691.18633,756.11698 693.20773,756.24495 694.92063,756.25136 697.78223,757.00764 699.02443,756.80363 699.98983,757.6126 700.31133,758.82594 700.72553,757.63589 701.68643,756.82384 701.50463,755.15469 703.46833,755.20426 704.26363,754.92855 704.48323,753.68196 705.48463,752.3531 705.11493,751.63996 703.98363,751.12934 702.59983,749.13483 702.51793,747.99775 704.45063,747.98195 705.00213,746.63036 704.65353,745.10624 706.61453,744.28143 707.88133,744.2182 708.11653,743.8572 708.38253,742.60397 707.73513,741.51743 708.71973,740.39549 708.34283,740.26117 708.09563,739.50053 708.97093,738.23796 709.99153,736.51534 709.78793,736.16617 708.57953,736.48579 708.28533,736.19288 708.77343,735.07289 708.51243,734.74331 709.63763,734.22892 709.93363,733.02548 711.94583,730.34792 711.25243,728.036 710.85643,727.9554 708.36213,727.63599 707.12053,728.0095 706.70943,727.87382 706.45083,727.04862 706.16623,726.06569 705.00983,724.58841 703.50313,725.28461 701.38443,725.21364 699.88453,725.82891 698.73473,723.19741 698.68143,722.56852 700.18113,720.62089 699.86293,719.45628 698.47093,718.52455 698.96083,717.08144 697.56873,715.67796 696.52293,716.34173 695.31333,716.58293 693.87133,718.06632 692.67703,717.66646 691.86513,717.90303 691.74153,717.49274 690.93773,717.26236 691.63593,713.54955 692.17613,712.48447 694.10363,711.68356 695.75113,712.00361 695.78263,713.54285 697.20303,714.3052 697.90843,715.257 698.43693,714.67921 699.28923,715.52925 700.10823,715.57589 700.33903,715.22772 699.83933,714.53408 699.85263,713.72001 700.50653,712.61401 701.81963,711.52408 701.83563,710.68049 702.22843,710.51727 703.20603,710.04831 703.32083,710.8051 704.43673,710.34337 706.26263,711.14791 707.87923,713.26481 708.37313,713.937 710.80363,713.40538 712.03753,713.57622 710.45533,716.61927 712.11673,719.65647 712.13483,720.94101 713.82963,721.09158 714.18073,720.84447 714.34933,719.57788 715.54713,719.69452 716.63453,719.04076 718.33953,718.99117 719.06703,718.03768 719.69013,718.49777 720.77743,718.21088 721.36613,718.71559 723.31533,716.60749 723.51573,717.44191 724.79053,719.16497 726.33133,718.60724 727.63083,719.56177 728.82213,719.20526 730.43713,719.73853 730.63613,719.35798 732.75273,719.34794 733.59123,716.50567 734.30033,716.919 734.23513,718.1169 735.45983,720.24845 735.65713,721.06816 734.89393,721.45444 733.54303,723.04279 734.30593,723.2456 733.97463,724.43383 734.68003,726.38629 733.99913,726.87614 732.96973,728.7202 732.84573,729.11593 733.77413,730.47465 734.69923,733.07484 736.56023,733.34773 736.38433,734.05316 736.86703,735.02318 738.07663,735.4272 738.65803,736.05476 740.32223,735.964 741.02253,736.87489 743.10593,736.64492 743.95093,738.87737 743.58573,740.42935 747.41933,740.16923 748.66233,740.54847 749.50913,740.37535 750.70303,740.88853 752.36743,742.26079 754.52843,744.74491 753.48213,745.4158 753.42193,745.8255 754.85253,748.37136 754.62063,748.69029 753.36993,748.61191 754.67923,751.1529 756.17593,751.64021 757.61743,752.48681 757.64413,753.74695 758.46353,753.70267 759.13613,753.18407 759.96203,753.27632 758.29133,756.15211 758.46043,757.3529 756.92013,759.33314 755.19683,758.68298 754.47503,760.18161 754.52333,761.01826 752.78043,762.01038 752.88953,762.41487 752.71093,763.65604 751.15393,763.04324 750.47083,761.9924 748.42083,762.46266 746.11443,761.9414 745.98523,762.70899 744.15983,764.32296 744.07973,766.82786 743.65113,768.03363 742.69273,768.85036 742.66293,770.08689 742.16953,770.75649 742.35133,772.01051 742.13833,772.10239 741.42693,771.70389 740.68193,771.9345 739.51763,771.45026 737.83863,771.43722 736.35283,770.74702 736.25653,771.96722 733.45683,771.20696 732.47523,773.53863 730.08943,774.36625 730.23663,774.74763 729.75713,775.87577 728.95673,776.03274 728.55223,777.18525 729.26163,777.54447 728.97823,778.3238 725.56443,778.52199 724.79613,780.05859 724.40403,780.23671 724.89873,780.69318 724.86943,781.78054 725.98723,782.24611 726.65593,783.74625 727.68763,784.34157 727.29053,785.37974 727.47363,785.94865 728.09803,786.17019 727.60603,787.32133 727.88913,788.5681 728.74813,789.52698 728.26043,790.10389 727.68533,790.74293 726.84233,790.72637 725.55343,789.71798 723.59163,790.42378 720.42043,789.48392 718.83383,789.93179 717.39913,789.45387 717.36133,789.52024 716.96083,790.6767 715.12583,791.69046 714.34823,792.69549 715.28373,794.56867 713.60703,794.59944 z">
      <title id="t470">Troisième circonscription de la Vienne</title>
      <desc id="d470">Cantons de : Availles-Limouzine, Charroux, Chauvigny, Civray, Couhé, Gençay, L'Isle-Jourdain, Lusignan, Lussac-les-Châteaux, Montmorillon, Saint-Savin, La Trimouille, Vouneuil-sur-Vienne, commune de La Puye</desc>
    </path><path class="circo" id="086-04" d="M 704.43673,710.34337 703.32083,710.8051 703.20603,710.04831 702.22843,710.51727 701.83563,710.68049 701.81963,711.52408 700.50653,712.61401 699.85263,713.72001 699.83933,714.53408 700.33903,715.22772 700.10823,715.57589 699.28923,715.52925 698.43693,714.67921 697.90843,715.257 697.20303,714.3052 695.78263,713.54285 695.75113,712.00361 694.10363,711.68356 692.17613,712.48447 691.63593,713.54955 690.77733,713.56344 689.73013,712.25006 689.60393,711.8372 690.45503,709.86 689.52883,709.79905 689.34843,711.08536 688.28353,712.88737 687.03673,713.18962 685.95463,712.48596 685.31013,711.64806 685.22233,710.96112 685.80663,710.46836 685.33153,709.89848 685.49143,709.54978 683.39573,709.4599 680.94413,708.65043 679.66023,708.60313 679.27633,708.3995 679.33433,707.53167 678.83023,706.33633 678.41533,706.24107 677.32963,706.80953 676.97563,706.60373 676.32453,706.10296 675.55663,706.34714 673.15053,708.70258 671.94913,709.13041 670.70353,708.90892 669.90863,709.90407 668.31093,710.42728 668.03693,710.09623 667.31303,709.41347 666.65053,709.92765 665.07233,709.51477 665.24193,711.5283 664.90193,711.77117 663.32933,711.32179 663.28503,711.96303 662.06063,711.58601 661.33743,712.54998 660.49393,712.4084 659.77153,712.82024 659.10403,714.36574 659.65923,715.50271 658.90133,715.1982 656.68553,712.67556 655.77203,713.53565 655.03193,712.01329 654.98923,710.80597 655.34253,710.59894 654.78773,709.55884 654.92233,709.17113 656.24843,707.65026 657.42743,706.56014 657.41093,706.15338 656.47233,705.40575 654.98853,706.02446 652.67563,705.00787 652.99013,704.88823 652.96483,703.88166 653.80123,703.86501 654.56803,702.87704 655.94143,701.97891 657.15493,702.27532 658.11583,703.60135 658.26023,703.52655 659.71813,701.15126 658.86693,701.16767 657.70733,700.58892 656.99013,700.10546 656.16103,699.1188 654.94303,698.66248 654.11033,698.88057 653.81873,698.5579 654.44423,698.03065 654.87533,696.10123 656.07313,694.45458 655.66963,692.71977 654.96643,690.69769 654.23553,690.24128 654.15833,689.36473 653.03793,688.03226 652.91713,687.16052 654.03293,685.44948 653.55783,684.32383 652.14533,683.6565 650.90253,683.88007 649.49753,684.82089 648.99613,682.32862 649.05293,681.54689 649.82693,681.72429 649.93443,681.35167 649.34573,679.86608 649.17623,678.91197 649.07823,678.26405 648.16803,674.90634 648.29323,672.43743 648.51373,671.593 649.57743,670.45888 650.74633,670.64032 651.08863,671.33917 653.08813,671.36826 653.84673,672.17141 654.54753,670.17916 654.46313,669.76043 653.66113,669.49655 653.50793,669.09851 653.92113,667.93686 653.98093,667.07011 655.85223,663.48649 658.46493,661.04635 659.96323,662.9712 660.80523,662.1837 661.41663,662.44013 662.36813,664.75377 662.70973,665.00785 663.51193,664.72465 663.77073,666.35544 663.48483,667.54785 663.85553,668.29037 664.51563,667.78321 665.75003,667.9155 666.34673,666.86596 667.18953,667.02189 668.07753,667.84142 668.80693,667.44129 668.25113,668.60602 668.31933,669.4677 670.61193,670.49946 670.92923,669.68263 672.29253,668.59503 672.72943,670.25246 673.88783,671.55205 671.88223,673.79413 671.78313,675.41545 672.17763,675.5733 673.37343,675.13158 674.54603,676.34986 676.55033,675.09763 676.83733,674.36249 677.57833,674.13972 679.25093,674.44448 679.30803,677.19856 679.60173,677.49632 680.79813,677.13569 682.21553,676.25754 683.02403,677.10076 682.85513,678.29536 683.19383,679.49386 682.39903,680.35786 683.04423,682.99745 683.26123,683.32349 682.40743,684.14975 681.62133,684.20146 682.90933,685.61432 682.19683,686.56909 682.89353,687.48225 682.52173,688.55519 683.24773,690.49899 684.13613,691.3805 684.50423,691.58999 685.60213,690.95949 686.43573,690.91455 687.84303,689.39574 689.81423,690.00074 691.30533,690.94393 692.61233,690.91218 694.13993,691.7594 694.65793,690.31835 698.60893,688.55469 699.79093,687.98319 700.44643,688.48744 702.73333,687.94545 703.95683,688.16203 705.15633,688.51073 707.69743,688.41696 707.99463,688.11059 707.74833,686.11315 705.61303,685.05863 705.67853,683.87471 705.04063,682.67177 705.10803,682.20484 705.87443,682.41363 707.04723,682.14974 709.42173,682.05164 709.86053,682.68735 709.71053,683.06127 709.88873,683.77539 711.06263,684.82662 711.82793,684.45231 712.60123,684.83447 712.98993,685.60734 715.51483,686.10617 715.94863,686.82732 715.94023,687.69262 716.00883,688.05069 716.87543,690.94704 716.61983,692.22703 717.10833,693.23512 716.66803,694.27578 716.74723,695.08151 718.85513,697.53234 719.37623,698.57469 720.04973,698.97432 720.89133,700.34216 722.32793,699.86913 722.45273,700.25862 721.99063,700.93125 722.41843,701.53931 724.07013,701.37748 724.56483,701.98712 723.80783,702.33634 723.73563,702.74805 724.39713,703.78388 725.53023,704.25017 725.68833,705.89503 725.71423,706.10693 726.17623,707.24853 725.98563,708.90247 727.06893,709.50533 727.34923,710.74093 728.66203,712.4599 729.84263,712.93948 729.92873,713.36518 730.58553,714.29615 731.63393,715.47108 733.20833,715.83672 733.59123,716.50567 732.75273,719.34794 730.63613,719.35798 730.43713,719.73853 728.82213,719.20526 727.63083,719.56177 726.33133,718.60724 724.79053,719.16497 723.51573,717.44191 723.31533,716.60749 721.36613,718.71559 720.77743,718.21088 719.69013,718.49777 719.06703,718.03768 718.33953,718.99117 716.63453,719.04076 715.54713,719.69452 714.34933,719.57788 714.18073,720.84447 713.82963,721.09158 712.13483,720.94101 712.11673,719.65647 710.45533,716.61927 712.03753,713.57622 710.80363,713.40538 708.37313,713.937 707.87923,713.26481 706.26263,711.14791 704.43673,710.34337 z">
      <title id="t471">Quatrième circonscription de la Vienne</title>
      <desc id="d471">Cantons de : Châtellerault Nord, Châtellerault Ouest, Châtellerault Sud, Dangé-Saint-Romain, Lencloître, Loudun, Moncontour, Monts-sur-Guesnes, Pleumartin (moins la commune de La Puye), Saint-Gervais-les-Trois-Clochers, Les Trois-Moutiers</desc>
    </path></svg>