<svg xmlns="http://www.w3.org/2000/svg" version="1.1" xmlns:xlink="http://www.w3.org/1999/xlink" xmlns:svgjs="http://svgjs.dev/svgjs" viewBox="0 0 108.77749999999992 117.79298999999992"><path class="circo" id="id-087-01" d="M64.72179999999992 47.33098999999993L64.64329999999995 46.118729999999914L63.8501 45.865929999999935L62.126499999999965 46.92484999999999L61.64379999999994 47.59854999999993L60.44169999999997 47.703199999999924L59.86299999999994 48.294219999999996L58.94099999999992 49.58463999999992L58.6570999999999 50.80287999999996L59.6404 52.018209999999954L59.65249999999992 52.43541999999991L58.84129999999993 53.38238999999999L58.518499999999904 53.6415199999999L56.98389999999995 53.08741999999995L55.63209999999992 53.990159999999946L52.48549999999989 54.12783999999999L52.50569999999993 54.94119999999998L51.5234999999999 56.23278999999991L51.647899999999936 57.038189999999986L52.80759999999998 57.0793799999999L54.196899999999914 56.33412999999996L54.58639999999991 57.032449999999926L54.629099999999994 58.23357999999996L54.18089999999995 59.41557L54.731899999999996 61.394039999999904L54.18319999999994 62.02550999999994L54.24309999999991 62.855749999999944L53.69579999999996 63.994069999999965L53.691299999999956 65.63929999999993L52.88779999999997 66.62568999999996L52.51189999999997 67.06705L52.75849999999991 67.55012999999997L53.47929999999997 67.34010999999998L53.90109999999993 67.47299999999996L53.60119999999995 68.13040999999998L53.06459999999993 68.4736999999999L52.43599999999992 69.58477999999991L53.15389999999991 70.12991999999997L53.54049999999995 70.39796999999999L54.82459999999992 70.70060999999998L54.80969999999991 71.05584999999996L55.086599999999976 71.29435999999998L55.071399999999926 71.85892999999999L55.39509999999996 72.19578999999999L56.45639999999992 73.47530999999992L56.262899999999945 74.0471399999999L55.908199999999965 74.24598999999989L54.904699999999934 73.74951999999996L54.86669999999992 74.56625999999994L56.23729999999989 75.39726999999993L58.211799999999926 75.8223099999999L59.26979999999992 75.19479999999999L60.478599999999915 75.43273999999997L61.43279999999993 74.64524999999992L62.6647999999999 74.7293699999999L62.8424 73.95155L62.02999999999997 73.03926999999999L63.43769999999995 72.28954999999996L63.813499999999976 72.46088999999995L63.59509999999989 74.09517999999991L64.15179999999998 74.66243999999995L65.73749999999995 73.4100699999999L66.7553999999999 74.05932999999993L65.98159999999996 74.92917999999997L66.19309999999996 75.70882999999992L66.60029999999995 75.71272999999997L67.31339999999989 75.31413999999995L67.71119999999996 75.45102999999995L69.44259999999997 77.24983999999995L71.03679999999997 77.71461L71.58939999999996 78.34809999999993L73.51469999999995 77.66683999999998L73.8753999999999 77.88373999999999L74.25329999999997 79.0134599999999L75.32399999999996 79.47931999999992L76.7530999999999 79.22421999999995L76.7331999999999 80.33605L76.22159999999997 81.2846199999999L75.14519999999993 81.89281999999992L74.97659999999996 83.91929999999991L74.35889999999995 84.48793999999998L74.26549999999997 85.72962999999993L73.08019999999999 86.82967999999994L73.5702 87.89549999999997L73.12699999999995 89.5135499999999L73.93179999999995 91.00873999999999L73.78899999999999 92.28632999999991L74.59709999999995 92.19318999999996L75.19689999999991 93.04040999999995L75.88749999999993 92.61243999999999L77.49319999999989 92.38420999999994L78.4206999999999 93.08539999999994L79.51829999999995 93.48902999999996L79.75119999999993 94.71875L79.47709999999995 95.48993999999993L80.60679999999991 97.16365999999994L80.47749999999996 98.40133999999989L81.30849999999998 99.31957999999997L81.19569999999999 100.14757999999995L81.87049999999999 101.12533999999994L82.50849999999991 100.58892999999989L84.61519999999996 100.68086999999991L86.66739999999993 99.23978L87.48399999999992 98.46426999999994L87.56279999999992 97.32065L87.97939999999994 96.67117999999994L90.66019999999992 94.00252999999998L91.8868 93.06813L93.02889999999991 93.36915999999997L95.24199999999996 92.53656999999998L95.51909999999998 91.35047999999995L96.39739999999995 91.45821999999998L96.50599999999997 91.07210999999995L97.30069999999989 91.0015699999999L97.51929999999993 90.66528999999991L98.27059999999994 88.0418699999999L99.0329999999999 88.3325299999999L99.48849999999993 88.9885099999999L100.61879999999996 88.48375999999996L101.46499999999992 89.3496899999999L101.72189999999989 90.18498L103.30579999999998 90.38834999999995L104.06709999999998 89.51183999999989L105.83429999999998 90.23119999999994L106.19259999999997 90.02235999999994L106.44019999999989 88.38094999999998L108.07719999999995 88.53545999999994L108.77749999999992 88.1520999999999L108.59469999999999 86.93714L107.86299999999994 86.55720999999994L107.86709999999994 86.14172999999994L106.7897999999999 84.8930499999999L106.37479999999994 84.82549999999992L106.34169999999995 84.4181799999999L107.33489999999995 83.70794999999998L106.66829999999993 82.69870999999989L105.88789999999995 82.92908999999997L105.71979999999996 82.55757999999992L106.81999999999994 80.4294799999999L105.77979999999991 79.16951999999992L106.43219999999997 78.67743999999993L107.66499999999996 78.6172499999999L108.15759999999989 77.46260999999993L107.37529999999992 77.60408999999993L106.5983 74.39558L104.67789999999991 72.88476999999989L104.26119999999992 72.9061099999999L104.19069999999999 72.49978999999996L103.1375999999999 72.04612999999995L102.38789999999995 70.64689999999996L101.95039999999995 71.34546L101.93119999999999 72.19247999999993L101.54969999999992 72.37942999999996L100.80069999999989 71.99417999999991L99.18179999999995 70.06782999999996L97.59359999999992 69.69342999999992L97.2118999999999 68.51713999999993L97.75189999999998 67.38005999999996L96.99059999999997 65.40882999999997L95.81889999999999 65.67787999999996L95.72079999999994 66.96010999999999L94.35079999999994 67.48196999999993L93.4964 68.44526999999994L92.23469999999998 68.72615999999994L90.5394 68.40792999999996L89.00859999999989 69.15868999999998L88.19939999999997 69.04057999999998L87.56759999999997 69.62815999999998L86.9647 68.18462999999997L84.89469999999994 67.94448L82.67809999999997 66.74041999999997L83.06859999999995 65.63966999999991L82.78779999999995 64.07562999999993L81.71199999999999 63.61419999999998L82.65149999999994 62.80774999999994L83.48549999999989 62.73142999999993L84.03009999999995 63.15517999999997L84.37289999999996 62.00303999999994L85.23689999999999 62.766719999999964L86.0003999999999 62.47520999999995L86.00779999999997 62.00878L84.68369999999993 59.62998999999991L85.63049999999998 58.37325999999996L84.8551 58.317409999999995L84.66199999999992 57.560199999999895L83.98519999999996 57.87587999999994L82.89359999999999 57.5076499999999L80.87779999999998 57.793629999999894L80.5462 59.36900999999989L80.21169999999995 59.613869999999906L78.73449999999991 59.20393999999999L77.99159999999995 59.490459999999985L76.73249999999996 57.89603999999997L75.14889999999991 57.750729999999976L74.73489999999993 56.621389999999906L75.49839999999995 56.49254999999994L75.5598 55.37606999999991L77.06949999999995 54.93593999999996L78.77059999999994 53.71843999999999L79.60459999999989 53.76380999999992L80.3332999999999 52.28558999999996L80.54459999999995 52.007439999999974L80.2378 51.009379999999965L79.7870999999999 49.70846999999992L79.4342999999999 49.63553999999999L77.19579999999996 49.64703999999995L76.10749999999996 49.245199999999954L75.25559999999996 50.09438L74.43959999999993 49.98975999999993L74.40699999999993 50.7594499999999L73.49439999999993 51.40267999999992L73.24429999999995 52.10492999999997L72.6022999999999 51.093669999999975L72.22849999999994 50.90147999999999L71.49189999999999 51.25514999999996L71.14779999999996 51.012809999999945L69.37969999999996 48.8346499999999L67.76979999999992 49.199559999999906L66.31309999999996 48.490279999999984L65.49979999999994 48.31061999999997L64.72179999999992 47.33098999999993z">
      <title id="t472">Première circonscription de la Haute-Vienne</title>
      <desc id="d472">Cantons de : Ambazac, Châteauneuf-la-Forêt, Eymoutiers, Limoges-La-Bastide, Limoges-Carnot, Limoges Centre, Limoges-Cité, Limoges-Grand-Treuil, Limoges-Le-Palais, Limoges-Panazol, Limoges-Vigenal, Saint-Léonard-de-Noblat</desc>
    </path><path class="circo" id="id-087-02" d="M45.191599999999994 71.74854999999991L45.85539999999992 71.42656L46.73949999999991 70.25459999999998L47.009199999999964 69.02422999999999L44.590799999999945 65.7904299999999L45.04269999999997 64.62859999999989L43.90569999999991 64.09772999999996L43.54409999999996 64.43288999999993L43.419599999999946 64.82833999999991L42.60769999999991 64.97849999999994L41.673599999999965 65.70778999999993L40.11709999999994 64.37281999999993L38.51699999999994 64.02337L37.923799999999915 63.47682999999995L35.08749999999998 62.98470999999995L35.140199999999936 61.699649999999906L34.76479999999992 60.935479999999984L35.65499999999997 60.074839999999995L37.650499999999965 59.635979999999904L37.8963 58.41712999999993L37.2731 57.38334999999995L37.36169999999993 56.153459999999995L36.39219999999989 54.88776999999993L35.028299999999945 54.11096999999995L34.3146999999999 55.083749999999895L33.59299999999996 54.666709999999966L32.66799999999989 53.85185999999999L32.98789999999997 52.641869999999926L32.68209999999999 52.35762999999997L31.22869999999989 52.98834999999997L30.872699999999895 53.19894999999997L30.400199999999927 52.53460999999993L29.581899999999905 52.443239999999946L26.495699999999943 50.52882999999997L25.91999999999996 50.274959999999965L25.916599999999903 52.20681999999999L26.65569999999991 52.543289999999956L26.499599999999987 54.14251999999999L25.2417999999999 55.08203999999989L24.976699999999937 55.396249999999895L25.234199999999987 55.71434999999997L24.886499999999955 55.932809999999904L24.75529999999992 56.91400999999996L23.50669999999991 56.928429999999935L21.661399999999958 58.63794999999993L19.6656999999999 59.130019999999945L18.543499999999995 58.60910999999999L17.70189999999991 58.68718999999999L16.33699999999999 57.69108999999992L15.50179999999989 57.72640999999999L15.23879999999997 58.890769999999975L15.830899999999929 59.43449999999996L15.623299999999972 61.927319999999895L16.799099999999953 63.65388999999993L15.109899999999925 65.20751999999993L16.255699999999933 65.58155999999997L14.131399999999985 70.10613999999998L12.952299999999923 71.26226999999994L12.994399999999928 72.84525999999994L12.536599999999908 73.50078999999994L13.093499999999949 74.54602L12.711399999999912 75.20808999999997L11.941599999999994 75.15517999999997L11.24249999999995 74.1229699999999L10.425299999999993 74.10333999999989L9.59319999999991 73.21668999999997L7.563399999999888 73.06975L6.865899999999897 73.48213999999996L6.608799999999974 76.40211L7.227199999999925 77.5028299999999L6.965099999999893 78.27779999999996L5.579299999999989 78.36759999999992L3.1019999999999754 80.06380999999999L3.0208999999999833 81.13505999999995L1.9656999999999698 81.13785999999993L1.5192999999999302 82.20224999999994L1.7573999999999614 82.52092999999991L1.3419999999999845 83.6291799999999L1.0036999999999807 83.8345599999999L0.31949999999994816 83.4371799999999L0 84.15863999999999L0.6830999999999676 85.69091999999989L1.7469999999999573 86.2259499999999L2.0284999999998945 87.02328999999997L2.7492999999999483 87.4556399999999L4.38289999999995 87.46001999999999L5.4628999999999905 87.02815999999996L6.149199999999951 87.40707999999995L7.078800000000001 86.67950999999994L7.846499999999992 86.58811999999989L9.723899999999958 87.36059999999998L11.111999999999966 89.46695999999997L12.259699999999953 89.84853999999996L12.401899999999955 89.85656999999992L11.42369999999994 94.27470999999991L10.274299999999926 96.04181999999992L11.705099999999902 97.55866999999989L12.53329999999994 99.0433599999999L14.59069999999997 98.58611999999994L14.970199999999977 98.70358999999996L15.449899999999957 101.02283999999997L17.872099999999932 100.36303999999996L18.676699999999983 98.91094999999996L19.546999999999912 96.48925999999994L20.36749999999995 95.23312999999996L21.014599999999973 95.68098999999995L21.37639999999999 96.80532999999991L22.44049999999993 97.96641L22.852699999999913 98.04404L23.347399999999993 97.36438999999996L24.554899999999975 97.44396999999992L26.894999999999982 96.5670399999999L28.067099999999982 97.00387999999998L28.897299999999973 96.87738999999999L29.406399999999962 97.5461499999999L30.065799999999967 97.6517399999999L30.587699999999927 97.19840999999997L31.11779999999999 96.54795999999999L33.47789999999998 97.21493999999996L34.7100999999999 99.39901999999995L34.42269999999996 100.56257999999991L34.70099999999991 101.80036999999993L35.53159999999991 103.21347999999989L36.69079999999997 103.6418799999999L36.7174 103.57013999999992L37.78009999999995 104.69644999999991L38.667299999999955 106.41608999999994L38.78509999999994 106.0154L40.34119999999996 105.48799999999994L40.79899999999998 104.81126999999992L41.614599999999996 104.65396999999996L42.72409999999991 105.21675999999991L45.529199999999946 107.02749999999992L45.441799999999944 107.44255999999996L44.01349999999991 108.35461999999995L42.90659999999991 109.63392999999996L42.43369999999993 110.81610999999998L41.54019999999991 111.6970399999999L41.64109999999994 112.92310999999995L43.00299999999993 113.7259499999999L45.280899999999974 112.85570999999993L46.37749999999994 114.01369999999997L46.52089999999998 115.23402999999996L47.20869999999991 115.6733099999999L49.503799999999956 114.79228999999998L51.36009999999999 115.6846999999999L51.38149999999996 117.3265899999999L51.656099999999924 117.64240999999993L52.04549999999995 117.79298999999992L52.99129999999991 116.99171999999999L53.189199999999914 116.2474299999999L53.857399999999984 115.81908999999996L53.90229999999997 114.19381999999996L54.35159999999996 113.09658999999999L55.17569999999989 113.00857999999994L55.817899999999895 112.56439999999998L55.72539999999992 111.40882999999997L61.23029999999994 114.24362999999994L63.09539999999993 111.1878999999999L64.5897 110.69629999999995L64.74739999999997 109.34623999999997L65.11849999999993 109.1781299999999L66.23399999999992 107.0357499999999L66.94819999999993 106.64104999999995L67.73639999999989 106.61653999999999L68.83489999999995 107.75411999999994L69.95249999999999 105.97802999999999L70.01419999999996 103.8944899999999L71.69049999999993 103.74809999999991L72.31079999999997 102.22825L73.31339999999989 102.84538999999995L73.33439999999996 104.23789L74.93849999999998 103.90445L75.4165999999999 103.2471099999999L75.45249999999999 102.43076999999994L77.9538 103.62185L78.97069999999997 104.04913999999997L80.02679999999998 103.52157999999997L81.18989999999997 103.42616999999996L81.87049999999999 101.12533999999994L81.19569999999999 100.14757999999995L81.30849999999998 99.31957999999997L80.47749999999996 98.40133999999989L80.60679999999991 97.16365999999994L79.47709999999995 95.48993999999993L79.75119999999993 94.71875L79.51829999999995 93.48902999999996L78.4206999999999 93.08539999999994L77.49319999999989 92.38420999999994L75.88749999999993 92.61243999999999L75.19689999999991 93.04040999999995L74.59709999999995 92.19318999999996L73.78899999999999 92.28632999999991L73.93179999999995 91.00873999999999L73.12699999999995 89.5135499999999L73.5702 87.89549999999997L73.08019999999999 86.82967999999994L74.26549999999997 85.72962999999993L74.35889999999995 84.48793999999998L74.97659999999996 83.91929999999991L75.14519999999993 81.89281999999992L76.22159999999997 81.2846199999999L76.7331999999999 80.33605L76.7530999999999 79.22421999999995L75.32399999999996 79.47931999999992L74.25329999999997 79.0134599999999L73.8753999999999 77.88373999999999L73.51469999999995 77.66683999999998L71.58939999999996 78.34809999999993L71.03679999999997 77.71461L69.44259999999997 77.24983999999995L67.71119999999996 75.45102999999995L67.31339999999989 75.31413999999995L66.60029999999995 75.71272999999997L66.19309999999996 75.70882999999992L65.98159999999996 74.92917999999997L66.7553999999999 74.05932999999993L65.73749999999995 73.4100699999999L64.15179999999998 74.66243999999995L63.59509999999989 74.09517999999991L63.813499999999976 72.46088999999995L63.43769999999995 72.28954999999996L62.02999999999997 73.03926999999999L62.8424 73.95155L62.6647999999999 74.7293699999999L61.43279999999993 74.64524999999992L60.478599999999915 75.43273999999997L59.26979999999992 75.19479999999999L58.211799999999926 75.8223099999999L56.23729999999989 75.39726999999993L54.86669999999992 74.56625999999994L54.904699999999934 73.74951999999996L55.908199999999965 74.24598999999989L56.262899999999945 74.0471399999999L56.45639999999992 73.47530999999992L55.071399999999926 71.85892999999999L55.086599999999976 71.29435999999998L54.80969999999991 71.05584999999996L54.82459999999992 70.70060999999998L53.54049999999995 70.39796999999999L52.43599999999992 69.58477999999991L51.97129999999993 69.60215999999991L52.1558 70.0512L52.13599999999997 70.51482999999996L51.85719999999992 71.02587999999992L51.33039999999994 71.36183999999992L51.36009999999999 71.81122999999991L50.8839999999999 72.12662L51.84669999999994 72.88037999999995L50.09929999999997 75.06448999999998L48.76879999999994 75.94126999999992L47.652099999999905 75.87131L46.27379999999994 75.13457999999991L45.472299999999905 75.11812999999995L45.191599999999994 71.74854999999991z">
      <title id="t473">Deuxième circonscription de la Haute-Vienne</title>
      <desc id="d473">Cantons de : Aixe-sur-Vienne, Châlus, Limoges-Condat, Limoges-Emailleurs, Nexon, Oradour-sur-Vayres, Pierre-Buffière, Rochechouart, Saint-Germain-les-Belles, Saint-Junien Est, Saint-Junien Ouest, Saint-Laurent-sur-Gorre, Saint-Mathieu, Saint-Yrieix-la-Perche</desc>
    </path><path class="circo" id="id-087-03" d="M69.83909999999992 30.615119999999933L71.43159999999989 30.990589999999997L72.42389999999989 32.30406999999991L73.60249999999996 32.14103L73.49159999999995 32.97174999999993L74.15699999999993 33.45182999999997L74.38639999999998 34.229529999999954L73.42049999999995 34.90731999999991L72.99579999999992 36.07388999999989L73.97109999999998 36.775159999999914L74.03409999999997 37.60309999999993L74.64099999999996 38.391959999999926L75.03699999999992 37.86344999999994L76.17739999999992 38.40936999999997L76.18899999999996 39.2744899999999L77.47519999999997 40.05507L76.77929999999992 42.09947999999997L77.0942 42.83048999999994L76.9926999999999 43.11256999999989L77.207 43.93703999999991L78.03059999999994 44.9077299999999L77.09159999999997 46.317789999999945L76.8096999999999 48.42859999999996L77.19579999999996 49.64703999999995L76.10749999999996 49.245199999999954L75.25559999999996 50.09438L74.43959999999993 49.98975999999993L74.40699999999993 50.7594499999999L73.49439999999993 51.40267999999992L73.24429999999995 52.10492999999997L72.6022999999999 51.093669999999975L72.22849999999994 50.90147999999999L71.49189999999999 51.25514999999996L71.14779999999996 51.012809999999945L69.37969999999996 48.8346499999999L67.76979999999992 49.199559999999906L66.31309999999996 48.490279999999984L65.49979999999994 48.31061999999997L64.72179999999992 47.33098999999993L64.64329999999995 46.118729999999914L63.8501 45.865929999999935L62.126499999999965 46.92484999999999L61.64379999999994 47.59854999999993L60.44169999999997 47.703199999999924L59.86299999999994 48.294219999999996L58.94099999999992 49.58463999999992L58.6570999999999 50.80287999999996L59.6404 52.018209999999954L59.65249999999992 52.43541999999991L58.84129999999993 53.38238999999999L58.518499999999904 53.6415199999999L56.98389999999995 53.08741999999995L55.63209999999992 53.990159999999946L52.48549999999989 54.12783999999999L52.50569999999993 54.94119999999998L51.5234999999999 56.23278999999991L51.647899999999936 57.038189999999986L52.80759999999998 57.0793799999999L54.196899999999914 56.33412999999996L54.58639999999991 57.032449999999926L54.629099999999994 58.23357999999996L54.18089999999995 59.41557L54.731899999999996 61.394039999999904L54.18319999999994 62.02550999999994L54.24309999999991 62.855749999999944L53.69579999999996 63.994069999999965L53.691299999999956 65.63929999999993L52.88779999999997 66.62568999999996L52.51189999999997 67.06705L52.75849999999991 67.55012999999997L53.47929999999997 67.34010999999998L53.90109999999993 67.47299999999996L53.60119999999995 68.13040999999998L53.06459999999993 68.4736999999999L52.80359999999996 68.92987999999991L52.43599999999992 69.58477999999991L51.97129999999993 69.60215999999991L52.1558 70.0512L52.13599999999997 70.51482999999996L51.85719999999992 71.02587999999992L51.33039999999994 71.36183999999992L51.36009999999999 71.81122999999991L50.8839999999999 72.12662L51.84669999999994 72.88037999999995L50.09929999999997 75.06448999999998L48.76879999999994 75.94126999999992L47.652099999999905 75.87131L46.27379999999994 75.13457999999991L45.472299999999905 75.11812999999995L45.191599999999994 71.74854999999991L45.85539999999992 71.42656L46.73949999999991 70.25459999999998L47.009199999999964 69.02422999999999L44.590799999999945 65.7904299999999L45.04269999999997 64.62859999999989L43.90569999999991 64.09772999999996L43.54409999999996 64.43288999999993L43.419599999999946 64.82833999999991L42.60769999999991 64.97849999999994L41.673599999999965 65.70778999999993L40.11709999999994 64.37281999999993L38.51699999999994 64.02337L37.923799999999915 63.47682999999995L35.08749999999998 62.98470999999995L35.140199999999936 61.699649999999906L34.76479999999992 60.935479999999984L35.65499999999997 60.074839999999995L37.650499999999965 59.635979999999904L37.8963 58.41712999999993L37.2731 57.38334999999995L37.36169999999993 56.153459999999995L36.39219999999989 54.88776999999993L35.028299999999945 54.11096999999995L34.3146999999999 55.083749999999895L33.59299999999996 54.666709999999966L32.66799999999989 53.85185999999999L32.98789999999997 52.641869999999926L32.68209999999999 52.35762999999997L31.22869999999989 52.98834999999997L30.872699999999895 53.19894999999997L30.400199999999927 52.53460999999993L29.581899999999905 52.443239999999946L26.495699999999943 50.52882999999997L25.91999999999996 50.274959999999965L24.543899999999894 49.49225999999999L25.05589999999995 48.07000999999991L23.817999999999984 47.174429999999916L22.466999999999985 46.543289999999956L22.394399999999905 45.838379999999916L21.79889999999989 45.43741L20.126499999999965 47.3042999999999L19.7041999999999 47.253999999999905L19.254999999999995 45.68374999999992L18.31669999999997 44.853489999999965L15.994699999999966 43.45916999999997L15.886099999999942 42.27378999999996L16.691299999999956 41.35550999999998L16.1019 39.84418999999991L16.77819999999997 38.78672999999992L16.779399999999896 38.51060999999993L17.213899999999967 37.82078999999999L17.21849999999995 36.54185999999993L16.551099999999906 35.44476999999995L15.524799999999914 34.68449999999996L15.483299999999986 34.25699999999995L16.46419999999989 33.56797999999992L17.307199999999966 33.58453999999995L17.882299999999987 32.945499999999925L18.36999999999989 32.36858999999993L17.510999999999967 31.409709999999905L17.227899999999977 30.162939999999935L17.71989999999994 29.011799999999994L17.0954999999999 28.79025999999999L16.912399999999934 28.221349999999916L17.309499999999957 27.183179999999993L16.277799999999957 26.587859999999978L15.609099999999899 25.08771999999999L14.49129999999991 24.62214999999992L14.520599999999945 23.53478999999993L14.025899999999979 23.078319999999962L14.417999999999893 22.900199999999927L15.18629999999996 21.363599999999906L18.600099999999998 21.16540999999995L18.883499999999913 20.386079999999993L18.174099999999953 20.026859999999942L18.578599999999938 18.874349999999936L19.378999999999905 18.717379999999935L19.858499999999935 17.589239999999904L19.711299999999937 17.207859999999982L22.097099999999955 16.380239999999958L23.078699999999913 14.048569999999927L25.878399999999942 14.808829999999944L25.974699999999984 13.588629999999966L27.46049999999991 14.27882999999997L29.139499999999998 14.291869999999903L30.30379999999991 14.776109999999903L31.048799999999915 14.545499999999947L31.76019999999994 14.94399999999996L31.973199999999906 14.8521199999999L31.791399999999953 13.598099999999931L32.284799999999905 12.928499999999985L32.31459999999993 11.69196999999997L33.27299999999991 10.875239999999962L33.701599999999985 9.669469999999933L33.7817 7.164569999999912L35.607099999999946 5.550599999999918L35.736299999999915 4.78300999999999L38.04269999999997 5.304269999999974L40.09269999999992 4.834009999999921L40.77579999999989 5.884849999999915L42.33279999999991 6.497649999999908L42.51139999999998 5.256479999999897L42.40229999999997 4.851990000000001L44.14519999999993 3.859870000000001L44.09689999999989 3.023219999999924L44.81869999999992 1.5245899999999892L46.541999999999916 2.1747499999999036L47.147899999999936 3.027529999999956L47.86919999999998 2.980959999999982L48.8519 1.7775899999999183L49.574199999999905 1.675679999999943L49.60539999999992 3.350819999999999L50.00079999999991 4.108589999999936L51.7174 4.361739999999941L52.779199999999946 3.062029999999936L53.59129999999993 2.819919999999911L55.23559999999998 3.0944299999999885L55.53019999999992 3.6217399999999316L57.86709999999994 3.354759999999942L57.91149999999993 2.5338199999999915L58.829599999999914 1.8526399999999512L58.048599999999965 0.972479999999905L60.7713 0L61.755199999999945 0.21915999999998803L62.29039999999998 0.7352199999999129L63.48549999999989 2.250039999999899L64.13589999999999 3.2786199999999326L64.78949999999998 3.762299999999982L65.18229999999994 3.6600499999999556L65.06099999999992 4.060789999999997L66.06899999999996 4.80025999999998L66.76499999999999 6.699729999999931L66.29719999999998 7.3534499999999525L67.69309999999996 8.174789999999916L68.89649999999995 8.160749999999894L69.36099999999999 8.741459999999961L68.75749999999994 9.689159999999902L69.07659999999998 12.091249999999945L67.63499999999999 12.752689999999916L66.94459999999992 15.023319999999899L68.08909999999992 15.271879999999896L68.5983 15.896359999999959L67.5510999999999 16.53406999999993L66.75609999999995 16.30535999999995L66.02359999999999 17.319009999999935L66.12789999999995 18.11528999999996L67.12759999999992 18.819159999999897L67.00919999999996 19.63074999999992L65.09619999999995 20.02697999999998L63.691999999999894 22.419739999999933L63.30799999999999 22.572559999999953L64.34379999999999 24.85351999999989L65.03539999999998 25.304949999999963L65.34589999999992 26.537279999999896L66.04799999999989 26.865819999999985L67.05229999999995 27.53895L68.26349999999991 27.364259999999945L68.9002999999999 27.748629999999935L69.94269999999995 27.118729999999914L70.65089999999998 27.550489999999968L70.47619999999995 28.314509999999927L71.00329999999997 29.409689999999955L69.83909999999992 30.615119999999933z">
      <title id="t474">Troisième circonscription de la Haute-Vienne</title>
      <desc id="d474">Cantons de : Bellac, Bessines-sur-Gartempe, Châteauponsac, Laurière, Le Dorat, Limoges-Beaupuy, Limoges-Corgnac, Limoges-Couzeix, Limoges-Isle, Limoges-Landouge, Limoges-Puy-las-Rodas, Magnac-Laval, Mézières-sur-Issoire, Nantiat, Nieul, Saint-Sulpice-les-Feuilles</desc>
    </path></svg>