<svg xmlns="http://www.w3.org/2000/svg" version="1.1" xmlns:xlink="http://www.w3.org/1999/xlink" xmlns:svgjs="http://svgjs.dev/svgjs" viewBox="710.37813 757.15839 108.77749999999992 117.79298999999992"><path class="circo" id="087-01" d="M 775.09993,804.48938 775.02143,803.27712 774.22823,803.02432 772.50463,804.08324 772.02193,804.75694 770.81983,804.86159 770.24113,805.45261 769.31913,806.74303 769.03523,807.96127 770.01853,809.1766 770.03063,809.59381 769.21943,810.54078 768.89663,810.79991 767.36203,810.24581 766.01023,811.14855 762.86363,811.28623 762.88383,812.09959 761.90163,813.39118 762.02603,814.19658 763.18573,814.23777 764.57503,813.49252 764.96453,814.19084 765.00723,815.39197 764.55903,816.57396 765.11003,818.55243 764.56133,819.1839 764.62123,820.01414 764.07393,821.15246 764.06943,822.79769 763.26593,823.78408 762.89003,824.22544 763.13663,824.70852 763.85743,824.4985 764.27923,824.63139 763.97933,825.2888 763.44273,825.63209 762.81413,826.74317 763.53203,827.28831 763.91863,827.55636 765.20273,827.859 765.18783,828.21424 765.46473,828.45275 765.44953,829.01732 765.77323,829.35418 766.83453,830.6337 766.64103,831.20553 766.28633,831.40438 765.28283,830.90791 765.24483,831.72465 766.61543,832.55566 768.58993,832.9807 769.64793,832.35319 770.85673,832.59113 771.81093,831.80364 773.04293,831.88776 773.22053,831.10994 772.40813,830.19766 773.81583,829.44794 774.19163,829.61928 773.97323,831.25357 774.52993,831.82083 776.11563,830.56846 777.13353,831.21772 776.35973,832.08757 776.57123,832.86722 776.97843,832.87112 777.69153,832.47253 778.08933,832.60942 779.82073,834.40823 781.41493,834.873 781.96753,835.50649 783.89283,834.82523 784.25353,835.04213 784.63143,836.17185 785.70213,836.63771 787.13123,836.38261 787.11133,837.49444 786.59973,838.44301 785.52333,839.05121 785.35473,841.07769 784.73703,841.64633 784.64363,842.88802 783.45833,843.98807 783.94833,845.05389 783.50513,846.67194 784.30993,848.16713 784.16713,849.44472 784.97523,849.35158 785.57503,850.1988 786.26563,849.77083 787.87133,849.5426 788.79883,850.24379 789.89643,850.64742 790.12933,851.87714 789.85523,852.64833 790.98493,854.32205 790.85563,855.55973 791.68663,856.47797 791.57383,857.30597 792.24863,858.28373 792.88663,857.74732 794.99333,857.83926 797.04553,856.39817 797.86213,855.62266 797.94093,854.47904 798.35753,853.82957 801.03833,851.16092 802.26493,850.22652 803.40703,850.52755 805.62013,849.69496 805.89723,848.50887 806.77553,848.61661 806.88413,848.2305 807.67883,848.15996 807.89743,847.82368 808.64873,845.20026 809.41113,845.49092 809.86663,846.1469 810.99693,845.64215 811.84313,846.50808 812.10003,847.34337 813.68393,847.54674 814.44523,846.67023 816.21243,847.38959 816.57073,847.18075 816.81833,845.53934 818.45533,845.69385 819.15563,845.31049 818.97283,844.09553 818.24113,843.7156 818.24523,843.30012 817.16793,842.05144 816.75293,841.98389 816.71983,841.57657 817.71303,840.86634 817.04643,839.8571 816.26603,840.08748 816.09793,839.71597 817.19813,837.58787 816.15793,836.32791 816.81033,835.83583 818.04313,835.77564 818.53573,834.621 817.75343,834.76248 816.97643,831.55397 815.05603,830.04316 814.63933,830.0645 814.56883,829.65818 813.51573,829.20452 812.76603,827.80529 812.32853,828.50385 812.30933,829.35087 811.92783,829.53782 811.17883,829.15257 809.55993,827.22622 807.97173,826.85182 807.59003,825.67553 808.13003,824.53845 807.36873,822.56722 806.19703,822.83627 806.09893,824.1185 804.72893,824.64036 803.87453,825.60366 802.61283,825.88455 800.91753,825.56632 799.38673,826.31708 798.57753,826.19897 797.94573,826.78655 797.34283,825.34302 795.27283,825.10287 793.05623,823.89881 793.44673,822.79806 793.16593,821.23402 792.09013,820.77259 793.02963,819.96614 793.86363,819.88982 794.40823,820.31357 794.75103,819.16143 795.61503,819.92511 796.37853,819.6336 796.38593,819.16717 795.06183,816.78838 796.00863,815.53165 795.23323,815.4758 795.04013,814.71859 794.36333,815.03427 793.27173,814.66604 791.25593,814.95202 790.92433,816.5274 790.58983,816.77226 789.11263,816.36233 788.36973,816.64885 787.11063,815.05443 785.52703,814.90912 785.11303,813.77978 785.87653,813.65094 785.93793,812.53446 787.44763,812.09433 789.14873,810.87683 789.98273,810.9222 790.71143,809.44398 790.92273,809.16583 790.61593,808.16777 790.16523,806.86686 789.81243,806.79393 787.57393,806.80543 786.48563,806.40359 785.63373,807.25277 784.81773,807.14815 784.78513,807.91784 783.87253,808.56107 783.62243,809.26332 782.98043,808.25206 782.60663,808.05987 781.87003,808.41354 781.52593,808.1712 779.75783,805.99304 778.14793,806.35795 776.69123,805.64867 775.87793,805.46901 775.09993,804.48938 z">
      <title id="t472">Première circonscription de la Haute-Vienne</title>
      <desc id="d472">Cantons de : Ambazac, Châteauneuf-la-Forêt, Eymoutiers, Limoges-La-Bastide, Limoges-Carnot, Limoges Centre, Limoges-Cité, Limoges-Grand-Treuil, Limoges-Le-Palais, Limoges-Panazol, Limoges-Vigenal, Saint-Léonard-de-Noblat</desc>
    </path><path class="circo" id="087-02" d="M 755.56973,828.90694 756.23353,828.58495 757.11763,827.41299 757.38733,826.18262 754.96893,822.94882 755.42083,821.78699 754.28383,821.25612 753.92223,821.59128 753.79773,821.98673 752.98583,822.13689 752.05173,822.86618 750.49523,821.53121 748.89513,821.18176 748.30193,820.63522 745.46563,820.1431 745.51833,818.85804 745.14293,818.09387 746.03313,817.23323 748.02863,816.79437 748.27443,815.57552 747.65123,814.54174 747.73983,813.31185 746.77033,812.04616 745.40643,811.26936 744.69283,812.24214 743.97113,811.8251 743.04613,811.01025 743.36603,809.80026 743.06023,809.51602 741.60683,810.14674 741.25083,810.35734 740.77833,809.693 739.96003,809.60163 736.87383,807.68722 736.29813,807.43335 736.29473,809.36521 737.03383,809.70168 736.87773,811.30091 735.61993,812.24043 735.35483,812.55464 735.61233,812.87274 735.26463,813.0912 735.13343,814.0724 733.88483,814.08682 732.03953,815.79634 730.04383,816.28841 728.92163,815.7675 728.08003,815.84558 726.71513,814.84948 725.87993,814.8848 725.61693,816.04916 726.20903,816.59289 726.00143,819.08571 727.17723,820.81228 725.48803,822.36591 726.63383,822.73995 724.50953,827.26453 723.33043,828.42066 723.37253,830.00365 722.91473,830.65918 723.47163,831.70441 723.08953,832.36648 722.31973,832.31357 721.62063,831.28136 720.80343,831.26173 719.97133,830.37508 717.94153,830.22814 717.24403,830.64053 716.98693,833.5605 717.60533,834.66122 717.34323,835.43619 715.95743,835.52599 713.48013,837.2222 713.39903,838.29345 712.34383,838.29625 711.89743,839.36064 712.13553,839.67932 711.72013,840.78757 711.38183,840.99295 710.69763,840.59557 710.37813,841.31703 711.06123,842.84931 712.12513,843.38434 712.40663,844.18168 713.12743,844.61403 714.76103,844.61841 715.84103,844.18655 716.52733,844.56547 717.45693,843.8379 718.22463,843.74651 720.10203,844.51899 721.49013,846.62535 722.63783,847.00693 722.78003,847.01496 721.80183,851.4331 720.65243,853.20021 722.08323,854.71706 722.91143,856.20175 724.96883,855.74451 725.34833,855.86198 725.82803,858.18123 728.25023,857.52143 729.05483,856.06934 729.92513,853.64765 730.74563,852.39152 731.39273,852.83938 731.75453,853.96372 732.81863,855.1248 733.23083,855.20243 733.72553,854.52278 734.93303,854.60236 737.27313,853.72543 738.44523,854.16227 739.27543,854.03578 739.78453,854.70454 740.44393,854.81013 740.96583,854.3568 741.49593,853.70635 743.85603,854.37333 745.08823,856.55741 744.80083,857.72097 745.07913,858.95876 745.90973,860.37187 747.06893,860.80027 747.09553,860.72853 748.15823,861.85484 749.04543,863.57448 749.16323,863.17379 750.71933,862.64639 751.17713,861.96966 751.99273,861.81236 753.10223,862.37515 755.90733,864.18589 755.81993,864.60095 754.39163,865.51301 753.28473,866.79232 752.81183,867.9745 751.91833,868.85543 752.01923,870.0815 753.38113,870.88434 755.65903,870.0141 756.75563,871.17209 756.89903,872.39242 757.58683,872.8317 759.88193,871.95068 761.73823,872.84309 761.75963,874.48498 762.03423,874.8008 762.42363,874.95138 763.36943,874.15011 763.56733,873.40582 764.23553,872.97748 764.28043,871.35221 764.72973,870.25498 765.55383,870.16697 766.19603,869.72279 766.10353,868.56722 771.60843,871.40202 773.47353,868.34629 774.96783,867.85469 775.12553,866.50463 775.49663,866.33652 776.61213,864.19414 777.32633,863.79944 778.11453,863.77493 779.21303,864.91251 780.33063,863.13642 780.39233,861.05288 782.06863,860.90649 782.68893,859.38664 783.69153,860.00378 783.71253,861.39628 785.31663,861.06284 785.79473,860.4055 785.83063,859.58916 788.33193,860.78024 789.34883,861.20753 790.40493,860.67997 791.56803,860.58456 792.24863,858.28373 791.57383,857.30597 791.68663,856.47797 790.85563,855.55973 790.98493,854.32205 789.85523,852.64833 790.12933,851.87714 789.89643,850.64742 788.79883,850.24379 787.87133,849.5426 786.26563,849.77083 785.57503,850.1988 784.97523,849.35158 784.16713,849.44472 784.30993,848.16713 783.50513,846.67194 783.94833,845.05389 783.45833,843.98807 784.64363,842.88802 784.73703,841.64633 785.35473,841.07769 785.52333,839.05121 786.59973,838.44301 787.11133,837.49444 787.13123,836.38261 785.70213,836.63771 784.63143,836.17185 784.25353,835.04213 783.89283,834.82523 781.96753,835.50649 781.41493,834.873 779.82073,834.40823 778.08933,832.60942 777.69153,832.47253 776.97843,832.87112 776.57123,832.86722 776.35973,832.08757 777.13353,831.21772 776.11563,830.56846 774.52993,831.82083 773.97323,831.25357 774.19163,829.61928 773.81583,829.44794 772.40813,830.19766 773.22053,831.10994 773.04293,831.88776 771.81093,831.80364 770.85673,832.59113 769.64793,832.35319 768.58993,832.9807 766.61543,832.55566 765.24483,831.72465 765.28283,830.90791 766.28633,831.40438 766.64103,831.20553 766.83453,830.6337 765.44953,829.01732 765.46473,828.45275 765.18783,828.21424 765.20273,827.859 763.91863,827.55636 762.81413,826.74317 762.34943,826.76055 762.53393,827.20959 762.51413,827.67322 762.23533,828.18427 761.70853,828.52023 761.73823,828.96962 761.26213,829.28501 762.22483,830.03877 760.47743,832.22288 759.14693,833.09966 758.03023,833.0297 756.65193,832.29297 755.85043,832.27652 755.56973,828.90694 z">
      <title id="t473">Deuxième circonscription de la Haute-Vienne</title>
      <desc id="d473">Cantons de : Aixe-sur-Vienne, Châlus, Limoges-Condat, Limoges-Emailleurs, Nexon, Oradour-sur-Vayres, Pierre-Buffière, Rochechouart, Saint-Germain-les-Belles, Saint-Junien Est, Saint-Junien Ouest, Saint-Laurent-sur-Gorre, Saint-Mathieu, Saint-Yrieix-la-Perche</desc>
    </path><path class="circo" id="087-03" d="M 780.21723,787.77351 781.80973,788.14898 782.80203,789.46246 783.98063,789.29942 783.86973,790.13014 784.53513,790.61022 784.76453,791.38792 783.79863,792.06571 783.37393,793.23228 784.34923,793.93355 784.41223,794.76149 785.01913,795.55035 785.41513,795.02184 786.55553,795.56776 786.56713,796.43288 787.85333,797.21346 787.15743,799.25787 787.47233,799.98888 787.37083,800.27096 787.58513,801.09543 788.40873,802.06612 787.46973,803.47618 787.18783,805.58699 787.57393,806.80543 786.48563,806.40359 785.63373,807.25277 784.81773,807.14815 784.78513,807.91784 783.87253,808.56107 783.62243,809.26332 782.98043,808.25206 782.60663,808.05987 781.87003,808.41354 781.52593,808.1712 779.75783,805.99304 778.14793,806.35795 776.69123,805.64867 775.87793,805.46901 775.09993,804.48938 775.02143,803.27712 774.22823,803.02432 772.50463,804.08324 772.02193,804.75694 770.81983,804.86159 770.24113,805.45261 769.31913,806.74303 769.03523,807.96127 770.01853,809.1766 770.03063,809.59381 769.21943,810.54078 768.89663,810.79991 767.36203,810.24581 766.01023,811.14855 762.86363,811.28623 762.88383,812.09959 761.90163,813.39118 762.02603,814.19658 763.18573,814.23777 764.57503,813.49252 764.96453,814.19084 765.00723,815.39197 764.55903,816.57396 765.11003,818.55243 764.56133,819.1839 764.62123,820.01414 764.07393,821.15246 764.06943,822.79769 763.26593,823.78408 762.89003,824.22544 763.13663,824.70852 763.85743,824.4985 764.27923,824.63139 763.97933,825.2888 763.44273,825.63209 763.18173,826.08827 762.81413,826.74317 762.34943,826.76055 762.53393,827.20959 762.51413,827.67322 762.23533,828.18427 761.70853,828.52023 761.73823,828.96962 761.26213,829.28501 762.22483,830.03877 760.47743,832.22288 759.14693,833.09966 758.03023,833.0297 756.65193,832.29297 755.85043,832.27652 755.56973,828.90694 756.23353,828.58495 757.11763,827.41299 757.38733,826.18262 754.96893,822.94882 755.42083,821.78699 754.28383,821.25612 753.92223,821.59128 753.79773,821.98673 752.98583,822.13689 752.05173,822.86618 750.49523,821.53121 748.89513,821.18176 748.30193,820.63522 745.46563,820.1431 745.51833,818.85804 745.14293,818.09387 746.03313,817.23323 748.02863,816.79437 748.27443,815.57552 747.65123,814.54174 747.73983,813.31185 746.77033,812.04616 745.40643,811.26936 744.69283,812.24214 743.97113,811.8251 743.04613,811.01025 743.36603,809.80026 743.06023,809.51602 741.60683,810.14674 741.25083,810.35734 740.77833,809.693 739.96003,809.60163 736.87383,807.68722 736.29813,807.43335 734.92203,806.65065 735.43403,805.2284 734.19613,804.33282 732.84513,803.70168 732.77253,802.99677 732.17703,802.5958 730.50463,804.46269 730.08233,804.41239 729.63313,802.84214 728.69483,802.01188 726.37283,800.61756 726.26423,799.43218 727.06943,798.5139 726.48003,797.00258 727.15633,795.94512 727.15753,795.669 727.59203,794.97918 727.59663,793.70025 726.92923,792.60316 725.90293,791.84289 725.86143,791.41539 726.84233,790.72637 727.68533,790.74293 728.26043,790.10389 728.74813,789.52698 727.88913,788.5681 727.60603,787.32133 728.09803,786.17019 727.47363,785.94865 727.29053,785.37974 727.68763,784.34157 726.65593,783.74625 725.98723,782.24611 724.86943,781.78054 724.89873,780.69318 724.40403,780.23671 724.79613,780.05859 725.56443,778.52199 728.97823,778.3238 729.26163,777.54447 728.55223,777.18525 728.95673,776.03274 729.75713,775.87577 730.23663,774.74763 730.08943,774.36625 732.47523,773.53863 733.45683,771.20696 736.25653,771.96722 736.35283,770.74702 737.83863,771.43722 739.51763,771.45026 740.68193,771.9345 741.42693,771.70389 742.13833,772.10239 742.35133,772.01051 742.16953,770.75649 742.66293,770.08689 742.69273,768.85036 743.65113,768.03363 744.07973,766.82786 744.15983,764.32296 745.98523,762.70899 746.11443,761.9414 748.42083,762.46266 750.47083,761.9924 751.15393,763.04324 752.71093,763.65604 752.88953,762.41487 752.78043,762.01038 754.52333,761.01826 754.47503,760.18161 755.19683,758.68298 756.92013,759.33314 757.52603,760.18592 758.24733,760.13935 759.23003,758.93598 759.95233,758.83407 759.98353,760.50921 760.37893,761.26698 762.09553,761.52013 763.15733,760.22042 763.96943,759.97831 765.61373,760.25282 765.90833,760.78013 768.24523,760.51315 768.28963,759.69221 769.20773,759.01103 768.42673,758.13087 771.14943,757.15839 772.13333,757.37755 772.66853,757.89361 773.86363,759.40843 774.51403,760.43701 775.16763,760.92069 775.56043,760.81844 775.43913,761.21918 776.44713,761.95865 777.14313,763.85812 776.67533,764.51184 778.07123,765.33318 779.27463,765.31914 779.73913,765.89985 779.13563,766.84755 779.45473,769.24964 778.01313,769.91108 777.32273,772.18171 778.46723,772.43027 778.97643,773.05475 777.92923,773.69246 777.13423,773.46375 776.40173,774.4774 776.50603,775.27368 777.50573,775.97755 777.38733,776.78914 775.47433,777.18537 774.07013,779.57813 773.68613,779.73095 774.72193,782.01191 775.41353,782.46334 775.72403,783.69567 776.42613,784.02421 777.43043,784.69734 778.64163,784.52265 779.27843,784.90702 780.32083,784.27712 781.02903,784.70888 780.85433,785.4729 781.38143,786.56808 780.21723,787.77351 z">
      <title id="t474">Troisième circonscription de la Haute-Vienne</title>
      <desc id="d474">Cantons de : Bellac, Bessines-sur-Gartempe, Châteauponsac, Laurière, Le Dorat, Limoges-Beaupuy, Limoges-Corgnac, Limoges-Couzeix, Limoges-Isle, Limoges-Landouge, Limoges-Puy-las-Rodas, Magnac-Laval, Mézières-sur-Issoire, Nantiat, Nieul, Saint-Sulpice-les-Feuilles</desc>
    </path></svg>