<svg xmlns="http://www.w3.org/2000/svg" version="1.1" xmlns:xlink="http://www.w3.org/1999/xlink" xmlns:svgjs="http://svgjs.dev/svgjs" viewBox="0 0 153.38199999999983 89.27709999999996"><path class="circo" id="id-088-01" d="M97.66899999999987 25.080750000000023L98.23029999999994 24.69739999999996L99.27639999999997 25.68289999999996L99.36929999999984 26.52397000000002L101.66609999999991 27.72742999999997L102.64629999999988 30.142379999999946L104.52109999999993 29.225250000000017L104.92669999999998 27.33260999999999L105.70939999999996 26.08203999999995L107.18409999999994 25.412440000000004L107.64789999999994 26.130479999999977L108.90599999999995 26.07629000000003L110.12789999999995 28.889920000000018L111.38199999999983 30.13739000000004L112.88499999999999 31.37134999999995L116.5163 30.328079999999943L118.24810000000002 29.10874999999993L117.63229999999999 28.69369999999998L117.76059999999984 27.92995000000002L117.35799999999995 26.725120000000004L118.05610000000001 25.156159999999943L118.39979999999991 24.88249000000002L117.89469999999983 23.511019999999974L117.81089999999995 23.177570000000003L118.26289999999995 21.840129999999988L118.47849999999994 20.18928999999997L117.79849999999988 19.707269999999994L117.56829999999991 18.51383999999996L118.78829999999994 17.99279999999999L120.08019999999988 18.225689999999986L120.80449999999996 15.190850000000012L119.32629999999995 14.30068L118.31859999999983 15.054640000000006L118.2965999999999 14.31207999999998L117.86410000000001 14.267139999999984L116.6275999999998 14.349589999999978L116.13189999999986 13.144939999999963L114.38979999999992 13.021619999999984L114.32859999999982 12.587220000000002L113.14409999999998 12.489499999999964L112.13009999999986 11.818759999999997L110.91159999999991 12.912509999999997L109.8014999999998 12.253719999999987L109.57659999999987 11.427579999999978L109.28649999999993 11.779699999999991L108.42669999999998 11.222759999999994L106.33459999999991 10.8947L106.57549999999992 10.060189999999977L105.62549999999987 8.12710999999996L105.81700000000001 6.814399999999978L105.53549999999996 5.526810000000012L104.29070000000002 5.28231999999997L102.3146999999999 5.9791099999999915L102.05669999999986 6.564189999999996L101.22859999999991 6.881949999999961L99.85669999999982 9.663270000000011L101.1556999999998 12.353749999999991L100.7192 12.570319999999981L97.81479999999988 11.022289999999998L96.94999999999982 10.529989999999998L95.5589 11.548630000000003L94.17869999999994 12.694669999999974L92.92009999999982 12.474899999999991L91.58899999999994 13.381329999999991L90.35989999999993 12.380389999999977L89.62439999999992 12.7149L87.62289999999985 13.505020000000002L86.60469999999987 15.414999999999964L85.77359999999999 15.550819999999987L85.58379999999988 15.152949999999976L84.4547 15.565290000000005L84.1866 15.249480000000005L83.40819999999985 16.87469999999996L79.74459999999999 18.63027999999997L80.35419999999999 19.046609999999987L81.11969999999997 18.76463000000001L81.27559999999994 19.53046999999998L82.0969 19.289060000000006L82.45799999999986 19.52100999999999L82.65509999999995 20.774749999999983L84.98739999999998 19.83941999999996L85.12509999999997 20.242759999999976L83.96089999999981 21.36515000000003L82.25669999999991 21.69063L82.00189999999998 22.040149999999983L82.27289999999994 22.79678999999993L82.12349999999992 23.991349999999954L82.0797 24.075850000000003L81.44949999999994 24.64638999999994L81.3893999999998 25.903110000000027L80.66179999999986 26.337129999999945L80.39559999999983 26.391439999999932L79.7953 27.758350000000007L79.21640000000002 28.515100000000018L80.3789999999999 30.318510000000003L80.32629999999995 31.16166000000004L81.06909999999993 31.276080000000036L81.17189999999982 31.63811000000004L80.87259999999992 32.91315000000003L77.67009999999982 34.057349999999985L77.42869999999994 34.87130999999994L77.47709999999984 35.111249999999984L78.5483999999999 37.49259000000001L79.57129999999984 39.10054999999994L78.12609999999995 39.37145000000004L78.25249999999983 39.744380000000035L77.4348 40.48520000000002L77.45499999999993 41.31747999999999L77.80349999999999 41.55488999999994L78.99549999999999 41.22273999999999L79.26459999999997 41.54762999999997L78.60680000000002 42.05378999999999L76.21809999999982 42.26566999999994L73.88479999999981 42.77699999999999L73.91589999999997 45.435509999999965L74.96069999999986 46.840859999999964L75.22329999999988 48.15051L76.1606999999999 49.06828999999999L76.27369999999996 50.39532000000003L75.00919999999996 50.20037999999994L73.07399999999984 51.10629L71.90409999999997 50.58669000000003L71.24829999999997 51.138750000000016L70.46550000000002 52.28294999999997L69.69380000000001 53.38278999999994L70.2860999999998 56.38073000000003L72.27279999999996 58.01686000000001L73.90989999999988 57.50379000000004L74.7464 57.71161999999998L74.98329999999987 57.34225999999995L75.07859999999982 59.31626L77.7802999999999 59.36750999999998L79.27179999999998 60.33737000000002L79.13159999999993 61.63566999999995L77.90289999999982 63.50469000000004L77.13359999999989 63.947280000000035L75.6293999999998 64.75295L75.44869999999992 66.02916999999997L76.49069999999983 66.75686000000002L75.96119999999996 68.40932000000004L74.81279999999992 69.68227999999993L75.09929999999986 71.43668999999994L76.41619999999989 71.20352999999994L77.60429999999997 71.82149999999996L78.9351999999999 71.90956999999997L82.55049999999983 70.32438999999994L83.98949999999991 69.5147L84.40509999999995 67.95648999999997L85.57949999999983 67.69603000000001L86.10629999999992 66.34608999999995L86.10549999999989 64.16493999999994L87.24459999999999 63.497829999999965L88.32289999999989 62.10368L90.41649999999981 60.47899000000001L90.48569999999995 60.01812000000001L91.1902 60.07089000000002L91.25709999999981 58.83115000000004L94.22339999999986 56.13507999999996L95.84089999999992 55.395910000000015L96.28499999999985 54.63412999999997L98.5478999999998 56.335819999999956L97.87009999999987 54.32834999999994L97.63599999999997 50.84949L97.9237999999998 50.14218999999997L98.97989999999982 50.611899999999935L99.76569999999992 50.93542999999994L101.3092999999999 49.597050000000024L100.99869999999987 49.28466999999995L101.03179999999998 47.5917L100.78049999999985 47.229160000000036L99.9025999999999 47.164060000000006L100.4853999999998 46.21504999999996L101.11149999999998 42.648120000000006L100.77710000000002 41.43287000000004L100.69789999999989 41.41208999999998L99.06549999999993 40.05391000000003L98.74979999999982 39.96845999999999L99.36899999999991 39.44389999999993L98.45449999999983 38.74200000000002L98.14499999999998 38.00646999999998L98.2482 35.75407999999999L98.5963999999999 35.45136999999994L98.08469999999988 33.49580999999995L98.72419999999988 31.559450000000027L97.5969 29.77055999999999L96.88179999999988 29.317349999999976L96.71539999999982 29.037210000000016L97.154 28.310170000000028L96.72699999999986 27.568349999999953L96.9375 26.734189999999955L98.2815999999998 25.701300000000003L97.66899999999987 25.080750000000023z">
      <title id="t475">Première circonscription des Vosges</title>
      <desc id="d475">Cantons de : Châtel-sur-Moselle, Epinal Est, Epinal Ouest, RamberviIlers, Xertigny</desc>
    </path><path class="circo" id="id-088-02" d="M111.38199999999983 30.13739000000004L110.12789999999995 28.889920000000018L108.90599999999995 26.07629000000003L107.64789999999994 26.130479999999977L107.18409999999994 25.412440000000004L105.70939999999996 26.08203999999995L104.92669999999998 27.33260999999999L104.52109999999993 29.225250000000017L102.64629999999988 30.142379999999946L101.66609999999991 27.72742999999997L99.36929999999984 26.52397000000002L99.27639999999997 25.68289999999996L98.23029999999994 24.69739999999996L97.66899999999987 25.080750000000023L98.2815999999998 25.701300000000003L96.9375 26.734189999999955L96.72699999999986 27.568349999999953L97.154 28.310170000000028L96.71539999999982 29.037210000000016L96.88179999999988 29.317349999999976L97.5969 29.77055999999999L98.72419999999988 31.559450000000027L98.08469999999988 33.49580999999995L98.5963999999999 35.45136999999994L98.2482 35.75407999999999L98.14499999999998 38.00646999999998L98.45449999999983 38.74200000000002L99.36899999999991 39.44389999999993L98.74979999999982 39.96845999999999L99.06549999999993 40.05391000000003L100.69789999999989 41.41208999999998L100.77710000000002 41.43287000000004L101.11149999999998 42.648120000000006L100.4853999999998 46.21504999999996L99.9025999999999 47.164060000000006L100.78049999999985 47.229160000000036L101.03179999999998 47.5917L100.99869999999987 49.28466999999995L101.3092999999999 49.597050000000024L104.36479999999983 51.03078999999997L104.8916999999999 51.83372000000003L105.53849999999989 51.29025999999993L106.66079999999988 50.60935999999998L107.5043999999998 50.64055000000002L107.64850000000001 48.48830000000004L107.39279999999985 48.129880000000014L106.34449999999993 47.84264999999999L106.11410000000001 47.55424999999997L106.20449999999983 47.13042999999999L107.92219999999998 47.07361999999995L108.77179999999998 47.23144999999994L109.80679999999984 48.00276000000002L109.76170000000002 48.10962999999998L110.86529999999993 49.414309999999944L111.6253999999999 49.81594999999999L112.47969999999987 49.719809999999995L112.62659999999983 49.951570000000004L115.42999999999984 51.61017999999996L116.78189999999995 53.212500000000034L116.71299999999997 52.497180000000014L116.91969999999992 52.119509999999934L118.13239999999996 51.958609999999965L120.55039999999985 51.13379000000003L120.95439999999985 51.292160000000024L121.4898999999998 53.368539999999996L123.10489999999982 53.96324999999996L125.23180000000002 51.95873L125.57719999999995 51.910360000000026L127.74509999999987 52.56324999999998L128.05669999999986 53.315980000000025L130.3677 53.32780999999994L130.74810000000002 53.17253999999997L130.63159999999993 52.36506000000003L133.12059999999997 54.105650000000026L135.10529999999994 54.94077999999996L136.0492999999999 56.91437000000002L136.76779999999985 56.64838000000003L136.49889999999982 58.35146000000003L136.81259999999997 58.65272999999996L138.10979999999995 58.573379999999986L138.51319999999987 58.392289999999946L138.60469999999987 57.51460000000003L139.44809999999984 55.987509999999986L140.9179999999999 55.06916999999993L142.51189999999997 52.03574999999995L143.048 51.77555000000001L143.68169999999986 49.13528000000002L142.35770000000002 48.940429999999935L141.54669999999987 47.86684999999994L143.19499999999994 44.70328000000001L143.12019999999984 43.82211000000001L143.61189999999988 42.99090999999993L143.92259999999987 42.186890000000005L145.5625 40.84098L145.50009999999997 40.056329999999946L146.42079999999987 39.205899999999986L147.30679999999984 36.91437000000002L147.8032999999998 34.65114L149.1694 31.90498999999994L149.93639999999982 31.49803000000003L150.0003999999999 31.393189999999947L150.24339999999984 30.19666000000001L151.33719999999994 28.906909999999982L151.18549999999982 27.670699999999954L152.9849999999999 27.090589999999963L153.38199999999983 26.01097999999996L152.70969999999988 24.420379999999966L151.7422999999999 23.691669999999988L152.12369999999987 22.45050999999995L150.93869999999993 21.941679999999963L150.36509999999998 22.64755999999994L149.1008999999999 23.09688L148.54009999999994 23.25735000000003L146.48339999999985 22.986919999999998L145.53539999999998 21.711610000000007L142.98469999999998 20.627139999999997L143.80909999999994 19.66044999999997L145.0976999999998 17.920119999999997L145.5924 17.623109999999997L145.34169999999995 16.097279999999955L144.4282999999998 15.30592999999999L143.75149999999985 14.830209999999965L144.6712 13.925270000000012L144.6612 11.16152999999997L145.12639999999988 10.023679999999956L145.82549999999992 9.590370000000007L145.71579999999994 9.398809999999969L145.55639999999994 8.920739999999967L145.39239999999995 7.621389999999963L146.4572999999998 5.164229999999975L146.6268 3.8320699999999874L144.48919999999998 3.118499999999983L144.2630999999999 1.63121000000001L144.53919999999994 0.9488299999999867L145.48779999999988 1.6985599999999863L147.1914999999999 1.7946399999999585L147.52689999999984 1.5498799999999733L146.99689999999987 0L144.4061999999999 0.22300999999998794L143.6474999999998 0.6551499999999919L143.19409999999993 0.7991099999999847L141.10799999999995 2.045689999999979L138.97699999999986 2.7842599999999607L137.1806999999999 4.136509999999987L134.98969999999986 4.510429999999985L133.57510000000002 5.39295999999996L130.32219999999984 9.432129999999972L129.8934999999999 9.514509999999973L129.57679999999982 10.00894999999997L127.35680000000002 12.09899999999999L126.52890000000002 12.374239999999986L125.45479999999998 11.666089999999997L125.00990000000002 9.989599999999996L124.2068999999999 10.318219999999997L123.70830000000001 11.50763999999998L121.88130000000001 12.561739999999986L120.80449999999996 15.190850000000012L120.08019999999988 18.225689999999986L118.78829999999994 17.99279999999999L117.56829999999991 18.51383999999996L117.79849999999988 19.707269999999994L118.47849999999994 20.18928999999997L118.26289999999995 21.840129999999988L117.81089999999995 23.177570000000003L117.89469999999983 23.511019999999974L118.39979999999991 24.88249000000002L118.05610000000001 25.156159999999943L117.35799999999995 26.725120000000004L117.76059999999984 27.92995000000002L117.63229999999999 28.69369999999998L118.24810000000002 29.10874999999993L116.5163 30.328079999999943L112.88499999999999 31.37134999999995L111.38199999999983 30.13739000000004z">
      <title id="t476">Deuxième circonscription des Vosges</title>
      <desc id="d476">Cantons de : Brouvelieures, Bruyères, Corcieux, Fraize, Provenchères-sur-Fave, Raon-l'Etape, Saint-Dié Est, Saint-Dié Ouest, Senones</desc>
    </path><path class="circo" id="id-088-03" d="M123.10489999999982 53.96324999999996L121.4898999999998 53.368539999999996L120.95439999999985 51.292160000000024L120.55039999999985 51.13379000000003L118.13239999999996 51.958609999999965L116.91969999999992 52.119509999999934L116.71299999999997 52.497180000000014L116.78189999999995 53.212500000000034L115.42999999999984 51.61017999999996L112.62659999999983 49.951570000000004L112.47969999999987 49.719809999999995L111.6253999999999 49.81594999999999L110.86529999999993 49.414309999999944L109.76170000000002 48.10962999999998L109.80679999999984 48.00276000000002L108.77179999999998 47.23144999999994L107.92219999999998 47.07361999999995L106.20449999999983 47.13042999999999L106.11410000000001 47.55424999999997L106.34449999999993 47.84264999999999L107.39279999999985 48.129880000000014L107.64850000000001 48.48830000000004L107.5043999999998 50.64055000000002L106.66079999999988 50.60935999999998L105.53849999999989 51.29025999999993L104.8916999999999 51.83372000000003L104.36479999999983 51.03078999999997L101.3092999999999 49.597050000000024L99.76569999999992 50.93542999999994L98.97989999999982 50.611899999999935L97.9237999999998 50.14218999999997L97.63599999999997 50.84949L97.87009999999987 54.32834999999994L98.5478999999998 56.335819999999956L96.28499999999985 54.63412999999997L95.84089999999992 55.395910000000015L94.22339999999986 56.13507999999996L91.25709999999981 58.83115000000004L91.1902 60.07089000000002L90.48569999999995 60.01812000000001L90.41649999999981 60.47899000000001L88.32289999999989 62.10368L87.24459999999999 63.497829999999965L86.10549999999989 64.16493999999994L86.10629999999992 66.34608999999995L85.57949999999983 67.69603000000001L84.40509999999995 67.95648999999997L83.98949999999991 69.5147L82.55049999999983 70.32438999999994L83.71489999999994 70.82135L84.53620000000001 70.64858999999996L85.9092999999998 71.56068999999997L86.24189999999999 72.78343000000001L88.23949999999991 72.70563999999996L89.75619999999981 75.43143000000003L90.53089999999997 75.87219999999996L90.52429999999981 77.58550999999994L91.91840000000002 79.26871L92.17859999999996 80.10811999999993L94.31919999999991 78.73803000000004L97.5976999999998 77.94130000000001L98.97820000000002 75.34962000000002L99.86680000000001 73.88705999999996L102.63239999999996 72.63344000000001L103.0351999999998 72.62214L103.58939999999984 73.69129000000004L105.01599999999985 74.68833999999998L106.00139999999988 76.10404999999997L105.91519999999991 76.98786999999999L106.36899999999991 77.74463999999995L109.9076 79.75066999999996L110.28949999999986 80.05754999999994L111.33919999999989 80.61738999999994L111.88649999999984 81.32711999999998L114.02299999999991 82.70806999999996L114.19699999999989 82.63862999999998L114.27089999999998 83.07257999999996L118.24799999999982 84.65304999999995L118.86549999999988 85.73036999999994L118.5909999999999 86.52046000000001L118.84249999999997 87.11102999999997L121.52800000000002 89.27709999999996L122.7068999999999 88.01589999999993L123.0827999999999 87.79244999999997L123.45249999999987 88.02501999999998L124.63119999999981 87.78384L125.26049999999987 87.21801999999997L127.69470000000001 86.75521999999995L127.7799 86.52551999999997L128.63969999999995 85.10167999999993L129.73149999999987 84.56261L129.6343999999999 83.58061000000004L128.67369999999983 82.75304999999997L128.6338999999998 81.90168L128.63289999999984 80.65110999999996L127.88519999999994 79.69577999999996L129.59629999999993 78.46368000000001L129.4755 78.05325999999997L130.1320999999998 77.51361000000003L130.36599999999999 76.72422L129.91099999999983 76.06612000000001L129.07679999999982 75.93206000000004L130.1395 74.56085000000002L129.75969999999984 72.42798999999997L130.0523999999998 71.60662999999994L130.19989999999984 70.74606999999997L130.66609999999991 69.23539L131.74759999999992 68.06302999999997L131.77089999999998 66.58805999999998L131.72569999999996 65.73192L132.07369999999992 65.48153999999994L132.44179999999983 65.26316000000003L133.25069999999982 65.51902000000001L134.1642999999999 64.61840000000001L134.95839999999998 64.37457999999998L135.62419999999997 63.25765999999993L136.74569999999994 62.61727000000002L137.8893999999998 60.845380000000034L137.35629999999992 60.120600000000024L138.10979999999995 58.573379999999986L136.81259999999997 58.65272999999996L136.49889999999982 58.35146000000003L136.76779999999985 56.64838000000003L136.0492999999999 56.91437000000002L135.10529999999994 54.94077999999996L133.12059999999997 54.105650000000026L130.63159999999993 52.36506000000003L130.74810000000002 53.17253999999997L130.3677 53.32780999999994L128.05669999999986 53.315980000000025L127.74509999999987 52.56324999999998L125.57719999999995 51.910360000000026L125.23180000000002 51.95873L123.10489999999982 53.96324999999996z">
      <title id="t477">Troisième circonscription des Vosges</title>
      <desc id="d477">Cantons de : Gérardmer, Plombières-les-Bains, Remiremont, Saulxures-sur-Moselotte, Le Thillot</desc>
    </path><path class="circo" id="id-088-04" d="M75.6293999999998 64.75295L75.44869999999992 66.02916999999997L76.49069999999983 66.75686000000002L75.96119999999996 68.40932000000004L74.81279999999992 69.68227999999993L75.09929999999986 71.43668999999994L73.8771999999999 72.41009000000003L72.8409999999999 73.30558000000002L72.0632999999998 73.37751999999995L71.75469999999996 74.09728999999999L70.19249999999988 73.73950999999994L69.7516999999998 74.40938L68.96969999999988 74.19801999999999L69.21749999999997 72.89167000000003L69.12549999999987 72.46161000000001L67.0003999999999 71.04016999999993L66.06449999999995 71.58543000000003L65.23159999999984 70.86716999999993L65.0791999999999 70.14539999999994L64.72239999999988 70.08877999999999L64.23949999999991 69.53424999999999L65.35329999999999 69.04608000000002L65.05639999999994 66.65982000000002L64.519 66.06512000000004L64.79049999999984 64.68929999999995L62.694299999999885 62.51128L61.241199999999935 63.27532000000002L60.81049999999982 63.98729999999995L58.7971 63.862270000000024L57.66419999999994 63.59593000000001L54.65879999999993 65.38664L53.421299999999974 67.14524L53.48059999999987 68.36894000000001L52.327 69.65460999999999L52.27080000000001 70.47328999999996L51.71749999999997 71.14717000000002L49.041299999999865 71.00565L48.881799999999885 72.24893000000003L47.07409999999982 73.67339999999996L45.798499999999876 73.45199999999994L46.2181999999998 71.84027999999995L48.099899999999934 69.81900999999999L47.06549999999993 68.14848999999998L45.353200000000015 68.82324999999997L44.83809999999994 69.25112999999993L44.55869999999982 72.25514000000004L43.66660000000002 72.34562999999997L42.46479999999997 73.45999L42.75839999999994 74.25002999999998L41.72669999999994 74.95929999999993L40.00569999999993 72.44333999999998L39.58249999999998 72.45882L39.11909999999989 71.75169L38.768499999999904 70.09754000000004L39.13519999999994 69.88452000000001L39.07759999999985 69.3965L38.662599999999884 69.43064999999996L38.42139999999995 68.65818999999993L37.915899999999965 69.62425999999999L37.39519999999993 70.69949000000003L35.82399999999984 71.04208L34.97259999999983 72.30425999999994L33.539800000000014 71.57794999999993L32.696500000000015 68.36435999999998L33.98009999999999 66.75164999999998L34.081500000000005 65.97860999999995L33.370299999999816 65.06117L33.35259999999994 64.20026000000001L32.52029999999991 62.72440999999998L32.55439999999999 61.296149999999955L31.874199999999973 61.75515999999999L31.483799999999974 61.56410999999997L29.492999999999938 59.342330000000004L27.86019999999985 59.819140000000004L27.777899999999818 58.95995999999997L27.833499999999958 58.870190000000036L27.161099999999806 57.73858000000001L26.049199999999928 56.99831999999998L25.708199999999806 55.71053999999998L25.353399999999965 55.96994999999998L22.566299999999956 54.89573999999999L22.229899999999816 55.15123L22.292799999999943 56.40998999999994L21.873100000000022 56.39242999999993L20.341499999999996 54.85413L20.857700000000023 53.210080000000005L21.722800000000007 52.21345000000002L23.654599999999846 51.65410000000003L22.331899999999905 50.23947000000004L22.837999999999965 49.190300000000036L24.04449999999997 48.232410000000016L23.976199999999835 47.47667999999993L24.779799999999796 46.409730000000025L24.683399999999892 45.43946L24.893299999999954 44.309609999999964L24.519900000000007 43.24112999999994L24.33919999999989 42.83436999999998L26.00499999999988 41.43248999999997L28.65819999999985 41.428669999999954L28.579299999999876 40.329620000000034L28.107899999999972 39.72308000000004L26.946299999999837 37.57220000000001L24.986799999999903 35.75421L24.01369999999997 36.413809999999955L21.000999999999976 34.71163999999993L21.72849999999994 33.13529L22.098199999999906 31.37057999999996L18.514699999999948 28.395640000000014L16.540399999999863 30.70152999999999L16.29430000000002 29.849499999999978L11.87279999999987 24.14155999999997L10.980999999999995 22.171220000000005L11.278900000000021 21.359899999999982L9.624399999999923 20.937449999999956L8.971799999999803 20.37554L6.856199999999944 20.373229999999978L6.378999999999905 21.060490000000016L5.613299999999981 21.022760000000005L4.2490999999999985 22.641419999999982L2.737999999999829 23.379579999999976L1.9821999999999207 21.901389999999935L2.425299999999879 20.733949999999993L2.1009999999998854 19.589830000000006L4.169099999999844 17.198109999999986L1.2751999999998134 16.732249999999965L0 15.639149999999972L1.355099999999993 15.504230000000007L4.531499999999824 12.640499999999975L6.4792999999999665 11.879349999999988L7.585699999999861 12.55174999999997L8.42619999999988 12.505639999999971L9.364499999999907 13.364170000000001L10.205899999999929 13.176690000000008L9.866899999999987 12.38191999999998L10.328499999999849 10.728419999999971L12.746399999999994 10.08081999999996L14.194499999999834 9.247869999999978L14.803899999999885 9.782039999999995L14.6882999999998 10.191129999999987L15.539399999999887 10.464519999999993L15.858599999999797 9.63085000000001L16.61779999999999 9.165609999999958L18.80399999999986 9.370619999999974L19.11779999999999 10.626449999999977L19.262199999999893 8.974040000000002L19.818199999999933 8.298200000000008L21.73889999999983 7.50885999999997L21.82809999999995 6.766590000000008L20.826499999999896 5.547840000000008L21.115099999999984 5.277060000000006L21.30939999999987 5.351679999999988L22.05769999999984 5.71848L22.35849999999982 5.4297599999999875L24.016599999999926 5.3947599999999625L25.139899999999898 5.926940000000002L25.605999999999995 6.430999999999983L27.348999999999933 6.764409999999998L29.44439999999986 6.120519999999999L29.631199999999808 5.014479999999992L29.943899999999985 4.789960000000008L30.60109999999986 3.132219999999961L31.5628999999999 2.19371000000001L32.705600000000004 3.5155699999999683L33.42179999999985 3.9356899999999655L35.440399999999954 1.9616599999999949L36.5967999999998 2.2074399999999628L37.619500000000016 1.6530199999999695L37.736199999999826 1.1271600000000035L39.3898999999999 0.8648000000000025L40.12839999999983 1.2045200000000023L40.64379999999983 1.8827699999999936L42.251399999999876 2.5363199999999892L43.52669999999989 2.3881700000000023L42.92229999999995 3.6116199999999594L43.390499999999975 3.9336399999999685L42.06229999999982 5.666940000000011L41.93339999999989 7.370180000000005L42.81139999999982 8.340359999999976L41.77229999999986 9.707220000000007L41.66519999999991 9.899399999999957L39.56880000000001 12.446339999999964L39.232499999999845 13.358789999999999L40.478200000000015 13.774180000000001L41.17059999999992 14.174049999999966L42.76729999999998 13.473009999999988L43.69920000000002 10.975279999999998L42.85809999999992 9.95474999999999L44.89659999999981 9.903249999999957L45.6878999999999 10.211880000000008L45.1081999999999 11.36660999999998L44.253600000000006 11.342919999999992L43.863999999999805 12.090679999999963L43.89670000000001 13.828219999999988L44.76779999999985 14.421799999999962L45.37869999999998 15.367759999999976L45.83589999999981 14.44074999999998L46.51999999999998 14.465199999999982L47.23979999999983 15.007399999999961L47.694999999999936 16.175739999999962L46.82069999999999 17.654719999999998L47.49599999999987 18.05793L47.43579999999997 18.811329999999998L47.82529999999997 18.74530999999996L47.73579999999993 20.128780000000006L48.53399999999988 20.94998000000004L49.29019999999991 20.718209999999942L50.04259999999999 20.952789999999993L50.52679999999987 20.321679999999958L50.926099999999906 20.392169999999965L51.96100000000001 19.625399999999956L53.25 19.492729999999995L53.645699999999806 20.07684999999998L54.310199999999895 19.54735999999997L55.51299999999992 19.387569999999982L55.54899999999998 18.96051L55.92719999999986 18.92212999999998L56.74090000000001 19.7106L57.60219999999981 19.70841999999999L58.31060000000002 19.213189999999997L57.82369999999992 17.818510000000003L58.04549999999995 17.138209999999958L59.278699999999844 16.830539999999985L59.87040000000002 18.651129999999966L59.87979999999993 19.058130000000006L59.49459999999999 19.185810000000004L60.247899999999845 20.15423999999996L61.47479999999996 20.46647999999999L62.1579999999999 18.749660000000006L62.80569999999989 19.33524L64.47339999999986 16.90861000000001L64.05639999999994 13.556240000000003L64.22640000000001 13.50079999999997L66.21619999999984 13.787109999999984L66.7344999999998 13.219979999999964L67.05769999999984 13.412949999999967L66.69139999999993 14.865669999999966L67.80160000000001 15.06513000000001L68.53939999999989 14.810369999999978L68.6739 14.63945000000001L71.2539999999999 14.530499999999961L71.3596 14.929049999999961L72.49180000000001 13.833210000000008L73.66349999999989 13.739859999999965L74.50119999999993 11.216869999999972L75.2802999999999 11.478819999999985L76.79819999999995 10.23775999999998L77.26879999999983 10.924170000000004L77.72789999999986 13.036729999999977L80.12929999999983 13.971749999999986L81.61289999999985 14.062529999999981L82.33249999999998 13.605539999999962L82.43349999999987 13.552149999999983L83.55739999999992 13.026099999999985L84.67059999999992 13.555859999999996L84.1697999999999 14.620499999999993L84.1866 15.249480000000005L83.40819999999985 16.87469999999996L79.74459999999999 18.63027999999997L80.35419999999999 19.046609999999987L81.11969999999997 18.76463000000001L81.27559999999994 19.53046999999998L82.0969 19.289060000000006L82.45799999999986 19.52100999999999L82.65509999999995 20.774749999999983L84.98739999999998 19.83941999999996L85.12509999999997 20.242759999999976L83.96089999999981 21.36515000000003L82.25669999999991 21.69063L82.00189999999998 22.040149999999983L82.27289999999994 22.79678999999993L82.12349999999992 23.991349999999954L82.0797 24.075850000000003L81.44949999999994 24.64638999999994L81.3893999999998 25.903110000000027L80.66179999999986 26.337129999999945L80.39559999999983 26.391439999999932L79.7953 27.758350000000007L79.21640000000002 28.515100000000018L80.3789999999999 30.318510000000003L80.32629999999995 31.16166000000004L81.06909999999993 31.276080000000036L81.17189999999982 31.63811000000004L80.87259999999992 32.91315000000003L77.67009999999982 34.057349999999985L77.42869999999994 34.87130999999994L77.47709999999984 35.111249999999984L78.5483999999999 37.49259000000001L79.57129999999984 39.10054999999994L78.12609999999995 39.37145000000004L78.25249999999983 39.744380000000035L77.4348 40.48520000000002L77.45499999999993 41.31747999999999L77.80349999999999 41.55488999999994L78.99549999999999 41.22273999999999L79.26459999999997 41.54762999999997L78.60680000000002 42.05378999999999L76.21809999999982 42.26566999999994L73.88479999999981 42.77699999999999L73.91589999999997 45.435509999999965L74.96069999999986 46.840859999999964L75.22329999999988 48.15051L76.1606999999999 49.06828999999999L76.27369999999996 50.39532000000003L75.00919999999996 50.20037999999994L73.07399999999984 51.10629L71.90409999999997 50.58669000000003L71.24829999999997 51.138750000000016L70.46550000000002 52.28294999999997L69.69380000000001 53.38278999999994L70.2860999999998 56.38073000000003L72.27279999999996 58.01686000000001L73.90989999999988 57.50379000000004L74.7464 57.71161999999998L74.98329999999987 57.34225999999995L75.07859999999982 59.31626L77.7802999999999 59.36750999999998L79.27179999999998 60.33737000000002L79.13159999999993 61.63566999999995L77.90289999999982 63.50469000000004L77.13359999999989 63.947280000000035L75.6293999999998 64.75295z">
      <title id="t478">Quatrième circonscription des Vosges</title>
      <desc id="d478">Cantons de : Bains-les-Bains, Bulgnéville, Charmes, Châtenois, Coussey, Darney, Dompaire, Lamarche, Mirecourt, Monthureux-sur-Saône, Neufchâteau, Vittel</desc>
    </path></svg>