<svg xmlns="http://www.w3.org/2000/svg" version="1.1" xmlns:xlink="http://www.w3.org/1999/xlink" xmlns:svgjs="http://svgjs.dev/svgjs" viewBox="1115.3375 491.59219 153.38199999999983 89.27709999999996"><path class="circo" id="id-088-01" d="M 1213.0065,516.67294 1213.5678,516.28959 1214.6139,517.27509 1214.7068,518.11616 1217.0036,519.31962 1217.9838,521.73457 1219.8586,520.81744 1220.2642,518.9248 1221.0469,517.67423 1222.5216,517.00463 1222.9854,517.72267 1224.2435,517.66848 1225.4654,520.48211 1226.7195,521.72958 1228.2225,522.96354 1231.8538,521.92027 1233.5856,520.70094 1232.9698,520.28589 1233.0981,519.52214 1232.6955,518.31731 1233.3936,516.74835 1233.7373,516.47468 1233.2322,515.10321 1233.1484,514.76976 1233.6004,513.43232 1233.816,511.78148 1233.136,511.29946 1232.9058,510.10603 1234.1258,509.58499 1235.4177,509.81788 1236.142,506.78304 1234.6638,505.89287 1233.6561,506.64683 1233.6341,505.90427 1233.2016,505.85933 1231.9651,505.94178 1231.4694,504.73713 1229.7273,504.61381 1229.6661,504.17941 1228.4816,504.08169 1227.4676,503.41095 1226.2491,504.5047 1225.139,503.84591 1224.9141,503.01977 1224.624,503.37189 1223.7642,502.81495 1221.6721,502.48689 1221.913,501.65238 1220.963,499.7193 1221.1545,498.40659 1220.873,497.119 1219.6282,496.87451 1217.6522,497.5713 1217.3942,498.15638 1216.5661,498.47414 1215.1942,501.25546 1216.4932,503.94594 1216.0567,504.16251 1213.1523,502.61448 1212.2875,502.12218 1210.8964,503.14082 1209.5162,504.28686 1208.2576,504.06709 1206.9265,504.97352 1205.6974,503.97258 1204.9619,504.30709 1202.9604,505.09721 1201.9422,507.00719 1201.1111,507.14301 1200.9213,506.74514 1199.7922,507.15748 1199.5241,506.84167 1198.7457,508.46689 1195.0821,510.22247 1195.6917,510.6388 1196.4572,510.35682 1196.6131,511.12266 1197.4344,510.88125 1197.7955,511.1132 1197.9926,512.36694 1200.3249,511.43161 1200.4626,511.83495 1199.2984,512.95734 1197.5942,513.28282 1197.3394,513.63234 1197.6104,514.38898 1197.461,515.58354 1197.4172,515.66804 1196.787,516.23858 1196.7269,517.4953 1195.9993,517.92932 1195.7331,517.98363 1195.1328,519.35054 1194.5539,520.10729 1195.7165,521.9107 1195.6638,522.75385 1196.4066,522.86827 1196.5094,523.2303 1196.2101,524.50534 1193.0076,525.64954 1192.7662,526.4635 1192.8146,526.70344 1193.8859,529.08478 1194.9088,530.69274 1193.4636,530.96364 1193.59,531.33657 1192.7723,532.07739 1192.7925,532.90967 1193.141,533.14708 1194.333,532.81493 1194.6021,533.13982 1193.9443,533.64598 1191.5556,533.85786 1189.2223,534.36919 1189.2534,537.0277 1190.2982,538.43305 1190.5608,539.7427 1191.4982,540.66048 1191.6112,541.98751 1190.3467,541.79257 1188.4115,542.69848 1187.2416,542.17888 1186.5858,542.73094 1185.803,543.87514 1185.0313,544.97498 1185.6236,547.97292 1187.6103,549.60905 1189.2474,549.09598 1190.0839,549.30381 1190.3208,548.93445 1190.4161,550.90845 1193.1178,550.9597 1194.6093,551.92956 1194.4691,553.22786 1193.2404,555.09688 1192.4711,555.53947 1190.9669,556.34514 1190.7862,557.62136 1191.8282,558.34905 1191.2987,560.00151 1190.1503,561.27447 1190.4368,563.02888 1191.7537,562.79572 1192.9418,563.41369 1194.2727,563.50176 1197.888,561.91658 1199.327,561.10689 1199.7426,559.54868 1200.917,559.28822 1201.4438,557.93828 1201.443,555.75713 1202.5821,555.09002 1203.6604,553.69587 1205.754,552.07118 1205.8232,551.61031 1206.5277,551.66308 1206.5946,550.42334 1209.5609,547.72727 1211.1784,546.9881 1211.6225,546.22632 1213.8854,547.92801 1213.2076,545.92054 1212.9735,542.44168 1213.2613,541.73438 1214.3174,542.20409 1215.1032,542.52762 1216.6468,541.18924 1216.3362,540.87686 1216.3693,539.18389 1216.118,538.82135 1215.2401,538.75625 1215.8229,537.80724 1216.449,534.24031 1216.1146,533.02506 1216.0354,533.00428 1214.403,531.6461 1214.0873,531.56065 1214.7065,531.03609 1213.792,530.33419 1213.4825,529.59866 1213.5857,527.34627 1213.9339,527.04356 1213.4222,525.088 1214.0617,523.15164 1212.9344,521.36275 1212.2193,520.90954 1212.0529,520.6294 1212.4915,519.90236 1212.0645,519.16054 1212.275,518.32638 1213.6191,517.29349 1213.0065,516.67294 z">
      <title id="t475">Première circonscription des Vosges</title>
      <desc id="d475">Cantons de : Châtel-sur-Moselle, Epinal Est, Epinal Ouest, RamberviIlers, Xertigny</desc>
    </path><path class="circo" id="id-088-02" d="M 1226.7195,521.72958 1225.4654,520.48211 1224.2435,517.66848 1222.9854,517.72267 1222.5216,517.00463 1221.0469,517.67423 1220.2642,518.9248 1219.8586,520.81744 1217.9838,521.73457 1217.0036,519.31962 1214.7068,518.11616 1214.6139,517.27509 1213.5678,516.28959 1213.0065,516.67294 1213.6191,517.29349 1212.275,518.32638 1212.0645,519.16054 1212.4915,519.90236 1212.0529,520.6294 1212.2193,520.90954 1212.9344,521.36275 1214.0617,523.15164 1213.4222,525.088 1213.9339,527.04356 1213.5857,527.34627 1213.4825,529.59866 1213.792,530.33419 1214.7065,531.03609 1214.0873,531.56065 1214.403,531.6461 1216.0354,533.00428 1216.1146,533.02506 1216.449,534.24031 1215.8229,537.80724 1215.2401,538.75625 1216.118,538.82135 1216.3693,539.18389 1216.3362,540.87686 1216.6468,541.18924 1219.7023,542.62298 1220.2292,543.42591 1220.876,542.88245 1221.9983,542.20155 1222.8419,542.23274 1222.986,540.08049 1222.7303,539.72207 1221.682,539.43484 1221.4516,539.14644 1221.542,538.72262 1223.2597,538.66581 1224.1093,538.82364 1225.1443,539.59495 1225.0992,539.70182 1226.2028,541.0065 1226.9629,541.40814 1227.8172,541.312 1227.9641,541.54376 1230.7675,543.20237 1232.1194,544.80469 1232.0505,544.08937 1232.2572,543.7117 1233.4699,543.5508 1235.8879,542.72598 1236.2919,542.88435 1236.8274,544.96073 1238.4424,545.55544 1240.5693,543.55092 1240.9147,543.50255 1243.0826,544.15544 1243.3942,544.90817 1245.7052,544.92 1246.0856,544.76473 1245.9691,543.95725 1248.4581,545.69784 1250.4428,546.53297 1251.3868,548.50656 1252.1053,548.24057 1251.8364,549.94365 1252.1501,550.24492 1253.4473,550.16557 1253.8507,549.98448 1253.9422,549.10679 1254.7856,547.5797 1256.2555,546.66136 1257.8494,543.62794 1258.3855,543.36774 1259.0192,540.72747 1257.6952,540.53262 1256.8842,539.45904 1258.5325,536.29547 1258.4577,535.4143 1258.9494,534.5831 1259.2601,533.77908 1260.9,532.43317 1260.8376,531.64852 1261.7583,530.79809 1262.6443,528.50656 1263.1408,526.24333 1264.5069,523.49718 1265.2739,523.09022 1265.3379,522.98538 1265.5809,521.78885 1266.6747,520.4991 1266.523,519.26289 1268.3225,518.68278 1268.7195,517.60317 1268.0472,516.01257 1267.0798,515.28386 1267.4612,514.0427 1266.2762,513.53387 1265.7026,514.23975 1264.4384,514.68907 1263.8776,514.84954 1261.8209,514.57911 1260.8729,513.3038 1258.3222,512.21933 1259.1466,511.25264 1260.4352,509.51231 1260.9299,509.2153 1260.6792,507.68947 1259.7658,506.89812 1259.089,506.4224 1260.0087,505.51746 1259.9987,502.75372 1260.4639,501.61587 1261.163,501.18256 1261.0533,500.991 1260.8939,500.51293 1260.7299,499.21358 1261.7948,496.75642 1261.9643,495.42426 1259.8267,494.71069 1259.6006,493.2234 1259.8767,492.54102 1260.8253,493.29075 1262.529,493.38683 1262.8644,493.14207 1262.3344,491.59219 1259.7437,491.8152 1258.985,492.24734 1258.5316,492.3913 1256.4455,493.63788 1254.3145,494.37645 1252.5182,495.7287 1250.3272,496.10262 1248.9126,496.98515 1245.6597,501.02432 1245.231,501.1067 1244.9143,501.60114 1242.6943,503.69119 1241.8664,503.96643 1240.7923,503.25828 1240.3474,501.58179 1239.5444,501.91041 1239.0458,503.09983 1237.2188,504.15393 1236.142,506.78304 1235.4177,509.81788 1234.1258,509.58499 1232.9058,510.10603 1233.136,511.29946 1233.816,511.78148 1233.6004,513.43232 1233.1484,514.76976 1233.2322,515.10321 1233.7373,516.47468 1233.3936,516.74835 1232.6955,518.31731 1233.0981,519.52214 1232.9698,520.28589 1233.5856,520.70094 1231.8538,521.92027 1228.2225,522.96354 1226.7195,521.72958 z">
      <title id="t476">Deuxième circonscription des Vosges</title>
      <desc id="d476">Cantons de : Brouvelieures, Bruyères, Corcieux, Fraize, Provenchères-sur-Fave, Raon-l'Etape, Saint-Dié Est, Saint-Dié Ouest, Senones</desc>
    </path><path class="circo" id="id-088-03" d="M 1238.4424,545.55544 1236.8274,544.96073 1236.2919,542.88435 1235.8879,542.72598 1233.4699,543.5508 1232.2572,543.7117 1232.0505,544.08937 1232.1194,544.80469 1230.7675,543.20237 1227.9641,541.54376 1227.8172,541.312 1226.9629,541.40814 1226.2028,541.0065 1225.0992,539.70182 1225.1443,539.59495 1224.1093,538.82364 1223.2597,538.66581 1221.542,538.72262 1221.4516,539.14644 1221.682,539.43484 1222.7303,539.72207 1222.986,540.08049 1222.8419,542.23274 1221.9983,542.20155 1220.876,542.88245 1220.2292,543.42591 1219.7023,542.62298 1216.6468,541.18924 1215.1032,542.52762 1214.3174,542.20409 1213.2613,541.73438 1212.9735,542.44168 1213.2076,545.92054 1213.8854,547.92801 1211.6225,546.22632 1211.1784,546.9881 1209.5609,547.72727 1206.5946,550.42334 1206.5277,551.66308 1205.8232,551.61031 1205.754,552.07118 1203.6604,553.69587 1202.5821,555.09002 1201.443,555.75713 1201.4438,557.93828 1200.917,559.28822 1199.7426,559.54868 1199.327,561.10689 1197.888,561.91658 1199.0524,562.41354 1199.8737,562.24078 1201.2468,563.15288 1201.5794,564.37562 1203.577,564.29783 1205.0937,567.02362 1205.8684,567.46439 1205.8618,569.1777 1207.2559,570.8609 1207.5161,571.70031 1209.6567,570.33022 1212.9352,569.53349 1214.3157,566.94181 1215.2043,565.47925 1217.9699,564.22563 1218.3727,564.21433 1218.9269,565.28348 1220.3535,566.28053 1221.3389,567.69624 1221.2527,568.58006 1221.7065,569.33683 1225.2451,571.34286 1225.627,571.64974 1226.6767,572.20958 1227.224,572.91931 1229.3605,574.30026 1229.5345,574.23082 1229.6084,574.66477 1233.5855,576.24524 1234.203,577.32256 1233.9285,578.11265 1234.18,578.70322 1236.8655,580.86929 1238.0444,579.60809 1238.4203,579.38464 1238.79,579.61721 1239.9687,579.37603 1240.598,578.81021 1243.0322,578.34741 1243.1174,578.11771 1243.9772,576.69387 1245.069,576.1548 1244.9719,575.1728 1244.0112,574.34524 1243.9714,573.49387 1243.9704,572.2433 1243.2227,571.28797 1244.9338,570.05587 1244.813,569.64545 1245.4696,569.1058 1245.7035,568.31641 1245.2485,567.65831 1244.4143,567.52425 1245.477,566.15304 1245.0972,564.02018 1245.3899,563.19882 1245.5374,562.33826 1246.0036,560.82758 1247.0851,559.65522 1247.1084,558.18025 1247.0632,557.32411 1247.4112,557.07373 1247.7793,556.85535 1248.5882,557.11121 1249.5018,556.21059 1250.2959,555.96677 1250.9617,554.84985 1252.0832,554.20946 1253.2269,552.43757 1252.6938,551.71279 1253.4473,550.16557 1252.1501,550.24492 1251.8364,549.94365 1252.1053,548.24057 1251.3868,548.50656 1250.4428,546.53297 1248.4581,545.69784 1245.9691,543.95725 1246.0856,544.76473 1245.7052,544.92 1243.3942,544.90817 1243.0826,544.15544 1240.9147,543.50255 1240.5693,543.55092 1238.4424,545.55544 z">
      <title id="t477">Troisième circonscription des Vosges</title>
      <desc id="d477">Cantons de : Gérardmer, Plombières-les-Bains, Remiremont, Saulxures-sur-Moselotte, Le Thillot</desc>
    </path><path class="circo" id="id-088-04" d="M 1190.9669,556.34514 1190.7862,557.62136 1191.8282,558.34905 1191.2987,560.00151 1190.1503,561.27447 1190.4368,563.02888 1189.2147,564.00228 1188.1785,564.89777 1187.4008,564.96971 1187.0922,565.68948 1185.53,565.3317 1185.0892,566.00157 1184.3072,565.79021 1184.555,564.48386 1184.463,564.0538 1182.3379,562.63236 1181.402,563.17762 1180.5691,562.45936 1180.4167,561.73759 1180.0599,561.68097 1179.577,561.12644 1180.6908,560.63827 1180.3939,558.25201 1179.8565,557.65731 1180.128,556.28149 1178.0318,554.10347 1176.5787,554.86751 1176.148,555.57949 1174.1346,555.45446 1173.0017,555.18812 1169.9963,556.97883 1168.7588,558.73743 1168.8181,559.96113 1167.6645,561.2468 1167.6083,562.06548 1167.055,562.73936 1164.3788,562.59784 1164.2193,563.84112 1162.4116,565.26559 1161.136,565.04419 1161.5557,563.43247 1163.4374,561.4112 1162.403,559.74068 1160.6907,560.41544 1160.1756,560.84332 1159.8962,563.84733 1159.0041,563.93782 1157.8023,565.05218 1158.0959,565.84222 1157.0642,566.55149 1155.3432,564.03553 1154.92,564.05101 1154.4566,563.34388 1154.106,561.68973 1154.4727,561.47671 1154.4151,560.98869 1154.0001,561.02284 1153.7589,560.25038 1153.2534,561.21645 1152.7327,562.29168 1151.1615,562.63427 1150.3101,563.89645 1148.8773,563.17014 1148.034,559.95655 1149.3176,558.34384 1149.419,557.5708 1148.7078,556.65336 1148.6901,555.79245 1147.8578,554.3166 1147.8919,552.88834 1147.2117,553.34735 1146.8213,553.1563 1144.8305,550.93452 1143.1977,551.41133 1143.1154,550.55215 1143.171,550.46238 1142.4986,549.33077 1141.3867,548.59051 1141.0457,547.30273 1140.6909,547.56214 1137.9038,546.48793 1137.5674,546.74342 1137.6303,548.00218 1137.2106,547.98462 1135.679,546.44632 1136.1952,544.80227 1137.0603,543.80564 1138.9921,543.24629 1137.6694,541.83166 1138.1755,540.78249 1139.382,539.8246 1139.3137,539.06887 1140.1173,538.00192 1140.0209,537.03165 1140.2308,535.9018 1139.8574,534.83332 1139.6767,534.42656 1141.3425,533.02468 1143.9957,533.02086 1143.9168,531.92181 1143.4454,531.31527 1142.2838,529.16439 1140.3243,527.3464 1139.3512,528.006 1136.3385,526.30383 1137.066,524.72748 1137.4357,522.96277 1133.8522,519.98783 1131.8779,522.29372 1131.6318,521.44169 1127.2103,515.73375 1126.3185,513.76341 1126.6164,512.95209 1124.9619,512.52964 1124.3093,511.96773 1122.1937,511.96542 1121.7165,512.65268 1120.9508,512.61495 1119.5866,514.23361 1118.0755,514.97177 1117.3197,513.49358 1117.7628,512.32614 1117.4385,511.18202 1119.5066,508.7903 1116.6127,508.32444 1115.3375,507.23134 1116.6926,507.09642 1119.869,504.23269 1121.8168,503.47154 1122.9232,504.14394 1123.7637,504.09783 1124.702,504.95636 1125.5434,504.76888 1125.2044,503.97411 1125.666,502.32061 1128.0839,501.67301 1129.532,500.84006 1130.1414,501.37423 1130.0258,501.78332 1130.8769,502.05671 1131.1961,501.22304 1131.9553,500.7578 1134.1415,500.96281 1134.4553,502.21864 1134.5997,500.56623 1135.1557,499.89039 1137.0764,499.10105 1137.1656,498.35878 1136.164,497.14003 1136.4526,496.86925 1136.6469,496.94387 1137.3952,497.31067 1137.696,497.02195 1139.3541,496.98695 1140.4774,497.51913 1140.9435,498.02319 1142.6865,498.3566 1144.7819,497.71271 1144.9687,496.60667 1145.2814,496.38215 1145.9386,494.72441 1146.9004,493.7859 1148.0431,495.10776 1148.7593,495.52788 1150.7779,493.55385 1151.9343,493.79963 1152.957,493.24521 1153.0737,492.71935 1154.7274,492.45699 1155.4659,492.79671 1155.9813,493.47496 1157.5889,494.12851 1158.8642,493.98036 1158.2598,495.20381 1158.728,495.52583 1157.3998,497.25913 1157.2709,498.96237 1158.1489,499.93255 1157.1098,501.29941 1157.0027,501.49159 1154.9063,504.03853 1154.57,504.95098 1155.8157,505.36637 1156.5081,505.76624 1158.1048,505.0652 1159.0367,502.56747 1158.1956,501.54694 1160.2341,501.49544 1161.0254,501.80407 1160.4457,502.9588 1159.5911,502.93511 1159.2015,503.68287 1159.2342,505.42041 1160.1053,506.01399 1160.7162,506.95995 1161.1734,506.03294 1161.8575,506.05739 1162.5773,506.59959 1163.0325,507.76793 1162.1582,509.24691 1162.8335,509.65012 1162.7733,510.40352 1163.1628,510.3375 1163.0733,511.72097 1163.8715,512.54217 1164.6277,512.3104 1165.3801,512.54498 1165.8643,511.91387 1166.2636,511.98436 1167.2985,511.21759 1168.5875,511.08492 1168.9832,511.66904 1169.6477,511.13955 1170.8505,510.97976 1170.8865,510.5527 1171.2647,510.51432 1172.0784,511.30279 1172.9397,511.30061 1173.6481,510.80538 1173.1612,509.4107 1173.383,508.7304 1174.6162,508.42273 1175.2079,510.24332 1175.2173,510.65032 1174.8321,510.778 1175.5854,511.74643 1176.8123,512.05867 1177.4955,510.34185 1178.1432,510.92743 1179.8109,508.5008 1179.3939,505.14843 1179.5639,505.09299 1181.5537,505.3793 1182.072,504.81217 1182.3952,505.00514 1182.0289,506.45786 1183.1391,506.65732 1183.8769,506.40256 1184.0114,506.23164 1186.5915,506.12269 1186.6971,506.52124 1187.8293,505.4254 1189.001,505.33205 1189.8387,502.80906 1190.6178,503.07101 1192.1357,501.82995 1192.6063,502.51636 1193.0654,504.62892 1195.4668,505.56394 1196.9504,505.65472 1197.67,505.19773 1197.771,505.14434 1198.8949,504.61829 1200.0081,505.14805 1199.5073,506.21269 1199.5241,506.84167 1198.7457,508.46689 1195.0821,510.22247 1195.6917,510.6388 1196.4572,510.35682 1196.6131,511.12266 1197.4344,510.88125 1197.7955,511.1132 1197.9926,512.36694 1200.3249,511.43161 1200.4626,511.83495 1199.2984,512.95734 1197.5942,513.28282 1197.3394,513.63234 1197.6104,514.38898 1197.461,515.58354 1197.4172,515.66804 1196.787,516.23858 1196.7269,517.4953 1195.9993,517.92932 1195.7331,517.98363 1195.1328,519.35054 1194.5539,520.10729 1195.7165,521.9107 1195.6638,522.75385 1196.4066,522.86827 1196.5094,523.2303 1196.2101,524.50534 1193.0076,525.64954 1192.7662,526.4635 1192.8146,526.70344 1193.8859,529.08478 1194.9088,530.69274 1193.4636,530.96364 1193.59,531.33657 1192.7723,532.07739 1192.7925,532.90967 1193.141,533.14708 1194.333,532.81493 1194.6021,533.13982 1193.9443,533.64598 1191.5556,533.85786 1189.2223,534.36919 1189.2534,537.0277 1190.2982,538.43305 1190.5608,539.7427 1191.4982,540.66048 1191.6112,541.98751 1190.3467,541.79257 1188.4115,542.69848 1187.2416,542.17888 1186.5858,542.73094 1185.803,543.87514 1185.0313,544.97498 1185.6236,547.97292 1187.6103,549.60905 1189.2474,549.09598 1190.0839,549.30381 1190.3208,548.93445 1190.4161,550.90845 1193.1178,550.9597 1194.6093,551.92956 1194.4691,553.22786 1193.2404,555.09688 1192.4711,555.53947 1190.9669,556.34514 z">
      <title id="t478">Quatrième circonscription des Vosges</title>
      <desc id="d478">Cantons de : Bains-les-Bains, Bulgnéville, Charmes, Châtenois, Coussey, Darney, Dompaire, Lamarche, Mirecourt, Monthureux-sur-Saône, Neufchâteau, Vittel</desc>
    </path></svg>