<svg xmlns="http://www.w3.org/2000/svg" version="1.1" xmlns:xlink="http://www.w3.org/1999/xlink" xmlns:svgjs="http://svgjs.dev/svgjs" viewBox="898.99053 506.29681 126.79357000000005 137.64718"><path class="circo" id="089-01" d="M 953.33073,569.32466 953.65813,567.52121 953.55613,567.0925 952.24723,565.95539 951.16123,566.76638 950.88073,566.46561 950.45063,566.43225 950.09873,565.65839 948.89803,565.20977 948.12793,565.50247 947.05213,566.83361 945.93713,566.54477 944.64533,565.59864 943.47793,565.48572 943.30243,564.55314 941.98823,564.11878 940.57193,564.08972 939.18753,564.90957 938.51753,565.92316 937.02913,566.70739 936.51843,567.84577 935.66843,567.85071 934.85243,568.52007 934.19483,568.8546 933.77913,568.96277 932.08543,567.69053 930.41403,567.9802 930.28663,567.57689 929.60383,567.58653 929.32023,566.77069 928.10783,565.50501 928.03253,564.61988 928.42883,564.5591 928.59243,563.79327 927.97763,562.34233 927.58603,562.2522 925.93373,562.7089 925.50233,561.512 923.47883,561.18827 923.62493,559.02763 924.00233,558.24083 922.62343,558.27284 922.31003,559.04376 922.77833,559.7657 922.74613,560.65465 921.49703,561.81807 920.80403,563.90051 920.02863,563.87436 919.39393,564.37727 918.99073,564.47282 918.54903,565.63467 917.39903,565.98419 916.19973,567.12827 915.95653,568.41799 914.46233,568.86119 912.86023,569.243 913.16723,570.04522 912.46993,570.4513 912.83243,573.01119 911.42253,573.99312 913.83603,574.79501 914.73083,576.96706 914.46223,577.77732 913.03503,578.49151 913.04503,579.35299 913.50503,580.05953 913.17093,580.8079 913.92493,580.86625 914.20043,582.55102 913.87853,584.24535 910.91233,584.27697 910.19393,584.73265 907.98903,585.77747 907.36663,586.84906 906.54163,586.78469 906.38083,587.17064 904.45323,586.39404 903.32713,586.95883 899.65593,587.36171 899.43533,587.74788 899.81993,589.01258 899.32113,591.6072 898.99053,591.9048 899.01773,593.03515 900.05523,593.78141 901.46273,592.78297 901.95353,593.46445 901.62663,594.68611 902.00093,594.90159 902.76873,595.30513 905.40913,597.37408 904.89863,598.97687 905.75513,600.41079 906.88993,600.52462 907.96543,602.01965 906.42893,603.18814 906.10283,604.37142 907.06313,606.80304 906.78573,608.00723 907.23993,608.75797 908.39833,609.35513 908.86953,611.00074 909.71543,611.22048 909.86133,611.63436 911.11633,611.80759 913.30473,613.09589 914.47813,612.75037 915.12723,612.18489 916.84373,611.71877 917.97323,610.35762 919.33803,609.42205 920.17953,609.30383 921.34033,609.81134 922.08013,610.44192 922.35553,610.78717 921.74653,611.93508 922.31323,615.41299 923.08883,615.1264 923.47163,615.32535 924.55603,616.66244 925.64703,617.35467 925.89733,618.1732 927.06123,617.92537 927.67803,617.40678 929.24013,617.45701 931.83353,621.67914 933.13353,621.83374 933.89133,621.39346 935.20433,621.38767 936.10273,619.88004 937.03573,621.30716 937.87613,621.17217 940.38843,622.70769 940.71573,622.98426 940.59023,623.83164 941.30523,624.18789 941.24133,623.31704 941.54753,623.00589 942.94233,622.07023 944.18933,621.90632 945.09633,620.41932 945.11983,619.55073 946.32273,619.28157 946.89703,619.38538 948.59623,619.45334 949.81683,619.08186 950.06743,619.88859 950.75943,620.31627 951.16643,620.22681 952.55433,621.14236 953.36033,621.15179 953.91023,617.69692 953.67963,612.8228 954.21733,612.71158 954.12613,612.29374 954.79193,611.76387 956.00663,612.04052 956.24973,611.68841 956.08603,610.10736 956.65803,610.47531 957.83393,609.67221 958.57413,609.25304 959.20793,609.8315 959.61713,609.69603 960.73383,608.38917 961.51023,608.01706 962.01443,606.84981 960.99633,604.03958 962.44763,602.50173 962.10253,601.71318 962.70303,601.6723 963.89393,600.07988 963.99803,599.65922 964.84323,599.48063 966.03333,598.26086 967.31613,598.34178 967.64473,598.05925 967.91673,596.40459 968.02673,595.31536 969.89823,594.2195 974.22363,594.36641 974.99683,594.71807 976.43083,593.74718 974.40713,593.04223 973.16253,593.26155 971.90063,593.01241 972.98983,591.18322 972.93363,590.75491 971.29303,590.43755 971.34533,588.75759 969.77343,588.57541 968.36073,586.57501 968.95033,585.55891 970.61393,584.43359 971.97943,583.55178 970.71023,581.7216 970.33633,580.45044 970.48313,579.63709 971.79373,578.01451 972.00713,576.76606 971.94493,576.72553 968.51903,577.19604 966.92503,577.69919 966.69833,578.05744 967.11723,578.7959 966.04663,578.69258 965.08713,575.8969 965.82893,574.9587 964.39153,574.2848 964.48433,573.47702 964.12963,573.32825 961.30283,574.11299 960.98923,575.3285 960.23043,575.72323 959.38593,575.8836 959.23763,575.47899 958.24893,572.80931 957.49663,572.40946 957.23313,571.16653 956.43733,570.94216 956.28523,570.54296 954.45683,570.8003 953.43023,570.14576 953.33073,569.32466 z">
      <title id="t479">Première circonscription de l'Yonne</title>
      <desc id="d479">Cantons de : Aillant-sur-Tholon, Auxerre Est, Auxerre Nord, Auxerre Nord-Ouest, Auxerre Sud, Auxerre Sud-Ouest, Bléneau, Charny, Coulanges-la-Vineuse, Courson-les-Carrières, Saint-Fargeau, Saint-Sauveur-en-Puisaye, Toucy, Communes de : Andryes, Etais-la-Sauvin (issues du canton de Coulanges-sur-Yonne) Monéteau (issue du canton de Seignelay)</desc>
    </path><path class="circo" id="089-02" d="M 1016.0452,598.76291 1017.922,600.36826 1016.167,602.60001 1015.8691,603.70482 1015.1632,603.89818 1014.9276,604.27039 1015.2025,607.67658 1013.9465,607.53362 1013.6334,607.82054 1012.68,610.13999 1012.767,611.50245 1011.5273,613.97867 1010.8134,613.63245 1010.1161,614.01444 1009.9011,614.80605 1009.2613,615.28417 1009.6683,616.28526 1008.8952,617.16245 1008.5645,617.92487 1006.6019,618.5188 1006.8217,619.27767 1006.4126,619.93565 1006.729,620.64465 1007.1806,621.28313 1006.7154,622.33073 1006.895,623.04211 1007.1066,623.16625 1007.5341,623.25956 1007.809,624.09107 1007.0096,627.47397 1006.6835,627.71478 1006.0475,627.21594 1005.6841,627.39416 1005.9522,628.15251 1005.2417,629.11772 1004.1166,627.93346 1003.7099,627.98222 1003.932,628.73308 1004.0015,630.40704 1003.0613,631.23099 1002.8172,632.03059 1002.4,632.03286 1002.6185,632.88146 1004.1628,633.69518 1003.4927,635.23671 1003.8618,636.01486 1005.1178,636.26841 1005.9348,635.92499 1005.8402,637.21186 1005.2014,638.28191 1005.9608,639.30461 1005.8756,640.5695 1005.0342,640.83554 1003.3979,640.38385 1002.5976,640.70045 1000.9437,640.53475 1000.2461,642.05211 999.86395,641.84506 999.56813,642.16523 999.02273,643.7859 998.61033,643.92055 996.92433,643.94399 995.80083,642.62946 995.36833,642.65906 994.55903,641.10321 993.79783,637.23207 994.42643,636.13474 993.50153,634.72989 992.65843,633.81874 991.96683,635.30362 991.58173,635.47861 989.10513,635.19867 987.29213,637.22893 985.92763,637.06691 985.08143,633.77793 986.61183,632.95719 987.79653,631.65329 987.52593,630.45717 986.83063,630.00942 986.65023,629.2009 986.27673,629.3268 985.33023,628.63306 984.21883,628.47497 984.25533,629.48223 983.41483,631.85714 983.13523,632.17867 982.28523,632.1945 981.76243,632.82671 982.33563,633.9428 982.24253,635.1998 981.02573,635.40982 979.87823,634.24527 978.63613,634.16152 978.30403,633.45284 978.43833,632.29648 977.69893,632.16699 977.52603,632.55884 974.66373,633.34422 973.44513,633.01182 972.61383,632.08724 972.41163,631.13452 971.48933,629.61868 969.99093,628.69036 969.25443,628.82883 969.09963,628.47221 969.60273,627.01031 969.43313,627.0587 969.18103,626.72271 967.58183,626.81322 965.76053,625.89984 965.29543,626.07269 964.47473,625.85345 964.15223,624.67376 963.31183,624.62648 962.27923,625.69392 961.82623,625.1699 961.43553,625.21793 960.82813,622.62342 960.79073,622.49286 961.19773,621.02158 961.15313,620.63044 960.77103,620.54048 958.78903,619.94635 957.87813,618.58299 956.57173,617.67905 955.56323,616.94946 955.23303,614.01859 954.21733,612.71158 954.12613,612.29374 954.79193,611.76387 956.00663,612.04052 956.24973,611.68841 956.08603,610.10736 956.65803,610.47531 957.83393,609.67221 958.57413,609.25304 959.20793,609.8315 959.61713,609.69603 960.73383,608.38917 961.51023,608.01706 962.01443,606.84981 960.99633,604.03958 962.44763,602.50173 962.10253,601.71318 962.70303,601.6723 963.89393,600.07988 963.99803,599.65922 964.84323,599.48063 966.03333,598.26086 967.31613,598.34178 967.64473,598.05925 967.91673,596.40459 968.02673,595.31536 969.89823,594.2195 974.22363,594.36641 974.99683,594.71807 976.43083,593.74718 974.40713,593.04223 973.16253,593.26155 971.90063,593.01241 972.98983,591.18322 972.93363,590.75491 971.29303,590.43755 971.34533,588.75759 969.77343,588.57541 968.36073,586.57501 968.95033,585.55891 970.61393,584.43359 971.97943,583.55178 970.71023,581.7216 970.33633,580.45044 970.48313,579.63709 971.79373,578.01451 972.00713,576.76606 971.94493,576.72553 968.51903,577.19604 966.92503,577.69919 966.69833,578.05744 967.11723,578.7959 966.04663,578.69258 965.08713,575.8969 965.82893,574.9587 964.39153,574.2848 964.48433,573.47702 964.12963,573.32825 961.30283,574.11299 960.98923,575.3285 960.23043,575.72323 959.38593,575.8836 959.23763,575.47899 958.24893,572.80931 957.49663,572.40946 957.23313,571.16653 956.43733,570.94216 956.28523,570.54296 954.45683,570.8003 953.43023,570.14576 953.33073,569.32466 953.65813,567.52121 953.55613,567.0925 952.24723,565.95539 951.16123,566.76638 950.88073,566.46561 950.54923,565.70216 950.90823,561.71258 948.84523,561.14676 949.25843,560.3743 949.18133,559.48366 951.04113,558.83713 949.49473,555.60567 949.61583,554.73153 950.24203,554.09457 950.41653,553.8977 950.87513,550.90883 951.23413,551.16263 951.60173,550.9199 951.90113,549.69375 951.21743,549.14037 950.47783,547.57588 951.37493,546.61135 952.94343,545.86505 956.36353,546.09996 957.41793,546.84101 957.99823,546.95374 959.02753,547.64331 959.73703,548.68654 964.01003,548.34195 963.17173,546.94102 964.19323,546.21614 964.29243,545.35691 964.90983,544.82124 964.62273,543.13388 966.15153,541.63608 966.03743,540.9064 967.55873,540.4329 967.81193,541.72661 968.64023,541.98675 969.41253,542.24548 972.25033,542.85011 972.34633,541.95963 973.52103,539.55457 973.87893,539.28504 974.74073,539.5212 974.81273,540.37584 975.85893,541.14327 977.21683,540.26478 979.99863,543.59128 980.33783,544.38175 979.85753,545.00451 979.73923,546.20799 982.09753,549.09 982.29263,551.05468 981.72593,551.58196 982.59053,552.55898 983.54643,552.66868 983.93743,553.42908 985.82833,555.09104 985.87673,556.79984 985.19873,556.36712 983.24163,556.66949 984.11003,559.23946 985.34063,559.34537 985.11073,560.1554 986.69573,559.52036 986.83533,557.42218 987.15203,557.12848 987.99493,557.18489 988.67373,558.2261 989.56193,560.26384 988.83853,562.3521 988.56123,564.99762 987.85043,566.13934 987.99173,566.23347 988.79793,566.49619 989.55163,566.09836 989.92943,566.30146 990.60613,565.47024 992.55813,565.78919 993.72223,565.35796 995.25883,566.02897 995.63613,565.98457 997.32863,564.48043 998.16643,566.0088 999.00143,566.2251 999.69395,565.75913 1000.7674,566.44354 1001.5241,566.04039 1002.0379,564.05685 1004.4911,564.27765 1004.7391,564.61912 1004.902,566.26112 1006.5226,566.28383 1007.2381,565.83956 1008.1301,565.07934 1008.9147,565.14772 1008.9101,564.28311 1011.0821,562.24179 1012.5203,563.02291 1012.6219,564.7606 1013.8923,564.54908 1014.3733,563.84721 1014.2471,562.10546 1013.4651,561.69595 1013.4614,561.25835 1014.0244,560.6464 1016.0648,560.72702 1015.89,563.70279 1017.7864,565.99827 1019.748,566.83919 1021.7997,566.59856 1022.8371,567.26754 1022.9356,568.53859 1023.4398,569.22385 1022.3644,569.71608 1020.7694,569.84401 1020.1382,570.32224 1019.5486,571.48115 1017.8841,572.87711 1019.336,573.46713 1019.1872,576.94958 1019.9299,577.414 1021.9148,576.61306 1024.4721,576.54618 1024.8026,577.24379 1024.1973,578.23776 1024.4752,579.8961 1024.0568,581.07523 1025.7841,582.5762 1024.6734,584.3353 1025.3728,585.81605 1024.9519,585.94202 1024.8697,586.37557 1024.9966,588.076 1023.889,588.7653 1023.1665,588.54721 1021.7669,591.01375 1020.267,590.13142 1018.9902,590.03119 1018.6453,591.75265 1017.3766,592.09649 1017.2038,592.91955 1018.41,593.36174 1018.7407,594.171 1019.4595,594.66464 1019.1146,595.89151 1021.004,597.35312 1020.1947,597.57988 1018.5525,597.24769 1018.1757,597.93048 1016.1207,597.9152 1016.0452,598.76291 z">
      <title id="t480">Deuxième circonscription de l'Yonne</title>
      <desc id="d480">Cantons de : Ancy-le-Franc, Avallon, Brienon-sur-Armançon, Chablis, Coulanges-sur-Yonne (moins les communes d'Andryes et d'Etais-la-Sauvin), Cruzy-le-Châtel, Flogny-la-Chapelle, Guillon, L'Isle-sur-Serein, Ligny-le-Châtel, Migennes, Noyers, Quarré-les-Tombes, Saint-Florentin, Seignelay (moins la commune de Monéteau), Tonnerre, Vermenton, Vézelay</desc>
    </path><path class="circo" id="089-03" d="M 959.73703,548.68654 959.02753,547.64331 957.99823,546.95374 957.41793,546.84101 956.36353,546.09996 952.94343,545.86505 951.37493,546.61135 950.47783,547.57588 951.21743,549.14037 951.90113,549.69375 951.60173,550.9199 951.23413,551.16263 950.87513,550.90883 950.41653,553.8977 950.24203,554.09457 949.61583,554.73153 949.49473,555.60567 951.04113,558.83713 949.18133,559.48366 949.25843,560.3743 948.84523,561.14676 950.90823,561.71258 950.54923,565.70216 950.88073,566.46561 950.45063,566.43225 950.09873,565.65839 948.89803,565.20977 948.12793,565.50247 947.05213,566.83361 945.93713,566.54477 944.64533,565.59864 943.47793,565.48572 943.30243,564.55314 941.98823,564.11878 940.57193,564.08972 939.18753,564.90957 938.51753,565.92316 937.02913,566.70739 936.51843,567.84577 935.66843,567.85071 934.85243,568.52007 934.19483,568.8546 933.77913,568.96277 932.08543,567.69053 930.41403,567.9802 930.28663,567.57689 929.60383,567.58653 929.32023,566.77069 928.10783,565.50501 928.03253,564.61988 928.42883,564.5591 928.59243,563.79327 927.97763,562.34233 927.58603,562.2522 925.93373,562.7089 925.50233,561.512 923.47883,561.18827 923.62493,559.02763 924.00233,558.24083 922.62343,558.27284 922.28943,558.32593 922.15143,557.67992 922.12783,555.97414 920.91443,555.48877 920.45363,554.74602 920.54093,554.31037 922.41833,553.20816 920.15363,552.13653 919.55143,551.03522 919.96193,550.30329 916.97943,548.93954 916.14583,547.96834 916.09573,545.94293 915.88153,545.26834 915.50243,545.29099 914.83923,542.45798 913.20583,542.4483 914.17393,540.53962 914.19703,540.10991 913.82113,539.90574 912.98023,538.9118 912.18603,538.73511 911.63063,539.29 910.80293,537.79055 910.00063,538.00638 908.76263,537.71564 907.77293,536.25074 906.44223,536.37436 906.30923,534.40757 908.06593,532.66154 909.38703,532.44859 909.44723,531.27242 910.91733,530.55715 911.61083,530.89796 912.36483,530.50536 912.94533,528.88818 914.63493,525.4887 915.89923,525.36641 915.57093,522.53905 913.96033,522.05336 914.38353,520.80428 913.56003,519.4051 914.19063,518.8604 913.18893,518.00702 915.30433,515.24423 915.04363,513.67607 916.05913,511.26697 917.52553,511.56261 918.70783,511.16437 919.40853,511.60137 920.25193,511.55864 920.32213,512.34468 920.64643,512.61213 921.60493,510.70636 922.26563,510.16643 923.74483,509.65883 924.16823,510.33647 926.08503,509.73368 926.45973,509.00914 927.23943,509.40815 927.57613,510.23079 928.32603,510.06918 929.23443,510.73335 930.08833,510.29937 931.10723,509.96029 933.19303,510.61821 934.99153,508.92608 935.79383,508.94732 935.92623,508.53446 938.26503,509.61865 938.36413,509.22067 938.77623,509.23846 939.91643,509.71973 940.46223,509.58397 941.29323,509.57603 941.74973,508.88846 942.16403,508.90983 942.14643,509.75364 942.79123,509.30999 942.99363,507.24171 943.76623,506.31934 944.59663,506.29681 945.87563,507.28677 947.11403,507.39685 947.04733,509.15477 948.11613,511.05422 948.54133,511.16245 950.11653,509.62645 951.84763,509.39369 951.87503,509.42261 952.22113,510.08543 953.99343,510.07456 954.73173,510.56844 957.11133,513.74896 958.19123,514.52605 958.08883,516.41294 959.80313,516.24778 959.72733,517.55946 961.79763,519.13601 961.14513,520.74744 961.37033,521.13411 964.14803,522.45042 964.87713,524.14172 964.94833,524.56151 963.00173,526.7619 962.85323,527.16161 963.25523,527.89499 963.91183,527.66466 964.69333,528.43996 963.66203,530.36276 960.74783,533.14313 962.34423,534.42375 964.85873,532.72695 966.30053,533.66892 967.16293,535.76365 967.92663,536.86052 968.62623,539.45509 970.59873,538.66517 970.88263,537.43749 971.40693,538.63791 971.84423,538.69218 973.10113,537.46769 973.13303,536.60464 972.58133,535.40117 972.76343,534.99903 975.22323,535.84649 975.99343,537.81476 974.74073,539.5212 973.87893,539.28504 973.52103,539.55457 972.34633,541.95963 972.25033,542.85011 969.41253,542.24548 968.64023,541.98675 967.81193,541.72661 967.55873,540.4329 966.03743,540.9064 966.15153,541.63608 964.62273,543.13388 964.90983,544.82124 964.29243,545.35691 964.19323,546.21614 963.17173,546.94102 964.01003,548.34195 959.73703,548.68654 z">
      <title id="t481">Troisième circonscription de l'Yonne</title>
      <desc id="d481">Cantons de : Cerisiers, Chéroy, Joigny, Pont-sur-Yonne, Saint-Julien-du-Sault, Sens Nord-Est, Sens Ouest, Sens Sud-Est, Sergines, Villeneuve-l'Archevêque, Villeneuve-sur-Yonne</desc>
    </path></svg>