<svg xmlns="http://www.w3.org/2000/svg" version="1.1" xmlns:xlink="http://www.w3.org/1999/xlink" xmlns:svgjs="http://svgjs.dev/svgjs" viewBox="0 0 126.79357000000005 137.64718"><path class="circo" id="id-089-01" d="M54.34019999999998 63.02785L54.66759999999999 61.2244L54.56560000000002 60.79568999999998L53.25669999999991 59.65857999999997L52.17070000000001 60.46957000000003L51.890199999999936 60.168799999999976L51.46010000000001 60.13543999999996L51.10820000000001 59.36158000000006L49.907499999999914 58.912960000000055L49.13739999999996 59.20566000000002L48.0616 60.53680000000003L46.94659999999999 60.24795999999998L45.65479999999991 59.30183000000005L44.48739999999998 59.18891000000002L44.31189999999992 58.25632999999999L42.99770000000001 57.82197000000002L41.58139999999992 57.79291000000006L40.197 58.61276000000004L39.52699999999993 59.62635000000006L38.038599999999974 60.41058000000004L37.52789999999993 61.54896000000002L36.67789999999991 61.553900000000056L35.86189999999999 62.22326000000004L35.20429999999999 62.55779000000001L34.788599999999974 62.665959999999984L33.09489999999994 61.39371999999997L31.42349999999999 61.683389999999974L31.29609999999991 61.280080000000055L30.61329999999998 61.289720000000045L30.329700000000003 60.47387999999995L29.1173 59.20819999999998L29.041999999999916 58.32306999999997L29.438299999999913 58.26228999999995L29.6019 57.49646000000001L28.98709999999994 56.045519999999954L28.595500000000015 55.95539000000002L26.943199999999933 56.41208999999998L26.511799999999994 55.21518999999995L24.48829999999998 54.891459999999995L24.634399999999914 52.73082000000005L25.011799999999994 51.944019999999966L23.63289999999995 51.97602999999998L23.319499999999948 52.74695000000003L23.787799999999947 53.468890000000044L23.75559999999996 54.35783999999995L22.50649999999996 55.52126000000004L21.813499999999976 57.60370000000006L21.038099999999986 57.57755000000003L20.40339999999992 58.08045999999996L20.00019999999995 58.17600999999996L19.55849999999998 59.337860000000035L18.408500000000004 59.68738000000002L17.20920000000001 60.83146000000005L16.966000000000008 62.12118000000004L15.471799999999917 62.56437999999997L13.869699999999966 62.94619000000006L14.176699999999983 63.74840999999998L13.479399999999941 64.15448999999995L13.84190000000001 66.71438000000006L12.432000000000016 67.69630999999998L14.845500000000015 68.49820000000005L15.740299999999934 70.67024999999995L15.471699999999942 71.48051000000004L14.044499999999971 72.19469999999995L14.054499999999962 73.05617999999998L14.514499999999998 73.76272L14.180399999999963 74.51109000000002L14.934399999999982 74.56944000000004L15.209899999999948 76.25421L14.88799999999992 77.94854000000004L11.921799999999962 77.98016000000001L11.203399999999988 78.43584000000004L8.998499999999922 79.48066L8.376099999999951 80.55225000000002L7.5511000000000195 80.48787999999996L7.390299999999911 80.87383000000005L5.462699999999927 80.09723000000002L4.336599999999976 80.66202000000004L0.6653999999999769 81.06490000000002L0.44479999999998654 81.45107000000002L0.8293999999999642 82.71576999999996L0.330600000000004 85.31039000000004L0 85.60799000000003L0.02719999999999345 86.73834000000005L1.0647000000000162 87.48460000000006L2.47219999999993 86.48615999999998L2.9629999999999654 87.16764000000006L2.636099999999942 88.38929999999999L3.010400000000004 88.60478000000006L3.77819999999997 89.00831999999997L6.418599999999969 91.07727000000006L5.90809999999999 92.68005999999997L6.764599999999973 94.11398000000003L7.899400000000014 94.22781000000003L8.974899999999934 95.72283999999996L7.4384000000000015 96.89132999999998L7.112300000000005 98.07460999999995L8.072599999999966 100.50623000000002L7.795199999999909 101.71042000000006L8.249399999999923 102.46116L9.407799999999952 103.05832000000004L9.879000000000019 104.70392999999996L10.724899999999934 104.92366999999996L10.870799999999917 105.33755000000002L12.125799999999913 105.51078000000001L14.314199999999914 106.79908000000006L15.48759999999993 106.45355999999998L16.13670000000002 105.88808L17.853200000000015 105.42195999999996L18.98269999999991 104.06081L20.347499999999968 103.12524000000002L21.188999999999965 103.00701999999995L22.34979999999996 103.51452999999998L23.08960000000002 104.14510999999999L23.36500000000001 104.49035999999995L22.755999999999972 105.63826999999998L23.32269999999994 109.11618000000004L24.098299999999995 108.82959L24.48109999999997 109.02853999999996L25.56549999999993 110.36562999999995L26.656499999999937 111.05786000000006L26.906799999999976 111.87638999999996L28.070699999999988 111.62856000000005L28.6875 111.10997000000003L30.249599999999987 111.16019999999997L32.84299999999996 115.38232999999997L34.142999999999915 115.53693000000004L34.900800000000004 115.09665000000001L36.21379999999999 115.09085999999996L37.112199999999916 113.58323000000001L38.04519999999991 115.01034999999996L38.885599999999954 114.87536000000006L41.397899999999936 116.41087999999996L41.72519999999997 116.68744999999996L41.599699999999984 117.53483L42.314700000000016 117.89108000000004L42.25079999999991 117.02023000000003L42.557000000000016 116.70908000000003L43.951799999999935 115.77342000000004L45.198800000000006 115.60951000000006L46.10579999999993 114.12250999999998L46.129299999999944 113.25392000000005L47.33219999999994 112.98476L47.90649999999994 113.08857000000006L49.605699999999956 113.15653000000003L50.82629999999995 112.78505000000001L51.07689999999991 113.59178000000003L51.76889999999992 114.01946000000004L52.175899999999956 113.93L53.563800000000015 114.84555000000006L54.36979999999994 114.85498000000001L54.91969999999992 111.40010999999998L54.68909999999994 106.52599000000004L55.22679999999991 106.41477000000003L55.135599999999954 105.99692999999996L55.801399999999944 105.46706L57.01609999999994 105.74371000000002L57.259199999999964 105.39159999999998L57.095500000000015 103.81054999999998L57.66750000000002 104.17850000000004L58.843399999999974 103.37539999999996L59.58359999999993 102.95623000000006L60.2174 103.53469000000001L60.62659999999994 103.39921999999996L61.74329999999998 102.09236000000004L62.51969999999994 101.72025000000002L63.02389999999991 100.55300000000005L62.00579999999991 97.74277000000001L63.45709999999997 96.20491999999996L63.111999999999966 95.41636999999997L63.71249999999998 95.37548999999996L64.90339999999992 93.78307000000001L65.00749999999994 93.36241000000001L65.85269999999991 93.18382000000003L67.04279999999994 91.96404999999999L68.32560000000001 92.04496999999998L68.65419999999995 91.76244000000003L68.9262 90.10777999999999L69.03620000000001 89.01855000000006L70.90769999999998 87.92269000000005L75.23309999999992 88.06959999999998L76.00630000000001 88.42126000000002L77.44029999999998 87.45036999999996L75.41660000000002 86.74542000000002L74.17199999999991 86.96474000000006L72.91009999999994 86.71560000000005L73.99929999999995 84.88641000000001L73.94309999999996 84.4581L72.30250000000001 84.14074L72.35479999999995 82.46078000000006L70.78289999999993 82.27860000000004L69.37019999999995 80.27820000000003L69.95979999999997 79.26209999999998L71.62339999999995 78.13677999999999L72.98889999999994 77.25497000000001L71.71969999999999 75.42478999999997L71.34579999999994 74.15362999999996L71.49259999999992 73.34027999999995L72.80319999999995 71.71769999999998L73.01659999999993 70.46925000000005L72.95439999999996 70.42872000000006L69.52850000000001 70.89923000000005L67.93449999999996 71.40238000000005L67.70780000000002 71.76063000000005L68.12669999999991 72.49908999999997L67.05610000000001 72.39577000000003L66.09659999999997 69.60008999999997L66.83839999999998 68.66189000000003L65.40099999999995 67.98799000000002L65.49379999999996 67.18021000000005L65.13909999999998 67.03144000000003L62.31229999999994 67.81617999999997L61.998699999999985 69.03168999999997L61.23989999999992 69.42641999999995L60.395399999999995 69.58679000000001L60.24709999999993 69.18217999999996L59.25839999999994 66.51249999999999L58.50609999999995 66.11264999999997L58.242599999999925 64.86971999999997L57.44679999999994 64.64534999999995L57.29469999999992 64.24615L55.46629999999993 64.50349L54.439700000000016 63.84895L54.34019999999998 63.02785z">
      <title id="t479">Première circonscription de l'Yonne</title>
      <desc id="d479">Cantons de : Aillant-sur-Tholon, Auxerre Est, Auxerre Nord, Auxerre Nord-Ouest, Auxerre Sud, Auxerre Sud-Ouest, Bléneau, Charny, Coulanges-la-Vineuse, Courson-les-Carrières, Saint-Fargeau, Saint-Sauveur-en-Puisaye, Toucy, Communes de : Andryes, Etais-la-Sauvin (issues du canton de Coulanges-sur-Yonne) Monéteau (issue du canton de Seignelay)</desc>
    </path><path class="circo" id="id-089-02" d="M117.05466999999999 92.46610000000004L118.93146999999999 94.07144999999997L117.17647 96.3032L116.87856999999997 97.40801000000005L116.17266999999993 97.60137000000003L115.93706999999995 97.97358000000003L116.21196999999995 101.37976999999995L114.95596999999998 101.23681000000005L114.64287000000002 101.52373000000006L113.68946999999991 103.84318000000002L113.77647000000002 105.20563999999996L112.53676999999993 107.68185999999997L111.82286999999997 107.33563999999996L111.12556999999993 107.71763000000004L110.91057 108.50924000000003L110.27076999999997 108.98736000000002L110.67777000000001 109.98845L109.90467000000001 110.86564000000004L109.57396999999992 111.62806000000006L107.61136999999997 112.22199000000006L107.83116999999993 112.98085999999995L107.42206999999996 113.63884000000002L107.73847 114.34783999999996L108.19006999999999 114.98632000000003L107.72487000000001 116.03392000000002L107.90446999999995 116.74529999999999L108.11606999999992 116.86944L108.54356999999993 116.96274999999997L108.81846999999993 117.79425999999995L108.01906999999994 121.17716000000001L107.69296999999995 121.41797000000003L107.05696999999998 120.91913000000005L106.69356999999991 121.09735000000006L106.96166999999991 121.85570000000001L106.25117 122.82090999999997L105.12606999999991 121.63664999999997L104.71936999999991 121.68540999999999L104.94146999999998 122.43626999999998L105.01096999999993 124.11023000000006L104.07076999999992 124.93418000000003L103.82666999999992 125.73377999999997L103.40946999999994 125.73605000000003L103.62797 126.58464999999995L105.17226999999991 127.39837000000006L104.50216999999998 128.93990000000002L104.87126999999998 129.71805L106.12726999999995 129.97160000000002L106.94426999999996 129.62818L106.84966999999995 130.91505L106.21087 131.98510000000005L106.97026999999991 133.00780000000003L106.88506999999993 134.27268999999995L106.04367000000002 134.53873000000004L104.40737000000001 134.08704000000006L103.60707000000002 134.40364000000005L101.95317 134.23794000000004L101.25556999999992 135.75529999999998L100.87342000000001 135.54825L100.57759999999996 135.86841999999996L100.03219999999999 137.48908999999998L99.61979999999994 137.62374000000005L97.93380000000002 137.64718L96.81029999999998 136.33265L96.37779999999998 136.36224999999996L95.56849999999997 134.8064L94.80729999999994 130.93526000000003L95.43589999999995 129.83792999999997L94.51099999999997 128.43307999999996L93.66789999999992 127.52193000000005L92.97629999999992 129.00681000000003L92.59119999999996 129.1818L90.1146 128.90186L88.30160000000001 130.93212L86.93709999999999 130.7701L86.09089999999992 127.48111999999998L87.62130000000002 126.66037999999998L88.80599999999993 125.35647999999998L88.53539999999998 124.16036000000003L87.8401 123.71260999999998L87.65969999999993 122.90409000000005L87.28620000000001 123.02999000000005L86.3397 122.33625L85.22829999999999 122.17815999999999L85.26479999999992 123.18541999999997L84.42430000000002 125.56032999999996L84.14469999999994 125.88186000000002L83.29469999999992 125.89768999999995L82.77189999999996 126.52990000000005L83.3451 127.64599000000004L83.25199999999995 128.90299L82.03519999999992 129.11300999999997L80.8877 127.94846000000001L79.64559999999994 127.86471L79.31349999999998 127.15603000000004L79.44779999999992 125.99966999999998L78.70839999999998 125.87018000000006L78.53549999999996 126.26203000000004L75.67319999999995 127.04740999999996L74.45459999999991 126.71500999999995L73.62329999999997 125.79042999999996L73.42109999999991 124.83770999999996L72.49879999999996 123.32187000000005L71.00040000000001 122.39355000000006L70.26389999999992 122.53202000000005L70.10910000000001 122.17540000000002L70.61219999999992 120.71350000000001L70.44259999999997 120.76189000000005L70.19049999999993 120.42590000000001L68.59129999999993 120.51641000000001L66.76999999999998 119.60303000000005L66.30489999999998 119.77587999999997L65.48419999999999 119.55663999999996L65.1617 118.37695000000002L64.32129999999995 118.32967000000002L63.28869999999995 119.39711000000005L62.835699999999974 118.87308999999999L62.444999999999936 118.92112000000003L61.83759999999995 116.32661000000002L61.80020000000002 116.19604999999996L62.20719999999994 114.72476999999998L62.1626 114.33363000000003L61.78049999999996 114.24367000000001L59.79849999999999 113.64954000000006L58.88760000000002 112.28618L57.58119999999997 111.38223999999997L56.57269999999994 110.65265000000005L56.24249999999995 107.72178000000002L55.22679999999991 106.41477000000003L55.135599999999954 105.99692999999996L55.801399999999944 105.46706L57.01609999999994 105.74371000000002L57.259199999999964 105.39159999999998L57.095500000000015 103.81054999999998L57.66750000000002 104.17850000000004L58.843399999999974 103.37539999999996L59.58359999999993 102.95623000000006L60.2174 103.53469000000001L60.62659999999994 103.39921999999996L61.74329999999998 102.09236000000004L62.51969999999994 101.72025000000002L63.02389999999991 100.55300000000005L62.00579999999991 97.74277000000001L63.45709999999997 96.20491999999996L63.111999999999966 95.41636999999997L63.71249999999998 95.37548999999996L64.90339999999992 93.78307000000001L65.00749999999994 93.36241000000001L65.85269999999991 93.18382000000003L67.04279999999994 91.96404999999999L68.32560000000001 92.04496999999998L68.65419999999995 91.76244000000003L68.9262 90.10777999999999L69.03620000000001 89.01855000000006L70.90769999999998 87.92269000000005L75.23309999999992 88.06959999999998L76.00630000000001 88.42126000000002L77.44029999999998 87.45036999999996L75.41660000000002 86.74542000000002L74.17199999999991 86.96474000000006L72.91009999999994 86.71560000000005L73.99929999999995 84.88641000000001L73.94309999999996 84.4581L72.30250000000001 84.14074L72.35479999999995 82.46078000000006L70.78289999999993 82.27860000000004L69.37019999999995 80.27820000000003L69.95979999999997 79.26209999999998L71.62339999999995 78.13677999999999L72.98889999999994 77.25497000000001L71.71969999999999 75.42478999999997L71.34579999999994 74.15362999999996L71.49259999999992 73.34027999999995L72.80319999999995 71.71769999999998L73.01659999999993 70.46925000000005L72.95439999999996 70.42872000000006L69.52850000000001 70.89923000000005L67.93449999999996 71.40238000000005L67.70780000000002 71.76063000000005L68.12669999999991 72.49908999999997L67.05610000000001 72.39577000000003L66.09659999999997 69.60008999999997L66.83839999999998 68.66189000000003L65.40099999999995 67.98799000000002L65.49379999999996 67.18021000000005L65.13909999999998 67.03144000000003L62.31229999999994 67.81617999999997L61.998699999999985 69.03168999999997L61.23989999999992 69.42641999999995L60.395399999999995 69.58679000000001L60.24709999999993 69.18217999999996L59.25839999999994 66.51249999999999L58.50609999999995 66.11264999999997L58.242599999999925 64.86971999999997L57.44679999999994 64.64534999999995L57.29469999999992 64.24615L55.46629999999993 64.50349L54.439700000000016 63.84895L54.34019999999998 63.02785L54.66759999999999 61.2244L54.56560000000002 60.79568999999998L53.25669999999991 59.65857999999997L52.17070000000001 60.46957000000003L51.890199999999936 60.168799999999976L51.55869999999993 59.405350000000055L51.91769999999997 55.41577000000001L49.85469999999998 54.84994999999998L50.26789999999994 54.077489999999955L50.19079999999997 53.18684999999999L52.05059999999992 52.54032000000001L50.50419999999997 49.30886000000004L50.625299999999925 48.43472000000003L51.251499999999965 47.79775999999998L51.42599999999993 47.60088999999999L51.88459999999998 44.61201999999997L52.243600000000015 44.86582000000004L52.61119999999994 44.62308999999999L52.91059999999993 43.39694000000003L52.2269 42.84355999999997L51.487300000000005 41.27906999999999L52.384399999999914 40.31454000000002L53.9529 39.56824L57.372999999999934 39.80315000000002L58.42739999999992 40.54419999999999L59.0077 40.656930000000045L60.03699999999992 41.34650000000005L60.74649999999997 42.38973000000004L65.0195 42.04514L64.18119999999999 40.64420999999999L65.20269999999994 39.91933L65.30189999999993 39.06009999999998L65.91930000000002 38.524429999999995L65.63220000000001 36.83706999999998L67.16099999999994 35.33927L67.04689999999994 34.60958999999997L68.56819999999993 34.136090000000024L68.82139999999993 35.42980000000006L69.64969999999994 35.689940000000036L70.42199999999991 35.94867000000005L73.25979999999993 36.55329999999998L73.35579999999993 35.662819999999954L74.53049999999996 33.25776000000002L74.88839999999993 32.98822999999999L75.75019999999995 33.22439000000003L75.82219999999995 34.079030000000046L76.86839999999995 34.846460000000036L78.22629999999992 33.96796999999998L81.00810000000001 37.29446999999999L81.34730000000002 38.08494000000002L80.86699999999996 38.70769999999999L80.74869999999999 39.91118L83.10699999999997 42.79319000000004L83.3021 44.75786999999997L82.73539999999991 45.28514999999999L83.59999999999991 46.262170000000026L84.55589999999995 46.37187L84.94689999999991 47.132270000000005L86.83780000000002 48.79423000000003L86.88619999999992 50.503030000000024L86.20819999999992 50.070310000000006L84.25109999999995 50.37268L85.11950000000002 52.942650000000015L86.3501 53.04856000000001L86.12019999999995 53.85858999999999L87.70519999999999 53.22354999999999L87.84479999999996 51.12537000000003L88.16149999999993 50.831669999999974L89.00439999999992 50.88808L89.68319999999994 51.92928999999998L90.57139999999993 53.967029999999966L89.84799999999996 56.05528999999996L89.57069999999999 58.70080999999999L88.85989999999993 59.842529999999954L89.00119999999993 59.93666000000002L89.80739999999992 60.19937999999996L90.56110000000001 59.80154999999996L90.93889999999999 60.00465000000003L91.61559999999997 59.173429999999996L93.56759999999997 59.49237999999997L94.73169999999993 59.061150000000055L96.26829999999995 59.732159999999965L96.64559999999994 59.68775999999997L98.33809999999994 58.18361999999996L99.17589999999996 59.71198999999996L100.01089999999999 59.928290000000004L100.70341999999994 59.462320000000034L101.77686999999992 60.14672999999999L102.53356999999994 59.74358000000001L103.04737 57.76004000000006L105.50056999999993 57.98084L105.74856999999997 58.32230999999996L105.91147000000001 59.96431000000001L107.53206999999998 59.98701999999997L108.24757 59.54275000000001L109.13956999999994 58.78253000000001L109.92417 58.850910000000056L109.91957000000002 57.98629999999997L112.09156999999993 55.944980000000044L113.52976999999998 56.72610000000003L113.63136999999995 58.46378999999996L114.90176999999994 58.25227000000001L115.38276999999994 57.550400000000025L115.25657000000001 55.80865L114.47456999999997 55.399140000000045L114.47086999999999 54.96153999999996L115.03386999999998 54.34958999999998L117.07426999999996 54.430210000000045L116.89946999999995 57.405980000000056L118.79586999999992 59.701460000000054L120.75747000000001 60.54238000000004L122.80917 60.30175000000003L123.84656999999993 60.97073000000006L123.94506999999999 62.241780000000006L124.44926999999996 62.92703999999998L123.37387000000001 63.41927000000004L121.77886999999998 63.54720000000003L121.14766999999995 64.02542999999997L120.55806999999993 65.18433999999996L118.89356999999995 66.58030000000002L120.34546999999998 67.17032L120.19666999999993 70.65276999999998L120.93936999999994 71.11719L122.92426999999998 70.31625000000003L125.48156999999992 70.24937000000006L125.81206999999995 70.94698L125.20677 71.94094999999999L125.48467000000005 73.59929000000005L125.06627000000003 74.77842000000004L126.79357000000005 76.27938999999998L125.68286999999987 78.03848999999997L126.38227000000006 79.51924000000002L125.96136999999999 79.64520999999996L125.87916999999993 80.07876000000005L126.00606999999991 81.77919000000003L124.89846999999997 82.46849000000003L124.17597 82.25039999999996L122.77636999999993 84.71693999999997L121.27647000000002 83.83461000000005L119.99966999999992 83.73438000000004L119.65476999999998 85.45584000000002L118.38607000000002 85.79968000000002L118.21326999999997 86.62273999999996L119.41946999999993 87.06493000000006L119.75016999999991 87.87419000000006L120.46897000000001 88.36782999999997L120.12406999999996 89.59470000000005L122.01346999999998 91.05631L121.20416999999998 91.28307000000001L119.56196999999997 90.95088000000004L119.18516999999997 91.63367L117.13017000000002 91.61839000000003L117.05466999999999 92.46610000000004z">
      <title id="t480">Deuxième circonscription de l'Yonne</title>
      <desc id="d480">Cantons de : Ancy-le-Franc, Avallon, Brienon-sur-Armançon, Chablis, Coulanges-sur-Yonne (moins les communes d'Andryes et d'Etais-la-Sauvin), Cruzy-le-Châtel, Flogny-la-Chapelle, Guillon, L'Isle-sur-Serein, Ligny-le-Châtel, Migennes, Noyers, Quarré-les-Tombes, Saint-Florentin, Seignelay (moins la commune de Monéteau), Tonnerre, Vermenton, Vézelay</desc>
    </path><path class="circo" id="id-089-03" d="M60.74649999999997 42.38973000000004L60.03699999999992 41.34650000000005L59.0077 40.656930000000045L58.42739999999992 40.54419999999999L57.372999999999934 39.80315000000002L53.9529 39.56824L52.384399999999914 40.31454000000002L51.487300000000005 41.27906999999999L52.2269 42.84355999999997L52.91059999999993 43.39694000000003L52.61119999999994 44.62308999999999L52.243600000000015 44.86582000000004L51.88459999999998 44.61201999999997L51.42599999999993 47.60088999999999L51.251499999999965 47.79775999999998L50.625299999999925 48.43472000000003L50.50419999999997 49.30886000000004L52.05059999999992 52.54032000000001L50.19079999999997 53.18684999999999L50.26789999999994 54.077489999999955L49.85469999999998 54.84994999999998L51.91769999999997 55.41577000000001L51.55869999999993 59.405350000000055L51.890199999999936 60.168799999999976L51.46010000000001 60.13543999999996L51.10820000000001 59.36158000000006L49.907499999999914 58.912960000000055L49.13739999999996 59.20566000000002L48.0616 60.53680000000003L46.94659999999999 60.24795999999998L45.65479999999991 59.30183000000005L44.48739999999998 59.18891000000002L44.31189999999992 58.25632999999999L42.99770000000001 57.82197000000002L41.58139999999992 57.79291000000006L40.197 58.61276000000004L39.52699999999993 59.62635000000006L38.038599999999974 60.41058000000004L37.52789999999993 61.54896000000002L36.67789999999991 61.553900000000056L35.86189999999999 62.22326000000004L35.20429999999999 62.55779000000001L34.788599999999974 62.665959999999984L33.09489999999994 61.39371999999997L31.42349999999999 61.683389999999974L31.29609999999991 61.280080000000055L30.61329999999998 61.289720000000045L30.329700000000003 60.47387999999995L29.1173 59.20819999999998L29.041999999999916 58.32306999999997L29.438299999999913 58.26228999999995L29.6019 57.49646000000001L28.98709999999994 56.045519999999954L28.595500000000015 55.95539000000002L26.943199999999933 56.41208999999998L26.511799999999994 55.21518999999995L24.48829999999998 54.891459999999995L24.634399999999914 52.73082000000005L25.011799999999994 51.944019999999966L23.63289999999995 51.97602999999998L23.298900000000003 52.02911999999998L23.16089999999997 51.383110000000045L23.137299999999982 49.67733000000004L21.923900000000003 49.19196000000005L21.46309999999994 48.44921000000005L21.550399999999968 48.01356000000004L23.427799999999934 46.91135000000003L21.163099999999986 45.83972L20.560899999999947 44.73840999999999L20.971400000000017 44.006479999999954L17.988899999999944 42.64272999999997L17.15530000000001 41.67153000000002L17.105199999999968 39.64612000000005L16.890999999999963 38.97152999999997L16.51189999999997 38.99417999999997L15.848700000000008 36.16117000000003L14.215299999999957 36.151490000000024L15.183400000000006 34.24281000000002L15.206500000000005 33.81310000000002L14.830600000000004 33.60893000000004L13.98969999999997 32.61498999999998L13.195499999999925 32.43829999999997L12.640099999999961 32.99318999999997L11.812399999999911 31.49374000000006L11.010099999999966 31.709570000000042L9.77209999999991 31.418830000000014L8.782399999999939 29.953929999999957L7.45169999999996 30.07755000000003L7.318699999999922 28.11075999999997L9.075399999999945 26.364729999999952L10.396499999999946 26.151779999999974L10.456699999999955 24.975610000000017L11.926799999999957 24.260339999999985L12.62029999999993 24.60115000000002L13.374299999999948 24.208550000000002L13.954799999999977 22.59137000000004L15.644400000000019 19.19189L16.908699999999953 19.06959999999998L16.58039999999994 16.24223999999998L14.969799999999964 15.756550000000004L15.392999999999915 14.507469999999955L14.569499999999948 13.108289999999954L15.20010000000002 12.563590000000033L14.198399999999992 11.710210000000018L16.313800000000015 8.947420000000022L16.053099999999972 7.379259999999988L17.068599999999947 4.970160000000021L18.534999999999968 5.265800000000013L19.71729999999991 4.867560000000026L20.418000000000006 5.304559999999981L21.26139999999998 5.261830000000032L21.33159999999998 6.047870000000046L21.655899999999974 6.315319999999986L22.614399999999932 4.409550000000024L23.275099999999952 3.8696199999999976L24.754299999999944 3.3620200000000295L25.17769999999996 4.039660000000026L27.094499999999925 3.436869999999999L27.4692 2.7123300000000086L28.248899999999935 3.1113399999999842L28.5856 3.9339800000000196L29.33549999999991 3.7723700000000235L30.24389999999994 4.4365399999999795L31.097800000000007 4.002560000000017L32.11669999999992 3.6634799999999927L34.202499999999986 4.321399999999983L36.000999999999976 2.6292700000000195L36.80329999999992 2.650509999999997L36.9357 2.2376500000000306L39.27449999999999 3.321840000000009L39.37360000000001 2.9238599999999906L39.78570000000002 2.9416499999999814L40.925899999999956 3.4229200000000333L41.47169999999994 3.2871600000000285L42.30269999999996 3.2792200000000093L42.759199999999964 2.5916500000000156L43.17349999999999 2.613020000000006L43.155899999999974 3.456830000000025L43.800700000000006 3.013180000000034L44.00310000000002 0.9449000000000183L44.775699999999915 0.02253000000001748L45.60609999999997 0L46.885099999999966 0.9899599999999964L48.12349999999992 1.1000399999999786L48.05679999999995 2.8579599999999914L49.12559999999996 4.757409999999993L49.55079999999998 4.865639999999985L51.125999999999976 3.3296399999999835L52.857099999999946 3.0968799999999987L52.8845 3.1258000000000266L53.23059999999998 3.7886199999999803L55.002899999999954 3.777750000000026L55.741199999999935 4.271630000000016L58.12079999999992 7.452150000000017L59.20069999999998 8.229240000000061L59.098299999999995 10.116130000000055L60.812599999999975 9.95097000000004L60.73680000000002 11.262649999999951L62.80709999999999 12.839200000000062L62.15459999999996 14.45062999999999L62.37979999999993 14.83729999999997L65.15749999999991 16.153610000000015L65.88659999999993 17.84490999999997L65.95780000000002 18.264700000000005L64.01119999999992 20.465089999999975L63.86270000000002 20.864800000000002L64.26469999999995 21.598180000000013L64.92129999999997 21.367850000000033L65.70279999999991 22.14315000000005L64.67149999999992 24.065949999999987L61.75729999999999 26.84632000000005L63.3537 28.126940000000047L65.8682 26.430139999999994L67.30999999999995 27.372109999999964L68.17239999999993 29.46683999999999L68.93610000000001 30.563709999999958L69.63569999999993 33.15828000000005L71.60820000000001 32.368359999999996L71.89209999999991 31.14068000000003L72.41639999999995 32.34110000000004L72.8537 32.395370000000014L74.11059999999998 31.170879999999954L74.14249999999993 30.307830000000024L73.59079999999994 29.104359999999986L73.77289999999994 28.702219999999954L76.23269999999991 29.549680000000023L77.00289999999995 31.517949999999985L75.75019999999995 33.22439000000003L74.88839999999993 32.98822999999999L74.53049999999996 33.25776000000002L73.35579999999993 35.662819999999954L73.25979999999993 36.55329999999998L70.42199999999991 35.94867000000005L69.64969999999994 35.689940000000036L68.82139999999993 35.42980000000006L68.56819999999993 34.136090000000024L67.04689999999994 34.60958999999997L67.16099999999994 35.33927L65.63220000000001 36.83706999999998L65.91930000000002 38.524429999999995L65.30189999999993 39.06009999999998L65.20269999999994 39.91933L64.18119999999999 40.64420999999999L65.0195 42.04514L60.74649999999997 42.38973000000004z">
      <title id="t481">Troisième circonscription de l'Yonne</title>
      <desc id="d481">Cantons de : Cerisiers, Chéroy, Joigny, Pont-sur-Yonne, Saint-Julien-du-Sault, Sens Nord-Est, Sens Ouest, Sens Sud-Est, Sergines, Villeneuve-l'Archevêque, Villeneuve-sur-Yonne</desc>
    </path></svg>