<svg xmlns="http://www.w3.org/2000/svg" version="1.1" xmlns:xlink="http://www.w3.org/1999/xlink" xmlns:svgjs="http://svgjs.dev/svgjs" viewBox="1231.2638 579.38464 32.686300000000074 49.327710000000025"><path class="circo" id="id-090-01" d="M 1254.9454,620.5016 1253.9387,619.84556 1250.4113,621.0982 1250.8945,622.18847 1250.8872,623.76725 1251.1878,623.92306 1251.165,624.59957 1251.8682,624.85972 1251.7129,626.45748 1251.0026,626.90296 1249.3391,627.03406 1248.6836,628.50865 1246.6952,628.71235 1246.2819,628.10035 1246.3358,627.03833 1246.1118,625.93152 1245.0108,624.37513 1243.9891,623.78599 1244.7003,623.11292 1244.0118,621.06071 1245.3184,620.35578 1246.0201,620.65849 1246.3252,621.82116 1246.9921,622.27287 1247.2217,621.97488 1247.5406,622.17463 1247.1741,620.59496 1247.5101,619.45736 1247.1907,618.69726 1246.5593,618.18352 1246.307,618.14022 1245.5173,617.9182 1244.0351,616.96973 1244.7188,616.54762 1243.9623,615.05412 1243.697,614.28621 1242.5001,614.07262 1241.9601,613.41027 1241.1768,612.02642 1242.0459,610.18662 1241.4807,609.6828 1240.8252,610.07421 1240.0641,610.00957 1239.8828,609.68721 1239.9066,609.19998 1240.2338,608.73667 1239.0181,607.35259 1238.2653,607.41348 1238.161,606.87894 1238.2534,606.74819 1238.8817,605.03354 1239.5045,604.74641 1239.4453,603.67942 1239.3146,603.25382 1238.7908,601.71796 1239.6688,601.38961 1239.1264,600.09314 1241.3063,601.40101 1242.8669,600.87885 1243.0326,600.43893 1243.0422,600.03685 1244.1325,599.58816 1245.3765,600.22906 1245.7102,599.74303 1245.6248,596.34259 1246.3052,596.05341 1248.0332,596.05252 1248.2795,596.52809 1249.1041,596.39436 1250.0203,595.88633 1251.9165,594.5814 1254.2082,594.4854 1255.1506,596.1 1254.9543,596.14572 1255.1491,596.68606 1255.7536,597.2679 1255.0643,598.30202 1255.4063,598.64728 1255.7142,598.90429 1254.8603,600.25733 1255.2009,601.42587 1253.5486,601.39004 1253.2733,602.1004 1253.0292,604.05257 1252.7598,603.97966 1252.4311,604.44836 1252.2946,605.31086 1252.7163,607.18467 1252.6482,607.85848 1253.3413,608.17097 1253.5278,609.22683 1253.9592,609.13974 1254.0256,608.70352 1255.5301,607.78549 1258.1577,607.9234 1258.1859,607.92491 1258.5285,608.17778 1259.1233,608.65739 1259.2114,609.60491 1259.4216,609.8339 1259.886,611.12208 1260.7983,611.82497 1261.0056,613.00066 1260.8937,613.91331 1261.9613,614.38343 1263.0495,615.30432 1263.1516,615.38453 1263.5857,616.51728 1263.9501,617.2264 1263.4779,619.33668 1262.9448,619.99479 1261.268,621.0173 1260.087,620.98736 1258.5633,621.75185 1254.9454,620.5016 z">
      <title id="t482">Première circonscription du Territoire-de-Belfort</title>
      <desc id="d482">Cantons : Beaucourt, Belfort Centre, Belfort Est, Danjoutin, Delle, Fontaine, Grandvillars</desc>
    </path><path class="circo" id="id-090-02" d="M 1231.3858,592.28224 1232.4491,593.57524 1232.3213,594.73461 1233.0639,595.6489 1233.1774,596.45548 1233.0494,598.21049 1232.9297,599.45828 1233.2419,600.63782 1233.8013,601.26638 1234.0745,601.7422 1234.7231,602.23288 1234.8534,603.03613 1234.1062,604.39248 1233.199,604.59655 1232.9834,605.83859 1233.6443,606.34977 1233.8645,607.16714 1233.9586,607.18984 1234.2939,607.87285 1234.1253,608.24976 1235.0624,609.08554 1235.2137,609.91858 1236.5739,610.87021 1236.6506,611.017 1236.7112,611.14488 1235.6996,611.72595 1235.4601,612.46934 1236.2808,614.34339 1237.4688,614.5304 1239.6005,614.34061 1239.9546,614.38985 1241.9601,613.41027 1241.1768,612.02642 1242.0459,610.18662 1241.4807,609.6828 1240.8252,610.07421 1240.0641,610.00957 1239.8828,609.68721 1239.9066,609.19998 1240.2338,608.73667 1239.0181,607.35259 1238.2653,607.41348 1238.161,606.87894 1238.2534,606.74819 1238.8817,605.03354 1239.5045,604.74641 1239.4453,603.67942 1238.7908,601.71796 1239.6688,601.38961 1239.1264,600.09314 1241.3063,601.40101 1242.8669,600.87885 1243.0326,600.43893 1243.0422,600.03685 1244.1325,599.58816 1245.3765,600.22906 1245.7102,599.74303 1245.6248,596.34259 1246.3052,596.05341 1248.0332,596.05252 1248.2795,596.52809 1249.1041,596.39436 1250.0203,595.88633 1251.9165,594.5814 1254.2082,594.4854 1255.0457,592.44031 1254.5919,591.85552 1253.6162,590.81242 1253.2063,589.67182 1252.8584,589.90352 1251.7312,589.37337 1249.685,588.64304 1246.6332,586.17056 1245.3583,586.30854 1245.2654,586.05206 1244.0063,585.34084 1243.5427,585.50135 1242.659,585.26153 1240.3863,584.46901 1239.0398,582.36209 1239.0158,581.49885 1238.519,580.79588 1238.79,579.61721 1238.4203,579.38464 1238.0444,579.60809 1236.8655,580.86929 1236.9618,581.30052 1236.0226,582.78639 1233.6955,584.7625 1232.704,586.72981 1231.2638,589.11384 1231.4294,590.21636 1231.3858,592.28224 z">
      <title id="t483">Deuxième circonscription du Territoire-de-Belfort</title>
      <desc id="d483">Cantons : Belfort Nord, Belfort Ouest, Belfort Sud, Châtenois-les-Forges, Giromagny, Offemont, Rougemont-le-Château, Valdoie</desc>
    </path></svg>