<svg xmlns="http://www.w3.org/2000/svg" version="1.1" xmlns:xlink="http://www.w3.org/1999/xlink" xmlns:svgjs="http://svgjs.dev/svgjs" viewBox="1340.4786 259.77392 98.71340000000009 109.59592000000004"><path class="circo" id="091-01" d="M 1423.5579,305.11932 1422.8922,304.20495 1422.2593,304.01607 1418.2279,304.31938 1417.7971,304.34865 1415.2595,305.20736 1413.6961,302.0038 1412.4392,301.23295 1411.0245,301.6177 1412.8069,300.2749 1411.7601,297.62749 1411.0902,297.36921 1410.3631,298.57169 1408.2442,298.6949 1407.7731,299.23784 1406.3805,298.88899 1405.9653,295.17834 1407.8708,294.60164 1408.3602,293.29379 1409.536,292.51562 1411.8638,293.82983 1413.9426,291.15161 1415.2303,289.39665 1415.8713,289.75251 1417.5556,288.37738 1419.7003,290.80608 1422.3738,293.51908 1422.4744,293.58889 1424.6559,295.79593 1425.3334,297.57606 1424.152,303.11884 1423.9868,303.6466 1423.5579,305.11932 z">
      <title id="t484">Première circonscription de l'Essonne</title>
      <desc id="d484">Cantons de : Corbeil-Essonnes Est, Corbeil-Essonnes Ouest, Evry Nord, Evry Sud</desc>
    </path><path class="circo" id="091-02" d="M 1363.2262,329.57563 1357.8755,329.47551 1357.8653,330.13182 1356.5269,330.10415 1355.8194,331.13215 1355.9039,331.80908 1357.1919,332.12415 1358.5123,333.63239 1355.9118,335.51758 1355.403,336.09352 1355.8576,340.51867 1353.6199,343.59332 1352.1909,343.26277 1349.4557,344.04145 1347.8997,348.21527 1349.4232,348.48979 1350.9508,351.91304 1349.2158,353.45538 1348.476,357.21282 1350.2098,359.8103 1349.2123,360.89387 1349.3523,362.93107 1346.7912,364.17478 1347.1873,365.47416 1349.736,368.72458 1351.946,369.08817 1354.1925,369.36984 1357.1081,368.63359 1359.2143,369.1816 1360.4317,368.28306 1360.615,367.11277 1365.7662,367.32796 1368.1681,364.58812 1369.6368,364.49541 1369.1758,366.78501 1376.7158,366.45411 1376.7619,365.52374 1375.5757,364.23793 1375.7007,362.87638 1377.8155,363.28389 1378.0834,362.76297 1379.6582,363.04068 1379.8522,360.79756 1383.4445,356.11154 1384.5684,357.95185 1387.1018,359.48801 1389.2444,359.44309 1388.0223,362.46657 1389.5265,362.678 1389.0739,366.46316 1390.5072,365.79148 1392.6171,362.76097 1395.9582,364.06674 1397.2146,363.60747 1399.0211,359.40971 1399.7246,359.08741 1401.5182,358.80581 1401.8175,360.23021 1405.4357,363.78737 1405.9951,364.14678 1407.1954,363.60103 1407.5273,364.1786 1411.8142,362.71471 1412.3656,361.5001 1411.2917,360.37968 1410.8436,358.12957 1412.1634,358.76401 1414.9282,357.84461 1416.9738,358.4261 1416.4582,355.54151 1418.0558,353.38393 1416.383,352.31255 1418.0362,350.90896 1419.4598,351.1674 1419.3417,349.71002 1424.1656,347.76239 1422.8896,345.99593 1424.6942,344.56152 1427.7176,344.9889 1429.9808,342.95516 1433.7184,343.53831 1429.3192,337.68746 1427.5029,337.20142 1427.4115,333.14126 1427.3602,331.96808 1426.4548,331.09335 1426.7063,330.69443 1427.6373,330.22525 1427.1231,325.07545 1428.2919,324.13885 1428.5464,322.58538 1428.8036,319.43384 1428.1024,319.41195 1427.7735,318.03842 1426.4058,317.71161 1428.157,312.04397 1426.6579,311.97898 1429.4129,307.70732 1429.6725,306.26444 1431.4314,305.10992 1429.9788,305.20715 1425.6955,306.51049 1424.0108,305.12422 1423.9868,303.6466 1423.5579,305.11932 1422.8922,304.20495 1422.2593,304.01607 1418.2279,304.31938 1417.7971,304.34865 1415.2595,305.20736 1413.6961,302.0038 1412.4392,301.23295 1411.0245,301.6177 1412.8069,300.2749 1411.7601,297.62749 1411.0902,297.36921 1410.3631,298.57169 1408.2442,298.6949 1407.7731,299.23784 1406.3805,298.88899 1406.2941,299.58756 1403.0599,300.66819 1402.8691,301.34563 1402.5818,304.84888 1404.2272,308.73889 1403.5066,309.76393 1405.6274,313.34116 1403.3223,313.16138 1402.8695,316.72883 1400.7543,317.39549 1398.2317,321.58228 1395.4976,321.61663 1393.7921,320.51793 1393.0771,320.71121 1393.0038,323.62075 1391.9754,325.58946 1392.8356,326.20964 1393.1817,327.28795 1392.176,328.23256 1393.4947,329.81536 1392.3486,330.66656 1391.4947,332.62246 1389.5725,332.79101 1388.2348,334.06554 1383.8033,327.81793 1381.3933,325.94596 1381.0415,327.35242 1376.7157,327.19695 1374.8028,325.86876 1373.3393,326.35039 1372.0677,328.28073 1370.701,328.77945 1370.2856,328.14001 1370.9742,326.01112 1370.7429,323.73566 1368.048,322.41086 1368.662,319.51665 1366.5953,318.60054 1363.7687,319.34032 1361.9218,323.3416 1362.0212,325.50024 1363.3527,327.38902 1363.2262,329.57563 z">
      <title id="t485">Deuxième circonscription de l'Essonne</title>
      <desc id="d485">Cantons de : Etampes, La Ferté-Alais, Mennecy, Méréville, Milly-la-Forêt</desc>
    </path><path class="circo" id="091-03" d="M 1387.5565,301.68746 1384.4126,303.13024 1382.2628,303.67275 1377.6663,303.56344 1375.5113,304.33234 1374.6353,302.84793 1374.4628,302.10373 1371.8738,300.78042 1370.3804,301.01832 1369.0444,301.5019 1368.0125,300.53427 1366.5703,300.67959 1365.7088,300.57071 1364.3417,299.43014 1362.3156,300.05958 1360.9266,297.44075 1357.9983,298.13627 1357.7076,299.62445 1358.106,301.70938 1356.0619,304.10548 1355.4194,308.69912 1350.3052,308.87051 1349.8134,309.4277 1347.3025,308.0534 1343.6472,307.76452 1343.0792,310.69861 1347.2109,313.74784 1349.2854,313.8432 1349.4568,315.33379 1348.0396,315.70376 1347.4802,315.34338 1345.8546,316.31714 1343.1018,322.50303 1342.9288,325.70525 1341.4731,326.21679 1340.521,327.43005 1340.4786,329.74623 1341.3084,331.01888 1342.5621,331.88446 1343.0813,334.34666 1344.3762,334.72026 1343.5488,335.95866 1343.8025,338.91867 1341.8619,341.01596 1342.433,341.26683 1342.532,342.97498 1345.2205,342.4457 1347.2348,342.89212 1349.4557,344.04145 1352.1909,343.26277 1353.6199,343.59332 1355.8576,340.51867 1355.403,336.09352 1355.9118,335.51758 1358.5123,333.63239 1357.1919,332.12415 1355.9039,331.80908 1355.8194,331.13215 1356.5269,330.10415 1357.8653,330.13182 1357.8755,329.47551 1363.2262,329.57563 1363.3527,327.38902 1362.0212,325.50024 1361.9218,323.3416 1363.7687,319.34032 1366.5953,318.60054 1368.662,319.51665 1368.048,322.41086 1370.7429,323.73566 1370.9742,326.01112 1370.2856,328.14001 1370.701,328.77945 1372.0677,328.28073 1373.3393,326.35039 1374.8028,325.86876 1376.7157,327.19695 1381.0415,327.35242 1381.3933,325.94596 1383.8033,327.81793 1388.2348,334.06554 1389.5725,332.79101 1391.4947,332.62246 1392.3486,330.66656 1393.4947,329.81536 1392.176,328.23256 1393.1817,327.28795 1392.8356,326.20964 1391.9754,325.58946 1393.0038,323.62075 1393.0771,320.71121 1393.7921,320.51793 1395.4976,321.61663 1398.2317,321.58228 1400.7543,317.39549 1402.8695,316.72883 1403.3223,313.16138 1405.6274,313.34116 1403.5066,309.76393 1404.2272,308.73889 1402.5818,304.84888 1402.8691,301.34563 1403.0599,300.66819 1406.2941,299.58756 1406.3805,298.88899 1405.9653,295.17834 1404.5693,294.707 1401.6939,294.69671 1401.4626,294.85779 1396.1065,293.37121 1395.975,294.81327 1394.6024,295.25417 1393.6388,294.30724 1391.7287,294.29271 1390.934,296.23187 1387.7743,296.41708 1388.7403,298.39546 1387.7324,299.55178 1387.5565,301.68746 z">
      <title id="t486">Troisième circonscription de l'Essonne</title>
      <desc id="d486">Cantons de : Arpajon (moins les communes de Bruyères-le-Châtel et Ollainville), Brétigny-sur-Orge, Dourdan, Etréchy, Saint-Chéron</desc>
    </path><path class="circo" id="091-04" d="M 1374.6353,302.84793 1374.4628,302.10373 1371.8738,300.78042 1370.3804,301.01832 1369.0444,301.5019 1368.0125,300.53427 1366.5703,300.67959 1365.7088,300.57071 1364.3417,299.43014 1362.3156,300.05958 1360.9266,297.44075 1361.3331,295.36356 1359.1235,293.32355 1358.9757,293.20655 1358.1232,292.09186 1357.9608,289.94989 1355.8191,289.80532 1354.5445,287.23402 1354.7829,285.89198 1356.8243,286.32562 1357.0945,284.9588 1357.7949,281.61647 1358.3873,281.26888 1359.1132,281.1634 1359.599,279.79932 1361.0513,279.79797 1362.6564,279.77289 1363.1371,279.31773 1364.9583,280.09633 1366.0306,277.27683 1367.2909,278.17523 1369.4189,278.7355 1368.1594,280.54902 1368.2046,282.0272 1369.5923,282.19493 1370.8015,281.28277 1370.8531,280.5349 1373.7562,279.98905 1375.0366,280.41441 1375.502,281.6765 1376.6717,282.31074 1377.0865,282.42315 1377.8075,282.20794 1381.1051,283.94631 1381.7242,283.80704 1383.7141,281.94971 1383.0955,280.16084 1383.0923,278.83922 1383.8321,276.48211 1387.503,276.64927 1389.0508,275.22146 1391.1725,275.38281 1392.2798,272.74165 1396.286,274.12024 1396.2682,275.6927 1397.5989,276.21885 1398.6488,278.85962 1399.2748,279.22901 1399.5711,278.63202 1401.3495,279.62819 1401.0903,279.86003 1402.4025,281.81938 1402.8216,284.14627 1403.3876,284.09925 1402.635,287.96599 1400.7841,286.57209 1399.9554,284.53317 1398.5806,286.45633 1397.0262,288.00651 1396.8668,289.28431 1396.1065,293.37121 1395.975,294.81327 1394.6024,295.25417 1393.6388,294.30724 1391.7287,294.29271 1390.934,296.23187 1387.7743,296.41708 1388.7403,298.39546 1387.7324,299.55178 1387.5565,301.68746 1384.4126,303.13024 1382.2628,303.67275 1377.6663,303.56344 1375.5113,304.33234 1374.6353,302.84793 z">
      <title id="t487">Quatrième circonscription de l'Essonne</title>
      <desc id="d487">Cantons de : Limours, Longjumeau, Montlhéry, Villebon-sur-Yvette, Communes de : Bruyères-le-Châtel, Ollainville</desc>
    </path><path class="circo" id="091-05" d="M 1380.846,264.69606 1378.7361,263.94331 1376.7424,265.074 1375.2013,265.03992 1373.3693,266.39544 1373.3598,267.17205 1372.7812,268.51365 1370.2328,267.56559 1368.2965,268.32574 1367.6742,268.76834 1369.1596,271.39719 1368.7459,272.86964 1369.1364,273.61532 1367.192,276.72141 1367.2909,278.17523 1369.4189,278.7355 1368.1594,280.54902 1368.2046,282.0272 1369.5923,282.19493 1370.8015,281.28277 1370.8531,280.5349 1373.7562,279.98905 1375.0366,280.41441 1375.502,281.6765 1376.6717,282.31074 1377.0865,282.42315 1377.8075,282.20794 1381.1051,283.94631 1381.7242,283.80704 1383.7141,281.94971 1383.0955,280.16084 1383.0923,278.83922 1383.8321,276.48211 1381.3307,274.1532 1381.4319,272.6482 1382.9081,272.12101 1384.3041,270.38304 1384.4206,268.3551 1382.993,268.56319 1386.3023,265.62171 1388.0192,268.86633 1393.4155,267.71022 1394.7721,266.05994 1393.6563,264.13554 1392.6425,263.24298 1389.7965,263.11443 1387.2552,262.04322 1386.6613,260.13991 1386.3235,259.77392 1386.4175,260.52583 1385.7815,260.93352 1383.5334,261.07913 1382.5075,260.10668 1381.0155,260.01288 1380.5665,260.57856 1381.283,262.57111 1380.846,264.69606 z">
      <title id="t488">Cinquième circonscription de l'Essonne</title>
      <desc id="d488">Cantons de : Bièvres, Gif-sur-Yvette, Orsay, Les Ulis</desc>
    </path><path class="circo" id="091-06" d="M 1392.2798,272.74165 1391.1725,275.38281 1389.0508,275.22146 1387.503,276.64927 1383.8321,276.48211 1381.3307,274.1532 1381.4319,272.6482 1382.9081,272.12101 1384.3041,270.38304 1384.4206,268.3551 1382.993,268.56319 1386.3023,265.62171 1388.0192,268.86633 1393.4155,267.71022 1393.9913,269.09638 1394.7361,269.18853 1397.4947,268.00599 1397.7513,270.22813 1399.1768,269.99789 1400.2476,265.90856 1400.7105,265.48893 1401.731,266.05522 1403.1644,267.64654 1405.1616,268.17261 1403.9363,269.79004 1404.4496,271.84239 1403.7097,273.04201 1405.1695,273.3365 1404.8258,276.28405 1401.3495,279.62819 1399.5711,278.63202 1399.2748,279.22901 1398.6488,278.85962 1397.5989,276.21885 1396.2682,275.6927 1396.286,274.12024 1392.2798,272.74165 z">
      <title id="t489">Sixième circonscription de l'Essonne</title>
      <desc id="d489">Cantons de : Chilly-Mazarin, Massy Est, Massy Ouest, Palaiseau</desc>
    </path><path class="circo" id="091-07" d="M 1407.64,272.31645 1407.5998,270.59287 1407.5112,266.51385 1405.1616,268.17261 1403.9363,269.79004 1404.4496,271.84239 1403.7097,273.04201 1405.1695,273.3365 1404.8258,276.28405 1401.3495,279.62819 1401.0903,279.86003 1402.4025,281.81938 1402.8216,284.14627 1403.3876,284.09925 1405.386,283.37576 1406.7486,286.52643 1406.0507,287.84512 1406.4252,288.4922 1406.9103,288.883 1408.7263,285.48965 1411.4303,282.76577 1409.8866,280.53759 1410.4809,278.66113 1412.057,276.44045 1412.6546,274.39813 1414.0804,272.84544 1413.6002,271.00021 1409.9877,272.33416 1407.64,272.31645 z">
      <title id="t490">Septième circonscription de l'Essonne</title>
      <desc id="d490">Cantons de : Athis-Mons, Juvisy-sur-Orge, Savigny-sur-Orge, Viry-Châtillon</desc>
    </path><path class="circo" id="091-08" d="M 1425.7498,281.16406 1422.0128,283.3845 1421.439,282.91693 1420.0667,280.7609 1418.758,281.49933 1415.9987,277.95682 1414.563,278.08831 1412.057,276.44045 1412.6546,274.39813 1414.0804,272.84544 1417.1658,271.43778 1417.9056,271.13807 1418.3072,272.20193 1419.5361,273.50348 1419.3431,272.04928 1421.2525,270.79418 1422.7634,270.65901 1423.1192,270.6525 1424.4742,270.32094 1428.2463,269.0688 1429.9172,274.08281 1431.1336,275.45227 1430.7334,275.77719 1428.2464,278.19854 1428.0323,279.67277 1428.6716,280.04975 1426.5008,282.0617 1425.7498,281.16406 z">
      <title id="t491">Huitième circonscription de l'Essonne</title>
      <desc id="d491">Cantons de : Brunoy, Montgeron, Vigneux-sur-Seine, Yerres</desc>
    </path><path class="circo" id="091-09" d="M 1409.536,292.51562 1410.7033,289.55758 1413.0151,284.13552 1411.4303,282.76577 1409.8866,280.53759 1410.4809,278.66113 1412.057,276.44045 1414.563,278.08831 1415.9987,277.95682 1418.758,281.49933 1420.0667,280.7609 1421.439,282.91693 1422.0128,283.3845 1425.7498,281.16406 1426.5008,282.0617 1428.6716,280.04975 1428.0323,279.67277 1428.2464,278.19854 1430.7334,275.77719 1431.355,276.88588 1433.3116,277.18474 1434.0047,279.29665 1437.3561,278.62507 1438.6449,279.19428 1439.192,281.95555 1437.8011,282.15643 1436.4017,283.70092 1435.1822,282.91201 1433.7778,283.12765 1431.7506,286.40194 1433.8523,288.11126 1433.0366,289.37227 1432.7728,291.65642 1429.9256,292.09008 1429.3466,292.55256 1430.6345,295.85699 1433.046,297.2531 1432.8888,299.91738 1429.4621,302.96438 1429.9788,305.20715 1425.6955,306.51049 1424.0108,305.12422 1423.9868,303.6466 1424.152,303.11884 1425.3334,297.57606 1424.6559,295.79593 1422.4744,293.58889 1422.3738,293.51908 1419.7003,290.80608 1417.5556,288.37738 1415.8713,289.75251 1415.2303,289.39665 1413.9426,291.15161 1411.8638,293.82983 1409.536,292.51562 z">
      <title id="t492">Neuvième circonscription de l'Essonne</title>
      <desc id="d492">Cantons de: Draveil, Epinay-sous-Sénart, Ris-Orangis, Saint-Germain-lès-Corbeil</desc>
    </path><path class="circo" id="091-10" d="M 1401.6939,294.69671 1401.4626,294.85779 1396.1065,293.37121 1396.8668,289.28431 1397.0262,288.00651 1398.5806,286.45633 1399.9554,284.53317 1400.7841,286.57209 1402.635,287.96599 1403.3876,284.09925 1405.386,283.37576 1406.7486,286.52643 1406.0507,287.84512 1406.4252,288.4922 1406.9103,288.883 1408.7263,285.48965 1411.4303,282.76577 1413.0151,284.13552 1410.7033,289.55758 1409.536,292.51562 1408.3602,293.29379 1407.8708,294.60164 1405.9653,295.17834 1404.5693,294.707 1401.6939,294.69671 z">
      <title id="t493">Dixième circonscription de l'Essonne</title>
      <desc id="d493">Cantons de: Grigny, Morsang-sur-Orge, Sainte-Geneviève-des-Bois, Saint-Michel-sur-Orge</desc>
    </path></svg>