<svg xmlns="http://www.w3.org/2000/svg" version="1.1" xmlns:xlink="http://www.w3.org/1999/xlink" xmlns:svgjs="http://svgjs.dev/svgjs" viewBox="0 0 98.71340000000009 109.59592000000004"><path class="circo" id="id-091-01" d="M83.0793000000001 45.34540000000004L82.41360000000009 44.43103000000002L81.78070000000002 44.24215000000004L77.74930000000018 44.54546000000005L77.31850000000009 44.574730000000045L74.78089999999997 45.43344000000002L73.21749999999997 42.22988000000004L71.96060000000011 41.45903000000004L70.54590000000007 41.84378000000004L72.32830000000013 40.50098000000003L71.28150000000005 37.85357000000005L70.61160000000018 37.595290000000034L69.88450000000012 38.797770000000014L67.76560000000018 38.92098000000004L67.2945000000002 39.46392000000003L65.90190000000007 39.11507L65.48670000000016 35.404420000000016L67.3922 34.82772L67.88160000000016 33.519870000000026L69.05740000000014 32.74170000000004L71.38520000000017 34.05591000000004L73.46400000000017 31.37769000000003L74.75170000000003 29.622730000000047L75.3927000000001 29.978589999999997L77.077 28.60346000000004L79.22170000000006 31.032160000000033L81.89520000000016 33.74516L81.99580000000014 33.81497000000002L84.17730000000006 36.02201000000002L84.85480000000007 37.80214000000001L83.67340000000013 43.34492L83.50819999999999 43.87268L83.0793000000001 45.34540000000004z">
      <title id="t484">Première circonscription de l'Essonne</title>
      <desc id="d484">Cantons de : Corbeil-Essonnes Est, Corbeil-Essonnes Ouest, Evry Nord, Evry Sud</desc>
    </path><path class="circo" id="id-091-02" d="M22.747600000000148 69.80171000000001L17.396900000000187 69.70159000000001L17.38670000000002 70.35790000000003L16.048300000000154 70.33023000000003L15.340800000000172 71.35823000000005L15.425300000000107 72.03516000000002L16.713300000000118 72.35023000000001L18.03370000000018 73.85847000000001L15.43320000000017 75.74366000000003L14.924400000000105 76.31960000000004L15.379000000000133 80.74475000000001L13.141300000000001 83.81940000000003L11.712300000000141 83.48885000000001L8.977100000000064 84.26753000000002L7.421100000000024 88.44135L8.944600000000037 88.71587000000005L10.472200000000157 92.13912000000005L8.73720000000003 93.68146000000002L7.997400000000198 97.43890000000005L9.731200000000172 100.03638000000001L8.733699999999999 101.11995000000002L8.873700000000099 103.15715L6.312599999999975 104.40086000000002L6.708700000000135 105.70024000000001L9.257400000000189 108.95066000000003L11.467399999999998 109.31425000000002L13.713900000000194 109.59592000000004L16.629500000000007 108.85967000000005L18.73570000000018 109.40768000000003L19.953100000000177 108.50914L20.136400000000094 107.33885000000004L25.28760000000011 107.55404000000004L27.68950000000018 104.81420000000003L29.15820000000008 104.72149000000002L28.697200000000066 107.01109000000002L36.23720000000003 106.68019000000004L36.283300000000054 105.74982L35.09710000000018 104.46401000000003L35.22210000000018 103.10246000000001L37.336900000000014 103.50997000000001L37.60480000000007 102.98905000000002L39.179600000000164 103.26676000000003L39.373600000000124 101.02364L42.96590000000015 96.33762000000002L44.089800000000196 98.17793L46.6232 99.71409L48.76580000000013 99.66917000000001L47.54370000000017 102.69265000000001L49.04790000000003 102.90408000000002L48.59530000000018 106.68924000000004L50.0286000000001 106.01756L52.13850000000002 102.98705000000001L55.47960000000012 104.29282L56.736000000000104 103.83355L58.54250000000002 99.63579000000004L59.246000000000095 99.31349L61.039600000000064 99.03189000000003L61.338900000000194 100.45629000000002L64.95710000000008 104.01345000000003L65.51650000000018 104.37286L66.71680000000015 103.82711L67.04870000000005 104.40468000000004L71.33560000000011 102.94079000000005L71.88700000000017 101.72618L70.81310000000008 100.60576000000003L70.36500000000001 98.35565000000003L71.6848 98.99009000000001L74.44960000000015 98.07069000000001L76.49520000000007 98.65218000000004L75.97960000000012 95.76759000000004L77.57720000000018 93.61001000000005L75.90440000000012 92.53863000000001L77.5576000000001 91.13504L78.98120000000017 91.39348000000001L78.86310000000003 89.93610000000001L83.68700000000013 87.98847L82.41100000000006 86.22201000000001L84.2156 84.7876L87.23900000000003 85.21498000000003L89.50220000000013 83.18124L93.23980000000006 83.76439000000005L88.8406 77.91354000000001L87.02430000000004 77.42750000000001L86.93290000000002 73.36734000000001L86.88160000000016 72.19416000000001L85.97620000000006 71.31943000000001L86.22770000000014 70.92051000000004L87.15870000000018 70.45133000000004L86.64450000000011 65.30153000000001L87.81330000000003 64.36493000000002L88.06780000000003 62.81146000000001L88.32500000000005 59.65992L87.62380000000007 59.638030000000015L87.2949000000001 58.2645L85.92720000000008 57.93769000000003L87.67840000000001 52.270050000000026L86.17930000000001 52.20506L88.93430000000012 47.933400000000006L89.19389999999999 46.490520000000004L90.95280000000002 45.33600000000001L89.50020000000018 45.43323000000004L85.21690000000012 46.73657000000003L83.5322000000001 45.350300000000004L83.50819999999999 43.87268L83.0793000000001 45.34540000000004L82.41360000000009 44.43103000000002L81.78070000000002 44.24215000000004L77.74930000000018 44.54546000000005L77.31850000000009 44.574730000000045L74.78089999999997 45.43344000000002L73.21749999999997 42.22988000000004L71.96060000000011 41.45903000000004L70.54590000000007 41.84378000000004L72.32830000000013 40.50098000000003L71.28150000000005 37.85357000000005L70.61160000000018 37.595290000000034L69.88450000000012 38.797770000000014L67.76560000000018 38.92098000000004L67.2945000000002 39.46392000000003L65.90190000000007 39.11507L65.81550000000016 39.81364000000002L62.581300000000056 40.894270000000006L62.390499999999975 41.57171000000005L62.103200000000015 45.07496000000003L63.748600000000124 48.96497000000005L63.02800000000002 49.99001000000004L65.14880000000016 53.56724000000003L62.843700000000126 53.38746000000003L62.3909000000001 56.95491000000004L60.27570000000014 57.62157000000002L57.75310000000013 61.80836000000005L55.019000000000005 61.84271000000001L53.313499999999976 60.74401L52.59850000000006 60.93729000000002L52.52520000000004 63.84683000000001L51.49680000000012 65.81554L52.3570000000002 66.43572L52.70310000000018 67.51403000000005L51.697400000000016 68.45864L53.01610000000005 70.04144000000002L51.87000000000012 70.89264000000003L51.01610000000005 72.84854000000001L49.093900000000076 73.01709000000005L47.756200000000035 74.29162000000002L43.32470000000012 68.04401000000001L40.91470000000004 66.17204000000004L40.56290000000013 67.57850000000002L36.237100000000055 67.42303000000004L34.32420000000002 66.09484000000003L32.86070000000018 66.57647000000003L31.589100000000144 68.50681000000003L30.222400000000107 69.00553000000002L29.807000000000016 68.36609000000004L30.495600000000195 66.23720000000003L30.26430000000005 63.96174000000002L27.569400000000087 62.63694000000004L28.18340000000012 59.74273000000005L26.116700000000037 58.82662000000005L23.290100000000166 59.566400000000044L21.44320000000016 63.56768000000005L21.542599999999993 65.72632000000004L22.8741 67.61510000000004L22.747600000000148 69.80171000000001z">
      <title id="t485">Deuxième circonscription de l'Essonne</title>
      <desc id="d485">Cantons de : Etampes, La Ferté-Alais, Mennecy, Méréville, Milly-la-Forêt</desc>
    </path><path class="circo" id="id-091-03" d="M47.0779 41.91354000000001L43.9340000000002 43.35632000000004L41.784200000000055 43.89883000000003L37.18770000000018 43.78952000000004L35.03269999999998 44.55842000000001L34.1567 43.074010000000044L33.9842000000001 42.32981000000001L31.39520000000016 41.00650000000002L29.901800000000094 41.24440000000004L28.56580000000008 41.72798L27.53390000000013 40.76035000000002L26.091700000000174 40.90567000000004L25.230200000000195 40.796790000000044L23.86310000000003 39.65622000000002L21.83699999999999 40.28566000000001L20.448000000000093 37.666830000000004L17.519700000000057 38.36235000000005L17.229000000000042 39.85053000000005L17.62740000000008 41.935460000000035L15.583300000000008 44.331560000000025L14.940800000000081 48.92520000000002L9.826600000000099 49.09659000000005L9.334800000000087 49.65378000000004L6.823900000000094 48.279480000000035L3.168600000000197 47.99060000000003L2.600599999999986 50.92469L6.732300000000123 53.97392000000002L8.806800000000067 54.06928000000005L8.978200000000015 55.559870000000046L7.561000000000149 55.92984000000001L7.001600000000053 55.56946000000005L5.375999999999976 56.54322000000002L2.623199999999997 62.72911000000005L2.4501999999999953 65.93133L0.9945000000000164 66.44287000000003L0.04240000000004329 67.65613000000002L0 69.97231000000005L0.8297999999999774 71.24496000000005L2.0835000000001855 72.11054000000001L2.602700000000141 74.57274000000001L3.8976000000000113 74.94634000000002L3.0702000000001135 76.18474000000003L3.3239000000000942 79.14475000000004L1.3833000000001903 81.24204000000003L1.9544000000000779 81.49291000000005L2.0534000000000106 83.20106000000004L4.741899999999987 82.67178000000001L6.756200000000035 83.1182L8.977100000000064 84.26753000000002L11.712300000000141 83.48885000000001L13.141300000000001 83.81940000000003L15.379000000000133 80.74475000000001L14.924400000000105 76.31960000000004L15.43320000000017 75.74366000000003L18.03370000000018 73.85847000000001L16.713300000000118 72.35023000000001L15.425300000000107 72.03516000000002L15.340800000000172 71.35823000000005L16.048300000000154 70.33023000000003L17.38670000000002 70.35790000000003L17.396900000000187 69.70159000000001L22.747600000000148 69.80171000000001L22.8741 67.61510000000004L21.542599999999993 65.72632000000004L21.44320000000016 63.56768000000005L23.290100000000166 59.566400000000044L26.116700000000037 58.82662000000005L28.18340000000012 59.74273000000005L27.569400000000087 62.63694000000004L30.26430000000005 63.96174000000002L30.495600000000195 66.23720000000003L29.807000000000016 68.36609000000004L30.222400000000107 69.00553000000002L31.589100000000144 68.50681000000003L32.86070000000018 66.57647000000003L34.32420000000002 66.09484000000003L36.237100000000055 67.42303000000004L40.56290000000013 67.57850000000002L40.91470000000004 66.17204000000004L43.32470000000012 68.04401000000001L47.756200000000035 74.29162000000002L49.093900000000076 73.01709000000005L51.01610000000005 72.84854000000001L51.87000000000012 70.89264000000003L53.01610000000005 70.04144000000002L51.697400000000016 68.45864L52.70310000000018 67.51403000000005L52.3570000000002 66.43572L51.49680000000012 65.81554L52.52520000000004 63.84683000000001L52.59850000000006 60.93729000000002L53.313499999999976 60.74401L55.019000000000005 61.84271000000001L57.75310000000013 61.80836000000005L60.27570000000014 57.62157000000002L62.3909000000001 56.95491000000004L62.843700000000126 53.38746000000003L65.14880000000016 53.56724000000003L63.02800000000002 49.99001000000004L63.748600000000124 48.96497000000005L62.103200000000015 45.07496000000003L62.390499999999975 41.57171000000005L62.581300000000056 40.894270000000006L65.81550000000016 39.81364000000002L65.90190000000007 39.11507L65.48670000000016 35.404420000000016L64.0907000000002 34.93308000000002L61.21530000000007 34.92279000000002L60.98400000000015 35.08387000000005L55.62790000000018 33.597290000000044L55.496399999999994 35.03935000000001L54.123800000000074 35.48025000000001L53.16020000000003 34.53332L51.250099999999975 34.518790000000024L50.455400000000054 36.45795000000004L47.295700000000124 36.64316000000002L48.26170000000002 38.62154000000004L47.25380000000018 39.77786000000003L47.0779 41.91354000000001z">
      <title id="t486">Troisième circonscription de l'Essonne</title>
      <desc id="d486">Cantons de : Arpajon (moins les communes de Bruyères-le-Châtel et Ollainville), Brétigny-sur-Orge, Dourdan, Etréchy, Saint-Chéron</desc>
    </path><path class="circo" id="id-091-04" d="M34.1567 43.074010000000044L33.9842000000001 42.32981000000001L31.39520000000016 41.00650000000002L29.901800000000094 41.24440000000004L28.56580000000008 41.72798L27.53390000000013 40.76035000000002L26.091700000000174 40.90567000000004L25.230200000000195 40.796790000000044L23.86310000000003 39.65622000000002L21.83699999999999 40.28566000000001L20.448000000000093 37.666830000000004L20.854500000000144 35.58964000000003L18.644900000000007 33.549630000000036L18.497100000000046 33.43263000000002L17.644600000000082 32.31794000000002L17.482200000000148 30.175970000000007L15.34050000000002 30.03140000000002L14.065900000000056 27.46010000000001L14.304300000000012 26.118060000000014L16.34570000000008 26.55170000000004L16.61590000000001 25.18488000000002L17.316300000000183 21.842550000000017L17.90870000000018 21.49496000000005L18.63460000000009 21.38948000000005L19.120400000000018 20.025400000000047L20.572700000000168 20.024050000000045L22.17780000000016 19.998970000000043L22.658500000000004 19.543810000000008L24.479700000000093 20.322410000000048L25.552000000000135 17.502910000000043L26.81230000000005 18.401310000000024L28.94029999999998 18.961580000000026L27.68080000000009 20.77510000000001L27.726000000000113 22.253280000000018L29.113700000000108 22.421010000000024L30.322900000000118 21.508850000000052L30.374500000000126 20.760980000000018L33.27760000000012 20.215130000000045L34.55799999999999 20.64049L35.02340000000004 21.90258L36.193100000000186 22.536820000000034L36.60789999999997 22.649230000000045L37.328899999999976 22.434020000000032L40.62650000000008 24.172390000000007L41.245600000000195 24.033119999999997L43.2355 22.175790000000006L42.61689999999999 20.386920000000032L42.61370000000011 19.065300000000036L43.35350000000017 16.708190000000002L47.024400000000014 16.875350000000026L48.572200000000066 15.447540000000004L50.693899999999985 15.60889000000003L51.80120000000011 12.967730000000017L55.80740000000014 14.346320000000048L55.789600000000064 15.918780000000027L57.12030000000004 16.44493L58.17020000000002 19.08570000000003L58.7962 19.45509000000004L59.09249999999997 18.858100000000036L60.87090000000012 19.854270000000042L60.611700000000155 20.08611000000002L61.9239 22.04546000000005L62.343000000000075 24.37235000000004L62.909000000000106 24.325330000000008L62.156400000000076 28.19207L60.305500000000166 26.798170000000027L59.47680000000014 24.75925000000001L58.10200000000009 26.682410000000004L56.5476000000001 28.232590000000016L56.3882000000001 29.51039000000003L55.62790000000018 33.597290000000044L55.496399999999994 35.03935000000001L54.123800000000074 35.48025000000001L53.16020000000003 34.53332L51.250099999999975 34.518790000000024L50.455400000000054 36.45795000000004L47.295700000000124 36.64316000000002L48.26170000000002 38.62154000000004L47.25380000000018 39.77786000000003L47.0779 41.91354000000001L43.9340000000002 43.35632000000004L41.784200000000055 43.89883000000003L37.18770000000018 43.78952000000004L35.03269999999998 44.55842000000001L34.1567 43.074010000000044z">
      <title id="t487">Quatrième circonscription de l'Essonne</title>
      <desc id="d487">Cantons de : Limours, Longjumeau, Montlhéry, Villebon-sur-Yvette, Communes de : Bruyères-le-Châtel, Ollainville</desc>
    </path><path class="circo" id="id-091-05" d="M40.36740000000009 4.922140000000013L38.257500000000164 4.169390000000021L36.263800000000174 5.300080000000037L34.72270000000003 5.2660000000000196L32.89070000000015 6.621520000000032L32.881200000000035 7.398130000000037L32.302599999999984 8.739730000000009L29.754200000000083 7.7916700000000105L27.81790000000001 8.55182000000002L27.195600000000013 8.994420000000048L28.68100000000004 11.623270000000048L28.267299999999977 13.095720000000028L28.65780000000018 13.841400000000021L26.713400000000092 16.947490000000016L26.81230000000005 18.401310000000024L28.94029999999998 18.961580000000026L27.68080000000009 20.77510000000001L27.726000000000113 22.253280000000018L29.113700000000108 22.421010000000024L30.322900000000118 21.508850000000052L30.374500000000126 20.760980000000018L33.27760000000012 20.215130000000045L34.55799999999999 20.64049L35.02340000000004 21.90258L36.193100000000186 22.536820000000034L36.60789999999997 22.649230000000045L37.328899999999976 22.434020000000032L40.62650000000008 24.172390000000007L41.245600000000195 24.033119999999997L43.2355 22.175790000000006L42.61689999999999 20.386920000000032L42.61370000000011 19.065300000000036L43.35350000000017 16.708190000000002L40.852100000000064 14.379280000000051L40.95330000000013 12.874279999999999L42.42950000000019 12.347090000000037L43.82550000000015 10.609120000000019L43.94200000000001 8.581180000000018L42.51440000000002 8.789270000000045L45.823700000000144 5.847790000000032L47.54060000000004 9.09241000000003L52.93690000000015 7.936300000000017L54.293499999999995 6.286020000000008L53.177700000000186 4.361620000000016L52.16390000000001 3.469060000000013L49.31790000000001 3.3405100000000516L46.776600000000144 2.269300000000044L46.18270000000007 0.3659900000000107L45.84490000000005 0L45.9389000000001 0.7519100000000094L45.302900000000136 1.1596000000000117L43.054800000000114 1.305210000000045L42.02890000000002 0.3327600000000075L40.53690000000006 0.23896000000002005L40.08789999999999 0.8046400000000062L40.80439999999999 2.7971900000000005L40.36740000000009 4.922140000000013z">
      <title id="t488">Cinquième circonscription de l'Essonne</title>
      <desc id="d488">Cantons de : Bièvres, Gif-sur-Yvette, Orsay, Les Ulis</desc>
    </path><path class="circo" id="id-091-06" d="M51.80120000000011 12.967730000000017L50.693899999999985 15.60889000000003L48.572200000000066 15.447540000000004L47.024400000000014 16.875350000000026L43.35350000000017 16.708190000000002L40.852100000000064 14.379280000000051L40.95330000000013 12.874279999999999L42.42950000000019 12.347090000000037L43.82550000000015 10.609120000000019L43.94200000000001 8.581180000000018L42.51440000000002 8.789270000000045L45.823700000000144 5.847790000000032L47.54060000000004 9.09241000000003L52.93690000000015 7.936300000000017L53.512699999999995 9.322460000000035L54.257500000000164 9.414610000000039L57.01610000000005 8.232070000000022L57.272699999999986 10.454210000000046L58.69820000000004 10.223970000000008L59.769000000000005 6.134640000000047L60.231899999999996 5.715010000000007L61.25240000000008 6.281300000000044L62.68579999999997 7.87262000000004L64.68299999999999 8.398690000000045L63.45770000000016 10.01612L63.971000000000004 12.068470000000048L63.2311000000002 13.26809000000003L64.69090000000006 13.562580000000025L64.34720000000016 16.510130000000004L60.87090000000012 19.854270000000042L59.09249999999997 18.858100000000036L58.7962 19.45509000000004L58.17020000000002 19.08570000000003L57.12030000000004 16.44493L55.789600000000064 15.918780000000027L55.80740000000014 14.346320000000048L51.80120000000011 12.967730000000017z">
      <title id="t489">Sixième circonscription de l'Essonne</title>
      <desc id="d489">Cantons de : Chilly-Mazarin, Massy Est, Massy Ouest, Palaiseau</desc>
    </path><path class="circo" id="id-091-07" d="M67.16140000000019 12.54253L67.12120000000004 10.81895000000003L67.0326 6.739930000000015L64.68299999999999 8.398690000000045L63.45770000000016 10.01612L63.971000000000004 12.068470000000048L63.2311000000002 13.26809000000003L64.69090000000006 13.562580000000025L64.34720000000016 16.510130000000004L60.87090000000012 19.854270000000042L60.611700000000155 20.08611000000002L61.9239 22.04546000000005L62.343000000000075 24.37235000000004L62.909000000000106 24.325330000000008L64.90740000000005 23.60184000000004L66.26999999999998 26.75251000000003L65.57210000000009 28.071200000000033L65.94659999999999 28.71828000000005L66.43170000000009 29.109080000000006L68.24770000000012 25.715730000000008L70.95170000000007 22.99185L69.40800000000013 20.763670000000047L70.0023000000001 18.88721000000004L71.5784000000001 16.666530000000023L72.17600000000016 14.624210000000005L73.60180000000014 13.071520000000021L73.12160000000017 11.226290000000006L69.50909999999999 12.560240000000022L67.16140000000019 12.54253z">
      <title id="t490">Septième circonscription de l'Essonne</title>
      <desc id="d490">Cantons de : Athis-Mons, Juvisy-sur-Orge, Savigny-sur-Orge, Viry-Châtillon</desc>
    </path><path class="circo" id="id-091-08" d="M85.27120000000014 21.39014000000003L81.53420000000006 23.610580000000027L80.96040000000016 23.143010000000004L79.58810000000017 20.986980000000017L78.27940000000012 21.72541000000001L75.52010000000018 18.182900000000018L74.08440000000019 18.314390000000003L71.5784000000001 16.666530000000023L72.17600000000016 14.624210000000005L73.60180000000014 13.071520000000021L76.68720000000008 11.66386L77.42700000000013 11.364150000000052L77.82860000000005 12.428010000000029L79.05750000000012 13.729560000000049L78.86450000000013 12.275360000000035L80.77390000000014 11.020260000000007L82.28480000000013 10.885090000000048L82.64060000000018 10.87858L83.9956000000002 10.547020000000032L87.7677000000001 9.294880000000035L89.43860000000018 14.30889000000002L90.65499999999997 15.678350000000023L90.25480000000016 16.003270000000043L87.76780000000008 18.424620000000004L87.55370000000016 19.89885000000004L88.19299999999998 20.27583000000004L86.02220000000011 22.287779999999998L85.27120000000014 21.39014000000003z">
      <title id="t491">Huitième circonscription de l'Essonne</title>
      <desc id="d491">Cantons de : Brunoy, Montgeron, Vigneux-sur-Seine, Yerres</desc>
    </path><path class="circo" id="id-091-09" d="M69.05740000000014 32.74170000000004L70.22469999999998 29.783659999999998L72.53650000000016 24.36160000000001L70.95170000000007 22.99185L69.40800000000013 20.763670000000047L70.0023000000001 18.88721000000004L71.5784000000001 16.666530000000023L74.08440000000019 18.314390000000003L75.52010000000018 18.182900000000018L78.27940000000012 21.72541000000001L79.58810000000017 20.986980000000017L80.96040000000016 23.143010000000004L81.53420000000006 23.610580000000027L85.27120000000014 21.39014000000003L86.02220000000011 22.287779999999998L88.19299999999998 20.27583000000004L87.55370000000016 19.89885000000004L87.76780000000008 18.424620000000004L90.25480000000016 16.003270000000043L90.8764000000001 17.11196000000001L92.83300000000008 17.41082L93.52610000000004 19.522730000000024L96.87750000000005 18.85115000000002L98.16630000000009 19.420360000000016L98.71340000000009 22.18163000000004L97.32249999999999 22.382510000000025L95.92309999999998 23.92700000000002L94.70360000000005 23.138090000000034L93.29920000000016 23.35373000000004L91.27200000000016 26.62802000000005L93.3737000000001 28.33734000000004L92.55799999999999 29.59835000000004L92.29420000000005 31.88250000000005L89.44700000000012 32.316160000000025L88.86800000000017 32.77864000000005L90.15589999999997 36.08307000000002L92.56740000000013 37.47918000000004L92.41020000000003 40.143460000000005L88.98350000000005 43.19046000000003L89.50020000000018 45.43323000000004L85.21690000000012 46.73657000000003L83.5322000000001 45.350300000000004L83.50819999999999 43.87268L83.67340000000013 43.34492L84.85480000000007 37.80214000000001L84.17730000000006 36.02201000000002L81.99580000000014 33.81497000000002L81.89520000000016 33.74516L79.22170000000006 31.032160000000033L77.077 28.60346000000004L75.3927000000001 29.978589999999997L74.75170000000003 29.622730000000047L73.46400000000017 31.37769000000003L71.38520000000017 34.05591000000004L69.05740000000014 32.74170000000004z">
      <title id="t492">Neuvième circonscription de l'Essonne</title>
      <desc id="d492">Cantons de: Draveil, Epinay-sous-Sénart, Ris-Orangis, Saint-Germain-lès-Corbeil</desc>
    </path><path class="circo" id="id-091-10" d="M61.21530000000007 34.92279000000002L60.98400000000015 35.08387000000005L55.62790000000018 33.597290000000044L56.3882000000001 29.51039000000003L56.5476000000001 28.232590000000016L58.10200000000009 26.682410000000004L59.47680000000014 24.75925000000001L60.305500000000166 26.798170000000027L62.156400000000076 28.19207L62.909000000000106 24.325330000000008L64.90740000000005 23.60184000000004L66.26999999999998 26.75251000000003L65.57210000000009 28.071200000000033L65.94659999999999 28.71828000000005L66.43170000000009 29.109080000000006L68.24770000000012 25.715730000000008L70.95170000000007 22.99185L72.53650000000016 24.36160000000001L70.22469999999998 29.783659999999998L69.05740000000014 32.74170000000004L67.88160000000016 33.519870000000026L67.3922 34.82772L65.48670000000016 35.404420000000016L64.0907000000002 34.93308000000002L61.21530000000007 34.92279000000002z">
      <title id="t493">Dixième circonscription de l'Essonne</title>
      <desc id="d493">Cantons de: Grigny, Morsang-sur-Orge, Sainte-Geneviève-des-Bois, Saint-Michel-sur-Orge</desc>
    </path></svg>