<svg xmlns="http://www.w3.org/2000/svg" version="1.1" xmlns:xlink="http://www.w3.org/1999/xlink" xmlns:svgjs="http://svgjs.dev/svgjs" viewBox="1406.4765 498.72667 71.52870000000007 126.61261999999999"><path class="circo" id="092-01" d="M 1451.2161,510.97134 1448.952,512.05776 1448.0136,512.08428 1443.3379,517.52961 1440.9632,520.00385 1441.0119,523.18485 1437.7925,524.45984 1434.5174,516.10971 1438.4711,512.04453 1444.75,506.87912 1452.2713,501.52253 1461.072,498.72667 1468.8593,500.45577 1477.6029,504.1262 1478.0052,509.83508 1475.1723,514.88031 1472.7533,517.22339 1471.1164,516.11489 1464.0195,519.48326 1459.6759,515.45924 1457.9916,509.7944 1454.3234,508.54013 1453.7166,511.24932 1451.2161,510.97134 z">
      <title id="t494-2">Première circonscription des Hauts-de-Seine</title>
      <desc id="d494-1">Cantons de : Colombes Nord-Est, Colombes Nord-Ouest, Gennevilliers Nord, Gennevilliers Sud, Villeneuve-la-Garenne</desc>
    </path><path class="circo" id="092-02" d="M 1451.4693,522.49119 1451.8247,524.30987 1455.5863,524.16734 1458.5493,526.60581 1459.7228,525.82848 1469.6446,519.88633 1471.9251,518.79048 1472.7533,517.22339 1471.1164,516.11489 1464.0195,519.48326 1459.6759,515.45924 1457.9916,509.7944 1454.3234,508.54013 1453.7166,511.24932 1451.2161,510.97134 1448.952,512.05776 1448.0136,512.08428 1440.9632,520.00385 1441.0119,523.18485 1448.4443,520.15085 1454.427,512.54108 1456.7013,517.53603 1451.4693,522.49119 z">
      <title id="t495-1">Deuxième circonscription des Hauts-de-Seine</title>
      <desc id="d495-1">Cantons de : Asnières-sur-Seine Nord, Asnières-sur-Seine Sud, Colombes Sud</desc>
    </path><path class="circo" id="092-03" d="M 1444.8257,529.08553 1441.7511,530.89572 1439.5542,530.38787 1438.7416,527.53876 1437.7925,524.45984 1448.4443,520.15085 1454.427,512.54108 1456.7013,517.53603 1451.4693,522.49119 1451.8247,524.30987 1455.5863,524.16734 1458.5493,526.60581 1453.5811,528.82884 1448.3911,533.92631 1444.8257,529.08553 z">
      <title id="t496-0">Troisième circonscription des Hauts-de-Seine</title>
      <desc id="d496-5">Cantons de : Bois-Colombes, Courbevoie Nord, Courbevoie Sud (partie située au nord d'une ligne définie depuis la limite de la commune de Neuilly-sur-Seine, par l'axe des voies ci-après : prolongation de l'axe de la rue de l'Abreuvoir, rue de l'Abreuvoir, place Victor-Hugo, rue de Bezons et partie située à l'ouest de la ligne de chemin de fer de Paris à Versailles depuis la limite du canton de Courbevoie Nord jusqu'à la limite de la commune de Puteaux), La Garenne-Colombes</desc>
    </path><path class="circo" id="092-04" d="M 1415.3099,530.30948 1417.1685,528.44711 1427.0647,522.94516 1434.5174,516.10971 1437.7925,524.45984 1438.7416,527.53876 1439.5542,530.38787 1435.7263,537.77433 1439.6906,540.77632 1438.7832,545.61134 1436.5036,551.13751 1428.1832,550.43866 1427.097,549.04031 1431.0874,545.91336 1429.7621,542.66021 1415.3099,530.30948 z">
      <title id="t497-1">Quatrième circonscription des Hauts-de-Seine</title>
      <desc id="d497-6">Cantons de : Nanterre Nord, Nanterre Sud-Est, Nanterre Sud-Ouest, Suresnes</desc>
    </path><path class="circo" id="092-05" d="M 1458.5493,526.60581 1453.5811,528.82884 1458.6202,536.13217 1461.4517,533.81538 1462.1896,533.71866 1465.8888,531.26005 1471.9494,527.6504 1469.6446,519.88633 1459.7228,525.82848 1458.5493,526.60581 z">
      <title id="t498-0">Cinquième circonscription des Hauts-de-Seine</title>
      <desc id="d498-5">Cantons de : Clichy, Levallois-Perret Nord, Levallois-Perret Sud</desc>
    </path><path class="circo" id="092-06" d="M 1442.0879,543.83613 1438.7832,545.61134 1439.6906,540.77632 1435.7263,537.77433 1439.5542,530.38787 1441.7511,530.89572 1444.8257,529.08553 1448.3911,533.92631 1453.5811,528.82884 1458.6202,536.13217 1457.271,537.73984 1456.9226,540.17101 1449.4137,539.24761 1447.644,542.5881 1444.0364,541.38274 1442.0879,543.83613 z">
      <title id="t499-9">Sixième circonscription des Hauts-de-Seine</title>
      <desc id="d499-0">Cantons de : Courbevoie Sud (partie non comprise dans la 3e circonscription), Neuilly-sur-Seine Nord, Neuilly-sur-seine Sud, Puteau</desc>
    </path><path class="circo" id="092-07" d="M 1414.2838,563.52612 1414.5569,561.72368 1419.2463,559.07779 1420.3024,555.62142 1411.7422,557.81994 1408.1847,551.65566 1409.4457,548.27791 1408.1749,544.58282 1411.1579,539.00961 1415.3099,530.30948 1429.7621,542.66021 1431.0874,545.91336 1427.097,549.04031 1428.1832,550.43866 1436.5036,551.13751 1435.9569,554.50636 1435.8905,565.00667 1433.7016,569.67583 1426.6278,568.07095 1419.6163,567.59312 1422.0301,563.53241 1414.2838,563.52612 z">
      <title id="t500-4">Septième circonscription des Hauts-de-Seine</title>
      <desc id="d500-5">Cantons de : Garches, Rueil-Malmaison, Saint-Cloud</desc>
    </path><path class="circo" id="092-08" d="M 1420.4233,586.67603 1427.8335,586.00427 1430.2844,588.77906 1430.6182,592.49469 1435.9489,593.96744 1436.8612,595.60686 1439.9969,593.1571 1440.7746,587.24261 1446.8901,579.55927 1445.4591,579.68503 1445.3365,578.34329 1443.438,578.90691 1443.0246,578.50171 1444.4074,577.13922 1442.3287,576.35185 1443.1445,575.35847 1441.4824,574.01758 1439.7729,574.11305 1438.7433,572.10811 1436.5549,568.93777 1435.8905,565.00667 1433.7016,569.67583 1426.6278,568.07095 1419.6163,567.59312 1422.0301,563.53241 1414.2838,563.52612 1414.5569,561.72368 1419.2463,559.07779 1420.3024,555.62142 1411.7422,557.81994 1408.0417,558.42543 1406.4765,564.00572 1407.4561,568.81166 1408.5813,572.8602 1408.3095,574.32313 1412.2716,577.79039 1418.0901,577.08703 1421.5502,585.18972 1420.4233,586.67603 z">
      <title id="t501-7">Huitième circonscription des Hauts-de-Seine</title>
      <desc id="d501-3">Cantons de: Chaville, Meudon, Sèvres</desc>
    </path><path class="circo" id="092-09" d="M 1435.8905,565.00667 1436.5549,568.93777 1439.9278,567.75561 1445.4967,570.93316 1450.4702,565.70458 1447.6024,565.1261 1446.0248,560.85376 1446.5405,559.09762 1445.8924,559.0731 1444.9235,558.62094 1442.6576,557.77802 1441.6515,556.45063 1435.9569,554.50636 1435.8905,565.00667 z">
      <title id="t502-1">Neuvième circonscription des Hauts-de-Seine</title>
      <desc id="d502-7">Cantons de : Boulogne-Billancourt Nord-Est, Boulogne-Billancourt Nord-Ouest, Boulogne-Billancourt Sud (partie située au nord d'une ligne définie par l'axe des voies ci-après : rue Yves-Kermen, avenue Pierre-Grenier, boulevard de la République jusqu'au pont d'Issy)</desc>
    </path><path class="circo" id="092-10" d="M 1446.3568,575.73051 1454.1455,576.86531 1456.2578,576.94875 1461.2906,574.82141 1464.965,570.7337 1460.4793,568.89227 1456.5875,566.36554 1454.358,569.15281 1452.2873,569.19172 1452.1886,567.19283 1453.2854,566.45172 1452.3807,565.25849 1450.4702,565.70458 1445.4967,570.93316 1439.9278,567.75561 1436.5549,568.93777 1438.7433,572.10811 1439.7729,574.11305 1441.4824,574.01758 1443.1445,575.35847 1442.3287,576.35185 1444.4074,577.13922 1443.0246,578.50171 1443.438,578.90691 1445.3365,578.34329 1445.4591,579.68503 1446.8901,579.55927 1446.3568,575.73051 z">
      <title id="t503-9">Dixième circonscription des Hauts-de-Seine</title>
      <desc id="d503-5">Cantons de : Boulogne-Billancourt Sud (partie non comprise dans la 9 circonscription), Issy-les-Moulineaux Est, Issy-les-Moulineaux Ouest, Vanves</desc>
    </path><path class="circo" id="092-11" d="M 1461.5416,587.39284 1465.7918,582.01129 1465.4762,578.7411 1464.5268,578.60569 1456.9102,578.85423 1456.2578,576.94875 1461.2906,574.82141 1464.965,570.7337 1469.7911,572.35616 1476.7658,574.62315 1476.4737,575.37224 1475.4029,577.21615 1474.2808,579.45273 1471.6405,579.39643 1471.3302,581.46188 1473.0162,582.17166 1474.2144,581.41239 1473.4748,584.20551 1471.4975,591.95329 1470.0421,591.27769 1468.117,593.7139 1465.7131,593.4318 1463.3405,588.11138 1461.5416,587.39284 z">
      <title id="t504-1">Onzième circonscription des Hauts-de-Seine</title>
      <desc id="d504-8">Cantons de : Bagneux, Malakoff, Montrouge</desc>
    </path><path class="circo" id="092-12" d="M 1456.9102,578.85423 1456.2578,576.94875 1454.1455,576.86531 1446.3568,575.73051 1446.8901,579.55927 1440.7746,587.24261 1439.9969,593.1571 1436.8612,595.60686 1436.8351,598.73979 1437.6943,599.67102 1440.9357,598.62789 1441.8476,600.26761 1449.3132,600.32985 1456.7867,595.09406 1457.6897,594.70577 1465.7131,593.4318 1463.3405,588.11138 1461.5416,587.39284 1465.7918,582.01129 1465.4762,578.7411 1464.5268,578.60569 1456.9102,578.85423 z">
      <title id="t505-2">Douzième circonscription des Hauts-de-Seine</title>
      <desc id="d505-9">Cantons de : Châtillon, Clamart, Fontenay-aux-Roses, Le Plessis-Robinson</desc>
    </path><path class="circo" id="092-13" d="M 1465.2585,619.68533 1458.2399,622.69415 1456.345,622.45968 1454.8798,618.9328 1458.3316,614.73385 1455.4925,609.83744 1452.9127,607.56642 1445.6716,607.23935 1439.2059,604.51378 1437.6943,599.67102 1440.9357,598.62789 1441.8476,600.26761 1449.3132,600.32985 1456.7867,595.09406 1457.6897,594.70577 1465.7131,593.4318 1468.117,593.7139 1470.0421,591.27769 1471.4975,591.95329 1474.1799,595.42298 1471.9663,601.81478 1470.4449,604.0668 1468.1604,611.01712 1472.2633,614.34867 1469.5388,624.75349 1465.9114,625.33929 1465.2585,619.68533 z">
      <title id="t506-2">Treizième circonscription des Hauts-de-Seine</title>
      <desc id="d506-1">Cantons de : Antony, Bourg-la-Reine, Châtenay-Malabry, Sceaux</desc>
    </path></svg>