<svg xmlns="http://www.w3.org/2000/svg" version="1.1" xmlns:xlink="http://www.w3.org/1999/xlink" xmlns:svgjs="http://svgjs.dev/svgjs" viewBox="0 0 71.52870000000007 126.61261999999999"><path class="circo" id="id-092-01" d="M44.73960000000011 12.244669999999985L42.47550000000001 13.331090000000017L41.53710000000001 13.357610000000022L36.8614 18.802940000000035L34.48669999999993 21.277180000000044L34.53539999999998 24.45817999999997L31.31600000000003 25.733169999999973L28.040899999999965 17.383039999999937L31.99459999999999 13.317859999999996L38.27350000000001 8.152449999999988L45.79480000000012 2.7958600000000047L54.5954999999999 0L62.38280000000009 1.72909999999996L71.1264000000001 5.39952999999997L71.52870000000007 11.108409999999992L68.69579999999996 16.153639999999996L66.2768000000001 18.496719999999982L64.63990000000013 17.388219999999933L57.54300000000012 20.75658999999996L53.19939999999997 16.73257000000001L51.515100000000075 11.067729999999983L47.846900000000005 9.813459999999964L47.240099999999984 12.522649999999999L44.73960000000011 12.244669999999985z">
      <title id="t494-2">Première circonscription des Hauts-de-Seine</title>
      <desc id="d494-1">Cantons de : Colombes Nord-Est, Colombes Nord-Ouest, Gennevilliers Nord, Gennevilliers Sud, Villeneuve-la-Garenne</desc>
    </path><path class="circo" id="id-092-02" d="M44.99279999999999 23.764519999999948L45.348199999999906 25.583200000000033L49.10979999999995 25.440669999999955L52.072799999999916 27.879140000000007L53.24630000000002 27.10181L63.168100000000095 21.15966000000003L65.44859999999994 20.06380999999999L66.2768000000001 18.496719999999982L64.63990000000013 17.388219999999933L57.54300000000012 20.75658999999996L53.19939999999997 16.73257000000001L51.515100000000075 11.067729999999983L47.846900000000005 9.813459999999964L47.240099999999984 12.522649999999999L44.73960000000011 12.244669999999985L42.47550000000001 13.331090000000017L41.53710000000001 13.357610000000022L34.48669999999993 21.277180000000044L34.53539999999998 24.45817999999997L41.967800000000125 21.42417999999998L47.95049999999992 13.814409999999953L50.22479999999996 18.80935999999997L44.99279999999999 23.764519999999948z">
      <title id="t495-1">Deuxième circonscription des Hauts-de-Seine</title>
      <desc id="d495-1">Cantons de : Asnières-sur-Seine Nord, Asnières-sur-Seine Sud, Colombes Sud</desc>
    </path><path class="circo" id="id-092-03" d="M38.34920000000011 30.358859999999936L35.274599999999964 32.16904999999997L33.07770000000005 31.661200000000008L32.265100000000075 28.812090000000012L31.31600000000003 25.733169999999973L41.967800000000125 21.42417999999998L47.95049999999992 13.814409999999953L50.22479999999996 18.80935999999997L44.99279999999999 23.764519999999948L45.348199999999906 25.583200000000033L49.10979999999995 25.440669999999955L52.072799999999916 27.879140000000007L47.10460000000012 30.10217L41.914600000000064 35.19963999999993L38.34920000000011 30.358859999999936z">
      <title id="t496-0">Troisième circonscription des Hauts-de-Seine</title>
      <desc id="d496-5">Cantons de : Bois-Colombes, Courbevoie Nord, Courbevoie Sud (partie située au nord d'une ligne définie depuis la limite de la commune de Neuilly-sur-Seine, par l'axe des voies ci-après : prolongation de l'axe de la rue de l'Abreuvoir, rue de l'Abreuvoir, place Victor-Hugo, rue de Bezons et partie située à l'ouest de la ligne de chemin de fer de Paris à Versailles depuis la limite du canton de Courbevoie Nord jusqu'à la limite de la commune de Puteaux), La Garenne-Colombes</desc>
    </path><path class="circo" id="id-092-04" d="M8.833399999999983 31.582809999999995L10.692000000000007 29.72043999999994L20.588199999999915 24.218489999999974L28.040899999999965 17.383039999999937L31.31600000000003 25.733169999999973L32.265100000000075 28.812090000000012L33.07770000000005 31.661200000000008L29.24980000000005 39.04765999999995L33.21409999999992 42.04965000000004L32.30670000000009 46.88467000000003L30.02710000000002 52.41084000000001L21.706699999999955 51.711990000000014L20.620499999999993 50.313639999999964L24.6108999999999 47.18669L23.28559999999993 43.933539999999994L8.833399999999983 31.582809999999995z">
      <title id="t497-1">Quatrième circonscription des Hauts-de-Seine</title>
      <desc id="d497-6">Cantons de : Nanterre Nord, Nanterre Sud-Est, Nanterre Sud-Ouest, Suresnes</desc>
    </path><path class="circo" id="id-092-05" d="M52.072799999999916 27.879140000000007L47.10460000000012 30.10217L52.14370000000008 37.40549999999996L54.975200000000086 35.08870999999999L55.71309999999994 34.99198999999999L59.41229999999996 32.533379999999966L65.47289999999998 28.923729999999978L63.168100000000095 21.15966000000003L53.24630000000002 27.10181L52.072799999999916 27.879140000000007z">
      <title id="t498-0">Cinquième circonscription des Hauts-de-Seine</title>
      <desc id="d498-5">Cantons de : Clichy, Levallois-Perret Nord, Levallois-Perret Sud</desc>
    </path><path class="circo" id="id-092-06" d="M35.6114 45.10946000000001L32.30670000000009 46.88467000000003L33.21409999999992 42.04965000000004L29.24980000000005 39.04765999999995L33.07770000000005 31.661200000000008L35.274599999999964 32.16904999999997L38.34920000000011 30.358859999999936L41.914600000000064 35.19963999999993L47.10460000000012 30.10217L52.14370000000008 37.40549999999996L50.79449999999997 39.013169999999946L50.446100000000115 41.44434000000001L42.937200000000075 40.520939999999996L41.16750000000002 43.86143000000004L37.55989999999997 42.65607L35.6114 45.10946000000001z">
      <title id="t499-9">Sixième circonscription des Hauts-de-Seine</title>
      <desc id="d499-0">Cantons de : Courbevoie Sud (partie non comprise dans la 3e circonscription), Neuilly-sur-Seine Nord, Neuilly-sur-seine Sud, Puteau</desc>
    </path><path class="circo" id="id-092-07" d="M7.807299999999941 64.79944999999998L8.080400000000054 62.99700999999993L12.769800000000032 60.35112000000004L13.825900000000047 56.89474999999993L5.265699999999924 59.09326999999996L1.7082000000000335 52.92899L2.9692000000000007 49.55124000000001L1.6983999999999924 45.85614999999996L4.68139999999994 40.28293999999994L8.833399999999983 31.582809999999995L23.28559999999993 43.933539999999994L24.6108999999999 47.18669L20.620499999999993 50.313639999999964L21.706699999999955 51.711990000000014L30.02710000000002 52.41084000000001L29.480399999999918 55.77968999999996L29.413999999999987 66.27999999999997L27.22510000000011 70.94916L20.151299999999992 69.34428000000003L13.139799999999923 68.86644999999999L15.55359999999996 64.80574000000001L7.807299999999941 64.79944999999998z">
      <title id="t500-4">Septième circonscription des Hauts-de-Seine</title>
      <desc id="d500-5">Cantons de : Garches, Rueil-Malmaison, Saint-Cloud</desc>
    </path><path class="circo" id="id-092-08" d="M13.94679999999994 87.94935999999996L21.35699999999997 87.2776L23.807900000000018 90.05238999999995L24.1416999999999 93.76801999999998L29.472400000000107 95.24077L30.384700000000066 96.88018999999997L33.52040000000011 94.43043L34.29809999999998 88.51594L40.41360000000009 80.83259999999996L38.98260000000005 80.95835999999997L38.8599999999999 79.61662000000001L36.961500000000115 80.18024000000003L36.54809999999998 79.77503999999999L37.930900000000065 78.41255000000001L35.85220000000004 77.62518L36.66800000000012 76.6318L35.00590000000011 75.29090999999994L33.29639999999995 75.38638000000003L32.2668000000001 73.38144L30.0784000000001 70.21109999999999L29.413999999999987 66.27999999999997L27.22510000000011 70.94916L20.151299999999992 69.34428000000003L13.139799999999923 68.86644999999999L15.55359999999996 64.80574000000001L7.807299999999941 64.79944999999998L8.080400000000054 62.99700999999993L12.769800000000032 60.35112000000004L13.825900000000047 56.89474999999993L5.265699999999924 59.09326999999996L1.5652000000000044 59.69875999999999L0 65.27904999999998L0.9796000000001186 70.08498999999995L2.1048000000000684 74.13352999999995L1.8330000000000837 75.59645999999998L5.795100000000048 79.06371999999999L11.613599999999906 78.36036000000001L15.073699999999917 86.46304999999995L13.94679999999994 87.94935999999996z">
      <title id="t501-7">Huitième circonscription des Hauts-de-Seine</title>
      <desc id="d501-3">Cantons de: Chaville, Meudon, Sèvres</desc>
    </path><path class="circo" id="id-092-09" d="M29.413999999999987 66.27999999999997L30.0784000000001 70.21109999999999L33.45129999999995 69.02894000000003L39.02019999999993 72.20649000000003L43.99369999999999 66.97790999999995L41.1259 66.39942999999994L39.54829999999993 62.12708999999995L40.06400000000008 60.37094999999999L39.415899999999965 60.34642999999994L38.447000000000116 59.894270000000006L36.181100000000015 59.05134999999996L35.174999999999955 57.723960000000034L29.480399999999918 55.77968999999996L29.413999999999987 66.27999999999997z">
      <title id="t502-1">Neuvième circonscription des Hauts-de-Seine</title>
      <desc id="d502-7">Cantons de : Boulogne-Billancourt Nord-Est, Boulogne-Billancourt Nord-Ouest, Boulogne-Billancourt Sud (partie située au nord d'une ligne définie par l'axe des voies ci-après : rue Yves-Kermen, avenue Pierre-Grenier, boulevard de la République jusqu'au pont d'Issy)</desc>
    </path><path class="circo" id="id-092-10" d="M39.880300000000034 77.00383999999997L47.669000000000096 78.13864000000001L49.7813000000001 78.22208L54.81410000000005 76.09474L58.48849999999993 72.00702999999999L54.00279999999998 70.16560000000004L50.111000000000104 67.63887L47.88149999999996 70.42614000000003L45.81079999999997 70.46505000000002L45.712099999999964 68.46615999999995L46.808899999999994 67.72505000000001L45.904199999999946 66.53182000000004L43.99369999999999 66.97790999999995L39.02019999999993 72.20649000000003L33.45129999999995 69.02894000000003L30.0784000000001 70.21109999999999L32.2668000000001 73.38144L33.29639999999995 75.38638000000003L35.00590000000011 75.29090999999994L36.66800000000012 76.6318L35.85220000000004 77.62518L37.930900000000065 78.41255000000001L36.54809999999998 79.77503999999999L36.961500000000115 80.18024000000003L38.8599999999999 79.61662000000001L38.98260000000005 80.95835999999997L40.41360000000009 80.83259999999996L39.880300000000034 77.00383999999997z">
      <title id="t503-9">Dixième circonscription des Hauts-de-Seine</title>
      <desc id="d503-5">Cantons de : Boulogne-Billancourt Sud (partie non comprise dans la 9 circonscription), Issy-les-Moulineaux Est, Issy-les-Moulineaux Ouest, Vanves</desc>
    </path><path class="circo" id="id-092-11" d="M55.06510000000003 88.66616999999997L59.31529999999998 83.28462000000002L58.999700000000075 80.01442999999995L58.05030000000011 79.87901999999997L50.433700000000044 80.12756000000002L49.7813000000001 78.22208L54.81410000000005 76.09474L58.48849999999993 72.00702999999999L63.31459999999993 73.62949000000003L70.28929999999991 75.89648L69.99720000000002 76.64557000000002L68.92640000000006 78.48947999999996L67.80430000000001 80.72605999999996L65.16399999999999 80.66976L64.85370000000012 82.73520999999994L66.53970000000004 83.44498999999996L67.73790000000008 82.68571999999995L66.99829999999997 85.47883999999999L65.02099999999996 93.22662000000003L63.565599999999904 92.55102L61.640499999999975 94.98722999999995L59.23659999999995 94.70512999999994L56.86400000000003 89.38471000000004L55.06510000000003 88.66616999999997z">
      <title id="t504-1">Onzième circonscription des Hauts-de-Seine</title>
      <desc id="d504-8">Cantons de : Bagneux, Malakoff, Montrouge</desc>
    </path><path class="circo" id="id-092-12" d="M50.433700000000044 80.12756000000002L49.7813000000001 78.22208L47.669000000000096 78.13864000000001L39.880300000000034 77.00383999999997L40.41360000000009 80.83259999999996L34.29809999999998 88.51594L33.52040000000011 94.43043L30.384700000000066 96.88018999999997L30.358600000000024 100.01311999999996L31.217800000000125 100.94434999999999L34.45920000000001 99.90121999999997L35.37110000000007 101.54093999999998L42.836700000000064 101.60317999999995L50.31020000000012 96.36739L51.213199999999915 95.97910000000002L59.23659999999995 94.70512999999994L56.86400000000003 89.38471000000004L55.06510000000003 88.66616999999997L59.31529999999998 83.28462000000002L58.999700000000075 80.01442999999995L58.05030000000011 79.87901999999997L50.433700000000044 80.12756000000002z">
      <title id="t505-2">Douzième circonscription des Hauts-de-Seine</title>
      <desc id="d505-9">Cantons de : Châtillon, Clamart, Fontenay-aux-Roses, Le Plessis-Robinson</desc>
    </path><path class="circo" id="id-092-13" d="M58.781999999999925 120.95866000000001L51.76340000000005 123.96748000000002L49.86850000000004 123.73301000000004L48.403299999999945 120.20613000000003L51.85509999999999 116.00717999999995L49.016000000000076 111.11077L46.4362000000001 108.83974999999998L39.19509999999991 108.51267999999993L32.72939999999994 105.78710999999998L31.217800000000125 100.94434999999999L34.45920000000001 99.90121999999997L35.37110000000007 101.54093999999998L42.836700000000064 101.60317999999995L50.31020000000012 96.36739L51.213199999999915 95.97910000000002L59.23659999999995 94.70512999999994L61.640499999999975 94.98722999999995L63.565599999999904 92.55102L65.02099999999996 93.22662000000003L67.7034000000001 96.69631000000004L65.48980000000006 103.08811000000003L63.968399999999974 105.34012999999993L61.683899999999994 112.29044999999996L65.78680000000008 115.62199999999996L63.06230000000005 126.02682000000004L59.43489999999997 126.61261999999999L58.781999999999925 120.95866000000001z">
      <title id="t506-2">Treizième circonscription des Hauts-de-Seine</title>
      <desc id="d506-1">Cantons de : Antony, Bourg-la-Reine, Châtenay-Malabry, Sceaux</desc>
    </path></svg>