<svg xmlns="http://www.w3.org/2000/svg" version="1.1" xmlns:xlink="http://www.w3.org/1999/xlink" xmlns:svgjs="http://svgjs.dev/svgjs" viewBox="0 0 118.19560000000001 117.33638999999994"><path class="circo" id="id-093-01" d="M0 30.62696999999997L1.4363999999998214 34.97827000000001L0.9455000000000382 35.21947L8.732899999999972 36.948559999999986L17.476400000000012 40.61899L17.878799999999956 46.32787999999999L15.045899999999847 51.37311L12.626800000000003 53.71618999999998L11.798599999999851 55.283270000000016L9.518100000000004 56.37911999999994L11.822999999999865 64.14319L15.62259999999992 63.740209999999934L23.85889999999995 63.53189999999995L29.119199999999864 63.48436000000004L29.390099999999848 52.443899999999985L28.523400000000038 49.069470000000024L25.36739999999986 48.83795999999995L23.96460000000002 47.98746999999997L21.83420000000001 43.69893999999999L19.348799999999983 40.50842L19.966699999999946 39.70763999999997L19.35759999999982 38.84231L20.10699999999997 37.59308999999996L21.572599999999966 37.76151999999996L16.875699999999824 32.689809999999966L15.005099999999857 30.237269999999967L11.912799999999834 30.95930999999996L9.299499999999853 28.771419999999978L3.820899999999938 26.40278999999998L0 30.62696999999997z">
      <title id="t507-9">Première circonscription de Seine-Saint-Denis</title>
      <desc id="d507-3">Cantons de : Epinay-sur-Seine, Saint-Denis Sud, Saint Ouen</desc>
    </path><path class="circo" id="id-093-02" d="M19.348799999999983 40.50842L19.966699999999946 39.70763999999997L19.35759999999982 38.84231L20.10699999999997 37.59308999999996L21.572599999999966 37.76151999999996L16.875699999999824 32.689809999999966L20.78559999999993 25.911020000000008L24.45769999999993 26.81887999999998L29.232999999999947 21.888509999999997L32.912599999999884 23.153009999999995L31.898999999999887 28.86135999999999L29.38429999999994 31.79820000000001L31.236400000000003 37.30147999999997L36.446699999999964 38.74399999999997L41.40469999999982 36.86662999999999L37.27929999999992 40.83950999999996L32.463399999999865 50.84857999999997L29.390099999999848 52.443899999999985L28.523400000000038 49.069470000000024L25.36739999999986 48.83795999999995L23.96460000000002 47.98746999999997L19.348799999999983 40.50842z">
      <title id="t508-9">Deuxième circonscription de Seine-Saint-Denis</title>
      <desc id="d508-5">Cantons de : Pierrefitte-sur-Seine, Saint-Denis Nord-Est, Saint-Denis Nord-Ouest</desc>
    </path><path class="circo" id="id-093-03" d="M81.0755999999999 88.87359000000004L79.48649999999998 89.76285999999993L78.23519999999985 87.34378000000004L83.02769999999987 77.04026999999996L87.28229999999985 78.95389999999998L90.82259999999997 79.11749999999995L98.18419999999992 80.09285999999997L104.73079999999982 84.01741000000004L105.16549999999984 83.89157L112.45179999999982 84.42867000000001L110.64189999999985 89.46318999999994L107.37389999999982 91.0752L112.05659999999989 102.01217999999994L115.63619999999992 113.43467999999996L114.31359999999995 117.33638999999994L105.95959999999991 112.95185000000004L105.36559999999986 111.14046999999994L105.42849999999999 107.63513999999998L93.38369999999986 99.57645000000002L93.57229999999981 97.60646999999994L85.48079999999982 92.22001L84.73630000000003 92.91358000000002L81.0755999999999 88.87359000000004z">
      <title id="t509-4">Troisième circonscription de Seine-Saint-Denis</title>
      <desc id="d509-5">Cantons de : Neuilly-sur-Marne, Neuilly-Plaisance, Noisy-le-Grand</desc>
    </path><path class="circo" id="id-093-04" d="M66.23559999999998 52.56642999999997L65.35429999999997 46.774009999999976L63.077800000000025 43.52427L61.57420000000002 42.22631000000001L57.86169999999993 43.096990000000005L54.39850000000001 42.20510999999999L55.148299999999836 38.58819L48.57069999999999 41.71709999999996L47.54419999999982 45.30439999999999L50.25579999999991 47.44236000000001L47.044399999999996 53.377790000000005L45.750999999999976 54.849879999999985L44.80639999999994 54.15192000000002L41.50339999999983 51.936590000000024L35.71100000000001 53.14017999999999L32.463399999999865 50.84857999999997L37.27929999999992 40.83950999999996L41.40469999999982 36.86662999999999L36.446699999999964 38.74399999999997L31.236400000000003 37.30147999999997L29.38429999999994 31.79820000000001L31.898999999999887 28.86135999999999L32.912599999999884 23.153009999999995L35.362699999999904 23.571390000000008L44.745299999999816 32.26062999999999L49.059299999999894 31.331790000000012L59.84649999999988 32.44972999999999L63.04279999999994 32.46348999999998L64.35040000000004 32.87718000000001L67.89199999999983 34.63561999999996L72.59809999999993 43.29516000000001L71.84079999999994 53.085199999999986L69.90999999999985 53.854780000000005L66.23559999999998 52.56642999999997z">
      <title id="t510-1">Quatrième circonscription de Seine-Saint-Denis</title>
      <desc id="d510-9">Cantons de : Le Blanc-Mesnil, La Courneuve, Stains, commune de Dugny</desc>
    </path><path class="circo" id="id-093-05" d="M47.41799999999989 61.60234000000003L45.750999999999976 54.849879999999985L47.044399999999996 53.377790000000005L50.25579999999991 47.44236000000001L47.54419999999982 45.30439999999999L48.57069999999999 41.71709999999996L55.148299999999836 38.58819L54.39850000000001 42.20510999999999L57.86169999999993 43.096990000000005L61.57420000000002 42.22631000000001L63.077800000000025 43.52427L65.35429999999997 46.774009999999976L66.23559999999998 52.56642999999997L69.90999999999985 53.854780000000005L70.26679999999988 55.01130999999998L68.2527 61.676169999999956L57.500099999999975 65.38976000000002L52.39819999999986 66.75933999999995L47.41799999999989 61.60234000000003z">
      <title id="t511-5">Cinquième circonscription de Seine-Saint-Denis</title>
      <desc id="d511-9">Cantons de : Bobigny, Le Bourget (moins la commune de Dugny), Drancy</desc>
    </path><path class="circo" id="id-093-06" d="M29.119199999999864 63.48436000000004L29.390099999999848 52.443899999999985L32.463399999999865 50.84857999999997L35.71100000000001 53.14017999999999L41.50339999999983 51.936590000000024L44.80639999999994 54.15192000000002L45.750999999999976 54.849879999999985L47.41799999999989 61.60234000000003L52.39819999999986 66.75933999999995L51.155700000000024 69.44506999999999L46.22199999999998 73.99937L44.763099999999895 70.99014999999997L41.45959999999991 70.46424999999999L40.649999999999864 66.58479999999997L40.06529999999998 65.16422999999998L38.41509999999994 63.74365999999998L36.215599999999995 63.08528000000001L30.78710000000001 63.46033L29.119199999999864 63.48436000000004z">
      <title id="t512-9">Sixième circonscription de Seine-Saint-Denis</title>
      <desc id="d512-2">Cantons de : Aubervilliers Est, Aubervilliers Ouest, Pantin Est, Pantin Ouest</desc>
    </path><path class="circo" id="id-093-07" d="M46.962499999999864 79.78738999999996L49.52369999999996 77.18040999999994L53.14799999999991 76.83028000000002L55.75469999999996 77.5729L55.271799999999985 78.94992000000002L58.01219999999989 80.49960999999996L61.406799999999976 76.71474999999998L66.33389999999986 76.95329000000004L68.9206999999999 81.71057999999994L72.2989 83.02562999999998L72.64459999999985 86.48478999999998L62.39570000000003 89.90751999999998L59.68979999999988 92.34863999999993L55.98090000000002 91.41315999999995L52.941299999999956 93.65691000000004L49.103999999999814 93.39158999999995L48.11519999999996 93.44533000000001L47.730999999999995 90.04876000000002L46.962499999999864 79.78738999999996z">
      <title id="t513-3">Septième circonscription de Seine-Saint-Denis</title>
      <desc id="d513-3">Cantons de : Bagnolet, Montreuil Est, Montreuil Nord, Montreuil Ouest</desc>
    </path><path class="circo" id="id-093-08" d="M98.18419999999992 80.09285999999997L90.82259999999997 79.11749999999995L87.28229999999985 78.95389999999998L83.02769999999987 77.04026999999996L78.23519999999985 87.34378000000004L72.64459999999985 86.48478999999998L72.2989 83.02562999999998L68.9206999999999 81.71057999999994L66.33389999999986 76.95329000000004L70.80319999999983 70.89286000000004L74.6268 71.82502L77.87439999999992 70.16210000000001L79.53659999999991 66.84232999999995L82.46730000000002 65.25413000000003L83.9873 70.39103999999998L85.68529999999987 71.16296L86.43959999999993 69.45480999999995L91.12490000000003 68.66508999999996L91.67509999999993 67.13306L93.91579999999999 65.01489000000004L97.11829999999986 65.03719999999998L98.35500000000002 72.22498999999993L101.94439999999986 72.79661999999996L106.12119999999982 76.62206000000003L105.16549999999984 83.89157L104.73079999999982 84.01741000000004L98.18419999999992 80.09285999999997z">
      <title id="t514-5">Huitième circonscription de Seine-Saint-Denis</title>
      <desc id="d514-7">Cantons de : Gagny, Rosny-sous-Bois, Villemomble</desc>
    </path><path class="circo" id="id-093-09" d="M55.271799999999985 78.94992000000002L55.75469999999996 77.5729L53.14799999999991 76.83028000000002L49.52369999999996 77.18040999999994L46.962499999999864 79.78738999999996L45.990499999999884 76.72329000000002L42.09439999999995 73.70637999999997L41.45959999999991 70.46424999999999L44.763099999999895 70.99014999999997L46.22199999999998 73.99937L51.155700000000024 69.44506999999999L52.39819999999986 66.75933999999995L57.500099999999975 65.38976000000002L68.2527 61.676169999999956L70.26679999999988 55.01130999999998L69.90999999999985 53.854780000000005L71.84079999999994 53.085199999999986L76.4822999999999 54.743960000000015L76.28139999999985 58.570640000000026L72.0634 60.45213000000001L71.9097999999999 62.496170000000006L72.89469999999983 62.967269999999985L72.02229999999986 66.42841999999996L71.05240000000003 66.18137999999999L70.66290000000004 67.36659999999995L71.69249999999988 68.18690000000004L71.2047 69.16102000000001L70.80319999999983 70.89286000000004L66.33389999999986 76.95329000000004L61.406799999999976 76.71474999999998L58.01219999999989 80.49960999999996L55.271799999999985 78.94992000000002z">
      <title id="t515-8">Neuvième circonscription de Seine-Saint-Denis</title>
      <desc id="d515-1">Cantons de : Bondy Nord-Ouest, Les Lilas, Noisy-le-Sec, Romainville</desc>
    </path><path class="circo" id="id-093-10" d="M71.84079999999994 53.085199999999986L76.4822999999999 54.743960000000015L76.28139999999985 58.570640000000026L72.0634 60.45213000000001L71.9097999999999 62.496170000000006L72.89469999999983 62.967269999999985L72.02229999999986 66.42841999999996L71.05240000000003 66.18137999999999L70.66290000000004 67.36659999999995L71.69249999999988 68.18690000000004L71.2047 69.16102000000001L70.80319999999983 70.89286000000004L74.6268 71.82502L77.87439999999992 70.16210000000001L79.53659999999991 66.84232999999995L82.46730000000002 65.25413000000003L83.70269999999982 63.37791000000004L86.66089999999986 58.64451999999994L83.14719999999988 57.389009999999985L82.33889999999997 53.723049999999944L86.20100000000002 49.71360000000004L82.66739999999982 42.92169999999999L84.2011 39.24928L88.67759999999998 35.44578999999999L78.09089999999992 22.751750000000015L76.25440000000003 22.454250000000002L67.01549999999997 28.061329999999998L64.35040000000004 32.87718000000001L67.89199999999983 34.63561999999996L72.59809999999993 43.29516000000001L71.84079999999994 53.085199999999986z">
      <title id="t516-5">Dixième circonscription de Seine-Saint-Denis</title>
      <desc id="d516-3">Cantons de : Aulnay-sous-Bois Nord, Aulnay-sous-Bois Sud, Bondy Sud-Est, Les Pavillons-sous-Bois</desc>
    </path><path class="circo" id="id-093-11" d="M82.66739999999982 42.92169999999999L84.2011 39.24928L88.67759999999998 35.44578999999999L78.09089999999992 22.751750000000015L79.78839999999991 21.28204999999997L80.30060000000003 19.418439999999975L83.94129999999996 18.008759999999995L91.93759999999997 4.57396L97.53839999999991 4.613529999999969L99.55719999999997 1.4816999999999894L104.34709999999995 0L106.50540000000001 6.234350000000006L108.1289999999999 6.947839999999985L109.68139999999994 14.612359999999967L108.1277 18.234640000000013L104.36609999999996 19.32729999999998L104.55160000000001 21.300369999999987L114.17239999999993 36.14763999999997L115.68889999999988 42.29562999999996L107.72090000000003 42.956050000000005L105.56119999999987 39.65030999999999L104.67200000000003 43.291709999999966L101.05599999999981 44.1927L101.13079999999991 44.63029999999998L97.23779999999988 44.68297000000001L93.3279 48.784760000000006L86.20100000000002 49.71360000000004L82.66739999999982 42.92169999999999z">
      <title id="t517-0">Onzième circonscription de Seine-Saint-Denis</title>
      <desc id="d517-5">Cantons de : Sevran, Tremblay-en-France, Villepinte</desc>
    </path><path class="circo" id="id-093-12" d="M83.70269999999982 63.37791000000004L82.46730000000002 65.25413000000003L83.9873 70.39103999999998L85.68529999999987 71.16296L86.43959999999993 69.45480999999995L91.12490000000003 68.66508999999996L91.67509999999993 67.13306L93.91579999999999 65.01489000000004L97.11829999999986 65.03719999999998L98.35500000000002 72.22498999999993L101.94439999999986 72.79661999999996L104.6078 69.98757L111.95119999999997 67.17426999999998L111.74669999999992 63.381939999999986L113.98910000000001 60.31208000000004L114.34680000000003 59.99666000000002L113.09770000000003 58.69547L114.33709999999996 50.07952999999998L118.19560000000001 47.59816999999998L118.12249999999995 44.18412000000001L115.68889999999988 42.29562999999996L107.72090000000003 42.956050000000005L105.56119999999987 39.65030999999999L104.67200000000003 43.291709999999966L101.05599999999981 44.1927L101.13079999999991 44.63029999999998L97.23779999999988 44.68297000000001L93.3279 48.784760000000006L86.20100000000002 49.71360000000004L82.33889999999997 53.723049999999944L83.14719999999988 57.389009999999985L86.66089999999986 58.64451999999994L83.70269999999982 63.37791000000004z">
      <title id="t518-1">Douzième circonscription de Seine-Saint-Denis</title>
      <desc id="d518-4">Cantons de : Livry-Gargan, Montfermeil, Le Raincy</desc>
    </path></svg>