<svg xmlns="http://www.w3.org/2000/svg" version="1.1" xmlns:xlink="http://www.w3.org/1999/xlink" xmlns:svgjs="http://svgjs.dev/svgjs" viewBox="0 0 114.75929999999994 98.42111"><path class="circo" id="id-094-01" d="M61.138999999999896 48.14256999999998L61.938899999999876 49.59412999999995L60.87339999999995 50.54598999999996L63.12999999999988 54.80840999999998L61.51170000000002 56.74567000000002L65.76330000000007 59.62342000000001L69.08269999999993 58.40030999999999L71.54549999999995 56.17201L69.91090000000008 55.042959999999994L71.30780000000004 49.32447000000002L76.36149999999998 43.53060000000005L78.02629999999999 42.76535999999999L80.28199999999993 38.08739000000003L79.94290000000001 32.77741000000003L77.43049999999994 29.910639999999944L75.30269999999996 29.45114000000001L75.69180000000006 27.283699999999953L73.75520000000006 26.296870000000013L74.19159999999988 24.89922999999999L73.68299999999999 24.927029999999945L72.05629999999996 23.85906L70.19329999999991 21.59734000000003L64.92180000000008 24.03913L64.10300000000007 27.375009999999975L62.59660000000008 26.5779L56.746200000000044 29.747259999999983L57.973199999999906 30.879009999999994L55.25759999999991 31.969280000000026L56.655500000000075 33.58159999999998L54.07670000000007 35.56654000000003L53.5136 35.565920000000006L52.37650000000008 38.83545000000004L54.31079999999997 39.85658000000001L53.978000000000065 40.56902000000002L54.969499999999925 42.250260000000026L54.73180000000002 42.72542999999996L55.91540000000009 43.563890000000015L56.178300000000036 45.068430000000035L58.04449999999997 44.814840000000004L58.684600000000046 43.76643999999999L59.76369999999997 45.09109000000001L60.5936999999999 44.99048000000005L61.08459999999991 46.28657999999996L61.93709999999987 47.62914999999998L61.138999999999896 48.14256999999998z">
      <title id="t519-7">Première circonscription du Val-de-Marne</title>
      <desc id="d519-8">Cantons de : Bonneuil-sur-Marne, Champigny-sur-Marne Ouest, Créteil Nord, Saint-Maur-des-Fossés Centre, Saint-Maur-des-Fossés Ouest, Saint-Maur-la-Varenne</desc>
    </path><path class="circo" id="id-094-02" d="M34.27240000000006 55.83184000000006L34.516799999999876 50.21280999999999L38.465999999999894 49.75153L39.5646999999999 48.09007999999994L44.47980000000007 48.78833999999995L46.25389999999993 42.67912999999999L52.58899999999994 33.08987000000002L55.25759999999991 31.969280000000026L56.655500000000075 33.58159999999998L54.07670000000007 35.56654000000003L53.5136 35.565920000000006L52.37650000000008 38.83545000000004L54.31079999999997 39.85658000000001L53.978000000000065 40.56902000000002L54.969499999999925 42.250260000000026L54.73180000000002 42.72542999999996L55.91540000000009 43.563890000000015L56.178300000000036 45.068430000000035L58.04449999999997 44.814840000000004L58.684600000000046 43.76643999999999L59.76369999999997 45.09109000000001L60.5936999999999 44.99048000000005L61.08459999999991 46.28657999999996L61.93709999999987 47.62914999999998L61.138999999999896 48.14256999999998L61.938899999999876 49.59412999999995L60.87339999999995 50.54598999999996L63.12999999999988 54.80840999999998L61.51170000000002 56.74567000000002L59.69339999999988 56.61437999999998L59.03690000000006 54.899099999999976L50.455400000000054 51.738860000000045L47.44460000000004 53.79395999999997L50.330600000000004 56.56587000000002L44.925899999999956 57.38494000000003L44.253999999999905 62.87755000000004L47.80970000000002 66.31615999999997L38.512500000000045 67.76431000000002L29.963799999999992 71.3039L28.173700000000053 74.67819999999995L22.809799999999996 76.27539000000002L22.58400000000006 65.89680999999996L30.951700000000073 62.658969999999954L36.328500000000076 63.048760000000016L34.27240000000006 55.83184000000006z">
      <title id="t520-5">Deuxième circonscription du Val-de-Marne</title>
      <desc id="d520-2">Cantons de : Choisy-le-Roi, Créteil Ouest, Créteil Sud, Orly</desc>
    </path><path class="circo" id="id-094-03" d="M69.08269999999993 58.40030999999999L65.76330000000007 59.62342000000001L61.51170000000002 56.74567000000002L59.69339999999988 56.61437999999998L59.03690000000006 54.899099999999976L50.455400000000054 51.738860000000045L47.44460000000004 53.79395999999997L50.330600000000004 56.56587000000002L44.925899999999956 57.38494000000003L44.253999999999905 62.87755000000004L47.80970000000002 66.31615999999997L38.512500000000045 67.76431000000002L29.963799999999992 71.3039L28.173700000000053 74.67819999999995L22.809799999999996 76.27539000000002L22.911599999999908 80.66081999999994L28.885500000000093 80.70587999999998L38.07690000000002 77.31178999999997L39.29860000000008 82.00675999999999L47.14889999999991 78.42511999999999L49.031400000000076 77.66254000000004L50.053100000000086 80.36941999999999L53.18029999999999 83.68105000000003L52.68939999999998 79.98100999999997L57.547399999999925 76.78756999999996L61.391799999999876 76.44362999999998L62.297000000000025 76.42708000000005L65.74430000000007 75.58344999999997L75.34210000000007 72.39752999999996L79.59359999999992 85.15508999999997L82.68820000000005 88.63951999999995L81.67010000000005 89.46624999999995L83.25160000000005 92.28715999999997L88.23049999999989 93.04762000000005L89.99399999999991 98.42111L98.52099999999996 96.71234000000004L100.78510000000006 92.72666000000004L99.53160000000003 91.59504000000004L97.44669999999996 88.04714000000001L97.19569999999999 87.04876000000002L101.81209999999987 79.05822999999998L107.18219999999997 74.02792L104.57770000000005 67.02656000000002L109.01520000000005 63.22166000000004L108.25999999999999 57.614979999999946L105.00659999999993 56.00419999999997L102.39010000000007 60.715239999999994L100.57310000000007 60.74033999999995L97.90879999999993 63.01795000000004L92.87249999999995 61.054790000000025L81.74090000000001 60.215850000000046L71.54549999999995 56.17201L69.08269999999993 58.40030999999999z">
      <title id="t521-8">Troisième circonscription du Val-de-Marne</title>
      <desc id="d521-9">Cantons de : Boissy-Saint-Léger, Valenton, Villecresnes, Villeneuve-le-Roi, Villeneuve-Saint-Georges</desc>
    </path><path class="circo" id="id-094-04" d="M78.02629999999999 42.76535999999999L76.36149999999998 43.53060000000005L71.30780000000004 49.32447000000002L69.91090000000008 55.042959999999994L71.54549999999995 56.17201L81.74090000000001 60.215850000000046L92.87249999999995 61.054790000000025L97.90879999999993 63.01795000000004L100.57310000000007 60.74033999999995L102.39010000000007 60.715239999999994L105.00659999999993 56.00419999999997L108.25999999999999 57.614979999999946L114.75929999999994 57.29989999999998L111.6072999999999 50.34357L105.81439999999998 50.90191000000004L104.34349999999995 49.5951L108.73900000000003 38.889279999999985L106.00209999999993 36.60233000000005L107.86650000000009 31.629689999999982L106.27960000000007 30.85161000000005L97.9257 26.467070000000035L97.33159999999998 24.65569000000005L97.39449999999988 21.150359999999978L85.34979999999996 13.091670000000022L84.5893000000001 16.20132000000001L80.94900000000007 19.4461L83.67789999999991 24.189409999999953L93.15930000000003 24.411699999999996L95.59429999999998 27.409850000000006L93.57359999999994 30.760779999999954L90.67470000000003 32.68884000000003L83.3424 31.518890000000056L79.94290000000001 32.77741000000003L80.28199999999993 38.08739000000003L78.02629999999999 42.76535999999999z">
      <title id="t522-6">Quatrième circonscription du Val-de-Marne</title>
      <desc id="d522-8">Cantons de : Chennevières-sur-Marne, Ormesson-sur-Marne, Sucy-en-Brie, Villiers-sur-Marne</desc>
    </path><path class="circo" id="id-094-05" d="M79.94290000000001 32.77741000000003L77.43049999999994 29.910639999999944L75.30269999999996 29.45114000000001L75.69180000000006 27.283699999999953L73.75520000000006 26.296870000000013L74.19159999999988 24.89922999999999L73.68299999999999 24.927029999999945L72.05629999999996 23.85906L70.19329999999991 21.59734000000003L65.54819999999995 23.71205999999995L64.92180000000008 24.03913L62.455400000000054 17.60514999999998L58.6739 20.082220000000007L57.838199999999915 20.860649999999964L57.802400000000034 20.01764000000003L58.23440000000005 17.42903000000001L59.79690000000005 15.42174L59.240099999999984 12.763540000000035L68.36909999999989 7.87482L71.45260000000007 3.2780800000000454L73.04169999999999 2.388810000000035L76.70229999999992 6.428800000000024L77.44679999999994 5.735230000000001L85.53829999999994 11.121689999999944L85.34979999999996 13.091670000000022L84.5893000000001 16.20132000000001L80.94900000000007 19.4461L83.67789999999991 24.189409999999953L93.15930000000003 24.411699999999996L95.59429999999998 27.409850000000006L93.57359999999994 30.760779999999954L90.67470000000003 32.68884000000003L83.3424 31.518890000000056L79.94290000000001 32.77741000000003z">
      <title id="t523-2">Cinquième circonscription du Val-de-Marne</title>
      <desc id="d523-3">Cantons de : Bry-sur-Marne, Champigny-sur-Marne Centre, Champigny-sur-Marne Est, Nogent-sur-Marne, Le Perreux-sur-Marne</desc>
    </path><path class="circo" id="id-094-06" d="M51.4061999999999 9.624630000000025L51.937799999999925 9.49228000000005L59.240099999999984 12.763540000000035L68.36909999999989 7.87482L71.45260000000007 3.2780800000000454L70.20119999999997 0.8590000000000373L64.61069999999995 0L54.36169999999993 3.4227300000000014L51.655899999999974 5.863860000000045L47.94699999999989 4.928379999999947L44.90730000000008 7.172130000000038L41.07009999999991 6.90680999999995L40.08120000000008 6.960550000000012L39.94360000000006 8.452869999999962L39.280899999999974 12.383180000000038L38.06940000000009 15.570730000000026L39.22649999999999 15.909170000000017L42.0634 14.762069999999994L41.669399999999996 12.110149999999976L41.21129999999994 11.072999999999979L41.60259999999994 10.206000000000017L42.18550000000005 9.788630000000012L43.07529999999997 11.22819000000004L44.28629999999998 11.341199999999958L47.88589999999999 11.821550000000002L48.18419999999992 9.768839999999955L49.172599999999875 9.77588000000003L49.2956999999999 8.794459999999958L51.44029999999998 8.868870000000015L51.4061999999999 9.624630000000025z">
      <title id="t524-3">Sixième circonscription du Val-de-Marne</title>
      <desc id="d524-0">Cantons de : Fontenay-sous-Bois Est, Fontenay-sous-Bois Ouest, Saint-Mandé, Vincennes Est, Vincennes Ouest</desc>
    </path><path class="circo" id="id-094-07" d="M2.28449999999998 54.074820000000045L0 61.02512999999999L4.102799999999888 64.35667999999998L5.280700000000024 63.28898000000004L7.877299999999877 64.72987L11.524200000000064 68.77876000000003L16.60570000000007 70.11725999999999L22.58400000000006 65.89680999999996L30.951700000000073 62.658969999999954L36.328500000000076 63.048760000000016L34.27240000000006 55.83184000000006L34.516799999999876 50.21280999999999L23.490999999999985 52.480999999999995L21.849699999999984 51.46195L21.618600000000015 46.877899999999954L18.004899999999907 47.0566L12.21289999999999 42.65629000000001L11.448900000000094 44.409419999999955L6.01949999999988 45.43098999999995L3.80580000000009 51.822790000000055L2.28449999999998 54.074820000000045z">
      <title id="t525-4">Septième circonscription du Val-de-Marne</title>
      <desc id="d525-1">Cantons de : Chevilly-Larue, Fresnes, L'Hay-les-Roses, Thiais</desc>
    </path><path class="circo" id="id-094-08" d="M30.19659999999999 20.417699999999968L35.17319999999995 18.390449999999987L37.40899999999988 20.801829999999995L41.452999999999975 21.340079999999944L44.91799999999989 22.07791999999995L47.6739 25.193589999999972L52.39020000000005 25.551109999999994L55.685199999999895 26.020530000000008L57.010099999999966 24.810609999999997L57.938699999999926 22.123469999999998L57.838199999999915 20.860649999999964L58.6739 20.082220000000007L62.455400000000054 17.60514999999998L64.92180000000008 24.03913L64.10300000000007 27.375009999999975L62.59660000000008 26.5779L56.746200000000044 29.747259999999983L57.973199999999906 30.879009999999994L52.58899999999994 33.08987000000002L46.25389999999993 42.67912999999999L43.106199999999944 30.927569999999946L39.916999999999916 25.766539999999964L37.22970000000009 25.43168000000003L30.19659999999999 20.417699999999968z">
      <title id="t526-6">Huitième circonscription du Val-de-Marne</title>
      <desc id="d526-8">Cantons de : Charenton-le-Pont, Joinville-le-Pont, Maisons-Alfort Nord, Maisons-Alfort Sud</desc>
    </path><path class="circo" id="id-094-09" d="M38.465999999999894 49.75153L34.516799999999876 50.21280999999999L23.490999999999985 52.480999999999995L21.849699999999984 51.46195L21.618600000000015 46.877899999999954L24.791500000000042 42.11778000000004L23.7503999999999 36.51526000000001L25.58739999999989 35.199550000000045L27.216300000000047 36.89916000000005L27.23090000000002 38.34045000000003L28.201999999999998 38.02072999999996L29.868099999999913 41.079200000000014L32.72849999999994 39.19664999999998L31.797199999999975 37.36919999999998L33.80989999999997 36.49162000000001L34.28309999999988 35.511480000000006L35.16439999999989 35.94101999999998L35.8291999999999 37.76886000000002L40.360999999999876 37.13597000000004L37.80119999999988 33.21456999999998L37.27620000000002 30.262010000000032L37.22970000000009 25.43168000000003L39.916999999999916 25.766539999999964L43.106199999999944 30.927569999999946L46.25389999999993 42.67912999999999L44.47980000000007 48.78833999999995L39.5646999999999 48.09007999999994L38.465999999999894 49.75153z">
      <title id="t527-9">Neuvième circonscription du Val-de-Marne</title>
      <desc id="d527-8">Cantons de: Alfortville Nord, Alfortville Sud, Vitry-sur-Seine Est, Vitry-sur-Seine Ouest</desc>
    </path><path class="circo" id="id-094-10" d="M14.29690000000005 34.53797999999995L13.199100000000044 31.845080000000053L11.330699999999979 28.77093000000002L14.097299999999905 27.227700000000027L14.048600000000079 26.889519999999948L15.194999999999936 26.18001000000004L14.645700000000033 25.53597000000002L16.198900000000094 24.69286999999997L17.510899999999992 25.981970000000047L20.44029999999998 25.737420000000043L30.19659999999999 20.417699999999968L37.22970000000009 25.43168000000003L37.27620000000002 30.262010000000032L37.80119999999988 33.21456999999998L40.360999999999876 37.13597000000004L35.8291999999999 37.76886000000002L35.16439999999989 35.94101999999998L34.28309999999988 35.511480000000006L33.80989999999997 36.49162000000001L31.797199999999975 37.36919999999998L32.72849999999994 39.19664999999998L29.868099999999913 41.079200000000014L28.201999999999998 38.02072999999996L27.23090000000002 38.34045000000003L27.216300000000047 36.89916000000005L25.58739999999989 35.199550000000045L23.7503999999999 36.51526000000001L23.08420000000001 32.822520000000054L21.60050000000001 30.51224000000002L14.29690000000005 34.53797999999995z">
      <title id="t528-8">Dixième circonscription du Val-de-Marne</title>
      <desc id="d528-9">Cantons de : Ivry-sur-Seine Est, Ivry-sur-Seine Ouest, Le Kremlin-Bicêtre, Vitry-sur-Seine Nord</desc>
    </path><path class="circo" id="id-094-11" d="M3.337099999999964 41.96130000000005L6.01949999999988 45.43098999999995L11.448900000000094 44.409419999999955L12.21289999999999 42.65629000000001L18.004899999999907 47.0566L21.618600000000015 46.877899999999954L24.791500000000042 42.11778000000004L23.08420000000001 32.822520000000054L21.60050000000001 30.51224000000002L14.29690000000005 34.53797999999995L13.199100000000044 31.845080000000053L11.330699999999979 28.77093000000002L14.097299999999905 27.227700000000027L14.048600000000079 26.889519999999948L15.194999999999936 26.18001000000004L14.645700000000033 25.53597000000002L13.821500000000015 25.798059999999964L10.283899999999903 25.54720999999995L8.313300000000027 25.380250000000046L7.242500000000064 27.224159999999983L6.120400000000018 29.460739999999987L3.480099999999993 29.404440000000022L3.1697999999998956 31.469889999999964L4.855800000000045 32.17966999999999L6.054000000000087 31.420409999999947L5.314399999999978 34.21352000000002L3.337099999999964 41.96130000000005z">
      <title id="t529-4">Onzième circonscription du Val-de-Marne</title>
      <desc id="d529-6">Cantons de : Arcueil, Cachan, Villejuif Est, Villejuif Ouest</desc>
    </path></svg>