<svg xmlns="http://www.w3.org/2000/svg" version="1.1" xmlns:xlink="http://www.w3.org/1999/xlink" xmlns:svgjs="http://svgjs.dev/svgjs" viewBox="1468.1675 550.10172 114.75929999999994 98.42111"><path class="circo" id="id-094-01" d="M 1529.3065,598.24429 1530.1064,599.69585 1529.0409,600.64771 1531.2975,604.91013 1529.6792,606.84739 1533.9308,609.72514 1537.2502,608.50203 1539.713,606.27373 1538.0784,605.14468 1539.4753,599.42619 1544.529,593.63232 1546.1938,592.86708 1548.4495,588.18911 1548.1104,582.87913 1545.598,580.01236 1543.4702,579.55286 1543.8593,577.38542 1541.9227,576.39859 1542.3591,575.00095 1541.8505,575.02875 1540.2238,573.96078 1538.3608,571.69906 1533.0893,574.14085 1532.2705,577.47673 1530.7641,576.67962 1524.9137,579.84898 1526.1407,580.98073 1523.4251,582.071 1524.823,583.68332 1522.2442,585.66826 1521.6811,585.66764 1520.544,588.93717 1522.4783,589.9583 1522.1455,590.67074 1523.137,592.35198 1522.8993,592.82715 1524.0829,593.66561 1524.3458,595.17015 1526.212,594.91656 1526.8521,593.86816 1527.9312,595.19281 1528.7612,595.0922 1529.2521,596.3883 1530.1046,597.73087 1529.3065,598.24429 z">
      <title id="t519-7">Première circonscription du Val-de-Marne</title>
      <desc id="d519-8">Cantons de : Bonneuil-sur-Marne, Champigny-sur-Marne Ouest, Créteil Nord, Saint-Maur-des-Fossés Centre, Saint-Maur-des-Fossés Ouest, Saint-Maur-la-Varenne</desc>
    </path><path class="circo" id="id-094-02" d="M 1502.4399,605.93356 1502.6843,600.31453 1506.6335,599.85325 1507.7322,598.1918 1512.6473,598.89006 1514.4214,592.78085 1520.7565,583.19159 1523.4251,582.071 1524.823,583.68332 1522.2442,585.66826 1521.6811,585.66764 1520.544,588.93717 1522.4783,589.9583 1522.1455,590.67074 1523.137,592.35198 1522.8993,592.82715 1524.0829,593.66561 1524.3458,595.17015 1526.212,594.91656 1526.8521,593.86816 1527.9312,595.19281 1528.7612,595.0922 1529.2521,596.3883 1530.1046,597.73087 1529.3065,598.24429 1530.1064,599.69585 1529.0409,600.64771 1531.2975,604.91013 1529.6792,606.84739 1527.8609,606.7161 1527.2044,605.00082 1518.6229,601.84058 1515.6121,603.89568 1518.4981,606.66759 1513.0934,607.48666 1512.4215,612.97927 1515.9772,616.41788 1506.68,617.86603 1498.1313,621.40562 1496.3412,624.77992 1490.9773,626.37711 1490.7515,615.99853 1499.1192,612.76069 1504.496,613.15048 1502.4399,605.93356 z">
      <title id="t520-5">Deuxième circonscription du Val-de-Marne</title>
      <desc id="d520-2">Cantons de : Choisy-le-Roi, Créteil Ouest, Créteil Sud, Orly</desc>
    </path><path class="circo" id="id-094-03" d="M 1537.2502,608.50203 1533.9308,609.72514 1529.6792,606.84739 1527.8609,606.7161 1527.2044,605.00082 1518.6229,601.84058 1515.6121,603.89568 1518.4981,606.66759 1513.0934,607.48666 1512.4215,612.97927 1515.9772,616.41788 1506.68,617.86603 1498.1313,621.40562 1496.3412,624.77992 1490.9773,626.37711 1491.0791,630.76254 1497.053,630.8076 1506.2444,627.41351 1507.4661,632.10848 1515.3164,628.52684 1517.1989,627.76426 1518.2206,630.47114 1521.3478,633.78277 1520.8569,630.08273 1525.7149,626.88929 1529.5593,626.54535 1530.4645,626.5288 1533.9118,625.68517 1543.5096,622.49925 1547.7611,635.25681 1550.8557,638.74124 1549.8376,639.56797 1551.4191,642.38888 1556.398,643.14934 1558.1615,648.52283 1566.6885,646.81406 1568.9526,642.82838 1567.6991,641.69676 1565.6142,638.14886 1565.3632,637.15048 1569.9796,629.15995 1575.3497,624.12964 1572.7452,617.12828 1577.1827,613.32338 1576.4275,607.7167 1573.1741,606.10592 1570.5576,610.81696 1568.7406,610.84206 1566.0763,613.11967 1561.04,611.15651 1549.9084,610.31757 1539.713,606.27373 1537.2502,608.50203 z">
      <title id="t521-8">Troisième circonscription du Val-de-Marne</title>
      <desc id="d521-9">Cantons de : Boissy-Saint-Léger, Valenton, Villecresnes, Villeneuve-le-Roi, Villeneuve-Saint-Georges</desc>
    </path><path class="circo" id="id-094-04" d="M 1546.1938,592.86708 1544.529,593.63232 1539.4753,599.42619 1538.0784,605.14468 1539.713,606.27373 1549.9084,610.31757 1561.04,611.15651 1566.0763,613.11967 1568.7406,610.84206 1570.5576,610.81696 1573.1741,606.10592 1576.4275,607.7167 1582.9268,607.40162 1579.7748,600.44529 1573.9819,601.00363 1572.511,599.69682 1576.9065,588.991 1574.1696,586.70405 1576.034,581.73141 1574.4471,580.95333 1566.0932,576.56879 1565.4991,574.75741 1565.562,571.25208 1553.5173,563.19339 1552.7568,566.30304 1549.1165,569.54782 1551.8454,574.29113 1561.3268,574.51342 1563.7618,577.51157 1561.7411,580.8625 1558.8422,582.79056 1551.5099,581.62061 1548.1104,582.87913 1548.4495,588.18911 1546.1938,592.86708 z">
      <title id="t522-6">Quatrième circonscription du Val-de-Marne</title>
      <desc id="d522-8">Cantons de : Chennevières-sur-Marne, Ormesson-sur-Marne, Sucy-en-Brie, Villiers-sur-Marne</desc>
    </path><path class="circo" id="id-094-05" d="M 1548.1104,582.87913 1545.598,580.01236 1543.4702,579.55286 1543.8593,577.38542 1541.9227,576.39859 1542.3591,575.00095 1541.8505,575.02875 1540.2238,573.96078 1538.3608,571.69906 1533.7157,573.81378 1533.0893,574.14085 1530.6229,567.70687 1526.8414,570.18394 1526.0057,570.96237 1525.9699,570.11936 1526.4019,567.53075 1527.9644,565.52346 1527.4076,562.86526 1536.5366,557.97654 1539.6201,553.3798 1541.2092,552.49053 1544.8698,556.53052 1545.6143,555.83695 1553.7058,561.22341 1553.5173,563.19339 1552.7568,566.30304 1549.1165,569.54782 1551.8454,574.29113 1561.3268,574.51342 1563.7618,577.51157 1561.7411,580.8625 1558.8422,582.79056 1551.5099,581.62061 1548.1104,582.87913 z">
      <title id="t523-2">Cinquième circonscription du Val-de-Marne</title>
      <desc id="d523-3">Cantons de : Bry-sur-Marne, Champigny-sur-Marne Centre, Champigny-sur-Marne Est, Nogent-sur-Marne, Le Perreux-sur-Marne</desc>
    </path><path class="circo" id="id-094-06" d="M 1519.5737,559.72635 1520.1053,559.594 1527.4076,562.86526 1536.5366,557.97654 1539.6201,553.3798 1538.3687,550.96072 1532.7782,550.10172 1522.5292,553.52445 1519.8234,555.96558 1516.1145,555.0301 1513.0748,557.27385 1509.2376,557.00853 1508.2487,557.06227 1508.1111,558.55459 1507.4484,562.4849 1506.2369,565.67245 1507.394,566.01089 1510.2309,564.86379 1509.8369,562.21187 1509.3788,561.17472 1509.7701,560.30772 1510.353,559.89035 1511.2428,561.32991 1512.4538,561.44292 1516.0534,561.92327 1516.3517,559.87056 1517.3401,559.8776 1517.4632,558.89618 1519.6078,558.97059 1519.5737,559.72635 z">
      <title id="t524-3">Sixième circonscription du Val-de-Marne</title>
      <desc id="d524-0">Cantons de : Fontenay-sous-Bois Est, Fontenay-sous-Bois Ouest, Saint-Mandé, Vincennes Est, Vincennes Ouest</desc>
    </path><path class="circo" id="id-094-07" d="M 1470.452,604.17654 1468.1675,611.12685 1472.2703,614.4584 1473.4482,613.3907 1476.0448,614.83159 1479.6917,618.88048 1484.7732,620.21898 1490.7515,615.99853 1499.1192,612.76069 1504.496,613.15048 1502.4399,605.93356 1502.6843,600.31453 1491.6585,602.58272 1490.0172,601.56367 1489.7861,596.97962 1486.1724,597.15832 1480.3804,592.75801 1479.6164,594.51114 1474.187,595.53271 1471.9733,601.92451 1470.452,604.17654 z">
      <title id="t525-4">Septième circonscription du Val-de-Marne</title>
      <desc id="d525-1">Cantons de : Chevilly-Larue, Fresnes, L'Hay-les-Roses, Thiais</desc>
    </path><path class="circo" id="id-094-08" d="M 1498.3641,570.51942 1503.3407,568.49217 1505.5765,570.90355 1509.6205,571.4418 1513.0855,572.17964 1515.8414,575.29531 1520.5577,575.65283 1523.8527,576.12225 1525.1776,574.91233 1526.1062,572.22519 1526.0057,570.96237 1526.8414,570.18394 1530.6229,567.70687 1533.0893,574.14085 1532.2705,577.47673 1530.7641,576.67962 1524.9137,579.84898 1526.1407,580.98073 1520.7565,583.19159 1514.4214,592.78085 1511.2737,581.02929 1508.0845,575.86826 1505.3972,575.5334 1498.3641,570.51942 z">
      <title id="t526-6">Huitième circonscription du Val-de-Marne</title>
      <desc id="d526-8">Cantons de : Charenton-le-Pont, Joinville-le-Pont, Maisons-Alfort Nord, Maisons-Alfort Sud</desc>
    </path><path class="circo" id="id-094-09" d="M 1506.6335,599.85325 1502.6843,600.31453 1491.6585,602.58272 1490.0172,601.56367 1489.7861,596.97962 1492.959,592.2195 1491.9179,586.61698 1493.7549,585.30127 1495.3838,587.00088 1495.3984,588.44217 1496.3695,588.12245 1498.0356,591.18092 1500.896,589.29837 1499.9647,587.47092 1501.9774,586.59334 1502.4506,585.6132 1503.3319,586.04274 1503.9967,587.87058 1508.5285,587.23769 1505.9687,583.31629 1505.4437,580.36373 1505.3972,575.5334 1508.0845,575.86826 1511.2737,581.02929 1514.4214,592.78085 1512.6473,598.89006 1507.7322,598.1918 1506.6335,599.85325 z">
      <title id="t527-9">Neuvième circonscription du Val-de-Marne</title>
      <desc id="d527-8">Cantons de: Alfortville Nord, Alfortville Sud, Vitry-sur-Seine Est, Vitry-sur-Seine Ouest</desc>
    </path><path class="circo" id="id-094-10" d="M 1482.4644,584.6397 1481.3666,581.9468 1479.4982,578.87265 1482.2648,577.32942 1482.2161,576.99124 1483.3625,576.28173 1482.8132,575.63769 1484.3664,574.79459 1485.6784,576.08369 1488.6078,575.83914 1498.3641,570.51942 1505.3972,575.5334 1505.4437,580.36373 1505.9687,583.31629 1508.5285,587.23769 1503.9967,587.87058 1503.3319,586.04274 1502.4506,585.6132 1501.9774,586.59334 1499.9647,587.47092 1500.896,589.29837 1498.0356,591.18092 1496.3695,588.12245 1495.3984,588.44217 1495.3838,587.00088 1493.7549,585.30127 1491.9179,586.61698 1491.2517,582.92424 1489.768,580.61396 1482.4644,584.6397 z">
      <title id="t528-8">Dixième circonscription du Val-de-Marne</title>
      <desc id="d528-9">Cantons de : Ivry-sur-Seine Est, Ivry-sur-Seine Ouest, Le Kremlin-Bicêtre, Vitry-sur-Seine Nord</desc>
    </path><path class="circo" id="id-094-11" d="M 1471.5046,592.06302 1474.187,595.53271 1479.6164,594.51114 1480.3804,592.75801 1486.1724,597.15832 1489.7861,596.97962 1492.959,592.2195 1491.2517,582.92424 1489.768,580.61396 1482.4644,584.6397 1481.3666,581.9468 1479.4982,578.87265 1482.2648,577.32942 1482.2161,576.99124 1483.3625,576.28173 1482.8132,575.63769 1481.989,575.89978 1478.4514,575.64893 1476.4808,575.48197 1475.41,577.32588 1474.2879,579.56246 1471.6476,579.50616 1471.3373,581.57161 1473.0233,582.28139 1474.2215,581.52213 1473.4819,584.31524 1471.5046,592.06302 z">
      <title id="t529-4">Onzième circonscription du Val-de-Marne</title>
      <desc id="d529-6">Cantons de : Arcueil, Cachan, Villejuif Est, Villejuif Ouest</desc>
    </path></svg>