<svg xmlns="http://www.w3.org/2000/svg" version="1.1" xmlns:xlink="http://www.w3.org/1999/xlink" xmlns:svgjs="http://svgjs.dev/svgjs" viewBox="0 0 145.7594999999999 74.19876000000002"><path class="circo" id="id-095-01" d="M104.43019999999979 21.638380000000012L105.18279999999982 25.49702000000002L104.22199999999998 25.923840000000013L102.77379999999994 26.39769000000001L99.17599999999993 25.265840000000026L96.64649999999983 25.612250000000017L92.6076999999998 24.214360000000028L90.00569999999993 25.611350000000016L89.4097999999999 25.162350000000004L89.15429999999992 21.46228000000002L87.19869999999992 18.27839L86.33510000000001 18.472160000000002L86.89919999999984 20.72896L85.98709999999983 22.70777000000001L86.99319999999989 27.20610000000002L84.62950000000001 29.172470000000004L87.34879999999998 32.30654000000001L88.7518 32.511600000000016L88.6422 33.08946L88.31970000000001 34.042820000000006L86.41229999999996 36.973270000000014L85.78459999999995 37.35927000000001L82.4070999999999 39.09952000000001L79.35139999999978 38.53955000000002L77.8572999999999 38.47478000000001L76.56039999999985 39.23809000000003L72.71449999999982 43.24815000000001L72.01609999999982 45.49973000000003L71.25659999999993 48.230110000000025L70.30429999999978 46.48700000000002L70.4862999999998 45.10161000000002L68.5302999999999 42.99636000000001L71.8714 37.78501L71.22069999999985 37.34391000000002L70.29269999999997 34.63868000000002L69.5664999999999 34.51925000000003L68.47259999999983 35.474050000000005L66.7054999999998 34.29707000000002L64.59119999999984 34.913460000000015L64.66339999999991 32.84152L63.6882999999998 31.05832000000001L62.96569999999997 30.924810000000008L61.82709999999997 31.856910000000028L60.19589999999994 36.17954L60.07439999999997 36.16059000000001L59.5958999999998 38.362810000000025L57.51779999999985 38.71785000000003L57.072299999999814 39.32838000000001L57.01319999999987 39.93997000000002L55.43179999999984 45.839890000000025L52.07569999999987 45.784400000000005L51.1882999999998 48.10202000000001L49.806899999999814 47.938080000000014L48.65279999999984 48.72418000000002L44.907199999999875 44.25025000000002L45.14509999999996 43.297560000000004L44.322999999999865 42.80367000000001L40.61729999999989 46.27790000000002L40.38559999999984 49.22795000000002L38.41319999999996 49.56236000000001L37.40079999999989 50.45073000000002L37.03729999999996 50.48454000000001L37.50839999999994 49.08047000000002L37.044599999999946 46.917340000000024L35.86609999999996 46.11100000000002L37.95619999999985 40.67180000000002L34.403099999999995 39.02098000000001L34.28509999999983 37.99356L31.765099999999848 36.33804000000001L30.55119999999988 36.39694L27.76429999999982 37.340540000000004L28.1875 38.68988000000002L27.43199999999979 40.50776000000002L26.704700000000003 40.58381L23.946899999999914 40.602090000000004L22.274299999999812 39.35998000000001L21.08330000000001 41.213390000000004L21.054999999999836 42.75788L18.75720000000001 42.65455L18.228999999999814 42.26353L16.95589999999993 43.49113000000003L12.550599999999804 40.85053000000002L13.076699999999846 38.877430000000004L11.652299999999968 37.42742000000001L9.172399999999925 35.83280000000002L5.590199999999868 35.28892000000002L1.6796999999999116 36.958590000000015L0.8143999999999778 37.578700000000026L0 36.06239000000002L2.1482999999998356 34.21352000000002L1.573699999999917 33.78901000000002L1.6779999999998836 31.752560000000017L2.6973999999997886 29.9127L5.814300000000003 25.415670000000006L6.979199999999992 24.205070000000006L6.579999999999927 21.587980000000016L7.968799999999874 19.206090000000017L8.208599999999933 18.878930000000025L7.785999999999831 18.233400000000017L8.950999999999794 15.42174L8.508699999999862 13.954710000000006L9.320599999999786 12.785620000000023L9.130299999999806 10.74648000000002L9.929999999999836 8.580220000000025L9.525099999999838 7.189000000000021L9.98109999999997 5.70368000000002L13.42229999999995 2.550150000000002L14.132499999999936 1.17222000000001L15.08589999999981 0L19.469299999999976 3.1562900000000127L18.780199999999923 3.4950100000000077L18.511999999999944 5.74872000000002L15.795299999999997 7.050480000000022L15.79159999999979 7.817760000000021L17.165499999999838 8.348920000000021L17.31899999999996 9.817380000000014L19.246999999999844 10.229890000000012L19.800899999999956 13.032670000000024L21.787399999999934 14.146070000000009L24.78189999999995 11.835210000000018L24.86239999999998 11.805590000000024L27.325999999999794 12.924970000000002L27.946099999999888 11.82322000000002L30.788699999999835 13.921900000000022L32.89619999999991 13.670810000000017L33.69309999999996 14.899730000000005L33.312999999999874 16.35331000000002L35.531799999999976 15.13903000000002L39.291099999999915 14.27928L39.62649999999985 14.048790000000025L40.484899999999925 16.946720000000028L48.079499999999825 14.49260000000001L48.597999999999956 15.077510000000018L50.163299999999936 15.054450000000003L52.33420000000001 14.208040000000011L54.01819999999998 12.237480000000005L57.76819999999998 13.989080000000001L61.07159999999999 11.024770000000018L63.50459999999998 10.242100000000022L63.52409999999986 10.180790000000002L65.31639999999993 8.738850000000014L68.18299999999999 7.705490000000026L69.8119999999999 6.097090000000009L69.79409999999984 6.8320500000000095L71.19459999999981 7.2288400000000195L72.0281 10.710730000000012L74.99069999999983 11.179540000000003L77.11569999999983 10.555720000000008L78.5179999999998 12.279540000000026L79.0353 11.732730000000004L80.47949999999992 12.099700000000013L82.01379999999995 13.52537000000001L81.17619999999988 14.681220000000025L82.09169999999995 16.131670000000014L82.7335999999998 16.43586000000002L84.3721999999998 15.094920000000002L83.96299999999997 13.769210000000015L85.55849999999987 14.519280000000009L88.4873 14.151950000000028L90.4242999999999 13.168390000000016L92.36769999999979 16.167400000000015L89.8451 18.782370000000014L93.57489999999984 19.41658000000001L95.61959999999999 18.941780000000023L96.6253999999999 17.895560000000017L97.26389999999992 18.318630000000013L100.20429999999988 17.529030000000006L100.55139999999983 15.315680000000015L102.14009999999985 13.631920000000008L102.39049999999997 12.10829000000001L103.77999999999997 11.884520000000009L105.43379999999979 11.984090000000009L110.98199999999997 20.371770000000026L109.82719999999995 20.93016L107.91869999999994 20.750890000000027L106.64069999999992 21.576670000000007L105.57619999999997 20.547200000000004L104.43019999999979 21.638380000000012z">
      <title id="t530">Première circonscription du Val-d'Oise</title>
      <desc id="d530">Cantons de : Beaumont-sur-Oise, Magny-en-Vexin, Marines, Pontoise, La Vallée-du-Sausseron, Vigny</desc>
    </path><path class="circo" id="id-095-02" d="M85.78459999999995 37.35927000000001L82.4070999999999 39.09952000000001L79.35139999999978 38.53955000000002L77.8572999999999 38.47478000000001L76.56039999999985 39.23809000000003L72.71449999999982 43.24815000000001L72.01609999999982 45.49973000000003L71.25659999999993 48.230110000000025L70.30429999999978 46.48700000000002L70.4862999999998 45.10161000000002L69.06539999999995 43.57623000000001L68.0505999999998 44.18317000000002L68.0514999999998 44.68630000000002L67.88040000000001 45.01789000000002L68.1221999999998 45.60497000000001L67.1117999999999 46.50359L67.0025999999998 45.14295000000001L66.58119999999985 44.274820000000005L65.35739999999987 43.73158000000001L64.17959999999994 44.16823000000002L63.32619999999997 45.20415000000003L63.5136 45.33891000000003L63.50369999999998 46.02847000000003L63.85319999999979 47.84154000000001L67.37779999999998 51.78337000000002L68.45209999999997 53.248400000000004L70.40739999999983 50.32444000000001L73.80789999999979 51.58903000000001L75.78139999999985 49.46448000000001L75.00779999999986 48.44096000000002L75.92750000000001 47.32149000000001L76.87869999999998 48.476820000000004L80.88609999999994 45.445840000000004L82.73969999999986 46.50504000000001L83.56409999999983 44.89204000000001L83.77329999999984 43.404950000000014L86.56409999999983 42.353560000000016L88.02599999999984 39.86121L92.05479999999989 41.95373000000001L92.58179999999993 42.500460000000004L95.61159999999995 37.67643000000001L95.89679999999998 37.02001000000001L97.4493 38.33686L98.06099999999992 37.97213000000002L98.39629999999988 38.12313L99.32199999999989 42.21570000000003L99.99659999999994 42.55459000000002L103.39179999999988 42.86301L105.45959999999991 42.18772000000001L107.43269999999984 42.02483000000001L106.6547999999998 39.275780000000026L107.33069999999998 36.64574000000002L107.92750000000001 36.35247000000001L112.1583999999998 38.229660000000024L112.6241 37.235570000000024L113.38839999999982 37.38365000000002L113.44290000000001 36.60193000000001L116.4719 34.12185000000002L115.50720000000001 32.91514000000001L116.04909999999995 31.501860000000022L115.38269999999989 29.370570000000015L115.76649999999995 28.729690000000005L116.41549999999984 27.532340000000005L118.1597999999999 25.12596000000002L118.66949999999997 23.368630000000024L120.16989999999987 22.95096000000001L121.20499999999993 21.78507000000002L122.75459999999998 21.694680000000005L123.0498 20.72105000000002L118.53800000000001 19.300590000000028L116.221 19.82220000000001L113.03189999999995 17.661750000000012L110.98199999999997 20.371770000000026L109.82719999999995 20.93016L107.91869999999994 20.750890000000027L106.64069999999992 21.576670000000007L105.57619999999997 20.547200000000004L104.43019999999979 21.638380000000012L105.18279999999982 25.49702000000002L104.22199999999998 25.923840000000013L102.77379999999994 26.39769000000001L99.17599999999993 25.265840000000026L96.64649999999983 25.612250000000017L92.6076999999998 24.214360000000028L90.00569999999993 25.611350000000016L89.4097999999999 25.162350000000004L89.15429999999992 21.46228000000002L87.19869999999992 18.27839L86.33510000000001 18.472160000000002L86.89919999999984 20.72896L85.98709999999983 22.70777000000001L86.99319999999989 27.20610000000002L84.62950000000001 29.172470000000004L87.34879999999998 32.30654000000001L88.7518 32.511600000000016L88.6422 33.08946L88.31970000000001 34.042820000000006L86.41229999999996 36.973270000000014L85.78459999999995 37.35927000000001z">
      <title id="t531">Deuxième circonscription du Val-d'Oise</title>
      <desc id="d531">Cantons de : Cergy Sud, L'Isle-Adam, Saint-Ouen-l'Aumône, Viarmes, commune de Neuville-sur-Oise</desc>
    </path><path class="circo" id="id-095-03" d="M83.45389999999998 64.15567000000001L84.1878999999999 62.697900000000004L84.19539999999984 61.85531L83.7322999999999 59.662210000000016L82.45029999999997 57.80775000000003L80.42269999999985 56.76562000000001L76.69769999999994 56.10104000000001L75.82839999999987 54.78334000000001L76.60249999999996 51.67944000000003L75.78139999999985 49.46448000000001L75.00779999999986 48.44096000000002L75.92750000000001 47.32149000000001L76.87869999999998 48.476820000000004L80.88609999999994 45.445840000000004L82.73969999999986 46.50504000000001L83.56409999999983 44.89204000000001L83.77329999999984 43.404950000000014L86.56409999999983 42.353560000000016L88.02599999999984 39.86121L92.05479999999989 41.95373000000001L92.58179999999993 42.500460000000004L95.61159999999995 37.67643000000001L95.89679999999998 37.02001000000001L97.4493 38.33686L98.06099999999992 37.97213000000002L98.39629999999988 38.12313L99.32199999999989 42.21570000000003L99.99659999999994 42.55459000000002L98.48339999999985 45.41650000000001L96.04279999999994 44.61166L95.28539999999998 44.294250000000005L93.94389999999999 45.947930000000014L92.5985999999998 49.441040000000015L90.9656 50.97153L93.5922999999998 51.870390000000015L94.8726999999999 53.479690000000005L93.86169999999993 54.910240000000016L89.95869999999991 52.980170000000015L89.63599999999997 52.84964000000002L89.38319999999999 53.24344000000002L88.05359999999996 55.88156000000001L88.18719999999985 57.32488000000001L91.67789999999991 59.745780000000025L91.23159999999984 60.161400000000015L88.42039999999997 62.650600000000026L88.29209999999989 64.95642000000001L83.45389999999998 64.15567000000001z">
      <title id="t532">Troisième circonscription du Val-d'Oise</title>
      <desc id="d532">Cantons de : Beauchamp, Cormeilles-en-Parisis, Herblay, Taverny</desc>
    </path><path class="circo" id="id-095-04" d="M98.34209999999985 58.88832000000002L98.18159999999989 58.796640000000025L94.7041999999999 58.290370000000024L93.69290000000001 57.32939000000002L92.94799999999987 57.409610000000015L92.82909999999993 58.897790000000015L91.67789999999991 59.745780000000025L88.18719999999985 57.32488000000001L88.05359999999996 55.88156000000001L89.38319999999999 53.24344000000002L89.63599999999997 52.84964000000002L89.95869999999991 52.980170000000015L93.86169999999993 54.910240000000016L94.8726999999999 53.479690000000005L93.5922999999998 51.870390000000015L90.9656 50.97153L92.5985999999998 49.441040000000015L93.94389999999999 45.947930000000014L95.28539999999998 44.294250000000005L96.04279999999994 44.61166L98.48339999999985 45.41650000000001L101.38579999999979 46.813800000000015L101.55869999999982 47.59527000000003L102.41789999999992 48.27296000000001L102.2059999999999 50.37745000000001L101.00540000000001 52.20878000000002L99.72079999999983 52.968440000000015L99.6603 53.66810000000001L100.78419999999983 54.375620000000026L101.15789999999993 54.57081000000002L100.05160000000001 57.148450000000025L101.00949999999989 58.98767000000001L98.34209999999985 58.88832000000002z">
      <title id="t533">Quatrième circonscription du Val-d'Oise</title>
      <desc id="d533">Cantons de : Eaubonne, Ermont, Franconville, Saint-Leu-la-Forêt</desc>
    </path><path class="circo" id="id-095-05" d="M88.29209999999989 64.95642000000001L88.42039999999997 62.650600000000026L91.23159999999984 60.161400000000015L94.68239999999992 61.750580000000014L96.97039999999993 62.16052000000002L98.46079999999984 61.713190000000026L100.50709999999981 62.87538000000001L101.07169999999996 64.58553L100.87879999999996 64.68035L97.41989999999987 65.77917000000002L94.46399999999994 67.88445000000002L92.03099999999995 69.90984L90.44229999999993 71.51227L87.51319999999987 74.19876000000002L87.30619999999999 71.88382000000001L88.1087 70.81103000000002L87.2672 68.21852000000001L88.32669999999985 67.00128000000001L88.29209999999989 64.95642000000001z">
      <title id="t534">Cinquième circonscription du Val-d'Oise</title>
      <desc id="d534">Cantons de : Argenteuil Est, Argenteuil Nord, Argenteuil Ouest, Bezons</desc>
    </path><path class="circo" id="id-095-06" d="M105.18939999999998 63.006L104.16219999999998 62.14611000000002L102.00899999999979 61.21519000000001L100.50709999999981 62.87538000000001L98.46079999999984 61.713190000000026L96.97039999999993 62.16052000000002L94.68239999999992 61.750580000000014L91.23159999999984 60.161400000000015L91.67789999999991 59.745780000000025L92.82909999999993 58.897790000000015L92.94799999999987 57.409610000000015L93.69290000000001 57.32939000000002L94.7041999999999 58.290370000000024L98.18159999999989 58.796640000000025L98.34209999999985 58.88832000000002L101.00949999999989 58.98767000000001L100.05160000000001 57.148450000000025L101.15789999999993 54.57081000000002L100.78419999999983 54.375620000000026L99.6603 53.66810000000001L99.72079999999983 52.968440000000015L101.00540000000001 52.20878000000002L102.2059999999999 50.37745000000001L102.41789999999992 48.27296000000001L104.11789999999996 50.291770000000014L103.7851999999998 53.179430000000025L104.47059999999988 53.44903000000002L103.2512999999999 58.68197000000001L103.81790000000001 59.95731000000001L104.52689999999984 59.96947L105.32349999999997 57.93057000000002L107.41239999999993 57.92267000000001L108.63139999999999 58.00174000000001L108.76559999999995 58.61031000000003L111.7156 58.43028000000001L111.9964 59.44097000000002L110.11969999999997 61.378720000000015L108.67639999999983 61.02190000000002L107.13979999999992 63.68613000000002L106.40459999999985 62.72222000000002L105.18939999999998 63.006z">
      <title id="t535">Sixième circonscription du Val-d'Oise</title>
      <desc id="d535">Cantons de : Enghien-les-Bains, Saint-Gratien, Sannois, Soisy-sous-Montmorency</desc>
    </path><path class="circo" id="id-095-07" d="M106.6547999999998 39.275780000000026L107.33069999999998 36.64574000000002L107.92750000000001 36.35247000000001L112.1583999999998 38.229660000000024L113.3306 39.306250000000006L116.16469999999981 38.14342000000002L117.75979999999981 40.36356000000001L119.01639999999998 40.936530000000005L118.77399999999989 41.532910000000015L119.74099999999999 43.15879000000001L122.16559999999981 45.889730000000014L121.22329999999988 47.054670000000016L118.52039999999988 48.22425000000001L118.41289999999981 48.17643000000001L115.47249999999985 50.471900000000005L113.98159999999984 50.59703000000002L111.6253999999999 51.475420000000014L112.32309999999984 53.78465000000003L112.35389999999984 54.954170000000005L113.36189999999988 55.38751000000002L113.20869999999991 55.70881L113.94729999999981 56.49839L113.23749999999995 56.96932000000001L114.02509999999984 57.35713000000001L113.83489999999983 57.83026000000001L112.93709999999987 57.992940000000004L114.62839999999983 58.434890000000024L114.40559999999982 60.10238000000001L113.44269999999983 59.937940000000026L111.9964 59.44097000000002L111.7156 58.43028000000001L108.76559999999995 58.61031000000003L108.63139999999999 58.00174000000001L107.41239999999993 57.92267000000001L105.32349999999997 57.93057000000002L104.52689999999984 59.96947L103.81790000000001 59.95731000000001L103.2512999999999 58.68197000000001L104.47059999999988 53.44903000000002L103.7851999999998 53.179430000000025L104.11789999999996 50.291770000000014L102.41789999999992 48.27296000000001L101.55869999999982 47.59527000000003L101.38579999999979 46.813800000000015L98.48339999999985 45.41650000000001L99.99659999999994 42.55459000000002L103.39179999999988 42.86301L105.45959999999991 42.18772000000001L107.43269999999984 42.02483000000001L106.6547999999998 39.275780000000026z">
      <title id="t536">Septième circonscription du Val-d'Oise</title>
      <desc id="d536">Cantons de : Domont, Ecouen, Montmorency, Sarcelles Sud-Ouest</desc>
    </path><path class="circo" id="id-095-08" d="M114.40559999999982 60.10238000000001L118.09309999999982 63.517450000000025L119.78869999999984 63.152390000000025L124.02819999999997 63.59176000000002L125.28459999999995 63.59718000000001L125.41269999999986 62.85712000000001L121.77649999999994 58.19327000000001L119.44619999999986 53.97106000000002L120.7163999999998 50.48116000000002L120.21879999999987 49.33507L118.52039999999988 48.22425000000001L118.41289999999981 48.17643000000001L115.47249999999985 50.471900000000005L113.98159999999984 50.59703000000002L111.6253999999999 51.475420000000014L112.32309999999984 53.78465000000003L112.35389999999984 54.954170000000005L113.36189999999988 55.38751000000002L113.20869999999991 55.70881L113.94729999999981 56.49839L113.23749999999995 56.96932000000001L114.02509999999984 57.35713000000001L113.83489999999983 57.83026000000001L112.93709999999987 57.992940000000004L114.62839999999983 58.434890000000024L114.40559999999982 60.10238000000001z">
      <title id="t537">Huitième circonscription du Val-d'Oise</title>
      <desc id="d537">Cantons de : Garges-lès-Gonesse Est, Garges-lès-Gonesse Ouest, Sarcelles Nord-Est, Villiers-le-Bel</desc>
    </path><path class="circo" id="id-095-09" d="M120.21879999999987 49.33507L118.52039999999988 48.22425000000001L121.22329999999988 47.054670000000016L122.16559999999981 45.889730000000014L119.74099999999999 43.15879000000001L118.77399999999989 41.532910000000015L119.01639999999998 40.936530000000005L117.75979999999981 40.36356000000001L116.16469999999981 38.14342000000002L113.3306 39.306250000000006L112.1583999999998 38.229660000000024L112.6241 37.235570000000024L113.38839999999982 37.38365000000002L113.44290000000001 36.60193000000001L116.4719 34.12185000000002L115.50720000000001 32.91514000000001L116.04909999999995 31.501860000000022L115.38269999999989 29.370570000000015L115.76649999999995 28.729690000000005L116.41549999999984 27.532340000000005L118.1597999999999 25.12596000000002L118.66949999999997 23.368630000000024L120.16989999999987 22.95096000000001L121.20499999999993 21.78507000000002L122.75459999999998 21.694680000000005L122.23599999999988 23.401410000000027L125.34079999999994 22.007740000000013L126.03229999999985 22.100640000000027L126.0673999999999 22.79931000000002L128.47699999999986 24.05116000000001L128.3884999999998 24.75084000000001L131.6746999999998 26.039770000000004L131.9300999999998 27.385040000000004L130.29999999999995 29.633940000000024L136.38239999999996 31.161970000000025L136.79989999999998 26.754010000000022L138.09649999999988 26.086090000000013L138.01779999999985 26.81387000000001L139.42719999999986 26.407610000000005L139.85349999999994 26.91306L140.58449999999993 31.608700000000027L143.11969999999997 32.77672000000001L144.06489999999985 35.439280000000025L145.1751999999999 35.66483000000002L142.50009999999997 40.26788000000002L145.7594999999999 43.00380000000001L143.5634 43.14729000000003L142.04279999999994 44.70527000000001L141.10099999999989 47.41192000000001L138.40609999999992 48.53635000000003L136.9668999999999 48.265060000000005L137.45029999999997 50.36888000000002L139.2820999999999 50.79005000000001L139.63559999999984 51.42063000000002L138.84209999999985 52.65151L136.6407999999999 52.635940000000005L133.49799999999982 57.91612000000001L132.06719999999996 58.470170000000024L131.8657999999998 59.20261000000002L131.19869999999992 59.78024000000002L130.4768999999999 59.66332000000003L126.846 61.867020000000025L125.79829999999993 63.75977L125.28459999999995 63.59718000000001L125.41269999999986 62.85712000000001L121.77649999999994 58.19327000000001L119.44619999999986 53.97106000000002L120.7163999999998 50.48116000000002L120.21879999999987 49.33507z">
      <title id="t538">Neuvième circonscription du Val-d'Oise</title>
      <desc id="d538">Cantons de : Gonesse, Goussainville, Luzarches</desc>
    </path><path class="circo" id="id-095-10" d="M60.07439999999997 36.16059000000001L59.5958999999998 38.362810000000025L57.51779999999985 38.71785000000003L57.072299999999814 39.32838000000001L57.01319999999987 39.93997000000002L55.43179999999984 45.839890000000025L52.07569999999987 45.784400000000005L51.1882999999998 48.10202000000001L51.5034999999998 48.71854000000002L52.99149999999986 48.402840000000026L55.11609999999996 49.287710000000004L56.649799999999914 48.89669000000001L58.57329999999979 51.36225000000002L58.97869999999989 51.776820000000015L61.342299999999796 54.10673000000003L61.76089999999999 53.47517000000002L64.72699999999986 53.21594000000002L67.37779999999998 51.78337000000002L63.85319999999979 47.84154000000001L63.50369999999998 46.02847000000003L63.5136 45.33891000000003L63.32619999999997 45.20415000000003L64.17959999999994 44.16823000000002L65.35739999999987 43.73158000000001L66.58119999999985 44.274820000000005L67.0025999999998 45.14295000000001L67.1117999999999 46.50359L68.1221999999998 45.60497000000001L67.88040000000001 45.01789000000002L68.0514999999998 44.68630000000002L68.0505999999998 44.18317000000002L69.06539999999995 43.57623000000001L68.5302999999999 42.99636000000001L71.8714 37.78501L71.22069999999985 37.34391000000002L70.29269999999997 34.63868000000002L69.5664999999999 34.51925000000003L68.47259999999983 35.474050000000005L66.7054999999998 34.29707000000002L64.59119999999984 34.913460000000015L64.66339999999991 32.84152L63.6882999999998 31.05832000000001L62.96569999999997 30.924810000000008L61.82709999999997 31.856910000000028L60.19589999999994 36.17954L60.07439999999997 36.16059000000001z">
      <title id="t539">Dixième circonscription du Val-d'Oise</title>
      <desc id="d539">Cantons de : Cergy Nord, L'Hautil (moins la commune de Neuville-sur-Oise)</desc>
    </path></svg>