<svg xmlns="http://www.w3.org/2000/svg" version="1.1" xmlns:xlink="http://www.w3.org/1999/xlink" xmlns:svgjs="http://svgjs.dev/svgjs" viewBox="29.972905 162.18874 139.476505 120.95170999999999"><path class="circo" id="id-971-01" d="M 91.976706,190.00764 87.074806,190.83519 84.592306,190.51691 82.809806,191.1535 81.727606,192.49033 79.881406,192.29936 78.799306,192.87229 77.589806,194.27277 77.526106,197.96498 75.552606,200.44768 75.807406,201.59354 74.852505,202.35745 75.361806,208.15039 74.979805,208.65966 78.735606,214.77091 79.053906,214.007 80.199706,213.56139 81.854806,211.58797 91.212706,207.76843 92.867906,207.00452 92.867906,204.5855 93.122506,204.01257 94.268306,203.75793 94.141006,202.67573 93.568106,202.42109 93.631806,201.78452 95.859906,198.79254 97.578606,199.4928 100.44321,198.34694 99.615706,194.71838 97.133006,194.65473 95.668806,192.55399 94.586606,193.19057 91.976706,190.00764 z M 121.89621,253.34814 119.47731,253.98472 116.54901,258.1862 115.33951,258.56817 114.76651,262.32403 114.06621,263.34257 111.9019,264.61574 111.6471,265.18868 112.8567,272.63676 113.81171,274.29188 117.37641,276.71091 121.57801,278.17507 123.42411,278.17507 125.14291,277.47482 126.98891,277.22018 129.28081,276.07432 132.59101,273.08236 134.75531,271.80919 135.83751,269.45381 136.09221,266.90746 135.39201,264.42477 131.19041,260.73256 129.34431,256.91303 124.37891,254.11205 121.89621,253.34814 z">
      <title id="t540">Première circonscription de Guadeloupe</title>
      <desc id="d540">Cantons de : Les Abymes I, Les Abymes II, Les Abymes III, Les Abymes IV, Les Abymes V, Capesterre-de-Marie-Galante, Grand-Bourg, Morne-à-l'Eau I, Morne-à-l'Eau II, Pointe-à-Pitre I, Pointe-à-Pitre II, Pointe-à-Pitre III, Saint-Louis</desc>
    </path><path class="circo" id="id-971-02" d="M 88.730006,162.18874 85.801806,165.43533 83.064406,167.0268 82.045906,168.68195 80.327006,169.50951 77.271406,172.62877 76.507606,174.98415 78.608306,182.24126 79.881406,183.5781 81.600306,184.34201 82.173206,184.08737 84.146706,186.31542 83.764606,189.81665 84.592306,190.51691 87.074806,190.83519 91.976706,190.00764 94.586606,193.19057 95.668806,192.55399 97.133006,194.65473 99.615706,194.71838 100.44321,198.34694 97.578606,199.4928 95.859906,198.79254 93.631806,201.78452 93.568106,202.42109 94.141006,202.67573 94.268306,203.75793 93.122506,204.01257 92.867906,204.5855 92.867906,207.00452 91.212706,207.76843 81.854806,211.58797 80.199706,213.56139 79.053906,214.007 78.735606,214.77091 79.372206,215.59847 81.791306,215.78945 83.000906,217.12628 89.112006,218.52678 92.167506,218.01751 94.332106,216.74432 97.451306,216.42604 99.233706,216.04408 100.12491,215.0892 102.35301,214.19798 104.19911,214.13433 106.61811,212.16089 113.74791,210.37844 114.89391,210.88771 119.22261,210.25114 126.41611,208.2777 136.60151,209.29625 139.59351,210.06016 137.55641,208.59599 134.37351,208.15039 128.64411,205.41307 127.37101,204.01257 125.33381,199.93841 121.89621,197.20109 116.10341,194.78204 112.3475,194.14546 111.07421,194.4001 104.96301,192.6813 100.69781,187.07933 99.806606,184.6603 99.870306,183.38711 101.07991,178.10344 100.06141,173.8383 98.788106,169.76415 97.323906,168.49097 93.822606,165.9446 92.867906,164.35314 90.385206,163.90752 89.366606,162.31607 88.730006,162.18874 z M 168.36721,191.21716 167.15761,191.47179 166.58471,192.2357 165.94811,192.2357 164.42031,193.25423 161.93761,194.52741 161.61941,194.46375 161.04651,195.16401 160.72821,195.16401 159.51871,196.18255 158.30911,196.69182 157.03601,196.81912 156.33561,197.90133 154.48971,198.28327 153.21641,199.74743 153.08911,201.33891 153.59831,201.52988 157.35411,199.81108 161.74671,198.72889 165.37521,195.99156 168.36721,194.84571 169.44941,194.14546 168.81281,191.98106 168.36721,191.21716 z M 150.54271,222.91923 147.74181,223.11021 147.48711,223.23752 147.74181,223.7468 149.26961,224.1924 151.11561,223.81045 151.37031,223.30118 150.54271,222.91923 z">
      <title id="t541">Deuxième circonscription de Guadeloupe</title>
      <desc id="d541">Cantons de : La Désirade, Le Gosier I, Le Gosier II, Le Moule I, Le Moule II, Petit-Canal, Port-Louis, Saint-François, Sainte-Anne I, Sainte-Anne II</desc>
    </path><path class="circo" id="id-971-03" d="M 41.622605,189.30738 40.094805,190.32592 37.612005,190.51691 35.447705,191.85373 33.919805,193.7635 33.346905,196.18255 31.755505,197.3284 31.564405,197.90133 32.010105,199.04717 31.118805,200.76598 30.927905,203.94891 29.972905,205.54038 30.482205,205.98599 31.309905,210.3148 34.047105,213.81602 34.492705,216.29872 33.792605,218.78141 34.556405,220.43653 36.720705,221.64605 37.994005,221.77337 40.285705,220.94581 42.513805,221.70971 43.468505,224.00143 43.723305,226.48413 44.487205,227.43901 44.614605,229.9217 45.824105,230.23999 46.842605,233.04098 48.625005,232.72269 52.189805,233.61391 53.654005,234.69611 54.099605,235.84197 55.181805,237.24247 58.810405,237.81538 62.311705,239.08856 65.558205,237.30611 67.977305,236.60587 69.759805,234.95075 71.478505,234.31416 71.414905,232.53171 72.751605,230.62194 70.396405,228.83949 70.459905,227.05705 69.505105,226.35681 69.059505,225.14729 68.804805,223.93776 69.568705,222.98289 69.505105,222.34631 68.231905,220.94581 67.913605,219.7363 67.977305,219.0997 68.868505,217.44458 68.295605,214.45261 69.059505,212.03359 69.568705,211.65162 72.497105,212.35188 73.070005,212.03359 75.170706,214.07066 75.679906,212.9248 74.979805,211.90626 74.661405,209.3599 75.043405,206.17697 74.788705,204.96745 73.642905,204.39453 73.642905,203.185 72.433405,202.93037 69.950705,203.5033 68.486505,205.60404 67.913605,205.92233 67.340705,206.11331 66.704105,205.98599 65.876505,204.64917 64.412405,205.79502 63.775805,204.1399 61.929605,204.64917 61.866005,203.5033 62.757305,202.61208 63.839405,202.73939 65.112705,200.63865 65.876505,199.93841 65.430905,199.55644 63.839405,199.62012 61.929605,199.93841 59.128705,198.5379 58.173805,196.94645 54.417905,196.81912 49.516205,194.0818 47.033505,193.50886 44.487205,190.64423 41.622605,189.30738 z M 68.741305,190.70788 67.850005,190.83519 67.022305,192.2357 67.722705,191.98106 68.359205,192.10837 69.314105,192.04472 69.568705,191.85373 69.568705,191.21716 68.741305,190.70788 z">
      <title id="t542">Troisième circonscription de Guadeloupe</title>
      <desc id="d542">Cantons de : Baie-Mahault, Goyave, Lamentin, Petit-Bourg, Pointe-Noire, Sainte-Rose I, Sainte-Rose II</desc>
    </path><path class="circo" id="id-971-04" d="M 34.556405,220.43653 34.301905,222.34631 35.574905,223.55582 35.702205,224.829 35.256605,228.58486 36.593505,230.62194 36.084305,233.10464 36.275105,237.56075 37.357305,238.00637 36.784405,243.54468 37.612005,245.26346 39.967505,248.06445 40.794905,252.39326 44.869105,256.91303 45.951305,257.4223 47.097105,259.5867 47.606505,263.2789 49.388905,263.72451 53.017505,262.76963 54.672605,260.92352 55.882205,261.17816 57.409805,260.03231 60.529305,260.09597 62.248005,259.39572 63.648505,256.78571 63.775805,256.14912 71.032805,250.03788 73.579205,244.94518 72.942705,242.52614 73.197305,237.43344 72.497105,235.01439 71.478505,234.31416 69.759805,234.95075 67.977305,236.60587 65.558205,237.30611 62.311705,239.08856 58.810405,237.81538 55.181805,237.24247 54.099605,235.84197 53.654005,234.69611 52.189805,233.61391 48.625005,232.72269 46.842605,233.04098 45.824105,230.23999 44.614605,229.9217 44.487205,227.43901 43.723305,226.48413 43.468505,224.00143 42.513805,221.70971 40.285705,220.94581 37.994005,221.77337 36.720705,221.64605 34.556405,220.43653 z M 70.778305,275.62871 70.269105,276.77457 70.014305,276.83823 69.441405,276.20164 69.186905,276.32896 68.868505,276.90189 69.059505,278.1114 68.677405,278.62067 66.449405,278.8753 65.494505,279.63921 65.367205,279.9575 66.131205,280.40312 67.340705,280.84874 68.040905,279.8302 69.887005,280.14848 70.141605,278.62067 71.669405,277.60213 71.351205,277.02921 71.414905,276.07432 71.032805,275.62871 70.778305,275.62871 z M 60.083705,277.92043 59.001505,279.00263 58.173805,279.44823 57.537305,281.61265 60.338205,283.14045 61.165805,282.63119 62.375205,280.78508 63.202905,280.65775 63.393805,280.14848 62.057005,279.44823 61.866005,278.55702 61.611405,278.36603 60.083705,277.92043 z">
      <title id="t543">Quatrième circonscription de Guadeloupe</title>
      <desc id="d543">Cantons de : Basse-Terre I, Basse-Terre II, Bouillante, Capesterre-Belle-Eau I, Capesterre-Belle-Eau II, Gourbeyre, Saint-Claude, Les Saintes, Trois-Rivières, Vieux-Habitants</desc>
    </path></svg>