<svg xmlns="http://www.w3.org/2000/svg" version="1.1" xmlns:xlink="http://www.w3.org/1999/xlink" xmlns:svgjs="http://svgjs.dev/svgjs" viewBox="0 0 139.47650499999997 120.95170999999999"><path class="circo" id="id-971-01" d="M62.003800999999996 27.818900000000014L57.101901 28.646450000000016L54.619400999999996 28.32817L52.836901 28.964760000000012L51.754701 30.301590000000004L49.908501 30.11062000000001L48.826401000000004 30.683549999999997L47.616901 32.08403000000001L47.553201 35.77624L45.579701 38.258939999999996L45.834501 39.404799999999994L44.879599999999996 40.168710000000004L45.388901000000004 45.96164999999999L45.0069 46.47092000000001L48.76270100000001 52.58216999999999L49.081001 51.81826000000001L50.22680100000001 51.37264999999999L51.881901 49.39923000000002L61.239801 45.57969L62.89500100000001 44.81578000000002L62.89500100000001 42.39676L63.149601000000004 41.823830000000015L64.295401 41.56918999999999L64.16810100000001 40.48698999999999L63.595201 40.23235L63.658901 39.59577999999999L65.887001 36.60380000000001L67.605701 37.30405999999999L70.470305 36.158199999999994L69.642801 32.52964L67.160101 32.465990000000005L65.695901 30.365250000000003L64.613701 31.001830000000012L62.003800999999996 27.818900000000014zM91.923305 91.1594L89.504405 91.79598000000001L86.576105 95.99745999999999L85.366605 96.37943000000001L84.793605 100.13529L84.093305 101.15383000000003L81.928995 102.42700000000002L81.674195 102.99993999999998L82.883795 110.44801999999999L83.83880500000001 112.10314L87.40350500000001 114.52217000000002L91.60510500000001 115.98633000000001L93.451205 115.98633000000001L95.170005 115.28608000000003L97.016005 115.03144000000003L99.307905 113.88558L102.61810500000001 110.89362L104.78240500000001 109.62045L105.86460500000001 107.26506999999998L106.119305 104.71872000000002L105.419105 102.23603000000003L101.21750500000002 98.54381999999998L99.37140500000001 94.72429L94.40600500000001 91.92331000000001L91.923305 91.1594z">
      <title id="t540">Première circonscription de Guadeloupe</title>
      <desc id="d540">Cantons de : Les Abymes I, Les Abymes II, Les Abymes III, Les Abymes IV, Les Abymes V, Capesterre-de-Marie-Galante, Grand-Bourg, Morne-à-l'Eau I, Morne-à-l'Eau II, Pointe-à-Pitre I, Pointe-à-Pitre II, Pointe-à-Pitre III, Saint-Louis</desc>
    </path><path class="circo" id="id-971-02" d="M58.757101000000006 0L55.828901 3.2465899999999976L53.09150100000001 4.838060000000013L52.073001000000005 6.493210000000005L50.354101 7.32077000000001L47.298501 10.440030000000007L46.534701 12.795410000000004L48.635401 20.052520000000015L49.908501 21.38936000000001L51.627401000000006 22.153269999999992L52.200300999999996 21.898629999999997L54.173801 24.126679999999993L53.791701 27.627910000000014L54.619400999999996 28.32817L57.101901 28.646450000000016L62.003800999999996 27.818900000000014L64.613701 31.001830000000012L65.695901 30.365250000000003L67.160101 32.465990000000005L69.642801 32.52964L70.470305 36.158199999999994L67.605701 37.30405999999999L65.887001 36.60380000000001L63.658901 39.59577999999999L63.595201 40.23235L64.16810100000001 40.48698999999999L64.295401 41.56918999999999L63.149601000000004 41.823830000000015L62.89500100000001 42.39676L62.89500100000001 44.81578000000002L61.239801 45.57969L51.881901 49.39923000000002L50.22680100000001 51.37264999999999L49.081001 51.81826000000001L48.76270100000001 52.58216999999999L49.39930100000001 53.409729999999996L51.81840100000001 53.60070999999999L53.028001 54.93754000000001L59.139101 56.33804000000001L62.194601000000006 55.82876999999999L64.359201 54.55557999999999L67.478401 54.237300000000005L69.260801 53.85534000000001L70.152005 52.90046000000001L72.380105 52.009240000000005L74.22620500000001 51.94559000000001L76.645205 49.97215L83.77500500000001 48.189700000000016L84.92100500000001 48.69897L89.249705 48.0624L96.443205 46.088960000000014L106.628605 47.10750999999999L109.62060500000001 47.87142L107.583505 46.407250000000005L104.40060500000001 45.96164999999999L98.67120500000001 43.22433000000001L97.398105 41.823830000000015L95.360905 37.74967000000001L91.923305 35.01235L86.130505 32.5933L82.374595 31.95672000000002L81.101305 32.21136000000001L74.990105 30.492559999999997L70.724905 24.890590000000003L69.833701 22.47156000000001L69.897401 21.19837000000001L71.107005 15.91470000000001L70.088505 11.649560000000008L68.815201 7.575410000000005L67.351001 6.302230000000009L63.849700999999996 3.7558600000000126L62.89500100000001 2.1644000000000005L60.412301 1.7187800000000095L59.39370100000001 0.1273300000000006L58.757101000000006 0zM138.394305 29.02842000000001L137.184705 29.283050000000003L136.611805 30.046960000000013L135.97520500000002 30.046960000000013L134.447405 31.06549000000001L131.964705 32.33867000000001L131.646505 32.27501000000001L131.07360500000001 32.975269999999995L130.755305 32.975269999999995L129.545805 33.993809999999996L128.336205 34.50308000000001L127.06310500000001 34.63038L126.362705 35.712590000000006L124.516805 36.09452999999999L123.243505 37.55869000000001L123.11620500000001 39.15017L123.625405 39.341139999999996L127.381205 37.62234000000001L131.773805 36.54015000000001L135.402305 33.80282L138.394305 32.65697L139.476505 31.95672000000002L138.83990500000002 29.792320000000018L138.394305 29.02842000000001zM120.569805 60.73049L117.76890499999999 60.92147L117.514205 61.048779999999994L117.76890499999999 61.55806000000001L119.296705 62.003659999999996L121.142705 61.62171000000001L121.39740499999999 61.11243999999999L120.569805 60.73049z">
      <title id="t541">Deuxième circonscription de Guadeloupe</title>
      <desc id="d541">Cantons de : La Désirade, Le Gosier I, Le Gosier II, Le Moule I, Le Moule II, Petit-Canal, Port-Louis, Saint-François, Sainte-Anne I, Sainte-Anne II</desc>
    </path><path class="circo" id="id-971-03" d="M11.6497 27.11864L10.1219 28.13718L7.639100000000003 28.32817L5.474799999999998 29.664990000000017L3.946899999999996 31.574759999999998L3.3739999999999988 33.993809999999996L1.7825999999999986 35.13965999999999L1.5915 35.712590000000006L2.037200000000002 36.85843L1.1458999999999975 38.57724000000002L0.9549999999999983 41.760170000000016L0 43.35164L0.5092999999999996 43.79724999999999L1.3369999999999997 48.126059999999995L4.074200000000001 51.62728000000001L4.5198 54.10998000000001L3.819700000000001 56.59267L4.583499999999997 58.24779000000001L6.747800000000002 59.45731000000001L8.0211 59.584630000000004L10.3128 58.75707L12.540899999999997 59.520970000000005L13.4956 61.81269L13.750400000000003 64.29539L14.514300000000002 65.25027L14.641699999999997 67.73295999999999L15.851200000000002 68.05125000000001L16.869699999999998 70.85224L18.6521 70.53395L22.2169 71.42517000000001L23.681099999999997 72.50737000000001L24.126699999999996 73.65323000000001L25.208899999999996 75.05373L28.837500000000002 75.62664000000001L32.338800000000006 76.89982L35.585300000000004 75.11737L38.004400000000004 74.41713000000001L39.7869 72.76201L41.5056 72.12541999999999L41.44200000000001 70.34297000000001L42.7787 68.4332L40.423500000000004 66.65075000000002L40.48700000000001 64.86831000000001L39.5322 64.16807L39.086600000000004 62.95855L38.831900000000005 61.74902L39.5958 60.79415L39.5322 60.15756999999999L38.259 58.75707L37.94070000000001 57.547560000000004L38.004400000000004 56.91096000000002L38.8956 55.255840000000006L38.3227 52.26387L39.086600000000004 49.84485000000001L39.5958 49.46288000000001L42.52420000000001 50.16314L43.0971 49.84485000000001L45.197801 51.88192000000001L45.707001000000005 50.73606000000001L45.0069 49.71752000000001L44.688500000000005 47.171160000000015L45.07050000000001 43.988230000000016L44.815799999999996 42.77871000000002L43.67 42.20579000000001L43.67 40.99626000000001L42.460499999999996 40.741630000000015L39.9778 41.31456L38.5136 43.4153L37.94070000000001 43.73358999999999L37.3678 43.92457000000002L36.7312 43.79724999999999L35.9036 42.46043L34.43950000000001 43.60628L33.802899999999994 41.951160000000016L31.9567 42.46043L31.8931 41.31456L32.784400000000005 40.423339999999996L33.8665 40.55064999999999L35.13980000000001 38.44991000000002L35.9036 37.74967000000001L35.458 37.36770000000001L33.8665 37.43137999999999L31.9567 37.74967000000001L29.155799999999996 36.34916000000001L28.2009 34.75771L24.444999999999997 34.63038L19.5433 31.89305999999999L17.060599999999997 31.320120000000003L14.514300000000002 28.455489999999998L11.6497 27.11864zM38.7684 28.519139999999993L37.8771 28.646450000000016L37.049400000000006 30.046960000000013L37.74980000000001 29.792320000000018L38.386300000000006 29.919630000000012L39.3412 29.855980000000017L39.5958 29.664990000000017L39.5958 29.02842000000001L38.7684 28.519139999999993z">
      <title id="t542">Troisième circonscription de Guadeloupe</title>
      <desc id="d542">Cantons de : Baie-Mahault, Goyave, Lamentin, Petit-Bourg, Pointe-Noire, Sainte-Rose I, Sainte-Rose II</desc>
    </path><path class="circo" id="id-971-04" d="M4.583499999999997 58.24779000000001L4.328999999999997 60.15756999999999L5.602 61.367080000000016L5.7292999999999985 62.64026000000001L5.2837 66.39612L6.6206 68.4332L6.1114 70.9159L6.302200000000003 75.37201000000002L7.384399999999996 75.81763000000001L6.811499999999999 81.35594L7.639100000000003 83.07472000000001L9.994600000000002 85.87571L10.822 90.20452L14.896199999999997 94.72429L15.978399999999997 95.23356000000001L17.1242 97.39796000000001L17.633599999999998 101.09016000000003L19.416 101.53577000000001L23.0446 100.58089000000001L24.699699999999996 98.73478L25.909299999999998 98.98942L27.436899999999998 97.84357L30.5564 97.90723000000003L32.275099999999995 97.20697999999999L33.6756 94.59697L33.802899999999994 93.96037999999999L41.0599 87.84914L43.606300000000005 82.75644L42.969800000000006 80.3374L43.2244 75.2447L42.52420000000001 72.82565L41.5056 72.12541999999999L39.7869 72.76201L38.004400000000004 74.41713000000001L35.585300000000004 75.11737L32.338800000000006 76.89982L28.837500000000002 75.62664000000001L25.208899999999996 75.05373L24.126699999999996 73.65323000000001L23.681099999999997 72.50737000000001L22.2169 71.42517000000001L18.6521 70.53395L16.869699999999998 70.85224L15.851200000000002 68.05125000000001L14.641699999999997 67.73295999999999L14.514300000000002 65.25027L13.750400000000003 64.29539L13.4956 61.81269L12.540899999999997 59.520970000000005L10.3128 58.75707L8.0211 59.584630000000004L6.747800000000002 59.45731000000001L4.583499999999997 58.24779000000001zM40.805400000000006 113.43997000000002L40.2962 114.58582999999999L40.041399999999996 114.64949000000001L39.468500000000006 114.0129L39.214 114.14022L38.8956 114.71314999999998L39.086600000000004 115.92266000000001L38.704499999999996 116.43193000000002L36.4765 116.68655999999999L35.52160000000001 117.45047L35.3943 117.76875999999999L36.1583 118.21438L37.3678 118.66000000000003L38.068 117.64146L39.914100000000005 117.95974000000001L40.1687 116.43193000000002L41.6965 115.41338999999999L41.378299999999996 114.84046999999998L41.44200000000001 113.88558L41.0599 113.43997000000002L40.805400000000006 113.43997000000002zM30.1108 115.73169000000001L29.0286 116.81389000000001L28.2009 117.25949000000003L27.564400000000003 119.42390999999998L30.3653 120.95170999999999L31.192899999999998 120.44245000000001L32.4023 118.59634L33.230000000000004 118.46901000000003L33.4209 117.95974000000001L32.08409999999999 117.25949000000003L31.8931 116.36828000000003L31.638499999999997 116.17729000000003L30.1108 115.73169000000001z">
      <title id="t543">Quatrième circonscription de Guadeloupe</title>
      <desc id="d543">Cantons de : Basse-Terre I, Basse-Terre II, Bouillante, Capesterre-Belle-Eau I, Capesterre-Belle-Eau II, Gourbeyre, Saint-Claude, Les Saintes, Trois-Rivières, Vieux-Habitants</desc>
    </path></svg>