<svg xmlns="http://www.w3.org/2000/svg" version="1.1" xmlns:xlink="http://www.w3.org/1999/xlink" xmlns:svgjs="http://svgjs.dev/svgjs" viewBox="29.972905 318.07791 87.292705 104.23786000000001"><path class="circo" id="id-972-01" d="M 96.172507,383.28126 92.605807,382.54987 91.252507,380.8223 90.835907,378.18806 88.848407,376.67143 86.629007,376.33316 83.781907,377.22483 82.612907,379.15989 79.172406,382.09703 77.685306,384.74356 77.687306,386.93675 75.648606,386.16553 75.234006,383.22717 73.169306,381.14462 74.120406,378.37418 73.438506,376.26259 72.847106,375.82205 70.179606,377.03997 70.534906,371.15514 69.626006,369.24196 69.589806,368.49803 74.576206,367.20685 76.382906,366.00072 78.437006,365.78684 78.382706,362.93232 78.957106,362.46325 72.851306,358.32885 69.225406,357.65081 64.463606,355.45416 61.438406,353.20983 60.103606,351.36131 61.301406,350.83446 64.243606,348.94023 66.271506,348.47755 66.787506,347.16004 71.738306,349.09338 73.246506,349.04249 74.717806,348.98522 76.365306,347.46711 77.779206,347.10474 78.566506,345.83273 80.740707,345.51632 83.462107,343.05687 84.627607,344.01273 85.603207,347.52464 86.620707,348.51639 89.123707,344.87982 91.781907,343.44556 94.721207,343.7327 101.08771,339.80482 103.29371,340.27487 104.39001,341.32021 104.12721,343.49128 103.45291,343.78163 101.53151,342.58607 100.17021,343.09449 100.63251,345.13354 99.669807,347.0477 99.790107,348.50949 99.219807,348.89867 96.949307,348.7288 95.611407,346.93165 93.528507,345.9613 91.261607,345.81157 90.703707,346.33352 89.519407,348.12303 90.233907,349.35571 89.371107,351.20274 90.815507,352.83075 92.832007,352.31225 92.525307,352.97555 91.826407,354.29869 92.202807,354.93641 94.893707,353.86403 95.574407,354.11456 96.384007,356.1799 97.739807,356.82894 97.136407,358.09997 96.500507,358.49824 93.616007,359.31273 92.786007,360.55646 90.845207,361.27457 89.936707,363.28855 91.719607,365.60812 92.667407,366.76063 93.410607,366.74982 96.262807,364.49836 99.826007,365.12503 101.75321,364.18859 102.14671,364.82288 101.65641,366.23157 99.992707,367.46498 98.512007,367.34009 98.026007,367.8544 100.19961,369.82069 99.511107,373.41103 103.86411,374.31452 103.72931,375.67134 104.96651,377.56436 104.71181,379.08 105.67201,380.2871 108.27011,379.89227 109.30121,380.76847 109.15321,381.4421 105.14521,383.32797 102.25061,383.97209 99.390707,386.29239 96.172507,383.28126 z">
      <title id="t544">Première circonscription de Martinique</title>
      <desc id="d544">Cantons de : Le François I, Le François II, Gros-Morne, Le Lamentin I, Le Lamentin II, Le Lamentin III, Le Robert I, Le Robert II, La Trinité</desc>
    </path><path class="circo" id="id-972-02" d="M 51.596106,319.18028 46.700406,318.07791 43.031605,318.40119 40.223005,318.94868 35.179605,321.68619 33.920705,322.48888 31.941905,325.69693 29.972905,330.66106 30.409005,334.44857 33.080805,339.04269 35.146205,339.75663 36.619805,342.38965 40.339805,346.07807 40.887105,348.23636 40.353905,349.63794 39.476605,354.00686 39.358505,355.44311 42.784705,362.01556 45.641306,366.20699 46.171106,367.60511 48.136906,368.69274 49.814606,371.08998 53.257006,372.32095 55.720206,373.95976 58.847706,378.24068 60.630006,374.08514 60.539706,370.28804 57.306506,363.51841 56.383206,359.0986 56.754006,357.68227 59.035106,355.20046 60.362306,354.96591 61.529906,355.93455 61.587606,356.68857 60.385906,358.58772 60.790906,362.33958 64.507906,365.04782 66.901906,367.98077 69.626006,369.24196 69.589806,368.49803 74.576206,367.20685 76.382906,366.00072 78.437006,365.78684 78.382706,362.93232 78.957106,362.46325 72.851306,358.32885 69.225406,357.65081 64.463606,355.45416 61.438406,353.20983 60.103606,351.36131 61.301406,350.83446 64.243606,348.94023 66.271506,348.47755 66.787506,347.16004 71.738306,349.09338 73.246506,349.04249 74.717806,348.98522 76.365306,347.46711 77.779206,347.10474 78.566506,345.83273 80.740707,345.51632 83.462107,343.05687 81.681307,339.92798 78.261106,337.15508 76.707206,333.13304 75.290406,333.52074 73.908906,333.02979 73.286606,330.94206 71.566106,329.67448 71.531806,328.94553 69.580806,328.27388 68.664506,327.17003 67.401706,327.94028 65.977306,327.65239 63.851106,325.66079 61.742206,325.04469 60.139406,323.58682 58.702106,323.19543 57.172906,321.48632 51.596106,319.18028 z">
      <title id="t545">Deuxième circonscription de Martinique</title>
      <desc id="d545">Cantons de : L'Ajoupa-Bouillon, Basse-Pointe, Case-Pilote, Le Carbet, Le Lorrain, Macouba, Le Marigot, Le Morne-Rouge, Le Prêcheur, Saint-Pierre, Saint-Joseph, Schœlcher I, Schœlcher II, Sainte-Marie I, Sainte-Marie II</desc>
    </path><path class="circo" id="id-972-03" d="M 69.557406,377.45421 69.719206,378.95437 69.076006,379.32141 66.083206,378.93077 64.853206,378.07325 58.847706,378.24068 60.630006,374.08514 60.539706,370.28804 57.306506,363.51841 56.383206,359.0986 56.754006,357.68227 59.035106,355.20046 60.362306,354.96591 61.529906,355.93455 61.587606,356.68857 60.385906,358.58772 60.790906,362.33958 64.507906,365.04782 66.901906,367.98077 69.626006,369.24196 70.534906,371.15514 70.179606,377.03997 69.557406,377.45421 z">
      <title id="t546">Troisième circonscription de Martinique</title>
      <desc id="d546">Cantons de : Fort-de-France I, Fort-de-France II, Fort-de-France III, Fort-de-France IV, Fort-de-France V, Fort-de-France VI, Fort-de-France VII, Fort-de-France VIII, Fort-de-France IX, Fort-de-France X</desc>
    </path><path class="circo" id="id-972-04" d="M 66.016206,409.77908 64.596006,409.28935 63.484406,407.32775 60.888506,406.00878 61.062506,403.02396 59.626706,401.35196 59.834706,399.18065 57.350006,397.71442 57.814306,395.504 59.475006,393.01702 61.661906,390.91652 62.411206,391.03428 63.908006,391.03527 66.823006,387.70822 69.576606,388.56499 69.564906,390.61757 71.590606,391.58522 76.788306,391.55645 77.243306,390.9556 78.777706,388.86615 80.053407,389.29884 78.408806,386.9215 77.687306,386.93675 77.685306,384.74356 79.172406,382.09703 82.612907,379.15989 83.781907,377.22483 86.629007,376.33316 88.848407,376.67143 90.835907,378.18806 91.252507,380.8223 92.605807,382.54987 96.172507,383.28126 99.390707,386.29239 102.25061,383.97209 105.14521,383.32797 109.15321,381.4421 109.65391,382.84563 108.87781,384.1319 109.28691,384.76028 110.98651,386.28059 112.9945,385.51159 113.3318,385.9128 112.1268,388.7184 113.3532,391.43967 112.7202,392.79945 114.20541,392.75889 114.27311,394.20495 112.608,395.44525 112.4004,396.88664 114.48411,397.29475 114.66601,400.21049 114.81991,400.9355 116.14431,401.49627 116.53361,402.12612 117.26561,404.21803 116.54821,405.48833 115.14581,405.43202 114.70401,406.02649 116.54961,408.23025 115.08221,409.88725 114.34951,412.79955 112.2785,415.88984 110.20191,415.82321 109.66841,416.32129 110.36891,417.65181 111.6781,418.34854 111.24,418.97791 109.71961,418.95014 107.93721,421.45801 106.62461,422.19629 105.86021,422.31577 104.33471,422.19433 103.68721,421.80442 102.15141,420.05694 101.77021,419.38454 100.25871,417.06621 102.96861,413.12505 102.02751,411.14893 102.34441,410.18669 103.53361,411.30136 104.46211,411.06805 104.47741,409.41276 105.77841,409.52832 106.14201,407.50747 105.38311,406.38296 103.87431,406.28879 98.824707,410.66904 97.217307,409.08629 96.304707,407.98957 96.525107,406.56021 95.081107,406.38321 91.680307,407.8482 87.298407,407.20778 85.413407,406.01493 83.317607,406.55013 81.472507,403.67251 81.033507,405.10996 79.289107,406.4577 73.274706,404.27139 71.087606,404.82798 68.504606,406.35444 67.829506,408.49405 66.680106,409.41056 66.016206,409.77908 z">
      <title id="t547">Quatrième circonscription de Martinique</title>
      <desc id="d547">Cantons de : Les Anses-d'Arlets, Le Diamant, Ducos, Le Marin, Rivière-Pilote, Rivière-Salée, Saint-Esprit, Sainte-Anne, Sainte-Luce, Les Trois-Ilets, Le Vauclin</desc>
    </path></svg>