<svg xmlns="http://www.w3.org/2000/svg" version="1.1" xmlns:xlink="http://www.w3.org/1999/xlink" xmlns:svgjs="http://svgjs.dev/svgjs" viewBox="0 0 80.44000500000001 98.22239000000002"><path class="circo" id="id-973-01" d="M40.856301 68.74238000000003L40.57780100000001 68.72392000000002L40.480301 68.56029999999998L40.484801000000004 68.07731999999999L40.204201 67.57029L40.195600999999996 67.18574000000001L39.549801 67.00204999999994L39.30550100000001 66.84874000000002L38.632301 65.78809000000001L38.626301 65.69137L39.056201 64.83335L38.847201 63.89247999999998L38.91430100000001 63.41834999999992L39.017801000000006 63.257459999999924L39.823701 62.72937000000002L39.903301 62.55702999999994L39.788201 62.292569999999955L39.79950100000001 61.90861999999993L39.417501 61.48066999999992L39.39500100000001 61.29511000000002L39.677701 60.78769999999997L39.796701 60.32339999999999L40.312201 59.89089000000001L40.521401 59.56558999999993L40.574601 59.08600999999999L40.451301 58.52352999999994L40.82690100000001 58.09570999999994L40.869201000000004 58.008449999999925L40.80640100000001 57.825129999999945L40.552301 57.68599999999992L40.363001 57.69377999999995L39.916900999999996 58.043109999999956L39.650501000000006 57.93088L39.574701000000005 57.87124999999992L39.53590100000001 57.78242999999998L39.76320100000001 57.06400999999994L39.601101 55.71555999999998L39.49690100000001 55.444669999999974L38.562701000000004 54.342559999999935L38.335401000000005 53.81255999999996L37.664601000000005 53.47518000000002L37.056501 52.60536000000002L37.097301 52.41935000000001L37.185001 52.379569999999944L37.660101 52.36097999999993L37.833101 52.27720999999997L38.014301 51.94473999999997L38.841701 51.13128999999998L39.401500999999996 50.995739999999955L39.58420100000001 50.77071999999998L39.632701 50.290749999999946L39.453300999999996 50.066419999999994L39.02900100000001 49.85201999999998L39.12830100000001 49.58004L40.15870100000001 49.04449999999997L40.53800100000001 48.606619999999964L41.100301 48.47668999999996L41.576401000000004 48.006569999999954L42.016001 48.14964999999995L42.324601 47.67530999999997L43.40310100000001 47.24865999999997L43.67670100000001 46.85229999999996L43.725801000000004 46.47754999999995L43.835401000000005 46.32131999999996L44.206901 46.32678999999996L44.481701 46.23888999999997L44.56070100000001 46.18562999999995L44.617301 46.10704999999996L44.84450100000001 45.68050999999997L44.792501 45.02681999999999L45.465700999999996 44.70501999999999L45.400301 44.34415999999999L45.624801000000005 43.812479999999994L45.85310200000001 43.63322999999997L46.135102 43.58416L46.445802 43.228729999999985L46.905902 43.08731999999998L46.935401999999996 42.71617999999995L47.418802 42.40797999999995L47.400602000000006 42.31272999999999L47.863901999999996 42.31109999999995L47.981702 42.17442L47.88350200000001 41.60895999999997L47.99310200000001 41.23611999999997L47.90070200000001 40.96936999999997L47.969302 40.39519999999999L47.891402 40.01688999999999L47.63180200000001 39.742729999999995L47.822202000000004 39.43245999999999L47.932401999999996 38.96058999999997L47.932602 38.863489999999956L47.831202000000005 38.59310999999997L47.418002 38.18406999999996L47.151302 37.77957999999995L47.050802000000004 36.913269999999955L46.889002000000005 36.67918999999995L46.853302 36.59245999999996L46.865202 36.49829L47.153002 35.77619999999996L47.206902 35.69631999999996L47.363302000000004 35.58392999999995L47.720302000000004 35.44390999999996L47.846502 35.09218999999996L48.213102000000006 35.12088L48.337602000000004 34.76644999999996L48.641502 34.54998999999998L48.573002 34.27356999999995L48.892602 33.931149999999946L48.86300200000001 33.545519999999954L48.90750200000001 33.45957999999996L49.193402000000006 33.44615999999996L49.549402 32.66506999999996L49.89080200000001 32.50843999999995L50.211102 31.91791999999998L50.12540200000001 31.545139999999947L50.32020200000001 31.217869999999948L50.535302 31.02410999999995L50.81330200000001 31.051549999999963L51.04320200000001 30.752329999999972L51.219002 30.67388999999997L51.328902 30.222279999999955L51.383402000000004 30.142399999999952L52.001402 29.53326999999996L52.240302 28.909129999999948L52.611402 28.84558999999996L52.684702 28.78303999999997L52.846902 28.544119999999964L52.814402 28.35337999999996L53.180902 28.256119999999953L53.35490200000001 28.025699999999972L53.363202 27.83439999999996L53.54830200000001 27.794059999999945L53.584502 27.884509999999977L53.945002 28.021159999999952L54.417702000000006 27.92393999999996L54.928002000000006 28.194109999999966L55.21100200000001 28.244349999999997L55.44690200000001 28.547949999999958L56.097702 28.96903999999995L56.662302 29.103359999999952L56.894301999999996 29.27364L57.451302 29.394289999999955L57.545102 29.39434L57.62500200000001 29.345009999999945L57.819402 29.007669999999962L57.94430200000001 28.742719999999963L57.977202000000005 28.651359999999954L58.086802000000006 28.08054999999996L58.606002000000004 27.165299999999945L58.554002 26.783479999999997L58.745402 26.24032999999997L58.822202000000004 26.267309999999952L58.912802 26.539729999999963L59.388102 26.586469999999963L59.78680200000001 26.84821999999997L60.11430200000001 26.661129999999957L60.127002000000005 26.564409999999953L59.889002000000005 26.083549999999946L59.843902 25.513689999999997L59.954502000000005 25.05095L59.92890200000001 24.76491999999996L59.707402 24.617789999999957L59.60400200000001 24.35517999999996L59.240902000000006 24.26464999999996L59.138002 23.997359999999958L59.190802000000005 23.927229999999952L59.50510200000001 24.126539999999977L59.680702 24.068889999999953L59.75850200000001 23.806889999999953L59.61900200000001 23.458909999999946L60.063102 22.845609999999965L60.58390200000001 22.626459999999952L60.798002 22.441479999999956L60.831502 22.262489999999957L61.13180200000001 22.04281999999995L61.074802000000005 21.864239999999995L61.138802 21.79413999999997L61.942002 21.558979999999963L62.225502000000006 21.798309999999958L62.49740200000001 21.83009999999996L62.61430200000001 22.080509999999947L63.161702000000005 22.61134999999996L63.087801999999996 22.78528L63.12880200000001 22.96804999999995L63.493601999999996 23.27283L63.803002000000006 23.74512999999996L63.967702 23.981509999999957L64.608402 24.130379999999946L65.05220200000001 24.742429999999956L65.141902 25.011769999999956L65.413302 25.042609999999968L65.688402 25.308419999999956L65.854702 25.407009999999957L66.216402 25.85942L66.308902 25.887599999999964L66.551302 25.76903999999996L67.162002 26.05802L67.483502 26.416559999999947L67.840602 26.560829999999953L68.273702 26.947359999999946L69.180502 27.50073999999995L70.10380500000001 28.32457999999997L72.282005 29.12914999999998L72.923705 28.97166999999996L73.582905 29.085839999999962L73.870305 29.10042999999996L74.574605 29.57628999999997L74.909805 30.03814L75.245405 30.19924999999995L75.363605 30.45853999999997L75.570705 30.656259999999975L75.96810500000001 31.734659999999963L76.273605 33.72695999999996L76.234105 34.10499999999996L76.439805 34.642079999999964L76.97450500000001 35.18266999999997L76.813005 35.80422999999996L77.246305 36.30703999999997L77.987205 36.75300999999996L78.324805 36.59367999999995L78.464605 36.70707999999996L78.400205 36.882019999999955L78.087605 37.09708999999998L77.763105 37.68742999999995L77.74980500000001 37.78333999999995L77.804205 38.263499999999965L77.82980500000001 38.35690999999997L78.098505 39.081669999999974L78.779105 40.01128L78.895105 40.37609999999995L79.326205 40.745299999999986L79.38930500000001 40.92791L79.330905 41.11017999999996L79.584605 41.24204999999995L79.854005 41.51842999999997L80.058105 41.83696999999995L80.440005 41.835699999999974L80.224005 42.02932999999996L80.02460500000001 42.47068999999999L79.941505 43.63268999999997L79.657105 45.16008999999997L79.439905 45.80192999999997L78.947505 46.26276999999999L76.979005 47.27216999999996L76.24290500000001 47.895599999999945L76.174505 47.964129999999955L76.07680500000001 48.130979999999965L76.034505 49.383309999999994L75.625805 50.26308999999998L75.569605 50.34210999999999L74.988905 50.84677999999997L74.878405 51.11457999999999L74.069005 51.79692L73.608405 52.53049999999996L73.341905 52.639549999999986L73.215305 52.78584999999998L72.755305 52.722279999999955L72.745305 52.81886999999995L72.97410500000001 52.978020000000015L72.957705 53.07384999999999L72.700505 53.193149999999946L72.327605 53.23926999999992L72.204705 53.50265000000002L72.384805 54.149689999999964L72.257205 54.70832999999993L71.890505 54.81944999999996L71.416105 54.82754L70.91890500000001 55.27634999999998L70.73520500000001 55.828430000000026L70.53790500000001 56.16053999999997L70.513005 56.25442999999996L70.493105 56.640859999999975L70.385605 56.909059999999954L70.438305 57.37675999999999L69.668002 58.24272999999994L68.991302 59.41576999999995L68.577602 60.18328999999994L68.237902 60.331050000000005L68.22600200000001 60.69342999999992L67.76580200000001 61.18218000000002L67.613302 61.73577999999998L67.221602 62.15746999999999L65.990902 64.45803000000001L65.590602 65.00232999999992L65.385602 65.43813999999998L65.116102 65.71280999999999L64.976302 66.26755000000003L64.47340200000001 66.85226L63.953502 67.66951999999992L63.88610200000001 67.73896000000002L63.621202 67.83209L63.40710200000001 67.52458999999999L63.127802 67.49244999999996L62.740802 67.91550999999993L62.325002 68.16034000000002L62.006202 68.96236999999996L62.08390200000001 69.53702999999996L62.023002000000005 69.61234000000002L61.837102 69.56105000000002L61.58130200000001 69.66372000000001L61.295002 69.66261999999995L61.023402000000004 70.37027999999998L61.144902 70.51644999999996L61.128102 70.60757999999998L60.846202000000005 70.65408000000002L60.761402000000004 70.69817999999998L60.710802 70.77931999999998L60.707002 70.87456999999995L60.75510200000001 70.95682999999997L60.97810200000001 71.12087999999994L60.863502 71.48446000000001L60.89340200000001 71.67295000000001L61.293002 72.08471999999995L61.334202000000005 72.26760000000002L60.63480200000001 73.64342999999997L60.395002000000005 73.94093999999996L60.153902 74.96713999999997L60.11380200000001 75.05511000000001L59.84370200000001 75.56803000000002L59.62540200000001 75.75285999999994L59.559802000000005 76.22520999999995L59.72210200000001 76.46141999999998L59.990702 76.50675000000001L59.961202 76.59835999999996L59.601302000000004 77.05002000000002L59.31680200000001 77.04769999999996L59.258202 76.97037999999998L59.05180200000001 77.16233L58.790002 77.24933999999996L58.179401999999996 78.34888000000001L57.43960200000001 79.81544999999994L57.168102000000005 81.11464999999998L56.998102 81.46253000000002L56.74650200000001 81.75531999999998L56.442302 82.46709999999996L56.20160200000001 82.76888999999994L55.907702 83.58633999999995L55.84330200000001 83.65793999999994L55.46660200000001 83.69552999999996L55.388802 83.75249999999994L55.23630200000001 83.99825999999996L55.236002 84.09496000000001L55.49700200000001 84.37069999999994L55.427402 84.81993999999997L55.80820200000001 85.11068999999998L55.931602 85.47770000000003L55.66860200000001 85.97619999999995L55.72340200000001 86.14872000000003L55.641802 86.19983000000002L55.366901999999996 86.11986000000002L55.05820200000001 86.47757000000001L55.304002 86.99645999999996L55.261802 87.18399999999997L54.928802000000005 87.37040000000002L54.51670200000001 87.77629000000002L54.074202 88.40216999999996L53.597902000000005 88.45474000000002L53.51020200000001 88.49438999999995L53.447002 88.56722000000002L53.430002 88.75537999999995L53.625202 88.96631000000002L53.65370200000001 89.05850999999996L53.613502 89.14616000000001L53.539702000000005 89.20826999999997L53.072602 89.31403L52.992902 89.36829999999998L52.807902 89.59015999999997L52.75430200000001 89.96971999999994L52.483602000000005 90.36736999999994L52.491901999999996 90.65558999999996L52.33730200000001 91.11239999999998L52.095102 91.26373999999998L51.717501999999996 91.33083999999997L51.625602 91.35973000000001L51.09160200000001 91.57831999999996L51.007802 91.62551999999994L50.865902000000006 91.75531999999998L50.767302 92.02262999999994L50.228002000000004 92.22488999999996L49.31380200000001 92.74631999999997L49.122102 92.73680000000002L49.039602 92.90746000000001L48.448302 93.18760999999995L47.530202 93.46475999999996L47.475201999999996 93.64613999999995L47.114002 93.75202999999999L47.106002000000004 94.12148000000002L46.689402 94.33672999999999L46.561102000000005 94.70044999999993L46.287302 94.95406000000003L46.220702 95.33381999999995L45.737502000000006 96.16058999999996L44.985101 96.09372999999994L44.739401 96.47149000000002L43.896201000000005 96.63824L43.639500999999996 96.76226999999994L43.29360100000001 96.51094999999998L42.964000999999996 96.46993999999995L41.787901000000005 96.12193000000002L41.572001 95.93314999999996L41.26870100000001 95.45124999999996L41.037200999999996 95.28689999999995L39.624801000000005 95.20988999999997L39.275901000000005 95.35579999999993L38.993701 95.31449999999995L38.366201000000004 95.50130999999999L37.624801000000005 95.58999999999992L37.400901000000005 95.77084000000002L37.21270100000001 95.81479999999999L36.790301 95.60906L36.59960100000001 95.61248999999998L36.137800999999996 96.10254999999995L35.950601000000006 96.13698999999997L35.613601 96.03627999999992L35.764201 95.79135999999994L35.78760100000001 95.40814L36.118100999999996 95.28004999999996L36.22980100000001 95.13008000000002L36.269101000000006 94.65337L36.534200999999996 94.66149999999993L36.62060100000001 94.61842000000001L37.02220100000001 94.35385999999994L37.065701000000004 94.27037999999993L37.051001 94.17571999999996L36.994201000000004 94.09775000000002L36.910601 94.0503L36.338301 93.97023000000002L36.259201000000004 93.91471999999999L36.118401000000006 93.55903999999998L35.619001 93.10609999999997L35.15230100000001 92.98853999999994L34.925201 92.80715999999995L34.762001 92.56642L34.652401 92.09796999999992L35.00070100000001 91.93932999999993L35.10310100000001 91.77692000000002L35.275001 91.69150000000002L35.403901000000005 90.95404999999994L36.06070100000001 90.39207999999996L36.406401 89.59640000000002L36.822901 89.3632L36.69250100000001 89.23677999999995L35.948701 89.06020000000001L35.300501 88.23275999999998L34.617701 87.91436999999996L34.55730100000001 87.33818999999994L34.247201000000004 86.97375L34.378800999999996 86.71687999999995L34.622101 86.56098999999995L34.838001000000006 86.39228000000003L34.902501 86.01131999999996L34.869400999999996 85.53018999999995L34.347401000000005 85.30278999999996L34.069501 84.80142000000001L34.298201000000006 84.50846000000001L34.941601000000006 84.31985999999995L35.081501 84.19002L35.11720100000001 84.10019L35.110400999999996 84.00378999999998L34.821101 83.75351L34.784801 83.66381000000001L34.77690100000001 83.56741L34.772001 83.27757999999994L34.994901 82.96627000000001L35.035701 82.77854000000002L34.911501 82.31731000000002L34.94470100000001 81.83532000000002L35.08680100000001 81.71817999999996L35.743401000000006 81.59759999999994L35.78030100000001 81.32299L35.505401000000006 80.92967999999996L35.540901000000005 80.74806000000001L36.606401000000005 79.38377000000003L37.42070100000001 78.87771999999995L37.42450100000001 78.59096999999997L37.213301 78.05101000000002L37.225301 77.76152000000002L37.25760100000001 77.66994999999997L37.67160100000001 77.13658999999996L37.767101 76.86180000000002L38.257701 76.40122999999994L38.384401 75.73979999999995L38.51020100000001 75.47930999999994L39.804001 74.83969000000002L40.07610100000001 74.23159999999996L40.14630100000001 74.16481999999996L40.586501 73.97113000000002L40.871701 73.98180000000002L40.930001000000004 73.90453000000002L40.967301000000006 73.51801L40.849501000000004 73.15086999999994L40.825300999999996 72.56890999999996L40.90230100000001 71.60127L41.68180100000001 70.26229999999998L41.776201 69.58971999999994L41.62280100000001 69.02793999999994L41.039501 68.51883999999995L40.856301 68.74238000000003z">
      <title id="t548">Première circonscription de Guyane</title>
      <desc id="d548">Cantons de : Approuague-Kaw, Cayenne I Nord-Ouest, Cayenne II Nord-Est, Cayenne III Sud-Ouest, Cayenne IV Centre, Cayenne V Sud, Cayenne VI Sud-Est, Matoury, Remire-Montjoly, Roura, Saint-Georges-Oyapock</desc>
    </path><path class="circo" id="id-973-02" d="M30.548900999999997 4.917909999999949L29.084200999999997 4.414849999999944L27.578000999999997 3.753509999999949L27.106801 3.690689999999961L26.219601 3.0987199999999575L25.011601000000002 2.482099999999946L23.712501 1.6361099999999738L23.337901 1.5360199999999509L21.991801 0.7653699999999617L21.069601000000002 0.47850999999997157L20.592701 0.39394999999996116L19.045101 0.36107999999995855L17.943501 0L17.576601 0.07654999999999745L17.093901 0.04260999999996784L17.015100999999998 0.3186799999999721L15.934701 2.228429999999946L15.833800999999998 2.7877999999999474L16.074701 3.486319999999978L16.062600999999997 4.259109999999964L16.136900999999998 4.731579999999951L15.974000999999998 5.491869999999949L15.770600999999996 6.035949999999957L15.223400999999999 6.42202999999995L15.003801 6.853079999999977L14.538600999999996 7.19538L13.739200999999998 8.291529999999966L13.048401000000002 8.958389999999952L12.799500999999996 9.374609999999961L12.693701 9.746789999999976L12.381801 10.23818L12.325101 10.316749999999956L11.582001000000002 10.93044999999995L11.298300000000001 11.437069999999949L10.946000000000002 11.587619999999959L10.575100000000003 12.023969999999963L10.196299999999997 12.082939999999951L9.767999999999997 12.466719999999953L9.152599999999996 12.741209999999967L8.7161 13.12379999999996L8.534699999999997 13.467659999999967L7.946499999999997 14.111739999999998L7.2144999999999975 15.476399999999956L6.907799999999998 15.85209999999995L6.786300000000001 16.31437999999997L6.441799999999997 16.483959999999968L6.267999999999997 16.71563999999995L6.280100000000001 17.003819999999962L6.1519999999999975 17.26219999999995L6.082699999999999 17.33004999999997L5.600399999999997 17.652619999999956L5.235099999999999 17.775819999999953L5.1534999999999975 17.82809999999995L5.0269999999999975 17.973229999999944L4.992299999999997 18.06410999999997L4.996799999999997 18.548609999999996L4.899899999999999 18.924339999999972L4.7255 19.377219999999966L4.444399999999998 19.76907L4.473400000000002 20.34916999999996L4.295999999999996 20.681329999999946L4.392599999999998 21.152529999999956L4.287299999999998 21.82054999999997L3.448800000000002 22.71891999999997L3.329399999999996 22.960729999999955L3.3557999999999986 23.05395999999996L3.588199999999997 23.20545999999996L3.6446999999999967 23.67606999999998L3.6442999999999977 25.310109999999952L3.8306000000000004 26.156309999999962L3.686600000000002 27.208369999999945L3.6930999999999976 27.305129999999963L3.8850999999999978 27.638349999999946L3.968 27.687559999999962L4.062799999999999 27.703949999999963L4.445899999999998 27.67686999999995L4.7048999999999985 27.94068999999996L4.5588000000000015 28.494279999999947L4.7272 28.833279999999945L4.787000000000003 29.302299999999946L4.528699999999997 29.57378L4.436299999999999 29.94874999999996L4.542199999999998 30.21891999999997L4.909499999999998 30.660499999999956L5.044700000000002 30.917569999999955L4.963199999999997 31.58851999999996L4.7683 32.231709999999964L4.7257 32.31908999999996L4.1326 33.07131999999996L4.5736000000000026 34.66220999999996L4.3614 35.50288999999998L4.573199999999996 36.143209999999954L4.380100000000002 37.196439999999996L4.3916 37.29137999999995L4.525099999999998 37.407249999999976L4.9537999999999975 37.19259999999997L5.0443999999999996 37.16627L5.136399999999998 37.186369999999954L5.492000000000001 37.34006999999997L5.5721000000000025 37.39414999999997L5.641000000000002 37.46247999999997L5.7525999999999975 37.62192999999996L5.813300000000002 37.80433999999997L5.806499999999996 37.90105L5.680699999999998 38.37124L5.6249 38.95268999999996L5.625499999999999 39.04985999999997L5.669900000000002 39.535139999999956L5.896100000000001 39.96024L5.9167999999999985 40.15208999999999L5.654799999999998 41.19023999999996L5.571200000000001 41.76442999999995L5.590700000000002 41.85980999999998L5.804799999999997 42.40039999999999L6.358499999999996 42.519859999999994L6.843 42.83078999999998L7.038900000000002 43.04603999999995L7.397899999999996 43.17587999999995L7.517300000000002 43.32090999999997L7.5275 43.61286999999999L6.9513 44.24594999999999L6.896199999999997 44.53181999999998L6.950500000000002 44.71814999999998L6.694199999999999 45.548539999999946L6.670199999999998 46.017379999999946L7.103399999999997 46.20113999999995L7.646699999999999 46.880259999999964L8.062699999999996 47.750099999999975L8.408100000000001 48.95926999999995L8.5108 49.12312999999995L8.776700000000002 49.40231L9.4708 49.731829999999945L9.456300000000002 50.19811999999996L9.827899999999996 50.98590999999999L10.0637 51.144169999999974L10.8233 51.261379999999974L11.0654 51.40884999999997L11.1172 51.592479999999966L11.089699999999997 51.68557999999996L10.8432 51.982869999999934L10.8276 52.07859999999994L10.833499999999997 52.37004999999999L10.931799999999999 52.53417999999999L11.187099999999997 52.66140999999993L11.847601000000001 52.535409999999956L12.702901 52.67409999999995L12.978601000000001 52.93455999999992L13.274700999999997 53.64212999999995L13.507800999999997 53.94936999999993L13.685801000000001 54.50112999999999L13.973100999999996 54.75838999999996L14.104201 55.01515999999992L14.103900999999997 55.20751999999993L13.916800999999996 55.65221999999994L14.061401 56.10617000000002L14.801000999999996 56.55225999999993L14.881100999999997 56.72602999999992L14.855101000000001 57.01509999999996L14.888400999999998 57.10604999999998L14.972001000000002 57.15406999999993L15.448001000000001 57.171010000000024L15.713401000000001 56.78449999999998L15.898501 56.73770999999999L16.076401 56.80494999999996L16.145801000000002 56.87211000000002L16.528800999999998 57.64802999999995L16.717100999999996 57.86757L16.732701000000002 57.963210000000004L16.619401 58.53111000000001L16.279600999999996 58.870270000000005L16.115900999999997 59.216409999999996L16.013901 59.787379999999985L16.214501000000002 60.109129999999936L16.014801000000002 60.65063999999995L16.019501 61.61948999999993L15.798700999999998 61.92549999999994L15.701900999999996 62.28895L15.724101000000001 62.48144000000002L15.887201000000001 62.71982000000003L15.734900999999997 63.06295L15.678400999999997 63.141200000000026L15.273700999999999 63.401160000000004L14.970901000000001 63.77643999999998L14.898600999999996 63.84035999999992L14.653201 63.96753000000001L14.780900999999997 64.42392999999993L14.590701 64.75589000000002L14.487101 65.42552L14.522901000000001 65.71285L14.510101000000002 65.80901999999992L14.457900999999996 65.99534999999992L14.330701000000001 66.25511999999992L14.259100999999998 66.31950999999992L14.171500999999996 66.35928999999999L13.885901 66.39680999999996L13.789700999999997 66.39688000000001L13.540100999999996 66.26148999999998L13.089501000000002 66.61572000000001L12.891501000000002 66.94301999999993L12.561500999999996 67.13898999999992L12.168501000000003 67.68718000000001L12.071200999999999 67.95951000000002L11.838601 68.12879999999996L11.543001 68.62469999999996L11.183800000000002 68.73194000000001L11.0226 68.97102999999993L10.757299999999997 69.68976999999995L10.814600000000002 69.96011999999996L10.497600000000002 70.15891999999997L10.5425 70.34074999999996L10.696899999999996 70.44246999999996L10.530599999999996 70.66300000000001L10.5365 70.75568999999996L10.600399999999997 70.82573000000002L10.781600000000001 70.88104999999996L11.182500000000001 70.68490999999995L11.385299999999997 70.99919999999997L11.519899999999996 71.45664999999997L11.385299999999997 71.81490999999994L11.385299999999997 71.91022999999996L11.510099999999998 72.24793L11.163799999999998 72.38631999999996L11.046499999999998 72.63275999999996L11.3077 73.02737000000002L11.622700999999996 73.73326999999995L11.643401 73.82785000000001L11.641701000000001 73.92444L11.598901000000001 74.11140999999998L11.305699999999998 74.3469L11.469799999999996 74.89319999999998L11.874300999999999 75.11959000000002L11.846000999999998 75.21137999999996L11.580200999999999 75.28211999999996L11.503899999999998 75.45871999999997L11.573500999999997 75.63752999999997L11.505799999999997 75.70575999999994L11.523599999999998 75.98424L11.482600000000001 76.07188999999994L11.1371 76.38455999999996L11.2178 76.75454000000002L11.023399999999999 77.40017L11.029500000000002 77.49668999999994L11.117699999999996 77.77156000000002L11.3537 78.06376999999998L11.278699999999997 78.44173L11.245000000000001 78.53278999999998L11.145199999999999 78.69719999999995L11.0688 78.75420999999994L10.707699999999999 78.85686999999996L10.834700000000002 79.60127999999997L10.618999999999996 79.91495999999995L10.592400000000001 80.29593999999997L10.395199999999999 80.6286L10.232499999999998 80.73000000000002L10.134399999999996 80.99382000000003L9.946499999999997 81.02459999999996L9.898099999999996 81.10811999999999L9.676399999999997 81.29256999999996L9.560100000000002 81.53548999999998L9.2833 81.61132999999995L9.140899999999998 81.73974999999996L8.926399999999997 82.47519L8.9603 82.75157000000002L8.810500000000001 82.86657000000002L8.7625 83.15023999999994L8.7148 83.23371999999995L8.014700000000001 83.88391000000001L7.736599999999999 84.27593000000002L7.749399999999998 84.64815999999996L7.336899999999996 85.81841999999995L6.9323000000000015 86.20561999999995L6.949499999999997 86.68727000000001L6.781899999999997 87.13329999999996L6.565200000000001 87.29718000000003L6.441999999999997 87.53977999999995L6.2544 87.5598L6.151 87.92373999999995L6.107400000000002 88.09325000000001L5.843999999999998 88.18678999999997L5.761399999999998 88.55628000000002L5.506800000000002 88.69026999999994L4.9909 89.38477L4.914300000000001 89.44294000000002L4.375800000000002 89.61689000000001L3.711299999999998 89.53674000000001L3.519400000000001 89.54598999999996L3.4374999999999964 89.59664999999995L3.1474999999999973 90.09701999999993L2.7972999999999963 90.42301999999995L2.6616999999999997 90.67874999999992L2.468 91.41910999999993L2.553799999999999 92.16922L2.1718999999999973 92.18773999999996L2.025299999999998 92.31065999999998L1.848700000000001 92.24968999999999L1.7966999999999977 92.07731999999999L1.549199999999999 91.94342999999992L1.203199999999999 91.79931999999997L0.834699999999998 91.73254999999995L0.2997999999999976 91.84308999999996L0.2607999999999997 92.02543000000003L0 92.27512999999999L0.17980000000000018 92.32925L0.2812999999999981 92.48811L0.4482999999999997 92.56832999999995L1.186399999999999 92.41828999999996L1.6510999999999996 92.51094L1.7182999999999993 92.57803999999999L1.8337000000000003 92.73198000000002L1.7658999999999985 93.00652000000002L1.7653999999999996 93.10231999999996L1.8279999999999994 93.28391999999997L1.8865999999999978 93.35979999999995L2.2345000000000006 93.51414999999997L2.3302999999999976 93.67376999999999L2.2891000000000012 93.75671999999997L1.6463999999999999 93.92448999999999L1.561799999999998 93.96906000000001L1.5817999999999977 94.05964999999992L1.6526999999999994 94.12477999999999L2.1427999999999976 94.41108999999994L2.2318999999999996 94.44573000000003L2.704399999999996 94.45723999999996L2.8349999999999973 94.59438L2.9278000000000013 94.95573999999999L3.2788999999999966 95.10428999999999L3.486799999999999 95.51050999999995L4.211000000000002 95.74513999999999L4.628299999999999 95.51904000000002L4.818499999999997 95.5086L4.969100000000001 95.61276999999995L4.936299999999999 95.89600999999993L4.999199999999998 95.96629999999993L5.473299999999998 95.94911000000002L5.687900000000003 95.75684999999999L5.7837 95.75738999999999L6.0502999999999965 95.79085999999995L6.398999999999997 95.63290999999992L6.493599999999997 95.61853999999994L6.569100000000002 95.67783999999995L6.629499999999997 95.84852000000001L6.493999999999996 96.10228999999993L6.461200000000002 96.38504999999998L6.6433 96.59545000000003L7.003199999999996 96.68991999999992L7.0136999999999965 97.05936999999994L7.089600000000001 97.11741999999992L7.184999999999999 97.12500999999997L7.747299999999999 97.02215999999999L8.472199999999997 97.27161999999998L8.9451 97.34492L9.455200000000001 97.10834999999997L10.1095 97.20056L10.620299999999997 96.94650999999999L11.232400000000002 96.50914L11.3246 97.07393000000002L11.3582 97.16431L11.556400999999997 97.36861999999996L11.545401000000002 97.56069000000002L11.695801 97.78193999999996L11.881901000000003 97.78962000000001L12.072200999999996 97.99199999999996L12.414801 98.13972000000001L12.855901 97.96897000000001L13.369401 98.22239000000002L13.437600999999997 98.17860999999994L13.478900999999997 97.89823000000001L13.888101000000002 97.49860999999999L14.042300999999998 96.65096999999992L14.499900999999998 96.03474999999992L14.586301000000002 95.99923000000001L14.915201 96.18675999999994L15.756001000000001 96.33571999999992L15.980600999999997 96.15459999999996L16.183601 95.82580999999993L16.500201 95.63256999999999L16.962801000000002 95.68134999999995L17.220401 95.39586999999995L17.782701 95.36891000000003L17.977600999999996 94.8392L17.887300999999997 94.27325999999994L18.055100999999997 93.75310999999999L18.513701 93.84309999999994L18.582100999999998 94.11262999999997L18.729701000000002 94.20011999999997L19.261601000000002 93.82818999999995L19.339201 93.16043000000002L19.432401000000002 92.99538999999993L19.902700999999997 92.99249999999995L20.056800999999997 92.87830999999994L20.252900999999998 93.06470000000002L20.533101 93.10167999999999L20.705501 93.02599999999995L21.238901000000002 92.84128999999996L21.262700999999996 92.74784L21.177901000000002 92.57783999999992L20.808801 92.50153L20.745001 92.33753000000002L21.266301000000002 92.11214999999993L21.433001 91.77575000000002L21.746301 91.55661999999995L22.022001 91.49241999999992L22.140201 91.34246999999993L22.580201 91.16476999999998L22.945700999999996 91.27282000000002L23.229401 91.25955999999996L23.241001 91.39148L23.042700999999997 91.57355999999993L23.389501 91.61968000000002L23.678200999999998 91.87299999999993L23.661401 92.05493000000001L23.364600999999997 92.29331000000002L23.382600999999998 92.57346999999993L23.107601 92.64641999999992L23.059001 92.72993999999994L23.196101000000002 92.97083999999995L23.466101 93.03931999999998L23.588601 92.89251999999999L24.144701 92.99364000000003L24.411601 92.92389000000003L24.671001 93.30624999999998L25.201401 93.14748999999995L25.546201 93.30944999999997L25.514501 93.59170999999992L25.614800999999996 93.74076000000002L26.554700999999998 93.83706999999993L26.918201 93.74203L27.461701 94.12027L27.634100999999998 94.04045999999994L27.823500999999997 94.06304999999998L28.091601 94.15405999999996L28.456301 94.45777999999996L28.516201 94.38253999999995L28.866201 94.47897L29.174500999999996 94.26577999999995L29.550301 94.31488000000002L30.120301 94.24803999999995L30.463201 94.42282999999998L30.747801 94.41601000000003L31.064401 94.19421999999997L31.268801 93.86532999999997L31.551601 93.59921999999995L31.632901 93.54885000000002L32.108401 93.50243999999998L32.193101 93.45787999999993L32.474301 93.07103999999993L32.751401 93.00740999999994L33.18010099999999 92.79300999999998L33.255900999999994 92.73284000000001L33.49600099999999 92.42948000000001L33.512300999999994 92.04549999999995L33.559201 91.96343999999999L33.644101000000006 91.92232999999999L34.015201000000005 91.82777999999996L34.10350100000001 91.86421999999993L34.173601000000005 91.93070999999998L34.287701 92.19493999999997L34.47250100000001 92.15630999999996L34.606001000000006 92.01607000000001L34.652401 92.09796999999992L35.00070100000001 91.93932999999993L35.10310100000001 91.77692000000002L35.275001 91.69150000000002L35.403901000000005 90.95404999999994L36.06070100000001 90.39207999999996L36.406401 89.59640000000002L36.822901 89.3632L36.69250100000001 89.23677999999995L35.948701 89.06020000000001L35.300501 88.23275999999998L34.617701 87.91436999999996L34.55730100000001 87.33818999999994L34.247201000000004 86.97375L34.378800999999996 86.71687999999995L34.622101 86.56098999999995L34.838001000000006 86.39228000000003L34.902501 86.01131999999996L34.869400999999996 85.53018999999995L34.347401000000005 85.30278999999996L34.069501 84.80142000000001L34.298201000000006 84.50846000000001L34.941601000000006 84.31985999999995L35.081501 84.19002L35.11720100000001 84.10019L35.110400999999996 84.00378999999998L34.821101 83.75351L34.784801 83.66381000000001L34.77690100000001 83.56741L34.772001 83.27757999999994L34.994901 82.96627000000001L35.035701 82.77854000000002L34.911501 82.31731000000002L34.94470100000001 81.83532000000002L35.08680100000001 81.71817999999996L35.743401000000006 81.59759999999994L35.78030100000001 81.32299L35.505401000000006 80.92967999999996L35.540901000000005 80.74806000000001L36.606401000000005 79.38377000000003L37.42070100000001 78.87771999999995L37.42450100000001 78.59096999999997L37.213301 78.05101000000002L37.225301 77.76152000000002L37.25760100000001 77.66994999999997L37.67160100000001 77.13658999999996L37.767101 76.86180000000002L38.257701 76.40122999999994L38.384401 75.73979999999995L38.51020100000001 75.47930999999994L39.804001 74.83969000000002L40.07610100000001 74.23159999999996L40.14630100000001 74.16481999999996L40.586501 73.97113000000002L40.871701 73.98180000000002L40.930001000000004 73.90453000000002L40.967301000000006 73.51801L40.849501000000004 73.15086999999994L40.825300999999996 72.56890999999996L40.90230100000001 71.60127L41.68180100000001 70.26229999999998L41.776201 69.58971999999994L41.62280100000001 69.02793999999994L41.039501 68.51883999999995L40.856301 68.74238000000003L40.57780100000001 68.72392000000002L40.480301 68.56029999999998L40.484801000000004 68.07731999999999L40.204201 67.57029L40.195600999999996 67.18574000000001L39.549801 67.00204999999994L39.30550100000001 66.84874000000002L38.632301 65.78809000000001L38.626301 65.69137L39.056201 64.83335L38.847201 63.89247999999998L38.91430100000001 63.41834999999992L39.017801000000006 63.257459999999924L39.823701 62.72937000000002L39.903301 62.55702999999994L39.788201 62.292569999999955L39.79950100000001 61.90861999999993L39.417501 61.48066999999992L39.39500100000001 61.29511000000002L39.677701 60.78769999999997L39.796701 60.32339999999999L40.312201 59.89089000000001L40.521401 59.56558999999993L40.574601 59.08600999999999L40.451301 58.52352999999994L40.82690100000001 58.09570999999994L40.869201000000004 58.008449999999925L40.80640100000001 57.825129999999945L40.552301 57.68599999999992L40.363001 57.69377999999995L39.916900999999996 58.043109999999956L39.650501000000006 57.93088L39.574701000000005 57.87124999999992L39.53590100000001 57.78242999999998L39.76320100000001 57.06400999999994L39.601101 55.71555999999998L39.49690100000001 55.444669999999974L38.562701000000004 54.342559999999935L38.335401000000005 53.81255999999996L37.664601000000005 53.47518000000002L37.056501 52.60536000000002L37.097301 52.41935000000001L37.185001 52.379569999999944L37.660101 52.36097999999993L37.833101 52.27720999999997L38.014301 51.94473999999997L38.841701 51.13128999999998L39.401500999999996 50.995739999999955L39.58420100000001 50.77071999999998L39.632701 50.290749999999946L39.453300999999996 50.066419999999994L39.02900100000001 49.85201999999998L39.12830100000001 49.58004L40.15870100000001 49.04449999999997L40.53800100000001 48.606619999999964L41.100301 48.47668999999996L41.576401000000004 48.006569999999954L42.016001 48.14964999999995L42.324601 47.67530999999997L43.40310100000001 47.24865999999997L43.67670100000001 46.85229999999996L43.725801000000004 46.47754999999995L43.835401000000005 46.32131999999996L44.206901 46.32678999999996L44.481701 46.23888999999997L44.56070100000001 46.18562999999995L44.617301 46.10704999999996L44.84450100000001 45.68050999999997L44.792501 45.02681999999999L45.465700999999996 44.70501999999999L45.400301 44.34415999999999L45.624801000000005 43.812479999999994L45.85310200000001 43.63322999999997L46.135102 43.58416L46.445802 43.228729999999985L46.905902 43.08731999999998L46.935401999999996 42.71617999999995L47.418802 42.40797999999995L47.400602000000006 42.31272999999999L47.863901999999996 42.31109999999995L47.981702 42.17442L47.88350200000001 41.60895999999997L47.99310200000001 41.23611999999997L47.90070200000001 40.96936999999997L47.969302 40.39519999999999L47.891402 40.01688999999999L47.63180200000001 39.742729999999995L47.822202000000004 39.43245999999999L47.932401999999996 38.96058999999997L47.932602 38.863489999999956L47.831202000000005 38.59310999999997L47.418002 38.18406999999996L47.151302 37.77957999999995L47.050802000000004 36.913269999999955L46.889002000000005 36.67918999999995L46.853302 36.59245999999996L46.865202 36.49829L47.153002 35.77619999999996L47.206902 35.69631999999996L47.363302000000004 35.58392999999995L47.720302000000004 35.44390999999996L47.846502 35.09218999999996L48.213102000000006 35.12088L48.337602000000004 34.76644999999996L48.641502 34.54998999999998L48.573002 34.27356999999995L48.892602 33.931149999999946L48.86300200000001 33.545519999999954L48.90750200000001 33.45957999999996L49.193402000000006 33.44615999999996L49.549402 32.66506999999996L49.89080200000001 32.50843999999995L50.211102 31.91791999999998L50.12540200000001 31.545139999999947L50.32020200000001 31.217869999999948L50.535302 31.02410999999995L50.81330200000001 31.051549999999963L51.04320200000001 30.752329999999972L51.219002 30.67388999999997L51.328902 30.222279999999955L51.383402000000004 30.142399999999952L52.001402 29.53326999999996L52.240302 28.909129999999948L52.611402 28.84558999999996L52.684702 28.78303999999997L52.846902 28.544119999999964L52.814402 28.35337999999996L53.180902 28.256119999999953L53.35490200000001 28.025699999999972L53.363202 27.83439999999996L53.54830200000001 27.794059999999945L53.584502 27.884509999999977L53.945002 28.021159999999952L54.417702000000006 27.92393999999996L54.928002000000006 28.194109999999966L55.21100200000001 28.244349999999997L55.44690200000001 28.547949999999958L56.097702 28.96903999999995L56.662302 29.103359999999952L56.894301999999996 29.27364L57.451302 29.394289999999955L57.545102 29.39434L57.62500200000001 29.345009999999945L57.819402 29.007669999999962L57.94430200000001 28.742719999999963L57.977202000000005 28.651359999999954L58.086802000000006 28.08054999999996L58.606002000000004 27.165299999999945L58.554002 26.783479999999997L58.745402 26.24032999999997L58.822202000000004 26.267309999999952L58.912802 26.539729999999963L59.388102 26.586469999999963L59.78680200000001 26.84821999999997L60.11430200000001 26.661129999999957L60.127002000000005 26.564409999999953L59.889002000000005 26.083549999999946L59.843902 25.513689999999997L59.954502000000005 25.05095L59.92890200000001 24.76491999999996L59.707402 24.617789999999957L59.60400200000001 24.35517999999996L59.240902000000006 24.26464999999996L59.138002 23.997359999999958L59.190802000000005 23.927229999999952L59.50510200000001 24.126539999999977L59.680702 24.068889999999953L59.75850200000001 23.806889999999953L59.61900200000001 23.458909999999946L60.063102 22.845609999999965L60.58390200000001 22.626459999999952L60.798002 22.441479999999956L60.831502 22.262489999999957L60.498002 22.43181999999996L60.09330200000001 22.170759999999973L59.686402 21.751819999999952L59.311002 21.185249999999996L59.007602000000006 20.9443L58.929602 20.766249999999957L57.84460200000001 19.961829999999964L56.142202 18.23506999999995L55.603302 17.824089999999956L55.319202000000004 17.810109999999952L55.252202 17.747089999999957L55.26710200000001 17.564679999999953L55.104602 17.348409999999944L54.937101999999996 17.360559999999964L54.650802 17.32185999999996L53.775902 16.562689999999975L53.189402 16.226099999999974L53.144502 16.142479999999978L53.241302000000005 15.883959999999945L52.930902 15.662709999999947L52.226501999999996 14.867359999999962L52.156802 14.800249999999949L50.636601999999996 13.771879999999953L49.360602 12.594119999999975L48.938002 11.95405999999997L48.246202 11.441389999999956L47.882402 11.318049999999971L47.743802 11.181099999999958L47.654002000000006 10.808709999999962L47.28080200000001 10.37003999999996L47.107502 10.02383999999995L46.688602 9.782909999999958L46.54360200000001 9.529439999999965L45.224501000000004 8.56214L45.043701 8.23112999999995L44.534200999999996 7.9634099999999535L44.257001 8.001749999999959L43.983501000000004 7.908149999999978L43.315201 7.823419999999999L43.224501000000004 7.84797999999995L43.16980100000001 7.921639999999968L43.173101 8.0154L43.361001 8.355159999999955L43.33720100000001 8.441949999999963L43.252801000000005 8.443189999999959L42.746301 7.860859999999946L41.232400999999996 7.52365999999995L40.043200999999996 6.858599999999967L39.614901 6.468049999999948L38.623001 6.093809999999962L36.138901000000004 5.350629999999967L35.719701 4.998869999999954L35.258201 5.130689999999959L35.167401 5.282869999999946L35.31880100000001 5.387579999999957L35.703001 5.419889999999953L35.965501 5.540829999999971L36.25720100000001 5.793129999999962L36.383401000000006 6.050989999999956L35.974101000000005 5.681079999999952L35.71650100000001 5.5520499999999515L34.759601 5.639789999999948L34.663501 5.632339999999999L34.220301000000006 5.449199999999962L33.460100999999995 5.314609999999959L32.354400999999996 4.968699999999956L30.816101 4.828389999999956L30.548900999999997 4.917909999999949z">
      <title id="t549">Deuxième circonscription de Guyane</title>
      <desc id="d549">Cantons de : Iracoubo, Kourou, Macouria, Mana, Maripasoula, Montsinéry-Tonnegrande, Saint-Laurent-du-Maroni, Sinnamary</desc>
    </path></svg>