<svg xmlns="http://www.w3.org/2000/svg" version="1.1" xmlns:xlink="http://www.w3.org/1999/xlink" xmlns:svgjs="http://svgjs.dev/svgjs" viewBox="29.972905 601.02481 113.670905 101.90053999999998"><path class="circo" id="id-974-01" d="M 64.325606,622.43926 64.674406,617.57074 62.187206,614.22508 61.249106,610.87055 59.465105,607.89564 59.116005,605.82554 62.954506,602.89742 67.619206,601.55214 71.044406,601.94151 72.857906,601.02481 76.235606,603.42994 79.668106,603.81325 79.216506,606.76022 81.640506,606.95794 80.100306,608.5921 80.043806,610.40342 79.477306,611.04033 79.005406,613.16241 78.419806,613.9494 77.757806,617.09192 77.079106,624.06694 77.917206,626.04913 76.240306,628.26498 74.813806,629.2878 72.867206,626.40299 70.682706,624.67699 64.325606,622.43926 z">
      <title id="t550">Première circonscription de la Réunion</title>
      <desc id="d550">Cantons de : Saint-Denis I, Saint-Denis II, Saint-Denis III, Saint-Denis IV, Saint-Denis V, Saint-Denis VI, Saint-Denis VIII</desc>
    </path><path class="circo" id="id-974-02" d="M 41.010305,617.97419 42.672205,613.66375 42.687205,611.76083 43.992805,611.64324 49.222605,612.99826 50.759105,612.10126 53.209205,611.00893 54.765705,608.84613 59.116005,605.82554 59.465105,607.89564 61.249106,610.87055 62.187206,614.22508 64.674406,617.57074 64.325606,622.43926 70.682706,624.67699 72.867206,626.40299 74.813806,629.2878 74.911106,631.33041 73.534806,632.81169 73.408806,637.63862 72.093606,639.17599 72.104706,639.86747 75.406606,643.21963 73.091306,646.47296 67.742506,649.28436 63.296506,645.8889 61.326406,642.04673 56.133505,642.12274 55.064105,641.25845 52.762505,641.2788 47.580205,638.75002 46.927005,637.65422 45.510505,637.63776 43.696105,635.89162 42.346705,635.46088 41.419205,634.77157 40.554705,635.47258 38.759005,634.2869 35.933705,629.87057 37.295005,629.39348 41.000405,626.18166 41.010305,617.97419 z">
      <title id="t551">Deuxième circonscription de la Réunion</title>
      <desc id="d551">Cantons de : Le Port I Nord, Le Port II Sud, La Possession, Saint-Paul I, Saint-Paul II, Saint-Paul III</desc>
    </path><path class="circo" id="id-974-03" d="M 73.715006,682.31604 67.320406,683.74989 67.139806,681.1243 68.945506,679.17958 66.814706,678.52318 68.096806,675.97079 66.724406,675.20719 65.798806,672.89345 66.855206,668.83487 70.290506,666.01546 69.188206,663.9787 69.465006,662.62693 66.264906,659.06254 64.549006,655.32599 64.577206,654.81816 64.348506,653.57856 66.491606,650.51443 67.742506,649.28436 73.091306,646.47296 75.406606,643.21963 77.663806,644.54607 81.110106,648.28991 82.725306,650.49083 83.209306,653.87546 86.928106,653.09736 90.252306,652.96764 92.150406,653.58051 95.348807,652.68784 96.936707,653.9164 98.969507,660.36256 101.96851,662.08509 104.05051,662.24426 106.96261,659.45019 111.5526,666.39336 110.33711,668.17566 109.51631,666.25996 107.19731,664.75248 105.94451,665.27504 103.34991,667.56019 101.30601,671.94838 100.49371,675.984 100.72171,680.09174 96.716207,682.81998 95.026807,685.03193 90.853506,687.55145 88.159206,688.20605 84.397506,685.12051 84.669506,683.75422 82.489206,682.0239 78.230506,676.54966 76.533306,677.63939 73.715006,682.31604 z">
      <title id="t552">Troisième circonscription de la Réunion</title>
      <desc id="d552">Cantons de : Saint-Louis III-Cilaos, Entre-Deux, Saint-Louis II, Le Tampon I, Le Tampon II, Le Tampon III, Le Tampon IV</desc>
    </path><path class="circo" id="id-974-04" d="M 95.327207,700.53555 92.713906,699.75815 91.382506,699.95305 88.620706,697.98095 82.129906,695.63235 79.351006,695.56285 77.803906,694.20155 75.097506,693.80915 74.484906,693.47115 72.729406,691.33125 68.628806,690.52995 66.802406,689.51025 64.280106,686.21305 67.225106,684.48858 73.778206,682.75847 75.656006,680.84623 76.590906,679.01196 76.533306,677.63939 78.230506,676.54966 82.489206,682.0239 84.669506,683.75422 84.397506,685.12051 88.159206,688.20605 90.853506,687.55145 95.026807,685.03193 96.716207,682.81998 100.72171,680.09174 100.49371,675.984 101.30601,671.94838 103.34991,667.56019 105.94451,665.27504 107.19731,664.75248 109.51631,666.25996 110.33711,668.17566 110.33421,670.18427 109.13451,672.59655 109.52361,673.14769 114.87531,673.71054 115.58561,678.55523 117.37231,680.66887 116.49781,686.89215 118.55401,692.11265 118.42801,694.91645 119.68821,698.17485 119.79211,699.58445 118.87631,700.65015 115.39871,700.36555 113.85511,701.74375 111.10611,702.03265 109.20231,702.92535 106.66531,701.87105 101.87971,702.56455 97.956507,699.74535 97.264807,699.86055 95.327207,700.53555 z">
      <title id="t553">Quatrième circonscription de la Réunion</title>
      <desc id="d553">Cantons de : Petite-Ile, Saint-Joseph I, Saint-Joseph II, Saint-Pierre I, Saint-Pierre II, Saint-Pierre III, Saint-Pierre IV</desc>
    </path><path class="circo" id="id-974-05" d="M 85.476706,627.9553 83.368206,626.34841 76.240306,628.26498 74.813806,629.2878 74.911106,631.33041 73.534806,632.81169 73.408806,637.63862 72.093606,639.17599 72.104706,639.86747 75.406606,643.21963 77.663806,644.54607 81.110106,648.28991 82.725306,650.49083 83.209306,653.87546 86.928106,653.09736 90.252306,652.96764 92.150406,653.58051 95.348807,652.68784 96.936707,653.9164 98.969507,660.36256 101.96851,662.08509 104.05051,662.24426 106.96261,659.45019 111.5526,666.39336 110.33711,668.17566 110.33421,670.18427 109.13451,672.59655 109.52361,673.14769 114.87531,673.71054 115.58561,678.55523 117.37231,680.66887 116.49781,686.89215 118.55401,692.11265 118.42801,694.91645 119.68821,698.17485 119.79211,699.58445 118.87631,700.65015 127.74231,698.87975 128.96221,698.18955 131.74201,698.43985 132.43871,698.34895 133.67761,697.68195 136.94141,695.00215 138.48571,692.63755 138.75511,691.98445 137.99301,687.83355 138.56211,682.9419 137.60301,678.15005 137.97851,676.09726 138.70571,672.56818 139.85781,668.62005 141.60811,666.50684 141.85371,663.72251 143.50751,662.59141 143.64381,661.90404 143.33731,657.75018 141.74691,654.64989 139.25621,653.46162 136.63211,651.17928 133.94531,650.71648 131.17001,646.74821 125.47991,639.73992 124.54171,637.86125 124.38261,635.79287 122.33431,632.96999 120.02411,631.49045 118.91071,627.47107 118.90981,622.09017 118.12911,619.43901 115.66841,615.30529 111.5645,618.8465 110.55751,618.97492 109.26511,616.08318 109.18431,613.23843 108.19941,613.0472 108.66111,614.34376 106.46261,617.04406 104.44481,617.41481 99.715807,620.3189 95.626707,625.05381 92.156506,627.36495 89.457906,627.14947 85.476706,627.9553 z">
      <title id="t554">Cinquième circonscription de la Réunion</title>
      <desc id="d554">Cantons de : Bras-Panon, La Plaine-des-Palmistes, Saint-André II, Saint-André III, Saint-Benoît I, Saint-Benoît II, Saint-Philippe, Sainte-Rose, Salazie</desc>
    </path><path class="circo" id="id-974-06" d="M 76.240306,628.26498 77.917206,626.04913 77.079106,624.06694 77.757806,617.09192 78.419806,613.9494 79.005406,613.16241 79.477306,611.04033 80.043806,610.40342 80.100306,608.5921 81.640506,606.95794 79.216506,606.76022 79.668106,603.81325 82.350006,603.11593 89.686006,605.46562 93.108506,605.03033 95.845007,605.56047 97.064707,606.11227 99.031207,605.85196 104.31361,608.74283 105.65241,608.67591 108.95781,609.59608 112.4743,611.74979 115.66841,615.30529 111.5645,618.8465 110.55751,618.97492 109.26511,616.08318 109.18431,613.23843 108.19941,613.0472 108.66111,614.34376 108.30721,614.9497 106.46261,617.04406 104.44481,617.41481 99.715807,620.3189 95.626707,625.05381 92.156506,627.36495 89.457906,627.14947 85.476706,627.9553 83.368206,626.34841 76.240306,628.26498 z">
      <title id="t555">Sixième circonscription de la Réunion</title>
      <desc id="d555">Cantons de : Saint-André I, Saint-Denis VII, Saint-Denis IX, Sainte-Marie, Sainte-Suzanne</desc>
    </path><path class="circo" id="id-974-07" d="M 41.795605,666.42238 44.006005,671.60816 48.986305,675.41877 49.234705,676.24561 50.824505,677.53978 51.229005,680.2312 52.577305,681.75861 57.372205,682.46741 61.936906,684.06369 64.280106,686.21305 67.320406,683.74989 67.139806,681.1243 68.945506,679.17958 66.814706,678.52318 68.096806,675.97079 66.724406,675.20719 65.798806,672.89345 66.855206,668.83487 70.290506,666.01546 69.188206,663.9787 69.465006,662.62693 66.264906,659.06254 64.549006,655.32599 64.577206,654.81816 64.348506,653.57856 66.491606,650.51443 67.742506,649.28436 63.296506,645.8889 61.326406,642.04673 56.133505,642.12274 55.064105,641.25845 52.762505,641.2788 49.054705,639.15066 47.580205,638.75002 46.927005,637.65422 45.510505,637.63776 43.696105,635.89162 42.346705,635.46088 41.419205,634.77157 40.554705,635.47258 38.759005,634.2869 35.933705,629.87057 35.309405,630.10749 33.211105,630.0841 30.322405,633.17096 29.994905,633.79964 29.972905,634.50845 31.079305,637.097 30.478705,641.44252 32.975005,644.7767 36.710505,647.95316 36.981705,649.23932 39.884205,653.02156 39.799305,655.13325 42.685005,658.08672 42.767305,662.30642 41.795605,666.42238 z">
      <title id="t556">Septième circonscription de la Réunion</title>
      <desc id="d556">Cantons de : Les Avirons, L'Etang-Salé, Saint-Leu I, Saint-Leu II, Saint-Louis I, Saint-Paul IV, Saint-Paul V, Les Trois-Bassins</desc>
    </path></svg>