<svg xmlns="http://www.w3.org/2000/svg" version="1.1" xmlns:xlink="http://www.w3.org/1999/xlink" xmlns:svgjs="http://svgjs.dev/svgjs" viewBox="0 0 113.670905 101.90053999999998"><path class="circo" id="id-974-01" d="M34.352700999999996 21.414449999999988L34.70150100000001 16.54593L32.214301000000006 13.200270000000046L31.276200999999997 9.845739999999978L29.4922 6.870829999999955L29.1431 4.800730000000044L32.981601 1.8726100000000088L37.64630100000001 0.5273300000000063L41.071501 0.9166999999999916L42.885001 0L46.26270100000001 2.4051299999999856L49.695201 2.788440000000037L49.243601 5.735410000000002L51.667601000000005 5.933130000000006L50.127401000000006 7.567289999999957L50.070901000000006 9.37860999999998L49.504401 10.015520000000038L49.032500999999996 12.13760000000002L48.446901 12.924589999999966L47.784901000000005 16.067109999999957L47.106201 23.042130000000043L47.944300999999996 25.02431999999999L46.26740100000001 27.240170000000035L44.840901 28.262989999999945L42.894301 25.378180000000043L40.709801 23.652180000000044L34.352700999999996 21.414449999999988z">
      <title id="t550">Première circonscription de la Réunion</title>
      <desc id="d550">Cantons de : Saint-Denis I, Saint-Denis II, Saint-Denis III, Saint-Denis IV, Saint-Denis V, Saint-Denis VI, Saint-Denis VIII</desc>
    </path><path class="circo" id="id-974-02" d="M11.037400000000002 16.94938000000002L12.699299999999997 12.638940000000048L12.714299999999998 10.736020000000053L14.019899999999996 10.61842999999999L19.2497 11.973449999999957L20.786199999999997 11.076450000000023L23.236299999999996 9.984119999999962L24.792799999999996 7.821320000000014L29.1431 4.800730000000044L29.4922 6.870829999999955L31.276200999999997 9.845739999999978L32.214301000000006 13.200270000000046L34.70150100000001 16.54593L34.352700999999996 21.414449999999988L40.709801 23.652180000000044L42.894301 25.378180000000043L44.840901 28.262989999999945L44.93820100000001 30.305600000000027L43.561901000000006 31.786879999999996L43.435901 36.613809999999944L42.120701 38.151179999999954L42.131800999999996 38.84266000000002L45.433701 42.19482000000005L43.118401000000006 45.44814999999994L37.76960100000001 48.25954999999999L33.323601 44.86409000000003L31.353500999999998 41.02192000000002L26.1606 41.09793000000002L25.091199999999997 40.23364000000004L22.789599999999997 40.253990000000044L17.6073 37.72520999999995L16.9541 36.62941000000001L15.537600000000001 36.612949999999955L13.723200000000002 34.86680999999999L12.3738 34.43606999999997L11.446299999999997 33.746759999999995L10.581799999999998 34.44776999999999L8.786100000000001 33.262089999999944L5.9608000000000025 28.84576000000004L7.3221000000000025 28.368669999999952L11.0275 25.156849999999963L11.037400000000002 16.94938000000002z">
      <title id="t551">Deuxième circonscription de la Réunion</title>
      <desc id="d551">Cantons de : Le Port I Nord, Le Port II Sud, La Possession, Saint-Paul I, Saint-Paul II, Saint-Paul III</desc>
    </path><path class="circo" id="id-974-03" d="M43.742101000000005 81.29123000000004L37.34750100000001 82.72508000000005L37.166900999999996 80.09948999999995L38.972601 78.15476999999998L36.841801000000004 77.49837000000002L38.123901000000004 74.94597999999996L36.751501000000005 74.18237999999997L35.825901 71.86864000000003L36.882301 67.81006000000002L40.317600999999996 64.99064999999996L39.215301 62.95389L39.492101000000005 61.60212000000001L36.292001 58.03773000000001L34.57610100000001 54.301180000000045L34.60430100000001 53.79335000000003L34.375601 52.553750000000036L36.51870100000001 49.489619999999945L37.76960100000001 48.25954999999999L43.118401000000006 45.44814999999994L45.433701 42.19482000000005L47.690901 43.521259999999984L51.137201000000005 47.26509999999996L52.752401000000006 49.46601999999996L53.236401 52.85064999999997L56.955201 52.07254999999998L60.27940100000001 51.94282999999996L62.17750100000001 52.5557L65.375902 51.66303000000005L66.963802 52.89158999999995L68.996602 59.33775000000003L71.995605 61.060280000000034L74.077605 61.21945000000005L76.989705 58.42538000000002L81.579695 65.36855000000003L80.364205 67.15084999999999L79.543405 65.23514999999998L77.224405 63.72766999999999L75.971605 64.25022999999999L73.377005 66.53538000000003L71.333105 70.92357000000004L70.520805 74.95919000000004L70.748805 79.06692999999996L66.743302 81.79516999999998L65.05390200000001 84.00711999999999L60.880601 86.52664000000004L58.186301 87.18124L54.42460100000001 84.09569999999997L54.696601 82.72941000000003L52.516301 80.99909000000002L48.25760100000001 75.52485000000001L46.560401 76.61458000000005L43.742101000000005 81.29123000000004z">
      <title id="t552">Troisième circonscription de la Réunion</title>
      <desc id="d552">Cantons de : Saint-Louis III-Cilaos, Entre-Deux, Saint-Louis II, Le Tampon I, Le Tampon II, Le Tampon III, Le Tampon IV</desc>
    </path><path class="circo" id="id-974-04" d="M65.354302 99.51073999999994L62.741001 98.73334L61.40960100000001 98.92823999999996L58.647801 96.95614L52.15700100000001 94.60753999999997L49.378101 94.53804000000002L47.831001 93.17674L45.124601 92.78434000000004L44.512001 92.44633999999996L42.756501 90.30643999999995L38.655901 89.50513999999998L36.82950100000001 88.48544000000004L34.307201000000006 85.18823999999995L37.252201 83.46376999999995L43.805301 81.73365999999999L45.68310100000001 79.82141999999999L46.61800100000001 77.98715000000004L46.560401 76.61458000000005L48.25760100000001 75.52485000000001L52.516301 80.99909000000002L54.696601 82.72941000000003L54.42460100000001 84.09569999999997L58.186301 87.18124L60.880601 86.52664000000004L65.05390200000001 84.00711999999999L66.743302 81.79516999999998L70.748805 79.06692999999996L70.520805 74.95919000000004L71.333105 70.92357000000004L73.377005 66.53538000000003L75.971605 64.25022999999999L77.224405 63.72766999999999L79.543405 65.23514999999998L80.364205 67.15084999999999L80.361305 69.15945999999997L79.16160500000001 71.57173999999998L79.55070500000001 72.12288000000001L84.902405 72.68573000000004L85.612705 77.53042000000005L87.399405 79.64405999999997L86.524905 85.86734000000001L88.58110500000001 91.08784000000003L88.455105 93.89164000000005L89.715305 97.15003999999999L89.819205 98.55963999999994L88.903405 99.62534000000005L85.425805 99.34073999999998L83.882205 100.71893999999998L81.133205 101.00783999999999L79.229405 101.90053999999998L76.69240500000001 100.84623999999997L71.906805 101.53974000000005L67.983602 98.72054000000003L67.29190200000001 98.83573999999999L65.354302 99.51073999999994z">
      <title id="t553">Quatrième circonscription de la Réunion</title>
      <desc id="d553">Cantons de : Petite-Ile, Saint-Joseph I, Saint-Joseph II, Saint-Pierre I, Saint-Pierre II, Saint-Pierre III, Saint-Pierre IV</desc>
    </path><path class="circo" id="id-974-05" d="M55.503800999999996 26.930489999999963L53.395301 25.323599999999942L46.26740100000001 27.240170000000035L44.840901 28.262989999999945L44.93820100000001 30.305600000000027L43.561901000000006 31.786879999999996L43.435901 36.613809999999944L42.120701 38.151179999999954L42.131800999999996 38.84266000000002L45.433701 42.19482000000005L47.690901 43.521259999999984L51.137201000000005 47.26509999999996L52.752401000000006 49.46601999999996L53.236401 52.85064999999997L56.955201 52.07254999999998L60.27940100000001 51.94282999999996L62.17750100000001 52.5557L65.375902 51.66303000000005L66.963802 52.89158999999995L68.996602 59.33775000000003L71.995605 61.060280000000034L74.077605 61.21945000000005L76.989705 58.42538000000002L81.579695 65.36855000000003L80.364205 67.15084999999999L80.361305 69.15945999999997L79.16160500000001 71.57173999999998L79.55070500000001 72.12288000000001L84.902405 72.68573000000004L85.612705 77.53042000000005L87.399405 79.64405999999997L86.524905 85.86734000000001L88.58110500000001 91.08784000000003L88.455105 93.89164000000005L89.715305 97.15003999999999L89.819205 98.55963999999994L88.903405 99.62534000000005L97.769405 97.85493999999994L98.989305 97.16474000000005L101.769105 97.41503999999998L102.46580499999999 97.32413999999994L103.70470499999999 96.65714000000003L106.968505 93.97734000000003L108.51280500000001 91.61274000000003L108.782205 90.95964000000004L108.020105 86.80873999999994L108.58920499999999 81.91709000000003L107.63010500000001 77.12523999999996L108.005605 75.07245L108.73280500000001 71.54336999999998L109.884905 67.59523999999999L111.63520500000001 65.48203000000001L111.88080500000001 62.697700000000054L113.534605 61.566599999999994L113.670905 60.87923000000001L113.364405 56.72537L111.77400500000002 53.625080000000025L109.28330500000001 52.43681000000004L106.65920500000001 50.15446999999995L103.97240500000001 49.691670000000045L101.197105 45.72339999999997L95.507005 38.71510999999998L94.568805 36.83644000000004L94.409705 34.76805999999999L92.361405 31.94518000000005L90.051205 30.465640000000008L88.937805 26.446260000000052L88.936905 21.06535999999994L88.156205 18.41420000000005L85.695505 14.280480000000011L81.591595 17.82168999999999L80.584605 17.950109999999995L79.29220500000001 15.058369999999968L79.211405 12.213619999999992L78.226505 12.022389999999973L78.688205 13.318949999999973L76.489705 16.019249999999943L74.471905 16.389999999999986L69.742902 19.294089999999983L65.653802 24.028999999999996L62.183600999999996 26.34014000000002L59.485001 26.12465999999995L55.503800999999996 26.930489999999963z">
      <title id="t554">Cinquième circonscription de la Réunion</title>
      <desc id="d554">Cantons de : Bras-Panon, La Plaine-des-Palmistes, Saint-André II, Saint-André III, Saint-Benoît I, Saint-Benoît II, Saint-Philippe, Sainte-Rose, Salazie</desc>
    </path><path class="circo" id="id-974-06" d="M46.26740100000001 27.240170000000035L47.944300999999996 25.02431999999999L47.106201 23.042130000000043L47.784901000000005 16.067109999999957L48.446901 12.924589999999966L49.032500999999996 12.13760000000002L49.504401 10.015520000000038L50.070901000000006 9.37860999999998L50.127401000000006 7.567289999999957L51.667601000000005 5.933130000000006L49.243601 5.735410000000002L49.695201 2.788440000000037L52.377100999999996 2.0911200000000463L59.71310100000001 4.440809999999942L63.13560100000001 4.005520000000047L65.872102 4.535660000000007L67.091802 5.087459999999965L69.058302 4.8271499999999605L74.340705 7.718020000000024L75.679505 7.651100000000042L78.984905 8.571270000000027L82.501395 10.72497999999996L85.695505 14.280480000000011L81.591595 17.82168999999999L80.584605 17.950109999999995L79.29220500000001 15.058369999999968L79.211405 12.213619999999992L78.226505 12.022389999999973L78.688205 13.318949999999973L78.334305 13.924890000000005L76.489705 16.019249999999943L74.471905 16.389999999999986L69.742902 19.294089999999983L65.653802 24.028999999999996L62.183600999999996 26.34014000000002L59.485001 26.12465999999995L55.503800999999996 26.930489999999963L53.395301 25.323599999999942L46.26740100000001 27.240170000000035z">
      <title id="t555">Sixième circonscription de la Réunion</title>
      <desc id="d555">Cantons de : Saint-André I, Saint-Denis VII, Saint-Denis IX, Sainte-Marie, Sainte-Suzanne</desc>
    </path><path class="circo" id="id-974-07" d="M11.822700000000001 65.39756999999997L14.033100000000001 70.58335L19.0134 74.39395999999999L19.261799999999997 75.22080000000005L20.8516 76.51496999999995L21.2561 79.20638999999994L22.604400000000002 80.73379999999997L27.3993 81.44259999999997L31.964001 83.03887999999995L34.307201000000006 85.18823999999995L37.34750100000001 82.72508000000005L37.166900999999996 80.09948999999995L38.972601 78.15476999999998L36.841801000000004 77.49837000000002L38.123901000000004 74.94597999999996L36.751501000000005 74.18237999999997L35.825901 71.86864000000003L36.882301 67.81006000000002L40.317600999999996 64.99064999999996L39.215301 62.95389L39.492101000000005 61.60212000000001L36.292001 58.03773000000001L34.57610100000001 54.301180000000045L34.60430100000001 53.79335000000003L34.375601 52.553750000000036L36.51870100000001 49.489619999999945L37.76960100000001 48.25954999999999L33.323601 44.86409000000003L31.353500999999998 41.02192000000002L26.1606 41.09793000000002L25.091199999999997 40.23364000000004L22.789599999999997 40.253990000000044L19.081799999999998 38.125850000000014L17.6073 37.72520999999995L16.9541 36.62941000000001L15.537600000000001 36.612949999999955L13.723200000000002 34.86680999999999L12.3738 34.43606999999997L11.446299999999997 33.746759999999995L10.581799999999998 34.44776999999999L8.786100000000001 33.262089999999944L5.9608000000000025 28.84576000000004L5.336499999999997 29.082679999999982L3.2382000000000026 29.059290000000033L0.34949999999999903 32.146150000000034L0.021999999999998465 32.77482999999995L0 33.48364000000004L1.1064000000000007 36.07218999999998L0.5058000000000007 40.41770999999994L3.002100000000002 43.75189L6.737599999999997 46.92835000000002L7.008799999999997 48.21451000000002L9.9113 51.99675000000002L9.826399999999996 54.10843999999997L12.712099999999996 57.06191000000001L12.7944 61.28161L11.822700000000001 65.39756999999997z">
      <title id="t556">Septième circonscription de la Réunion</title>
      <desc id="d556">Cantons de : Les Avirons, L'Etang-Salé, Saint-Leu I, Saint-Leu II, Saint-Louis I, Saint-Paul IV, Saint-Paul V, Les Trois-Bassins</desc>
    </path></svg>