<svg xmlns="http://www.w3.org/2000/svg" version="1.1" xmlns:xlink="http://www.w3.org/1999/xlink" xmlns:svgjs="http://svgjs.dev/svgjs" viewBox="4.225786387479502e-15 0 59.43242844805099 132.680190317809"><path class="circo" id="id-975-01" d="M13.162565672124625 0C9.73046567212462 4.039969999999926 2.6899656721246217 2.950189999999907 1.533465672124624 8.753009999999904C-0.6777343278753776 11.358079999999973 -0.3184343278753765 14.455999999999904 2.3786656721246224 16.00081C4.960265672124624 21.035729999999944 4.0317656721246244 26.644589999999994 3.0690656721246263 31.801189999999906C4.627065672124626 36.51137999999992 2.4320656721246223 44.33816999999999 8.54126567212462 46.2879999999999C11.03786567212462 50.78150999999991 12.847065672124625 56.04591999999991 15.05046567212462 60.87648999999999C17.15496567212462 67.79955999999993 18.175765672124623 75.14905999999996 17.245565672124624 82.36164999999994C12.795265672124625 85.61301999999989 16.04086567212462 92.11127999999997 10.891165672124625 94.67603999999994C6.011365672124622 95.71497 3.6145656721246233 99.50321999999994 0.6722656721246238 103.02967999999998C-0.8740343278753784 104.19461999999999 0.6611656721246213 109.10230999999999 1.1750656721246244 108.87266999999997C3.8687656721246206 104.76418999999999 10.611665672124627 108.64418999999998 7.292365672124621 113.33821999999998C6.473565672124625 116.30521999999996 7.004765672124623 120.41294999999991 10.015965672124626 117.18054999999993C10.850465672124624 118.79789999999991 13.320565672124626 117.96489999999994 12.819465672124625 120.90914999999995C12.899065672124625 124.43323999999996 17.41026567212462 118.76742999999999 18.585265672124624 117.91523999999993C21.87326567212462 113.97178999999994 26.341665672124623 111.04599999999994 30.624666672124622 108.29058999999995C34.61296667212463 104.77207999999996 39.90246667212463 101.00486999999998 38.66616667212463 94.89386999999999C38.83726667212463 91.85911999999996 36.16846667212462 89.27974999999992 36.33266667212463 86.43773999999996C32.91346667212463 89.0917199999999 31.307366672124626 81.22298999999998 27.40536567212462 85.19886999999994C24.740065672124626 84.30234999999993 21.85076567212462 82.03369999999995 19.471765672124622 80.19091999999989C17.55626567212462 73.55561 18.669665672124626 66.33068999999989 21.189465672124623 60.02355C24.839265672124622 57.46792999999991 20.381565672124626 51.69543999999996 18.546365672124626 56.64246999999989C14.151165672124623 60.909709999999905 13.229765672124625 50.88247999999999 11.17076567212462 48.55205999999998C14.465565672124622 46.44383999999991 19.94606567212462 52.21092999999996 23.451765672124626 48.16170999999997C25.306765672124623 49.40046999999993 25.345565672124625 53.771729999999934 21.911465672124624 54.940309999999954C24.80586567212462 56.544899999999984 27.976265672124622 52.19190999999989 30.189166672124625 50.58015999999998C32.11146667212462 46.2751199999999 32.73726667212462 41.47402999999997 35.03736667212462 37.30059999999992C35.53186667212462 32.81400999999994 35.41776667212463 26.22303999999997 29.456365672124623 25.721679999999992C24.29126567212462 24.762129999999956 19.488965672124625 22.075369999999907 16.334565672124622 17.853959999999915C12.839665672124621 13.619969999999967 6.045065672124625 19.095389999999952 5.114765672124623 12.075709999999958C4.560765672124621 8.414919999999938 10.085865672124623 8.623869999999897 11.374565672124621 5.360059999999976C14.327565672124624 4.773489999999924 14.143065672124624 2.350369999999998 13.162565672124625 0zM56.42546667212463 107.30536999999993C53.06096667212462 106.9333499999999 53.39676667212463 111.08267999999998 56.82086667212462 109.05007999999998C58.18466667212462 108.63361999999995 57.58876667212462 107.22566999999992 56.42546667212463 107.30536999999993zM55.64136667212463 110.55007999999998C50.043066672124624 111.15303999999992 46.61816667212463 115.08167999999989 43.71186667212463 119.4812599999999C42.23686667212462 122.74614999999994 39.82556667212462 126.49052999999992 38.27606667212463 128.80733999999995C40.99656667212463 129.04076999999995 41.30616667212463 129.6428699999999 41.65556667212462 132.05310999999995C44.54786667212463 134.69760999999994 43.314466672124624 128.02886999999998 46.80276667212463 129.51240999999993C49.17506667212463 128.16775999999993 49.744766672124626 126.9183599999999 49.75526667212462 130.54593C50.67916667212462 131.1836199999999 53.35766667212462 130.49408999999991 53.783266672124626 131.13339999999994C53.33926667212462 128.73564 60.614166672124625 130.58855999999992 59.26536667212463 126.6572799999999C56.19776667212463 125.38306 56.73396667212462 121.85001999999997 55.99066667212463 119.24529999999993C59.99406667212463 117.65809999999999 58.93936667212462 112.2308099999999 55.64136667212463 110.55007999999998z">
      <title id="t557">Première circonscription de Saint-Pierre-et-Miquelon</title>
      <desc id="d557">Circonscription unique</desc>
    </path></svg>