<svg xmlns="http://www.w3.org/2000/svg" version="1.1" xmlns:xlink="http://www.w3.org/1999/xlink" xmlns:svgjs="http://svgjs.dev/svgjs" viewBox="0 0 88.803205 118.39848000000006"><path class="circo" id="id-976-01" d="M2.8154000000000003 0L2.228799999999996 0.11750000000006366L0 2.5811800000000176L0.23460000000000036 3.050420000000031L2.9327000000000005 3.988900000000058L3.871199999999998 5.865850000000023L7.038500000000003 3.6367800000000443L6.9212000000000025 3.167540000000031L2.8154000000000003 0zM26.511900999999998 5.982970000000023L23.344500999999998 6.92145000000005L23.579201 8.094540000000052L20.9984 10.32323000000008L20.177200000000003 13.607900000000086L18.534899999999997 15.133110000000102L16.306 14.898490000000038L16.6579 17.948530000000005L13.607899999999997 21.11570000000006L10.557799999999997 20.529340000000047L10.323199999999996 20.763959999999997L7.977 27.802530000000047L11.144400000000001 28.154269999999997L12.082800000000002 30.031220000000076L7.5078 34.84109000000001L7.5078 36.0141900000001L15.367499999999996 32.02566999999999L24.165701000000002 31.087190000000078L26.277300999999998 33.668000000000006L34.019701 38.125760000000014L44.460201 40.823690000000056L49.035301000000004 41.292920000000095L57.12970200000001 41.87966000000006L69.447202 38.24324999999999L65.341302 35.07571000000007L62.408602 34.020110000000045L61.704702 33.19875999999999L62.056702 31.087190000000078L61.352802 31.79105000000004L58.537402 30.38333L54.196901 30.14871000000005L50.09110100000001 30.031220000000076L46.92370100000001 27.098670000000084L44.342901 31.90817000000004L42.348701000000005 31.90817000000004L41.292901 29.914100000000076L40.23710100000001 29.7969700000001L37.656301 30.852570000000014L35.075501 29.444860000000062L34.019701 29.09274000000005L34.958201 26.043070000000057L33.550501 23.11015000000009L34.488901 21.11570000000006L30.500401 19.121630000000096L29.210001000000002 16.07158000000004L24.400301000000002 11.613820000000032L22.523400999999996 10.675350000000094L26.160000999999998 7.977040000000102L26.511900999999998 5.982970000000023zM84.580105 40.58944000000008L81.529995 45.16432000000009L79.301105 48.91822000000002L76.13380500000001 47.97975000000008L80.122305 50.7951700000001L84.110805 57.599120000000084L84.932005 54.549080000000004L88.099405 51.38191000000006L88.334005 48.09725000000003L88.451305 47.97975000000008L88.803205 46.92378000000008L86.926305 42.81813L84.580105 40.58944000000008z">
      <title id="t558">Première circonscription de Mayotte</title>
      <desc id="d558">Cantons de : Acoua, Bandraboua, Dzaoudzi, Koungou, Mamoudzou I, Mamoudzou II, Mtsamboro, Pamandzi</desc>
    </path><path class="circo" id="id-976-02" d="M62.735901999999996 81.57303999999999L60.10780200000001 83.44887000000006L57.117802 84.69441000000006L55.878602 87.71480000000008L56.45670200000001 89.81023000000005L58.65620200000001 92.1323900000001L53.41980100000001 91.69807000000003L50.245901 95.81578000000002L50.950501 98.76968L50.530801 99.75588000000005L48.43650100000001 100.04148000000009L47.63770100000001 102.00778000000003L51.527901 108.02458000000001L57.570502000000005 111.13808000000006L57.418502000000004 112.19258000000002L55.657202 113.67418000000009L52.244101 113.95238000000006L49.667801 115.76668000000006L48.927201 112.51838000000009L47.47590100000001 110.89368000000002L45.28930100000001 110.42148000000009L43.793001000000004 112.07168000000001L43.899601000000004 113.19108000000006L44.02340100000001 114.00828000000001L44.080101 115.11838L41.24560100000001 118.39848000000006L39.091201 118.05918000000008L37.04230100000001 115.55788000000007L34.253201000000004 117.11088000000007L33.406701 112.81158000000005L31.288301 112.47518000000002L28.447400999999996 115.66868L27.608400999999997 115.0056800000001L29.105800999999996 107.51368000000002L28.725500999999998 105.33748000000003L27.707100999999998 104.89678000000004L23.301201000000002 107.72918000000004L19.1287 106.16108000000008L23.696800999999997 103.78228000000001L25.737801 101.43047999999999L26.771601 97.20508000000007L26.217601 95.1478800000001L22.143401 94.83858000000009L20.1865 92.37039000000004L16.763699999999996 85.7935500000001L19.993199999999998 85.54354000000001L25.590701 86.06571000000008L26.233000999999998 89.30983000000003L27.496501 93.37981000000002L32.515901 95.39078000000006L33.970101 96.97978L34.152201000000005 96.95878000000005L37.41810100000001 97.97878000000003L40.718501 97.20428000000004L43.24600100000001 93.43687L42.918701 92.32985000000008L38.066001 83.25066000000004L36.021601000000004 82.31331L35.720901 81.67702000000008L33.123200999999995 79.77229L29.350601 74.27170000000001L25.511801000000002 72.31705L24.152500999999997 70.47951L24.775301000000002 69.5199L26.562901 68.09304000000009L31.867200999999998 66.44808L27.632001 65.00583000000006L26.140601 63.754279999999994L27.629400999999998 58.536730000000034L25.834701 55.92139000000009L25.666101 53.74375000000009L26.630101 52.1926400000001L29.558201 51.6618400000001L29.305100999999997 50.69446000000005L25.212301 50.35886000000005L24.446800999999997 48.3768L26.266001 45.887590000000046L26.635701 43.739599999999996L25.341401 42.11567000000002L23.413400999999997 43.231700000000046L20.493599999999997 41.661820000000034L18.3449 42.27183000000002L13.3961 37.68456000000003L10.150899999999996 38.11701000000005L7.496100000000002 36.02008000000001L15.378899999999998 32.03944000000001L24.170201000000002 31.11072999999999L26.287800999999998 33.701290000000085L34.017801000000006 38.13841000000002L44.416900999999996 40.77177000000006L49.056301000000005 41.27479000000005L57.158702000000005 41.87542000000008L69.420102 38.187580000000025L69.587502 41.34987000000001L68.48200200000001 44.51403000000005L67.664002 43.73059000000001L67.779302 41.06758000000002L65.756702 44.78844000000004L67.548002 45.452510000000075L69.016502 47.327210000000036L68.41740200000001 47.79194000000007L64.61810200000001 50.287160000000085L62.180702 53.95810000000006L59.462902 55.97545000000002L58.915502000000004 59.23684000000003L57.019802 60.4516000000001L56.940202 60.48989000000006L55.62110200000001 62.071410000000014L55.887602 64.13718000000006L53.421701 66.00888000000009L53.092901 67.00066000000004L54.084300999999996 67.34639000000004L56.08170200000001 67.98118L56.489002 70.11489000000006L58.90020200000001 73.71199999999999L61.003502 74.31675000000007L61.478702 76.47111000000007L64.620002 76.59875L62.735901999999996 81.57303999999999z">
      <title id="t559">Deuxième circonscription de Mayotte</title>
      <desc id="d559">Cantons de : Bandrele, Bouéni, Chiconi, Chirongui, Dembeni, Kani-Kéli, Mamoudzou III, M'Tsangamouji, Ouangani, Sada, Tsingoni</desc>
    </path></svg>