<svg xmlns="http://www.w3.org/2000/svg" version="1.1" xmlns:xlink="http://www.w3.org/1999/xlink" xmlns:svgjs="http://svgjs.dev/svgjs" viewBox="29.972905 905.70652 88.803205 118.39848000000006"><path class="circo" id="976-01" d="M 32.788305,905.70652 32.201705,905.82402 29.972905,908.2877 30.207505,908.75694 32.905605,909.69542 33.844105,911.57237 37.011405,909.3433 36.894105,908.87406 32.788305,905.70652 z M 56.484806,911.68949 53.317406,912.62797 53.552106,913.80106 50.971305,916.02975 50.150105,919.31442 48.507805,920.83963 46.278905,920.60501 46.630805,923.65505 43.580805,926.82222 40.530705,926.23586 40.296105,926.47048 37.949905,933.50905 41.117305,933.86079 42.055705,935.73774 37.480705,940.54761 37.480705,941.72071 45.340405,937.73219 54.138606,936.79371 56.250206,939.37452 63.992606,943.83228 74.433106,946.53021 79.008206,946.99944 87.102607,947.58618 99.420107,943.94977 95.314207,940.78223 92.381507,939.72663 91.677607,938.90528 92.029607,936.79371 91.325707,937.49757 88.510307,936.08985 84.169806,935.85523 80.064006,935.73774 76.896606,932.80519 74.315806,937.61469 72.321606,937.61469 71.265806,935.62062 70.210006,935.50349 67.629206,936.55909 65.048406,935.15138 63.992606,934.79926 64.931106,931.74959 63.523406,928.81667 64.461806,926.82222 60.473306,924.82815 59.182906,921.7781 54.373206,917.32034 52.496306,916.38187 56.132906,913.68356 56.484806,911.68949 z M 114.55301,946.29596 111.5029,950.87084 109.27401,954.62474 106.10671,953.68627 110.09521,956.50169 114.08371,963.30564 114.90491,960.2556 118.07231,957.08843 118.30691,953.80377 118.42421,953.68627 118.77611,952.6303 116.89921,948.52465 114.55301,946.29596 z">
      <title id="t558">Première circonscription de Mayotte</title>
      <desc id="d558">Cantons de : Acoua, Bandraboua, Dzaoudzi, Koungou, Mamoudzou I, Mamoudzou II, Mtsamboro, Pamandzi</desc>
    </path><path class="circo" id="976-02" d="M 92.708807,987.27956 90.080707,989.15539 87.090707,990.40093 85.851507,993.42132 86.429607,995.51675 88.629107,997.83891 83.392706,997.40459 80.218806,1001.5223 80.923406,1004.4762 80.503706,1005.4624 78.409406,1005.748 77.610606,1007.7143 81.500806,1013.7311 87.543407,1016.8446 87.391407,1017.8991 85.630107,1019.3807 82.217006,1019.6589 79.640706,1021.4732 78.900106,1018.2249 77.448806,1016.6002 75.262206,1016.128 73.765906,1017.7782 73.872506,1018.8976 73.996306,1019.7148 74.053006,1020.8249 71.218506,1024.105 69.064106,1023.7657 67.015206,1021.2644 64.226106,1022.8174 63.379606,1018.5181 61.261206,1018.1817 58.420306,1021.3752 57.581306,1020.7122 59.078706,1013.2202 58.698406,1011.044 57.680006,1010.6033 53.274106,1013.4357 49.101605,1011.8676 53.669706,1009.4888 55.710706,1007.137 56.744506,1002.9116 56.190506,1000.8544 52.116306,1000.5451 50.159405,998.07691 46.736605,991.50007 49.966105,991.25006 55.563606,991.77223 56.205906,995.01635 57.469406,999.08633 62.488806,1001.0973 63.943006,1002.6863 64.125106,1002.6653 67.391006,1003.6853 70.691406,1002.9108 73.218906,999.14339 72.891606,998.03637 68.038906,988.95718 65.994506,988.01983 65.693806,987.38354 63.096106,985.47881 59.323506,979.97822 55.484706,978.02357 54.125406,976.18603 54.748206,975.22642 56.535806,973.79956 61.840106,972.1546 57.604906,970.71235 56.113506,969.4608 57.602306,964.24325 55.807606,961.62791 55.639006,959.45027 56.603006,957.89916 59.531106,957.36836 59.278006,956.40098 55.185206,956.06538 54.419706,954.08332 56.238906,951.59411 56.608606,949.44612 55.314306,947.82219 53.386306,948.93822 50.466505,947.36834 48.317805,947.97835 43.369005,943.39108 40.123805,943.82353 37.469005,941.7266 45.351805,937.74596 54.143106,936.81725 56.260706,939.40781 63.990706,943.84493 74.389806,946.47829 79.029206,946.98131 87.131607,947.58194 99.393007,943.8941 99.560407,947.05639 98.454907,950.22055 97.636907,949.43711 97.752207,946.7741 95.729607,950.49496 97.520907,951.15903 98.989407,953.03373 98.390307,953.49846 94.591007,955.99368 92.153607,959.66462 89.435807,961.68197 88.888407,964.94336 86.992707,966.15812 86.913107,966.19641 85.594007,967.77793 85.860507,969.8437 83.394606,971.7154 83.065806,972.70718 84.057206,973.05291 86.054607,973.6877 86.461907,975.82141 88.873107,979.41852 90.976407,980.02327 91.451607,982.17763 94.592907,982.30527 92.708807,987.27956 z">
      <title id="t559">Deuxième circonscription de Mayotte</title>
      <desc id="d559">Cantons de : Bandrele, Bouéni, Chiconi, Chirongui, Dembeni, Kani-Kéli, Mamoudzou III, M'Tsangamouji, Ouangani, Sada, Tsingoni</desc>
    </path></svg>