<svg xmlns="http://www.w3.org/2000/svg" version="1.1" xmlns:xlink="http://www.w3.org/1999/xlink" xmlns:svgjs="http://svgjs.dev/svgjs" viewBox="40.31608217285107 1068.0571892221433 102.18579986278927 76.56730816963295"><path class="circo" d="M 91.447329,1068.0721 C 89.515169,1067.8021 83.814939,1071.2788 86.802639,1072.0283 89.489089,1071.9191 91.716399,1070.4137 91.115289,1068.6479 L 91.560409,1068.2032 91.448459,1068.0721 91.447989,1068.072 z M 72.680509,1068.6085 C 71.522889,1069.6906 72.046549,1072.6375 69.558499,1070.4163 66.872699,1069.2713 68.535209,1078.7577 63.905669,1075.0323 61.324029,1075.5574 62.095709,1079.0354 59.157069,1080.0412 60.714669,1082.0295 60.019349,1085.1016 58.109479,1086.4681 56.427309,1087.2164 54.645279,1089.0588 52.808599,1087.575 49.325239,1087.5079 53.095239,1080.3688 49.502639,1084.2009 47.717349,1087.2573 45.337219,1083.3372 42.938089,1084.1354 39.716059,1084.7534 39.152409,1088.977 43.010639,1089.1976 44.815389,1092.8668 47.215549,1086.9398 49.622219,1086.5623 52.148029,1087.3482 52.026399,1090.3916 54.592499,1089.5607 57.443089,1089.9146 55.808809,1087.3578 58.019229,1088.0462 58.897089,1087.1081 58.286189,1092.5475 56.387379,1090.597 55.935559,1093.5272 60.767659,1092.9124 62.044839,1091.1284 63.288579,1090.0123 64.337169,1088.2438 65.711309,1087.5401 67.845209,1087.9556 69.966159,1088.3912 71.708919,1089.7886 73.993549,1090.2561 76.582239,1089.1452 78.802069,1089.7762 81.621469,1092.1857 79.836519,1086.0229 80.088399,1085.3936 79.052109,1088.0527 76.729769,1083.7905 78.908729,1083.0933 82.578329,1080.7755 77.799309,1081.1307 77.406849,1078.8495 76.662049,1077.5324 75.951969,1074.9102 76.935769,1073.8958 80.396609,1072.9631 77.775109,1066.9348 74.273849,1068.6874 73.743119,1068.6966 73.211439,1068.5782 72.680329,1068.6077 z M 120.30171,1129.0159 C 117.89879,1129.4958 120.8452,1132.0757 117.85457,1131.5013 118.31335,1132.0739 120.13637,1132.9388 121.25661,1134.1593 122.6867,1135.491 124.64235,1136.4271 125.11314,1138.4735 122.81184,1138.5971 125.46726,1141.0408 126.08911,1142.0053 127.41488,1144.9238 129.48785,1145.5026 130.7197,1143.2388 132.18981,1146.2307 134.22501,1139.9781 135.81774,1143.8102 136.6105,1142.1344 137.18657,1140.2733 139.21388,1139.8531 140.66799,1138.0357 142.15944,1141.7031 142.03347,1138.4376 142.41071,1136.7026 143.28826,1132.9182 140.8608,1136.0272 141.16558,1132.6297 138.77875,1136.5487 138.92081,1133.7119 136.97974,1134.86 137.1361,1134.3287 137.14779,1132.4915 135.47386,1133.6042 135.21073,1130.5334 134.22655,1133.8035 133.54391,1136.1314 130.03924,1134.7959 129.03273,1136.7521 127.78791,1134.9132 126.75764,1132.8589 125.33839,1131.1874 122.32997,1131.9766 121.33881,1132.2144 120.30171,1129.0159 z" id="977-01">
      <desc id="d977">circonscription unique</desc>
      <title id="t977">Circonscription unique de Saint-Barthélemy et Saint-Martin</title>
    </path></svg>