<svg xmlns="http://www.w3.org/2000/svg" version="1.1" xmlns:xlink="http://www.w3.org/1999/xlink" xmlns:svgjs="http://svgjs.dev/svgjs" viewBox="4.032798400777082e-15 -7.829847881168917e-14 110.41275564351105 97.78857874868389"><path class="circo" id="id-986-01" d="M40.72991065007656 0.034556049951106615C39.416420650076574 3.693156049951085 38.12092565007657 8.439956049950979 39.88088965007657 12.491056049950885C40.65941365007657 17.369856049951068 42.01788965007657 22.373756049950998 43.15641365007657 26.989356049951084C43.872470650076565 30.325056049950945 42.91402765007656 36.71995604995095 47.47165665007657 36.48165604995097C48.01649065007656 39.10495604995094 47.09506865007657 40.28695604995096 48.59726365007657 43.43295604995092C50.60879065007657 46.377856049951106 53.83754765007657 46.99205604995109 55.58082365007657 49.46215604995109C57.33920965007657 49.57955604995095 59.343659650076575 50.87615604995108 59.89457865007657 48.2980560499509C63.522641650076565 48.60735604995102 67.83217165007657 50.7175560499511 71.17686365007657 48.57435604995089C74.48317365007657 46.25815604995091 77.08718365007657 52.01165604995094 81.30018365007656 50.29515604995095C84.35533365007657 51.37315604995092 90.23940365007657 48.343256049950924 88.95545365007656 46.059256049951045C84.81203365007657 47.69235604995106 83.90530365007658 41.870656049951094 80.43783365007657 41.016256049950925C78.15536365007657 40.48985604995096 77.90817365007656 39.76835604995108 75.58404365007657 39.27635604995089C72.35817365007657 35.68975604995103 70.42793365007657 31.794756049951047 67.94071165007657 27.583756049951035C64.45278165007657 24.047256049951102 64.63416165007656 21.389056049951023 61.56460165007657 17.889156049950998C61.62301165007656 15.953556049950976 59.155776650076575 15.452856049950924 58.63077665007657 12.980456049951044C55.58130365007656 13.562656049951102 55.16714965007657 8.644256049951082 51.68189465007657 9.705356049950979C48.87826665007657 9.153656049950996 50.422176650076565 4.15265604995102 47.90421265007657 4.043756049951071C45.80594365007657 9.204156049951052 43.71285565007656 -0.651943950048917 40.72991065007656 0.034456049950904344zM19.72722065007657 0.0954560499510535C18.60171165007657 3.40655604995095 13.71666165007657 3.692856049950933 13.948139650076573 8.105456049951044C11.348826650076571 11.247156049950945 12.00932965007657 15.18975604995103 11.264053650076573 18.98495604995105C10.618778650076575 23.4076560499509 9.645961650076575 27.659056049951005 9.435528650076574 32.11765604995094C10.86681065007657 35.86875604995089 10.998002650076575 41.6559560499511 9.432274650076575 45.123256049950896C9.260001650076571 49.14545604995101 3.9311046500765734 48.61985604995107 2.2082846500765747 51.17565604995093C-2.9872253499234276 53.32315604995097 3.0227566500765697 59.942256049951084 0.04835265007657341 63.95055604995105C0.40545765007657053 67.0499560499511 0.8613276500765714 70.9719560499509 4.027836650076569 70.73225604995105C4.936087650076569 71.60635604995105 7.052692650076569 69.2012560499511 6.069503650076573 72.27525604995094C6.753386650076575 75.09315604995095 10.04709165007657 75.32035604995099 9.181663650076569 75.61745604995099C11.326821650076571 72.84625604995108 8.165543650076575 81.17885604995104 12.072163650076572 81.28195604995108C12.65522265007657 84.52635604995089 14.04383865007657 89.77395604995104 12.097544650076575 91.53635604995088C8.758852650076573 89.33945604995097 14.335497650076572 93.1070560499511 12.696938650076572 95.30485604995101C13.407414650076571 92.2627560499509 13.73733265007657 95.69365604995096 14.18012965007657 96.25795604995096C15.599934650076573 93.98495604995105 18.43627265007657 100.99635604995092 18.629549650076573 95.86185604995103C19.631107650076576 93.21965604995103 20.97200365007657 89.37525604995108 22.578267650076572 92.53715604995091C24.41897865007657 92.11595604995091 26.18401865007657 98.93105604995094 27.803030650076575 94.07275604995107C31.761615650076575 92.81205604995102 29.111663650076576 86.41885604995105 25.75406665007657 88.23895604995096C23.342547650076572 85.52605604995097 27.64094265007657 81.75675604995104 23.920717650076572 82.63755604995094C24.29200965007657 79.23585604995105 26.090776650076574 77.05685604995097 24.608317650076575 74.20375604995093C25.29756165007657 70.49855604995105 26.982530650076573 68.4855560499509 25.302580650076575 65.08535604995109C25.859176650076574 62.30265604995088 28.350206650076576 67.06115604995102 28.079778650076573 63.08085604995108C26.811339650076572 58.644756049950956 26.943856650076572 54.271256049951035 29.324675650076575 49.67665604995091C29.956177650076572 47.409056049951005 32.236456650076576 48.85735604995102 32.500669650076574 49.15445604995102C30.13921265007657 45.212456049951015 34.553570650076566 40.161456049951084 34.993130650076566 35.82335604995092C33.78081365007657 32.82195604995104 34.85068065007657 27.330756049951106 31.56345065007657 25.497556049951072C28.26607565007657 23.780156049951074 27.86287065007657 18.186156049951023 28.201476650076575 14.663356049951062C25.778470650076574 13.973656049950932 27.08856065007657 6.3024560499509334 24.077093650076574 5.298356049951053C22.18714265007657 3.436556049950923 20.919500650076575 0.4942560499509909 19.77492365007657 0.7229560499508807L19.72766065007657 0.0954560499510535L19.72787965007657 0.0955560499510284zM93.96429365007657 58.97995604995094C91.16345365007656 60.65985604995103 87.73511365007657 60.983256049951024 86.15785365007658 64.3452560499511C82.95327365007657 67.74055604995101 81.37385365007657 74.08015604995103 82.97906365007657 77.986056049951C84.52399365007656 80.95985604995099 89.16713365007656 76.6668560499511 91.01044365007657 81.29975604995093C92.06222365007658 83.966156049951 91.77567365007657 87.22625604995096 94.45766365007657 87.65265604995102C96.73930365007656 83.2364560499509 100.01114365007656 79.36305604995096 103.18346365007658 75.47615604995099C104.97341365007658 73.28435604995093 111.87807365007656 70.61555604995101 110.13234365007658 68.1920560499509C108.89481365007656 63.542756049951095 103.26935365007658 68.94515604995104 100.60024365007656 64.89605604995108C99.66527365007657 61.919956049951 99.40791365007657 58.702456049951024 95.69028365007657 59.35755604995097C95.11626365007658 59.199856049950995 94.60392365007657 58.77085604995091 93.96429365007657 58.97995604995094z">
      <title id="t560">Première circonscription de Wallis-et-Futuna</title>
      <desc id="d560">Circonscription unique</desc>
    </path></svg>