<svg xmlns="http://www.w3.org/2000/svg" version="1.1" xmlns:xlink="http://www.w3.org/1999/xlink" xmlns:svgjs="http://svgjs.dev/svgjs" viewBox="237.4280035300627 1185.4697 181.05117808013097 94.51853789816823"><path class="circo" id="987-01" d="M 270.72734,1185.4697 C 268.22134,1187.1027 265.09855,1187.1365 262.36446,1187.774 258.8808,1188.1076 261.93381,1191.9488 260.15954,1193.5148 259.40466,1192.1397 260.1736,1188.9158 258.05104,1188.3985 255.07803,1187.6437 252.75584,1189.5166 252.51666,1192.6205 253.15446,1193.9425 254.26743,1197.9897 252.23369,1194.8258 252.06883,1191.6525 249.07585,1189.6627 246.29427,1190.1379 244.11367,1189.6641 243.56862,1190.1388 241.50694,1190.0981 239.71498,1189.9244 238.88502,1191.4811 240.31509,1189.4823 240.33267,1187.9286 235.91942,1190.2755 237.97291,1190.9936 240.11926,1190.7026 237.24501,1195.4379 239.36325,1196.8141 239.70317,1198.8377 241.24987,1201.0827 242.83785,1202.5133 245.28085,1204.2904 248.26986,1205.3619 249.23417,1208.2938 250.08178,1211.0759 253.40139,1210.2228 253.66205,1212.8811 255.29122,1213.1887 255.6401,1211.2368 255.88872,1213.2401 257.24701,1215.2459 261.60744,1214.1541 264.06397,1214.0135 263.98312,1212.2074 266.63724,1211.6166 266.50844,1209.0819 267.74237,1208.2154 267.39652,1204.9911 268.60559,1204.2101 271.37026,1203.1164 272.35282,1200.2784 270.80685,1197.6863 271.74512,1196.435 272.57034,1194.4529 273.25017,1192.8393 274.02533,1191.7421 278.00716,1190.8948 274.85916,1189.4624 272.77654,1188.7494 273.03617,1185.9824 270.72737,1185.4697 z M 331.6314,1195.4416 C 330.23001,1196.0032 328.58181,1197.9262 327.16194,1196.4547 326.00736,1198.2225 323.24967,1195.393 322.07667,1197.5472 320.15169,1196.9786 317.03588,1198.1018 316.17826,1199.0865 319.61721,1200.3044 313.32521,1202.1534 317.46814,1202.8709 320.16136,1204.761 322.86659,1206.6855 326.00982,1207.7774 328.13733,1208.0213 329.95493,1212.8915 331.23411,1209.5651 332.94982,1207.4625 334.17071,1204.8244 333.56883,1202.0325 333.10836,1199.7597 332.68246,1197.5236 331.6314,1195.4416 z">
      <title id="t561">Première circonscription de la Polynésie Française</title>
      <desc id="d561">Communes de : Anaa, Arue, Arutua, Fakarava, Fangatau, Fatu-Hiva, Gambier, Hao, Hikueru, Hiva-Oa, Makemo, Manihi, Moorea-Maiao, Napuka, Nuku-Hiva, Nukutavake, Papeete, Pirae, Pukapuka, Rangiroa, Reao, Tahuata, Takaroa, Tatakoto, Tureia, Ua-Huka, Ua-Pou</desc>
    </path><path class="circo" id="987-02" d="M 409.03472,1279.9392 C 405.81965,1279.2154 403.24918,1279.3395 400.69967,1277.417 397.49276,1276.4369 394.57082,1276.0733 391.1648,1275.8052 389.74809,1273.9514 386.53565,1273.4498 385.56112,1271.4028 383.82554,1269.0813 381.27547,1267.7357 380.00825,1265.928 381.42584,1263.0008 379.71157,1258.9714 377.14375,1256.9563 376.4205,1256.2831 377.18206,1253.1347 374.55483,1252.1437 375.63958,1249.9078 368.78694,1248.4567 373.60479,1247.0216 375.87031,1247.1492 372.94007,1244.8835 372.63369,1244.7575 370.92712,1246.7347 369.73766,1246.4626 370.21881,1249.3765 368.72402,1251.0942 365.35404,1252.8086 362.94787,1252.0143 360.79108,1252.2906 357.74741,1251.7507 357.34535,1254.5201 354.5426,1254.8304 351.91319,1255.4328 348.70209,1255.3347 346.38497,1254.7198 344.48412,1258.5023 342.09814,1256.6553 338.5926,1258.2021 338.58916,1253.5036 334.87698,1253.9528 331.9349,1253.3218 329.35282,1252.7517 327.27643,1251.2595 324.3186,1250.9509 321.76012,1251.1456 319.31902,1249.8704 315.78227,1248.8388 315.3356,1246.4546 315.11738,1242.9795 313.81378,1239.4029 315.06988,1235.062 312.33738,1231.967 312.14123,1228.8683 307.78451,1224.6766 308.18871,1223.3808 312.71058,1223.4993 318.53098,1222.7731 320.69724,1218.1663 321.58669,1214.4487 326.30307,1215.6827 328.88697,1214.5747 330.57878,1212.9615 330.36239,1210.3684 332.14359,1208.7268 334.97772,1205.4204 333.69433,1200.8862 332.65206,1197.1804 329.36918,1193.939 335.63223,1193.4398 334.08614,1190.1912 336.97311,1190.3206 339.47421,1194.0228 342.64833,1192.7643 345.90856,1193.7032 349.61548,1192.0075 352.24295,1194.4856 355.56463,1194.468 358.1442,1196.8606 360.42568,1199.0677 363.77809,1201.165 368.71443,1199.3212 371.49088,1203.0809 371.64308,1206.1158 375.04488,1206.8718 376.38546,1209.1999 376.68038,1211.5602 377.10779,1212.3743 378.23186,1215.2104 379.14412,1218.4892 377.1956,1222.1647 376.51643,1225.0083 375.28135,1227.603 376.73296,1230.9681 378.22877,1232.7797 378.24283,1236.3986 376.57299,1241.2253 379.05529,1244.1109 382.90689,1244.9069 387.22105,1248.506 391.19008,1245.7318 393.74546,1246.2845 397.06528,1245.3465 398.25893,1247.9938 401.38119,1246.8891 402.82867,1250.4557 406.54711,1249.7267 408.75277,1250.866 409.48437,1249.2543 410.39213,1248.0302 410.97825,1251.4385 415.21434,1252.4463 416.84741,1255.7909 418.42673,1257.1362 417.75706,1261.0559 418.06959,1262.6715 417.22888,1264.5362 419.73599,1266.9896 417.57814,1269.4117 417.68148,1271.9073 416.61983,1274.1226 415.05735,1275.8744 414.91393,1277.97 411.18715,1280.362 409.03472,1279.9392 z">
      <title id="t562">Deuxième circonscription de la Polynésie Française</title>
      <desc id="d562">Communes de : Hitiaa O Te Ra, Mahina, Paea, Papara, Raivavae, Rapa, Rimatara, Rurutu, Taiarapu Est, Taiarapu Ouest, Teva I Uta, Tubuai</desc>
    </path><path class="circo" id="987-03" d="M 315.38239,1201.818 C 314.36194,1202.2647 313.24678,1202.4556 312.20493,1202.1327 311.05814,1202.0459 310.34731,1203.2651 309.36348,1203.7051 308.90884,1204.4505 308.39295,1204.0247 307.76142,1203.916 306.62985,1203.6493 307.57019,1205.8505 306.31472,1205.8063 305.15123,1206.732 307.65399,1207.3689 306.7771,1208.33 305.9098,1207.5414 305.84491,1209.1401 306.52295,1209.3267 306.06974,1210.0287 307.17747,1210.6365 306.7662,1211.472 307.16742,1212.4333 307.61234,1213.292 307.80008,1214.3374 307.95756,1215.2898 307.15902,1215.9841 307.51992,1217.0088 307.35717,1217.6982 307.60185,1218.3835 306.84051,1218.8019 307.52776,1219.432 306.92695,1220.5026 307.76367,1220.9544 308.18288,1221.8216 306.52647,1223.463 308.14007,1223.1423 309.66656,1223.1071 311.20845,1223.1883 312.72306,1222.9897 313.74098,1222.7671 314.75212,1222.4838 315.70001,1222.0797 316.57901,1221.9352 317.31456,1221.3468 318.06906,1220.9604 318.88904,1220.3366 319.63573,1219.6753 320.06346,1218.7238 320.73158,1217.9332 320.74589,1216.7093 321.59969,1216.1006 322.51188,1215.4557 323.63967,1215.1665 324.75065,1215.1306 325.75208,1214.9738 326.73445,1214.7129 327.76587,1214.7312 328.70658,1214.7207 329.28692,1213.8656 329.72253,1213.1605 330.09422,1212.6189 330.03431,1211.7715 329.82904,1211.2056 329.22538,1210.6361 328.85172,1209.8483 328.15061,1209.3751 327.22021,1208.9579 326.47171,1208.226 325.53051,1207.8589 324.63931,1207.5002 323.79905,1207.1222 322.95059,1206.6847 321.87124,1206.3238 321.01806,1205.5516 320.04121,1205.0011 319.21756,1204.2056 318.18196,1203.7231 317.26939,1203.0694 316.64191,1202.6983 315.84188,1202.3404 315.38228,1201.818 z">
      <title id="t563">Troisième circonscription de la Polynésie Française</title>
      <desc id="d563">Communes de : Bora-Bora, Faaa, Huahine, Maupiti, Punaauia, Tahaa, Taputapuatea, Tumaraa, Uturoa</desc>
    </path></svg>