<svg xmlns="http://www.w3.org/2000/svg" version="1.1" xmlns:xlink="http://www.w3.org/1999/xlink" xmlns:svgjs="http://svgjs.dev/svgjs" viewBox="8.271161533457416e-15 0 181.0511780801309 94.51853789816823"><path class="circo" id="id-987-01" d="M33.299336469937316 0C30.793336469937287 1.6329999999998108 27.67054646993728 1.6667999999999665 24.936456469937298 2.3042999999997846C21.45279646993731 2.637899999999945 24.505806469937284 6.479099999999789 22.731536469937282 8.04509999999982C21.976656469937268 6.669999999999845 22.74559646993731 3.4460999999998876 20.62303646993729 2.92879999999991C17.650026469937302 2.173999999999978 15.327836469937296 4.046899999999823 15.088656469937291 7.15079999999989C15.72645646993729 8.472800000000007 16.83942646993728 12.519999999999982 14.805686469937285 9.35609999999997C14.64082646993728 6.1827999999998156 11.647846469937292 4.192999999999984 8.866266469937301 4.6681999999998425C6.685666469937303 4.19439999999986 6.140616469937299 4.669099999999844 4.078936469937275 4.628399999999829C2.2869764699372865 4.4547000000000025 1.4570164699372867 6.011399999999867 2.8870864699372873 4.012599999999793C2.904666469937297 2.4588999999998578 -1.5085835300627082 4.805799999999863 0.5449064699373025 5.523899999999912C2.6912564699372865 5.232899999999972 -0.1829935300627028 9.968199999999797 1.935246469937283 11.34439999999995C2.2751664699372895 13.367999999999938 3.8218664699372766 15.612999999999829 5.409846469937293 17.04359999999997C7.852846469937276 18.820699999999988 10.841856469937284 19.892200000000003 11.806166469937295 22.824099999999817C12.653776469937299 25.606199999999944 15.973386469937282 24.753099999999904 16.234046469937283 27.411399999999958C17.8632164699373 27.718999999999824 18.21209646993728 25.7670999999998 18.460716469937296 27.77039999999988C19.81900646993728 29.77619999999979 24.179436469937286 28.68439999999987 26.635966469937273 28.54379999999992C26.555116469937275 26.737699999999904 29.20923646993731 26.14689999999996 29.080436469937297 23.612199999999802C30.314366469937283 22.745699999999943 29.9685164699373 19.521399999999858 31.177586469937296 18.74039999999991C33.94225646993726 17.64670000000001 34.9248164699373 14.808699999999817 33.37884646993729 12.216599999999971C34.317116469937275 10.965299999999843 35.14233646993728 8.983199999999897 35.822166469937315 7.369599999999991C36.597326469937286 6.272399999999834 40.57915646993729 5.425099999999929 37.431156469937264 3.992699999999786C35.3485364699373 3.2796999999998206 35.608166469937316 0.5126999999999953 33.2993664699373 0zM94.20339646993727 9.971900000000005C92.80200646993728 10.533500000000004 91.15380646993731 12.456500000000005 89.7339364699373 10.9849999999999C88.5793564699373 12.75279999999998 85.82166646993727 9.923299999999927 84.64866646993727 12.077499999999873C82.72368646993726 11.508899999999812 79.60787646993731 12.63209999999981 78.75025646993731 13.616799999999785C82.18920646993729 14.834699999999884 75.89720646993732 16.683699999999817 80.0401364699373 17.40119999999979C82.73335646993729 19.291299999999865 85.43858646993726 21.215799999999945 88.58181646993728 22.30769999999984C90.70932646993731 22.551600000000008 92.52692646993728 27.42179999999985 93.80610646993728 24.095399999999927C95.52181646993728 21.99279999999999 96.74270646993727 19.354699999999866 96.14082646993728 16.562799999999925C95.6803564699373 14.289999999999964 95.25445646993728 12.053899999999885 94.20339646993727 9.971900000000005z">
      <title id="t561">Première circonscription de la Polynésie Française</title>
      <desc id="d561">Communes de : Anaa, Arue, Arutua, Fakarava, Fangatau, Fatu-Hiva, Gambier, Hao, Hikueru, Hiva-Oa, Makemo, Manihi, Moorea-Maiao, Napuka, Nuku-Hiva, Nukutavake, Papeete, Pirae, Pukapuka, Rangiroa, Reao, Tahuata, Takaroa, Tatakoto, Tureia, Ua-Huka, Ua-Pou</desc>
    </path><path class="circo" id="id-987-02" d="M171.60671646993728 94.46949999999993C168.3916464699373 93.74569999999994 165.8211764699373 93.86979999999994 163.27166646993732 91.94729999999981C160.06475646993727 90.96719999999982 157.14281646993732 90.60359999999991 153.7367964699373 90.33549999999991C152.32008646993728 88.48169999999982 149.10764646993727 87.9801 148.1331164699373 85.93309999999997C146.39753646993728 83.61159999999995 143.84746646993727 82.26599999999985 142.58024646993726 80.45830000000001C143.99783646993728 77.53109999999992 142.28356646993728 73.5016999999998 139.7157464699373 71.48659999999995C138.9924964699373 70.8134 139.75405646993727 67.66499999999996 137.12682646993727 66.67399999999998C138.2115764699373 64.43809999999985 131.3589364699373 62.98699999999985 136.17678646993727 61.55189999999993C138.4423064699373 61.67949999999996 135.51206646993728 59.41379999999981 135.2056864699373 59.287799999999834C133.4991164699373 61.26499999999987 132.3096564699373 60.99289999999996 132.7908064699373 63.906799999999976C131.29601646993729 65.6244999999999 127.92603646993729 67.33889999999997 125.51986646993731 66.54459999999995C123.36307646993731 66.82089999999994 120.31940646993729 66.28099999999995 119.91734646993729 69.05039999999985C117.11459646993728 69.36069999999995 114.48518646993728 69.96309999999994 111.27408646993729 69.86500000000001C108.9569664699373 69.25009999999997 107.05611646993731 73.0326 104.67013646993729 71.1855999999998C101.1645964699373 72.73239999999987 101.16115646993728 68.0338999999999 97.44897646993729 68.48309999999992C94.50689646993732 67.85209999999984 91.9248164699373 67.28199999999993 89.8484264699373 65.78979999999979C86.8905964699373 65.48119999999994 84.33211646993726 65.67589999999996 81.89101646993731 64.40069999999992C78.35426646993727 63.36909999999989 77.90759646993729 60.984899999999925 77.68937646993732 57.509799999999814C76.3857764699373 53.93319999999994 77.6418764699373 49.592299999999796 74.90937646993729 46.497299999999996C74.7132264699373 43.39859999999999 70.3565064699373 39.206899999999905 70.7607064699373 37.911099999999806C75.28257646993728 38.029599999999846 81.10297646993729 37.30340000000001 83.26923646993731 32.69659999999999C84.15868646993727 28.978999999999814 88.87506646993728 30.212999999999965 91.45896646993731 29.10499999999979C93.15077646993728 27.491799999999785 92.9343864699373 24.898699999999963 94.7155864699373 23.25709999999981C97.54971646993727 19.95069999999987 96.26632646993727 15.416499999999814 95.2240564699373 11.71069999999986C91.94117646993726 8.469299999999976 98.20422646993728 7.970100000000002 96.65813646993729 4.721499999999878C99.54510646993731 4.8508999999999105 102.04620646993732 8.553099999999858 105.22032646993728 7.294599999999946C108.48055646993731 8.233499999999822 112.18747646993728 6.537799999999834 114.8149464699373 9.015899999999874C118.13662646993731 8.998299999999972 120.7161964699373 11.390899999999874 122.99767646993729 13.597999999999956C126.35008646993731 15.695299999999861 131.28642646993728 13.851499999999987 134.0628764699373 17.611199999999826C134.2150764699373 20.646099999999933 137.61687646993727 21.40209999999979 138.9574564699373 23.730199999999968C139.2523764699373 26.090499999999793 139.6797864699373 26.904599999999846 140.80385646993727 29.740699999999833C141.71611646993728 33.01949999999988 139.7675964699373 36.694999999999936 139.0884264699373 39.53859999999986C137.85334646993726 42.13329999999996 139.30495646993728 45.49839999999995 140.8007664699373 47.309999999999945C140.81482646993732 50.928899999999885 139.1449864699373 55.75559999999996 141.6272864699373 58.6411999999998C145.47888646993727 59.43719999999985 149.79304646993728 63.03629999999998 153.7620764699373 60.26209999999992C156.31745646993727 60.81479999999988 159.63727646993726 59.8768 160.8309264699373 62.52409999999986C163.9531864699373 61.419399999999996 165.40066646993728 64.98599999999988 169.11910646993726 64.25699999999983C171.3247664699373 65.39629999999988 172.0563664699373 63.784599999999955 172.9641264699373 62.56049999999982C173.5502464699373 65.96879999999987 177.78633646993728 66.97659999999996 179.41940646993731 70.32119999999986C180.9987264699373 71.66649999999981 180.3290564699373 75.58619999999996 180.6415864699373 77.20179999999982C179.8008764699373 79.0664999999999 182.3079864699373 81.5199 180.1501364699373 83.94200000000001C180.2534764699373 86.43759999999997 179.19182646993727 88.65289999999982 177.62934646993727 90.40469999999982C177.48592646993728 92.50029999999992 173.75914646993726 94.89229999999998 171.60671646993728 94.46949999999993z">
      <title id="t562">Deuxième circonscription de la Polynésie Française</title>
      <desc id="d562">Communes de : Hitiaa O Te Ra, Mahina, Paea, Papara, Raivavae, Rapa, Rimatara, Rurutu, Taiarapu Est, Taiarapu Ouest, Teva I Uta, Tubuai</desc>
    </path><path class="circo" id="id-987-03" d="M77.95438646993728 16.34829999999988C76.9339364699373 16.794999999999845 75.81877646993729 16.9858999999999 74.77692646993728 16.66300000000001C73.63013646993727 16.57619999999997 72.91930646993728 17.795399999999972 71.93547646993727 18.2353999999998C71.48083646993729 18.980799999999817 70.96494646993727 18.554999999999836 70.33341646993728 18.446299999999837C69.20184646993727 18.179599999999937 70.14218646993731 20.38079999999991 68.88671646993731 20.336599999999862C67.72322646993729 21.26229999999987 70.22598646993731 21.899199999999837 69.34909646993731 22.860299999999825C68.48179646993731 22.071699999999964 68.41690646993732 23.670399999999972 69.09494646993727 23.85699999999997C68.64173646993731 24.55899999999997 69.74946646993732 25.166799999999967 69.33819646993732 26.002299999999877C69.73941646993728 26.963599999999815 70.1843364699373 27.822299999999814 70.37207646993727 28.867699999999786C70.52955646993729 29.82009999999991 69.73101646993729 30.514399999999796 70.0919164699373 31.539099999999962C69.92916646993729 32.22849999999994 70.1738464699373 32.91379999999981 69.41250646993728 33.33219999999983C70.09975646993729 33.962299999999914 69.49894646993727 35.03289999999993 70.33566646993728 35.484699999999975C70.7548764699373 36.35189999999989 69.0984664699373 37.99329999999986 70.71206646993727 37.672599999999875C72.2385564699373 37.63739999999984 73.78044646993732 37.718599999999924 75.29505646993726 37.51999999999998C76.31297646993727 37.297399999999925 77.32411646993728 37.01409999999987 78.27200646993731 36.6099999999999C79.15100646993727 36.46549999999979 79.88655646993726 35.87709999999993 80.64105646993727 35.49069999999983C81.46103646993731 34.86689999999999 82.20772646993731 34.205600000000004 82.63545646993731 33.25409999999988C83.3035764699373 32.46349999999984 83.31788646993726 31.239599999999882 84.1716864699373 30.630899999999883C85.08387646993731 29.985999999999876 86.21166646993731 29.69679999999994 87.3226464699373 29.660899999999856C88.32407646993727 29.50409999999988 89.30644646993727 29.243199999999888 90.3378664699373 29.26149999999984C91.27857646993726 29.250999999999976 91.8589164699373 28.395899999999983 92.2945264699373 27.690799999999854C92.6662164699373 27.149199999999837 92.6063064699373 26.301799999999957 92.40103646993731 25.7358999999999C91.79737646993726 25.16639999999984 91.42371646993729 24.378600000000006 90.72260646993726 23.905399999999872C89.7922064699373 23.488200000000006 89.04370646993726 22.75630000000001 88.10250646993728 22.389199999999846C87.21130646993731 22.030499999999847 86.37104646993731 21.652499999999918 85.52258646993727 21.214999999999918C84.44323646993729 20.85409999999979 83.59005646993728 20.081899999999905 82.61320646993727 19.53139999999985C81.78955646993728 18.7358999999999 80.7539564699373 18.25339999999983 79.84138646993728 17.599699999999984C79.21390646993729 17.228599999999915 78.41387646993729 16.870699999999943 77.95427646993727 16.34829999999988z">
      <title id="t563">Troisième circonscription de la Polynésie Française</title>
      <desc id="d563">Communes de : Bora-Bora, Faaa, Huahine, Maupiti, Punaauia, Tahaa, Taputapuatea, Tumaraa, Uturoa</desc>
    </path></svg>