<svg xmlns="http://www.w3.org/2000/svg" version="1.1" xmlns:xlink="http://www.w3.org/1999/xlink" xmlns:svgjs="http://svgjs.dev/svgjs" viewBox="-1.887379141862766e-15 0 145.26361512216855 112.2820999999999"><path class="circo" id="id-988-01" d="M77.80315512216855 6.546800000000076C77.80315512216855 4.364499999999907 77.80315512216855 2.182299999999941 77.80315512216855 0C74.17671512216855 0.07799999999997453 71.15431412216854 2.8442999999999756 67.25531412216854 2.5797999999999774C67.09180412216854 5.95069999999987 64.61236412216854 8.361100000000079 65.27882412216854 11.926099999999906C64.76284412216854 14.09960000000001 67.82071412216854 12.699399999999969 69.08409412216855 13.093599999999924C71.99043412216855 13.093599999999924 74.89678512216855 13.093599999999924 77.80315512216855 13.093599999999924C77.80315512216855 10.911399999999958 77.80315512216855 8.729100000000017 77.80315512216855 6.546800000000076zM111.99050512216856 34.157199999999875C112.03501512216856 29.204400000000078 110.70163512216855 24.60660000000007 109.16669512216855 19.99980000000005C106.25203512216855 18.29060000000004 104.19254512216854 15.544399999999996 100.27564512216854 16.50929999999994C97.84658512216855 15.736300000000028 98.22470512216854 17.77039999999988 98.29748512216854 19.499199999999973C98.29748512216854 23.33120000000008 98.29748512216854 27.163099999999986 98.29748512216854 30.995099999999866C100.62474512216853 32.91149999999993 102.77217512216855 35.85130000000004 106.18936512216855 35.18080000000009C107.92063512216855 34.81040000000007 111.05369512216855 35.79809999999998 111.99050512216856 34.157199999999875zM144.77058512216854 56.70820000000003C145.03650512216853 51.94730000000004 145.10559512216852 47.177400000000034 145.26361512216855 42.41190000000006C141.99977512216853 41.75109999999995 138.51991512216853 41.15930000000003 135.49260512216853 43.021400000000085C133.56877512216852 43.387699999999995 132.60768512216853 44.450599999999895 132.93453512216854 46.44530000000009C132.72420512216854 49.25209999999993 132.51367512216854 52.058899999999994 132.30321512216852 54.86570000000006C134.53965512216854 57.41100000000006 137.88300512216853 57.67470000000003 141.05646512216853 57.05939999999987C142.29429512216853 56.94620000000009 143.53818512216853 56.87239999999997 144.77058512216854 56.70820000000003zM103.99034512216853 103.63599999999997C103.99034512216853 101.55719999999997 103.99034512216853 99.47839999999997 103.99034512216853 97.39969999999994C100.44624512216855 96.8128999999999 96.86154512216855 96.54680000000008 93.28540512216854 96.2385999999999C94.57476512216854 99.44560000000001 94.91517512216855 103.2373 97.30005512216854 105.8415C99.80042512216855 106.34109999999987 104.79607512216855 112.66629999999986 103.95470512216853 107.11650000000009C103.98072512216855 105.95659999999998 103.99014512216856 104.79629999999997 103.99047512216855 103.63599999999997z">
      <title id="t564">Première circonscription de la Nouvelle-Calédonie</title>
      <desc id="d564">Communes de L'Ile des Pins, Lifou, Maré, Nouméa, Ouvéa</desc>
    </path><path class="circo" id="id-988-02" d="M124.05511512216854 111.54209999999989C126.08059512216853 111.54119999999989 128.10608512216854 111.53960000000006 130.13156512216852 111.53870000000006C130.09064512216852 108.4659999999999 130.79529512216854 105.28739999999993 130.03274512216854 102.29250000000002C127.37431512216854 96.9801 120.30513512216855 99.15359999999987 117.47255512216854 93.43169999999986C111.25153512216853 92.50319999999988 109.62939512216853 85.36380000000008 104.34241512216853 82.97289999999998C99.74022512216854 79.22599999999989 93.13595512216854 79.41020000000003 90.18283512216854 73.69710000000009C88.48763512216854 69.99479999999994 83.59991512216854 73.10709999999995 81.50976512216855 70.8771999999999C77.51155512216855 65.33269999999993 73.10425512216854 58.85809999999992 65.99986412216855 57.456699999999955C60.418964122168546 57.30919999999992 60.03813412216854 49.79970000000003 57.487374122168546 46.02209999999991C56.24170412216854 43.19200000000001 54.99606412216855 40.36189999999988 53.75040412216855 37.5317C47.963014122168545 37.490099999999984 41.77664412216855 38.08940000000007 36.68835412216855 34.733799999999974C34.650964122168546 29.26209999999992 34.95196412216855 22.945500000000038 32.27035412216854 17.785100000000057C27.649604122168544 17.607600000000048 22.868554122168543 17.313499999999976 21.10840412216854 12.567199999999957C15.651334122168539 11.442700000000059 10.237534122168544 9.860500000000002 4.673054122168541 8.993999999999915C2.1686241221685414 7.947499999999991 0.33939412216854237 7.811199999999872 0.8802741221685402 11.064499999999953C1.2050341221685414 15.343000000000075 -2.479505877831457 21.658999999999878 3.186504122168543 23.507900000000063C5.886604122168539 26.798000000000002 5.261464122168544 32.26700000000005 9.07596412216854 35.49199999999996C10.243384122168539 37.17079999999987 11.144984122168541 39.302799999999934 13.57793412216854 38.82459999999992C17.51528412216854 39.25780000000009 23.923784122168545 39.91159999999991 23.875544122168545 45.0492999999999C23.357814122168545 47.562400000000025 24.83107412216854 48.71010000000001 27.08512412216854 49.32210000000009C31.195784122168543 51.19489999999996 35.30641412216855 53.067600000000084 39.41706412216854 54.94029999999998C40.37201412216855 59.79029999999989 39.78253412216854 64.81479999999988 40.84474412216855 69.62159999999994C44.55590412216854 73.14619999999991 49.64566412216854 74.72199999999998 54.622444122168545 76.66360000000009C57.44972412216855 78.08770000000004 60.023634122168545 80.32189999999991 62.88221412216855 81.50330000000008C66.15649412216854 81.51960000000008 69.75770412216855 80.23379999999997 72.77796512216854 81.73509999999987C72.36977412216855 87.45249999999987 79.43713512216854 87.32490000000007 82.76168512216854 90.73849999999993C85.13783512216854 92.17079999999987 87.36101512216854 94.04719999999998 89.82852512216854 95.21440000000007C94.70888512216854 95.70389999999998 99.68379512216855 95.70080000000007 104.45810512216853 96.88639999999987C105.75137512216854 101.84960000000001 104.95152512216855 107.16239999999993 105.16969512216853 112.2820999999999C111.45905512216855 111.90370000000007 117.75200512216854 111.54860000000008 124.05511512216854 111.54150000000004z">
      <title id="t565">Deuxième circonscription de la Nouvelle-Calédonie</title>
      <desc id="d565">Communes de Belep, Bouloupari, Bourail, Canala, Dumbéa, Farino, Hienghène, Houaïlou, Kaala-Gomen, Koné, Kouaoua, Koumac, La Foa, Moindou, Le Mont-Dore, Ouégoa, Païta, Poindimié, Ponérihouen, Pouebo, Pouembout, Poum, Poya, Sarraméa, Thio, Touho, Voh, Yaté</desc>
    </path></svg>