<svg xmlns="http://www.w3.org/2000/svg" version="1.1" xmlns:xlink="http://www.w3.org/1999/xlink" xmlns:svgjs="http://svgjs.dev/svgjs" viewBox="27.422764877831458 1322.7481 145.26361512216855 112.2820999999999"><path class="circo" id="id-988-01" d="M 105.22592,1329.2949 C 105.22592,1327.1126 105.22592,1324.9304 105.22592,1322.7481 101.59948,1322.8261 98.577079,1325.5924 94.678079,1325.3279 94.514569,1328.6988 92.035129,1331.1092 92.701589,1334.6742 92.185609,1336.8477 95.243479,1335.4475 96.506859,1335.8417 99.413199,1335.8417 102.31955,1335.8417 105.22592,1335.8417 105.22592,1333.6595 105.22592,1331.4772 105.22592,1329.2949 z M 139.41327,1356.9053 C 139.45778,1351.9525 138.1244,1347.3547 136.58946,1342.7479 133.6748,1341.0387 131.61531,1338.2925 127.69841,1339.2574 125.26935,1338.4844 125.64747,1340.5185 125.72025,1342.2473 125.72025,1346.0793 125.72025,1349.9112 125.72025,1353.7432 128.04751,1355.6596 130.19494,1358.5994 133.61213,1357.9289 135.3434,1357.5585 138.47646,1358.5462 139.41327,1356.9053 z M 172.19335,1379.4563 C 172.45927,1374.6954 172.52836,1369.9255 172.68638,1365.16 169.42254,1364.4992 165.94268,1363.9074 162.91537,1365.7695 160.99154,1366.1358 160.03045,1367.1987 160.3573,1369.1934 160.14697,1372.0002 159.93644,1374.807 159.72598,1377.6138 161.96242,1380.1591 165.30577,1380.4228 168.47923,1379.8075 169.71706,1379.6943 170.96095,1379.6205 172.19335,1379.4563 z M 131.41311,1426.3841 C 131.41311,1424.3053 131.41311,1422.2265 131.41311,1420.1478 127.86901,1419.561 124.28431,1419.2949 120.70817,1418.9867 121.99753,1422.1937 122.33794,1425.9854 124.72282,1428.5896 127.22319,1429.0892 132.21884,1435.4144 131.37747,1429.8646 131.40349,1428.7047 131.41291,1427.5444 131.41324,1426.3841 z">
      <title id="t564">Première circonscription de la Nouvelle-Calédonie</title>
      <desc id="d564">Communes de L'Ile des Pins, Lifou, Maré, Nouméa, Ouvéa</desc>
    </path><path class="circo" id="id-988-02" d="M 151.47788,1434.2902 C 153.50336,1434.2893 155.52885,1434.2877 157.55433,1434.2868 157.51341,1431.2141 158.21806,1428.0355 157.45551,1425.0406 154.79708,1419.7282 147.7279,1421.9017 144.89532,1416.1798 138.6743,1415.2513 137.05216,1408.1119 131.76518,1405.721 127.16299,1401.9741 120.55872,1402.1583 117.6056,1396.4452 115.9104,1392.7429 111.02268,1395.8552 108.93253,1393.6253 104.93432,1388.0808 100.52702,1381.6062 93.422629,1380.2048 87.841729,1380.0573 87.460899,1372.5478 84.910139,1368.7702 83.664469,1365.9401 82.418829,1363.11 81.173169,1360.2798 75.385779,1360.2382 69.199409,1360.8375 64.111119,1357.4819 62.073729,1352.0102 62.374729,1345.6936 59.693119,1340.5332 55.072369,1340.3557 50.291319,1340.0616 48.531169,1335.3153 43.074099,1334.1908 37.660299,1332.6086 32.095819,1331.7421 29.591389,1330.6956 27.762159,1330.5593 28.303039,1333.8126 28.627799,1338.0911 24.943259,1344.4071 30.609269,1346.256 33.309369,1349.5461 32.684229,1355.0151 36.498729,1358.2401 37.666149,1359.9189 38.567749,1362.0509 41.000699,1361.5727 44.938049,1362.0059 51.346549,1362.6597 51.298309,1367.7974 50.780579,1370.3105 52.253839,1371.4582 54.507889,1372.0702 58.618549,1373.943 62.729179,1375.8157 66.839829,1377.6884 67.794779,1382.5384 67.205299,1387.5629 68.267509,1392.3697 71.978669,1395.8943 77.068429,1397.4701 82.045209,1399.4117 84.872489,1400.8358 87.446399,1403.07 90.304979,1404.2514 93.579259,1404.2677 97.180469,1402.9819 100.20073,1404.4832 99.792539,1410.2006 106.8599,1410.073 110.18445,1413.4866 112.5606,1414.9189 114.78378,1416.7953 117.25129,1417.9625 122.13165,1418.452 127.10656,1418.4489 131.88087,1419.6345 133.17414,1424.5977 132.37429,1429.9105 132.59246,1435.0302 138.88182,1434.6518 145.17477,1434.2967 151.47788,1434.2896 z">
      <title id="t565">Deuxième circonscription de la Nouvelle-Calédonie</title>
      <desc id="d565">Communes de Belep, Bouloupari, Bourail, Canala, Dumbéa, Farino, Hienghène, Houaïlou, Kaala-Gomen, Koné, Kouaoua, Koumac, La Foa, Moindou, Le Mont-Dore, Ouégoa, Païta, Poindimié, Ponérihouen, Pouebo, Pouembout, Poum, Poya, Sarraméa, Thio, Touho, Voh, Yaté</desc>
    </path></svg>